<svg viewBox="0 0 24 24" fill="currentColor" stroke="currentColor" xmlns="http://www.w3.org/2000/svg">
<path d="M17.7351 5.05701C17.6141 5.03901 17.5 5.13899 17.5 5.26099V5.49902C17.5 7.31902 16.32 8.49902 14.5 8.49902H9.5C7.68 8.49902 6.5 7.31902 6.5 5.49902V5.26099C6.5 5.13899 6.38489 5.03901 6.26489 5.05701C4.75189 5.27701 4 6.258 4 8V18C4 20 5 21 7 21H17C19 21 20 20 20 18V8C20 6.258 19.2481 5.27701 17.7351 5.05701ZM14.5 14.25H12.75V16C12.75 16.414 12.414 16.75 12 16.75C11.586 16.75 11.25 16.414 11.25 16V14.25H9.5C9.086 14.25 8.75 13.914 8.75 13.5C8.75 13.086 9.086 12.75 9.5 12.75H11.25V11C11.25 10.586 11.586 10.25 12 10.25C12.414 10.25 12.75 10.586 12.75 11V12.75H14.5C14.914 12.75 15.25 13.086 15.25 13.5C15.25 13.914 14.914 14.25 14.5 14.25ZM8 5.5V4.5C8 3.5 8.5 3 9.5 3H14.5C15.5 3 16 3.5 16 4.5V5.5C16 6.5 15.5 7 14.5 7H9.5C8.5 7 8 6.5 8 5.5Z" />
</svg>
