<svg viewBox="0 0 24 24" fill="currentColor" stroke="currentColor" xmlns="http://www.w3.org/2000/svg">
<path d="M17.7351 5.05701C17.6141 5.03901 17.5 5.13899 17.5 5.26099V5.49902C17.5 7.31902 16.32 8.49902 14.5 8.49902H9.5C7.68 8.49902 6.5 7.31902 6.5 5.49902V5.26099C6.5 5.13899 6.38489 5.03901 6.26489 5.05701C4.75189 5.27701 4 6.258 4 8V18C4 20 5 21 7 21H17C19 21 20 20 20 18V8C20 6.258 19.2481 5.27701 17.7351 5.05701ZM10.03 15.864L8.69702 17.197C8.55602 17.338 8.36599 17.417 8.16699 17.417C7.96799 17.417 7.77696 17.338 7.63696 17.198L6.96997 16.531C6.67697 16.238 6.67697 15.763 6.96997 15.47C7.26297 15.177 7.73801 15.177 8.03101 15.47L8.16797 15.607L8.97095 14.804C9.26395 14.511 9.73898 14.511 10.032 14.804C10.323 15.096 10.323 15.571 10.03 15.864ZM10.03 11.864L8.69702 13.197C8.55602 13.338 8.36599 13.417 8.16699 13.417C7.96799 13.417 7.77696 13.338 7.63696 13.198L6.96997 12.531C6.67697 12.238 6.67697 11.763 6.96997 11.47C7.26297 11.177 7.73801 11.177 8.03101 11.47L8.16797 11.607L8.97095 10.804C9.26395 10.511 9.73898 10.511 10.032 10.804C10.323 11.096 10.323 11.571 10.03 11.864ZM16.5 16.75H12.5C12.086 16.75 11.75 16.414 11.75 16C11.75 15.586 12.086 15.25 12.5 15.25H16.5C16.914 15.25 17.25 15.586 17.25 16C17.25 16.414 16.914 16.75 16.5 16.75ZM16.5 12.75H12.5C12.086 12.75 11.75 12.414 11.75 12C11.75 11.586 12.086 11.25 12.5 11.25H16.5C16.914 11.25 17.25 11.586 17.25 12C17.25 12.414 16.914 12.75 16.5 12.75ZM8 5.5V4.5C8 3.5 8.5 3 9.5 3H14.5C15.5 3 16 3.5 16 4.5V5.5C16 6.5 15.5 7 14.5 7H9.5C8.5 7 8 6.5 8 5.5Z" />
</svg>
