<svg viewBox="0 0 24 24" fill="currentColor" stroke="currentColor" xmlns="http://www.w3.org/2000/svg">
<path d="M8 5.5V4.5C8 3.5 8.5 3 9.5 3H14.5C15.5 3 16 3.5 16 4.5V5.5C16 6.5 15.5 7 14.5 7H9.5C8.5 7 8 6.5 8 5.5ZM20 8V18C20 20 19 21 17 21H7C5 21 4 20 4 18V8C4 6.258 4.75189 5.27701 6.26489 5.05701C6.38589 5.03901 6.5 5.13899 6.5 5.26099V5.49902C6.5 7.31902 7.68 8.49902 9.5 8.49902H14.5C16.32 8.49902 17.5 7.31902 17.5 5.49902V5.26099C17.5 5.13899 17.6151 5.03901 17.7351 5.05701C19.2481 5.27701 20 6.258 20 8ZM13.5471 10.5C12.3891 10.494 12 11.643 12 11.643C12 11.643 11.6109 10.495 10.4529 10.5C8.89788 10.507 8.28592 11.935 8.56592 13.354C9.02192 15.668 12 17 12 17C12 17 14.9781 15.668 15.4341 13.354C15.7141 11.935 15.1051 10.507 13.5471 10.5Z" />
</svg>
