<svg viewBox="0 0 24 24" fill="currentColor" stroke="currentColor" xmlns="http://www.w3.org/2000/svg">
<path d="M21 11.5V18.25C21 18.94 20.44 19.5 19.75 19.5C19.06 19.5 18.5 18.94 18.5 18.25V10H19.5C20.328 10 21 10.672 21 11.5ZM19 21H6C4 21 3 20 3 18V6C3 4 4 3 6 3H14C16 3 17 4 17 6V19C17 20.105 17.896 21 19 21ZM6.25 8C6.25 8.414 6.586 8.75 7 8.75H10C10.414 8.75 10.75 8.414 10.75 8C10.75 7.586 10.414 7.25 10 7.25H7C6.586 7.25 6.25 7.586 6.25 8ZM13.75 16C13.75 15.586 13.414 15.25 13 15.25H7C6.586 15.25 6.25 15.586 6.25 16C6.25 16.414 6.586 16.75 7 16.75H13C13.414 16.75 13.75 16.414 13.75 16ZM13.75 12C13.75 11.586 13.414 11.25 13 11.25H7C6.586 11.25 6.25 11.586 6.25 12C6.25 12.414 6.586 12.75 7 12.75H13C13.414 12.75 13.75 12.414 13.75 12Z" />
</svg>
