<svg viewBox="0 0 24 24" fill="currentColor" stroke="currentColor" xmlns="http://www.w3.org/2000/svg">
<path d="M21 11.5V18.25C21 18.94 20.44 19.5 19.75 19.5C19.06 19.5 18.5 18.94 18.5 18.25V10H19.5C20.328 10 21 10.672 21 11.5ZM17 19V6C17 4 16 3 14 3H6C4 3 3 4 3 6V18C3 20 4 21 6 21H19C17.896 21 17 20.105 17 19ZM6.5 16.75C6.086 16.75 5.75 16.414 5.75 16C5.75 15.586 6.086 15.25 6.5 15.25C6.914 15.25 7.25 15.586 7.25 16C7.25 16.414 6.914 16.75 6.5 16.75ZM6.5 12.75C6.086 12.75 5.75 12.414 5.75 12C5.75 11.586 6.086 11.25 6.5 11.25C6.914 11.25 7.25 11.586 7.25 12C7.25 12.414 6.914 12.75 6.5 12.75ZM6.5 8.75C6.086 8.75 5.75 8.414 5.75 8C5.75 7.586 6.086 7.25 6.5 7.25C6.914 7.25 7.25 7.586 7.25 8C7.25 8.414 6.914 8.75 6.5 8.75ZM13.5 16.75H9C8.586 16.75 8.25 16.414 8.25 16C8.25 15.586 8.586 15.25 9 15.25H13.5C13.914 15.25 14.25 15.586 14.25 16C14.25 16.414 13.914 16.75 13.5 16.75ZM13.5 12.75H9C8.586 12.75 8.25 12.414 8.25 12C8.25 11.586 8.586 11.25 9 11.25H13.5C13.914 11.25 14.25 11.586 14.25 12C14.25 12.414 13.914 12.75 13.5 12.75ZM13.5 8.75H9C8.586 8.75 8.25 8.414 8.25 8C8.25 7.586 8.586 7.25 9 7.25H13.5C13.914 7.25 14.25 7.586 14.25 8C14.25 8.414 13.914 8.75 13.5 8.75Z" />
</svg>
