<svg viewBox="0 0 24 24" fill="currentColor" stroke="currentColor" xmlns="http://www.w3.org/2000/svg">
<path d="M17.625 3H6.375C4.125 3 3 4.125 3 6.375V17.625C3 19.875 4.125 21 6.375 21H17.625C19.875 21 21 19.875 21 17.625V6.375C21 4.125 19.875 3 17.625 3ZM13 15.25H8C7.586 15.25 7.25 14.914 7.25 14.5C7.25 14.086 7.586 13.75 8 13.75H13C13.414 13.75 13.75 14.086 13.75 14.5C13.75 14.914 13.414 15.25 13 15.25ZM16 10.25H8C7.586 10.25 7.25 9.914 7.25 9.5C7.25 9.086 7.586 8.75 8 8.75H16C16.414 8.75 16.75 9.086 16.75 9.5C16.75 9.914 16.414 10.25 16 10.25Z" />
</svg>
