<svg viewBox="0 0 24 24" fill="currentColor" stroke="currentColor" xmlns="http://www.w3.org/2000/svg">
<path d="M17.625 3H6.375C4.125 3 3 4.125 3 6.375V17.625C3 19.875 4.125 21 6.375 21H17.625C19.875 21 21 19.875 21 17.625V6.375C21 4.125 19.875 3 17.625 3ZM10.03 14.364L8.69702 15.697C8.55102 15.843 8.35899 15.917 8.16699 15.917C7.97599 15.917 7.78296 15.844 7.63696 15.698L6.96997 15.031C6.67697 14.738 6.67697 14.263 6.96997 13.97C7.26297 13.678 7.73701 13.677 8.03101 13.97L8.16797 14.107L8.97095 13.304C9.26395 13.011 9.73898 13.011 10.032 13.304C10.325 13.597 10.323 14.071 10.03 14.364ZM10.03 9.36401L8.69702 10.697C8.55102 10.843 8.35899 10.917 8.16699 10.917C7.97599 10.917 7.78296 10.844 7.63696 10.698L6.96997 10.031C6.67697 9.73801 6.67697 9.26297 6.96997 8.96997C7.26297 8.67797 7.73701 8.67697 8.03101 8.96997L8.16797 9.10699L8.97095 8.30402C9.26395 8.01102 9.73898 8.01102 10.032 8.30402C10.325 8.59702 10.323 9.07101 10.03 9.36401ZM16.5 15.25H12.5C12.086 15.25 11.75 14.914 11.75 14.5C11.75 14.086 12.086 13.75 12.5 13.75H16.5C16.914 13.75 17.25 14.086 17.25 14.5C17.25 14.914 16.914 15.25 16.5 15.25ZM16.5 10.25H12.5C12.086 10.25 11.75 9.914 11.75 9.5C11.75 9.086 12.086 8.75 12.5 8.75H16.5C16.914 8.75 17.25 9.086 17.25 9.5C17.25 9.914 16.914 10.25 16.5 10.25Z" />
</svg>
