<svg viewBox="0 0 24 24" fill="currentColor" stroke="currentColor" xmlns="http://www.w3.org/2000/svg">
<path d="M15.2601 20.3919C14.9161 20.5559 14.5141 20.678 14.0591 20.76L7.48907 21.91C5.29907 22.3 4.00896 21.4 3.62896 19.21L2.08917 10.46C1.69917 8.26999 2.59912 6.98 4.78912 6.59L6.58697 6.27396C6.79197 6.23796 6.97114 6.41698 6.93414 6.62198L5.75811 13.28C5.22811 16.31 6.65803 18.35 9.67803 18.88C9.67803 18.88 14.8971 19.797 15.1661 19.849C15.4981 19.909 15.5511 20.2629 15.2601 20.3919ZM21.9131 7.10599L20.3689 15.86C19.997 17.968 18.7811 18.869 16.7361 18.589C16.6581 18.578 16.5881 18.578 16.5071 18.564L9.94195 17.406C7.75295 17.02 6.85209 15.733 7.23809 13.544L8.58111 5.92795L8.78204 4.78995C9.16804 2.60095 10.4551 1.69997 12.6441 2.08597L19.21 3.24399C21.398 3.62999 22.2991 4.91799 21.9131 7.10599ZM15.554 13.896C15.626 13.488 15.3541 13.0989 14.9461 13.0269L10.8421 12.303C10.4361 12.23 10.0452 12.504 9.97418 12.911C9.90218 13.319 10.1741 13.708 10.5821 13.78L14.6861 14.504C14.7301 14.512 14.7739 14.515 14.8169 14.515C15.1739 14.516 15.49 14.26 15.554 13.896ZM18.597 11.0349C18.669 10.6269 18.3971 10.238 17.9891 10.166L11.4241 9.00797C11.0201 8.93697 10.627 9.209 10.556 9.616C10.484 10.024 10.7561 10.413 11.1641 10.485L17.7291 11.643C17.7731 11.651 17.8172 11.654 17.8602 11.654C18.2172 11.654 18.533 11.3979 18.597 11.0349ZM19.2972 7.77298C19.3692 7.36498 19.097 6.97596 18.689 6.90396L12.1241 5.74594C11.7201 5.67394 11.3272 5.94698 11.2562 6.35398C11.1842 6.76198 11.4561 7.15099 11.8641 7.22299L18.429 8.38095C18.473 8.38895 18.5171 8.392 18.5601 8.392C18.9171 8.393 19.2332 8.13698 19.2972 7.77298Z" />
</svg>
