<svg viewBox="0 0 24 24" fill="currentColor" stroke="currentColor" xmlns="http://www.w3.org/2000/svg">
<path d="M22 11.8199C22 12.3799 21.93 12.94 21.77 13.47H18.6699C15.7999 13.47 13.47 15.8 13.47 18.67V21.77C12.94 21.93 12.3801 22 11.8201 22C6.39007 22 2 17.6101 2 12.1801V11.8199C2 6.38995 6.39007 2 11.8201 2H12.1799C17.6099 2 22 6.38995 22 11.8199ZM14.97 18.67V21.17C15.49 20.89 15.9699 20.53 16.3999 20.1L20.1001 16.4C20.5301 15.97 20.8899 15.49 21.1699 14.97H18.6699C16.6299 14.97 14.97 16.63 14.97 18.67Z" />
</svg>
