<svg viewBox="0 0 24 24" fill="currentColor" stroke="currentColor" xmlns="http://www.w3.org/2000/svg">
<path d="M16.8799 15H20.22C20.16 15.09 20.09 15.16 20.01 15.24L15.24 20.01C15.16 20.09 15.09 20.16 15 20.22V16.88C15 15.84 15.8399 15 16.8799 15ZM21 6.37V12.85C21 13.07 20.9799 13.29 20.9299 13.5H16.8799C15.0099 13.5 13.5 15.01 13.5 16.88V20.9301C13.29 20.9801 13.0701 21 12.8501 21H6.37988C4.11988 21 3 19.87 3 17.62V6.37C3 4.12 4.11988 3 6.37988 3H17.6201C19.8801 3 21 4.12 21 6.37ZM12.75 14C12.75 13.586 12.414 13.25 12 13.25H8C7.586 13.25 7.25 13.586 7.25 14C7.25 14.414 7.586 14.75 8 14.75H12C12.414 14.75 12.75 14.414 12.75 14ZM16.75 9.5C16.75 9.086 16.414 8.75 16 8.75H8C7.586 8.75 7.25 9.086 7.25 9.5C7.25 9.914 7.586 10.25 8 10.25H16C16.414 10.25 16.75 9.914 16.75 9.5Z" />
</svg>
