<svg viewBox="0 0 24 24" fill="currentColor" stroke="currentColor" xmlns="http://www.w3.org/2000/svg">
<path d="M12 1.25C6.072 1.25 1.25 6.072 1.25 12C1.25 17.928 6.072 22.75 12 22.75C17.928 22.75 22.75 17.928 22.75 12C22.75 6.072 17.928 1.25 12 1.25ZM12 2.75C14.281 2.75 16.3669 3.58403 17.9819 4.95703L4.95801 17.9819C3.58401 16.3669 2.75 14.281 2.75 12C2.75 6.899 6.899 2.75 12 2.75ZM12 21.25C9.719 21.25 7.63307 20.416 6.01807 19.043L19.042 6.01807C20.416 7.63307 21.25 9.719 21.25 12C21.25 17.101 17.101 21.25 12 21.25Z" />
</svg>
