<svg viewBox="0 0 24 24" fill="currentColor" stroke="currentColor" xmlns="http://www.w3.org/2000/svg">
<path d="M17.5 21.75H6.25C3.59 21.75 2.125 20.285 2.125 17.625V6.375C2.125 3.715 3.59 2.25 6.25 2.25H17.5C20.16 2.25 21.625 3.715 21.625 6.375V17.625C21.625 20.285 20.16 21.75 17.5 21.75ZM6.25 3.75C4.41 3.75 3.625 4.535 3.625 6.375V17.625C3.625 19.465 4.41 20.25 6.25 20.25H17.5C19.34 20.25 20.125 19.465 20.125 17.625V6.375C20.125 4.535 19.34 3.75 17.5 3.75H6.25ZM15.625 18.75H8.125C6.219 18.75 5.125 17.657 5.125 15.75V8.25C5.125 6.343 6.219 5.25 8.125 5.25H15.625C17.531 5.25 18.625 6.343 18.625 8.25V15.75C18.625 17.657 17.531 18.75 15.625 18.75ZM8.125 6.75C7.046 6.75 6.625 7.17 6.625 8.25V15.75C6.625 16.83 7.046 17.25 8.125 17.25H15.625C16.704 17.25 17.125 16.83 17.125 15.75V8.25C17.125 7.17 16.704 6.75 15.625 6.75H8.125Z" />
</svg>
