<svg viewBox="0 0 24 24" fill="currentColor" stroke="currentColor" xmlns="http://www.w3.org/2000/svg">
<path d="M12 22.75C6.072 22.75 1.25 17.928 1.25 12C1.25 6.072 6.072 1.25 12 1.25C17.928 1.25 22.75 6.072 22.75 12C22.75 17.928 17.928 22.75 12 22.75ZM12 2.75C6.899 2.75 2.75 6.899 2.75 12C2.75 17.101 6.899 21.25 12 21.25C17.101 21.25 21.25 17.101 21.25 12C21.25 6.899 17.101 2.75 12 2.75ZM15.6169 14.427C15.8519 14.087 15.767 13.619 15.427 13.384C15.086 13.147 14.6191 13.234 14.3831 13.574C13.8731 14.311 13.0339 14.751 12.1399 14.751C10.6229 14.751 9.38989 13.518 9.38989 12.001C9.38989 10.484 10.6229 9.25098 12.1399 9.25098C13.0349 9.25098 13.8731 9.69098 14.3831 10.428C14.6191 10.768 15.086 10.8559 15.427 10.6179C15.768 10.3819 15.8529 9.91495 15.6169 9.57495C14.8259 8.43295 13.5259 7.75195 12.1389 7.75195C9.79492 7.75195 7.88892 9.65895 7.88892 12.002C7.88892 14.345 9.79492 16.252 12.1389 16.252C13.5259 16.25 14.8259 15.568 15.6169 14.427Z" />
</svg>
