<svg viewBox="0 0 24 24" fill="currentColor" stroke="currentColor" xmlns="http://www.w3.org/2000/svg">
<path d="M21.0911 7.03003L16.97 2.90894C16.551 2.48994 15.9709 2.25 15.3789 2.25H8.62109C8.02909 2.25 7.44903 2.48994 7.03003 2.90894L2.90894 7.03003C2.48994 7.44903 2.25 8.02909 2.25 8.62109V15.3789C2.25 15.9709 2.48994 16.551 2.90894 16.97L7.03003 21.0911C7.44903 21.5101 8.02909 21.75 8.62109 21.75H15.3789C15.9709 21.75 16.551 21.5101 16.97 21.0911L21.0911 16.97C21.5101 16.551 21.75 15.9709 21.75 15.3789V8.62109C21.75 8.02909 21.5101 7.44903 21.0911 7.03003ZM20.25 15.3789C20.25 15.5759 20.17 15.7699 20.03 15.9089L15.9089 20.03C15.7689 20.17 15.5759 20.25 15.3789 20.25H8.62109C8.42409 20.25 8.23006 20.17 8.09106 20.03L3.96997 15.9089C3.82997 15.7689 3.75 15.5759 3.75 15.3789V8.62109C3.75 8.42409 3.82997 8.23006 3.96997 8.09106L8.09106 3.96997C8.23106 3.82997 8.42409 3.75 8.62109 3.75H15.3789C15.5759 3.75 15.7699 3.82997 15.9089 3.96997L20.03 8.09106C20.17 8.23106 20.25 8.42409 20.25 8.62109V15.3789ZM15.03 10.03L13.0601 12L15.03 13.97C15.323 14.263 15.323 14.738 15.03 15.031C14.884 15.177 14.692 15.251 14.5 15.251C14.308 15.251 14.116 15.178 13.97 15.031L12 13.061L10.03 15.031C9.88403 15.177 9.692 15.251 9.5 15.251C9.308 15.251 9.11597 15.178 8.96997 15.031C8.67697 14.738 8.67697 14.263 8.96997 13.97L10.9399 12L8.96997 10.03C8.67697 9.73703 8.67697 9.26199 8.96997 8.96899C9.26297 8.67599 9.73801 8.67599 10.031 8.96899L12.001 10.939L13.9709 8.96899C14.2639 8.67599 14.739 8.67599 15.032 8.96899C15.325 9.26199 15.323 9.73703 15.03 10.03Z" />
</svg>
