<svg viewBox="0 0 24 24" fill="currentColor" stroke="currentColor" xmlns="http://www.w3.org/2000/svg">
<path d="M17.625 21.75H6.375C3.715 21.75 2.25 20.285 2.25 17.625V6.375C2.25 3.715 3.715 2.25 6.375 2.25H17.625C20.285 2.25 21.75 3.715 21.75 6.375V17.625C21.75 20.285 20.285 21.75 17.625 21.75ZM6.375 3.75C4.535 3.75 3.75 4.535 3.75 6.375V17.625C3.75 19.465 4.535 20.25 6.375 20.25H17.625C19.465 20.25 20.25 19.465 20.25 17.625V6.375C20.25 4.535 19.465 3.75 17.625 3.75H6.375ZM12 12.1941C11.586 12.1941 11.25 11.8581 11.25 11.4441V7C11.25 6.586 11.586 6.25 12 6.25C12.414 6.25 12.75 6.586 12.75 7V11.4441C12.75 11.8581 12.414 12.1941 12 12.1941ZM12 17.75C9.136 17.75 6.80591 15.4199 6.80591 12.5559C6.80591 11.1719 7.34803 9.86806 8.33203 8.88306C8.62503 8.59106 9.10007 8.59006 9.39307 8.88306C9.68607 9.17506 9.68607 9.65109 9.39307 9.94409C8.69207 10.6451 8.30591 11.5729 8.30591 12.5559C8.30591 14.5929 9.963 16.25 12 16.25C14.037 16.25 15.6941 14.5929 15.6941 12.5559C15.6941 11.5729 15.3079 10.6451 14.6069 9.94409C14.3139 9.65109 14.3139 9.17606 14.6069 8.88306C14.9009 8.59006 15.376 8.59106 15.668 8.88306C16.652 9.86806 17.1941 11.1719 17.1941 12.5559C17.1941 15.4199 14.864 17.75 12 17.75Z" />
</svg>
