<svg viewBox="0 0 24 24" fill="currentColor" stroke="currentColor" xmlns="http://www.w3.org/2000/svg">
<path d="M12 13.875C11.921 13.875 11.841 13.8629 11.762 13.8359C11.369 13.7039 11.1581 13.279 11.2891 12.886C11.4701 12.346 11.9391 11.837 12.7671 11.282C13.7881 10.598 13.657 9.84805 13.614 9.60205C13.501 8.94805 12.95 8.3911 12.303 8.2771C11.81 8.1871 11.3301 8.3161 10.9541 8.6311C10.5761 8.9481 10.3589 9.41489 10.3589 9.91089C10.3589 10.3249 10.0229 10.6609 9.60889 10.6609C9.19489 10.6609 8.85889 10.3249 8.85889 9.91089C8.85889 8.96989 9.27099 8.08493 9.98999 7.48193C10.702 6.88593 11.639 6.63703 12.564 6.80103C13.831 7.02503 14.8701 8.07195 15.0911 9.34595C15.3101 10.6069 14.7811 11.7381 13.6021 12.5291C12.8711 13.0191 12.735 13.292 12.71 13.364C12.605 13.677 12.313 13.875 12 13.875ZM13.02 16.5C13.02 15.948 12.573 15.5 12.02 15.5H12.01C11.458 15.5 11.0149 15.948 11.0149 16.5C11.0149 17.052 11.468 17.5 12.02 17.5C12.572 17.5 13.02 17.052 13.02 16.5ZM21.75 17.625V6.375C21.75 3.715 20.285 2.25 17.625 2.25H6.375C3.715 2.25 2.25 3.715 2.25 6.375V17.625C2.25 20.285 3.715 21.75 6.375 21.75H17.625C20.285 21.75 21.75 20.285 21.75 17.625ZM17.625 3.75C19.465 3.75 20.25 4.535 20.25 6.375V17.625C20.25 19.465 19.465 20.25 17.625 20.25H6.375C4.535 20.25 3.75 19.465 3.75 17.625V6.375C3.75 4.535 4.535 3.75 6.375 3.75H17.625Z" />
</svg>
