<svg viewBox="0 0 24 24" fill="currentColor" stroke="currentColor" xmlns="http://www.w3.org/2000/svg">
<path d="M12 22.75C6.072 22.75 1.25 17.928 1.25 12C1.25 6.072 6.072 1.25 12 1.25C17.928 1.25 22.75 6.072 22.75 12C22.75 17.928 17.928 22.75 12 22.75ZM12 2.75C6.899 2.75 2.75 6.899 2.75 12C2.75 17.101 6.899 21.25 12 21.25C17.101 21.25 21.25 17.101 21.25 12C21.25 6.899 17.101 2.75 12 2.75ZM12 18.75C8.278 18.75 5.25 15.722 5.25 12C5.25 8.278 8.278 5.25 12 5.25C15.722 5.25 18.75 8.278 18.75 12C18.75 15.722 15.722 18.75 12 18.75ZM12 6.75C9.105 6.75 6.75 9.105 6.75 12C6.75 14.895 9.105 17.25 12 17.25C14.895 17.25 17.25 14.895 17.25 12C17.25 9.105 14.895 6.75 12 6.75Z" />
</svg>
