<svg viewBox="0 0 24 24" fill="currentColor" stroke="currentColor" xmlns="http://www.w3.org/2000/svg">
<path d="M12 1.25C6.072 1.25 1.25 6.072 1.25 12C1.25 17.928 6.072 22.75 12 22.75C17.928 22.75 22.75 17.928 22.75 12C22.75 6.072 17.928 1.25 12 1.25ZM12 21.25C6.899 21.25 2.75 17.101 2.75 12C2.75 6.899 6.899 2.75 12 2.75C17.101 2.75 21.25 6.899 21.25 12C21.25 17.101 17.101 21.25 12 21.25ZM15.75 10C15.75 8.483 14.517 7.25 13 7.25H9C8.586 7.25 8.25 7.586 8.25 8V16C8.25 16.414 8.586 16.75 9 16.75C9.414 16.75 9.75 16.414 9.75 16V12.75H12.5359L14.3291 16.335C14.4611 16.598 14.725 16.75 15.001 16.75C15.113 16.75 15.228 16.7249 15.335 16.6709C15.706 16.4849 15.8559 16.035 15.6709 15.665L14.0979 12.519C15.0689 12.093 15.75 11.126 15.75 10ZM13 11.25H9.75V8.75H13C13.689 8.75 14.25 9.311 14.25 10C14.25 10.689 13.689 11.25 13 11.25Z" />
</svg>
