<svg viewBox="0 0 24 24" fill="currentColor" stroke="currentColor" xmlns="http://www.w3.org/2000/svg">
<path d="M16 18.75H8C4.278 18.75 1.25 15.722 1.25 12C1.25 8.278 4.278 5.25 8 5.25H16C19.722 5.25 22.75 8.278 22.75 12C22.75 15.722 19.722 18.75 16 18.75ZM8 6.75C5.105 6.75 2.75 9.105 2.75 12C2.75 14.895 5.105 17.25 8 17.25H16C18.895 17.25 21.25 14.895 21.25 12C21.25 9.105 18.895 6.75 16 6.75H8ZM16 15.75C13.933 15.75 12.25 14.068 12.25 12C12.25 9.932 13.933 8.25 16 8.25C18.067 8.25 19.75 9.932 19.75 12C19.75 14.068 18.067 15.75 16 15.75ZM16 9.75C14.76 9.75 13.75 10.759 13.75 12C13.75 13.241 14.76 14.25 16 14.25C17.24 14.25 18.25 13.241 18.25 12C18.25 10.759 17.24 9.75 16 9.75Z" />
</svg>
