<svg viewBox="0 0 24 24" fill="currentColor" stroke="currentColor" xmlns="http://www.w3.org/2000/svg">
<path d="M19 18.75H5C2.582 18.75 1.25 17.418 1.25 15V9C1.25 6.582 2.582 5.25 5 5.25H19C21.418 5.25 22.75 6.582 22.75 9V15C22.75 17.418 21.418 18.75 19 18.75ZM5 6.75C3.423 6.75 2.75 7.423 2.75 9V15C2.75 16.577 3.423 17.25 5 17.25H19C20.577 17.25 21.25 16.577 21.25 15V9C21.25 7.423 20.577 6.75 19 6.75H5ZM17.5 15.75H14.5C13.091 15.75 12.25 14.909 12.25 13.5V10.5C12.25 9.091 13.091 8.25 14.5 8.25H17.5C18.909 8.25 19.75 9.091 19.75 10.5V13.5C19.75 14.909 18.909 15.75 17.5 15.75ZM14.5 9.75C13.911 9.75 13.75 9.911 13.75 10.5V13.5C13.75 14.089 13.911 14.25 14.5 14.25H17.5C18.089 14.25 18.25 14.089 18.25 13.5V10.5C18.25 9.911 18.089 9.75 17.5 9.75H14.5Z" />
</svg>
