<svg viewBox="0 0 24 24" fill="currentColor" stroke="currentColor" xmlns="http://www.w3.org/2000/svg">
<path d="M16 18.75H8C4.278 18.75 1.25 15.722 1.25 12C1.25 8.278 4.278 5.25 8 5.25H16C19.722 5.25 22.75 8.278 22.75 12C22.75 15.722 19.722 18.75 16 18.75ZM8 6.75C5.105 6.75 2.75 9.105 2.75 12C2.75 14.895 5.105 17.25 8 17.25H16C18.895 17.25 21.25 14.895 21.25 12C21.25 9.105 18.895 6.75 16 6.75H8ZM8 15.75C5.933 15.75 4.25 14.068 4.25 12C4.25 9.932 5.933 8.25 8 8.25C10.067 8.25 11.75 9.932 11.75 12C11.75 14.068 10.067 15.75 8 15.75ZM8 9.75C6.76 9.75 5.75 10.759 5.75 12C5.75 13.241 6.76 14.25 8 14.25C9.24 14.25 10.25 13.241 10.25 12C10.25 10.759 9.24 9.75 8 9.75Z" />
</svg>
