<svg viewBox="0 0 24 24" fill="currentColor" stroke="currentColor" xmlns="http://www.w3.org/2000/svg">
<path d="M20.947 10.0659C20.433 9.53992 19.742 9.25 19 9.25H10.8579C9.99591 8.044 8.592 7.25 7 7.25C4.381 7.25 2.25 9.381 2.25 12C2.25 14.619 4.381 16.75 7 16.75C8.592 16.75 9.99591 15.956 10.8579 14.75H19C20.517 14.75 21.75 13.517 21.75 12C21.75 11.257 21.46 10.5649 20.947 10.0659ZM7 15.25C5.208 15.25 3.75 13.792 3.75 12C3.75 10.208 5.208 8.75 7 8.75C8.792 8.75 10.25 10.208 10.25 12C10.25 13.792 8.792 15.25 7 15.25ZM19 13.25H11.562C11.672 12.849 11.75 12.436 11.75 12C11.75 11.565 11.672 11.151 11.562 10.75H19C19.335 10.75 19.645 10.879 19.887 11.127C20.121 11.355 20.25 11.665 20.25 12C20.25 12.689 19.689 13.25 19 13.25Z" />
</svg>
