<svg viewBox="0 0 24 24" fill="currentColor" stroke="currentColor" xmlns="http://www.w3.org/2000/svg">
<path d="M18.6918 22.75H5.30682C3.86882 22.75 2.56804 22.014 1.82904 20.782C1.09204 19.552 1.05589 18.0631 1.73089 16.7981L8.33685 4.44312C9.06985 3.07012 10.44 2.25098 11.998 2.25098C13.556 2.25098 14.9259 3.07012 15.6589 4.44312L22.2648 16.7981C22.9408 18.0631 22.9049 19.552 22.1669 20.782C21.4319 22.014 20.1308 22.75 18.6918 22.75ZM11.9999 3.75C11.0039 3.75 10.1298 4.27293 9.66082 5.14893L3.05487 17.5039C2.62987 18.2989 2.65288 19.236 3.11688 20.009C3.58288 20.785 4.40104 21.249 5.30804 21.249H18.6931C19.6 21.249 20.419 20.786 20.884 20.009C21.348 19.236 21.37 18.2989 20.946 17.5039L14.34 5.14893C13.87 4.27293 12.9959 3.75 11.9999 3.75Z" />
</svg>
