<svg viewBox="0 0 24 24" fill="currentColor" stroke="currentColor" xmlns="http://www.w3.org/2000/svg">
<path d="M13.63 12.42L13.6002 12.4L17.67 8.73999C17.87 8.55999 17.9901 8.29999 18.0001 8.02999C18.0101 7.74999 17.9001 7.49 17.7101 7.29L12.7101 2.29C12.4201 2.01 11.9902 1.91998 11.6202 2.07998C11.2402 2.22998 11.0001 2.6 11.0001 3V10.58L7.57016 8.17999C7.12016 7.85999 6.50003 7.96999 6.18003 8.42999C5.86003 8.87999 5.97003 9.5 6.43003 9.82L10.14 12.42L10.4 12.6L6.33017 16.26C5.92017 16.63 5.8901 17.26 6.2601 17.67C6.6301 18.08 7.26002 18.11 7.67002 17.74L11.0001 14.75V21C11.0001 21.4 11.2402 21.77 11.6202 21.92C11.7402 21.98 11.8701 22 12.0001 22C12.2601 22 12.5201 21.9 12.7101 21.71L17.7101 16.71C17.9201 16.5 18.0201 16.21 18.0001 15.91C17.9701 15.62 17.8202 15.35 17.5702 15.18L13.63 12.42ZM13.0001 5.41L15.5501 7.95999L13.0001 10.25V5.41ZM13.0001 18.59V14.42L15.45 16.14L13.0001 18.59Z" />
</svg>
