<svg viewBox="0 0 24 24" fill="currentColor" stroke="currentColor" xmlns="http://www.w3.org/2000/svg">
<path d="M18 6H9.00005C8.60205 6 8.22101 6.158 7.93901 6.439L3.43901 10.939C2.85301 11.525 2.85301 12.475 3.43901 13.06L7.93901 17.56C8.22001 17.841 8.60205 17.999 9.00005 17.999H18C20 17.999 21 16.999 21 14.999V8.99899C21 6.99999 20 6 18 6ZM16.5301 13.47C16.8231 13.763 16.8231 14.238 16.5301 14.531C16.3841 14.677 16.192 14.751 16 14.751C15.808 14.751 15.616 14.678 15.47 14.531L14 13.061L12.5301 14.531C12.3841 14.677 12.192 14.751 12 14.751C11.808 14.751 11.616 14.678 11.47 14.531C11.177 14.238 11.177 13.763 11.47 13.47L12.94 12L11.47 10.53C11.177 10.237 11.177 9.76199 11.47 9.46899C11.763 9.17599 12.2381 9.17599 12.5311 9.46899L14.001 10.939L15.471 9.46899C15.764 9.17599 16.239 9.17599 16.532 9.46899C16.825 9.76199 16.825 10.237 16.532 10.53L15.0621 12L16.5301 13.47Z" />
</svg>
