<svg viewBox="0 0 24 24" fill="currentColor" stroke="currentColor" xmlns="http://www.w3.org/2000/svg">
<path d="M18 5H6C4 5 3 6 3 8V17C3 19 4 20 6 20H18C20 20 21 19 21 17V8C21 6 20 5 18 5ZM17.9409 9.606L13.0291 13.178C12.7211 13.402 12.36 13.514 12 13.514C11.64 13.514 11.2779 13.402 10.9709 13.179L6.05908 9.606C5.72408 9.363 5.65004 8.893 5.89404 8.558C6.13704 8.224 6.60389 8.14801 6.94189 8.39301L11.854 11.965C11.942 12.028 12.059 12.029 12.147 11.965L17.0591 8.39301C17.3961 8.14801 17.8639 8.224 18.1069 8.558C18.3509 8.894 18.2759 9.363 17.9409 9.606Z" />
</svg>
