<svg viewBox="0 0 24 24" fill="currentColor" stroke="currentColor" xmlns="http://www.w3.org/2000/svg">
<path d="M17 4H5C3 4 2 5 2 7V16C2 18 3 19 5 19C5 19 11.939 19 12.199 19C12.459 19 12.501 18.753 12.501 18.715C12.501 18.338 12.675 17.984 12.939 17.72L18.429 12.2C18.785 11.844 19.241 11.61 19.731 11.535C19.882 11.512 19.999 11.394 19.999 11.242V7C20 5 19 4 17 4ZM16.9409 8.606L12.0291 12.178C11.7211 12.402 11.36 12.514 11 12.514C10.64 12.514 10.2779 12.402 9.97095 12.179L5.05908 8.606C4.72408 8.363 4.65004 7.893 4.89404 7.558C5.13704 7.225 5.60389 7.14801 5.94189 7.39301L10.854 10.965C10.942 11.028 11.059 11.029 11.147 10.965L16.0591 7.39301C16.3961 7.14801 16.8639 7.224 17.1069 7.558C17.3509 7.894 17.2759 8.363 16.9409 8.606ZM17.978 14.78L20.218 17.02L16.218 21H13.998V18.78L17.978 14.78ZM21.738 14.25L20.748 13.26C20.398 12.91 19.838 12.91 19.488 13.26L18.678 14.08L20.918 16.32L21.738 15.51C22.087 15.16 22.087 14.6 21.738 14.25Z" />
</svg>
