<svg viewBox="0 0 24 24" fill="currentColor" stroke="currentColor" xmlns="http://www.w3.org/2000/svg">
<path d="M22 6C22 7.105 21.104 8 20 8C18.896 8 18 7.105 18 6C18 4.895 18.896 4 20 4C21.104 4 22 4.895 22 6ZM20.999 9.73L21 17C21 19 20 20 18 20H6C4 20 3 19 3 17V8C3 6 4 5 6 5H16.269C16.459 5 16.5991 5.18 16.5591 5.37C16.5091 5.64 16.489 5.93 16.509 6.23C16.609 7.95 18.0491 9.39001 19.7791 9.49001C20.0791 9.51001 20.3589 9.49 20.6289 9.44C20.8179 9.41 20.999 9.54 20.999 9.73ZM17.5859 9.53101C17.3269 9.20701 16.855 9.156 16.531 9.414L12.156 12.914C12.066 12.987 11.933 12.987 11.844 12.914L7.46899 9.414C7.14599 9.156 6.67506 9.20701 6.41406 9.53101C6.15506 9.85401 6.20801 10.326 6.53101 10.585L10.906 14.085C11.228 14.343 11.614 14.471 12 14.471C12.386 14.471 12.771 14.342 13.094 14.085L17.469 10.585C17.792 10.327 17.8449 9.85501 17.5859 9.53101Z" />
</svg>
