<svg viewBox="0 0 24 24" fill="currentColor" stroke="currentColor" xmlns="http://www.w3.org/2000/svg">
<path d="M21.5581 12.301L19.396 5.814C18.869 4.232 17.568 3.25 16 3.25H8C6.433 3.25 5.132 4.232 4.604 5.814L2.44312 12.3C2.31512 12.682 2.25 13.082 2.25 13.487V18C2.25 20.418 3.582 21.75 6 21.75H18C20.418 21.75 21.75 20.418 21.75 18V13.487C21.75 13.082 21.6851 12.682 21.5581 12.301ZM6.02808 6.28799C6.34808 5.32499 7.086 4.75 8 4.75H16C16.914 4.75 17.6509 5.32499 17.9719 6.28799L20.043 12.5H17.0449C15.8849 12.5 14.8059 13.159 14.1589 14.263C13.7129 15.026 12.886 15.5 12 15.5C11.114 15.5 10.2871 15.026 9.84106 14.263C9.19506 13.159 8.11508 12.5 6.95508 12.5H3.95801L6.02808 6.28799Z" />
</svg>
