<svg viewBox="0 0 24 24" fill="currentColor" stroke="currentColor" xmlns="http://www.w3.org/2000/svg">
<path d="M10 17H7C5.676 17 4.42202 16.482 3.46802 15.542C2.51802 14.578 2 13.324 2 12C2 9.243 4.243 7 7 7H8C8.553 7 9 7.448 9 8C9 8.552 8.553 9 8 9H7C5.346 9 4 10.346 4 12C4 12.795 4.31308 13.551 4.88208 14.128C5.44908 14.687 6.205 15 7 15H10C11.654 15 13 13.654 13 12C13 11.448 13.447 11 14 11C14.553 11 15 11.448 15 12C15 14.757 12.757 17 10 17ZM22 12C22 10.676 21.482 9.42101 20.532 8.45801C19.578 7.51801 18.324 7 17 7H14C11.243 7 9 9.243 9 12C9 12.552 9.447 13 10 13C10.553 13 11 12.552 11 12C11 10.346 12.346 9 14 9H17C17.795 9 18.5509 9.31301 19.1179 9.87201C19.6859 10.449 20 11.205 20 12C20 13.654 18.654 15 17 15H16C15.447 15 15 15.448 15 16C15 16.552 15.447 17 16 17H17C19.757 17 22 14.757 22 12Z" />
</svg>
