<svg viewBox="0 0 24 24" fill="currentColor" stroke="currentColor" xmlns="http://www.w3.org/2000/svg">
<path d="M15 13H9C8.447 13 8 12.552 8 12C8 11.448 8.447 11 9 11H15C15.553 11 16 11.448 16 12C16 12.552 15.553 13 15 13ZM22 12C22 8.692 19.309 6 16 6H14C13.447 6 13 6.448 13 7C13 7.552 13.447 8 14 8H16C18.206 8 20 9.794 20 12C20 14.206 18.206 16 16 16H14C13.447 16 13 16.448 13 17C13 17.552 13.447 18 14 18H16C19.309 18 22 15.308 22 12ZM11 17C11 16.448 10.553 16 10 16H8C5.794 16 4 14.206 4 12C4 9.794 5.794 8 8 8H10C10.553 8 11 7.552 11 7C11 6.448 10.553 6 10 6H8C4.691 6 2 8.692 2 12C2 15.308 4.691 18 8 18H10C10.553 18 11 17.552 11 17Z" />
</svg>
