<svg viewBox="0 0 24 24" fill="currentColor" stroke="currentColor" xmlns="http://www.w3.org/2000/svg">
<path d="M21.3001 15.38L21.2972 15.385C20.9722 15.879 20.3741 16.1 19.8021 15.957L17.078 15.258C16.105 15.008 15.4991 14.04 15.6981 13.056L15.9471 11.828C13.4121 10.892 10.623 10.898 8.08699 11.822L8.32918 13.06C8.52118 14.043 7.91202 15.006 6.94002 15.251L4.19905 15.945C3.62705 16.088 3.03503 15.861 2.71003 15.379C1.36503 13.361 1.98817 10.263 4.10017 9.07198C5.34817 8.36798 6.66712 7.84298 8.01912 7.49798C11.9781 6.48698 16.2322 7.01398 19.8912 9.08498C21.9942 10.275 22.6401 13.37 21.3001 15.38Z" />
</svg>
