<svg viewBox="0 0 24 24" fill="currentColor" stroke="currentColor" xmlns="http://www.w3.org/2000/svg">
<path d="M17.6249 14.174L20.268 15.75C20.814 16.076 21.0959 16.71 20.9709 17.334C20.4599 19.893 17.89 21.533 15.373 20.842C9.43395 19.212 4.79484 14.587 3.15884 8.635C2.46684 6.117 4.10495 3.54498 6.66495 3.03298L6.68179 3.02999C7.30679 2.90499 7.94395 3.18799 8.26895 3.73699L9.83194 6.376C10.3879 7.314 10.1118 8.52398 9.20279 9.12798L7.5419 10.233C8.7139 13.04 10.9538 15.289 13.7528 16.459L14.8678 14.794C15.4768 13.887 16.6869 13.615 17.6249 14.174ZM19.9999 5.74999H18.2499V3.99999C18.2499 3.58599 17.9139 3.24999 17.4999 3.24999C17.0859 3.24999 16.7499 3.58599 16.7499 3.99999V5.74999H14.9999C14.5859 5.74999 14.2499 6.08599 14.2499 6.49999C14.2499 6.91399 14.5859 7.24999 14.9999 7.24999H16.7499V8.99999C16.7499 9.41399 17.0859 9.74999 17.4999 9.74999C17.9139 9.74999 18.2499 9.41399 18.2499 8.99999V7.24999H19.9999C20.4139 7.24999 20.7499 6.91399 20.7499 6.49999C20.7499 6.08599 20.4139 5.74999 19.9999 5.74999Z" />
</svg>
