<svg viewBox="0 0 24 24" fill="currentColor" stroke="currentColor" xmlns="http://www.w3.org/2000/svg">
<path d="M18 15C16.933 15 16.001 15.562 15.47 16.401L8.7959 13.064C8.9229 12.732 9 12.376 9 11.999C9 11.623 8.9229 11.266 8.7959 10.934L15.47 7.59698C16.002 8.43699 16.933 8.99799 18 8.99799C19.657 8.99799 21 7.65499 21 5.99799C21 4.34099 19.657 2.99799 18 2.99799C16.343 2.99799 15 4.34099 15 5.99799C15 6.04899 15.0129 6.097 15.0149 6.147L7.90796 9.70001C7.38796 9.26801 6.729 8.99701 6 8.99701C4.343 8.99701 3 10.34 3 11.997C3 13.654 4.343 14.997 6 14.997C6.729 14.997 7.38796 14.727 7.90796 14.294L15.0149 17.847C15.0129 17.897 15 17.945 15 17.996C15 19.653 16.343 20.996 18 20.996C19.657 20.996 21 19.653 21 17.996C21 16.339 19.657 15 18 15Z" />
</svg>
