<svg viewBox="0 0 24 24" fill="currentColor" stroke="currentColor" xmlns="http://www.w3.org/2000/svg">
<path d="M10 19C10 20.104 9.105 21 8 21C6.895 21 6 20.104 6 19C6 17.896 6.895 17 8 17C9.105 17 10 17.896 10 19ZM8 10C6.895 10 6 10.896 6 12C6 13.104 6.895 14 8 14C9.105 14 10 13.104 10 12C10 10.896 9.105 10 8 10ZM8 3C6.895 3 6 3.896 6 5C6 6.104 6.895 7 8 7C9.105 7 10 6.104 10 5C10 3.896 9.105 3 8 3ZM16 17C14.895 17 14 17.896 14 19C14 20.104 14.895 21 16 21C17.105 21 18 20.104 18 19C18 17.896 17.105 17 16 17ZM16 10C14.895 10 14 10.896 14 12C14 13.104 14.895 14 16 14C17.105 14 18 13.104 18 12C18 10.896 17.105 10 16 10ZM16 3C14.895 3 14 3.896 14 5C14 6.104 14.895 7 16 7C17.105 7 18 6.104 18 5C18 3.896 17.105 3 16 3Z" />
</svg>
