<svg viewBox="0 0 24 24" fill="currentColor" stroke="currentColor" xmlns="http://www.w3.org/2000/svg">
<path d="M5 10C3.895 10 3 9.104 3 8C3 6.896 3.895 6 5 6C6.105 6 7 6.896 7 8C7 9.104 6.105 10 5 10ZM14 8C14 6.896 13.105 6 12 6C10.895 6 10 6.896 10 8C10 9.104 10.895 10 12 10C13.105 10 14 9.104 14 8ZM21 8C21 6.896 20.105 6 19 6C17.895 6 17 6.896 17 8C17 9.104 17.895 10 19 10C20.105 10 21 9.104 21 8ZM7 16C7 14.896 6.105 14 5 14C3.895 14 3 14.896 3 16C3 17.104 3.895 18 5 18C6.105 18 7 17.104 7 16ZM14 16C14 14.896 13.105 14 12 14C10.895 14 10 14.896 10 16C10 17.104 10.895 18 12 18C13.105 18 14 17.104 14 16ZM21 16C21 14.896 20.105 14 19 14C17.895 14 17 14.896 17 16C17 17.104 17.895 18 19 18C20.105 18 21 17.104 21 16Z" />
</svg>
