<svg viewBox="0 0 24 24" fill="currentColor" stroke="currentColor" xmlns="http://www.w3.org/2000/svg">
<path d="M5 7C3.895 7 3 6.104 3 5C3 3.896 3.895 3 5 3C6.105 3 7 3.896 7 5C7 6.104 6.105 7 5 7ZM14 5C14 3.896 13.105 3 12 3C10.895 3 10 3.896 10 5C10 6.104 10.895 7 12 7C13.105 7 14 6.104 14 5ZM21 5C21 3.896 20.105 3 19 3C17.895 3 17 3.896 17 5C17 6.104 17.895 7 19 7C20.105 7 21 6.104 21 5ZM7 12C7 10.896 6.105 10 5 10C3.895 10 3 10.896 3 12C3 13.104 3.895 14 5 14C6.105 14 7 13.104 7 12ZM14 12C14 10.896 13.105 10 12 10C10.895 10 10 10.896 10 12C10 13.104 10.895 14 12 14C13.105 14 14 13.104 14 12ZM21 12C21 10.896 20.105 10 19 10C17.895 10 17 10.896 17 12C17 13.104 17.895 14 19 14C20.105 14 21 13.104 21 12ZM7 19C7 17.896 6.105 17 5 17C3.895 17 3 17.896 3 19C3 20.104 3.895 21 5 21C6.105 21 7 20.104 7 19ZM14 19C14 17.896 13.105 17 12 17C10.895 17 10 17.896 10 19C10 20.104 10.895 21 12 21C13.105 21 14 20.104 14 19ZM21 19C21 17.896 20.105 17 19 17C17.895 17 17 17.896 17 19C17 20.104 17.895 21 19 21C20.105 21 21 20.104 21 19Z" />
</svg>
