<svg viewBox="0 0 24 24" fill="currentColor" stroke="currentColor" xmlns="http://www.w3.org/2000/svg">
<path d="M6 4H13.95C14.116 4 14.25 4.13405 14.25 4.30005V10.95C14.25 11.116 14.116 11.25 13.95 11.25H3.30005C3.13405 11.25 3 11.116 3 10.95V7C3 5 4 4 6 4ZM3 13.05V17C3 19 4 20 6 20H13.95C14.116 20 14.25 19.866 14.25 19.7V13.05C14.25 12.884 14.116 12.75 13.95 12.75H3.30005C3.13405 12.75 3 12.884 3 13.05ZM18 4H16.05C15.884 4 15.75 4.13405 15.75 4.30005V19.7C15.75 19.866 15.884 20 16.05 20H18C20 20 21 19 21 17V7C21 5 20 4 18 4Z" />
</svg>
