<svg viewBox="0 0 24 24" fill="currentColor" stroke="currentColor" xmlns="http://www.w3.org/2000/svg">
<path d="M10.95 13.25H3.30005C3.13405 13.25 3 13.116 3 12.95V7C3 5 4 4 6 4H10.95C11.116 4 11.25 4.13405 11.25 4.30005V12.95C11.25 13.116 11.116 13.25 10.95 13.25ZM18 4H13.05C12.884 4 12.75 4.13405 12.75 4.30005V12.95C12.75 13.116 12.884 13.25 13.05 13.25H20.7C20.866 13.25 21 13.116 21 12.95V7C21 5 20 4 18 4ZM3 15.05V17C3 19 4 20 6 20H18C20 20 21 19 21 17V15.05C21 14.884 20.866 14.75 20.7 14.75H3.30005C3.13405 14.75 3 14.884 3 15.05Z" />
</svg>
