<svg viewBox="0 0 24 24" fill="currentColor" stroke="currentColor" xmlns="http://www.w3.org/2000/svg">
<path d="M3.30005 10.75H10.95C11.116 10.75 11.25 10.884 11.25 11.05V19.7C11.25 19.866 11.116 20 10.95 20H6C4 20 3 19 3 17V11.05C3 10.884 3.13405 10.75 3.30005 10.75ZM18 4H6C4 4 3 5 3 7V8.94995C3 9.11595 3.13405 9.25 3.30005 9.25H20.7C20.866 9.25 21 9.11595 21 8.94995V7C21 5 20 4 18 4ZM12.75 11.05V19.7C12.75 19.866 12.884 20 13.05 20H18C20 20 21 19 21 17V11.05C21 10.884 20.866 10.75 20.7 10.75H13.05C12.884 10.75 12.75 10.884 12.75 11.05Z" />
</svg>
