<svg viewBox="0 0 24 24" fill="currentColor" stroke="currentColor" xmlns="http://www.w3.org/2000/svg">
<path d="M21 8.75C20.586 8.75 20.25 8.414 20.25 8V4.5C20.25 3.911 20.089 3.75 19.5 3.75H16C15.586 3.75 15.25 3.414 15.25 3C15.25 2.586 15.586 2.25 16 2.25H19.5C20.909 2.25 21.75 3.091 21.75 4.5V8C21.75 8.414 21.414 8.75 21 8.75ZM3.75 8V4.5C3.75 3.911 3.911 3.75 4.5 3.75H8C8.414 3.75 8.75 3.414 8.75 3C8.75 2.586 8.414 2.25 8 2.25H4.5C3.091 2.25 2.25 3.091 2.25 4.5V8C2.25 8.414 2.586 8.75 3 8.75C3.414 8.75 3.75 8.414 3.75 8ZM8.75 21C8.75 20.586 8.414 20.25 8 20.25H4.5C3.911 20.25 3.75 20.089 3.75 19.5V16C3.75 15.586 3.414 15.25 3 15.25C2.586 15.25 2.25 15.586 2.25 16V19.5C2.25 20.909 3.091 21.75 4.5 21.75H8C8.414 21.75 8.75 21.414 8.75 21ZM21.75 19.5V16C21.75 15.586 21.414 15.25 21 15.25C20.586 15.25 20.25 15.586 20.25 16V19.5C20.25 20.089 20.089 20.25 19.5 20.25H16C15.586 20.25 15.25 20.586 15.25 21C15.25 21.414 15.586 21.75 16 21.75H19.5C20.909 21.75 21.75 20.909 21.75 19.5ZM15.09 8.33301C15.09 6.63301 13.706 5.25 12.006 5.25C10.306 5.25 8.92297 6.63301 8.92297 8.33301C8.92297 10.033 10.306 11.416 12.006 11.416C13.706 11.416 15.09 10.034 15.09 8.33301ZM13.59 8.33301C13.59 9.20601 12.879 9.91602 12.006 9.91602C11.133 9.91602 10.423 9.20601 10.423 8.33301C10.423 7.46001 11.133 6.75 12.006 6.75C12.879 6.75 13.59 7.46001 13.59 8.33301ZM17.417 16.012C17.417 14.123 16.348 11.916 13.333 11.916H10.667C7.65199 11.916 6.58301 14.123 6.58301 16.012C6.58301 17.752 7.58596 18.75 9.33496 18.75H14.665C16.414 18.75 17.417 17.752 17.417 16.012ZM13.333 13.417C15.665 13.417 15.917 15.2319 15.917 16.0129C15.917 16.9269 15.59 17.251 14.665 17.251H9.33496C8.40996 17.251 8.08301 16.9269 8.08301 16.0129C8.08301 15.2329 8.33499 13.417 10.667 13.417H13.333Z" />
</svg>
