<svg viewBox="0 0 24 24" fill="currentColor" stroke="currentColor" xmlns="http://www.w3.org/2000/svg">
<path d="M9.00903 10.75C11.353 10.75 13.259 8.843 13.259 6.5C13.259 4.157 11.353 2.25 9.00903 2.25C6.66503 2.25 4.75903 4.157 4.75903 6.5C4.75903 8.843 6.66503 10.75 9.00903 10.75ZM9.00903 3.75C10.526 3.75 11.759 4.983 11.759 6.5C11.759 8.017 10.526 9.25 9.00903 9.25C7.49203 9.25 6.25903 8.017 6.25903 6.5C6.25903 4.983 7.49203 3.75 9.00903 3.75ZM16.75 18.019V21C16.75 21.414 16.414 21.75 16 21.75C15.586 21.75 15.25 21.414 15.25 21V18.019C15.25 17.018 14.943 13.75 11 13.75H7C3.057 13.75 2.75 17.017 2.75 18.019V21C2.75 21.414 2.414 21.75 2 21.75C1.586 21.75 1.25 21.414 1.25 21V18.019C1.25 15.358 2.756 12.25 7 12.25H11C15.244 12.25 16.75 15.357 16.75 18.019ZM14.155 10.2159C13.859 9.92594 13.8529 9.45103 14.1429 9.15503C14.4339 8.85903 14.909 8.85504 15.204 9.14404C15.563 9.49604 16.045 9.68994 16.559 9.68994C17.664 9.68994 18.53 8.82497 18.53 7.71997C18.53 6.63397 17.646 5.75 16.559 5.75C16.251 5.75 15.9731 5.81301 15.7321 5.93701C15.3651 6.12801 14.912 5.98104 14.722 5.61304C14.532 5.24504 14.678 4.79303 15.046 4.60303C15.502 4.36903 16.011 4.25 16.559 4.25C18.473 4.25 20.03 5.80697 20.03 7.71997C20.03 9.63297 18.473 11.1899 16.559 11.1899C15.65 11.1899 14.797 10.8439 14.155 10.2159ZM22.75 16.6801V19C22.75 19.414 22.414 19.75 22 19.75C21.586 19.75 21.25 19.414 21.25 19V16.6801C21.25 15.9411 21.023 13.53 18.11 13.53H16.599C16.185 13.53 15.849 13.194 15.849 12.78C15.849 12.366 16.185 12.03 16.599 12.03H18.11C21.535 12.03 22.75 14.5351 22.75 16.6801Z" />
</svg>
