<svg viewBox="0 0 24 24" fill="currentColor" stroke="currentColor" xmlns="http://www.w3.org/2000/svg">
<path d="M10.009 10.75C12.353 10.75 14.259 8.843 14.259 6.5C14.259 4.157 12.353 2.25 10.009 2.25C7.66503 2.25 5.75903 4.157 5.75903 6.5C5.75903 8.843 7.66503 10.75 10.009 10.75ZM10.009 3.75C11.526 3.75 12.759 4.983 12.759 6.5C12.759 8.017 11.526 9.25 10.009 9.25C8.49203 9.25 7.25903 8.017 7.25903 6.5C7.25903 4.983 8.49203 3.75 10.009 3.75ZM12 12.25H8C3.756 12.25 2.25 15.357 2.25 18.019C2.25 20.425 3.58305 21.75 6.00305 21.75H13.9969C16.4169 21.75 17.75 20.425 17.75 18.019C17.75 15.357 16.244 12.25 12 12.25ZM13.9969 20.25H6.00305C4.42405 20.25 3.75 19.583 3.75 18.019C3.75 17.018 4.057 13.75 8 13.75H12C15.943 13.75 16.25 17.017 16.25 18.019C16.25 19.583 15.5759 20.25 13.9969 20.25ZM21.75 10.028C21.75 10.442 21.414 10.778 21 10.778H19.25V12.528C19.25 12.942 18.914 13.278 18.5 13.278C18.086 13.278 17.75 12.942 17.75 12.528V10.778H16C15.586 10.778 15.25 10.442 15.25 10.028C15.25 9.61395 15.586 9.27795 16 9.27795H17.75V7.52795C17.75 7.11395 18.086 6.77795 18.5 6.77795C18.914 6.77795 19.25 7.11395 19.25 7.52795V9.27795H21C21.414 9.27795 21.75 9.61395 21.75 10.028Z" />
</svg>
