<svg viewBox="0 0 24 24" fill="currentColor" stroke="currentColor" xmlns="http://www.w3.org/2000/svg">
<path d="M21.75 10C21.75 10.414 21.414 10.75 21 10.75H19.25V12.5C19.25 12.914 18.914 13.25 18.5 13.25C18.086 13.25 17.75 12.914 17.75 12.5V10.75H16C15.586 10.75 15.25 10.414 15.25 10C15.25 9.586 15.586 9.25 16 9.25H17.75V7.5C17.75 7.086 18.086 6.75 18.5 6.75C18.914 6.75 19.25 7.086 19.25 7.5V9.25H21C21.414 9.25 21.75 9.586 21.75 10ZM5.75903 6.5C5.75903 4.157 7.66503 2.25 10.009 2.25C12.353 2.25 14.259 4.157 14.259 6.5C14.259 8.843 12.353 10.75 10.009 10.75C7.66503 10.75 5.75903 8.843 5.75903 6.5ZM7.25903 6.5C7.25903 8.017 8.49203 9.25 10.009 9.25C11.526 9.25 12.759 8.017 12.759 6.5C12.759 4.983 11.526 3.75 10.009 3.75C8.49203 3.75 7.25903 4.983 7.25903 6.5ZM12 12.25H8C3.756 12.25 2.25 15.357 2.25 18.019V21C2.25 21.414 2.586 21.75 3 21.75C3.414 21.75 3.75 21.414 3.75 21V18.019C3.75 17.018 4.057 13.75 8 13.75H12C15.943 13.75 16.25 17.017 16.25 18.019V21C16.25 21.414 16.586 21.75 17 21.75C17.414 21.75 17.75 21.414 17.75 21V18.019C17.75 15.357 16.244 12.25 12 12.25Z" />
</svg>
