<svg viewBox="0 0 24 24" fill="currentColor" stroke="currentColor" xmlns="http://www.w3.org/2000/svg">
<path d="M19.75 18.02C19.75 20.425 18.418 21.75 16 21.75H8.00002C7.61002 21.75 7.249 21.714 6.928 21.642C6.523 21.553 6.26806 21.1519 6.35806 20.7469C6.44906 20.3429 6.84707 20.087 7.25308 20.178C7.46607 20.225 7.724 20.25 8.001 20.25H16.001C17.578 20.25 18.251 19.583 18.251 18.02C18.251 17.14 18.005 14.236 14.84 13.803C14.43 13.747 14.143 13.369 14.198 12.958C14.255 12.547 14.637 12.259 15.043 12.316C18.517 12.792 19.75 15.686 19.75 18.02ZM21.5301 3.53003L2.53005 22.53C2.38405 22.676 2.19202 22.75 2.00002 22.75C1.80802 22.75 1.61599 22.677 1.46999 22.53C1.17699 22.237 1.17699 21.762 1.46999 21.469L4.31204 18.627C4.28804 18.426 4.25002 18.236 4.25002 18.02C4.25002 15.358 5.75602 12.25 10 12.25H10.689L12.209 10.73C12.141 10.733 12.0771 10.75 12.0081 10.75C9.66408 10.75 7.75808 8.843 7.75808 6.5C7.75808 4.157 9.66408 2.25 12.0081 2.25C14.3521 2.25 16.2581 4.157 16.2581 6.5C16.2581 6.569 16.2411 6.63305 16.2381 6.70105L20.469 2.46997C20.762 2.17697 21.2371 2.17697 21.5301 2.46997C21.8231 2.76297 21.8231 3.23703 21.5301 3.53003ZM12.0091 9.25C13.5261 9.25 14.7591 8.017 14.7591 6.5C14.7591 4.983 13.5261 3.75 12.0091 3.75C10.4921 3.75 9.25906 4.983 9.25906 6.5C9.25906 8.017 10.4921 9.25 12.0091 9.25ZM5.829 17.111L9.12197 13.818C6.74397 14.164 6.03 15.899 5.829 17.111Z" />
</svg>
