<svg viewBox="0 0 24 24" fill="currentColor" stroke="currentColor" xmlns="http://www.w3.org/2000/svg">
<path d="M10.009 10.75C12.353 10.75 14.259 8.843 14.259 6.5C14.259 4.157 12.353 2.25 10.009 2.25C7.66503 2.25 5.75903 4.157 5.75903 6.5C5.75903 8.843 7.66503 10.75 10.009 10.75ZM10.009 3.75C11.526 3.75 12.759 4.983 12.759 6.5C12.759 8.017 11.526 9.25 10.009 9.25C8.49203 9.25 7.25903 8.017 7.25903 6.5C7.25903 4.983 8.49203 3.75 10.009 3.75ZM14.702 13.583C14.556 13.971 14.124 14.167 13.736 14.021C13.256 13.84 12.671 13.749 12 13.749H8C4.057 13.749 3.75 17.018 3.75 18.019C3.75 19.582 4.423 20.249 6 20.249H13C13.414 20.249 13.75 20.585 13.75 20.999C13.75 21.413 13.414 21.749 13 21.749H6C3.582 21.749 2.25 20.424 2.25 18.019C2.25 15.357 3.756 12.249 8 12.249H12C12.852 12.249 13.613 12.3729 14.264 12.6169C14.651 12.7629 14.848 13.195 14.702 13.583ZM21.5 16.871V15.75C21.5 14.372 20.379 13.25 19 13.25C17.621 13.25 16.5 14.372 16.5 15.75V16.871C15.707 17.129 15.25 17.802 15.25 18.786V20.715C15.25 21.989 16.011 22.751 17.286 22.751H20.714C21.989 22.751 22.75 21.99 22.75 20.715V18.786C22.75 17.802 22.293 17.129 21.5 16.871ZM19 14.75C19.552 14.75 20 15.199 20 15.75V16.75H18V15.75C18 15.199 18.448 14.75 19 14.75ZM21.25 20.714C21.25 21.154 21.155 21.25 20.714 21.25H17.286C16.845 21.25 16.75 21.155 16.75 20.714V18.785C16.75 18.345 16.845 18.249 17.286 18.249H20.714C21.155 18.249 21.25 18.344 21.25 18.785V20.714Z" />
</svg>
