<svg viewBox="0 0 24 24" fill="currentColor" stroke="currentColor" xmlns="http://www.w3.org/2000/svg">
<path d="M3.00102 11.855C2.97402 11.855 2.94599 11.854 2.91899 11.851C2.50699 11.806 2.20905 11.435 2.25505 11.024C2.61705 7.70605 4.61903 4.84996 7.61003 3.38196C7.84303 3.26796 8.11708 3.28195 8.33708 3.41895C8.55708 3.55595 8.69109 3.79703 8.69109 4.05603V7.10596C8.69109 7.51996 8.35509 7.85596 7.94109 7.85596C7.52709 7.85596 7.19109 7.51996 7.19109 7.10596V5.36499C5.26709 6.70299 4.00602 8.80499 3.74602 11.188C3.70302 11.571 3.37902 11.855 3.00102 11.855ZM16.3901 20.729C19.3811 19.261 21.383 16.404 21.745 13.087C21.791 12.675 21.4931 12.305 21.0811 12.26C20.6681 12.218 20.3001 12.512 20.2551 12.924C19.9941 15.3069 18.7341 17.4079 16.8101 18.7469V17.006C16.8101 16.592 16.4741 16.256 16.0601 16.256C15.6461 16.256 15.3101 16.592 15.3101 17.006V20.056C15.3101 20.315 15.444 20.556 15.664 20.693C15.785 20.768 15.9231 20.806 16.0601 20.806C16.1731 20.806 16.2851 20.78 16.3901 20.729ZM15.5051 6.25C14.1261 6.25 13.0051 5.128 13.0051 3.75C13.0051 2.372 14.1261 1.25 15.5051 1.25C16.8841 1.25 18.0051 2.372 18.0051 3.75C18.0051 5.128 16.8841 6.25 15.5051 6.25ZM15.5051 2.75C14.9531 2.75 14.5051 3.199 14.5051 3.75C14.5051 4.301 14.9531 4.75 15.5051 4.75C16.0571 4.75 16.5051 4.301 16.5051 3.75C16.5051 3.199 16.0571 2.75 15.5051 2.75ZM17.4991 12.75H13.501C12.092 12.75 11.25 11.912 11.25 10.509C11.25 8.88603 12.255 7.25 14.5 7.25H16.5C18.745 7.25 19.75 8.88703 19.75 10.509C19.75 11.912 18.9081 12.75 17.4991 12.75ZM14.5 8.75C12.978 8.75 12.75 9.85203 12.75 10.509C12.75 11.084 12.918 11.25 13.501 11.25H17.4991C18.0821 11.25 18.25 11.084 18.25 10.509C18.25 9.85203 18.022 8.75 16.5 8.75H14.5ZM7.50505 16.25C6.12605 16.25 5.00505 15.128 5.00505 13.75C5.00505 12.372 6.12605 11.25 7.50505 11.25C8.88405 11.25 10.0051 12.372 10.0051 13.75C10.0051 15.128 8.88405 16.25 7.50505 16.25ZM7.50505 12.75C6.95305 12.75 6.50505 13.199 6.50505 13.75C6.50505 14.301 6.95305 14.75 7.50505 14.75C8.05705 14.75 8.50505 14.301 8.50505 13.75C8.50505 13.199 8.05705 12.75 7.50505 12.75ZM9.49907 22.75H5.50102C4.09202 22.75 3.25005 21.912 3.25005 20.509C3.25005 18.886 4.25505 17.25 6.50005 17.25H8.50005C10.745 17.25 11.75 18.887 11.75 20.509C11.75 21.912 10.9081 22.75 9.49907 22.75ZM6.50005 18.75C4.97805 18.75 4.75005 19.852 4.75005 20.509C4.75005 21.084 4.91802 21.25 5.50102 21.25H9.49907C10.0821 21.25 10.25 21.084 10.25 20.509C10.25 19.852 10.022 18.75 8.50005 18.75H6.50005Z" />
</svg>
