<svg viewBox="0 0 24 24" fill="currentColor" stroke="currentColor" xmlns="http://www.w3.org/2000/svg">
<path d="M12 21.75C11.012 21.75 10.124 21.237 9.62202 20.378C9.41402 20.02 9.53401 19.561 9.89201 19.352C10.249 19.144 10.708 19.264 10.918 19.622C11.377 20.409 12.623 20.409 13.082 19.622C13.291 19.264 13.751 19.144 14.108 19.352C14.466 19.56 14.587 20.02 14.378 20.378C13.876 21.237 12.988 21.75 12 21.75ZM20.675 18.325C20.8 18.065 20.765 17.757 20.586 17.532C20.567 17.509 18.745 15.189 18.745 12.5V8.995C18.745 5.276 15.719 2.25 12 2.25C8.28101 2.25 5.25501 5.276 5.25501 8.995V12.5C5.25501 15.189 3.43301 17.509 3.41401 17.532C3.23501 17.757 3.20002 18.066 3.32502 18.325C3.45002 18.584 3.71201 18.75 4.00001 18.75H20C20.288 18.75 20.55 18.584 20.675 18.325ZM6.75501 12.5V8.995C6.75501 6.103 9.10801 3.75 12 3.75C14.892 3.75 17.245 6.103 17.245 8.995V12.5C17.245 14.436 17.995 16.158 18.613 17.25H5.386C6.005 16.158 6.75501 14.436 6.75501 12.5ZM14.75 11C14.75 10.586 14.414 10.25 14 10.25H10C9.58601 10.25 9.25001 10.586 9.25001 11C9.25001 11.414 9.58601 11.75 10 11.75H14C14.414 11.75 14.75 11.414 14.75 11Z" />
</svg>
