<svg viewBox="0 0 24 24" fill="currentColor" stroke="currentColor" xmlns="http://www.w3.org/2000/svg">
<path d="M12 1.25C6.072 1.25 1.25 6.072 1.25 12C1.25 17.928 6.072 22.75 12 22.75C17.928 22.75 22.75 17.928 22.75 12C22.75 6.072 17.928 1.25 12 1.25ZM12 21.25C6.899 21.25 2.75 17.101 2.75 12C2.75 6.899 6.899 2.75 12 2.75C17.101 2.75 21.25 6.899 21.25 12C21.25 17.101 17.101 21.25 12 21.25ZM15.054 9.41701H14.002L14.764 7.651C14.946 7.229 14.905 6.74801 14.652 6.36301C14.4 5.97901 13.974 5.75 13.514 5.75H10.777C10.079 5.75 9.47801 6.197 9.26001 6.854L7.65302 10.959C7.51502 11.373 7.58503 11.832 7.84003 12.185C8.09503 12.539 8.50797 12.75 8.94397 12.75H10.033L8.48602 17.257C8.37302 17.587 8.50197 17.951 8.79797 18.136C8.92097 18.213 9.05797 18.25 9.19397 18.25C9.38797 18.25 9.57998 18.175 9.72498 18.03L16.014 11.74C16.405 11.349 16.521 10.767 16.309 10.257C16.101 9.747 15.607 9.41701 15.054 9.41701ZM10.959 14.677L11.669 12.608C11.777 12.296 11.727 11.949 11.535 11.679C11.343 11.41 11.031 11.249 10.701 11.249H9.15002L10.671 7.36301C10.709 7.24901 10.756 7.24899 10.778 7.24899H13.304L12.34 9.48399C12.203 9.80199 12.234 10.164 12.424 10.453C12.614 10.743 12.935 10.916 13.281 10.916H14.719L10.959 14.677Z" />
</svg>
