<svg viewBox="0 0 24 24" fill="currentColor" stroke="currentColor" xmlns="http://www.w3.org/2000/svg">
<path d="M21.5301 2.47C21.2371 2.177 20.762 2.177 20.469 2.47L14.749 8.19V3C14.749 2.689 14.558 2.411 14.268 2.3C13.978 2.188 13.649 2.268 13.442 2.498L4.44204 12.498C4.24404 12.719 4.19403 13.035 4.31503 13.305C4.43603 13.575 4.70402 13.75 5.00002 13.75H9.18905L2.46902 20.47C2.17602 20.763 2.17602 21.238 2.46902 21.531C2.61502 21.677 2.80705 21.751 2.99905 21.751C3.19105 21.751 3.38302 21.678 3.52902 21.531L10.529 14.531L14.529 10.531L21.529 3.53101C21.823 3.23701 21.8231 2.763 21.5301 2.47ZM10 12.25H6.68404L13.25 4.954V9.689L10.494 12.445C10.362 12.327 10.191 12.25 10 12.25ZM19.685 10.695C19.806 10.966 19.755 11.281 19.558 11.502L10.558 21.502C10.413 21.663 10.209 21.75 10 21.75C9.91002 21.75 9.81904 21.734 9.73104 21.7C9.44104 21.589 9.25002 21.31 9.25002 21V18C9.25002 17.586 9.58602 17.25 10 17.25C10.414 17.25 10.75 17.586 10.75 18V19.046L17.316 11.75H17C16.586 11.75 16.25 11.414 16.25 11C16.25 10.586 16.586 10.25 17 10.25H19C19.296 10.25 19.564 10.424 19.685 10.695Z" />
</svg>
