<svg viewBox="0 0 24 24" fill="currentColor" stroke="currentColor" xmlns="http://www.w3.org/2000/svg">
<path d="M19.216 8.755C19.553 9.07401 19.749 9.524 19.756 9.989C19.762 10.457 19.5801 10.901 19.2411 11.239L8.941 21.529C8.796 21.674 8.604 21.749 8.41 21.749C8.273 21.749 8.13602 21.712 8.01302 21.635C7.71702 21.45 7.58801 21.085 7.70101 20.755L8.441 18.605C8.576 18.214 9.00201 18.005 9.39401 18.14C9.59101 18.208 9.74201 18.35 9.82601 18.525L18.18 10.179C18.232 10.127 18.257 10.072 18.256 10.009C18.255 9.947 18.229 9.88499 18.185 9.84399C17.884 9.55899 17.871 9.084 18.156 8.783C18.44 8.483 18.915 8.471 19.216 8.755ZM21.5301 3.53L3.53005 21.53C3.38405 21.676 3.19202 21.75 3.00002 21.75C2.80802 21.75 2.61599 21.677 2.46999 21.53C2.17699 21.237 2.17699 20.762 2.46999 20.469L10.19 12.749H8.00002C7.43602 12.749 6.92104 12.486 6.58804 12.029C6.25704 11.574 6.16302 10.984 6.33602 10.448L8.962 3.755C9.254 2.843 10.041 2.24899 11 2.24899H15.48C16.068 2.24899 16.613 2.542 16.938 3.033C17.265 3.527 17.322 4.147 17.091 4.692L16.207 6.73199L20.47 2.46899C20.763 2.17599 21.238 2.17599 21.531 2.46899C21.824 2.76199 21.8231 3.237 21.5301 3.53ZM11.502 11.438L13.974 8.966C13.866 8.68 13.867 8.36501 13.992 8.07401L15.713 4.101C15.758 3.995 15.716 3.90499 15.688 3.86099C15.661 3.81899 15.597 3.74899 15.481 3.74899H11C10.618 3.74899 10.449 4.026 10.374 4.259L7.74801 10.953C7.72701 11.021 7.77105 11.106 7.80105 11.146C7.82905 11.184 7.89202 11.249 8.00002 11.249H10.87C11.097 11.25 11.313 11.321 11.502 11.438Z" />
</svg>
