<svg viewBox="0 0 24 24" fill="currentColor" stroke="currentColor" xmlns="http://www.w3.org/2000/svg">
<path d="M19.137 10.212V4.5C19.137 3.091 18.296 2.25 16.887 2.25H6.96698C5.53698 2.25 4.71698 3.07 4.71698 4.5V10.312C4.43898 10.541 4.25098 10.875 4.25098 11.262V11.92C4.25098 13.073 4.97898 14.112 6.09698 14.516L9.42102 15.543C9.74802 15.662 9.94897 15.985 9.90997 16.331L9.61298 19.016C9.53598 19.711 9.75901 20.409 10.226 20.93C10.693 21.451 11.362 21.75 12.061 21.75C12.761 21.75 13.429 21.451 13.896 20.93C14.363 20.409 14.586 19.711 14.509 19.016L14.211 16.322C14.173 15.979 14.372 15.656 14.659 15.549L17.96 14.509C19.031 14.111 19.751 13.075 19.751 11.931V11.262C19.75 10.811 19.497 10.432 19.137 10.212ZM6.966 3.75H14.251V6C14.251 6.414 14.587 6.75 15.001 6.75C15.415 6.75 15.751 6.414 15.751 6V3.75H16.886C17.475 3.75 17.636 3.911 17.636 4.5V10.012H6.21503V4.5C6.21603 3.911 6.377 3.75 6.966 3.75ZM18.25 11.931C18.25 12.451 17.923 12.922 17.472 13.09L14.172 14.13C13.203 14.49 12.606 15.459 12.719 16.487L13.017 19.181C13.048 19.457 12.963 19.723 12.777 19.93C12.406 20.343 11.712 20.344 11.342 19.93C11.157 19.723 11.071 19.457 11.102 19.181L11.399 16.496C11.513 15.461 10.91 14.489 9.89697 14.122L6.57202 13.095C6.08002 12.916 5.74902 12.444 5.74902 11.92V11.512H18.249V11.931H18.25Z" />
</svg>
