<svg viewBox="0 0 24 24" fill="currentColor" stroke="currentColor" xmlns="http://www.w3.org/2000/svg">
<path d="M21.53 7.52999L11.53 17.53C11.389 17.671 11.198 17.75 11 17.75C10.999 17.75 10.998 17.75 10.997 17.75C10.797 17.749 10.606 17.669 10.465 17.526L6.46499 13.464C6.17399 13.169 6.178 12.694 6.473 12.403C6.768 12.113 7.24399 12.116 7.53399 12.411L11.003 15.935L20.469 6.46899C20.762 6.17599 21.237 6.17599 21.53 6.46899C21.823 6.76199 21.823 7.23799 21.53 7.52999ZM11 13.75C11.192 13.75 11.384 13.677 11.53 13.53L17.53 7.52999C17.823 7.23699 17.823 6.76199 17.53 6.46899C17.237 6.17599 16.762 6.17599 16.469 6.46899L10.469 12.469C10.176 12.762 10.176 13.237 10.469 13.53C10.616 13.677 10.808 13.75 11 13.75ZM3.53399 12.414C3.24399 12.119 2.769 12.115 2.473 12.406C2.178 12.697 2.17399 13.171 2.46499 13.467L6.46499 17.527C6.61099 17.676 6.80499 17.751 6.99899 17.751C7.18899 17.751 7.37899 17.679 7.52499 17.535C7.81999 17.244 7.824 16.77 7.533 16.474L3.53399 12.414Z" />
</svg>
