<svg viewBox="0 0 24 24" fill="currentColor" stroke="currentColor" xmlns="http://www.w3.org/2000/svg">
<path d="M19.75 6.5V17.5C19.75 18.741 18.741 19.75 17.5 19.75H16C15.586 19.75 15.25 19.414 15.25 19C15.25 18.586 15.586 18.25 16 18.25H17.5C17.914 18.25 18.25 17.914 18.25 17.5V6.5C18.25 6.086 17.914 5.75 17.5 5.75H16C15.586 5.75 15.25 5.414 15.25 5C15.25 4.586 15.586 4.25 16 4.25H17.5C18.741 4.25 19.75 5.259 19.75 6.5ZM13.908 2.745C14.443 3.174 14.75 3.814 14.75 4.5V19.5C14.75 20.186 14.443 20.826 13.908 21.255C13.504 21.579 13.011 21.75 12.505 21.75C12.341 21.75 12.176 21.732 12.013 21.696L6.013 20.363C4.975 20.132 4.25098 19.229 4.25098 18.166V5.83402C4.25098 4.77102 4.976 3.868 6.013 3.637L12.013 2.30399C12.684 2.15499 13.373 2.317 13.908 2.745ZM13.25 4.5C13.25 4.271 13.147 4.05801 12.969 3.91501C12.834 3.80701 12.67 3.75 12.501 3.75C12.446 3.75 12.392 3.75601 12.337 3.76801L6.33698 5.10102C5.99098 5.17802 5.75 5.47901 5.75 5.83301V18.165C5.75 18.519 5.99198 18.82 6.33698 18.897L12.337 20.23C12.561 20.28 12.791 20.226 12.969 20.083C13.147 19.94 13.25 19.727 13.25 19.498V4.5ZM10.52 11H10.51C9.95801 11 9.51501 11.448 9.51501 12C9.51501 12.552 9.96802 13 10.52 13C11.072 13 11.52 12.552 11.52 12C11.52 11.448 11.072 11 10.52 11Z" />
</svg>
