<svg viewBox="0 0 24 24" fill="currentColor" stroke="currentColor" xmlns="http://www.w3.org/2000/svg">
<path d="M15.817 18.579C14.446 19.565 12.961 19.897 11.583 19.897C10.066 19.897 8.68502 19.495 7.71902 19.119C7.21402 20.336 7.032 21.134 7.027 21.155C6.952 21.508 6.64003 21.749 6.29403 21.749C6.24303 21.749 6.191 21.744 6.139 21.733C5.734 21.648 5.47502 21.251 5.56002 20.846C5.61702 20.575 7.02701 14.149 13.709 9.13299C14.041 8.88399 14.511 8.95201 14.759 9.28301C15.008 9.61401 14.941 10.084 14.61 10.333C11.36 12.773 9.44702 15.599 8.35202 17.755C9.92602 18.354 12.676 18.99 14.942 17.361C19.691 13.945 18.186 7.09997 17.321 4.32097C16.758 4.90497 15.902 5.58898 14.726 5.99798C13.882 6.28698 13.111 6.49098 12.365 6.68798C11.144 7.01098 10.09 7.28897 9.04403 7.84997C5.35903 9.83597 5.35204 13.915 6.24704 16.173C6.40004 16.558 6.21102 16.994 5.82602 17.147C5.44202 17.299 5.00502 17.111 4.85202 16.726C3.76002 13.97 3.78503 8.98002 8.33303 6.53002C9.53603 5.88502 10.724 5.57097 11.981 5.23797C12.701 5.04797 13.446 4.85101 14.235 4.58001C15.651 4.08701 16.466 3.07501 16.751 2.66301C16.938 2.37501 17.283 2.21097 17.647 2.25597C18.008 2.30097 18.304 2.54498 18.42 2.89098C19.089 4.69498 22.14 14.032 15.817 18.579Z" />
</svg>
