<svg viewBox="0 0 24 24" fill="currentColor" stroke="currentColor" xmlns="http://www.w3.org/2000/svg">
<path d="M20.5664 14.1754C20.5576 14.1704 20.5487 14.1657 20.5399 14.1608C20.5604 13.9193 20.5715 13.6753 20.5715 13.4286C20.5715 10.0013 18.5492 7.03792 15.6356 5.6676C15.6357 5.65718 15.6364 5.64687 15.6364 5.63637C15.6364 3.62804 14.0084 2 12 2C9.99171 2 8.36366 3.62804 8.36366 5.63637C8.36366 5.64679 8.36439 5.6571 8.36444 5.6676C5.45078 7.03796 3.42854 10.0014 3.42854 13.4286C3.42854 13.6753 3.43961 13.9193 3.46014 14.1606C3.4513 14.1657 3.44233 14.1704 3.43349 14.1754C1.69433 15.1796 1.0984 17.4036 2.10256 19.1428C2.77614 20.3094 3.99839 20.9616 5.2552 20.9616C5.87203 20.9616 6.49733 20.8045 7.06998 20.4738C7.07975 20.4682 7.08904 20.4619 7.09874 20.4562C8.48869 21.4286 10.1788 22 12.0001 22C13.8214 22 15.5114 21.4286 16.9014 20.4563C16.9111 20.462 16.9203 20.4682 16.9301 20.4738C17.5028 20.8045 18.128 20.9617 18.7449 20.9617C20.0016 20.9617 21.224 20.3094 21.8975 19.1429C22.9016 17.4037 22.3057 15.1796 20.5664 14.1754ZM12 3.55843C13.1458 3.55843 14.078 4.49054 14.078 5.63637C14.078 6.78219 13.1458 7.7143 12 7.7143C10.8542 7.7143 9.9221 6.78219 9.9221 5.63637C9.92214 4.49054 10.8543 3.55843 12 3.55843ZM7.2589 17.8625C7.11521 18.3986 6.7714 18.8468 6.29068 19.1242C5.97462 19.3068 5.61653 19.4032 5.2552 19.4032C4.51327 19.4032 3.82241 19.0049 3.45219 18.3636C2.8793 17.3714 3.22051 16.098 4.21283 15.5251C4.52888 15.3426 4.88701 15.2461 5.24834 15.2461H5.24851C5.99028 15.2461 6.6811 15.6445 7.05131 16.2857C7.32884 16.7664 7.40255 17.3263 7.2589 17.8625ZM15.7353 19.3614C14.6531 20.0452 13.3721 20.4416 12.0001 20.4416C10.628 20.4416 9.34693 20.0452 8.26472 19.3614C9.0183 18.2449 9.11972 16.7515 8.40095 15.5065C7.72745 14.3399 6.5052 13.6877 5.24847 13.6877C5.24847 13.6877 5.24843 13.6877 5.2483 13.6877C5.16315 13.6877 5.07792 13.6909 4.99261 13.697C4.98924 13.6079 4.98701 13.5185 4.98701 13.4286C4.98701 10.7421 6.5056 8.40402 8.72926 7.22656C9.31927 8.43782 10.562 9.27269 12 9.27269C13.438 9.27269 14.6808 8.4379 15.2708 7.22656C17.4945 8.40402 19.013 10.742 19.013 13.4286C19.013 13.5184 19.0108 13.6078 19.0075 13.6969C18.9223 13.6909 18.8371 13.6876 18.752 13.6876C18.7519 13.6876 18.7518 13.6876 18.7517 13.6876C17.495 13.6877 16.2725 14.3399 15.5991 15.5065C14.8803 16.7516 14.9817 18.2449 15.7353 19.3614ZM20.5478 18.3636C20.1776 19.0049 19.4868 19.4032 18.7448 19.4032C18.3835 19.4032 18.0254 19.3068 17.7092 19.1242C16.7169 18.5513 16.3758 17.2779 16.9487 16.2857C17.3188 15.6445 18.0097 15.2461 18.7517 15.2461H18.752C19.1131 15.2461 19.4711 15.3425 19.7872 15.525C20.7795 16.0979 21.1207 17.3713 20.5478 18.3636Z" />
</svg>
