<svg viewBox="0 0 24 24" fill="currentColor" stroke="currentColor" xmlns="http://www.w3.org/2000/svg">
<path d="M19.12 7.87C19.12 7.87 19.12 7.83 19.12 7.81L18.88 2.92C18.83 1.99 18.07 1.25 17.13 1.25H6.87999C5.93999 1.25 5.17 1.98 5.12 2.92L4.87999 7.81C4.87999 7.81 4.87999 7.85 4.87999 7.87L4.25 20.91C4.23 21.39 4.4 21.86 4.73 22.21C5.06 22.56 5.52 22.76 6 22.76H8.16999C8.99999 22.76 9.69999 22.19 9.87999 21.38L12 11.74L14.12 21.38C14.3 22.19 15 22.76 15.83 22.76H18C18.48 22.76 18.94 22.56 19.27 22.21C19.6 21.86 19.78 21.39 19.75 20.91L19.12 7.87ZM15.78 5.25H17.49L17.59 7.24001C17.59 7.24001 17.54 7.25 17.51 7.25C16.54 7.25 15.76 6.46 15.76 5.5C15.76 5.41 15.77 5.33 15.79 5.25H15.78ZM6.87999 2.75H17.13C17.26 2.75 17.37 2.85001 17.38 2.99001L17.42 3.75H6.58999L6.62999 2.99001C6.62999 2.85001 6.75 2.75 6.89 2.75H6.87999ZM8.25 5.5C8.25 6.46 7.46 7.25 6.5 7.25C6.47 7.25 6.44999 7.24001 6.41999 7.24001L6.51999 5.25H8.23C8.24 5.33 8.26 5.41 8.26 5.5H8.25ZM18.18 21.17C18.18 21.17 18.09 21.25 17.99 21.25H15.82C15.7 21.25 15.6 21.17 15.57 21.05L12.92 8.97C12.82 8.53 12.44 8.22 11.99 8.22C11.54 8.22 11.16 8.53 11.06 8.97L8.41 21.05C8.38 21.17 8.28 21.25 8.16 21.25H5.98999C5.88999 21.25 5.83 21.2 5.8 21.17C5.77 21.14 5.72 21.08 5.73 20.98L6.32 8.73C6.37 8.73 6.42 8.74001 6.48 8.74001C8.27 8.74001 9.73 7.28001 9.73 5.49001C9.73 5.40001 9.70999 5.32001 9.69999 5.24001H14.25C14.25 5.32001 14.22 5.40001 14.22 5.49001C14.22 7.28001 15.68 8.74001 17.47 8.74001C17.52 8.74001 17.57 8.73 17.63 8.73L18.22 20.98C18.22 21.08 18.18 21.14 18.15 21.17H18.18Z" />
</svg>
