<svg viewBox="0 0 24 24" fill="currentColor" stroke="currentColor" xmlns="http://www.w3.org/2000/svg">
<path d="M19 21.75H15.5C14.811 21.75 14.25 21.189 14.25 20.5V19C14.25 18.311 13.689 17.75 13 17.75C12.311 17.75 11.75 18.311 11.75 19V20.5C11.75 21.189 11.189 21.75 10.5 21.75H8C6.483 21.75 5.25 20.516 5.25 19V16.75H4C2.483 16.75 1.25 15.516 1.25 14C1.25 12.484 2.483 11.25 4 11.25H5.25V9C5.25 7.484 6.483 6.25 8 6.25H10.25V5C10.25 3.484 11.483 2.25 13 2.25C14.517 2.25 15.75 3.484 15.75 5V6.25H19C20.517 6.25 21.75 7.484 21.75 9V11.5C21.75 12.189 21.189 12.75 20.5 12.75H19C18.311 12.75 17.75 13.311 17.75 14C17.75 14.689 18.311 15.25 19 15.25H20.5C21.189 15.25 21.75 15.811 21.75 16.5V19C21.75 20.516 20.517 21.75 19 21.75ZM15.75 20.25H19C19.689 20.25 20.25 19.689 20.25 19V16.75H19C17.483 16.75 16.25 15.516 16.25 14C16.25 12.484 17.483 11.25 19 11.25H20.25V9C20.25 8.311 19.689 7.75 19 7.75H15.5C14.811 7.75 14.25 7.189 14.25 6.5V5C14.25 4.311 13.689 3.75 13 3.75C12.311 3.75 11.75 4.311 11.75 5V6.5C11.75 7.189 11.189 7.75 10.5 7.75H8C7.311 7.75 6.75 8.311 6.75 9V11.5C6.75 12.189 6.189 12.75 5.5 12.75H4C3.311 12.75 2.75 13.311 2.75 14C2.75 14.689 3.311 15.25 4 15.25H5.5C6.189 15.25 6.75 15.811 6.75 16.5V19C6.75 19.689 7.311 20.25 8 20.25H10.25V19C10.25 17.484 11.483 16.25 13 16.25C14.517 16.25 15.75 17.484 15.75 19V20.25Z" />
</svg>
