<svg viewBox="0 0 24 24" fill="currentColor" stroke="currentColor" xmlns="http://www.w3.org/2000/svg">
<path d="M19.5 4.24998H14.5C13.26 4.24998 12.25 5.25998 12.25 6.49998V11.5C12.25 12.74 13.26 13.75 14.5 13.75H15.79L13.69 17.94C13.5 18.33 13.52 18.78 13.75 19.16C13.98 19.54 14.38 19.75 14.81 19.75H17.38C18.05 19.75 18.65 19.38 18.95 18.78L21.52 13.65C21.68 13.34 21.76 12.99 21.76 12.64V6.48999C21.76 5.24999 20.75 4.23999 19.51 4.23999L19.5 4.24998ZM20.25 12.65C20.25 12.77 20.22 12.88 20.17 12.99L17.6 18.12C17.56 18.21 17.47 18.26 17.38 18.26H15.21L17.67 13.35C17.79 13.12 17.77 12.84 17.64 12.62C17.5 12.4 17.26 12.26 17 12.26H14.5C14.09 12.26 13.75 11.92 13.75 11.51V6.50998C13.75 6.09998 14.09 5.75998 14.5 5.75998H19.5C19.91 5.75998 20.25 6.09998 20.25 6.50998V12.66V12.65ZM9.5 4.24998H4.5C3.26 4.24998 2.25 5.25998 2.25 6.49998V11.5C2.25 12.74 3.26 13.75 4.5 13.75H5.78999L3.69 17.94C3.5 18.33 3.52 18.78 3.75 19.16C3.98 19.54 4.38 19.75 4.81 19.75H7.38C8.05 19.75 8.65 19.38 8.95 18.78L11.52 13.65C11.68 13.34 11.76 12.99 11.76 12.64V6.48999C11.76 5.24999 10.75 4.23999 9.50999 4.23999L9.5 4.24998ZM10.25 12.65C10.25 12.77 10.22 12.88 10.17 12.99L7.60001 18.12C7.56001 18.21 7.47001 18.26 7.38 18.26H5.21001L7.67 13.35C7.79 13.12 7.77 12.84 7.64 12.62C7.5 12.4 7.26 12.26 7 12.26H4.5C4.09 12.26 3.75 11.92 3.75 11.51V6.50998C3.75 6.09998 4.09 5.75998 4.5 5.75998H9.5C9.91 5.75998 10.25 6.09998 10.25 6.50998V12.66V12.65Z" />
</svg>
