<svg viewBox="0 0 24 24" fill="currentColor" stroke="currentColor" xmlns="http://www.w3.org/2000/svg">
<path d="M16.5937 8.36364L18.825 5.27273C18.9225 5.13766 18.9819 4.97706 18.9965 4.80891C19.0111 4.64077 18.9803 4.47172 18.9076 4.32071C18.8349 4.16971 18.7232 4.04271 18.585 3.95395C18.4468 3.8652 18.2875 3.81818 18.125 3.81818H8.5V2.90909C8.5 2.66799 8.40781 2.43675 8.24372 2.26627C8.07962 2.09578 7.85706 2 7.625 2C7.39294 2 7.17038 2.09578 7.00628 2.26627C6.84219 2.43675 6.75 2.66799 6.75 2.90909V20.1818H5.875C5.64294 20.1818 5.42038 20.2776 5.25628 20.4481C5.09219 20.6186 5 20.8498 5 21.0909C5 21.332 5.09219 21.5632 5.25628 21.7337C5.42038 21.9042 5.64294 22 5.875 22H9.375C9.60706 22 9.82962 21.9042 9.99372 21.7337C10.1578 21.5632 10.25 21.332 10.25 21.0909C10.25 20.8498 10.1578 20.6186 9.99372 20.4481C9.82962 20.2776 9.60706 20.1818 9.375 20.1818H8.5V12.9091H18.125C18.2875 12.9091 18.4468 12.8621 18.585 12.7733C18.7232 12.6846 18.8349 12.5576 18.9076 12.4066C18.9803 12.2556 19.0111 12.0865 18.9965 11.9184C18.9819 11.7502 18.9225 11.5896 18.825 11.4545L16.5937 8.36364ZM14.8 8.90909L16.375 11.0909H8.5V5.63636H16.375L14.8 7.81818C14.6864 7.97554 14.625 8.16694 14.625 8.36364C14.625 8.56034 14.6864 8.75173 14.8 8.90909Z" fill="black"/>
</svg>
