<svg viewBox="0 0 24 24" fill="currentColor" stroke="currentColor" xmlns="http://www.w3.org/2000/svg">
<path d="M22 14.2298C22 12.9077 20.9269 11.8346 19.6048 11.8346C19.0155 11.8346 18.4823 12.0566 18.0654 12.4094C16.6936 11.6876 14.8685 10.7582 14.2809 10.506C13.6183 10.2218 13.2223 9.68363 12.978 9.14396C12.8775 8.5771 12.8391 7.93363 12.8488 7.49451V6.66417C13.8101 6.35279 14.5095 5.46008 14.5095 4.39521C14.5095 3.0731 13.4364 2 12.1143 2C10.7922 2 9.71906 3.0731 9.71906 4.39521C9.71906 5.46657 10.4264 6.36252 11.399 6.66916V7.49626C11.3942 7.54416 11.4004 7.61602 11.399 7.67515C11.3638 8.14771 11.1322 9.9012 9.71906 10.5062C9.13149 10.7585 7.30788 11.6879 5.93613 12.4097C5.51771 12.0551 4.98453 11.8348 4.39521 11.8348C3.0731 11.8348 2 12.9079 2 14.23C2 15.5521 3.0731 16.6252 4.39521 16.6252C5.71732 16.6252 6.79042 15.5521 6.79042 14.23C6.79042 13.9346 6.72979 13.6567 6.63224 13.3965C7.93039 12.7163 9.57984 11.8748 10.15 11.6255C9.88323 12.0901 9.623 12.5549 9.46806 12.8518C8.77819 14.1836 8.83882 15.8825 8.84207 15.9304V16.4174C7.59182 16.4988 6.60005 17.5272 6.60005 18.7967C6.60005 20.0661 7.67315 21.1919 8.99526 21.1919C10.3174 21.1919 11.3905 20.1188 11.3905 18.7967C11.3905 17.8498 10.8363 17.0402 10.0397 16.6504V15.9047C10.0222 15.5055 10.0781 14.2745 10.5314 13.4042C10.886 12.7208 11.8648 11.0442 12.0549 10.755C12.0963 10.6911 12.1282 10.6113 12.1634 10.5394C12.2018 10.6145 12.2353 10.6959 12.2784 10.7615C12.4701 11.0442 13.4616 12.7176 13.8226 13.4027C14.3688 14.4471 14.3191 15.8905 14.3176 15.9289V16.6619C13.5337 17.0546 12.989 17.858 12.989 18.7952C12.989 20.1173 14.0621 21.1904 15.3842 21.1904C16.7063 21.1904 17.7794 20.1173 17.7794 18.7952C17.7794 17.4731 16.775 16.483 15.5152 16.4127V15.9543C15.5185 15.8825 15.5823 14.1834 14.883 12.8471C14.7567 12.606 14.5477 12.237 14.3226 11.8476C15.0826 12.2133 16.3313 12.8535 17.366 13.3965C17.2687 13.6567 17.2078 13.9361 17.2078 14.23C17.2078 15.5521 18.2809 16.6252 19.603 16.6252C20.9251 16.6252 21.9998 15.5521 21.9998 14.23L22 14.2298Z" />
</svg>
