<svg viewBox="0 0 24 24" fill="currentColor" stroke="currentColor" xmlns="http://www.w3.org/2000/svg">
<path d="M12 8.25C9.93202 8.25 8.25001 9.932 8.25001 12C8.25001 14.068 9.93202 15.75 12 15.75C14.068 15.75 15.75 14.068 15.75 12C15.75 9.932 14.068 8.25 12 8.25ZM12 14.25C10.759 14.25 9.75001 13.241 9.75001 12C9.75001 10.759 10.759 9.75 12 9.75C13.241 9.75 14.25 10.759 14.25 12C14.25 13.241 13.241 14.25 12 14.25ZM21.208 13.953C20.514 13.551 20.082 12.803 20.081 12C20.08 11.199 20.509 10.452 21.212 10.045C21.727 9.74601 21.903 9.08299 21.605 8.56699L19.933 5.681C19.635 5.166 18.972 4.98901 18.456 5.28601C17.757 5.68901 16.888 5.68901 16.187 5.28201C15.496 4.88101 15.066 4.13601 15.066 3.33701C15.066 2.73801 14.578 2.25101 13.979 2.25101H10.024C9.424 2.25101 8.93703 2.73801 8.93703 3.33701C8.93703 4.13601 8.50701 4.881 7.81401 5.284C7.11501 5.689 6.24702 5.68999 5.54802 5.28699C5.03102 4.98899 4.36903 5.16701 4.07103 5.68201L2.39702 8.57101C2.09902 9.08601 2.276 9.74799 2.796 10.05C3.489 10.451 3.92102 11.198 3.92302 11.999C3.92502 12.801 3.49501 13.55 2.79301 13.957C2.54301 14.102 2.36302 14.335 2.28902 14.615C2.21502 14.894 2.25303 15.185 2.39803 15.436L4.06902 18.32C4.36702 18.836 5.03002 19.015 5.54802 18.716C6.24702 18.313 7.11402 18.314 7.80302 18.713L7.80501 18.714C7.80801 18.716 7.81102 18.718 7.81502 18.72C8.50602 19.121 8.93501 19.866 8.93401 20.666C8.93401 21.265 9.421 21.752 10.02 21.752H13.979C14.578 21.752 15.065 21.265 15.065 20.667C15.065 19.867 15.495 19.122 16.189 18.719C16.887 18.314 17.755 18.312 18.455 18.716C18.971 19.014 19.633 18.837 19.932 18.322L21.606 15.433C21.903 14.916 21.726 14.253 21.208 13.953ZM18.831 17.227C17.741 16.752 16.476 16.817 15.434 17.42C14.401 18.019 13.719 19.078 13.587 20.25H10.41C10.28 19.078 9.596 18.017 8.563 17.419C7.523 16.816 6.25602 16.752 5.16902 17.227L3.89302 15.024C4.84802 14.321 5.425 13.193 5.42101 11.993C5.418 10.801 4.84201 9.681 3.89201 8.978L5.16902 6.77399C6.25702 7.24799 7.52402 7.18399 8.56602 6.57999C9.59802 5.98199 10.28 4.92201 10.412 3.75101H13.587C13.718 4.92301 14.401 5.982 15.436 6.582C16.475 7.185 17.742 7.24899 18.831 6.77499L20.108 8.978C19.155 9.68 18.579 10.806 18.581 12.004C18.582 13.198 19.158 14.32 20.109 15.025L18.831 17.227Z" />
</svg>
