<svg viewBox="0 0 24 24" fill="currentColor" stroke="currentColor" xmlns="http://www.w3.org/2000/svg">
<path d="M20.6 3.90001L16.27 2.32002C15.96 2.21002 15.6 2.22001 15.3 2.37001C15 2.52001 14.77 2.77001 14.67 3.09001C14.36 4.01001 13.65 5.10002 12.01 5.10002C10.37 5.10002 9.66 4.01001 9.35 3.09001C9.24 2.77001 9.02001 2.52002 8.72001 2.38002C8.42 2.23002 8.06 2.22002 7.75 2.33002L3.42 3.91002C2.73 4.16002 2.27 4.82002 2.27 5.55002V8.68001C2.27 9.23001 2.52001 9.74002 2.97001 10.08C3.41001 10.41 3.97 10.52 4.5 10.37L5.77 10.01V19.52C5.77 20.76 6.78 21.77 8.02 21.77H16.02C17.26 21.77 18.27 20.76 18.27 19.52V10.01L19.54 10.37C20.07 10.52 20.63 10.42 21.07 10.08C21.51 9.75002 21.77 9.24001 21.77 8.68001V5.55002C21.77 4.82002 21.31 4.16002 20.62 3.91002L20.6 3.90001ZM20.25 8.67001C20.25 8.78001 20.19 8.84001 20.15 8.87001C20.11 8.90001 20.03 8.94002 19.93 8.91002L17.7 8.27002C17.47 8.21002 17.23 8.25001 17.04 8.39001C16.85 8.53001 16.74 8.75002 16.74 8.99002V19.49C16.74 19.9 16.4 20.24 15.99 20.24H7.99001C7.58001 20.24 7.24001 19.9 7.24001 19.49V8.99002C7.24001 8.75002 7.13 8.53001 6.94 8.39001C6.81 8.29001 6.65001 8.24002 6.49001 8.24002C6.42001 8.24002 6.35 8.24002 6.28 8.27002L4.05 8.91002C3.95 8.94002 3.87001 8.90001 3.83001 8.87001C3.79001 8.84001 3.73 8.78001 3.73 8.67001V5.54001C3.73 5.44001 3.8 5.34002 3.89 5.30002L7.99001 3.81001C8.39001 4.81001 9.45001 6.58002 11.98 6.58002C14.51 6.58002 15.57 4.80001 15.97 3.81001L20.07 5.30002C20.17 5.34002 20.23 5.43001 20.23 5.54001V8.67001H20.25Z" />
</svg>
