<svg viewBox="0 0 24 24" fill="currentColor" stroke="currentColor" xmlns="http://www.w3.org/2000/svg">
<path d="M22.75 15.5V14.06C22.7 12.4 21.65 9.25999 18 9.25999C15.2 9.25999 11.86 6.46999 11.82 6.43999C11.75 6.37999 11.68 6.33999 11.6 6.30999C11.25 6.17999 10.85 6.24999 10.56 6.49999C8.8 8.01999 5.6 8.09999 3.96 6.66999C3.7 6.44999 3.36 6.35999 3.03 6.41999C2.71 6.48999 2.45 6.69999 2.31 6.99999C2.13 7.38999 1.25 9.49999 1.25 13C1.25 13.95 1.32 14.78 1.4 15.49C1.47 16.05 1.54 16.54 1.62 16.92C1.83 17.97 2.75 18.74 3.83 18.74H20.5C21.74 18.74 22.75 17.73 22.75 16.49V15.5ZM3.47 8.17998C5.64 9.64998 9.03 9.53999 11.23 7.88999C11.48 8.07999 11.85 8.34999 12.29 8.64999L11.47 9.46999C11.18 9.75999 11.18 10.24 11.47 10.53C11.62 10.68 11.81 10.75 12 10.75C12.19 10.75 12.38 10.68 12.53 10.53L13.62 9.43999C14.01 9.64999 14.42 9.85999 14.86 10.05L14.47 10.44C14.18 10.73 14.18 11.21 14.47 11.5C14.62 11.65 14.81 11.72 15 11.72C15.19 11.72 15.38 11.65 15.53 11.5L16.47 10.56C16.98 10.68 17.49 10.77 18 10.77C21.04 10.77 21.24 13.77 21.25 14.09V14.76H6.7C6.48 12.25 5.18 10.72 2.95 10.37C3.1 9.38999 3.31 8.64999 3.47 8.18999V8.17998ZM2.75 13.01C2.75 12.59 2.77 12.21 2.79 11.83C3.69 11.98 4.97 12.52 5.21 14.75H2.83C2.78 14.22 2.75 13.64 2.75 13V13.01ZM20.5 17.25H3.83C3.47 17.25 3.16 17 3.09 16.65C3.07 16.54 3.04 16.39 3.02 16.26H21.25V16.51C21.25 16.92 20.91 17.26 20.5 17.26V17.25Z" />
</svg>
