<svg viewBox="0 0 24 24" fill="currentColor" stroke="currentColor" xmlns="http://www.w3.org/2000/svg">
<path d="M20.2692 4H3.73078C2.77641 4 2 4.77641 2 5.73074V18.8077C2 19.762 2.77641 20.5384 3.73078 20.5384H20.2693C21.2236 20.5384 22 19.762 22 18.8077V5.73074C22 4.77641 21.2236 4 20.2692 4ZM6.8077 19.3846H3.73078C3.41266 19.3846 3.15387 19.1258 3.15387 18.8077V16.9487H6.8077V19.3846ZM6.8077 15.7948H3.15383V13.3589H6.80766V15.7948H6.8077ZM6.8077 12.2051H3.15383V9.76922H6.80766V12.2051H6.8077ZM11.6154 19.3846H7.96152V16.9487H11.6154V19.3846ZM11.6154 15.7948H7.96152V13.3589H11.6154V15.7948ZM11.6154 12.2051H7.96152V9.76922H11.6154V12.2051ZM16.4231 19.3846H12.7693V16.9487H16.4231V19.3846ZM16.4231 15.7949H12.7693V13.359H16.4231V15.7949ZM16.4231 12.2051H12.7693V9.76922H16.4231V12.2051ZM20.8462 18.8077C20.8462 19.1258 20.5874 19.3846 20.2693 19.3846H17.577V16.9487H20.8462V18.8077ZM20.8462 15.7948H17.577V13.3589H20.8462V15.7948ZM20.8462 12.2051H17.577V9.76922H20.8462V12.2051ZM20.8462 8.61539H3.15383V5.73074C3.15383 5.41262 3.41262 5.15383 3.73074 5.15383H20.2692C20.5873 5.15383 20.8461 5.41262 20.8461 5.73074V8.61539H20.8462Z" />
</svg>
