<svg viewBox="0 0 24 24" fill="currentColor" stroke="currentColor" xmlns="http://www.w3.org/2000/svg">
<path d="M21.271 6.284C21.177 6.051 20.972 5.88099 20.726 5.82999C20.479 5.77899 20.224 5.85599 20.047 6.03299L17.865 8.20401C17.578 8.49001 17.111 8.49 16.823 8.203L15.798 7.17801C15.511 6.89101 15.51 6.42301 15.797 6.13501L17.968 3.95401C18.145 3.77601 18.221 3.52099 18.171 3.27499C18.121 3.02899 17.95 2.82401 17.717 2.73001C15.795 1.95301 13.654 2.131 11.841 3.216C11.019 3.709 10.323 4.386 9.83 5.172C9.83 5.172 9.82899 5.17301 9.82899 5.17401L9.74699 5.30899C8.93499 6.65199 8.621 8.15901 8.84 9.67001C8.871 9.88401 8.792 10.11 8.629 10.274L3.306 15.597C2.625 16.278 2.25 17.183 2.25 18.147C2.25 19.111 2.625 20.015 3.306 20.696C3.987 21.377 4.892 21.752 5.856 21.752C6.819 21.752 7.724 21.377 8.405 20.696L13.728 15.373C13.891 15.21 14.118 15.131 14.332 15.162C15.84 15.381 17.344 15.071 18.681 14.266C19.544 13.747 20.269 13.022 20.774 12.173C21.869 10.359 22.051 8.213 21.271 6.284ZM19.487 11.401C19.106 12.042 18.56 12.588 17.907 12.979C16.598 13.768 15.357 13.793 14.548 13.676C13.864 13.576 13.164 13.814 12.668 14.311L7.345 19.634C6.548 20.43 5.162 20.429 4.367 19.634C3.97 19.236 3.75 18.707 3.75 18.145C3.75 17.583 3.969 17.054 4.367 16.656L9.69099 11.333C10.187 10.836 10.424 10.134 10.325 9.45401C10.157 8.29201 10.401 7.127 11.035 6.078L11.102 5.96799C11.47 5.38199 11.993 4.87499 12.612 4.50299C13.886 3.73999 15.082 3.66499 16 3.80499L14.733 5.077C13.865 5.95 13.866 7.36801 14.737 8.23901L15.762 9.263C16.633 10.135 18.051 10.136 18.924 9.267L20.195 8.00201C20.364 9.15701 20.123 10.348 19.487 11.401ZM6.02 17H6.00999C5.45799 17 5.015 17.448 5.015 18C5.015 18.552 5.468 19 6.02 19C6.572 19 7.02 18.552 7.02 18C7.02 17.448 6.572 17 6.02 17Z" />
</svg>
