<svg viewBox="0 0 24 24" fill="currentColor" stroke="currentColor" xmlns="http://www.w3.org/2000/svg">
<path d="M14 16.75C13.586 16.75 13.25 16.414 13.25 16V14C13.25 13.586 13.586 13.25 14 13.25C14.414 13.25 14.75 13.586 14.75 14V16C14.75 16.414 14.414 16.75 14 16.75ZM18.84 8.46201C18.429 8.43301 18.069 8.746 18.042 9.16L17.442 18.148C17.342 19.582 16.627 20.25 15.19 20.25H8.81C8.324 20.25 7.93801 20.177 7.62801 20.026C7.25501 19.843 6.806 19.999 6.625 20.371C6.444 20.744 6.59799 21.192 6.97099 21.374C7.48999 21.627 8.091 21.75 8.81 21.75H15.19C17.418 21.75 18.784 20.475 18.939 18.25L19.539 9.25999C19.566 8.84699 19.253 8.48901 18.84 8.46201ZM21.53 3.53L18.53 6.53L10.53 14.53L3.53 21.53C3.384 21.676 3.192 21.75 3 21.75C2.808 21.75 2.616 21.677 2.47 21.53C2.177 21.237 2.177 20.762 2.47 20.469L5.041 17.898L4.298 6.74899H3C2.586 6.74899 2.25 6.41299 2.25 5.99899C2.25 5.58499 2.586 5.24899 3 5.24899H6.56C7.456 5.24899 7.489 5.152 7.746 4.399L7.94901 3.79201C8.24501 2.87201 9.103 2.24899 10.08 2.24899H13.92C14.898 2.24899 15.755 2.872 16.054 3.799L16.252 4.392C16.512 5.153 16.544 5.24899 17.44 5.24899H17.69L20.47 2.46899C20.763 2.17599 21.238 2.17599 21.531 2.46899C21.824 2.76199 21.823 3.237 21.53 3.53ZM9.17101 4.867C9.12601 4.999 9.08001 5.127 9.03101 5.25H14.968C14.921 5.132 14.877 5.01099 14.834 4.88499L14.628 4.26801C14.527 3.95601 14.244 3.75 13.92 3.75H10.08C9.756 3.75 9.47199 3.95499 9.37399 4.25999L9.17101 4.867ZM6.44901 16.49L9.25 13.689V11C9.25 10.586 9.586 10.25 10 10.25C10.414 10.25 10.75 10.586 10.75 11V12.189L16.189 6.75H7C6.965 6.75 6.93399 6.734 6.89999 6.73C6.78799 6.737 6.685 6.75 6.56 6.75H5.802L6.44901 16.49Z" />
</svg>
