<svg viewBox="0 0 24 24" fill="currentColor" stroke="currentColor" xmlns="http://www.w3.org/2000/svg">
<path d="M21 5.25H17.441C16.54 5.25 16.502 5.136 16.255 4.396L16.053 3.789C15.746 2.869 14.889 2.25 13.919 2.25H10.081C9.11099 2.25 8.25299 2.868 7.94699 3.789L7.745 4.396C7.49799 5.137 7.45999 5.25 6.55899 5.25H3C2.586 5.25 2.25 5.586 2.25 6C2.25 6.414 2.586 6.75 3 6.75H4.298L5.065 18.249C5.213 20.474 6.57701 21.75 8.80701 21.75H15.194C17.423 21.75 18.787 20.474 18.936 18.249L19.703 6.75H21C21.414 6.75 21.75 6.414 21.75 6C21.75 5.586 21.414 5.25 21 5.25ZM9.37 4.263C9.473 3.956 9.75799 3.75 10.081 3.75H13.919C14.242 3.75 14.528 3.956 14.63 4.263L14.832 4.87C14.876 5.001 14.92 5.128 14.968 5.25H9.03C9.078 5.127 9.12299 5 9.16699 4.87L9.37 4.263ZM17.438 18.149C17.343 19.582 16.629 20.25 15.193 20.25H8.806C7.37 20.25 6.657 19.583 6.561 18.149L5.80099 6.75H6.55801C6.68301 6.75 6.78699 6.737 6.89899 6.729C6.93299 6.734 6.96399 6.75 6.99899 6.75H16.999C17.035 6.75 17.065 6.734 17.099 6.729C17.211 6.737 17.315 6.75 17.44 6.75H18.197L17.438 18.149ZM14.53 12.53L13.06 14L14.53 15.47C14.823 15.763 14.823 16.238 14.53 16.531C14.384 16.677 14.192 16.751 14 16.751C13.808 16.751 13.616 16.678 13.47 16.531L12 15.061L10.53 16.531C10.384 16.677 10.192 16.751 10 16.751C9.808 16.751 9.616 16.678 9.47 16.531C9.177 16.238 9.177 15.763 9.47 15.47L10.94 14L9.47 12.53C9.177 12.237 9.177 11.762 9.47 11.469C9.763 11.176 10.238 11.176 10.531 11.469L12.001 12.939L13.471 11.469C13.764 11.176 14.239 11.176 14.532 11.469C14.825 11.762 14.823 12.237 14.53 12.53Z" />
</svg>
