<svg viewBox="0 0 24 24" fill="currentColor" stroke="currentColor" xmlns="http://www.w3.org/2000/svg">
<path d="M3.5 18V17.5C3.5 17.22 3.72 17 4 17H20C20.28 17 20.5 17.22 20.5 17.5V18C20.5 20 19.5 21 17.5 21H6.5C4.5 21 3.5 20 3.5 18ZM21.75 14C21.75 13.59 21.41 13.25 21 13.25H3C2.59 13.25 2.25 13.59 2.25 14C2.25 14.41 2.59 14.75 3 14.75H21C21.41 14.75 21.75 14.41 21.75 14ZM20.5 10V10.5C20.5 10.78 20.28 11 20 11H4C3.72 11 3.5 10.78 3.5 10.5V10C3.5 6 6.5 3 12 3C17.5 3 20.5 6 20.5 10ZM8.75 7C8.75 6.9 8.73 6.81001 8.69 6.71001C8.65 6.62001 8.6 6.54 8.53 6.47C8.46 6.4 8.38001 6.35 8.29001 6.31C8.01001 6.19 7.68 6.26 7.47 6.47C7.4 6.54 7.35 6.62001 7.31 6.71001C7.27 6.80001 7.25 6.9 7.25 7C7.25 7.1 7.27 7.19999 7.31 7.28999C7.35 7.37999 7.4 7.46 7.47 7.53C7.54 7.6 7.61999 7.65 7.70999 7.69C7.79999 7.73 7.9 7.75 8 7.75C8.1 7.75 8.19001 7.73 8.29001 7.69C8.38001 7.65 8.46 7.6 8.53 7.53C8.67 7.39 8.75 7.2 8.75 7ZM12.75 6C12.75 5.9 12.73 5.80001 12.69 5.71001C12.65 5.62001 12.6 5.54 12.53 5.47C12.32 5.26 11.99 5.19 11.71 5.31C11.62 5.35 11.54 5.4 11.47 5.47C11.4 5.54 11.34 5.62001 11.31 5.71001C11.27 5.80001 11.25 5.9 11.25 6C11.25 6.1 11.27 6.19999 11.31 6.28999C11.35 6.37999 11.4 6.46 11.47 6.53C11.54 6.6 11.62 6.65 11.71 6.69C11.8 6.73 11.9 6.75 12 6.75C12.2 6.75 12.39 6.67 12.53 6.53C12.6 6.46 12.65 6.37999 12.69 6.28999C12.73 6.19999 12.75 6.1 12.75 6ZM16.75 7C16.75 6.9 16.73 6.80001 16.69 6.71001C16.65 6.62001 16.6 6.54 16.53 6.47C16.46 6.4 16.38 6.35 16.29 6.31C16.1 6.23 15.9 6.23 15.71 6.31C15.62 6.35 15.54 6.4 15.47 6.47C15.4 6.54 15.34 6.62001 15.31 6.71001C15.27 6.80001 15.25 6.9 15.25 7C15.25 7.2 15.33 7.39 15.47 7.53C15.54 7.6 15.62 7.65 15.71 7.69C15.8 7.73 15.9 7.75 16 7.75C16.1 7.75 16.19 7.73 16.29 7.69C16.38 7.65 16.46 7.6 16.53 7.53C16.67 7.39 16.75 7.2 16.75 7Z" />
</svg>
