<svg viewBox="0 0 24 24" fill="currentColor" stroke="currentColor" xmlns="http://www.w3.org/2000/svg">
<path d="M20 12.5V17.25H4V12.5C4.57 12.5 5.53 13.72 6 14.6C6.14 14.86 6.42 15.02 6.72 15C7.01 14.98 7.27 14.78 7.37 14.5C7.37 14.48 8.12 12.5 9.34 12.5C10.56 12.5 11.29 14.48 11.29 14.5C11.4 14.8 11.68 15 12 15C12.32 15 12.6 14.8 12.71 14.5C12.89 13.98 13.64 12.5 14.66 12.5C15.88 12.5 16.62 14.48 16.63 14.5C16.73 14.78 16.99 14.98 17.28 15C17.6 15.02 17.86 14.86 18 14.6C18.47 13.72 19.43 12.5 20 12.5ZM17 7H16.75V5C16.75 4.59 16.41 4.25 16 4.25C15.59 4.25 15.25 4.59 15.25 5V7H12.75V5C12.75 4.59 12.41 4.25 12 4.25C11.59 4.25 11.25 4.59 11.25 5V7H8.75V5C8.75 4.59 8.41 4.25 8 4.25C7.59 4.25 7.25 4.59 7.25 5V7H7C5 7 4 8 4 10V11C5.05 11 5.98 11.93 6.59 12.75C7.14 11.93 8.04 11 9.34 11C10.64 11 11.45 11.85 12 12.64C12.55 11.85 13.42 11 14.66 11C15.9 11 16.86 11.93 17.41 12.75C18.02 11.93 18.95 11 20 11V10C20 8 19 7 17 7ZM3 18.75V19.5C3 20.33 3.67 21 4.5 21H19.5C20.33 21 21 20.33 21 19.5V18.75H3Z" />
</svg>
