<svg viewBox="0 0 24 24" fill="currentColor" stroke="currentColor" xmlns="http://www.w3.org/2000/svg">
<path d="M20.87 7.08001C20.39 5.16001 18.86 3.62003 16.94 3.13003C15.64 2.80003 14.23 3.10003 13.13 3.88003C11.48 5.04003 9.6 5.52004 7.59 5.64004C6.56 5.70004 5.55 6.08001 4.78 6.77001C3.26 8.14001 2.64998 10.28 3.18998 12.23C3.52998 13.47 4.43998 14.48 5.56998 15.09C7.22998 15.99 8.35999 17.03 8.94999 18.12C9.94999 19.96 11.8399 21.24 13.9099 20.96C14.9699 20.82 15.99 20.37 16.8 19.64C17.77 18.78 18.25 17.5 18.29 16.2C18.36 14.48 18.93 12.69 20.18 10.83C20.92 9.74001 21.18 8.35003 20.86 7.07003L20.87 7.08001ZM11.5 15C9.56998 15 7.99998 13.43 7.99998 11.5C7.99998 9.57003 9.56998 8.00003 11.5 8.00003C13.43 8.00003 15 9.57003 15 11.5C15 13.43 13.43 15 11.5 15Z" />
</svg>
