<svg viewBox="0 0 24 24" fill="currentColor" stroke="currentColor" xmlns="http://www.w3.org/2000/svg">
<path d="M21 17.75V18.5C21 19.33 20.33 20 19.5 20H4.5C3.67 20 3 19.33 3 18.5V17.75H21ZM20 15C20 15.43 19.97 15.84 19.9 16.25H4.10001C4.03001 15.84 4 15.43 4 15C4 11.1 6.79 7.85999 10.48 7.14999C10.03 6.73999 9.75 6.15 9.75 5.5C9.75 4.26 10.76 3.25 12 3.25C13.24 3.25 14.25 4.26 14.25 5.5C14.25 6.15 13.97 6.73999 13.52 7.14999C17.21 7.85999 20 11.1 20 15ZM11.25 5.5C11.25 5.91 11.59 6.25 12 6.25C12.41 6.25 12.75 5.91 12.75 5.5C12.75 5.09 12.41 4.75 12 4.75C11.59 4.75 11.25 5.09 11.25 5.5ZM16.71 11.6C15.96 10.4 14.62 9.51999 13.13 9.25999C12.72 9.18999 12.33 9.46 12.26 9.87C12.19 10.28 12.46 10.67 12.87 10.74C13.93 10.93 14.92 11.56 15.43 12.4C15.58 12.62 15.82 12.75 16.07 12.75C16.21 12.75 16.34 12.71 16.47 12.64C16.82 12.42 16.93 11.96 16.71 11.6Z" />
</svg>
