<svg viewBox="0 0 24 24" fill="currentColor" stroke="currentColor" xmlns="http://www.w3.org/2000/svg">
<path d="M12.75 3V7C12.75 9.09 11.24 10.82 9.25 11.17V21C9.25 21.41 8.91 21.75 8.5 21.75C8.09 21.75 7.75 21.41 7.75 21V11.17C5.76 10.81 4.25 9.08 4.25 7V3C4.25 2.59 4.59 2.25 5 2.25C5.41 2.25 5.75 2.59 5.75 3V7H6.5V3C6.5 2.59 6.84 2.25 7.25 2.25C7.66 2.25 8 2.59 8 3V7H9V3C9 2.59 9.34 2.25 9.75 2.25C10.16 2.25 10.5 2.59 10.5 3V7H11.25V3C11.25 2.59 11.59 2.25 12 2.25C12.41 2.25 12.75 2.59 12.75 3ZM19 2.25C18.95 2.25 13.75 2.33 13.75 9V14.5C13.75 15.19 14.31 15.75 15 15.75H18.25V21C18.25 21.41 18.59 21.75 19 21.75C19.41 21.75 19.75 21.41 19.75 21V3C19.75 2.59 19.41 2.25 19 2.25Z" />
</svg>
