<svg viewBox="0 0 24 24" fill="currentColor" stroke="currentColor" xmlns="http://www.w3.org/2000/svg">
<path d="M11.75 3V7C11.75 9.09 10.24 10.82 8.25 11.17V21C8.25 21.41 7.91 21.75 7.5 21.75C7.09 21.75 6.75 21.41 6.75 21V11.17C4.76 10.81 3.25 9.08 3.25 7V3C3.25 2.59 3.59 2.25 4 2.25C4.41 2.25 4.75 2.59 4.75 3V7H5.5V3C5.5 2.59 5.84 2.25 6.25 2.25C6.66 2.25 7 2.59 7 3V7H7.82999V3C7.82999 2.59 8.16999 2.25 8.57999 2.25C8.98999 2.25 9.32999 2.59 9.32999 3V7H10.25V3C10.25 2.59 10.59 2.25 11 2.25C11.41 2.25 11.75 2.59 11.75 3ZM20.46 7.47L20.21 5.42C20.01 3.75 18.63 2.5 17 2.5C15.37 2.5 13.99 3.76 13.79 5.42L13.54 7.47C13.39 8.7 13.65 9.74001 14.29 10.46C14.79 11.02 15.48 11.35 16.35 11.46V21.01C16.35 21.42 16.69 21.76 17.1 21.76C17.51 21.76 17.85 21.42 17.85 21.01V11.44C18.63 11.31 19.25 10.98 19.71 10.46C20.35 9.74001 20.61 8.71 20.46 7.47Z" />
</svg>
