<svg viewBox="0 0 24 24" fill="currentColor" stroke="currentColor" xmlns="http://www.w3.org/2000/svg">
<path d="M10.14 10.68L6.87998 13.94L6.29996 13.36C4.58996 11.65 3.24997 8.41998 3.24997 5.99998V3.99998C3.24997 3.69998 3.42996 3.41998 3.70996 3.30998C3.98996 3.18998 4.31997 3.25999 4.52997 3.46999L9.71997 8.65999C9.72997 9.35999 9.87999 10.04 10.14 10.68ZM21.53 20.47L15.33 14.27C14.64 14.26 13.96 14.12 13.33 13.86L10.06 17.12L11.12 18.18C11.35 18.41 11.67 18.54 12 18.54C12.33 18.54 12.65 18.41 12.88 18.18L15 16.06L20.47 21.53C20.62 21.68 20.81 21.75 21 21.75C21.19 21.75 21.38 21.68 21.53 21.53C21.82 21.24 21.82 20.76 21.53 20.47ZM21.53 7.46999C21.38 7.31999 21.19 7.24998 21 7.24998C20.81 7.24998 20.62 7.31999 20.47 7.46999L17.47 10.47L16.79 9.78998L19.79 6.77998C20.08 6.48998 20.08 6.00999 19.79 5.71999C19.5 5.42999 19.02 5.42999 18.73 5.71999L15.74 8.71999L15.3 8.27998L18.3 5.26999C18.59 4.97999 18.59 4.49999 18.3 4.20999C18.01 3.91999 17.53 3.91999 17.24 4.20999L14.25 7.20999L13.55 6.50998L16.55 3.50998C16.84 3.21998 16.84 2.73998 16.55 2.44998C16.4 2.29998 16.21 2.22998 16.02 2.22998C15.83 2.22998 15.64 2.29998 15.49 2.44998L12.49 5.44998C11.68 6.25998 11.23 7.33998 11.23 8.47998C11.23 9.34998 11.5 10.16 11.97 10.87C11.98 10.89 12 10.91 12.01 10.93L2.48996 20.45C2.19996 20.74 2.19996 21.22 2.48996 21.51C2.63996 21.66 2.82996 21.73 3.01996 21.73C3.20996 21.73 3.39996 21.66 3.54996 21.51L13.07 11.99C13.07 11.99 13.11 12.02 13.13 12.03C13.86 12.51 14.68 12.76 15.52 12.76C16.62 12.76 17.71 12.35 18.55 11.51L21.55 8.50998C21.84 8.21998 21.84 7.73998 21.55 7.44998L21.53 7.46999Z" />
</svg>
