<svg viewBox="0 0 24 24" fill="currentColor" stroke="currentColor" xmlns="http://www.w3.org/2000/svg">
<path d="M18.4099 3.64C18.1699 3.39 17.84 3.25 17.5 3.25H6.49995C6.15995 3.25 5.82998 3.39 5.58998 3.64C5.34998 3.89 5.22995 4.23001 5.24995 4.57001L6.03993 17.23C6.16993 19.33 7.75994 20.74 9.98994 20.74H13.9899C16.2199 20.74 17.81 19.33 17.94 17.22L18.7399 4.56C18.7599 4.22 18.64 3.88 18.4 3.62L18.4099 3.64ZM17.2399 4.75L17.01 8.48C16.37 8.67 14.84 8.94 12.19 8.28C9.85995 7.7 8.02993 7.86 6.97993 8.06L6.76997 4.75999H17.2399V4.75Z" />
</svg>
