<svg viewBox="0 0 24 24" fill="currentColor" stroke="currentColor" xmlns="http://www.w3.org/2000/svg">
<path d="M14.87 14.5C15.09 14.5 15.23 14.72 15.14 14.92L12.63 20.59C12.39 21.14 11.61 21.14 11.37 20.59L8.86 14.92C8.77 14.72 8.92 14.5 9.13 14.5H14.87ZM16.5 13C17.88 13 19 11.88 19 10.5C19 9.12 17.88 8 16.5 8C16.28 8 16.06 8.03 15.85 8.09C15.95 7.74 16 7.38 16 7C16 4.79 14.21 3 12 3C9.79 3 8 4.79 8 7C8 7.38 8.04999 7.74 8.14999 8.09C7.93999 8.03 7.72 8 7.5 8C6.12 8 5 9.12 5 10.5C5 11.88 6.12 13 7.5 13H16.5Z" />
</svg>
