<svg viewBox="0 0 24 24" fill="currentColor" stroke="currentColor" xmlns="http://www.w3.org/2000/svg">
<path d="M20.77 5.92999C20.92 5.64999 21 5.33 21 5C21 3.9 20.1 3 19 3C18.67 3 18.35 3.08001 18.07 3.23001C17.55 3.51001 16.96 3.60999 16.39 3.42999C13.35 2.46999 9.45 3.55 6.56 6.44C3.67 9.33 2.59 13.19 3.52 16.23C3.7 16.83 3.59 17.45 3.27 17.99C3.1 18.29 3 18.63 3 19C3 20.1 3.9 21 5 21C5.37 21 5.70999 20.9 6.00999 20.73C6.54999 20.41 7.17 20.3 7.77 20.48C10.81 21.41 14.67 20.33 17.56 17.44C20.45 14.55 21.53 10.65 20.57 7.60999C20.39 7.03999 20.49 6.44999 20.77 5.92999ZM9.02 17.5C8.47 17.5 8.02 17.05 8.02 16.5C8.02 15.95 8.46 15.5 9.02 15.5C9.57 15.5 10.02 15.95 10.02 16.5C10.02 17.05 9.57 17.5 9.02 17.5ZM11.02 14.5C10.47 14.5 10.02 14.05 10.02 13.5C10.02 12.95 10.46 12.5 11.02 12.5C11.57 12.5 12.02 12.95 12.02 13.5C12.02 14.05 11.57 14.5 11.02 14.5ZM13.02 17.5C12.47 17.5 12.02 17.05 12.02 16.5C12.02 15.95 12.46 15.5 13.02 15.5C13.57 15.5 14.02 15.95 14.02 16.5C14.02 17.05 13.57 17.5 13.02 17.5Z" />
</svg>
