<svg viewBox="0 0 24 24" fill="currentColor" stroke="currentColor" xmlns="http://www.w3.org/2000/svg">
<path d="M8 16.75H14C16.42 16.75 17.75 15.42 17.75 13V12.72C19.98 12.59 21.75 10.75 21.75 8.5C21.75 6.25 19.84 4.25 17.5 4.25H5.5C4.81 4.25 4.25 4.81 4.25 5.5V13C4.25 15.42 5.58 16.75 8 16.75ZM20.25 8.5C20.25 9.93 19.15 11.1 17.75 11.22V5.77C19.15 5.9 20.25 7.06001 20.25 8.49001V8.5ZM21.75 19C21.75 19.41 21.41 19.75 21 19.75H3C2.59 19.75 2.25 19.41 2.25 19C2.25 18.59 2.59 18.25 3 18.25H21C21.41 18.25 21.75 18.59 21.75 19Z" />
</svg>
