<svg viewBox="0 0 24 24" fill="currentColor" stroke="currentColor" xmlns="http://www.w3.org/2000/svg">
<path d="M15 12C15 13.65 13.65 15 12 15C10.35 15 9 13.65 9 12C9 10.35 10.35 9 12 9C13.65 9 15 10.35 15 12ZM18.37 15.69C18.56 15.74 18.65 15.97 18.55 16.13C17.18 18.3 14.75 19.75 12 19.75C9.78 19.75 7.77999 18.82 6.35999 17.32C6.30999 17.26 6.28003 17.18 6.28003 17.11V12.48C6.28003 12.37 6.35001 12.27 6.45001 12.22C7.88001 11.51 8.81 10.05 8.81 8.39999V5.50999C8.81 5.42999 8.80998 5.35 8.78998 5.27C8.77998 5.17 8.78 5.12 8.81 5.05C8.86 4.95 8.9 4.9 9 4.86C9.93 4.47 10.94 4.25 12 4.25C14.01 4.25 15.84 5.02 17.22 6.27C17.31 6.36 17.34 6.49 17.29 6.61C16.95 7.43 16.74 8.43 16.74 9.67V13.61C16.74 14.61 17.43 15.46 18.36 15.69H18.37ZM16 12C16 9.79 14.21 8 12 8C9.79 8 8 9.79 8 12C8 14.21 9.79 16 12 16C14.21 16 16 14.21 16 12ZM22 4.25C22 4.25 19.14 4.29 18.12 7.25C17.89 7.9 17.75 8.7 17.75 9.67V13.61C17.75 14.24 18.26 14.75 18.89 14.75H21.25V19C21.25 19.41 21.59 19.75 22 19.75C22.41 19.75 22.75 19.41 22.75 19V5C22.75 4.59 22.41 4.25 22 4.25ZM7.06 4.75C6.64 4.75 6.31 5.09 6.31 5.5V8.39C6.31 8.39 6.29999 8.41 6.29999 8.42H5.28003V5.5C5.28003 5.09 4.94003 4.75 4.53003 4.75C4.12003 4.75 3.78003 5.09 3.78003 5.5V8.42H2.75V5.5C2.75 5.09 2.41 4.75 2 4.75C1.59 4.75 1.25 5.09 1.25 5.5V8.39C1.25 9.94 2.33003 11.23 3.78003 11.57V18.5C3.78003 18.91 4.11003 19.25 4.53003 19.25C4.95003 19.25 5.28003 18.91 5.28003 18.5V11.57C6.72003 11.23 7.81 9.94 7.81 8.39V5.48C7.8 5.08 7.46 4.75 7.06 4.75Z" />
</svg>
