<svg viewBox="0 0 24 24" fill="currentColor" stroke="currentColor" xmlns="http://www.w3.org/2000/svg">
<path d="M12 3C9.24 3 7 5.24 7 8V14.5C7 15.33 7.67 16 8.5 16H11.25V21C11.25 21.41 11.59 21.75 12 21.75C12.41 21.75 12.75 21.41 12.75 21V16H15.5C16.33 16 17 15.33 17 14.5V8C17 5.24 14.76 3 12 3ZM10.5 13.75C10.09 13.75 9.75 13.41 9.75 13V7C9.75 6.59 10.09 6.25 10.5 6.25C10.91 6.25 11.25 6.59 11.25 7V13C11.25 13.41 10.91 13.75 10.5 13.75ZM14.25 13C14.25 13.41 13.91 13.75 13.5 13.75C13.09 13.75 12.75 13.41 12.75 13V7C12.75 6.59 13.09 6.25 13.5 6.25C13.91 6.25 14.25 6.59 14.25 7V13Z" />
</svg>
