<svg viewBox="0 0 24 24" fill="currentColor" stroke="currentColor" xmlns="http://www.w3.org/2000/svg">
<path d="M8 21.75C6.01 21.75 2.25 20.76 2.25 17C2.25 15.27 3.33998 14.32 4.28998 13.5C5.33998 12.59 6.25 11.81 6.25 10C6.25 5.58 9.58 2.25 14 2.25C18.71 2.25 21.75 5.49 21.75 10.5C21.75 15.51 18.15 21.75 8 21.75ZM14 3.75C10.44 3.75 7.75 6.44 7.75 10C7.75 12.49 6.38003 13.67 5.28003 14.63C4.31003 15.47 3.75 16 3.75 17C3.75 20.21 7.83 20.25 8 20.25C19.66 20.25 20.25 12.13 20.25 10.5C20.25 5.52 17.02 3.75 14 3.75ZM14 6C11.64 6 10 7.65 10 10C10 13.51 8.56999 14.33 7.35999 15.39C7.07999 15.63 6.25 16.24 6.5 17.17C6.73 18.03 7.71998 18.14 8.03998 18.14C17.01 18.14 18 12.26 18 10.5C18 6.78 15.83 6 14 6ZM14.02 11.25C13.33 11.25 12.77 10.69 12.77 10C12.77 9.31 13.32 8.75 14.02 8.75C14.71 8.75 15.27 9.31 15.27 10C15.27 10.69 14.71 11.25 14.02 11.25Z" />
</svg>
