<svg viewBox="0 0 24 24" fill="currentColor" stroke="currentColor" xmlns="http://www.w3.org/2000/svg">
<path d="M10.48 11.15C10.73 11.26 10.99 11.33 11.25 11.39V20.91C11.09 20.87 10.93 20.81 10.78 20.74L4.78003 18.07C3.70003 17.59 3 16.52 3 15.33V8.67C3 8.4 3.03999 8.12999 3.10999 7.87999L10.48 11.15ZM14.8199 8.92L6.67004 5.08998L4.78003 5.92998C4.43003 6.07998 4.13 6.29999 3.87 6.55999L11.08 9.76998C11.66 10.03 12.33 10.03 12.92 9.76998L14.8199 8.92ZM20.13 6.55999C19.87 6.29999 19.57 6.07998 19.22 5.92998L13.22 3.26C12.44 2.91 11.56 2.91 10.78 3.26L8.48999 4.27999L16.64 8.10997L20.13 6.55999ZM20.89 7.87999L17.38 9.43999V11.89C17.38 12.3 17.04 12.64 16.63 12.64C16.22 12.64 15.88 12.3 15.88 11.89V10.1L13.52 11.15C13.27 11.25 13.01 11.33 12.75 11.39V20.91C12.91 20.87 13.07 20.81 13.22 20.74L19.22 18.07C20.3 17.59 21 16.52 21 15.33V8.67C21 8.4 20.96 8.12999 20.89 7.87999Z" />
</svg>
