<svg viewBox="0 0 24 24" fill="currentColor" stroke="currentColor" xmlns="http://www.w3.org/2000/svg">
<path d="M20.13 12H18.5V16L17 15L15.5 16V12H15.13C16.38 12 17 11.37 17 10.12V3.87C17 2.62 16.38 2 15.13 2H13.5V6L12 5L10.5 6V2H8.88C7.63 2 7 2.62 7 3.87V10.12C7 11.37 7.63 12 8.88 12H8.5V16L7 15L5.5 16V12H3.88C2.63 12 2 12.62 2 13.87V20.12C2 21.37 2.63 22 3.88 22H10.13C11.38 22 12 21.37 12 20.12C12 21.37 12.63 22 13.88 22H20.13C21.38 22 22 21.37 22 20.12V13.87C22 12.62 21.38 12 20.13 12ZM12 13.87C12 12.62 11.38 12 10.13 12H13.88C12.63 12 12 12.62 12 13.87Z" />
</svg>
