<svg viewBox="0 0 24 24" fill="currentColor" stroke="currentColor" xmlns="http://www.w3.org/2000/svg">
<path d="M21 10V7C21 5 20 4 18 4H16.05C15.884 4 15.75 4.13399 15.75 4.29999V7.5C15.75 7.91 15.41 8.25 15 8.25C14.59 8.25 14.25 7.91 14.25 7.5V4.29999C14.25 4.13399 14.116 4 13.95 4H6C4 4 3 5 3 7V10C4.1 10 5 10.9 5 12C5 13.1 4.1 14 3 14V17C3 19 4 20 6 20H13.95C14.116 20 14.25 19.866 14.25 19.7V16.5C14.25 16.09 14.59 15.75 15 15.75C15.41 15.75 15.75 16.09 15.75 16.5V19.7C15.75 19.866 15.884 20 16.05 20H18C20 20 21 19 21 17V14C19.9 14 19 13.1 19 12C19 10.9 19.9 10 21 10ZM15.75 13.25C15.75 13.664 15.414 14 15 14C14.586 14 14.25 13.664 14.25 13.25V10.75C14.25 10.336 14.586 10 15 10C15.414 10 15.75 10.336 15.75 10.75V13.25Z" />
</svg>
