<svg viewBox="0 0 24 24" fill="currentColor" stroke="currentColor" xmlns="http://www.w3.org/2000/svg">
<path d="M21 10V7C21 5 20 4 18 4H6C4 4 3 5 3 7V10C4.1 10 5 10.9 5 12C5 13.1 4.1 14 3 14V17C3 19 4 20 6 20H18C20 20 21 19 21 17V14C19.9 14 19 13.1 19 12C19 10.9 19.9 10 21 10ZM16.106 11.488L14.576 12.968C14.464 13.076 14.4129 13.232 14.4399 13.385L14.79 15.41C14.861 15.821 14.428 16.134 14.056 15.941L12.22 14.983C12.082 14.911 11.918 14.911 11.78 14.983L9.94495 15.94C9.57295 16.134 9.13896 15.82 9.20996 15.409L9.56006 13.385C9.58606 13.232 9.53495 13.076 9.42395 12.968L7.89404 11.488C7.61304 11.216 7.76801 10.741 8.15601 10.686L10.2729 10.381C10.4269 10.359 10.56 10.263 10.629 10.124L11.546 8.28101C11.732 7.90701 12.269 7.90701 12.455 8.28101L13.3719 10.124C13.4409 10.263 13.574 10.359 13.728 10.381L15.845 10.686C16.233 10.742 16.387 11.216 16.106 11.488Z" />
</svg>
