<svg viewBox="0 0 24 24" fill="currentColor" stroke="currentColor" xmlns="http://www.w3.org/2000/svg">
<path d="M21 10V7C21 5 20 4 18 4H6C4 4 3 5 3 7V10C4.1 10 5 10.9 5 12C5 13.1 4.1 14 3 14V17C3 19 4 20 6 20H18C20 20 21 19 21 17V14C19.9 14 19 13.1 19 12C19 10.9 19.9 10 21 10ZM15.925 11.544C15.403 14.213 12 15.75 12 15.75C12 15.75 8.59695 14.213 8.07495 11.544C7.75495 9.90601 8.45406 8.259 10.2321 8.25C11.5561 8.244 12 9.56799 12 9.56799C12 9.56799 12.4439 8.243 13.7679 8.25C15.5489 8.259 16.245 9.90601 15.925 11.544Z" />
</svg>
