<svg viewBox="0 0 24 24" fill="currentColor" stroke="currentColor" xmlns="http://www.w3.org/2000/svg">
<path d="M21.738 16.65C21.81 17.058 21.538 17.447 21.13 17.519L10.46 19.397C10.268 20.586 9.24301 21.5 8.00001 21.5C6.62101 21.5 5.50001 20.378 5.50001 19C5.50001 17.883 6.24106 16.946 7.25306 16.626L5.17103 4.77999C5.05203 4.10299 4.40003 3.652 3.71803 3.768L3.12404 3.869C2.71904 3.936 2.32802 3.663 2.26002 3.255C2.19102 2.846 2.46504 2.45899 2.87404 2.38999L3.464 2.28999C4.941 2.03099 6.38496 3.02999 6.64796 4.51899L8.77699 16.635C9.42099 16.847 9.94698 17.309 10.241 17.911L20.87 16.04C21.279 15.969 21.668 16.242 21.738 16.65ZM17.408 14.575L13.7741 15.216C11.7151 15.579 10.575 14.781 10.212 12.722L9.57106 9.08799C9.20806 7.02899 10.006 5.889 12.065 5.526L15.699 4.88499C17.758 4.52199 18.898 5.31999 19.261 7.37899L19.902 11.013C20.266 13.072 19.468 14.212 17.408 14.575ZM16.561 8.68499L14.839 7.47199C14.757 7.41199 14.663 7.37 14.562 7.348C14.368 7.305 14.165 7.342 13.997 7.449C13.939 7.486 13.896 7.53699 13.851 7.58799C13.831 7.60999 13.805 7.624 13.787 7.649L12.5601 9.389C12.3221 9.727 12.403 10.195 12.741 10.434C12.873 10.527 13.023 10.571 13.173 10.571C13.409 10.571 13.641 10.461 13.787 10.254L13.975 9.98699L14.3571 12.152C14.4201 12.516 14.737 12.772 15.094 12.772C15.137 12.772 15.181 12.768 15.225 12.76C15.633 12.688 15.906 12.299 15.833 11.891L15.454 9.74299L15.695 9.91299C16.035 10.152 16.502 10.07 16.741 9.73199C16.979 9.39099 16.898 8.92299 16.561 8.68499Z" />
</svg>
