<svg viewBox="0 0 24 24" fill="currentColor" stroke="currentColor" xmlns="http://www.w3.org/2000/svg">
<path d="M4.30005 13.5H11.25V20.7C11.25 20.866 11.116 21 10.95 21H7C5 21 4 20 4 18V13.8C4 13.634 4.13405 13.5 4.30005 13.5ZM19.7 13.5H12.75V20.7C12.75 20.866 12.884 21 13.05 21H17C19 21 20 20 20 18V13.8C20 13.634 19.866 13.5 19.7 13.5ZM21 8.49997V11.7C21 11.866 20.866 12 20.7 12H12.75V8.49997H11.25V12H3.30005C3.13405 12 3 11.866 3 11.7V8.49997C3 7.67197 3.672 6.99997 4.5 6.99997H5.56494C5.24594 6.38197 5.12701 5.64497 5.41101 4.84397C5.69401 4.04597 6.33995 3.38499 7.14795 3.13199C8.26595 2.78199 9.416 3.14796 10.12 4.00296C10.152 4.04196 11.277 5.53895 12.001 6.50095C12.724 5.53895 13.848 4.04496 13.875 4.01096C14.584 3.14896 15.724 2.78595 16.839 3.12595C17.619 3.36495 18.253 3.98298 18.553 4.74198C18.885 5.58198 18.769 6.35499 18.437 6.99899H19.502C20.328 6.99999 21 7.67197 21 8.49997ZM10.498 6.99997C9.82105 6.09997 9.003 5.01195 8.948 4.94095C8.719 4.66195 8.378 4.49997 8 4.49997C7.311 4.49997 6.75 5.06097 6.75 5.74997C6.75 6.43897 7.311 6.99997 8 6.99997H10.498ZM17.25 5.74997C17.25 5.06097 16.689 4.49997 16 4.49997C15.622 4.49997 15.2809 4.66194 15.0389 4.95694C14.9919 5.01894 14.177 6.10197 13.502 6.99997H16C16.689 6.99997 17.25 6.43897 17.25 5.74997Z" />
</svg>
