<svg viewBox="0 0 24 24" fill="currentColor" stroke="currentColor" xmlns="http://www.w3.org/2000/svg">
<path d="M20.7 10.75H3.30005C3.13405 10.75 3 10.884 3 11.05V18C3 20 4 21 6 21H18C20 21 21 20 21 18V11.05C21 10.884 20.866 10.75 20.7 10.75ZM13.6689 18.358C13.4079 18.629 13.085 18.809 12.735 18.901V19.001C12.735 19.415 12.399 19.751 11.985 19.751C11.571 19.751 11.235 19.415 11.235 19.001V18.893C10.455 18.675 9.85499 17.997 9.76099 17.138C9.71699 16.726 10.015 16.356 10.426 16.312C10.837 16.268 11.2081 16.565 11.2531 16.977C11.2831 17.261 11.5029 17.475 11.7629 17.475H12.236C12.413 17.475 12.533 17.378 12.589 17.32C12.693 17.212 12.75 17.068 12.75 16.915C12.75 16.655 12.587 16.43 12.354 16.369L11.27 16.09C10.829 15.974 10.437 15.71 10.166 15.345C9.90002 14.996 9.75098 14.549 9.75098 14.092C9.75098 13.144 10.383 12.352 11.236 12.113V12C11.236 11.586 11.572 11.25 11.986 11.25C12.4 11.25 12.736 11.586 12.736 12V12.1C13.53 12.308 14.144 12.994 14.239 13.864C14.283 14.276 13.985 14.646 13.574 14.69C13.169 14.735 12.7919 14.437 12.7469 14.025C12.7169 13.742 12.4971 13.528 12.2371 13.528H11.764C11.481 13.528 11.25 13.779 11.25 14.089C11.25 14.219 11.29 14.344 11.363 14.439C11.438 14.54 11.534 14.606 11.646 14.635L12.73 14.914C13.626 15.15 14.25 15.971 14.25 16.912C14.25 17.455 14.0439 17.969 13.6689 18.358ZM3.32605 8.86801L4.38 5.17999C4.75 3.88999 5.00001 3 7.26001 3H10.95C11.116 3 11.25 3.13399 11.25 3.29999V8.95001C11.25 9.11601 11.116 9.25 10.95 9.25H3.61401C3.41501 9.25 3.27105 9.05901 3.32605 8.86801ZM12.75 8.95001V3.29999C12.75 3.13399 12.884 3 13.05 3H16.74C19 3 19.25 3.88999 19.62 5.17999L20.674 8.86801C20.729 9.06001 20.585 9.25 20.386 9.25H13.05C12.884 9.25 12.75 9.11601 12.75 8.95001Z" />
</svg>
