<svg viewBox="0 0 24 24" fill="currentColor" stroke="currentColor" xmlns="http://www.w3.org/2000/svg">
<path d="M17 3H7C5 3 4 4 4 6V18.621C4 19.445 4.94098 19.915 5.59998 19.421L6.95898 18.402C7.55598 17.954 8.39204 18.014 8.92004 18.541L10.939 20.56C11.525 21.146 12.4751 21.146 13.0601 20.56L15.079 18.541C15.607 18.013 16.443 17.954 17.04 18.402L18.399 19.421C19.058 19.915 19.999 19.445 19.999 18.621V6C20 4 19 3 17 3ZM15.925 10.766C15.403 13.435 12 14.972 12 14.972C12 14.972 8.59695 13.435 8.07495 10.766C7.75495 9.12899 8.45396 7.48098 10.231 7.47198C11.555 7.46598 11.999 8.79001 11.999 8.79001C11.999 8.79001 12.443 7.46498 13.767 7.47198C15.549 7.48098 16.245 9.12799 15.925 10.766Z" />
</svg>
