<svg viewBox="0 0 24 24" fill="currentColor" stroke="currentColor" xmlns="http://www.w3.org/2000/svg">
<path d="M17 3H7C5 3 4 4 4 6V18.621C4 19.445 4.94098 19.915 5.59998 19.421L6.95898 18.402C7.55598 17.954 8.39204 18.014 8.92004 18.541L10.939 20.56C11.525 21.146 12.4751 21.146 13.0601 20.56L15.079 18.541C15.607 18.013 16.443 17.954 17.04 18.402L18.399 19.421C19.058 19.915 19.999 19.445 19.999 18.621V6C20 4 19 3 17 3ZM9.51001 7.5H9.52002C10.073 7.5 10.52 7.948 10.52 8.5C10.52 9.052 10.073 9.5 9.52002 9.5C8.96802 9.5 8.51501 9.052 8.51501 8.5C8.51501 7.948 8.95801 7.5 9.51001 7.5ZM10.03 14.03C9.88403 14.176 9.692 14.25 9.5 14.25C9.308 14.25 9.11597 14.177 8.96997 14.03C8.67697 13.737 8.67697 13.262 8.96997 12.969L13.97 7.96899C14.263 7.67599 14.738 7.67599 15.031 7.96899C15.324 8.26199 15.324 8.737 15.031 9.03L10.03 14.03ZM14.52 14.5C13.968 14.5 13.515 14.052 13.515 13.5C13.515 12.948 13.958 12.5 14.51 12.5H14.52C15.073 12.5 15.52 12.948 15.52 13.5C15.52 14.052 15.072 14.5 14.52 14.5Z" />
</svg>
