<svg viewBox="0 0 24 24" fill="currentColor" stroke="currentColor" xmlns="http://www.w3.org/2000/svg">
<path d="M18.4 4.579L17.041 5.59798C16.444 6.04598 15.608 5.986 15.08 5.459L13.061 3.43999C12.475 2.85399 11.5249 2.85399 10.9399 3.43999L8.92102 5.459C8.39302 5.987 7.55696 6.04598 6.95996 5.59798L5.60095 4.579C4.94195 4.085 4.00098 4.55498 4.00098 5.37898V18.622C4.00098 19.446 4.94195 19.916 5.60095 19.422L6.95996 18.403C7.55696 17.955 8.39302 18.015 8.92102 18.542L10.9399 20.561C11.5259 21.147 12.476 21.147 13.061 20.561L15.08 18.542C15.608 18.014 16.444 17.955 17.041 18.403L18.4 19.422C19.059 19.916 20 19.446 20 18.622V5.37898C20 4.55498 19.059 4.084 18.4 4.579ZM16.106 11.488L14.576 12.968C14.464 13.076 14.4129 13.232 14.4399 13.385L14.79 15.41C14.861 15.821 14.428 16.134 14.056 15.941L12.22 14.983C12.082 14.911 11.918 14.911 11.78 14.983L9.94495 15.94C9.57295 16.134 9.13896 15.82 9.20996 15.409L9.56006 13.385C9.58606 13.232 9.53495 13.076 9.42395 12.968L7.89404 11.488C7.61304 11.216 7.76801 10.741 8.15601 10.686L10.2729 10.381C10.4269 10.359 10.56 10.263 10.629 10.124L11.546 8.28099C11.732 7.90699 12.269 7.90699 12.455 8.28099L13.3719 10.124C13.4409 10.263 13.574 10.359 13.728 10.381L15.845 10.686C16.233 10.742 16.387 11.216 16.106 11.488Z" />
</svg>
