<svg viewBox="0 0 24 24" fill="currentColor" stroke="currentColor" xmlns="http://www.w3.org/2000/svg">
<path d="M17 3H7C5 3 4 4 4 6V18.621C4 19.445 4.94098 19.915 5.59998 19.421L6.95898 18.402C7.55598 17.954 8.39204 18.014 8.92004 18.541L10.939 20.56C11.525 21.146 12.4751 21.146 13.0601 20.56L15.079 18.541C15.607 18.013 16.443 17.954 17.04 18.402L18.399 19.421C19.058 19.915 19.999 19.445 19.999 18.621V6C20 4 19 3 17 3ZM13 13.75H8C7.586 13.75 7.25 13.414 7.25 13C7.25 12.586 7.586 12.25 8 12.25H13C13.414 12.25 13.75 12.586 13.75 13C13.75 13.414 13.414 13.75 13 13.75ZM16 9.75H8C7.586 9.75 7.25 9.414 7.25 9C7.25 8.586 7.586 8.25 8 8.25H16C16.414 8.25 16.75 8.586 16.75 9C16.75 9.414 16.414 9.75 16 9.75Z" />
</svg>
