<svg viewBox="0 0 24 24" fill="currentColor" stroke="currentColor" xmlns="http://www.w3.org/2000/svg">
<path d="M2.25 8V4.5C2.25 3.091 3.091 2.25 4.5 2.25H8C8.414 2.25 8.75 2.586 8.75 3C8.75 3.414 8.414 3.75 8 3.75H4.5C3.911 3.75 3.75 3.911 3.75 4.5V8C3.75 8.414 3.414 8.75 3 8.75C2.586 8.75 2.25 8.414 2.25 8ZM8 20.25H4.5C3.911 20.25 3.75 20.089 3.75 19.5V16C3.75 15.586 3.414 15.25 3 15.25C2.586 15.25 2.25 15.586 2.25 16V19.5C2.25 20.909 3.091 21.75 4.5 21.75H8C8.414 21.75 8.75 21.414 8.75 21C8.75 20.586 8.414 20.25 8 20.25ZM21 15.25C20.586 15.25 20.25 15.586 20.25 16V19.5C20.25 20.089 20.089 20.25 19.5 20.25H16C15.586 20.25 15.25 20.586 15.25 21C15.25 21.414 15.586 21.75 16 21.75H19.5C20.909 21.75 21.75 20.909 21.75 19.5V16C21.75 15.586 21.414 15.25 21 15.25ZM19.5 2.25H16C15.586 2.25 15.25 2.586 15.25 3C15.25 3.414 15.586 3.75 16 3.75H19.5C20.089 3.75 20.25 3.911 20.25 4.5V8C20.25 8.414 20.586 8.75 21 8.75C21.414 8.75 21.75 8.414 21.75 8V4.5C21.75 3.091 20.909 2.25 19.5 2.25ZM17.5 15.12V12.75H19C19.414 12.75 19.75 12.414 19.75 12C19.75 11.586 19.414 11.25 19 11.25H5C4.586 11.25 4.25 11.586 4.25 12C4.25 12.414 4.586 12.75 5 12.75H6.5V15.12C6.5 16.65 7.34 17.5 8.88 17.5H15.12C16.66 17.5 17.5 16.65 17.5 15.12ZM6.25 8.88V9C6.25 9.414 6.586 9.75 7 9.75C7.414 9.75 7.75 9.414 7.75 9V8.88C7.75 8.035 8.035 7.75 8.88 7.75H15.12C15.965 7.75 16.25 8.035 16.25 8.88V9C16.25 9.414 16.586 9.75 17 9.75C17.414 9.75 17.75 9.414 17.75 9V8.88C17.75 7.209 16.791 6.25 15.12 6.25H8.88C7.209 6.25 6.25 7.208 6.25 8.88Z" />
</svg>
