<svg viewBox="0 0 24 24" fill="currentColor" stroke="currentColor" xmlns="http://www.w3.org/2000/svg">
<path d="M8.75 21C8.75 21.414 8.414 21.75 8 21.75H4.5C3.091 21.75 2.25 20.909 2.25 19.5V16C2.25 15.586 2.586 15.25 3 15.25C3.414 15.25 3.75 15.586 3.75 16V19.5C3.75 20.089 3.911 20.25 4.5 20.25H8C8.414 20.25 8.75 20.586 8.75 21ZM3 8.75C3.414 8.75 3.75 8.414 3.75 8V4.5C3.75 3.911 3.911 3.75 4.5 3.75H8C8.414 3.75 8.75 3.414 8.75 3C8.75 2.586 8.414 2.25 8 2.25H4.5C3.091 2.25 2.25 3.091 2.25 4.5V8C2.25 8.414 2.586 8.75 3 8.75ZM19.5 2.25H16C15.586 2.25 15.25 2.586 15.25 3C15.25 3.414 15.586 3.75 16 3.75H19.5C20.089 3.75 20.25 3.911 20.25 4.5V8C20.25 8.414 20.586 8.75 21 8.75C21.414 8.75 21.75 8.414 21.75 8V4.5C21.75 3.091 20.909 2.25 19.5 2.25ZM21 15.25C20.586 15.25 20.25 15.586 20.25 16V19.5C20.25 20.089 20.089 20.25 19.5 20.25H16C15.586 20.25 15.25 20.586 15.25 21C15.25 21.414 15.586 21.75 16 21.75H19.5C20.909 21.75 21.75 20.909 21.75 19.5V16C21.75 15.586 21.414 15.25 21 15.25ZM13.75 11H16.25C16.75 11 17 10.75 17 10.25V7.75C17 7.25 16.75 7 16.25 7H13.75C13.25 7 13 7.25 13 7.75V10.25C13 10.75 13.25 11 13.75 11ZM10.25 13H7.75C7.25 13 7 13.25 7 13.75V16.25C7 16.75 7.25 17 7.75 17H10.25C10.75 17 11 16.75 11 16.25V13.75C11 13.25 10.75 13 10.25 13ZM17 16.25V13.75C17 13.25 16.75 13 16.25 13H13.75C13.25 13 13 13.25 13 13.75V16.25C13 16.75 13.25 17 13.75 17H16.25C16.75 17 17 16.75 17 16.25ZM10.25 7H7.75C7.25 7 7 7.25 7 7.75V10.25C7 10.75 7.25 11 7.75 11H10.25C10.75 11 11 10.75 11 10.25V7.75C11 7.25 10.75 7 10.25 7Z" />
</svg>
