<svg viewBox="0 0 24 24" fill="currentColor" stroke="currentColor" xmlns="http://www.w3.org/2000/svg">
<path d="M19.078 12H4.92297C4.74497 12 4.60602 12.154 4.62402 12.331L5.23999 18.3C5.39999 19.83 5.98998 21 8.22998 21H15.79C17.99 21 18.63 19.83 18.77 18.3L19.376 12.33C19.394 12.154 19.256 12 19.078 12ZM14.53 14.84L11.863 17.507C11.722 17.648 11.532 17.727 11.333 17.727C11.134 17.727 10.943 17.648 10.803 17.507L9.46997 16.174C9.17697 15.881 9.17697 15.406 9.46997 15.113C9.76297 14.82 10.238 14.821 10.531 15.113L11.334 15.916L13.4709 13.78C13.7639 13.487 14.239 13.487 14.532 13.78C14.825 14.073 14.823 14.547 14.53 14.84ZM21 9.00001C21 10.104 20.104 11 19 11H5C3.896 11 3 10.104 3 9.00001C3 7.89601 3.896 7.00001 5 7.00001H6.72803L9.37695 2.61201C9.59095 2.25801 10.052 2.14301 10.406 2.35801C10.76 2.57301 10.875 3.03301 10.66 3.38801L8.479 7.00001H15.53L13.374 3.38401C13.162 3.02901 13.278 2.56801 13.635 2.35601C13.99 2.14501 14.451 2.26001 14.663 2.61701L17.277 7.00101H19C20.104 7.00001 21 7.89601 21 9.00001Z" />
</svg>
