<svg viewBox="0 0 24 24" fill="currentColor" stroke="currentColor" xmlns="http://www.w3.org/2000/svg">
<path d="M21 9.00001C21 10.104 20.104 11 19 11H5C3.896 11 3 10.104 3 9.00001C3 7.89601 3.896 7.00001 5 7.00001H6.72803L9.37695 2.61201C9.59095 2.25801 10.052 2.14301 10.406 2.35801C10.76 2.57301 10.875 3.03301 10.66 3.38801L8.479 7.00001H15.53L13.374 3.38401C13.162 3.02901 13.278 2.56801 13.635 2.35601C13.99 2.14501 14.451 2.26001 14.663 2.61701L17.277 7.00101H19C20.104 7.00001 21 7.89601 21 9.00001ZM19.376 12.33L18.77 18.3C18.63 19.83 17.99 21 15.79 21H8.22998C5.98998 21 5.39999 19.83 5.23999 18.3L4.62402 12.331C4.60602 12.154 4.74497 12 4.92297 12H19.078C19.256 12 19.394 12.154 19.376 12.33ZM14.03 14.97L12.53 13.47C12.461 13.401 12.378 13.346 12.286 13.308C12.103 13.232 11.896 13.232 11.713 13.308C11.621 13.346 11.538 13.401 11.469 13.47L9.96899 14.97C9.67599 15.263 9.67599 15.738 9.96899 16.031C10.262 16.324 10.737 16.324 11.03 16.031L11.25 15.811V18C11.25 18.414 11.586 18.75 12 18.75C12.414 18.75 12.75 18.414 12.75 18V15.811L12.97 16.031C13.116 16.177 13.308 16.251 13.5 16.251C13.692 16.251 13.884 16.178 14.03 16.031C14.323 15.737 14.323 15.263 14.03 14.97Z" />
</svg>
