<svg viewBox="0 0 24 24" fill="currentColor" stroke="currentColor" xmlns="http://www.w3.org/2000/svg">
<path d="M19 19C19 20.105 18.104 21 17 21C15.896 21 15 20.105 15 19C15 17.895 15.896 17 17 17C18.104 17 19 17.895 19 19ZM7 17C5.896 17 5 17.895 5 19C5 20.105 5.896 21 7 21C8.104 21 9 20.105 9 19C9 17.895 8.104 17 7 17ZM21.75 13.58V16.5C21.75 17.22 21.41 17.85 20.89 18.26C20.83 18.31 20.72 18.36 20.65 18.36C20.53 18.36 20.42 18.3 20.39 18.17C20.03 16.64 18.64 15.5 17 15.5C15.24 15.5 13.791 16.799 13.54 18.489C13.518 18.637 13.4 18.75 13.25 18.75H10.75C10.6 18.75 10.482 18.637 10.46 18.489C10.21 16.799 8.76 15.5 7 15.5C5.36 15.5 3.96999 16.64 3.60999 18.17C3.57999 18.29 3.45996 18.37 3.32996 18.36C3.27996 18.36 3.15999 18.3 3.10999 18.26C2.58999 17.85 2.25 17.22 2.25 16.5V14.05C2.25 13.884 2.38405 13.75 2.55005 13.75H10C10.41 13.75 10.75 13.41 10.75 13C10.75 12.59 10.41 12.25 10 12.25H2.55005C2.38405 12.25 2.25 12.116 2.25 11.95V5.5C2.25 4.263 3.262 3.25 4.5 3.25H12.5C13.738 3.25 14.75 4.263 14.75 5.5V7.25H16.97C19.51 7.25 19.99 8.44999 20.45 9.60999L21.49 12.18C21.56 12.37 21.62 12.57 21.66 12.76C21.68 12.82 21.7 12.89 21.7 12.96C21.73 13.16 21.75 13.37 21.75 13.58ZM19.9 12.25L19.05 10.17C18.63 9.10998 18.49 8.75 16.97 8.75H14.75V12.25H19.9Z" />
</svg>
