<svg viewBox="0 0 24 24" fill="currentColor" stroke="currentColor" xmlns="http://www.w3.org/2000/svg">
<path d="M12.74 10.432C12.402 10.193 12.321 9.72499 12.559 9.38699L13.786 7.647C13.804 7.622 13.83 7.60799 13.85 7.58599C13.895 7.53599 13.939 7.484 13.996 7.447C14.163 7.34 14.367 7.30299 14.561 7.34599C14.662 7.36799 14.756 7.41 14.838 7.47L16.5601 8.68299C16.8981 8.92199 16.979 9.38999 16.741 9.72799C16.502 10.066 16.035 10.148 15.695 9.90899L15.454 9.73899L15.833 11.887C15.905 12.295 15.633 12.684 15.225 12.756C15.181 12.764 15.137 12.768 15.094 12.768C14.737 12.768 14.4201 12.512 14.3571 12.148L13.975 9.983L13.787 10.25C13.641 10.457 13.409 10.567 13.173 10.567C13.022 10.568 12.872 10.524 12.74 10.432ZM8.834 9.218C8.614 7.973 8.76603 6.99899 9.29603 6.24099C9.82703 5.48199 10.692 5.007 11.937 4.787L15.5711 4.14599C18.0331 3.71099 19.567 4.78499 20.001 7.24899L20.642 10.883C20.862 12.128 20.71 13.102 20.179 13.861C19.649 14.619 18.784 15.094 17.539 15.314L13.905 15.955C13.549 16.018 13.211 16.05 12.893 16.05C11.02 16.05 9.84599 14.96 9.47499 12.853L8.834 9.218ZM10.311 8.95799L10.952 12.592C11.243 14.238 11.996 14.767 13.645 14.478L17.2791 13.837C18.1121 13.69 18.659 13.417 18.95 13.001C19.241 12.585 19.3111 11.978 19.1651 11.145L18.5241 7.511C18.2831 6.147 17.724 5.54899 16.603 5.54899C16.371 5.54899 16.1141 5.57499 15.8311 5.62499L12.197 6.266C11.364 6.413 10.817 6.68699 10.526 7.10299C10.234 7.51699 10.164 8.12499 10.311 8.95799ZM21.738 16.65C21.81 17.058 21.538 17.447 21.13 17.519L10.714 19.352C10.539 20.701 9.39601 21.75 8.00001 21.75C6.48301 21.75 5.25001 20.517 5.25001 19C5.25001 17.76 6.07997 16.721 7.20997 16.379L5.17201 4.77999C5.05301 4.10299 4.40101 3.652 3.71901 3.768L3.12501 3.869C2.72001 3.936 2.329 3.663 2.261 3.255C2.192 2.846 2.46601 2.45899 2.87501 2.38999L3.46498 2.28999C4.94198 2.03099 6.38606 3.02999 6.64906 4.51899L8.72902 16.359C9.51802 16.578 10.165 17.132 10.499 17.866L20.87 16.04C21.279 15.969 21.668 16.242 21.738 16.65ZM9.25001 19C9.25001 18.311 8.68901 17.75 8.00001 17.75C7.31101 17.75 6.75001 18.311 6.75001 19C6.75001 19.689 7.31101 20.25 8.00001 20.25C8.68901 20.25 9.25001 19.689 9.25001 19Z" />
</svg>
