<svg viewBox="0 0 24 24" fill="currentColor" stroke="currentColor" xmlns="http://www.w3.org/2000/svg">
<path d="M14 21.75C13.841 21.75 13.683 21.699 13.55 21.6L9.55005 18.6C9.36205 18.458 9.25 18.236 9.25 18V14C9.25 13.8 9.17203 13.611 9.03003 13.469L3.90906 8.34799C3.48406 7.92199 3.25 7.35799 3.25 6.75699V4.5C3.25 3.259 4.26 2.25 5.5 2.25H18.5C19.74 2.25 20.75 3.259 20.75 4.5V6.75699C20.75 7.35799 20.5159 7.92299 20.0909 8.34799L14.97 13.469C14.828 13.611 14.75 13.799 14.75 14V21C14.75 21.284 14.59 21.544 14.335 21.671C14.229 21.724 14.114 21.75 14 21.75ZM10.75 17.625L13.25 19.5V14C13.25 13.399 13.4841 12.834 13.9091 12.409L19.03 7.28799C19.172 7.14599 19.25 6.95799 19.25 6.75699V4.5C19.25 4.086 18.913 3.75 18.5 3.75H5.5C5.087 3.75 4.75 4.086 4.75 4.5V6.75699C4.75 6.95699 4.82797 7.14599 4.96997 7.28799L10.0909 12.409C10.5159 12.835 10.75 13.399 10.75 14V17.625Z" />
</svg>
