<svg viewBox="0 0 24 24" fill="currentColor" stroke="currentColor" xmlns="http://www.w3.org/2000/svg">
<path d="M19.5 6.25H18.4351C18.6291 5.873 18.75 5.452 18.75 5C18.75 3.484 17.517 2.25 16 2.25C15.178 2.25 14.405 2.61599 13.874 3.26099C13.847 3.29499 12.723 4.78898 12 5.75098C11.276 4.78798 10.151 3.29199 10.119 3.25299C9.59502 2.61499 8.822 2.25 8 2.25C6.483 2.25 5.25 3.484 5.25 5C5.25 5.452 5.36994 5.873 5.56494 6.25H4.5C3.26 6.25 2.25 7.259 2.25 8.5V12C2.25 12.414 2.586 12.75 3 12.75H3.25V18C3.25 20.418 4.582 21.75 7 21.75H17C19.418 21.75 20.75 20.418 20.75 18V12.75H21C21.414 12.75 21.75 12.414 21.75 12V8.5C21.75 7.259 20.74 6.25 19.5 6.25ZM20.25 8.5V11.25H12.75V7.75H16H19.5C19.913 7.75 20.25 8.086 20.25 8.5ZM15.0389 4.20697C15.2809 3.91297 15.622 3.75 16 3.75C16.689 3.75 17.25 4.311 17.25 5C17.25 5.689 16.689 6.25 16 6.25H13.502C14.177 5.352 14.9919 4.26797 15.0389 4.20697ZM6.75 5C6.75 4.311 7.311 3.75 8 3.75C8.378 3.75 8.719 3.91198 8.948 4.19098C9.003 4.26198 9.82105 5.35 10.498 6.25H8C7.311 6.25 6.75 5.689 6.75 5ZM3.75 8.5C3.75 8.086 4.087 7.75 4.5 7.75H8H11.25V11.25H3.75V8.5ZM4.75 18V12.75H11.25V20.25H7C5.423 20.25 4.75 19.577 4.75 18ZM19.25 18C19.25 19.577 18.577 20.25 17 20.25H12.75V12.75H19.25V18Z" />
</svg>
