<svg viewBox="0 0 24 24" fill="currentColor" stroke="currentColor" xmlns="http://www.w3.org/2000/svg">
<path d="M21.657 2.63901C21.525 2.39901 21.273 2.25 21 2.25H16C15.743 2.25 15.505 2.38099 15.367 2.59799L12.397 7.26999C12.265 7.26299 12.134 7.25 12 7.25C11.866 7.25 11.735 7.26299 11.603 7.26999L8.63308 2.59799C8.49508 2.38099 8.25702 2.25 8.00002 2.25H3.00002C2.72702 2.25 2.47504 2.39901 2.34304 2.63901C2.21104 2.87901 2.22097 3.17101 2.36697 3.40201L6.45608 9.83801C5.39308 11.1 4.75002 12.725 4.75002 14.5C4.75002 18.498 8.00202 21.75 12 21.75C15.998 21.75 19.25 18.498 19.25 14.5C19.25 12.725 18.607 11.1 17.544 9.83801L21.6331 3.40201C21.7791 3.17101 21.789 2.87901 21.657 2.63901ZM7.58803 3.75L9.99599 7.53799C9.10099 7.79599 8.27806 8.22201 7.56106 8.78101L4.36599 3.75H7.58803ZM12 20.25C8.82902 20.25 6.25002 17.671 6.25002 14.5C6.25002 11.329 8.82902 8.75 12 8.75C15.171 8.75 17.75 11.329 17.75 14.5C17.75 17.671 15.171 20.25 12 20.25ZM16.439 8.78101C15.722 8.22301 14.899 7.79599 14.0041 7.53799L16.412 3.75H19.635L16.439 8.78101ZM14.8211 12.827L13.543 12.642L12.9931 11.533C12.8051 11.153 12.425 10.917 12 10.917C11.575 10.917 11.1951 11.153 11.0081 11.532L10.4571 12.642L9.17898 12.827C8.76798 12.886 8.43198 13.169 8.30398 13.565C8.17498 13.96 8.281 14.386 8.579 14.676L9.50198 15.571L9.29201 16.786C9.22001 17.204 9.387 17.619 9.73 17.869C10.073 18.119 10.519 18.154 10.898 17.956L12.001 17.379L13.104 17.956C13.267 18.041 13.444 18.084 13.62 18.084C13.849 18.084 14.077 18.012 14.271 17.87C14.615 17.62 14.782 17.205 14.709 16.789L14.499 15.571L15.422 14.675C15.721 14.385 15.826 13.96 15.697 13.564C15.568 13.169 15.2321 12.886 14.8211 12.827ZM11.648 12.198C11.648 12.198 11.648 12.199 11.648 12.198V12.198ZM13.297 14.647C13.039 14.896 12.9221 15.255 12.9831 15.608L13.095 16.258L12.5031 15.948C12.1891 15.784 11.812 15.784 11.497 15.948L10.9051 16.258L11.017 15.607C11.078 15.255 10.96 14.895 10.704 14.647L10.2321 14.19L10.886 14.095C11.239 14.045 11.544 13.824 11.703 13.504L11.999 12.907L12.2951 13.504C12.4541 13.823 12.76 14.044 13.111 14.094L13.766 14.189L13.297 14.647Z" />
</svg>
