<svg viewBox="0 0 24 24" fill="currentColor" stroke="currentColor" xmlns="http://www.w3.org/2000/svg">
<path d="M19.782 3.81298C19.187 3.51398 18.484 3.57799 17.95 3.97799L16.592 4.99701C16.295 5.21901 15.873 5.19001 15.611 4.928L13.5909 2.90799C12.7139 2.03199 11.2861 2.03099 10.4091 2.90799L8.38904 4.927C8.12604 5.19 7.70306 5.21901 7.40906 4.99701L6.05005 3.97699C5.51505 3.57699 4.81302 3.51301 4.21802 3.81201C3.62102 4.11001 3.25 4.71001 3.25 5.37701V18.62C3.25 19.287 3.62102 19.887 4.21802 20.185C4.81302 20.483 5.51505 20.42 6.05005 20.02L7.40796 19.001C7.70496 18.779 8.12704 18.808 8.38904 19.07L10.4091 21.089C10.8471 21.528 11.424 21.747 12 21.747C12.576 21.747 13.1519 21.528 13.5909 21.089L15.611 19.07C15.874 18.808 16.2969 18.778 16.5909 19L17.95 20.02C18.484 20.42 19.187 20.483 19.782 20.185C20.379 19.887 20.75 19.287 20.75 18.62V5.37701C20.75 4.71101 20.379 4.11198 19.782 3.81298ZM19.25 18.621C19.25 18.756 19.1631 18.819 19.1121 18.845C19.0601 18.871 18.959 18.903 18.85 18.821L17.49 17.801C16.602 17.135 15.337 17.224 14.55 18.01L12.53 20.029C12.247 20.312 11.753 20.312 11.469 20.029L9.44897 18.009C9.01497 17.576 8.43598 17.354 7.85498 17.354C7.38098 17.354 6.90696 17.501 6.50696 17.8L5.14795 18.82C5.03995 18.902 4.93899 18.869 4.88599 18.844C4.83499 18.818 4.74805 18.755 4.74805 18.62V5.37701C4.74805 5.24201 4.83499 5.17901 4.88599 5.15301C4.93899 5.12701 5.03895 5.095 5.14795 5.177L6.50806 6.19699C7.39606 6.86299 8.661 6.774 9.448 5.988L11.468 3.96899C11.761 3.67699 12.2361 3.67699 12.5291 3.96899L14.549 5.98901C15.337 6.77601 16.602 6.86399 17.49 6.19799L18.849 5.178C18.957 5.096 19.059 5.12799 19.111 5.15399C19.162 5.17999 19.249 5.24299 19.249 5.37799V18.621H19.25ZM16.75 10C16.75 10.414 16.414 10.75 16 10.75H11C10.586 10.75 10.25 10.414 10.25 10C10.25 9.586 10.586 9.25 11 9.25H16C16.414 9.25 16.75 9.586 16.75 10ZM16.75 14C16.75 14.414 16.414 14.75 16 14.75H11C10.586 14.75 10.25 14.414 10.25 14C10.25 13.586 10.586 13.25 11 13.25H16C16.414 13.25 16.75 13.586 16.75 14ZM8.75 10C8.75 10.414 8.414 10.75 8 10.75C7.586 10.75 7.25 10.414 7.25 10C7.25 9.586 7.586 9.25 8 9.25C8.414 9.25 8.75 9.586 8.75 10ZM8.75 14C8.75 14.414 8.414 14.75 8 14.75C7.586 14.75 7.25 14.414 7.25 14C7.25 13.586 7.586 13.25 8 13.25C8.414 13.25 8.75 13.586 8.75 14Z" />
</svg>
