<svg viewBox="0 0 24 24" fill="currentColor" stroke="currentColor" xmlns="http://www.w3.org/2000/svg">
<path d="M17 2.25H7C4.582 2.25 3.25 3.582 3.25 6V18.621C3.25 19.288 3.62102 19.888 4.21802 20.186C4.81302 20.484 5.51605 20.421 6.05005 20.021L7.40796 19.002C7.70496 18.78 8.12704 18.809 8.38904 19.071L10.4091 21.09C10.8471 21.529 11.424 21.748 12 21.748C12.576 21.748 13.1519 21.529 13.5909 21.09L15.611 19.071C15.874 18.809 16.2969 18.779 16.5909 19.001L17.95 20.021C18.484 20.421 19.186 20.484 19.782 20.186C20.379 19.888 20.75 19.288 20.75 18.621V6C20.75 3.582 19.418 2.25 17 2.25ZM19.25 18.621C19.25 18.756 19.1631 18.819 19.1121 18.845C19.0591 18.871 18.959 18.903 18.85 18.821L17.49 17.801C16.603 17.135 15.336 17.224 14.55 18.01L12.53 20.029C12.247 20.312 11.753 20.312 11.469 20.029L9.44897 18.009C9.01497 17.576 8.43598 17.354 7.85498 17.354C7.38098 17.354 6.90696 17.501 6.50696 17.8L5.14795 18.82C5.04095 18.902 4.93899 18.869 4.88599 18.844C4.83499 18.818 4.74805 18.755 4.74805 18.62V6C4.74805 4.423 5.42105 3.75 6.99805 3.75H16.998C18.575 3.75 19.248 4.423 19.248 6V18.621H19.25ZM15.03 9.03L10.03 14.03C9.88403 14.176 9.692 14.25 9.5 14.25C9.308 14.25 9.11597 14.177 8.96997 14.03C8.67697 13.737 8.67697 13.262 8.96997 12.969L13.97 7.96899C14.263 7.67599 14.738 7.67599 15.031 7.96899C15.323 8.26199 15.323 8.738 15.03 9.03ZM8.51501 8.5C8.51501 7.948 8.95801 7.5 9.51001 7.5H9.52002C10.073 7.5 10.52 7.948 10.52 8.5C10.52 9.052 10.073 9.5 9.52002 9.5C8.96802 9.5 8.51501 9.052 8.51501 8.5ZM15.52 13.5C15.52 14.052 15.073 14.5 14.52 14.5C13.968 14.5 13.515 14.052 13.515 13.5C13.515 12.948 13.958 12.5 14.51 12.5H14.52C15.072 12.5 15.52 12.948 15.52 13.5Z" />
</svg>
