<svg viewBox="0 0 24 24" fill="currentColor" stroke="currentColor" xmlns="http://www.w3.org/2000/svg">
<path d="M21.75 9C21.75 7.483 20.517 6.25 19 6.25H16.827L14.6639 2.616C14.4519 2.261 13.992 2.142 13.636 2.355C13.281 2.567 13.163 3.027 13.375 3.383L15.0811 6.24899H8.93005L10.661 3.387C10.876 3.033 10.762 2.572 10.408 2.357C10.051 2.142 9.59205 2.256 9.37805 2.61L7.177 6.248H5C3.483 6.248 2.25 7.481 2.25 8.998C2.25 10.087 2.89101 11.022 3.81201 11.467L4.50195 18.371C4.72895 20.643 5.94903 21.748 8.23303 21.748H15.803C18.087 21.748 19.3081 20.644 19.5341 18.371L20.226 11.446C21.126 10.995 21.75 10.073 21.75 9ZM5 7.75H19C19.689 7.75 20.25 8.311 20.25 9C20.25 9.689 19.689 10.25 19 10.25H5C4.311 10.25 3.75 9.689 3.75 9C3.75 8.311 4.311 7.75 5 7.75ZM18.043 18.224C17.914 19.507 17.507 20.25 15.804 20.25H8.23401C6.52201 20.25 6.127 19.538 5.995 18.224L5.34802 11.75H18.691L18.043 18.224ZM14.53 13.779C14.823 14.072 14.823 14.547 14.53 14.84L11.863 17.507C11.722 17.648 11.532 17.727 11.333 17.727C11.134 17.727 10.943 17.648 10.803 17.507L9.46997 16.174C9.17697 15.881 9.17697 15.406 9.46997 15.113C9.76297 14.82 10.238 14.821 10.531 15.113L11.334 15.916L13.4709 13.78C13.7629 13.486 14.237 13.486 14.53 13.779Z" />
</svg>
