<svg viewBox="0 0 24 24" fill="currentColor" stroke="currentColor" xmlns="http://www.w3.org/2000/svg">
<path d="M21.75 9C21.75 7.483 20.517 6.25 19 6.25H16.885L14.714 2.615C14.502 2.261 14.045 2.143 13.686 2.356C13.331 2.568 13.214 3.029 13.427 3.384L15.139 6.24899H8.98804L10.713 3.386C10.927 3.032 10.813 2.57099 10.457 2.35699C10.101 2.14299 9.64098 2.258 9.42798 2.613L7.23706 6.25H5C3.483 6.25 2.25 7.483 2.25 9C2.25 10.089 2.89101 11.024 3.81201 11.469L4.50195 18.373C4.72895 20.645 5.94903 21.75 8.23303 21.75H15.803C18.087 21.75 19.3081 20.646 19.5341 18.373L20.226 11.448C21.126 10.995 21.75 10.073 21.75 9ZM5 7.75H19C19.689 7.75 20.25 8.311 20.25 9C20.25 9.689 19.689 10.25 19 10.25H5C4.311 10.25 3.75 9.689 3.75 9C3.75 8.311 4.311 7.75 5 7.75ZM18.043 18.224C17.914 19.507 17.507 20.25 15.804 20.25H8.23401C6.52201 20.25 6.127 19.538 5.995 18.224L5.34802 11.75H18.691L18.043 18.224ZM14.75 16C14.75 16.414 14.414 16.75 14 16.75H10C9.586 16.75 9.25 16.414 9.25 16C9.25 15.586 9.586 15.25 10 15.25H14C14.414 15.25 14.75 15.586 14.75 16Z" />
</svg>
