<svg viewBox="0 0 24 24" fill="currentColor" stroke="currentColor" xmlns="http://www.w3.org/2000/svg">
<path d="M10.27 21C10.27 21.69 9.71002 22.25 9.02002 22.25C8.33102 22.25 7.76501 21.69 7.76501 21C7.76501 20.31 8.32001 19.75 9.01001 19.75H9.02002C9.71002 19.75 10.27 20.31 10.27 21ZM17.02 19.75H17.01C16.32 19.75 15.765 20.31 15.765 21C15.765 21.69 16.33 22.25 17.02 22.25C17.71 22.25 18.27 21.69 18.27 21C18.27 20.31 17.71 19.75 17.02 19.75ZM21.705 8.492L20.691 14.658C20.428 16.104 19.774 17.75 17 17.75H8.73401C7.37501 17.75 6.20396 16.735 6.01196 15.389L4.50195 4.82401C4.41395 4.21201 3.88301 3.75101 3.26501 3.75101H3C2.586 3.75101 2.25 3.41501 2.25 3.00101C2.25 2.58701 2.586 2.25101 3 2.25101H3.26599C4.62499 2.25101 5.79604 3.266 5.98804 4.612L6.07996 5.25101H19C19.818 5.25101 20.5881 5.611 21.1121 6.239C21.6351 6.866 21.852 7.688 21.705 8.492ZM19.959 7.19901C19.721 6.91401 19.371 6.75 18.999 6.75H6.29297L7.49695 15.177C7.58495 15.789 8.11601 16.25 8.73401 16.25H17C18.597 16.25 18.986 15.654 19.213 14.403L20.2271 8.23599C20.2961 7.85799 20.197 7.484 19.959 7.19901ZM17.196 10.565C17.325 10.96 17.219 11.386 16.921 11.676L15.998 12.572L16.208 13.789C16.28 14.205 16.113 14.62 15.77 14.87C15.576 15.012 15.348 15.084 15.119 15.084C14.943 15.084 14.766 15.042 14.603 14.956L13.5 14.379L12.397 14.956C12.019 15.153 11.571 15.118 11.229 14.869C10.886 14.619 10.719 14.204 10.791 13.786L11.001 12.571L10.078 11.675C9.779 11.385 9.67398 10.959 9.80298 10.564C9.93098 10.168 10.267 9.886 10.678 9.826L11.9561 9.64L12.507 8.53101C12.695 8.15201 13.074 7.91499 13.499 7.91499C13.924 7.91499 14.3039 8.151 14.4919 8.532L15.042 9.64L16.3199 9.826C16.7319 9.887 17.068 10.169 17.196 10.565ZM15.2679 11.19L14.613 11.095C14.261 11.045 13.956 10.824 13.797 10.504L13.501 9.907L13.205 10.504C13.046 10.824 12.7399 11.045 12.3879 11.096L11.734 11.191L12.2061 11.648C12.4631 11.897 12.58 12.256 12.519 12.608L12.407 13.259L12.999 12.949C13.314 12.785 13.6891 12.785 14.0031 12.948L14.597 13.259L14.485 12.609C14.424 12.256 14.542 11.897 14.799 11.648L15.2679 11.19Z" />
</svg>
