<svg viewBox="0 0 24 24" fill="currentColor" stroke="currentColor" xmlns="http://www.w3.org/2000/svg">
<path d="M10.27 21C10.27 21.69 9.71002 22.25 9.02002 22.25C8.33102 22.25 7.76501 21.69 7.76501 21C7.76501 20.31 8.32001 19.75 9.01001 19.75H9.02002C9.71002 19.75 10.27 20.31 10.27 21ZM17.02 19.75H17.01C16.32 19.75 15.765 20.31 15.765 21C15.765 21.69 16.33 22.25 17.02 22.25C17.71 22.25 18.27 21.69 18.27 21C18.27 20.31 17.71 19.75 17.02 19.75ZM21.705 8.492L20.691 14.658C20.428 16.104 19.774 17.75 17 17.75H8.73401C7.37501 17.75 6.20396 16.735 6.01196 15.389L4.50195 4.82401C4.41395 4.21201 3.88301 3.75101 3.26501 3.75101H3C2.586 3.75101 2.25 3.41501 2.25 3.00101C2.25 2.58701 2.586 2.25101 3 2.25101H3.26599C4.62499 2.25101 5.79604 3.266 5.98804 4.612L6.07996 5.25101H19C19.818 5.25101 20.5881 5.611 21.1121 6.239C21.6351 6.866 21.852 7.688 21.705 8.492ZM19.959 7.19901C19.721 6.91401 19.371 6.75 18.999 6.75H6.29297L7.49695 15.177C7.58495 15.789 8.11601 16.25 8.73401 16.25H17C18.597 16.25 18.986 15.654 19.213 14.403L20.2271 8.23599C20.2961 7.85799 20.197 7.484 19.959 7.19901ZM16.649 8.74699C17.176 9.38899 17.37 10.319 17.179 11.298C16.72 13.667 13.9291 14.962 13.8101 15.016C13.7111 15.061 13.606 15.083 13.499 15.083C13.392 15.083 13.287 15.061 13.188 15.016C13.069 14.962 10.278 13.667 9.81897 11.298C9.62997 10.319 9.82298 9.38999 10.35 8.74699C10.792 8.20699 11.421 7.92001 12.168 7.91701C12.172 7.91701 12.1761 7.91701 12.1801 7.91701C12.7371 7.91701 13.172 8.119 13.498 8.392C13.824 8.12 14.26 7.91701 14.816 7.91701C14.82 7.91701 14.824 7.91701 14.828 7.91701C15.578 7.92001 16.207 8.20699 16.649 8.74699ZM15.49 9.698C15.336 9.51 15.117 9.41801 14.822 9.41701C14.821 9.41701 14.82 9.41701 14.819 9.41701C14.384 9.41701 14.213 9.895 14.212 9.899C14.109 10.206 13.823 10.413 13.5 10.413C13.177 10.413 12.891 10.206 12.788 9.899C12.773 9.858 12.6 9.41701 12.181 9.41701C12.18 9.41701 12.179 9.41701 12.178 9.41701C11.884 9.41801 11.665 9.51 11.511 9.698C11.276 9.986 11.192 10.489 11.293 11.011C11.53 12.238 12.882 13.134 13.501 13.486C14.122 13.136 15.468 12.246 15.707 11.012C15.707 11.012 15.707 11.012 15.707 11.011C15.809 10.489 15.726 9.985 15.49 9.698Z" />
</svg>
