<svg viewBox="0 0 24 24" fill="currentColor" stroke="currentColor" xmlns="http://www.w3.org/2000/svg">
<path d="M20 6.75H4C3.586 6.75 3.25 6.414 3.25 6C3.25 5.586 3.586 5.25 4 5.25H20C20.414 5.25 20.75 5.586 20.75 6C20.75 6.414 20.414 6.75 20 6.75ZM17.75 12C17.75 11.586 17.414 11.25 17 11.25H7C6.586 11.25 6.25 11.586 6.25 12C6.25 12.414 6.586 12.75 7 12.75H17C17.414 12.75 17.75 12.414 17.75 12ZM14.75 18C14.75 17.586 14.414 17.25 14 17.25H10C9.586 17.25 9.25 17.586 9.25 18C9.25 18.414 9.586 18.75 10 18.75H14C14.414 18.75 14.75 18.414 14.75 18Z" />
</svg>
