<svg viewBox="0 0 24 24" fill="currentColor" stroke="currentColor" xmlns="http://www.w3.org/2000/svg">
<path d="M21.697 13.014C21.697 13.009 21.7 13.005 21.7 13C21.7 12.986 21.693 12.975 21.692 12.961C21.681 12.893 21.666 12.825 21.651 12.757C21.644 12.737 21.642 12.716 21.634 12.697C21.593 12.523 21.551 12.349 21.485 12.178L20.447 9.61401C19.988 8.45101 19.513 7.24902 16.969 7.24902H14.749V5.49902C14.749 4.25802 13.739 3.24902 12.499 3.24902H4.49902C3.25902 3.24902 2.24902 4.25802 2.24902 5.49902V16.499C2.24902 17.664 3.14198 18.613 4.27698 18.727C4.26798 18.818 4.24902 18.906 4.24902 18.999C4.24902 20.515 5.48202 21.749 6.99902 21.749C8.51602 21.749 9.74902 20.515 9.74902 18.999C9.74902 18.913 9.731 18.832 9.724 18.749H14.275C14.267 18.832 14.25 18.913 14.25 18.999C14.25 20.515 15.483 21.749 17 21.749C18.517 21.749 19.75 20.515 19.75 18.999C19.75 18.906 19.732 18.817 19.722 18.727C20.857 18.613 21.75 17.664 21.75 16.499V13.579C21.75 13.39 21.725 13.202 21.697 13.014ZM16.97 8.75C18.493 8.75 18.6351 9.10702 19.0551 10.171L19.896 12.25H14.75V8.75H16.97ZM7 20.25C6.311 20.25 5.75 19.689 5.75 19C5.75 18.311 6.311 17.75 7 17.75C7.689 17.75 8.25 18.311 8.25 19C8.25 19.689 7.689 20.25 7 20.25ZM17 20.25C16.311 20.25 15.75 19.689 15.75 19C15.75 18.311 16.311 17.75 17 17.75C17.689 17.75 18.25 18.311 18.25 19C18.25 19.689 17.689 20.25 17 20.25ZM19.5 17.25H19.104C18.599 16.644 17.849 16.25 17 16.25C16.151 16.25 15.401 16.644 14.896 17.25H9.10303C8.59803 16.644 7.84802 16.25 6.99902 16.25C6.15002 16.25 5.40002 16.644 4.89502 17.25H4.49902C4.08602 17.25 3.74902 16.914 3.74902 16.5V13.75H9.99902C10.413 13.75 10.749 13.414 10.749 13C10.749 12.586 10.413 12.25 9.99902 12.25H3.74902V5.5C3.74902 5.086 4.08602 4.75 4.49902 4.75H12.499C12.912 4.75 13.249 5.086 13.249 5.5V13.75H20.249V16.5C20.25 16.914 19.913 17.25 19.5 17.25Z" />
</svg>
