<svg viewBox="0 0 24 24" fill="currentColor" stroke="currentColor" xmlns="http://www.w3.org/2000/svg">
<path d="M21.5 5.71996C21.54 4.85996 21.2099 4.00995 20.5999 3.39995C19.9899 2.78995 19.15 2.44996 18.28 2.49996C17.42 2.53996 16.61 2.94996 16.06 3.60996L8.09 13.08L4.68998 17.12C4.11998 16.9 3.43995 17.02 2.97995 17.48C2.35995 18.1 2.35995 19.12 2.97995 19.74L4.25998 21.0199C4.56998 21.3299 4.97999 21.4899 5.38999 21.4899C5.79999 21.4899 6.20999 21.3299 6.51999 21.0199C6.97999 20.5599 7.09998 19.88 6.87998 19.31L10.93 15.9L20.4 7.92995C21.07 7.37995 21.47 6.56996 21.51 5.70996L21.5 5.71996ZM5.47995 17.75L8.47995 14.19L9.82999 15.54L6.26999 18.5399L5.48996 17.76L5.47995 17.75ZM5.79996 20.3299C5.56996 20.5599 5.19 20.5599 4.96 20.3299L3.67997 19.05C3.44997 18.82 3.44997 18.44 3.67997 18.21C3.79997 18.09 3.94995 18.04 4.09995 18.04C4.24995 18.04 4.40999 18.1 4.51999 18.21L5.79996 19.49C6.02996 19.72 6.02996 20.0999 5.79996 20.3299ZM10.59 14.89L9.11997 13.42L16.83 4.25995C17.21 3.79995 17.74 3.53995 18.33 3.50995C18.93 3.47995 19.48 3.69996 19.89 4.10996C20.3 4.51996 20.52 5.07996 20.49 5.66996C20.46 6.25996 20.2 6.78996 19.74 7.16996L10.58 14.88L10.59 14.89ZM6.49997 8.50995C8.14997 8.50995 9.49997 7.15995 9.49997 5.50995C9.49997 3.85995 8.14997 2.50995 6.49997 2.50995C4.84997 2.50995 3.49997 3.85995 3.49997 5.50995C3.49997 7.15995 4.84997 8.50995 6.49997 8.50995ZM6.49997 3.50995C7.59997 3.50995 8.49997 4.40995 8.49997 5.50995C8.49997 6.60995 7.59997 7.50995 6.49997 7.50995C5.39997 7.50995 4.49997 6.60995 4.49997 5.50995C4.49997 4.40995 5.39997 3.50995 6.49997 3.50995Z" />
</svg>
