<svg viewBox="0 0 24 24" fill="currentColor" stroke="currentColor" xmlns="http://www.w3.org/2000/svg">
<path d="M12 1.5C6.21 1.5 1.5 6.21 1.5 12C1.5 17.79 6.21 22.5 12 22.5C17.79 22.5 22.5 17.79 22.5 12C22.5 6.21 17.79 1.5 12 1.5ZM12.47 21.48C12.47 21.32 12.5 21.16 12.5 21C12.5 20.22 12.4 19.45 12.22 18.7C12.15 18.43 11.88 18.27 11.61 18.34C11.34 18.4 11.18 18.67 11.25 18.94C11.42 19.61 11.5 20.3 11.5 21C11.5 21.16 11.48 21.32 11.47 21.47C6.66 21.2 2.8 17.35 2.53 12.53C3.3 12.49 4.07 12.53 4.81 12.68C5.08 12.75 5.35 12.57 5.41 12.3C5.47 12.03 5.28999 11.77 5.01999 11.71C4.20999 11.53 3.35999 11.47 2.51999 11.51C2.76999 6.64999 6.66999 2.76 11.52 2.52C11.52 2.68 11.49 2.84 11.49 3C11.49 3.78 11.59 4.55 11.77 5.3C11.83 5.53 12.03 5.67999 12.26 5.67999C12.3 5.67999 12.34 5.67 12.38 5.66C12.65 5.6 12.81 5.33 12.74 5.06C12.57 4.39 12.49 3.7 12.49 3C12.49 2.84 12.51 2.68 12.52 2.53C17.33 2.8 21.19 6.65 21.46 11.47C20.69 11.51 19.92 11.47 19.18 11.32C18.91 11.25 18.64 11.43 18.58 11.7C18.52 11.97 18.7 12.23 18.97 12.29C19.63 12.44 20.31 12.51 20.99 12.51C21.15 12.51 21.31 12.49 21.47 12.49C21.23 17.35 17.33 21.25 12.47 21.49V21.48ZM16.74 10.94C16.64 11.09 16.48 11.18 16.31 11.18C16.22 11.18 16.13 11.15 16.05 11.1C15.45 10.74 14.89 10.3 14.39 9.81C14.38 9.81 14.38 9.8 14.37 9.8L14.29 9.71001C13.82 9.25001 13.41 8.73 13.05 8.19C12.9 7.96 12.96 7.65001 13.19 7.49001C13.42 7.34001 13.73 7.41 13.89 7.64C14.21 8.13 14.58 8.58999 14.99 9.00999L15.08 9.09C15.08 9.09 15.09 9.09 15.1 9.11C15.55 9.54 16.04 9.93 16.57 10.25C16.81 10.4 16.88 10.7 16.74 10.94ZM10.95 15.81C11.1 16.04 11.04 16.35 10.81 16.51C10.72 16.56 10.63 16.59 10.53 16.59C10.37 16.59 10.21 16.51 10.11 16.36C9.78999 15.87 9.42001 15.41 9.01001 14.99L8.92001 14.91C8.92001 14.91 8.90999 14.91 8.89999 14.89C8.44999 14.46 7.95999 14.07 7.42999 13.75C7.18999 13.6 7.12001 13.3 7.26001 13.06C7.41001 12.83 7.71001 12.75 7.95001 12.9C8.55001 13.26 9.10999 13.7 9.60999 14.19C9.61999 14.19 9.62 14.2 9.63 14.2L9.70999 14.29C10.18 14.75 10.59 15.27 10.95 15.81Z" />
</svg>
