<svg viewBox="0 0 24 24" fill="currentColor" stroke="currentColor" xmlns="http://www.w3.org/2000/svg">
<path d="M19.44 19.4C21.33 17.5 22.5 14.89 22.5 12C22.5 9.10998 21.33 6.49999 19.44 4.59999C19.44 4.59999 19.43 4.57999 19.42 4.56999C19.41 4.55999 19.4 4.55999 19.39 4.54999C17.49 2.65999 14.88 1.48999 11.99 1.48999C9.10001 1.48999 6.49 2.65999 4.59 4.54999C4.59 4.54999 4.57 4.55999 4.56 4.56999C4.55 4.57999 4.54999 4.58999 4.53999 4.59999C2.64999 6.49999 1.48 9.10998 1.48 12C1.48 14.89 2.64999 17.5 4.53999 19.4C4.53999 19.4 4.55 19.42 4.56 19.43C4.57 19.44 4.58 19.44 4.59 19.45C6.49 21.34 9.10001 22.51 11.99 22.51C14.88 22.51 17.49 21.34 19.39 19.45C19.39 19.45 19.41 19.44 19.42 19.43C19.43 19.42 19.43 19.41 19.44 19.4ZM2.52 12.53C4.75 12.65 6.78 13.55 8.34 14.95L4.94 18.35C3.53 16.79 2.64 14.76 2.52 12.53ZM4.94 5.65999L11.28 12L9.03999 14.24C7.29999 12.65 5.01999 11.65 2.50999 11.52C2.61999 9.26999 3.51999 7.21998 4.92999 5.64998L4.94 5.65999ZM21.46 11.48C19.23 11.36 17.2 10.46 15.64 9.05998L19.04 5.65999C20.45 7.21999 21.34 9.24998 21.46 11.48ZM14.94 8.34999C13.53 6.78999 12.64 4.75998 12.52 2.52998C14.75 2.64998 16.78 3.54998 18.34 4.94998L14.94 8.34999ZM14.23 9.05998L11.99 11.3L5.64999 4.95999C7.21999 3.53999 9.27 2.64998 11.52 2.53998C11.64 5.04998 12.65 7.31999 14.24 9.06999L14.23 9.05998ZM9.03999 15.67C10.45 17.23 11.34 19.26 11.46 21.49C9.23001 21.37 7.2 20.47 5.64 19.07L9.03999 15.67ZM9.75 14.96L11.99 12.72L18.33 19.06C16.76 20.48 14.71 21.37 12.46 21.48C12.34 18.97 11.33 16.7 9.74001 14.95L9.75 14.96ZM12.7 12.01L14.94 9.76999C16.68 11.36 18.96 12.36 21.47 12.49C21.36 14.74 20.46 16.79 19.05 18.36L12.71 12.02L12.7 12.01Z" />
</svg>
