<svg viewBox="0 0 24 24" fill="currentColor" stroke="currentColor" xmlns="http://www.w3.org/2000/svg">
<path d="M21.5 6V14C21.5 16.29 20.29 17.5 18 17.5H17C16.72 17.5 16.5 17.28 16.5 17C16.5 16.72 16.72 16.5 17 16.5H18C19.73 16.5 20.5 15.73 20.5 14V6C20.5 4.27 19.73 3.5 18 3.5H6C4.27 3.5 3.5 4.27 3.5 6V14C3.5 15.73 4.27 16.5 6 16.5H7C7.28 16.5 7.5 16.72 7.5 17C7.5 17.28 7.28 17.5 7 17.5H6C3.71 17.5 2.5 16.29 2.5 14V6C2.5 3.71 3.71 2.5 6 2.5H18C20.29 2.5 21.5 3.71 21.5 6ZM16 11.5C16.28 11.5 16.5 11.28 16.5 11V8.5C16.5 7.4 15.6 6.5 14.5 6.5H9.5C8.4 6.5 7.5 7.4 7.5 8.5V11C7.5 11.28 7.72 11.5 8 11.5C8.28 11.5 8.5 11.28 8.5 11V8.5C8.5 7.95 8.95 7.5 9.5 7.5H14.5C15.05 7.5 15.5 7.95 15.5 8.5V11C15.5 11.28 15.72 11.5 16 11.5ZM15.5 20.95C15.53 21.22 15.33 21.47 15.05 21.5C15.03 21.5 15.02 21.5 15 21.5C14.75 21.5 14.53 21.31 14.5 21.05C14.44 20.5 14.41 19.99 14.39 19.5H12.5V21C12.5 21.28 12.28 21.5 12 21.5C11.72 21.5 11.5 21.28 11.5 21V19.5H9.60999C9.58999 19.99 9.55 20.5 9.5 21.05C9.47 21.31 9.26 21.5 9 21.5C8.98 21.5 8.96001 21.5 8.95001 21.5C8.67001 21.47 8.48 21.23 8.5 20.95C8.81 17.91 8.59002 15.97 7.65002 13.5H7C6.72 13.5 6.5 13.28 6.5 13C6.5 12.72 6.72 12.5 7 12.5H8.01001H17C17.28 12.5 17.5 12.72 17.5 13C17.5 13.28 17.28 13.5 17 13.5H16.35C15.41 15.97 15.19 17.91 15.5 20.95ZM15.28 13.5H12.5V15.5H14.69C14.83 14.85 15.03 14.19 15.28 13.5ZM8.71997 13.5C8.96997 14.19 9.17 14.85 9.31 15.5H11.5V13.5H8.71997ZM11.5 18.5V16.5H9.48999C9.57999 17.14 9.63 17.8 9.63 18.5H11.5ZM12.5 18.5H14.37C14.37 17.8 14.42 17.14 14.51 16.5H12.5V18.5Z" />
</svg>
