<svg viewBox="0 0 24 24" fill="currentColor" stroke="currentColor" xmlns="http://www.w3.org/2000/svg">
<path d="M12 1.5C6.21 1.5 1.5 6.21 1.5 12C1.5 17.79 6.21 22.5 12 22.5C17.79 22.5 22.5 17.79 22.5 12C22.5 6.21 17.79 1.5 12 1.5ZM12 21.5C6.76 21.5 2.5 17.24 2.5 12C2.5 6.76 6.76 2.5 12 2.5C17.24 2.5 21.5 6.76 21.5 12C21.5 17.24 17.24 21.5 12 21.5ZM12 6C8.69 6 6 8.69 6 12C6 15.31 8.69 18 12 18C15.31 18 18 15.31 18 12C18 8.69 15.31 6 12 6ZM12 17C9.24 17 7 14.76 7 12C7 9.24 9.24 7 12 7C14.76 7 17 9.24 17 12C17 14.76 14.76 17 12 17ZM14 10.5C14 9.4 13.1 8.5 12 8.5C10.9 8.5 10 9.4 10 10.5C10 11.1 10.27 11.63 10.69 12C10.27 12.37 10 12.9 10 13.5C10 14.6 10.9 15.5 12 15.5C13.1 15.5 14 14.6 14 13.5C14 12.9 13.73 12.37 13.31 12C13.73 11.63 14 11.1 14 10.5ZM13 13.5C13 14.05 12.55 14.5 12 14.5C11.45 14.5 11 14.05 11 13.5C11 12.95 11.45 12.5 12 12.5C12.55 12.5 13 12.95 13 13.5ZM11 10.5C11 9.95 11.45 9.5 12 9.5C12.55 9.5 13 9.95 13 10.5C13 11.05 12.55 11.5 12 11.5C11.45 11.5 11 11.05 11 10.5Z" />
</svg>
