<svg viewBox="0 0 24 24" fill="currentColor" stroke="currentColor" xmlns="http://www.w3.org/2000/svg">
<path d="M12 1.5C6.21 1.5 1.5 6.21 1.5 12C1.5 17.79 6.21 22.5 12 22.5C17.79 22.5 22.5 17.79 22.5 12C22.5 6.21 17.79 1.5 12 1.5ZM12 21.5C6.76 21.5 2.5 17.24 2.5 12C2.5 6.76 6.76 2.5 12 2.5C17.24 2.5 21.5 6.76 21.5 12C21.5 17.24 17.24 21.5 12 21.5ZM14.02 7C14.02 7.55 13.57 8 13.02 8C12.47 8 12.02 7.55 12.02 7C12.02 6.45 12.46 6 13.01 6H13.02C13.57 6 14.02 6.45 14.02 7ZM17.02 10C17.02 10.55 16.57 11 16.02 11C15.47 11 15.02 10.55 15.02 10C15.02 9.45 15.46 9 16.01 9H16.02C16.57 9 17.02 9.45 17.02 10ZM13.02 11C13.02 11.55 12.57 12 12.02 12C11.47 12 11.02 11.55 11.02 11C11.02 10.45 11.46 10 12.01 10H12.02C12.57 10 13.02 10.45 13.02 11Z" />
</svg>
