<svg viewBox="0 0 24 24" fill="currentColor" stroke="currentColor" xmlns="http://www.w3.org/2000/svg">
<path d="M16 2.49998H10C8.07 2.49998 6.5 4.06998 6.5 5.99998V6.76999C6.21 6.59999 5.86 6.49998 5.5 6.49998C4.4 6.49998 3.5 7.39998 3.5 8.49998V12.1C3.5 13.27 4.08 14.36 5.06 15.01L6.06 15.67C6.34 15.86 6.51001 16.17 6.51001 16.5V19.49C6.51001 20.59 7.41001 21.49 8.51001 21.49H17.51C18.61 21.49 19.51 20.59 19.51 19.49V16.05C19.51 15.9 19.55 15.74 19.62 15.6L20.14 14.55C20.38 14.07 20.51 13.53 20.51 12.98V6.97998C20.51 4.49998 18.49 2.47998 16.01 2.47998L16 2.49998ZM17.5 20.5H8.5C7.95 20.5 7.5 20.05 7.5 19.5V17.5H18.5V19.5C18.5 20.05 18.05 20.5 17.5 20.5ZM19.5 13C19.5 13.39 19.41 13.77 19.24 14.12L18.72 15.17C18.58 15.45 18.51 15.76 18.51 16.06V16.5H7.51001C7.51001 15.83 7.18 15.22 6.62 14.85L5.62 14.19C4.92 13.73 4.51001 12.95 4.51001 12.11V8.50998C4.51001 7.95998 4.96001 7.50998 5.51001 7.50998C6.06001 7.50998 6.51001 7.95998 6.51001 8.50998V12.01C6.51001 12.29 6.73001 12.51 7.01001 12.51C7.29001 12.51 7.51001 12.29 7.51001 12.01V6.00998C7.51001 4.62998 8.63001 3.50998 10.01 3.50998H16.01C17.94 3.50998 19.51 5.07998 19.51 7.00998V13.01L19.5 13Z" />
</svg>
