<svg viewBox="0 0 24 24" fill="currentColor" stroke="currentColor" xmlns="http://www.w3.org/2000/svg">
<path d="M14.5 6.5C15.6 6.5 16.5 5.6 16.5 4.5C16.5 3.4 15.6 2.5 14.5 2.5C13.4 2.5 12.5 3.4 12.5 4.5C12.5 5.6 13.4 6.5 14.5 6.5ZM14.5 3.5C15.05 3.5 15.5 3.95 15.5 4.5C15.5 5.05 15.05 5.5 14.5 5.5C13.95 5.5 13.5 5.05 13.5 4.5C13.5 3.95 13.95 3.5 14.5 3.5ZM15.62 11.5C15.09 11.5 14.58 11.29 14.21 10.91L12.71 9.41C12.32 9.02 11.69 9.02 11.3 9.41L9.82999 10.88C9.59999 11.11 9.49999 11.43 9.54999 11.75C9.59999 12.07 9.8 12.34 10.09 12.48L11.4 13.13C12.08 13.47 12.51 14.16 12.51 14.92V17.99C12.51 18.27 12.29 18.49 12.01 18.49C11.73 18.49 11.51 18.27 11.51 17.99V14.92C11.51 14.54 11.3 14.2 10.96 14.03L9.64999 13.38C9.06999 13.09 8.67001 12.55 8.57001 11.91C8.47001 11.27 8.67 10.64 9.13 10.18L10.6 8.71001C11.35 7.96001 12.67 7.96001 13.43 8.71001L14.93 10.21C15.12 10.4 15.37 10.5 15.64 10.5H17.02C17.3 10.5 17.52 10.72 17.52 11C17.52 11.28 17.3 11.5 17.02 11.5H15.64H15.62ZM18 14.5C16.07 14.5 14.5 16.07 14.5 18C14.5 19.93 16.07 21.5 18 21.5C19.93 21.5 21.5 19.93 21.5 18C21.5 16.07 19.93 14.5 18 14.5ZM18 20.5C16.62 20.5 15.5 19.38 15.5 18C15.5 16.62 16.62 15.5 18 15.5C19.38 15.5 20.5 16.62 20.5 18C20.5 19.38 19.38 20.5 18 20.5ZM6 14.5C4.07 14.5 2.5 16.07 2.5 18C2.5 19.93 4.07 21.5 6 21.5C7.93 21.5 9.5 19.93 9.5 18C9.5 16.07 7.93 14.5 6 14.5ZM6 20.5C4.62 20.5 3.5 19.38 3.5 18C3.5 16.62 4.62 15.5 6 15.5C7.38 15.5 8.5 16.62 8.5 18C8.5 19.38 7.38 20.5 6 20.5Z" />
</svg>
