<svg viewBox="0 0 24 24" fill="currentColor" stroke="currentColor" xmlns="http://www.w3.org/2000/svg">
<path d="M21.5 9.5V7.5C21.5 6.23 20.77 5.5 19.5 5.5H17.5C16.23 5.5 15.5 6.23 15.5 7.5V9.5H8.5V7.5C8.5 6.23 7.77 5.5 6.5 5.5H4.5C3.23 5.5 2.5 6.23 2.5 7.5V9.5C1.94 9.5 1.5 9.97001 1.5 10.57V13.43C1.5 14.03 1.94 14.5 2.5 14.5V16.5C2.5 17.77 3.23 18.5 4.5 18.5H6.5C7.77 18.5 8.5 17.77 8.5 16.5V14.5H15.5V16.5C15.5 17.77 16.23 18.5 17.5 18.5H19.5C20.77 18.5 21.5 17.77 21.5 16.5V14.5C22.06 14.5 22.5 14.03 22.5 13.43V10.57C22.5 9.97001 22.06 9.5 21.5 9.5ZM7.5 16.5C7.5 17.22 7.22 17.5 6.5 17.5H4.5C3.78 17.5 3.5 17.22 3.5 16.5V7.5C3.5 6.78 3.78 6.5 4.5 6.5H6.5C7.22 6.5 7.5 6.78 7.5 7.5V16.5ZM8.5 13.5V10.5H15.5V13.5H8.5ZM20.5 16.5C20.5 17.22 20.22 17.5 19.5 17.5H17.5C16.78 17.5 16.5 17.22 16.5 16.5V7.5C16.5 6.78 16.78 6.5 17.5 6.5H19.5C20.22 6.5 20.5 6.78 20.5 7.5V16.5Z" />
</svg>
