<svg viewBox="0 0 24 24" fill="currentColor" stroke="currentColor" xmlns="http://www.w3.org/2000/svg">
<path d="M21.34 13.63C21.24 13.54 21.1 13.49 20.95 13.5L15.91 14.01L14.48 10.19L19.1 9.76999C19.41 9.73999 19.69 9.56998 19.86 9.30998C20.03 9.04998 20.06 8.73998 19.96 8.44998C18.56 4.57998 14.71 2.14999 10.61 2.54999C6.22999 2.96999 2.75002 6.60998 2.51002 11C2.36002 13.78 3.46002 16.42 5.54002 18.25C5.72002 18.41 5.96 18.5 6.21 18.5H8.08C9.07 18.5 9.97002 19.05 10.42 19.94C10.59 20.28 10.93 20.49 11.31 20.49H14.26C14.59 20.49 14.9 20.33 15.09 20.05C15.28 19.78 15.32 19.43 15.19 19.12L13.64 15.23L15.25 15.07L16.81 19.22C17.32 20.58 18.64 21.49 20.09 21.49H21.01C21.29 21.49 21.51 21.27 21.51 20.99V13.99C21.51 13.85 21.45 13.71 21.35 13.62L21.34 13.63ZM11.31 19.49C10.69 18.26 9.46 17.5 8.08 17.5H6.21H6.20002C4.35002 15.87 3.37002 13.52 3.51002 11.05C3.72002 7.13999 6.82 3.90998 10.71 3.53998C14.37 3.18998 17.78 5.34999 19.01 8.76999L12.96 9.31999C12.32 9.37999 11.77 9.71999 11.44 10.27C11.11 10.82 11.05 11.47 11.29 12.06L12.48 15.04C12.48 15.04 12.48 15.04 12.48 15.05L14.26 19.5H11.31V19.49ZM13.25 14.27L12.21 11.68C12.09 11.38 12.12 11.06 12.29 10.79C12.46 10.52 12.73 10.35 13.05 10.32L13.44 10.28L14.88 14.11L13.25 14.27ZM20.5 14.55V16.54L16.99 16.89L16.27 14.97L20.5 14.55ZM20.08 20.5C19.04 20.5 18.1 19.85 17.74 18.88L17.36 17.87L20.5 17.56V20.51H20.08V20.5ZM9.77 15C9.77 15.41 9.43 15.75 9.02 15.75C8.61 15.75 8.27 15.41 8.27 15C8.27 14.59 8.60002 14.25 9.01002 14.25H9.02C9.43 14.25 9.77 14.59 9.77 15Z" />
</svg>
