<svg viewBox="0 0 24 24" fill="currentColor" stroke="currentColor" xmlns="http://www.w3.org/2000/svg">
<path d="M20.38 18.3C21.7 16.54 22.5 14.37 22.5 12C22.5 9.63 21.74 7.56001 20.47 5.82001C20.45 5.79001 20.43 5.76 20.4 5.73C18.48 3.17 15.43 1.5 11.99 1.5C8.55001 1.5 5.49 3.17001 3.58 5.74001C3.53 5.78001 3.5 5.83 3.47 5.89C2.23 7.61 1.49 9.72 1.49 12C1.49 14.28 2.29 16.54 3.61 18.3C3.63 18.32 3.64 18.34 3.66 18.36C5.58 20.87 8.6 22.5 12 22.5C15.4 22.5 18.42 20.87 20.34 18.36C20.36 18.34 20.37 18.32 20.39 18.3H20.38ZM16.27 17.5L15.21 15.9L16.42 11.05L18.58 10.33L21.48 12.53C21.38 14.37 20.75 16.08 19.74 17.49H16.28L16.27 17.5ZM7.73 17.5H4.27C3.26 16.08 2.63 14.37 2.53 12.53L5.42 10.34L7.59 11.06L8.8 15.9L7.74 17.5H7.73ZM3.81 7.21001L4.72 9.60001L2.54 11.26C2.65 9.78999 3.1 8.42001 3.81 7.21001ZM9.73 15.5L8.58 10.89L12 8.61C12 8.61 12 8.61 12.01 8.61C12.02 8.61 12.01 8.61 12.02 8.61L15.44 10.89L14.29 15.5H9.74001H9.73ZM21.47 11.27L19.27 9.60001L20.19 7.19C20.9 8.4 21.36 9.78999 21.47 11.26V11.27ZM19.51 6.19L18.29 9.38L16.09 10.12L12.51 7.74001V5.59L15.66 3.24001C17.19 3.88001 18.51 4.91 19.51 6.2V6.19ZM14.51 2.85001L12.01 4.72L9.50999 2.85001C10.31 2.63001 11.14 2.50999 12.01 2.50999C12.88 2.50999 13.71 2.64001 14.51 2.85001ZM8.37 3.24001L11.52 5.59V7.74001L7.94 10.12L5.72 9.38L4.51 6.2C5.51 4.9 6.84 3.87 8.37 3.23V3.24001ZM5.11 18.51H7.63L8.19 20.7C7.02 20.18 5.97 19.43 5.11 18.51ZM9.33 21.12L8.56 18.1L9.62 16.51H14.42L15.48 18.1L14.71 21.12C13.86 21.37 12.96 21.51 12.02 21.51C11.08 21.51 10.19 21.37 9.33 21.12ZM15.84 20.7L16.4 18.51H18.92C18.05 19.43 17.01 20.18 15.84 20.7Z" />
</svg>
