<svg viewBox="0 0 24 24" fill="currentColor" stroke="currentColor" xmlns="http://www.w3.org/2000/svg">
<path d="M15.27 10C15.27 10.41 14.93 10.75 14.52 10.75C14.11 10.75 13.77 10.41 13.77 10C13.77 9.59 14.1 9.25 14.51 9.25H14.52C14.93 9.25 15.27 9.59 15.27 10ZM21.35 8.35001L18.85 10.85C18.65 11.05 18.34 11.05 18.14 10.85L17.49 10.2V19.99C17.49 20.27 17.27 20.49 16.99 20.49H6.98997C6.70997 20.49 6.48997 20.27 6.48997 19.99V10.2L5.84 10.85C5.64 11.05 5.32998 11.05 5.12998 10.85L2.62998 8.35001C2.42998 8.15001 2.42998 7.84 2.62998 7.64L6.03995 4.23C6.50995 3.76 7.13997 3.5 7.80997 3.5H8.99998C9.49998 3.5 9.92999 3.85001 10.01 4.32001C10.17 5.29001 11 6 11.98 6C12.96 6 13.8 5.30001 13.95 4.32001C14.03 3.85001 14.46 3.5 14.96 3.5H16.15C16.82 3.5 17.45 3.76 17.92 4.23L21.33 7.64C21.53 7.84 21.53 8.15001 21.33 8.35001H21.35ZM16.5 13.5H7.49998V15.5H16.5V13.5ZM16.5 19.5V16.5H7.49998V19.5H16.5ZM20.29 8L17.23 4.94C16.95 4.66 16.57 4.5 16.17 4.5H14.98C14.98 4.5 14.95 4.49999 14.95 4.50999C14.72 5.93999 13.48 7 12 7C10.52 7 9.27995 5.94001 9.03995 4.49001H7.82999C7.42999 4.50001 7.05 4.66 6.77 4.94L3.71 8L5.49998 9.78999L6.65 8.64C6.79 8.5 7.00998 8.45 7.18998 8.53C7.37998 8.61 7.49998 8.79001 7.49998 8.99001V12.49H16.5V8.99001C16.5 8.79001 16.62 8.61 16.81 8.53C17 8.45 17.21 8.49 17.35 8.64L18.5 9.78999L20.29 8Z" />
</svg>
