<svg viewBox="0 0 24 24" fill="currentColor" stroke="currentColor" xmlns="http://www.w3.org/2000/svg">
<path d="M18.5 9C18.5 5.42 15.58 2.5 12 2.5C8.42 2.5 5.5 5.42 5.5 9C5.5 11.47 6.88998 13.62 8.91998 14.72L8.77002 14.95C8.53002 15.31 8.58 15.78 8.88 16.09L10.02 17.2L10.46 20.71C10.52 21.16 10.9 21.5 11.35 21.5H12.65C13.1 21.5 13.48 21.16 13.54 20.71L13.95 17.26L15.12 16.09C15.42 15.78 15.47 15.31 15.23 14.95L15.08 14.72C17.12 13.62 18.5 11.47 18.5 9ZM14.36 15.44L13.24 16.55C13.1 16.69 13.01 16.88 12.99 17.07L12.56 20.5H11.44L11.01 17.07C10.99 16.88 10.9 16.69 10.76 16.55L9.64001 15.43L9.83002 15.12C10.51 15.36 11.24 15.5 12 15.5C12.76 15.5 13.47 15.36 14.15 15.13L14.36 15.44ZM12 14.5C8.97 14.5 6.5 12.03 6.5 9C6.5 5.97 8.97 3.5 12 3.5C15.03 3.5 17.5 5.97 17.5 9C17.5 12.03 15.03 14.5 12 14.5ZM10 10C10 10.28 9.78 10.5 9.5 10.5C8.67 10.5 8 9.83 8 9C8 8.72 8.22 8.5 8.5 8.5C8.78 8.5 9 8.72 9 9C9 9.28 9.22 9.5 9.5 9.5C9.78 9.5 10 9.72 10 10ZM12.5 12.5C12.5 12.78 12.28 13 12 13C11.17 13 10.5 12.33 10.5 11.5C10.5 11.22 10.72 11 11 11C11.28 11 11.5 11.22 11.5 11.5C11.5 11.78 11.72 12 12 12C12.28 12 12.5 12.22 12.5 12.5ZM13 9.5C13 9.78 12.78 10 12.5 10C11.67 10 11 9.33 11 8.5C11 8.22 11.22 8 11.5 8C11.78 8 12 8.22 12 8.5C12 8.78 12.22 9 12.5 9C12.78 9 13 9.22 13 9.5Z" />
</svg>
