<svg viewBox="0 0 24 24" fill="currentColor" stroke="currentColor" xmlns="http://www.w3.org/2000/svg">
<path d="M21.4099 18.33L19.2199 10.16C19.1199 9.78 18.87 9.45999 18.53 9.25999C18.18 9.05999 17.79 9.01 17.4 9.11L16.89 9.25L15.2199 4.66C15.2199 4.66 15.2199 4.65 15.2199 4.64C15.2199 4.64 15.2199 4.63 15.2199 4.62C14.6799 3.38 13.45 2.5 12.01 2.5C10.57 2.5 9.43998 3.31 8.87998 4.47C8.83998 4.51 8.81 4.57 8.78 4.63L7.79996 7.33C7.70996 7.59 7.83995 7.88 8.09995 7.97C8.15995 7.99 8.20999 8 8.26999 8C8.46999 8 8.66996 7.87 8.73996 7.67L8.82999 7.42999C9.37999 8.63999 10.6 9.5 12.01 9.5C13.42 9.5 14.64 8.65 15.19 7.45L15.94 9.50999L15.43 9.64999C15.05 9.74999 14.73 10 14.53 10.34C14.33 10.68 14.28 11.08 14.38 11.47L16.57 19.64C16.74 20.29 17.16 20.83 17.74 21.17C18.13 21.39 18.56 21.51 18.99 21.51C19.21 21.51 19.43 21.48 19.65 21.42C20.3 21.25 20.84 20.83 21.18 20.25C21.51 19.67 21.6 18.99 21.43 18.34L21.4099 18.33ZM14.5 6C14.5 7.38 13.38 8.5 12 8.5C10.62 8.5 9.49997 7.38 9.49997 6C9.49997 4.62 10.62 3.5 12 3.5C13.03 3.5 13.91 4.11999 14.3 5.00999L14.32 5.07001C14.43 5.36001 14.5 5.67001 14.5 5.99001V6ZM20.3 19.74C20.1 20.09 19.77 20.34 19.38 20.45C18.99 20.55 18.58 20.5 18.23 20.3C17.88 20.1 17.63 19.77 17.52 19.38L15.33 11.21C15.3 11.08 15.31 10.95 15.38 10.84C15.45 10.73 15.55 10.65 15.68 10.61L17.67 10.08C17.67 10.08 17.75 10.06 17.8 10.06C17.88 10.06 17.9699 10.08 18.0399 10.12C18.1499 10.18 18.23 10.29 18.27 10.42L20.46 18.59C20.57 18.98 20.51 19.39 20.31 19.74H20.3ZM8.57999 9.64L6.59 9.11C6.21 9.01 5.80999 9.05999 5.45999 9.25999C5.11999 9.45999 4.86999 9.78 4.76999 10.16L2.57999 18.33C2.40999 18.98 2.49999 19.66 2.82999 20.24C3.15999 20.82 3.70996 21.24 4.35996 21.41C4.57996 21.47 4.79998 21.5 5.00998 21.5C5.44998 21.5 5.87998 21.39 6.25998 21.16C6.83998 20.82 7.25996 20.28 7.42996 19.63L9.61997 11.46C9.71997 11.08 9.66994 10.68 9.46994 10.33C9.26994 9.98 8.94998 9.74 8.56998 9.64H8.57999ZM8.65994 11.2L6.46994 19.37C6.36994 19.76 6.11998 20.09 5.75998 20.29C5.39998 20.49 4.99996 20.55 4.60996 20.44C4.21996 20.34 3.88997 20.09 3.68997 19.73C3.48997 19.38 3.42995 18.97 3.53995 18.58L5.72995 10.41C5.75995 10.29 5.83999 10.18 5.95999 10.12C6.03999 10.08 6.11998 10.06 6.19998 10.06C6.23998 10.06 6.27999 10.06 6.32999 10.08L8.31998 10.61C8.44998 10.64 8.54997 10.72 8.61997 10.84C8.67997 10.95 8.69995 11.08 8.66995 11.21L8.65994 11.2Z" />
</svg>
