<svg viewBox="0 0 24 24" fill="currentColor" stroke="currentColor" xmlns="http://www.w3.org/2000/svg">
<path d="M19.5 16.4999H16.5C15.23 16.4999 14.5 17.2299 14.5 18.4999V19.4999C14.5 20.7699 15.23 21.4999 16.5 21.4999H19.5C20.77 21.4999 21.5 20.7699 21.5 19.4999V18.4999C21.5 17.2299 20.77 16.4999 19.5 16.4999ZM20.5 19.4999C20.5 20.2199 20.22 20.4999 19.5 20.4999H16.5C15.78 20.4999 15.5 20.2199 15.5 19.4999V18.4999C15.5 17.7799 15.78 17.4999 16.5 17.4999H19.5C20.22 17.4999 20.5 17.7799 20.5 18.4999V19.4999ZM18.18 2.52993C17.92 2.42993 17.63 2.55993 17.53 2.80993L13.99 11.8999C13.61 12.8699 12.7 13.4899 11.66 13.4899H4.48999C3.38999 13.4899 2.48999 14.3899 2.48999 15.4899V19.4899C2.48999 20.5899 3.38999 21.4899 4.48999 21.4899H8.94C10.38 21.4899 11.69 20.5899 12.2 19.2599L18.46 3.16993C18.56 2.90993 18.43 2.61994 18.18 2.51994V2.52993ZM3.5 19.4999V15.4999C3.5 14.9499 3.95 14.4999 4.5 14.4999H6.5V20.4999H4.5C3.95 20.4999 3.5 20.0499 3.5 19.4999ZM11.27 18.9099C10.91 19.8599 9.97001 20.4999 8.95001 20.4999H7.5V14.4999H11.67C12.18 14.4999 12.67 14.3899 13.11 14.1899L11.28 18.9099H11.27Z" />
</svg>
