<svg viewBox="0 0 24 24" fill="currentColor" stroke="currentColor" xmlns="http://www.w3.org/2000/svg">
<path d="M19 2.5C17.62 2.5 16.5 3.62 16.5 5V13C16.5 13.28 16.72 13.5 17 13.5H18.5V16.5C18.5 18.15 17.15 19.5 15.5 19.5C13.85 19.5 12.5 18.15 12.5 16.5V7.5C12.5 5.29 10.71 3.5 8.5 3.5C6.29 3.5 4.5 5.29 4.5 7.5V10.5H3C2.72 10.5 2.5 10.72 2.5 11V19C2.5 20.38 3.62 21.5 5 21.5C6.38 21.5 7.5 20.38 7.5 19V11C7.5 10.72 7.28 10.5 7 10.5H5.5V7.5C5.5 5.85 6.85 4.5 8.5 4.5C10.15 4.5 11.5 5.85 11.5 7.5V16.5C11.5 18.71 13.29 20.5 15.5 20.5C17.71 20.5 19.5 18.71 19.5 16.5V13.5H21C21.28 13.5 21.5 13.28 21.5 13V5C21.5 3.62 20.38 2.5 19 2.5ZM5 20.5C4.17 20.5 3.5 19.83 3.5 19V14.5H6.5V19C6.5 19.83 5.83 20.5 5 20.5ZM6.5 13.5H3.5V11.5H6.5V13.5ZM19 3.5C19.83 3.5 20.5 4.17 20.5 5V9.5H17.5V5C17.5 4.17 18.17 3.5 19 3.5ZM17.5 12.5V10.5H20.5V12.5H17.5Z" />
</svg>
