<svg viewBox="0 0 24 24" fill="currentColor" stroke="currentColor" xmlns="http://www.w3.org/2000/svg">
<path d="M8.85999 13.56L10.07 11.62C10.2 11.41 10.41 11.39 10.49 11.39C10.57 11.39 10.78 11.41 10.91 11.63L12.12 13.57C12.49 14.16 13.12 14.51 13.82 14.51H16.99C17.82 14.51 18.49 13.84 18.49 13.01V9.00999C18.49 6.71999 17.28 5.50999 14.99 5.50999H5.98999C3.69999 5.50999 2.48999 6.71999 2.48999 9.00999V13.01C2.48999 13.84 3.15999 14.51 3.98999 14.51H7.16C7.85 14.51 8.48999 14.16 8.85999 13.57V13.56ZM7.16 13.5H3.98999C3.70999 13.5 3.48999 13.28 3.48999 13V9C3.48999 7.27 4.25999 6.5 5.98999 6.5H14.99C16.72 6.5 17.49 7.27 17.49 9V13C17.49 13.28 17.27 13.5 16.99 13.5H13.82C13.47 13.5 13.16 13.32 12.97 13.03L11.76 11.09C11.48 10.65 11.01 10.38 10.49 10.38C9.96999 10.38 9.49 10.64 9.22 11.09L8.01001 13.03C7.83001 13.32 7.51 13.5 7.16 13.5ZM21.49 3V18C21.49 20.29 20.28 21.5 17.99 21.5H13.49C11.2 21.5 9.98999 20.29 9.98999 18V17.5H8.48999C8.20999 17.5 7.98999 17.28 7.98999 17C7.98999 16.72 8.20999 16.5 8.48999 16.5H12.49C12.77 16.5 12.99 16.72 12.99 17C12.99 17.28 12.77 17.5 12.49 17.5H10.99V18C10.99 19.73 11.76 20.5 13.49 20.5H17.99C19.72 20.5 20.49 19.73 20.49 18V3C20.49 2.72 20.71 2.5 20.99 2.5C21.27 2.5 21.49 2.72 21.49 3Z" />
</svg>
