<svg viewBox="0 0 24 24" fill="currentColor" stroke="currentColor" xmlns="http://www.w3.org/2000/svg">
<path d="M19 16.4999C17.62 16.4999 16.5 17.6199 16.5 18.9999C16.5 20.3799 17.62 21.4999 19 21.4999C20.38 21.4999 21.5 20.3799 21.5 18.9999C21.5 17.6199 20.38 16.4999 19 16.4999ZM19 20.4999C18.17 20.4999 17.5 19.8299 17.5 18.9999C17.5 18.1699 18.17 17.4999 19 17.4999C19.83 17.4999 20.5 18.1699 20.5 18.9999C20.5 19.8299 19.83 20.4999 19 20.4999ZM14.15 16.5499C15.12 16.4699 16.04 16.1199 17.49 14.6799L18.47 13.7199C19.85 12.3399 20.55 10.6999 20.5 8.97993C20.45 7.36993 19.73 5.78993 18.47 4.52993C17.21 3.26993 15.63 2.54994 14.02 2.49994C12.29 2.45994 10.66 3.14993 9.27999 4.52993L8.32 5.49994C6.41 7.40994 6.41999 8.41993 6.41999 9.80993V10.0899C6.41999 10.6699 6.5 11.2599 6.66 11.8299C6.9 12.6899 6.69 13.5899 6.11 14.1699L2.78 17.4999C2.4 17.8799 2.4 18.4999 2.78 18.8799L4.11999 20.2199C4.30999 20.4099 4.55999 20.4999 4.80999 20.4999C5.05999 20.4999 5.31 20.4099 5.5 20.2199L8.83 16.8899C9.41 16.3099 10.31 16.0999 11.18 16.3399C11.75 16.4999 12.34 16.5799 12.92 16.5799H13.2C13.54 16.5799 13.85 16.5799 14.16 16.5599L14.15 16.5499ZM9.02999 6.20994L9.99 5.23994C11.13 4.09994 12.46 3.49994 13.85 3.49994C13.9 3.49994 13.95 3.49994 13.99 3.49994C15.34 3.53994 16.68 4.15993 17.76 5.22993C18.84 6.29993 19.45 7.64994 19.49 8.99994C19.53 10.4399 18.93 11.8299 17.76 12.9999L16.78 13.9599C15.69 15.0499 15.04 15.3999 14.32 15.5099L7.47 8.65994C7.58 7.94994 7.93 7.28993 9.02 6.19993L9.02999 6.20994ZM11.43 15.3799C10.22 15.0399 8.95 15.3499 8.11 16.1899L4.82 19.5199L3.47999 18.2199L6.80999 14.8899C7.64999 14.0499 7.95999 12.7799 7.61999 11.5699C7.48999 11.0799 7.41999 10.5799 7.41999 10.0899V10.0299L12.97 15.5799H12.91C12.42 15.5799 11.92 15.5099 11.44 15.3799H11.43Z" />
</svg>
