<svg viewBox="0 0 24 24" fill="currentColor" stroke="currentColor" xmlns="http://www.w3.org/2000/svg">
<path d="M19.73 15.58C19.56 14.41 19.01 13.3 18.17 12.47L15.5 9.79999V4.64999C15.5 3.22999 14.78 2.51001 13.36 2.51001H6.64C5.22 2.51001 4.5 3.22999 4.5 4.64999V15.37C4.5 16.79 5.22 17.51 6.64 17.51H6.71001C7.98001 19.69 8.65 20.37 9.64 21.36C9.74 21.46 9.87001 21.51 9.99001 21.51C10.11 21.51 10.25 21.46 10.34 21.36C10.54 21.16 10.54 20.85 10.34 20.65C9.48 19.79 8.88 19.19 7.86 17.5H13.35C13.98 17.5 14.46 17.34 14.81 17.05L15.57 18.26C15.72 18.49 16.02 18.57 16.26 18.42C16.49 18.27 16.57 17.97 16.42 17.73L12.08 10.79C11.81 10.36 11.88 9.81999 12.23 9.45999C12.65 9.03999 13.33 9.03999 13.75 9.45999L14.64 10.35L17.46 13.17C18.14 13.85 18.6 14.76 18.73 15.72L19.49 21.07C19.53 21.32 19.74 21.5 19.98 21.5C20 21.5 20.03 21.5 20.05 21.5C20.32 21.46 20.51 21.21 20.47 20.93L19.71 15.58H19.73ZM11.53 8.76001C10.84 9.45001 10.72 10.5 11.24 11.33L14.29 16.21C14.18 16.36 13.94 16.51 13.36 16.51H6.64C5.78 16.51 5.5 16.23 5.5 15.37V4.64999C5.5 3.78999 5.78 3.51001 6.64 3.51001H13.36C14.22 3.51001 14.5 3.78999 14.5 4.64999V8.79999L14.47 8.76999C13.66 7.95999 12.34 7.95999 11.54 8.76999L11.53 8.76001Z" />
</svg>
