<svg viewBox="0 0 24 24" fill="currentColor" stroke="currentColor" xmlns="http://www.w3.org/2000/svg">
<path d="M15.35 9.3501L14.7 10.0001L15.35 10.6501C15.55 10.8501 15.55 11.1601 15.35 11.3601C15.25 11.4601 15.12 11.5101 15 11.5101C14.88 11.5101 14.74 11.4601 14.65 11.3601L14 10.7101L12.71 12.0001L13.86 13.1501C14.06 13.3501 14.06 13.6601 13.86 13.8601C13.76 13.9601 13.63 14.0101 13.51 14.0101C13.39 14.0101 13.25 13.9601 13.16 13.8601L12.01 12.7101L10.72 14.0001L11.37 14.6501C11.57 14.8501 11.57 15.1601 11.37 15.3601C11.27 15.4601 11.14 15.5101 11.02 15.5101C10.9 15.5101 10.76 15.4601 10.67 15.3601L10.02 14.7101L9.37 15.3601C9.27 15.4601 9.14002 15.5101 9.02002 15.5101C8.90002 15.5101 8.75999 15.4601 8.66999 15.3601C8.46999 15.1601 8.46999 14.8501 8.66999 14.6501L9.32001 14.0001L8.66999 13.3501C8.46999 13.1501 8.46999 12.8401 8.66999 12.6401C8.86999 12.4401 9.18001 12.4401 9.38001 12.6401L10.03 13.2901L11.32 12.0001L10.17 10.8501C9.96999 10.6501 9.96999 10.3401 10.17 10.1401C10.37 9.94009 10.68 9.94009 10.88 10.1401L12.03 11.2901L13.32 10.0001L12.67 9.3501C12.47 9.1501 12.47 8.84009 12.67 8.64009C12.87 8.44009 13.18 8.44009 13.38 8.64009L14.03 9.29008L14.68 8.64009C14.88 8.44009 15.19 8.44009 15.39 8.64009C15.59 8.84009 15.59 9.1501 15.39 9.3501H15.35ZM21.16 9.8801C20.62 13.0901 19.42 15.6701 17.54 17.5401C14.91 20.1701 10.95 21.5001 5.75 21.5001C5.64 21.5001 5.53999 21.5001 5.43 21.5001C3.83 21.4801 2.52001 20.1701 2.51001 18.5801C2.49001 17.0701 2.6 15.6701 2.81 14.3701C2.81 14.2901 2.80998 14.2101 2.84998 14.1301C3.38998 10.9201 4.58997 8.34009 6.46997 6.47009C8.37997 4.56009 11.01 3.3401 14.31 2.8201C14.37 2.8001 14.44 2.78008 14.5 2.79008C15.77 2.60008 17.12 2.5001 18.58 2.5201C20.18 2.5401 21.49 3.85009 21.5 5.44009C21.52 6.95009 21.41 8.35009 21.2 9.65009C21.2 9.73009 21.2 9.81009 21.16 9.89009V9.8801ZM18.25 3.50009C17.3 3.50009 16.41 3.56009 15.55 3.65009L20.34 8.5701C20.45 7.5801 20.51 6.54008 20.5 5.43008C20.49 4.37008 19.62 3.5101 18.56 3.4901C18.46 3.4901 18.35 3.4901 18.25 3.4901V3.50009ZM8.45001 20.3501L3.65998 15.4301C3.54998 16.4201 3.49 17.4601 3.5 18.5701C3.51 19.6301 4.38 20.4901 5.44 20.5101C6.5 20.5101 7.50001 20.4601 8.45001 20.3601V20.3501ZM20.16 9.8201L14.32 3.8201C11.31 4.3201 8.89999 5.43009 7.16999 7.17009C5.45999 8.88009 4.35998 11.2401 3.84998 14.1901L9.69 20.1901C12.7 19.6901 15.11 18.5801 16.85 16.8501C18.56 15.1401 19.66 12.7801 20.17 9.83009L20.16 9.8201Z" />
</svg>
