<svg viewBox="0 0 24 24" fill="currentColor" stroke="currentColor" xmlns="http://www.w3.org/2000/svg">
<path d="M17.32 12.5L14.92 7.15002C14.74 6.74002 14.3 6.50002 13.84 6.58002C9.95003 7.20002 9.30999 4.73002 8.91999 3.25002L8.84003 2.95002C8.81003 2.84002 8.69998 2.58003 8.28998 2.52003C7.82998 2.45003 6.76001 2.62002 5.94001 3.84002L1.88001 10.17C1.18001 11.27 1.43999 12.74 2.48999 13.52L12.47 21.01C12.9 21.33 13.43 21.51 13.97 21.51H20.49C21.59 21.51 22.49 20.61 22.49 19.51V17.69C22.49 14.84 20.17 12.51 17.31 12.51L17.32 12.5ZM6.78003 4.38003C7.21003 3.75003 7.70002 3.56002 7.96002 3.51002C8.34002 4.96002 9.24001 8.32002 14.01 7.55002L14.54 8.74003H11.99C11.71 8.74003 11.49 8.96003 11.49 9.24003C11.49 9.52003 11.71 9.74003 11.99 9.74003H14.99L15.66 11.24H12.99C12.71 11.24 12.49 11.46 12.49 11.74C12.49 12.02 12.71 12.24 12.99 12.24H16.11L16.4 12.9C16.56 13.26 16.92 13.49 17.31 13.49C19.55 13.49 21.37 15.27 21.47 17.49H14.96C14.64 17.49 14.32 17.38 14.06 17.19L3.59003 9.34002L6.77002 4.38003H6.78003ZM20.49 20.5H13.97C13.65 20.5 13.33 20.39 13.07 20.2L3.09003 12.71C2.47003 12.24 2.30998 11.36 2.72998 10.7L3.06 10.18L13.47 17.99C13.9 18.31 14.43 18.49 14.97 18.49H21.49V19.49C21.49 20.04 21.04 20.49 20.49 20.49V20.5ZM9.48999 21C9.48999 21.28 9.26999 21.5 8.98999 21.5H1.98999C1.70999 21.5 1.48999 21.28 1.48999 21C1.48999 20.72 1.70999 20.5 1.98999 20.5H8.98999C9.26999 20.5 9.48999 20.72 9.48999 21ZM1.48999 17.5C1.48999 17.22 1.70999 17 1.98999 17H3.98999C4.26999 17 4.48999 17.22 4.48999 17.5C4.48999 17.78 4.26999 18 3.98999 18H1.98999C1.70999 18 1.48999 17.78 1.48999 17.5Z" />
</svg>
