<svg viewBox="0 0 24 24" fill="currentColor" stroke="currentColor" xmlns="http://www.w3.org/2000/svg">
<path d="M18 4.5H6C3.71 4.5 2.5 5.71 2.5 8V16C2.5 18.29 3.71 19.5 6 19.5H18C20.29 19.5 21.5 18.29 21.5 16V8C21.5 5.71 20.29 4.5 18 4.5ZM20.5 14.5H19C18.72 14.5 18.5 14.28 18.5 14V10C18.5 9.72 18.72 9.5 19 9.5H20.5V14.5ZM12 14C10.9 14 10 13.1 10 12C10 10.9 10.9 10 12 10C13.1 10 14 10.9 14 12C14 13.1 13.1 14 12 14ZM3.5 9.5H5C5.28 9.5 5.5 9.72 5.5 10V14C5.5 14.28 5.28 14.5 5 14.5H3.5V9.5ZM3.5 16V15.5H5C5.83 15.5 6.5 14.83 6.5 14V10C6.5 9.17 5.83 8.5 5 8.5H3.5V8C3.5 6.27 4.27 5.5 6 5.5H11.5V9.05C10.08 9.29 9 10.52 9 12C9 13.48 10.08 14.71 11.5 14.95V18.5H6C4.27 18.5 3.5 17.73 3.5 16ZM18 18.5H12.5V14.95C13.92 14.71 15 13.48 15 12C15 10.52 13.92 9.29 12.5 9.05V5.5H18C19.73 5.5 20.5 6.27 20.5 8V8.5H19C18.17 8.5 17.5 9.17 17.5 10V14C17.5 14.83 18.17 15.5 19 15.5H20.5V16C20.5 17.73 19.73 18.5 18 18.5Z" />
</svg>
