<svg viewBox="0 0 24 24" fill="currentColor" stroke="currentColor" xmlns="http://www.w3.org/2000/svg">
<path d="M22.49 11.9C22.49 11.9 22.49 11.89 22.49 11.88C22.42 6.19002 17.81 1.59002 12.13 1.52002C12.13 1.52002 12.12 1.52002 12.11 1.52002C12.08 1.52002 12.04 1.52002 12.01 1.52002C6.21999 1.52002 1.50999 6.23002 1.50999 12.02C1.50999 12.05 1.50999 12.09 1.50999 12.12C1.50999 12.12 1.50999 12.13 1.50999 12.14C1.57999 17.83 6.19 22.43 11.87 22.5C11.89 22.5 11.91 22.5 11.93 22.5C11.93 22.5 11.93 22.5 11.94 22.5C11.96 22.5 11.97 22.5 11.99 22.5C17.78 22.5 22.49 17.79 22.49 12C22.49 11.97 22.49 11.93 22.49 11.9ZM21.47 11.47C21.31 11.47 21.16 11.5 21 11.5C16.31 11.5 12.5 7.69002 12.5 3.00002C12.5 2.84002 12.52 2.68001 12.53 2.53001C17.35 2.80001 21.21 6.66002 21.47 11.47ZM2.52 12.53C2.68 12.53 2.83001 12.5 2.99001 12.5C7.68001 12.5 11.49 16.31 11.49 21C11.49 21.16 11.47 21.32 11.46 21.47C6.64001 21.2 2.78 17.34 2.52 12.53ZM12.46 21.48C12.46 21.32 12.49 21.17 12.49 21C12.49 15.76 8.23001 11.5 2.99001 11.5C2.83001 11.5 2.66999 11.52 2.50999 11.53C2.74999 6.67001 6.64999 2.77001 11.51 2.53001C11.51 2.69001 11.48 2.84001 11.48 3.01001C11.48 8.25001 15.74 12.51 20.98 12.51C21.14 12.51 21.3 12.49 21.46 12.48C21.22 17.34 17.32 21.24 12.46 21.48Z" />
</svg>
