<svg viewBox="0 0 24 24" fill="currentColor" stroke="currentColor" xmlns="http://www.w3.org/2000/svg">
<path d="M17.5 14.5001H15.54C15.04 14.5001 14.57 14.7501 14.29 15.1701L13.73 16.0001H8.27L7.71001 15.1701C7.43001 14.7501 6.96001 14.5001 6.46001 14.5001H4.5C3.4 14.5001 2.5 15.4001 2.5 16.5001V19.5001C2.5 20.6001 3.4 21.5001 4.5 21.5001H6.46001C6.96001 21.5001 7.43001 21.25 7.71001 20.83L8.27 20.0001H13.73L14.29 20.83C14.57 21.25 15.04 21.5001 15.54 21.5001H17.51C18.61 21.5001 19.51 20.6001 19.51 19.5001V16.5001C19.51 15.4001 18.61 14.5001 17.51 14.5001H17.5ZM18.5 19.5001C18.5 20.0501 18.05 20.5001 17.5 20.5001H15.53C15.36 20.5001 15.21 20.4201 15.11 20.2801L14.5 19.3601C14.35 19.1401 14.1 19.0001 13.83 19.0001H8.14999C7.87999 19.0001 7.63 19.1301 7.48 19.3601L6.87 20.2801C6.77999 20.4201 6.62 20.5001 6.45 20.5001H4.49001C3.94001 20.5001 3.49001 20.0501 3.49001 19.5001V16.5001C3.49001 15.9501 3.94001 15.5001 4.49001 15.5001H6.45C6.62 15.5001 6.77 15.5801 6.87 15.7201L7.48 16.6401C7.63 16.8601 7.87999 17.0001 8.14999 17.0001H13.83C14.1 17.0001 14.35 16.8701 14.5 16.6401L15.11 15.7201C15.2 15.5801 15.36 15.5001 15.53 15.5001H17.49C18.04 15.5001 18.49 15.9501 18.49 16.5001V19.5001H18.5ZM21.39 6.70005L20.43 3.86006C20.26 3.35006 19.9 2.94006 19.42 2.71006C18.94 2.47006 18.4 2.44006 17.89 2.61006L16.03 3.24006C15.55 3.40006 15.19 3.79006 15.06 4.27006L14.8 5.24006L9.62 6.99006L8.83 6.38006C8.43 6.07006 7.90999 5.98005 7.42999 6.15005L5.57001 6.78006C5.06001 6.95006 4.65 7.31005 4.42 7.79005C4.18 8.27005 4.15001 8.81007 4.32001 9.32007L5.28 12.1601C5.56 12.9901 6.33999 13.5201 7.17999 13.5201C7.38999 13.5201 7.61001 13.4901 7.82001 13.4101L9.67999 12.7801C10.16 12.6201 10.52 12.2301 10.65 11.7501L10.91 10.7801L16.09 9.03006L16.88 9.64006C17.28 9.95006 17.8 10.0301 18.28 9.87005L20.14 9.24006C21.18 8.89006 21.75 7.75006 21.39 6.71006V6.70005ZM19.82 8.29005L17.96 8.92006C17.8 8.97006 17.63 8.94005 17.49 8.84005L16.61 8.16006C16.4 8.00006 16.12 7.95005 15.87 8.04005L10.49 9.86006C10.24 9.95006 10.04 10.1501 9.97 10.4101L9.67999 11.4801C9.63999 11.6401 9.52 11.7701 9.36 11.8201L7.5 12.4501C6.98 12.6301 6.41 12.3401 6.23 11.8201L5.27 8.98005C5.18 8.73005 5.20001 8.46006 5.32001 8.22006C5.44001 7.98006 5.63999 7.80006 5.89999 7.72006L7.75999 7.09005C7.80999 7.07005 7.87 7.06006 7.92 7.06006C8.03 7.06006 8.14 7.10006 8.22 7.16006L9.10001 7.84005C9.31001 8.01005 9.59001 8.05006 9.85001 7.97006L15.23 6.15005C15.48 6.06005 15.68 5.86006 15.75 5.60006L16.04 4.53006C16.08 4.37006 16.2 4.24006 16.36 4.19006L18.22 3.56006C18.47 3.47006 18.74 3.49006 18.98 3.61006C19.22 3.73006 19.4 3.93006 19.48 4.19006L20.44 7.03006C20.62 7.55006 20.34 8.12006 19.81 8.30006L19.82 8.29005Z" />
</svg>
