<svg viewBox="0 0 24 24" fill="currentColor" stroke="currentColor" xmlns="http://www.w3.org/2000/svg">
<path d="M19.25 4.79001L16 3.54001C16 3.54001 15.99 3.46001 15.97 3.42001C15.73 2.85001 15.2 2.48999 14.58 2.48999H9.41C8.79 2.48999 8.26 2.84001 8.02 3.42001C8 3.46001 8 3.50001 7.99 3.54001L4.74 4.79001C3.4 5.31001 2.49 6.62 2.49 8.06V14.19C2.49 14.86 2.82 15.48 3.38 15.86L5.42 17.22L4.5 20.88C4.46 21.03 4.5 21.19 4.59 21.31C4.68 21.43 4.83 21.5 4.98 21.5H18.98C19.13 21.5 19.28 21.43 19.37 21.31C19.46 21.19 19.5 21.03 19.46 20.88L18.55 17.22L20.59 15.86C21.15 15.49 21.48 14.87 21.48 14.2V8.06C21.48 6.62 20.58 5.31001 19.23 4.79001H19.25ZM9.41 3.5H14.58C14.89 3.5 15.01 3.74 15.04 3.81C15.07 3.88 15.15 4.14001 14.93 4.35001L11.99 7.29001L9.05 4.35001C8.83 4.13001 8.91 3.88 8.94 3.81C8.97 3.74 9.08999 3.5 9.39999 3.5H9.41ZM3.5 14.2V8.07001C3.5 7.04001 4.14 6.09999 5.1 5.73999L8.03999 4.60999C8.10999 4.77999 8.21001 4.94001 8.35001 5.07001L11.29 8.01001L6.5 12.8V9.01001C6.5 8.73001 6.28 8.51001 6 8.51001C5.72 8.51001 5.5 8.73001 5.5 9.01001V16.07L3.95 15.04C3.67 14.85 3.5 14.54 3.5 14.21V14.2ZM5.64 20.5L6.48 17.12C6.48 17.12 6.5 17.04 6.5 17V16.5H10.79L9.64 17.65C9.44 17.85 9.44 18.16 9.64 18.36C9.84 18.56 10.15 18.56 10.35 18.36L12 16.71L13.65 18.36C13.75 18.46 13.88 18.51 14 18.51C14.12 18.51 14.26 18.46 14.35 18.36C14.55 18.16 14.55 17.85 14.35 17.65L13.2 16.5H17.49V17C17.49 17 17.49 17.05 17.49 17.07C17.49 17.08 17.49 17.09 17.49 17.1C17.49 17.1 17.49 17.11 17.49 17.12L18.33 20.5H5.61H5.64ZM20.5 14.2C20.5 14.53 20.33 14.85 20.05 15.03L18.5 16.07V9C18.5 8.72 18.28 8.5 18 8.5C17.72 8.5 17.5 8.72 17.5 9V15.5H6.5V14.21L15.65 5.06C15.79 4.92 15.88 4.76001 15.96 4.60001L18.9 5.73001C19.86 6.10001 20.5 7.04 20.5 8.06V14.2Z" />
</svg>
