<svg viewBox="0 0 24 24" fill="currentColor" stroke="currentColor" xmlns="http://www.w3.org/2000/svg">
<path d="M22.5 12C22.5 11.31 22.43 10.65 22.3 10C22.3 9.99002 22.3 9.97002 22.3 9.96002C21.91 7.97002 20.95 6.19001 19.6 4.78001C19.58 4.74001 19.55 4.71002 19.51 4.69002C17.6 2.73002 14.94 1.51001 12 1.51001C9.06 1.51001 6.47001 2.69002 4.57001 4.60002C4.57001 4.60002 4.57 4.60002 4.56 4.61002C3.57 5.60002 2.79001 6.80001 2.26001 8.12001C2.24001 8.15001 2.24 8.18002 2.22 8.22002C1.76 9.40002 1.5 10.68 1.5 12.02C1.5 17.81 6.21 22.52 12 22.52C12.28 22.52 12.55 22.5 12.82 22.48C12.82 22.48 12.82 22.48 12.83 22.48C18.23 22.05 22.49 17.53 22.49 12.02L22.5 12ZM12.02 11.43C10.86 10.79 9.79001 10.01 8.82001 9.12001C11.33 6.79001 14.56 5.50002 18 5.50002C18.32 5.50002 18.63 5.52001 18.95 5.54001C19.99 6.66001 20.76 8.02001 21.17 9.54001C20.8 9.51001 20.41 9.50002 20 9.50002C17.21 9.50002 14.46 10.17 12.02 11.43ZM10.88 16.47C7.3 14.99 4.48001 12.01 3.23001 8.35002C3.63001 7.39002 4.18999 6.52002 4.85999 5.75002C6.44999 8.50002 8.71999 10.74 11.49 12.28C11.47 13.71 11.26 15.12 10.88 16.47ZM17.82 4.51001C14.18 4.55001 10.76 5.94001 8.10001 8.42001C7.12001 7.40001 6.27999 6.26001 5.57999 5.01001C7.26999 3.46001 9.51999 2.50002 11.99 2.50002C14.18 2.50002 16.2 3.25001 17.81 4.51001H17.82ZM2.5 12C2.5 11.27 2.59 10.56 2.75 9.87001C4.27 13.28 7.09999 16.02 10.58 17.43C10.15 18.66 9.56999 19.85 8.85999 20.95C5.16999 19.65 2.51001 16.13 2.51001 12H2.5ZM9.85001 21.25C10.62 20.03 11.23 18.72 11.66 17.36C11.66 17.36 11.67 17.35 11.68 17.34C11.68 17.32 11.68 17.31 11.68 17.29C12.18 15.7 12.45 14.03 12.48 12.32C13.73 11.68 15.06 11.2 16.44 10.9C16.47 11.29 16.49 11.66 16.49 12.01C16.49 15.59 15.1 18.94 12.59 21.48C12.39 21.49 12.19 21.51 11.99 21.51C11.25 21.51 10.53 21.42 9.84 21.26L9.85001 21.25ZM14.17 21.25C16.33 18.66 17.5 15.43 17.5 12.01C17.5 11.61 17.47 11.17 17.44 10.72C18.29 10.59 19.14 10.51 20 10.51C20.49 10.51 20.94 10.54 21.38 10.57C21.45 11.04 21.5 11.52 21.5 12.01C21.5 16.5 18.36 20.26 14.17 21.25Z" />
</svg>
