<svg viewBox="0 0 24 24" fill="currentColor" stroke="currentColor" xmlns="http://www.w3.org/2000/svg">
<path d="M13 5V3C13 2.72 13.22 2.5 13.5 2.5C13.78 2.5 14 2.72 14 3V5C14 5.28 13.78 5.5 13.5 5.5C13.22 5.5 13 5.28 13 5ZM16 6.25C16.13 6.25 16.26 6.20001 16.35 6.10001L17.35 5.10001C17.55 4.90001 17.55 4.59 17.35 4.39C17.15 4.19 16.84 4.19 16.64 4.39L15.64 5.39C15.44 5.59 15.44 5.90001 15.64 6.10001C15.74 6.20001 15.87 6.25 15.99 6.25H16ZM10.65 6.10001C10.75 6.20001 10.88 6.25 11 6.25C11.12 6.25 11.26 6.20001 11.35 6.10001C11.55 5.90001 11.55 5.59 11.35 5.39L10.35 4.39C10.15 4.19 9.84001 4.19 9.64001 4.39C9.44001 4.59 9.44001 4.90001 9.64001 5.10001L10.64 6.10001H10.65ZM10.77 13.23C11.24 13.7 11.5 14.33 11.5 15C11.5 15.67 11.24 16.3 10.77 16.77C10.28 17.26 9.64 17.5 9 17.5C8.36 17.5 7.71998 17.26 7.22998 16.77C6.75998 16.3 6.5 15.67 6.5 15C6.5 14.33 6.75998 13.7 7.22998 13.23C8.19998 12.25 9.79002 12.26 10.77 13.23ZM10.5 15C10.5 14.6 10.34 14.22 10.06 13.94C9.77 13.65 9.38 13.5 9 13.5C8.62 13.5 8.23 13.65 7.94 13.94C7.66 14.22 7.5 14.6 7.5 15C7.5 15.4 7.66 15.78 7.94 16.06C8.52 16.64 9.48 16.64 10.06 16.06C10.34 15.78 10.5 15.4 10.5 15ZM21.5 9.5V12.62C21.5 13.06 21.2 13.46 20.77 13.58L15.49 15.09C15.47 16.78 14.79 18.4 13.59 19.59C12.37 20.82 10.73 21.5 9 21.5C7.26 21.5 5.62997 20.82 4.40997 19.59C3.17997 18.37 2.5 16.73 2.5 15C2.5 13.7 2.88002 12.47 3.58002 11.41L3.09003 10.92C2.31003 10.14 2.31003 8.87 3.09003 8.09C3.87003 7.31 5.13998 7.31 5.91998 8.09L6.73999 8.91C7.44999 8.65 8.22 8.5 9 8.5H11.64C12.07 8.5 12.45 8.76999 12.59 9.17999L12.86 10H14.14L14.41 9.17999C14.55 8.76999 14.93 8.5 15.36 8.5H20.5C21.05 8.5 21.5 8.95 21.5 9.5ZM4.21002 10.62C4.28002 10.55 4.33997 10.47 4.40997 10.4C4.81997 9.98999 5.28002 9.64 5.77002 9.36L5.20001 8.78999C4.80001 8.38999 4.17998 8.38999 3.78998 8.78999C3.38998 9.18999 3.38998 9.81 3.78998 10.2L4.20001 10.61L4.21002 10.62ZM20.5 9.5H15.36L15.09 10.32C14.95 10.73 14.57 11 14.14 11H12.86C12.43 11 12.05 10.73 11.91 10.32L11.64 9.5H9C8.25 9.5 7.51998 9.65 6.84998 9.94C6.82998 9.95 6.80998 9.96 6.78998 9.97C6.16998 10.24 5.59999 10.62 5.10999 11.11C4.06999 12.15 3.48999 13.53 3.48999 15C3.48999 16.47 4.05999 17.85 5.10999 18.88C6.14999 19.92 7.53 20.5 9 20.5C10.47 20.5 11.85 19.93 12.88 18.88C13.98 17.79 14.56 16.28 14.49 14.74C14.48 14.51 14.63 14.3 14.85 14.23L20.5 12.61V9.49001V9.5Z" />
</svg>
