<svg viewBox="0 0 24 24" fill="currentColor" stroke="currentColor" xmlns="http://www.w3.org/2000/svg">
<path d="M12 2C6.477 2 2 6.477 2 12C2 17.523 6.477 22 12 22C17.523 22 22 17.523 22 12C22 6.477 17.523 2 12 2ZM16 14.75H8C7.586 14.75 7.25 14.414 7.25 14C7.25 13.586 7.586 13.25 8 13.25H16C16.414 13.25 16.75 13.586 16.75 14C16.75 14.414 16.414 14.75 16 14.75ZM16 10.75H8C7.586 10.75 7.25 10.414 7.25 10C7.25 9.586 7.586 9.25 8 9.25H16C16.414 9.25 16.75 9.586 16.75 10C16.75 10.414 16.414 10.75 16 10.75Z" />
</svg>
