<svg viewBox="0 0 24 24" fill="currentColor" stroke="currentColor" xmlns="http://www.w3.org/2000/svg">
<path d="M4.02002 14C2.91602 14 2.01501 13.104 2.01501 12C2.01501 10.896 2.90501 10 4.01001 10H4.02002C5.12402 10 6.02002 10.896 6.02002 12C6.02002 13.104 5.12502 14 4.02002 14ZM14.02 12C14.02 10.896 13.124 10 12.02 10H12.01C10.906 10 10.015 10.896 10.015 12C10.015 13.104 10.915 14 12.02 14C13.125 14 14.02 13.104 14.02 12ZM22.02 12C22.02 10.896 21.124 10 20.02 10H20.01C18.906 10 18.015 10.896 18.015 12C18.015 13.104 18.915 14 20.02 14C21.125 14 22.02 13.104 22.02 12Z" />
<path d="M4.02002 13.5C3.19102 13.5 2.51501 12.829 2.51501 12C2.51501 11.171 3.18201 10.5 4.01001 10.5H4.02002C4.84902 10.5 5.52002 11.171 5.52002 12C5.52002 12.829 4.84902 13.5 4.02002 13.5ZM12.02 13.5C11.191 13.5 10.515 12.829 10.515 12C10.515 11.171 11.182 10.5 12.01 10.5H12.02C12.849 10.5 13.52 11.171 13.52 12C13.52 12.829 12.849 13.5 12.02 13.5ZM20.02 13.5C19.191 13.5 18.515 12.829 18.515 12C18.515 11.171 19.182 10.5 20.01 10.5H20.02C20.849 10.5 21.52 11.171 21.52 12C21.52 12.829 20.849 13.5 20.02 13.5Z" />
</svg>
