<svg viewBox="0 0 24 24" fill="currentColor" stroke="currentColor" xmlns="http://www.w3.org/2000/svg">
<path d="M11.83 20.355C11.722 20.394 11.611 20.416 11.5 20.439V11.161C11.815 11.116 12.126 11.045 12.423 10.916L19.343 7.84101C19.437 8.10501 19.5 8.38002 19.5 8.66902V10.998C19.5 11.274 19.724 11.498 20 11.498C20.276 11.498 20.5 11.274 20.5 10.998V8.66902C20.5 8.06802 20.3381 7.49502 20.0601 6.98902C20.0581 6.98502 20.059 6.98002 20.057 6.97602C20.052 6.96502 20.043 6.95902 20.038 6.94902C19.676 6.31002 19.122 5.783 18.423 5.473L12.425 2.805C11.518 2.398 10.479 2.399 9.57703 2.804L3.57703 5.473C2.87903 5.783 2.32504 6.31002 1.96204 6.94902C1.95704 6.95902 1.94799 6.96502 1.94299 6.97602C1.94099 6.98002 1.94194 6.98502 1.93994 6.98902C1.66194 7.49502 1.5 8.06802 1.5 8.66902V15.326C1.5 16.707 2.31503 17.961 3.57703 18.522L9.57495 21.19C10.032 21.396 10.5171 21.499 11.0031 21.499C11.3971 21.499 11.791 21.431 12.17 21.294C12.43 21.2 12.5649 20.914 12.4709 20.654C12.3759 20.396 12.088 20.261 11.83 20.355ZM9.98499 3.719C10.629 3.43 11.369 3.42801 12.016 3.72001L18.016 6.38902C18.329 6.52802 18.585 6.74302 18.811 6.98402L15.64 8.39302L7.78699 4.69603L9.98499 3.719ZM3.98303 6.38801L6.57996 5.23301L14.432 8.929L12.019 10.001C11.373 10.283 10.629 10.284 9.98303 10.002L3.18799 6.98301C3.41399 6.74201 3.67003 6.52701 3.98303 6.38801ZM3.98303 17.609C3.08203 17.209 2.5 16.313 2.5 15.327V8.67002C2.5 8.38102 2.56298 8.10502 2.65698 7.84202L9.57996 10.918C9.87496 11.047 10.186 11.117 10.5 11.162V20.443C10.324 20.406 10.151 20.355 9.98303 20.279L3.98303 17.609ZM18 12.499C15.519 12.499 13.5 14.518 13.5 16.999C13.5 19.48 15.519 21.499 18 21.499C20.481 21.499 22.5 19.48 22.5 16.999C22.5 14.518 20.481 12.499 18 12.499ZM18 20.499C16.07 20.499 14.5 18.929 14.5 16.999C14.5 15.069 16.07 13.499 18 13.499C19.93 13.499 21.5 15.069 21.5 16.999C21.5 18.929 19.93 20.499 18 20.499ZM19.354 16.352L18.708 16.998L19.354 17.644C19.549 17.839 19.549 18.156 19.354 18.351C19.256 18.449 19.128 18.497 19 18.497C18.872 18.497 18.744 18.448 18.646 18.351L18 17.705L17.354 18.351C17.256 18.449 17.128 18.497 17 18.497C16.872 18.497 16.744 18.448 16.646 18.351C16.451 18.156 16.451 17.839 16.646 17.644L17.292 16.998L16.646 16.352C16.451 16.157 16.451 15.84 16.646 15.645C16.841 15.45 17.158 15.45 17.353 15.645L17.999 16.291L18.645 15.645C18.84 15.45 19.1571 15.45 19.3521 15.645C19.5471 15.84 19.549 16.157 19.354 16.352Z" />
</svg>
