<svg viewBox="0 0 24 24" fill="currentColor" stroke="currentColor" xmlns="http://www.w3.org/2000/svg">
<path d="M11.83 20.355C11.722 20.394 11.611 20.416 11.5 20.439V11.161C11.815 11.116 12.126 11.045 12.423 10.916L19.343 7.84101C19.437 8.10501 19.5 8.38002 19.5 8.66902V10.998C19.5 11.274 19.724 11.498 20 11.498C20.276 11.498 20.5 11.274 20.5 10.998V8.66902C20.5 8.06802 20.3381 7.49502 20.0601 6.98902C20.0581 6.98502 20.059 6.98002 20.057 6.97602C20.052 6.96602 20.043 6.95902 20.038 6.94902C19.676 6.31002 19.121 5.783 18.423 5.473L12.425 2.805C11.518 2.398 10.479 2.399 9.57703 2.804L3.57703 5.473C2.87903 5.783 2.32404 6.31002 1.96204 6.95002C1.95704 6.96002 1.94799 6.966 1.94299 6.977C1.94099 6.981 1.94194 6.986 1.93994 6.99C1.66194 7.496 1.5 8.06902 1.5 8.67002V15.327C1.5 16.708 2.31503 17.962 3.57703 18.523L9.57495 21.191C10.032 21.397 10.5171 21.5 11.0031 21.5C11.3971 21.5 11.791 21.432 12.17 21.295C12.43 21.201 12.5649 20.915 12.4709 20.655C12.3759 20.396 12.087 20.261 11.83 20.355ZM9.98499 3.719C10.629 3.43 11.369 3.42801 12.016 3.72001L18.016 6.38902C18.329 6.52802 18.585 6.74302 18.811 6.98402L15.64 8.39302L7.78699 4.69603L9.98499 3.719ZM3.98303 6.38801L6.57996 5.23301L14.432 8.929L12.019 10.001C11.373 10.283 10.629 10.284 9.98303 10.002L3.18799 6.98301C3.41399 6.74201 3.67003 6.52701 3.98303 6.38801ZM3.98303 17.609C3.08203 17.209 2.5 16.313 2.5 15.327V8.67002C2.5 8.38102 2.56298 8.10502 2.65698 7.84202L9.57996 10.918C9.87496 11.047 10.186 11.117 10.5 11.162V20.443C10.325 20.406 10.151 20.355 9.98303 20.279L3.98303 17.609ZM18 12.499C15.519 12.499 13.5 14.518 13.5 16.999C13.5 19.48 15.519 21.499 18 21.499C20.481 21.499 22.5 19.48 22.5 16.999C22.5 14.518 20.481 12.499 18 12.499ZM18 20.499C16.07 20.499 14.5 18.929 14.5 16.999C14.5 15.069 16.07 13.499 18 13.499C19.93 13.499 21.5 15.069 21.5 16.999C21.5 18.929 19.93 20.499 18 20.499ZM19.604 15.812C19.799 16.007 19.799 16.324 19.604 16.519L17.937 18.186C17.843 18.28 17.716 18.332 17.583 18.332C17.45 18.332 17.323 18.279 17.229 18.186L16.396 17.353C16.201 17.158 16.201 16.841 16.396 16.646C16.591 16.451 16.908 16.451 17.103 16.646L17.582 17.126L18.895 15.813C19.092 15.617 19.408 15.617 19.604 15.812Z" />
</svg>
