<svg viewBox="0 0 24 24" fill="currentColor" stroke="currentColor" xmlns="http://www.w3.org/2000/svg">
<path d="M12.796 19.931L12.015 20.281C11.849 20.355 11.676 20.409 11.5 20.445V11.161C11.815 11.116 12.126 11.045 12.423 10.916L19.343 7.84202C19.437 8.10502 19.5 8.38102 19.5 8.67002V12C19.5 12.276 19.724 12.5 20 12.5C20.276 12.5 20.5 12.276 20.5 12V8.671C20.5 8.07 20.338 7.497 20.059 6.99C20.058 6.987 20.058 6.98302 20.057 6.97901C20.053 6.97002 20.045 6.965 20.041 6.956C19.679 6.315 19.124 5.78602 18.424 5.47502L12.426 2.80702C11.519 2.40002 10.48 2.40101 9.578 2.80601L3.578 5.47502C2.878 5.78602 2.32306 6.315 1.96106 6.956C1.95606 6.965 1.94797 6.97002 1.94397 6.97901C1.94197 6.98302 1.94302 6.987 1.94202 6.99C1.66302 7.497 1.50098 8.07 1.50098 8.671V15.329C1.50098 16.71 2.316 17.964 3.578 18.525L9.57605 21.193C10.029 21.396 10.514 21.498 11.001 21.498C11.488 21.498 11.973 21.396 12.425 21.193L13.205 20.843C13.457 20.73 13.57 20.434 13.457 20.182C13.343 19.931 13.046 19.818 12.796 19.931ZM9.98499 3.719C10.628 3.43 11.368 3.42801 12.016 3.72001L18.016 6.38902C18.329 6.52802 18.586 6.743 18.811 6.985L15.64 8.39302L7.78503 4.697L9.98499 3.719ZM3.98303 6.38801L6.578 5.23301L14.432 8.929L12.019 10.001C11.372 10.283 10.628 10.283 9.98303 10.002L3.18799 6.98402C3.41299 6.74302 3.67003 6.52801 3.98303 6.38801ZM3.98303 17.611C3.08203 17.211 2.5 16.315 2.5 15.329V8.671C2.5 8.382 2.56298 8.107 2.65698 7.843L9.57996 10.918C9.87496 11.047 10.186 11.117 10.5 11.162V20.446C10.324 20.41 10.15 20.356 9.98303 20.281L3.98303 17.611ZM22.354 20.643L20.652 18.941C21.075 18.372 21.334 17.676 21.334 16.914C21.334 15.03 19.802 13.498 17.918 13.498C16.034 13.498 14.501 15.03 14.501 16.914C14.501 18.798 16.034 20.33 17.918 20.33C18.679 20.33 19.3759 20.071 19.9449 19.648L21.647 21.35C21.745 21.448 21.873 21.496 22.001 21.496C22.129 21.496 22.257 21.447 22.355 21.35C22.549 21.155 22.549 20.838 22.354 20.643ZM15.5 16.914C15.5 15.582 16.584 14.498 17.917 14.498C19.249 14.498 20.333 15.582 20.333 16.914C20.333 18.246 19.249 19.33 17.917 19.33C16.584 19.33 15.5 18.246 15.5 16.914Z" />
</svg>
