<svg viewBox="0 0 24 24" fill="currentColor" stroke="currentColor" xmlns="http://www.w3.org/2000/svg">
<path d="M21.058 6.983C21.057 6.981 21.058 6.97901 21.057 6.97601C21.055 6.97101 21.05 6.967 21.047 6.962C20.685 6.315 20.127 5.78099 19.422 5.46799L13.422 2.80099C12.518 2.39999 11.483 2.39999 10.578 2.80099L4.578 5.46799C3.873 5.78099 3.315 6.315 2.953 6.962C2.95 6.967 2.94599 6.97101 2.94299 6.97601C2.94199 6.97801 2.94302 6.98 2.94202 6.983C2.66302 7.49 2.5 8.06398 2.5 8.66598V15.333C2.5 16.715 3.315 17.97 4.578 18.531L10.578 21.198C11.028 21.397 11.5099 21.497 11.9919 21.498C11.9949 21.498 11.997 21.499 12 21.499C12.003 21.499 12.0051 21.498 12.0081 21.498C12.4911 21.497 12.972 21.397 13.422 21.198L19.422 18.531C20.685 17.97 21.5 16.715 21.5 15.333V8.66598C21.5 8.06398 21.337 7.491 21.058 6.983ZM10.984 3.716C11.306 3.573 11.653 3.50101 12 3.50101C12.347 3.50101 12.693 3.573 13.016 3.716L19.016 6.38299C19.331 6.52299 19.588 6.739 19.814 6.983L16.641 8.393L8.78406 4.69501L10.984 3.716ZM4.98401 6.38199L7.57495 5.23001L15.432 8.92898L13.0179 10.002C12.3719 10.285 11.6281 10.285 10.9821 10.003L4.18506 6.98199C4.41206 6.73799 4.66901 6.52199 4.98401 6.38199ZM4.98401 17.618C4.08301 17.217 3.5 16.32 3.5 15.333V8.66598C3.5 8.37698 3.56301 8.103 3.65601 7.84L10.58 10.918C10.875 11.047 11.186 11.118 11.5 11.162V20.447C11.324 20.411 11.151 20.358 10.984 20.284L4.98401 17.618ZM20.5 15.333C20.5 16.32 19.917 17.217 19.016 17.618L13.016 20.285C12.849 20.359 12.676 20.412 12.5 20.448V11.163C12.815 11.118 13.126 11.047 13.423 10.918L16.13 9.715V11.891C16.13 12.167 16.354 12.391 16.63 12.391C16.906 12.391 17.13 12.167 17.13 11.891V9.26999L20.344 7.84201C20.437 8.10501 20.5 8.38 20.5 8.668V15.333Z" />
</svg>
