<svg viewBox="0 0 24 24" fill="currentColor" stroke="currentColor" xmlns="http://www.w3.org/2000/svg">
<path d="M20.125 11.5H17.176C17.387 11.134 17.5 10.676 17.5 10.125V3.875C17.5 2.344 16.656 1.5 15.125 1.5H8.875C7.344 1.5 6.5 2.344 6.5 3.875V10.125C6.5 10.676 6.61297 11.134 6.82397 11.5H3.875C2.344 11.5 1.5 12.344 1.5 13.875V20.125C1.5 21.656 2.344 22.5 3.875 22.5H10.125C10.972 22.5 11.6 22.233 12 21.743C12.4 22.233 13.028 22.5 13.875 22.5H20.125C21.656 22.5 22.5 21.656 22.5 20.125V13.875C22.5 12.344 21.656 11.5 20.125 11.5ZM16 12.5H18V15.066L17.277 14.584C17.109 14.472 16.89 14.472 16.722 14.584L15.999 15.066V12.5H16ZM11 2.5H13V5.06601L12.277 4.58401C12.109 4.47201 11.89 4.47201 11.722 4.58401L10.999 5.06601V2.5H11ZM7.5 3.875C7.5 2.898 7.898 2.5 8.875 2.5H10V6C10 6.184 10.102 6.35401 10.264 6.44101C10.427 6.52801 10.622 6.51899 10.778 6.41599L12.001 5.60101L13.224 6.41599C13.308 6.47199 13.405 6.5 13.501 6.5C13.582 6.5 13.6631 6.48001 13.7371 6.44101C13.8991 6.35401 14.001 6.184 14.001 6V2.5H15.126C16.103 2.5 16.501 2.898 16.501 3.875V10.125C16.501 11.102 16.103 11.5 15.126 11.5H13.876H10.126H8.87598C7.89898 11.5 7.50098 11.102 7.50098 10.125V3.875H7.5ZM6 12.5H8V15.066L7.27698 14.584C7.10898 14.472 6.89005 14.472 6.72205 14.584L5.99902 15.066V12.5H6ZM10.125 21.5H3.875C2.898 21.5 2.5 21.102 2.5 20.125V13.875C2.5 12.898 2.898 12.5 3.875 12.5H5V16C5 16.184 5.10204 16.354 5.26404 16.441C5.42704 16.528 5.62295 16.519 5.77795 16.416L7.00098 15.601L8.224 16.416C8.308 16.472 8.40498 16.5 8.50098 16.5C8.58198 16.5 8.66306 16.48 8.73706 16.441C8.89906 16.354 9.00098 16.184 9.00098 16V12.5H10.126C11.103 12.5 11.501 12.898 11.501 13.875V20.125C11.5 21.102 11.102 21.5 10.125 21.5ZM21.5 20.125C21.5 21.102 21.102 21.5 20.125 21.5H13.875C12.898 21.5 12.5 21.102 12.5 20.125V13.875C12.5 12.898 12.898 12.5 13.875 12.5H15V16C15 16.184 15.102 16.354 15.264 16.441C15.427 16.528 15.622 16.519 15.778 16.416L17.001 15.601L18.224 16.416C18.308 16.472 18.405 16.5 18.501 16.5C18.582 16.5 18.6631 16.48 18.7371 16.441C18.8991 16.354 19.001 16.184 19.001 16V12.5H20.126C21.103 12.5 21.501 12.898 21.501 13.875V20.125H21.5Z" />
</svg>
