<svg viewBox="0 0 24 24" fill="currentColor" stroke="currentColor" xmlns="http://www.w3.org/2000/svg">
<path d="M21 10.5H21.5V7C21.5 4.71 20.29 3.5 18 3.5H6C3.71 3.5 2.5 4.71 2.5 7V10.5H3C3.827 10.5 4.5 11.173 4.5 12C4.5 12.827 3.827 13.5 3 13.5H2.5V17C2.5 19.29 3.71 20.5 6 20.5H18C20.29 20.5 21.5 19.29 21.5 17V13.5H21C20.173 13.5 19.5 12.827 19.5 12C19.5 11.173 20.173 10.5 21 10.5ZM20.5 14.45V17C20.5 18.729 19.729 19.5 18 19.5H6C4.271 19.5 3.5 18.729 3.5 17V14.45C4.64 14.218 5.5 13.208 5.5 12C5.5 10.792 4.64 9.78199 3.5 9.54999V7C3.5 5.271 4.271 4.5 6 4.5H18C19.729 4.5 20.5 5.271 20.5 7V9.54999C19.36 9.78199 18.5 10.792 18.5 12C18.5 13.208 19.36 14.218 20.5 14.45ZM14.854 9.854L9.854 14.854C9.756 14.952 9.628 15 9.5 15C9.372 15 9.244 14.951 9.146 14.854C8.951 14.659 8.951 14.342 9.146 14.147L14.146 9.147C14.341 8.952 14.658 8.952 14.853 9.147C15.048 9.342 15.049 9.658 14.854 9.854ZM9.50403 10.25C9.09303 10.25 8.75 9.914 8.75 9.5C8.75 9.086 9.07701 8.75 9.48901 8.75H9.50403C9.91703 8.75 10.25 9.086 10.25 9.5C10.25 9.914 9.91603 10.25 9.50403 10.25ZM15.25 14.5C15.25 14.914 14.916 15.25 14.504 15.25C14.093 15.25 13.75 14.914 13.75 14.5C13.75 14.086 14.077 13.75 14.489 13.75H14.504C14.916 13.75 15.25 14.086 15.25 14.5Z" />
</svg>
