<svg viewBox="0 0 24 24" fill="currentColor" stroke="currentColor" xmlns="http://www.w3.org/2000/svg">
<path d="M21 10.5H21.5V7C21.5 4.71 20.29 3.5 18 3.5H6C3.71 3.5 2.5 4.71 2.5 7V10.5H3C3.827 10.5 4.5 11.173 4.5 12C4.5 12.827 3.827 13.5 3 13.5H2.5V17C2.5 19.29 3.71 20.5 6 20.5H18C20.29 20.5 21.5 19.29 21.5 17V13.5H21C20.173 13.5 19.5 12.827 19.5 12C19.5 11.173 20.173 10.5 21 10.5ZM20.5 14.45V17C20.5 18.729 19.729 19.5 18 19.5H15.5V16.5C15.5 16.224 15.276 16 15 16C14.724 16 14.5 16.224 14.5 16.5V19.5H6C4.271 19.5 3.5 18.729 3.5 17V14.45C4.64 14.218 5.5 13.208 5.5 12C5.5 10.792 4.64 9.78199 3.5 9.54999V7C3.5 5.271 4.271 4.5 6 4.5H14.5V7.5C14.5 7.776 14.724 8 15 8C15.276 8 15.5 7.776 15.5 7.5V4.5H18C19.729 4.5 20.5 5.271 20.5 7V9.54999C19.36 9.78199 18.5 10.792 18.5 12C18.5 13.208 19.36 14.218 20.5 14.45ZM15.5 10.75V13.25C15.5 13.526 15.276 13.75 15 13.75C14.724 13.75 14.5 13.526 14.5 13.25V10.75C14.5 10.474 14.724 10.25 15 10.25C15.276 10.25 15.5 10.474 15.5 10.75Z" />
</svg>
