<svg viewBox="0 0 24 24" fill="currentColor" stroke="currentColor" xmlns="http://www.w3.org/2000/svg">
<path d="M21 10.5H21.5V7C21.5 4.71 20.29 3.5 18 3.5H6C3.71 3.5 2.5 4.71 2.5 7V10.5H3C3.827 10.5 4.5 11.173 4.5 12C4.5 12.827 3.827 13.5 3 13.5H2.5V17C2.5 19.29 3.71 20.5 6 20.5H18C20.29 20.5 21.5 19.29 21.5 17V13.5H21C20.173 13.5 19.5 12.827 19.5 12C19.5 11.173 20.173 10.5 21 10.5ZM20.5 14.45V17C20.5 18.729 19.729 19.5 18 19.5H6C4.271 19.5 3.5 18.729 3.5 17V14.45C4.64 14.218 5.5 13.208 5.5 12C5.5 10.792 4.64 9.78199 3.5 9.54999V7C3.5 5.271 4.271 4.5 6 4.5H18C19.729 4.5 20.5 5.271 20.5 7V9.54999C19.36 9.78199 18.5 10.792 18.5 12C18.5 13.208 19.36 14.218 20.5 14.45ZM15.916 10.191L13.818 9.901L12.902 8.05801C12.56 7.36901 11.438 7.37001 11.098 8.05801L10.201 9.88599L8.08398 10.191C7.71398 10.244 7.41197 10.498 7.29797 10.854C7.18297 11.208 7.27802 11.589 7.54602 11.848L9.06702 13.3L8.71802 15.323C8.65202 15.701 8.80401 16.077 9.11401 16.304C9.42601 16.532 9.83303 16.563 10.176 16.384L11.988 15.427L13.824 16.385C13.972 16.462 14.133 16.5 14.292 16.5C14.5 16.5 14.707 16.435 14.885 16.306C15.196 16.08 15.348 15.704 15.282 15.326L14.924 13.328L16.454 11.848C16.722 11.589 16.817 11.208 16.702 10.854C16.588 10.499 16.286 10.245 15.916 10.191ZM14.229 12.608C13.998 12.831 13.891 13.153 13.947 13.47L14.287 15.498L12.451 14.54C12.309 14.467 12.155 14.43 12 14.43C11.845 14.43 11.6899 14.467 11.549 14.54L9.70398 15.494L10.054 13.47C10.109 13.153 10.002 12.831 9.77197 12.609L8.22705 11.181L10.344 10.876C10.659 10.831 10.934 10.633 11.076 10.347L12.004 8.5C12.004 8.5 12.005 8.50099 12.006 8.50299H12.007L12.924 10.347C13.0669 10.632 13.341 10.83 13.656 10.875L15.759 11.128L14.229 12.608Z" />
</svg>
