<svg viewBox="0 0 24 24" fill="currentColor" stroke="currentColor" xmlns="http://www.w3.org/2000/svg">
<path d="M21 10.5H21.5V7C21.5 4.71 20.29 3.5 18 3.5H6C3.71 3.5 2.5 4.71 2.5 7V10.5H3C3.827 10.5 4.5 11.173 4.5 12C4.5 12.827 3.827 13.5 3 13.5H2.5V17C2.5 19.29 3.71 20.5 6 20.5H18C20.29 20.5 21.5 19.29 21.5 17V13.5H21C20.173 13.5 19.5 12.827 19.5 12C19.5 11.173 20.173 10.5 21 10.5ZM20.5 14.45V17C20.5 18.729 19.729 19.5 18 19.5H6C4.271 19.5 3.5 18.729 3.5 17V14.45C4.64 14.218 5.5 13.208 5.5 12C5.5 10.792 4.64 9.78199 3.5 9.54999V7C3.5 5.271 4.271 4.5 6 4.5H18C19.729 4.5 20.5 5.271 20.5 7V9.54999C19.36 9.78199 18.5 10.792 18.5 12C18.5 13.208 19.36 14.218 20.5 14.45ZM13.77 7.75C13.766 7.75 13.7621 7.75 13.7581 7.75C12.9061 7.75 12.346 8.17099 12 8.58899C11.652 8.16899 11.068 7.742 10.229 7.75C9.382 7.754 8.67403 8.07399 8.18103 8.67599C7.58603 9.40199 7.36301 10.51 7.58301 11.639C8.14801 14.528 11.645 16.138 11.793 16.205C11.858 16.235 11.929 16.249 11.999 16.249C12.069 16.249 12.14 16.234 12.205 16.205C12.353 16.138 15.85 14.528 16.415 11.639C16.635 10.508 16.412 9.39999 15.817 8.67499C15.325 8.07399 14.617 7.754 13.77 7.75ZM15.434 11.448C15.039 13.469 12.712 14.822 12 15.192C11.288 14.822 8.96094 13.469 8.56494 11.448C8.40094 10.608 8.54596 9.809 8.95496 9.31C9.25796 8.941 9.68703 8.753 10.233 8.75C10.236 8.75 10.238 8.75 10.24 8.75C11.173 8.75 11.512 9.68999 11.526 9.72699C11.593 9.92999 11.7829 10.065 11.9969 10.066C11.9979 10.066 11.999 10.066 12.001 10.066C12.213 10.066 12.402 9.93001 12.473 9.73001C12.488 9.69001 12.827 8.75 13.759 8.75C13.761 8.75 13.763 8.75 13.766 8.75C14.313 8.753 14.743 8.94099 15.045 9.30899C15.452 9.80699 15.599 10.606 15.434 11.448Z" />
</svg>
