<svg viewBox="0 0 24 24" fill="currentColor" stroke="currentColor" xmlns="http://www.w3.org/2000/svg">
<path d="M9.72092 12.809C10.0719 14.798 11.133 15.8 12.883 15.8C13.188 15.8 13.514 15.77 13.862 15.708L17.4959 15.067C18.6729 14.86 19.4829 14.418 19.9749 13.716C20.4669 13.014 20.604 12.102 20.396 10.925L19.755 7.291C19.548 6.115 19.106 5.304 18.404 4.813C17.702 4.322 16.79 4.185 15.614 4.392L11.98 5.03301C10.803 5.24101 9.99295 5.682 9.50095 6.384C9.00895 7.086 8.87193 7.998 9.07993 9.175L9.72092 12.809ZM10.3199 6.95799C10.6509 6.48499 11.2509 6.178 12.1529 6.019L15.787 5.37801C16.082 5.32601 16.351 5.3 16.598 5.3C17.105 5.3 17.5119 5.411 17.8299 5.634C18.3029 5.965 18.61 6.565 18.769 7.467L19.41 11.101C19.569 12.003 19.485 12.671 19.154 13.144C18.823 13.617 18.223 13.924 17.321 14.083L13.687 14.724C11.913 15.037 11.0189 14.412 10.7049 12.635L10.0639 9.00101C9.90494 8.10001 9.98892 7.43099 10.3199 6.95799ZM20.9129 16.288L10.3409 18.149C10.0479 17.345 9.361 16.73 8.50901 16.553L6.40293 4.564C6.16493 3.21 4.86393 2.299 3.50693 2.538L2.91696 2.638C2.64596 2.684 2.46203 2.942 2.50803 3.215C2.55503 3.488 2.81893 3.67099 3.08493 3.62399L3.67697 3.523C4.49597 3.38 5.27592 3.925 5.41892 4.737L7.49497 16.552C6.35797 16.786 5.50095 17.795 5.50095 19C5.50095 20.378 6.62195 21.5 8.00095 21.5C9.33195 21.5 10.413 20.452 10.487 19.139L21.088 17.273C21.359 17.225 21.541 16.966 21.493 16.694C21.445 16.421 21.1769 16.24 20.9129 16.288ZM7.99997 20.5C7.17297 20.5 6.49997 19.827 6.49997 19C6.49997 18.173 7.17297 17.5 7.99997 17.5C8.82697 17.5 9.49997 18.173 9.49997 19C9.49997 19.827 8.82697 20.5 7.99997 20.5Z" />
</svg>
