<svg viewBox="0 0 24 24" fill="currentColor" stroke="currentColor" xmlns="http://www.w3.org/2000/svg">
<path d="M13.0589 11.212C12.8329 11.053 12.7799 10.741 12.9389 10.516C13.0969 10.289 13.41 10.237 13.635 10.395L14.3719 10.915L13.8879 8.17C13.8399 7.898 14.0219 7.639 14.2929 7.59C14.5609 7.542 14.8239 7.72301 14.8719 7.99601L15.359 10.753L15.894 9.99401C16.053 9.76801 16.3649 9.715 16.5899 9.874C16.8149 10.033 16.8689 10.345 16.7099 10.57L15.485 12.308C15.485 12.308 15.485 12.308 15.485 12.309L15.484 12.31C15.483 12.311 15.4809 12.311 15.4809 12.313C15.4389 12.371 15.3829 12.417 15.3199 12.453C15.2969 12.466 15.273 12.472 15.249 12.481C15.22 12.492 15.1949 12.509 15.1629 12.515C15.1339 12.52 15.105 12.522 15.077 12.522C15.077 12.522 15.077 12.522 15.076 12.522C14.98 12.522 14.891 12.488 14.813 12.439C14.806 12.434 14.7959 12.436 14.7889 12.431L13.0589 11.212ZM9.07992 9.17501C8.87192 7.99901 9.00994 7.08601 9.50095 6.38401C9.99195 5.68201 10.8029 5.24101 11.9799 5.03301L15.614 4.392C16.791 4.185 17.703 4.32201 18.404 4.81301C19.105 5.30401 19.548 6.115 19.755 7.291L20.396 10.925C20.604 12.101 20.4659 13.014 19.9749 13.716C19.4839 14.418 18.6729 14.86 17.4959 15.067L13.862 15.708C13.514 15.77 13.188 15.8 12.883 15.8C11.133 15.8 10.0709 14.798 9.72092 12.809L9.07992 9.17501ZM10.0639 9.00101L10.7049 12.635C11.0189 14.412 11.912 15.037 13.687 14.724L17.321 14.083C18.223 13.924 18.823 13.616 19.154 13.144C19.485 12.671 19.569 12.002 19.41 11.101L18.769 7.467C18.61 6.565 18.3019 5.96601 17.8299 5.63401C17.5119 5.41101 17.104 5.30001 16.598 5.30001C16.352 5.30001 16.082 5.32601 15.787 5.37801L12.1529 6.019C11.2509 6.178 10.6509 6.485 10.3199 6.958C9.98891 7.431 9.90493 8.10001 10.0639 9.00101ZM21.4919 16.693C21.5399 16.965 21.358 17.224 21.087 17.272L10.4859 19.138C10.4119 20.451 9.33097 21.499 7.99997 21.499C6.62097 21.499 5.49997 20.377 5.49997 18.999C5.49997 17.794 6.35699 16.785 7.49399 16.551L5.41794 4.736C5.27394 3.924 4.49499 3.37901 3.67599 3.52201L3.08395 3.623C2.81895 3.67 2.55393 3.48701 2.50693 3.21401C2.46093 2.94201 2.64498 2.684 2.91598 2.637L3.50595 2.53701C4.86195 2.29901 6.16395 3.20901 6.40195 4.56301L8.50803 16.552C9.36003 16.729 10.0469 17.344 10.3399 18.148L20.912 16.287C21.177 16.24 21.4449 16.421 21.4919 16.693ZM9.49997 19C9.49997 18.173 8.82697 17.5 7.99997 17.5C7.17297 17.5 6.49997 18.173 6.49997 19C6.49997 19.827 7.17297 20.5 7.99997 20.5C8.82697 20.5 9.49997 19.827 9.49997 19Z" />
</svg>
