<svg viewBox="0 0 24 24" fill="currentColor" stroke="currentColor" xmlns="http://www.w3.org/2000/svg">
<path d="M12.885 10.228C12.659 10.069 12.606 9.75601 12.765 9.53101L13.99 7.79401C13.99 7.79401 13.9899 7.793 13.9909 7.793L13.9919 7.79201C13.9969 7.78501 14.005 7.782 14.01 7.775C14.045 7.731 14.0839 7.69 14.1319 7.659C14.1819 7.627 14.238 7.60701 14.296 7.59501C14.302 7.59401 14.307 7.589 14.313 7.588C14.439 7.566 14.574 7.59201 14.688 7.67101L16.417 8.88901C16.643 9.04801 16.696 9.361 16.537 9.586C16.379 9.812 16.0659 9.865 15.8409 9.706L15.104 9.18601L15.588 11.931C15.636 12.203 15.454 12.462 15.183 12.51C15.154 12.515 15.1239 12.518 15.0949 12.518C14.8579 12.518 14.647 12.347 14.604 12.105L14.1169 9.34801L13.582 10.106C13.485 10.245 13.3299 10.318 13.1739 10.318C13.0729 10.318 12.973 10.289 12.885 10.228ZM9.07992 9.17501C8.87192 7.99901 9.00994 7.08601 9.50095 6.38401C9.99195 5.68201 10.8029 5.24101 11.9799 5.03301L15.614 4.392C17.96 3.979 19.343 4.95701 19.755 7.29201L20.396 10.926C20.604 12.102 20.4659 13.015 19.9749 13.717C19.4839 14.419 18.6729 14.86 17.4959 15.068L13.862 15.709C13.514 15.771 13.188 15.801 12.883 15.801C11.133 15.801 10.0709 14.799 9.72092 12.81L9.07992 9.17501ZM10.0639 9.00101L10.7049 12.635C11.0189 14.412 11.913 15.037 13.687 14.724L17.321 14.083C18.223 13.924 18.823 13.617 19.154 13.144C19.485 12.671 19.569 12.002 19.41 11.101L18.769 7.467C18.455 5.69 17.562 5.065 15.787 5.379L12.1529 6.02001C11.2509 6.17901 10.6509 6.486 10.3199 6.959C9.98891 7.431 9.90493 8.10001 10.0639 9.00101ZM21.4919 16.693C21.5399 16.965 21.358 17.224 21.087 17.272L10.4859 19.138C10.4119 20.451 9.33097 21.499 7.99997 21.499C6.62097 21.499 5.49997 20.377 5.49997 18.999C5.49997 17.794 6.35699 16.785 7.49399 16.551L5.41794 4.736C5.27394 3.924 4.49899 3.37901 3.67599 3.52201L3.08395 3.623C2.82195 3.67 2.55393 3.48701 2.50693 3.21401C2.46093 2.94201 2.64498 2.684 2.91598 2.637L3.50595 2.53701C4.86695 2.29901 6.16395 3.20901 6.40195 4.56301L8.50803 16.552C9.36003 16.729 10.0469 17.344 10.3399 18.148L20.912 16.287C21.181 16.24 21.4449 16.421 21.4919 16.693ZM9.49997 19C9.49997 18.173 8.82697 17.5 7.99997 17.5C7.17297 17.5 6.49997 18.173 6.49997 19C6.49997 19.827 7.17297 20.5 7.99997 20.5C8.82697 20.5 9.49997 19.827 9.49997 19Z" />
</svg>
