<svg viewBox="0 0 24 24" fill="currentColor" stroke="currentColor" xmlns="http://www.w3.org/2000/svg">
<path d="M18.5 2.5H5.5C4.397 2.5 3.5 3.397 3.5 4.5V6.75699C3.5 7.29099 3.70806 7.79299 4.08606 8.17099L9.20703 13.292C9.39503 13.481 9.5 13.732 9.5 13.999V17.999C9.5 18.156 9.57395 18.305 9.69995 18.399L13.7 21.399C13.788 21.465 13.893 21.499 14 21.499C14.076 21.499 14.153 21.482 14.224 21.446C14.393 21.361 14.5 21.188 14.5 20.999V13.999C14.5 13.732 14.604 13.481 14.793 13.292L19.9139 8.17099C20.2919 7.79299 20.5 7.29099 20.5 6.75699V4.5C20.5 3.397 19.603 2.5 18.5 2.5ZM19.5 6.75699C19.5 7.02399 19.396 7.27499 19.207 7.46399L14.0861 12.585C13.7081 12.963 13.5 13.465 13.5 13.999V19.999L10.5 17.749V14C10.5 13.466 10.2919 12.964 9.91394 12.586L4.79297 7.465C4.60497 7.276 4.5 7.025 4.5 6.758V4.5C4.5 3.948 4.948 3.5 5.5 3.5H18.5C19.052 3.5 19.5 3.948 19.5 4.5V6.75699Z" />
</svg>
