<svg viewBox="0 0 24 24" fill="currentColor" stroke="currentColor" xmlns="http://www.w3.org/2000/svg">
<path d="M18.75 13C18.75 13.276 18.526 13.5 18.25 13.5H17.5V14.25C17.5 14.526 17.276 14.75 17 14.75C16.724 14.75 16.5 14.526 16.5 14.25V13.5H15.75C15.474 13.5 15.25 13.276 15.25 13C15.25 12.724 15.474 12.5 15.75 12.5H16.5V11.75C16.5 11.474 16.724 11.25 17 11.25C17.276 11.25 17.5 11.474 17.5 11.75V12.5H18.25C18.526 12.5 18.75 12.724 18.75 13ZM21.5 13C21.5 15.481 19.481 17.5 17 17.5C16.075 17.5 15.216 17.218 14.5 16.738V21C14.5 21.189 14.393 21.363 14.224 21.447C14.154 21.482 14.077 21.5 14 21.5C13.894 21.5 13.788 21.466 13.7 21.4L9.69995 18.4C9.57395 18.306 9.5 18.158 9.5 18V14C9.5 13.734 9.39605 13.483 9.20605 13.294L4.08704 8.17401C3.70804 7.79601 3.5 7.29401 3.5 6.76001V4.5C3.5 3.397 4.397 2.5 5.5 2.5H18.5C19.603 2.5 20.5 3.397 20.5 4.5V6.76001C20.5 7.29301 20.292 7.79601 19.913 8.17401L19.063 9.02399C20.504 9.77499 21.5 11.266 21.5 13ZM13.5 20V15.793C12.884 15.023 12.5 14.06 12.5 13C12.5 10.519 14.519 8.5 17 8.5C17.359 8.5 17.704 8.553 18.04 8.633L19.2061 7.466C19.3951 7.277 19.5 7.026 19.5 6.759V4.49899C19.5 3.94699 19.052 3.49899 18.5 3.49899H5.5C4.948 3.49899 4.5 3.94699 4.5 4.49899V6.759C4.5 7.025 4.60395 7.276 4.79395 7.465L9.91296 12.585C10.292 12.963 10.5 13.465 10.5 13.999V17.749L13.5 20ZM20.5 13C20.5 11.07 18.93 9.5 17 9.5C15.07 9.5 13.5 11.07 13.5 13C13.5 14.93 15.07 16.5 17 16.5C18.93 16.5 20.5 14.93 20.5 13Z" />
</svg>
