<svg viewBox="0 0 24 24" fill="currentColor" stroke="currentColor" xmlns="http://www.w3.org/2000/svg">
<path d="M19.063 9.02399L19.913 8.17401C20.292 7.79601 20.5 7.29401 20.5 6.76001V4.5C20.5 3.397 19.603 2.5 18.5 2.5H5.5C4.397 2.5 3.5 3.397 3.5 4.5V6.76001C3.5 7.29301 3.70804 7.79601 4.08704 8.17401L9.20605 13.294C9.39505 13.483 9.5 13.734 9.5 14V18C9.5 18.157 9.57395 18.306 9.69995 18.4L13.7 21.4C13.788 21.466 13.893 21.5 14 21.5C14.076 21.5 14.153 21.483 14.224 21.447C14.393 21.362 14.5 21.189 14.5 21V16.738C15.216 17.218 16.075 17.5 17 17.5C19.481 17.5 21.5 15.481 21.5 13C21.5 11.266 20.504 9.77499 19.063 9.02399ZM10.5 17.75V14C10.5 13.467 10.292 12.964 9.91296 12.586L4.79395 7.466C4.60495 7.277 4.5 7.02601 4.5 6.76001V4.5C4.5 3.948 4.948 3.5 5.5 3.5H18.5C19.052 3.5 19.5 3.948 19.5 4.5V6.76001C19.5 7.02601 19.3961 7.27701 19.2061 7.46701L18.04 8.634C17.705 8.554 17.36 8.50101 17 8.50101C14.519 8.50101 12.5 10.52 12.5 13.001C12.5 14.062 12.884 15.024 13.5 15.794V20L10.5 17.75ZM17 16.5C15.07 16.5 13.5 14.93 13.5 13C13.5 11.07 15.07 9.5 17 9.5C18.93 9.5 20.5 11.07 20.5 13C20.5 14.93 18.93 16.5 17 16.5ZM18.604 11.813C18.799 12.008 18.799 12.325 18.604 12.52L16.937 14.187C16.843 14.281 16.716 14.333 16.583 14.333C16.45 14.333 16.323 14.28 16.229 14.187L15.396 13.354C15.201 13.159 15.201 12.842 15.396 12.647C15.591 12.452 15.908 12.452 16.103 12.647L16.582 13.127L17.895 11.814C18.092 11.618 18.408 11.618 18.604 11.813Z" />
</svg>
