<svg viewBox="0 0 24 24" fill="currentColor" stroke="currentColor" xmlns="http://www.w3.org/2000/svg">
<path d="M19.5 6.5H17.9871C18.3041 6.081 18.5 5.565 18.5 5C18.5 3.622 17.379 2.5 16 2.5C15.253 2.5 14.551 2.83303 14.069 3.41803C14.039 3.45503 12.69 5.25003 12 6.16803C11.309 5.24903 9.95903 3.45299 9.92603 3.41199C9.44903 2.83199 8.747 2.5 8 2.5C6.621 2.5 5.5 3.622 5.5 5C5.5 5.565 5.69494 6.081 6.01294 6.5H4.5C3.397 6.5 2.5 7.397 2.5 8.5V12C2.5 12.276 2.724 12.5 3 12.5H3.5V18C3.5 20.29 4.71 21.5 7 21.5H17C19.29 21.5 20.5 20.29 20.5 18V12.5H21C21.276 12.5 21.5 12.276 21.5 12V8.5C21.5 7.397 20.603 6.5 19.5 6.5ZM14.8459 4.04797C15.1329 3.69997 15.553 3.5 16 3.5C16.827 3.5 17.5 4.173 17.5 5C17.5 5.827 16.827 6.5 16 6.5H13.001C13.709 5.558 14.7959 4.11297 14.8459 4.04797ZM6.5 5C6.5 4.173 7.173 3.5 8 3.5C8.447 3.5 8.867 3.70002 9.146 4.03802C9.202 4.11002 10.29 5.558 10.999 6.5H8C7.173 6.5 6.5 5.827 6.5 5ZM3.5 8.5C3.5 7.948 3.948 7.5 4.5 7.5H8H11.5V11.5H3.5V8.5ZM4.5 18V12.5H11.5V20.5H7C5.271 20.5 4.5 19.729 4.5 18ZM19.5 18C19.5 19.729 18.729 20.5 17 20.5H12.5V12.5H19.5V18ZM20.5 11.5H12.5V7.5H16H19.5C20.052 7.5 20.5 7.948 20.5 8.5V11.5Z" />
</svg>
