<svg viewBox="0 0 24 24" fill="currentColor" stroke="currentColor" xmlns="http://www.w3.org/2000/svg">
<path d="M20 2.5H16C15.173 2.5 14.5 3.173 14.5 4V12C14.5 13.378 13.379 14.5 12 14.5C10.621 14.5 9.5 13.378 9.5 12V4C9.5 3.173 8.827 2.5 8 2.5H4C3.173 2.5 2.5 3.173 2.5 4V12C2.5 17.238 6.762 21.5 12 21.5C17.238 21.5 21.5 17.238 21.5 12V4C21.5 3.173 20.827 2.5 20 2.5ZM16 3.5H20C20.275 3.5 20.5 3.724 20.5 4V7.5H15.5V4C15.5 3.724 15.725 3.5 16 3.5ZM4 3.5H8C8.275 3.5 8.5 3.724 8.5 4V7.5H3.5V4C3.5 3.724 3.725 3.5 4 3.5ZM12 20.5C7.313 20.5 3.5 16.687 3.5 12V8.5H8.5V12C8.5 13.93 10.07 15.5 12 15.5C13.93 15.5 15.5 13.93 15.5 12V8.5H20.5V12C20.5 16.687 16.687 20.5 12 20.5Z" />
</svg>
