<svg viewBox="0 0 24 24" fill="currentColor" stroke="currentColor" xmlns="http://www.w3.org/2000/svg">
<path d="M21.438 2.759C21.35 2.599 21.182 2.5 21 2.5H16C15.829 2.5 15.67 2.58699 15.578 2.73199L12.53 7.52701C12.354 7.51401 12.179 7.5 12 7.5C11.821 7.5 11.646 7.51401 11.47 7.52701L8.422 2.73199C8.33 2.58799 8.171 2.5 8 2.5H3C2.817 2.5 2.64901 2.599 2.56201 2.759C2.47501 2.919 2.48098 3.11401 2.57898 3.26801L6.77002 9.86499C5.67302 11.101 5.00098 12.722 5.00098 14.5C5.00098 18.36 8.14198 21.5 12.001 21.5C15.86 21.5 19.001 18.36 19.001 14.5C19.001 12.722 18.3291 11.101 17.2321 9.86499L21.423 3.26801C21.52 3.11401 21.526 2.919 21.438 2.759ZM7.72595 3.5L10.392 7.694C9.30997 7.95 8.32302 8.45401 7.49902 9.14801L3.91101 3.5H7.72595ZM12 20.5C8.691 20.5 6 17.808 6 14.5C6 11.192 8.691 8.5 12 8.5C15.309 8.5 18 11.192 18 14.5C18 17.808 15.309 20.5 12 20.5ZM16.502 9.14801C15.678 8.45401 14.691 7.95 13.609 7.694L16.275 3.5H20.09L16.502 9.14801ZM14.854 12.48C15.049 12.675 15.049 12.992 14.854 13.187L11.521 16.52C11.427 16.614 11.3 16.666 11.167 16.666C11.034 16.666 10.907 16.613 10.813 16.52L9.146 14.853C8.951 14.658 8.951 14.341 9.146 14.146C9.341 13.951 9.65803 13.951 9.85303 14.146L11.166 15.459L14.145 12.479C14.342 12.284 14.658 12.284 14.854 12.48Z" />
</svg>
