<svg viewBox="0 0 24 24" fill="currentColor" stroke="currentColor" xmlns="http://www.w3.org/2000/svg">
<path d="M21.438 2.759C21.35 2.599 21.182 2.5 21 2.5H16C15.829 2.5 15.67 2.58699 15.578 2.73199L12.53 7.52701C12.354 7.51401 12.179 7.5 12 7.5C11.821 7.5 11.646 7.51401 11.47 7.52701L8.422 2.73199C8.33 2.58799 8.171 2.5 8 2.5H3C2.817 2.5 2.64901 2.599 2.56201 2.759C2.47501 2.919 2.48098 3.11401 2.57898 3.26801L6.77002 9.86499C5.67302 11.101 5.00098 12.722 5.00098 14.5C5.00098 18.36 8.14198 21.5 12.001 21.5C15.86 21.5 19.001 18.36 19.001 14.5C19.001 12.722 18.3291 11.101 17.2321 9.86499L21.423 3.26801C21.52 3.11401 21.526 2.919 21.438 2.759ZM7.72595 3.5L10.392 7.694C9.30997 7.95 8.32302 8.45401 7.49902 9.14801L3.91101 3.5H7.72595ZM12 20.5C8.691 20.5 6 17.808 6 14.5C6 11.192 8.691 8.5 12 8.5C15.309 8.5 18 11.192 18 14.5C18 17.808 15.309 20.5 12 20.5ZM16.502 9.14801C15.678 8.45401 14.691 7.95 13.609 7.694L16.275 3.5H20.09L16.502 9.14801ZM14.785 13.074L13.377 12.87L12.769 11.643C12.478 11.054 11.5231 11.055 11.2321 11.642L10.624 12.87L9.21594 13.074C8.89994 13.12 8.64099 13.337 8.54199 13.642C8.44299 13.946 8.52403 14.273 8.75403 14.496L9.77197 15.483L9.54102 16.828C9.48402 17.151 9.61403 17.472 9.87903 17.666C10.145 17.86 10.492 17.886 10.783 17.734L12.002 17.096L13.2209 17.734C13.3479 17.8 13.485 17.833 13.62 17.833C13.798 17.833 13.974 17.777 14.125 17.667C14.39 17.473 14.52 17.152 14.464 16.83L14.2321 15.483L15.25 14.496C15.479 14.273 15.561 13.946 15.462 13.642C15.36 13.338 15.102 13.12 14.785 13.074ZM13.4709 14.827C13.2729 15.019 13.183 15.295 13.229 15.567L13.427 16.715L12.387 16.171C12.145 16.045 11.856 16.045 11.614 16.171L10.574 16.715L10.772 15.566C10.818 15.295 10.728 15.019 10.531 14.827L9.69397 14.016L10.851 13.848C11.123 13.809 11.358 13.64 11.481 13.393L12.001 12.344L12.522 13.393C12.644 13.639 12.878 13.808 13.15 13.847L14.308 14.015L13.4709 14.827Z" />
</svg>
