<svg viewBox="0 0 24 24" fill="currentColor" stroke="currentColor" xmlns="http://www.w3.org/2000/svg">
<path d="M20.691 2.64205C20.192 2.40305 19.616 2.46805 19.183 2.81405L18.152 3.63802C16.651 4.83902 14.765 5.50002 12.843 5.50002H7.49805C4.74105 5.50002 2.49902 7.74304 2.49902 10.499C2.49902 13.144 4.56997 15.294 7.17297 15.465L9.49902 20.117C9.92602 20.969 10.782 21.499 11.735 21.499H13C13.147 21.499 13.286 21.434 13.382 21.322C13.477 21.21 13.518 21.062 13.493 20.916L12.59 15.498H12.844C14.766 15.498 16.652 16.159 18.153 17.36L19.183 18.184C19.443 18.392 19.755 18.498 20.072 18.498C20.282 18.498 20.493 18.451 20.692 18.355C21.191 18.115 21.501 17.623 21.501 17.07V3.92501C21.5 3.37501 21.19 2.88205 20.691 2.64205ZM12.41 20.5H11.736C11.164 20.5 10.65 20.182 10.394 19.671L8.30798 15.499H11.576L12.41 20.5ZM7.49902 14.499C5.29402 14.499 3.5 12.705 3.5 10.5C3.5 8.29502 5.29402 6.501 7.49902 6.501H12.844C13.747 6.501 14.641 6.36302 15.5 6.11202V14.889C14.64 14.638 13.747 14.5 12.844 14.5H7.49902V14.499ZM20.5 17.072C20.5 17.314 20.331 17.421 20.259 17.456C20.185 17.491 19.996 17.556 19.808 17.405L18.778 16.581C18.084 16.026 17.314 15.581 16.501 15.241V5.75899C17.314 5.41999 18.084 4.97503 18.778 4.41903L19.809 3.59499C19.997 3.44399 20.185 3.50903 20.259 3.54403C20.331 3.57903 20.5 3.686 20.5 3.928V17.072Z" />
</svg>
