<svg viewBox="0 0 24 24" fill="currentColor" stroke="currentColor" xmlns="http://www.w3.org/2000/svg">
<path d="M21.173 8.785L20.103 5.03799C19.73 3.73299 19.377 2.5 16.738 2.5H7.26294C4.62294 2.5 4.27095 3.73299 3.89795 5.03799L2.828 8.785C2.611 9.545 2.50098 10.33 2.50098 11.12V18C2.50098 20.29 3.71098 21.5 6.00098 21.5H18.001C20.291 21.5 21.501 20.29 21.501 18V11.12C21.5 10.331 21.39 9.545 21.173 8.785ZM19.142 5.31299L20.212 9.06C20.253 9.205 20.2731 9.354 20.3051 9.5H12.5V3.5H16.7371C18.6231 3.5 18.785 4.06799 19.142 5.31299ZM4.85803 5.31299C5.21403 4.06799 5.37696 3.5 7.26196 3.5H11.499V9.5H3.69397C3.72597 9.354 3.74599 9.205 3.78699 9.06L4.85803 5.31299ZM20.5 18C20.5 19.729 19.729 20.5 18 20.5H6C4.271 20.5 3.5 19.729 3.5 18V11.12C3.5 10.912 3.52597 10.706 3.54297 10.5H20.457C20.474 10.707 20.5 10.913 20.5 11.12V18ZM13.549 11.75C13.5459 11.75 13.542 11.75 13.538 11.75C12.808 11.75 12.314 12.091 12 12.446C11.686 12.091 11.193 11.75 10.462 11.75C10.458 11.75 10.454 11.75 10.451 11.75C9.68705 11.754 9.04898 12.042 8.60498 12.584C8.06898 13.238 7.87595 14.192 8.07495 15.201C8.57595 17.739 11.664 19.147 11.796 19.206C11.86 19.235 11.931 19.25 12 19.25C12.069 19.25 12.14 19.235 12.204 19.206C12.336 19.147 15.424 17.739 15.924 15.201C16.123 14.192 15.931 13.238 15.397 12.584C14.952 12.042 14.313 11.754 13.549 11.75ZM14.943 15.008C14.608 16.706 12.644 17.857 12 18.193C11.355 17.857 9.39203 16.707 9.05603 15.009C8.91703 14.304 9.03803 13.635 9.37903 13.219C9.63103 12.911 9.99296 12.753 10.455 12.751C10.457 12.751 10.4591 12.751 10.4611 12.751C11.2321 12.751 11.516 13.524 11.526 13.554C11.594 13.756 11.7839 13.89 11.9969 13.892C12.1789 13.89 12.4 13.759 12.473 13.558C12.485 13.525 12.7689 12.752 13.5389 12.752C13.5409 12.752 13.543 12.752 13.545 12.752C14.008 12.754 14.3699 12.911 14.6219 13.22C14.9619 13.634 15.082 14.303 14.943 15.008Z" />
</svg>
