<svg viewBox="0 0 24 24" fill="currentColor" stroke="currentColor" xmlns="http://www.w3.org/2000/svg">
<path d="M21.173 8.785L20.103 5.03799C19.73 3.73299 19.377 2.5 16.738 2.5H7.26294C4.62294 2.5 4.27095 3.73299 3.89795 5.03799L2.828 8.785C2.611 9.545 2.50098 10.33 2.50098 11.12V18C2.50098 20.29 3.71098 21.5 6.00098 21.5H18.001C20.291 21.5 21.501 20.29 21.501 18V11.12C21.5 10.331 21.39 9.545 21.173 8.785ZM19.142 5.31299L20.212 9.06C20.253 9.205 20.2731 9.354 20.3051 9.5H12.5V3.5H16.7371C18.6231 3.5 18.785 4.06799 19.142 5.31299ZM4.85803 5.31299C5.21403 4.06799 5.37696 3.5 7.26196 3.5H11.499V9.5H3.69397C3.72597 9.354 3.74599 9.205 3.78699 9.06L4.85803 5.31299ZM20.5 18C20.5 19.729 19.729 20.5 18 20.5H6C4.271 20.5 3.5 19.729 3.5 18V11.12C3.5 10.912 3.52597 10.706 3.54297 10.5H20.457C20.474 10.707 20.5 10.913 20.5 11.12V18ZM14.854 13.313C15.049 13.508 15.049 13.825 14.854 14.02L11.521 17.353C11.423 17.451 11.295 17.499 11.167 17.499C11.039 17.499 10.911 17.45 10.813 17.353L9.146 15.686C8.951 15.491 8.951 15.174 9.146 14.979C9.341 14.784 9.65803 14.784 9.85303 14.979L11.166 16.292L14.145 13.312C14.342 13.118 14.658 13.118 14.854 13.313Z" />
</svg>
