<svg viewBox="0 0 24 24" fill="currentColor" stroke="currentColor" xmlns="http://www.w3.org/2000/svg">
<path d="M21.173 8.785L20.103 5.03799C19.73 3.73299 19.377 2.5 16.738 2.5H7.26294C4.62294 2.5 4.27095 3.73299 3.89795 5.03799L2.828 8.785C2.611 9.545 2.50098 10.33 2.50098 11.12V18C2.50098 20.29 3.71098 21.5 6.00098 21.5H18.001C20.291 21.5 21.501 20.29 21.501 18V11.12C21.5 10.331 21.39 9.545 21.173 8.785ZM19.142 5.31299L20.212 9.06C20.253 9.205 20.2731 9.354 20.3051 9.5H12.5V3.5H16.7371C18.6231 3.5 18.785 4.06799 19.142 5.31299ZM4.85803 5.31299C5.21403 4.06799 5.37696 3.5 7.26196 3.5H11.499V9.5H3.69397C3.72597 9.354 3.74599 9.205 3.78699 9.06L4.85803 5.31299ZM20.5 18C20.5 19.729 19.729 20.5 18 20.5H6C4.271 20.5 3.5 19.729 3.5 18V11.12C3.5 10.912 3.52597 10.706 3.54297 10.5H20.457C20.474 10.707 20.5 10.913 20.5 11.12V18ZM15.236 13.753L13.548 13.513L12.819 12.068C12.507 11.447 11.491 11.447 11.178 12.068L10.449 13.513L8.76099 13.753C8.41999 13.802 8.14394 14.034 8.03894 14.359C7.93494 14.681 8.02402 15.027 8.27002 15.262L9.48401 16.42L9.20801 17.999C9.14801 18.34 9.28497 18.679 9.56396 18.885C9.84896 19.094 10.22 19.124 10.533 18.962L11.949 18.185L13.462 18.963C13.596 19.032 13.741 19.066 13.885 19.066C14.077 19.066 14.268 19.005 14.431 18.886C14.71 18.68 14.846 18.341 14.786 18.001L14.51 16.42L15.725 15.262C15.97 15.028 16.059 14.682 15.955 14.36C15.854 14.034 15.577 13.802 15.236 13.753ZM13.775 15.741C13.563 15.944 13.465 16.238 13.516 16.527L13.7729 17.996L12.4091 17.294C12.2811 17.228 12.14 17.195 12 17.195C11.86 17.195 11.7189 17.228 11.5909 17.294L10.2271 17.995L10.485 16.525C10.535 16.236 10.437 15.943 10.224 15.739L9.14294 14.708L10.6479 14.494C10.9349 14.453 11.185 14.275 11.318 14.015L11.9771 12.614L12.684 14.017C12.816 14.274 13.066 14.453 13.353 14.494L14.858 14.708L13.775 15.741Z" />
</svg>
