<svg viewBox="0 0 24 24" fill="currentColor" stroke="currentColor" xmlns="http://www.w3.org/2000/svg">
<path d="M21.173 8.785L20.103 5.03799C19.73 3.73299 19.377 2.5 16.738 2.5H7.26294C4.62294 2.5 4.27095 3.73299 3.89795 5.03799L2.828 8.785C2.611 9.545 2.50098 10.33 2.50098 11.12V18C2.50098 20.29 3.71098 21.5 6.00098 21.5H18.001C20.291 21.5 21.501 20.29 21.501 18V11.12C21.5 10.331 21.39 9.545 21.173 8.785ZM19.142 5.31299L20.212 9.06C20.253 9.205 20.2731 9.354 20.3051 9.5H12.5V3.5H16.7371C18.6231 3.5 18.785 4.06799 19.142 5.31299ZM4.85803 5.31299C5.21403 4.06799 5.37696 3.5 7.26196 3.5H11.499V9.5H3.69397C3.72597 9.354 3.74599 9.205 3.78699 9.06L4.85803 5.31299ZM20.5 18C20.5 19.729 19.729 20.5 18 20.5H6C4.271 20.5 3.5 19.729 3.5 18V11.12C3.5 10.912 3.52597 10.706 3.54297 10.5H20.457C20.474 10.707 20.5 10.913 20.5 11.12V18ZM14 16.912C14 17.391 13.818 17.843 13.489 18.184C13.215 18.469 12.864 18.642 12.485 18.697V19C12.485 19.276 12.261 19.5 11.985 19.5C11.709 19.5 11.485 19.276 11.485 19V18.695C10.713 18.569 10.1 17.931 10.01 17.109C9.98001 16.834 10.179 16.588 10.453 16.558C10.724 16.531 10.974 16.726 11.004 17.001C11.049 17.412 11.3749 17.722 11.7629 17.722H12.236C12.435 17.722 12.6249 17.64 12.7679 17.49C12.9169 17.335 12.999 17.13 12.999 16.911C12.999 16.537 12.759 16.213 12.416 16.123L11.33 15.843C10.945 15.742 10.602 15.51 10.364 15.191C10.13 14.883 9.99902 14.49 9.99902 14.087C9.99902 13.187 10.645 12.443 11.484 12.305V12C11.484 11.724 11.708 11.5 11.984 11.5C12.26 11.5 12.484 11.724 12.484 12V12.302C13.269 12.417 13.898 13.058 13.988 13.891C14.018 14.166 13.819 14.412 13.545 14.442C13.273 14.471 13.024 14.274 12.994 13.999C12.949 13.588 12.623 13.279 12.235 13.279H11.762C11.341 13.279 10.998 13.643 10.998 14.09C10.998 14.275 11.057 14.453 11.162 14.592C11.268 14.735 11.4161 14.835 11.5811 14.878L12.667 15.158C13.453 15.362 14 16.084 14 16.912Z" />
</svg>
