<svg viewBox="0 0 24 24" fill="currentColor" stroke="currentColor" xmlns="http://www.w3.org/2000/svg">
<path d="M17 2.5H7C4.71 2.5 3.5 3.71 3.5 6V18.621C3.5 19.193 3.81698 19.707 4.32898 19.963C4.83998 20.218 5.44205 20.164 5.89905 19.821L7.25806 18.802C7.65406 18.505 8.21704 18.546 8.56604 18.895L10.5861 20.914C10.9641 21.292 11.466 21.5 12 21.5C12.534 21.5 13.0359 21.292 13.4139 20.914L15.434 18.895C15.783 18.546 16.3449 18.506 16.7419 18.802L18.101 19.822C18.558 20.166 19.162 20.219 19.671 19.964C20.183 19.708 20.5 19.194 20.5 18.622V6C20.5 3.71 19.29 2.5 17 2.5ZM19.5 18.621C19.5 18.815 19.396 18.982 19.224 19.068C19.052 19.154 18.856 19.137 18.701 19.021L17.342 18.001C16.553 17.409 15.428 17.488 14.728 18.187L12.708 20.206C12.329 20.584 11.6729 20.584 11.2939 20.206L9.27405 18.186C8.88805 17.801 8.37406 17.604 7.85706 17.604C7.43606 17.604 7.01403 17.735 6.66003 18.001L5.30103 19.021C5.14603 19.137 4.94795 19.154 4.77795 19.068C4.60495 18.982 4.50195 18.814 4.50195 18.621V6C4.50195 4.271 5.27295 3.5 7.00195 3.5H17.002C18.731 3.5 19.502 4.271 19.502 6V18.621H19.5ZM16.5 9C16.5 9.276 16.276 9.5 16 9.5H8C7.724 9.5 7.5 9.276 7.5 9C7.5 8.724 7.724 8.5 8 8.5H16C16.276 8.5 16.5 8.724 16.5 9ZM13.5 13C13.5 13.276 13.276 13.5 13 13.5H8C7.724 13.5 7.5 13.276 7.5 13C7.5 12.724 7.724 12.5 8 12.5H13C13.276 12.5 13.5 12.724 13.5 13Z" />
</svg>
