<svg viewBox="0 0 24 24" fill="currentColor" stroke="currentColor" xmlns="http://www.w3.org/2000/svg">
<path d="M19.671 4.03699C19.159 3.78099 18.558 3.83499 18.101 4.17899L16.7419 5.198C16.3459 5.495 15.784 5.45401 15.434 5.10501L13.4139 3.08499C12.6349 2.30499 11.3651 2.30599 10.5861 3.08499L8.56604 5.104C8.21704 5.454 7.65606 5.49399 7.25806 5.19699L5.89905 4.177C5.44305 3.834 4.83998 3.78 4.32898 4.035C3.81698 4.291 3.5 4.80501 3.5 5.37701V18.62C3.5 19.192 3.81698 19.706 4.32898 19.962C4.83898 20.217 5.44205 20.163 5.89905 19.82L7.25806 18.801C7.65506 18.504 8.21704 18.545 8.56604 18.894L10.5861 20.913C10.9761 21.303 11.488 21.498 12 21.498C12.512 21.498 13.0239 21.303 13.4139 20.913L15.434 18.894C15.784 18.545 16.3449 18.505 16.7419 18.801L18.101 19.821C18.559 20.165 19.161 20.218 19.671 19.963C20.183 19.707 20.5 19.193 20.5 18.621V5.37799C20.5 4.80699 20.183 4.29299 19.671 4.03699ZM19.5 18.621C19.5 18.815 19.396 18.982 19.224 19.068C19.053 19.154 18.857 19.137 18.701 19.021L17.342 18.001C16.553 17.409 15.428 17.488 14.728 18.187L12.708 20.206C12.317 20.596 11.6849 20.596 11.2939 20.206L9.27405 18.186C8.88805 17.801 8.37406 17.604 7.85706 17.604C7.43706 17.604 7.01403 17.735 6.66003 18.001L5.30103 19.021C5.14603 19.137 4.94895 19.154 4.77795 19.068C4.60495 18.982 4.50195 18.814 4.50195 18.621V5.37799C4.50195 5.18399 4.60595 5.017 4.77795 4.931C4.94995 4.845 5.14603 4.862 5.30103 4.978L6.66003 5.99799C7.44903 6.58999 8.57405 6.51101 9.27405 5.81201L11.2939 3.79199C11.6849 3.40199 12.317 3.40199 12.708 3.79199L14.728 5.81201C15.427 6.51001 16.552 6.59099 17.342 5.99799L18.701 4.978C18.857 4.862 19.054 4.844 19.224 4.931C19.397 5.017 19.5 5.18499 19.5 5.37799V18.621ZM15.916 10.191L13.818 9.901L12.902 8.05801C12.56 7.36901 11.438 7.37001 11.098 8.05801L10.201 9.88599L8.08398 10.191C7.71398 10.244 7.41197 10.498 7.29797 10.854C7.18297 11.208 7.27802 11.589 7.54602 11.848L9.06702 13.3L8.71802 15.323C8.65202 15.701 8.80401 16.077 9.11401 16.304C9.42601 16.532 9.83403 16.563 10.176 16.384L11.988 15.427L13.824 16.385C13.972 16.462 14.133 16.5 14.292 16.5C14.5 16.5 14.707 16.435 14.885 16.306C15.196 16.08 15.348 15.704 15.282 15.326L14.924 13.328L16.454 11.848C16.722 11.589 16.817 11.208 16.702 10.854C16.588 10.499 16.286 10.245 15.916 10.191ZM14.229 12.608C13.998 12.831 13.891 13.153 13.947 13.47L14.287 15.498L12.451 14.54C12.309 14.467 12.155 14.43 12 14.43C11.845 14.43 11.6899 14.467 11.549 14.54L9.70398 15.494L10.054 13.47C10.109 13.153 10.002 12.831 9.77197 12.609L8.22705 11.181L10.344 10.876C10.659 10.831 10.934 10.633 11.076 10.347L12.004 8.5C12.004 8.5 12.005 8.50099 12.006 8.50299H12.007L12.924 10.347C13.0669 10.632 13.341 10.83 13.656 10.875L15.759 11.128L14.229 12.608Z" />
</svg>
