<svg viewBox="0 0 24 24" fill="currentColor" stroke="currentColor" xmlns="http://www.w3.org/2000/svg">
<path d="M14.854 9.854L9.854 14.854C9.756 14.952 9.628 15 9.5 15C9.372 15 9.244 14.951 9.146 14.854C8.951 14.659 8.951 14.342 9.146 14.147L14.146 9.147C14.341 8.952 14.658 8.952 14.853 9.147C15.048 9.342 15.049 9.658 14.854 9.854ZM10.25 9.5C10.25 9.086 9.91603 8.75 9.50403 8.75H9.48901C9.07701 8.75 8.75 9.086 8.75 9.5C8.75 9.914 9.09303 10.25 9.50403 10.25C9.91603 10.25 10.25 9.914 10.25 9.5ZM14.504 13.75H14.489C14.077 13.75 13.75 14.086 13.75 14.5C13.75 14.914 14.093 15.25 14.504 15.25C14.917 15.25 15.25 14.914 15.25 14.5C15.25 14.086 14.916 13.75 14.504 13.75ZM20.5 5.379V18.622C20.5 19.194 20.183 19.708 19.671 19.964C19.16 20.22 18.558 20.166 18.101 19.822L16.7419 18.802C16.3459 18.506 15.783 18.546 15.434 18.895L13.4139 20.914C13.0239 21.304 12.512 21.499 12 21.499C11.488 21.499 10.9761 21.304 10.5861 20.914L8.56604 18.895C8.21804 18.546 7.65606 18.506 7.25806 18.802L5.89905 19.821C5.44105 20.164 4.83798 20.218 4.32898 19.963C3.81698 19.707 3.5 19.193 3.5 18.621V5.37799C3.5 4.80599 3.81698 4.29201 4.32898 4.03601C4.84098 3.78101 5.44205 3.83501 5.89905 4.17801L7.25806 5.198C7.65506 5.495 8.21804 5.45401 8.56604 5.10501L10.5861 3.086C11.3651 2.307 12.6349 2.306 13.4139 3.086L15.434 5.10599C15.783 5.45499 16.3459 5.496 16.7419 5.199L18.101 4.17999C18.557 3.83599 19.16 3.78299 19.671 4.03799C20.183 4.29299 20.5 4.807 20.5 5.379ZM19.5 5.379C19.5 5.185 19.396 5.01801 19.224 4.93201C19.053 4.84601 18.856 4.863 18.701 4.979L17.342 5.99899C16.552 6.59299 15.428 6.51199 14.728 5.81299L12.708 3.793C12.317 3.403 11.6849 3.403 11.2939 3.793L9.27405 5.81299C8.57405 6.51199 7.44903 6.59099 6.66003 5.99899L5.30103 4.979C5.14603 4.863 4.94895 4.84501 4.77795 4.93201C4.60495 5.01801 4.50195 5.186 4.50195 5.379V18.622C4.50195 18.816 4.60595 18.983 4.77795 19.069C4.94995 19.155 5.14603 19.138 5.30103 19.022L6.66003 18.002C7.01403 17.736 7.43706 17.605 7.85706 17.605C8.37406 17.605 8.88805 17.802 9.27405 18.187L11.2939 20.207C11.6849 20.597 12.317 20.597 12.708 20.207L14.728 18.188C15.428 17.489 16.553 17.41 17.342 18.002L18.701 19.022C18.856 19.138 19.054 19.155 19.224 19.069C19.397 18.983 19.5 18.815 19.5 18.622V5.379Z" />
</svg>
