<svg viewBox="0 0 24 24" fill="currentColor" stroke="currentColor" xmlns="http://www.w3.org/2000/svg">
<path d="M19.671 4.03699C19.159 3.78099 18.558 3.83499 18.101 4.17899L16.7419 5.198C16.3459 5.495 15.783 5.45401 15.434 5.10501L13.4139 3.08499C12.6349 2.30499 11.3651 2.30599 10.5861 3.08499L8.56604 5.104C8.21804 5.454 7.65506 5.49399 7.25806 5.19699L5.89905 4.177C5.44305 3.834 4.83898 3.78 4.32898 4.035C3.81698 4.291 3.5 4.80501 3.5 5.37701V18.62C3.5 19.192 3.81698 19.706 4.32898 19.962C4.83898 20.217 5.44205 20.163 5.89905 19.82L7.25806 18.801C7.65406 18.504 8.21804 18.545 8.56604 18.894L10.5861 20.913C10.9761 21.303 11.488 21.498 12 21.498C12.512 21.498 13.0239 21.303 13.4139 20.913L15.434 18.894C15.783 18.545 16.3449 18.505 16.7419 18.801L18.101 19.821C18.559 20.165 19.161 20.218 19.671 19.963C20.183 19.707 20.5 19.193 20.5 18.621V5.37799C20.5 4.80699 20.183 4.29299 19.671 4.03699ZM19.5 18.621C19.5 18.815 19.396 18.982 19.224 19.068C19.052 19.154 18.856 19.137 18.701 19.021L17.342 18.001C16.553 17.409 15.428 17.488 14.728 18.187L12.708 20.206C12.317 20.596 11.6849 20.596 11.2939 20.206L9.27405 18.186C8.88805 17.801 8.37406 17.604 7.85706 17.604C7.43706 17.604 7.01403 17.735 6.66003 18.001L5.30103 19.021C5.14603 19.137 4.94895 19.154 4.77795 19.068C4.60495 18.982 4.50195 18.814 4.50195 18.621V5.37799C4.50195 5.18399 4.60595 5.017 4.77795 4.931C4.94995 4.845 5.14603 4.862 5.30103 4.978L6.66003 5.99799C7.44903 6.58999 8.57405 6.51101 9.27405 5.81201L11.2939 3.79199C11.6849 3.40199 12.317 3.40199 12.708 3.79199L14.728 5.81201C15.428 6.51001 16.552 6.59099 17.342 5.99799L18.701 4.978C18.856 4.862 19.053 4.844 19.224 4.931C19.397 5.017 19.5 5.18499 19.5 5.37799V18.621ZM13.77 7.75C12.865 7.756 12.347 8.16899 12 8.58899C11.653 8.17099 11.094 7.75 10.241 7.75C10.237 7.75 10.233 7.75 10.229 7.75C9.382 7.754 8.67403 8.07399 8.18103 8.67599C7.58603 9.40199 7.36301 10.51 7.58301 11.639C8.14801 14.528 11.645 16.138 11.793 16.205C11.858 16.235 11.929 16.249 11.999 16.249C12.069 16.249 12.14 16.234 12.205 16.205C12.353 16.138 15.85 14.528 16.415 11.639C16.635 10.508 16.412 9.39999 15.817 8.67499C15.325 8.07399 14.617 7.754 13.77 7.75ZM15.434 11.448C15.039 13.469 12.712 14.822 12 15.192C11.288 14.822 8.96094 13.469 8.56494 11.448C8.40094 10.608 8.54596 9.809 8.95496 9.31C9.25796 8.941 9.68703 8.753 10.233 8.75C10.236 8.75 10.238 8.75 10.24 8.75C11.173 8.75 11.512 9.68999 11.526 9.72699C11.593 9.92999 11.7829 10.065 11.9969 10.066C11.9979 10.066 11.999 10.066 12.001 10.066C12.213 10.066 12.402 9.93001 12.473 9.73001C12.488 9.69001 12.827 8.75 13.759 8.75C13.761 8.75 13.763 8.75 13.766 8.75C14.313 8.753 14.743 8.94099 15.045 9.30899C15.452 9.80699 15.599 10.606 15.434 11.448Z" />
</svg>
