<svg viewBox="0 0 24 24" fill="currentColor" stroke="currentColor" xmlns="http://www.w3.org/2000/svg">
<path d="M17 2.5H7C4.71 2.5 3.5 3.71 3.5 6V18.621C3.5 19.193 3.81698 19.707 4.32898 19.963C4.83998 20.218 5.44105 20.164 5.89905 19.821L7.25806 18.802C7.65406 18.505 8.21704 18.546 8.56604 18.895L10.5861 20.914C10.9641 21.292 11.466 21.5 12 21.5C12.534 21.5 13.0359 21.292 13.4139 20.914L15.434 18.895C15.783 18.546 16.3449 18.506 16.7419 18.802L18.101 19.822C18.558 20.166 19.161 20.219 19.671 19.964C20.183 19.708 20.5 19.194 20.5 18.622V6C20.5 3.71 19.29 2.5 17 2.5ZM19.5 18.621C19.5 18.815 19.396 18.982 19.224 19.068C19.053 19.154 18.856 19.137 18.701 19.021L17.342 18.001C16.552 17.409 15.427 17.488 14.728 18.187L12.708 20.206C12.329 20.584 11.6729 20.584 11.2939 20.206L9.27405 18.186C8.88805 17.801 8.37406 17.604 7.85706 17.604C7.43606 17.604 7.01403 17.735 6.66003 18.001L5.30103 19.021C5.14603 19.137 4.94895 19.154 4.77795 19.068C4.60495 18.982 4.50195 18.814 4.50195 18.621V6C4.50195 4.271 5.27295 3.5 7.00195 3.5H17.002C18.731 3.5 19.502 4.271 19.502 6V18.621H19.5ZM13.77 6.97198C12.879 6.95398 12.347 7.391 12 7.811C11.652 7.391 11.049 6.94899 10.229 6.97198C9.382 6.97599 8.67403 7.29601 8.18103 7.89801C7.58603 8.62401 7.36301 9.732 7.58301 10.862C8.14801 13.751 11.645 15.361 11.793 15.428C11.858 15.458 11.929 15.472 11.999 15.472C12.069 15.472 12.14 15.457 12.205 15.428C12.353 15.361 15.85 13.751 16.415 10.862C16.635 9.731 16.412 8.62301 15.817 7.89801C15.325 7.29601 14.617 6.97599 13.77 6.97198ZM15.434 10.67C15.039 12.691 12.712 14.044 12 14.414C11.288 14.044 8.96094 12.691 8.56494 10.67C8.40094 9.83001 8.54605 9.03001 8.95605 8.53201C9.25805 8.16301 9.68703 7.97498 10.233 7.97198C10.236 7.97198 10.238 7.97198 10.24 7.97198C11.173 7.97198 11.512 8.912 11.526 8.94901C11.593 9.15201 11.7829 9.28699 11.9969 9.28799C11.9979 9.28799 11.999 9.28799 12.001 9.28799C12.213 9.28799 12.402 9.152 12.473 8.952C12.488 8.912 12.827 7.97198 13.759 7.97198C13.761 7.97198 13.763 7.97198 13.766 7.97198C14.313 7.97498 14.743 8.16301 15.045 8.53101C15.452 9.02901 15.599 9.82801 15.434 10.67Z" />
</svg>
