<svg viewBox="0 0 24 24" fill="currentColor" stroke="currentColor" xmlns="http://www.w3.org/2000/svg">
<path d="M17 2.5H7C4.71 2.5 3.5 3.71 3.5 6V18.621C3.5 19.193 3.81698 19.707 4.32898 19.963C4.83998 20.218 5.44205 20.164 5.89905 19.821L7.25806 18.802C7.65506 18.505 8.21804 18.546 8.56604 18.895L10.5861 20.914C10.9641 21.292 11.466 21.5 12 21.5C12.534 21.5 13.0359 21.292 13.4139 20.914L15.434 18.895C15.784 18.546 16.3449 18.506 16.7419 18.802L18.101 19.822C18.559 20.166 19.161 20.219 19.671 19.964C20.183 19.708 20.5 19.194 20.5 18.622V6C20.5 3.71 19.29 2.5 17 2.5ZM19.5 18.621C19.5 18.815 19.396 18.982 19.224 19.068C19.053 19.154 18.856 19.137 18.701 19.021L17.342 18.001C16.553 17.409 15.428 17.488 14.728 18.187L12.708 20.206C12.329 20.584 11.6729 20.584 11.2939 20.206L9.27405 18.186C8.88805 17.801 8.37406 17.604 7.85706 17.604C7.43606 17.604 7.01403 17.735 6.66003 18.001L5.30103 19.021C5.14603 19.137 4.94895 19.154 4.77795 19.068C4.60495 18.982 4.50195 18.814 4.50195 18.621V6C4.50195 4.271 5.27295 3.5 7.00195 3.5H17.002C18.731 3.5 19.502 4.271 19.502 6V18.621H19.5ZM15.916 9.19101L13.818 8.901L12.902 7.05801C12.56 6.36901 11.438 6.37001 11.098 7.05801L10.201 8.88599L8.08398 9.19101C7.71398 9.24401 7.41197 9.498 7.29797 9.854C7.18297 10.208 7.27802 10.589 7.54602 10.848L9.06702 12.3L8.71802 14.323C8.65202 14.701 8.80401 15.077 9.11401 15.304C9.42601 15.532 9.83303 15.563 10.176 15.384L11.988 14.427L13.824 15.385C13.972 15.462 14.133 15.5 14.292 15.5C14.5 15.5 14.707 15.435 14.885 15.306C15.196 15.08 15.348 14.704 15.282 14.326L14.924 12.328L16.454 10.848C16.722 10.589 16.817 10.208 16.702 9.854C16.588 9.499 16.286 9.24501 15.916 9.19101ZM14.229 11.608C13.998 11.831 13.891 12.153 13.947 12.47L14.287 14.498L12.451 13.54C12.309 13.467 12.155 13.43 12 13.43C11.845 13.43 11.6899 13.467 11.549 13.54L9.70398 14.494L10.054 12.47C10.109 12.153 10.002 11.831 9.77197 11.609L8.22705 10.181L10.344 9.87601C10.659 9.83101 10.934 9.63299 11.076 9.34698L12.004 7.5C12.004 7.5 12.005 7.50099 12.006 7.50299H12.007L12.924 9.34698C13.0669 9.63198 13.341 9.83 13.656 9.875L15.759 10.128L14.229 11.608Z" />
</svg>
