<svg viewBox="0 0 24 24" fill="currentColor" stroke="currentColor" xmlns="http://www.w3.org/2000/svg">
<path d="M21.5 4.5V8C21.5 8.276 21.276 8.5 21 8.5C20.724 8.5 20.5 8.276 20.5 8V4.5C20.5 3.78 20.22 3.5 19.5 3.5H16C15.724 3.5 15.5 3.276 15.5 3C15.5 2.724 15.724 2.5 16 2.5H19.5C20.771 2.5 21.5 3.229 21.5 4.5ZM3 8.5C3.276 8.5 3.5 8.276 3.5 8V4.5C3.5 3.78 3.78 3.5 4.5 3.5H8C8.276 3.5 8.5 3.276 8.5 3C8.5 2.724 8.276 2.5 8 2.5H4.5C3.229 2.5 2.5 3.229 2.5 4.5V8C2.5 8.276 2.724 8.5 3 8.5ZM8 20.5H4.5C3.78 20.5 3.5 20.22 3.5 19.5V16C3.5 15.724 3.276 15.5 3 15.5C2.724 15.5 2.5 15.724 2.5 16V19.5C2.5 20.771 3.229 21.5 4.5 21.5H8C8.276 21.5 8.5 21.276 8.5 21C8.5 20.724 8.276 20.5 8 20.5ZM21 15.5C20.724 15.5 20.5 15.724 20.5 16V19.5C20.5 20.22 20.22 20.5 19.5 20.5H16C15.724 20.5 15.5 20.724 15.5 21C15.5 21.276 15.724 21.5 16 21.5H19.5C20.771 21.5 21.5 20.771 21.5 19.5V16C21.5 15.724 21.276 15.5 21 15.5ZM12.5 10.25V7.75C12.5 6.979 12.979 6.5 13.75 6.5H16.25C17.021 6.5 17.5 6.979 17.5 7.75V10.25C17.5 11.021 17.021 11.5 16.25 11.5H13.75C12.979 11.5 12.5 11.021 12.5 10.25ZM13.5 10.25C13.5 10.474 13.525 10.5 13.75 10.5H16.25C16.475 10.5 16.5 10.474 16.5 10.25V7.75C16.5 7.526 16.475 7.5 16.25 7.5H13.75C13.525 7.5 13.5 7.526 13.5 7.75V10.25ZM11.5 7.75V10.25C11.5 11.021 11.021 11.5 10.25 11.5H7.75C6.979 11.5 6.5 11.021 6.5 10.25V7.75C6.5 6.979 6.979 6.5 7.75 6.5H10.25C11.021 6.5 11.5 6.979 11.5 7.75ZM10.5 7.75C10.5 7.526 10.475 7.5 10.25 7.5H7.75C7.525 7.5 7.5 7.526 7.5 7.75V10.25C7.5 10.474 7.525 10.5 7.75 10.5H10.25C10.475 10.5 10.5 10.474 10.5 10.25V7.75ZM16.25 17.5H13.75C12.979 17.5 12.5 17.021 12.5 16.25V13.75C12.5 12.979 12.979 12.5 13.75 12.5H16.25C17.021 12.5 17.5 12.979 17.5 13.75V16.25C17.5 17.021 17.021 17.5 16.25 17.5ZM13.75 16.5H16.25C16.475 16.5 16.5 16.474 16.5 16.25V13.75C16.5 13.526 16.475 13.5 16.25 13.5H13.75C13.525 13.5 13.5 13.526 13.5 13.75V16.25C13.5 16.474 13.525 16.5 13.75 16.5ZM11.5 13.75V16.25C11.5 17.021 11.021 17.5 10.25 17.5H7.75C6.979 17.5 6.5 17.021 6.5 16.25V13.75C6.5 12.979 6.979 12.5 7.75 12.5H10.25C11.021 12.5 11.5 12.979 11.5 13.75ZM10.5 13.75C10.5 13.526 10.475 13.5 10.25 13.5H7.75C7.525 13.5 7.5 13.526 7.5 13.75V16.25C7.5 16.474 7.525 16.5 7.75 16.5H10.25C10.475 16.5 10.5 16.474 10.5 16.25V13.75Z" />
</svg>
