<svg viewBox="0 0 24 24" fill="currentColor" stroke="currentColor" xmlns="http://www.w3.org/2000/svg">
<path d="M21.5 4.5V8C21.5 8.276 21.276 8.5 21 8.5C20.724 8.5 20.5 8.276 20.5 8V4.5C20.5 3.78 20.22 3.5 19.5 3.5H16C15.724 3.5 15.5 3.276 15.5 3C15.5 2.724 15.724 2.5 16 2.5H19.5C20.771 2.5 21.5 3.229 21.5 4.5ZM3 8.5C3.276 8.5 3.5 8.276 3.5 8V4.5C3.5 3.78 3.78 3.5 4.5 3.5H8C8.276 3.5 8.5 3.276 8.5 3C8.5 2.724 8.276 2.5 8 2.5H4.5C3.229 2.5 2.5 3.229 2.5 4.5V8C2.5 8.276 2.724 8.5 3 8.5ZM8 20.5H4.5C3.78 20.5 3.5 20.22 3.5 19.5V16C3.5 15.724 3.276 15.5 3 15.5C2.724 15.5 2.5 15.724 2.5 16V19.5C2.5 20.771 3.229 21.5 4.5 21.5H8C8.276 21.5 8.5 21.276 8.5 21C8.5 20.724 8.276 20.5 8 20.5ZM21 15.5C20.724 15.5 20.5 15.724 20.5 16V19.5C20.5 20.22 20.22 20.5 19.5 20.5H16C15.724 20.5 15.5 20.724 15.5 21C15.5 21.276 15.724 21.5 16 21.5H19.5C20.771 21.5 21.5 20.771 21.5 19.5V16C21.5 15.724 21.276 15.5 21 15.5ZM6.5 8.88V9C6.5 9.276 6.724 9.5 7 9.5C7.276 9.5 7.5 9.276 7.5 9V8.88C7.5 7.9 7.899 7.5 8.88 7.5H15.12C16.1 7.5 16.5 7.9 16.5 8.88V9C16.5 9.276 16.724 9.5 17 9.5C17.276 9.5 17.5 9.276 17.5 9V8.88C17.5 7.34501 16.655 6.5 15.12 6.5H8.88C7.34501 6.5 6.5 7.34501 6.5 8.88ZM15.12 17.5H8.88C7.34501 17.5 6.5 16.655 6.5 15.12V12.5H5C4.724 12.5 4.5 12.276 4.5 12C4.5 11.724 4.724 11.5 5 11.5H19C19.276 11.5 19.5 11.724 19.5 12C19.5 12.276 19.276 12.5 19 12.5H17.5V15.12C17.5 16.655 16.655 17.5 15.12 17.5ZM16.5 15.12V12.5H7.5V15.12C7.5 16.1 7.899 16.5 8.88 16.5H15.12C16.101 16.5 16.5 16.1 16.5 15.12Z" />
</svg>
