<svg viewBox="0 0 24 24" fill="currentColor" stroke="currentColor" xmlns="http://www.w3.org/2000/svg">
<path d="M21.5 9C21.5 7.622 20.379 6.5 19 6.5H16.6851L14.45 2.744C14.307 2.506 13.999 2.43101 13.764 2.57001C13.527 2.71201 13.449 3.018 13.59 3.256L15.521 6.5H8.48596L10.447 3.259C10.59 3.023 10.514 2.71501 10.278 2.57201C10.044 2.43001 9.73494 2.504 9.59094 2.741L7.31702 6.5H5C3.621 6.5 2.5 7.622 2.5 9C2.5 10.041 3.14 10.934 4.047 11.31L4.75098 18.349C4.88598 19.702 5.39403 21.5 8.23303 21.5H15.803C17.935 21.5 19.074 20.469 19.285 18.349L19.99 11.293C20.878 10.908 21.5 10.026 21.5 9ZM15.804 20.5H8.23401C6.35001 20.5 5.88497 19.639 5.74597 18.249L5.07104 11.5H18.967L18.292 18.249C18.156 19.6 17.682 20.5 15.804 20.5ZM19 10.5H5C4.173 10.5 3.5 9.827 3.5 9C3.5 8.173 4.173 7.5 5 7.5H19C19.827 7.5 20.5 8.173 20.5 9C20.5 9.827 19.827 10.5 19 10.5ZM14.354 13.956C14.549 14.151 14.549 14.468 14.354 14.663L11.687 17.33C11.593 17.424 11.466 17.476 11.333 17.476C11.2 17.476 11.073 17.423 10.979 17.33L9.646 15.997C9.451 15.802 9.451 15.485 9.646 15.29C9.841 15.095 10.158 15.095 10.353 15.29L11.332 16.269L13.645 13.957C13.842 13.761 14.158 13.761 14.354 13.956Z" />
</svg>
