<svg viewBox="0 0 24 24" fill="currentColor" stroke="currentColor" xmlns="http://www.w3.org/2000/svg">
<path d="M21.5 9C21.5 7.622 20.379 6.5 19 6.5H16.754L14.52 2.744C14.377 2.506 14.069 2.43101 13.834 2.57001C13.597 2.71101 13.519 3.018 13.66 3.256L15.59 6.5H8.55603L10.517 3.259C10.66 3.023 10.584 2.71501 10.348 2.57201C10.114 2.43001 9.80501 2.504 9.66101 2.741L7.38696 6.5H5C3.621 6.5 2.5 7.622 2.5 9C2.5 10.041 3.14 10.934 4.047 11.31L4.75098 18.349C4.88598 19.702 5.39403 21.5 8.23303 21.5H15.803C17.935 21.5 19.074 20.469 19.285 18.349L19.99 11.293C20.878 10.908 21.5 10.026 21.5 9ZM15.804 20.5H8.23401C6.35001 20.5 5.88497 19.639 5.74597 18.249L5.07104 11.5H18.967L18.292 18.249C18.156 19.6 17.682 20.5 15.804 20.5ZM19 10.5H5C4.173 10.5 3.5 9.827 3.5 9C3.5 8.173 4.173 7.5 5 7.5H19C19.827 7.5 20.5 8.173 20.5 9C20.5 9.827 19.827 10.5 19 10.5ZM13.854 16.146C14.049 16.341 14.049 16.658 13.854 16.853L12.354 18.353C12.308 18.399 12.253 18.436 12.191 18.461C12.13 18.486 12.065 18.5 12 18.5C11.935 18.5 11.87 18.487 11.809 18.461C11.748 18.436 11.692 18.399 11.646 18.353L10.146 16.853C9.951 16.658 9.951 16.341 10.146 16.146C10.341 15.951 10.658 15.951 10.853 16.146L11.499 16.792V14C11.499 13.724 11.723 13.5 11.999 13.5C12.275 13.5 12.499 13.724 12.499 14V16.793L13.145 16.147C13.342 15.951 13.658 15.951 13.854 16.146Z" />
</svg>
