<svg viewBox="0 0 24 24" fill="currentColor" stroke="currentColor" xmlns="http://www.w3.org/2000/svg">
<path d="M10.02 21C10.02 21.552 9.57502 22 9.02502 22C8.47702 22 8.02002 21.552 8.02002 21C8.02002 20.448 8.455 20 9.005 20H9.02502C9.57402 20 10.02 20.448 10.02 21ZM17.024 20H17.004C16.454 20 16.019 20.448 16.019 21C16.019 21.552 16.476 22 17.024 22C17.574 22 18.019 21.552 18.019 21C18.019 20.448 17.574 20 17.024 20ZM21.459 8.44701L20.444 14.617C20.185 16.046 19.574 17.499 17 17.499H8.73401C7.49801 17.499 6.43403 16.576 6.25903 15.353L4.74902 4.78799C4.64502 4.05399 4.00601 3.5 3.26501 3.5H3C2.724 3.5 2.5 3.276 2.5 3C2.5 2.724 2.724 2.5 3 2.5H3.26599C4.50199 2.5 5.56597 3.423 5.74097 4.646L5.86304 5.5H19C19.744 5.5 20.443 5.82699 20.92 6.39799C21.396 6.969 21.592 7.71601 21.459 8.44701ZM20.151 7.039C19.865 6.696 19.445 6.5 18.999 6.5H6.005L7.25 15.212C7.354 15.946 7.99301 16.5 8.73401 16.5H17C18.754 16.5 19.218 15.778 19.459 14.447L20.474 8.276C20.555 7.829 20.437 7.382 20.151 7.039ZM15.104 9.646C14.909 9.451 14.592 9.451 14.397 9.646L13.251 10.792L12.105 9.646C11.91 9.451 11.5929 9.451 11.3979 9.646C11.2029 9.841 11.2029 10.158 11.3979 10.353L12.5439 11.499L11.3979 12.645C11.2029 12.84 11.2029 13.157 11.3979 13.352C11.4959 13.45 11.624 13.498 11.752 13.498C11.88 13.498 12.008 13.449 12.106 13.352L13.252 12.206L14.3979 13.352C14.4959 13.45 14.624 13.498 14.752 13.498C14.88 13.498 15.008 13.449 15.106 13.352C15.301 13.157 15.301 12.84 15.106 12.645L13.96 11.499L15.106 10.353C15.299 10.158 15.299 9.842 15.104 9.646Z" />
</svg>
