<svg viewBox="0 0 24 24" fill="currentColor" stroke="currentColor" xmlns="http://www.w3.org/2000/svg">
<path d="M21.5 9C21.5 7.622 20.379 6.5 19 6.5H16.775L14.541 2.744C14.398 2.506 14.089 2.43101 13.855 2.57001C13.618 2.71101 13.54 3.018 13.681 3.256L15.611 6.5H8.57703L10.538 3.259C10.681 3.023 10.605 2.71501 10.369 2.57201C10.135 2.43001 9.82601 2.504 9.68201 2.741L7.40796 6.5H5C3.621 6.5 2.5 7.622 2.5 9C2.5 10.041 3.14 10.934 4.047 11.31L4.75098 18.349C4.88598 19.702 5.39403 21.5 8.23303 21.5H15.803C17.935 21.5 19.074 20.469 19.285 18.349L19.99 11.293C20.878 10.908 21.5 10.026 21.5 9ZM15.804 20.5H8.23401C6.35001 20.5 5.88497 19.639 5.74597 18.249L5.07104 11.5H18.967L18.292 18.249C18.156 19.6 17.682 20.5 15.804 20.5ZM19 10.5H5C4.173 10.5 3.5 9.827 3.5 9C3.5 8.173 4.173 7.5 5 7.5H19C19.827 7.5 20.5 8.173 20.5 9C20.5 9.827 19.827 10.5 19 10.5ZM13.854 15.146C14.049 15.341 14.049 15.658 13.854 15.853C13.756 15.951 13.628 15.999 13.5 15.999C13.372 15.999 13.244 15.95 13.146 15.853L12.5 15.207V18C12.5 18.276 12.276 18.5 12 18.5C11.724 18.5 11.5 18.276 11.5 18V15.207L10.854 15.853C10.659 16.048 10.342 16.048 10.147 15.853C9.95197 15.658 9.95197 15.341 10.147 15.146L11.647 13.646C11.693 13.6 11.7491 13.563 11.8101 13.538C11.9321 13.488 12.07 13.488 12.192 13.538C12.253 13.563 12.309 13.6 12.355 13.646L13.854 15.146Z" />
</svg>
