<svg viewBox="0 0 24 24" fill="currentColor" stroke="currentColor" xmlns="http://www.w3.org/2000/svg">
<path d="M18.5 7.5H16V6.5C16 4.294 14.206 2.5 12 2.5C9.794 2.5 8 4.294 8 6.5V7.5H5.5C4.397 7.5 3.5 8.397 3.5 9.5V18C3.5 20.29 4.71 21.5 7 21.5H17C19.29 21.5 20.5 20.29 20.5 18V9.5C20.5 8.397 19.603 7.5 18.5 7.5ZM9 6.5C9 4.846 10.346 3.5 12 3.5C13.654 3.5 15 4.846 15 6.5V7.5H9V6.5ZM19.5 18C19.5 19.729 18.729 20.5 17 20.5H7C5.271 20.5 4.5 19.729 4.5 18V9.5C4.5 8.948 4.948 8.5 5.5 8.5H8V11C8 11.276 8.224 11.5 8.5 11.5C8.776 11.5 9 11.276 9 11V8.5H15V11C15 11.276 15.224 11.5 15.5 11.5C15.776 11.5 16 11.276 16 11V8.5H18.5C19.052 8.5 19.5 8.948 19.5 9.5V18Z" />
</svg>
