<svg viewBox="0 0 24 24" fill="currentColor" stroke="currentColor" xmlns="http://www.w3.org/2000/svg">
<path d="M21.5 9C21.5 7.622 20.379 6.5 19 6.5H16.7939L14.5601 2.744C14.4161 2.506 14.109 2.43101 13.874 2.57001C13.637 2.71101 13.559 3.018 13.7 3.256L15.63 6.5H8.59595L10.557 3.259C10.7 3.023 10.6239 2.71501 10.3879 2.57201C10.1549 2.43001 9.84505 2.504 9.70105 2.741L7.427 6.5H5C3.621 6.5 2.5 7.622 2.5 9C2.5 10.041 3.14 10.934 4.047 11.31L4.75098 18.349C4.88598 19.702 5.39403 21.5 8.23303 21.5H15.803C17.935 21.5 19.074 20.469 19.285 18.349L19.99 11.293C20.878 10.908 21.5 10.026 21.5 9ZM15.804 20.5H8.23401C6.35001 20.5 5.88497 19.639 5.74597 18.249L5.07104 11.5H18.967L18.292 18.249C18.156 19.6 17.682 20.5 15.804 20.5ZM19 10.5H5C4.173 10.5 3.5 9.827 3.5 9C3.5 8.173 4.173 7.5 5 7.5H19C19.827 7.5 20.5 8.173 20.5 9C20.5 9.827 19.827 10.5 19 10.5ZM14.785 14.408L13.377 14.204L12.769 12.977C12.478 12.388 11.5231 12.389 11.2321 12.976L10.624 14.204L9.21594 14.408C8.89994 14.454 8.64099 14.671 8.54199 14.976C8.44299 15.28 8.52403 15.607 8.75403 15.83L9.77197 16.817L9.54102 18.162C9.48402 18.485 9.61403 18.807 9.87903 19C10.146 19.194 10.492 19.22 10.783 19.067L12.002 18.429L13.2209 19.067C13.3479 19.133 13.485 19.166 13.62 19.166C13.798 19.166 13.974 19.11 14.125 19C14.39 18.807 14.52 18.485 14.464 18.163L14.2321 16.816L15.25 15.828C15.479 15.605 15.561 15.278 15.462 14.974C15.36 14.671 15.102 14.454 14.785 14.408ZM13.4709 16.16C13.2729 16.351 13.183 16.628 13.229 16.899L13.427 18.047L12.386 17.502C12.146 17.377 11.856 17.377 11.614 17.503L10.574 18.047L10.772 16.899C10.818 16.628 10.728 16.351 10.531 16.16L9.69397 15.348L10.853 15.181C11.124 15.141 11.359 14.972 11.481 14.726L12.001 13.678L12.522 14.727C12.643 14.972 12.878 15.142 13.15 15.182L14.308 15.349L13.4709 16.16Z" />
</svg>
