<svg viewBox="0 0 24 24" fill="currentColor" stroke="currentColor" xmlns="http://www.w3.org/2000/svg">
<path d="M10.5179 14.5V17.5C10.5179 17.776 10.2939 18 10.0179 18C9.74194 18 9.51794 17.776 9.51794 17.5V14.5C9.51794 14.224 9.74194 14 10.0179 14C10.2939 14 10.5179 14.224 10.5179 14.5ZM14.0179 14C13.7419 14 13.5179 14.224 13.5179 14.5V17.5C13.5179 17.776 13.7419 18 14.0179 18C14.2939 18 14.5179 17.776 14.5179 17.5V14.5C14.5179 14.224 14.2939 14 14.0179 14ZM19.991 11.293L19.286 18.349C19.074 20.469 17.935 21.5 15.804 21.5H8.23401C5.39401 21.5 4.88595 19.701 4.75195 18.349L4.04797 11.31C3.14097 10.935 2.50098 10.041 2.50098 9C2.50098 7.622 3.62198 6.5 5.00098 6.5H7.29895L9.573 2.741C9.717 2.504 10.025 2.43001 10.26 2.57201C10.496 2.71501 10.572 3.022 10.429 3.259L8.46802 6.5H15.502L13.572 3.256C13.43 3.019 13.509 2.71201 13.746 2.57001C13.98 2.43001 14.288 2.506 14.432 2.744L16.666 6.5H19C20.379 6.5 21.5 7.622 21.5 9C21.5 10.026 20.878 10.908 19.991 11.293ZM18.292 18.249L18.967 11.5H5.07104L5.74597 18.249C5.88597 19.639 6.35001 20.5 8.23401 20.5H15.804C17.682 20.5 18.156 19.6 18.292 18.249ZM20.5 9C20.5 8.173 19.827 7.5 19 7.5H5C4.173 7.5 3.5 8.173 3.5 9C3.5 9.827 4.173 10.5 5 10.5H19C19.827 10.5 20.5 9.827 20.5 9Z" />
</svg>
