<svg viewBox="0 0 24 24" fill="currentColor" stroke="currentColor" xmlns="http://www.w3.org/2000/svg">
<path d="M10.02 21C10.02 21.552 9.57502 22 9.02502 22C8.47702 22 8.02002 21.552 8.02002 21C8.02002 20.448 8.455 20 9.005 20H9.02502C9.57402 20 10.02 20.448 10.02 21ZM17.024 20H17.004C16.454 20 16.019 20.448 16.019 21C16.019 21.552 16.476 22 17.024 22C17.574 22 18.019 21.552 18.019 21C18.019 20.448 17.574 20 17.024 20ZM21.459 8.44701L20.444 14.617C20.185 16.046 19.574 17.499 17 17.499H8.73401C7.49801 17.499 6.43403 16.576 6.25903 15.353L4.74902 4.78799C4.64502 4.05399 4.00601 3.5 3.26501 3.5H3C2.724 3.5 2.5 3.276 2.5 3C2.5 2.724 2.724 2.5 3 2.5H3.26599C4.50199 2.5 5.56597 3.423 5.74097 4.646L5.86304 5.5H19C19.744 5.5 20.443 5.82699 20.92 6.39799C21.396 6.969 21.592 7.71601 21.459 8.44701ZM20.151 7.039C19.865 6.696 19.445 6.5 18.999 6.5H6.005L7.25 15.212C7.354 15.946 7.99301 16.5 8.73401 16.5H17C18.754 16.5 19.218 15.778 19.459 14.447L20.474 8.276C20.555 7.829 20.437 7.382 20.151 7.039ZM16.4561 8.905C16.9351 9.489 17.1101 10.344 16.9351 11.25C16.4991 13.494 13.822 14.736 13.707 14.788C13.642 14.818 13.57 14.833 13.5 14.833C13.43 14.833 13.358 14.818 13.293 14.788C13.179 14.736 10.4999 13.494 10.0649 11.25C9.88894 10.345 10.0639 9.491 10.5439 8.905C10.9379 8.426 11.5 8.17001 12.171 8.16701C12.174 8.16701 12.177 8.16701 12.181 8.16701C12.766 8.16701 13.2 8.421 13.499 8.733C13.801 8.419 14.22 8.17701 14.828 8.16701C15.5 8.17001 16.0621 8.425 16.4561 8.905ZM15.684 9.53999C15.482 9.29399 15.193 9.16901 14.825 9.16701C14.823 9.16701 14.8219 9.16701 14.8199 9.16701C14.1999 9.16701 13.977 9.81401 13.975 9.82001C13.838 10.229 13.163 10.229 13.026 9.82001C13.004 9.75701 12.778 9.16701 12.181 9.16701C12.18 9.16701 12.178 9.16701 12.177 9.16701C11.809 9.16801 11.52 9.29399 11.318 9.53999C11.032 9.88899 10.931 10.457 11.048 11.06C11.324 12.491 12.922 13.464 13.499 13.773C14.076 13.462 15.677 12.484 15.952 11.06C16.069 10.456 15.969 9.88799 15.684 9.53999Z" />
</svg>
