<svg viewBox="0 0 24 24" fill="currentColor" stroke="currentColor" xmlns="http://www.w3.org/2000/svg">
<path d="M10 21C10 21.552 9.55501 22 9.005 22C8.45701 22 8 21.552 8 21C8 20.448 8.43499 20 8.98499 20H9.005C9.55501 20 10 20.448 10 21ZM17.005 20H16.985C16.435 20 16 20.448 16 21C16 21.552 16.457 22 17.005 22C17.555 22 18 21.552 18 21C18 20.448 17.555 20 17.005 20ZM21.459 8.44701L20.444 14.617C20.185 16.046 19.574 17.499 17 17.499H8.73401C7.49801 17.499 6.43403 16.576 6.25903 15.353L4.74902 4.78799C4.64502 4.05399 4.00601 3.5 3.26501 3.5H3C2.724 3.5 2.5 3.276 2.5 3C2.5 2.724 2.724 2.5 3 2.5H3.26599C4.50199 2.5 5.56597 3.423 5.74097 4.646L5.86304 5.5H19C19.744 5.5 20.443 5.82699 20.92 6.39799C21.396 6.969 21.592 7.71601 21.459 8.44701ZM20.151 7.039C19.865 6.696 19.445 6.5 18.999 6.5H6.005L7.25 15.212C7.354 15.946 7.99301 16.5 8.73401 16.5H17C18.754 16.5 19.218 15.778 19.459 14.447L20.474 8.276C20.555 7.829 20.437 7.382 20.151 7.039ZM15.5 11H14V9.5C14 9.224 13.776 9 13.5 9C13.224 9 13 9.224 13 9.5V11H11.5C11.224 11 11 11.224 11 11.5C11 11.776 11.224 12 11.5 12H13V13.5C13 13.776 13.224 14 13.5 14C13.776 14 14 13.776 14 13.5V12H15.5C15.776 12 16 11.776 16 11.5C16 11.224 15.776 11 15.5 11Z" />
</svg>
