<svg viewBox="0 0 24 24" fill="currentColor" stroke="currentColor" xmlns="http://www.w3.org/2000/svg">
<path d="M21.5 9C21.5 7.622 20.379 6.5 19 6.5H16.725L14.49 2.744C14.347 2.506 14.038 2.43101 13.804 2.57001C13.567 2.71201 13.489 3.018 13.63 3.256L15.561 6.5H8.526L10.4871 3.259C10.6301 3.023 10.554 2.71501 10.318 2.57201C10.085 2.43001 9.77498 2.504 9.63098 2.741L7.35706 6.5H5C3.621 6.5 2.5 7.622 2.5 9C2.5 10.041 3.14 10.934 4.047 11.31L4.75098 18.349C4.88598 19.702 5.39403 21.5 8.23303 21.5H15.803C17.935 21.5 19.074 20.469 19.285 18.349L19.99 11.293C20.878 10.908 21.5 10.026 21.5 9ZM15.804 20.5H8.23401C6.35001 20.5 5.88497 19.639 5.74597 18.249L5.07104 11.5H18.967L18.292 18.249C18.156 19.6 17.682 20.5 15.804 20.5ZM19 10.5H5C4.173 10.5 3.5 9.827 3.5 9C3.5 8.173 4.173 7.5 5 7.5H19C19.827 7.5 20.5 8.173 20.5 9C20.5 9.827 19.827 10.5 19 10.5ZM14.5 16C14.5 16.276 14.276 16.5 14 16.5H12.5V18C12.5 18.276 12.276 18.5 12 18.5C11.724 18.5 11.5 18.276 11.5 18V16.5H10C9.724 16.5 9.5 16.276 9.5 16C9.5 15.724 9.724 15.5 10 15.5H11.5V14C11.5 13.724 11.724 13.5 12 13.5C12.276 13.5 12.5 13.724 12.5 14V15.5H14C14.276 15.5 14.5 15.724 14.5 16Z" />
</svg>
