<svg viewBox="0 0 24 24" fill="currentColor" stroke="currentColor" xmlns="http://www.w3.org/2000/svg">
<path d="M21.5 9C21.5 7.622 20.379 6.5 19 6.5H16.8149L14.5811 2.744C14.4381 2.506 14.13 2.43101 13.895 2.57001C13.658 2.71101 13.5799 3.018 13.7209 3.256L15.651 6.5H8.61694L10.578 3.259C10.721 3.023 10.6451 2.71501 10.4091 2.57201C10.1751 2.43001 9.86605 2.504 9.72205 2.741L7.448 6.5H5C3.621 6.5 2.5 7.622 2.5 9C2.5 10.041 3.14 10.934 4.047 11.31L4.75098 18.349C4.88598 19.702 5.39403 21.5 8.23303 21.5H15.803C17.935 21.5 19.074 20.469 19.285 18.349L19.99 11.293C20.878 10.908 21.5 10.026 21.5 9ZM15.804 20.5H8.23401C6.35001 20.5 5.88497 19.639 5.74597 18.249L5.07104 11.5H18.967L18.292 18.249C18.156 19.6 17.682 20.5 15.804 20.5ZM19 10.5H5C4.173 10.5 3.5 9.827 3.5 9C3.5 8.173 4.173 7.5 5 7.5H19C19.827 7.5 20.5 8.173 20.5 9C20.5 9.827 19.827 10.5 19 10.5ZM13.329 12.667C12.749 12.688 12.302 12.919 12 13.233C11.7 12.921 11.267 12.667 10.682 12.667C10.678 12.667 10.675 12.667 10.672 12.667C10.001 12.67 9.43904 12.926 9.04504 13.405C8.56504 13.99 8.39004 14.845 8.56604 15.75C9.00104 17.994 11.6789 19.236 11.7939 19.288C11.8589 19.318 11.931 19.333 12.001 19.333C12.071 19.333 12.143 19.318 12.208 19.288C12.322 19.236 15.001 17.994 15.436 15.75C15.612 14.844 15.437 13.99 14.957 13.405C14.562 12.925 14 12.67 13.329 12.667ZM14.452 15.56C14.177 16.985 12.577 17.962 12 18.273C11.423 17.962 9.82297 16.985 9.54797 15.56C9.43097 14.957 9.53099 14.389 9.81799 14.04C10.02 13.794 10.309 13.668 10.677 13.667C10.678 13.667 10.68 13.667 10.681 13.667C11.278 13.667 11.503 14.257 11.526 14.32C11.663 14.729 12.338 14.729 12.475 14.32C12.477 14.314 12.6999 13.667 13.3199 13.667C13.3219 13.667 13.323 13.667 13.325 13.667C13.693 13.668 13.982 13.794 14.184 14.04C14.469 14.388 14.569 14.956 14.452 15.56Z" />
</svg>
