<svg viewBox="0 0 24 24" fill="currentColor" stroke="currentColor" xmlns="http://www.w3.org/2000/svg">
<path d="M21.5 9C21.5 7.622 20.379 6.5 19 6.5H16.744L14.5 2.744C14.357 2.506 14.05 2.43 13.813 2.571C13.576 2.712 13.499 3.02 13.64 3.257L15.578 6.50101H8.54504L10.498 3.259C10.64 3.023 10.563 2.716 10.327 2.573C10.094 2.432 9.78501 2.506 9.64001 2.743L7.37598 6.50101H5C3.621 6.50101 2.5 7.62301 2.5 9.00101C2.5 10.042 3.14 10.935 4.047 11.311L4.75098 18.35C4.88598 19.703 5.39403 21.501 8.23303 21.501H15.803C17.935 21.501 19.074 20.47 19.285 18.35L19.99 11.294C20.878 10.908 21.5 10.026 21.5 9ZM15.804 20.5H8.23401C6.35001 20.5 5.88497 19.639 5.74597 18.249L5.07104 11.5H18.967L18.292 18.249C18.156 19.6 17.682 20.5 15.804 20.5ZM19 10.5H5C4.173 10.5 3.5 9.827 3.5 9C3.5 8.173 4.173 7.5 5 7.5H19C19.827 7.5 20.5 8.173 20.5 9C20.5 9.827 19.827 10.5 19 10.5ZM14.5 16C14.5 16.276 14.276 16.5 14 16.5H10C9.724 16.5 9.5 16.276 9.5 16C9.5 15.724 9.724 15.5 10 15.5H14C14.276 15.5 14.5 15.724 14.5 16Z" />
</svg>
