<svg viewBox="0 0 24 24" fill="currentColor" stroke="currentColor" xmlns="http://www.w3.org/2000/svg">
<path d="M20.814 10.668C20.636 8.802 19.204 7.5 17.33 7.5H16.5V7C16.5 4.519 14.481 2.5 12 2.5C9.519 2.5 7.5 4.519 7.5 7V7.5H6.67004C4.79604 7.5 3.36303 8.803 3.18603 10.668L2.51904 17.668C2.41904 18.718 2.723 19.692 3.375 20.409C4.015 21.112 4.94695 21.5 6.00195 21.5H17.998C19.053 21.5 19.985 21.112 20.625 20.409C21.277 19.692 21.581 18.718 21.481 17.668L20.814 10.668ZM8.5 7C8.5 5.07 10.07 3.5 12 3.5C13.93 3.5 15.5 5.07 15.5 7V7.5H8.5V7ZM19.885 19.736C19.432 20.236 18.779 20.5 17.998 20.5H6.00195C5.22195 20.5 4.56799 20.236 4.11499 19.736C3.65399 19.23 3.44104 18.529 3.51404 17.762L4.18103 10.762C4.31003 9.40799 5.30994 8.49899 6.66894 8.49899H17.329C18.688 8.49899 19.688 9.40799 19.817 10.762L20.484 17.762C20.559 18.529 20.346 19.23 19.885 19.736ZM8.75 12C8.75 12.414 8.41603 12.75 8.00403 12.75C7.59303 12.75 7.25 12.414 7.25 12C7.25 11.586 7.57701 11.25 7.98901 11.25H8.00403C8.41603 11.25 8.75 11.586 8.75 12ZM16.75 12C16.75 12.414 16.416 12.75 16.004 12.75C15.593 12.75 15.25 12.414 15.25 12C15.25 11.586 15.577 11.25 15.989 11.25H16.004C16.416 11.25 16.75 11.586 16.75 12Z" />
</svg>
