<svg viewBox="0 0 24 24" fill="currentColor" stroke="currentColor" xmlns="http://www.w3.org/2000/svg">
<path d="M10 21C10 21.552 9.55501 22 9.005 22C8.45701 22 8 21.552 8 21C8 20.448 8.43499 20 8.98499 20H9.005C9.55501 20 10 20.448 10 21ZM17.005 20H16.985C16.435 20 16 20.448 16 21C16 21.552 16.457 22 17.005 22C17.555 22 18 21.552 18 21C18 20.448 17.555 20 17.005 20ZM21.459 8.44701L20.444 14.617C20.185 16.046 19.574 17.499 17 17.499H8.73401C7.49801 17.499 6.43403 16.576 6.25903 15.353L4.74902 4.78799C4.64502 4.05399 4.00601 3.5 3.26501 3.5H3C2.724 3.5 2.5 3.276 2.5 3C2.5 2.724 2.724 2.5 3 2.5H3.26599C4.50199 2.5 5.56597 3.423 5.74097 4.646L5.86304 5.5H19C19.744 5.5 20.443 5.82699 20.92 6.39799C21.396 6.969 21.592 7.71601 21.459 8.44701ZM20.151 7.039C19.865 6.696 19.445 6.5 18.999 6.5H6.005L7.25 15.212C7.354 15.946 7.99301 16.5 8.73401 16.5H17C18.754 16.5 19.218 15.778 19.459 14.447L20.474 8.276C20.555 7.829 20.437 7.382 20.151 7.039ZM16.959 10.642C17.058 10.946 16.9769 11.273 16.7469 11.496L15.729 12.483L15.9611 13.831C16.0171 14.153 15.8869 14.474 15.6219 14.668C15.4709 14.777 15.2949 14.834 15.1169 14.834C14.9809 14.834 14.845 14.801 14.718 14.735L13.499 14.097L12.28 14.735C11.989 14.888 11.64 14.861 11.376 14.668C11.111 14.474 10.981 14.153 11.038 13.83L11.269 12.484L10.251 11.497C10.022 11.274 9.93994 10.947 10.0389 10.643C10.1379 10.339 10.396 10.121 10.713 10.075L12.121 9.871L12.729 8.64301C13.02 8.05601 13.975 8.05501 14.266 8.64301L14.874 9.87L16.282 10.074C16.602 10.12 16.86 10.338 16.959 10.642ZM15.807 11.016L14.649 10.848C14.378 10.809 14.142 10.64 14.02 10.393L13.5 9.345L12.98 10.393C12.858 10.639 12.623 10.809 12.35 10.848L11.193 11.016L12.03 11.828C12.227 12.019 12.317 12.296 12.271 12.566L12.073 13.715L13.113 13.171C13.355 13.045 13.645 13.045 13.885 13.171L14.926 13.716L14.728 12.568C14.682 12.297 14.772 12.02 14.97 11.828L15.807 11.016Z" />
</svg>
