<svg viewBox="0 0 24 24" fill="currentColor" stroke="currentColor" xmlns="http://www.w3.org/2000/svg">
<path d="M21.5 9C21.5 7.622 20.379 6.5 19 6.5H16.704L14.47 2.744C14.327 2.506 14.0181 2.43101 13.7841 2.57001C13.5471 2.71101 13.469 3.018 13.61 3.256L15.54 6.5H8.50598L10.467 3.259C10.61 3.023 10.534 2.71501 10.298 2.57201C10.064 2.43001 9.75496 2.504 9.61096 2.741L7.33704 6.5H5C3.621 6.5 2.5 7.622 2.5 9C2.5 10.041 3.14 10.934 4.047 11.31L4.75098 18.349C4.88598 19.702 5.39403 21.5 8.23303 21.5H15.803C17.935 21.5 19.074 20.469 19.285 18.349L19.99 11.293C20.878 10.908 21.5 10.026 21.5 9ZM15.804 20.5H8.23401C6.35001 20.5 5.88497 19.639 5.74597 18.249L5.07104 11.5H18.967L18.292 18.249C18.156 19.6 17.682 20.5 15.804 20.5ZM19 10.5H5C4.173 10.5 3.5 9.827 3.5 9C3.5 8.173 4.173 7.5 5 7.5H19C19.827 7.5 20.5 8.173 20.5 9C20.5 9.827 19.827 10.5 19 10.5ZM13.854 14.354L12.708 15.5L13.854 16.646C14.049 16.841 14.049 17.158 13.854 17.353C13.756 17.451 13.628 17.499 13.5 17.499C13.372 17.499 13.244 17.45 13.146 17.353L12 16.207L10.854 17.353C10.756 17.451 10.628 17.499 10.5 17.499C10.372 17.499 10.244 17.45 10.146 17.353C9.951 17.158 9.951 16.841 10.146 16.646L11.292 15.5L10.146 14.354C9.951 14.159 9.951 13.842 10.146 13.647C10.341 13.452 10.658 13.452 10.853 13.647L11.999 14.793L13.145 13.647C13.34 13.452 13.6571 13.452 13.8521 13.647C14.0471 13.842 14.049 14.158 13.854 14.354Z" />
</svg>
