<svg viewBox="0 0 24 24" fill="currentColor" stroke="currentColor" xmlns="http://www.w3.org/2000/svg">
<path d="M20.5 18C20.5 18.276 20.276 18.5 20 18.5H4C3.724 18.5 3.5 18.276 3.5 18C3.5 17.724 3.724 17.5 4 17.5H20C20.276 17.5 20.5 17.724 20.5 18ZM7 12.5H17C17.276 12.5 17.5 12.276 17.5 12C17.5 11.724 17.276 11.5 17 11.5H7C6.724 11.5 6.5 11.724 6.5 12C6.5 12.276 6.724 12.5 7 12.5ZM10 6.5H14C14.276 6.5 14.5 6.276 14.5 6C14.5 5.724 14.276 5.5 14 5.5H10C9.724 5.5 9.5 5.724 9.5 6C9.5 6.276 9.724 6.5 10 6.5Z" />
</svg>
