<svg viewBox="0 0 24 24" fill="currentColor" stroke="currentColor" xmlns="http://www.w3.org/2000/svg">
<path d="M12 1.5C6.21 1.5 1.5 6.21 1.5 12C1.5 17.79 6.21 22.5 12 22.5C17.79 22.5 22.5 17.79 22.5 12C22.5 6.21 17.79 1.5 12 1.5ZM12 21.5C6.762 21.5 2.5 17.238 2.5 12C2.5 6.762 6.762 2.5 12 2.5C17.238 2.5 21.5 6.762 21.5 12C21.5 17.238 17.238 21.5 12 21.5ZM16.5 16C16.5 16.276 16.276 16.5 16 16.5H8C7.724 16.5 7.5 16.276 7.5 16C7.5 15.724 7.724 15.5 8 15.5H16C16.276 15.5 16.5 15.724 16.5 16ZM9 12C9 11.724 9.224 11.5 9.5 11.5H14.5C14.776 11.5 15 11.724 15 12C15 12.276 14.776 12.5 14.5 12.5H9.5C9.224 12.5 9 12.276 9 12ZM10.5 8C10.5 7.724 10.724 7.5 11 7.5H13C13.276 7.5 13.5 7.724 13.5 8C13.5 8.276 13.276 8.5 13 8.5H11C10.724 8.5 10.5 8.276 10.5 8Z" />
</svg>
