<svg viewBox="0 0 24 24" fill="currentColor" stroke="currentColor" xmlns="http://www.w3.org/2000/svg">
<path d="M21.309 7.951L20.269 4.879C19.798 3.486 19.252 2.50101 16.5 2.50101H7.50001C4.74801 2.50101 4.20196 3.487 3.73096 4.879L2.69105 7.952C2.24805 9.261 2.59501 10.657 3.50001 11.544V18C3.50001 20.29 4.71001 21.5 7.00001 21.5H17C19.29 21.5 20.5 20.29 20.5 18V11.543C21.405 10.656 21.751 9.26 21.309 7.951ZM3.63904 8.271L4.67896 5.198C5.03696 4.139 5.25301 3.49899 7.50001 3.49899H16.5C18.747 3.49899 18.9631 4.139 19.3211 5.198L20.361 8.27C20.742 9.397 20.332 10.611 19.385 11.158C18.999 11.381 18.555 11.499 18.1 11.499C16.964 11.499 15.854 10.782 15.515 9.832C15.445 9.632 15.256 9.49899 15.044 9.49899C15.043 9.49899 15.043 9.49899 15.042 9.49899C14.83 9.49999 14.6421 9.63501 14.5711 9.83501C14.2421 10.784 13.135 11.499 11.999 11.499C10.863 11.499 9.75601 10.784 9.42701 9.83501C9.35701 9.63401 9.13399 9.50299 8.95399 9.49899C8.74199 9.49899 8.55404 9.632 8.48304 9.832C8.14404 10.783 7.03396 11.499 5.89796 11.499C5.44296 11.499 4.99904 11.381 4.61304 11.158C3.66804 10.612 3.25804 9.398 3.63904 8.271ZM13.53 20.5H10.53V17.5C10.53 16.673 11.203 16 12.03 16C12.857 16 13.53 16.673 13.53 17.5V20.5ZM17 20.5H14.53V17.5C14.53 16.122 13.409 15 12.03 15C10.651 15 9.53004 16.122 9.53004 17.5V20.5H7.00001C5.27101 20.5 4.50001 19.729 4.50001 18V12.215C4.93901 12.401 5.41505 12.5 5.89905 12.5C7.10605 12.5 8.26503 11.915 8.95203 11.026C9.63403 11.915 10.79 12.5 12 12.5C13.21 12.5 14.366 11.915 15.048 11.026C15.735 11.915 16.894 12.5 18.101 12.5C18.585 12.5 19.061 12.401 19.5 12.215V18C19.5 19.729 18.729 20.5 17 20.5Z" />
</svg>
