<svg viewBox="0 0 24 24" fill="currentColor" stroke="currentColor" xmlns="http://www.w3.org/2000/svg">
<path d="M20.312 10.713L18.8149 9.21399C18.8099 9.20899 18.809 9.20202 18.804 9.19702C18.799 9.19202 18.792 9.18997 18.787 9.18597L13.113 3.50598C12.475 2.86698 11.592 2.50098 10.689 2.50098H4.95203C3.60003 2.50098 2.50098 3.60198 2.50098 4.95398V10.697C2.50098 11.613 2.857 12.474 3.505 13.122L9.18103 18.804C9.18403 18.807 9.18499 18.811 9.18799 18.814C9.19099 18.817 9.195 18.818 9.198 18.821L10.7061 20.33C11.4821 21.107 12.298 21.501 13.13 21.5C13.962 21.499 14.777 21.106 15.553 20.329L20.3149 15.563C21.8979 13.976 21.898 12.299 20.312 10.713ZM3.5 10.696V4.953C3.5 4.151 4.15105 3.5 4.95105 3.5H10.688C11.328 3.5 11.953 3.759 12.405 4.211L17.74 9.552L9.54102 17.751L4.20996 12.415C3.75296 11.956 3.5 11.345 3.5 10.696ZM19.605 14.856L14.843 19.622C13.682 20.785 12.575 20.787 11.41 19.622L10.2469 18.458L18.446 10.259L19.604 11.418C20.793 12.608 20.793 13.668 19.605 14.856ZM7.75 7C7.75 7.414 7.41603 7.75 7.00403 7.75C6.59303 7.75 6.25 7.414 6.25 7C6.25 6.586 6.57701 6.25 6.98901 6.25H7.00403C7.41603 6.25 7.75 6.586 7.75 7Z" />
</svg>
