<svg viewBox="0 0 24 24" fill="currentColor" stroke="currentColor" xmlns="http://www.w3.org/2000/svg">
<path d="M6.25 7.5C6.25 7.914 5.91603 8.25 5.50403 8.25C5.09303 8.25 4.75 7.914 4.75 7.5C4.75 7.086 5.07701 6.75 5.48901 6.75H5.50403C5.91603 6.75 6.25 7.086 6.25 7.5ZM17.429 15.206L13.196 19.443C12.496 20.144 11.758 20.5 11.004 20.5C10.248 20.5 9.51103 20.145 8.81104 19.443L2.41003 13.036C1.82403 12.449 1.50195 11.669 1.50195 10.841V5.73602C1.50195 4.50302 2.50396 3.5 3.73596 3.5H8.83606C9.65306 3.5 10.4531 3.832 11.0291 4.409L17.4301 10.816C18.8621 12.253 18.862 13.771 17.429 15.206ZM16.722 14.5C17.763 13.457 17.763 12.567 16.722 11.523L10.321 5.11603C9.93005 4.72403 9.38796 4.5 8.83496 4.5H3.73499C3.05399 4.5 2.50098 5.05502 2.50098 5.73602V10.841C2.50098 11.403 2.71997 11.932 3.11597 12.33L9.51697 18.736C10.527 19.748 11.475 19.75 12.489 18.736L16.722 14.5ZM21.424 10.817L15.028 4.41101C14.508 3.88001 13.803 3.56102 13.043 3.51202C12.802 3.49602 12.53 3.702 12.512 3.979C12.494 4.255 12.703 4.49201 12.979 4.51001C13.494 4.54301 13.967 4.75701 14.318 5.11401L20.718 11.524C21.239 12.045 21.502 12.547 21.501 13.017C21.5 13.484 21.237 13.982 20.718 14.497L16.485 18.74C15.989 19.245 15.49 19.5 15.002 19.5C14.726 19.5 14.502 19.724 14.502 20C14.502 20.276 14.726 20.5 15.002 20.5C15.769 20.5 16.5069 20.144 17.1949 19.443L21.424 15.205C22.1369 14.497 22.5 13.761 22.501 13.018C22.502 12.273 22.1399 11.532 21.424 10.817Z" />
</svg>
