<svg viewBox="0 0 24 24" fill="currentColor" stroke="currentColor" xmlns="http://www.w3.org/2000/svg">
<path d="M21.447 13.014C21.447 13.009 21.45 13.005 21.45 13C21.45 12.987 21.443 12.975 21.442 12.962C21.436 12.928 21.428 12.894 21.421 12.86C21.414 12.837 21.411 12.814 21.402 12.793C21.362 12.618 21.3191 12.443 21.2531 12.272L20.214 9.70599C19.746 8.52199 19.343 7.5 16.969 7.5H14.499V5.5C14.499 4.397 13.602 3.5 12.499 3.5H4.49902C3.39602 3.5 2.49902 4.397 2.49902 5.5V16.5C2.49902 17.603 3.39602 18.5 4.49902 18.5H4.55005C4.51705 18.662 4.49902 18.829 4.49902 19C4.49902 20.378 5.62002 21.5 6.99902 21.5C8.37802 21.5 9.49902 20.378 9.49902 19C9.49902 18.829 9.481 18.662 9.448 18.5H14.549C14.516 18.662 14.498 18.829 14.498 19C14.498 20.378 15.619 21.5 16.998 21.5C18.377 21.5 19.498 20.378 19.498 19C19.498 18.829 19.48 18.662 19.447 18.5H19.498C20.601 18.5 21.498 17.603 21.498 16.5V13.58C21.5 13.389 21.477 13.201 21.447 13.014ZM16.97 8.5C18.663 8.5 18.859 8.99303 19.286 10.077L20.267 12.5H14.5V8.5H16.97ZM7 20.5C6.173 20.5 5.5 19.827 5.5 19C5.5 18.173 6.173 17.5 7 17.5C7.827 17.5 8.5 18.173 8.5 19C8.5 19.827 7.827 20.5 7 20.5ZM17 20.5C16.173 20.5 15.5 19.827 15.5 19C15.5 18.173 16.173 17.5 17 17.5C17.827 17.5 18.5 18.173 18.5 19C18.5 19.827 17.827 20.5 17 20.5ZM20.5 16.5C20.5 17.052 20.052 17.5 19.5 17.5H18.9871C18.5301 16.896 17.813 16.5 17 16.5C16.187 16.5 15.4689 16.896 15.0129 17.5H8.98804C8.53104 16.896 7.81398 16.5 7.00098 16.5C6.18798 16.5 5.47004 16.896 5.01404 17.5H4.50098C3.94898 17.5 3.50098 17.052 3.50098 16.5V13.5H10.001C10.277 13.5 10.501 13.276 10.501 13C10.501 12.724 10.277 12.5 10.001 12.5H3.50098V5.5C3.50098 4.948 3.94898 4.5 4.50098 4.5H12.501C13.053 4.5 13.501 4.948 13.501 5.5V13.5H20.494C20.495 13.527 20.501 13.553 20.501 13.58V16.5H20.5Z" />
</svg>
