<svg viewBox="0 0 24 24" fill="currentColor" stroke="currentColor" xmlns="http://www.w3.org/2000/svg">
<path d="M12 7.5C14.94 7.5 16.5 5.94 16.5 3C16.5 2.72 16.28 2.5 16 2.5C13.06 2.5 11.5 4.06 11.5 7C11.5 7.28 11.72 7.5 12 7.5ZM15.48 3.51999C15.34 5.37999 14.38 6.34001 12.52 6.48001C12.66 4.62001 13.62 3.65999 15.48 3.51999ZM15.69 8.51999C14.17 8.20999 13.01 8.46001 12 9.32001C10.99 8.46001 9.84 8.20999 8.31 8.51999C5.89 9.01999 4.5 11.02 4.5 14C4.5 17.31 6.92 21.5 9.63 21.5C10.52 21.5 10.96 21.32 11.31 21.17C11.55 21.07 11.71 21 12 21C12.29 21 12.46 21.07 12.69 21.17C13.04 21.32 13.47 21.5 14.37 21.5C17.08 21.5 19.5 17.31 19.5 14C19.5 11.01 18.11 9.00999 15.69 8.51999ZM14.37 20.5C13.68 20.5 13.39 20.38 13.08 20.25C12.81 20.13 12.5 20 12 20C11.5 20 11.19 20.13 10.92 20.25C10.61 20.38 10.32 20.5 9.63 20.5C7.70001 20.5 5.5 17.04 5.5 14C5.5 12.55 5.89001 10.03 8.51001 9.5C9.89001 9.22 10.79 9.46999 11.64 10.36C11.83 10.56 12.17 10.56 12.36 10.36C13.21 9.46999 14.12 9.23 15.49 9.5C18.11 10.04 18.5 12.55 18.5 14C18.5 17.04 16.3 20.5 14.37 20.5Z" />
</svg>
