<svg viewBox="0 0 24 24" fill="currentColor" stroke="currentColor" xmlns="http://www.w3.org/2000/svg">
<path d="M20.9199 3.07983C18.9099 1.06983 13.2199 4.57984 8.89993 8.89984C6.57993 11.2198 4.67994 13.7099 3.54994 15.8899C2.31994 18.2699 2.15995 20.0099 3.06995 20.9199C3.46995 21.3199 4.01994 21.4998 4.66994 21.4998C7.28994 21.4998 11.6299 18.5598 15.0899 15.0898C17.4099 12.7698 19.3099 10.2798 20.4399 8.09985C21.6699 5.71985 21.8299 3.97985 20.9199 3.06985V3.07983ZM19.5499 7.65985C18.4699 9.74985 16.6399 12.1398 14.3899 14.3998C9.54994 19.2398 4.91994 21.3598 3.77994 20.2198C3.22994 19.6698 3.47994 18.2198 4.43994 16.3498C4.99994 15.2698 5.75994 14.1098 6.66994 12.9298L9.53993 13.7899C9.53993 13.7899 9.63993 13.8098 9.67993 13.8098C9.88993 13.8098 10.0899 13.6699 10.1599 13.4499C10.2399 13.1899 10.0899 12.9098 9.82994 12.8298L7.34995 12.0798C7.75995 11.5898 8.18994 11.0998 8.63994 10.6098L11.7799 11.5498C11.7799 11.5498 11.8799 11.5698 11.9199 11.5698C12.1299 11.5698 12.3299 11.4298 12.3999 11.2098C12.4799 10.9498 12.3299 10.6698 12.0699 10.5898L9.41994 9.79983C9.47994 9.72983 9.54994 9.66985 9.60994 9.59985C10.0699 9.13985 10.5199 8.71984 10.9699 8.30984L14.0899 9.23983C14.0899 9.23983 14.1899 9.25985 14.2299 9.25985C14.4499 9.25985 14.6399 9.11984 14.7099 8.89984C14.7899 8.63984 14.6399 8.35984 14.3699 8.27984L11.8699 7.52984C14.9899 4.88984 17.7999 3.46984 19.3099 3.46984C19.7099 3.46984 20.0199 3.56983 20.2199 3.76983C20.7699 4.31983 20.5199 5.76986 19.5599 7.63986L19.5499 7.65985Z" />
</svg>
