<svg viewBox="0 0 24 24" fill="currentColor" stroke="currentColor" xmlns="http://www.w3.org/2000/svg">
<path d="M19.99 10.5H4.00998C3.57998 10.5 3.16999 10.69 2.87999 11.01C2.58999 11.33 2.45998 11.76 2.50998 12.19C2.63998 13.23 2.94999 14.23 3.40999 15.16C3.40999 15.19 3.42999 15.21 3.43999 15.23C4.25999 16.87 5.54999 18.27 7.15999 19.21C7.32999 19.31 7.42998 19.47 7.42998 19.65V20C7.42998 20.83 8.09998 21.5 8.92998 21.5H15.05C15.88 21.5 16.55 20.83 16.55 20V19.65C16.55 19.47 16.65 19.31 16.82 19.21C18.44 18.27 19.73 16.87 20.55 15.22C20.55 15.2 20.57 15.18 20.57 15.16C21.03 14.23 21.34 13.22 21.47 12.18C21.52 11.76 21.39 11.33 21.1 11C20.81 10.68 20.4 10.49 19.97 10.49L19.99 10.5ZM3.61998 11.67C3.71998 11.56 3.85998 11.5 3.99998 11.5H19.98C20.13 11.5 20.26 11.56 20.36 11.67C20.46 11.78 20.5 11.92 20.48 12.06C20.37 12.91 20.12 13.73 19.77 14.5H4.18999C3.83999 13.73 3.58998 12.91 3.47998 12.06C3.45998 11.92 3.50999 11.78 3.59999 11.67H3.61998ZM16.33 18.34C15.85 18.62 15.56 19.11 15.56 19.65V20C15.56 20.28 15.34 20.5 15.06 20.5H8.93999C8.65999 20.5 8.43999 20.28 8.43999 20V19.65C8.43999 19.11 8.14998 18.62 7.66998 18.34C6.46998 17.64 5.46998 16.65 4.74998 15.49H19.26C18.53 16.65 17.54 17.64 16.34 18.34H16.33ZM4.99998 8.25L6.69998 8.45999C6.88998 8.47999 7.07998 8.48999 7.25998 8.48999C8.06998 8.48999 8.74998 8.25999 9.25998 7.80999C9.74998 7.36999 10.03 6.75999 10.12 5.98999H20.99C21.27 5.98999 21.49 5.76999 21.49 5.48999C21.49 5.20999 21.27 4.98999 20.99 4.98999H10.12C10.03 4.21999 9.74998 3.61001 9.25998 3.17001C8.63998 2.62001 7.75999 2.39999 6.70999 2.52999L4.99998 2.73999C3.56998 2.90999 2.48999 4.1 2.48999 5.5C2.48999 6.9 3.56998 8.09001 4.99998 8.26001V8.25ZM5.11998 3.72L6.82999 3.51001C7.57999 3.42001 8.20999 3.56 8.59999 3.91C8.96999 4.24 9.15999 4.77001 9.15999 5.48001C9.15999 6.19001 8.96999 6.71998 8.59999 7.04998C8.20999 7.39998 7.57999 7.54001 6.82999 7.45001L5.12999 7.23999C4.19999 7.12999 3.49998 6.37 3.49998 5.47C3.49998 4.57 4.19999 3.82001 5.12999 3.70001L5.11998 3.72Z" />
</svg>
