<svg viewBox="0 0 24 24" fill="currentColor" stroke="currentColor" xmlns="http://www.w3.org/2000/svg">
<path d="M21.49 12.1902C21.54 11.7702 21.41 11.3402 21.12 11.0102C20.83 10.6902 20.42 10.5002 19.99 10.5002H4.00998C3.57998 10.5002 3.16999 10.6902 2.87999 11.0102C2.58999 11.3302 2.45998 11.7602 2.50998 12.1902C2.63998 13.2302 2.94999 14.2302 3.40999 15.1602C3.40999 15.1902 3.42999 15.2102 3.43999 15.2302C4.25999 16.8702 5.54999 18.2702 7.15999 19.2102C7.32999 19.3102 7.42998 19.4702 7.42998 19.6502V20.0002C7.42998 20.8302 8.09998 21.5002 8.92998 21.5002H15.05C15.88 21.5002 16.55 20.8302 16.55 20.0002V19.6502C16.55 19.4702 16.65 19.3102 16.82 19.2102C18.44 18.2702 19.73 16.8702 20.55 15.2202C20.55 15.2002 20.57 15.1802 20.57 15.1602C21.03 14.2302 21.34 13.2202 21.47 12.1802L21.49 12.1902ZM3.62999 11.6802C3.72999 11.5702 3.86998 11.5102 4.00998 11.5102H19.99C20.14 11.5102 20.27 11.5702 20.37 11.6802C20.47 11.7902 20.51 11.9302 20.49 12.0702C20.38 12.9202 20.13 13.7402 19.78 14.5102H4.19998C3.84998 13.7402 3.59999 12.9202 3.48999 12.0702C3.46999 11.9302 3.51999 11.7902 3.60999 11.6802H3.62999ZM16.34 18.3502C15.86 18.6302 15.57 19.1202 15.57 19.6602V20.0102C15.57 20.2902 15.35 20.5102 15.07 20.5102H8.94998C8.66998 20.5102 8.44998 20.2902 8.44998 20.0102V19.6602C8.44998 19.1202 8.15998 18.6302 7.67998 18.3502C6.47998 17.6502 5.47998 16.6602 4.75998 15.5002H19.27C18.54 16.6602 17.55 17.6502 16.35 18.3502H16.34ZM11.35 6.2002C10.69 5.5402 10.69 4.46017 11.35 3.80017L11.5 3.65018C11.69 3.46018 12.01 3.45018 12.21 3.65018C12.41 3.84018 12.41 4.16017 12.21 4.36017L12.06 4.5102C11.79 4.7802 11.79 5.23019 12.06 5.50019L12.36 5.80017C13.02 6.46017 13.02 7.5402 12.36 8.2002L12.21 8.35019C12.11 8.45019 11.98 8.50019 11.86 8.50019C11.74 8.50019 11.61 8.45019 11.51 8.35019C11.31 8.16019 11.31 7.8402 11.51 7.6402L11.66 7.49018C11.93 7.22018 11.93 6.77019 11.66 6.50019L11.36 6.2002H11.35ZM16.35 6.2002C15.69 5.5402 15.69 4.46017 16.35 3.80017L16.5 3.65018C16.69 3.46018 17.01 3.45018 17.21 3.65018C17.41 3.84018 17.41 4.16017 17.21 4.36017L17.06 4.5102C16.79 4.7802 16.79 5.23019 17.06 5.50019L17.36 5.80017C18.02 6.46017 18.02 7.5402 17.36 8.2002L17.21 8.35019C17.11 8.45019 16.98 8.50019 16.86 8.50019C16.74 8.50019 16.61 8.45019 16.51 8.35019C16.31 8.16019 16.31 7.8402 16.51 7.6402L16.66 7.49018C16.93 7.22018 16.93 6.77019 16.66 6.50019L16.36 6.2002H16.35ZM6.34999 6.2002C5.68999 5.5402 5.68999 4.46017 6.34999 3.80017L6.49999 3.65018C6.68999 3.46018 7.00999 3.45018 7.20999 3.65018C7.40999 3.84018 7.40999 4.16017 7.20999 4.36017L7.05999 4.5102C6.78999 4.7802 6.78999 5.23019 7.05999 5.50019L7.35999 5.80017C8.01999 6.46017 8.01999 7.5402 7.35999 8.2002L7.20999 8.35019C7.10999 8.45019 6.97999 8.50019 6.85999 8.50019C6.73999 8.50019 6.60998 8.45019 6.50998 8.35019C6.30998 8.16019 6.30998 7.8402 6.50998 7.6402L6.65999 7.49018C6.92999 7.22018 6.92999 6.77019 6.65999 6.50019L6.35999 6.2002H6.34999Z" />
</svg>
