<svg viewBox="0 0 24 24" fill="currentColor" stroke="currentColor" xmlns="http://www.w3.org/2000/svg">
<path d="M14.77 13.9998C14.77 14.4098 14.44 14.7498 14.02 14.7498C13.6 14.7498 13.27 14.4098 13.27 13.9998C13.27 13.5898 13.6 13.2498 14.02 13.2498C14.44 13.2498 14.77 13.5898 14.77 13.9998ZM10.02 11.2498C9.61002 11.2498 9.27002 11.5898 9.27002 11.9998C9.27002 12.4098 9.61002 12.7498 10.02 12.7498C10.43 12.7498 10.77 12.4098 10.77 11.9998C10.77 11.5898 10.44 11.2498 10.02 11.2498ZM16.02 17.2498C15.61 17.2498 15.27 17.5898 15.27 17.9998C15.27 18.4098 15.61 18.7498 16.02 18.7498C16.43 18.7498 16.77 18.4098 16.77 17.9998C16.77 17.5898 16.44 17.2498 16.02 17.2498ZM9.02002 16.2498C8.61002 16.2498 8.27002 16.5898 8.27002 16.9998C8.27002 17.4098 8.61002 17.7498 9.02002 17.7498C9.43002 17.7498 9.77002 17.4098 9.77002 16.9998C9.77002 16.5898 9.44002 16.2498 9.02002 16.2498ZM15.77 8.99976C15.77 8.58976 15.44 8.24976 15.02 8.24976C14.61 8.24976 14.27 8.58976 14.27 8.99976C14.27 9.40976 14.61 9.74976 15.02 9.74976C15.43 9.74976 15.77 9.40976 15.77 8.99976ZM8.77002 7.99976C8.77002 7.58976 8.44002 7.24976 8.02002 7.24976C7.61002 7.24976 7.27002 7.58976 7.27002 7.99976C7.27002 8.40976 7.61002 8.74976 8.02002 8.74976C8.43002 8.74976 8.77002 8.40976 8.77002 7.99976ZM21.5 6.81976C21.5 7.71976 21.15 8.55977 20.52 9.19977L19.5 10.2198V19.5098C19.5 20.6098 18.6 21.5098 17.5 21.5098H6.5C5.4 21.5098 4.5 20.6098 4.5 19.5098V10.3198L4.35999 10.2498C3.20999 9.67976 2.5 8.52976 2.5 7.24976V6.82974C2.5 5.41974 3.39999 4.13976 4.73999 3.65976C6.19999 3.13976 8.64 2.50977 12 2.50977C15.36 2.50977 17.81 3.12976 19.26 3.65976C20.6 4.13976 21.5 5.40974 21.5 6.82974V6.81976ZM20.5 6.81976C20.5 5.82976 19.87 4.92975 18.93 4.58975C17.55 4.08975 15.23 3.49976 12 3.49976C8.77 3.49976 6.46001 4.08975 5.07001 4.58975C4.13001 4.92975 3.5 5.81976 3.5 6.81976V7.23975C3.5 8.13975 3.99999 8.94976 4.79999 9.34976L5.21997 9.55975C5.38997 9.63975 5.5 9.81977 5.5 10.0098V19.5098C5.5 20.0598 5.95 20.5098 6.5 20.5098H17.5C18.05 20.5098 18.5 20.0598 18.5 19.5098V10.0098C18.5 9.87977 18.55 9.74976 18.65 9.65976L19.81 8.49976C20.26 8.04976 20.5 7.45974 20.5 6.82974V6.81976Z" />
</svg>
