<svg viewBox="0 0 24 24" fill="currentColor" stroke="currentColor" xmlns="http://www.w3.org/2000/svg">
<path d="M20 16.5H4C3.45 16.5 3 16.95 3 17.5V18C3 20.29 4.21 21.5 6.5 21.5H17.5C19.79 21.5 21 20.29 21 18V17.5C21 16.95 20.55 16.5 20 16.5ZM20 18C20 19.73 19.23 20.5 17.5 20.5H6.5C4.77 20.5 4 19.73 4 18V17.5H20V18ZM4 11.5H20C20.55 11.5 21 11.05 21 10.5V10C21 5.44 17.47 2.5 12 2.5C6.53 2.5 3 5.44 3 10V10.5C3 11.05 3.45 11.5 4 11.5ZM4 10C4 5.99 7.07 3.5 12 3.5C16.93 3.5 20 5.99 20 10V10.5H4V10ZM21.5 14.72C21.5 15 21.28 15.22 21 15.22C20.05 15.22 19.55 14.74 19.16 14.36C18.81 14.02 18.56 13.78 18.01 13.78C17.46 13.78 17.21 14.02 16.86 14.36C16.46 14.74 15.97 15.22 15.01 15.22C14.05 15.22 13.56 14.74 13.16 14.36C12.81 14.02 12.56 13.78 12.01 13.78C11.46 13.78 11.21 14.02 10.86 14.36C10.46 14.74 9.96001 15.22 9.01001 15.22C8.06001 15.22 7.56 14.74 7.16 14.36C6.81 14.02 6.55 13.78 6 13.78C5.45 13.78 5.2 14.02 4.84 14.36C4.44 14.74 3.93999 15.22 2.98999 15.22C2.70999 15.22 2.48999 15 2.48999 14.72C2.48999 14.44 2.70999 14.22 2.98999 14.22C3.53999 14.22 3.78999 13.98 4.14999 13.64C4.54999 13.26 5.05 12.78 6 12.78C6.95 12.78 7.45001 13.26 7.85001 13.64C8.20001 13.98 8.46001 14.22 9.01001 14.22C9.56001 14.22 9.81 13.98 10.16 13.64C10.56 13.26 11.06 12.78 12.01 12.78C12.96 12.78 13.46 13.26 13.86 13.64C14.21 13.98 14.46 14.22 15.01 14.22C15.56 14.22 15.81 13.98 16.16 13.64C16.56 13.26 17.05 12.78 18.01 12.78C18.97 12.78 19.46 13.26 19.85 13.64C20.2 13.98 20.45 14.22 21 14.22C21.28 14.22 21.5 14.44 21.5 14.72ZM8.53 6.47C8.67 6.61 8.75 6.8 8.75 7C8.75 7.2 8.67 7.39 8.53 7.53C8.39 7.67 8.2 7.75 8 7.75C7.8 7.75 7.61 7.67 7.47 7.53C7.33 7.39 7.25 7.2 7.25 7C7.25 6.9 7.27 6.81001 7.31 6.71001C7.35 6.62001 7.4 6.54 7.47 6.47C7.74 6.19 8.25 6.19 8.53 6.47ZM12.53 5.47C12.67 5.61 12.75 5.8 12.75 6C12.75 6.1 12.73 6.18999 12.69 6.28999C12.65 6.37999 12.6 6.46 12.53 6.53C12.46 6.6 12.38 6.65 12.29 6.69C12.19 6.73 12.1 6.75 12 6.75C11.8 6.75 11.61 6.67 11.47 6.53C11.4 6.46 11.35 6.37999 11.31 6.28999C11.27 6.18999 11.25 6.1 11.25 6C11.25 5.8 11.33 5.61 11.47 5.47C11.68 5.26 12.01 5.19 12.29 5.31C12.38 5.34 12.46 5.4 12.53 5.47ZM16.53 6.47C16.67 6.61 16.75 6.8 16.75 7C16.75 7.1 16.73 7.19999 16.69 7.28999C16.65 7.37999 16.6 7.46 16.53 7.53C16.46 7.6 16.38 7.65 16.29 7.69C16.19 7.73 16.1 7.75 16 7.75C15.8 7.75 15.61 7.67 15.47 7.53C15.4 7.46 15.34 7.37999 15.31 7.28999C15.27 7.19999 15.25 7.1 15.25 7C15.25 6.8 15.33 6.61 15.47 6.47C15.67 6.26 16.01 6.19 16.29 6.31C16.38 6.35 16.46 6.4 16.53 6.47Z" />
</svg>
