<svg viewBox="0 0 24 24" fill="currentColor" stroke="currentColor" xmlns="http://www.w3.org/2000/svg">
<path d="M21.5 11.97C21.3 8.21002 18.88 4.93002 15.33 3.60002C14.8 3.40002 14.19 3.49002 13.7 3.83002L3.34003 11.14C3.15003 11.28 2.99999 11.45 2.85999 11.64C2.80999 11.69 2.77 11.74 2.75 11.8C2.59 12.09 2.48999 12.42 2.48999 12.77V17.99C2.48999 19.37 3.60999 20.49 4.98999 20.49H18.99C20.37 20.49 21.49 19.37 21.49 17.99V11.99C21.49 11.99 21.49 11.97 21.49 11.96L21.5 11.97ZM3.5 12.77C3.5 12.67 3.51998 12.58 3.53998 12.49H20.5V15.49H3.5V12.77ZM14.28 4.65001C14.42 4.55001 14.59 4.50002 14.74 4.50002C14.82 4.50002 14.9 4.51001 14.98 4.54001C17.98 5.66001 20.06 8.36002 20.43 11.5H4.57001L14.27 4.65001H14.28ZM19 19.5H5C4.17 19.5 3.5 18.83 3.5 18V16.5H20.5V18C20.5 18.83 19.83 19.5 19 19.5Z" />
</svg>
