<svg viewBox="0 0 24 24" fill="currentColor" stroke="currentColor" xmlns="http://www.w3.org/2000/svg">
<path d="M21 17.5H20.5V10C20.5 7.71 19.29 6.5 17 6.5H16.5V4C16.5 3.72 16.28 3.5 16 3.5C15.72 3.5 15.5 3.72 15.5 4V6.5H12.5V4C12.5 3.72 12.28 3.5 12 3.5C11.72 3.5 11.5 3.72 11.5 4V6.5H8.5V4C8.5 3.72 8.28 3.5 8 3.5C7.72 3.5 7.5 3.72 7.5 4V6.5H7C4.71 6.5 3.5 7.71 3.5 10V17.5H3C2.72 17.5 2.5 17.72 2.5 18V19.5C2.5 20.6 3.4 21.5 4.5 21.5H19.5C20.6 21.5 21.5 20.6 21.5 19.5V18C21.5 17.72 21.28 17.5 21 17.5ZM7 7.5H17C18.73 7.5 19.5 8.27 19.5 10V11.34C18.63 11.61 17.87 12.51 17.39 13.21C16.91 12.38 16.02 11.26 14.66 11.26C13.3 11.26 12.48 12.29 12 13.11C11.51 12.29 10.64 11.26 9.34 11.26C8.04 11.26 7.08999 12.38 6.60999 13.21C6.13999 12.52 5.37 11.62 4.5 11.34V10C4.5 8.27 5.27 7.5 7 7.5ZM4.5 12.43C5.18 12.84 5.91 13.91 6.22 14.49C6.31 14.66 6.50001 14.77 6.70001 14.75C6.90001 14.74 7.07 14.61 7.13 14.42C7.13 14.4 7.91999 12.25 9.32999 12.25C10.74 12.25 11.51 14.39 11.52 14.42C11.59 14.62 11.78 14.75 11.99 14.75C12.2 14.75 12.39 14.62 12.46 14.42C12.46 14.4 13.26 12.25 14.65 12.25C16.04 12.25 16.85 14.4 16.85 14.42C16.92 14.61 17.09 14.74 17.28 14.75C17.5 14.76 17.66 14.66 17.76 14.49C18.07 13.91 18.8 12.85 19.48 12.43V17.5H4.48001V12.43H4.5ZM20.5 19.5C20.5 20.05 20.05 20.5 19.5 20.5H4.5C3.95 20.5 3.5 20.05 3.5 19.5V18.5H20.5V19.5Z" />
</svg>
