<svg viewBox="0 0 24 24" fill="currentColor" stroke="currentColor" xmlns="http://www.w3.org/2000/svg">
<path d="M18.17 11.2798C19.03 10.2098 19.5 8.89977 19.5 7.50977C19.5 7.05977 19.45 6.62977 19.35 6.19977C19.35 6.19977 19.35 6.18975 19.35 6.17975C19.35 6.17975 19.35 6.17977 19.35 6.16977C19.1 5.07977 18.55 4.06977 17.74 3.25977C16.72 2.23977 15.4 1.63975 13.97 1.52975C13.81 1.51975 13.65 1.50977 13.49 1.50977C11.88 1.50977 10.37 2.12974 9.24004 3.26974L8.73003 3.77975C8.27003 4.23975 8.02003 4.84975 8.02003 5.48975C8.02003 6.12975 8.27003 6.74977 8.73003 7.19977C9.65003 8.11977 11.24 8.11977 12.16 7.19977C12.55 6.79977 13.27 6.75975 13.72 7.17975C13.92 7.36975 14.03 7.63976 14.04 7.93976C14.04 8.29976 13.9 8.65975 13.66 8.89975L4.25003 18.2997C3.78003 18.7697 3.53003 19.3798 3.53003 20.0398C3.53003 20.6998 3.79003 21.3198 4.25003 21.7798C4.73003 22.2598 5.36003 22.4998 5.99003 22.4998C6.62003 22.4998 7.25003 22.2598 7.73003 21.7798L14.65 14.8698C14.65 14.8698 14.68 14.8397 14.69 14.8297L17.76 11.7598C17.89 11.6298 18 11.4998 18.12 11.3698C18.15 11.3398 18.18 11.3097 18.2 11.2697L18.17 11.2798ZM18.24 5.98975L14.77 6.97977C14.67 6.77977 14.54 6.59976 14.37 6.43976C14.25 6.32976 14.11 6.22975 13.97 6.14975L14.34 2.58975C15.35 2.76975 16.28 3.22976 17.02 3.96976C17.6 4.53976 17.99 5.23975 18.23 5.98975H18.24ZM11.43 6.49976C10.89 7.03976 9.95003 7.03976 9.42003 6.49976C9.15003 6.22976 9.00003 5.86975 9.00003 5.48975C9.00003 5.10975 9.15003 4.74977 9.42003 4.47977L9.93002 3.96976C10.85 3.04976 12.06 2.54974 13.36 2.51974L13.01 5.87976C13.01 5.87976 12.97 5.87976 12.94 5.87976C12.36 5.87976 11.82 6.09976 11.43 6.49976ZM14.34 9.60974C14.77 9.17974 15.02 8.56977 15.01 7.94977L18.45 6.96976C18.47 7.14976 18.5 7.32974 18.5 7.51974C18.5 8.61974 18.13 9.64977 17.48 10.5098H13.44L14.34 9.60974ZM14.08 14.0098H9.94003L12.44 11.5098H16.58L14.08 14.0098ZM10.58 17.5098H6.44003L8.94003 15.0098H13.08L10.58 17.5098ZM7.00003 21.0797C6.43003 21.6497 5.50003 21.6497 4.93003 21.0797C4.65003 20.7997 4.50003 20.4398 4.50003 20.0398C4.50003 19.6398 4.65003 19.2798 4.93003 18.9998L5.43003 18.4998H9.57004L7.00003 21.0698V21.0797Z" />
</svg>
