<svg viewBox="0 0 24 24" fill="currentColor" stroke="currentColor" xmlns="http://www.w3.org/2000/svg">
<path d="M20.36 6.35013C20.11 6.27013 19.96 6.06012 19.96 5.81012C19.96 4.95012 19.25 4.25012 18.37 4.25012C18.12 4.25012 17.9 4.1001 17.82 3.8601L17.71 3.57013C17.52 3.01013 17.04 2.61011 16.46 2.52011C15.87 2.43011 15.28 2.67011 14.93 3.15011C14.21 4.13011 13.92 5.1901 14.04 6.3601C13.4 6.1301 12.72 6.00012 12 6.00012C10.83 6.00012 9.72998 6.34011 8.80998 6.93011C8.80998 6.93011 8.80997 6.93011 8.79997 6.93011C7.11997 8.00011 6.00999 9.86011 6.00999 11.9901C6.00999 12.7001 6.13996 13.3701 6.35996 14.0001C5.40996 13.9501 4.39998 14.2001 3.34998 14.7601C2.77998 15.0701 2.45999 15.6501 2.50999 16.2801C2.55999 16.9101 2.97999 17.4201 3.63999 17.6401C3.88999 17.7201 4.03999 17.9301 4.03999 18.1801C4.03999 19.0401 4.74998 19.7401 5.62998 19.7401C5.87998 19.7401 6.09997 19.8901 6.17997 20.1301L6.28999 20.4201C6.47999 20.9801 6.95999 21.3801 7.53999 21.4701C7.61999 21.4801 7.70999 21.4901 7.78999 21.4901C8.28999 21.4901 8.76996 21.2501 9.07996 20.8401C9.79996 19.8601 10.09 18.8001 9.96998 17.6301C10.61 17.8601 11.29 17.9901 12.01 17.9901C13.18 17.9901 14.28 17.6501 15.2 17.0601C15.2 17.0601 15.2 17.0601 15.21 17.0601C16.89 15.9901 18 14.1301 18 12.0001C18 11.2901 17.87 10.6201 17.64 9.98013C17.72 9.98013 17.79 10.0001 17.87 10.0001C18.75 10.0001 19.68 9.74013 20.65 9.23013C21.22 8.92013 21.54 8.34011 21.49 7.71011C21.44 7.08011 21.02 6.57013 20.36 6.35013ZM9.49998 16.3101V7.70013C10.1 7.35013 10.78 7.13011 11.5 7.05011V16.9501C10.78 16.8801 10.1 16.6601 9.49998 16.3001V16.3101ZM12.5 7.06012C13.22 7.13012 13.9 7.35011 14.5 7.71011V16.3201C13.9 16.6701 13.22 16.8901 12.5 16.9701V7.07013V7.06012ZM8.49998 8.45013V15.5701C7.57998 14.6601 6.99998 13.4001 6.99998 12.0101C6.99998 10.6201 7.57998 9.36013 8.49998 8.45013ZM8.26997 20.2701C8.13997 20.4501 7.91998 20.5501 7.68998 20.5101C7.58998 20.4901 7.32999 20.4201 7.22999 20.1201L7.12998 19.8401C6.91998 19.2101 6.30998 18.7801 5.62998 18.7801C5.30998 18.7801 5.03999 18.5201 5.03999 18.2201C5.03999 17.5501 4.60997 16.9501 3.89997 16.7201C3.66997 16.6401 3.52999 16.4701 3.50999 16.2401C3.48999 16.0101 3.60999 15.8001 3.81999 15.6901C4.92999 15.1001 5.95998 14.9201 6.87998 15.1401C7.35998 15.9301 8.01997 16.6101 8.79997 17.1001C8.79997 17.1001 8.79998 17.1001 8.80998 17.1001C8.80998 17.1001 8.82997 17.1101 8.83997 17.1201C9.14997 18.3301 8.98997 19.3201 8.26997 20.2901V20.2701ZM15.5 15.5801V8.46011C16.42 9.37011 17 10.6301 17 12.0201C17 13.4101 16.42 14.6701 15.5 15.5801ZM20.19 8.37011C19.08 8.96011 18.05 9.13013 17.13 8.92013C16.65 8.13013 15.99 7.46011 15.21 6.96011C15.21 6.96011 15.21 6.96011 15.2 6.96011C15.2 6.96011 15.18 6.95012 15.17 6.94012C14.86 5.73012 15.02 4.74011 15.74 3.77011C15.88 3.59011 16.09 3.50012 16.32 3.53012C16.42 3.55012 16.68 3.62013 16.78 3.92013L16.88 4.20013C17.09 4.83013 17.7 5.26013 18.38 5.26013C18.7 5.26013 18.97 5.52013 18.97 5.82013C18.97 6.49013 19.4 7.09013 20.11 7.32013C20.34 7.40013 20.48 7.57011 20.5 7.80011C20.52 8.03011 20.4 8.24013 20.19 8.35013V8.37011Z" />
</svg>
