<svg viewBox="0 0 24 24" fill="currentColor" stroke="currentColor" xmlns="http://www.w3.org/2000/svg">
<path d="M21.35 8.37C20.49 7.51 18.63 6.74 17.09 6.99C17.05 6.99 17.02 7.00999 16.98 7.02C16.98 6.98 17.01 6.94 17.01 6.9C17.26 5.37 16.49 3.5 15.63 2.65C15.43 2.45 15.12 2.45 14.92 2.65C14.06 3.51 13.29 5.38001 13.54 6.91001C13.55 7.00001 13.59 7.08002 13.61 7.17002C11.97 6.69002 10.13 7.06999 8.83997 8.35999C8.75997 8.43999 8.68997 8.51 8.61997 8.59C8.61997 8.59 8.59997 8.58999 8.58997 8.60999C8.58997 8.60999 8.57999 8.63002 8.56999 8.64002C6.46999 10.77 4.96997 12.87 3.92997 15.2C3.92997 15.21 3.92999 15.22 3.91999 15.24C3.29999 16.64 2.83998 18.13 2.52998 19.75C2.43998 20.23 2.58998 20.73 2.93998 21.08C3.21998 21.36 3.59997 21.51 3.98997 21.51C4.07997 21.51 4.17997 21.51 4.26997 21.48C8.78997 20.6 12.09 18.77 15.66 15.17C16.94 13.87 17.33 12.03 16.85 10.39C16.94 10.41 17.02 10.45 17.11 10.46C17.31 10.49 17.51 10.51 17.72 10.51C19.11 10.51 20.62 9.82999 21.37 9.07999C21.57 8.87999 21.57 8.57 21.37 8.37H21.35ZM15.28 3.79999C15.79 4.57999 16.18 5.79001 16.03 6.75001C15.94 7.30001 15.7 7.70002 15.28 7.98002C14.87 7.70002 14.62 7.30001 14.53 6.75001C14.38 5.80001 14.76 4.57999 15.28 3.79999ZM14.94 14.46C13.9 15.51 12.88 16.39 11.84 17.15L9.34998 14.66C9.14998 14.46 8.83999 14.46 8.63999 14.66C8.43999 14.86 8.43999 15.17 8.63999 15.37L11.01 17.74C8.90999 19.12 6.70998 19.99 4.05998 20.5C3.89998 20.53 3.73998 20.48 3.62998 20.37C3.50998 20.25 3.46998 20.1 3.49998 19.94C3.75998 18.63 4.10998 17.43 4.55998 16.29L5.63999 17.37C5.73999 17.47 5.86997 17.52 5.98997 17.52C6.10997 17.52 6.24997 17.47 6.33997 17.37C6.53997 17.17 6.53997 16.86 6.33997 16.66L4.96998 15.29C5.88998 13.32 7.17998 11.52 8.93998 9.68L10.62 11.36C10.72 11.46 10.85 11.51 10.97 11.51C11.09 11.51 11.23 11.46 11.32 11.36C11.52 11.16 11.52 10.85 11.32 10.65L9.62998 8.96C10.36 8.29 11.29 7.94001 12.23 7.94001C13.17 7.94001 14.18 8.30999 14.92 9.04999C16.4 10.53 16.4 12.95 14.92 14.45L14.94 14.46ZM17.26 9.47001C16.71 9.38001 16.31 9.14001 16.03 8.72001C16.31 8.31001 16.71 8.06001 17.26 7.97001C18.21 7.81001 19.43 8.20001 20.21 8.72001C19.43 9.23001 18.21 9.62001 17.26 9.47001Z" />
</svg>
