<svg viewBox="0 0 24 24" fill="currentColor" stroke="currentColor" xmlns="http://www.w3.org/2000/svg">
<path d="M18.02 15C18.02 15.55 17.57 16 17.02 16C16.47 16 16.02 15.55 16.02 15C16.02 14.45 16.46 14 17.02 14C17.57 14 18.02 14.45 18.02 15ZM13.02 16.25C12.61 16.25 12.27 16.59 12.27 17C12.27 17.41 12.61 17.75 13.02 17.75C13.43 17.75 13.77 17.41 13.77 17C13.77 16.59 13.44 16.25 13.02 16.25ZM8.02002 14.75C7.33002 14.75 6.77002 15.31 6.77002 16C6.77002 16.69 7.34002 17.25 8.02002 17.25C8.70002 17.25 9.27002 16.69 9.27002 16C9.27002 15.31 8.71002 14.75 8.02002 14.75ZM21.5 12V18C21.5 19.38 20.38 20.5 19 20.5H5C3.62 20.5 2.5 19.38 2.5 18V12.78C2.5 12.44 2.59001 12.1 2.76001 11.81C2.79001 11.75 2.82 11.69 2.87 11.65C3 11.46 3.14998 11.29 3.34998 11.15L13.71 3.84003C14.2 3.50003 14.81 3.41003 15.34 3.61003C18.88 4.94003 21.31 8.22003 21.51 11.98C21.51 11.98 21.51 12 21.51 12.01L21.5 12ZM4.58002 11.5H20.44C20.07 8.36003 17.99 5.66003 14.99 4.54003C14.91 4.51003 14.83 4.50003 14.75 4.50003C14.59 4.50003 14.43 4.55003 14.29 4.65003L4.59003 11.5H4.58002ZM20.5 18V12.5H3.53998C3.50998 12.59 3.5 12.68 3.5 12.78V18C3.5 18.83 4.17 19.5 5 19.5H19C19.83 19.5 20.5 18.83 20.5 18Z" />
</svg>
