<svg viewBox="0 0 24 24" fill="currentColor" stroke="currentColor" xmlns="http://www.w3.org/2000/svg">
<path d="M19.8201 4.17985C18.4101 2.76985 16.4001 2.18986 14.4501 2.65986C12.5001 3.11986 10.96 4.52987 10.33 6.41987L9.11005 10.0898C8.89005 10.7498 8.88005 11.4398 9.05005 12.0798L6.36005 14.7698C6.18005 14.9398 5.94007 14.9899 5.73007 14.9099C4.84007 14.4899 3.57007 14.7999 2.95007 15.6599C2.51007 16.2699 2.39007 17.0399 2.63007 17.7899C2.93007 18.6799 3.72005 19.2699 4.68005 19.3199C4.72005 19.9899 5.04005 20.6098 5.58005 21.0198C5.99005 21.3298 6.48007 21.4898 6.98007 21.4898C7.19007 21.4898 7.41006 21.4598 7.62006 21.3998C8.33006 21.2098 8.92006 20.6498 9.15006 19.9598C9.34006 19.4198 9.33006 18.8498 9.12006 18.3098C9.02006 18.0598 9.06006 17.8099 9.22006 17.6399L11.9401 14.9298C12.2201 14.9998 12.51 15.0498 12.8 15.0498C13.17 15.0498 13.5501 14.9898 13.9201 14.8698L17.5901 13.6498C19.4901 13.0198 20.8901 11.4799 21.3501 9.52985C21.8101 7.57985 21.24 5.57986 19.83 4.15986L19.8201 4.17985ZM8.50006 16.9499C8.06006 17.4099 7.94006 18.0799 8.18006 18.6899C8.26006 18.9099 8.33006 19.2498 8.19006 19.6498C8.07007 20.0298 7.73006 20.3399 7.34006 20.4499C6.92006 20.5599 6.50008 20.4899 6.17008 20.2299C5.84008 19.9799 5.66007 19.6099 5.66007 19.1999C5.66007 18.7099 5.28005 18.3298 4.80005 18.3298C4.20005 18.3298 3.74006 18.0098 3.56006 17.4898C3.42006 17.0498 3.48007 16.6199 3.73007 16.2599C4.08007 15.7699 4.75005 15.5698 5.30005 15.8298C5.89005 16.0698 6.57007 15.9398 7.04007 15.4898L9.47006 13.0598C9.61006 13.2799 9.76007 13.4799 9.95007 13.6699L10.3201 14.0399C10.5101 14.2299 10.7101 14.3798 10.9301 14.5198L8.49005 16.9499H8.50006ZM20.3701 9.30985C19.9901 10.9199 18.8301 12.1898 17.2601 12.7098L13.5901 13.9298C12.6901 14.2298 11.7101 13.9998 11.0301 13.3298L10.6601 12.9598C9.99007 12.2898 9.75006 11.3098 10.0601 10.3998L11.2801 6.72986C11.8001 5.15986 13.0701 3.99985 14.6801 3.61985C15.0501 3.52985 15.4201 3.48984 15.7801 3.48984C17.0201 3.48984 18.21 3.97986 19.11 4.87986C20.28 6.04986 20.7501 7.69985 20.3701 9.30985Z" />
</svg>
