<svg viewBox="0 0 24 24" fill="currentColor" stroke="currentColor" xmlns="http://www.w3.org/2000/svg">
<path d="M11.02 19.5C11.02 19.91 10.69 20.25 10.27 20.25C9.84999 20.25 9.51999 19.91 9.51999 19.5C9.51999 19.09 9.84999 18.75 10.27 18.75C10.69 18.75 11.02 19.09 11.02 19.5ZM16.5 2.5V13.5C16.5 14.05 16.05 14.5 15.5 14.5H14.36C13.7 14.5 13.09 14.8 12.69 15.32C12.28 15.84 12.14 16.5 12.3 17.14L12.8 19.15C13 19.96 12.82 20.8 12.31 21.46C11.8 22.12 11.02 22.5 10.19 22.5C8.71 22.5 7.5 21.29 7.5 19.81V5.13C7.5 2.72 8.72 1.5 11.13 1.5H15.5C16.05 1.5 16.5 1.95 16.5 2.5ZM11.83 19.4L11.36 17.5H8.5V19.81C8.5 20.74 9.26 21.5 10.19 21.5C10.71 21.5 11.2 21.26 11.52 20.85C11.84 20.44 11.96 19.91 11.83 19.4ZM15.5 2.5H11.13C9.29 2.5 8.5 3.29 8.5 5.13V16.5H11.25C11.28 15.85 11.49 15.23 11.9 14.7C12.5 13.94 13.39 13.5 14.36 13.5H15.5V2.5Z" />
</svg>
