<svg viewBox="0 0 24 24" fill="currentColor" stroke="currentColor" xmlns="http://www.w3.org/2000/svg">
<path d="M19.43 4.65999C19.43 4.65999 19.43 4.65 19.42 4.64C19.42 4.64 19.4 4.61998 19.39 4.60998C16.1 1.31998 10.11 1.94999 6.03001 6.02999C1.96001 10.1 1.31997 16.09 4.60997 19.39C6.02997 20.81 7.94998 21.5 9.99998 21.5C12.71 21.5 15.65 20.3 17.97 17.98C22.02 13.93 22.67 7.97 19.43 4.67V4.65999ZM6.73997 6.73C8.86998 4.6 11.55 3.48998 14 3.48998C15.75 3.48998 17.37 4.06 18.59 5.23C18.78 5.93 18.67 6.66999 18.25 7.40999C17.27 9.16999 14.71 10.81 11.89 11.51C8.75 12.28 6 14.08 4.89 16.09C4.64 16.55 4.48001 17.01 4.40001 17.47C2.63001 14.45 3.51997 9.94999 6.73997 6.71999V6.73ZM17.27 17.26C13.63 20.9 8.35999 21.56 5.43999 18.77C5.24999 18.07 5.35 17.33 5.77 16.58C6.74 14.83 9.31 13.19 12.14 12.49C15.21 11.73 18.02 9.88999 19.13 7.90999C19.38 7.45999 19.54 6.98999 19.62 6.52999C21.38 9.54999 20.49 14.04 17.27 17.26Z" />
</svg>
