<svg viewBox="0 0 24 24" fill="currentColor" stroke="currentColor" xmlns="http://www.w3.org/2000/svg">
<path d="M21.15 13.28C21.38 12.37 21.5 11.43 21.5 10.5C21.5 7.76004 20.48 5.13005 18.64 3.10005C18.1 2.51005 17.2799 2.33004 16.5499 2.66004C15.8099 2.99004 15.38 3.73003 15.45 4.54003C15.48 4.86003 15.5 5.17004 15.5 5.50004C15.5 6.79004 15.25 8.04004 14.75 9.25004C14.02 9.17004 13.26 9.41005 12.71 9.96005L9.95998 12.71C9.40998 13.26 9.16996 14.02 9.24996 14.75C7.76996 15.36 6.12994 15.6 4.53994 15.45C3.71994 15.38 2.97998 15.81 2.64998 16.55C2.32998 17.28 2.49999 18.1 3.08999 18.64C5.11999 20.48 7.74995 21.5 10.4899 21.5C11.4199 21.5 12.35 21.3801 13.27 21.1401C13.57 21.3201 13.9 21.4401 14.26 21.4801C14.36 21.4901 14.4499 21.5 14.5499 21.5C15.2099 21.5 15.84 21.24 16.31 20.77L20.75 16.33C21.29 15.79 21.5499 15.04 21.4699 14.28C21.4299 13.92 21.31 13.59 21.13 13.29L21.15 13.28ZM16.5 5.50004C16.5 5.15004 16.48 4.80004 16.45 4.45004C16.41 3.99004 16.68 3.69005 16.96 3.57005C17.09 3.51005 17.53 3.36004 17.9 3.77004C19.58 5.61004 20.5 8.00004 20.5 10.49C20.5 11.12 20.4199 11.76 20.2899 12.4L15.7999 9.60005C15.7999 9.60005 15.73 9.57004 15.7 9.55004C16.22 8.27004 16.4899 6.91004 16.4899 5.49004L16.5 5.50004ZM3.77999 17.9C3.36999 17.52 3.51998 17.08 3.57998 16.96C3.69998 16.69 3.98998 16.41 4.45998 16.45C6.16998 16.61 7.93996 16.36 9.55996 15.7C9.57996 15.73 9.58994 15.77 9.60994 15.81L12.4199 20.3C9.32994 20.89 6.09999 20.01 3.77999 17.91V17.9ZM20.06 15.61L15.62 20.05C15.29 20.37 14.84 20.5301 14.39 20.4801C13.93 20.4301 13.5299 20.17 13.2899 19.78L10.4699 15.26C10.0999 14.66 10.18 13.9 10.68 13.4L13.43 10.65C13.72 10.36 14.0999 10.21 14.4899 10.21C14.7599 10.21 15.0399 10.29 15.2899 10.44L19.81 13.26C19.99 13.37 20.14 13.53 20.26 13.7C20.39 13.89 20.47 14.12 20.5 14.36C20.55 14.82 20.4 15.26 20.07 15.59L20.06 15.61Z" />
</svg>
