<svg viewBox="0 0 24 24" fill="currentColor" stroke="currentColor" xmlns="http://www.w3.org/2000/svg">
<path d="M19 7H12.52L13.21 4.25999C13.32 3.80999 13.72 3.5 14.18 3.5H17.01C17.29 3.5 17.51 3.28 17.51 3C17.51 2.72 17.29 2.5 17.01 2.5H14.18C13.26 2.5 12.46 3.12 12.24 4.02L11.52 6.88C11.52 6.88 11.52 6.96 11.52 7H5.01001C4.73001 7 4.51001 7.22 4.51001 7.5C4.51001 7.78 4.73001 8 5.01001 8H5.60999L6.87 19.71C6.98 20.73 7.82999 21.5 8.85999 21.5H15.16C16.19 21.5 17.04 20.73 17.15 19.71L18.41 8H19.01C19.29 8 19.51 7.78 19.51 7.5C19.51 7.22 19.29 7 19.01 7H19ZM16.14 19.61C16.09 20.12 15.66 20.5 15.15 20.5H8.84998C8.33998 20.5 7.90999 20.12 7.85999 19.61L7.03998 12H16.96L16.14 19.61ZM17.07 11H6.92999L6.60999 8H17.4L17.08 11H17.07Z" />
</svg>
