<svg viewBox="0 0 24 24" fill="currentColor" stroke="currentColor" xmlns="http://www.w3.org/2000/svg">
<path d="M12 1.5C6.21 1.5 1.5 6.21 1.5 12C1.5 17.79 6.21 22.5 12 22.5C17.79 22.5 22.5 17.79 22.5 12C22.5 6.21 17.79 1.5 12 1.5ZM12 21.5C7.2 21.5 3.21998 17.91 2.59998 13.28C2.61998 13.31 2.63002 13.33 2.65002 13.36L3.65002 14.36C3.75002 14.46 3.88 14.51 4 14.51C4.12 14.51 4.25998 14.46 4.34998 14.36C4.54998 14.16 4.54998 13.85 4.34998 13.65L3.34998 12.65C3.14998 12.45 2.84001 12.45 2.64001 12.65C2.59001 12.7 2.56003 12.75 2.53003 12.81C2.51003 12.54 2.48999 12.28 2.48999 12C2.48999 6.76 6.74999 2.5 11.99 2.5C15.2 2.5 18.05 4.11 19.77 6.56C19.72 6.58 19.68 6.60999 19.64 6.64999L18.64 7.64999C18.44 7.84999 18.44 8.16 18.64 8.36C18.74 8.46 18.87 8.50999 18.99 8.50999C19.11 8.50999 19.25 8.46 19.34 8.36L20.29 7.41C21.05 8.77 21.48 10.34 21.48 12.01C21.48 17.25 17.22 21.51 11.98 21.51L12 21.5ZM12 8C9.79 8 8 9.79 8 12C8 14.21 9.79 16 12 16C14.21 16 16 14.21 16 12C16 9.79 14.21 8 12 8ZM12 15C10.35 15 9 13.65 9 12C9 10.35 10.35 9 12 9C13.65 9 15 10.35 15 12C15 13.65 13.65 15 12 15ZM7.34998 7.64999C7.54998 7.84999 7.54998 8.16 7.34998 8.36L6.34998 9.36C6.24998 9.46 6.12 9.50999 6 9.50999C5.88 9.50999 5.74002 9.46 5.65002 9.36C5.45002 9.16 5.45002 8.84999 5.65002 8.64999L6.65002 7.64999C6.85002 7.44999 7.15999 7.44999 7.35999 7.64999H7.34998ZM11.35 17.65C11.55 17.85 11.55 18.16 11.35 18.36L10.35 19.36C10.25 19.46 10.12 19.51 10 19.51C9.88 19.51 9.74002 19.46 9.65002 19.36C9.45002 19.16 9.45002 18.85 9.65002 18.65L10.65 17.65C10.85 17.45 11.16 17.45 11.36 17.65H11.35ZM18.35 15.65C18.55 15.85 18.55 16.16 18.35 16.36C18.25 16.46 18.12 16.51 18 16.51C17.88 16.51 17.74 16.46 17.65 16.36L16.65 15.36C16.45 15.16 16.45 14.85 16.65 14.65C16.85 14.45 17.16 14.45 17.36 14.65L18.36 15.65H18.35ZM12.64 5.36C12.44 5.16 12.44 4.84999 12.64 4.64999C12.84 4.44999 13.15 4.44999 13.35 4.64999L14.35 5.64999C14.55 5.84999 14.55 6.16 14.35 6.36C14.25 6.46 14.12 6.50999 14 6.50999C13.88 6.50999 13.74 6.46 13.65 6.36L12.65 5.36H12.64Z" />
</svg>
