<svg viewBox="0 0 24 24" fill="currentColor" stroke="currentColor" xmlns="http://www.w3.org/2000/svg">
<path d="M21.3499 6.95991C20.8299 4.86991 19.15 3.17991 17.06 2.64991C15.64 2.28991 14.1 2.58992 12.84 3.46992C11.42 4.45992 9.69996 5.00993 7.55996 5.13993C6.37996 5.20993 5.26997 5.65991 4.44997 6.39991C2.79997 7.87991 2.11998 10.2199 2.70998 12.3599C3.06998 13.6699 4.02998 14.8199 5.32998 15.5299C6.84998 16.3499 7.94997 17.3299 8.50997 18.3599C9.57997 20.3199 11.4299 21.4999 13.3599 21.4999C13.5699 21.4999 13.7699 21.4899 13.9799 21.4599C15.1599 21.2999 16.25 20.7999 17.14 20.0199C18.15 19.1199 18.74 17.7699 18.7999 16.2299C18.8699 14.5199 19.4699 12.7999 20.5999 11.1199C21.4299 9.88991 21.6999 8.37991 21.3499 6.95991ZM19.77 10.5599C18.53 12.3899 17.8699 14.2899 17.7899 16.1899C17.7399 17.4599 17.27 18.5499 16.46 19.2699C15.73 19.9199 14.82 20.3399 13.83 20.4699C12.11 20.6999 10.35 19.6899 9.36996 17.8799C8.70996 16.6699 7.50994 15.5799 5.78994 14.6499C4.71994 14.0699 3.93994 13.1399 3.65994 12.0899C3.16994 10.3099 3.73994 8.35993 5.09994 7.13993C5.75994 6.54993 6.64994 6.18992 7.59994 6.12992C9.92994 5.98992 11.82 5.37992 13.39 4.27992C14.4 3.57992 15.6599 3.3199 16.7899 3.6099C18.5299 4.0499 19.9299 5.45993 20.3599 7.19993C20.6399 8.33993 20.42 9.56992 19.75 10.5599H19.77ZM11.5 7.49992C9.28996 7.49992 7.49996 9.28992 7.49996 11.4999C7.49996 13.7099 9.28996 15.4999 11.5 15.4999C13.71 15.4999 15.5 13.7099 15.5 11.4999C15.5 9.28992 13.71 7.49992 11.5 7.49992ZM11.5 14.4999C9.84996 14.4999 8.49996 13.1499 8.49996 11.4999C8.49996 9.84992 9.84996 8.49992 11.5 8.49992C13.15 8.49992 14.5 9.84992 14.5 11.4999C14.5 13.1499 13.15 14.4999 11.5 14.4999Z" />
</svg>
