<svg viewBox="0 0 24 24" fill="currentColor" stroke="currentColor" xmlns="http://www.w3.org/2000/svg">
<path d="M12 2.5C7.65 2.5 4.5 9.37 4.5 14C4.5 17.01 6.5 21.5 12 21.5C17.5 21.5 19.5 17.01 19.5 14C19.5 9.37 16.35 2.5 12 2.5ZM12 20.5C7.23 20.5 5.5 16.61 5.5 14C5.5 9.87 8.29 3.5 12 3.5C15.71 3.5 18.5 9.87 18.5 14C18.5 16.61 16.77 20.5 12 20.5ZM9.71997 8.26999C9.71997 8.26999 8.5 10.17 8.5 12C8.5 12.28 8.28 12.5 8 12.5C7.72 12.5 7.5 12.28 7.5 12C7.5 9.88 8.82 7.81001 8.88 7.73001C9.03 7.50001 9.34001 7.43999 9.57001 7.57999C9.80001 7.72999 9.86997 8.03999 9.71997 8.26999Z" />
</svg>
