<svg viewBox="0 0 24 24" fill="currentColor" stroke="currentColor" xmlns="http://www.w3.org/2000/svg">
<path d="M18.77 11.9999C18.77 12.4099 18.44 12.7499 18.02 12.7499C17.6 12.7499 17.27 12.4099 17.27 11.9999C17.27 11.5899 17.6 11.2499 18.02 11.2499C18.44 11.2499 18.77 11.5899 18.77 11.9999ZM21.09 13.2299C19.59 15.2099 17.63 16.5499 15.44 17.1499C15.44 17.1499 15.43 17.1499 15.42 17.1599C15.38 17.1799 15.33 17.1799 15.29 17.1799C14.71 17.3299 14.12 17.4399 13.51 17.4799L9.73997 19.4399C9.66997 19.4799 9.58996 19.4999 9.50996 19.4999C9.40996 19.4999 9.30996 19.4699 9.22996 19.4099C9.07996 19.3099 8.98996 19.1299 9.00996 18.9499L9.23997 16.6199C8.36997 16.2099 7.23997 15.5599 6.25997 14.6099L3.54997 16.0999C3.28997 16.2499 2.94997 16.2099 2.72997 15.9999C2.49997 15.7899 2.43997 15.4599 2.57997 15.1799L4.16996 11.9999L2.57997 8.81994C2.43997 8.53994 2.49997 8.20993 2.72997 7.99993C2.95997 7.78993 3.28996 7.74992 3.55996 7.89992L6.26996 9.39992C7.23996 8.43992 8.36997 7.78994 9.23997 7.38994L9.00996 5.05993C8.98996 4.87993 9.07996 4.69993 9.22996 4.59993C9.37996 4.49993 9.57997 4.48994 9.73997 4.56994L13.51 6.52993C14.13 6.56993 14.73 6.67992 15.32 6.83992C15.36 6.83992 15.39 6.83991 15.42 6.85991C15.42 6.85991 15.43 6.85992 15.44 6.86992C17.63 7.46992 19.59 8.80994 21.09 10.7899C21.64 11.5099 21.64 12.5299 21.09 13.2499V13.2299ZM14.59 16.3199C13.63 13.4499 13.63 10.5499 14.59 7.67992C14.15 7.58992 13.72 7.52994 13.34 7.50994C13.27 7.50994 13.2 7.48994 13.14 7.44994L10.09 5.86992L10.27 7.63994C10.29 7.85994 10.17 8.05992 9.96997 8.14992C9.14997 8.50992 7.94996 9.12993 6.95996 10.0999C6.63996 10.4099 6.16996 10.4799 5.77996 10.2699L3.89997 9.22994L5.16996 11.7699C5.23996 11.9099 5.23996 12.0799 5.16996 12.2199L3.89997 14.7599L5.77996 13.7199C5.92996 13.6399 6.08996 13.5999 6.24996 13.5999C6.49996 13.5999 6.75996 13.6999 6.94996 13.8899C7.93996 14.8599 9.13997 15.4899 9.95997 15.8399C10.16 15.9299 10.28 16.1299 10.26 16.3499L10.08 18.1199L13.13 16.5399C13.19 16.5099 13.26 16.4899 13.33 16.4799C13.71 16.4599 14.14 16.3999 14.58 16.3099L14.59 16.3199ZM20.29 11.3699C18.8 9.39992 17.1 8.40994 15.56 7.91994C14.64 10.6199 14.64 13.3599 15.56 16.0699C17.1 15.5799 18.8 14.5899 20.29 12.6199C20.57 12.2499 20.57 11.7399 20.29 11.3699Z" />
</svg>
