<svg viewBox="0 0 24 24" fill="currentColor" stroke="currentColor" xmlns="http://www.w3.org/2000/svg">
<path d="M21 16.5H20.35C20.44 16 20.5 15.5 20.5 15C20.5 10.87 17.54 7.42 13.62 6.66C13.85 6.33 14 5.93 14 5.5C14 4.4 13.1 3.5 12 3.5C10.9 3.5 10 4.4 10 5.5C10 5.93 10.14 6.33 10.38 6.66C6.47 7.42 3.5 10.87 3.5 15C3.5 15.5 3.55999 16 3.64999 16.5H3C2.72 16.5 2.5 16.72 2.5 17V18.5C2.5 19.6 3.4 20.5 4.5 20.5H19.5C20.6 20.5 21.5 19.6 21.5 18.5V17C21.5 16.72 21.28 16.5 21 16.5ZM11 5.5C11 4.95 11.45 4.5 12 4.5C12.55 4.5 13 4.95 13 5.5C13 6.05 12.55 6.5 12 6.5C11.45 6.5 11 6.05 11 5.5ZM4.5 15C4.5 10.86 7.86 7.5 12 7.5C16.14 7.5 19.5 10.86 19.5 15C19.5 15.5 19.44 16 19.34 16.5H4.67C4.57 16 4.50999 15.5 4.50999 15H4.5ZM20.5 18.5C20.5 19.05 20.05 19.5 19.5 19.5H4.5C3.95 19.5 3.5 19.05 3.5 18.5V17.5H20.5V18.5ZM16.5 11.74C16.65 11.97 16.57 12.28 16.34 12.43C16.26 12.48 16.17 12.51 16.08 12.51C15.91 12.51 15.75 12.43 15.66 12.27C15.11 11.38 14.06 10.7 12.93 10.5C12.66 10.45 12.48 10.19 12.52 9.92C12.57 9.65 12.83 9.45999 13.1 9.50999C14.52 9.75999 15.8 10.59 16.51 11.74H16.5Z" />
</svg>
