<svg viewBox="0 0 24 24" fill="currentColor" stroke="currentColor" xmlns="http://www.w3.org/2000/svg">
<path d="M21.35 20.65C21.55 20.85 21.55 21.16 21.35 21.36C21.25 21.46 21.12 21.51 21 21.51C20.88 21.51 20.74 21.46 20.65 21.36L15 15.71L12.7 18.01C12.51 18.2 12.26 18.3 12 18.3C11.74 18.3 11.48 18.2 11.3 18.01L10.15 16.86C9.94997 16.66 9.94997 16.35 10.15 16.15C10.35 15.95 10.66 15.95 10.86 16.15L12.01 17.3L14.63 14.67C14.63 14.67 14.64 14.65 14.65 14.64C14.85 14.44 15.16 14.44 15.35 14.64L21.36 20.65H21.35ZM7.13999 13.86C7.23999 13.96 7.36997 14.01 7.48997 14.01C7.60997 14.01 7.74997 13.96 7.83997 13.86C8.03997 13.66 8.03997 13.35 7.83997 13.15L7.16999 12.48C5.70999 11.03 4.48997 8.06001 4.48997 6.00001V5.21001L8.64997 9.37C8.74997 9.47 8.87998 9.52001 8.99998 9.52001C9.11998 9.52001 9.25998 9.47 9.34998 9.37C9.54998 9.17 9.54998 8.86001 9.34998 8.66001L4.33997 3.65C4.33997 3.65 4.23997 3.57 4.17997 3.54C4.05997 3.49 3.91996 3.49 3.79996 3.54C3.67996 3.59 3.57997 3.69 3.52997 3.81C3.49997 3.87 3.48997 3.94001 3.48997 4.00001V6.00001C3.48997 8.32001 4.81998 11.54 6.46998 13.18L7.13999 13.85V13.86ZM15.49 12.54C16.52 12.54 17.56 12.15 18.34 11.36L21.34 8.36001C21.54 8.16001 21.54 7.85 21.34 7.65C21.14 7.45 20.83 7.45 20.63 7.65L17.63 10.65C16.45 11.83 14.52 11.83 13.34 10.65C12.16 9.47 12.16 7.54001 13.34 6.36001L16.34 3.36001C16.54 3.16001 16.54 2.85 16.34 2.65C16.14 2.45 15.83 2.45 15.63 2.65L12.63 5.65C11.18 7.1 11.08 9.39001 12.31 10.97L2.62998 20.65C2.42998 20.85 2.42998 21.16 2.62998 21.36C2.72998 21.46 2.85999 21.51 2.97999 21.51C3.09999 21.51 3.23996 21.46 3.32996 21.36L13.01 11.68C13.74 12.24 14.6 12.54 15.47 12.54H15.49ZM14.52 7.99001C14.62 8.09001 14.74 8.14001 14.87 8.14001C15 8.14001 15.13 8.09001 15.22 7.99001L18.09 5.11001C18.28 4.91001 18.28 4.6 18.09 4.4C17.9 4.21 17.58 4.2 17.38 4.4L14.51 7.28C14.32 7.48 14.32 7.79001 14.51 7.99001H14.52ZM16.02 9.49001C16.12 9.59001 16.24 9.64001 16.37 9.64001C16.5 9.64001 16.63 9.59001 16.72 9.49001L19.59 6.61001C19.78 6.41001 19.78 6.1 19.59 5.9C19.4 5.71 19.08 5.7 18.88 5.9L16.01 8.78C15.82 8.98 15.82 9.29001 16.01 9.49001H16.02Z" />
</svg>
