<svg viewBox="0 0 24 24" fill="currentColor" stroke="currentColor" xmlns="http://www.w3.org/2000/svg">
<path d="M11.5 2.99998V6.99998C11.5 9.02998 9.97 10.7 8 10.95V21C8 21.28 7.78 21.5 7.5 21.5C7.22 21.5 7 21.28 7 21V10.95C5.03 10.7 3.5 9.02998 3.5 6.99998V2.99998C3.5 2.71998 3.72 2.49998 4 2.49998C4.28 2.49998 4.5 2.71998 4.5 2.99998V6.99998C4.5 8.64998 5.85 9.99998 7.5 9.99998C9.15 9.99998 10.5 8.64998 10.5 6.99998V2.99998C10.5 2.71998 10.72 2.49998 11 2.49998C11.28 2.49998 11.5 2.71998 11.5 2.99998ZM8.5 7.99998C8.78 7.99998 9 7.77998 9 7.49998V2.99998C9 2.71998 8.78 2.49998 8.5 2.49998C8.22 2.49998 8 2.71998 8 2.99998V7.49998C8 7.77998 8.22 7.99998 8.5 7.99998ZM6.5 7.99998C6.78 7.99998 7 7.77998 7 7.49998V2.99998C7 2.71998 6.78 2.49998 6.5 2.49998C6.22 2.49998 6 2.71998 6 2.99998V7.49998C6 7.77998 6.22 7.99998 6.5 7.99998ZM19.71 10.45C19.21 11.02 18.49 11.35 17.6 11.45V21C17.6 21.28 17.38 21.5 17.1 21.5C16.82 21.5 16.6 21.28 16.6 21V11.47C15.61 11.4 14.83 11.07 14.29 10.45C13.65 9.72998 13.39 8.69999 13.54 7.45999L13.79 5.40999C13.99 3.73999 15.37 2.48999 17 2.48999C18.63 2.48999 20.01 3.74999 20.21 5.40999L20.46 7.45999C20.61 8.68999 20.35 9.72998 19.71 10.45ZM19.47 7.57999L19.22 5.52998C19.08 4.36998 18.13 3.48999 17 3.48999C15.87 3.48999 14.92 4.36998 14.78 5.52998L14.53 7.57999C14.45 8.23999 14.47 9.14998 15.03 9.77998C15.45 10.25 16.11 10.49 16.99 10.49C17.87 10.49 18.53 10.25 18.95 9.77998C19.51 9.14998 19.53 8.22999 19.45 7.57999H19.47Z" />
</svg>
