<svg viewBox="0 0 24 24" fill="currentColor" stroke="currentColor" xmlns="http://www.w3.org/2000/svg">
<path d="M12.5 3V7C12.5 9.03 10.97 10.7 9 10.95V21C9 21.28 8.78 21.5 8.5 21.5C8.22 21.5 8 21.28 8 21V10.95C6.03 10.7 4.5 9.03 4.5 7V3C4.5 2.72 4.72 2.5 5 2.5C5.28 2.5 5.5 2.72 5.5 3V7C5.5 8.65 6.85 10 8.5 10C10.15 10 11.5 8.65 11.5 7V3C11.5 2.72 11.72 2.5 12 2.5C12.28 2.5 12.5 2.72 12.5 3ZM9.5 8C9.78 8 10 7.78 10 7.5V3C10 2.72 9.78 2.5 9.5 2.5C9.22 2.5 9 2.72 9 3V7.5C9 7.78 9.22 8 9.5 8ZM7.5 8C7.78 8 8 7.78 8 7.5V3C8 2.72 7.78 2.5 7.5 2.5C7.22 2.5 7 2.72 7 3V7.5C7 7.78 7.22 8 7.5 8ZM19.5 3V21C19.5 21.28 19.28 21.5 19 21.5C18.72 21.5 18.5 21.28 18.5 21V15.5H15C14.45 15.5 14 15.05 14 14.5V9C14 2.57 18.95 2.5 19 2.5C19.28 2.5 19.5 2.72 19.5 3ZM18.5 3.56C17.42 3.77 15 4.71 15 9V14.5H18.5V3.56Z" />
</svg>
