<svg viewBox="0 0 24 24" fill="currentColor" stroke="currentColor" xmlns="http://www.w3.org/2000/svg">
<path d="M18.2301 3.82001C18.0401 3.62001 17.7701 3.5 17.5001 3.5H6.50008C6.23008 3.5 5.9601 3.61 5.7701 3.81C5.5801 4.01 5.48008 4.28 5.50008 4.56L6.29005 17.22C6.41005 19.18 7.90007 20.5 9.99007 20.5H13.9901C16.0801 20.5 17.5701 19.18 17.6901 17.22L18.4801 4.57001C18.5001 4.29001 18.4001 4.02001 18.2101 3.82001H18.2301ZM17.5001 4.5L17.2401 8.66C16.6901 8.86 15.0801 9.25 12.1201 8.52C9.59007 7.89 7.68007 8.15 6.74007 8.36L6.50008 4.5H17.5001ZM14.0001 19.5H10.0001C8.11008 19.5 7.37005 18.29 7.29005 17.16L6.80006 9.37C7.53006 9.19 9.38007 8.87001 11.8701 9.49001C13.2401 9.83001 14.3601 9.95 15.2501 9.95C16.0901 9.95 16.72 9.85 17.16 9.73L16.6901 17.16C16.6201 18.29 15.8701 19.5 13.9801 19.5H14.0001Z" />
</svg>
