<svg viewBox="0 0 24 24" fill="currentColor" stroke="currentColor" xmlns="http://www.w3.org/2000/svg">
<path d="M16.92 5.53999C16 3.67999 14.11 2.5 12 2.5C9.89 2.5 8.00002 3.67999 7.08002 5.53999C4.65002 5.17999 2.5 7.1 2.5 9.5C2.5 11.33 3.76 12.92 5.5 13.37V19.5C5.5 20.6 6.4 21.5 7.5 21.5H16.5C17.6 21.5 18.5 20.6 18.5 19.5V13.37C20.24 12.92 21.5 11.33 21.5 9.5C21.5 7.1 19.36 5.17999 16.92 5.53999ZM16.5 20.5H7.5C6.95 20.5 6.5 20.05 6.5 19.5V16.5H17.5V19.5C17.5 20.05 17.05 20.5 16.5 20.5ZM17.93 12.46C17.68 12.5 17.5 12.71 17.5 12.96V15.5H15.09L15.49 13.08C15.54 12.81 15.35 12.55 15.08 12.5C14.81 12.45 14.55 12.64 14.5 12.91L14.07 15.49H12.49V11.99C12.49 11.71 12.27 11.49 11.99 11.49C11.71 11.49 11.49 11.71 11.49 11.99V15.49H9.90997L9.47998 12.91C9.42998 12.64 9.17002 12.45 8.90002 12.5C8.63002 12.55 8.43999 12.8 8.48999 13.08L8.89001 15.5H6.47998V12.96C6.47998 12.71 6.29999 12.5 6.04999 12.46C4.57999 12.25 3.47998 10.98 3.47998 9.5C3.47998 7.85 4.82998 6.5 6.47998 6.5C6.71998 6.5 6.97998 6.53001 7.22998 6.60001C7.47998 6.66001 7.72 6.53 7.81 6.3C8.5 4.6 10.14 3.5 11.98 3.5C13.82 3.5 15.46 4.6 16.15 6.3C16.24 6.53 16.49 6.65001 16.73 6.60001C18.7 6.11001 20.48 7.61 20.48 9.5C20.48 10.98 19.38 12.26 17.91 12.46H17.93Z" />
</svg>
