<svg viewBox="0 0 24 24" fill="currentColor" stroke="currentColor" xmlns="http://www.w3.org/2000/svg">
<path d="M9.72003 15.6901C9.11003 16.3001 8.55004 16.4001 8.10004 16.4801C7.69004 16.5501 7.40003 16.6001 7.02003 16.9901C6.92003 17.0901 6.79003 17.1401 6.67003 17.1401C6.55003 17.1401 6.41004 17.0901 6.32004 16.9901C6.12004 16.7901 6.12004 16.4801 6.32004 16.2801C6.93004 15.6701 7.49003 15.5701 7.94003 15.4901C8.35003 15.4201 8.64003 15.3701 9.02003 14.9801C9.40003 14.5901 9.46003 14.3001 9.53003 13.9001C9.61003 13.4501 9.70004 12.8901 10.32 12.2801C10.93 11.6701 11.49 11.5701 11.94 11.5001C12.34 11.4301 12.64 11.3801 13.02 10.9901C13.4 10.6001 13.46 10.3101 13.53 9.91009C13.61 9.46009 13.7 8.90008 14.31 8.29008C14.92 7.68008 15.48 7.58008 15.93 7.51008C16.33 7.44008 16.63 7.39008 17.01 7.00008C17.21 6.80008 17.52 6.80008 17.72 7.00008C17.92 7.20008 17.92 7.51009 17.72 7.71009C17.11 8.32009 16.55 8.42009 16.1 8.49009C15.7 8.56009 15.4 8.61008 15.02 9.00008C14.63 9.39008 14.58 9.68008 14.52 10.0801C14.44 10.5301 14.35 11.0901 13.73 11.7001C13.12 12.3101 12.56 12.4101 12.11 12.4801C11.71 12.5501 11.41 12.6001 11.03 12.9901C10.65 13.3801 10.59 13.6701 10.52 14.0701C10.44 14.5201 10.35 15.0801 9.73003 15.6901H9.72003ZM20.76 9.30009C21.71 10.2601 21.71 11.8201 20.76 12.7801L12.77 20.7701C12.3 21.2401 11.68 21.4901 11.02 21.4901C10.36 21.4901 9.75002 21.2301 9.29002 20.7601L8.88004 20.3501L8.84003 20.3901C8.14003 21.0901 7.22003 21.4701 6.23003 21.4701C5.24003 21.4701 4.31003 21.0901 3.62003 20.3901C2.17003 18.9401 2.17003 16.6001 3.62003 15.1501L3.66003 15.1101L3.25003 14.7001C2.79003 14.2401 2.53003 13.6301 2.53003 12.9701C2.53003 12.3101 2.78003 11.6801 3.25003 11.2201L11.24 3.23008C12.2 2.28008 13.76 2.28008 14.72 3.23008L15.14 3.65008L15.21 3.58008C16.6 2.18008 19.04 2.18008 20.44 3.58008C21.88 5.03008 21.88 7.37009 20.44 8.82009L20.37 8.89008L20.78 9.30009H20.76ZM4.34003 14.4201L14.4 4.36008L13.99 3.95008C13.42 3.39008 12.49 3.39008 11.92 3.95008L3.93002 11.9401C3.65002 12.2201 3.50003 12.5901 3.50003 12.9801C3.50003 13.3701 3.65002 13.7301 3.93002 14.0001L4.35004 14.4201H4.34003ZM8.12003 19.6901L8.51003 19.3001L19.27 8.54008L19.68 8.13009C20.73 7.08009 20.73 5.37009 19.68 4.32009C19.16 3.80009 18.48 3.52009 17.76 3.52009C17.04 3.52009 16.36 3.80008 15.85 4.31008L15.43 4.73008L4.67003 15.4801C4.67003 15.4801 4.67003 15.4801 4.67003 15.4901C4.67003 15.4901 4.67003 15.4901 4.66003 15.4901L4.28003 15.8701C3.23003 16.9201 3.23003 18.6301 4.28003 19.6801C5.32003 20.7201 7.08004 20.7101 8.10004 19.6801L8.12003 19.6901ZM20.05 10.0001L19.64 9.59008L9.58003 19.6501L9.99004 20.0601C10.26 20.3401 10.63 20.4901 11.02 20.4901C11.41 20.4901 11.78 20.3401 12.06 20.0601L20.05 12.0701C20.61 11.5001 20.61 10.5701 20.05 10.0001Z" />
</svg>
