<svg viewBox="0 0 24 24" fill="currentColor" stroke="currentColor" xmlns="http://www.w3.org/2000/svg">
<path d="M16.5 7.5H16.47C16.49 7.34 16.5 7.17 16.5 7C16.5 4.52 14.48 2.5 12 2.5C9.52 2.5 7.5 4.52 7.5 7C7.5 7.17 7.5 7.34 7.53 7.5C5.84 7.44 4.5 8.84 4.5 10.5C4.5 12.16 5.85 13.5 7.5 13.5H7.68L10.92 20.79C11.11 21.23 11.53 21.5 12.01 21.5C12.49 21.5 12.9 21.23 13.1 20.79L16.34 13.5H16.52C18.17 13.5 19.52 12.15 19.52 10.5C19.52 8.85 18.17 7.5 16.52 7.5H16.5ZM12.17 20.39C12.08 20.59 11.91 20.59 11.82 20.39L8.75999 13.5H15.22L12.16 20.39H12.17ZM16.5 12.5H7.5C6.4 12.5 5.5 11.6 5.5 10.5C5.5 9.4 6.4 8.5 7.5 8.5C7.68 8.5 7.84999 8.52001 8.00999 8.57001C8.18999 8.62001 8.37 8.57 8.5 8.44C8.63 8.31 8.68001 8.12 8.63 7.95C8.54 7.64 8.5 7.33 8.5 7C8.5 5.07 10.07 3.5 12 3.5C13.93 3.5 15.5 5.07 15.5 7C15.5 7.33 15.46 7.65 15.37 7.95C15.32 8.12 15.37 8.31 15.5 8.44C15.63 8.57 15.82 8.62001 15.99 8.57001C16.15 8.52001 16.33 8.5 16.5 8.5C17.6 8.5 18.5 9.4 18.5 10.5C18.5 11.6 17.6 12.5 16.5 12.5Z" />
</svg>
