<svg viewBox="0 0 24 24" fill="currentColor" stroke="currentColor" xmlns="http://www.w3.org/2000/svg">
<path d="M21.21 6.16C21.4 5.8 21.5 5.4 21.5 5C21.5 3.62 20.38 2.5 19 2.5C18.6 2.5 18.2 2.60001 17.84 2.79001C17.53 2.95001 17.05 3.11001 16.54 2.95001C13.22 1.90001 9.16001 3.12999 6.21001 6.07999C3.27001 9.01999 2.02999 13.06 3.03999 16.37C3.20999 16.93 3.03 17.42 2.84 17.73C2.62 18.11 2.5 18.55 2.5 18.99C2.5 20.37 3.62 21.49 5 21.49C5.45 21.49 5.87999 21.37 6.25999 21.15C6.57999 20.97 7.06999 20.78 7.62 20.95C10.94 21.97 14.97 20.72 17.91 17.78C20.85 14.84 22.09 10.77 21.04 7.45001C20.88 6.94001 21.04 6.45999 21.2 6.14999L21.21 6.16ZM20.09 7.76001C21.03 10.73 19.89 14.39 17.2 17.09C14.52 19.77 10.88 20.92 7.91 20.01C7.21 19.79 6.44 19.9 5.75 20.3C5.52 20.43 5.26001 20.5 4.99001 20.5C4.16001 20.5 3.49001 19.83 3.49001 19C3.49001 18.73 3.56 18.47 3.7 18.24C4.1 17.55 4.21001 16.78 3.99001 16.08C3.08001 13.12 4.23 9.47001 6.91 6.79001C8.98 4.73001 11.61 3.57999 14.07 3.57999C14.82 3.57999 15.55 3.69 16.24 3.91C16.9 4.12 17.63 4.02999 18.3 3.67999C18.52 3.56999 18.76 3.51001 19 3.51001C19.83 3.51001 20.5 4.18001 20.5 5.01001C20.5 5.25001 20.44 5.48999 20.33 5.70999C19.97 6.38999 19.89 7.11999 20.1 7.76999L20.09 7.76001ZM9.75999 16.5C9.75999 16.91 9.42999 17.25 9.00999 17.25C8.58999 17.25 8.25999 16.91 8.25999 16.5C8.25999 16.09 8.58999 15.75 9.00999 15.75C9.42999 15.75 9.75999 16.09 9.75999 16.5ZM13.76 16.5C13.76 16.91 13.43 17.25 13.01 17.25C12.59 17.25 12.26 16.91 12.26 16.5C12.26 16.09 12.59 15.75 13.01 15.75C13.43 15.75 13.76 16.09 13.76 16.5ZM11.76 13.5C11.76 13.91 11.43 14.25 11.01 14.25C10.59 14.25 10.26 13.91 10.26 13.5C10.26 13.09 10.59 12.75 11.01 12.75C11.43 12.75 11.76 13.09 11.76 13.5Z" />
</svg>
