<svg viewBox="0 0 24 24" fill="currentColor" stroke="currentColor" xmlns="http://www.w3.org/2000/svg">
<path d="M19.1001 3.1498C18.8001 2.7698 18.3501 2.52981 17.8701 2.49981C17.3601 2.46981 16.9001 2.64981 16.5501 2.99981L15.0501 4.49981L4.52007 15.0298L3.02007 16.5298C2.67007 16.8798 2.49007 17.3598 2.52007 17.8498C2.55007 18.3398 2.7901 18.7798 3.1701 19.0798C5.1901 20.6598 7.60009 21.4798 10.1301 21.4798C10.7801 21.4798 11.4401 21.4298 12.0901 21.3098C16.7601 20.5298 20.5701 16.7198 21.3501 12.0498C21.8901 8.8298 21.1001 5.65982 19.1101 3.12982L19.1001 3.1498ZM5.59008 15.3798L9.63009 11.3398V17.0498C8.13009 16.9398 6.73008 16.3598 5.59008 15.3798ZM10.6301 11.3398L14.6101 15.3198C14.6101 15.3198 14.6601 15.3498 14.6801 15.3698C13.5801 16.3298 12.1801 16.9398 10.6301 17.0498V11.3398ZM15.3601 14.6798C15.3601 14.6798 15.3301 14.6298 15.3101 14.6098L11.3301 10.6298H17.0401C16.9301 12.1698 16.3101 13.5798 15.3601 14.6798ZM11.3401 9.62982L15.3801 5.58981C16.3601 6.72981 16.9401 8.13982 17.0501 9.62982H11.3401ZM20.3501 11.9098C19.6401 16.1698 16.1601 19.6398 11.9101 20.3498C8.97009 20.8398 6.08007 20.1198 3.77007 18.3098C3.61007 18.1898 3.5201 18.0098 3.5101 17.8098C3.5001 17.5998 3.57009 17.3998 3.72009 17.2498L4.8901 16.0798C6.3501 17.3598 8.1901 18.0698 10.1401 18.0698C14.5201 18.0698 18.0801 14.5098 18.0801 10.1298C18.0801 8.17982 17.3701 6.33982 16.0901 4.87982L17.2601 3.7098C17.4001 3.5698 17.5801 3.49981 17.7701 3.49981C17.7801 3.49981 17.8001 3.49981 17.8101 3.49981C18.0101 3.50981 18.1901 3.60982 18.3101 3.75982C20.1201 6.06982 20.8401 8.95981 20.3501 11.8998V11.9098Z" />
</svg>
