<svg viewBox="0 0 24 24" fill="currentColor" stroke="currentColor" xmlns="http://www.w3.org/2000/svg">
<path d="M16.0001 1.5C13.6901 1.5 11.8001 3.26 11.5501 5.5H4.00009C3.81009 5.5 3.64008 5.61 3.55008 5.78C3.46008 5.95 3.48006 6.15 3.60006 6.3L9.50009 14.17V18.86C9.26009 19.22 8.55006 20.09 6.66006 20.98C6.32006 21.14 6.14006 21.51 6.22006 21.88C6.30006 22.25 6.62009 22.5 7.00009 22.5H12.9901C13.3701 22.5 13.6901 22.24 13.7701 21.88C13.8501 21.51 13.6701 21.14 13.3301 20.98C11.4501 20.09 10.7301 19.22 10.4901 18.86V14.17L13.7101 9.87C14.4001 10.28 15.1801 10.5 15.9901 10.5C18.4701 10.5 20.4901 8.48 20.4901 6C20.4901 3.52 18.4701 1.5 15.9901 1.5H16.0001ZM15.0001 6.5L10.0001 13.17L5.00009 6.5H15.0001ZM12.1601 21.5H7.84012C8.94012 20.89 9.61009 20.3 10.0001 19.84C10.3901 20.29 11.0601 20.89 12.1601 21.5ZM16.0001 9.5C15.4101 9.5 14.8401 9.35001 14.3201 9.07001L16.4001 6.3C16.5101 6.15 16.5301 5.95 16.4501 5.78C16.3701 5.61 16.1901 5.5 16.0001 5.5H12.5501C12.8001 3.81 14.2401 2.5 16.0001 2.5C17.9301 2.5 19.5001 4.07 19.5001 6C19.5001 7.93 17.9301 9.5 16.0001 9.5Z" />
</svg>
