<svg viewBox="0 0 24 24" fill="currentColor" stroke="currentColor" xmlns="http://www.w3.org/2000/svg">
<path d="M16.5 9.49994H4.5C3.95 9.49994 3.5 9.94994 3.5 10.4999V17.9999C3.5 20.2899 4.71 21.4999 7 21.4999H13C15.29 21.4999 16.5 20.2899 16.5 17.9999V17.4999C18.71 17.4999 20.5 15.7099 20.5 13.4999C20.5 11.2899 18.71 9.49994 16.5 9.49994ZM15.5 17.9999C15.5 19.7299 14.73 20.4999 13 20.4999H7C5.27 20.4999 4.5 19.7299 4.5 17.9999V10.4999H15.5V17.9999ZM16.5 16.4999V10.4999C18.15 10.4999 19.5 11.8499 19.5 13.4999C19.5 15.1499 18.15 16.4999 16.5 16.4999ZM12 5.19994C11.34 4.53994 11.34 3.45995 12 2.79995L12.15 2.64994C12.34 2.45994 12.66 2.44994 12.86 2.64994C13.06 2.83994 13.06 3.15994 12.86 3.35994L12.71 3.50994C12.44 3.77994 12.44 4.22994 12.71 4.49994L13.01 4.79995C13.67 5.45995 13.67 6.53994 13.01 7.19994L12.86 7.34995C12.76 7.44995 12.63 7.49994 12.51 7.49994C12.39 7.49994 12.26 7.44995 12.16 7.34995C11.96 7.15995 11.96 6.83994 12.16 6.63994L12.31 6.48995C12.58 6.21995 12.58 5.76994 12.31 5.49994L12.01 5.19994H12ZM7 5.19994C6.34 4.53994 6.34 3.45995 7 2.79995L7.14999 2.64994C7.33999 2.45994 7.66 2.44994 7.86 2.64994C8.06 2.83994 8.06 3.15994 7.86 3.35994L7.71001 3.50994C7.44001 3.77994 7.44001 4.22994 7.71001 4.49994L8.00999 4.79995C8.66999 5.45995 8.66999 6.53994 8.00999 7.19994L7.86 7.34995C7.76 7.44995 7.62999 7.49994 7.50999 7.49994C7.38999 7.49994 7.26 7.44995 7.16 7.34995C6.96 7.15995 6.96 6.83994 7.16 6.63994L7.31 6.48995C7.58 6.21995 7.58 5.76994 7.31 5.49994L7.00999 5.19994H7Z" />
</svg>
