<svg viewBox="0 0 24 24" fill="currentColor" stroke="currentColor" xmlns="http://www.w3.org/2000/svg">
<path d="M8 16.5H14C16.29 16.5 17.5 15.29 17.5 13V12.5C19.71 12.5 21.5 10.71 21.5 8.5C21.5 6.29 19.71 4.5 17.5 4.5H5.5C4.95 4.5 4.5 4.95 4.5 5.5V13C4.5 15.29 5.71 16.5 8 16.5ZM20.5 8.5C20.5 10.15 19.15 11.5 17.5 11.5V5.5C19.15 5.5 20.5 6.85 20.5 8.5ZM5.5 5.5H16.5V13C16.5 14.73 15.73 15.5 14 15.5H8C6.27 15.5 5.5 14.73 5.5 13V5.5ZM21.5 19C21.5 19.28 21.28 19.5 21 19.5H3C2.72 19.5 2.5 19.28 2.5 19C2.5 18.72 2.72 18.5 3 18.5H21C21.28 18.5 21.5 18.72 21.5 19Z" />
</svg>
