<svg viewBox="0 0 24 24" fill="currentColor" stroke="currentColor" xmlns="http://www.w3.org/2000/svg">
<path d="M20.8101 3.18996C20.1901 2.56996 19.3001 2.34996 18.4601 2.60996L4.3601 6.99996C3.6401 7.21995 3.07012 7.72996 2.75012 8.40996C2.43012 9.09996 2.42011 9.88996 2.71011 10.6C3.71011 12.99 5.16013 15.14 7.01013 17C8.86013 18.85 11.0101 20.2999 13.4101 21.2999C13.7501 21.4399 14.1001 21.51 14.4601 21.51C14.8501 21.51 15.2401 21.43 15.5901 21.26C16.2701 20.95 16.7801 20.3599 17.0001 19.65L21.3901 5.54996C21.6501 4.71996 21.4301 3.81995 20.8101 3.19995V3.18996ZM15.1701 20.34C14.7401 20.54 14.2401 20.5499 13.7901 20.3599C11.5201 19.4099 9.47011 18.03 7.71011 16.27C5.95011 14.51 4.58011 12.47 3.62011 10.2C3.43011 9.75995 3.44013 9.24996 3.64013 8.81996C3.84013 8.38996 4.20013 8.07996 4.64013 7.93996L5.14013 7.77995C5.94013 10.37 7.36012 12.75 9.29012 14.67C11.2201 16.6 13.5901 18.02 16.1801 18.82L16.0201 19.32C15.8801 19.77 15.5701 20.1299 15.1401 20.3299L15.1701 20.34ZM20.4301 5.23996L16.5001 17.88C14.0601 17.13 11.8301 15.79 10.0201 13.98C8.2101 12.17 6.87011 9.92996 6.12011 7.49996L18.7601 3.56996C19.2501 3.41996 19.7501 3.53995 20.1101 3.89995C20.4701 4.25995 20.5901 4.75996 20.4401 5.24996L20.4301 5.23996ZM12.2601 8.99996C12.2601 9.68996 11.7001 10.25 11.0101 10.25C10.3201 10.25 9.76013 9.68996 9.76013 8.99996C9.76013 8.30996 10.3101 7.74996 11.0101 7.74996C11.7001 7.74996 12.2601 8.30996 12.2601 8.99996ZM16.0101 13C16.0101 13.55 15.5601 14 15.0101 14C14.4601 14 14.0101 13.55 14.0101 13C14.0101 12.45 14.4501 12 15.0101 12C15.5601 12 16.0101 12.45 16.0101 13ZM16.7601 7.99996C16.7601 8.40996 16.4301 8.74996 16.0101 8.74996C15.5901 8.74996 15.2601 8.40996 15.2601 7.99996C15.2601 7.58996 15.5901 7.24996 16.0101 7.24996C16.4301 7.24996 16.7601 7.58996 16.7601 7.99996Z" />
</svg>
