<svg viewBox="0 0 24 24" fill="currentColor" stroke="currentColor" xmlns="http://www.w3.org/2000/svg">
<path d="M5.03003 11.37V18.5C5.03003 18.78 4.81003 19 4.53003 19C4.25003 19 4.03003 18.78 4.03003 18.5V11.37C2.60003 11.13 1.5 9.89 1.5 8.39V5.5C1.5 5.22 1.72 5 2 5C2.28 5 2.5 5.22 2.5 5.5V8.39C2.5 9.33 3.15003 10.12 4.03003 10.35V5.5C4.03003 5.22 4.25003 5 4.53003 5C4.81003 5 5.03003 5.22 5.03003 5.5V10.35C5.91003 10.13 6.56 9.34 6.56 8.39V5.5C6.56 5.22 6.78 5 7.06 5C7.34 5 7.56 5.22 7.56 5.5V8.39C7.56 9.89 6.46003 11.13 5.03003 11.37ZM22.5 5V19C22.5 19.28 22.28 19.5 22 19.5C21.72 19.5 21.5 19.28 21.5 19V14.5H18.89C18.4 14.5 18 14.1 18 13.61V9.67C18 4.56 21.96 4.5 22 4.5C22.28 4.5 22.5 4.72 22.5 5ZM21.5 5.57001C20.64 5.78001 19 6.58 19 9.66V13.49H21.5V5.56V5.57001ZM17.33 15.71C16.12 17.45 14.13 18.49 12 18.49C9.87 18.49 7.87999 17.45 6.67999 15.71C6.51999 15.48 6.20998 15.43 5.97998 15.58C5.74998 15.74 5.68998 16.05 5.84998 16.28C7.22998 18.29 9.52999 19.5 11.99 19.5C14.45 19.5 16.75 18.3 18.14 16.28C18.3 16.05 18.24 15.74 18.01 15.58C17.79 15.42 17.47 15.48 17.31 15.71H17.33ZM9.21997 6.13C10.09 5.71 11.02 5.5 12 5.5C13.71 5.5 15.32 6.16 16.54 7.36C16.64 7.46 16.76 7.5 16.89 7.5C17.02 7.5 17.15 7.45001 17.25 7.35001C17.44 7.15001 17.44 6.84 17.25 6.64C15.85 5.26 13.99 4.5 12.01 4.5C10.88 4.5 9.78998 4.75 8.78998 5.23C8.53998 5.35 8.44 5.64999 8.56 5.89999C8.68 6.14999 8.97998 6.25 9.22998 6.13H9.21997ZM8 12C8 9.79 9.79 8 12 8C14.21 8 16 9.79 16 12C16 14.21 14.21 16 12 16C9.79 16 8 14.21 8 12ZM9 12C9 13.65 10.35 15 12 15C13.65 15 15 13.65 15 12C15 10.35 13.65 9 12 9C10.35 9 9 10.35 9 12Z" />
</svg>
