<svg viewBox="0 0 24 24" fill="currentColor" stroke="currentColor" xmlns="http://www.w3.org/2000/svg">
<path d="M12 2.5C8.97 2.5 6.5 4.97 6.5 8V14.5C6.5 15.6 7.4 16.5 8.5 16.5H11.5V21C11.5 21.28 11.72 21.5 12 21.5C12.28 21.5 12.5 21.28 12.5 21V16.5H15.5C16.6 16.5 17.5 15.6 17.5 14.5V8C17.5 4.97 15.03 2.5 12 2.5ZM16.5 14.5C16.5 15.05 16.05 15.5 15.5 15.5H8.5C7.95 15.5 7.5 15.05 7.5 14.5V8C7.5 5.52 9.52 3.5 12 3.5C14.48 3.5 16.5 5.52 16.5 8V14.5ZM14 7V13C14 13.28 13.78 13.5 13.5 13.5C13.22 13.5 13 13.28 13 13V7C13 6.72 13.22 6.5 13.5 6.5C13.78 6.5 14 6.72 14 7ZM11 7V13C11 13.28 10.78 13.5 10.5 13.5C10.22 13.5 10 13.28 10 13V7C10 6.72 10.22 6.5 10.5 6.5C10.78 6.5 11 6.72 11 7Z" />
</svg>
