<svg viewBox="0 0 24 24" fill="currentColor" stroke="currentColor" xmlns="http://www.w3.org/2000/svg">
<path d="M9.25996 5.50024C9.25996 5.09024 9.58996 4.75024 10.01 4.75024C10.43 4.75024 10.76 5.09024 10.76 5.50024C10.76 5.91024 10.43 6.25024 10.01 6.25024C9.58996 6.25024 9.25996 5.91024 9.25996 5.50024ZM14.01 6.25024C14.43 6.25024 14.76 5.91024 14.76 5.50024C14.76 5.09024 14.43 4.75024 14.01 4.75024C13.6 4.75024 13.26 5.09024 13.26 5.50024C13.26 5.91024 13.6 6.25024 14.01 6.25024ZM12.01 7.25024C12.43 7.25024 12.76 6.91024 12.76 6.50024C12.76 6.09024 12.43 5.75024 12.01 5.75024C11.6 5.75024 11.26 6.09024 11.26 6.50024C11.26 6.91024 11.6 7.25024 12.01 7.25024ZM18.29 18.7702C18.35 19.4702 18.1199 20.1702 17.6499 20.6802C17.1799 21.2002 16.4999 21.4902 15.7999 21.4902H8.17994C7.47994 21.4902 6.80994 21.1902 6.32994 20.6802C5.85994 20.1602 5.61995 19.4702 5.68995 18.7702L6.48994 9.97025V7.99023C6.48994 4.96023 8.95994 2.49023 11.9899 2.49023C15.0199 2.49023 17.4899 4.96023 17.4899 7.99023V9.97025L18.29 18.7702ZM7.48994 8.00024V9.50024H16.4899V8.00024C16.4899 5.52024 14.4699 3.50024 11.9899 3.50024C9.50994 3.50024 7.48994 5.52024 7.48994 8.00024ZM17.29 18.8602L16.5299 10.5002H7.43995L6.67994 18.8602C6.63994 19.2802 6.77996 19.6903 7.06996 20.0103C7.35996 20.3203 7.74994 20.5002 8.17994 20.5002H15.7999C16.2299 20.5002 16.62 20.3303 16.91 20.0103C17.2 19.7003 17.3299 19.2902 17.2999 18.8602H17.29ZM9.98994 12.5002C9.70994 12.5002 9.48994 12.7202 9.48994 13.0002V18.0002C9.48994 18.2802 9.70994 18.5002 9.98994 18.5002C10.2699 18.5002 10.4899 18.2802 10.4899 18.0002V13.0002C10.4899 12.7202 10.2699 12.5002 9.98994 12.5002ZM13.9899 12.5002C13.7099 12.5002 13.4899 12.7202 13.4899 13.0002V18.0002C13.4899 18.2802 13.7099 18.5002 13.9899 18.5002C14.2699 18.5002 14.4899 18.2802 14.4899 18.0002V13.0002C14.4899 12.7202 14.2699 12.5002 13.9899 12.5002Z" />
</svg>
