<svg viewBox="0 0 24 24" fill="currentColor" stroke="currentColor" xmlns="http://www.w3.org/2000/svg">
<path d="M14 2.5C9.72 2.5 6.5 5.72 6.5 10C6.5 11.92 5.51002 12.77 4.46002 13.68C3.50002 14.51 2.5 15.38 2.5 17C2.5 20.56 6.1 21.5 8 21.5C17.96 21.5 21.5 15.57 21.5 10.5C21.5 5.43 18.56 2.5 14 2.5ZM8 20.5C7.82 20.5 3.5 20.46 3.5 17C3.5 15.84 4.20999 15.22 5.10999 14.44C6.16999 13.52 7.5 12.37 7.5 10C7.5 6.29 10.29 3.5 14 3.5C17.14 3.5 20.5 5.34 20.5 10.5C20.5 12.17 19.9 20.5 8 20.5ZM14 5.5C11.35 5.5 9.5 7.35 9.5 10C9.5 12.94 8.47001 13.8 7.39001 14.7L6.96997 15.06C6.61997 15.35 5.70001 16.13 6.01001 17.3C6.27001 18.29 7.26003 18.64 8.03003 18.64C18.2 18.64 18.49 11.34 18.49 10.5C18.49 6.15 15.67 5.5 13.99 5.5H14ZM8.03998 17.64C7.94998 17.64 7.13998 17.62 6.97998 17.04C6.83998 16.52 7.23 16.14 7.69 15.76L8.03998 15.47C9.19998 14.5 10.51 13.41 10.51 10C10.51 7.91 11.92 6.5 14.01 6.5C16.33 6.5 17.51 7.85 17.51 10.5C17.51 11.23 17.24 17.64 8.04999 17.64H8.03998ZM15.02 10C15.02 10.55 14.57 11 14.02 11C13.47 11 13.02 10.55 13.02 10C13.02 9.45 13.46 9 14.02 9C14.57 9 15.02 9.45 15.02 10Z" />
</svg>
