<svg viewBox="0 0 24 24" fill="currentColor" stroke="currentColor" xmlns="http://www.w3.org/2000/svg">
<path d="M20.5 13.6C21.02 13.05 21.47 12.58 21.5 12.07C21.54 11.38 21.15 10.78 20.82 10.26C20.62 9.94996 20.43 9.64995 20.35 9.37995C20.27 9.10995 20.26 8.77996 20.24 8.41996C20.21 7.74996 20.18 6.99994 19.69 6.48994C19.24 5.99994 18.58 5.84995 18 5.71995C17.63 5.63995 17.28 5.55995 17.03 5.40995C16.79 5.26995 16.56 4.98994 16.32 4.70994C15.93 4.24994 15.49 3.72994 14.83 3.54994C14.24 3.39994 13.67 3.60994 13.11 3.80994C12.72 3.94994 12.35 4.07993 12.02 4.07993C11.69 4.07993 11.32 3.94994 10.93 3.80994C10.37 3.60994 9.79002 3.39994 9.20002 3.54994C8.55002 3.72994 8.11001 4.24994 7.72001 4.70994C7.48001 4.99994 7.24001 5.26996 7.00001 5.41996C6.75001 5.56996 6.40001 5.64996 6.03001 5.72996C5.45001 5.85996 4.79002 6.00994 4.35002 6.48994C3.85002 6.99994 3.82002 7.75994 3.79002 8.42994C3.77002 8.78994 3.76 9.12996 3.68 9.38996C3.6 9.65996 3.41 9.95994 3.21 10.2699C2.87 10.7899 2.49001 11.3899 2.53001 12.0899C2.56001 12.5899 3.01001 13.0599 3.53001 13.6099C3.63001 13.7099 3.72002 13.8199 3.82002 13.9299C3.24002 15.5999 3.03001 17.2699 2.97001 18.3999C2.94001 18.9599 3.15002 19.52 3.54002 19.92C3.92002 20.3 4.43001 20.5199 4.97001 20.5199C4.99001 20.5199 5.02002 20.5199 5.04002 20.5199C10.19 20.3299 13.85 20.3299 19 20.5199C19.59 20.5399 20.11 20.32 20.5 19.92C20.89 19.52 21.1 18.9599 21.07 18.3999C21.01 17.2699 20.8 15.6099 20.22 13.9299C20.32 13.8199 20.41 13.7199 20.51 13.6099L20.5 13.6ZM3.50001 12.0199C3.48001 11.6499 3.75001 11.2399 4.03001 10.8099C4.26001 10.4499 4.5 10.08 4.62 9.66996C4.73 9.28996 4.75 8.86995 4.77 8.46995C4.79 7.95995 4.82001 7.42994 5.06001 7.17994C5.30001 6.91994 5.75002 6.81994 6.23002 6.70994C6.66002 6.60994 7.11 6.50995 7.49 6.27995C7.87 6.04995 8.17 5.69993 8.46 5.35993C8.78 4.97993 9.09 4.61994 9.43 4.51994C9.72 4.44994 10.14 4.59995 10.57 4.74995C11 4.90995 11.49 5.07993 12 5.07993C12.51 5.07993 12.99 4.89995 13.43 4.74995C13.87 4.58995 14.28 4.43996 14.56 4.50996C14.91 4.60996 15.22 4.96995 15.55 5.34995C15.84 5.68995 16.13 6.02996 16.51 6.25996C16.9 6.48996 17.34 6.59995 17.78 6.68995C18.26 6.79995 18.72 6.89996 18.96 7.16996C19.19 7.40996 19.22 7.93996 19.24 8.44996C19.26 8.84996 19.28 9.26994 19.39 9.64994C19.51 10.0599 19.75 10.43 19.98 10.79C20.26 11.22 20.53 11.6399 20.51 11.9899C20.48 12.1499 20.08 12.5699 19.81 12.8699C18.62 10.2599 16.35 7.90995 12.01 7.90995C7.67002 7.90995 5.4 10.2599 4.21 12.8699C3.93 12.5799 3.54002 12.1499 3.51002 11.9999L3.50001 12.0199ZM19.77 19.2099C19.57 19.4099 19.33 19.53 19.02 19.51C13.84 19.32 10.16 19.32 4.98002 19.51C4.68002 19.53 4.43002 19.4099 4.23002 19.2099C4.03002 18.9999 3.93001 18.7299 3.94001 18.4399C4.01001 17.16 4.23002 15.56 4.79002 14.04C4.82002 13.98 4.84002 13.9299 4.85002 13.8599C5.86002 11.2499 7.90001 8.91996 12 8.91996C16.1 8.91996 18.15 11.2499 19.15 13.8699C19.15 13.9299 19.18 13.9799 19.21 14.0299C19.77 15.5499 19.99 17.1399 20.06 18.4299C20.08 18.7199 19.97 18.99 19.77 19.2V19.2099ZM7.77 16.01C7.77 16.42 7.44 16.76 7.02 16.76C6.6 16.76 6.27 16.42 6.27 16.01C6.27 15.6 6.6 15.26 7.02 15.26C7.44 15.26 7.77 15.6 7.77 16.01ZM11.77 16.01C11.77 16.42 11.44 16.76 11.02 16.76C10.6 16.76 10.27 16.42 10.27 16.01C10.27 15.6 10.6 15.26 11.02 15.26C11.44 15.26 11.77 15.6 11.77 16.01ZM9.77 13.01C9.77 13.42 9.44 13.76 9.02 13.76C8.6 13.76 8.27 13.42 8.27 13.01C8.27 12.6 8.6 12.26 9.02 12.26C9.44 12.26 9.77 12.6 9.77 13.01Z" />
</svg>
