<svg viewBox="0 0 24 24" fill="currentColor" stroke="currentColor" xmlns="http://www.w3.org/2000/svg">
<path d="M12 1.25C6.072 1.25 1.25 6.072 1.25 12C1.25 17.928 6.072 22.75 12 22.75C17.928 22.75 22.75 17.928 22.75 12C22.75 6.072 17.928 1.25 12 1.25ZM12 21.25C6.899 21.25 2.75 17.101 2.75 12C2.75 6.899 6.899 2.75 12 2.75C17.101 2.75 21.25 6.899 21.25 12C21.25 17.101 17.101 21.25 12 21.25ZM15.355 6.37207L10.502 8.26099C9.499 8.65199 8.698 9.44895 8.304 10.45L6.375 15.3479C6.113 16.0119 6.266 16.736 6.773 17.239C7.112 17.574 7.548 17.751 7.998 17.751C8.221 17.751 8.447 17.7079 8.666 17.6189L13.545 15.644C14.518 15.25 15.298 14.4659 15.688 13.4929L17.622 8.65991C17.886 7.99991 17.739 7.27697 17.24 6.77197C16.739 6.26797 16.019 6.11307 15.355 6.37207ZM16.229 8.10303L14.295 12.937C14.057 13.533 13.578 14.0139 12.983 14.2539L8.104 16.229C7.965 16.285 7.873 16.2181 7.829 16.1741C7.784 16.1301 7.717 16.0349 7.771 15.8989L9.7 11C9.942 10.387 10.432 9.89796 11.047 9.65796L15.9 7.77002C16.038 7.71502 16.13 7.78388 16.174 7.82788C16.218 7.87188 16.283 7.96703 16.229 8.10303ZM12.92 11.6201C12.97 11.7401 13 11.87 13 12C13 12.26 12.89 12.52 12.71 12.71C12.52 12.89 12.26 13 12 13C11.74 13 11.48 12.89 11.29 12.71C11.25 12.66 11.21 12.6101 11.17 12.5601C11.13 12.5001 11.1 12.4399 11.08 12.3799C11.05 12.3199 11.03 12.26 11.02 12.2C11.01 12.13 11 12.06 11 12C11 11.74 11.11 11.48 11.29 11.29C11.57 11.02 12.01 10.9201 12.38 11.0801C12.5 11.1301 12.61 11.2 12.71 11.29C12.8 11.39 12.87 11.5001 12.92 11.6201Z" />
</svg>
