<svg viewBox="0 0 24 24" fill="currentColor" stroke="currentColor" xmlns="http://www.w3.org/2000/svg">
<path d="M15.927 8.5L19.606 3.44092C19.772 3.21292 19.796 2.91091 19.668 2.65991C19.54 2.40891 19.282 2.25 19 2.25H8C5.582 2.25 4.25 3.582 4.25 6V20.958C4.25 21.372 4.586 21.708 5 21.708C5.414 21.708 5.75 21.372 5.75 20.958V14.75H19C19.282 14.75 19.541 14.5921 19.668 14.3401C19.795 14.0881 19.772 13.7871 19.606 13.5591L15.927 8.5ZM5.75 13.25V6C5.75 4.423 6.423 3.75 8 3.75H17.527L14.393 8.05908C14.202 8.32208 14.202 8.67792 14.393 8.94092L17.527 13.25H5.75Z" />
</svg>
