<svg viewBox="0 0 24 24" fill="currentColor" stroke="currentColor" xmlns="http://www.w3.org/2000/svg">
<path d="M20.279 8.18506C20.591 9.08906 20.75 10.036 20.75 11C20.75 16.118 16.053 19.2199 12.945 21.2729L12.416 21.624C12.29 21.708 12.145 21.75 12 21.75C11.856 21.75 11.712 21.708 11.587 21.626L11.281 21.425C10.459 20.885 9.52799 20.2729 8.58599 19.5569C8.25599 19.3069 8.19199 18.8361 8.44199 18.5061C8.69199 18.1761 9.16199 18.1121 9.49299 18.3621C10.354 19.0161 11.222 19.5911 11.998 20.1001L12.118 20.02C15.128 18.032 19.249 15.31 19.249 10.999C19.249 10.203 19.118 9.42007 18.86 8.67407C18.725 8.28307 18.932 7.85597 19.324 7.71997C19.717 7.58497 20.143 7.79306 20.279 8.18506ZM21.53 3.53003L14.735 10.325C14.731 10.329 14.727 10.3329 14.722 10.3369L11.352 13.707C11.339 13.721 11.327 13.7331 11.313 13.7461L3.529 21.53C3.383 21.676 3.19099 21.75 2.99899 21.75C2.80699 21.75 2.61499 21.677 2.46899 21.53C2.17599 21.237 2.17599 20.762 2.46899 20.469L5.83599 17.1021C4.10299 15.1921 3.24899 13.191 3.24899 10.999C3.24899 6.17402 7.17399 2.24902 11.999 2.24902C14.322 2.24902 16.517 3.17002 18.147 4.79102L20.469 2.46899C20.762 2.17599 21.237 2.17599 21.53 2.46899C21.823 2.76199 21.823 3.23703 21.53 3.53003ZM6.897 16.042L9.673 13.2661C9.092 12.6661 8.74999 11.859 8.74999 10.999C8.74999 9.20702 10.208 7.74902 12 7.74902C12.859 7.74902 13.667 8.09112 14.267 8.67212L17.089 5.8501C15.739 4.5101 13.922 3.74902 12 3.74902C8.00199 3.74902 4.74999 7.00102 4.74999 10.999C4.74999 12.78 5.458 14.436 6.897 16.042ZM13.207 9.73291C12.885 9.42891 12.456 9.25 12 9.25C11.035 9.25 10.25 10.035 10.25 11C10.25 11.456 10.431 11.8821 10.735 12.2051L13.207 9.73291Z" />
</svg>
