<svg viewBox="0 0 24 24" fill="currentColor" stroke="currentColor" xmlns="http://www.w3.org/2000/svg">
<path d="M12 2.25C7.175 2.25 3.25 6.175 3.25 11C3.25 16.118 7.94699 19.2199 11.055 21.2729L11.584 21.624C11.71 21.708 11.855 21.75 12 21.75C12.145 21.75 12.29 21.708 12.416 21.624L12.945 21.2729C16.053 19.2199 20.75 16.118 20.75 11C20.75 6.175 16.825 2.25 12 2.25ZM12.119 20.021L12 20.1001L11.881 20.021C8.87098 18.033 4.75 15.311 4.75 11C4.75 7.002 8.002 3.75 12 3.75C15.998 3.75 19.25 7.002 19.25 11C19.25 15.311 15.128 18.034 12.119 20.021ZM15.271 8.93994L13.713 8.71802L13.044 7.38989C12.845 6.99389 12.445 6.74902 12 6.74902C11.555 6.74902 11.155 6.99392 10.957 7.38892L10.287 8.71704L8.729 8.93896C8.293 9.00096 7.93799 9.29809 7.80499 9.71509C7.67199 10.1291 7.78501 10.574 8.10101 10.876L9.21802 11.9409L8.96503 13.3889C8.88903 13.8239 9.06298 14.257 9.41998 14.519C9.77998 14.785 10.252 14.8219 10.652 14.6169L12.001 13.9231L13.351 14.6169C13.522 14.7049 13.706 14.749 13.89 14.749C14.135 14.749 14.377 14.672 14.583 14.52C14.94 14.258 15.114 13.8249 15.038 13.3899L14.784 11.9409L15.902 10.875C16.217 10.574 16.331 10.1291 16.198 9.71509C16.062 9.29909 15.708 9.00194 15.271 8.93994ZM13.603 10.9951C13.331 11.2561 13.206 11.6329 13.27 12.0049L13.441 12.979L12.526 12.5081C12.196 12.3381 11.804 12.3381 11.476 12.5071L10.56 12.979L10.73 12.0029C10.794 11.6319 10.67 11.2549 10.397 10.9929L9.68903 10.3181L10.683 10.176C11.054 10.123 11.374 9.89301 11.54 9.56201L12 8.6499L12.459 9.56006C12.626 9.89306 12.947 10.122 13.317 10.175L14.311 10.3159L13.603 10.9951Z" />
</svg>
