<svg viewBox="0 0 24 24" fill="currentColor" stroke="currentColor" xmlns="http://www.w3.org/2000/svg">
<path d="M12 8.75C10.208 8.75 8.75 10.208 8.75 12C8.75 13.792 10.208 15.25 12 15.25C13.792 15.25 15.25 13.792 15.25 12C15.25 10.208 13.792 8.75 12 8.75ZM12 13.75C11.035 13.75 10.25 12.965 10.25 12C10.25 11.035 11.035 10.25 12 10.25C12.965 10.25 13.75 11.035 13.75 12C13.75 12.965 12.965 13.75 12 13.75ZM21 11.25H19.712C19.357 7.574 16.426 4.64309 12.75 4.28809V3C12.75 2.586 12.414 2.25 12 2.25C11.586 2.25 11.25 2.586 11.25 3V4.28809C7.574 4.64309 4.64302 7.574 4.28802 11.25H3C2.586 11.25 2.25 11.586 2.25 12C2.25 12.414 2.586 12.75 3 12.75H4.28802C4.64302 16.426 7.574 19.3569 11.25 19.7119V21C11.25 21.414 11.586 21.75 12 21.75C12.414 21.75 12.75 21.414 12.75 21V19.7119C16.426 19.3569 19.357 16.426 19.712 12.75H21C21.414 12.75 21.75 12.414 21.75 12C21.75 11.586 21.414 11.25 21 11.25ZM12 18.25C8.554 18.25 5.75 15.446 5.75 12C5.75 8.554 8.554 5.75 12 5.75C15.446 5.75 18.25 8.554 18.25 12C18.25 15.446 15.446 18.25 12 18.25Z" />
</svg>
