<svg viewBox="0 0 24 24" fill="currentColor" stroke="currentColor" xmlns="http://www.w3.org/2000/svg">
<path d="M20.279 8.18506C20.591 9.08906 20.75 10.036 20.75 11C20.75 16.118 16.053 19.2199 12.945 21.2729L12.416 21.624C12.29 21.708 12.145 21.75 12 21.75C11.856 21.75 11.712 21.708 11.587 21.626L11.281 21.425C10.459 20.885 9.52799 20.2729 8.58599 19.5569C8.25599 19.3069 8.19198 18.8361 8.44198 18.5061C8.69198 18.1761 9.162 18.1121 9.493 18.3621C10.354 19.0161 11.222 19.5911 11.998 20.1001L12.118 20.02C15.128 18.032 19.249 15.31 19.249 10.999C19.249 10.203 19.118 9.42007 18.86 8.67407C18.725 8.28307 18.932 7.85597 19.324 7.71997C19.715 7.58497 20.143 7.79306 20.279 8.18506ZM21.53 3.53003L3.52999 21.53C3.38399 21.676 3.19199 21.75 2.99999 21.75C2.80799 21.75 2.61599 21.677 2.46999 21.53C2.17699 21.237 2.17699 20.762 2.46999 20.469L5.837 17.1021C4.104 15.1921 3.24999 13.191 3.24999 10.999C3.24999 6.17402 7.17499 2.24902 12 2.24902C14.323 2.24902 16.518 3.17002 18.148 4.79102L20.47 2.46899C20.763 2.17599 21.238 2.17599 21.531 2.46899C21.824 2.76199 21.823 3.23703 21.53 3.53003ZM6.897 16.042L17.089 5.8501C15.739 4.5101 13.922 3.74902 12 3.74902C8.00199 3.74902 4.74999 7.00102 4.74999 10.999C4.74999 12.78 5.458 14.436 6.897 16.042Z" />
</svg>
