<svg viewBox="0 0 24 24" fill="currentColor" stroke="currentColor" xmlns="http://www.w3.org/2000/svg">
<path d="M12 2.25C7.175 2.25 3.25 6.175 3.25 11C3.25 16.118 7.94699 19.2199 11.055 21.2729L11.584 21.624C11.71 21.708 11.855 21.75 12 21.75C12.145 21.75 12.29 21.708 12.416 21.624L12.945 21.2729C16.053 19.2199 20.75 16.118 20.75 11C20.75 6.175 16.825 2.25 12 2.25ZM12.119 20.021L12 20.1001L11.881 20.021C8.87101 18.033 4.75 15.311 4.75 11C4.75 7.002 8.002 3.75 12 3.75C15.998 3.75 19.25 7.002 19.25 11C19.25 15.311 15.128 18.034 12.119 20.021ZM14.25 9.927V9C14.25 7.759 13.241 6.75 12 6.75C10.759 6.75 9.75 7.759 9.75 9V9.927C9.121 10.204 8.75 10.8 8.75 11.625V13.375C8.75 14.532 9.468 15.25 10.625 15.25H13.375C14.532 15.25 15.25 14.532 15.25 13.375V11.625C15.25 10.8 14.879 10.204 14.25 9.927ZM12 8.25C12.414 8.25 12.75 8.586 12.75 9V9.75H11.25V9C11.25 8.586 11.586 8.25 12 8.25ZM13.75 13.375C13.75 13.711 13.711 13.75 13.375 13.75H10.625C10.289 13.75 10.25 13.711 10.25 13.375V11.625C10.25 11.345 10.287 11.2751 10.489 11.2581C10.493 11.2581 10.496 11.26 10.5 11.26C10.507 11.26 10.512 11.2561 10.519 11.2561C10.554 11.2541 10.581 11.25 10.625 11.25H13.375C13.42 11.25 13.447 11.2541 13.481 11.2561C13.488 11.2561 13.493 11.26 13.5 11.26C13.504 11.26 13.507 11.2581 13.511 11.2581C13.713 11.2751 13.75 11.346 13.75 11.625V13.375Z" />
</svg>
