<svg viewBox="0 0 24 24" fill="currentColor" stroke="currentColor" xmlns="http://www.w3.org/2000/svg">
<path d="M12 2.25C7.175 2.25 3.25 6.175 3.25 11C3.25 16.118 7.94699 19.2199 11.055 21.2729L11.584 21.624C11.71 21.708 11.855 21.75 12 21.75C12.145 21.75 12.29 21.708 12.416 21.624L12.945 21.2729C16.053 19.2199 20.75 16.118 20.75 11C20.75 6.175 16.825 2.25 12 2.25ZM12.119 20.021L12 20.1001L11.881 20.021C8.87098 18.033 4.75 15.311 4.75 11C4.75 7.002 8.002 3.75 12 3.75C15.998 3.75 19.25 7.002 19.25 11C19.25 15.311 15.128 18.034 12.119 20.021ZM14.584 8.40503C14.769 9.45703 14.329 10.397 13.344 11.051C12.788 11.421 12.713 11.608 12.71 11.616C12.596 11.918 12.304 12.1121 11.997 12.1121C11.915 12.1121 11.832 12.0981 11.752 12.0701C11.367 11.9321 11.159 11.523 11.29 11.136C11.492 10.537 12.085 10.088 12.514 9.80298C13.151 9.37998 13.158 8.95102 13.107 8.66602C13.029 8.22402 12.652 7.84702 12.211 7.77002C11.868 7.71002 11.537 7.79692 11.278 8.01392C11.022 8.22892 10.876 8.54298 10.876 8.87598C10.876 9.28998 10.54 9.62598 10.126 9.62598C9.71198 9.62598 9.37598 9.28998 9.37598 8.87598C9.37598 8.09898 9.71803 7.36499 10.314 6.86499C10.91 6.36499 11.696 6.15599 12.471 6.29199C13.528 6.47699 14.398 7.34603 14.584 8.40503ZM13.02 14C13.02 14.552 12.572 15 12.02 15C11.468 15 11.015 14.552 11.015 14C11.015 13.448 11.457 13 12.01 13H12.02C12.572 13 13.02 13.448 13.02 14Z" />
</svg>
