<svg viewBox="0 0 24 24" fill="currentColor" stroke="currentColor" xmlns="http://www.w3.org/2000/svg">
<path d="M12 21.75C11.855 21.75 11.71 21.708 11.584 21.624L11.055 21.2729C7.94699 19.2199 3.25 16.118 3.25 11C3.25 6.175 7.175 2.25 12 2.25C16.825 2.25 20.75 6.175 20.75 11C20.75 16.118 16.053 19.2199 12.945 21.2729L12.416 21.624C12.29 21.708 12.145 21.75 12 21.75ZM12 3.75C8.002 3.75 4.75 7.002 4.75 11C4.75 15.311 8.872 18.034 11.881 20.021L12 20.1001L12.119 20.021C15.129 18.033 19.25 15.311 19.25 11C19.25 7.002 15.998 3.75 12 3.75ZM11.697 13.53L15.03 10.197C15.323 9.90402 15.323 9.42899 15.03 9.13599C14.737 8.84299 14.262 8.84299 13.969 9.13599L11.166 11.939L10.03 10.803C9.737 10.51 9.26199 10.51 8.96899 10.803C8.67599 11.096 8.67599 11.571 8.96899 11.864L10.636 13.531C10.782 13.677 10.974 13.751 11.166 13.751C11.358 13.751 11.55 13.677 11.697 13.53Z" />
</svg>
