<svg viewBox="0 0 24 24" fill="currentColor" stroke="currentColor" xmlns="http://www.w3.org/2000/svg">
<path d="M11.25 11.6741V17C11.25 17.414 11.586 17.75 12 17.75C12.414 17.75 12.75 17.414 12.75 17V11.6741C15.012 11.3111 16.75 9.362 16.75 7C16.75 4.381 14.619 2.25 12 2.25C9.381 2.25 7.25 4.381 7.25 7C7.25 9.362 8.988 11.3121 11.25 11.6741ZM12 3.75C13.792 3.75 15.25 5.208 15.25 7C15.25 8.792 13.792 10.25 12 10.25C10.208 10.25 8.75 8.792 8.75 7C8.75 5.208 10.208 3.75 12 3.75ZM19.75 18C19.75 20.138 16.418 21.75 12 21.75C7.582 21.75 4.25 20.138 4.25 18C4.25 16.641 5.541 15.4851 7.79 14.8301C8.188 14.7161 8.604 14.9421 8.72 15.3401C8.836 15.7381 8.60701 16.154 8.21001 16.27C6.51101 16.765 5.75 17.496 5.75 18C5.75 18.917 8.185 20.25 12 20.25C15.815 20.25 18.25 18.917 18.25 18C18.25 17.496 17.489 16.765 15.79 16.27C15.393 16.154 15.164 15.7381 15.28 15.3401C15.396 14.9421 15.814 14.7161 16.21 14.8301C18.459 15.4851 19.75 16.641 19.75 18Z" />
</svg>
