<svg viewBox="0 0 24 24" fill="currentColor" stroke="currentColor" xmlns="http://www.w3.org/2000/svg">
<path d="M21.75 12C21.75 17.376 17.376 21.75 12 21.75C6.624 21.75 2.25 17.376 2.25 12C2.25 9.643 3.085 7.42406 4.604 5.66406L3.46997 4.53003C3.17697 4.23703 3.17697 3.76199 3.46997 3.46899C3.76297 3.17599 4.23801 3.17599 4.53101 3.46899L6.172 5.11011C6.172 5.11011 6.17297 5.11008 6.17297 5.11108C6.17297 5.11208 6.17301 5.11206 6.17401 5.11206L11.619 10.5569C11.744 10.5229 11.874 10.499 12.01 10.499H12.02C12.849 10.499 13.52 11.17 13.52 11.999C13.52 12.828 12.849 13.499 12.02 13.499C11.191 13.499 10.515 12.828 10.515 11.999C10.515 11.87 10.536 11.746 10.567 11.626L8.15997 9.21997C7.57697 10.03 7.25 10.988 7.25 11.999C7.25 14.618 9.381 16.749 12 16.749C13.265 16.749 14.46 16.2561 15.367 15.3601C16.257 14.4601 16.75 13.264 16.75 11.999C16.75 9.38002 14.619 7.24902 12 7.24902C11.586 7.24902 11.25 6.91302 11.25 6.49902C11.25 6.08502 11.586 5.74902 12 5.74902C15.446 5.74902 18.25 8.55302 18.25 11.999C18.25 13.662 17.603 15.2319 16.427 16.4199C15.233 17.6009 13.662 18.249 12 18.249C8.554 18.249 5.75 15.445 5.75 11.999C5.75 10.587 6.22097 9.24409 7.08197 8.14209L5.664 6.72412C4.426 8.19712 3.74902 10.043 3.74902 11.999C3.74902 16.548 7.45002 20.249 11.999 20.249C16.548 20.249 20.249 16.548 20.249 11.999C20.249 7.45002 16.548 3.74902 11.999 3.74902C11.585 3.74902 11.249 3.41302 11.249 2.99902C11.249 2.58502 11.585 2.24902 11.999 2.24902C17.376 2.25002 21.75 6.624 21.75 12Z" />
</svg>
