<svg viewBox="0 0 24 24" fill="currentColor" stroke="currentColor" xmlns="http://www.w3.org/2000/svg">
<path d="M20.247 5.49805L17.561 3.49805C17.347 3.33805 17.082 3.25 16.814 3.25H12.75V3C12.75 2.586 12.414 2.25 12 2.25C11.586 2.25 11.25 2.586 11.25 3V3.25H7.5C6.091 3.25 5.25 4.091 5.25 5.5V7.5C5.25 8.909 6.091 9.75 7.5 9.75H11.25V11.25H7.186C6.919 11.25 6.654 11.338 6.44 11.498L3.75301 13.498C3.43401 13.736 3.25 14.102 3.25 14.5C3.25 14.898 3.43401 15.264 3.75301 15.502L6.439 17.502C6.653 17.662 6.918 17.75 7.186 17.75H11.25V20.25H9C8.586 20.25 8.25 20.586 8.25 21C8.25 21.414 8.586 21.75 9 21.75H15C15.414 21.75 15.75 21.414 15.75 21C15.75 20.586 15.414 20.25 15 20.25H12.75V17.75H16.5C17.909 17.75 18.75 16.909 18.75 15.5V13.5C18.75 12.091 17.909 11.25 16.5 11.25H12.75V9.75H16.814C17.081 9.75 17.346 9.66195 17.56 9.50195L20.247 7.50195C20.566 7.26395 20.75 6.898 20.75 6.5C20.75 6.102 20.566 5.73605 20.247 5.49805ZM17.25 13.5V15.5C17.25 16.089 17.089 16.25 16.5 16.25H7.27L4.91901 14.5L7.27 12.75H16.5C17.089 12.75 17.25 12.911 17.25 13.5ZM16.73 8.25H7.5C6.911 8.25 6.75 8.089 6.75 7.5V5.5C6.75 4.911 6.911 4.75 7.5 4.75H16.73L19.081 6.5L16.73 8.25Z" />
</svg>
