<svg viewBox="0 0 24 24" fill="currentColor" stroke="currentColor" xmlns="http://www.w3.org/2000/svg">
<path d="M7.75 12.9999C7.75 14.7919 9.208 16.2499 11 16.2499C12.485 16.2499 13.778 15.2489 14.144 13.8149C14.246 13.4129 14.661 13.1709 15.055 13.2729C15.457 13.3759 15.7 13.784 15.597 14.185C15.063 16.284 13.172 17.7499 11 17.7499C8.381 17.7499 6.25 15.6189 6.25 12.9999C6.25 10.8269 7.716 8.937 9.815 8.403C10.212 8.303 10.625 8.54299 10.726 8.94499C10.829 9.34599 10.585 9.75486 10.184 9.85686C8.75102 10.2209 7.75 11.5139 7.75 12.9999ZM18.885 11.715C18.474 11.762 18.178 12.1328 18.225 12.5448C18.243 12.6968 18.25 12.8479 18.25 12.9999C18.25 16.9979 14.998 20.2499 11 20.2499C7.002 20.2499 3.75 16.9979 3.75 12.9999C3.75 9.00193 7.002 5.74993 11 5.74993C11.152 5.74993 11.305 5.75783 11.457 5.77483C11.879 5.81983 12.24 5.52399 12.285 5.11199C12.331 4.69999 12.035 4.32888 11.623 4.28288C11.416 4.25988 11.207 4.24895 11 4.24895C6.175 4.24895 2.25 8.17395 2.25 12.9989C2.25 17.8239 6.175 21.7489 11 21.7489C15.825 21.7489 19.75 17.8239 19.75 12.9989C19.75 12.7909 19.738 12.5819 19.715 12.3739C19.668 11.9629 19.305 11.669 18.885 11.715ZM21.53 7.52995L18.969 10.091C18.55 10.51 17.97 10.7499 17.378 10.7499H14.31L11.53 13.53C11.384 13.676 11.192 13.7499 11 13.7499C10.808 13.7499 10.616 13.677 10.47 13.53C10.177 13.237 10.177 12.7619 10.47 12.4689L13.25 9.68889V6.62102C13.25 6.02902 13.49 5.44896 13.909 5.02996L16.47 2.46892C16.685 2.25392 17.007 2.18983 17.287 2.30583C17.567 2.42183 17.75 2.69595 17.75 2.99895V6.24895H21C21.304 6.24895 21.577 6.43184 21.693 6.71184C21.809 6.99284 21.745 7.31595 21.53 7.52995ZM14.75 6.62102V8.18889L16.25 6.68889V4.80998L14.97 6.09001C14.83 6.23001 14.75 6.42402 14.75 6.62102ZM19.189 7.74993H17.31L15.81 9.24993H17.378C17.575 9.24993 17.769 9.16995 17.908 9.02995L19.189 7.74993Z" />
</svg>
