<svg viewBox="0 0 24 24" fill="currentColor" stroke="currentColor" xmlns="http://www.w3.org/2000/svg">
<path d="M20 20.25H18.601L14.993 4.01196C14.669 2.55596 13.62 2.25 12.797 2.25H11.203C10.38 2.25 9.33099 2.55596 9.00699 4.01196L5.39899 20.25H4C3.586 20.25 3.25 20.586 3.25 21C3.25 21.414 3.586 21.75 4 21.75H20C20.414 21.75 20.75 21.414 20.75 21C20.75 20.586 20.414 20.25 20 20.25ZM9.04599 10.75H14.954L15.954 15.25H8.04599L9.04599 10.75ZM10.471 4.33789C10.569 3.89689 10.689 3.75 11.203 3.75H12.797C13.312 3.75 13.431 3.89691 13.529 4.33691L14.621 9.25H9.379L10.471 4.33789ZM7.71301 16.75H16.288L17.066 20.25H6.936L7.71301 16.75Z" />
</svg>
