<svg viewBox="0 0 24 24" fill="currentColor" stroke="currentColor" xmlns="http://www.w3.org/2000/svg">
<path d="M17.625 3H6.375C4.125 3 3 4.125 3 6.375V17.625C3 19.875 4.125 21 6.375 21H17.625C19.875 21 21 19.875 21 17.625V6.375C21 4.125 19.875 3 17.625 3ZM12.1399 14.75C13.0349 14.75 13.8731 14.31 14.3831 13.573C14.6201 13.233 15.086 13.1461 15.427 13.3831C15.768 13.6191 15.8529 14.086 15.6169 14.426C14.8259 15.568 13.5259 16.249 12.1389 16.249C9.79492 16.249 7.88892 14.342 7.88892 11.999C7.88892 9.65602 9.79492 7.74902 12.1389 7.74902C13.5259 7.74902 14.8259 8.43102 15.6169 9.57202C15.8519 9.91202 15.767 10.38 15.427 10.615C15.086 10.853 14.6201 10.765 14.3831 10.425C13.8731 9.68805 13.0339 9.24805 12.1399 9.24805C10.6229 9.24805 9.38989 10.481 9.38989 11.998C9.38989 13.515 10.6229 14.75 12.1399 14.75Z" />
</svg>
