<svg viewBox="0 0 24 24" fill="currentColor" stroke="currentColor" xmlns="http://www.w3.org/2000/svg">
<path d="M21.0291 9.65606L14.3441 2.97101C13.0491 1.67601 10.9501 1.67601 9.65606 2.97101L2.97101 9.65606C1.67601 10.9511 1.67601 13.0501 2.97101 14.3441L9.65606 21.0291C10.9511 22.3241 13.0501 22.3241 14.3441 21.0291L21.0291 14.3441C22.3241 13.0501 22.3241 10.9501 21.0291 9.65606ZM11.2501 8.50006C11.2501 8.08606 11.5861 7.75006 12.0001 7.75006C12.4141 7.75006 12.7501 8.08606 12.7501 8.50006V12.5001C12.7501 12.9141 12.4141 13.2501 12.0001 13.2501C11.5861 13.2501 11.2501 12.9141 11.2501 12.5001V8.50006ZM12.0201 16.5001C11.4681 16.5001 11.015 16.0521 11.015 15.5001C11.015 14.9481 11.4581 14.5001 12.0101 14.5001H12.0201C12.5731 14.5001 13.0201 14.9481 13.0201 15.5001C13.0201 16.0521 12.5721 16.5001 12.0201 16.5001Z" />
</svg>
