<svg viewBox="0 0 24 24" fill="currentColor" stroke="currentColor" xmlns="http://www.w3.org/2000/svg">
<path d="M17.625 3H6.375C4.125 3 3 4.125 3 6.375V17.625C3 19.875 4.125 21 6.375 21H17.625C19.875 21 21 19.875 21 17.625V6.375C21 4.125 19.875 3 17.625 3ZM11.25 7.5C11.25 7.086 11.586 6.75 12 6.75C12.414 6.75 12.75 7.086 12.75 7.5V12.071C12.75 12.485 12.414 12.821 12 12.821C11.586 12.821 11.25 12.485 11.25 12.071V7.5ZM12.02 16.5C11.468 16.5 11.0149 16.052 11.0149 15.5C11.0149 14.948 11.458 14.5 12.01 14.5H12.02C12.573 14.5 13.02 14.948 13.02 15.5C13.02 16.052 12.572 16.5 12.02 16.5Z" />
</svg>
