<svg viewBox="0 0 24 24" fill="currentColor" stroke="currentColor" xmlns="http://www.w3.org/2000/svg">
<path d="M16.439 3.43896L20.5601 7.56006C20.8411 7.84106 20.999 8.22309 20.999 8.62109V15.3779C20.999 15.7759 20.8411 16.157 20.5601 16.439L16.439 20.5601C16.158 20.8411 15.7759 20.999 15.3779 20.999H8.62109C8.22309 20.999 7.84206 20.8411 7.56006 20.5601L3.43896 16.439C3.15796 16.158 3 15.7759 3 15.3779V8.62109C3 8.22309 3.15796 7.84206 3.43896 7.56006L7.56006 3.43896C7.84106 3.15796 8.22309 3 8.62109 3H15.3779C15.7769 3 16.158 3.15796 16.439 3.43896Z" />
</svg>
