<svg viewBox="0 0 24 24" fill="currentColor" stroke="currentColor" xmlns="http://www.w3.org/2000/svg">
<path d="M20.561 7.56104L16.4399 3.43994C16.1589 3.15894 15.7769 3.00098 15.3789 3.00098H8.62207C8.22407 3.00098 7.84304 3.15894 7.56104 3.43994L3.43994 7.56104C3.15894 7.84204 3.00098 8.22407 3.00098 8.62207V15.3789C3.00098 15.7769 3.15894 16.1579 3.43994 16.4399L7.56104 20.561C7.84204 20.842 8.22407 21 8.62207 21H15.3789C15.7769 21 16.1579 20.842 16.4399 20.561L20.561 16.4399C20.842 16.1589 21 15.7769 21 15.3789V8.62207C21 8.22407 20.842 7.84204 20.561 7.56104ZM15.53 10.53L11.53 14.53C11.384 14.676 11.192 14.75 11 14.75C10.808 14.75 10.616 14.677 10.47 14.53L8.46997 12.53C8.17697 12.237 8.17697 11.762 8.46997 11.469C8.76297 11.176 9.23801 11.176 9.53101 11.469L11.001 12.939L14.4709 9.46899C14.7639 9.17599 15.239 9.17599 15.532 9.46899C15.825 9.76199 15.823 10.237 15.53 10.53Z" />
</svg>
