<svg viewBox="0 0 24 24" fill="currentColor" stroke="currentColor" xmlns="http://www.w3.org/2000/svg">
<path d="M14.25 10C14.25 10.689 13.689 11.25 13 11.25H9.75V8.75H13C13.689 8.75 14.25 9.311 14.25 10ZM22 12C22 17.523 17.523 22 12 22C6.477 22 2 17.523 2 12C2 6.477 6.477 2 12 2C17.523 2 22 6.477 22 12ZM14.0979 12.5181C15.0689 12.0931 15.75 11.126 15.75 10C15.75 8.483 14.517 7.25 13 7.25H9C8.586 7.25 8.25 7.586 8.25 8V16C8.25 16.414 8.586 16.75 9 16.75C9.414 16.75 9.75 16.414 9.75 16V12.75H12.5359L14.3291 16.335C14.4611 16.598 14.725 16.75 15.001 16.75C15.113 16.75 15.228 16.7249 15.335 16.6709C15.706 16.4849 15.8559 16.035 15.6709 15.665L14.0979 12.5181Z" />
</svg>
