<svg viewBox="0 0 24 24" fill="currentColor" stroke="currentColor" xmlns="http://www.w3.org/2000/svg">
<path d="M11.4581 10C11.6651 10 11.8001 10.2 11.7391 10.397C11.5821 10.903 11.5001 11.439 11.5001 12C11.5001 12.561 11.5811 13.097 11.7391 13.603C11.8001 13.8 11.6651 14 11.4581 14H5.11214C4.05514 14 3.09713 13.229 3.00813 12.177C2.95613 11.558 3.18114 10.9891 3.59114 10.5901C3.95114 10.2201 4.45105 10 5.00105 10H11.4581ZM17.0001 16C19.2091 16 21.0001 14.209 21.0001 12C21.0001 9.791 19.2091 8 17.0001 8C14.7911 8 13.0001 9.791 13.0001 12C13.0001 14.209 14.7911 16 17.0001 16Z" />
</svg>
