<svg viewBox="0 0 24 24" fill="currentColor" stroke="currentColor" xmlns="http://www.w3.org/2000/svg">
<path d="M20.9919 12.177C20.9029 13.23 19.9449 14 18.8879 14H12.542C12.335 14 12.2 13.8 12.261 13.603C12.418 13.097 12.5 12.561 12.5 12C12.5 11.439 12.419 10.903 12.261 10.397C12.2 10.2 12.335 10 12.542 10H19C19.55 10 20.0499 10.2201 20.4099 10.5901C20.8189 10.9881 21.0449 11.558 20.9919 12.177ZM11 12C11 9.791 9.209 8 7 8C4.791 8 3 9.791 3 12C3 14.209 4.791 16 7 16C9.209 16 11 14.209 11 12Z" />
</svg>
