<svg viewBox="0 0 24 24" fill="currentColor" stroke="currentColor" xmlns="http://www.w3.org/2000/svg">
<path d="M2 8V4.5C2 2.958 2.958 2 4.5 2H8C8.553 2 9 2.448 9 3C9 3.552 8.553 4 8 4H4.5C4.052 4 4 4.051 4 4.5V8C4 8.552 3.553 9 3 9C2.447 9 2 8.552 2 8ZM21 15C20.447 15 20 15.448 20 16V19.5C20 19.949 19.948 20 19.5 20H16C15.447 20 15 20.448 15 21C15 21.552 15.447 22 16 22H19.5C21.042 22 22 21.042 22 19.5V16C22 15.448 21.553 15 21 15ZM19.5 2H16C15.447 2 15 2.448 15 3C15 3.552 15.447 4 16 4H19.5C19.948 4 20 4.051 20 4.5V8C20 8.552 20.447 9 21 9C21.553 9 22 8.552 22 8V4.5C22 2.958 21.042 2 19.5 2ZM8 20H4.5C4.052 20 4 19.949 4 19.5V16C4 15.448 3.553 15 3 15C2.447 15 2 15.448 2 16V19.5C2 21.042 2.958 22 4.5 22H8C8.553 22 9 21.552 9 21C9 20.448 8.553 20 8 20ZM16.915 7.47192C16.147 6.41692 14.533 7.57411 15.292 8.64111C15.755 9.28411 16 10.053 16 10.864V15.032C16 16.05 15.8421 16.73 15.4861 17.238C15.0131 17.871 15.525 18.834 16.304 18.811C17.852 18.63 17.987 15.884 17.999 15.032C17.917 12.855 18.449 9.27092 16.915 7.47192ZM6 10.863V13.9451C6.006 15.2501 7.994 15.2551 8 13.9451V10.863C8 8.59904 9.99492 6.74602 12.2639 7.02002C12.8139 7.08302 13.311 6.69497 13.377 6.14697C13.485 5.27397 12.601 4.91702 11.863 4.99902C8.63004 5.00002 6 7.63004 6 10.863ZM14.73 10.438C13.872 7.22199 9.13197 7.8051 9.09497 11.1521C9.10097 11.2671 9.09097 12.7721 9.09497 12.9331V13.9451C9.09497 14.2921 8.91989 14.89 8.66089 15.229C8.32389 15.667 8.40695 16.2951 8.84595 16.6311C10.3629 17.6091 11.128 14.8471 11.095 13.9451C11.095 13.2211 11.095 11.8811 11.095 11.1521C11.085 10.2121 12.4049 9.97412 12.7639 10.8181C12.8949 11.0081 12.808 12.6911 12.832 12.9331V14.5071C12.832 15.6531 12.6691 16.557 11.8711 17.24C11.4521 17.6 11.4039 18.2309 11.7639 18.6499C12.1249 19.0709 12.7561 19.1161 13.1741 18.7581C14.6441 17.4971 14.832 15.8231 14.832 14.5061C14.78 13.5121 14.951 11.315 14.73 10.438Z" />
</svg>
