<svg viewBox="0 0 24 24" fill="currentColor" stroke="currentColor" xmlns="http://www.w3.org/2000/svg">
<path d="M12.0181 2C9.77807 3.111 8 4 3 5C3 6.137 3 9.70192 3 10.8889C3 17.5559 8.667 20.889 12 22C15.333 20.889 21 17.5559 21 10.8889C21 9.66392 21 6.194 21 5C16 4 14.2221 3.111 12.0181 2ZM12.75 12.303V15C12.75 15.414 12.414 15.75 12 15.75C11.586 15.75 11.25 15.414 11.25 15V12.282C10.812 12.02 10.5149 11.546 10.5149 11C10.5149 10.171 11.182 9.5 12.01 9.5H12.02C12.849 9.5 13.52 10.171 13.52 11C13.52 11.562 13.207 12.046 12.75 12.303Z" />
</svg>
