<svg viewBox="0 0 24 24" fill="currentColor" stroke="currentColor" xmlns="http://www.w3.org/2000/svg">
<path d="M12.0181 2C9.77807 3.111 8 4 3 5C3 6.137 3 9.70192 3 10.8889C3 17.5559 8.667 20.889 12 22C15.333 20.889 21 17.5559 21 10.8889C21 9.66392 21 6.194 21 5C16 4 14.2221 3.111 12.0181 2ZM15.019 13.97C15.312 14.263 15.312 14.738 15.019 15.031C14.873 15.177 14.681 15.251 14.489 15.251C14.297 15.251 14.105 15.178 13.959 15.031L11.989 13.061L10.019 15.031C9.87304 15.177 9.68101 15.251 9.48901 15.251C9.29701 15.251 9.10498 15.178 8.95898 15.031C8.66598 14.738 8.66598 14.263 8.95898 13.97L10.929 12L8.95898 10.03C8.66598 9.73703 8.66598 9.26199 8.95898 8.96899C9.25198 8.67599 9.72702 8.67599 10.02 8.96899L11.99 10.939L13.96 8.96899C14.253 8.67599 14.728 8.67599 15.021 8.96899C15.314 9.26199 15.314 9.73703 15.021 10.03L13.051 12L15.019 13.97Z" />
</svg>
