<svg viewBox="0 0 24 24" fill="currentColor" stroke="currentColor" xmlns="http://www.w3.org/2000/svg">
<path d="M16 9H8.75V7C8.75 6.14 9.08995 5.31995 9.69995 4.69995C10.32 4.08995 11.14 3.75 12 3.75C13.49 3.75 14.7799 4.74994 15.1399 6.18994C15.2499 6.58994 15.66 6.82998 16.05 6.72998C16.46 6.61998 16.7001 6.22006 16.6001 5.81006C16.0601 3.72006 14.17 2.25 12 2.25C10.74 2.25 9.54989 2.73989 8.63989 3.63989C7.73989 4.54989 7.25 5.74 7.25 7V9.05811C5.752 9.29111 5 10.269 5 12V18C5 20 6 21 8 21H16C18 21 19 20 19 18V12C19 10 18 9 16 9ZM12.75 14.9871V17C12.75 17.414 12.414 17.75 12 17.75C11.586 17.75 11.25 17.414 11.25 17V14.9619C10.962 14.7329 10.7649 14.395 10.7649 14C10.7649 13.31 11.32 12.75 12.01 12.75H12.02C12.71 12.75 13.27 13.31 13.27 14C13.27 14.412 13.057 14.7601 12.75 14.9871Z" />
</svg>
