<svg viewBox="0 0 24 24" fill="currentColor" stroke="currentColor" xmlns="http://www.w3.org/2000/svg">
<path d="M17.625 2.5H6.375C3.84 2.5 2.5 3.84 2.5 6.375V17.625C2.5 20.16 3.84 21.5 6.375 21.5H17.625C20.16 21.5 21.5 20.16 21.5 17.625V6.375C21.5 3.84 20.16 2.5 17.625 2.5ZM20.5 17.625C20.5 19.586 19.587 20.5 17.625 20.5H6.375C4.414 20.5 3.5 19.586 3.5 17.625V6.375C3.5 4.414 4.414 3.5 6.375 3.5H17.625C19.587 3.5 20.5 4.414 20.5 6.375V17.625ZM14.55 11.807C14.963 11.386 15.219 10.808 15.219 10.17C15.219 8.97204 14.314 7.99299 13.16 7.86499V7C13.16 6.724 12.936 6.5 12.66 6.5C12.384 6.5 12.16 6.724 12.16 7V7.83997H11.069V7C11.069 6.724 10.845 6.5 10.569 6.5C10.293 6.5 10.069 6.724 10.069 7V7.83997H8.76501C8.48901 7.83997 8.26501 8.06397 8.26501 8.33997C8.26501 8.61597 8.48901 8.83997 8.76501 8.83997H9.54602V15.16H8.76501C8.48901 15.16 8.26501 15.384 8.26501 15.66C8.26501 15.936 8.48901 16.16 8.76501 16.16H10.069V17C10.069 17.276 10.293 17.5 10.569 17.5C10.845 17.5 11.069 17.276 11.069 17V16.16H12.16V17C12.16 17.276 12.384 17.5 12.66 17.5C12.936 17.5 13.16 17.276 13.16 17V16.16H13.427C14.699 16.16 15.735 15.115 15.735 13.83C15.735 12.959 15.253 12.207 14.55 11.807ZM12.911 8.83997C13.632 8.83997 14.219 9.43704 14.219 10.17C14.219 10.903 13.632 11.5 12.911 11.5H10.546V8.83997H12.911ZM13.427 15.16H10.546V12.5H12.911H13.428C14.149 12.5 14.736 13.097 14.736 13.83C14.736 14.563 14.148 15.16 13.427 15.16Z" />
</svg>
