<svg viewBox="0 0 24 24" fill="currentColor" stroke="currentColor" xmlns="http://www.w3.org/2000/svg">
<path d="M15.824 11.743C16.835 11.016 17.5 9.837 17.5 8.5C17.5 6.294 15.706 4.5 13.5 4.5V3C13.5 2.724 13.276 2.5 13 2.5C12.724 2.5 12.5 2.724 12.5 3V4.5H9.5V3C9.5 2.724 9.276 2.5 9 2.5C8.724 2.5 8.5 2.724 8.5 3V4.5H6C5.724 4.5 5.5 4.724 5.5 5C5.5 5.276 5.724 5.5 6 5.5H7.5V18.5H6C5.724 18.5 5.5 18.724 5.5 19C5.5 19.276 5.724 19.5 6 19.5H8.5V21C8.5 21.276 8.724 21.5 9 21.5C9.276 21.5 9.5 21.276 9.5 21V19.5H12.5V21C12.5 21.276 12.724 21.5 13 21.5C13.276 21.5 13.5 21.276 13.5 21V19.5H14.5C16.706 19.5 18.5 17.706 18.5 15.5C18.5 13.761 17.377 12.292 15.824 11.743ZM13.5 5.5C15.154 5.5 16.5 6.846 16.5 8.5C16.5 10.154 15.154 11.5 13.5 11.5H8.5V5.5H13.5ZM14.5 18.5H8.5V12.5H13.5H14.5C16.154 12.5 17.5 13.846 17.5 15.5C17.5 17.154 16.154 18.5 14.5 18.5Z" />
</svg>
