<svg viewBox="0 0 24 24" fill="currentColor" stroke="currentColor" xmlns="http://www.w3.org/2000/svg">
<path d="M21.5 14.269C21.498 12.403 18.901 10.926 15.5 10.793V5.98999C15.499 3.59199 12.13 2.5 9 2.5C5.87 2.5 2.501 3.59199 2.5 5.98999V17.01C2.5 19.408 5.87 20.5 9 20.5C9.373 20.5 9.756 20.469 10.138 20.428C11.408 21.156 13.242 21.5 15 21.5C18.131 21.5 21.5 20.408 21.5 18.01V14.269C21.5 14.27 21.5 14.27 21.5 14.269ZM20.5 14.271C20.5 15.449 18.241 16.762 15 16.762C11.759 16.762 9.5 15.45 9.5 14.271C9.5 13.092 11.759 11.78 15 11.78C18.241 11.78 20.5 13.093 20.5 14.271ZM3.5 11.366C4.715 12.384 6.85801 13.003 8.92401 13.018C8.65401 13.405 8.501 13.825 8.5 14.269C8.5 14.269 8.5 14.269 8.5 14.27V15.746C5.906 15.611 3.5 14.451 3.5 13.27V11.366ZM3.5 7.987C4.712 9.005 6.859 9.48102 9 9.48102C11.141 9.48102 13.288 9.005 14.5 7.987V9.52899C14.5 10.11 14.008 10.566 13.565 10.864C12.179 11.026 10.974 11.419 10.086 11.967C9.734 11.999 9.377 12.019 9 12.019C6.224 12.019 3.5 10.786 3.5 9.52899V7.987ZM9 3.5C11.667 3.5 14.5 4.37303 14.5 5.99103C14.5 9.26203 3.5 9.26203 3.5 5.99103C3.5 4.37303 6.333 3.5 9 3.5ZM3.5 17.01V15.106C4.632 16.054 6.569 16.657 8.5 16.746V18.01C8.5 18.58 8.69498 19.073 9.02698 19.499C9.01798 19.499 9.009 19.501 9 19.501C6.333 19.5 3.5 18.627 3.5 17.01ZM15 20.5C12.333 20.5 9.5 19.627 9.5 18.01V16.151C10.641 17.125 12.654 17.762 15 17.762C17.346 17.762 19.359 17.125 20.5 16.151V18.01C20.5 19.627 17.666 20.5 15 20.5Z" />
</svg>
