<svg viewBox="0 0 24 24" fill="currentColor" stroke="currentColor" xmlns="http://www.w3.org/2000/svg">
<path d="M3.49701 11.104C3.46901 11.36 3.252 11.55 3 11.55C2.982 11.55 2.96401 11.549 2.94501 11.547C2.67101 11.517 2.47202 11.27 2.50202 10.996C2.85502 7.76397 4.805 4.981 7.719 3.552C7.874 3.476 8.05598 3.48505 8.20398 3.57605C8.34998 3.66705 8.43903 3.827 8.43903 4V7.05005C8.43903 7.32605 8.21503 7.55005 7.93903 7.55005C7.66303 7.55005 7.43903 7.32605 7.43903 7.05005V4.84595C5.23703 6.20395 3.78301 8.49 3.49701 11.104ZM21.055 12.453C20.785 12.424 20.534 12.62 20.503 12.896C20.217 15.51 18.763 17.7961 16.56 19.1541V16.95C16.56 16.674 16.336 16.45 16.06 16.45C15.784 16.45 15.56 16.674 15.56 16.95V20C15.56 20.173 15.649 20.333 15.795 20.424C15.876 20.4739 15.968 20.5 16.06 20.5C16.135 20.5 16.21 20.483 16.28 20.449C19.193 19.02 21.143 16.237 21.497 13.005C21.527 12.73 21.329 12.483 21.055 12.453ZM16 11.5C13.519 11.5 11.5 9.481 11.5 7C11.5 4.519 13.519 2.5 16 2.5C18.481 2.5 20.5 4.519 20.5 7C20.5 9.481 18.481 11.5 16 11.5ZM16 10.5C17.93 10.5 19.5 8.93 19.5 7C19.5 5.07 17.93 3.5 16 3.5C14.07 3.5 12.5 5.07 12.5 7C12.5 8.93 14.07 10.5 16 10.5ZM12.5 17C12.5 19.481 10.481 21.5 8 21.5C5.519 21.5 3.5 19.481 3.5 17C3.5 14.519 5.519 12.5 8 12.5C10.481 12.5 12.5 14.519 12.5 17ZM11.5 17C11.5 15.07 9.93 13.5 8 13.5C6.07 13.5 4.5 15.07 4.5 17C4.5 18.93 6.07 20.5 8 20.5C9.93 20.5 11.5 18.93 11.5 17Z" />
</svg>
