<svg viewBox="0 0 24 24" fill="currentColor" stroke="currentColor" xmlns="http://www.w3.org/2000/svg">
<path d="M12 4.5C6.673 4.5 2.5 6.696 2.5 9.5V14.5C2.5 17.584 6.14 19.5 12 19.5C17.86 19.5 21.5 17.584 21.5 14.5V9.5C21.5 6.696 17.327 4.5 12 4.5ZM12 5.5C16.607 5.5 20.5 7.332 20.5 9.5C20.5 11.668 16.607 13.5 12 13.5C7.393 13.5 3.5 11.668 3.5 9.5C3.5 7.332 7.393 5.5 12 5.5ZM11.5 14.487V18.49C9.983 18.459 8.636 18.289 7.5 17.997V13.92C8.695 14.252 10.051 14.449 11.5 14.487ZM12.5 14.487C13.949 14.449 15.305 14.252 16.5 13.921V17.998C15.364 18.29 14.017 18.46 12.5 18.491V14.487ZM3.5 14.5V11.758C4.197 12.498 5.228 13.129 6.5 13.598V17.693C4.597 16.998 3.5 15.891 3.5 14.5ZM20.5 14.5C20.5 15.891 19.403 16.998 17.5 17.692V13.597C18.772 13.128 19.803 12.497 20.5 11.757V14.5Z" />
</svg>
