<svg viewBox="0 0 24 24" fill="currentColor" stroke="currentColor" xmlns="http://www.w3.org/2000/svg">
<path d="M3.49702 11.104C3.46902 11.36 3.25199 11.55 3.00099 11.55C2.98199 11.55 2.96402 11.549 2.94502 11.547C2.67102 11.517 2.472 11.27 2.503 10.996C2.857 7.76397 4.80702 4.981 7.72102 3.552C7.87502 3.476 8.05803 3.48505 8.20503 3.57605C8.35103 3.66705 8.44001 3.827 8.44001 4V7.05005C8.44001 7.32605 8.21601 7.55005 7.94001 7.55005C7.66401 7.55005 7.44001 7.32605 7.44001 7.05005V4.84595C5.23701 6.20395 3.78302 8.49 3.49702 11.104ZM21.055 12.453C20.784 12.424 20.534 12.62 20.503 12.896C20.217 15.51 18.763 17.7961 16.56 19.1541V16.95C16.56 16.674 16.336 16.45 16.06 16.45C15.784 16.45 15.56 16.674 15.56 16.95V20C15.56 20.173 15.649 20.333 15.795 20.424C15.876 20.4739 15.968 20.5 16.06 20.5C16.135 20.5 16.21 20.483 16.28 20.449C19.194 19.02 21.144 16.237 21.498 13.005C21.527 12.73 21.329 12.483 21.055 12.453ZM11.5 7C11.5 4.519 13.519 2.5 16 2.5C18.481 2.5 20.5 4.519 20.5 7C20.5 9.481 18.481 11.5 16 11.5C13.519 11.5 11.5 9.481 11.5 7ZM12.5 7C12.5 8.93 14.07 10.5 16 10.5C17.93 10.5 19.5 8.93 19.5 7C19.5 5.07 17.93 3.5 16 3.5C14.07 3.5 12.5 5.07 12.5 7ZM13.5 15.5V19.5C13.5 20.771 12.771 21.5 11.5 21.5H5.50001C4.22901 21.5 3.50001 20.771 3.50001 19.5V15.5C3.50001 14.229 4.22901 13.5 5.50001 13.5H11.5C12.771 13.5 13.5 14.229 13.5 15.5ZM4.50001 15.5V16H12.5V15.5C12.5 14.78 12.22 14.5 11.5 14.5H5.50001C4.78001 14.5 4.50001 14.78 4.50001 15.5ZM12.5 19.5V17H4.50001V19.5C4.50001 20.22 4.78001 20.5 5.50001 20.5H11.5C12.22 20.5 12.5 20.22 12.5 19.5ZM7.50001 18.5H6.00001C5.72401 18.5 5.50001 18.724 5.50001 19C5.50001 19.276 5.72401 19.5 6.00001 19.5H7.50001C7.77601 19.5 8.00001 19.276 8.00001 19C8.00001 18.724 7.77601 18.5 7.50001 18.5Z" />
</svg>
