<svg viewBox="0 0 24 24" fill="currentColor" stroke="currentColor" xmlns="http://www.w3.org/2000/svg">
<path d="M18 4.5H6C3.71 4.5 2.5 5.71 2.5 8V16C2.5 18.29 3.71 19.5 6 19.5H18C20.29 19.5 21.5 18.29 21.5 16V8C21.5 5.71 20.29 4.5 18 4.5ZM6 5.5H18C19.729 5.5 20.5 6.271 20.5 8V9.5H3.5V8C3.5 6.271 4.271 5.5 6 5.5ZM18 18.5H6C4.271 18.5 3.5 17.729 3.5 16V10.5H20.5V16C20.5 17.729 19.729 18.5 18 18.5ZM10.5 15C10.5 15.276 10.276 15.5 10 15.5H7C6.724 15.5 6.5 15.276 6.5 15C6.5 14.724 6.724 14.5 7 14.5H10C10.276 14.5 10.5 14.724 10.5 15Z" />
</svg>
