<svg viewBox="0 0 24 24" fill="currentColor" stroke="currentColor" xmlns="http://www.w3.org/2000/svg">
<path d="M11 17.5H5C3.271 17.5 2.5 16.729 2.5 15V9.5H19.5V10C19.5 10.276 19.724 10.5 20 10.5C20.276 10.5 20.5 10.276 20.5 10V7C20.5 4.71 19.29 3.5 17 3.5H5C2.71 3.5 1.5 4.71 1.5 7V15C1.5 17.29 2.71 18.5 5 18.5H11C11.276 18.5 11.5 18.276 11.5 18C11.5 17.724 11.276 17.5 11 17.5ZM5 4.5H17C18.729 4.5 19.5 5.271 19.5 7V8.5H2.5V7C2.5 5.271 3.271 4.5 5 4.5ZM9 13.5C9.276 13.5 9.5 13.724 9.5 14C9.5 14.276 9.276 14.5 9 14.5H6C5.724 14.5 5.5 14.276 5.5 14C5.5 13.724 5.724 13.5 6 13.5H9ZM17.5 12.5C15.294 12.5 13.5 14.294 13.5 16.5C13.5 18.706 15.294 20.5 17.5 20.5C19.706 20.5 21.5 18.706 21.5 16.5C21.5 14.294 19.706 12.5 17.5 12.5ZM17.5 13.5C18.147 13.5 18.743 13.71 19.233 14.06L15.06 18.233C14.711 17.743 14.5 17.147 14.5 16.5C14.5 14.846 15.846 13.5 17.5 13.5ZM17.5 19.5C16.853 19.5 16.257 19.29 15.767 18.94L19.94 14.767C20.289 15.257 20.5 15.853 20.5 16.5C20.5 18.154 19.154 19.5 17.5 19.5Z" />
</svg>
