<svg viewBox="0 0 24 24" fill="currentColor" stroke="currentColor" xmlns="http://www.w3.org/2000/svg">
<path d="M21.398 6.98103C21.465 7.28403 21.5 7.62701 21.5 8.00001V16C21.5 18.29 20.29 19.5 18 19.5H9C8.724 19.5 8.5 19.276 8.5 19C8.5 18.724 8.724 18.5 9 18.5H18C19.729 18.5 20.5 17.729 20.5 16V10.5H18C17.724 10.5 17.5 10.276 17.5 10C17.5 9.72401 17.724 9.50001 18 9.50001H20.5V8.00001C20.5 7.70501 20.473 7.42801 20.422 7.19801C20.362 6.92801 20.532 6.66102 20.802 6.60102C21.072 6.54502 21.338 6.71103 21.398 6.98103ZM9.35303 15.354L3.354 21.354C3.256 21.452 3.128 21.5 3 21.5C2.872 21.5 2.744 21.451 2.646 21.354C2.451 21.159 2.451 20.842 2.646 20.647L4.16199 19.131C3.28499 18.715 2.49902 17.834 2.49902 16.001V8.00099C2.49902 5.71099 3.70902 4.50099 5.99902 4.50099H17.999C18.263 4.50099 18.505 4.52399 18.735 4.55799L20.646 2.64698C20.841 2.45198 21.158 2.45198 21.353 2.64698C21.548 2.84198 21.548 3.15901 21.353 3.35401L14.354 10.354L14.353 10.355L9.354 15.354C9.354 15.353 9.35303 15.354 9.35303 15.354ZM3.5 8.00001V9.50001H13.793L17.793 5.50001H6C4.271 5.50001 3.5 6.27101 3.5 8.00001ZM4.93402 18.359L7.79303 15.5H7C6.724 15.5 6.5 15.276 6.5 15C6.5 14.724 6.724 14.5 7 14.5H8.79303L12.793 10.5H3.5V16C3.5 17.665 4.25802 18.168 4.93402 18.359Z" />
</svg>
