<svg viewBox="0 0 24 24" fill="currentColor" stroke="currentColor" xmlns="http://www.w3.org/2000/svg">
<path d="M11 17.5H5C3.271 17.5 2.5 16.729 2.5 15V9.5H19.5V10C19.5 10.276 19.724 10.5 20 10.5C20.276 10.5 20.5 10.276 20.5 10V7C20.5 4.71 19.29 3.5 17 3.5H5C2.71 3.5 1.5 4.71 1.5 7V15C1.5 17.29 2.71 18.5 5 18.5H11C11.276 18.5 11.5 18.276 11.5 18C11.5 17.724 11.276 17.5 11 17.5ZM5 4.5H17C18.729 4.5 19.5 5.271 19.5 7V8.5H2.5V7C2.5 5.271 3.271 4.5 5 4.5ZM9 13.5C9.276 13.5 9.5 13.724 9.5 14C9.5 14.276 9.276 14.5 9 14.5H6C5.724 14.5 5.5 14.276 5.5 14C5.5 13.724 5.724 13.5 6 13.5H9ZM18 12.5C15.519 12.5 13.5 14.519 13.5 17C13.5 19.481 15.519 21.5 18 21.5C20.481 21.5 22.5 19.481 22.5 17C22.5 14.519 20.481 12.5 18 12.5ZM18 20.5C16.07 20.5 14.5 18.93 14.5 17C14.5 15.07 16.07 13.5 18 13.5C19.93 13.5 21.5 15.07 21.5 17C21.5 18.93 19.93 20.5 18 20.5ZM19.604 15.813C19.799 16.008 19.799 16.325 19.604 16.52L17.937 18.187C17.843 18.281 17.716 18.333 17.583 18.333C17.45 18.333 17.323 18.28 17.229 18.187L16.396 17.354C16.201 17.159 16.201 16.842 16.396 16.647C16.591 16.452 16.908 16.452 17.103 16.647L17.583 17.127L18.896 15.814C19.092 15.618 19.408 15.618 19.604 15.813Z" />
</svg>
