<svg viewBox="0 0 24 24" fill="currentColor" stroke="currentColor" xmlns="http://www.w3.org/2000/svg">
<path d="M11 17.5H5C3.271 17.5 2.5 16.729 2.5 15V9.5H19.5V10C19.5 10.276 19.724 10.5 20 10.5C20.276 10.5 20.5 10.276 20.5 10V7C20.5 4.71 19.29 3.5 17 3.5H5C2.71 3.5 1.5 4.71 1.5 7V15C1.5 17.29 2.71 18.5 5 18.5H11C11.276 18.5 11.5 18.276 11.5 18C11.5 17.724 11.276 17.5 11 17.5ZM2.5 7C2.5 5.271 3.271 4.5 5 4.5H17C18.729 4.5 19.5 5.271 19.5 7V8.5H2.5V7ZM9 13.5C9.276 13.5 9.5 13.724 9.5 14C9.5 14.276 9.276 14.5 9 14.5H6C5.724 14.5 5.5 14.276 5.5 14C5.5 13.724 5.724 13.5 6 13.5H9ZM22.093 13.897L21.103 12.907C20.841 12.645 20.492 12.5 20.121 12.5H20.12C19.748 12.5 19.399 12.646 19.137 12.909L13.646 18.425C13.553 18.518 13.5 18.645 13.5 18.778V21C13.5 21.276 13.724 21.5 14 21.5H16.222C16.354 21.5 16.481 21.448 16.575 21.354L22.092 15.863C22.355 15.6 22.5 15.252 22.501 14.88C22.5 14.509 22.356 14.16 22.093 13.897ZM16.016 20.5H14.5V18.984L18.33 15.137L19.863 16.67L16.016 20.5ZM21.386 15.155L20.572 15.965L19.035 14.428L19.845 13.615C19.918 13.541 20.016 13.5 20.12 13.5C20.224 13.5 20.321 13.541 20.395 13.614L21.385 14.604C21.459 14.678 21.499 14.775 21.499 14.879C21.5 14.984 21.459 15.082 21.386 15.155Z" />
</svg>
