<svg viewBox="0 0 24 24" fill="currentColor" stroke="currentColor" xmlns="http://www.w3.org/2000/svg">
<path d="M3.49701 11.16C3.46901 11.416 3.252 11.606 3 11.606C2.982 11.606 2.96401 11.605 2.94501 11.603C2.67101 11.573 2.47202 11.326 2.50202 11.052C2.85502 7.82 4.805 5.03703 7.719 3.60803C7.874 3.53203 8.05698 3.54096 8.20398 3.63196C8.34998 3.72296 8.43903 3.88303 8.43903 4.05603V7.10596C8.43903 7.38196 8.21503 7.60596 7.93903 7.60596C7.66303 7.60596 7.43903 7.38196 7.43903 7.10596V4.90198C5.23703 6.25998 3.78301 8.54503 3.49701 11.16ZM21.054 12.5081C20.778 12.4781 20.533 12.6761 20.503 12.951C20.217 15.5651 18.763 17.851 16.56 19.209V17.005C16.56 16.729 16.336 16.505 16.06 16.505C15.784 16.505 15.56 16.729 15.56 17.005V20.0551C15.56 20.2281 15.649 20.388 15.795 20.479C15.876 20.529 15.968 20.5551 16.06 20.5551C16.135 20.5551 16.21 20.538 16.28 20.504C19.194 19.074 21.144 16.291 21.497 13.059C21.527 12.785 21.329 12.5381 21.054 12.5081ZM10.5 8.5V4.5C10.5 3.229 11.229 2.5 12.5 2.5H18.5C19.771 2.5 20.5 3.229 20.5 4.5V8.5C20.5 9.771 19.771 10.5 18.5 10.5H12.5C11.229 10.5 10.5 9.771 10.5 8.5ZM19.5 8.5V6H11.5V8.5C11.5 9.22 11.78 9.5 12.5 9.5H18.5C19.22 9.5 19.5 9.22 19.5 8.5ZM11.5 4.5V5H19.5V4.5C19.5 3.78 19.22 3.5 18.5 3.5H12.5C11.78 3.5 11.5 3.78 11.5 4.5ZM14.5 7.5H13C12.724 7.5 12.5 7.724 12.5 8C12.5 8.276 12.724 8.5 13 8.5H14.5C14.776 8.5 15 8.276 15 8C15 7.724 14.776 7.5 14.5 7.5ZM13.5 15.5V19.5C13.5 20.771 12.771 21.5 11.5 21.5H5.5C4.229 21.5 3.5 20.771 3.5 19.5V15.5C3.5 14.229 4.229 13.5 5.5 13.5H11.5C12.771 13.5 13.5 14.229 13.5 15.5ZM4.5 15.5V16H12.5V15.5C12.5 14.78 12.22 14.5 11.5 14.5H5.5C4.78 14.5 4.5 14.78 4.5 15.5ZM12.5 19.5V17H4.5V19.5C4.5 20.22 4.78 20.5 5.5 20.5H11.5C12.22 20.5 12.5 20.22 12.5 19.5ZM7.5 18.5H6C5.724 18.5 5.5 18.724 5.5 19C5.5 19.276 5.724 19.5 6 19.5H7.5C7.776 19.5 8 19.276 8 19C8 18.724 7.776 18.5 7.5 18.5Z" />
</svg>
