<svg viewBox="0 0 24 24" fill="currentColor" stroke="currentColor" xmlns="http://www.w3.org/2000/svg">
<path d="M21.5 10V17.62C21.5 20.122 20.122 21.5 17.62 21.5H6.38C3.842 21.5 2.5 20.158 2.5 17.62V6.37C2.5 3.838 3.842 2.5 6.38 2.5H14C14.276 2.5 14.5 2.724 14.5 3C14.5 3.276 14.276 3.5 14 3.5H6.38C4.388 3.5 3.5 4.38499 3.5 6.37V17.62C3.5 19.612 4.388 20.5 6.38 20.5H17.62C19.585 20.5 20.5 19.585 20.5 17.62V10C20.5 9.724 20.724 9.5 21 9.5C21.276 9.5 21.5 9.724 21.5 10ZM18.646 7.35303C18.692 7.39903 18.748 7.43606 18.809 7.46106C18.87 7.48606 18.935 7.5 19 7.5C19.065 7.5 19.13 7.48706 19.191 7.46106C19.253 7.43606 19.308 7.39903 19.354 7.35303L21.353 5.35303C21.548 5.15803 21.548 4.841 21.353 4.646C21.158 4.451 20.841 4.451 20.646 4.646L19.5 5.79199V2C19.5 1.724 19.276 1.5 19 1.5C18.724 1.5 18.5 1.724 18.5 2V5.79297L17.354 4.64697C17.159 4.45197 16.842 4.45197 16.647 4.64697C16.452 4.84197 16.452 5.159 16.647 5.354L18.646 7.35303ZM11.65 8.61096H12.35C13.049 8.61096 13.636 9.13601 13.714 9.83301C13.745 10.108 13.998 10.303 14.267 10.274C14.541 10.243 14.739 9.99595 14.708 9.72095C14.578 8.56095 13.629 7.68395 12.478 7.62195V7C12.478 6.724 12.254 6.5 11.978 6.5C11.702 6.5 11.478 6.724 11.478 7V7.62903C10.252 7.71903 9.278 8.73403 9.278 9.98303C9.278 10.515 9.456 11.0329 9.778 11.4399C10.1 11.8549 10.559 12.155 11.074 12.285L12.683 12.6851C13.295 12.8401 13.722 13.388 13.722 14.017C13.722 14.382 13.579 14.725 13.319 14.986C13.059 15.247 12.715 15.389 12.35 15.389H11.65C10.951 15.389 10.364 14.864 10.286 14.167C10.255 13.893 10.005 13.697 9.733 13.726C9.459 13.757 9.26101 14.0041 9.29201 14.2791C9.42101 15.4241 10.347 16.291 11.478 16.374V17C11.478 17.276 11.702 17.5 11.978 17.5C12.254 17.5 12.478 17.276 12.478 17V16.376C13.061 16.345 13.608 16.111 14.026 15.692C14.475 15.243 14.722 14.648 14.722 14.016C14.722 12.929 13.984 11.982 12.926 11.714L11.317 11.314C11.02 11.239 10.754 11.065 10.565 10.822C10.38 10.588 10.278 10.2901 10.278 9.98206C10.278 9.22706 10.894 8.61096 11.65 8.61096Z" />
</svg>
