<svg viewBox="0 0 24 24" fill="currentColor" stroke="currentColor" xmlns="http://www.w3.org/2000/svg">
<path d="M16.5 15.63C16.5 16.66 16.096 17.631 15.363 18.363C14.631 19.096 13.66 19.5 12.63 19.5H12.46V21C12.46 21.276 12.236 21.5 11.96 21.5C11.684 21.5 11.46 21.276 11.46 21V19.5H11.37C9.397 19.5 7.744 18.02 7.523 16.056C7.492 15.782 7.69 15.5351 7.964 15.5031C8.234 15.4761 8.486 15.67 8.517 15.944C8.681 17.401 9.907 18.5 11.37 18.5H12.63C13.393 18.5 14.112 18.2 14.656 17.656C15.2 17.112 15.5 16.393 15.5 15.63C15.5 14.315 14.606 13.169 13.327 12.845L10.429 12.126C9.59 11.914 8.84 11.4239 8.315 10.7469C7.791 10.0829 7.5 9.23797 7.5 8.37097C7.5 6.23697 9.236 4.50098 11.37 4.50098H11.46V3.00098C11.46 2.72498 11.684 2.50098 11.96 2.50098C12.236 2.50098 12.46 2.72498 12.46 3.00098V4.50098H12.63C14.603 4.50098 16.256 5.98095 16.477 7.94495C16.508 8.21895 16.31 8.46605 16.036 8.49805C15.766 8.52805 15.515 8.33101 15.483 8.05701C15.319 6.60001 14.093 5.50098 12.63 5.50098H11.37C9.787 5.50098 8.5 6.78897 8.5 8.37097C8.5 9.01397 8.714 9.63898 9.10201 10.131C9.494 10.636 10.051 10.999 10.672 11.156L13.57 11.875C15.296 12.312 16.5 13.856 16.5 15.63Z" />
</svg>
