<svg viewBox="0 0 24 24" fill="currentColor" stroke="currentColor" xmlns="http://www.w3.org/2000/svg">
<path d="M22.29 9.90002C22.43 10.585 22.5 11.291 22.5 12C22.5 17.79 17.79 22.5 12 22.5C6.21 22.5 1.5 17.79 1.5 12C1.5 6.21 6.21 1.5 12 1.5C13.074 1.5 14.134 1.66303 15.15 1.98303C15.413 2.06603 15.56 2.34699 15.477 2.60999C15.394 2.87399 15.111 3.01901 14.85 2.93701C13.932 2.64701 12.973 2.5 12 2.5C6.762 2.5 2.5 6.762 2.5 12C2.5 17.238 6.762 21.5 12 21.5C17.238 21.5 21.5 17.238 21.5 12C21.5 11.358 21.436 10.719 21.31 10.1C21.255 9.82898 21.429 9.56499 21.7 9.51099C21.97 9.45599 22.235 9.62902 22.29 9.90002ZM11.978 17.5C12.254 17.5 12.478 17.276 12.478 17V16.376C13.061 16.345 13.608 16.111 14.026 15.692C14.475 15.243 14.722 14.648 14.722 14.016C14.722 12.929 13.984 11.982 12.926 11.714L11.317 11.314C11.02 11.239 10.754 11.065 10.565 10.822C10.38 10.588 10.278 10.2901 10.278 9.98206C10.278 9.22606 10.894 8.60999 11.65 8.60999H12.35C13.049 8.60999 13.636 9.13503 13.714 9.83203C13.745 10.107 13.997 10.3019 14.267 10.2729C14.541 10.2419 14.739 9.99497 14.708 9.71997C14.578 8.55997 13.629 7.68297 12.478 7.62097V7C12.478 6.724 12.254 6.5 11.978 6.5C11.702 6.5 11.478 6.724 11.478 7V7.62903C10.252 7.71903 9.278 8.73403 9.278 9.98303C9.278 10.515 9.456 11.0329 9.778 11.4399C10.1 11.8549 10.559 12.155 11.074 12.285L12.683 12.6851C13.295 12.8401 13.722 13.388 13.722 14.017C13.722 14.382 13.579 14.725 13.319 14.986C13.059 15.247 12.715 15.389 12.35 15.389H11.65C10.951 15.389 10.364 14.864 10.286 14.167C10.255 13.893 10.003 13.697 9.733 13.726C9.459 13.757 9.26101 14.0041 9.29201 14.2791C9.42101 15.4241 10.347 16.291 11.478 16.374V17C11.478 17.276 11.701 17.5 11.978 17.5ZM19.646 7.35303C19.692 7.39903 19.748 7.43606 19.809 7.46106C19.87 7.48606 19.935 7.5 20 7.5C20.065 7.5 20.13 7.48706 20.191 7.46106C20.253 7.43606 20.308 7.39903 20.354 7.35303L22.353 5.35303C22.548 5.15803 22.548 4.841 22.353 4.646C22.158 4.451 21.841 4.451 21.646 4.646L20.5 5.79199V2C20.5 1.724 20.276 1.5 20 1.5C19.724 1.5 19.5 1.724 19.5 2V5.79297L18.354 4.64697C18.159 4.45197 17.842 4.45197 17.647 4.64697C17.452 4.84197 17.452 5.159 17.647 5.354L19.646 7.35303Z" />
</svg>
