<svg viewBox="0 0 24 24" fill="currentColor" stroke="currentColor" xmlns="http://www.w3.org/2000/svg">
<path d="M16.646 4.35405C16.451 4.15905 16.451 3.84201 16.646 3.64701L18.645 1.64701C18.691 1.60101 18.747 1.56398 18.808 1.53898C18.93 1.48798 19.068 1.48798 19.19 1.53898C19.252 1.56398 19.307 1.60101 19.353 1.64701L21.352 3.64701C21.547 3.84201 21.547 4.15905 21.352 4.35405C21.254 4.45205 21.126 4.50004 20.998 4.50004C20.87 4.50004 20.742 4.45105 20.644 4.35405L19.498 3.20805V7.00004C19.498 7.27604 19.274 7.50004 18.998 7.50004C18.722 7.50004 18.498 7.27604 18.498 7.00004V3.20707L17.352 4.35307C17.158 4.54907 16.842 4.54905 16.646 4.35405ZM11.65 8.611H12.35C13.049 8.611 13.636 9.13605 13.714 9.83305C13.745 10.108 13.999 10.3031 14.267 10.2741C14.541 10.2431 14.739 9.99599 14.708 9.72099C14.577 8.55899 13.626 7.68099 12.472 7.62199V7.00004C12.472 6.72404 12.248 6.50004 11.972 6.50004C11.696 6.50004 11.472 6.72404 11.472 7.00004V7.62907C10.248 7.72207 9.27802 8.73607 9.27802 9.98307C9.27802 10.5151 9.45602 11.033 9.77802 11.44C10.1 11.855 10.559 12.1551 11.074 12.2851L12.683 12.6851C13.295 12.8401 13.722 13.388 13.722 14.017C13.722 14.382 13.579 14.725 13.319 14.986C13.059 15.247 12.715 15.3891 12.35 15.3891H11.65C10.951 15.3891 10.364 14.864 10.286 14.167C10.255 13.893 10.005 13.697 9.733 13.726C9.459 13.757 9.26099 14.0041 9.29199 14.2791C9.42099 15.4241 10.347 16.2911 11.478 16.3741V17C11.478 17.276 11.702 17.5 11.978 17.5C12.254 17.5 12.478 17.276 12.478 17V16.376C13.061 16.345 13.608 16.1111 14.026 15.6921C14.475 15.2431 14.722 14.648 14.722 14.016C14.722 12.929 13.984 11.982 12.926 11.714L11.317 11.314C11.02 11.239 10.754 11.0651 10.565 10.8221C10.38 10.5881 10.278 10.2901 10.278 9.9821C10.278 9.2271 10.894 8.611 11.65 8.611ZM21 9.50004C20.724 9.50004 20.5 9.72404 20.5 10V17.62C20.5 19.585 19.585 20.5 17.62 20.5H6.38C4.388 20.5 3.5 19.612 3.5 17.62V6.37004C3.5 4.38504 4.388 3.50004 6.38 3.50004H14C14.276 3.50004 14.5 3.27604 14.5 3.00004C14.5 2.72404 14.276 2.50004 14 2.50004H6.38C3.842 2.50004 2.5 3.83804 2.5 6.37004V17.62C2.5 20.158 3.842 21.5 6.38 21.5H17.62C20.122 21.5 21.5 20.122 21.5 17.62V10C21.5 9.72404 21.276 9.50004 21 9.50004Z" />
</svg>
