<svg viewBox="0 0 24 24" fill="currentColor" stroke="currentColor" xmlns="http://www.w3.org/2000/svg">
<path d="M17.625 2.5H6.375C3.84 2.5 2.5 3.84 2.5 6.375V17.625C2.5 20.16 3.84 21.5 6.375 21.5H17.625C20.124 21.5 21.5 20.124 21.5 17.625V6.375C21.5 3.876 20.124 2.5 17.625 2.5ZM20.5 17.625C20.5 19.586 19.586 20.5 17.625 20.5H6.375C4.387 20.5 3.5 19.613 3.5 17.625V6.375C3.5 4.387 4.387 3.5 6.375 3.5H17.625C19.586 3.5 20.5 4.414 20.5 6.375V17.625ZM14.722 14.017C14.722 14.649 14.475 15.244 14.026 15.693C13.608 16.111 13.061 16.345 12.478 16.377V17C12.478 17.276 12.254 17.5 11.978 17.5C11.702 17.5 11.478 17.276 11.478 17V16.373C10.347 16.29 9.42099 15.423 9.29199 14.278C9.26099 14.004 9.45897 13.757 9.73297 13.725C10.008 13.696 10.255 13.892 10.286 14.166C10.364 14.863 10.951 15.3879 11.65 15.3879H12.35C12.715 15.3879 13.058 15.245 13.319 14.985C13.58 14.725 13.722 14.381 13.722 14.016C13.722 13.387 13.295 12.839 12.683 12.684L11.074 12.2841C10.559 12.1541 10.099 11.853 9.77802 11.439C9.45702 11.032 9.27802 10.5141 9.27802 9.98206C9.27802 8.73306 10.251 7.71705 11.478 7.62805V7C11.478 6.724 11.702 6.5 11.978 6.5C12.254 6.5 12.478 6.724 12.478 7V7.62305C13.629 7.68505 14.578 8.56105 14.708 9.72205C14.739 9.99605 14.541 10.243 14.267 10.275C14.002 10.303 13.745 10.108 13.714 9.83398C13.636 9.13698 13.049 8.61206 12.35 8.61206H11.65C10.894 8.61206 10.278 9.22801 10.278 9.98401C10.278 10.292 10.38 10.59 10.565 10.824C10.754 11.067 11.02 11.241 11.317 11.316L12.926 11.7159C13.984 11.9829 14.722 12.929 14.722 14.017Z" />
</svg>
