<svg viewBox="0 0 24 24" fill="currentColor" stroke="currentColor" xmlns="http://www.w3.org/2000/svg">
<path d="M17.625 2.5H6.375C3.84 2.5 2.5 3.84 2.5 6.375V17.625C2.5 20.16 3.84 21.5 6.375 21.5H17.625C20.16 21.5 21.5 20.16 21.5 17.625V6.375C21.5 3.84 20.16 2.5 17.625 2.5ZM20.5 17.625C20.5 19.586 19.587 20.5 17.625 20.5H6.375C4.413 20.5 3.5 19.586 3.5 17.625V6.375C3.5 4.414 4.413 3.5 6.375 3.5H17.625C19.587 3.5 20.5 4.414 20.5 6.375V17.625ZM16.495 12.681C16.496 12.627 16.493 12.571 16.475 12.516C16.468 12.496 16.454 12.482 16.445 12.464C16.44 12.454 16.443 12.443 16.438 12.433L12.917 6.04102C12.55 5.37202 11.45 5.37202 11.083 6.04102L7.56201 12.433C7.55701 12.443 7.55899 12.454 7.55499 12.464C7.54599 12.482 7.53202 12.496 7.52502 12.516C7.50702 12.571 7.504 12.626 7.505 12.681C7.505 12.69 7.50101 12.6971 7.50201 12.7061C7.50701 12.7891 7.53699 12.8651 7.58099 12.9351C7.58599 12.9431 7.58403 12.9531 7.59003 12.9611L11.142 18.051C11.336 18.332 11.658 18.5 12 18.5C12.342 18.5 12.664 18.333 12.858 18.052L16.41 12.9611C16.415 12.9531 16.414 12.9431 16.419 12.9351C16.462 12.8651 16.492 12.7891 16.498 12.7061C16.498 12.6971 16.495 12.69 16.495 12.681ZM12.042 6.52405L15.272 12.39L12 13.481L8.73297 12.392L12.042 6.52405ZM11.962 17.48L9.27301 13.626L11.842 14.4821C11.894 14.4991 11.946 14.5081 12 14.5081C12.054 14.5081 12.106 14.4991 12.158 14.4821L14.702 13.634L11.962 17.48Z" />
</svg>
