<svg viewBox="0 0 24 24" fill="currentColor" stroke="currentColor" xmlns="http://www.w3.org/2000/svg">
<path d="M18.499 13.04C18.499 13.037 18.498 13.033 18.498 13.03C18.501 12.95 18.48 12.874 18.446 12.802C18.441 12.792 18.444 12.781 18.439 12.771L13.158 3.18396C12.926 2.76196 12.483 2.5 12.001 2.5C11.519 2.5 11.077 2.76196 10.844 3.18396L5.56299 12.771C5.55799 12.781 5.56 12.792 5.556 12.802C5.522 12.874 5.501 12.95 5.504 13.03C5.504 13.034 5.502 13.037 5.503 13.04C5.503 13.043 5.503 13.045 5.504 13.048C5.508 13.105 5.52601 13.16 5.54801 13.212C5.55101 13.22 5.55099 13.228 5.55399 13.236C5.55599 13.24 5.56002 13.242 5.56202 13.246C5.56702 13.256 5.57601 13.263 5.58201 13.272C5.58701 13.28 5.58601 13.29 5.59101 13.298L10.918 20.934C11.165 21.288 11.569 21.499 12.001 21.499C12.433 21.499 12.837 21.288 13.084 20.934L18.411 13.297C18.416 13.289 18.415 13.279 18.42 13.271C18.428 13.258 18.441 13.249 18.447 13.236C18.447 13.236 18.448 13.236 18.448 13.235C18.452 13.227 18.451 13.2191 18.454 13.2111C18.477 13.1591 18.494 13.105 18.498 13.047C18.498 13.046 18.499 13.043 18.499 13.04ZM11.719 3.66602C11.802 3.51602 11.943 3.5 12 3.5C12.057 3.5 12.198 3.51602 12.281 3.66602L16.788 11.847L12.224 9.56494C12.083 9.49494 11.917 9.49494 11.777 9.56494L7.21302 11.847L11.719 3.66602ZM16.697 12.92L12 14.486L7.30301 12.92L12 10.572L16.697 12.92ZM12.263 20.363C12.177 20.487 12.051 20.5 12 20.5C11.949 20.5 11.824 20.487 11.737 20.363L7.27301 13.964L11.841 15.4871C11.892 15.5041 11.946 15.5129 11.999 15.5129C12.052 15.5129 12.106 15.5041 12.157 15.4871L16.726 13.964L12.263 20.363Z" />
</svg>
