<svg viewBox="0 0 24 24" fill="currentColor" stroke="currentColor" xmlns="http://www.w3.org/2000/svg">
<path d="M12 1.5C6.21 1.5 1.5 6.21 1.5 12C1.5 17.79 6.21 22.5 12 22.5C17.79 22.5 22.5 17.79 22.5 12C22.5 6.21 17.79 1.5 12 1.5ZM12 21.5C6.762 21.5 2.5 17.238 2.5 12C2.5 6.762 6.762 2.5 12 2.5C17.238 2.5 21.5 6.762 21.5 12C21.5 17.238 17.238 21.5 12 21.5ZM16.494 12.678C16.494 12.625 16.492 12.571 16.474 12.517C16.468 12.498 16.454 12.485 16.445 12.467C16.44 12.456 16.443 12.444 16.437 12.434L12.916 6.04199C12.548 5.37299 11.45 5.37299 11.082 6.04199L7.56097 12.434C7.55497 12.444 7.55798 12.456 7.55298 12.467C7.54498 12.485 7.53099 12.498 7.52399 12.517C7.50599 12.571 7.50403 12.625 7.50403 12.678C7.50403 12.688 7.5 12.697 7.5 12.707C7.505 12.79 7.535 12.8661 7.578 12.9351C7.583 12.9431 7.58197 12.9531 7.58698 12.9611L11.138 18.052C11.334 18.332 11.655 18.5 11.997 18.5C12.339 18.5 12.66 18.333 12.856 18.052L16.407 12.9611C16.412 12.9531 16.411 12.9431 16.416 12.9351C16.459 12.8661 16.489 12.789 16.494 12.707C16.498 12.697 16.494 12.688 16.494 12.678ZM12.041 6.52405L15.272 12.39L12 13.481L8.73297 12.392L12.041 6.52405ZM11.961 17.48L9.27301 13.626L11.842 14.4821C11.893 14.4991 11.947 14.5081 12 14.5081C12.053 14.5081 12.107 14.4991 12.158 14.4821L14.702 13.634L11.961 17.48Z" />
</svg>
