<svg viewBox="0 0 24 24" fill="currentColor" stroke="currentColor" xmlns="http://www.w3.org/2000/svg">
<path d="M12 1.5C6.21 1.5 1.5 6.21 1.5 12C1.5 17.79 6.21 22.5 12 22.5C17.79 22.5 22.5 17.79 22.5 12C22.5 6.21 17.79 1.5 12 1.5ZM12 21.5C6.762 21.5 2.5 17.238 2.5 12C2.5 6.762 6.762 2.5 12 2.5C17.238 2.5 21.5 6.762 21.5 12C21.5 17.238 17.238 21.5 12 21.5ZM15.401 15.9871C15.504 16.2431 15.38 16.534 15.124 16.637C14.526 16.877 13.895 16.999 13.25 16.999C11.065 16.999 9.22301 15.581 8.54401 13.624H7.06201C6.78601 13.624 6.56201 13.4 6.56201 13.124C6.56201 12.848 6.78601 12.624 7.06201 12.624H8.31299C8.28699 12.417 8.25 12.213 8.25 11.999C8.25 11.785 8.28699 11.581 8.31299 11.374H7.06201C6.78601 11.374 6.56201 11.15 6.56201 10.874C6.56201 10.598 6.78601 10.374 7.06201 10.374H8.54401C9.22301 8.41702 11.065 6.99902 13.25 6.99902C13.902 6.99902 14.534 7.12402 15.128 7.36902C15.383 7.47402 15.504 7.76597 15.399 8.02197C15.294 8.27797 15 8.39797 14.746 8.29297C14.274 8.09797 13.77 7.99902 13.249 7.99902C11.623 7.99902 10.226 8.97802 9.60199 10.374H12.687C12.963 10.374 13.187 10.598 13.187 10.874C13.187 11.15 12.963 11.374 12.687 11.374H9.31299C9.27999 11.579 9.25 11.785 9.25 11.999C9.25 12.213 9.28099 12.419 9.31299 12.624H12.687C12.963 12.624 13.187 12.848 13.187 13.124C13.187 13.4 12.963 13.624 12.687 13.624H9.60199C10.227 15.02 11.623 15.999 13.249 15.999C13.766 15.999 14.271 15.901 14.75 15.709C15.006 15.608 15.299 15.7311 15.401 15.9871Z" />
</svg>
