<svg viewBox="0 0 24 24" fill="currentColor" stroke="currentColor" xmlns="http://www.w3.org/2000/svg">
<path d="M17.625 2.5H6.375C3.84 2.5 2.5 3.84 2.5 6.375V17.625C2.5 20.16 3.84 21.5 6.375 21.5H17.625C20.16 21.5 21.5 20.16 21.5 17.625V6.375C21.5 3.84 20.16 2.5 17.625 2.5ZM20.5 17.625C20.5 19.586 19.586 20.5 17.625 20.5H6.375C4.414 20.5 3.5 19.586 3.5 17.625V6.375C3.5 4.414 4.414 3.5 6.375 3.5H17.625C19.586 3.5 20.5 4.414 20.5 6.375V17.625ZM15.901 15.9871C16.004 16.2431 15.88 16.534 15.624 16.637C15.026 16.877 14.395 16.999 13.75 16.999C11.565 16.999 9.72301 15.581 9.04401 13.624H7.56201C7.28601 13.624 7.06201 13.4 7.06201 13.124C7.06201 12.848 7.28601 12.624 7.56201 12.624H8.81299C8.78699 12.417 8.75 12.213 8.75 11.999C8.75 11.785 8.78699 11.581 8.81299 11.374H7.56201C7.28601 11.374 7.06201 11.15 7.06201 10.874C7.06201 10.598 7.28601 10.374 7.56201 10.374H9.04401C9.72301 8.41702 11.565 6.99902 13.75 6.99902C14.402 6.99902 15.034 7.12402 15.628 7.36902C15.883 7.47402 16.004 7.76597 15.899 8.02197C15.794 8.27797 15.502 8.39797 15.246 8.29297C14.774 8.09797 14.27 7.99902 13.749 7.99902C12.123 7.99902 10.726 8.97802 10.102 10.374H13.187C13.463 10.374 13.687 10.598 13.687 10.874C13.687 11.15 13.463 11.374 13.187 11.374H9.81299C9.77999 11.579 9.75 11.785 9.75 11.999C9.75 12.213 9.78099 12.419 9.81299 12.624H13.187C13.463 12.624 13.687 12.848 13.687 13.124C13.687 13.4 13.463 13.624 13.187 13.624H10.102C10.727 15.02 12.123 15.999 13.749 15.999C14.266 15.999 14.771 15.901 15.25 15.709C15.505 15.608 15.798 15.7311 15.901 15.9871Z" />
</svg>
