<svg viewBox="0 0 24 24" fill="currentColor" stroke="currentColor" xmlns="http://www.w3.org/2000/svg">
<path d="M19.464 19.233C19.36 18.976 19.068 18.8541 18.814 18.9561C17.917 19.3171 16.97 19.5 16.001 19.5C12.743 19.5 9.971 17.408 8.939 14.5H15C15.276 14.5 15.5 14.276 15.5 14C15.5 13.724 15.276 13.5 15 13.5H8.651C8.552 13.015 8.5 12.514 8.5 12C8.5 11.486 8.552 10.985 8.651 10.5H15C15.276 10.5 15.5 10.276 15.5 10C15.5 9.724 15.276 9.5 15 9.5H8.938C9.971 6.592 12.742 4.5 16 4.5C16.977 4.5 17.922 4.686 18.809 5.052C19.064 5.157 19.357 5.03701 19.462 4.78101C19.567 4.52601 19.446 4.23305 19.191 4.12805C18.182 3.71105 17.109 3.5 16 3.5C12.183 3.5 8.94601 6.03 7.87601 9.5H5C4.724 9.5 4.5 9.724 4.5 10C4.5 10.276 4.724 10.5 5 10.5H7.64101C7.55401 10.988 7.5 11.487 7.5 12C7.5 12.513 7.55301 13.012 7.64101 13.5H5C4.724 13.5 4.5 13.724 4.5 14C4.5 14.276 4.724 14.5 5 14.5H7.87601C8.94601 17.97 12.183 20.5 16 20.5C17.098 20.5 18.17 20.292 19.187 19.884C19.443 19.781 19.567 19.489 19.464 19.233Z" />
</svg>
