<svg viewBox="0 0 24 24" fill="currentColor" stroke="currentColor" xmlns="http://www.w3.org/2000/svg">
<path d="M20.569 15.761C19.985 15.43 19.294 15.4391 18.721 15.7841L16.467 17.136C16.296 16.206 15.479 15.499 14.5 15.499H9C8.327 15.499 7.717 15.77 7.267 16.204C7.001 15.782 6.535 15.499 6 15.499H4C3.173 15.499 2.5 16.172 2.5 16.999V20.999C2.5 21.826 3.173 22.499 4 22.499H6C6.534 22.499 7.001 22.2159 7.267 21.7939C7.717 22.2289 8.327 22.499 9 22.499H14.597C15.615 22.499 16.613 22.1489 17.409 21.5129L20.812 18.79C21.25 18.44 21.5 17.9171 21.5 17.3571C21.5 16.6881 21.152 16.091 20.569 15.761ZM6.5 21C6.5 21.276 6.276 21.5 6 21.5H4C3.724 21.5 3.5 21.276 3.5 21V17C3.5 16.724 3.724 16.5 4 16.5H6C6.276 16.5 6.5 16.724 6.5 17V18V20V21ZM20.187 18.01L16.784 20.733C16.166 21.228 15.389 21.5 14.597 21.5H9C8.173 21.5 7.5 20.827 7.5 20V18C7.5 17.173 8.173 16.5 9 16.5H14.5C15.051 16.5 15.5 16.949 15.5 17.5C15.5 18.051 15.051 18.5 14.5 18.5H11C10.724 18.5 10.5 18.724 10.5 19C10.5 19.276 10.724 19.5 11 19.5H14.5C15.272 19.5 15.944 19.06 16.277 18.417L19.235 16.642C19.496 16.484 19.811 16.481 20.076 16.631C20.341 16.781 20.5 17.053 20.5 17.358C20.5 17.613 20.386 17.851 20.187 18.01ZM12 13.5C15.309 13.5 18 10.809 18 7.5C18 4.191 15.309 1.5 12 1.5C8.691 1.5 6 4.191 6 7.5C6 10.809 8.691 13.5 12 13.5ZM12 2.5C14.757 2.5 17 4.743 17 7.5C17 10.257 14.757 12.5 12 12.5C9.243 12.5 7 10.257 7 7.5C7 4.743 9.243 2.5 12 2.5ZM10.366 7.19397C10.131 6.88397 10 6.48999 10 6.08899C10 5.18899 10.645 4.44601 11.485 4.30701V4C11.485 3.724 11.709 3.5 11.985 3.5C12.261 3.5 12.485 3.724 12.485 4V4.302C13.271 4.417 13.9 5.05799 13.99 5.89099C14.02 6.16499 13.822 6.41202 13.547 6.44202C13.277 6.47002 13.026 6.27302 12.996 5.99902C12.952 5.58802 12.625 5.27905 12.237 5.27905H11.764C11.343 5.27905 11 5.64297 11 6.08997C11 6.27497 11.058 6.45304 11.164 6.59204C11.272 6.73604 11.416 6.83395 11.583 6.87695L12.668 7.15698C13.453 7.36298 14 8.08496 14 8.91296C14 9.39196 13.818 9.84406 13.489 10.1851C13.213 10.4701 12.862 10.643 12.485 10.698V11C12.485 11.276 12.261 11.5 11.985 11.5C11.709 11.5 11.485 11.276 11.485 11V10.6949C10.713 10.5689 10.099 9.93101 10.01 9.10901C9.98001 8.83501 10.178 8.58798 10.453 8.55798C10.722 8.52698 10.974 8.72598 11.004 9.00098C11.048 9.41198 11.375 9.72095 11.763 9.72095H12.236C12.435 9.72095 12.624 9.63801 12.769 9.48901C12.917 9.33501 12.999 9.12901 12.999 8.91101C12.999 8.53701 12.759 8.21305 12.416 8.12305L11.331 7.84302C10.948 7.74402 10.605 7.51297 10.366 7.19397Z" />
</svg>
