<svg viewBox="0 0 24 24" fill="currentColor" stroke="currentColor" xmlns="http://www.w3.org/2000/svg">
<path d="M20.569 14.761C19.985 14.43 19.294 14.4391 18.721 14.7841L16.467 16.136C16.296 15.206 15.479 14.499 14.5 14.499H9C8.327 14.499 7.717 14.77 7.267 15.204C7.001 14.782 6.535 14.499 6 14.499H4C3.173 14.499 2.5 15.172 2.5 15.999V19.999C2.5 20.826 3.173 21.499 4 21.499H6C6.534 21.499 7.001 21.2159 7.267 20.7939C7.717 21.2289 8.327 21.499 9 21.499H14.597C15.615 21.499 16.613 21.1489 17.409 20.5129L20.812 17.79C21.25 17.44 21.5 16.9171 21.5 16.3571C21.5 15.6881 21.152 15.091 20.569 14.761ZM6.5 20C6.5 20.276 6.276 20.5 6 20.5H4C3.724 20.5 3.5 20.276 3.5 20V16C3.5 15.724 3.724 15.5 4 15.5H6C6.276 15.5 6.5 15.724 6.5 16V17V19V20ZM20.187 17.01L16.784 19.733C16.166 20.228 15.389 20.5 14.597 20.5H9C8.173 20.5 7.5 19.827 7.5 19V17C7.5 16.173 8.173 15.5 9 15.5H14.5C15.051 15.5 15.5 15.949 15.5 16.5C15.5 17.051 15.051 17.5 14.5 17.5H11C10.724 17.5 10.5 17.724 10.5 18C10.5 18.276 10.724 18.5 11 18.5H14.5C15.272 18.5 15.944 18.06 16.277 17.417L19.235 15.642C19.496 15.485 19.811 15.481 20.076 15.631C20.341 15.781 20.5 16.053 20.5 16.358C20.5 16.613 20.386 16.851 20.187 17.01ZM9.95999 7.02698C9.66399 6.65198 9.5 6.17406 9.5 5.68506C9.5 4.55006 10.372 3.626 11.48 3.521V3C11.48 2.724 11.704 2.5 11.98 2.5C12.256 2.5 12.48 2.724 12.48 3V3.51501C13.518 3.59401 14.369 4.39199 14.487 5.44299C14.518 5.71699 14.32 5.96497 14.046 5.99597C13.77 6.02197 13.524 5.82905 13.493 5.55505C13.426 4.95305 12.919 4.49902 12.315 4.49902H11.685C11.032 4.49902 10.5 5.03096 10.5 5.68396C10.5 5.94996 10.588 6.20703 10.748 6.41003C10.911 6.62003 11.141 6.76898 11.398 6.83398L12.846 7.19397C13.821 7.44097 14.5 8.31296 14.5 9.31396C14.5 9.89697 14.272 10.444 13.858 10.858C13.485 11.231 13 11.444 12.48 11.483V12C12.48 12.276 12.256 12.5 11.98 12.5C11.704 12.5 11.48 12.276 11.48 12V11.481C10.46 11.385 9.63 10.595 9.513 9.55603C9.482 9.28203 9.68001 9.03405 9.95401 9.00305C10.231 8.97405 10.476 9.16997 10.507 9.44397C10.574 10.046 11.081 10.5 11.685 10.5H12.315C12.63 10.5 12.927 10.376 13.151 10.151C13.377 9.926 13.5 9.62994 13.5 9.31494C13.5 8.77194 13.131 8.29904 12.603 8.16504L11.155 7.80505C10.681 7.68605 10.257 7.40898 9.95999 7.02698Z" />
</svg>
