<svg viewBox="0 0 24 24" fill="currentColor" stroke="currentColor" xmlns="http://www.w3.org/2000/svg">
<path d="M13.5 14C13.5 14.276 13.276 14.5 13 14.5H7C6.724 14.5 6.5 14.276 6.5 14C6.5 13.724 6.724 13.5 7 13.5H13C13.276 13.5 13.5 13.724 13.5 14ZM10 16.5H7C6.724 16.5 6.5 16.724 6.5 17C6.5 17.276 6.724 17.5 7 17.5H10C10.276 17.5 10.5 17.276 10.5 17C10.5 16.724 10.276 16.5 10 16.5ZM21.5 11.5V19C21.5 20.378 20.378 21.5 19 21.5H6C3.71 21.5 2.5 20.29 2.5 18V6C2.5 3.71 3.71 2.5 6 2.5H14C16.29 2.5 17.5 3.71 17.5 6V9.5H19.5C20.603 9.5 21.5 10.397 21.5 11.5ZM17.001 20.5C16.687 20.082 16.5 19.562 16.5 19V6C16.5 4.271 15.729 3.5 14 3.5H6C4.271 3.5 3.5 4.271 3.5 6V18C3.5 19.729 4.271 20.5 6 20.5H17.001ZM20.5 11.5C20.5 10.949 20.051 10.5 19.5 10.5H17.5V19C17.5 19.827 18.173 20.5 19 20.5C19.827 20.5 20.5 19.827 20.5 19V11.5ZM7.69501 8.86401L8.625 9.10303C8.888 9.17203 9.07098 9.42098 9.07098 9.70898C9.07098 9.87698 9.00798 10.036 8.89398 10.155C8.78298 10.27 8.63898 10.333 8.48798 10.333H8.08301C7.78701 10.333 7.53799 10.0951 7.50299 9.77905C7.47299 9.50405 7.22303 9.30706 6.95203 9.33606C6.67703 9.36606 6.47897 9.61196 6.50897 9.88696C6.58697 10.603 7.10801 11.165 7.77301 11.301V11.5C7.77301 11.776 7.99701 12 8.27301 12C8.54901 12 8.77301 11.776 8.77301 11.5V11.3051C9.08901 11.2461 9.38101 11.091 9.61401 10.85C9.90901 10.543 10.072 10.138 10.072 9.70996C10.072 8.96796 9.58199 8.32099 8.87799 8.13599L7.94702 7.896C7.82002 7.863 7.71001 7.788 7.62701 7.677C7.54601 7.57 7.50098 7.43304 7.50098 7.29004C7.50098 6.94604 7.76298 6.66602 8.08398 6.66602H8.48901C8.78501 6.66602 9.03397 6.90397 9.06897 7.21997C9.09897 7.49397 9.348 7.69096 9.62 7.66296C9.895 7.63296 10.093 7.38706 10.063 7.11206C9.98399 6.38606 9.45099 5.81899 8.77399 5.69299V5.49902C8.77399 5.22302 8.54999 4.99902 8.27399 4.99902C7.99799 4.99902 7.77399 5.22302 7.77399 5.49902V5.698C7.04899 5.846 6.50098 6.50294 6.50098 7.28894C6.50098 7.64894 6.61798 8.00205 6.82898 8.27905C7.04298 8.56705 7.35101 8.77401 7.69501 8.86401Z" />
</svg>
