<svg viewBox="0 0 24 24" fill="currentColor" stroke="currentColor" xmlns="http://www.w3.org/2000/svg">
<path d="M3.49701 11.104C3.46901 11.36 3.252 11.55 3 11.55C2.982 11.55 2.96401 11.549 2.94501 11.547C2.67101 11.517 2.47202 11.27 2.50202 10.996C2.85502 7.76397 4.805 4.981 7.719 3.552C7.874 3.476 8.05598 3.48505 8.20398 3.57605C8.34998 3.66705 8.43903 3.827 8.43903 4V7.05005C8.43903 7.32605 8.21503 7.55005 7.93903 7.55005C7.66303 7.55005 7.43903 7.32605 7.43903 7.05005V4.84595C5.23703 6.20395 3.78301 8.49 3.49701 11.104ZM21.054 12.453C20.774 12.424 20.533 12.621 20.503 12.896C20.217 15.51 18.763 17.7961 16.56 19.1541V16.95C16.56 16.674 16.336 16.45 16.06 16.45C15.784 16.45 15.56 16.674 15.56 16.95V20C15.56 20.173 15.649 20.333 15.795 20.424C15.876 20.4739 15.968 20.5 16.06 20.5C16.135 20.5 16.21 20.483 16.28 20.449C19.194 19.02 21.144 16.237 21.497 13.005C21.527 12.73 21.329 12.483 21.054 12.453ZM10.5 8.5V4.5C10.5 3.229 11.229 2.5 12.5 2.5H18.5C19.771 2.5 20.5 3.229 20.5 4.5V8.5C20.5 9.771 19.771 10.5 18.5 10.5H12.5C11.229 10.5 10.5 9.771 10.5 8.5ZM11.5 8.5C11.5 9.22 11.78 9.5 12.5 9.5H18.5C19.22 9.5 19.5 9.22 19.5 8.5V4.5C19.5 3.78 19.22 3.5 18.5 3.5H12.5C11.78 3.5 11.5 3.78 11.5 4.5V8.5ZM13.5 15.5V19.5C13.5 20.771 12.771 21.5 11.5 21.5H5.5C4.229 21.5 3.5 20.771 3.5 19.5V15.5C3.5 14.229 4.229 13.5 5.5 13.5H11.5C12.771 13.5 13.5 14.229 13.5 15.5ZM12.5 15.5C12.5 14.78 12.22 14.5 11.5 14.5H5.5C4.78 14.5 4.5 14.78 4.5 15.5V19.5C4.5 20.22 4.78 20.5 5.5 20.5H11.5C12.22 20.5 12.5 20.22 12.5 19.5V15.5ZM15.5 7.37C16.052 7.37 16.5 6.922 16.5 6.37C16.5 5.818 16.052 5.37 15.5 5.37C14.948 5.37 14.5 5.818 14.5 6.37C14.5 6.922 14.948 7.37 15.5 7.37ZM8.5 16.376C7.948 16.376 7.5 16.824 7.5 17.376C7.5 17.928 7.948 18.376 8.5 18.376C9.052 18.376 9.5 17.928 9.5 17.376C9.5 16.824 9.052 16.376 8.5 16.376Z" />
</svg>
