<svg viewBox="0 0 24 24" fill="currentColor" stroke="currentColor" xmlns="http://www.w3.org/2000/svg">
<path d="M12 8.5C10.07 8.5 8.5 10.07 8.5 12C8.5 13.93 10.07 15.5 12 15.5C13.93 15.5 15.5 13.93 15.5 12C15.5 10.07 13.93 8.5 12 8.5ZM12 14.5C10.622 14.5 9.5 13.378 9.5 12C9.5 10.622 10.622 9.5 12 9.5C13.378 9.5 14.5 10.622 14.5 12C14.5 13.378 13.378 14.5 12 14.5ZM18 4.5H6C3.71 4.5 2.5 5.71 2.5 8V16C2.5 18.29 3.71 19.5 6 19.5H18C20.29 19.5 21.5 18.29 21.5 16V8C21.5 5.71 20.29 4.5 18 4.5ZM20.5 16C20.5 17.729 19.729 18.5 18 18.5H6C4.271 18.5 3.5 17.729 3.5 16V8C3.5 6.271 4.271 5.5 6 5.5H18C19.729 5.5 20.5 6.271 20.5 8V16ZM6.75 12C6.75 12.414 6.414 12.75 6 12.75C5.586 12.75 5.25 12.414 5.25 12C5.25 11.586 5.586 11.25 6 11.25C6.414 11.25 6.75 11.586 6.75 12ZM18.75 12C18.75 12.414 18.414 12.75 18 12.75C17.586 12.75 17.25 12.414 17.25 12C17.25 11.586 17.586 11.25 18 11.25C18.414 11.25 18.75 11.586 18.75 12Z" />
</svg>
