<svg viewBox="0 0 24 24" fill="currentColor" stroke="currentColor" xmlns="http://www.w3.org/2000/svg">
<path d="M11.5 18C11.5 18.276 11.276 18.5 11 18.5H5C2.71 18.5 1.5 17.29 1.5 15V7C1.5 4.71 2.71 3.5 5 3.5H17C19.29 3.5 20.5 4.71 20.5 7V10C20.5 10.276 20.276 10.5 20 10.5C19.724 10.5 19.5 10.276 19.5 10V7C19.5 5.271 18.729 4.5 17 4.5H5C3.271 4.5 2.5 5.271 2.5 7V15C2.5 16.729 3.271 17.5 5 17.5H11C11.276 17.5 11.5 17.724 11.5 18ZM4.25 11.007C4.25 11.421 4.586 11.757 5 11.757C5.414 11.757 5.75 11.421 5.75 11.007C5.75 10.593 5.414 10.257 5 10.257C4.586 10.257 4.25 10.593 4.25 11.007ZM14.5 11C14.5 12.93 12.93 14.5 11 14.5C9.07 14.5 7.5 12.93 7.5 11C7.5 9.07 9.07 7.5 11 7.5C12.93 7.5 14.5 9.07 14.5 11ZM13.5 11C13.5 9.622 12.378 8.5 11 8.5C9.622 8.5 8.5 9.622 8.5 11C8.5 12.378 9.622 13.5 11 13.5C12.378 13.5 13.5 12.378 13.5 11ZM19.25 16.5H18.5V15.75C18.5 15.474 18.276 15.25 18 15.25C17.724 15.25 17.5 15.474 17.5 15.75V16.5H16.75C16.474 16.5 16.25 16.724 16.25 17C16.25 17.276 16.474 17.5 16.75 17.5H17.5V18.25C17.5 18.526 17.724 18.75 18 18.75C18.276 18.75 18.5 18.526 18.5 18.25V17.5H19.25C19.526 17.5 19.75 17.276 19.75 17C19.75 16.724 19.526 16.5 19.25 16.5ZM22.5 17C22.5 19.481 20.481 21.5 18 21.5C15.519 21.5 13.5 19.481 13.5 17C13.5 14.519 15.519 12.5 18 12.5C20.481 12.5 22.5 14.519 22.5 17ZM21.5 17C21.5 15.07 19.93 13.5 18 13.5C16.07 13.5 14.5 15.07 14.5 17C14.5 18.93 16.07 20.5 18 20.5C19.93 20.5 21.5 18.93 21.5 17Z" />
</svg>
