<svg viewBox="0 0 24 24" fill="currentColor" stroke="currentColor" xmlns="http://www.w3.org/2000/svg">
<path d="M21.5 7V12C21.5 12.276 21.276 12.5 21 12.5C20.724 12.5 20.5 12.276 20.5 12V7C20.5 5.271 19.729 4.5 18 4.5H6C4.271 4.5 3.5 5.271 3.5 7V15C3.5 16.729 4.271 17.5 6 17.5H14C14.276 17.5 14.5 17.724 14.5 18C14.5 18.276 14.276 18.5 14 18.5H6C3.71 18.5 2.5 17.29 2.5 15V7C2.5 4.71 3.71 3.5 6 3.5H18C20.29 3.5 21.5 4.71 21.5 7ZM5.25 11.007C5.25 11.421 5.586 11.757 6 11.757C6.414 11.757 6.75 11.421 6.75 11.007C6.75 10.593 6.414 10.257 6 10.257C5.586 10.257 5.25 10.593 5.25 11.007ZM12 7.5C13.93 7.5 15.5 9.07 15.5 11C15.5 12.93 13.93 14.5 12 14.5C10.07 14.5 8.5 12.93 8.5 11C8.5 9.07 10.07 7.5 12 7.5ZM12 8.5C10.622 8.5 9.5 9.622 9.5 11C9.5 12.378 10.622 13.5 12 13.5C13.378 13.5 14.5 12.378 14.5 11C14.5 9.622 13.378 8.5 12 8.5ZM20.646 17.646L19.5 18.792V15C19.5 14.724 19.276 14.5 19 14.5C18.724 14.5 18.5 14.724 18.5 15V18.793L17.354 17.647C17.159 17.452 16.842 17.452 16.647 17.647C16.452 17.842 16.452 18.159 16.647 18.354L18.647 20.354C18.693 20.4 18.749 20.437 18.81 20.462C18.871 20.487 18.936 20.501 19.001 20.501C19.066 20.501 19.131 20.488 19.192 20.462C19.253 20.437 19.309 20.4 19.355 20.354L21.355 18.354C21.55 18.159 21.55 17.842 21.355 17.647C21.16 17.452 20.842 17.451 20.646 17.646Z" />
</svg>
