<svg viewBox="0 0 24 24" fill="currentColor" stroke="currentColor" xmlns="http://www.w3.org/2000/svg">
<path d="M13.5 18C13.5 18.276 13.276 18.5 13 18.5H5C2.71 18.5 1.5 17.29 1.5 15V7C1.5 4.71 2.71 3.5 5 3.5H17C19.29 3.5 20.5 4.71 20.5 7V11C20.5 11.276 20.276 11.5 20 11.5C19.724 11.5 19.5 11.276 19.5 11V7C19.5 5.271 18.729 4.5 17 4.5H5C3.271 4.5 2.5 5.271 2.5 7V15C2.5 16.729 3.271 17.5 5 17.5H13C13.276 17.5 13.5 17.724 13.5 18ZM4.25 11.007C4.25 11.421 4.586 11.757 5 11.757C5.414 11.757 5.75 11.421 5.75 11.007C5.75 10.593 5.414 10.257 5 10.257C4.586 10.257 4.25 10.593 4.25 11.007ZM14.5 11C14.5 12.93 12.93 14.5 11 14.5C9.07 14.5 7.5 12.93 7.5 11C7.5 9.07 9.07 7.5 11 7.5C12.93 7.5 14.5 9.07 14.5 11ZM13.5 11C13.5 9.622 12.378 8.5 11 8.5C9.622 8.5 8.5 9.622 8.5 11C8.5 12.378 9.622 13.5 11 13.5C12.378 13.5 13.5 12.378 13.5 11ZM22 19.5H17.5C16.949 19.5 16.5 19.052 16.5 18.5V18C16.5 17.724 16.276 17.5 16 17.5C15.724 17.5 15.5 17.724 15.5 18V18.5C15.5 19.603 16.397 20.5 17.5 20.5H20.793L20.647 20.646C20.452 20.841 20.452 21.158 20.647 21.353C20.745 21.451 20.873 21.499 21.001 21.499C21.129 21.499 21.257 21.45 21.355 21.353L22.355 20.353C22.498 20.21 22.541 19.995 22.463 19.808C22.385 19.622 22.202 19.5 22 19.5ZM20.5 15H17.207L17.353 14.854C17.548 14.659 17.548 14.342 17.353 14.147C17.158 13.952 16.841 13.952 16.646 14.147L15.646 15.147C15.503 15.29 15.46 15.505 15.538 15.692C15.615 15.879 15.798 16.001 16 16.001H20.5C21.051 16.001 21.5 16.449 21.5 17.001V17.501C21.5 17.777 21.724 18.001 22 18.001C22.276 18.001 22.5 17.777 22.5 17.501V17C22.5 15.897 21.603 15 20.5 15Z" />
</svg>
