<svg viewBox="0 0 24 24" fill="currentColor" stroke="currentColor" xmlns="http://www.w3.org/2000/svg">
<path d="M18.5 7.5C18.5 5.565 17.435 4.5 15.5 4.5H5.5C3.565 4.5 2.5 5.565 2.5 7.5V14.5C2.5 16.435 3.565 17.5 5.5 17.5C5.5 19.435 6.565 20.5 8.5 20.5H18.5C20.435 20.5 21.5 19.435 21.5 17.5V10.5C21.5 8.565 20.435 7.5 18.5 7.5ZM3.5 14.5V7.5C3.5 6.117 4.117 5.5 5.5 5.5H15.5C16.883 5.5 17.5 6.117 17.5 7.5V14.5C17.5 15.883 16.883 16.5 15.5 16.5H5.5C4.117 16.5 3.5 15.883 3.5 14.5ZM20.5 17.5C20.5 18.902 19.902 19.5 18.5 19.5H8.5C7.098 19.5 6.5 18.902 6.5 17.5H15.5C17.435 17.5 18.5 16.435 18.5 14.5V8.5C19.902 8.5 20.5 9.098 20.5 10.5V17.5ZM5.5 11.757C5.086 11.757 4.75 11.421 4.75 11.007C4.75 10.593 5.086 10.257 5.5 10.257C5.914 10.257 6.25 10.593 6.25 11.007C6.25 11.422 5.914 11.757 5.5 11.757ZM14.75 11.007C14.75 10.593 15.086 10.257 15.5 10.257C15.914 10.257 16.25 10.593 16.25 11.007C16.25 11.421 15.914 11.757 15.5 11.757C15.086 11.757 14.75 11.422 14.75 11.007ZM10.5 14C12.154 14 13.5 12.654 13.5 11C13.5 9.346 12.154 8 10.5 8C8.846 8 7.5 9.346 7.5 11C7.5 12.654 8.846 14 10.5 14ZM10.5 9C11.603 9 12.5 9.897 12.5 11C12.5 12.103 11.603 13 10.5 13C9.397 13 8.5 12.103 8.5 11C8.5 9.897 9.397 9 10.5 9Z" />
</svg>
