<svg viewBox="0 0 24 24" fill="currentColor" stroke="currentColor" xmlns="http://www.w3.org/2000/svg">
<path d="M12.5 18C12.5 18.276 12.276 18.5 12 18.5H5C2.71 18.5 1.5 17.29 1.5 15V7C1.5 4.71 2.71 3.5 5 3.5H17C19.29 3.5 20.5 4.71 20.5 7V11C20.5 11.276 20.276 11.5 20 11.5C19.724 11.5 19.5 11.276 19.5 11V7C19.5 5.271 18.729 4.5 17 4.5H5C3.271 4.5 2.5 5.271 2.5 7V15C2.5 16.729 3.271 17.5 5 17.5H12C12.276 17.5 12.5 17.724 12.5 18ZM4.25 11.007C4.25 11.421 4.586 11.757 5 11.757C5.414 11.757 5.75 11.421 5.75 11.007C5.75 10.593 5.414 10.257 5 10.257C4.586 10.257 4.25 10.593 4.25 11.007ZM14.5 11C14.5 12.93 12.93 14.5 11 14.5C9.07 14.5 7.5 12.93 7.5 11C7.5 9.07 9.07 7.5 11 7.5C12.93 7.5 14.5 9.07 14.5 11ZM13.5 11C13.5 9.622 12.378 8.5 11 8.5C9.622 8.5 8.5 9.622 8.5 11C8.5 12.378 9.622 13.5 11 13.5C12.378 13.5 13.5 12.378 13.5 11ZM22.5 17.5C22.5 19.706 20.706 21.5 18.5 21.5C16.294 21.5 14.5 19.706 14.5 17.5C14.5 15.294 16.294 13.5 18.5 13.5C20.706 13.5 22.5 15.294 22.5 17.5ZM15.5 17.5C15.5 18.147 15.71 18.742 16.06 19.233L20.233 15.06C19.743 14.71 19.147 14.5 18.5 14.5C16.846 14.5 15.5 15.846 15.5 17.5ZM21.5 17.5C21.5 16.853 21.29 16.258 20.94 15.767L16.767 19.94C17.257 20.29 17.853 20.5 18.5 20.5C20.154 20.5 21.5 19.154 21.5 17.5Z" />
</svg>
