<svg viewBox="0 0 24 24" fill="currentColor" stroke="currentColor" xmlns="http://www.w3.org/2000/svg">
<path d="M12.75 17.5C12.75 17.914 12.414 18.25 12 18.25C11.586 18.25 11.25 17.914 11.25 17.5C11.25 17.086 11.586 16.75 12 16.75C12.414 16.75 12.75 17.086 12.75 17.5ZM9.25 12.25C9.25 10.734 10.483 9.5 12 9.5C13.517 9.5 14.75 10.734 14.75 12.25C14.75 13.766 13.517 15 12 15C10.483 15 9.25 13.766 9.25 12.25ZM10.25 12.25C10.25 13.215 11.035 14 12 14C12.965 14 13.75 13.215 13.75 12.25C13.75 11.285 12.965 10.5 12 10.5C11.035 10.5 10.25 11.285 10.25 12.25ZM18 7V18C18 20.29 16.79 21.5 14.5 21.5H9.5C7.21 21.5 6 20.29 6 18V7C6 6.724 6.224 6.5 6.5 6.5H17.5C17.776 6.5 18 6.724 18 7ZM17 7.5H7V18C7 19.729 7.771 20.5 9.5 20.5H14.5C16.229 20.5 17 19.729 17 18V7.5ZM19.5 2.5H4.5C3.229 2.5 2.5 3.229 2.5 4.5V10.5C2.5 11.915 3.37099 12.322 3.89099 12.438C4.16499 12.498 4.42801 12.328 4.48901 12.059C4.54901 11.789 4.37999 11.522 4.10999 11.462C3.80799 11.395 3.50098 11.228 3.50098 10.5V4.5C3.50098 3.78 3.78098 3.5 4.50098 3.5H19.501C20.221 3.5 20.501 3.78 20.501 4.5V10.5C20.501 11.228 20.193 11.395 19.892 11.462C19.622 11.522 19.454 11.79 19.513 12.059C19.566 12.292 19.772 12.45 20.001 12.45C20.037 12.45 20.073 12.446 20.11 12.438C20.63 12.322 21.501 11.915 21.501 10.5V4.5C21.5 3.229 20.771 2.5 19.5 2.5Z" />
</svg>
