<svg viewBox="0 0 24 24" fill="currentColor" stroke="currentColor" xmlns="http://www.w3.org/2000/svg">
<path d="M21.5 7V12C21.5 12.276 21.276 12.5 21 12.5C20.724 12.5 20.5 12.276 20.5 12V7C20.5 5.271 19.729 4.5 18 4.5H6C4.271 4.5 3.5 5.271 3.5 7V15C3.5 16.729 4.271 17.5 6 17.5H14C14.276 17.5 14.5 17.724 14.5 18C14.5 18.276 14.276 18.5 14 18.5H6C3.71 18.5 2.5 17.29 2.5 15V7C2.5 4.71 3.71 3.5 6 3.5H18C20.29 3.5 21.5 4.71 21.5 7ZM5.25 11.007C5.25 11.421 5.586 11.757 6 11.757C6.414 11.757 6.75 11.421 6.75 11.007C6.75 10.593 6.414 10.257 6 10.257C5.586 10.257 5.25 10.593 5.25 11.007ZM12 7.5C13.93 7.5 15.5 9.07 15.5 11C15.5 12.93 13.93 14.5 12 14.5C10.07 14.5 8.5 12.93 8.5 11C8.5 9.07 10.07 7.5 12 7.5ZM12 8.5C10.622 8.5 9.5 9.622 9.5 11C9.5 12.378 10.622 13.5 12 13.5C13.378 13.5 14.5 12.378 14.5 11C14.5 9.622 13.378 8.5 12 8.5ZM19.354 14.647C19.308 14.601 19.252 14.564 19.191 14.539C19.069 14.488 18.931 14.488 18.809 14.539C18.748 14.564 18.692 14.601 18.646 14.647L16.646 16.647C16.451 16.842 16.451 17.159 16.646 17.354C16.841 17.549 17.158 17.549 17.353 17.354L18.499 16.208V20C18.499 20.276 18.723 20.5 18.999 20.5C19.275 20.5 19.499 20.276 19.499 20V16.207L20.645 17.353C20.743 17.451 20.871 17.499 20.999 17.499C21.127 17.499 21.255 17.45 21.353 17.353C21.548 17.158 21.548 16.841 21.353 16.646L19.354 14.647Z" />
</svg>
