<svg viewBox="0 0 24 24" fill="currentColor" stroke="currentColor" xmlns="http://www.w3.org/2000/svg">
<path d="M11.5 18C11.5 18.276 11.276 18.5 11 18.5H5C2.71 18.5 1.5 17.29 1.5 15V7C1.5 4.71 2.71 3.5 5 3.5H17C19.29 3.5 20.5 4.71 20.5 7V10C20.5 10.276 20.276 10.5 20 10.5C19.724 10.5 19.5 10.276 19.5 10V7C19.5 5.271 18.729 4.5 17 4.5H5C3.271 4.5 2.5 5.271 2.5 7V15C2.5 16.729 3.271 17.5 5 17.5H11C11.276 17.5 11.5 17.724 11.5 18ZM4.25 11.007C4.25 11.421 4.586 11.757 5 11.757C5.414 11.757 5.75 11.421 5.75 11.007C5.75 10.593 5.414 10.257 5 10.257C4.586 10.257 4.25 10.593 4.25 11.007ZM14.5 11C14.5 12.93 12.93 14.5 11 14.5C9.07 14.5 7.5 12.93 7.5 11C7.5 9.07 9.07 7.5 11 7.5C12.93 7.5 14.5 9.07 14.5 11ZM13.5 11C13.5 9.622 12.378 8.5 11 8.5C9.622 8.5 8.5 9.622 8.5 11C8.5 12.378 9.622 13.5 11 13.5C12.378 13.5 13.5 12.378 13.5 11ZM22.5 17C22.5 19.481 20.481 21.5 18 21.5C15.519 21.5 13.5 19.481 13.5 17C13.5 14.519 15.519 12.5 18 12.5C20.481 12.5 22.5 14.519 22.5 17ZM21.5 17C21.5 15.07 19.93 13.5 18 13.5C16.07 13.5 14.5 15.07 14.5 17C14.5 18.93 16.07 20.5 18 20.5C19.93 20.5 21.5 18.93 21.5 17ZM19.354 15.646C19.159 15.451 18.842 15.451 18.647 15.646L18 16.293L17.354 15.647C17.159 15.452 16.842 15.452 16.647 15.647C16.452 15.842 16.452 16.159 16.647 16.354L17.293 17L16.647 17.646C16.452 17.841 16.452 18.158 16.647 18.353C16.745 18.451 16.873 18.499 17.001 18.499C17.129 18.499 17.257 18.45 17.355 18.353L18.001 17.707L18.647 18.353C18.745 18.451 18.873 18.499 19.001 18.499C19.129 18.499 19.257 18.45 19.355 18.353C19.55 18.158 19.55 17.841 19.355 17.646L18.707 17L19.353 16.354C19.549 16.158 19.549 15.842 19.354 15.646Z" />
</svg>
