<svg viewBox="0 0 24 24" fill="currentColor" stroke="currentColor" xmlns="http://www.w3.org/2000/svg">
<path d="M16.002 6.47095L17.021 4.771C17.303 4.302 17.31 3.73701 17.04 3.26001C16.77 2.78401 16.283 2.5 15.735 2.5H8.26501C7.71801 2.5 7.22999 2.78401 6.95999 3.26001C6.68999 3.73701 6.697 4.302 6.979 4.771L7.99799 6.47095C5.01299 9.17395 3.5 12.042 3.5 15C3.5 16.525 4.113 21.5 12 21.5C19.887 21.5 20.5 16.525 20.5 15C20.5 12.042 18.987 9.17395 16.002 6.47095ZM7.836 4.25696C7.701 4.03096 7.78699 3.82905 7.82999 3.75305C7.87299 3.67705 8.00201 3.5 8.26501 3.5H15.735C15.998 3.5 16.127 3.67705 16.17 3.75305C16.213 3.82905 16.299 4.03098 16.164 4.25598L15.077 6.06897H8.92401L7.836 4.25696ZM12 20.5C5.231 20.5 4.5 16.654 4.5 15C4.5 12.285 5.96401 9.61795 8.83701 7.06995H15.163C18.036 9.61795 19.5 12.285 19.5 15C19.5 16.654 18.769 20.5 12 20.5ZM14.25 15.613C14.25 16.144 14.045 16.644 13.673 17.022C13.353 17.347 12.942 17.538 12.5 17.589V18C12.5 18.276 12.276 18.5 12 18.5C11.724 18.5 11.5 18.276 11.5 18V17.59C10.596 17.485 9.86499 16.769 9.76199 15.832C9.73199 15.558 9.92901 15.311 10.204 15.28C10.486 15.253 10.725 15.448 10.756 15.722C10.812 16.229 11.228 16.611 11.725 16.611H12.276C12.533 16.611 12.776 16.5069 12.961 16.3199C13.148 16.1309 13.251 15.88 13.251 15.613C13.251 15.155 12.946 14.756 12.511 14.644L11.244 14.324C10.814 14.213 10.432 13.96 10.164 13.609C9.898 13.267 9.75101 12.832 9.75101 12.386C9.75101 11.362 10.519 10.525 11.501 10.411V10C11.501 9.724 11.725 9.5 12.001 9.5C12.277 9.5 12.501 9.724 12.501 10V10.41C13.405 10.515 14.136 11.231 14.239 12.168C14.269 12.442 14.072 12.689 13.797 12.72C13.525 12.748 13.276 12.552 13.245 12.278C13.189 11.771 12.773 11.389 12.276 11.389H11.725C11.187 11.389 10.75 11.837 10.75 12.387C10.75 12.612 10.823 12.83 10.956 13C11.09 13.176 11.279 13.301 11.491 13.355L12.758 13.675C13.637 13.902 14.25 14.699 14.25 15.613Z" />
</svg>
