<svg viewBox="0 0 24 24" fill="currentColor" stroke="currentColor" xmlns="http://www.w3.org/2000/svg">
<path d="M18.5 6.521V6C18.5 3.71 17.29 2.5 15 2.5H5C3.621 2.5 2.5 3.622 2.5 5V18C2.5 20.29 3.71 21.5 6 21.5H18C20.29 21.5 21.5 20.29 21.5 18V10C21.5 7.883 20.466 6.689 18.5 6.521ZM20.5 16H16.5C15.397 16 14.5 15.103 14.5 14C14.5 12.897 15.397 12 16.5 12H20.5V16ZM5 3.5H15C16.729 3.5 17.5 4.271 17.5 6V6.5H5C4.173 6.5 3.5 5.827 3.5 5C3.5 4.173 4.173 3.5 5 3.5ZM18 20.5H6C4.271 20.5 3.5 19.729 3.5 18V6.99902C3.918 7.31302 4.438 7.5 5 7.5H18C19.729 7.5 20.5 8.271 20.5 10V11H16.5C14.846 11 13.5 12.346 13.5 14C13.5 15.654 14.846 17 16.5 17H20.5V18C20.5 19.729 19.729 20.5 18 20.5ZM16.989 13.25H17.004C17.417 13.25 17.75 13.585 17.75 14C17.75 14.415 17.416 14.75 17.004 14.75C16.593 14.75 16.25 14.415 16.25 14C16.25 13.585 16.577 13.25 16.989 13.25Z" />
</svg>
