<svg viewBox="0 0 24 24" fill="currentColor" stroke="currentColor" xmlns="http://www.w3.org/2000/svg">
<path d="M18.8959 7.43796L18.5769 7.11996C18.5149 7.05696 18.479 6.973 18.479 6.884V6.436C18.479 4.829 17.1709 3.52096 15.5639 3.52096H15.1159C15.0279 3.52096 14.9418 3.48492 14.8798 3.42392L14.562 3.10495C13.426 1.96895 11.5769 1.96695 10.4389 3.10495L10.121 3.42294C10.059 3.48494 9.97296 3.52096 9.88496 3.52096H9.43696C7.82996 3.52096 6.52192 4.829 6.52192 6.436V6.884C6.52192 6.973 6.48702 7.05699 6.42402 7.11899L6.10493 7.43893C4.96893 8.57493 4.96893 10.425 6.10493 11.562L6.42402 11.88C6.48602 11.943 6.52192 12.0269 6.52192 12.1159V12.5639C6.52192 13.7889 7.28293 14.835 8.35493 15.266L6.779 20.7939C6.701 21.0689 6.78597 21.365 6.99897 21.557C7.21097 21.748 7.51298 21.803 7.77998 21.696L10.548 20.587C11.808 20.085 13.1939 20.085 14.4519 20.587L17.2219 21.697C17.3129 21.733 17.4079 21.7509 17.5009 21.7509C17.6839 21.7509 17.8629 21.685 18.0029 21.558C18.2159 21.366 18.3008 21.071 18.2228 20.795L16.6469 15.2669C17.7189 14.8359 18.4799 13.7899 18.4799 12.5649V12.1169C18.4799 12.0279 18.5148 11.9439 18.5778 11.8819L18.8969 11.563C18.8969 11.563 18.8969 11.563 18.8969 11.562C20.0319 10.425 20.0319 8.57496 18.8959 7.43796ZM15.008 19.193C13.393 18.549 11.6119 18.548 9.98994 19.193L8.63984 19.734L9.85298 15.479H9.88301C9.97101 15.479 10.0568 15.515 10.1188 15.576L10.437 15.895C11.005 16.463 11.751 16.748 12.499 16.748C13.245 16.748 13.992 16.464 14.561 15.895L14.8789 15.577C14.9409 15.515 15.0269 15.479 15.1149 15.479H15.145L16.3579 19.734L15.008 19.193ZM17.8359 10.5009L17.517 10.8199C17.17 11.1659 16.9799 11.6269 16.9799 12.1159V12.5639C16.9799 13.3439 16.3449 13.979 15.5649 13.979H15.1169C14.6339 13.979 14.161 14.1749 13.82 14.5169L13.5019 14.8349C12.9669 15.3689 12.0349 15.3689 11.4999 14.8349L11.1818 14.516C10.8408 14.175 10.369 13.979 9.88496 13.979H9.43696C8.65696 13.979 8.02192 13.3439 8.02192 12.5639V12.1159C8.02192 11.6259 7.83206 11.1659 7.48506 10.8189L7.16596 10.5009C6.61496 9.94894 6.61496 9.04999 7.16596 8.49899L7.48506 8.18002C7.83206 7.83402 8.02192 7.373 8.02192 6.884V6.436C8.02192 5.656 8.65696 5.02096 9.43696 5.02096H9.88496C10.368 5.02096 10.8408 4.825 11.1818 4.483L11.4999 4.16501C12.0349 3.63101 12.9669 3.63101 13.5019 4.16501L13.82 4.48398C14.161 4.82498 14.6329 5.02096 15.1169 5.02096H15.5649C16.3449 5.02096 16.9799 5.656 16.9799 6.436V6.884C16.9799 7.374 17.17 7.834 17.517 8.181L17.8359 8.49899C18.3869 9.05099 18.3869 9.94894 17.8359 10.5009ZM15.321 7.82699L14.0429 7.64193L13.4919 6.53195C13.3039 6.15195 12.9239 5.91696 12.4999 5.91696C12.0749 5.91696 11.695 6.15295 11.508 6.53195L10.957 7.64193L9.6789 7.82699C9.2679 7.88699 8.9319 8.16893 8.8039 8.56393C8.6749 8.95993 8.78105 9.38502 9.07905 9.67502L10.0019 10.571L9.79194 11.785C9.71994 12.203 9.88793 12.618 10.2299 12.868C10.5719 13.118 11.0189 13.1519 11.3969 12.9539L12.4999 12.3769L13.604 12.9549C13.767 13.0399 13.9428 13.082 14.1188 13.082C14.3478 13.082 14.5769 13.0089 14.7709 12.8669C15.1139 12.6169 15.2809 12.202 15.2089 11.786L14.999 10.5689L15.923 9.67294C16.221 9.38294 16.326 8.95798 16.197 8.56198C16.068 8.16898 15.732 7.88699 15.321 7.82699ZM13.7971 9.64694C13.5391 9.89594 13.4219 10.255 13.4829 10.608L13.5949 11.2569L13.0009 10.946C12.8449 10.864 12.6729 10.8239 12.5009 10.8239C12.3279 10.8239 12.155 10.865 11.997 10.947L11.405 11.2569L11.517 10.607C11.578 10.254 11.4601 9.89594 11.2041 9.64694L10.7319 9.18893L11.3859 9.09494C11.7399 9.04394 12.0448 8.82302 12.2028 8.50302L12.499 7.90695L12.7949 8.50302C12.9529 8.82302 13.259 9.04494 13.611 9.09494L14.2661 9.18991L13.7971 9.64694Z" />
</svg>
