<svg viewBox="0 0 24 24" fill="currentColor" stroke="currentColor" xmlns="http://www.w3.org/2000/svg">
<path d="M21.0359 4.18199C21.0349 4.18199 21.0349 4.18201 21.0339 4.18101C19.3329 3.37401 17.446 3.09099 15.425 3.33799C13.971 3.51699 12.741 4.34794 12 5.51194C11.258 4.34894 10.029 3.51699 8.57397 3.33799C6.55097 3.09099 4.66706 3.37401 2.96606 4.18101C2.96606 4.18101 2.96609 4.18101 2.96509 4.18101C2.53109 4.38701 2.25 4.83393 2.25 5.31993V18.3249C2.25 18.7189 2.4299 19.08 2.7439 19.317C3.0569 19.554 3.4711 19.631 3.8501 19.522C6.7591 18.696 9.21501 19.046 11.583 20.623C11.593 20.63 11.605 20.6319 11.615 20.6379C11.626 20.6439 11.634 20.654 11.646 20.66C11.657 20.666 11.6699 20.6629 11.6809 20.6689C11.7819 20.7169 11.889 20.749 11.999 20.749C12.109 20.749 12.2159 20.7169 12.3169 20.6689C12.3279 20.6639 12.3411 20.666 12.3521 20.66C12.3631 20.654 12.3721 20.6449 12.3821 20.6379C12.3921 20.6319 12.4041 20.63 12.4141 20.623C14.7791 19.046 17.236 18.696 20.147 19.522C20.525 19.629 20.9399 19.554 21.2529 19.317C21.5669 19.08 21.7471 18.7179 21.7471 18.3249V5.31993C21.7501 4.83593 21.4699 4.38899 21.0359 4.18199ZM6.73389 17.594C5.77289 17.594 4.78 17.728 3.75 17.996V5.47093C5.169 4.82893 6.68811 4.61701 8.39111 4.82701C10.0211 5.02701 11.25 6.41694 11.25 8.05894V18.6899C9.815 17.9579 8.31789 17.594 6.73389 17.594ZM20.25 17.996C17.524 17.287 15.057 17.5129 12.75 18.6899V8.05894C12.75 6.41594 13.9789 5.02701 15.6079 4.82701C16.0299 4.77501 16.441 4.749 16.842 4.749C18.057 4.749 19.182 4.98793 20.249 5.47093V17.996H20.25Z" />
</svg>
