<svg viewBox="0 0 24 24" fill="currentColor" stroke="currentColor" xmlns="http://www.w3.org/2000/svg">
<path d="M16 2.25H8C5.582 2.25 4.25 3.582 4.25 6V21C4.25 21.268 4.39302 21.5149 4.62402 21.6479C4.74002 21.716 4.87 21.75 5 21.75C5.128 21.75 5.25707 21.717 5.37207 21.651L12 17.863L18.6279 21.65C18.8609 21.783 19.147 21.782 19.376 21.647C19.607 21.513 19.75 21.266 19.75 20.999V5.99902C19.75 3.58202 18.418 2.25 16 2.25ZM18.25 19.707L12.3721 16.349C12.1421 16.217 11.8579 16.217 11.6279 16.349L5.75 19.708V6C5.75 4.423 6.423 3.75 8 3.75H16C17.577 3.75 18.25 4.423 18.25 6V19.707ZM13.551 6.25C13.546 6.25 13.5421 6.25 13.5381 6.25C12.8771 6.25 12.369 6.50601 12 6.83801C11.629 6.50401 11.151 6.261 10.449 6.25C9.60897 6.254 8.90389 6.57403 8.41089 7.17603C7.82889 7.88803 7.61608 8.917 7.83008 10C8.35508 12.663 11.5581 14.1241 11.6931 14.1851C11.7911 14.2281 11.895 14.25 12 14.25C12.105 14.25 12.2089 14.2281 12.3069 14.1851C12.4429 14.1241 15.6449 12.663 16.1689 10C16.3829 8.917 16.1721 7.889 15.5901 7.177C15.0981 6.574 14.393 6.254 13.551 6.25ZM14.698 9.70898C14.401 11.213 12.705 12.2761 12 12.6591C11.295 12.2761 9.599 11.213 9.302 9.70898C9.177 9.07698 9.279 8.48498 9.573 8.12598C9.779 7.87498 10.068 7.752 10.458 7.75C10.459 7.75 10.4599 7.75 10.4619 7.75C11.0409 7.75 11.27 8.32606 11.291 8.38306C11.393 8.68406 11.6749 8.88296 11.9929 8.88696C11.9959 8.88696 11.9989 8.88696 12.0029 8.88696C12.3159 8.88696 12.6 8.68599 12.708 8.39099C12.732 8.32499 12.961 7.74902 13.54 7.74902C13.542 7.74902 13.5429 7.74902 13.5439 7.74902C13.9349 7.75102 14.2249 7.874 14.4299 8.125C14.7219 8.485 14.822 9.07698 14.698 9.70898Z" />
</svg>
