<svg viewBox="0 0 24 24" fill="currentColor" stroke="currentColor" xmlns="http://www.w3.org/2000/svg">
<path d="M16 2.25H8C5.582 2.25 4.25 3.582 4.25 6V21C4.25 21.268 4.39302 21.5149 4.62402 21.6479C4.74002 21.716 4.87 21.75 5 21.75C5.128 21.75 5.25707 21.717 5.37207 21.651L12 17.863L18.6279 21.65C18.8609 21.783 19.147 21.782 19.376 21.647C19.607 21.513 19.75 21.266 19.75 20.999V5.99902C19.75 3.58202 18.418 2.25 16 2.25ZM18.25 19.707L12.3721 16.349C12.1421 16.217 11.8579 16.217 11.6279 16.349L5.75 19.708V6C5.75 4.423 6.423 3.75 8 3.75H16C17.577 3.75 18.25 4.423 18.25 6V19.707ZM15.343 7.69299C15.134 7.34299 14.688 7.225 14.332 7.422L14.2161 7.48706C14.0711 7.56906 13.8921 7.56796 13.7451 7.48596C13.6101 7.40996 13.5271 7.274 13.5271 7.13C13.5271 6.644 13.1311 6.24902 12.6421 6.24902H11.3081C10.8201 6.24902 10.4231 6.644 10.4231 7.13C10.4231 7.276 10.3421 7.40896 10.2061 7.48596C10.0591 7.56896 9.87789 7.56806 9.73389 7.48706C9.31989 7.25306 8.78199 7.39598 8.54199 7.80298L7.87012 8.93005C7.76712 9.10405 7.72605 9.40805 7.77905 9.60205C7.84105 9.82905 7.993 10.024 8.198 10.14C8.333 10.216 8.41697 10.3529 8.41797 10.4969C8.41797 10.6429 8.334 10.7811 8.198 10.8571C7.992 10.9731 7.83908 11.169 7.77808 11.397C7.72608 11.592 7.76905 11.897 7.87305 12.071L8.54297 13.196C8.79197 13.608 9.31589 13.745 9.73389 13.51C9.87989 13.429 10.0591 13.428 10.2041 13.51C10.3391 13.586 10.4221 13.721 10.4221 13.866C10.4221 14.352 10.8179 14.7469 11.3069 14.7469H12.6431C13.1301 14.7469 13.5271 14.352 13.5271 13.866C13.5271 13.722 13.6101 13.586 13.7451 13.51C13.8911 13.428 14.0711 13.427 14.2161 13.509C14.6361 13.744 15.1579 13.607 15.4089 13.192L16.0759 12.072C16.1799 11.898 16.2241 11.593 16.1731 11.397C16.1121 11.169 15.96 10.971 15.752 10.855C15.617 10.779 15.533 10.642 15.533 10.498C15.533 10.352 15.617 10.2139 15.752 10.1379L15.8679 10.073C16.0439 9.974 16.1731 9.80804 16.2241 9.61304C16.2751 9.41804 16.247 9.21001 16.144 9.03601L15.343 7.69299ZM14.5171 11.762L14.3799 11.9919C13.9169 11.8979 13.429 11.9701 13.009 12.2061C12.593 12.4401 12.2841 12.815 12.1331 13.249H11.8191C11.6681 12.815 11.3601 12.44 10.9441 12.205C10.9431 12.205 10.9431 12.205 10.9431 12.205C10.5251 11.969 10.033 11.8969 9.573 11.9919L9.43604 11.762C9.74404 11.416 9.91995 10.9659 9.91895 10.4919C9.91695 10.0249 9.74006 9.58006 9.43506 9.23706L9.573 9.00696C10.037 9.09996 10.5251 9.02897 10.9441 8.79297C11.3601 8.55897 11.6681 8.184 11.8191 7.75H12.1331C12.2841 8.184 12.592 8.55897 13.009 8.79297C13.428 9.02997 13.9169 9.10096 14.3799 9.00696L14.5171 9.23706C14.2101 9.58306 14.0339 10.0311 14.0339 10.5031C14.0339 10.9721 14.2111 11.417 14.5171 11.762ZM13.02 10.5C13.02 11.052 12.573 11.5 12.02 11.5C11.468 11.5 11.0149 11.052 11.0149 10.5C11.0149 9.948 11.458 9.5 12.01 9.5H12.02C12.572 9.5 13.02 9.948 13.02 10.5Z" />
</svg>
