<svg viewBox="0 0 24 24" fill="currentColor" stroke="currentColor" xmlns="http://www.w3.org/2000/svg">
<path d="M18.5 2.25H16H12H7C4.582 2.25 3.25 3.582 3.25 6V18C3.25 20.243 4.757 21.75 7 21.75H18.5C19.74 21.75 20.75 20.741 20.75 19.5V13.5V11V4.5C20.75 3.259 19.74 2.25 18.5 2.25ZM15.25 3.75V8.70801L14.3721 8.20605C14.2571 8.14005 14.129 8.10706 14 8.10706C13.871 8.10706 13.7429 8.14005 13.6279 8.20605L12.75 8.70801V3.75H15.25ZM7 3.75H11.25V10C11.25 10.268 11.393 10.515 11.624 10.649C11.854 10.783 12.1401 10.784 12.3721 10.651L14 9.71997L15.6279 10.651C15.7429 10.717 15.872 10.75 16 10.75C16.13 10.75 16.26 10.716 16.376 10.649C16.607 10.515 16.75 10.268 16.75 10V3.75H18.5C18.913 3.75 19.25 4.086 19.25 4.5V11V13.5C19.25 13.914 18.913 14.25 18.5 14.25H7C6.119 14.25 5.357 14.489 4.75 14.908V6C4.75 4.423 5.423 3.75 7 3.75ZM18.5 20.25H7C5.591 20.25 4.75 19.409 4.75 18C4.75 16.591 5.591 15.75 7 15.75H18.5C18.764 15.75 19.014 15.6961 19.25 15.6121V19.5C19.25 19.914 18.913 20.25 18.5 20.25Z" />
</svg>
