<svg viewBox="0 0 24 24" fill="currentColor" stroke="currentColor" xmlns="http://www.w3.org/2000/svg">
<path d="M18 2.25H6C3.58 2.25 2.25 3.58 2.25 6V18C2.25 20.42 3.58 21.75 6 21.75H18C20.42 21.75 21.75 20.42 21.75 18V6C21.75 3.58 20.42 2.25 18 2.25ZM20.25 18C20.25 19.58 19.58 20.25 18 20.25H6C4.42 20.25 3.75 19.58 3.75 18V6C3.75 4.42 4.42 3.75 6 3.75H18C19.58 3.75 20.25 4.42 20.25 6V18ZM9.08002 15.7L8.35999 16.96C8.14999 17.32 7.69002 17.45 7.33002 17.24C6.97002 17.03 6.84999 16.57 7.04999 16.21L7.59003 15.28C8.20003 15.09 8.69002 15.24 9.08002 15.71V15.7ZM18 14.17C18 14.59 17.67 14.93 17.25 14.93H16.17L16.9 16.21C17.11 16.57 16.98 17.03 16.62 17.24C16.26 17.45 15.8 17.33 15.59 16.96C14.36 14.81 13.43 13.2 12.82 12.13C12.19 11.04 12.64 9.94001 13.08 9.57001C13.57 10.42 14.31 11.7 15.29 13.42H17.24C17.66 13.42 17.99 13.76 17.99 14.18L18 14.17ZM13.57 14.92H6.75C6.33 14.92 6 14.58 6 14.16C6 13.74 6.33 13.4 6.75 13.4H8.65997L11.11 9.13L10.35 7.79001C10.14 7.43001 10.27 6.97001 10.63 6.76001C10.99 6.55001 11.45 6.67001 11.66 7.04001L11.99 7.62L12.32 7.04001C12.53 6.68001 12.99 6.55001 13.35 6.76001C13.71 6.97001 13.83 7.43001 13.63 7.79001L10.41 13.39H12.74C13.49 13.39 13.92 14.28 13.59 14.9L13.57 14.92Z" />
</svg>
