<svg viewBox="0 0 24 24" fill="currentColor" stroke="currentColor" xmlns="http://www.w3.org/2000/svg">
<path d="M10.2 11.52C11.19 11.05 11.7 10.34 11.7 9.23001C11.7 7.03001 10.07 6.5 8.19 6.5H3V17.5H8.33C10.33 17.5 12.21 16.54 12.21 14.31C12.21 12.92 11.55 11.9 10.2 11.52ZM5.42999 8.10999H7.72C8.6 8.10999 9.39 8.35 9.39 9.37C9.39 10.31 8.76999 10.69 7.89999 10.69H5.42999V8.10999ZM8.03999 15.41H5.42999V12.36H8.09C9.16 12.36 9.84 12.81 9.84 13.94C9.84 15.07 9.02999 15.41 8.03999 15.41ZM19.24 7.89001H14.75V6.79999H19.24V7.89001ZM21 13.4C21 11.03 19.61 9.04999 17.1 9.04999C14.59 9.04999 13 10.89 13 13.29C13 15.69 14.57 17.5 17.1 17.5C19.01 17.5 20.25 16.64 20.85 14.81H18.91C18.7 15.49 17.84 15.85 17.17 15.85C15.88 15.85 15.2 15.1 15.2 13.81H20.98C20.99 13.68 21 13.54 21 13.4ZM15.2 12.42C15.27 11.37 15.97 10.71 17.03 10.71C18.09 10.71 18.69 11.36 18.78 12.42H15.2Z" />
</svg>
