<svg viewBox="0 0 24 24" fill="currentColor" stroke="currentColor" xmlns="http://www.w3.org/2000/svg">
<path d="M12 1.25C6.07 1.25 1.25 6.07 1.25 12C1.25 17.33 5.07001 21.79 10.32 22.62C10.54 22.66 10.76 22.59 10.92 22.45C11.09 22.31 11.18 22.1 11.18 21.88V15C11.18 14.59 10.84 14.25 10.43 14.25H8.75999V12.75H10.43C10.84 12.75 11.18 12.41 11.18 12V9.8C11.18 7.28 12.83 6.75 14.21 6.75C14.74 6.75 15.29 6.80001 15.7 6.85001V7.81H15.19C13.72 7.81 12.81 8.7 12.81 10.12V12C12.81 12.41 13.15 12.75 13.56 12.75H15.58L15.35 14.25H13.56C13.15 14.25 12.81 14.59 12.81 15V21.88C12.81 22.1 12.91 22.31 13.07 22.45C13.21 22.57 13.38 22.63 13.56 22.63C13.6 22.63 13.64 22.63 13.68 22.63C18.94 21.81 22.75 17.34 22.75 12.01C22.75 6.07999 17.93 1.25999 12 1.25999V1.25ZM14.31 20.96V15.75H16C16.37 15.75 16.69 15.48 16.74 15.11L17.19 12.11C17.22 11.89 17.16 11.67 17.02 11.51C16.88 11.35 16.67 11.25 16.45 11.25H14.31V10.12C14.31 9.54 14.56 9.31 15.19 9.31H16.45C16.86 9.31 17.2 8.97 17.2 8.56V6.19C17.2 5.82 16.94 5.51 16.58 5.45C16.53 5.45 15.36 5.24001 14.22 5.24001C11.43 5.24001 9.69 6.97999 9.69 9.78999V11.24H8.02C7.61 11.24 7.27 11.58 7.27 11.99V14.99C7.27 15.4 7.61 15.74 8.02 15.74H9.69V20.95C5.62 19.91 2.75 16.28 2.75 11.99C2.75 6.89001 6.9 2.74001 12 2.74001C17.1 2.74001 21.25 6.89001 21.25 11.99C21.25 16.28 18.38 19.91 14.31 20.95V20.96Z" />
</svg>
