<svg viewBox="0 0 24 24" fill="currentColor" stroke="currentColor" xmlns="http://www.w3.org/2000/svg">
<path d="M17.23 9C18.15 8.32 18.75 7.23 18.75 6C18.75 3.93 17.07 2.25 15 2.25H9C6.93 2.25 5.25 3.93 5.25 6C5.25 7.23 5.85002 8.32 6.77002 9C5.85002 9.68 5.25 10.77 5.25 12C5.25 13.23 5.85002 14.32 6.77002 15C5.85002 15.68 5.25 16.77 5.25 18C5.25 20.07 6.93 21.75 9 21.75C11.07 21.75 12.75 20.07 12.75 18V14.98C13.38 15.46 14.15 15.75 15 15.75C17.07 15.75 18.75 14.07 18.75 12C18.75 10.77 18.15 9.68 17.23 9ZM17.25 6C17.25 7.24 16.24 8.25 15 8.25H12.75V3.75H15C16.24 3.75 17.25 4.76 17.25 6ZM6.75 6C6.75 4.76 7.76 3.75 9 3.75H11.25V8.25H9C7.76 8.25 6.75 7.24 6.75 6ZM6.75 12C6.75 10.76 7.76 9.75 9 9.75H11.25V14.25H9C7.76 14.25 6.75 13.24 6.75 12ZM11.25 18C11.25 19.24 10.24 20.25 9 20.25C7.76 20.25 6.75 19.24 6.75 18C6.75 16.76 7.76 15.75 9 15.75H11.25V18ZM15 14.25C13.76 14.25 12.75 13.24 12.75 12C12.75 10.76 13.76 9.75 15 9.75C16.24 9.75 17.25 10.76 17.25 12C17.25 13.24 16.24 14.25 15 14.25Z" />
</svg>
