<svg viewBox="0 0 24 24" fill="currentColor" stroke="currentColor" xmlns="http://www.w3.org/2000/svg">
<path d="M7.04 8.88003H3.25001C2.84001 8.88003 2.50001 9.22003 2.50001 9.63003V21C2.50001 21.41 2.84001 21.75 3.25001 21.75H7.04C7.45 21.75 7.79 21.41 7.79 21V9.63003C7.79 9.22003 7.45 8.88003 7.04 8.88003ZM6.29 20.25H4.00001V10.38H6.29V20.25ZM5.29 2.25002C4.49 2.23002 3.75001 2.51002 3.17001 3.06002C2.60001 3.60002 2.27001 4.34003 2.24001 5.13003C2.22001 5.92003 2.50001 6.67002 3.05001 7.25002C3.59001 7.82002 4.33 8.15002 5.12 8.18002C5.14 8.18002 5.15001 8.18002 5.17001 8.18002C6.80001 8.18002 8.14001 6.86003 8.17001 5.22003C8.17001 3.61003 6.91 2.31002 5.29 2.26002V2.25002ZM5.17001 6.67002H5.16001C4.77001 6.66002 4.41 6.50003 4.15 6.21003C3.88 5.93003 3.74001 5.56002 3.75001 5.17002C3.76001 4.78002 3.92002 4.42002 4.21002 4.15002C4.49002 3.88002 4.85001 3.75002 5.25001 3.75002C6.05001 3.77002 6.67001 4.41002 6.67001 5.20002C6.66001 6.02002 5.99001 6.67002 5.17001 6.67002ZM21.7 14.13C21.7 10.17 19.12 8.76002 16.73 8.76002C15.77 8.72002 14.82 9.00002 14.03 9.51002C13.97 9.15002 13.66 8.88003 13.29 8.88003H9.63001C9.22001 8.88003 8.88001 9.22003 8.88001 9.63003V21C8.88001 21.41 9.22001 21.75 9.63001 21.75H13.42C13.83 21.75 14.17 21.41 14.17 21V15.01C14.17 15.01 14.17 14.91 14.17 14.86C14.14 14.47 14.27 14.1 14.53 13.81C14.78 13.52 15.14 13.34 15.47 13.32C15.77 13.32 16.46 13.32 16.46 15.01V21C16.46 21.41 16.8 21.75 17.21 21.75H21C21.2 21.75 21.39 21.67 21.53 21.53C21.67 21.39 21.75 21.2 21.75 21L21.7 14.13ZM17.96 20.25V15.01C17.96 12.14 16.23 11.82 15.42 11.82C14.63 11.87 13.92 12.23 13.4 12.82C12.88 13.41 12.63 14.17 12.67 14.9C12.67 14.99 12.67 15.07 12.67 15.09V20.24H10.38V10.37H12.54V11.26C12.54 11.59 12.76 11.88 13.08 11.98C13.4 12.08 13.74 11.95 13.92 11.67C14.52 10.75 15.58 10.21 16.7 10.24C17.75 10.24 20.19 10.62 20.19 14.12L20.23 20.24H17.95L17.96 20.25Z" />
</svg>
