<svg viewBox="0 0 24 24" fill="currentColor" stroke="currentColor" xmlns="http://www.w3.org/2000/svg">
<path d="M12 1.25C6.07 1.25 1.25 6.07 1.25 12C1.25 17.93 6.07 22.75 12 22.75C17.93 22.75 22.75 17.93 22.75 12C22.75 6.07 17.93 1.25 12 1.25ZM12 21.25C11.12 21.25 10.26 21.12 9.45001 20.89C9.80001 20.27 10.18 19.51 10.35 18.86C10.47 18.4 10.97 16.5 10.97 16.5C11.29 17.12 12.24 17.64 13.25 17.64C16.25 17.64 18.41 14.88 18.41 11.45C18.41 8.02 15.73 5.7 12.28 5.7C7.98003 5.7 5.70001 8.58 5.70001 11.72C5.70001 13.18 6.47997 15 7.71997 15.58C7.90997 15.67 8.00999 15.63 8.04999 15.45C8.07999 15.31 8.25002 14.63 8.33002 14.32C8.36002 14.22 8.33001 14.11 8.26001 14.03C7.85001 13.53 7.52002 12.62 7.52002 11.76C7.52002 9.55999 9.18001 7.44 12.01 7.44C14.46 7.44 16.17 9.11001 16.17 11.49C16.17 14.18 14.81 16.05 13.04 16.05C12.07 16.05 11.33 15.24 11.57 14.25C11.85 13.07 12.39 11.79 12.39 10.94C12.39 10.17 11.98 9.53 11.13 9.53C10.13 9.53 9.33002 10.57 9.33002 11.95C9.33002 12.83 9.63 13.43 9.63 13.43C9.63 13.43 8.64002 17.6 8.46002 18.38C8.31002 19.01 8.31999 19.81 8.37 20.51C5.07 19.1 2.75 15.82 2.75 12C2.75 6.9 6.9 2.75 12 2.75C17.1 2.75 21.25 6.9 21.25 12C21.25 17.1 17.1 21.25 12 21.25Z" />
</svg>
