<svg viewBox="0 0 24 24" fill="currentColor" stroke="currentColor" xmlns="http://www.w3.org/2000/svg">
<path d="M20.86 13.59C20.95 13.05 21 12.52 21 12.01C21 7.05001 16.96 3.01001 12 3.01001C11.48 3.01001 10.95 3.06001 10.42 3.15001C9.54998 2.57001 8.55 2.26001 7.5 2.26001C4.6 2.26001 2.25 4.62001 2.25 7.51001C2.25 8.56001 2.56001 9.56001 3.14001 10.43C3.05001 10.97 3 11.51 3 12.01C3 16.97 7.04 21.01 12 21.01C12.52 21.01 13.05 20.96 13.58 20.87C14.45 21.45 15.45 21.76 16.5 21.76C19.4 21.76 21.75 19.4 21.75 16.51C21.75 15.46 21.45 14.46 20.86 13.59ZM16.49 20.25C15.66 20.25 14.87 19.98 14.21 19.47C14.08 19.37 13.92 19.31 13.75 19.31C13.7 19.31 13.65 19.31 13.59 19.33C13.05 19.44 12.51 19.5 11.99 19.5C7.84999 19.5 4.48999 16.14 4.48999 12C4.48999 11.49 4.54997 10.95 4.65997 10.39C4.69997 10.18 4.66002 9.95001 4.52002 9.78001C4.01002 9.12001 3.73999 8.33002 3.73999 7.50002C3.73999 5.43002 5.41999 3.75002 7.48999 3.75002C8.31999 3.75002 9.11003 4.02001 9.78003 4.53001C9.95003 4.66001 10.18 4.72001 10.4 4.67001C10.94 4.56001 11.48 4.50002 12 4.50002C16.14 4.50002 19.5 7.86002 19.5 12C19.5 12.51 19.44 13.05 19.33 13.61C19.29 13.82 19.33 14.05 19.47 14.22C19.98 14.88 20.25 15.67 20.25 16.5C20.25 18.57 18.57 20.25 16.5 20.25H16.49ZM16.49 13.94C16.49 16.23 14.28 17.29 12.15 17.29C9.61002 17.29 7.48999 16.16 7.48999 14.77C7.48999 14.15 7.84 13.59 8.63 13.59C9.84 13.59 9.94998 15.33 12.04 15.33C13.03 15.33 13.68 14.89 13.68 14.31C13.68 13.59 13.06 13.47 12.05 13.23C9.62999 12.63 7.48999 12.38 7.48999 9.85002C7.48999 7.56002 9.76002 6.71002 11.71 6.71002C13.84 6.71002 16 7.56002 16 8.85002C16 9.50002 15.56 10.08 14.83 10.08C13.73 10.08 13.7 8.78001 11.93 8.78001C10.94 8.78001 10.3 9.05001 10.3 9.65001C10.3 10.42 11.11 10.49 12.97 10.93C14.57 11.29 16.48 11.97 16.48 13.93L16.49 13.94Z" />
</svg>
