<svg viewBox="0 0 24 24" fill="currentColor" stroke="currentColor" xmlns="http://www.w3.org/2000/svg">
<path d="M22 14.46C22 15.86 20.91 17 19.57 17H12V8.72C12.67 8.27 13.45 8 14.3 8C16.56 8 18.39 9.83 18.56 12.16C20.19 11.38 21.99 12.64 21.99 14.46H22ZM7 17H7.82999V9.94C7.52999 10.05 7.25 10.21 7 10.4V17ZM10.33 10V17H11.16V9.45001C10.97 9.67001 10.79 9.89999 10.64 10.15L10.32 10H10.33ZM8.66 9.75V17H9.48999V9.76001C9.06999 9.70001 8.97 9.72001 8.66 9.76001V9.75ZM5.32999 12.36V17H6.16V11.26C5.9 11.63 5.69999 12.05 5.57999 12.52L5.32001 12.37L5.32999 12.36ZM2.82999 16.41V12.7C2.32999 13.15 2 13.81 2 14.56C2 15.31 2.32999 15.97 2.82999 16.42V16.41ZM3.66 12.23V16.88C4.03 17 4.18999 16.99 4.48999 16.99V12.12C4.23999 12.1 4.05 12.1 3.66 12.22V12.23Z" />
</svg>
