<svg viewBox="0 0 24 24" fill="currentColor" stroke="currentColor" xmlns="http://www.w3.org/2000/svg">
<path d="M18 4.25H6C3.58 4.25 2.25 5.58 2.25 8V16C2.25 18.42 3.58 19.75 6 19.75H18C20.42 19.75 21.75 18.42 21.75 16V8C21.75 5.58 20.42 4.25 18 4.25ZM20.25 16C20.25 17.58 19.58 18.25 18 18.25H6C4.42 18.25 3.75 17.58 3.75 16V8C3.75 6.42 4.42 5.75 6 5.75H18C19.58 5.75 20.25 6.42 20.25 8V16ZM8.75 10.4H9.48999V11.23H8.76001V12.6C8.76001 13.17 9.36999 12.99 9.48999 12.94V13.73C9.35999 13.8 9.13 13.86 8.81 13.86C8.27 13.88 7.82 13.45 7.81 12.92C7.81 12.9 7.81 12.89 7.81 12.87V9.78L8.76001 9.57999V10.41L8.75 10.4ZM11.54 10.4V11.29C11.42 11.25 11 11.19 10.76 11.49V13.79H9.79004V10.4H10.66L10.69 10.69C10.92 10.27 11.41 10.36 11.54 10.4ZM7.60004 12.76C7.60004 13.46 7.06001 13.85 6.26001 13.85C5.90001 13.85 5.54002 13.78 5.21002 13.63V12.71C5.53002 12.89 5.94001 13.02 6.26001 13.02C6.48001 13.02 6.62 12.96 6.62 12.79C6.62 12.33 5.15002 12.5 5.15002 11.43C5.15002 10.75 5.68003 10.34 6.47003 10.34C6.79003 10.34 7.10999 10.39 7.42999 10.52V11.43C7.12999 11.27 6.80003 11.19 6.47003 11.18C6.27003 11.18 6.13 11.24 6.13 11.39C6.13 11.82 7.60004 11.62 7.60004 12.77V12.76ZM11.77 10.4H12.74V13.79H11.77V10.4ZM11.77 9.29999L12.74 9.10001V9.89001L11.77 10.1V9.31V9.29999ZM14.76 10.34C14.48 10.34 14.21 10.45 14 10.64L13.98 10.4H13.1V14.9L14.07 14.7V13.61C14.21 13.71 14.42 13.85 14.75 13.85C15.44 13.85 16.07 13.29 16.07 12.07C16.07 10.94 15.43 10.33 14.75 10.33L14.76 10.34ZM14.53 13C14.3 13 14.17 12.92 14.07 12.82V11.38C14.17 11.27 14.3 11.19 14.53 11.19C14.88 11.19 15.13 11.59 15.13 12.09C15.13 12.59 14.89 13 14.53 13ZM17.75 10.34C16.83 10.34 16.27 11.12 16.27 12.1C16.27 13.27 16.93 13.85 17.87 13.85C18.24 13.87 18.62 13.78 18.94 13.59V12.81C18.68 12.95 18.37 13.03 17.99 13.03C17.61 13.03 17.28 12.88 17.24 12.43H19.13C19.13 12.38 19.14 12.18 19.14 12.08C19.14 11.09 18.66 10.32 17.74 10.32L17.75 10.34ZM17.24 11.73C17.24 11.3 17.51 11.12 17.75 11.12C17.99 11.12 18.24 11.29 18.24 11.73H17.24Z" />
</svg>
