<svg viewBox="0 0 24 24" fill="currentColor" stroke="currentColor" xmlns="http://www.w3.org/2000/svg">
<path d="M17 16.71H15.41C14.68 16.71 14.34 16.54 14.34 15.59V11.69H16.87C17.28 11.69 17.62 11.35 17.62 10.94V7.58C17.62 7.17 17.28 6.83 16.87 6.83H14.34V3C14.34 2.59 14 2.25 13.59 2.25H10.78C10.38 2.25 10.06 2.56 10.03 2.95C9.94 4.29 9.41 6.65001 6.81 7.32001C6.48 7.41001 6.25 7.7 6.25 8.05V10.94C6.25 11.35 6.59 11.69 7 11.69H8.51999V16.28C8.51999 19.71 10.57 21.75 14 21.75H17.01C17.42 21.75 17.76 21.41 17.76 21V17.46C17.76 17.05 17.42 16.71 17.01 16.71H17ZM16.25 20.25H13.99C12.18 20.25 10.01 19.56 10.01 16.28V10.94C10.01 10.53 9.67001 10.19 9.26001 10.19H7.73999V8.60001C9.77999 7.86001 11.09 6.14 11.44 3.75H12.83V7.58C12.83 7.99 13.17 8.33 13.58 8.33H16.11V10.19H13.58C13.17 10.19 12.83 10.53 12.83 10.94V15.59C12.83 17.28 13.74 18.21 15.4 18.21H16.24V20.25H16.25Z" />
</svg>
