<svg viewBox="0 0 24 24" fill="currentColor" stroke="currentColor" xmlns="http://www.w3.org/2000/svg">
<path d="M18 4.25H6C3.58 4.25 2.25 5.58 2.25 8V16C2.25 18.42 3.58 19.75 6 19.75H18C20.42 19.75 21.75 18.42 21.75 16V8C21.75 5.58 20.42 4.25 18 4.25ZM20.25 16C20.25 17.58 19.58 18.25 18 18.25H6C4.42 18.25 3.75 17.58 3.75 16V8C3.75 6.42 4.42 5.75 6 5.75H18C19.58 5.75 20.25 6.42 20.25 8V16ZM11.79 9.95999L11.13 14.03H10.08L10.74 9.95999H11.79ZM10.31 9.95999L8.64999 14.03H7.54001L6.60001 10.49C6.28001 10.3 5.90999 10.15 5.48999 10.04L5.51001 9.95999H7.20999C7.43999 9.96999 7.63 10.04 7.69 10.3L8.06 12.17L8.17001 12.73L9.20001 9.95001H10.31V9.95999ZM14.79 12.7C14.79 13.54 14.06 14.09 12.96 14.09C12.49 14.09 12.03 13.99 11.79 13.87L11.94 12.96L12.08 13.03C12.42 13.18 12.65 13.25 13.07 13.25C13.37 13.25 13.7 13.12 13.7 12.85C13.7 12.67 13.56 12.54 13.15 12.34C12.75 12.14 12.22 11.82 12.23 11.23C12.23 10.44 12.97 9.88 14.01 9.88C14.42 9.88 14.75 9.96999 14.95 10.05L14.81 10.93L14.72 10.89C14.53 10.81 14.28 10.73 13.94 10.74C13.53 10.74 13.34 10.92 13.33 11.09C13.33 11.28 13.56 11.41 13.92 11.59C14.53 11.88 14.81 12.23 14.8 12.7H14.79ZM16.83 9.95999C16.58 9.95999 16.39 10.03 16.28 10.3L14.72 14.03H15.83C15.83 14.03 16.01 13.53 16.05 13.42H17.4C17.43 13.56 17.53 14.03 17.53 14.03H18.5L17.65 9.95999H16.83ZM16.35 12.59C16.44 12.36 16.77 11.45 16.77 11.45C16.77 11.45 16.86 11.21 16.91 11.06L16.98 11.41C16.98 11.41 17.18 12.38 17.22 12.59H16.34H16.35Z" />
</svg>
