<svg viewBox="0 0 24 24" fill="currentColor" stroke="currentColor" xmlns="http://www.w3.org/2000/svg">
<path fill-rule="evenodd" clip-rule="evenodd" d="M21.75 14.8C21.75 12.14 19.54 9.93001 16.65 9.48001C16.04 6.45001 13.06 4.25 9.50999 4.25C5.50999 4.25 2.25 7.09 2.25 10.59C2.25 12.38 3.12 14.08 4.64 15.29L4.35001 16.45C4.34001 16.5 4.33 16.55 4.33 16.61C4.33 17.15 4.76 17.58 5.3 17.58C5.38 17.58 5.46 17.57 5.53 17.54L5.66 17.5C5.71 17.48 5.76 17.46 5.81 17.43L7.17999 16.59H7.22C7.96 16.81 8.73 16.92 9.53 16.92H9.89999C10.84 18.84 13.03 20.2 15.58 20.2C16.26 20.2 16.92 20.1 17.47 19.94L18.6 20.61C18.65 20.64 18.7 20.66 18.75 20.68L18.85 20.71C18.93 20.74 19.01 20.75 19.09 20.75C19.6 20.75 20.02 20.33 20.02 19.81C20.02 19.76 20.02 19.7 20 19.65L19.77 18.76C21.03 17.74 21.75 16.3 21.75 14.79V14.8ZM9.41 14.8C9.41 15.01 9.43 15.22 9.45 15.42C8.82 15.42 8.19 15.33 7.59 15.15C7.56 15.15 7.52001 15.13 7.49001 15.13L7.3 15.1C7.01 15.06 6.72001 15.14 6.46001 15.3L6.13 15.5L6.17 15.3C6.17 15.3 6.17 15.22 6.17 15.18C6.17 14.8 5.99 14.43 5.69 14.21C4.45 13.29 3.74001 11.97 3.74001 10.59C3.74001 7.92 6.32 5.75 9.5 5.75C12.13 5.75 14.42 7.3 15.06 9.41C11.9 9.64 9.39999 11.96 9.39999 14.79L9.41 14.8ZM18.68 17.72C18.39 17.93 18.22 18.27 18.22 18.63V18.65L18.17 18.62C17.92 18.47 17.65 18.4 17.38 18.44L17.13 18.49C16.63 18.64 16.1 18.71 15.57 18.71C12.99 18.71 10.9 16.96 10.9 14.8C10.9 12.64 13 10.89 15.57 10.89C18.14 10.89 20.24 12.64 20.24 14.8C20.24 15.91 19.67 16.97 18.67 17.72H18.68ZM14.49 13.52C14.49 13.92 14.17 14.24 13.77 14.24C13.37 14.24 13.05 13.92 13.05 13.52C13.05 13.12 13.37 12.8 13.77 12.8C14.17 12.8 14.49 13.12 14.49 13.52ZM18.1 13.52C18.1 13.92 17.78 14.24 17.38 14.24C16.98 14.24 16.66 13.92 16.66 13.52C16.66 13.12 16.98 12.8 17.38 12.8C17.78 12.8 18.1 13.12 18.1 13.52ZM8.2 9.16C8.2 9.64 7.81 10.03 7.33 10.03C6.85 10.03 6.46001 9.64 6.46001 9.16C6.46001 8.68 6.85 8.29001 7.33 8.29001C7.81 8.29001 8.2 8.68 8.2 9.16ZM12.54 9.16C12.54 9.64 12.15 10.03 11.67 10.03C11.19 10.03 10.8 9.64 10.8 9.16C10.8 8.68 11.19 8.29001 11.67 8.29001C12.15 8.29001 12.54 8.68 12.54 9.16Z" />
</svg>
