<svg viewBox="0 0 24 24" fill="currentColor" stroke="currentColor" xmlns="http://www.w3.org/2000/svg">
<path d="M12 1.25C6.07 1.25 1.25 6.07 1.25 12C1.25 17.93 6.07 22.75 12 22.75C17.93 22.75 22.75 17.93 22.75 12C22.75 6.07 17.93 1.25 12 1.25ZM12 2.75C14.21 2.75 16.24 3.53 17.83 4.83C17.3 5.14 16.97 5.74 16.97 6.37C16.97 7.19 17.44 7.9 17.96 8.73C18.34 9.39 18.78 10.25 18.78 11.5C18.78 12.36 18.45 13.36 18.02 14.75L17.01 18.1L13.38 7.28999C14 7.25999 14.54 7.2 14.54 7.2C15.09 7.14 15.01 6.35 14.47 6.37C14.47 6.37 12.85 6.50999 11.81 6.50999C10.77 6.50999 9.16 6.37 9.16 6.37C8.62 6.35 8.56001 7.18001 9.10001 7.21001C9.45001 7.25001 9.80999 7.27999 10.15 7.28999L11.72 11.58L9.52 18.17L5.85001 7.28999C6.47001 7.26999 7.00999 7.2 7.00999 7.2C7.55999 7.14 7.49 6.35 6.95 6.37C6.95 6.37 5.64 6.48 4.61 6.5C6.3 4.24 8.99 2.75999 12.02 2.75999L12 2.75ZM2.75 12C2.75 10.97 2.93001 9.98 3.24001 9.05L7.2 19.89C4.54 18.26 2.75 15.34 2.75 12ZM9.42999 20.88L12.18 12.88L15.05 20.72C14.09 21.05 13.07 21.25 12 21.25C11.11 21.25 10.25 21.12 9.42999 20.88ZM17.48 19.43L20.12 11.81C20.48 10.96 20.69 10.06 20.79 9.14999C21.08 10.05 21.24 11 21.24 12C21.24 15.05 19.75 17.74 17.48 19.43Z" />
</svg>
