<svg viewBox="0 0 24 24" fill="currentColor" stroke="currentColor" xmlns="http://www.w3.org/2000/svg">
<path d="M18 2.25H6C3.582 2.25 2.25 3.582 2.25 6V18C2.25 20.418 3.582 21.75 6 21.75H18C20.418 21.75 21.75 20.418 21.75 18V6C21.75 3.582 20.418 2.25 18 2.25ZM6 3.75H18C19.577 3.75 20.25 4.423 20.25 6V11.25H3.75V6C3.75 4.423 4.423 3.75 6 3.75ZM18 20.25H6C4.423 20.25 3.75 19.577 3.75 18V12.75H20.25V18C20.25 19.577 19.577 20.25 18 20.25ZM10.75 8C10.75 7.31 11.31 6.75 12 6.75C12.69 6.75 13.25 7.31 13.25 8C13.25 8.69 12.69 9.25 12 9.25C11.31 9.25 10.75 8.69 10.75 8ZM13.25 16C13.25 16.69 12.69 17.25 12 17.25C11.31 17.25 10.75 16.69 10.75 16C10.75 15.31 11.31 14.75 12 14.75C12.69 14.75 13.25 15.31 13.25 16Z" />
</svg>
