<svg viewBox="0 0 24 24" fill="currentColor" stroke="currentColor" xmlns="http://www.w3.org/2000/svg">
<path d="M8 16.75C7.808 16.75 7.61597 16.677 7.46997 16.53C7.17697 16.237 7.17697 15.762 7.46997 15.469L15.47 7.46899C15.763 7.17599 16.238 7.17599 16.531 7.46899C16.824 7.76199 16.824 8.23703 16.531 8.53003L8.53101 16.53C8.38401 16.677 8.192 16.75 8 16.75ZM16.75 14.75C16.75 13.647 15.853 12.75 14.75 12.75C13.647 12.75 12.75 13.647 12.75 14.75C12.75 15.853 13.647 16.75 14.75 16.75C15.853 16.75 16.75 15.853 16.75 14.75ZM15.25 14.75C15.25 15.026 15.026 15.25 14.75 15.25C14.474 15.25 14.25 15.026 14.25 14.75C14.25 14.474 14.474 14.25 14.75 14.25C15.026 14.25 15.25 14.474 15.25 14.75ZM11.25 9.25C11.25 8.147 10.353 7.25 9.25 7.25C8.147 7.25 7.25 8.147 7.25 9.25C7.25 10.353 8.147 11.25 9.25 11.25C10.353 11.25 11.25 10.353 11.25 9.25ZM9.75 9.25C9.75 9.526 9.526 9.75 9.25 9.75C8.974 9.75 8.75 9.526 8.75 9.25C8.75 8.974 8.974 8.75 9.25 8.75C9.526 8.75 9.75 8.974 9.75 9.25ZM22.75 12C22.75 6.072 17.928 1.25 12 1.25C6.072 1.25 1.25 6.072 1.25 12C1.25 17.928 6.072 22.75 12 22.75C17.928 22.75 22.75 17.928 22.75 12ZM21.25 12C21.25 17.101 17.101 21.25 12 21.25C6.899 21.25 2.75 17.101 2.75 12C2.75 6.899 6.899 2.75 12 2.75C17.101 2.75 21.25 6.899 21.25 12Z" />
</svg>
