<svg viewBox="0 0 24 24" fill="currentColor" stroke="currentColor" xmlns="http://www.w3.org/2000/svg">
<path d="M21 2.25H3C2.586 2.25 2.25 2.586 2.25 3C2.25 3.414 2.586 3.75 3 3.75H3.75V13C3.75 15.418 5.082 16.75 7.5 16.75H11.25V18.599L8.58398 20.376C8.23898 20.606 8.14598 21.071 8.37598 21.416C8.60498 21.761 9.07102 21.854 9.41602 21.624L12 19.901L14.584 21.624C14.712 21.709 14.856 21.75 15 21.75C15.242 21.75 15.48 21.633 15.625 21.416C15.855 21.071 15.762 20.606 15.417 20.376L12.751 18.599V16.75H16.501C18.919 16.75 20.251 15.418 20.251 13V3.75H21C21.414 3.75 21.75 3.414 21.75 3C21.75 2.586 21.414 2.25 21 2.25ZM18.75 13C18.75 14.577 18.077 15.25 16.5 15.25H7.5C5.923 15.25 5.25 14.577 5.25 13V3.75H18.75V13ZM12.006 9.55005C13.329 9.55005 14.406 8.47302 14.406 7.15002C14.406 5.82702 13.329 4.75 12.006 4.75C10.682 4.75 9.60602 5.82702 9.60602 7.15002C9.60602 8.47302 10.683 9.55005 12.006 9.55005ZM12.006 6.25C12.502 6.25 12.906 6.65402 12.906 7.15002C12.906 7.64602 12.502 8.05005 12.006 8.05005C11.509 8.05005 11.106 7.64602 11.106 7.15002C11.106 6.65402 11.51 6.25 12.006 6.25ZM8.25 13.5V13.197C8.25 11.733 9.31697 10.25 11.358 10.25H12.642C14.683 10.25 15.75 11.732 15.75 13.197V13.5C15.75 13.914 15.414 14.25 15 14.25C14.586 14.25 14.25 13.914 14.25 13.5V13.197C14.25 12.477 13.753 11.75 12.642 11.75H11.358C10.247 11.75 9.75 12.477 9.75 13.197V13.5C9.75 13.914 9.414 14.25 9 14.25C8.586 14.25 8.25 13.914 8.25 13.5Z" />
</svg>
