<svg viewBox="0 0 24 24" fill="currentColor" stroke="currentColor" xmlns="http://www.w3.org/2000/svg">
<path d="M21 2.25H3C2.586 2.25 2.25 2.586 2.25 3C2.25 3.414 2.586 3.75 3 3.75H3.75V13C3.75 15.418 5.082 16.75 7.5 16.75H11.25V18.599L8.584 20.376C8.239 20.606 8.14601 21.071 8.37601 21.416C8.60501 21.761 9.07 21.854 9.416 21.624L12 19.901L14.584 21.624C14.712 21.709 14.856 21.75 15 21.75C15.242 21.75 15.48 21.633 15.625 21.416C15.855 21.071 15.762 20.606 15.417 20.376L12.751 18.599V16.75H16.501C18.919 16.75 20.251 15.418 20.251 13V3.75H21C21.414 3.75 21.75 3.414 21.75 3C21.75 2.586 21.414 2.25 21 2.25ZM18.75 13C18.75 14.577 18.077 15.25 16.5 15.25H7.5C5.923 15.25 5.25 14.577 5.25 13V3.75H18.75V13ZM7.47 11.63C7.177 11.337 7.177 10.862 7.47 10.569L9.702 8.33704C10.307 7.73304 11.29 7.73306 11.893 8.33606L13.164 9.60498L15.47 7.37C15.763 7.07699 16.238 7.07699 16.531 7.37C16.824 7.663 16.824 8.13803 16.531 8.43103L14.296 10.666C13.693 11.27 12.71 11.271 12.106 10.668L10.835 9.39905L8.532 11.631C8.386 11.777 8.194 11.851 8.002 11.851C7.81 11.851 7.616 11.777 7.47 11.63Z" />
</svg>
