<svg viewBox="0 0 24 24" fill="currentColor" stroke="currentColor" xmlns="http://www.w3.org/2000/svg">
<path d="M21 2.25H3C2.586 2.25 2.25 2.586 2.25 3C2.25 3.414 2.586 3.75 3 3.75H3.75V13C3.75 15.418 5.082 16.75 7.5 16.75H11.25V18.599L8.584 20.376C8.239 20.606 8.14601 21.071 8.37601 21.416C8.60501 21.761 9.07 21.854 9.416 21.624L12 19.901L14.584 21.624C14.712 21.709 14.856 21.75 15 21.75C15.242 21.75 15.48 21.633 15.625 21.416C15.855 21.071 15.762 20.606 15.417 20.376L12.751 18.599V16.75H16.501C18.919 16.75 20.251 15.418 20.251 13V3.75H21C21.414 3.75 21.75 3.414 21.75 3C21.75 2.586 21.414 2.25 21 2.25ZM18.75 13C18.75 14.577 18.077 15.25 16.5 15.25H7.5C5.923 15.25 5.25 14.577 5.25 13V3.75H18.75V13ZM7.47 11.874C7.177 11.581 7.177 11.106 7.47 10.813L9.49699 8.78601C10.059 8.22401 10.974 8.22401 11.535 8.78601L12.714 9.96497L14.227 8.40698H13.5C13.086 8.40698 12.75 8.07098 12.75 7.65698C12.75 7.24298 13.086 6.90698 13.5 6.90698H16C16.098 6.90698 16.195 6.92697 16.287 6.96497C16.47 7.04097 16.616 7.18697 16.692 7.37097C16.73 7.46297 16.75 7.55996 16.75 7.65796V10.158C16.75 10.572 16.414 10.908 16 10.908C15.586 10.908 15.25 10.572 15.25 10.158V9.46899L13.692 11.027C13.13 11.589 12.215 11.589 11.654 11.027L10.475 9.84802L8.53101 11.875C8.38501 12.021 8.19301 12.095 8.00101 12.095C7.80901 12.095 7.616 12.02 7.47 11.874Z" />
</svg>
