<svg viewBox="0 0 24 24" fill="currentColor" stroke="currentColor" xmlns="http://www.w3.org/2000/svg">
<path d="M21 14.5H19.5V9.5H21C21.276 9.5 21.5 9.276 21.5 9C21.5 8.724 21.276 8.5 21 8.5H19.5V6C19.5 3.71 18.29 2.5 16 2.5H6C3.71 2.5 2.5 3.71 2.5 6V18C2.5 20.29 3.71 21.5 6 21.5H16C18.29 21.5 19.5 20.29 19.5 18V15.5H21C21.276 15.5 21.5 15.276 21.5 15C21.5 14.724 21.276 14.5 21 14.5ZM18.5 18C18.5 19.729 17.729 20.5 16 20.5H6C4.271 20.5 3.5 19.729 3.5 18V6C3.5 4.271 4.271 3.5 6 3.5H16C17.729 3.5 18.5 4.271 18.5 6V18ZM11 11.5C12.379 11.5 13.5 10.378 13.5 9C13.5 7.622 12.379 6.5 11 6.5C9.621 6.5 8.5 7.622 8.5 9C8.5 10.378 9.621 11.5 11 11.5ZM11 7.5C11.827 7.5 12.5 8.173 12.5 9C12.5 9.827 11.827 10.5 11 10.5C10.173 10.5 9.5 9.827 9.5 9C9.5 8.173 10.173 7.5 11 7.5ZM15.5 16.36V17C15.5 17.276 15.276 17.5 15 17.5C14.724 17.5 14.5 17.276 14.5 17V16.36C14.5 15.223 13.6741 14 11.8601 14H10.1389C8.32592 14 7.49902 15.223 7.49902 16.36V17C7.49902 17.276 7.27502 17.5 6.99902 17.5C6.72302 17.5 6.49902 17.276 6.49902 17V16.36C6.49902 14.69 7.74892 13 10.1389 13H11.8601C14.2501 13 15.5 14.69 15.5 16.36Z" />
</svg>
