<svg viewBox="0 0 24 24" fill="currentColor" stroke="currentColor" xmlns="http://www.w3.org/2000/svg">
<path d="M12 2.5C6.762 2.5 2.5 6.762 2.5 12C2.5 17.238 6.762 21.5 12 21.5C12.276 21.5 12.5 21.276 12.5 21C12.5 20.724 12.276 20.5 12 20.5C7.313 20.5 3.5 16.687 3.5 12C3.5 7.313 7.313 3.5 12 3.5C16.687 3.5 20.5 7.313 20.5 12C20.5 13.799 19.285 15.5 18 15.5C17.077 15.5 16 14.845 16 13V8.5C16 8.224 15.776 8 15.5 8C15.224 8 15 8.224 15 8.5V9.38199C14.266 8.54199 13.2 8 12 8C9.794 8 8 9.794 8 12C8 14.206 9.794 16 12 16C13.32 16 14.4819 15.35 15.2109 14.362C15.6759 15.814 16.866 16.5 18 16.5C19.864 16.5 21.5 14.397 21.5 12C21.5 6.762 17.238 2.5 12 2.5ZM12 15C10.346 15 9 13.654 9 12C9 10.346 10.346 9 12 9C13.654 9 15 10.346 15 12C15 13.654 13.654 15 12 15Z" />
</svg>
