<svg viewBox="0 0 24 24" fill="currentColor" stroke="currentColor" xmlns="http://www.w3.org/2000/svg">
<path d="M12.802 12.451L17.3349 8.37201C17.4369 8.28001 17.496 8.15101 17.5 8.01401C17.504 7.87701 17.45 7.74401 17.354 7.64701L12.354 2.64701C12.211 2.50401 11.9961 2.46201 11.8091 2.53901C11.6221 2.61601 11.5 2.79901 11.5 3.00101V11.541L7.28709 8.59202C7.05909 8.43502 6.74805 8.488 6.59105 8.715C6.43205 8.941 6.48687 9.25302 6.71287 9.41102L11.198 12.55L6.66502 16.629C6.46002 16.814 6.44291 17.13 6.62791 17.335C6.81391 17.54 7.12894 17.557 7.33494 17.372L11.5 13.623V21C11.5 21.202 11.6221 21.385 11.8091 21.462C11.8711 21.488 11.936 21.5 12 21.5C12.13 21.5 12.258 21.449 12.354 21.354L17.354 16.354C17.458 16.25 17.511 16.104 17.499 15.957C17.487 15.81 17.4091 15.676 17.2881 15.591L12.802 12.451ZM12.5 4.20701L16.2729 7.98099L12.5 11.377V4.20701ZM12.5 19.793V13.46L16.2251 16.067L12.5 19.793Z" />
</svg>
