<svg viewBox="0 0 24 24" fill="currentColor" stroke="currentColor" xmlns="http://www.w3.org/2000/svg">
<path d="M18 5.5H9C8.474 5.5 7.95794 5.714 7.58594 6.086L3.08594 10.586C2.70794 10.964 2.5 11.466 2.5 12C2.5 12.534 2.70794 13.036 3.08594 13.414L7.58594 17.914C7.95794 18.286 8.474 18.5 9 18.5H18C20.29 18.5 21.5 17.29 21.5 15V9C21.5 6.71 20.29 5.5 18 5.5ZM20.5 15C20.5 16.729 19.729 17.5 18 17.5H9C8.736 17.5 8.47897 17.393 8.29297 17.207L3.79297 12.707C3.60497 12.518 3.5 12.267 3.5 12C3.5 11.733 3.60397 11.482 3.79297 11.293L8.29297 6.793C8.47997 6.607 8.736 6.5 9 6.5H18C19.729 6.5 20.5 7.271 20.5 9V15ZM16.354 10.354L14.708 12L16.354 13.646C16.549 13.841 16.549 14.158 16.354 14.353C16.256 14.451 16.128 14.499 16 14.499C15.872 14.499 15.744 14.45 15.646 14.353L14 12.707L12.354 14.353C12.256 14.451 12.128 14.499 12 14.499C11.872 14.499 11.744 14.45 11.646 14.353C11.451 14.158 11.451 13.841 11.646 13.646L13.292 12L11.646 10.354C11.451 10.159 11.451 9.842 11.646 9.647C11.841 9.452 12.158 9.452 12.353 9.647L13.999 11.293L15.645 9.647C15.84 9.452 16.1571 9.452 16.3521 9.647C16.5471 9.842 16.549 10.158 16.354 10.354Z" />
</svg>
