<svg viewBox="0 0 24 24" fill="currentColor" stroke="currentColor" xmlns="http://www.w3.org/2000/svg">
<path d="M20.9141 10.586L16.4141 6.086C16.0421 5.714 15.526 5.5 15 5.5H6C3.71 5.5 2.5 6.71 2.5 9V15C2.5 17.29 3.71 18.5 6 18.5H15C15.526 18.5 16.0421 18.286 16.4141 17.914L20.9141 13.414C21.2921 13.036 21.5 12.534 21.5 12C21.5 11.466 21.2921 10.964 20.9141 10.586ZM20.207 12.707L15.707 17.207C15.52 17.393 15.264 17.5 15 17.5H6C4.271 17.5 3.5 16.729 3.5 15V9C3.5 7.271 4.271 6.5 6 6.5H15C15.264 6.5 15.521 6.607 15.707 6.793L20.207 11.293C20.395 11.482 20.5 11.733 20.5 12C20.5 12.267 20.396 12.518 20.207 12.707ZM12.354 10.354L10.708 12L12.354 13.646C12.549 13.841 12.549 14.158 12.354 14.353C12.256 14.451 12.128 14.499 12 14.499C11.872 14.499 11.744 14.45 11.646 14.353L10 12.707L8.354 14.353C8.256 14.451 8.128 14.499 8 14.499C7.872 14.499 7.744 14.45 7.646 14.353C7.451 14.158 7.451 13.841 7.646 13.646L9.29199 12L7.646 10.354C7.451 10.159 7.451 9.842 7.646 9.647C7.841 9.452 8.15803 9.452 8.35303 9.647L9.99902 11.293L11.645 9.647C11.84 9.452 12.1571 9.452 12.3521 9.647C12.5471 9.842 12.549 10.158 12.354 10.354Z" />
</svg>
