<svg viewBox="0 0 24 24" fill="currentColor" stroke="currentColor" xmlns="http://www.w3.org/2000/svg">
<path d="M12.5 19C12.5 19.276 12.276 19.5 12 19.5H5C2.71 19.5 1.5 18.29 1.5 16V7C1.5 4.71 2.71 3.5 5 3.5H17C19.29 3.5 20.5 4.71 20.5 7V11C20.5 11.276 20.276 11.5 20 11.5C19.724 11.5 19.5 11.276 19.5 11V7C19.5 5.271 18.729 4.5 17 4.5H5C3.271 4.5 2.5 5.271 2.5 7V16C2.5 17.729 3.271 18.5 5 18.5H12C12.276 18.5 12.5 18.724 12.5 19ZM16.2061 7.59599L11.2939 11.168C11.1179 11.296 10.8821 11.295 10.7061 11.168L5.79395 7.59599C5.57095 7.43399 5.25895 7.48199 5.09595 7.70599C4.93395 7.92899 4.98305 8.24201 5.20605 8.40401L10.1179 11.976C10.3819 12.168 10.69 12.264 11 12.264C11.309 12.264 11.6181 12.168 11.8821 11.976L16.7939 8.40401C17.0179 8.24201 17.0661 7.92899 16.9041 7.70599C16.7411 7.48199 16.4281 7.43399 16.2061 7.59599ZM22.228 17.696L21.0129 18.854L21.2891 20.435C21.3491 20.775 21.2131 21.114 20.9341 21.32C20.7711 21.44 20.5799 21.5 20.3879 21.5C20.2439 21.5 20.0991 21.466 19.9651 21.397L18.4519 20.619L17.0359 21.396C16.7239 21.558 16.3499 21.527 16.0669 21.319C15.7879 21.113 15.6509 20.774 15.7109 20.433L15.9871 18.854L14.7729 17.696C14.5269 17.462 14.438 17.115 14.542 16.793C14.646 16.468 14.9229 16.236 15.2639 16.188L16.9519 15.948L17.6809 14.504C17.9929 13.883 19.009 13.883 19.322 14.504L20.051 15.948L21.739 16.188C22.08 16.236 22.3559 16.468 22.4609 16.793C22.5619 17.116 22.473 17.462 22.228 17.696ZM21.3569 17.144L19.8521 16.93C19.5651 16.889 19.3151 16.711 19.1831 16.453L18.4761 15.05L17.8169 16.451C17.6839 16.711 17.434 16.889 17.147 16.93L15.6421 17.144L16.7229 18.175C16.9359 18.379 17.0339 18.673 16.9839 18.961L16.7261 20.431L18.0901 19.729C18.2181 19.664 18.359 19.63 18.499 19.63C18.639 19.63 18.78 19.663 18.908 19.729L20.272 20.431L20.0149 18.961C19.9639 18.671 20.0619 18.378 20.2739 18.175L21.3569 17.144Z" />
</svg>
