<svg viewBox="0 0 24 24" fill="currentColor" stroke="currentColor" xmlns="http://www.w3.org/2000/svg">
<path d="M12.5 19C12.5 19.276 12.276 19.5 12 19.5H5C2.71 19.5 1.5 18.29 1.5 16V7C1.5 4.71 2.71 3.5 5 3.5H17C19.29 3.5 20.5 4.71 20.5 7V11C20.5 11.276 20.276 11.5 20 11.5C19.724 11.5 19.5 11.276 19.5 11V7C19.5 5.271 18.729 4.5 17 4.5H5C3.271 4.5 2.5 5.271 2.5 7V16C2.5 17.729 3.271 18.5 5 18.5H12C12.276 18.5 12.5 18.724 12.5 19ZM16.2061 7.59599L11.2939 11.168C11.1179 11.296 10.8821 11.295 10.7061 11.168L5.79395 7.59599C5.57095 7.43399 5.25795 7.48199 5.09595 7.70599C4.93395 7.92899 4.98305 8.24201 5.20605 8.40401L10.1179 11.976C10.3819 12.168 10.69 12.264 11 12.264C11.309 12.264 11.6181 12.168 11.8821 11.976L16.7939 8.40401C17.0179 8.24201 17.0661 7.92899 16.9041 7.70599C16.7421 7.48199 16.4291 7.43399 16.2061 7.59599ZM21.783 17.502C21.784 17.735 21.9159 17.956 22.1289 18.076C22.2779 18.16 22.3889 18.301 22.4319 18.465C22.4659 18.596 22.4321 18.831 22.3621 18.947L21.6951 20.067C21.5151 20.364 21.1401 20.463 20.8391 20.294C20.6161 20.17 20.343 20.17 20.124 20.294C19.91 20.414 19.7781 20.634 19.7781 20.868C19.7781 21.216 19.494 21.499 19.144 21.499H17.8081C17.4581 21.499 17.1731 21.216 17.1731 20.868C17.1741 20.634 17.0421 20.414 16.8291 20.294H16.8279C16.6089 20.17 16.336 20.169 16.113 20.293C15.809 20.463 15.4341 20.361 15.2581 20.067L14.5891 18.943C14.5211 18.828 14.487 18.593 14.521 18.464C14.564 18.301 14.673 18.16 14.821 18.076C15.038 17.954 15.1709 17.732 15.1699 17.497C15.1689 17.263 15.036 17.043 14.823 16.923C14.676 16.84 14.566 16.699 14.522 16.537C14.487 16.408 14.5189 16.173 14.5869 16.057L15.2581 14.932C15.4291 14.64 15.815 14.537 16.113 14.705C16.334 14.829 16.6071 14.829 16.8301 14.704C17.0421 14.584 17.1741 14.365 17.1741 14.13C17.1741 13.782 17.4591 13.499 17.8091 13.499H19.1431C19.4931 13.499 19.7781 13.782 19.7781 14.13C19.7781 14.364 19.91 14.584 20.123 14.704C20.346 14.829 20.6191 14.829 20.8401 14.705L20.9551 14.64C21.1901 14.509 21.4889 14.587 21.6289 14.821L22.4309 16.167C22.4999 16.283 22.5191 16.422 22.4851 16.552C22.4501 16.682 22.3641 16.793 22.2461 16.859L22.1299 16.924C21.9159 17.044 21.783 17.266 21.783 17.502ZM20.783 17.503C20.783 17.032 20.9861 16.588 21.3301 16.275L20.999 15.719C20.549 15.86 20.0491 15.812 19.6311 15.575C19.2161 15.342 18.9251 14.948 18.8201 14.5H18.1311C18.0271 14.948 17.7351 15.342 17.3201 15.576C16.9021 15.811 16.4019 15.859 15.9529 15.719L15.6211 16.276C15.9641 16.588 16.1669 17.029 16.1689 17.495C16.1699 17.967 15.9671 18.412 15.6221 18.725L15.9529 19.281C16.4019 19.141 16.9021 19.189 17.3191 19.425C17.7351 19.659 18.0261 20.053 18.1311 20.501H18.8201C18.9241 20.053 19.2161 19.659 19.6321 19.425C20.0491 19.189 20.545 19.14 20.999 19.282L21.3301 18.725C20.9871 18.412 20.784 17.97 20.783 17.503ZM18.5039 16.75H18.489C18.077 16.75 17.75 17.086 17.75 17.5C17.75 17.914 18.0929 18.25 18.5039 18.25C18.9169 18.25 19.25 17.914 19.25 17.5C19.25 17.086 18.9159 16.75 18.5039 16.75Z" />
</svg>
