<svg viewBox="0 0 24 24" fill="currentColor" stroke="currentColor" xmlns="http://www.w3.org/2000/svg">
<path d="M12.5 19C12.5 19.276 12.276 19.5 12 19.5H5C2.71 19.5 1.5 18.29 1.5 16V7C1.5 4.71 2.71 3.5 5 3.5H17C19.29 3.5 20.5 4.71 20.5 7V11C20.5 11.276 20.276 11.5 20 11.5C19.724 11.5 19.5 11.276 19.5 11V7C19.5 5.271 18.729 4.5 17 4.5H5C3.271 4.5 2.5 5.271 2.5 7V16C2.5 17.729 3.271 18.5 5 18.5H12C12.276 18.5 12.5 18.724 12.5 19ZM16.2061 7.59599L11.2939 11.168C11.1179 11.296 10.8821 11.295 10.7061 11.168L5.79395 7.59599C5.57095 7.43399 5.25895 7.48199 5.09595 7.70599C4.93395 7.92899 4.98305 8.24201 5.20605 8.40401L10.1179 11.976C10.3819 12.168 10.69 12.264 11 12.264C11.309 12.264 11.6181 12.168 11.8821 11.976L16.7939 8.40401C17.0179 8.24201 17.0661 7.92899 16.9041 7.70599C16.7411 7.48199 16.4281 7.43399 16.2061 7.59599ZM22.4241 17.451C21.9241 19.989 18.8351 21.397 18.7041 21.456C18.6401 21.485 18.569 21.5 18.5 21.5C18.431 21.5 18.3599 21.485 18.2959 21.456C18.1649 21.397 15.076 19.989 14.575 17.451C14.376 16.442 14.569 15.489 15.105 14.834C15.548 14.292 16.1869 14.003 16.9509 14C16.9539 14 16.9579 14 16.9619 14C17.6919 14 18.186 14.341 18.5 14.696C18.814 14.341 19.3081 14 20.0381 14C20.0421 14 20.0461 14 20.0491 14C20.8141 14.004 21.452 14.292 21.897 14.834C22.431 15.488 22.6231 16.442 22.4241 17.451ZM21.1221 15.468C20.8701 15.159 20.5079 15.002 20.0449 15C20.0429 15 20.0411 15 20.0391 15C19.2681 15 18.9839 15.773 18.9729 15.807C18.9019 16.006 18.712 16.141 18.501 16.141C18.499 16.141 18.4981 16.141 18.4971 16.141C18.2841 16.139 18.0949 16.005 18.0259 15.803C18.0149 15.774 17.7309 15 16.9609 15C16.9589 15 16.9571 15 16.9551 15C16.4931 15.002 16.1309 15.16 15.8789 15.468C15.5379 15.885 15.4169 16.554 15.5559 17.258C15.8919 18.956 17.856 20.107 18.5 20.443C19.145 20.107 21.1081 18.957 21.4431 17.258C21.5821 16.553 21.4621 15.884 21.1221 15.468Z" />
</svg>
