<svg viewBox="0 0 24 24" fill="currentColor" stroke="currentColor" xmlns="http://www.w3.org/2000/svg">
<path d="M18.3301 3.5H7.66992C5.68192 3.5 4.57096 4.572 4.51196 6.511C2.57296 6.57 1.50098 7.67901 1.50098 9.66701V17.333C1.50098 19.375 2.62597 20.5 4.66797 20.5H15.334C17.321 20.5 18.431 19.428 18.49 17.488C20.429 17.428 21.501 16.318 21.501 14.33V6.67C21.5 4.626 20.3741 3.5 18.3301 3.5ZM17.5 17.333C17.5 18.832 16.832 19.5 15.333 19.5H4.66699C3.16799 19.5 2.5 18.832 2.5 17.333V9.66701C2.5 8.16801 3.16799 7.5 4.66699 7.5H15.333C16.832 7.5 17.5 8.16801 17.5 9.66701V17.333ZM20.5 14.33C20.5 15.77 19.876 16.437 18.5 16.49V9.66701C18.5 7.62501 17.375 6.5 15.333 6.5H5.51001C5.56201 5.125 6.22892 4.5 7.66992 4.5H18.3301C19.8311 4.5 20.5 5.169 20.5 6.67V14.33ZM15.5381 10.439C15.7001 10.662 15.651 10.975 15.428 11.137L10.843 14.471C10.591 14.655 10.296 14.746 10 14.746C9.704 14.746 9.40898 14.654 9.15698 14.471L4.57202 11.137C4.34802 10.975 4.29991 10.662 4.46191 10.439C4.62391 10.214 4.93791 10.167 5.15991 10.329L9.74512 13.663C9.89712 13.774 10.1019 13.774 10.2549 13.663L14.8401 10.329C15.0621 10.167 15.3761 10.215 15.5381 10.439Z" />
</svg>
