<svg viewBox="0 0 24 24" fill="currentColor" stroke="currentColor" xmlns="http://www.w3.org/2000/svg">
<path d="M20 3.5C18.621 3.5 17.5 4.622 17.5 6C17.5 7.378 18.621 8.5 20 8.5C21.379 8.5 22.5 7.378 22.5 6C22.5 4.622 21.379 3.5 20 3.5ZM20 7.5C19.173 7.5 18.5 6.827 18.5 6C18.5 5.173 19.173 4.5 20 4.5C20.827 4.5 21.5 5.173 21.5 6C21.5 6.827 20.827 7.5 20 7.5ZM21.5 12V17C21.5 19.29 20.29 20.5 18 20.5H6C3.71 20.5 2.5 19.29 2.5 17V8C2.5 5.71 3.71 4.5 6 4.5H14C14.276 4.5 14.5 4.724 14.5 5C14.5 5.276 14.276 5.5 14 5.5H6C4.271 5.5 3.5 6.271 3.5 8V17C3.5 18.729 4.271 19.5 6 19.5H18C19.729 19.5 20.5 18.729 20.5 17V12C20.5 11.724 20.724 11.5 21 11.5C21.276 11.5 21.5 11.724 21.5 12ZM12.312 13.11L16.687 9.61C16.905 9.438 17.2179 9.473 17.3899 9.688C17.5619 9.904 17.528 10.218 17.312 10.391L12.937 13.891C12.661 14.112 12.331 14.222 11.999 14.222C11.667 14.222 11.338 14.112 11.061 13.891L6.68604 10.391C6.47004 10.218 6.43591 9.904 6.60791 9.688C6.78091 9.472 7.09504 9.438 7.31104 9.61L11.686 13.11C11.871 13.257 12.129 13.257 12.312 13.11Z" />
</svg>
