<svg viewBox="0 0 24 24" fill="currentColor" stroke="currentColor" xmlns="http://www.w3.org/2000/svg">
<path d="M14.5 19C14.5 19.276 14.276 19.5 14 19.5H5C2.71 19.5 1.5 18.29 1.5 16V7C1.5 4.71 2.71 3.5 5 3.5H17C19.29 3.5 20.5 4.71 20.5 7V11C20.5 11.276 20.276 11.5 20 11.5C19.724 11.5 19.5 11.276 19.5 11V7C19.5 5.271 18.729 4.5 17 4.5H5C3.271 4.5 2.5 5.271 2.5 7V16C2.5 17.729 3.271 18.5 5 18.5H14C14.276 18.5 14.5 18.724 14.5 19ZM16.2061 7.59599L11.2939 11.168C11.1179 11.296 10.8821 11.295 10.7061 11.168L5.79395 7.59599C5.57095 7.43399 5.25895 7.48199 5.09595 7.70599C4.93395 7.92899 4.98305 8.24201 5.20605 8.40401L10.1179 11.976C10.3819 12.168 10.69 12.264 11 12.264C11.309 12.264 11.6181 12.168 11.8821 11.976L16.7939 8.40401C17.0179 8.24201 17.0661 7.92899 16.9041 7.70599C16.7411 7.48199 16.4281 7.43399 16.2061 7.59599ZM22.5 18.125V19.875C22.5 20.908 21.907 21.5 20.875 21.5H18.125C17.093 21.5 16.5 20.908 16.5 19.875V18.125C16.5 17.326 16.862 16.8 17.5 16.599V15.5C17.5 14.397 18.397 13.5 19.5 13.5C20.603 13.5 21.5 14.397 21.5 15.5V16.599C22.138 16.8 22.5 17.326 22.5 18.125ZM18.5 15.5V16.5H20.5V15.5C20.5 14.948 20.052 14.5 19.5 14.5C18.948 14.5 18.5 14.948 18.5 15.5ZM21.5 18.125C21.5 17.652 21.348 17.5 20.875 17.5H18.125C17.652 17.5 17.5 17.652 17.5 18.125V19.875C17.5 20.348 17.652 20.5 18.125 20.5H20.875C21.348 20.5 21.5 20.348 21.5 19.875V18.125Z" />
</svg>
