<svg viewBox="0 0 24 24" fill="currentColor" stroke="currentColor" xmlns="http://www.w3.org/2000/svg">
<path d="M11.5 19C11.5 19.276 11.276 19.5 11 19.5H5C2.71 19.5 1.5 18.29 1.5 16V7C1.5 4.71 2.71 3.5 5 3.5H17C19.29 3.5 20.5 4.71 20.5 7V10C20.5 10.276 20.276 10.5 20 10.5C19.724 10.5 19.5 10.276 19.5 10V7C19.5 5.271 18.729 4.5 17 4.5H5C3.271 4.5 2.5 5.271 2.5 7V16C2.5 17.729 3.271 18.5 5 18.5H11C11.276 18.5 11.5 18.724 11.5 19ZM16.9041 7.70599C16.7411 7.48199 16.4271 7.43399 16.2061 7.59599L11.2939 11.168C11.1179 11.296 10.8821 11.295 10.7061 11.168L5.79395 7.59599C5.57095 7.43399 5.25895 7.48199 5.09595 7.70599C4.93395 7.92899 4.98305 8.24201 5.20605 8.40401L10.1179 11.976C10.3819 12.168 10.69 12.264 11 12.264C11.309 12.264 11.6181 12.168 11.8821 11.976L16.7939 8.40401C17.0179 8.24201 17.0661 7.92899 16.9041 7.70599ZM22.5 17C22.5 19.481 20.481 21.5 18 21.5C15.519 21.5 13.5 19.481 13.5 17C13.5 14.519 15.519 12.5 18 12.5C20.481 12.5 22.5 14.519 22.5 17ZM21.5 17C21.5 15.07 19.93 13.5 18 13.5C16.07 13.5 14.5 15.07 14.5 17C14.5 18.93 16.07 20.5 18 20.5C19.93 20.5 21.5 18.93 21.5 17ZM18.896 15.813L17.583 17.125L17.104 16.646C16.909 16.451 16.592 16.451 16.397 16.646C16.202 16.841 16.202 17.158 16.397 17.353L17.23 18.186C17.324 18.28 17.451 18.332 17.584 18.332C17.717 18.332 17.844 18.279 17.938 18.186L19.605 16.52C19.8 16.325 19.8 16.008 19.605 15.813C19.41 15.618 19.092 15.618 18.896 15.813Z" />
</svg>
