<svg viewBox="0 0 24 24" fill="currentColor" stroke="currentColor" xmlns="http://www.w3.org/2000/svg">
<path d="M18 4.5H6C3.71 4.5 2.5 5.71 2.5 8V17C2.5 19.29 3.71 20.5 6 20.5H18C20.29 20.5 21.5 19.29 21.5 17V8C21.5 5.71 20.29 4.5 18 4.5ZM20.5 17C20.5 18.729 19.729 19.5 18 19.5H6C4.271 19.5 3.5 18.729 3.5 17V8C3.5 6.271 4.271 5.5 6 5.5H18C19.729 5.5 20.5 6.271 20.5 8V17ZM17.9041 8.70599C18.0661 8.92899 18.0169 9.24201 17.7939 9.40401L12.8821 12.976C12.6181 13.168 12.309 13.264 12 13.264C11.69 13.264 11.3819 13.168 11.1179 12.976L6.20605 9.40401C5.98205 9.24201 5.93395 8.92899 6.09595 8.70599C6.25795 8.48199 6.57195 8.43399 6.79395 8.59599L11.7061 12.168C11.8821 12.295 12.1179 12.296 12.2939 12.168L17.2061 8.59599C17.4291 8.43399 17.7421 8.48199 17.9041 8.70599Z" />
</svg>
