<svg viewBox="0 0 24 24" fill="currentColor" stroke="currentColor" xmlns="http://www.w3.org/2000/svg">
<path d="M12.5 19C12.5 19.276 12.276 19.5 12 19.5H5C2.71 19.5 1.5 18.29 1.5 16V7C1.5 4.71 2.71 3.5 5 3.5H17C19.29 3.5 20.5 4.71 20.5 7V11C20.5 11.276 20.276 11.5 20 11.5C19.724 11.5 19.5 11.276 19.5 11V7C19.5 5.271 18.729 4.5 17 4.5H5C3.271 4.5 2.5 5.271 2.5 7V16C2.5 17.729 3.271 18.5 5 18.5H12C12.276 18.5 12.5 18.724 12.5 19ZM16.2061 7.59599L11.2939 11.168C11.1179 11.296 10.8821 11.295 10.7061 11.168L5.79395 7.59599C5.57095 7.43399 5.25795 7.48199 5.09595 7.70599C4.93395 7.92899 4.98305 8.24201 5.20605 8.40401L10.1179 11.976C10.3819 12.168 10.69 12.264 11 12.264C11.309 12.264 11.6181 12.168 11.8821 11.976L16.7939 8.40401C17.0179 8.24201 17.0661 7.92899 16.9041 7.70599C16.7421 7.48199 16.4291 7.43399 16.2061 7.59599ZM22.5 17.5C22.5 19.706 20.706 21.5 18.5 21.5C16.294 21.5 14.5 19.706 14.5 17.5C14.5 15.294 16.294 13.5 18.5 13.5C20.706 13.5 22.5 15.294 22.5 17.5ZM21.5 17.5C21.5 15.846 20.154 14.5 18.5 14.5C16.846 14.5 15.5 15.846 15.5 17.5C15.5 19.154 16.846 20.5 18.5 20.5C20.154 20.5 21.5 19.154 21.5 17.5ZM19 17.293V16.188C19 15.912 18.776 15.688 18.5 15.688C18.224 15.688 18 15.912 18 16.188V17.5C18 17.633 18.053 17.76 18.146 17.854L19.084 18.792C19.182 18.89 19.31 18.938 19.438 18.938C19.566 18.938 19.694 18.889 19.792 18.792C19.987 18.597 19.987 18.28 19.792 18.085L19 17.293Z" />
</svg>
