<svg viewBox="0 0 24 24" fill="currentColor" stroke="currentColor" xmlns="http://www.w3.org/2000/svg">
<path d="M11.5 19C11.5 19.276 11.276 19.5 11 19.5H5C2.71 19.5 1.5 18.29 1.5 16V7C1.5 4.71 2.71 3.5 5 3.5H17C19.29 3.5 20.5 4.71 20.5 7V11C20.5 11.276 20.276 11.5 20 11.5C19.724 11.5 19.5 11.276 19.5 11V7C19.5 5.271 18.729 4.5 17 4.5H5C3.271 4.5 2.5 5.271 2.5 7V16C2.5 17.729 3.271 18.5 5 18.5H11C11.276 18.5 11.5 18.724 11.5 19ZM16.9041 7.70599C16.7421 7.48199 16.4281 7.43399 16.2061 7.59599L11.2939 11.168C11.1179 11.296 10.8821 11.295 10.7061 11.168L5.79395 7.59599C5.57095 7.43399 5.25795 7.48199 5.09595 7.70599C4.93395 7.92899 4.98305 8.24201 5.20605 8.40401L10.1179 11.976C10.3819 12.168 10.69 12.264 11 12.264C11.309 12.264 11.6181 12.168 11.8821 11.976L16.7939 8.40401C17.0179 8.24201 17.0661 7.92899 16.9041 7.70599ZM22.248 18.79C21.646 19.803 20.294 21.5 18 21.5C15.705 21.5 14.354 19.802 13.752 18.79C13.416 18.226 13.416 17.524 13.752 16.96C14.354 15.948 15.705 14.25 18 14.25C20.295 14.25 21.646 15.948 22.248 16.96C22.584 17.524 22.584 18.226 22.248 18.79ZM21.3889 17.472C20.8959 16.642 19.8 15.25 18 15.25C16.2 15.25 15.1041 16.642 14.6111 17.471C14.4631 17.721 14.4631 18.03 14.6111 18.279C15.1041 19.109 16.2 20.501 18 20.501C19.8 20.501 20.8959 19.109 21.3889 18.28V18.279C21.5369 18.029 21.5369 17.721 21.3889 17.472ZM18.0049 16.875H17.9851C17.4351 16.875 17 17.323 17 17.875C17 18.427 17.4569 18.875 18.0049 18.875C18.5549 18.875 19 18.427 19 17.875C19 17.323 18.5549 16.875 18.0049 16.875Z" />
</svg>
