<svg viewBox="0 0 24 24" fill="currentColor" stroke="currentColor" xmlns="http://www.w3.org/2000/svg">
<path d="M12.5 19C12.5 19.276 12.276 19.5 12 19.5H5C2.71 19.5 1.5 18.29 1.5 16V7C1.5 4.71 2.71 3.5 5 3.5H17C19.29 3.5 20.5 4.71 20.5 7V11C20.5 11.276 20.276 11.5 20 11.5C19.724 11.5 19.5 11.276 19.5 11V7C19.5 5.271 18.729 4.5 17 4.5H5C3.271 4.5 2.5 5.271 2.5 7V16C2.5 17.729 3.271 18.5 5 18.5H12C12.276 18.5 12.5 18.724 12.5 19ZM16.2061 7.59599L11.2939 11.168C11.1179 11.296 10.8821 11.295 10.7061 11.168L5.79395 7.59599C5.57095 7.43399 5.25895 7.48199 5.09595 7.70599C4.93395 7.92899 4.98305 8.24201 5.20605 8.40401L10.1179 11.976C10.3819 12.168 10.69 12.264 11 12.264C11.309 12.264 11.6181 12.168 11.8821 11.976L16.7939 8.40401C17.0179 8.24201 17.0661 7.92899 16.9041 7.70599C16.7411 7.48199 16.4281 7.43399 16.2061 7.59599ZM22.354 21.354C22.256 21.452 22.128 21.5 22 21.5C21.872 21.5 21.744 21.451 21.646 21.354L19.9441 19.652C19.3751 20.075 18.678 20.334 17.917 20.334C16.033 20.334 14.5 18.802 14.5 16.918C14.5 15.034 16.033 13.501 17.917 13.501C19.801 13.501 21.333 15.034 21.333 16.918C21.333 17.679 21.0739 18.376 20.6509 18.945L22.354 20.647C22.549 20.842 22.549 21.158 22.354 21.354ZM17.917 19.333C19.249 19.333 20.333 18.249 20.333 16.917C20.333 15.584 19.249 14.5 17.917 14.5C16.584 14.5 15.5 15.584 15.5 16.917C15.5 18.249 16.584 19.333 17.917 19.333Z" />
</svg>
