<svg viewBox="0 0 24 24" fill="currentColor" stroke="currentColor" xmlns="http://www.w3.org/2000/svg">
<path d="M20.1641 7.236L13.9409 3.088C12.7609 2.302 11.2381 2.302 10.0581 3.088L3.83496 7.236C2.99796 7.794 2.49902 8.727 2.49902 9.732V18C2.49902 20.29 3.70902 21.5 5.99902 21.5H17.999C20.289 21.5 21.499 20.29 21.499 18V9.732C21.5 8.728 21.0011 7.794 20.1641 7.236ZM20.5 18C20.5 19.729 19.729 20.5 18 20.5H6C4.271 20.5 3.5 19.729 3.5 18V9.732C3.5 9.062 3.83311 8.44 4.39111 8.068L10.614 3.92001C11.035 3.63901 11.518 3.499 12.001 3.499C12.484 3.499 12.9669 3.63901 13.3879 3.92001L19.6111 8.068C20.1691 8.44 20.502 9.062 20.502 9.732V18H20.5ZM17.4041 10.706C17.5661 10.929 17.5169 11.242 17.2939 11.404L12.71 14.738C12.457 14.922 12.162 15.013 11.866 15.013C11.57 15.013 11.2749 14.922 11.0229 14.738L6.43896 11.404C6.21496 11.242 6.1671 10.929 6.3291 10.706C6.4921 10.482 6.8051 10.434 7.0271 10.596L11.6111 13.93C11.7641 14.041 11.9701 14.04 12.1221 13.93L16.7061 10.597C16.9291 10.434 17.2421 10.482 17.4041 10.706Z" />
</svg>
