<svg viewBox="0 0 24 24" fill="currentColor" stroke="currentColor" xmlns="http://www.w3.org/2000/svg">
<path d="M13.5 19C13.5 19.276 13.276 19.5 13 19.5H5C2.71 19.5 1.5 18.29 1.5 16V7C1.5 4.71 2.71 3.5 5 3.5H17C19.29 3.5 20.5 4.71 20.5 7V11C20.5 11.276 20.276 11.5 20 11.5C19.724 11.5 19.5 11.276 19.5 11V7C19.5 5.271 18.729 4.5 17 4.5H5C3.271 4.5 2.5 5.271 2.5 7V16C2.5 17.729 3.271 18.5 5 18.5H13C13.276 18.5 13.5 18.724 13.5 19ZM16.2061 7.59599L11.2939 11.168C11.1179 11.296 10.8821 11.295 10.7061 11.168L5.79395 7.59599C5.57095 7.43399 5.25895 7.48199 5.09595 7.70599C4.93395 7.92899 4.98305 8.24201 5.20605 8.40401L10.1179 11.976C10.3819 12.168 10.69 12.264 11 12.264C11.309 12.264 11.6181 12.168 11.8821 11.976L16.7939 8.40401C17.0179 8.24201 17.0661 7.92899 16.9041 7.70599C16.7411 7.48199 16.4281 7.43399 16.2061 7.59599ZM22.5 15.116V17.111C22.5 19.476 20.7761 20.915 19.1631 21.472C19.1101 21.491 19.056 21.499 19 21.499C18.944 21.499 18.8899 21.49 18.8369 21.472C17.2239 20.914 15.5 19.476 15.5 17.111V15.167C15.5 14.945 15.6459 14.749 15.8589 14.687C17.2549 14.277 17.9871 13.962 18.7771 13.556C18.9211 13.482 19.0931 13.482 19.2371 13.557C19.8901 13.899 20.602 14.238 22.126 14.632C22.346 14.689 22.5 14.888 22.5 15.116ZM21.5 15.5C20.388 15.193 19.6959 14.91 19.0039 14.562C18.3139 14.906 17.621 15.196 16.5 15.54V17.112C16.5 19.27 18.331 20.2 19 20.467C19.669 20.2 21.5 19.27 21.5 17.112V15.5Z" />
</svg>
