<svg viewBox="0 0 24 24" fill="currentColor" stroke="currentColor" xmlns="http://www.w3.org/2000/svg">
<path d="M21.3201 12.38L19.158 5.89301C18.666 4.41701 17.456 3.5 16 3.5H8C6.544 3.5 5.33404 4.41701 4.84204 5.89301L2.68091 12.379C2.56091 12.736 2.5 13.108 2.5 13.487V18C2.5 20.29 3.71 21.5 6 21.5H18C20.29 21.5 21.5 20.29 21.5 18V13.487C21.5 13.109 21.4391 12.736 21.3201 12.38ZM5.79102 6.20901C6.14702 5.13901 6.974 4.5 8 4.5H16C17.026 4.5 17.853 5.13901 18.209 6.20901L20.3059 12.5H17.0449C15.8849 12.5 14.8059 13.159 14.1589 14.263C13.7129 15.026 12.886 15.5 12 15.5C11.114 15.5 10.2871 15.026 9.84106 14.263C9.19506 13.159 8.11508 12.5 6.95508 12.5H3.69409L5.79102 6.20901ZM18 20.5H6C4.271 20.5 3.5 19.729 3.5 18V13.5H6.95508C7.75708 13.5 8.51305 13.974 8.97705 14.768C9.60105 15.837 10.759 16.5 11.999 16.5C13.239 16.5 14.397 15.836 15.021 14.768C15.486 13.974 16.242 13.5 17.043 13.5H20.498V18C20.5 19.729 19.729 20.5 18 20.5Z" />
</svg>
