<svg viewBox="0 0 24 24" fill="currentColor" stroke="currentColor" xmlns="http://www.w3.org/2000/svg">
<path d="M21.439 13.008C21.439 13.005 21.4409 13.003 21.4409 13C21.4409 12.991 21.436 12.984 21.436 12.975C21.428 12.935 21.4211 12.896 21.4121 12.857C21.4051 12.834 21.4011 12.811 21.3911 12.79C21.3451 12.603 21.295 12.417 21.218 12.238L19.239 7.62299C18.751 6.48499 18.33 5.50101 16.021 5.50101C15.745 5.50101 15.521 5.72501 15.521 6.00101C15.521 6.27701 15.745 6.50101 16.021 6.50101C17.67 6.50101 17.8601 6.94499 18.3191 8.01599L20.2419 12.501H17.0449C15.8849 12.501 14.8059 13.16 14.1589 14.264C13.7129 15.027 12.886 15.501 12 15.501C11.114 15.501 10.2871 15.027 9.84106 14.264C9.19506 13.16 8.11508 12.501 6.95508 12.501H3.75806L5.67993 8.01599C6.13893 6.94399 6.32803 6.50101 7.97803 6.50101C8.25403 6.50101 8.47803 6.27701 8.47803 6.00101C8.47803 5.72501 8.25403 5.50101 7.97803 5.50101C5.66903 5.50101 5.24901 6.48401 4.76001 7.62201L2.78101 12.239C2.70401 12.418 2.65391 12.604 2.60791 12.79C2.59791 12.811 2.59391 12.835 2.58691 12.858C2.57791 12.897 2.57099 12.936 2.56299 12.976C2.56299 12.985 2.55811 12.992 2.55811 13.001C2.55811 13.004 2.55906 13.006 2.56006 13.009C2.52506 13.209 2.49902 13.411 2.49902 13.616V18C2.49902 20.29 3.70902 21.5 5.99902 21.5H17.999C20.289 21.5 21.499 20.29 21.499 18V13.616C21.5 13.41 21.474 13.208 21.439 13.008ZM20.5 18C20.5 19.729 19.729 20.5 18 20.5H6C4.271 20.5 3.5 19.729 3.5 18V13.616C3.5 13.577 3.50996 13.539 3.51196 13.5H6.95508C7.75708 13.5 8.51305 13.974 8.97705 14.768C9.60105 15.837 10.759 16.5 11.999 16.5C13.239 16.5 14.397 15.836 15.021 14.768C15.486 13.974 16.242 13.5 17.043 13.5H20.4861C20.4881 13.539 20.498 13.577 20.498 13.616V18H20.5ZM9.646 8.354C9.451 8.159 9.451 7.842 9.646 7.647C9.841 7.452 10.158 7.452 10.353 7.647L11.499 8.793V2C11.499 1.724 11.723 1.5 11.999 1.5C12.275 1.5 12.499 1.724 12.499 2V8.793L13.645 7.647C13.84 7.452 14.1571 7.452 14.3521 7.647C14.5471 7.842 14.5471 8.159 14.3521 8.354L12.3521 10.354C12.3061 10.4 12.25 10.437 12.189 10.462C12.128 10.487 12.063 10.501 11.998 10.501C11.933 10.501 11.8679 10.488 11.8069 10.462C11.7449 10.437 11.69 10.4 11.644 10.354L9.646 8.354Z" />
</svg>
