<svg viewBox="0 0 24 24" fill="currentColor" stroke="currentColor" xmlns="http://www.w3.org/2000/svg">
<path d="M21.439 13.008C21.439 13.005 21.4409 13.003 21.4409 13C21.4409 12.991 21.436 12.984 21.436 12.975C21.428 12.935 21.4211 12.896 21.4121 12.857C21.4051 12.834 21.4011 12.811 21.3911 12.79C21.3451 12.603 21.295 12.417 21.218 12.238L19.239 7.623C18.751 6.485 18.33 5.50102 16.021 5.50102C15.745 5.50102 15.521 5.72502 15.521 6.00102C15.521 6.27702 15.745 6.50102 16.021 6.50102C17.67 6.50102 17.8601 6.945 18.3191 8.016L20.2419 12.501H17.0449C15.8849 12.501 14.8059 13.16 14.1589 14.264C13.7129 15.027 12.886 15.501 12 15.501C11.114 15.501 10.2871 15.027 9.84106 14.264C9.19506 13.16 8.11508 12.501 6.95508 12.501H3.75806L5.67993 8.016C6.13893 6.944 6.32803 6.50102 7.97803 6.50102C8.25403 6.50102 8.47803 6.27702 8.47803 6.00102C8.47803 5.72502 8.25403 5.50102 7.97803 5.50102C5.66903 5.50102 5.24901 6.48402 4.76001 7.62202L2.78101 12.238C2.70401 12.418 2.65293 12.604 2.60693 12.792C2.59793 12.811 2.59489 12.832 2.58789 12.852C2.57789 12.894 2.56999 12.936 2.56299 12.978C2.56299 12.986 2.55811 12.993 2.55811 13.001C2.55811 13.004 2.55908 13.006 2.55908 13.009C2.52408 13.209 2.49805 13.411 2.49805 13.617V18C2.49805 20.29 3.70805 21.5 5.99805 21.5H17.998C20.288 21.5 21.498 20.29 21.498 18V13.616C21.5 13.41 21.474 13.208 21.439 13.008ZM20.5 18C20.5 19.729 19.729 20.5 18 20.5H6C4.271 20.5 3.5 19.729 3.5 18V13.616C3.5 13.577 3.50996 13.539 3.51196 13.5H6.95508C7.75708 13.5 8.51305 13.974 8.97705 14.768C9.60105 15.837 10.759 16.5 11.999 16.5C13.239 16.5 14.397 15.836 15.021 14.768C15.486 13.974 16.242 13.5 17.043 13.5H20.4861C20.4881 13.539 20.498 13.577 20.498 13.616V18H20.5ZM9.646 4.35402C9.451 4.15902 9.451 3.84201 9.646 3.64701L11.646 1.64701C11.692 1.60101 11.7481 1.56401 11.8091 1.53901C11.9311 1.48801 12.0689 1.48801 12.1909 1.53901C12.2529 1.56401 12.308 1.60101 12.354 1.64701L14.354 3.64701C14.549 3.84201 14.549 4.15902 14.354 4.35402C14.256 4.45202 14.128 4.50001 14 4.50001C13.872 4.50001 13.744 4.45102 13.646 4.35402L12.5 3.20802V10C12.5 10.276 12.276 10.5 12 10.5C11.724 10.5 11.5 10.276 11.5 10V3.20701L10.354 4.35301C10.158 4.54901 9.842 4.54902 9.646 4.35402Z" />
</svg>
