<svg viewBox="0 0 24 24" fill="currentColor" stroke="currentColor" xmlns="http://www.w3.org/2000/svg">
<path d="M12.5 1.5C11.397 1.5 10.5 2.397 10.5 3.5C10.5 4.603 11.397 5.5 12.5 5.5C13.603 5.5 14.5 4.603 14.5 3.5C14.5 2.397 13.603 1.5 12.5 1.5ZM12.5 4.5C11.948 4.5 11.5 4.052 11.5 3.5C11.5 2.948 11.948 2.5 12.5 2.5C13.052 2.5 13.5 2.948 13.5 3.5C13.5 4.052 13.052 4.5 12.5 4.5ZM18.5 5.5C19.603 5.5 20.5 4.603 20.5 3.5C20.5 2.397 19.603 1.5 18.5 1.5C17.397 1.5 16.5 2.397 16.5 3.5C16.5 4.603 17.397 5.5 18.5 5.5ZM18.5 2.5C19.052 2.5 19.5 2.948 19.5 3.5C19.5 4.052 19.052 4.5 18.5 4.5C17.948 4.5 17.5 4.052 17.5 3.5C17.5 2.948 17.948 2.5 18.5 2.5ZM6.5 1.5C5.397 1.5 4.5 2.397 4.5 3.5C4.5 4.603 5.397 5.5 6.5 5.5C7.603 5.5 8.5 4.603 8.5 3.5C8.5 2.397 7.603 1.5 6.5 1.5ZM6.5 4.5C5.948 4.5 5.5 4.052 5.5 3.5C5.5 2.948 5.948 2.5 6.5 2.5C7.052 2.5 7.5 2.948 7.5 3.5C7.5 4.052 7.052 4.5 6.5 4.5ZM12.5 7.16699C11.397 7.16699 10.5 8.06399 10.5 9.16699C10.5 10.27 11.397 11.167 12.5 11.167C13.603 11.167 14.5 10.27 14.5 9.16699C14.5 8.06399 13.603 7.16699 12.5 7.16699ZM12.5 10.167C11.948 10.167 11.5 9.71899 11.5 9.16699C11.5 8.61499 11.948 8.16699 12.5 8.16699C13.052 8.16699 13.5 8.61499 13.5 9.16699C13.5 9.71899 13.052 10.167 12.5 10.167ZM18.5 7.16699C17.397 7.16699 16.5 8.06399 16.5 9.16699C16.5 10.27 17.397 11.167 18.5 11.167C19.603 11.167 20.5 10.27 20.5 9.16699C20.5 8.06399 19.603 7.16699 18.5 7.16699ZM18.5 10.167C17.948 10.167 17.5 9.71899 17.5 9.16699C17.5 8.61499 17.948 8.16699 18.5 8.16699C19.052 8.16699 19.5 8.61499 19.5 9.16699C19.5 9.71899 19.052 10.167 18.5 10.167ZM6.5 7.16699C5.397 7.16699 4.5 8.06399 4.5 9.16699C4.5 10.27 5.397 11.167 6.5 11.167C7.603 11.167 8.5 10.27 8.5 9.16699C8.5 8.06399 7.603 7.16699 6.5 7.16699ZM6.5 10.167C5.948 10.167 5.5 9.71899 5.5 9.16699C5.5 8.61499 5.948 8.16699 6.5 8.16699C7.052 8.16699 7.5 8.61499 7.5 9.16699C7.5 9.71899 7.052 10.167 6.5 10.167ZM12.5 12.833C11.397 12.833 10.5 13.73 10.5 14.833C10.5 15.936 11.397 16.833 12.5 16.833C13.603 16.833 14.5 15.936 14.5 14.833C14.5 13.73 13.603 12.833 12.5 12.833ZM12.5 15.833C11.948 15.833 11.5 15.385 11.5 14.833C11.5 14.281 11.948 13.833 12.5 13.833C13.052 13.833 13.5 14.281 13.5 14.833C13.5 15.385 13.052 15.833 12.5 15.833ZM18.5 12.833C17.397 12.833 16.5 13.73 16.5 14.833C16.5 15.936 17.397 16.833 18.5 16.833C19.603 16.833 20.5 15.936 20.5 14.833C20.5 13.73 19.603 12.833 18.5 12.833ZM18.5 15.833C17.948 15.833 17.5 15.385 17.5 14.833C17.5 14.281 17.948 13.833 18.5 13.833C19.052 13.833 19.5 14.281 19.5 14.833C19.5 15.385 19.052 15.833 18.5 15.833ZM6.5 12.833C5.397 12.833 4.5 13.73 4.5 14.833C4.5 15.936 5.397 16.833 6.5 16.833C7.603 16.833 8.5 15.936 8.5 14.833C8.5 13.73 7.603 12.833 6.5 12.833ZM6.5 15.833C5.948 15.833 5.5 15.385 5.5 14.833C5.5 14.281 5.948 13.833 6.5 13.833C7.052 13.833 7.5 14.281 7.5 14.833C7.5 15.385 7.052 15.833 6.5 15.833ZM12.5 18.5C11.397 18.5 10.5 19.397 10.5 20.5C10.5 21.603 11.397 22.5 12.5 22.5C13.603 22.5 14.5 21.603 14.5 20.5C14.5 19.397 13.603 18.5 12.5 18.5ZM12.5 21.5C11.948 21.5 11.5 21.052 11.5 20.5C11.5 19.948 11.948 19.5 12.5 19.5C13.052 19.5 13.5 19.948 13.5 20.5C13.5 21.052 13.052 21.5 12.5 21.5Z" />
</svg>
