<svg viewBox="0 0 24 24" fill="currentColor" stroke="currentColor" xmlns="http://www.w3.org/2000/svg">
<path d="M21.5 12C21.5 15.033 19.032 17.5 16 17.5H14C13.724 17.5 13.5 17.276 13.5 17C13.5 16.724 13.724 16.5 14 16.5H16C18.481 16.5 20.5 14.481 20.5 12C20.5 9.51901 18.481 7.50001 16 7.50001H14C13.724 7.50001 13.5 7.27601 13.5 7.00001C13.5 6.72401 13.724 6.50001 14 6.50001H16C19.032 6.50001 21.5 8.96701 21.5 12ZM10.5 17C10.5 16.724 10.276 16.5 10 16.5H8C5.519 16.5 3.5 14.481 3.5 12C3.5 9.51901 5.519 7.50001 8 7.50001H10C10.276 7.50001 10.5 7.27601 10.5 7.00001C10.5 6.72401 10.276 6.50001 10 6.50001H8C4.968 6.50001 2.5 8.96701 2.5 12C2.5 15.033 4.968 17.5 8 17.5H10C10.276 17.5 10.5 17.276 10.5 17ZM9.854 2.64601C9.659 2.45101 9.34197 2.45101 9.14697 2.64601C8.95197 2.84101 8.95197 3.15801 9.14697 3.35301L10.147 4.35301C10.245 4.45101 10.373 4.499 10.501 4.499C10.629 4.499 10.757 4.45001 10.855 4.35301C11.05 4.15801 11.05 3.84101 10.855 3.64601L9.854 2.64601ZM13.5 4.50001C13.628 4.50001 13.756 4.45101 13.854 4.35401L14.854 3.35401C15.049 3.15901 15.049 2.84201 14.854 2.64701C14.659 2.45201 14.342 2.45201 14.147 2.64701L13.147 3.64701C12.952 3.84201 12.952 4.15901 13.147 4.35401C13.244 4.45101 13.372 4.50001 13.5 4.50001ZM13.854 19.646C13.659 19.451 13.342 19.451 13.147 19.646C12.952 19.841 12.952 20.158 13.147 20.353L14.147 21.353C14.245 21.451 14.373 21.499 14.501 21.499C14.629 21.499 14.757 21.45 14.855 21.353C15.05 21.158 15.05 20.841 14.855 20.646L13.854 19.646ZM10.146 19.646L9.146 20.646C8.951 20.841 8.951 21.158 9.146 21.353C9.244 21.451 9.372 21.499 9.5 21.499C9.628 21.499 9.756 21.45 9.854 21.353L10.854 20.353C11.049 20.158 11.049 19.841 10.854 19.646C10.659 19.451 10.342 19.451 10.146 19.646Z" />
</svg>
