<svg viewBox="0 0 24 24" fill="currentColor" stroke="currentColor" xmlns="http://www.w3.org/2000/svg">
<path d="M20.191 10.114L18.3511 11.954C18.1561 12.149 17.8391 12.149 17.6441 11.954C17.4491 11.759 17.4491 11.442 17.6441 11.247L19.4839 9.40701C20.8329 8.05801 20.8329 5.86301 19.4839 4.51401C18.1759 3.20601 15.8981 3.20801 14.5921 4.51401L11.2329 7.87399C11.0889 8.01899 10.98 8.14901 10.899 8.27301C9.87196 9.67201 10.0189 11.553 11.2329 12.767C11.4279 12.962 11.4279 13.279 11.2329 13.474C11.1349 13.571 11.0069 13.62 10.8789 13.62C10.7509 13.62 10.6229 13.571 10.5249 13.474C8.95894 11.907 8.76996 9.48101 10.076 7.70401C10.179 7.54501 10.331 7.36199 10.524 7.16699L13.8841 3.806C14.7271 2.963 15.8471 2.5 17.0371 2.5C18.2271 2.5 19.347 2.964 20.189 3.806C21.93 5.545 21.93 8.37501 20.191 10.114ZM12.7671 10.526C12.5721 10.721 12.5721 11.038 12.7671 11.233C13.7221 12.189 14.034 13.567 13.576 14.841C13.42 15.309 13.1401 15.753 12.7671 16.126L9.40799 19.486C8.10199 20.793 5.82415 20.794 4.51615 19.486C3.16715 18.137 3.16715 15.942 4.51615 14.593L6.35599 12.753C6.55099 12.558 6.55099 12.241 6.35599 12.046C6.16099 11.851 5.84396 11.851 5.64896 12.046L3.80912 13.886C2.07112 15.625 2.07112 18.454 3.80912 20.193C4.65212 21.036 5.77097 21.499 6.96097 21.499C8.15097 21.499 9.27205 21.035 10.114 20.193L13.4729 16.833C13.9539 16.351 14.3181 15.772 14.5201 15.168C15.0971 13.562 14.6859 11.739 13.4729 10.525C13.2779 10.331 12.9621 10.331 12.7671 10.526Z" />
</svg>
