<svg viewBox="0 0 24 24" fill="currentColor" stroke="currentColor" xmlns="http://www.w3.org/2000/svg">
<path d="M14.5 12C14.5 14.481 12.481 16.5 10 16.5H7C5.809 16.5 4.67909 16.033 3.81909 15.186C2.96609 14.321 2.5 13.192 2.5 12C2.5 9.519 4.519 7.5 7 7.5H8C8.276 7.5 8.5 7.724 8.5 8C8.5 8.276 8.276 8.5 8 8.5H7C5.07 8.5 3.5 10.07 3.5 12C3.5 12.927 3.86388 13.808 4.52588 14.479C5.19188 15.135 6.072 15.5 7 15.5H10C11.93 15.5 13.5 13.93 13.5 12C13.5 11.724 13.724 11.5 14 11.5C14.276 11.5 14.5 11.724 14.5 12ZM20.1809 8.814C19.3219 7.967 18.192 7.5 17 7.5H14C11.519 7.5 9.5 9.519 9.5 12C9.5 12.276 9.724 12.5 10 12.5C10.276 12.5 10.5 12.276 10.5 12C10.5 10.07 12.07 8.5 14 8.5H17C17.928 8.5 18.8081 8.865 19.4741 9.521C20.1361 10.192 20.5 11.073 20.5 12C20.5 13.93 18.93 15.5 17 15.5H16C15.724 15.5 15.5 15.724 15.5 16C15.5 16.276 15.724 16.5 16 16.5H17C19.481 16.5 21.5 14.481 21.5 12C21.5 10.808 21.0329 9.678 20.1809 8.814Z" />
</svg>
