<svg viewBox="0 0 24 24" fill="currentColor" stroke="currentColor" xmlns="http://www.w3.org/2000/svg">
<path d="M21.5 8.02301C21.5 9.50801 20.927 10.893 19.885 11.923L17.9199 13.898C17.8219 13.996 17.6929 14.045 17.5659 14.045C17.4389 14.045 17.3109 13.996 17.2129 13.899C17.0169 13.704 17.0169 13.388 17.2109 13.192L19.1789 11.214C20.0329 10.37 20.5 9.237 20.5 8.022C20.5 6.809 20.0309 5.67201 19.1799 4.82101C17.4169 3.05901 14.5489 3.05901 12.7859 4.82101L10.8191 6.798C10.6241 6.995 10.307 6.99398 10.112 6.79998C9.91605 6.60498 9.91609 6.28898 10.1101 6.09298L12.0779 4.11499C14.2319 1.96199 17.7339 1.96201 19.8869 4.11401C20.9269 5.15501 21.5 6.54301 21.5 8.02301ZM13.1951 17.209L11.2161 19.178C9.45405 20.941 6.58601 20.94 4.82201 19.178C3.05901 17.416 3.05903 14.548 4.82103 12.786L6.80003 10.818C6.99604 10.623 6.99599 10.307 6.80199 10.111C6.60699 9.91399 6.28996 9.915 6.09496 10.109L4.11595 12.078C1.96395 14.23 1.96395 17.732 4.11595 19.885C5.19295 20.961 6.60601 21.499 8.02001 21.499C9.43401 21.499 10.8471 20.961 11.9221 19.886L13.9009 17.918C14.0969 17.723 14.0971 17.407 13.9031 17.211C13.7071 17.014 13.3911 17.015 13.1951 17.209ZM14.6731 8.621L8.64696 14.646C8.45196 14.841 8.45196 15.158 8.64696 15.353C8.74496 15.451 8.87296 15.499 9.00096 15.499C9.12896 15.499 9.25697 15.45 9.35497 15.353L15.3811 9.328C15.5761 9.133 15.5761 8.816 15.3811 8.621C15.1861 8.426 14.8681 8.426 14.6731 8.621Z" />
</svg>
