<svg viewBox="0 0 24 24" fill="currentColor" stroke="currentColor" xmlns="http://www.w3.org/2000/svg">
<path d="M19.885 11.924L17.9199 13.899C17.8219 13.997 17.6929 14.046 17.5659 14.046C17.4389 14.046 17.3109 13.997 17.2129 13.9C17.0169 13.705 17.0169 13.389 17.2109 13.193L19.179 11.215C20.033 10.371 20.5 9.23801 20.5 8.02301C20.5 6.81001 20.0309 5.67299 19.1799 4.82199C17.4169 3.05999 14.5489 3.05999 12.7859 4.82199L10.8191 6.79901C10.6241 6.99601 10.3071 6.995 10.1121 6.80099C9.91606 6.60599 9.91611 6.28999 10.1101 6.09399L12.0779 4.116C14.2319 1.963 17.734 1.96299 19.887 4.11499C20.927 5.15499 21.5 6.54301 21.5 8.02301C21.5 9.50801 20.927 10.893 19.885 11.924ZM13.1951 17.209L11.2161 19.178C9.45306 20.941 6.58502 20.94 4.82202 19.178C3.05902 17.416 3.05904 14.548 4.82104 12.786L6.80005 10.818C6.99605 10.623 6.996 10.307 6.802 10.111C6.607 9.91399 6.28997 9.91501 6.09497 10.109L4.11597 12.078C1.96397 14.23 1.96397 17.732 4.11597 19.885C5.19297 20.961 6.60602 21.499 8.02002 21.499C9.43402 21.499 10.8471 20.961 11.9221 19.886L13.9009 17.918C14.0969 17.723 14.0971 17.407 13.9031 17.211C13.7071 17.014 13.3911 17.015 13.1951 17.209ZM21 16.5H19C18.724 16.5 18.5 16.724 18.5 17C18.5 17.276 18.724 17.5 19 17.5H21C21.276 17.5 21.5 17.276 21.5 17C21.5 16.724 21.276 16.5 21 16.5ZM17 18.5C16.724 18.5 16.5 18.724 16.5 19V21C16.5 21.276 16.724 21.5 17 21.5C17.276 21.5 17.5 21.276 17.5 21V19C17.5 18.724 17.276 18.5 17 18.5ZM3 7.5H5C5.276 7.5 5.5 7.276 5.5 7C5.5 6.724 5.276 6.5 5 6.5H3C2.724 6.5 2.5 6.724 2.5 7C2.5 7.276 2.724 7.5 3 7.5ZM7 5.5C7.276 5.5 7.5 5.276 7.5 5V3C7.5 2.724 7.276 2.5 7 2.5C6.724 2.5 6.5 2.724 6.5 3V5C6.5 5.276 6.724 5.5 7 5.5Z" />
</svg>
