<svg viewBox="0 0 24 24" fill="currentColor" stroke="currentColor" xmlns="http://www.w3.org/2000/svg">
<path d="M9 11.5H15C15.276 11.5 15.5 11.724 15.5 12C15.5 12.276 15.276 12.5 15 12.5H9C8.724 12.5 8.5 12.276 8.5 12C8.5 11.724 8.724 11.5 9 11.5ZM16 6.5H14C13.724 6.5 13.5 6.724 13.5 7C13.5 7.276 13.724 7.5 14 7.5H16C18.481 7.5 20.5 9.519 20.5 12C20.5 14.481 18.481 16.5 16 16.5H14C13.724 16.5 13.5 16.724 13.5 17C13.5 17.276 13.724 17.5 14 17.5H16C19.032 17.5 21.5 15.033 21.5 12C21.5 8.967 19.032 6.5 16 6.5ZM10 16.5H8C5.519 16.5 3.5 14.481 3.5 12C3.5 9.519 5.519 7.5 8 7.5H10C10.276 7.5 10.5 7.276 10.5 7C10.5 6.724 10.276 6.5 10 6.5H8C4.968 6.5 2.5 8.967 2.5 12C2.5 15.033 4.968 17.5 8 17.5H10C10.276 17.5 10.5 17.276 10.5 17C10.5 16.724 10.276 16.5 10 16.5Z" />
</svg>
