<svg viewBox="0 0 24 24" fill="currentColor" stroke="currentColor" xmlns="http://www.w3.org/2000/svg">
<path d="M13.0769 12H9.9231C9.0321 12 8.5 12.532 8.5 13.423V15.577C8.5 16.468 9.0321 17 9.9231 17H13.0769C13.9679 17 14.5 16.468 14.5 15.577V13.423C14.5 12.532 13.9679 12 13.0769 12ZM13.5 15.577C13.5 15.917 13.4169 16 13.0769 16H9.9231C9.5831 16 9.5 15.917 9.5 15.577V13.423C9.5 13.083 9.5831 13 9.9231 13H13.0769C13.4169 13 13.5 13.083 13.5 13.423V15.577ZM19.5 13C19.5 13.276 19.276 13.5 19 13.5H17C16.724 13.5 16.5 13.276 16.5 13C16.5 12.724 16.724 12.5 17 12.5H19C19.276 12.5 19.5 12.724 19.5 13ZM19.5 16C19.5 16.276 19.276 16.5 19 16.5H17C16.724 16.5 16.5 16.276 16.5 16C16.5 15.724 16.724 15.5 17 15.5H19C19.276 15.5 19.5 15.724 19.5 16ZM19.5 9C19.5 9.276 19.276 9.5 19 9.5H9C8.724 9.5 8.5 9.276 8.5 9C8.5 8.724 8.724 8.5 9 8.5H19C19.276 8.5 19.5 8.724 19.5 9ZM19 4.5H9C6.71 4.5 5.5 5.71 5.5 8V8.5H4C2.621 8.5 1.5 9.622 1.5 11V18C1.5 19.378 2.621 20.5 4 20.5H19C21.29 20.5 22.5 19.29 22.5 17V8C22.5 5.71 21.29 4.5 19 4.5ZM5.5 18C5.5 18.827 4.827 19.5 4 19.5C3.173 19.5 2.5 18.827 2.5 18V11C2.5 10.173 3.173 9.5 4 9.5H5.5V18ZM21.5 17C21.5 18.729 20.729 19.5 19 19.5H5.99902C6.31302 19.082 6.5 18.562 6.5 18V8C6.5 6.271 7.271 5.5 9 5.5H19C20.729 5.5 21.5 6.271 21.5 8V17Z" />
</svg>
