<svg viewBox="0 0 24 24" fill="currentColor" stroke="currentColor" xmlns="http://www.w3.org/2000/svg">
<path d="M20.354 14.383L15.3269 19.425C14.0119 20.744 12.1809 21.5 10.3059 21.5C8.46187 21.5 6.74586 20.797 5.47286 19.52C2.78486 16.823 2.82705 12.393 5.56905 9.64401L11.2971 3.89999C12.1971 2.99699 13.3949 2.5 14.6679 2.5C15.9409 2.5 17.139 2.99699 18.039 3.89999C19.896 5.76299 19.896 8.79401 18.039 10.656L12.2829 16.427C11.2879 17.424 9.55384 17.426 8.55684 16.427C7.53184 15.398 7.53184 13.724 8.55684 12.696L13.613 7.62601C13.808 7.43001 14.126 7.43 14.321 7.625C14.516 7.82 14.516 8.136 14.322 8.332L9.26607 13.402C8.62807 14.041 8.62807 15.082 9.26607 15.721C9.88107 16.34 10.9589 16.338 11.5739 15.721L17.33 9.95001C18.8 8.47701 18.8 6.07899 17.33 4.60599C15.908 3.17999 13.4281 3.17999 12.0061 4.60599L6.27804 10.35C3.96504 12.67 3.92084 16.546 6.18184 18.814C7.26584 19.901 8.72987 20.5 10.3059 20.5C11.9179 20.5 13.4909 19.851 14.6179 18.719L19.645 13.677C19.84 13.481 20.158 13.481 20.353 13.676C20.548 13.871 20.549 14.188 20.354 14.383Z" />
</svg>
