<svg viewBox="0 0 24 24" fill="currentColor" stroke="currentColor" xmlns="http://www.w3.org/2000/svg">
<path d="M22.3539 11.722C22.0359 10.387 21.2278 9.26698 20.1378 8.64998C16.3998 6.53398 12.0519 5.952 7.8959 7.014C6.4859 7.374 5.12491 7.91998 3.85391 8.63698C2.76891 9.24898 1.96483 10.361 1.64883 11.687C1.31283 13.091 1.5478 14.538 2.2958 15.66C2.7368 16.314 3.54895 16.623 4.32095 16.43L7.06094 15.737C8.28994 15.426 9.06202 14.209 8.81802 12.965L8.65981 12.155C10.8488 11.453 13.2008 11.454 15.3688 12.158L15.2069 12.958C14.9549 14.204 15.7218 15.428 16.9528 15.744L19.6798 16.443C19.8338 16.482 19.9909 16.5 20.1449 16.5C20.7699 16.5 21.366 16.192 21.716 15.658C22.453 14.552 22.6859 13.117 22.3539 11.722ZM20.8778 15.111C20.6718 15.424 20.3 15.566 19.925 15.473L17.2008 14.774C16.4858 14.591 16.0409 13.879 16.1869 13.156L16.4359 11.928C16.4849 11.686 16.3498 11.445 16.1188 11.36C14.7998 10.873 13.41 10.629 12.016 10.629C10.629 10.629 9.23996 10.87 7.91396 11.353C7.68296 11.437 7.54687 11.677 7.59487 11.919L7.83682 13.157C7.97782 13.88 7.52882 14.587 6.81582 14.768L4.07681 15.461C3.70381 15.554 3.33388 15.411 3.12588 15.103C2.53388 14.214 2.35 13.054 2.621 11.92C2.873 10.864 3.50187 9.98499 4.34487 9.50899C5.53987 8.83499 6.81795 8.32199 8.14395 7.98299C12.0479 6.98699 16.1319 7.53298 19.6459 9.52098C20.4949 10.001 21.127 10.888 21.381 11.954C21.648 13.08 21.4678 14.228 20.8778 15.111Z" />
</svg>
