<svg viewBox="0 0 24 24" fill="currentColor" stroke="currentColor" xmlns="http://www.w3.org/2000/svg">
<path d="M20.5229 15.32L17.8798 13.744C16.7128 13.048 15.2078 13.388 14.4528 14.515L13.571 15.831C11.205 14.734 9.26688 12.791 8.16888 10.415L9.48089 9.543C10.6109 8.792 10.9549 7.28799 10.2629 6.11999L8.69891 3.48099C8.26691 2.75099 7.41205 2.37099 6.56805 2.54199C5.19205 2.81699 3.98083 3.66001 3.24383 4.85501C2.51183 6.04401 2.30994 7.433 2.67694 8.767C4.34694 14.843 9.16093 19.654 15.2399 21.323C15.6749 21.442 16.114 21.501 16.551 21.501C17.456 21.501 18.3479 21.248 19.1489 20.754C20.3429 20.017 21.1859 18.806 21.4609 17.431C21.6269 16.602 21.2509 15.754 20.5229 15.32ZM20.4799 17.235C20.2589 18.339 19.583 19.312 18.624 19.904C17.675 20.489 16.565 20.651 15.506 20.36C9.76504 18.784 5.21803 14.241 3.64203 8.50299C3.34903 7.43999 3.50988 6.33101 4.09588 5.38101C4.68788 4.42201 5.65992 3.74399 6.78192 3.51999C6.84692 3.50699 6.91299 3.5 6.97699 3.5C7.32699 3.5 7.65805 3.683 7.83905 3.991L9.40203 6.63C9.82303 7.34 9.61396 8.254 8.92596 8.711L7.26483 9.81601C7.06583 9.94901 6.98901 10.204 7.08001 10.425C8.29601 13.339 10.658 15.707 13.56 16.92C13.78 17.012 14.0349 16.936 14.1669 16.737L15.2819 15.072C15.7419 14.387 16.6549 14.18 17.3669 14.603L20.0099 16.179C20.3749 16.396 20.5629 16.82 20.4799 17.235ZM15.6459 7.64599L17.2919 6L15.6459 4.354C15.4509 4.159 15.4509 3.842 15.6459 3.647C15.8409 3.452 16.158 3.452 16.353 3.647L17.999 5.293L19.645 3.647C19.84 3.452 20.157 3.452 20.352 3.647C20.547 3.842 20.547 4.159 20.352 4.354L18.706 6L20.352 7.64599C20.547 7.84099 20.547 8.158 20.352 8.353C20.254 8.451 20.126 8.49899 19.998 8.49899C19.87 8.49899 19.742 8.45 19.644 8.353L17.998 6.707L16.352 8.353C16.254 8.451 16.126 8.49899 15.998 8.49899C15.87 8.49899 15.742 8.45 15.644 8.353C15.451 8.158 15.4509 7.84199 15.6459 7.64599Z" />
</svg>
