<svg viewBox="0 0 24 24" fill="currentColor" stroke="currentColor" xmlns="http://www.w3.org/2000/svg">
<path d="M20.5229 15.32L17.8798 13.744C16.7128 13.048 15.2078 13.388 14.4528 14.515L13.571 15.831C11.205 14.734 9.26688 12.791 8.16888 10.415L9.48089 9.543C10.6109 8.792 10.9549 7.28799 10.2629 6.11999L8.69891 3.48099C8.26591 2.75099 7.41405 2.37099 6.56805 2.54199C5.19205 2.81699 3.98083 3.66001 3.24383 4.85501C2.51183 6.04401 2.30994 7.433 2.67694 8.767C4.34694 14.843 9.16093 19.654 15.2399 21.323C15.6749 21.442 16.114 21.501 16.551 21.501C17.456 21.501 18.3479 21.248 19.1489 20.754C20.3429 20.017 21.1859 18.806 21.4609 17.431C21.6269 16.602 21.2509 15.754 20.5229 15.32ZM20.4799 17.235C20.2589 18.339 19.583 19.312 18.624 19.904C17.674 20.489 16.565 20.651 15.506 20.36C9.76504 18.784 5.21803 14.241 3.64203 8.50299C3.34903 7.43999 3.50988 6.33101 4.09588 5.38101C4.68788 4.42201 5.65992 3.74399 6.78192 3.51999C6.84692 3.50699 6.91299 3.5 6.97699 3.5C7.32699 3.5 7.65805 3.683 7.83905 3.991L9.40203 6.63C9.82303 7.34 9.61396 8.254 8.92596 8.711L7.26483 9.81601C7.06583 9.94901 6.98901 10.204 7.08001 10.425C8.29601 13.339 10.658 15.707 13.56 16.92C13.78 17.012 14.0349 16.936 14.1669 16.737L15.2819 15.072C15.7419 14.387 16.6549 14.18 17.3669 14.603L20.0099 16.179C20.3749 16.396 20.5629 16.82 20.4799 17.235ZM14.8491 4.177C15.1581 3.528 15.8109 3.04601 16.5539 2.92001C17.3209 2.79001 18.0859 3.04401 18.6559 3.61801C19.5449 4.51401 19.409 5.948 18.332 7.026C17.587 7.774 16.9529 8.41599 16.4899 8.88598H18.9999C19.2759 8.88598 19.4999 9.10998 19.4999 9.38598C19.4999 9.66198 19.2759 9.88598 18.9999 9.88598H15.3C15.099 9.88598 14.917 9.76599 14.839 9.58099C14.761 9.39599 14.8008 9.18199 14.9418 9.03799C14.9418 9.03799 16.026 7.92401 17.624 6.32001C18.294 5.64901 18.429 4.80899 17.945 4.32199C17.603 3.97699 17.1669 3.83 16.7219 3.906C16.2939 3.979 15.9229 4.24699 15.7509 4.60699C15.6339 4.85699 15.3339 4.96199 15.0849 4.84399C14.8359 4.72399 14.7291 4.426 14.8491 4.177Z" />
</svg>
