<svg viewBox="0 0 24 24" fill="currentColor" stroke="currentColor" xmlns="http://www.w3.org/2000/svg">
<path d="M20.5229 15.32L17.8798 13.744C16.7118 13.048 15.2068 13.388 14.4528 14.515L13.571 15.832C11.205 14.735 9.26588 12.792 8.16888 10.416L9.48089 9.544C10.6109 8.793 10.9549 7.289 10.2629 6.121L8.69891 3.48098C8.26691 2.74998 7.42083 2.37299 6.56683 2.54199C5.19183 2.81699 3.98083 3.66098 3.24383 4.85598C2.51183 6.04398 2.30994 7.434 2.67694 8.768C4.34694 14.844 9.16093 19.655 15.2399 21.324C15.6749 21.443 16.114 21.502 16.551 21.502C17.456 21.502 18.3479 21.249 19.1489 20.755C20.3429 20.018 21.1859 18.807 21.4609 17.432C21.6269 16.603 21.2509 15.754 20.5229 15.32ZM20.4799 17.235C20.2589 18.339 19.583 19.312 18.624 19.904C17.674 20.49 16.562 20.65 15.506 20.36C9.76504 18.784 5.21803 14.241 3.64203 8.50299C3.34903 7.43999 3.50988 6.33101 4.09588 5.38101C4.68788 4.42201 5.65992 3.74399 6.78192 3.51999C6.84692 3.50699 6.91296 3.5 6.97796 3.5C7.32696 3.5 7.65805 3.68299 7.83905 3.99099L9.40203 6.63C9.82303 7.34 9.61396 8.254 8.92596 8.711L7.26483 9.81601C7.06583 9.94901 6.98901 10.204 7.08001 10.425C8.29601 13.339 10.657 15.706 13.559 16.92C13.782 17.013 14.0349 16.936 14.1669 16.737L15.2819 15.072C15.7419 14.386 16.6559 14.179 17.3669 14.603L20.0099 16.179C20.3749 16.396 20.5629 16.82 20.4799 17.235ZM14.539 9.19101C14.514 9.13001 14.4999 9.065 14.4999 9V5.66699C14.4999 5.39099 14.7239 5.16699 14.9999 5.16699C15.2759 5.16699 15.4999 5.39099 15.4999 5.66699V7.793L19.6459 3.647C19.8409 3.452 20.158 3.452 20.353 3.647C20.548 3.842 20.548 4.159 20.353 4.354L16.207 8.5H18.3329C18.6089 8.5 18.8329 8.724 18.8329 9C18.8329 9.276 18.6089 9.5 18.3329 9.5H14.9999C14.9349 9.5 14.87 9.487 14.809 9.461C14.687 9.411 14.589 9.31301 14.539 9.19101Z" />
</svg>
