<svg viewBox="0 0 24 24" fill="currentColor" stroke="currentColor" xmlns="http://www.w3.org/2000/svg">
<path d="M20.5229 15.32L17.8798 13.744C16.7118 13.048 15.2078 13.388 14.4528 14.515L13.571 15.831C11.205 14.734 9.26688 12.791 8.16888 10.415L9.48089 9.543C10.6109 8.792 10.9549 7.28799 10.2629 6.11999L8.69891 3.48099C8.26691 2.75099 7.41605 2.37099 6.56805 2.54199C5.19205 2.81699 3.98083 3.66001 3.24383 4.85501C2.51183 6.04401 2.30994 7.433 2.67694 8.767C4.34694 14.843 9.16093 19.654 15.2399 21.323C15.6749 21.442 16.114 21.501 16.551 21.501C17.456 21.501 18.3479 21.248 19.1489 20.754C20.3429 20.017 21.1859 18.806 21.4609 17.431C21.6269 16.602 21.2509 15.754 20.5229 15.32ZM20.4799 17.235C20.2589 18.339 19.583 19.312 18.624 19.904C17.674 20.489 16.566 20.651 15.506 20.36C9.76504 18.784 5.21803 14.241 3.64203 8.50299C3.34903 7.43999 3.50988 6.33101 4.09588 5.38101C4.68788 4.42201 5.65992 3.74399 6.78192 3.51999C6.84692 3.50699 6.91299 3.5 6.97699 3.5C7.32699 3.5 7.65805 3.683 7.83905 3.991L9.40203 6.63C9.82303 7.34 9.61396 8.254 8.92596 8.711L7.26483 9.81601C7.06583 9.94901 6.98901 10.204 7.08001 10.425C8.29601 13.339 10.658 15.707 13.56 16.92C13.78 17.012 14.0359 16.936 14.1669 16.737L15.2819 15.072C15.7409 14.387 16.6559 14.18 17.3669 14.603L20.0099 16.179C20.3749 16.396 20.5629 16.82 20.4799 17.235ZM14.4999 6.5C14.4999 6.224 14.7239 6 14.9999 6H16.9999V4C16.9999 3.724 17.2239 3.5 17.4999 3.5C17.7759 3.5 17.9999 3.724 17.9999 4V6H19.9999C20.2759 6 20.4999 6.224 20.4999 6.5C20.4999 6.776 20.2759 7 19.9999 7H17.9999V9C17.9999 9.276 17.7759 9.5 17.4999 9.5C17.2239 9.5 16.9999 9.276 16.9999 9V7H14.9999C14.7239 7 14.4999 6.776 14.4999 6.5Z" />
</svg>
