<svg viewBox="0 0 24 24" fill="currentColor" stroke="currentColor" xmlns="http://www.w3.org/2000/svg">
<path d="M20.7561 4.85599C20.0191 3.66099 18.808 2.81801 17.416 2.53901C16.581 2.37001 15.7321 2.75099 15.3001 3.48099L13.7371 6.12101C13.0461 7.28901 13.3891 8.79201 14.5191 9.54401L15.8311 10.416C14.7321 12.792 12.794 14.735 10.429 15.832L9.54714 14.515C8.79214 13.388 7.28814 13.048 6.12014 13.744L3.47708 15.32C2.74908 15.754 2.37309 16.602 2.53909 17.431C2.81409 18.806 3.6571 20.018 4.8511 20.754C5.6521 21.248 6.543 21.501 7.449 21.501C7.886 21.501 8.32503 21.442 8.76003 21.323C14.839 19.654 19.654 14.843 21.323 8.767C21.689 7.434 21.4881 6.04399 20.7561 4.85599ZM20.3579 8.50202C18.7819 14.24 14.2349 18.783 8.49392 20.359C7.43492 20.65 6.325 20.489 5.376 19.903C4.417 19.311 3.74004 18.339 3.52004 17.234C3.43704 16.819 3.62504 16.395 3.98904 16.178L6.6321 14.602C6.8811 14.454 7.15505 14.383 7.42605 14.383C7.92805 14.383 8.41807 14.626 8.71707 15.071L9.83206 16.736C9.96506 16.935 10.218 17.012 10.44 16.919C13.34 15.706 15.703 13.339 16.919 10.424C17.012 10.203 16.9351 9.94801 16.7351 9.81501L15.074 8.71C14.386 8.253 14.1779 7.339 14.5979 6.629L16.1599 3.98902C16.3779 3.62402 16.8061 3.43499 17.2351 3.51999C18.3391 3.74099 19.3121 4.418 19.9041 5.378C20.4901 6.33 20.6509 7.43902 20.3579 8.50202Z" />
</svg>
