<svg viewBox="0 0 24 24" fill="currentColor" stroke="currentColor" xmlns="http://www.w3.org/2000/svg">
<path d="M8.00719 16.7L10.3922 14.315C10.3932 14.314 10.3932 14.314 10.3942 14.314C10.3942 14.313 10.3951 14.313 10.3951 14.312L21.3531 3.354C21.5481 3.159 21.5481 2.842 21.3531 2.647C21.1581 2.452 20.8411 2.452 20.6461 2.647L10.0521 13.241C9.28811 12.41 8.64915 11.468 8.16515 10.417L9.47716 9.548C10.6122 8.788 10.9551 7.28398 10.2591 6.12798L8.69713 3.48498C8.25813 2.75098 7.40906 2.37201 6.66906 2.53201C6.63606 2.53201 6.6032 2.53499 6.5692 2.54199C5.1902 2.82199 3.9771 3.66998 3.2401 4.86898C2.5111 6.05498 2.31114 7.43901 2.67614 8.76501C3.45714 11.602 4.93599 14.208 6.95299 16.342L2.64708 20.648C2.45208 20.843 2.45208 21.16 2.64708 21.355C2.74508 21.453 2.87309 21.501 3.00109 21.501C3.12909 21.501 3.25709 21.452 3.35509 21.355L7.99523 16.715C7.99823 16.709 8.00319 16.705 8.00719 16.7ZM3.64122 8.49899C3.35022 7.44299 3.51113 6.33899 4.09313 5.39199C4.68513 4.42799 5.66007 3.746 6.67907 3.531C6.71307 3.531 6.74614 3.52799 6.78014 3.52099C7.20314 3.43499 7.61522 3.622 7.83922 3.996L9.40099 6.64001C9.82399 7.34101 9.61321 8.25399 8.92321 8.71499L7.26305 9.815C7.06305 9.948 6.98599 10.203 7.07799 10.425C7.63099 11.748 8.40101 12.924 9.34801 13.946L7.66002 15.634C5.76502 13.622 4.37522 11.169 3.64122 8.49899ZM21.5001 17.032C21.5001 17.167 21.4861 17.301 21.4601 17.432C21.1871 18.804 20.345 20.015 19.151 20.753C18.349 21.249 17.4552 21.502 16.5472 21.502C16.1102 21.502 15.6702 21.443 15.2362 21.324C13.1452 20.744 11.224 19.823 9.52404 18.586C9.30004 18.423 9.25217 18.111 9.41417 17.888C9.57617 17.664 9.89117 17.616 10.1122 17.778C11.7162 18.945 13.5291 19.814 15.5021 20.361C16.5641 20.652 17.6751 20.49 18.6251 19.903C19.5831 19.311 20.2591 18.339 20.4791 17.235C20.4931 17.167 20.5001 17.1 20.5001 17.033C20.5001 16.695 20.3112 16.367 20.0062 16.177L17.3641 14.602C16.6611 14.18 15.7491 14.387 15.2831 15.073L14.1642 16.741C14.0322 16.938 13.7762 17.014 13.5592 16.925C13.0462 16.714 12.53 16.454 12.024 16.152C11.787 16.011 11.7092 15.704 11.8502 15.466C11.9922 15.228 12.3 15.152 12.536 15.293C12.877 15.496 13.223 15.678 13.567 15.837L14.4552 14.514C15.2202 13.386 16.722 13.048 17.879 13.744L20.526 15.323C21.13 15.698 21.5001 16.351 21.5001 17.032Z" />
</svg>
