<svg viewBox="0 0 24 24" fill="currentColor" stroke="currentColor" xmlns="http://www.w3.org/2000/svg">
<path d="M22.368 15.754C22.066 14.405 21.2711 13.278 20.1871 12.662C15.1621 9.804 9.14101 9.75802 4.07601 12.54C2.85801 13.209 1.9722 14.368 1.6412 15.719C1.3132 17.067 1.56703 18.501 2.34603 19.664C2.70003 20.194 3.29104 20.5 3.90804 20.5C4.06204 20.5 4.21913 20.481 4.37313 20.441L7.09701 19.744C8.32401 19.43 9.08919 18.21 8.83919 16.966L8.56307 15.592C10.7851 14.785 13.2631 14.781 15.4791 15.583L15.2052 16.971C14.9592 18.213 15.726 19.429 16.951 19.738L19.691 20.431C20.439 20.62 21.227 20.343 21.651 19.741C22.428 18.639 22.688 17.185 22.368 15.754ZM20.8331 19.167C20.6461 19.432 20.2881 19.551 19.9371 19.462L17.1971 18.769C16.4881 18.59 16.0441 17.886 16.1861 17.166L16.5421 15.365C16.5891 15.13 16.463 14.896 16.241 14.805C13.562 13.707 10.4861 13.711 7.80013 14.815C7.57913 14.906 7.45308 15.141 7.50008 15.376L7.85897 17.163C8.00497 17.885 7.5602 18.593 6.8492 18.775L4.12508 19.472C3.76508 19.565 3.38405 19.418 3.16805 19.095C2.54405 18.163 2.34714 17.048 2.61214 15.956C2.87614 14.876 3.58399 13.951 4.55599 13.416C6.89999 12.129 9.46105 11.486 12.0221 11.486C14.6601 11.486 17.296 12.168 19.692 13.53C20.531 14.008 21.1512 14.897 21.3912 15.972C21.6472 17.112 21.4381 18.306 20.8331 19.167ZM6.50008 7.00001V4.00001C6.50008 3.93501 6.51314 3.87 6.53914 3.809C6.59014 3.686 6.68714 3.589 6.81014 3.538C6.87114 3.513 6.93606 3.499 7.00106 3.499H10.0011C10.2771 3.499 10.5011 3.723 10.5011 3.999C10.5011 4.275 10.2771 4.499 10.0011 4.499H8.20809L10.94 7.231C11.524 7.815 12.4771 7.815 13.0611 7.231L16.6471 3.645C16.8421 3.45 17.1591 3.45 17.3541 3.645C17.5491 3.84 17.5491 4.157 17.3541 4.352L13.7681 7.938C13.2811 8.425 12.6401 8.66902 12.0001 8.66902C11.3591 8.66902 10.72 8.426 10.232 7.938L7.50008 5.206V7.00001C7.50008 7.27601 7.27608 7.50001 7.00008 7.50001C6.72408 7.50001 6.50008 7.27601 6.50008 7.00001Z" />
</svg>
