<svg viewBox="0 0 24 24" fill="currentColor" stroke="currentColor" xmlns="http://www.w3.org/2000/svg">
<path d="M20.275 9.84299L8.86797 3.021C7.21597 2.034 5.4991 2.589 4.5291 3.576C3.5641 4.557 3.04212 6.274 4.04912 7.896L6.59795 12L4.04912 16.104C3.04212 17.726 3.5651 19.442 4.5291 20.424C5.1421 21.047 6.05101 21.497 7.05401 21.497C7.64001 21.497 8.25799 21.343 8.86699 20.979L20.274 14.157C21.041 13.698 21.4991 12.892 21.4991 12C21.4991 11.108 21.042 10.302 20.275 9.84299ZM19.762 13.298L8.35503 20.12C7.09203 20.877 5.88795 20.378 5.24395 19.722C4.60295 19.071 4.12898 17.871 4.89898 16.631L7.46514 12.499H13.0001C13.2761 12.499 13.5001 12.275 13.5001 11.999C13.5001 11.723 13.2761 11.499 13.0001 11.499H7.46514L4.89898 7.36701C4.12798 6.12701 4.60295 4.92701 5.24395 4.27601C5.65795 3.85401 6.30317 3.49799 7.04717 3.49799C7.46017 3.49799 7.90401 3.608 8.35601 3.878L19.763 10.7C20.225 10.976 20.501 11.462 20.501 11.998C20.501 12.534 20.224 13.022 19.762 13.298Z" />
</svg>
