<svg viewBox="0 0 24 24" fill="currentColor" stroke="currentColor" xmlns="http://www.w3.org/2000/svg">
<path d="M20.7501 3.25001C20.1101 2.61001 19.204 2.35902 18.325 2.57802L5.212 5.856C3.325 6.328 2.49009 7.95303 2.50009 9.35503C2.51009 10.756 3.36707 12.37 5.26108 12.815L10.057 13.943L11.1861 18.739C11.6301 20.632 13.2441 21.489 14.6451 21.499C14.6541 21.499 14.662 21.499 14.669 21.499C16.065 21.499 17.6751 20.663 18.1441 18.787L21.4222 5.67403C21.6422 4.79603 21.3901 3.89001 20.7501 3.25001ZM20.451 5.43202L17.1732 18.545C16.8112 19.998 15.5642 20.513 14.6522 20.5C13.7152 20.493 12.501 19.969 12.158 18.511L11.023 13.685L15.3541 9.35402C15.5491 9.15902 15.5491 8.84202 15.3541 8.64702C15.1591 8.45202 14.8421 8.45202 14.6471 8.64702L10.317 12.978L5.49008 11.842C4.03208 11.499 3.50807 10.284 3.50107 9.34801C3.49407 8.41201 4.00217 7.19001 5.45517 6.82701L18.5682 3.54903C18.6962 3.51703 18.824 3.50203 18.951 3.50203C19.356 3.50203 19.747 3.66102 20.044 3.95802C20.433 4.34602 20.585 4.89802 20.451 5.43202Z" />
</svg>
