<svg viewBox="0 0 24 24" fill="currentColor" stroke="currentColor" xmlns="http://www.w3.org/2000/svg">
<path d="M18 14.5C16.65 14.5 15.49 15.276 14.906 16.399L9.13989 13.516C9.36289 13.056 9.5 12.546 9.5 12C9.5 11.454 9.36389 10.945 9.13989 10.484L14.906 7.60101C15.49 8.72401 16.65 9.5 18 9.5C19.93 9.5 21.5 7.93 21.5 6C21.5 4.07 19.93 2.5 18 2.5C16.07 2.5 14.5 4.07 14.5 6C14.5 6.224 14.5259 6.44102 14.5659 6.65302L8.57495 9.64899C7.93495 8.94799 7.022 8.5 6 8.5C4.07 8.5 2.5 10.07 2.5 12C2.5 13.93 4.07 15.5 6 15.5C7.022 15.5 7.93395 15.052 8.57495 14.351L14.5659 17.347C14.5259 17.559 14.5 17.776 14.5 18C14.5 19.93 16.07 21.5 18 21.5C19.93 21.5 21.5 19.93 21.5 18C21.5 16.07 19.93 14.5 18 14.5ZM18 3.5C19.379 3.5 20.5 4.622 20.5 6C20.5 7.378 19.379 8.5 18 8.5C16.621 8.5 15.5 7.378 15.5 6C15.5 4.622 16.621 3.5 18 3.5ZM6 14.5C4.621 14.5 3.5 13.378 3.5 12C3.5 10.622 4.621 9.5 6 9.5C7.379 9.5 8.5 10.622 8.5 12C8.5 13.378 7.379 14.5 6 14.5ZM18 20.5C16.621 20.5 15.5 19.378 15.5 18C15.5 16.622 16.621 15.5 18 15.5C19.379 15.5 20.5 16.622 20.5 18C20.5 19.378 19.379 20.5 18 20.5Z" />
</svg>
