<svg viewBox="0 0 24 24" fill="currentColor" stroke="currentColor" xmlns="http://www.w3.org/2000/svg">
<path d="M17.5 7.5C15.294 7.5 13.5 9.294 13.5 11.5C13.5 12.7 14.0421 13.766 14.8821 14.5H9.11694C9.95694 13.766 10.499 12.7 10.499 11.5C10.499 9.294 8.70502 7.5 6.49902 7.5C4.29302 7.5 2.49902 9.294 2.49902 11.5C2.49902 13.706 4.29302 15.5 6.49902 15.5H17.499C19.705 15.5 21.499 13.706 21.499 11.5C21.499 9.294 19.706 7.5 17.5 7.5ZM3.5 11.5C3.5 9.846 4.846 8.5 6.5 8.5C8.154 8.5 9.5 9.846 9.5 11.5C9.5 13.154 8.154 14.5 6.5 14.5C4.846 14.5 3.5 13.154 3.5 11.5ZM17.5 14.5C15.846 14.5 14.5 13.154 14.5 11.5C14.5 9.846 15.846 8.5 17.5 8.5C19.154 8.5 20.5 9.846 20.5 11.5C20.5 13.154 19.154 14.5 17.5 14.5Z" />
</svg>
