<svg viewBox="0 0 24 24" fill="currentColor" stroke="currentColor" xmlns="http://www.w3.org/2000/svg">
<path d="M15.303 15.62C15.523 15.787 15.566 16.1 15.399 16.32C15.3 16.45 15.151 16.518 15.001 16.518C14.896 16.518 14.789 16.485 14.698 16.416C13.151 15.241 10.85 15.241 9.30301 16.416C9.08301 16.583 8.77009 16.541 8.60209 16.32C8.43509 16.1 8.47803 15.787 8.69803 15.62C10.598 14.178 13.402 14.178 15.303 15.62ZM12 10.51C9.67604 10.51 7.43011 11.341 5.67411 12.85C5.46511 13.03 5.44113 13.346 5.62113 13.555C5.80113 13.764 6.11596 13.788 6.32596 13.608C7.89996 12.255 9.91504 11.51 12 11.51C14.085 11.51 16.1001 12.255 17.6741 13.608C17.7691 13.689 17.885 13.729 18 13.729C18.141 13.729 18.2799 13.67 18.3789 13.555C18.5599 13.346 18.535 13.03 18.326 12.85C16.57 11.341 14.324 10.51 12 10.51ZM21.334 10.07C18.764 7.76801 15.448 6.5 12 6.5C8.55204 6.5 5.23605 7.76801 2.66605 10.07C2.46105 10.254 2.44296 10.57 2.62796 10.776C2.81196 10.982 3.12702 10.998 3.33402 10.815C5.72002 8.677 8.79804 7.5 12 7.5C15.202 7.5 18.2801 8.677 20.666 10.815C20.7621 10.9 20.881 10.942 21 10.942C21.137 10.942 21.2731 10.886 21.3721 10.775C21.5571 10.57 21.539 10.254 21.334 10.07ZM12 18.25C11.586 18.25 11.25 18.586 11.25 19C11.25 19.414 11.586 19.75 12 19.75C12.414 19.75 12.75 19.414 12.75 19C12.75 18.586 12.414 18.25 12 18.25Z" />
</svg>
