<svg viewBox="0 0 24 24" fill="currentColor" stroke="currentColor" xmlns="http://www.w3.org/2000/svg">
<path d="M21.354 3.35401L3.35401 21.354C3.25601 21.452 3.12801 21.5 3.00001 21.5C2.87201 21.5 2.74401 21.451 2.64601 21.354C2.45101 21.159 2.45101 20.842 2.64601 20.647L11.772 11.521C9.76298 11.573 7.83594 12.306 6.32594 13.609C6.23094 13.691 6.11503 13.731 5.99903 13.731C5.85903 13.731 5.72013 13.672 5.62013 13.558C5.44013 13.349 5.46313 13.033 5.67213 12.853C7.42213 11.343 9.66903 10.511 11.999 10.511C12.252 10.511 12.4969 10.531 12.7429 10.55L15.3479 7.94502C14.2529 7.65402 13.131 7.50001 12 7.50001C8.79801 7.50001 5.72102 8.67702 3.33302 10.812C3.23802 10.897 3.11901 10.939 3.00001 10.939C2.86301 10.939 2.72696 10.883 2.62696 10.772C2.44296 10.566 2.461 10.25 2.667 10.066C5.237 7.76502 8.55201 6.499 12 6.499C13.409 6.499 14.804 6.719 16.155 7.137L20.646 2.64601C20.841 2.45101 21.158 2.45101 21.353 2.64601C21.548 2.84101 21.549 3.15801 21.354 3.35401ZM12.988 14.608C12.722 14.56 12.457 14.74 12.408 15.012C12.359 15.284 12.54 15.544 12.812 15.593C13.502 15.717 14.1541 16.002 14.6951 16.417C14.7861 16.487 14.893 16.52 15 16.52C15.149 16.52 15.298 16.453 15.396 16.324C15.564 16.105 15.523 15.791 15.304 15.623C14.637 15.111 13.836 14.76 12.988 14.608ZM16.2691 11.5C16.0211 11.379 15.7211 11.483 15.6001 11.731C15.4801 11.98 15.5831 12.279 15.8311 12.399C16.5041 12.725 17.1231 13.132 17.6731 13.607C17.7681 13.689 17.884 13.729 18 13.729C18.14 13.729 18.2789 13.67 18.3779 13.556C18.5589 13.347 18.5359 13.031 18.3269 12.851C17.7109 12.319 17.0191 11.865 16.2691 11.5ZM19.2781 8.55201C19.0441 8.41001 18.7351 8.48402 18.5911 8.72102C18.4481 8.95702 18.524 9.265 18.76 9.408C19.427 9.812 20.069 10.285 20.668 10.815C20.763 10.899 20.881 10.94 20.999 10.94C21.137 10.94 21.2741 10.883 21.3731 10.771C21.5571 10.564 21.5371 10.248 21.3301 10.065C20.6881 9.49601 19.9971 8.98701 19.2781 8.55201ZM12 18.252C11.586 18.252 11.25 18.588 11.25 19.002C11.25 19.416 11.586 19.752 12 19.752C12.414 19.752 12.75 19.416 12.75 19.002C12.75 18.588 12.414 18.252 12 18.252Z" />
</svg>
