<svg viewBox="0 0 24 24" fill="currentColor" stroke="currentColor" xmlns="http://www.w3.org/2000/svg">
<path d="M16 9.75H11C10.586 9.75 10.25 9.414 10.25 9C10.25 8.586 10.586 8.25 11 8.25H16C16.414 8.25 16.75 8.586 16.75 9C16.75 9.414 16.414 9.75 16 9.75ZM16.75 12C16.75 11.586 16.414 11.25 16 11.25H8C7.586 11.25 7.25 11.586 7.25 12C7.25 12.414 7.586 12.75 8 12.75H16C16.414 12.75 16.75 12.414 16.75 12ZM13.75 15C13.75 14.586 13.414 14.25 13 14.25H8C7.586 14.25 7.25 14.586 7.25 15C7.25 15.414 7.586 15.75 8 15.75H13C13.414 15.75 13.75 15.414 13.75 15ZM22.75 12C22.75 6.072 17.928 1.25 12 1.25C6.072 1.25 1.25 6.072 1.25 12C1.25 17.928 6.072 22.75 12 22.75C17.928 22.75 22.75 17.928 22.75 12ZM21.25 12C21.25 17.101 17.101 21.25 12 21.25C6.899 21.25 2.75 17.101 2.75 12C2.75 6.899 6.899 2.75 12 2.75C17.101 2.75 21.25 6.899 21.25 12Z" />
</svg>
