<svg viewBox="0 0 24 24" fill="currentColor" stroke="currentColor" xmlns="http://www.w3.org/2000/svg">
<path d="M17.625 21.75H6.375C3.715 21.75 2.25 20.285 2.25 17.625V6.375C2.25 3.715 3.715 2.25 6.375 2.25H17.625C20.285 2.25 21.75 3.715 21.75 6.375V17.625C21.75 20.285 20.285 21.75 17.625 21.75ZM6.375 3.75C4.535 3.75 3.75 4.535 3.75 6.375V17.625C3.75 19.465 4.535 20.25 6.375 20.25H17.625C19.465 20.25 20.25 19.465 20.25 17.625V6.375C20.25 4.535 19.465 3.75 17.625 3.75H6.375ZM16.75 9C16.75 8.586 16.414 8.25 16 8.25H11C10.586 8.25 10.25 8.586 10.25 9C10.25 9.414 10.586 9.75 11 9.75H16C16.414 9.75 16.75 9.414 16.75 9ZM16.75 12C16.75 11.586 16.414 11.25 16 11.25H8C7.586 11.25 7.25 11.586 7.25 12C7.25 12.414 7.586 12.75 8 12.75H16C16.414 12.75 16.75 12.414 16.75 12ZM13.75 15C13.75 14.586 13.414 14.25 13 14.25H8C7.586 14.25 7.25 14.586 7.25 15C7.25 15.414 7.586 15.75 8 15.75H13C13.414 15.75 13.75 15.414 13.75 15Z" />
</svg>
