<svg viewBox="0 0 24 24" fill="currentColor" stroke="currentColor" xmlns="http://www.w3.org/2000/svg">
<path d="M21 6.75H8C7.586 6.75 7.25 6.414 7.25 6C7.25 5.586 7.586 5.25 8 5.25H21C21.414 5.25 21.75 5.586 21.75 6C21.75 6.414 21.414 6.75 21 6.75ZM21.75 12C21.75 11.586 21.414 11.25 21 11.25H3C2.586 11.25 2.25 11.586 2.25 12C2.25 12.414 2.586 12.75 3 12.75H21C21.414 12.75 21.75 12.414 21.75 12ZM21.75 18C21.75 17.586 21.414 17.25 21 17.25H12C11.586 17.25 11.25 17.586 11.25 18C11.25 18.414 11.586 18.75 12 18.75H21C21.414 18.75 21.75 18.414 21.75 18Z" />
</svg>
