<svg viewBox="0 0 24 24" fill="currentColor" stroke="currentColor" xmlns="http://www.w3.org/2000/svg">
<path d="M17.625 21.75H6.375C3.715 21.75 2.25 20.285 2.25 17.625V6.375C2.25 3.715 3.715 2.25 6.375 2.25H17.625C20.285 2.25 21.75 3.715 21.75 6.375V17.625C21.75 20.285 20.285 21.75 17.625 21.75ZM6.375 3.75C4.535 3.75 3.75 4.535 3.75 6.375V17.625C3.75 19.465 4.535 20.25 6.375 20.25H17.625C19.465 20.25 20.25 19.465 20.25 17.625V6.375C20.25 4.535 19.465 3.75 17.625 3.75H6.375ZM16.75 10C16.75 9.586 16.414 9.25 16 9.25H8C7.586 9.25 7.25 9.586 7.25 10C7.25 10.414 7.586 10.75 8 10.75H16C16.415 10.75 16.75 10.414 16.75 10ZM16.75 14C16.75 13.586 16.414 13.25 16 13.25H8C7.586 13.25 7.25 13.586 7.25 14C7.25 14.414 7.586 14.75 8 14.75H16C16.415 14.75 16.75 14.414 16.75 14Z" />
</svg>
