<svg viewBox="0 0 24 24" fill="currentColor" stroke="currentColor" xmlns="http://www.w3.org/2000/svg">
<path d="M16 10.75H8C7.586 10.75 7.25 10.414 7.25 10C7.25 9.586 7.586 9.25 8 9.25H16C16.414 9.25 16.75 9.586 16.75 10C16.75 10.414 16.414 10.75 16 10.75ZM16.75 14C16.75 13.586 16.414 13.25 16 13.25H8C7.586 13.25 7.25 13.586 7.25 14C7.25 14.414 7.586 14.75 8 14.75H16C16.414 14.75 16.75 14.414 16.75 14ZM22.75 12C22.75 6.072 17.928 1.25 12 1.25C6.072 1.25 1.25 6.072 1.25 12C1.25 17.928 6.072 22.75 12 22.75C17.928 22.75 22.75 17.928 22.75 12ZM21.25 12C21.25 17.101 17.101 21.25 12 21.25C6.899 21.25 2.75 17.101 2.75 12C2.75 6.899 6.899 2.75 12 2.75C17.101 2.75 21.25 6.899 21.25 12Z" />
</svg>
