<svg viewBox="0 0 24 24" fill="currentColor" stroke="currentColor" xmlns="http://www.w3.org/2000/svg">
<path d="M12 4C7.03 4 3 6.99998 3 12.001C3 14.121 3.72995 15.892 4.94995 17.212C4.79995 18.172 4.25992 19.272 3.16992 20.152C2.83992 20.432 3.02996 20.9819 3.45996 20.9919C4.87996 21.0419 7.06991 20.852 8.40991 19.422C9.50991 19.802 10.72 20.002 12 20.002C16.97 20.002 21 17.001 21 12.001C21 6.99998 16.97 4 12 4ZM15.5 11.556C15.5 14.223 13.312 15.556 12 16C10.688 15.556 8.5 14.222 8.5 11.556C8.5 11.081 8.5 9.78898 8.5 9.33398C10.25 8.83198 11.1251 8.44498 12.0071 8.00098C12.8751 8.44498 13.75 8.832 15.5 9.276C15.5 9.753 15.5 11.065 15.5 11.556Z" />
</svg>
