<svg viewBox="0 0 24 24" fill="currentColor" stroke="currentColor" xmlns="http://www.w3.org/2000/svg">
<path d="M20.6101 9.45801C20.5551 9.29101 20.3659 9.22106 20.2019 9.28406C19.6469 9.49706 19.019 9.55702 18.366 9.44702C17.049 9.22602 15.9499 8.20196 15.6179 6.90796C15.4349 6.19396 15.478 5.53701 15.667 4.93701C15.718 4.77701 15.6429 4.601 15.4839 4.547C14.4099 4.184 13.23 3.99902 12.001 3.99902C7.03098 3.99902 3.00098 6.999 3.00098 12C3.00098 14.12 3.73093 15.8911 4.95093 17.2111C4.80093 18.1711 4.2609 19.271 3.1709 20.151C2.8409 20.431 3.03094 20.981 3.46094 20.991C4.88094 21.041 7.07089 20.851 8.41089 19.421C9.51089 19.801 10.721 20.001 12.001 20.001C16.971 20.001 21.001 17 21.001 12C21 11.083 20.8681 10.236 20.6101 9.45801ZM13 14.75H8C7.586 14.75 7.25 14.414 7.25 14C7.25 13.586 7.586 13.25 8 13.25H13C13.414 13.25 13.75 13.586 13.75 14C13.75 14.414 13.414 14.75 13 14.75ZM16 10.75H8C7.586 10.75 7.25 10.414 7.25 10C7.25 9.586 7.586 9.25 8 9.25H16C16.414 9.25 16.75 9.586 16.75 10C16.75 10.414 16.414 10.75 16 10.75ZM19 8.00195C17.896 8.00195 17 7.10595 17 6.00195C17 4.89695 17.896 4.00195 19 4.00195C20.104 4.00195 21 4.89695 21 6.00195C21 7.10595 20.104 8.00195 19 8.00195Z" />
</svg>
