<svg viewBox="0 0 24 24" fill="currentColor" stroke="currentColor" xmlns="http://www.w3.org/2000/svg">
<path d="M12 4C7.03 4 3 6.99998 3 12.001C3 14.121 3.72995 15.8919 4.94995 17.2119C4.79995 18.1719 4.25992 19.2721 3.16992 20.1521C2.83992 20.4321 3.02996 20.9819 3.45996 20.9919C4.87996 21.0419 7.06991 20.8521 8.40991 19.4221C9.50991 19.8021 10.72 20.002 12 20.002C16.97 20.002 21 17.002 21 12.001C21 6.99998 16.97 4 12 4ZM16.53 10.9301L14.2949 13.165C14.0039 13.457 13.614 13.6189 13.2 13.6189C13.2 13.6189 13.2 13.6189 13.199 13.6189C12.786 13.6189 12.397 13.458 12.105 13.167L10.834 11.8979L8.53003 14.1299C8.38403 14.2759 8.192 14.3501 8 14.3501C7.808 14.3501 7.61597 14.2769 7.46997 14.1299C7.17697 13.8369 7.17697 13.3621 7.46997 13.0691L9.7019 10.837C10.3059 10.234 11.2891 10.2331 11.8931 10.8361L13.1641 12.105L15.47 9.87C15.763 9.57699 16.238 9.57699 16.531 9.87C16.824 10.163 16.823 10.6371 16.53 10.9301Z" />
</svg>
