<svg viewBox="0 0 24 24" fill="currentColor" stroke="currentColor" xmlns="http://www.w3.org/2000/svg">
<path d="M21 7.73303V15C21 17 20 18 18 18H6L3 21V6C3 4 4 3 6 3H16.2671C16.4621 3 16.5929 3.17997 16.5569 3.37097C16.5059 3.64397 16.4891 3.926 16.5061 4.224C16.6071 5.95 18.0469 7.39104 19.7729 7.49304C20.0719 7.51104 20.3549 7.49402 20.6279 7.44202C20.8199 7.40702 21 7.53803 21 7.73303ZM20 2C18.896 2 18 2.895 18 4C18 5.104 18.896 6 20 6C21.104 6 22 5.104 22 4C22 2.895 21.104 2 20 2Z" />
</svg>
