<svg viewBox="0 0 24 24" fill="currentColor" stroke="currentColor" xmlns="http://www.w3.org/2000/svg">
<path d="M21 11V21L19 19H11C9.67 19 9 18.33 9 17C9 17 9 16.72 9 16.479C9 16.266 9.16093 16.17 9.30493 16.17C9.40493 16.17 14.6699 16.17 14.6699 16.17C17.0699 16.17 18.5 14.73 18.5 12.33C18.5 12.33 18.5 9.53305 18.5 9.30005C18.5 9.06705 18.7031 9 18.7981 9C18.8931 9 19 9 19 9C20.33 9 21 9.67 21 11ZM3 17V5.33301C3 3.77701 3.77801 3 5.33301 3H14.666C16.221 3 16.999 3.77801 16.999 5.33301V12.333C16.999 13.889 16.221 14.666 14.666 14.666H5.33301L3 17Z" />
</svg>
