<svg viewBox="0 0 24 24" fill="currentColor" stroke="currentColor" xmlns="http://www.w3.org/2000/svg">
<path d="M18 3H6C4 3 3 4 3 6V21L6 18H18C20 18 21 17 21 15V6C21 4 20 3 18 3ZM16.53 9.43005L14.2949 11.665C14.0039 11.957 13.614 12.119 13.2 12.119C13.2 12.119 13.2 12.119 13.199 12.119C12.786 12.119 12.397 11.958 12.105 11.667L10.834 10.3979L8.53003 12.63C8.38403 12.776 8.192 12.85 8 12.85C7.808 12.85 7.61597 12.777 7.46997 12.63C7.17697 12.337 7.17697 11.862 7.46997 11.569L9.7019 9.33704C10.3059 8.73404 11.2891 8.73306 11.8931 9.33606L13.1641 10.605L15.47 8.37C15.763 8.07699 16.238 8.07699 16.531 8.37C16.824 8.663 16.823 9.13705 16.53 9.43005Z" />
</svg>
