<svg viewBox="0 0 24 24" fill="currentColor" stroke="currentColor" xmlns="http://www.w3.org/2000/svg">
<path d="M20.6289 7.44299C20.3549 7.49399 20.0719 7.51102 19.7739 7.49402C18.0479 7.39202 16.6081 5.95098 16.5071 4.22498C16.4901 3.92698 16.5071 3.64495 16.5581 3.37195C16.5941 3.18095 16.4631 3.00098 16.2681 3.00098H6C4 3.00098 3 4.00098 3 6.00098V21.001L6 18.001H18C20 18.001 21 17.001 21 15.001V7.73401C21 7.53801 20.8199 7.40699 20.6289 7.44299ZM13 13.75H8C7.586 13.75 7.25 13.414 7.25 13C7.25 12.586 7.586 12.25 8 12.25H13C13.414 12.25 13.75 12.586 13.75 13C13.75 13.414 13.414 13.75 13 13.75ZM15 9.75H8C7.586 9.75 7.25 9.414 7.25 9C7.25 8.586 7.586 8.25 8 8.25H15C15.414 8.25 15.75 8.586 15.75 9C15.75 9.414 15.414 9.75 15 9.75ZM22 4C22 5.104 21.104 6 20 6C18.896 6 18 5.104 18 4C18 2.895 18.896 2 20 2C21.104 2 22 2.895 22 4Z" />
</svg>
