<svg viewBox="0 0 24 24" fill="currentColor" stroke="currentColor" xmlns="http://www.w3.org/2000/svg">
<path d="M17.02 12.333V5.33301C17.02 3.77801 16.242 3 14.687 3H5.354C3.798 3 3.021 3.77801 3.021 5.33301V17L5.354 14.667H14.687C16.242 14.667 17.02 13.889 17.02 12.333ZM7.02002 10C6.46802 10 6.01489 9.552 6.01489 9C6.01489 8.448 6.45801 8 7.01001 8H7.02002C7.57302 8 8.02002 8.448 8.02002 9C8.02002 9.552 7.57202 10 7.02002 10ZM10.02 10C9.46802 10 9.01489 9.552 9.01489 9C9.01489 8.448 9.45801 8 10.01 8H10.02C10.573 8 11.02 8.448 11.02 9C11.02 9.552 10.572 10 10.02 10ZM13.02 10C12.468 10 12.0149 9.552 12.0149 9C12.0149 8.448 12.458 8 13.01 8H13.02C13.573 8 14.02 8.448 14.02 9C14.02 9.552 13.572 10 13.02 10ZM21.02 11V21L19.02 19H11.02C9.69002 19 9.02002 18.33 9.02002 17C9.02002 17 9.02002 16.72 9.02002 16.479C9.02002 16.266 9.18095 16.17 9.32495 16.17C9.42495 16.17 14.6899 16.17 14.6899 16.17C17.0899 16.17 18.52 14.73 18.52 12.33C18.52 12.33 18.52 9.53305 18.52 9.30005C18.52 9.06705 18.7231 9 18.8181 9C18.9121 9 19.02 9 19.02 9C20.35 9 21.02 9.67 21.02 11Z" />
</svg>
