<svg viewBox="0 0 24 24" fill="currentColor" stroke="currentColor" xmlns="http://www.w3.org/2000/svg">
<path d="M18 3H6C4 3 3 4 3 6V21L6 18H18C20 18 21 17 21 15V6C21 4 20 3 18 3ZM12.75 13.5C12.75 13.914 12.414 14.25 12 14.25C11.586 14.25 11.25 13.914 11.25 13.5V10.5C11.25 10.086 11.586 9.75 12 9.75C12.414 9.75 12.75 10.086 12.75 10.5V13.5ZM12.02 8.5C11.468 8.5 11.0149 8.052 11.0149 7.5C11.0149 6.948 11.458 6.5 12.01 6.5H12.02C12.573 6.5 13.02 6.948 13.02 7.5C13.02 8.052 12.572 8.5 12.02 8.5Z" />
</svg>
