<svg viewBox="0 0 24 24" fill="currentColor" stroke="currentColor" xmlns="http://www.w3.org/2000/svg">
<path d="M18 3H6C4 3 3 4 3 6V21L6 18H18C20 18 21 17 21 15V6C21 4 20 3 18 3ZM15 11.25H12.75V13.5C12.75 13.914 12.414 14.25 12 14.25C11.586 14.25 11.25 13.914 11.25 13.5V11.25H9C8.586 11.25 8.25 10.914 8.25 10.5C8.25 10.086 8.586 9.75 9 9.75H11.25V7.5C11.25 7.086 11.586 6.75 12 6.75C12.414 6.75 12.75 7.086 12.75 7.5V9.75H15C15.414 9.75 15.75 10.086 15.75 10.5C15.75 10.914 15.414 11.25 15 11.25Z" />
</svg>
