<svg viewBox="0 0 24 24" fill="currentColor" stroke="currentColor" xmlns="http://www.w3.org/2000/svg">
<path d="M21 6V11.979C21 12.188 20.7959 12.3231 20.5969 12.2581C20.0959 12.0921 19.557 12 19 12C16.24 12 14 14.24 14 17C14 17.222 14.013 17.444 14.041 17.661C14.056 17.776 13.9801 18 13.7461 18H6L3 21V6C3 4 4 3 6 3H18C20 3 21 4 21 6ZM20.061 17L21.531 15.53C21.824 15.237 21.824 14.762 21.531 14.469C21.238 14.176 20.763 14.176 20.47 14.469L19 15.939L17.53 14.469C17.237 14.176 16.762 14.176 16.469 14.469C16.176 14.762 16.176 15.237 16.469 15.53L17.939 17L16.469 18.47C16.176 18.763 16.176 19.238 16.469 19.531C16.615 19.677 16.807 19.751 16.999 19.751C17.191 19.751 17.3831 19.678 17.5291 19.531L18.999 18.061L20.469 19.531C20.615 19.677 20.807 19.751 20.999 19.751C21.191 19.751 21.3831 19.678 21.5291 19.531C21.8221 19.238 21.8221 18.763 21.5291 18.47L20.061 17Z" />
</svg>
