<svg viewBox="0 0 24 24" fill="currentColor" stroke="currentColor" xmlns="http://www.w3.org/2000/svg">
<path d="M21 6V11.979C21 12.188 20.7959 12.3231 20.5969 12.2581C20.0959 12.0921 19.557 12 19 12C16.24 12 14 14.24 14 17C14 17.222 14.013 17.444 14.041 17.661C14.056 17.776 13.9801 18 13.7461 18H6L3 21V6C3 4 4 3 6 3H18C20 3 21 4 21 6ZM21.75 16C21.75 15.586 21.414 15.25 21 15.25H16C15.586 15.25 15.25 15.586 15.25 16C15.25 16.414 15.586 16.75 16 16.75H21C21.414 16.75 21.75 16.414 21.75 16Z" />
</svg>
