<svg viewBox="0 0 24 24" fill="currentColor" stroke="currentColor" xmlns="http://www.w3.org/2000/svg">
<path d="M18 3.75H16.75V3C16.75 2.586 16.414 2.25 16 2.25C15.586 2.25 15.25 2.586 15.25 3V3.75H8.75V3C8.75 2.586 8.414 2.25 8 2.25C7.586 2.25 7.25 2.586 7.25 3V3.75H6C3.582 3.75 2.25 5.082 2.25 7.5V18C2.25 20.418 3.582 21.75 6 21.75H18C20.418 21.75 21.75 20.418 21.75 18V7.5C21.75 5.082 20.418 3.75 18 3.75ZM6 5.25H7.25V6C7.25 6.414 7.586 6.75 8 6.75C8.414 6.75 8.75 6.414 8.75 6V5.25H15.25V6C15.25 6.414 15.586 6.75 16 6.75C16.414 6.75 16.75 6.414 16.75 6V5.25H18C19.577 5.25 20.25 5.923 20.25 7.5V8.25H3.75V7.5C3.75 5.923 4.423 5.25 6 5.25ZM18 20.25H6C4.423 20.25 3.75 19.577 3.75 18V9.75H20.25V18C20.25 19.577 19.577 20.25 18 20.25ZM13.551 11C13.546 11 13.5421 11 13.5381 11C12.8771 11 12.369 11.2559 12 11.5879C11.629 11.2539 11.133 11.001 10.449 11C9.60897 11.004 8.90389 11.324 8.41089 11.926C7.82889 12.638 7.61608 13.667 7.83008 14.75C8.35508 17.413 11.5581 18.8741 11.6931 18.9351C11.7911 18.9781 11.895 19 12 19C12.105 19 12.2089 18.9781 12.3069 18.9351C12.4429 18.8741 15.6449 17.413 16.1689 14.75C16.3829 13.667 16.1721 12.639 15.5901 11.927C15.0981 11.324 14.393 11.004 13.551 11ZM14.698 14.459C14.401 15.963 12.705 17.0259 12 17.4089C11.295 17.0259 9.599 15.963 9.302 14.459C9.177 13.827 9.279 13.235 9.573 12.876C9.779 12.625 10.068 12.502 10.458 12.5C10.459 12.5 10.4599 12.5 10.4619 12.5C11.0409 12.5 11.27 13.0761 11.291 13.1331C11.393 13.4341 11.6749 13.633 11.9929 13.637C11.9959 13.637 11.9989 13.637 12.0029 13.637C12.3159 13.637 12.6 13.4361 12.708 13.1411C12.732 13.0751 12.961 12.499 13.54 12.499C13.542 12.499 13.5429 12.499 13.5439 12.499C13.9349 12.501 14.2249 12.624 14.4299 12.875C14.7219 13.235 14.822 13.827 14.698 14.459Z" />
</svg>
