<svg viewBox="0 0 24 24" fill="currentColor" stroke="currentColor" xmlns="http://www.w3.org/2000/svg">
<path d="M12 1.25C6.072 1.25 1.25 6.072 1.25 12C1.25 17.928 6.072 22.75 12 22.75C17.928 22.75 22.75 17.928 22.75 12C22.75 6.072 17.928 1.25 12 1.25ZM12 21.25C6.899 21.25 2.75 17.101 2.75 12C2.75 6.899 6.899 2.75 12 2.75C17.101 2.75 21.25 6.899 21.25 12C21.25 17.101 17.101 21.25 12 21.25ZM12.75 7V12C12.75 12.414 12.414 12.75 12 12.75C11.586 12.75 11.25 12.414 11.25 12V7C11.25 6.586 11.586 6.25 12 6.25C12.414 6.25 12.75 6.586 12.75 7Z" />
</svg>
