<svg viewBox="0 0 24 24" fill="currentColor" stroke="currentColor" xmlns="http://www.w3.org/2000/svg">
<path d="M17.5979 7.96301L18.531 7.03003C18.824 6.73703 18.824 6.26199 18.531 5.96899C18.238 5.67599 17.763 5.67599 17.47 5.96899L16.4919 6.94702C15.1039 5.88702 13.377 5.25 11.5 5.25C6.951 5.25 3.25 8.951 3.25 13.5C3.25 18.049 6.951 21.75 11.5 21.75C16.049 21.75 19.75 18.049 19.75 13.5C19.75 11.368 18.9299 9.42901 17.5979 7.96301ZM11.5 20.25C7.778 20.25 4.75 17.222 4.75 13.5C4.75 9.778 7.778 6.75 11.5 6.75C15.222 6.75 18.25 9.778 18.25 13.5C18.25 17.222 15.222 20.25 11.5 20.25ZM8.25 3C8.25 2.586 8.586 2.25 9 2.25H14C14.414 2.25 14.75 2.586 14.75 3C14.75 3.414 14.414 3.75 14 3.75H9C8.586 3.75 8.25 3.414 8.25 3ZM14.03 12.03L12.5601 13.5L14.03 14.97C14.323 15.263 14.323 15.738 14.03 16.031C13.884 16.177 13.692 16.251 13.5 16.251C13.308 16.251 13.116 16.178 12.97 16.031L11.5 14.561L10.03 16.031C9.88403 16.177 9.692 16.251 9.5 16.251C9.308 16.251 9.11597 16.178 8.96997 16.031C8.67697 15.738 8.67697 15.263 8.96997 14.97L10.4399 13.5L8.96997 12.03C8.67697 11.737 8.67697 11.262 8.96997 10.969C9.26297 10.676 9.73801 10.676 10.031 10.969L11.501 12.439L12.9709 10.969C13.2639 10.676 13.739 10.676 14.032 10.969C14.325 11.262 14.323 11.737 14.03 12.03Z" />
</svg>
