<svg viewBox="0 0 24 24" fill="currentColor" stroke="currentColor" xmlns="http://www.w3.org/2000/svg">
<path d="M12.7501 8V11.689L14.5301 13.469C14.8231 13.762 14.8231 14.237 14.5301 14.53C14.3841 14.676 14.1921 14.75 14.0001 14.75C13.8081 14.75 13.6161 14.677 13.4701 14.53L11.4701 12.53C11.3291 12.389 11.2501 12.198 11.2501 12V8C11.2501 7.586 11.5861 7.25 12.0001 7.25C12.4141 7.25 12.7501 7.586 12.7501 8ZM12.026 2.25C9.21498 2.25 6.5811 3.46395 4.7501 5.54395V3C4.7501 2.586 4.4141 2.25 4.0001 2.25C3.5861 2.25 3.2501 2.586 3.2501 3V7C3.2501 7.414 3.5861 7.75 4.0001 7.75H8.0001C8.4141 7.75 8.7501 7.414 8.7501 7C8.7501 6.586 8.4141 6.25 8.0001 6.25H6.15318C7.68518 4.671 9.7862 3.75 12.0272 3.75C16.5612 3.75 20.2511 7.451 20.2511 12C20.2511 16.549 16.5622 20.25 12.0272 20.25C8.8772 20.25 6.05918 18.4949 4.67418 15.6699C4.49118 15.2989 4.04502 15.1429 3.67002 15.3269C3.29802 15.5089 3.14503 15.9581 3.32603 16.3301C4.96603 19.6731 8.29898 21.75 12.026 21.75C17.387 21.75 21.7501 17.376 21.7501 12C21.7501 6.624 17.388 2.25 12.026 2.25Z" />
</svg>
