<svg viewBox="0 0 24 24" fill="currentColor" stroke="currentColor" xmlns="http://www.w3.org/2000/svg">
<path d="M21.3569 5.34999C21.2579 5.44999 21.129 5.50001 21 5.50001C20.874 5.50001 20.7469 5.45307 20.6499 5.35707L18.6499 3.39698C18.4529 3.20398 18.4491 2.88695 18.6421 2.68995C18.8371 2.49395 19.1541 2.48899 19.3491 2.68299L21.3491 4.64295C21.5471 4.83595 21.5509 5.15299 21.3569 5.34999ZM5.35401 2.64601C5.15901 2.45101 4.84198 2.45101 4.64698 2.64601L2.64698 4.64601C2.45198 4.84101 2.45198 5.15804 2.64698 5.35304C2.74498 5.45104 2.87299 5.49903 3.00099 5.49903C3.12899 5.49903 3.25699 5.45004 3.35499 5.35304L5.35499 3.35304C5.54899 3.15804 5.54901 2.84201 5.35401 2.64601ZM16.7161 19.041L18.315 20.647C18.509 20.843 18.509 21.159 18.313 21.354C18.215 21.451 18.088 21.5 17.96 21.5C17.832 21.5 17.703 21.451 17.606 21.353L15.824 19.562C14.663 20.157 13.3519 20.5 11.9609 20.5C10.5699 20.5 9.25791 20.157 8.09791 19.562L6.31593 21.353C6.21793 21.451 6.08892 21.5 5.96192 21.5C5.83492 21.5 5.7069 21.452 5.6089 21.354C5.4129 21.159 5.41294 20.843 5.60694 20.647L7.20606 19.041C4.94906 17.511 3.46192 14.926 3.46192 12C3.46192 7.31301 7.27492 3.50001 11.9619 3.50001C16.6489 3.50001 20.4619 7.31301 20.4619 12C20.4599 14.926 18.9731 17.511 16.7161 19.041ZM19.46 12C19.46 7.86401 16.096 4.50001 11.96 4.50001C7.82397 4.50001 4.45997 7.86401 4.45997 12C4.45997 16.136 7.82397 19.5 11.96 19.5C16.096 19.5 19.46 16.136 19.46 12ZM14.5 11.5H9.50001C9.22401 11.5 9.00001 11.724 9.00001 12C9.00001 12.276 9.22401 12.5 9.50001 12.5H14.5C14.776 12.5 15 12.276 15 12C15 11.724 14.776 11.5 14.5 11.5Z" />
</svg>
