<svg viewBox="0 0 24 24" fill="currentColor" stroke="currentColor" xmlns="http://www.w3.org/2000/svg">
<path d="M21.3569 5.34999C21.2579 5.44999 21.129 5.50001 21 5.50001C20.874 5.50001 20.7469 5.45307 20.6499 5.35707L18.6499 3.39698C18.4529 3.20398 18.4491 2.88695 18.6421 2.68995C18.8371 2.49395 19.1541 2.48899 19.3491 2.68299L21.3491 4.64295C21.5471 4.83595 21.5509 5.15299 21.3569 5.34999ZM5.35401 2.64601C5.15901 2.45101 4.84198 2.45101 4.64698 2.64601L2.64698 4.64601C2.45198 4.84101 2.45198 5.15804 2.64698 5.35304C2.74498 5.45104 2.87299 5.49903 3.00099 5.49903C3.12899 5.49903 3.25699 5.45004 3.35499 5.35304L5.35499 3.35304C5.54899 3.15804 5.54901 2.84201 5.35401 2.64601ZM16.7561 19.041L18.355 20.647C18.549 20.843 18.549 21.159 18.353 21.354C18.255 21.451 18.128 21.5 18 21.5C17.872 21.5 17.743 21.451 17.646 21.353L15.864 19.562C14.703 20.157 13.392 20.5 12.001 20.5C10.61 20.5 9.29795 20.157 8.13795 19.562L6.35597 21.353C6.25797 21.451 6.12896 21.5 6.00196 21.5C5.87496 21.5 5.74694 21.452 5.64894 21.354C5.45294 21.159 5.45298 20.843 5.64698 20.647L7.2461 19.041C4.9891 17.511 3.50196 14.926 3.50196 12C3.50196 7.31301 7.31496 3.50001 12.002 3.50001C16.689 3.50001 20.502 7.31301 20.502 12C20.5 14.926 19.0131 17.511 16.7561 19.041ZM19.5 12C19.5 7.86401 16.136 4.50001 12 4.50001C7.86401 4.50001 4.50001 7.86401 4.50001 12C4.50001 16.136 7.86401 19.5 12 19.5C16.136 19.5 19.5 16.136 19.5 12ZM14.5 11.5H12.5V9.50001C12.5 9.22401 12.276 9.00001 12 9.00001C11.724 9.00001 11.5 9.22401 11.5 9.50001V11.5H9.50001C9.22401 11.5 9.00001 11.724 9.00001 12C9.00001 12.276 9.22401 12.5 9.50001 12.5H11.5V14.5C11.5 14.776 11.724 15 12 15C12.276 15 12.5 14.776 12.5 14.5V12.5H14.5C14.776 12.5 15 12.276 15 12C15 11.724 14.776 11.5 14.5 11.5Z" />
</svg>
