<svg viewBox="0 0 24 24" fill="currentColor" stroke="currentColor" xmlns="http://www.w3.org/2000/svg">
<path d="M20.5 12C20.5 7.31301 16.687 3.50001 12 3.50001C7.31301 3.50001 3.50001 7.31301 3.50001 12C3.50001 14.926 4.98691 17.511 7.24391 19.041L5.64503 20.647C5.45103 20.843 5.45098 21.159 5.64698 21.354C5.74498 21.451 5.87201 21.5 6.00001 21.5C6.12801 21.5 6.25701 21.451 6.35401 21.353L8.136 19.562C9.297 20.157 10.608 20.5 11.999 20.5C13.39 20.5 14.7021 20.157 15.8621 19.562L17.6441 21.353C17.7421 21.451 17.8711 21.5 17.9981 21.5C18.1251 21.5 18.2531 21.452 18.3511 21.354C18.5471 21.159 18.547 20.843 18.353 20.647L16.7539 19.041C19.0129 17.511 20.5 14.926 20.5 12ZM12 19.5C7.86401 19.5 4.50001 16.136 4.50001 12C4.50001 7.86401 7.86401 4.50001 12 4.50001C16.136 4.50001 19.5 7.86401 19.5 12C19.5 16.136 16.136 19.5 12 19.5ZM21.3569 5.34999C21.2579 5.44999 21.129 5.50001 21 5.50001C20.874 5.50001 20.7469 5.45307 20.6499 5.35707L18.6499 3.39698C18.4529 3.20398 18.4491 2.88695 18.6421 2.68995C18.8361 2.49395 19.1531 2.48899 19.3491 2.68299L21.3491 4.64295C21.5471 4.83595 21.5509 5.15299 21.3569 5.34999ZM5.35401 3.35401L3.35401 5.35401C3.25601 5.45201 3.12801 5.50001 3.00001 5.50001C2.87201 5.50001 2.74401 5.45101 2.64601 5.35401C2.45101 5.15901 2.45101 4.84198 2.64601 4.64698L4.64601 2.64698C4.84101 2.45198 5.15804 2.45198 5.35304 2.64698C5.54804 2.84198 5.54901 3.15801 5.35401 3.35401Z" />
</svg>
