<svg viewBox="0 0 24 24" fill="currentColor" stroke="currentColor" xmlns="http://www.w3.org/2000/svg">
<path d="M17.646 3.35401C17.451 3.15901 17.451 2.84198 17.646 2.64698C17.841 2.45198 18.158 2.45198 18.353 2.64698L20.353 4.64698C20.548 4.84198 20.548 5.15901 20.353 5.35401C20.255 5.45201 20.127 5.50001 19.999 5.50001C19.871 5.50001 19.743 5.45101 19.645 5.35401L17.646 3.35401ZM4.35401 2.64601C4.15901 2.45101 3.84198 2.45101 3.64698 2.64601L1.64698 4.64601C1.45198 4.84101 1.45198 5.15804 1.64698 5.35304C1.74498 5.45104 1.87299 5.49903 2.00099 5.49903C2.12899 5.49903 2.25699 5.45004 2.35499 5.35304L4.35499 3.35304C4.54899 3.15804 4.54901 2.84201 4.35401 2.64601ZM11.03 19.5C9.70104 19.5 8.40506 19.1501 7.27906 18.4861C4.96706 17.1611 3.53004 14.675 3.53004 12C3.53004 7.86401 6.89404 4.50001 11.03 4.50001C13.706 4.50001 16.1911 5.93704 17.5191 8.25404C18.0211 9.10704 18.3419 10.052 18.4729 11.064C18.5089 11.338 18.7519 11.528 19.0339 11.496C19.3069 11.46 19.5011 11.21 19.4661 10.936C19.3181 9.78904 18.952 8.71599 18.384 7.75099C16.881 5.12799 14.064 3.50001 11.03 3.50001C6.34304 3.50001 2.53004 7.31301 2.53004 12C2.53004 14.836 3.96605 17.4691 6.29005 19.0271L4.64894 20.6441C4.45194 20.8381 4.45008 21.1541 4.64308 21.3511C4.74208 21.4501 4.87103 21.5 4.99903 21.5C5.12603 21.5 5.25311 21.452 5.35011 21.356L7.17994 19.553C8.35994 20.163 9.67604 20.5 11.03 20.5C11.306 20.5 11.53 20.276 11.53 20C11.53 19.724 11.307 19.5 11.03 19.5ZM10.5 8.04005V12.04C10.5 12.316 10.724 12.54 11 12.54C11.276 12.54 11.5 12.316 11.5 12.04V8.04005C11.5 7.76405 11.276 7.54005 11 7.54005C10.724 7.54005 10.5 7.76405 10.5 8.04005ZM22.5 17V19C22.5 21.29 21.29 22.5 19 22.5H17C14.71 22.5 13.5 21.29 13.5 19V17C13.5 14.71 14.71 13.5 17 13.5H19C21.29 13.5 22.5 14.71 22.5 17ZM21.5 17C21.5 15.271 20.729 14.5 19 14.5H17C15.271 14.5 14.5 15.271 14.5 17V19C14.5 20.729 15.271 21.5 17 21.5H19C20.729 21.5 21.5 20.729 21.5 19V17ZM19.354 16.646C19.159 16.451 18.842 16.451 18.647 16.646L18.001 17.292L17.355 16.646C17.16 16.451 16.843 16.451 16.648 16.646C16.453 16.841 16.453 17.158 16.648 17.353L17.294 17.999L16.648 18.645C16.453 18.84 16.453 19.1571 16.648 19.3521C16.746 19.4501 16.874 19.4981 17.002 19.4981C17.13 19.4981 17.258 19.4491 17.356 19.3521L18.002 18.7061L18.648 19.3521C18.746 19.4501 18.874 19.4981 19.002 19.4981C19.13 19.4981 19.258 19.4491 19.356 19.3521C19.551 19.1571 19.551 18.84 19.356 18.645L18.71 17.999L19.356 17.353C19.549 17.158 19.549 16.842 19.354 16.646Z" />
</svg>
