<svg viewBox="0 0 24 24" fill="currentColor" stroke="currentColor" xmlns="http://www.w3.org/2000/svg">
<path d="M17.646 3.35401C17.451 3.15901 17.451 2.84198 17.646 2.64698C17.841 2.45198 18.158 2.45198 18.353 2.64698L20.353 4.64698C20.548 4.84198 20.548 5.15901 20.353 5.35401C20.255 5.45201 20.127 5.50001 19.999 5.50001C19.871 5.50001 19.743 5.45101 19.645 5.35401L17.646 3.35401ZM4.35401 2.64601C4.15901 2.45101 3.84198 2.45101 3.64698 2.64601L1.64698 4.64601C1.45198 4.84101 1.45198 5.15804 1.64698 5.35304C1.74498 5.45104 1.87299 5.49903 2.00099 5.49903C2.12899 5.49903 2.25699 5.45004 2.35499 5.35304L4.35499 3.35304C4.54899 3.15804 4.54901 2.84201 4.35401 2.64601ZM11 19.5C6.86401 19.5 3.50001 16.136 3.50001 12C3.50001 7.86401 6.86401 4.50001 11 4.50001C14.779 4.50001 17.9801 7.32102 18.4441 11.062C18.4771 11.336 18.727 11.533 19.002 11.497C19.276 11.463 19.471 11.213 19.437 10.939C18.911 6.69797 15.284 3.50099 11 3.50099C6.31301 3.50099 2.50001 7.31399 2.50001 12.001C2.50001 14.929 3.98903 17.5159 6.24903 19.0449L4.64698 20.647C4.45198 20.842 4.45198 21.159 4.64698 21.354C4.74498 21.452 4.87299 21.5 5.00099 21.5C5.12899 21.5 5.25699 21.451 5.35499 21.354L7.14405 19.565C8.30305 20.159 9.61199 20.501 11.001 20.501C11.277 20.501 11.501 20.277 11.501 20.001C11.501 19.725 11.276 19.5 11 19.5ZM11 7.54005C10.724 7.54005 10.5 7.76405 10.5 8.04005V12.04C10.5 12.316 10.724 12.54 11 12.54C11.276 12.54 11.5 12.316 11.5 12.04V8.04005C11.5 7.76405 11.276 7.54005 11 7.54005ZM22.5 15.8811C22.499 16.2531 22.3541 16.602 22.0911 16.864L16.575 22.355C16.481 22.448 16.3539 22.501 16.2219 22.501H14C13.724 22.501 13.5 22.277 13.5 22.001V19.7791C13.5 19.6471 13.553 19.52 13.646 19.426L19.137 13.9099C19.399 13.6469 19.7469 13.501 20.1189 13.501C20.1189 13.501 20.1201 13.501 20.1211 13.501C20.4911 13.501 20.8401 13.646 21.1021 13.908L22.0921 14.898C22.3551 15.16 22.5 15.5091 22.5 15.8811ZM19.864 17.6699L18.3301 16.137L14.5 19.9839V21.5H16.0171L19.864 17.6699ZM21.5 15.8799C21.5 15.7759 21.459 15.678 21.386 15.604L20.396 14.614C20.323 14.541 20.2251 14.5 20.1221 14.5C20.1211 14.5 20.1211 14.5 20.1211 14.5C20.0171 14.5 19.9199 14.541 19.8469 14.614L19.0371 15.428L20.574 16.9651L21.387 16.155C21.459 16.082 21.5 15.9839 21.5 15.8799Z" />
</svg>
