<svg viewBox="0 0 24 24" fill="currentColor" stroke="currentColor" xmlns="http://www.w3.org/2000/svg">
<path d="M18 4H16.5V3C16.5 2.724 16.276 2.5 16 2.5C15.724 2.5 15.5 2.724 15.5 3V4H8.5V3C8.5 2.724 8.276 2.5 8 2.5C7.724 2.5 7.5 2.724 7.5 3V4H6C3.71 4 2.5 5.21 2.5 7.5V18C2.5 20.29 3.71 21.5 6 21.5H18C20.29 21.5 21.5 20.29 21.5 18V7.5C21.5 5.21 20.29 4 18 4ZM6 5H7.5V6C7.5 6.276 7.724 6.5 8 6.5C8.276 6.5 8.5 6.276 8.5 6V5H15.5V6C15.5 6.276 15.724 6.5 16 6.5C16.276 6.5 16.5 6.276 16.5 6V5H18C19.729 5 20.5 5.771 20.5 7.5V8.5H3.5V7.5C3.5 5.771 4.271 5 6 5ZM18 20.5H6C4.271 20.5 3.5 19.729 3.5 18V9.5H20.5V18C20.5 19.729 19.729 20.5 18 20.5ZM8.75 13C8.75 13.415 8.41591 13.75 8.00391 13.75C7.59291 13.75 7.25 13.415 7.25 13C7.25 12.585 7.57701 12.25 7.98901 12.25H8.00391C8.41591 12.25 8.75 12.585 8.75 13ZM12.75 13C12.75 13.415 12.4159 13.75 12.0039 13.75C11.5929 13.75 11.25 13.415 11.25 13C11.25 12.585 11.577 12.25 11.989 12.25H12.0039C12.4159 12.25 12.75 12.585 12.75 13ZM16.75 13C16.75 13.415 16.4159 13.75 16.0039 13.75C15.5929 13.75 15.25 13.415 15.25 13C15.25 12.585 15.577 12.25 15.989 12.25H16.0039C16.4159 12.25 16.75 12.585 16.75 13ZM8.75 17C8.75 17.415 8.41591 17.75 8.00391 17.75C7.59291 17.75 7.25 17.415 7.25 17C7.25 16.585 7.57701 16.25 7.98901 16.25H8.00391C8.41591 16.25 8.75 16.585 8.75 17ZM12.75 17C12.75 17.415 12.4159 17.75 12.0039 17.75C11.5929 17.75 11.25 17.415 11.25 17C11.25 16.585 11.577 16.25 11.989 16.25H12.0039C12.4159 16.25 12.75 16.585 12.75 17ZM16.75 17C16.75 17.415 16.4159 17.75 16.0039 17.75C15.5929 17.75 15.25 17.415 15.25 17C15.25 16.585 15.577 16.25 15.989 16.25H16.0039C16.4159 16.25 16.75 16.585 16.75 17Z" />
</svg>
