<svg viewBox="0 0 24 24" fill="currentColor" stroke="currentColor" xmlns="http://www.w3.org/2000/svg">
<path d="M7.75 12C7.75 12.415 7.41591 12.75 7.00391 12.75C6.59291 12.75 6.25 12.415 6.25 12C6.25 11.585 6.57701 11.25 6.98901 11.25H7.00391C7.41591 11.25 7.75 11.585 7.75 12ZM11.0039 11.25H10.989C10.577 11.25 10.25 11.585 10.25 12C10.25 12.415 10.5929 12.75 11.0039 12.75C11.4169 12.75 11.75 12.415 11.75 12C11.75 11.585 11.4159 11.25 11.0039 11.25ZM7.00391 15.25H6.98901C6.57701 15.25 6.25 15.585 6.25 16C6.25 16.415 6.59291 16.75 7.00391 16.75C7.41691 16.75 7.75 16.415 7.75 16C7.75 15.585 7.41591 15.25 7.00391 15.25ZM11.5 20C11.5 20.276 11.276 20.5 11 20.5H5C2.71 20.5 1.5 19.29 1.5 17V6.5C1.5 4.21 2.71 3 5 3H6.5V2C6.5 1.724 6.724 1.5 7 1.5C7.276 1.5 7.5 1.724 7.5 2V3H14.5V2C14.5 1.724 14.724 1.5 15 1.5C15.276 1.5 15.5 1.724 15.5 2V3H17C19.29 3 20.5 4.21 20.5 6.5V11C20.5 11.276 20.276 11.5 20 11.5C19.724 11.5 19.5 11.276 19.5 11V8.5H2.5V17C2.5 18.729 3.271 19.5 5 19.5H11C11.276 19.5 11.5 19.724 11.5 20ZM2.5 6.5V7.5H19.5V6.5C19.5 4.771 18.729 4 17 4H15.5V5C15.5 5.276 15.276 5.5 15 5.5C14.724 5.5 14.5 5.276 14.5 5V4H7.5V5C7.5 5.276 7.276 5.5 7 5.5C6.724 5.5 6.5 5.276 6.5 5V4H5C3.271 4 2.5 4.771 2.5 6.5ZM22.5 18C22.5 20.481 20.481 22.5 18 22.5C15.519 22.5 13.5 20.481 13.5 18C13.5 15.519 15.519 13.5 18 13.5C20.481 13.5 22.5 15.519 22.5 18ZM21.5 18C21.5 16.07 19.93 14.5 18 14.5C16.07 14.5 14.5 16.07 14.5 18C14.5 19.93 16.07 21.5 18 21.5C19.93 21.5 21.5 19.93 21.5 18ZM19.354 16.646C19.159 16.451 18.842 16.451 18.647 16.646L18.001 17.292L17.355 16.646C17.16 16.451 16.8429 16.451 16.6479 16.646C16.4529 16.841 16.4529 17.158 16.6479 17.353L17.2939 17.999L16.6479 18.645C16.4529 18.84 16.4529 19.1571 16.6479 19.3521C16.7459 19.4501 16.874 19.498 17.002 19.498C17.13 19.498 17.258 19.4491 17.356 19.3521L18.002 18.7061L18.6479 19.3521C18.7459 19.4501 18.874 19.498 19.002 19.498C19.13 19.498 19.258 19.4491 19.356 19.3521C19.551 19.1571 19.551 18.84 19.356 18.645L18.71 17.999L19.356 17.353C19.549 17.158 19.549 16.842 19.354 16.646Z" />
</svg>
