<svg viewBox="0 0 24 24" fill="currentColor" stroke="currentColor" xmlns="http://www.w3.org/2000/svg">
<path d="M18 4H16.5V3C16.5 2.724 16.276 2.5 16 2.5C15.724 2.5 15.5 2.724 15.5 3V4H8.5V3C8.5 2.724 8.276 2.5 8 2.5C7.724 2.5 7.5 2.724 7.5 3V4H6C3.71 4 2.5 5.21 2.5 7.5V18C2.5 20.29 3.71 21.5 6 21.5H18C20.29 21.5 21.5 20.29 21.5 18V7.5C21.5 5.21 20.29 4 18 4ZM6 5H7.5V6C7.5 6.276 7.724 6.5 8 6.5C8.276 6.5 8.5 6.276 8.5 6V5H15.5V6C15.5 6.276 15.724 6.5 16 6.5C16.276 6.5 16.5 6.276 16.5 6V5H18C19.729 5 20.5 5.771 20.5 7.5V8.5H3.5V7.5C3.5 5.771 4.271 5 6 5ZM18 20.5H6C4.271 20.5 3.5 19.729 3.5 18V9.5H20.5V18C20.5 19.729 19.729 20.5 18 20.5ZM13.5491 11.25C13.5461 11.25 13.5421 11.25 13.5381 11.25C12.8081 11.25 12.314 11.591 12 11.946C11.686 11.591 11.1919 11.25 10.4619 11.25C10.4579 11.25 10.4539 11.25 10.4509 11.25C9.68693 11.253 9.04898 11.542 8.60498 12.084C8.06898 12.738 7.87595 13.6919 8.07495 14.7009C8.57595 17.2389 11.6639 18.6471 11.7959 18.7061C11.8599 18.7351 11.931 18.749 12 18.749C12.069 18.749 12.1401 18.7341 12.2041 18.7061C12.3361 18.6471 15.4241 17.2379 15.9241 14.7009C16.1231 13.6919 15.931 12.738 15.397 12.084C14.952 11.542 14.3131 11.253 13.5491 11.25ZM14.9431 14.5081C14.6081 16.2061 12.644 17.3571 12 17.6931C11.355 17.3571 9.39191 16.2071 9.05591 14.5081C8.91691 13.8031 9.03791 13.134 9.37891 12.718C9.63091 12.41 9.99308 12.252 10.4551 12.25C10.4571 12.25 10.4589 12.25 10.4609 12.25C11.2319 12.25 11.5159 13.023 11.5259 13.053C11.5939 13.255 11.7841 13.3891 11.9971 13.3911C11.9981 13.3911 11.999 13.3911 12.001 13.3911C12.212 13.3911 12.4009 13.2559 12.4729 13.0569C12.4849 13.0239 12.7691 12.25 13.5391 12.25C13.5411 12.25 13.5429 12.25 13.5449 12.25C14.0079 12.252 14.3701 12.41 14.6221 12.718C14.9621 13.133 15.0821 13.8031 14.9431 14.5081Z" />
</svg>
