<svg viewBox="0 0 24 24" fill="currentColor" stroke="currentColor" xmlns="http://www.w3.org/2000/svg">
<path d="M11 19.5H5C3.271 19.5 2.5 18.729 2.5 17V8.5H19.5V11C19.5 11.276 19.724 11.5 20 11.5C20.276 11.5 20.5 11.276 20.5 11V6.5C20.5 4.21 19.29 3 17 3H15.5V2C15.5 1.724 15.276 1.5 15 1.5C14.724 1.5 14.5 1.724 14.5 2V3H7.5V2C7.5 1.724 7.276 1.5 7 1.5C6.724 1.5 6.5 1.724 6.5 2V3H5C2.71 3 1.5 4.21 1.5 6.5V17C1.5 19.29 2.71 20.5 5 20.5H11C11.276 20.5 11.5 20.276 11.5 20C11.5 19.724 11.276 19.5 11 19.5ZM5 4H6.5V5C6.5 5.276 6.724 5.5 7 5.5C7.276 5.5 7.5 5.276 7.5 5V4H14.5V5C14.5 5.276 14.724 5.5 15 5.5C15.276 5.5 15.5 5.276 15.5 5V4H17C18.729 4 19.5 4.771 19.5 6.5V7.5H2.5V6.5C2.5 4.771 3.271 4 5 4ZM19.75 18C19.75 18.276 19.526 18.5 19.25 18.5H18.5V19.25C18.5 19.526 18.276 19.75 18 19.75C17.724 19.75 17.5 19.526 17.5 19.25V18.5H16.75C16.474 18.5 16.25 18.276 16.25 18C16.25 17.724 16.474 17.5 16.75 17.5H17.5V16.75C17.5 16.474 17.724 16.25 18 16.25C18.276 16.25 18.5 16.474 18.5 16.75V17.5H19.25C19.526 17.5 19.75 17.724 19.75 18ZM18 13.5C15.519 13.5 13.5 15.519 13.5 18C13.5 20.481 15.519 22.5 18 22.5C20.481 22.5 22.5 20.481 22.5 18C22.5 15.519 20.481 13.5 18 13.5ZM18 21.5C16.07 21.5 14.5 19.93 14.5 18C14.5 16.07 16.07 14.5 18 14.5C19.93 14.5 21.5 16.07 21.5 18C21.5 19.93 19.93 21.5 18 21.5ZM7.75 12C7.75 12.415 7.41591 12.75 7.00391 12.75C6.59291 12.75 6.25 12.415 6.25 12C6.25 11.585 6.57701 11.25 6.98901 11.25H7.00391C7.41591 11.25 7.75 11.585 7.75 12ZM11.75 12C11.75 12.415 11.4159 12.75 11.0039 12.75C10.5929 12.75 10.25 12.415 10.25 12C10.25 11.585 10.577 11.25 10.989 11.25H11.0039C11.4159 11.25 11.75 11.585 11.75 12ZM7.75 16C7.75 16.415 7.41591 16.75 7.00391 16.75C6.59291 16.75 6.25 16.415 6.25 16C6.25 15.585 6.57701 15.25 6.98901 15.25H7.00391C7.41591 15.25 7.75 15.585 7.75 16Z" />
</svg>
