<svg viewBox="0 0 24 24" fill="currentColor" stroke="currentColor" xmlns="http://www.w3.org/2000/svg">
<path d="M18 4H16.5V3C16.5 2.724 16.276 2.5 16 2.5C15.724 2.5 15.5 2.724 15.5 3V4H8.5V3C8.5 2.724 8.276 2.5 8 2.5C7.724 2.5 7.5 2.724 7.5 3V4H6C3.71 4 2.5 5.21 2.5 7.5V18C2.5 20.29 3.71 21.5 6 21.5H18C20.29 21.5 21.5 20.29 21.5 18V7.5C21.5 5.21 20.29 4 18 4ZM6 5H7.5V6C7.5 6.276 7.724 6.5 8 6.5C8.276 6.5 8.5 6.276 8.5 6V5H15.5V6C15.5 6.276 15.724 6.5 16 6.5C16.276 6.5 16.5 6.276 16.5 6V5H18C19.729 5 20.5 5.771 20.5 7.5V8.5H3.5V7.5C3.5 5.771 4.271 5 6 5ZM18 20.5H6C4.271 20.5 3.5 19.729 3.5 18V9.5H20.5V18C20.5 19.729 19.729 20.5 18 20.5ZM14.9319 11.1411C14.6799 10.8891 14.345 10.75 13.989 10.75C13.632 10.75 13.2959 10.8901 13.0439 11.1431L7.89697 16.314C7.80397 16.407 7.75098 16.534 7.75098 16.667V18.75C7.75098 19.026 7.97498 19.25 8.25098 19.25H10.334C10.466 19.25 10.593 19.198 10.687 19.104L15.8589 13.9561C16.1119 13.7041 16.252 13.3689 16.252 13.0129C16.252 12.6569 16.1131 12.3211 15.8611 12.0691L14.9319 11.1411ZM10.127 18.25H8.75V16.873L12.3091 13.2971L13.7029 14.6909L10.127 18.25ZM15.1521 13.248L14.4109 13.9861L13.0149 12.5901L13.752 11.8491C13.877 11.7241 14.0971 11.7221 14.2241 11.8491L15.1531 12.7771C15.2161 12.8401 15.251 12.9239 15.251 13.0129C15.25 13.1009 15.2151 13.185 15.1521 13.248Z" />
</svg>
