<svg viewBox="0 0 24 24" fill="currentColor" stroke="currentColor" xmlns="http://www.w3.org/2000/svg">
<path d="M18 4H16.5V3C16.5 2.724 16.276 2.5 16 2.5C15.724 2.5 15.5 2.724 15.5 3V4H8.5V3C8.5 2.724 8.276 2.5 8 2.5C7.724 2.5 7.5 2.724 7.5 3V4H6C3.71 4 2.5 5.21 2.5 7.5V18C2.5 20.29 3.71 21.5 6 21.5H18C20.29 21.5 21.5 20.29 21.5 18V7.5C21.5 5.21 20.29 4 18 4ZM6 5H7.5V6C7.5 6.276 7.724 6.5 8 6.5C8.276 6.5 8.5 6.276 8.5 6V5H15.5V6C15.5 6.276 15.724 6.5 16 6.5C16.276 6.5 16.5 6.276 16.5 6V5H18C19.729 5 20.5 5.771 20.5 7.5V8.5H3.5V7.5C3.5 5.771 4.271 5 6 5ZM18 20.5H6C4.271 20.5 3.5 19.729 3.5 18V9.5H20.5V18C20.5 19.729 19.729 20.5 18 20.5ZM15.2361 13.438L13.5481 13.198L12.8191 11.7539C12.5071 11.1339 11.491 11.1339 11.178 11.7539L10.449 13.198L8.76099 13.438C8.41999 13.486 8.14406 13.719 8.03906 14.043C7.93506 14.365 8.02402 14.711 8.27002 14.946L9.48389 16.104L9.20801 17.6841C9.14801 18.0251 9.28497 18.3641 9.56396 18.5701C9.84896 18.7791 10.22 18.808 10.533 18.647L11.949 17.8701L13.4609 18.647C13.5959 18.716 13.741 18.751 13.885 18.751C14.077 18.751 14.2679 18.69 14.4299 18.571C14.7099 18.365 14.8459 18.0261 14.7859 17.6851L14.51 16.104L15.7251 14.946C15.9701 14.712 16.0591 14.365 15.9551 14.043C15.8541 13.718 15.5771 13.486 15.2361 13.438ZM13.7749 15.425C13.5629 15.629 13.4651 15.9219 13.5161 16.2119L13.7729 17.6809L12.4099 16.98C12.1539 16.847 11.8471 16.848 11.5911 16.98L10.2271 17.6819L10.4839 16.2119C10.5349 15.9229 10.4371 15.63 10.2241 15.426L9.14307 14.395L10.6479 14.1809C10.9349 14.1399 11.1851 13.9619 11.3181 13.7019L11.9771 12.301L12.6841 13.7041C12.8161 13.9611 13.066 14.1399 13.353 14.1809L14.8579 14.395L13.7749 15.425Z" />
</svg>
