<svg viewBox="0 0 24 24" fill="currentColor" stroke="currentColor" xmlns="http://www.w3.org/2000/svg">
<path d="M18 4H16.5V3C16.5 2.724 16.276 2.5 16 2.5C15.724 2.5 15.5 2.724 15.5 3V4H8.5V3C8.5 2.724 8.276 2.5 8 2.5C7.724 2.5 7.5 2.724 7.5 3V4H6C3.71 4 2.5 5.21 2.5 7.5V18C2.5 20.29 3.71 21.5 6 21.5H18C20.29 21.5 21.5 20.29 21.5 18V7.5C21.5 5.21 20.29 4 18 4ZM6 5H7.5V6C7.5 6.276 7.724 6.5 8 6.5C8.276 6.5 8.5 6.276 8.5 6V5H15.5V6C15.5 6.276 15.724 6.5 16 6.5C16.276 6.5 16.5 6.276 16.5 6V5H18C19.729 5 20.5 5.771 20.5 7.5V8.5H3.5V7.5C3.5 5.771 4.271 5 6 5ZM18 20.5H6C4.271 20.5 3.5 19.729 3.5 18V9.5H20.5V18C20.5 19.729 19.729 20.5 18 20.5ZM14.354 13.354L12.708 15L14.354 16.646C14.549 16.841 14.549 17.158 14.354 17.353C14.256 17.451 14.128 17.499 14 17.499C13.872 17.499 13.744 17.45 13.646 17.353L12 15.707L10.354 17.353C10.256 17.451 10.128 17.499 10 17.499C9.872 17.499 9.744 17.45 9.646 17.353C9.451 17.158 9.451 16.841 9.646 16.646L11.292 15L9.646 13.354C9.451 13.159 9.451 12.842 9.646 12.647C9.841 12.452 10.158 12.452 10.353 12.647L11.999 14.293L13.645 12.647C13.84 12.452 14.1571 12.452 14.3521 12.647C14.5471 12.842 14.549 13.158 14.354 13.354Z" />
</svg>
