<svg viewBox="0 0 24 24" fill="currentColor" stroke="currentColor" xmlns="http://www.w3.org/2000/svg">
<path d="M17.625 2.5H6.375C3.84 2.5 2.5 3.84 2.5 6.375V17.625C2.5 20.16 3.84 21.5 6.375 21.5H17.625C20.16 21.5 21.5 20.16 21.5 17.625V6.375C21.5 3.84 20.16 2.5 17.625 2.5ZM20.5 17.625C20.5 19.586 19.587 20.5 17.625 20.5H6.375C4.413 20.5 3.5 19.586 3.5 17.625V6.375C3.5 4.414 4.413 3.5 6.375 3.5H17.625C19.587 3.5 20.5 4.414 20.5 6.375V17.625ZM15.354 14.646C15.549 14.841 15.549 15.158 15.354 15.353C15.256 15.451 15.128 15.499 15 15.499C14.872 15.499 14.744 15.45 14.646 15.353L11.646 12.353C11.552 12.259 11.5 12.132 11.5 11.999V6.99902C11.5 6.72302 11.724 6.49902 12 6.49902C12.276 6.49902 12.5 6.72302 12.5 6.99902V11.792L15.354 14.646Z" />
</svg>
