<svg viewBox="0 0 24 24" fill="currentColor" stroke="currentColor" xmlns="http://www.w3.org/2000/svg">
<path d="M12 1.5C6.21 1.5 1.5 6.21 1.5 12C1.5 17.79 6.21 22.5 12 22.5C17.79 22.5 22.5 17.79 22.5 12C22.5 6.21 17.79 1.5 12 1.5ZM12 21.5C6.762 21.5 2.5 17.238 2.5 12C2.5 6.762 6.762 2.5 12 2.5C17.238 2.5 21.5 6.762 21.5 12C21.5 17.238 17.238 21.5 12 21.5ZM15.354 14.646C15.549 14.841 15.549 15.158 15.354 15.353C15.256 15.451 15.128 15.499 15 15.499C14.872 15.499 14.744 15.45 14.646 15.353L11.646 12.353C11.552 12.259 11.5 12.132 11.5 11.999V6.99902C11.5 6.72302 11.724 6.49902 12 6.49902C12.276 6.49902 12.5 6.72302 12.5 6.99902V11.792L15.354 14.646Z" />
</svg>
