<svg viewBox="0 0 24 24" fill="currentColor" stroke="currentColor" xmlns="http://www.w3.org/2000/svg">
<path d="M19.5 6.26196V4.5C19.5 3.397 18.603 2.5 17.5 2.5H6.5C5.397 2.5 4.5 3.397 4.5 4.5V6.2561C4.5 8.1921 5.17207 8.6731 6.26807 9.2981L11.012 12L6.26807 14.7019C5.17207 15.3269 4.5 15.8069 4.5 17.7439V19.5C4.5 20.603 5.397 21.5 6.5 21.5H17.5C18.603 21.5 19.5 20.603 19.5 19.5V17.738C19.5 15.808 18.832 15.3269 17.741 14.7019L13.0271 12L17.741 9.2981C18.832 8.6731 19.5 8.19096 19.5 6.26196ZM17.2439 15.5701C18.1319 16.0791 18.5 16.29 18.5 17.738V19.5C18.5 20.051 18.052 20.5 17.5 20.5H6.5C5.948 20.5 5.5 20.051 5.5 19.5V17.7439C5.5 16.2909 5.86896 16.08 6.76196 15.572L12.022 12.5759L17.2439 15.5701ZM12.021 11.4241L6.76196 8.42798C5.86796 7.91898 5.49902 7.7091 5.49902 6.2561V4.5C5.49902 3.949 5.94702 3.5 6.49902 3.5H17.499C18.051 3.5 18.499 3.949 18.499 4.5V6.26196C18.499 7.70996 18.1309 7.92091 17.2419 8.43091L12.021 11.4241Z" />
</svg>
