<svg viewBox="0 0 24 24" fill="currentColor" stroke="currentColor" xmlns="http://www.w3.org/2000/svg">
<path d="M11.4961 20.912C11.5291 21.186 11.3331 21.435 11.0581 21.467C10.8691 21.489 10.689 21.5 10.499 21.5C6.08802 21.5 2.49902 17.911 2.49902 13.5C2.49902 9.089 6.08802 5.5 10.499 5.5C12.367 5.5 14.112 6.17002 15.501 7.29102L16.645 6.14697C16.84 5.95197 17.1571 5.95197 17.3521 6.14697C17.5471 6.34197 17.5471 6.659 17.3521 6.854L16.2429 7.96301C17.0199 8.76901 17.645 9.73396 18.03 10.835C18.122 11.096 17.9839 11.381 17.7229 11.472C17.4639 11.565 17.1779 11.426 17.0859 11.166C16.1079 8.37502 13.461 6.5 10.498 6.5C6.63905 6.5 3.49805 9.64 3.49805 13.5C3.49805 17.36 6.63905 20.5 10.498 20.5C10.648 20.5 10.789 20.491 10.939 20.474C11.211 20.438 11.4651 20.637 11.4961 20.912ZM10 10V13.5C10 13.776 10.224 14 10.5 14C10.776 14 11 13.776 11 13.5V10C11 9.724 10.776 9.5 10.5 9.5C10.224 9.5 10 9.724 10 10ZM8 3.5H13C13.276 3.5 13.5 3.276 13.5 3C13.5 2.724 13.276 2.5 13 2.5H8C7.724 2.5 7.5 2.724 7.5 3C7.5 3.276 7.724 3.5 8 3.5ZM22.5 17V19C22.5 21.29 21.29 22.5 19 22.5H17C14.71 22.5 13.5 21.29 13.5 19V17C13.5 14.71 14.71 13.5 17 13.5H19C21.29 13.5 22.5 14.71 22.5 17ZM21.5 17C21.5 15.271 20.729 14.5 19 14.5H17C15.271 14.5 14.5 15.271 14.5 17V19C14.5 20.729 15.271 21.5 17 21.5H19C20.729 21.5 21.5 20.729 21.5 19V17ZM18.896 16.813L17.583 18.126L17.104 17.646C16.909 17.451 16.592 17.451 16.397 17.646C16.202 17.841 16.202 18.158 16.397 18.353L17.23 19.186C17.324 19.28 17.451 19.332 17.584 19.332C17.717 19.332 17.844 19.279 17.938 19.186L19.605 17.519C19.8 17.324 19.8 17.007 19.605 16.812C19.41 16.617 19.092 16.618 18.896 16.813Z" />
</svg>
