<svg viewBox="0 0 24 24" fill="currentColor" stroke="currentColor" xmlns="http://www.w3.org/2000/svg">
<path d="M17.2529 7.95398L18.354 6.85303C18.549 6.65803 18.549 6.341 18.354 6.146C18.159 5.951 17.842 5.951 17.647 6.146L16.5171 7.276C15.1431 6.167 13.4 5.49902 11.501 5.49902C7.08998 5.49902 3.50098 9.08802 3.50098 13.499C3.50098 17.91 7.08998 21.499 11.501 21.499C15.912 21.499 19.501 17.91 19.501 13.499C19.5 11.347 18.6409 9.39398 17.2529 7.95398ZM11.5 20.5C7.641 20.5 4.5 17.36 4.5 13.5C4.5 9.64 7.641 6.5 11.5 6.5C15.359 6.5 18.5 9.64 18.5 13.5C18.5 17.36 15.359 20.5 11.5 20.5ZM8.5 3C8.5 2.724 8.724 2.5 9 2.5H14C14.276 2.5 14.5 2.724 14.5 3C14.5 3.276 14.276 3.5 14 3.5H9C8.724 3.5 8.5 3.276 8.5 3ZM14.5 13.5C14.5 13.776 14.276 14 14 14H9C8.724 14 8.5 13.776 8.5 13.5C8.5 13.224 8.724 13 9 13H14C14.276 13 14.5 13.224 14.5 13.5Z" />
</svg>
