<svg viewBox="0 0 24 24" fill="currentColor" stroke="currentColor" xmlns="http://www.w3.org/2000/svg">
<path d="M11.4961 20.912C11.5291 21.186 11.3331 21.435 11.0581 21.467C10.8691 21.489 10.689 21.5 10.499 21.5C6.08802 21.5 2.49902 17.911 2.49902 13.5C2.49902 9.089 6.08802 5.5 10.499 5.5C12.367 5.5 14.112 6.17002 15.501 7.29102L16.645 6.14697C16.84 5.95197 17.1571 5.95197 17.3521 6.14697C17.5471 6.34197 17.5471 6.659 17.3521 6.854L16.2429 7.96301C17.0199 8.76901 17.645 9.73396 18.03 10.835C18.122 11.096 17.9839 11.381 17.7229 11.472C17.4639 11.565 17.1779 11.426 17.0859 11.166C16.1079 8.37502 13.461 6.5 10.498 6.5C6.63905 6.5 3.49805 9.64 3.49805 13.5C3.49805 17.36 6.63905 20.5 10.498 20.5C10.648 20.5 10.789 20.491 10.939 20.474C11.205 20.438 11.4641 20.637 11.4961 20.912ZM10 10V13.5C10 13.776 10.224 14 10.5 14C10.776 14 11 13.776 11 13.5V10C11 9.724 10.776 9.5 10.5 9.5C10.224 9.5 10 9.724 10 10ZM8 3.5H13C13.276 3.5 13.5 3.276 13.5 3C13.5 2.724 13.276 2.5 13 2.5H8C7.724 2.5 7.5 2.724 7.5 3C7.5 3.276 7.724 3.5 8 3.5ZM22.5 15.881C22.499 16.253 22.3541 16.602 22.0911 16.864L16.575 22.355C16.481 22.448 16.3539 22.501 16.2219 22.501H14C13.724 22.501 13.5 22.277 13.5 22.001V19.7791C13.5 19.6471 13.553 19.52 13.646 19.426L19.137 13.91C19.399 13.647 19.7469 13.501 20.1189 13.501C20.1189 13.501 20.1201 13.501 20.1211 13.501C20.4911 13.501 20.8401 13.646 21.1021 13.908L22.092 14.8979C22.355 15.1599 22.5 15.509 22.5 15.881ZM19.864 17.67L18.3301 16.137L14.5 19.984V21.5H16.0171L19.864 17.67ZM21.5 15.88C21.5 15.776 21.459 15.678 21.386 15.604L20.396 14.614C20.323 14.541 20.2251 14.5 20.1221 14.5C20.1211 14.5 20.1211 14.5 20.1211 14.5C20.0171 14.5 19.9199 14.541 19.8469 14.614L19.0371 15.428L20.574 16.965L21.387 16.155C21.459 16.082 21.5 15.984 21.5 15.88Z" />
</svg>
