<svg viewBox="0 0 24 24" fill="currentColor" stroke="currentColor" xmlns="http://www.w3.org/2000/svg">
<path d="M17.2529 7.95398L18.354 6.85303C18.549 6.65803 18.549 6.341 18.354 6.146C18.159 5.951 17.842 5.951 17.647 6.146L16.5171 7.276C15.1431 6.167 13.4 5.49902 11.501 5.49902C7.08998 5.49902 3.50098 9.08802 3.50098 13.499C3.50098 17.91 7.08998 21.499 11.501 21.499C15.912 21.499 19.501 17.91 19.501 13.499C19.5 11.347 18.6409 9.39398 17.2529 7.95398ZM11.5 20.5C7.641 20.5 4.5 17.36 4.5 13.5C4.5 9.64 7.641 6.5 11.5 6.5C15.359 6.5 18.5 9.64 18.5 13.5C18.5 17.36 15.359 20.5 11.5 20.5ZM13.8 14.6C14.021 14.766 14.0659 15.079 13.9009 15.3C13.8019 15.431 13.652 15.5 13.501 15.5C13.397 15.5 13.2909 15.467 13.2009 15.4L11.2009 13.9C11.0749 13.806 11.001 13.657 11.001 13.5V10C11.001 9.724 11.225 9.5 11.501 9.5C11.777 9.5 12.001 9.724 12.001 10V13.25L13.8 14.6ZM8.5 3C8.5 2.724 8.724 2.5 9 2.5H14C14.276 2.5 14.5 2.724 14.5 3C14.5 3.276 14.276 3.5 14 3.5H9C8.724 3.5 8.5 3.276 8.5 3Z" />
</svg>
