<svg viewBox="0 0 24 24" fill="currentColor" stroke="currentColor" xmlns="http://www.w3.org/2000/svg">
<path d="M12.5001 8V11.793L14.3541 13.647C14.5491 13.842 14.5491 14.159 14.3541 14.354C14.2561 14.452 14.1281 14.5 14.0001 14.5C13.8721 14.5 13.7441 14.451 13.6461 14.354L11.6461 12.354C11.5521 12.26 11.5001 12.133 11.5001 12V8C11.5001 7.724 11.7241 7.5 12.0001 7.5C12.2761 7.5 12.5001 7.724 12.5001 8ZM12.0259 2.5C9.04994 2.5 6.28607 3.90489 4.50006 6.26489V3C4.50006 2.724 4.27606 2.5 4.00006 2.5C3.72406 2.5 3.50006 2.724 3.50006 3V7C3.50006 7.276 3.72406 7.5 4.00006 7.5H8.00006C8.27606 7.5 8.50006 7.276 8.50006 7C8.50006 6.724 8.27606 6.5 8.00006 6.5H5.57404C7.17304 4.608 9.51894 3.5 12.0259 3.5C16.6989 3.5 20.5001 7.313 20.5001 12C20.5001 16.687 16.6989 20.5 12.0259 20.5C8.77894 20.5 5.87604 18.691 4.44904 15.78C4.32704 15.531 4.02509 15.429 3.78009 15.551C3.53209 15.672 3.42909 15.972 3.55109 16.22C5.14809 19.477 8.39616 21.5 12.0272 21.5C17.2512 21.5 21.501 17.238 21.501 12C21.501 6.762 17.2499 2.5 12.0259 2.5Z" />
</svg>
