<svg viewBox="0 0 24 24" fill="currentColor" stroke="currentColor" xmlns="http://www.w3.org/2000/svg">
<path d="M16 6.5H18.426C16.827 4.608 14.4811 3.5 11.9741 3.5C7.30112 3.5 3.5 7.313 3.5 12C3.5 16.687 7.30112 20.5 11.9741 20.5C15.2211 20.5 18.124 18.691 19.551 15.78C19.673 15.532 19.977 15.429 20.22 15.551C20.468 15.672 20.571 15.972 20.449 16.22C18.852 19.477 15.6039 21.5 11.9729 21.5C6.7489 21.5 2.49902 17.238 2.49902 12C2.49902 6.762 6.7489 2.5 11.9729 2.5C14.9489 2.5 17.713 3.90489 19.499 6.26489V3C19.499 2.724 19.723 2.5 19.999 2.5C20.275 2.5 20.499 2.724 20.499 3V7C20.499 7.276 20.275 7.5 19.999 7.5H15.999C15.723 7.5 15.499 7.276 15.499 7C15.499 6.724 15.724 6.5 16 6.5ZM12 7.5C11.724 7.5 11.5 7.724 11.5 8V12C11.5 12.133 11.553 12.26 11.646 12.354L13.646 14.354C13.744 14.452 13.872 14.5 14 14.5C14.128 14.5 14.256 14.451 14.354 14.354C14.549 14.159 14.549 13.842 14.354 13.647L12.5 11.793V8C12.5 7.724 12.276 7.5 12 7.5Z" />
</svg>
