<svg viewBox="0 0 24 24" fill="currentColor" stroke="currentColor" xmlns="http://www.w3.org/2000/svg">
<path d="M21.5 17V14C21.5 12.79 21.15 11.89 20.5 11.31V6C20.5 3.71 19.29 2.5 17 2.5H7C4.71 2.5 3.5 3.71 3.5 6V11.31C2.85 11.9 2.5 12.8 2.5 14V17V19.5V21C2.5 21.28 2.72 21.5 3 21.5C3.28 21.5 3.5 21.28 3.5 21V20H20.5V21C20.5 21.28 20.72 21.5 21 21.5C21.28 21.5 21.5 21.28 21.5 21V17ZM4.5 6C4.5 4.27 5.27 3.5 7 3.5H17C18.73 3.5 19.5 4.27 19.5 6V10.72C19.2 10.62 18.86 10.56 18.5 10.53V7.85001C18.5 6.83001 17.6 6 16.5 6H13.5C12.9 6 12.37 6.25 12 6.64C11.63 6.25 11.1 6 10.5 6H7.5C6.4 6 5.5 6.83001 5.5 7.85001V10.53C5.14 10.56 4.8 10.62 4.5 10.72V6ZM12.5 10.5V7.85001C12.5 7.38001 12.95 7 13.5 7H16.5C17.05 7 17.5 7.38001 17.5 7.85001V10.5H12.5ZM6.5 10.5V7.85001C6.5 7.38001 6.95 7 7.5 7H10.5C11.05 7 11.5 7.38001 11.5 7.85001V10.5H6.5ZM3.5 14C3.5 12.27 4.27 11.5 6 11.5H18C19.73 11.5 20.5 12.27 20.5 14V16.5H3.5V14ZM3.5 19V17.5H20.5V19H3.5Z" />
</svg>
