<svg viewBox="0 0 24 24" fill="currentColor" stroke="currentColor" xmlns="http://www.w3.org/2000/svg">
<path d="M18 7.5H12C11.724 7.5 11.5 7.724 11.5 8V14.5H3.5V6C3.5 5.724 3.276 5.5 3 5.5C2.724 5.5 2.5 5.724 2.5 6V18C2.5 18.276 2.724 18.5 3 18.5C3.276 18.5 3.5 18.276 3.5 18V15.5H20.5V18C20.5 18.276 20.724 18.5 21 18.5C21.276 18.5 21.5 18.276 21.5 18V11C21.5 8.71 20.29 7.5 18 7.5ZM12.5 14.5V8.5H18C19.729 8.5 20.5 9.271 20.5 11V14.5H12.5ZM7.5 12.5C8.878 12.5 10 11.378 10 10C10 8.622 8.878 7.5 7.5 7.5C6.122 7.5 5 8.622 5 10C5 11.378 6.122 12.5 7.5 12.5ZM7.5 8.5C8.327 8.5 9 9.173 9 10C9 10.827 8.327 11.5 7.5 11.5C6.673 11.5 6 10.827 6 10C6 9.173 6.673 8.5 7.5 8.5Z" />
</svg>
