<svg viewBox="0 0 24 24" fill="currentColor" stroke="currentColor" xmlns="http://www.w3.org/2000/svg">
<path d="M14.167 20.252C13.711 21.033 12.903 21.5 12.005 21.5C11.107 21.5 10.298 21.033 9.843 20.252C9.704 20.013 9.785 19.707 10.024 19.568C10.261 19.429 10.568 19.51 10.708 19.748C10.982 20.219 11.467 20.5 12.006 20.5C12.544 20.5 13.029 20.219 13.304 19.748C13.443 19.51 13.751 19.43 13.988 19.568C14.226 19.707 14.306 20.014 14.167 20.252ZM20.391 17.688C20.372 17.665 18.5 15.292 18.5 12.5V10C18.5 9.724 18.276 9.5 18 9.5C17.724 9.5 17.5 9.724 17.5 10V12.5C17.5 14.624 18.426 16.485 19.052 17.5H4.94799C5.57399 16.485 6.5 14.624 6.5 12.5V9C6.5 5.967 8.967 3.5 12 3.5C12.276 3.5 12.5 3.276 12.5 3C12.5 2.724 12.276 2.5 12 2.5C8.416 2.5 5.5 5.416 5.5 9V12.5C5.5 15.281 3.62799 17.664 3.60899 17.688C3.48899 17.838 3.46599 18.044 3.54899 18.217C3.63199 18.39 3.80699 18.5 3.99899 18.5H19.999C20.191 18.5 20.366 18.39 20.45 18.217C20.534 18.043 20.511 17.838 20.391 17.688ZM14.5 5C14.5 3.622 15.622 2.5 17 2.5C18.378 2.5 19.5 3.622 19.5 5C19.5 6.378 18.378 7.5 17 7.5C15.622 7.5 14.5 6.378 14.5 5ZM15.5 5C15.5 5.827 16.173 6.5 17 6.5C17.827 6.5 18.5 5.827 18.5 5C18.5 4.173 17.827 3.5 17 3.5C16.173 3.5 15.5 4.173 15.5 5Z" />
</svg>
