<svg viewBox="0 0 24 24" fill="currentColor" stroke="currentColor" xmlns="http://www.w3.org/2000/svg">
<path d="M14.162 20.252C13.706 21.033 12.898 21.5 12 21.5C11.102 21.5 10.294 21.033 9.83801 20.252C9.69901 20.014 9.77901 19.707 10.018 19.568C10.257 19.429 10.563 19.509 10.702 19.748C10.977 20.219 11.462 20.5 12 20.5C12.538 20.5 13.023 20.219 13.298 19.748C13.437 19.51 13.743 19.43 13.982 19.568C14.221 19.707 14.301 20.014 14.162 20.252ZM20.391 17.688C20.511 17.838 20.534 18.044 20.451 18.217C20.368 18.39 20.193 18.5 20.001 18.5H4.00101C3.80901 18.5 3.63399 18.39 3.55099 18.217C3.46799 18.044 3.49099 17.838 3.61099 17.688C3.62999 17.665 5.50699 15.282 5.50699 12.5V8.995C5.50699 5.414 8.42101 2.5 12.002 2.5C15.583 2.5 18.497 5.414 18.497 8.995V12.5C18.495 15.281 20.372 17.664 20.391 17.688ZM19.051 17.5C18.424 16.484 17.495 14.624 17.495 12.5V8.995C17.495 5.965 15.03 3.5 12 3.5C8.97 3.5 6.505 5.965 6.505 8.995V12.5C6.505 14.624 5.57701 16.484 4.94901 17.5H19.051ZM5.51099 2.625C5.30499 2.443 4.98899 2.46201 4.80499 2.66901C3.49499 4.15301 2.70001 5.98 2.50201 7.95C2.47501 8.225 2.67501 8.46999 2.95001 8.49699C2.96701 8.49799 2.984 8.49899 3 8.49899C3.254 8.49899 3.47101 8.307 3.49701 8.049C3.67301 6.288 4.38499 4.656 5.55499 3.33C5.73799 3.124 5.71799 2.808 5.51099 2.625ZM19.195 2.66901C19.012 2.46201 18.696 2.443 18.489 2.625C18.282 2.808 18.262 3.12399 18.445 3.33099C19.615 4.65699 20.326 6.289 20.503 8.05C20.529 8.308 20.746 8.5 21 8.5C21.017 8.5 21.033 8.499 21.05 8.498C21.325 8.47 21.525 8.226 21.498 7.951C21.3 5.979 20.504 4.15301 19.195 2.66901Z" />
</svg>
