<svg viewBox="0 0 24 24" fill="currentColor" stroke="currentColor" xmlns="http://www.w3.org/2000/svg">
<path d="M14.162 20.252C13.706 21.033 12.898 21.5 12 21.5C11.102 21.5 10.294 21.033 9.83799 20.252C9.69899 20.014 9.779 19.707 10.018 19.568C10.257 19.429 10.563 19.509 10.702 19.748C10.977 20.219 11.462 20.5 12 20.5C12.538 20.5 13.023 20.219 13.298 19.748C13.438 19.51 13.744 19.43 13.982 19.568C14.221 19.707 14.301 20.014 14.162 20.252ZM20.45 18.217C20.367 18.39 20.192 18.5 20 18.5H4C3.808 18.5 3.633 18.39 3.55 18.217C3.467 18.044 3.49 17.838 3.61 17.688C3.629 17.665 5.50599 15.282 5.50599 12.5V8.995C5.50599 5.414 8.42 2.5 12.001 2.5C15.582 2.5 18.496 5.414 18.496 8.995V12.5C18.496 15.281 20.372 17.664 20.392 17.688C20.51 17.838 20.534 18.043 20.45 18.217ZM19.051 17.5C18.424 16.484 17.495 14.624 17.495 12.5V8.995C17.495 5.965 15.03 3.5 12 3.5C8.97 3.5 6.50499 5.965 6.50499 8.995V12.5C6.50499 14.624 5.57699 16.484 4.94899 17.5H19.051Z" />
</svg>
