<svg viewBox="0 0 24 24" fill="currentColor" stroke="currentColor" xmlns="http://www.w3.org/2000/svg">
<path d="M14.162 20.252C13.706 21.033 12.898 21.5 12 21.5C11.102 21.5 10.294 21.033 9.83802 20.252C9.69902 20.014 9.77902 19.707 10.018 19.568C10.257 19.429 10.563 19.509 10.702 19.748C10.977 20.219 11.462 20.5 12 20.5C12.538 20.5 13.023 20.219 13.298 19.748C13.438 19.51 13.744 19.43 13.982 19.568C14.221 19.707 14.301 20.014 14.162 20.252ZM18.5 12.5V9.99999C18.5 9.72399 18.276 9.49999 18 9.49999C17.724 9.49999 17.5 9.72399 17.5 9.99999V12.5C17.5 14.624 18.426 16.485 19.052 17.5H10C9.72401 17.5 9.50001 17.724 9.50001 18C9.50001 18.276 9.72401 18.5 10 18.5H20C20.192 18.5 20.367 18.39 20.451 18.217C20.534 18.044 20.511 17.838 20.391 17.688C20.372 17.664 18.5 15.292 18.5 12.5ZM21.354 3.354L6.35401 18.354C6.35401 18.354 6.35404 18.354 6.35304 18.354L3.35304 21.354C3.25504 21.452 3.12703 21.5 2.99903 21.5C2.87103 21.5 2.74303 21.451 2.64503 21.354C2.45003 21.159 2.45003 20.842 2.64503 20.647L4.79103 18.501H4.00001C3.80801 18.501 3.633 18.391 3.55 18.218C3.467 18.045 3.49 17.84 3.61 17.689C3.629 17.665 5.50099 15.282 5.50099 12.501V8.99999C5.50099 5.41599 8.41699 2.49999 12.001 2.49999C14.313 2.49999 16.43 3.74199 17.59 5.70399L20.647 2.64599C20.842 2.45099 21.159 2.45099 21.354 2.64599C21.549 2.84099 21.549 3.158 21.354 3.354ZM5.79304 17.5L16.854 6.43899C15.907 4.64799 14.044 3.49999 12 3.49999C8.96701 3.49999 6.50001 5.96699 6.50001 8.99999V12.5C6.50001 14.624 5.57401 16.485 4.94801 17.5H5.79304Z" />
</svg>
