<svg viewBox="0 0 24 24" fill="currentColor" stroke="currentColor" xmlns="http://www.w3.org/2000/svg">
<path d="M20.5 9C21.603 9 22.5 8.103 22.5 7C22.5 5.897 21.603 5 20.5 5C19.571 5 18.795 5.64 18.571 6.5H14.5C14.5 5.229 13.771 4.5 12.5 4.5H11.5C10.229 4.5 9.5 5.229 9.5 6.5H5.42902C5.20502 5.64 4.429 5 3.5 5C2.397 5 1.5 5.897 1.5 7C1.5 8.103 2.397 9 3.5 9C4.429 9 5.20502 8.36 5.42902 7.5H8.03101C5.88501 8.764 4.64502 11.205 4.52802 14.5H4.5C3.229 14.5 2.5 15.229 2.5 16.5V17.5C2.5 18.771 3.229 19.5 4.5 19.5H5.5C6.771 19.5 7.5 18.771 7.5 17.5V16.5C7.5 15.233 6.77401 14.505 5.51001 14.501C5.59401 12.277 6.29601 8.98799 9.52802 7.88199C9.66401 8.91399 10.363 9.5 11.499 9.5H12.499C13.635 9.5 14.334 8.91399 14.47 7.88199C17.702 8.98699 18.405 12.277 18.488 14.501C17.224 14.505 16.498 15.233 16.498 16.5V17.5C16.498 18.771 17.227 19.5 18.498 19.5H19.498C20.769 19.5 21.498 18.771 21.498 17.5V16.5C21.498 15.229 20.769 14.5 19.498 14.5H19.469C19.353 11.205 18.112 8.764 15.966 7.5H18.568C18.795 8.36 19.571 9 20.5 9ZM6.5 16.5V17.5C6.5 18.22 6.22 18.5 5.5 18.5H4.5C3.78 18.5 3.5 18.22 3.5 17.5V16.5C3.5 15.78 3.78 15.5 4.5 15.5H5.5C6.22 15.5 6.5 15.78 6.5 16.5ZM20.5 16.5V17.5C20.5 18.22 20.22 18.5 19.5 18.5H18.5C17.78 18.5 17.5 18.22 17.5 17.5V16.5C17.5 15.78 17.78 15.5 18.5 15.5H19.5C20.22 15.5 20.5 15.78 20.5 16.5ZM20.5 6C21.051 6 21.5 6.448 21.5 7C21.5 7.552 21.051 8 20.5 8C19.949 8 19.5 7.552 19.5 7C19.5 6.448 19.949 6 20.5 6ZM3.5 8C2.949 8 2.5 7.552 2.5 7C2.5 6.448 2.949 6 3.5 6C4.051 6 4.5 6.448 4.5 7C4.5 7.552 4.051 8 3.5 8ZM13.5 7.5C13.5 8.22 13.22 8.5 12.5 8.5H11.5C10.78 8.5 10.5 8.22 10.5 7.5V6.5C10.5 5.78 10.78 5.5 11.5 5.5H12.5C13.22 5.5 13.5 5.78 13.5 6.5V7.5Z" />
</svg>
