<svg viewBox="0 0 24 24" fill="currentColor" stroke="currentColor" xmlns="http://www.w3.org/2000/svg">
<path d="M19.044 8.937C19.332 9.209 19.5 9.595 19.506 9.993C19.511 10.393 19.354 10.773 19.064 11.063L8.76399 21.353C8.66699 21.45 8.53898 21.499 8.40998 21.499C8.31898 21.499 8.22703 21.474 8.14503 21.423C7.94803 21.3 7.86202 21.057 7.93702 20.837L8.67701 18.687C8.76601 18.426 9.05002 18.286 9.31202 18.376C9.57302 18.466 9.71202 18.751 9.62202 19.012L9.58601 19.117L18.356 10.355C18.481 10.23 18.506 10.095 18.505 10.005C18.503 9.875 18.449 9.749 18.356 9.661C18.155 9.472 18.147 9.15499 18.336 8.95399C18.527 8.75599 18.844 8.747 19.044 8.937ZM21.354 3.354L3.35401 21.354C3.25601 21.452 3.12801 21.5 3.00001 21.5C2.87201 21.5 2.74401 21.451 2.64601 21.354C2.45101 21.159 2.45101 20.842 2.64601 20.647L10.812 12.481L10.825 12.443L8.00001 12.5C7.51701 12.5 7.07603 12.275 6.79103 11.883C6.50703 11.493 6.42602 10.986 6.57502 10.527L9.19599 3.84801C9.45899 3.02801 10.154 2.5 11.001 2.5H15.481C15.985 2.5 16.452 2.751 16.73 3.172C17.011 3.596 17.06 4.12799 16.861 4.59599L15.457 7.83701L20.647 2.647C20.842 2.452 21.159 2.452 21.354 2.647C21.549 2.842 21.549 3.158 21.354 3.354ZM11.511 11.781L14.269 9.02299C14.118 8.76299 14.099 8.453 14.22 8.173L15.94 4.201C16.007 4.044 15.99 3.86901 15.894 3.72301C15.8 3.58101 15.649 3.49899 15.479 3.49899H11C10.591 3.49899 10.276 3.748 10.136 4.183L7.51502 10.862C7.47402 10.992 7.50101 11.16 7.59901 11.294C7.69401 11.424 7.84001 11.5 8.00001 11.5H10.87C11.117 11.5 11.336 11.615 11.511 11.781Z" />
</svg>
