<svg viewBox="0 0 24 24" fill="currentColor" stroke="currentColor" xmlns="http://www.w3.org/2000/svg">
<path d="M12 1.5C6.21 1.5 1.5 6.21 1.5 12C1.5 17.79 6.21 22.5 12 22.5C17.79 22.5 22.5 17.79 22.5 12C22.5 6.21 17.79 1.5 12 1.5ZM12 21.5C6.762 21.5 2.5 17.238 2.5 12C2.5 6.762 6.762 2.5 12 2.5C17.238 2.5 21.5 6.762 21.5 12C21.5 17.238 17.238 21.5 12 21.5ZM16.278 10.889H13.722V6.5C13.722 6.293 13.595 6.107 13.401 6.033C13.206 5.959 12.989 6.01199 12.85 6.16499L7.34998 12.276C7.21798 12.423 7.18401 12.633 7.26501 12.814C7.34501 12.995 7.52398 13.111 7.72198 13.111H10.278V17.5C10.278 17.707 10.405 17.893 10.599 17.967C10.658 17.989 10.718 18 10.778 18C10.917 18 11.053 17.942 11.15 17.834L16.65 11.723C16.782 11.576 16.816 11.366 16.735 11.185C16.654 11.005 16.475 10.889 16.278 10.889ZM11.278 16.197V12.611C11.278 12.335 11.054 12.111 10.778 12.111H8.84497L12.722 7.802V11.388C12.722 11.664 12.946 11.888 13.222 11.888H15.155L11.278 16.197Z" />
</svg>
