<svg viewBox="0 0 24 24" fill="currentColor" stroke="currentColor" xmlns="http://www.w3.org/2000/svg">
<path d="M17.625 2.5H6.375C3.84 2.5 2.5 3.84 2.5 6.375V17.625C2.5 20.16 3.84 21.5 6.375 21.5H17.625C20.16 21.5 21.5 20.16 21.5 17.625V6.375C21.5 3.84 20.16 2.5 17.625 2.5ZM20.5 17.625C20.5 19.586 19.587 20.5 17.625 20.5H6.375C4.413 20.5 3.5 19.586 3.5 17.625V6.375C3.5 4.414 4.413 3.5 6.375 3.5H17.625C19.587 3.5 20.5 4.414 20.5 6.375V17.625ZM15.055 9.66701H13.622L14.535 7.55099C14.683 7.207 14.649 6.814 14.443 6.5C14.237 6.186 13.889 6 13.514 6H10.777C10.179 6 9.68398 6.371 9.49298 6.944L7.89001 11.037C7.77801 11.374 7.83503 11.749 8.04303 12.037C8.25103 12.326 8.58797 12.499 8.94397 12.499H10.383L8.72302 17.337C8.64702 17.557 8.73403 17.8 8.93103 17.923C9.01303 17.974 9.10398 17.999 9.19598 17.999C9.32498 17.999 9.45299 17.949 9.54999 17.853L15.839 11.563C16.158 11.244 16.252 10.769 16.079 10.352C15.908 9.93601 15.505 9.66701 15.055 9.66701ZM15.133 10.856L10.372 15.618L11.433 12.527C11.514 12.291 11.477 12.028 11.331 11.825C11.185 11.621 10.95 11.5 10.7 11.5H8.94501C8.89801 11.5 8.87 11.475 8.854 11.454C8.839 11.433 8.82499 11.399 8.83099 11.378L10.434 7.285C10.477 7.155 10.572 7 10.778 7H13.515C13.565 7 13.593 7.027 13.608 7.05C13.624 7.073 13.637 7.11 13.618 7.155L12.569 9.58501C12.465 9.82501 12.49 10.1 12.633 10.318C12.776 10.536 13.019 10.667 13.28 10.667H15.054C15.103 10.667 15.137 10.689 15.157 10.735C15.176 10.781 15.168 10.821 15.133 10.856Z" />
</svg>
