<svg viewBox="0 0 24 24" fill="currentColor" stroke="currentColor" xmlns="http://www.w3.org/2000/svg">
<path d="M12 1.5C6.21 1.5 1.5 6.21 1.5 12C1.5 17.79 6.21 22.5 12 22.5C17.79 22.5 22.5 17.79 22.5 12C22.5 6.21 17.79 1.5 12 1.5ZM12 21.5C6.762 21.5 2.5 17.238 2.5 12C2.5 6.762 6.762 2.5 12 2.5C17.238 2.5 21.5 6.762 21.5 12C21.5 17.238 17.238 21.5 12 21.5ZM15.054 9.66701H13.622L14.535 7.552C14.684 7.207 14.65 6.81501 14.444 6.50101C14.238 6.18701 13.891 6 13.515 6H10.778C10.18 6 9.68402 6.371 9.49402 6.944L7.89099 11.037C7.77899 11.375 7.83601 11.749 8.04401 12.038C8.25201 12.327 8.58898 12.499 8.94598 12.499H10.385L8.724 17.337C8.649 17.557 8.73501 17.8 8.93201 17.923C9.01401 17.974 9.10502 17.999 9.19702 17.999C9.32602 17.999 9.45403 17.949 9.55103 17.853L15.84 11.563C16.159 11.245 16.254 10.769 16.081 10.352C15.908 9.936 15.505 9.66701 15.054 9.66701ZM15.133 10.856L10.372 15.618L11.433 12.527C11.515 12.291 11.476 12.028 11.331 11.825C11.186 11.621 10.95 11.5 10.7 11.5H8.94501C8.89801 11.5 8.86998 11.475 8.85498 11.454C8.83998 11.433 8.82499 11.398 8.83099 11.378L10.434 7.285C10.477 7.155 10.573 7 10.779 7H13.516C13.566 7 13.594 7.027 13.609 7.05C13.624 7.073 13.638 7.11 13.618 7.155L12.57 9.584C12.466 9.824 12.49 10.099 12.633 10.317C12.777 10.536 13.019 10.667 13.281 10.667H15.055C15.104 10.667 15.139 10.69 15.158 10.735C15.176 10.781 15.167 10.821 15.133 10.856Z" />
</svg>
