<svg viewBox="0 0 24 24" fill="currentColor" stroke="currentColor" xmlns="http://www.w3.org/2000/svg">
<path d="M18.384 9.42599C18.147 8.85499 17.616 8.5 16.998 8.5L14.141 8.57001L15.857 4.59399C16.058 4.12899 16.011 3.59799 15.733 3.17599C15.455 2.75299 14.986 2.5 14.48 2.5H9.99999C9.16199 2.5 8.46699 3.024 8.19499 3.843L5.57799 10.525C5.42299 10.988 5.49798 11.48 5.78398 11.876C6.06998 12.272 6.513 12.5 7.002 12.5L9.82597 12.434L6.94096 20.838C6.86596 21.058 6.95197 21.301 7.14897 21.424C7.23097 21.475 7.32199 21.5 7.41399 21.5C7.54299 21.5 7.67099 21.45 7.76799 21.354L18.06 11.061C18.496 10.624 18.62 9.99699 18.384 9.42599ZM17.352 10.354L8.58897 19.119L10.772 12.759C10.871 12.469 10.824 12.147 10.646 11.898C10.468 11.649 10.179 11.501 9.87297 11.501H7.002C6.839 11.501 6.68996 11.425 6.59496 11.293C6.49996 11.161 6.47499 10.997 6.51799 10.867L9.13499 4.18401C9.27999 3.74901 9.59496 3.5 10.001 3.5H14.48C14.651 3.5 14.803 3.58201 14.897 3.72501C14.991 3.86801 15.006 4.041 14.939 4.198L13.223 8.174C13.097 8.469 13.126 8.80501 13.302 9.07201C13.478 9.33901 13.775 9.5 14.095 9.5H16.998C17.308 9.5 17.43 9.73601 17.46 9.80901C17.49 9.88101 17.571 10.134 17.352 10.354Z" />
</svg>
