<svg viewBox="0 0 24 24" fill="currentColor" stroke="currentColor" xmlns="http://www.w3.org/2000/svg">
<path d="M21.354 2.646C21.159 2.451 20.842 2.451 20.647 2.646L14.501 8.79201V3.00001C14.501 2.79301 14.374 2.60701 14.18 2.53301C13.985 2.45801 13.767 2.512 13.629 2.665L4.62904 12.665C4.49704 12.812 4.46302 13.022 4.54402 13.203C4.62402 13.384 4.80299 13.5 5.00099 13.5H9.50099V13.793L2.64698 20.647C2.45198 20.842 2.45198 21.159 2.64698 21.354C2.74498 21.452 2.87299 21.5 3.00099 21.5C3.12899 21.5 3.25699 21.451 3.35499 21.354L10.355 14.354C10.355 14.354 10.355 14.354 10.356 14.354L14.355 10.354C14.355 10.354 14.355 10.354 14.356 10.354L21.356 3.35401C21.549 3.15801 21.549 2.842 21.354 2.646ZM10 12.5H6.123L13.5 4.303V9.793L10.465 12.828C10.395 12.637 10.215 12.5 10 12.5ZM19.457 10.797C19.538 10.977 19.504 11.188 19.372 11.335L10.372 21.335C10.275 21.442 10.14 21.501 10 21.501C9.94001 21.501 9.87899 21.49 9.82099 21.468C9.62799 21.394 9.50001 21.208 9.50001 21.001V18.001C9.50001 17.725 9.72401 17.501 10 17.501C10.276 17.501 10.5 17.725 10.5 18.001V19.698L17.877 11.501H17C16.724 11.501 16.5 11.277 16.5 11.001C16.5 10.725 16.724 10.501 17 10.501H19C19.197 10.5 19.376 10.616 19.457 10.797Z" />
</svg>
