<svg viewBox="0 0 24 24" fill="currentColor" stroke="currentColor" xmlns="http://www.w3.org/2000/svg">
<path d="M17.625 2.5H6.375C3.84 2.5 2.5 3.84 2.5 6.375V17.625C2.5 20.16 3.84 21.5 6.375 21.5H17.625C20.16 21.5 21.5 20.16 21.5 17.625V6.375C21.5 3.84 20.16 2.5 17.625 2.5ZM20.5 17.625C20.5 19.586 19.587 20.5 17.625 20.5H6.375C4.413 20.5 3.5 19.586 3.5 17.625V6.375C3.5 4.414 4.413 3.5 6.375 3.5H17.625C19.587 3.5 20.5 4.414 20.5 6.375V17.625ZM16.277 10.889H13.722V6.5C13.722 6.293 13.594 6.107 13.401 6.033C13.211 5.959 12.989 6.01099 12.85 6.16499L7.34998 12.276C7.21798 12.423 7.18501 12.633 7.26501 12.814C7.34601 12.995 7.52498 13.111 7.72198 13.111H10.277V17.5C10.277 17.707 10.405 17.893 10.598 17.967C10.656 17.989 10.716 18 10.777 18C10.916 18 11.052 17.942 11.149 17.834L16.649 11.723C16.781 11.576 16.814 11.366 16.734 11.185C16.653 11.005 16.475 10.889 16.277 10.889ZM11.277 16.197V12.611C11.277 12.335 11.053 12.111 10.777 12.111H8.84497L12.722 7.802V11.388C12.722 11.664 12.946 11.888 13.222 11.888H15.154L11.277 16.197Z" />
</svg>
