<svg viewBox="0 0 24 24" fill="currentColor" stroke="currentColor" xmlns="http://www.w3.org/2000/svg">
<path d="M18.887 10.34V4.5C18.887 3.229 18.158 2.5 16.887 2.5H6.96698C5.67698 2.5 4.96698 3.21 4.96698 4.5V10.439C4.69298 10.618 4.50098 10.912 4.50098 11.262V11.92C4.50098 12.968 5.16302 13.912 6.17102 14.278L9.50598 15.309C9.94098 15.467 10.21 15.899 10.158 16.359L9.86102 19.044C9.79202 19.669 9.99299 20.295 10.412 20.764C10.831 21.232 11.432 21.501 12.06 21.501C12.688 21.501 13.289 21.232 13.709 20.764C14.128 20.296 14.329 19.669 14.26 19.044L13.962 16.35C13.911 15.893 14.177 15.463 14.583 15.311L17.872 14.275C18.847 13.913 19.501 12.971 19.501 11.931V11.262C19.5 10.848 19.247 10.492 18.887 10.34ZM6.966 3.5H14.501V6C14.501 6.276 14.725 6.5 15.001 6.5C15.277 6.5 15.501 6.276 15.501 6V3.5H16.886C17.615 3.5 17.886 3.771 17.886 4.5V10.262H5.96503V4.5C5.96603 3.771 6.237 3.5 6.966 3.5ZM18.5 11.931C18.5 12.555 18.107 13.12 17.547 13.329L14.258 14.365C13.397 14.685 12.866 15.547 12.967 16.46L13.265 19.154C13.304 19.502 13.196 19.837 12.963 20.097C12.496 20.618 11.622 20.618 11.155 20.097C10.922 19.837 10.815 19.502 10.853 19.154L11.15 16.469C11.252 15.549 10.715 14.685 9.82202 14.361L6.48602 13.33C5.89502 13.115 5.49799 12.549 5.49799 11.92V11.262H18.498V11.931H18.5Z" />
</svg>
