<svg viewBox="0 0 24 24" fill="currentColor" stroke="currentColor" xmlns="http://www.w3.org/2000/svg">
<path d="M16.944 16.349C17.2 16.349 17.456 16.251 17.651 16.056L18.365 15.342C19.073 14.634 19.29 13.576 18.918 12.646L17.821 9.90301C17.656 9.49101 17.778 9.02797 18.125 8.75097L20.6 6.77099C21.132 6.34499 21.459 5.71102 21.496 5.03002C21.534 4.35002 21.279 3.68298 20.798 3.20098C20.316 2.71998 19.648 2.46501 18.968 2.50201C18.287 2.54001 17.654 2.867 17.229 3.398L15.249 5.87298C14.973 6.21898 14.51 6.34202 14.098 6.17602L11.355 5.07897C10.425 4.70597 9.36797 4.92401 8.65997 5.63201L7.94598 6.346C7.62998 6.662 7.58401 7.13398 7.78101 7.51098L3.08801 12.204C2.71001 12.582 2.50201 13.084 2.50201 13.618C2.50201 14.152 2.71001 14.654 3.08801 15.032L8.96698 20.91C9.34398 21.288 9.84598 21.496 10.381 21.496C10.915 21.496 11.417 21.288 11.795 20.91L16.488 16.218C16.631 16.297 16.784 16.349 16.944 16.349ZM10.425 5.90301C10.613 5.90301 10.802 5.938 10.983 6.01L13.726 7.10699C14.549 7.43799 15.476 7.19199 16.03 6.49999L18.01 4.02502C18.261 3.71102 18.621 3.52498 19.024 3.50298C19.424 3.48298 19.811 3.62997 20.091 3.90997C20.376 4.19497 20.521 4.57401 20.498 4.97601C20.476 5.37901 20.29 5.73902 19.975 5.99102L17.5 7.971C16.807 8.526 16.563 9.45202 16.894 10.275L17.991 13.017C18.214 13.575 18.084 14.21 17.659 14.635L16.97 15.323C16.946 15.258 16.91 15.196 16.857 15.143C16.788 15.074 16.702 15.038 16.614 15.018L8.98199 7.385C8.96199 7.297 8.92599 7.211 8.85699 7.143C8.80399 7.091 8.742 7.05502 8.677 7.03002L9.36603 6.341C9.65203 6.055 10.035 5.90301 10.425 5.90301ZM11.086 20.207C10.707 20.586 10.049 20.584 9.672 20.207L5.586 16.121L7.354 14.353C7.549 14.158 7.549 13.841 7.354 13.646C7.159 13.451 6.84197 13.451 6.64697 13.646L4.87903 15.414L3.79303 14.328C3.60503 14.139 3.5 13.888 3.5 13.621C3.5 13.354 3.60403 13.103 3.79303 12.914L8.44397 8.26299L15.737 15.556L11.086 20.207ZM21.5 21C21.5 21.276 21.276 21.5 21 21.5H16C15.724 21.5 15.5 21.276 15.5 21C15.5 20.724 15.724 20.5 16 20.5H21C21.276 20.5 21.5 20.724 21.5 21Z" />
</svg>
