<svg viewBox="0 0 24 24" fill="currentColor" stroke="currentColor" xmlns="http://www.w3.org/2000/svg">
<path d="M16 2.5H8C5.71 2.5 4.5 3.71 4.5 6V17C4.5 18.723 5.186 19.833 6.5 20.278V21C6.5 21.276 6.724 21.5 7 21.5C7.276 21.5 7.5 21.276 7.5 21V20.465C7.664 20.479 7.823 20.5 8 20.5H16C16.177 20.5 16.336 20.479 16.5 20.465V21C16.5 21.276 16.724 21.5 17 21.5C17.276 21.5 17.5 21.276 17.5 21V20.278C18.814 19.833 19.5 18.722 19.5 17V6C19.5 3.71 18.29 2.5 16 2.5ZM8 3.5H16C17.729 3.5 18.5 4.271 18.5 6V13.5H5.5V6C5.5 4.271 6.271 3.5 8 3.5ZM16 19.5H8C6.271 19.5 5.5 18.729 5.5 17V14.5H18.5V17C18.5 18.729 17.729 19.5 16 19.5ZM10.5 6C10.5 5.724 10.724 5.5 11 5.5H13C13.276 5.5 13.5 5.724 13.5 6C13.5 6.276 13.276 6.5 13 6.5H11C10.724 6.5 10.5 6.276 10.5 6ZM15.75 17C15.75 17.414 15.415 17.75 15.004 17.75C14.591 17.75 14.25 17.414 14.25 17C14.25 16.586 14.577 16.25 14.988 16.25H15.003C15.415 16.25 15.75 16.586 15.75 17ZM9.75 17C9.75 17.414 9.415 17.75 9.004 17.75C8.591 17.75 8.25 17.414 8.25 17C8.25 16.586 8.57701 16.25 8.98801 16.25H9.00299C9.41499 16.25 9.75 16.586 9.75 17ZM21.5 10V13C21.5 13.276 21.276 13.5 21 13.5C20.724 13.5 20.5 13.276 20.5 13V10C20.5 9.724 20.724 9.5 21 9.5C21.276 9.5 21.5 9.724 21.5 10ZM3.5 10V13C3.5 13.276 3.276 13.5 3 13.5C2.724 13.5 2.5 13.276 2.5 13V10C2.5 9.724 2.724 9.5 3 9.5C3.276 9.5 3.5 9.724 3.5 10Z" />
</svg>
