<svg viewBox="0 0 24 24" fill="currentColor" stroke="currentColor" xmlns="http://www.w3.org/2000/svg">
<path d="M15.854 9.31299C16.049 9.50799 16.049 9.82502 15.854 10.02L11.187 14.687C11.089 14.785 10.961 14.833 10.833 14.833C10.705 14.833 10.577 14.784 10.479 14.687L8.146 12.354C7.951 12.159 7.951 11.842 8.146 11.647C8.341 11.452 8.65803 11.452 8.85303 11.647L10.833 13.627L15.146 9.31403C15.342 9.11803 15.658 9.11799 15.854 9.31299ZM21.5 6.375V17.625C21.5 20.16 20.16 21.5 17.625 21.5H6.375C3.84 21.5 2.5 20.16 2.5 17.625V6.375C2.5 3.84 3.84 2.5 6.375 2.5H17.625C20.16 2.5 21.5 3.84 21.5 6.375ZM20.5 6.375C20.5 4.414 19.586 3.5 17.625 3.5H6.375C4.414 3.5 3.5 4.414 3.5 6.375V17.625C3.5 19.586 4.414 20.5 6.375 20.5H17.625C19.586 20.5 20.5 19.586 20.5 17.625V6.375Z" />
</svg>
