<svg viewBox="0 0 24 24" fill="currentColor" stroke="currentColor" xmlns="http://www.w3.org/2000/svg">
<path d="M21.354 7.35401L11.354 17.354C11.26 17.448 11.133 17.5 11 17.5C10.818 17.506 10.737 17.446 10.644 17.351L6.644 13.289C6.451 13.092 6.45299 12.776 6.64999 12.582C6.84599 12.388 7.16299 12.391 7.35699 12.587L11.003 16.29L20.647 6.64601C20.842 6.45101 21.159 6.45101 21.354 6.64601C21.549 6.84101 21.549 7.15801 21.354 7.35401ZM11 13.5C11.128 13.5 11.256 13.451 11.354 13.354L17.354 7.35401C17.549 7.15901 17.549 6.84201 17.354 6.64701C17.159 6.45201 16.842 6.45201 16.647 6.64701L10.647 12.647C10.452 12.842 10.452 13.159 10.647 13.354C10.744 13.451 10.872 13.5 11 13.5ZM3.356 12.589C3.163 12.392 2.847 12.39 2.649 12.584C2.452 12.778 2.45 13.094 2.644 13.291L6.644 17.351C6.742 17.45 6.871 17.5 7 17.5C7.127 17.5 7.253 17.452 7.351 17.356C7.548 17.162 7.55 16.846 7.356 16.649L3.356 12.589Z" />
</svg>
