<svg viewBox="0 0 24 24" fill="currentColor" stroke="currentColor" xmlns="http://www.w3.org/2000/svg">
<path d="M12 1.5C6.21 1.5 1.5 6.21 1.5 12C1.5 17.79 6.21 22.5 12 22.5C17.79 22.5 22.5 17.79 22.5 12C22.5 6.21 17.79 1.5 12 1.5ZM12 21.5C6.762 21.5 2.5 17.238 2.5 12C2.5 6.762 6.762 2.5 12 2.5C17.238 2.5 21.5 6.762 21.5 12C21.5 17.238 17.238 21.5 12 21.5ZM15.854 9.31299C16.049 9.50799 16.049 9.82502 15.854 10.02L11.187 14.687C11.089 14.785 10.961 14.833 10.833 14.833C10.705 14.833 10.577 14.784 10.479 14.687L8.146 12.354C7.951 12.159 7.951 11.842 8.146 11.647C8.341 11.452 8.658 11.452 8.853 11.647L10.833 13.627L15.146 9.31403C15.342 9.11803 15.658 9.11799 15.854 9.31299Z" />
</svg>
