<svg viewBox="0 0 24 24" fill="currentColor" stroke="currentColor" xmlns="http://www.w3.org/2000/svg">
<path d="M7.354 8.354L3.707 12L7.35299 15.646C7.54799 15.841 7.54799 16.158 7.35299 16.353C7.25499 16.451 7.12699 16.499 6.99899 16.499C6.87099 16.499 6.743 16.45 6.645 16.353L2.645 12.353C2.45 12.158 2.45 11.841 2.645 11.646L6.645 7.64599C6.84 7.45099 7.157 7.45099 7.352 7.64599C7.547 7.84099 7.549 8.158 7.354 8.354ZM21.354 11.646L17.354 7.64599C17.159 7.45099 16.842 7.45099 16.647 7.64599C16.452 7.84099 16.452 8.15799 16.647 8.35299L20.293 11.999L16.647 15.645C16.452 15.84 16.452 16.157 16.647 16.352C16.745 16.45 16.873 16.498 17.001 16.498C17.129 16.498 17.257 16.449 17.355 16.352L21.355 12.352C21.549 12.158 21.549 11.842 21.354 11.646ZM15.176 3.53201C14.917 3.43601 14.629 3.56601 14.532 3.82501L8.53199 19.825C8.43499 20.084 8.566 20.372 8.824 20.469C8.882 20.49 8.94099 20.501 8.99999 20.501C9.20199 20.501 9.393 20.377 9.468 20.176L15.468 4.17599C15.565 3.91699 15.434 3.62901 15.176 3.53201Z" />
</svg>
