<svg viewBox="0 0 24 24" fill="currentColor" stroke="currentColor" xmlns="http://www.w3.org/2000/svg">
<path d="M12 1.5C6.21 1.5 1.5 6.21 1.5 12C1.5 17.79 6.21 22.5 12 22.5C17.79 22.5 22.5 17.79 22.5 12C22.5 6.21 17.79 1.5 12 1.5ZM12 21.5C6.762 21.5 2.5 17.238 2.5 12C2.5 6.762 6.762 2.5 12 2.5C17.238 2.5 21.5 6.762 21.5 12C21.5 17.238 17.238 21.5 12 21.5ZM9.576 10.131L7.707 12L9.576 13.869C9.771 14.064 9.771 14.381 9.576 14.576C9.478 14.674 9.35 14.722 9.222 14.722C9.094 14.722 8.966 14.673 8.868 14.576L6.646 12.354C6.451 12.159 6.451 11.842 6.646 11.647L8.868 9.42499C9.063 9.22999 9.38 9.22999 9.575 9.42499C9.77 9.61999 9.771 9.93601 9.576 10.131ZM17.354 11.646C17.549 11.841 17.549 12.158 17.354 12.353L15.132 14.575C15.034 14.673 14.906 14.721 14.778 14.721C14.65 14.721 14.522 14.672 14.424 14.575C14.229 14.38 14.229 14.063 14.424 13.868L16.293 11.999L14.424 10.13C14.229 9.93501 14.229 9.618 14.424 9.423C14.619 9.228 14.936 9.228 15.131 9.423L17.354 11.646ZM13.485 8.121L11.485 16.121C11.428 16.348 11.225 16.5 11.001 16.5C10.961 16.5 10.92 16.495 10.879 16.485C10.611 16.418 10.448 16.147 10.515 15.879L12.515 7.879C12.581 7.611 12.853 7.44701 13.121 7.51501C13.389 7.58201 13.552 7.853 13.485 8.121Z" />
</svg>
