<svg viewBox="0 0 24 24" fill="currentColor" stroke="currentColor" xmlns="http://www.w3.org/2000/svg">
<path d="M17.625 2.5H6.375C3.84 2.5 2.5 3.84 2.5 6.375V17.625C2.5 20.16 3.84 21.5 6.375 21.5H17.625C20.16 21.5 21.5 20.16 21.5 17.625V6.375C21.5 3.84 20.16 2.5 17.625 2.5ZM20.5 17.625C20.5 19.586 19.586 20.5 17.625 20.5H6.375C4.414 20.5 3.5 19.586 3.5 17.625V6.375C3.5 4.414 4.414 3.5 6.375 3.5H17.625C19.586 3.5 20.5 4.414 20.5 6.375V17.625ZM9.57599 10.131L7.707 12L9.57599 13.869C9.77099 14.064 9.77099 14.381 9.57599 14.576C9.47799 14.674 9.34998 14.722 9.22198 14.722C9.09399 14.722 8.96601 14.673 8.86801 14.576L6.646 12.354C6.451 12.159 6.451 11.842 6.646 11.647L8.86801 9.42499C9.06301 9.22999 9.38001 9.22999 9.57501 9.42499C9.77001 9.61999 9.77099 9.93601 9.57599 10.131ZM17.354 11.646C17.549 11.841 17.549 12.158 17.354 12.353L15.132 14.575C15.034 14.673 14.906 14.721 14.778 14.721C14.65 14.721 14.522 14.672 14.424 14.575C14.229 14.38 14.229 14.063 14.424 13.868L16.293 11.999L14.424 10.13C14.229 9.935 14.229 9.618 14.424 9.423C14.619 9.228 14.936 9.228 15.131 9.423L17.354 11.646ZM13.485 8.121L11.485 16.121C11.428 16.348 11.225 16.5 11.001 16.5C10.961 16.5 10.92 16.495 10.879 16.485C10.611 16.418 10.448 16.147 10.515 15.879L12.515 7.879C12.581 7.611 12.851 7.44701 13.121 7.51501C13.389 7.58201 13.552 7.853 13.485 8.121Z" />
</svg>
