<svg viewBox="0 0 24 24" fill="currentColor" stroke="currentColor" xmlns="http://www.w3.org/2000/svg">
<path d="M12 1.5C6.21 1.5 1.5 6.21 1.5 12C1.5 17.79 6.21 22.5 12 22.5C17.79 22.5 22.5 17.79 22.5 12C22.5 6.21 17.79 1.5 12 1.5ZM12 21.5C6.762 21.5 2.5 17.238 2.5 12C2.5 6.762 6.762 2.5 12 2.5C17.238 2.5 21.5 6.762 21.5 12C21.5 17.238 17.238 21.5 12 21.5ZM11.372 4.86099C7.70501 5.17999 4.83301 8.316 4.83301 12C4.83301 15.684 7.70501 18.821 11.372 19.139C11.401 19.142 11.43 19.143 11.458 19.143C11.712 19.143 11.96 19.046 12.152 18.871C12.373 18.669 12.5 18.381 12.5 18.082V5.91699C12.5 5.61799 12.374 5.33099 12.152 5.12799C11.939 4.93399 11.652 4.83199 11.372 4.86099ZM11.5 18.082L11.459 18.143C8.30402 17.869 5.83401 15.17 5.83401 12C5.83401 8.83 8.30501 6.131 11.501 5.918V18.082H11.5Z" />
</svg>
