<svg viewBox="0 0 24 24" fill="currentColor" stroke="currentColor" xmlns="http://www.w3.org/2000/svg">
<path d="M20.803 7.17599C20.231 6.76399 19.483 6.74999 18.896 7.14099L16.58 8.685C16.462 8.764 16.32 8.78499 16.186 8.74799C16.05 8.70999 15.942 8.619 15.881 8.491L13.511 3.45999C13.232 2.86699 12.652 2.5 11.997 2.5C11.997 2.5 11.997 2.5 11.996 2.5C11.341 2.5 10.761 2.86901 10.482 3.46201L8.11797 8.491C8.05797 8.619 7.95001 8.70999 7.81401 8.74799C7.67801 8.78599 7.53897 8.764 7.41997 8.685L5.10399 7.14099C4.51699 6.74999 3.76901 6.76399 3.19701 7.17599C2.62501 7.588 2.37598 8.29399 2.55998 8.96799L4.37798 16C4.60598 16.883 5.40199 17.5 6.31499 17.5H17.685C18.597 17.5 19.393 16.883 19.621 16.001L21.438 8.97501C21.624 8.29401 21.375 7.588 20.803 7.17599ZM20.472 8.71799L18.653 15.751C18.539 16.192 18.141 16.501 17.685 16.501H6.31499C5.85899 16.501 5.46097 16.193 5.34697 15.751L3.52696 8.71201C3.41296 8.29401 3.69401 8.05201 3.78301 7.98801C3.83901 7.94701 3.98802 7.85599 4.18102 7.85599C4.29202 7.85599 4.41797 7.886 4.54997 7.974L6.86601 9.51801C7.22401 9.75601 7.66696 9.82801 8.08196 9.71201C8.49696 9.59701 8.84 9.30699 9.023 8.91699L11.387 3.888C11.501 3.646 11.728 3.50101 11.996 3.50101C12.264 3.50101 12.492 3.646 12.606 3.888L14.976 8.91901C15.16 9.30801 15.502 9.59801 15.917 9.71301C16.33 9.82801 16.775 9.75801 17.133 9.51901L19.449 7.97501C19.81 7.73501 20.129 7.92501 20.217 7.98901C20.307 8.05201 20.588 8.29299 20.472 8.71799ZM19 20C19 20.276 18.776 20.5 18.5 20.5H5.49999C5.22399 20.5 4.99999 20.276 4.99999 20C4.99999 19.724 5.22399 19.5 5.49999 19.5H18.5C18.776 19.5 19 19.724 19 20Z" />
</svg>
