<svg viewBox="0 0 24 24" fill="currentColor" stroke="currentColor" xmlns="http://www.w3.org/2000/svg">
<path d="M20.861 7.155C20.368 6.81 19.742 6.79 19.228 7.1L16.735 8.608C16.511 8.743 16.223 8.678 16.08 8.461L13.24 4.16699C12.687 3.33199 11.311 3.33199 10.759 4.16699L7.92198 8.45801C7.77598 8.67701 7.488 8.74299 7.262 8.60699L4.77195 7.10101C4.25895 6.79001 3.63296 6.81 3.13896 7.156C2.64696 7.501 2.41296 8.08101 2.53196 8.68301L4.16697 15.995L3.60496 19.335C3.55596 19.626 3.63698 19.922 3.82798 20.147C4.01898 20.372 4.29696 20.501 4.59196 20.501H19.409C19.704 20.501 19.982 20.372 20.173 20.147C20.364 19.922 20.444 19.626 20.396 19.335L19.834 15.995L21.469 8.68301C21.47 8.67901 21.471 8.67499 21.472 8.67099C21.587 8.07999 21.353 7.5 20.861 7.155ZM4.59098 19.5L5.09599 16.5H18.904L19.409 19.5H4.59098ZM20.49 8.47101L18.919 15.5H5.08097L3.51097 8.47699C3.45297 8.18299 3.65099 8.018 3.71299 7.975C3.75299 7.947 3.85996 7.88299 4.00096 7.88299C4.07796 7.88299 4.16399 7.902 4.25498 7.957L6.74498 9.46301C7.43097 9.87901 8.315 9.67898 8.757 9.01098L11.594 4.72C11.778 4.442 12.224 4.442 12.407 4.72L15.247 9.013C15.688 9.68 16.569 9.87899 17.253 9.46399L19.746 7.95599C20.003 7.80099 20.226 7.931 20.288 7.974C20.349 8.017 20.545 8.18001 20.49 8.47101Z" />
</svg>
