<svg viewBox="0 0 24 24" fill="currentColor" stroke="currentColor" xmlns="http://www.w3.org/2000/svg">
<path d="M21 20.5H19V4.5C19 3.397 18.103 2.5 17 2.5H7C5.897 2.5 5 3.397 5 4.5V20.5H3C2.724 20.5 2.5 20.724 2.5 21C2.5 21.276 2.724 21.5 3 21.5H5.5H18.5H21C21.276 21.5 21.5 21.276 21.5 21C21.5 20.724 21.276 20.5 21 20.5ZM6 20.5V4.5C6 3.948 6.449 3.5 7 3.5H17C17.551 3.5 18 3.948 18 4.5V20.5H6ZM15.75 12C15.75 12.414 15.415 12.75 15.004 12.75C14.591 12.75 14.25 12.414 14.25 12C14.25 11.586 14.577 11.25 14.988 11.25H15.003C15.415 11.25 15.75 11.586 15.75 12Z" />
</svg>
