<svg viewBox="0 0 24 24" fill="currentColor" stroke="currentColor" xmlns="http://www.w3.org/2000/svg">
<path d="M19.5 6.5V17.5C19.5 18.603 18.603 19.5 17.5 19.5H16C15.724 19.5 15.5 19.276 15.5 19C15.5 18.724 15.724 18.5 16 18.5H17.5C18.051 18.5 18.5 18.052 18.5 17.5V6.5C18.5 5.948 18.051 5.5 17.5 5.5H16C15.724 5.5 15.5 5.276 15.5 5C15.5 4.724 15.724 4.5 16 4.5H17.5C18.603 4.5 19.5 5.397 19.5 6.5ZM13.751 2.94C14.227 3.322 14.5 3.89 14.5 4.5V19.5C14.5 20.11 14.227 20.678 13.751 21.06C13.392 21.348 12.953 21.5 12.503 21.5C12.357 21.5 12.211 21.484 12.065 21.452L6.065 20.119C5.143 19.914 4.49902 19.111 4.49902 18.167V5.83499C4.49902 4.88999 5.143 4.08699 6.065 3.88299L12.065 2.54998C12.66 2.41498 13.275 2.558 13.751 2.94ZM13.5 4.5C13.5 4.195 13.364 3.911 13.125 3.72C12.945 3.576 12.726 3.5 12.501 3.5C12.428 3.5 12.355 3.50798 12.282 3.52398L6.28198 4.85699C5.82098 4.95999 5.49902 5.361 5.49902 5.833V18.165C5.49902 18.637 5.82098 19.039 6.28198 19.141L12.282 20.474C12.579 20.54 12.886 20.468 13.124 20.278C13.362 20.087 13.499 19.803 13.499 19.498V4.5H13.5ZM10.504 11.25H10.489C10.077 11.25 9.75098 11.586 9.75098 12C9.75098 12.414 10.092 12.75 10.505 12.75C10.917 12.75 11.251 12.414 11.251 12C11.251 11.586 10.915 11.25 10.504 11.25Z" />
</svg>
