<svg viewBox="0 0 24 24" fill="currentColor" stroke="currentColor" xmlns="http://www.w3.org/2000/svg">
<path d="M18.472 9.767C19.154 11.212 19.5 12.637 19.5 14C19.5 18.135 16.136 21.5 12 21.5C10.516 21.5 9.08899 21.073 7.87399 20.267C7.64399 20.114 7.58099 19.804 7.73399 19.574C7.88599 19.344 8.196 19.28 8.427 19.434C9.479 20.132 10.714 20.5 12.001 20.5C15.585 20.5 18.501 17.584 18.501 14C18.501 12.785 18.188 11.504 17.569 10.193C17.451 9.943 17.558 9.64501 17.808 9.52701C18.056 9.41001 18.354 9.517 18.472 9.767ZM21.354 3.35401L3.354 21.354C3.256 21.452 3.12799 21.5 2.99999 21.5C2.87199 21.5 2.74399 21.451 2.64599 21.354C2.45099 21.159 2.45099 20.842 2.64599 20.647L5.529 17.764C4.865 16.629 4.49999 15.342 4.49999 14.001C4.49999 7.81501 11.415 2.804 11.709 2.594C11.883 2.471 12.116 2.47 12.29 2.594C12.388 2.664 14.596 4.264 16.545 6.75L20.647 2.64801C20.842 2.45301 21.159 2.45301 21.354 2.64801C21.549 2.84301 21.549 3.15801 21.354 3.35401ZM6.26199 17.031L15.835 7.45801C14.358 5.54901 12.668 4.14401 12.001 3.62601C10.703 4.63901 5.501 9.012 5.501 13.999C5.5 15.074 5.77099 16.105 6.26199 17.031Z" />
</svg>
