<svg viewBox="0 0 24 24" fill="currentColor" stroke="currentColor" xmlns="http://www.w3.org/2000/svg">
<path d="M19.5 15V18C19.5 20.29 18.29 21.5 16 21.5H6C3.71 21.5 2.5 20.29 2.5 18V8C2.5 5.71 3.71 4.5 6 4.5H9C9.276 4.5 9.5 4.724 9.5 5C9.5 5.276 9.276 5.5 9 5.5H6C4.271 5.5 3.5 6.271 3.5 8V18C3.5 19.729 4.271 20.5 6 20.5H16C17.729 20.5 18.5 19.729 18.5 18V15C18.5 14.724 18.724 14.5 19 14.5C19.276 14.5 19.5 14.724 19.5 15ZM21.5 6.056C21.499 6.576 21.296 7.06501 20.927 7.43201L11.964 16.355C11.87 16.448 11.743 16.501 11.611 16.501H8C7.724 16.501 7.5 16.277 7.5 16.001V12.39C7.5 12.258 7.553 12.131 7.646 12.037L16.569 3.073C16.936 2.705 17.424 2.501 17.944 2.5C17.945 2.5 17.946 2.5 17.947 2.5C18.467 2.5 18.955 2.702 19.322 3.069L20.931 4.67801C21.299 5.04701 21.5 5.536 21.5 6.056ZM17.971 8.96301L15.037 6.02802L8.5 12.595V15.5H11.405L17.971 8.96301ZM20.5 6.05499C20.5 5.80199 20.402 5.56499 20.224 5.38599L18.615 3.77701C18.436 3.59901 18.199 3.5 17.947 3.5C17.946 3.5 17.946 3.5 17.945 3.5C17.693 3.5 17.456 3.59902 17.278 3.77802L15.743 5.32001L18.681 8.258L20.223 6.72299C20.4 6.54399 20.499 6.30699 20.5 6.05499Z" />
</svg>
