<svg viewBox="0 0 24 24" fill="currentColor" stroke="currentColor" xmlns="http://www.w3.org/2000/svg">
<path d="M17.356 8.649C17.213 8.504 16.996 8.46 16.81 8.537C16.622 8.614 16.499 8.79701 16.499 9.00001C16.499 9.76201 16.338 10.458 16.022 11.07C15.529 12.025 14.726 12.64 14.055 13.015C16.915 6.44702 11.337 2.62399 11.277 2.58399C11.123 2.48099 10.925 2.47203 10.764 2.55903C10.601 2.64603 10.5 2.81601 10.5 3.00001C10.5 5.19701 9.037 6.49403 7.621 7.74903C7.275 8.05503 6.942 8.35098 6.646 8.64698C5.142 10.151 4.5 11.752 4.5 14.001C4.5 18.136 7.864 21.501 12 21.501C16.136 21.501 19.5 18.136 19.5 14.001C19.5 11.984 18.719 10.033 17.356 8.649ZM12 20.5C8.416 20.5 5.5 17.584 5.5 14C5.5 12.016 6.037 10.67 7.354 9.35401C7.636 9.07201 7.955 8.79002 8.285 8.49702C9.532 7.39202 11.044 6.05204 11.415 3.97804C12.797 5.24904 15.497 8.62502 12.566 13.752C12.466 13.926 12.481 14.142 12.602 14.302C12.723 14.462 12.927 14.533 13.122 14.485C13.228 14.458 15.733 13.809 16.912 11.529C17.12 11.127 17.274 10.697 17.372 10.243C18.098 11.325 18.501 12.644 18.501 13.999C18.5 17.584 15.584 20.5 12 20.5Z" />
</svg>
