<svg viewBox="0 0 24 24" fill="currentColor" stroke="currentColor" xmlns="http://www.w3.org/2000/svg">
<path d="M12 1.5C6.21 1.5 1.5 6.21 1.5 12C1.5 17.79 6.21 22.5 12 22.5C17.79 22.5 22.5 17.79 22.5 12C22.5 6.21 17.79 1.5 12 1.5ZM21.475 11.5H16.923C16.827 8.536 15.884 5.494 14.211 2.771C18.227 3.733 21.252 7.248 21.475 11.5ZM12.87 2.54401C14.747 5.29601 15.817 8.444 15.923 11.5H8.077C8.183 8.444 9.25301 5.29601 11.13 2.54401C11.417 2.51801 11.706 2.5 12 2.5C12.294 2.5 12.583 2.51801 12.87 2.54401ZM9.789 2.771C8.117 5.495 7.174 8.537 7.077 11.5H2.52499C2.74799 7.248 5.773 3.733 9.789 2.771ZM2.52499 12.5H7.077C7.173 15.464 8.116 18.506 9.789 21.229C5.773 20.267 2.74799 16.752 2.52499 12.5ZM11.13 21.456C9.25301 18.704 8.183 15.556 8.077 12.5H15.923C15.817 15.556 14.747 18.704 12.87 21.456C12.583 21.482 12.294 21.5 12 21.5C11.706 21.5 11.417 21.482 11.13 21.456ZM14.211 21.229C15.883 18.505 16.826 15.463 16.923 12.5H21.475C21.252 16.752 18.227 20.267 14.211 21.229Z" />
</svg>
