<svg viewBox="0 0 24 24" fill="currentColor" stroke="currentColor" xmlns="http://www.w3.org/2000/svg">
<path d="M22.462 12.754C22.48 12.504 22.5 12.254 22.5 12C22.5 8.339 20.614 5.11401 17.765 3.23401C17.748 3.22301 17.732 3.212 17.714 3.203C16.684 2.531 15.53 2.03701 14.293 1.76001C14.274 1.75301 14.254 1.75 14.234 1.745C13.513 1.588 12.766 1.5 11.999 1.5C6.20902 1.5 1.49902 6.21 1.49902 12C1.49902 17.79 6.20902 22.5 11.999 22.5C12.805 22.5 13.587 22.4 14.341 22.228C14.408 22.225 14.47 22.207 14.529 22.179C18.84 21.106 22.102 17.372 22.458 12.823C22.459 12.8 22.464 12.777 22.462 12.754ZM21.5 12C21.5 12.103 21.488 12.202 21.485 12.304C21 12.367 20.49 12.614 20.138 13.012C20.083 13.074 20.048 13.091 20.041 13.092C20.026 13.092 19.627 13.065 18.718 11.389C18.036 10.131 18.333 9.49001 18.71 8.67801C18.832 8.41401 18.954 8.14901 19.043 7.87201C19.248 7.26501 19.086 6.29299 18.807 5.38699C20.47 7.09899 21.5 9.43 21.5 12ZM2.5 12C2.5 11.13 2.62702 10.29 2.84802 9.48901C3.47002 12.65 5.71997 13.794 6.90997 14.394C7.17197 14.526 7.48498 14.675 7.53198 14.687C7.62298 15.077 7.61299 15.294 7.59399 15.69C7.57899 16.012 7.56003 16.412 7.59003 17.036C7.64303 18.128 8.53603 18.594 9.25403 18.969C9.72303 19.214 10.167 19.446 10.413 19.81C10.58 20.049 10.701 20.731 10.597 21.386C6.02298 20.703 2.5 16.76 2.5 12ZM11.592 21.479C11.711 20.646 11.582 19.735 11.236 19.242C10.852 18.675 10.249 18.36 9.716 18.082C9.011 17.714 8.61201 17.482 8.58801 16.987C8.56001 16.408 8.57798 16.035 8.59198 15.736C8.61198 15.316 8.62701 14.984 8.505 14.459C8.40401 14.028 7.96599 13.807 7.35999 13.501C5.93599 12.783 3.56899 11.583 3.68799 7.409C5.30899 4.485 8.426 2.49899 12 2.49899C12.529 2.49899 13.044 2.55299 13.55 2.63699C13.403 3.05199 13.005 3.40101 12.609 3.53101C10.712 4.15301 10.692 5.81501 10.678 7.02802C10.665 8.10901 10.602 8.43499 10.21 8.51599C10.072 8.53799 9.632 8.302 9.396 8.173C8.901 7.904 8.38603 7.625 7.90503 7.742C7.50903 7.835 7.00402 8.22101 6.84802 8.75101C6.77102 9.01101 6.71898 9.52801 7.22998 10.057C7.65298 10.495 7.672 10.704 7.703 11.022C7.724 11.241 7.75 11.512 7.896 11.848C8.395 12.949 9.83398 12.918 10.881 12.799C11.978 12.663 12.31 12.62 12.974 13.312C13.232 13.581 13.374 13.903 13.524 14.243C13.779 14.824 14.098 15.548 15.084 15.662C15.922 15.766 16.622 16.045 16.867 16.373C16.949 16.482 16.975 16.59 16.952 16.721C16.885 17.118 16.463 17.519 15.973 17.984C15.172 18.745 14.198 19.688 13.889 21.308C13.278 21.432 12.647 21.498 12.001 21.498C11.862 21.5 11.728 21.485 11.592 21.479ZM14.995 21.009C15.334 19.985 16.028 19.313 16.661 18.711C17.254 18.147 17.815 17.615 17.937 16.889C18.004 16.489 17.911 16.104 17.667 15.777C17.073 14.98 15.748 14.738 15.202 14.671C14.813 14.626 14.697 14.432 14.438 13.843C14.268 13.457 14.076 13.019 13.694 12.621C12.682 11.568 11.915 11.664 10.761 11.808C9.63199 11.937 8.97498 11.812 8.80798 11.443C8.72798 11.26 8.71402 11.114 8.69702 10.929C8.66002 10.539 8.614 10.053 7.948 9.36401C7.765 9.17501 7.79499 9.07 7.80499 9.035C7.85099 8.875 8.05502 8.735 8.13202 8.716C8.26202 8.701 8.67399 8.919 8.91699 9.052C9.40899 9.32 9.91301 9.598 10.411 9.496C11.651 9.24 11.666 8.02001 11.678 7.04001C11.694 5.69601 11.785 4.85299 12.921 4.48099C13.612 4.25499 14.304 3.64199 14.531 2.85199C15.465 3.11099 16.341 3.50601 17.136 4.01901C17.64 4.76001 18.326 6.86801 18.094 7.55701C18.015 7.80101 17.908 8.02901 17.802 8.25601C17.387 9.15101 16.916 10.165 17.838 11.865C18.641 13.345 19.264 14.01 19.922 14.085C19.959 14.089 19.998 14.092 20.04 14.092C20.28 14.092 20.591 14.008 20.886 13.675C21.037 13.504 21.224 13.397 21.395 13.336C20.884 16.935 18.359 19.887 14.995 21.009Z" />
</svg>
