<svg viewBox="0 0 24 24" fill="currentColor" stroke="currentColor" xmlns="http://www.w3.org/2000/svg">
<path d="M21 8H17.015L17.985 4.121C18.052 3.853 17.889 3.58101 17.621 3.51501C17.352 3.44701 17.081 3.611 17.015 3.879L15.985 8H10.015L10.985 4.121C11.052 3.853 10.889 3.58101 10.621 3.51501C10.352 3.44701 10.082 3.611 10.015 3.879L8.985 8H5C4.724 8 4.5 8.224 4.5 8.5C4.5 8.776 4.724 9 5 9H8.735L7.235 15H3C2.724 15 2.5 15.224 2.5 15.5C2.5 15.776 2.724 16 3 16H6.985L6.015 19.879C5.948 20.147 6.111 20.419 6.379 20.485C6.42 20.495 6.461 20.5 6.501 20.5C6.725 20.5 6.929 20.348 6.985 20.121L8.015 16H13.985L13.015 19.879C12.948 20.147 13.111 20.419 13.379 20.485C13.42 20.495 13.461 20.5 13.501 20.5C13.725 20.5 13.929 20.348 13.985 20.121L15.015 16H19C19.276 16 19.5 15.776 19.5 15.5C19.5 15.224 19.276 15 19 15H15.265L16.765 9H21C21.276 9 21.5 8.776 21.5 8.5C21.5 8.224 21.276 8 21 8ZM14.235 15H8.265L9.765 9H15.735L14.235 15Z" />
</svg>
