<svg viewBox="0 0 24 24" fill="currentColor" stroke="currentColor" xmlns="http://www.w3.org/2000/svg">
<path d="M21.266 17.242C21.065 17.601 20.764 17.878 20.394 18.044L13.81 21.101C13.235 21.369 12.617 21.502 11.999 21.502C11.381 21.502 10.764 21.368 10.188 21.1L3.599 18.04C3.236 17.877 2.934 17.6 2.733 17.241C2.598 17 2.68401 16.696 2.92401 16.561C3.16601 16.426 3.46901 16.512 3.60501 16.753C3.70201 16.926 3.83901 17.053 4.01401 17.131L10.61 20.193C11.494 20.604 12.506 20.604 13.389 20.193L19.979 17.133C20.159 17.052 20.296 16.925 20.394 16.752C20.528 16.511 20.832 16.425 21.075 16.56C21.315 16.697 21.401 17.001 21.266 17.242ZM21.075 12.238C20.832 12.102 20.528 12.189 20.394 12.43C20.297 12.603 20.16 12.73 19.979 12.811L13.389 15.871C12.507 16.281 11.494 16.282 10.61 15.871L4.01401 12.808C3.84001 12.73 3.70201 12.603 3.60501 12.43C3.47001 12.19 3.16601 12.103 2.92401 12.238C2.68301 12.373 2.597 12.678 2.733 12.918C2.934 13.278 3.236 13.555 3.599 13.717L10.188 16.777C10.764 17.045 11.381 17.179 11.999 17.179C12.617 17.179 13.234 17.045 13.81 16.778L20.394 13.721C20.763 13.556 21.064 13.279 21.266 12.919C21.401 12.677 21.315 12.373 21.075 12.238ZM2.5 7.68C2.5 6.93 2.923 6.268 3.603 5.952L10.189 2.899C11.339 2.366 12.659 2.365 13.81 2.899L20.396 5.952C21.076 6.267 21.499 6.93 21.499 7.68C21.499 8.43 21.076 9.092 20.396 9.408L13.81 12.461C13.235 12.728 12.617 12.861 11.999 12.861C11.381 12.861 10.764 12.728 10.188 12.461L3.60199 9.408C2.92299 9.092 2.5 8.43 2.5 7.68ZM3.5 7.68C3.5 8.042 3.69599 8.34801 4.02399 8.50001L10.61 11.553C11.493 11.963 12.506 11.963 13.389 11.553L19.975 8.50001C20.303 8.34801 20.499 8.041 20.499 7.68C20.499 7.319 20.303 7.01199 19.975 6.85999L13.389 3.80702C12.948 3.60202 12.473 3.50001 11.999 3.50001C11.525 3.50001 11.051 3.60202 10.609 3.80702L4.02301 6.85999C3.69601 7.01199 3.5 7.318 3.5 7.68Z" />
</svg>
