<svg viewBox="0 0 24 24" fill="currentColor" stroke="currentColor" xmlns="http://www.w3.org/2000/svg">
<path d="M15.671 18.376C14.35 19.325 12.915 19.646 11.581 19.646C9.97998 19.646 8.52899 19.185 7.58299 18.795C6.99099 20.17 6.788 21.079 6.783 21.103C6.733 21.338 6.52599 21.5 6.29399 21.5C6.25999 21.5 6.22498 21.497 6.18998 21.489C5.91998 21.432 5.747 21.167 5.804 20.897C5.86 20.63 7.25095 14.293 13.858 9.33302C14.08 9.16702 14.393 9.212 14.558 9.433C14.724 9.654 14.679 9.96701 14.458 10.133C11.047 12.693 9.09001 15.676 8.00401 17.888C9.56701 18.527 12.596 19.354 15.086 17.564C20.226 13.868 18.256 6.32302 17.425 3.83302C16.909 4.44102 15.997 5.29104 14.643 5.76204C13.809 6.04804 13.042 6.25104 12.3 6.44704C11.064 6.77404 9.99697 7.056 8.92497 7.631C5.09597 9.694 5.08596 13.925 6.01396 16.266C6.11596 16.523 5.98995 16.813 5.73295 16.915C5.47995 17.016 5.18597 16.891 5.08397 16.634C4.02397 13.961 4.04697 9.12302 8.45097 6.75002C9.62797 6.11902 10.802 5.809 12.045 5.48C12.769 5.288 13.519 5.09003 14.316 4.81703C15.803 4.30003 16.658 3.23805 16.956 2.80605C17.094 2.59205 17.352 2.47402 17.615 2.50502C17.88 2.53802 18.097 2.71702 18.182 2.97102C18.843 4.75202 21.847 13.935 15.671 18.376Z" />
</svg>
