<svg viewBox="0 0 24 24" fill="currentColor" stroke="currentColor" xmlns="http://www.w3.org/2000/svg">
<path d="M12 1.5C6.21 1.5 1.5 6.21 1.5 12C1.5 17.79 6.21 22.5 12 22.5C17.79 22.5 22.5 17.79 22.5 12C22.5 6.21 17.79 1.5 12 1.5ZM19.051 18.344L15.814 15.107C16.509 14.255 16.944 13.183 16.944 12C16.944 10.817 16.509 9.74501 15.814 8.89301L19.051 5.65601C20.568 7.34001 21.5 9.56 21.5 12C21.5 14.44 20.568 16.66 19.051 18.344ZM8.05603 12C8.05603 9.825 9.826 8.05603 12 8.05603C14.174 8.05603 15.944 9.826 15.944 12C15.944 14.174 14.174 15.944 12 15.944C9.826 15.944 8.05603 14.175 8.05603 12ZM18.344 4.94897L15.107 8.18597C14.255 7.48997 13.183 7.05603 12 7.05603C10.817 7.05603 9.74501 7.49097 8.89301 8.18597L5.65601 4.94897C7.34001 3.43197 9.561 2.5 12 2.5C14.439 2.5 16.66 3.43197 18.344 4.94897ZM4.94897 5.65601L8.18597 8.89301C7.49097 9.74501 7.05603 10.817 7.05603 12C7.05603 13.183 7.49097 14.255 8.18597 15.107L4.94897 18.344C3.43197 16.66 2.5 14.44 2.5 12C2.5 9.56 3.43197 7.34001 4.94897 5.65601ZM5.65601 19.051L8.89301 15.814C9.74501 16.51 10.817 16.944 12 16.944C13.183 16.944 14.255 16.509 15.107 15.814L18.344 19.051C16.66 20.568 14.439 21.5 12 21.5C9.561 21.5 7.34001 20.568 5.65601 19.051Z" />
</svg>
