<svg viewBox="0 0 24 24" fill="currentColor" stroke="currentColor" xmlns="http://www.w3.org/2000/svg">
<path d="M21.5 6V18C21.5 20.29 20.29 21.5 18 21.5H12C9.71 21.5 8.5 20.29 8.5 18V17C8.5 16.724 8.724 16.5 9 16.5C9.276 16.5 9.5 16.724 9.5 17V18C9.5 19.729 10.271 20.5 12 20.5H18C19.729 20.5 20.5 19.729 20.5 18V6C20.5 4.271 19.729 3.5 18 3.5H12C10.271 3.5 9.5 4.271 9.5 6V7C9.5 7.276 9.276 7.5 9 7.5C8.724 7.5 8.5 7.276 8.5 7V6C8.5 3.71 9.71 2.5 12 2.5H18C20.29 2.5 21.5 3.71 21.5 6ZM12.646 14.646C12.451 14.841 12.451 15.158 12.646 15.353C12.744 15.451 12.872 15.499 13 15.499C13.128 15.499 13.256 15.45 13.354 15.353L16.354 12.353C16.4 12.307 16.437 12.251 16.462 12.19C16.513 12.068 16.513 11.93 16.462 11.808C16.437 11.746 16.4 11.691 16.354 11.645L13.354 8.64499C13.159 8.44999 12.842 8.44999 12.647 8.64499C12.452 8.83999 12.452 9.15699 12.647 9.35199L14.793 11.498H3C2.724 11.498 2.5 11.722 2.5 11.998C2.5 12.274 2.724 12.498 3 12.498H14.793L12.646 14.646Z" />
</svg>
