<svg viewBox="0 0 24 24" fill="currentColor" stroke="currentColor" xmlns="http://www.w3.org/2000/svg">
<path d="M21.141 13.431C20.849 13.226 20.469 13.224 20.173 13.426C18.9 14.299 17.402 14.65 15.84 14.442C13.257 14.097 11.198 12.183 10.718 9.67899C10.304 7.52699 11.04 5.396 12.687 3.978C12.958 3.745 13.053 3.37801 12.929 3.04401C12.806 2.71301 12.499 2.49899 12.134 2.49899C8.74799 2.49899 5.571 4.28599 3.842 7.16199C2.757 8.96699 2.317 11.039 2.571 13.154C3.079 17.397 6.42099 20.786 10.698 21.396C11.175 21.464 11.648 21.497 12.116 21.497C16.493 21.497 20.381 18.603 21.475 14.327C21.561 13.986 21.43 13.634 21.141 13.431ZM10.838 20.407C7.008 19.861 4.01698 16.829 3.56298 13.035C3.33598 11.143 3.72899 9.29 4.69899 7.677C6.17599 5.22 8.83297 3.65101 11.718 3.51001C10.02 5.15601 9.28098 7.50201 9.73598 9.86801C10.298 12.795 12.698 15.031 15.708 15.433C17.354 15.653 19.003 15.313 20.395 14.473C19.16 18.486 15.131 21.02 10.838 20.407Z" />
</svg>
