<svg viewBox="0 0 24 24" fill="currentColor" stroke="currentColor" xmlns="http://www.w3.org/2000/svg">
<path d="M12 8.5C10.07 8.5 8.5 10.07 8.5 12C8.5 13.93 10.07 15.5 12 15.5C13.93 15.5 15.5 13.93 15.5 12C15.5 10.07 13.93 8.5 12 8.5ZM12 14.5C10.622 14.5 9.5 13.378 9.5 12C9.5 10.622 10.622 9.5 12 9.5C13.378 9.5 14.5 10.622 14.5 12C14.5 13.378 13.378 14.5 12 14.5ZM19.09 6.39401L13.59 2.95599C12.623 2.35199 11.375 2.35199 10.409 2.95599L4.909 6.39401C4.026 6.94601 3.49899 7.89699 3.49899 8.93799V15.062C3.49899 16.103 4.026 17.054 4.909 17.606L10.409 21.044C10.892 21.346 11.446 21.497 11.999 21.497C12.552 21.497 13.106 21.346 13.589 21.044L19.089 17.606C19.972 17.054 20.499 16.103 20.499 15.062V8.93799C20.5 7.89699 19.973 6.94601 19.09 6.39401ZM19.5 15.062C19.5 15.756 19.148 16.39 18.56 16.758L13.06 20.196C12.416 20.599 11.583 20.599 10.94 20.196L5.44 16.758C4.852 16.39 4.5 15.756 4.5 15.062V8.93799C4.5 8.24399 4.852 7.61 5.44 7.242L10.94 3.80398C11.262 3.60298 11.631 3.50201 12 3.50201C12.369 3.50201 12.738 3.60298 13.06 3.80398L18.56 7.242C19.148 7.61 19.5 8.24399 19.5 8.93799V15.062Z" />
</svg>
