<svg viewBox="0 0 24 24" fill="currentColor" stroke="currentColor" xmlns="http://www.w3.org/2000/svg">
<path d="M22.311 9.67899C21.369 5.01599 16.897 1.5 11.91 1.5C6.16997 1.5 1.5 6.21 1.5 12C1.5 17.79 6.21 22.5 12 22.5C13.04 22.5 13.776 22.061 13.969 21.326C14.188 20.494 13.636 19.588 12.527 18.963C12.114 18.73 11.898 18.296 12 17.907C12.158 17.304 12.994 16.944 14.235 16.944H16.46C17.223 16.944 19.832 16.797 21.383 14.908C22.433 13.63 22.745 11.871 22.311 9.67899ZM20.61 14.274C19.337 15.824 17.111 15.945 16.46 15.945H14.235C11.75 15.945 11.168 17.14 11.033 17.654C10.816 18.482 11.228 19.379 12.036 19.835C12.808 20.272 13.078 20.783 13.002 21.073C12.933 21.337 12.548 21.501 12 21.501C6.762 21.501 2.5 17.239 2.5 12.001C2.5 6.76301 6.72097 2.50101 11.91 2.50101C16.431 2.50101 20.48 5.67201 21.33 9.87601C21.704 11.758 21.461 13.238 20.61 14.274ZM18.018 10C18.018 10.552 17.572 11 17.023 11C16.473 11 16.018 10.552 16.018 10C16.018 9.448 16.453 9 17.002 9H17.022C17.572 9 18.018 9.448 18.018 10ZM11.018 7C11.018 7.552 10.572 8 10.023 8C9.47301 8 9.01801 7.552 9.01801 7C9.01801 6.448 9.45301 6 10.002 6H10.022C10.572 6 11.018 6.448 11.018 7ZM15.018 7C15.018 7.552 14.572 8 14.023 8C13.473 8 13.018 7.552 13.018 7C13.018 6.448 13.453 6 14.002 6H14.022C14.572 6 15.018 6.448 15.018 7ZM8.01801 10C8.01801 10.552 7.57201 11 7.02301 11C6.47301 11 6.01801 10.552 6.01801 10C6.01801 9.448 6.45301 9 7.00201 9H7.02197C7.57197 9 8.01801 9.448 8.01801 10ZM8.01801 14C8.01801 14.552 7.57201 15 7.02301 15C6.47301 15 6.01801 14.552 6.01801 14C6.01801 13.448 6.45301 13 7.00201 13H7.02197C7.57197 13 8.01801 13.448 8.01801 14Z" />
</svg>
