<svg viewBox="0 0 24 24" fill="currentColor" stroke="currentColor" xmlns="http://www.w3.org/2000/svg">
<path d="M18.87 7.86998C18.87 7.86998 18.87 7.82999 18.87 7.79999L18.63 2.91998C18.59 2.11998 17.93 1.48999 17.13 1.48999H6.88C6.07 1.48999 5.41001 2.11998 5.37001 2.91998L5.13 7.78998C5.13 7.78998 5.13 7.82999 5.13 7.84999L4.5 20.9C4.48 21.32 4.63001 21.71 4.91001 22.01C5.19001 22.31 5.58 22.48 6 22.48H8.17C8.88 22.48 9.48 21.99 9.64 21.3L12 10.55L14.36 21.3C14.51 21.99 15.12 22.48 15.83 22.48H18C18.42 22.48 18.8 22.31 19.09 22.01C19.38 21.71 19.52 21.31 19.5 20.9L18.87 7.84999V7.86998ZM15.57 4.99998H17.72L17.84 7.46999C17.73 7.48999 17.62 7.49998 17.5 7.49998C16.4 7.49998 15.5 6.59998 15.5 5.49998C15.5 5.32998 15.53 5.15998 15.57 4.99998ZM6.88 2.49998H17.13C17.4 2.49998 17.62 2.70998 17.63 2.97998L17.68 3.99998H6.33L6.38 2.97998C6.39 2.70998 6.62 2.49998 6.89 2.49998H6.88ZM8.5 5.49998C8.5 6.59998 7.6 7.49998 6.5 7.49998C6.38 7.49998 6.26001 7.48999 6.16001 7.46999L6.28 4.99998H8.43C8.47 5.15998 8.5 5.32998 8.5 5.49998ZM18.36 21.34C18.26 21.44 18.13 21.5 17.99 21.5H15.82C15.58 21.5 15.38 21.34 15.33 21.11L12.68 9.02998C12.61 8.70998 12.33 8.47998 12 8.47998C11.67 8.47998 11.39 8.70998 11.32 9.02998L8.67 21.11C8.62 21.34 8.42 21.5 8.18 21.5H6.01C5.87001 21.5 5.74 21.44 5.64 21.34C5.54 21.24 5.49 21.11 5.5 20.97L6.11 8.46999C6.24 8.48999 6.37 8.50998 6.5 8.50998C8.15 8.50998 9.5 7.15998 9.5 5.50998C9.5 5.33998 9.48 5.16998 9.45 5.00998H14.55C14.52 5.16998 14.5 5.33998 14.5 5.50998C14.5 7.15998 15.85 8.50998 17.5 8.50998C17.64 8.50998 17.76 8.48999 17.89 8.46999L18.5 20.97C18.5 21.11 18.46 21.24 18.36 21.34Z" />
</svg>
