<svg viewBox="0 0 24 24" fill="currentColor" stroke="currentColor" xmlns="http://www.w3.org/2000/svg">
<path d="M21.061 15.354L18.648 12.94C18.52 12.812 18.429 12.652 18.385 12.476L16.962 6.78501C16.624 5.43401 15.519 4.41201 14.146 4.18201L4.229 2.51801C3.765 2.44501 3.31799 2.592 2.97999 2.908C2.96599 2.919 2.94899 2.92402 2.93699 2.93702C2.92399 2.95002 2.91899 2.968 2.90699 2.982C2.59199 3.32 2.44799 3.77 2.51899 4.236L4.182 14.146C4.413 15.519 5.434 16.625 6.785 16.962L12.476 18.385C12.651 18.429 12.812 18.52 12.94 18.648L15.353 21.061C15.636 21.344 16.013 21.5 16.414 21.5C16.815 21.5 17.191 21.344 17.475 21.061L21.061 17.475C21.646 16.89 21.646 15.938 21.061 15.354ZM5.168 13.98L3.533 4.241L8.839 9.547C8.785 9.688 8.75 9.84001 8.75 10.001C8.75 10.691 9.31899 11.251 10.006 11.251C10.692 11.251 11.25 10.691 11.25 10.001C11.25 9.31101 10.692 8.75101 10.006 8.75101H9.97999C9.82499 8.75101 9.68099 8.788 9.54499 8.84L4.24 3.53501L13.979 5.16901C14.959 5.33401 15.749 6.06402 15.991 7.02802L17.414 12.719C17.424 12.759 17.447 12.794 17.46 12.834L12.833 17.461C12.794 17.448 12.758 17.425 12.718 17.415L7.02699 15.992C6.06199 15.75 5.333 14.96 5.168 13.98ZM20.354 16.768L16.768 20.354C16.581 20.542 16.251 20.543 16.061 20.354L13.707 18L18 13.707L20.353 16.061C20.548 16.256 20.548 16.573 20.354 16.768Z" />
</svg>
