<svg viewBox="0 0 24 24" fill="currentColor" stroke="currentColor" xmlns="http://www.w3.org/2000/svg">
<path d="M12 1.5C6.21 1.5 1.5 6.21 1.5 12C1.5 17.79 6.21 22.5 12 22.5C17.79 22.5 22.5 17.79 22.5 12C22.5 6.21 17.79 1.5 12 1.5ZM12 21.5C6.762 21.5 2.5 17.238 2.5 12C2.5 6.762 6.762 2.5 12 2.5C17.238 2.5 21.5 6.762 21.5 12C21.5 17.238 17.238 21.5 12 21.5ZM16 12C16 12.276 15.776 12.5 15.5 12.5H12.5V15.5C12.5 15.776 12.276 16 12 16C11.724 16 11.5 15.776 11.5 15.5V12.5H8.5C8.224 12.5 8 12.276 8 12C8 11.724 8.224 11.5 8.5 11.5H11.5V8.5C11.5 8.224 11.724 8 12 8C12.276 8 12.5 8.224 12.5 8.5V11.5H15.5C15.776 11.5 16 11.724 16 12Z" />
</svg>
