<svg viewBox="0 0 24 24" fill="currentColor" stroke="currentColor" xmlns="http://www.w3.org/2000/svg">
<path d="M19 12.5H20.5C21.051 12.5 21.5 12.052 21.5 11.5V9C21.5 7.622 20.378 6.5 19 6.5H15.5V5C15.5 3.622 14.378 2.5 13 2.5C11.622 2.5 10.5 3.622 10.5 5V6.5H8C6.622 6.5 5.5 7.622 5.5 9V11.5H4C2.622 11.5 1.5 12.622 1.5 14C1.5 15.378 2.622 16.5 4 16.5H5.5V19C5.5 20.378 6.622 21.5 8 21.5H10.5C11.051 21.5 11.5 21.052 11.5 20.5V19C11.5 18.173 12.173 17.5 13 17.5C13.827 17.5 14.5 18.173 14.5 19V20.5C14.5 21.052 14.949 21.5 15.5 21.5H19C20.378 21.5 21.5 20.378 21.5 19V16.5C21.5 15.948 21.051 15.5 20.5 15.5H19C18.173 15.5 17.5 14.827 17.5 14C17.5 13.173 18.173 12.5 19 12.5ZM20.5 12V11.5V12ZM19 16.5H20.5V19C20.5 19.827 19.827 20.5 19 20.5H15.5V19C15.5 17.622 14.378 16.5 13 16.5C11.622 16.5 10.5 17.622 10.5 19V20.5H8C7.173 20.5 6.5 19.827 6.5 19V16.5C6.5 15.948 6.051 15.5 5.5 15.5H4C3.173 15.5 2.5 14.827 2.5 14C2.5 13.173 3.173 12.5 4 12.5H5.5C6.051 12.5 6.5 12.052 6.5 11.5V9C6.5 8.173 7.173 7.5 8 7.5H10.5C11.051 7.5 11.5 7.052 11.5 6.5V5C11.5 4.173 12.173 3.5 13 3.5C13.827 3.5 14.5 4.173 14.5 5V6.5C14.5 7.052 14.949 7.5 15.5 7.5H19C19.827 7.5 20.5 8.173 20.5 9V11.5H19C17.622 11.5 16.5 12.622 16.5 14C16.5 15.378 17.622 16.5 19 16.5Z" />
</svg>
