<svg viewBox="0 0 24 24" fill="currentColor" stroke="currentColor" xmlns="http://www.w3.org/2000/svg">
<path d="M19.5 4.49998H14.5C13.4 4.49998 12.5 5.39998 12.5 6.49998V11.5C12.5 12.6 13.4 13.5 14.5 13.5H16.19L13.91 18.05C13.75 18.36 13.77 18.73 13.95 19.02C14.13 19.31 14.45 19.49 14.8 19.49H17.37C17.94 19.49 18.46 19.17 18.71 18.66L21.28 13.53C21.42 13.25 21.49 12.94 21.49 12.64V6.48999C21.49 5.38999 20.59 4.48999 19.49 4.48999L19.5 4.49998ZM20.5 12.65C20.5 12.8 20.46 12.96 20.39 13.1L17.82 18.23C17.73 18.4 17.56 18.51 17.37 18.51H14.8L17.44 13.23C17.52 13.07 17.51 12.89 17.42 12.74C17.33 12.59 17.17 12.5 16.99 12.5H14.49C13.94 12.5 13.49 12.05 13.49 11.5V6.49998C13.49 5.94998 13.94 5.49998 14.49 5.49998H19.49C20.04 5.49998 20.49 5.94998 20.49 6.49998V12.65H20.5ZM9.5 4.49998H4.5C3.4 4.49998 2.5 5.39998 2.5 6.49998V11.5C2.5 12.6 3.4 13.5 4.5 13.5H6.19L3.91 18.05C3.75 18.36 3.77 18.73 3.95 19.02C4.13 19.31 4.45 19.49 4.8 19.49H7.37C7.94 19.49 8.46001 19.17 8.71001 18.66L11.28 13.53C11.42 13.25 11.49 12.94 11.49 12.64V6.48999C11.49 5.38999 10.59 4.48999 9.49001 4.48999L9.5 4.49998ZM10.5 12.65C10.5 12.8 10.46 12.96 10.39 13.1L7.82001 18.23C7.73001 18.4 7.56 18.51 7.37 18.51H4.8L7.44 13.23C7.52 13.07 7.51 12.89 7.42 12.74C7.33 12.59 7.17001 12.5 6.99001 12.5H4.49001C3.94001 12.5 3.49001 12.05 3.49001 11.5V6.49998C3.49001 5.94998 3.94001 5.49998 4.49001 5.49998H9.49001C10.04 5.49998 10.49 5.94998 10.49 6.49998V12.65H10.5Z" />
</svg>
