<svg viewBox="0 0 24 24" fill="currentColor" stroke="currentColor" xmlns="http://www.w3.org/2000/svg">
<path d="M15.25 6.02998C13.73 6.02998 12.5 7.25998 12.5 8.76998C12.5 10.28 13.73 11.51 15.25 11.51C16.77 11.51 18 10.28 18 8.76998C18 7.25998 16.77 6.02998 15.25 6.02998ZM15.25 10.52C14.29 10.52 13.5 9.73998 13.5 8.77998C13.5 7.81998 14.29 7.03998 15.25 7.03998C16.21 7.03998 17 7.81998 17 8.77998C17 9.73998 16.21 10.52 15.25 10.52ZM21.18 3.12998C21.13 2.94998 20.99 2.80998 20.81 2.76998C20.57 2.70998 14.93 1.38998 11.26 5.06998C10.73 5.59998 10.29 6.10998 9.89 6.60998L7.7 7.07999C5.81 7.38999 4.2 8.67998 3.5 10.45L2.54 12.84C2.47 13.01 2.5 13.21 2.62 13.35C2.72 13.46 2.86 13.53 3 13.53C3.04 13.53 3.07 13.53 3.11 13.52L6.9 12.68C6.81 12.98 6.71 13.28 6.62 13.61C6.51 13.96 6.62 14.36 6.87 14.61L9.39 17.13C9.58 17.32 9.84001 17.42 10.1 17.42C10.19 17.42 10.27 17.41 10.36 17.39C10.72 17.3 11.04 17.2 11.37 17.11L10.52 20.91C10.48 21.09 10.54 21.28 10.68 21.4C10.77 21.48 10.89 21.52 11 21.52C11.06 21.52 11.13 21.51 11.19 21.48L13.58 20.52C15.36 19.82 16.66 18.21 16.96 16.35L17.41 14.24C17.93 13.83 18.45 13.37 19.01 12.82C22.68 9.13998 21.26 3.38999 21.19 3.14999L21.18 3.12998ZM3.81 12.33L4.42 10.82C5 9.36998 6.31001 8.31998 7.88001 8.05998L9 7.81998C8.63 8.38998 8.32001 8.95999 8.05001 9.54999C8.04001 9.56999 8.02001 9.59999 8.02001 9.61999C7.74001 10.24 7.49 10.88 7.25 11.56L3.81 12.32V12.33ZM10.08 16.41L7.56 13.88C7.93 12.66 8.26 11.62 8.65 10.65L13.39 15.38C12.42 15.76 11.36 16.07 10.08 16.41ZM15.96 16.15C15.71 17.69 14.65 19 13.2 19.58L11.69 20.19L12.45 16.77C13.16 16.55 13.82 16.3 14.44 16.03C14.46 16.03 14.47 16.02 14.49 16.01C15.07 15.75 15.64 15.46 16.19 15.11L15.96 16.16V16.15ZM14.37 14.95L9.08001 9.66998C9.73001 8.35998 10.58 7.14998 11.96 5.76998C13.82 3.90998 16.34 3.49998 18.17 3.49998C19.11 3.49998 19.87 3.60998 20.27 3.67998C20.5 4.86998 21.11 9.26998 18.28 12.1C16.91 13.47 15.71 14.32 14.37 14.96V14.95Z" />
</svg>
