<svg viewBox="0 0 24 24" fill="currentColor" stroke="currentColor" xmlns="http://www.w3.org/2000/svg">
<path d="M8.79303 8.086C9.23103 7.502 9.5 6.784 9.5 6C9.5 4.07 7.93 2.5 6 2.5C4.07 2.5 2.5 4.07 2.5 6C2.5 7.93 4.07 9.5 6 9.5C6.785 9.5 7.502 9.231 8.086 8.793L11.293 12L8.086 15.207C7.502 14.769 6.784 14.5 6 14.5C4.07 14.5 2.5 16.07 2.5 18C2.5 19.93 4.07 21.5 6 21.5C7.93 21.5 9.5 19.93 9.5 18C9.5 17.215 9.23103 16.498 8.79303 15.914L12 12.707L19.646 20.353C19.744 20.451 19.872 20.499 20 20.499C20.128 20.499 20.256 20.45 20.354 20.353C20.549 20.158 20.549 19.841 20.354 19.646L8.79303 8.086ZM6 20.5C4.622 20.5 3.5 19.378 3.5 18C3.5 16.622 4.622 15.5 6 15.5C6.689 15.5 7.31299 15.78 7.76599 16.232C7.76599 16.232 7.76603 16.233 7.76703 16.233C7.76803 16.233 7.76801 16.233 7.76801 16.234C8.22001 16.687 8.5 17.311 8.5 18C8.5 19.378 7.378 20.5 6 20.5ZM3.5 6C3.5 4.622 4.622 3.5 6 3.5C7.378 3.5 8.5 4.622 8.5 6C8.5 6.689 8.22001 7.31299 7.76801 7.76599C7.76801 7.76599 7.76703 7.766 7.76703 7.767C7.76703 7.768 7.76699 7.76801 7.76599 7.76801C7.31299 8.22001 6.689 8.5 6 8.5C4.622 8.5 3.5 7.378 3.5 6ZM14.146 9.854C13.951 9.659 13.951 9.342 14.146 9.147L19.646 3.647C19.841 3.452 20.158 3.452 20.353 3.647C20.548 3.842 20.548 4.159 20.353 4.354L14.853 9.854C14.755 9.952 14.627 10 14.499 10C14.371 10 14.244 9.951 14.146 9.854Z" />
</svg>
