<svg viewBox="0 0 24 24" fill="currentColor" stroke="currentColor" xmlns="http://www.w3.org/2000/svg">
<path d="M21.354 20.646L17.345 16.637C18.681 15.135 19.501 13.164 19.501 11C19.501 6.313 15.688 2.5 11.001 2.5C6.31398 2.5 2.50098 6.313 2.50098 11C2.50098 15.687 6.31398 19.5 11.001 19.5C13.165 19.5 15.136 18.68 16.638 17.344L20.647 21.353C20.745 21.451 20.873 21.499 21.001 21.499C21.129 21.499 21.257 21.45 21.355 21.353C21.549 21.158 21.549 20.842 21.354 20.646ZM3.5 11C3.5 6.865 6.864 3.5 11 3.5C15.136 3.5 18.5 6.865 18.5 11C18.5 15.135 15.136 18.5 11 18.5C6.864 18.5 3.5 15.135 3.5 11ZM14.5 9.5C14.5 9.776 14.276 10 14 10H8C7.724 10 7.5 9.776 7.5 9.5C7.5 9.224 7.724 9 8 9H14C14.276 9 14.5 9.224 14.5 9.5ZM12.5 12.5C12.5 12.776 12.276 13 12 13H8C7.724 13 7.5 12.776 7.5 12.5C7.5 12.224 7.724 12 8 12H12C12.276 12 12.5 12.224 12.5 12.5Z" />
</svg>
