<svg viewBox="0 0 24 24" fill="currentColor" stroke="currentColor" xmlns="http://www.w3.org/2000/svg">
<path d="M12 8.5C10.07 8.5 8.5 10.07 8.5 12C8.5 13.93 10.07 15.5 12 15.5C13.93 15.5 15.5 13.93 15.5 12C15.5 10.07 13.93 8.5 12 8.5ZM12 14.5C10.622 14.5 9.5 13.378 9.5 12C9.5 10.622 10.622 9.5 12 9.5C13.378 9.5 14.5 10.622 14.5 12C14.5 13.378 13.379 14.5 12 14.5ZM21.082 14.169C20.311 13.722 19.831 12.891 19.83 12C19.829 11.11 20.306 10.28 21.085 9.828C21.481 9.598 21.616 9.08799 21.387 8.69199L19.715 5.806C19.486 5.41 18.978 5.27299 18.58 5.50299C17.803 5.95099 16.839 5.94999 16.061 5.49799C15.292 5.05299 14.815 4.22401 14.815 3.33701C14.815 2.87601 14.44 2.50101 13.978 2.50101H10.023C9.56102 2.50101 9.18601 2.87601 9.18601 3.33701C9.18601 4.22501 8.70899 5.053 7.93799 5.5C7.16199 5.949 6.197 5.95099 5.422 5.50299C5.023 5.27399 4.51502 5.411 4.28602 5.806L2.612 8.694C2.383 9.09 2.51899 9.59899 2.92099 9.83099C3.69099 10.277 4.17 11.106 4.172 11.996C4.174 12.887 3.697 13.719 2.917 14.171C2.725 14.282 2.587 14.462 2.53 14.677C2.473 14.891 2.50302 15.115 2.61402 15.308L4.28501 18.193C4.51501 18.59 5.024 18.726 5.422 18.497C6.198 18.05 7.162 18.051 7.93 18.497L7.93201 18.498C7.93401 18.499 7.93599 18.501 7.93799 18.502C8.70699 18.948 9.18301 19.776 9.18201 20.664C9.18201 21.125 9.55701 21.5 10.018 21.5H13.977C14.438 21.5 14.813 21.125 14.813 20.665C14.813 19.777 15.291 18.948 16.062 18.501C16.837 18.051 17.802 18.05 18.578 18.498C18.975 18.727 19.484 18.59 19.714 18.195L21.388 15.306C21.618 14.91 21.481 14.401 21.082 14.169ZM18.932 17.551C17.873 17.006 16.597 17.035 15.559 17.636C14.531 18.232 13.874 19.319 13.818 20.5H10.178C10.124 19.319 9.46801 18.233 8.44001 17.636C7.40401 17.035 6.126 17.006 5.068 17.55L3.56 14.948C4.56 14.306 5.17399 13.188 5.17099 11.992C5.16799 10.805 4.556 9.69399 3.56 9.04999L5.068 6.44699C6.127 6.99199 7.40301 6.96299 8.44101 6.36099C9.46901 5.76499 10.125 4.67899 10.181 3.49799H13.818C13.874 4.67899 14.53 5.76501 15.561 6.36301C16.596 6.96301 17.872 6.99199 18.932 6.44699L20.44 9.04901C19.441 9.69001 18.829 10.807 18.831 12C18.832 13.19 19.444 14.303 20.441 14.947L18.932 17.551Z" />
</svg>
