<svg viewBox="0 0 24 24" fill="currentColor" stroke="currentColor" xmlns="http://www.w3.org/2000/svg">
<path d="M20.51 4.13999L16.18 2.55999C15.93 2.46999 15.64 2.48 15.4 2.6C15.16 2.72 14.98 2.91999 14.9 3.16999C14.63 3.97999 13.88 5.35 12 5.35C10.12 5.35 9.38 3.98999 9.1 3.16999C9.02 2.91999 8.84 2.72 8.6 2.6C8.36 2.48 8.07 2.46999 7.82 2.55999L3.49 4.13999C2.9 4.34999 2.5 4.91999 2.5 5.54999V8.67998C2.5 9.15998 2.72 9.58999 3.1 9.87999C3.48 10.17 3.96 10.26 4.42 10.12L6.01 9.66999V19.51C6.01 20.61 6.91 21.51 8.01 21.51H16.01C17.11 21.51 18.01 20.61 18.01 19.51V9.66999L19.6 10.12C20.06 10.25 20.54 10.16 20.92 9.87999C21.3 9.58999 21.52 9.15998 21.52 8.67998V5.54999C21.52 4.91999 21.12 4.35999 20.53 4.13999H20.51ZM20.5 8.67998C20.5 8.83998 20.43 8.97999 20.3 9.07999C20.17 9.17999 20.01 9.20999 19.86 9.15999L17.63 8.51999C17.48 8.47999 17.32 8.50999 17.19 8.6C17.07 8.69 16.99 8.83999 16.99 8.99999V19.5C16.99 20.05 16.54 20.5 15.99 20.5H7.99C7.44 20.5 6.99 20.05 6.99 19.5V8.99999C6.99 8.83999 6.92 8.7 6.79 8.6C6.7 8.52999 6.6 8.49999 6.49 8.49999C6.44 8.49999 6.4 8.49999 6.35 8.51999L4.12 9.15999C3.97 9.19999 3.81 9.16999 3.68 9.07999C3.55 8.97999 3.48 8.83998 3.48 8.67998V5.54999C3.48 5.33999 3.61 5.14999 3.81 5.07999L8.14 3.48999C8.43 4.34999 9.38 6.35 11.98 6.35C14.58 6.35 15.53 4.34998 15.81 3.50998L20.14 5.07999C20.34 5.14999 20.47 5.33999 20.47 5.54999V8.67998H20.5Z" />
</svg>
