<svg viewBox="0 0 24 24" fill="currentColor" stroke="currentColor" xmlns="http://www.w3.org/2000/svg">
<path d="M18 9.52003C15.1 9.52003 11.7 6.67003 11.66 6.64003C11.62 6.60003 11.57 6.57003 11.51 6.55003C11.24 6.45003 10.94 6.51003 10.72 6.70003C8.85 8.32003 5.55 8.40002 3.8 6.87002C3.6 6.70002 3.34 6.63002 3.09 6.68002C2.85 6.73002 2.65 6.89002 2.55 7.12002C2.38 7.50002 1.51 9.57002 1.51 13.01C1.51 13.96 1.58 14.79 1.66 15.5C1.66 15.51 1.66 15.52 1.66 15.53C1.72 16.06 1.8 16.52 1.87 16.88C2.05 17.81 2.88 18.49 3.83 18.49H20.5C21.6 18.49 22.5 17.59 22.5 16.49V14.06C22.45 12.48 21.45 9.51002 18 9.51002V9.52003ZM3.34 7.79002C5.46 9.44002 9.02 9.35003 11.23 7.58003C11.5 7.80003 12.03 8.19003 12.69 8.61003L11.65 9.65002C11.45 9.85002 11.45 10.16 11.65 10.36C11.75 10.46 11.88 10.51 12 10.51C12.12 10.51 12.26 10.46 12.35 10.36L13.57 9.14003C14.11 9.44003 14.69 9.72003 15.31 9.95003L14.64 10.62C14.44 10.82 14.44 11.13 14.64 11.33C14.74 11.43 14.87 11.48 14.99 11.48C15.11 11.48 15.25 11.43 15.34 11.33L16.38 10.29C16.91 10.42 17.46 10.52 17.99 10.52C21.33 10.52 21.49 13.96 21.49 14.09V15.01H6.47C6.32 12.4 4.99 10.86 2.67 10.59C2.86 9.20003 3.17 8.25002 3.35 7.79002H3.34ZM2.5 13.01C2.5 12.48 2.53 12.01 2.56 11.55C3.55 11.64 5.29 12.11 5.48 15H2.6C2.54 14.41 2.5 13.74 2.5 13V13.01ZM20.5 17.5H3.83C3.35 17.5 2.94 17.16 2.85 16.69C2.81 16.49 2.77 16.26 2.73 16H21.5V16.5C21.5 17.05 21.05 17.5 20.5 17.5Z" />
</svg>
