<svg viewBox="0 0 24 24" fill="currentColor" stroke="currentColor" xmlns="http://www.w3.org/2000/svg">
<path d="M2.5 5C2.5 4.724 2.724 4.5 3 4.5H7.5V3C7.5 2.724 7.724 2.5 8 2.5C8.276 2.5 8.5 2.724 8.5 3V7C8.5 7.276 8.276 7.5 8 7.5C7.724 7.5 7.5 7.276 7.5 7V5.5H3C2.724 5.5 2.5 5.276 2.5 5ZM12 5.5H21C21.276 5.5 21.5 5.276 21.5 5C21.5 4.724 21.276 4.5 21 4.5H12C11.724 4.5 11.5 4.724 11.5 5C11.5 5.276 11.724 5.5 12 5.5ZM3 12.5H12C12.276 12.5 12.5 12.276 12.5 12C12.5 11.724 12.276 11.5 12 11.5H3C2.724 11.5 2.5 11.724 2.5 12C2.5 12.276 2.724 12.5 3 12.5ZM21 11.5H16.5V10C16.5 9.724 16.276 9.5 16 9.5C15.724 9.5 15.5 9.724 15.5 10V14C15.5 14.276 15.724 14.5 16 14.5C16.276 14.5 16.5 14.276 16.5 14V12.5H21C21.276 12.5 21.5 12.276 21.5 12C21.5 11.724 21.276 11.5 21 11.5ZM8 16.5C7.724 16.5 7.5 16.724 7.5 17V18.5H3C2.724 18.5 2.5 18.724 2.5 19C2.5 19.276 2.724 19.5 3 19.5H7.5V21C7.5 21.276 7.724 21.5 8 21.5C8.276 21.5 8.5 21.276 8.5 21V17C8.5 16.724 8.276 16.5 8 16.5ZM21 18.5H12C11.724 18.5 11.5 18.724 11.5 19C11.5 19.276 11.724 19.5 12 19.5H21C21.276 19.5 21.5 19.276 21.5 19C21.5 18.724 21.276 18.5 21 18.5Z" />
</svg>
