<svg viewBox="0 0 24 24" fill="currentColor" stroke="currentColor" xmlns="http://www.w3.org/2000/svg">
<path d="M6 3.5C4.07 3.5 2.5 5.07 2.5 7C2.5 8.93 4.07 10.5 6 10.5C7.93 10.5 9.5 8.93 9.5 7C9.5 5.07 7.93 3.5 6 3.5ZM6 9.5C4.622 9.5 3.5 8.378 3.5 7C3.5 5.622 4.622 4.5 6 4.5C7.378 4.5 8.5 5.622 8.5 7C8.5 8.378 7.378 9.5 6 9.5ZM18 13.5C16.07 13.5 14.5 15.07 14.5 17C14.5 18.93 16.07 20.5 18 20.5C19.93 20.5 21.5 18.93 21.5 17C21.5 15.07 19.93 13.5 18 13.5ZM18 19.5C16.622 19.5 15.5 18.378 15.5 17C15.5 15.622 16.622 14.5 18 14.5C19.378 14.5 20.5 15.622 20.5 17C20.5 18.378 19.378 19.5 18 19.5ZM14.5 7C14.5 6.724 14.724 6.5 15 6.5H21C21.276 6.5 21.5 6.724 21.5 7C21.5 7.276 21.276 7.5 21 7.5H15C14.724 7.5 14.5 7.276 14.5 7ZM9.5 17C9.5 17.276 9.276 17.5 9 17.5H3C2.724 17.5 2.5 17.276 2.5 17C2.5 16.724 2.724 16.5 3 16.5H9C9.276 16.5 9.5 16.724 9.5 17Z" />
</svg>
