<svg viewBox="0 0 24 24" fill="currentColor" stroke="currentColor" xmlns="http://www.w3.org/2000/svg">
<path d="M17 2.5C15.07 2.5 13.5 4.07 13.5 6C13.5 7.93 15.07 9.5 17 9.5C18.93 9.5 20.5 7.93 20.5 6C20.5 4.07 18.93 2.5 17 2.5ZM17 8.5C15.622 8.5 14.5 7.378 14.5 6C14.5 4.622 15.622 3.5 17 3.5C18.378 3.5 19.5 4.622 19.5 6C19.5 7.378 18.378 8.5 17 8.5ZM7 14.5C5.07 14.5 3.5 16.07 3.5 18C3.5 19.93 5.07 21.5 7 21.5C8.93 21.5 10.5 19.93 10.5 18C10.5 16.07 8.93 14.5 7 14.5ZM7 20.5C5.622 20.5 4.5 19.378 4.5 18C4.5 16.622 5.622 15.5 7 15.5C8.378 15.5 9.5 16.622 9.5 18C9.5 19.378 8.378 20.5 7 20.5ZM17.5 15V21C17.5 21.276 17.276 21.5 17 21.5C16.724 21.5 16.5 21.276 16.5 21V15C16.5 14.724 16.724 14.5 17 14.5C17.276 14.5 17.5 14.724 17.5 15ZM6.5 9V3C6.5 2.724 6.724 2.5 7 2.5C7.276 2.5 7.5 2.724 7.5 3V9C7.5 9.276 7.276 9.5 7 9.5C6.724 9.5 6.5 9.276 6.5 9Z" />
</svg>
