<svg viewBox="0 0 24 24" fill="currentColor" stroke="currentColor" xmlns="http://www.w3.org/2000/svg">
<path d="M7.5 16C7.5 16.276 7.276 16.5 7 16.5H5.5V21C5.5 21.276 5.276 21.5 5 21.5C4.724 21.5 4.5 21.276 4.5 21V16.5H3C2.724 16.5 2.5 16.276 2.5 16C2.5 15.724 2.724 15.5 3 15.5H7C7.276 15.5 7.5 15.724 7.5 16ZM5 12.5C5.276 12.5 5.5 12.276 5.5 12V3C5.5 2.724 5.276 2.5 5 2.5C4.724 2.5 4.5 2.724 4.5 3V12C4.5 12.276 4.724 12.5 5 12.5ZM12 11.5C11.724 11.5 11.5 11.724 11.5 12V21C11.5 21.276 11.724 21.5 12 21.5C12.276 21.5 12.5 21.276 12.5 21V12C12.5 11.724 12.276 11.5 12 11.5ZM14 7.5H12.5V3C12.5 2.724 12.276 2.5 12 2.5C11.724 2.5 11.5 2.724 11.5 3V7.5H10C9.724 7.5 9.5 7.724 9.5 8C9.5 8.276 9.724 8.5 10 8.5H14C14.276 8.5 14.5 8.276 14.5 8C14.5 7.724 14.276 7.5 14 7.5ZM21 15.5H17C16.724 15.5 16.5 15.724 16.5 16C16.5 16.276 16.724 16.5 17 16.5H18.5V21C18.5 21.276 18.724 21.5 19 21.5C19.276 21.5 19.5 21.276 19.5 21V16.5H21C21.276 16.5 21.5 16.276 21.5 16C21.5 15.724 21.276 15.5 21 15.5ZM19 12.5C19.276 12.5 19.5 12.276 19.5 12V3C19.5 2.724 19.276 2.5 19 2.5C18.724 2.5 18.5 2.724 18.5 3V12C18.5 12.276 18.724 12.5 19 12.5Z" />
</svg>
