<svg viewBox="0 0 24 24" fill="currentColor" stroke="currentColor" xmlns="http://www.w3.org/2000/svg">
<path d="M19.5 7.55099V7C19.5 5.622 18.378 4.5 17 4.5H7C5.622 4.5 4.5 5.622 4.5 7V7.55099C3.36 7.78299 2.5 8.793 2.5 10V15C2.5 17.29 3.71 18.5 6 18.5H7.5V20C7.5 20.276 7.724 20.5 8 20.5C8.276 20.5 8.5 20.276 8.5 20V18.5H15.5V20C15.5 20.276 15.724 20.5 16 20.5C16.276 20.5 16.5 20.276 16.5 20V18.5H18C20.29 18.5 21.5 17.29 21.5 15V10C21.5 8.793 20.64 7.78299 19.5 7.55099ZM7 5.5H17C17.827 5.5 18.5 6.173 18.5 7V7.55099C17.36 7.78299 16.5 8.793 16.5 10V13.5H7.5V10C7.5 8.793 6.64 7.78299 5.5 7.55099V7C5.5 6.173 6.173 5.5 7 5.5ZM20.5 15C20.5 16.729 19.729 17.5 18 17.5H6C4.271 17.5 3.5 16.729 3.5 15V10C3.5 9.173 4.173 8.5 5 8.5C5.827 8.5 6.5 9.173 6.5 10V14C6.5 14.276 6.724 14.5 7 14.5H17C17.276 14.5 17.5 14.276 17.5 14V10C17.5 9.173 18.173 8.5 19 8.5C19.827 8.5 20.5 9.173 20.5 10V15Z" />
</svg>
