<svg viewBox="0 0 24 24" fill="currentColor" stroke="currentColor" xmlns="http://www.w3.org/2000/svg">
<path d="M21.137 11.519L18.41 10.74C15.902 10.023 13.976 8.09799 13.259 5.58899L12.48 2.862C12.357 2.433 11.641 2.433 11.518 2.862L10.739 5.58899C10.022 8.09799 8.09601 10.024 5.58801 10.74L2.86099 11.519C2.64599 11.58 2.49799 11.777 2.49799 12C2.49799 12.223 2.64599 12.419 2.86099 12.481L5.58801 13.26C8.09601 13.977 10.022 15.902 10.739 18.411L11.518 21.138C11.58 21.353 11.776 21.501 11.999 21.501C12.222 21.501 12.418 21.353 12.48 21.138L13.259 18.411C13.976 15.902 15.902 13.976 18.41 13.26L21.137 12.481C21.352 12.42 21.5 12.223 21.5 12C21.5 11.777 21.352 11.581 21.137 11.519ZM18.136 12.298C15.293 13.11 13.111 15.292 12.298 18.136L12 19.179L11.702 18.136C10.889 15.293 8.70601 13.11 5.86401 12.298L4.82001 12L5.86401 11.702C8.70701 10.89 10.889 8.70802 11.702 5.86402L12 4.82102L12.298 5.86402C13.111 8.70702 15.294 10.89 18.136 11.702L19.18 12L18.136 12.298Z" />
</svg>
