<svg viewBox="0 0 24 24" fill="currentColor" stroke="currentColor" xmlns="http://www.w3.org/2000/svg">
<path d="M12 1.5C6.21 1.5 1.5 6.21 1.5 12C1.5 17.79 6.21 22.5 12 22.5C17.79 22.5 22.5 17.79 22.5 12C22.5 6.21 17.79 1.5 12 1.5ZM12 21.5C6.762 21.5 2.5 17.238 2.5 12C2.5 6.762 6.762 2.5 12 2.5C17.238 2.5 21.5 6.762 21.5 12C21.5 17.238 17.238 21.5 12 21.5ZM14.897 8.021C12.391 9.369 10.94 10.231 10.586 10.586C10.208 10.964 10 11.466 10 12C10 12.534 10.208 13.036 10.586 13.414C10.963 13.792 11.466 14 12 14C12.534 14 13.037 13.792 13.414 13.414C13.767 13.061 14.63 11.611 15.979 9.103C16.147 8.79 16.092 8.41 15.84 8.159C15.589 7.908 15.209 7.854 14.897 8.021ZM12.707 12.707C12.329 13.085 11.671 13.085 11.293 12.707C11.104 12.518 11 12.267 11 12C11 11.733 11.104 11.482 11.293 11.293C11.485 11.101 12.505 10.458 14.777 9.22299C13.54 11.496 12.898 12.516 12.707 12.707ZM6.5 12C6.5 12.99 6.749 13.914 7.241 14.746C7.381 14.984 7.303 15.29 7.065 15.431C6.985 15.478 6.898 15.501 6.811 15.501C6.64 15.501 6.474 15.413 6.38 15.255C5.80501 14.281 5.50101 13.156 5.50101 12.001C5.50101 8.41701 8.41701 5.50101 12.001 5.50101C12.471 5.50101 12.931 5.55001 13.405 5.65201C13.675 5.71001 13.847 5.975 13.789 6.246C13.731 6.517 13.463 6.68801 13.196 6.63101C9.70801 5.88301 6.5 8.568 6.5 12ZM18.349 10.595C18.451 11.068 18.5 11.528 18.5 12C18.5 13.155 18.196 14.281 17.621 15.254C17.527 15.412 17.361 15.5 17.19 15.5C17.104 15.5 17.016 15.478 16.936 15.43C16.698 15.29 16.62 14.983 16.76 14.745C17.252 13.914 17.501 12.99 17.501 11.999C17.501 11.599 17.459 11.208 17.372 10.804C17.314 10.534 17.486 10.268 17.756 10.21C18.024 10.153 18.291 10.325 18.349 10.595Z" />
</svg>
