<svg viewBox="0 0 24 24" fill="currentColor" stroke="currentColor" xmlns="http://www.w3.org/2000/svg">
<path d="M18.66 4.5H15.278C14.833 3.186 13.722 2.5 12 2.5H6C3.71 2.5 2.5 3.71 2.5 6V18C2.5 20.29 3.71 21.5 6 21.5H12C13.722 21.5 14.833 20.814 15.278 19.5H18.66C20.491 19.5 21.5 18.491 21.5 16.66V7.34C21.5 5.509 20.491 4.5 18.66 4.5ZM12 20.5H6C4.271 20.5 3.5 19.729 3.5 18V6C3.5 4.271 4.271 3.5 6 3.5H12C13.729 3.5 14.5 4.271 14.5 6V18C14.5 19.729 13.729 20.5 12 20.5ZM20.5 16.66C20.5 17.95 19.95 18.5 18.66 18.5H15.465C15.479 18.336 15.5 18.177 15.5 18V6C15.5 5.823 15.479 5.664 15.465 5.5H18.66C19.95 5.5 20.5 6.05 20.5 7.34V16.66Z" />
</svg>
