<svg viewBox="0 0 24 24" fill="currentColor" stroke="currentColor" xmlns="http://www.w3.org/2000/svg">
<path d="M12 7.5C9.519 7.5 7.5 9.519 7.5 12C7.5 14.481 9.519 16.5 12 16.5C14.481 16.5 16.5 14.481 16.5 12C16.5 9.519 14.481 7.5 12 7.5ZM12 15.5C10.07 15.5 8.5 13.93 8.5 12C8.5 10.07 10.07 8.5 12 8.5C13.93 8.5 15.5 10.07 15.5 12C15.5 13.93 13.93 15.5 12 15.5ZM11.5 5V3C11.5 2.724 11.724 2.5 12 2.5C12.276 2.5 12.5 2.724 12.5 3V5C12.5 5.276 12.276 5.5 12 5.5C11.724 5.5 11.5 5.276 11.5 5ZM12.5 19V21C12.5 21.276 12.276 21.5 12 21.5C11.724 21.5 11.5 21.276 11.5 21V19C11.5 18.724 11.724 18.5 12 18.5C12.276 18.5 12.5 18.724 12.5 19ZM5 12.5H3C2.724 12.5 2.5 12.276 2.5 12C2.5 11.724 2.724 11.5 3 11.5H5C5.276 11.5 5.5 11.724 5.5 12C5.5 12.276 5.276 12.5 5 12.5ZM21.5 12C21.5 12.276 21.276 12.5 21 12.5H19C18.724 12.5 18.5 12.276 18.5 12C18.5 11.724 18.724 11.5 19 11.5H21C21.276 11.5 21.5 11.724 21.5 12ZM5.28299 5.98999C5.08799 5.79499 5.08799 5.47799 5.28299 5.28299C5.47799 5.08799 5.79499 5.08799 5.98999 5.28299L7.40399 6.69699C7.59899 6.89199 7.59899 7.20899 7.40399 7.40399C7.30599 7.50199 7.17799 7.54999 7.04999 7.54999C6.92199 7.54999 6.79401 7.50099 6.69601 7.40399L5.28299 5.98999ZM18.717 18.01C18.912 18.205 18.912 18.522 18.717 18.717C18.619 18.815 18.491 18.863 18.363 18.863C18.235 18.863 18.107 18.814 18.009 18.717L16.595 17.303C16.4 17.108 16.4 16.791 16.595 16.596C16.79 16.401 17.107 16.401 17.302 16.596L18.717 18.01ZM7.40399 16.596C7.59899 16.791 7.59899 17.108 7.40399 17.303L5.98999 18.717C5.89199 18.815 5.76399 18.863 5.63599 18.863C5.50799 18.863 5.38001 18.814 5.28201 18.717C5.08701 18.522 5.08701 18.205 5.28201 18.01L6.69601 16.596C6.89201 16.401 7.20799 16.401 7.40399 16.596ZM16.596 7.40399C16.401 7.20899 16.401 6.89199 16.596 6.69699L18.01 5.28299C18.205 5.08799 18.522 5.08799 18.717 5.28299C18.912 5.47799 18.912 5.79499 18.717 5.98999L17.303 7.40399C17.205 7.50199 17.077 7.54999 16.949 7.54999C16.821 7.54999 16.694 7.50099 16.596 7.40399Z" />
</svg>
