<svg viewBox="0 0 24 24" fill="currentColor" stroke="currentColor" xmlns="http://www.w3.org/2000/svg">
<path d="M19.82 10.62L19.68 9.49999H21C21.28 9.49999 21.5 9.27999 21.5 8.99999C21.5 8.71999 21.28 8.49999 21 8.49999H19.55L19.41 7.42999C19.17 5.98999 18.93 4.49999 15.96 4.49999H8.04C5.07 4.49999 4.82 5.98999 4.58 7.44999L4.45 8.49999H3C2.72 8.49999 2.5 8.71999 2.5 8.99999C2.5 9.27999 2.72 9.49999 3 9.49999H4.32L4.18 10.62C3.65 10.77 3.29 11.04 3.08 11.28C2.63 11.79 2.43 12.52 2.53 13.31L2.92 16.43C3.07 17.63 3.47 18.96 5 19.36V20.99C5 21.27 5.22 21.49 5.5 21.49C5.78 21.49 6 21.27 6 20.99V19.49H18V20.99C18 21.27 18.22 21.49 18.5 21.49C18.78 21.49 19 21.27 19 20.99V19.36C20.54 18.96 20.93 17.62 21.08 16.43L21.47 13.31C21.57 12.52 21.37 11.79 20.92 11.28C20.7 11.04 20.35 10.77 19.82 10.62ZM5.57 7.58999C5.81 6.14999 5.92 5.49999 8.04 5.49999H15.96C18.08 5.49999 18.19 6.15999 18.42 7.56999L18.79 10.5H5.19L5.56 7.58999H5.57ZM20.48 13.18L20.09 16.3C19.89 17.92 19.34 18.49 18 18.49H6C4.66 18.49 4.11 17.92 3.91 16.3L3.52 13.18C3.46 12.67 3.57 12.23 3.83 11.93C4.09 11.64 4.49 11.49 5.01 11.49H19C19.52 11.49 19.92 11.64 20.18 11.93C20.44 12.23 20.55 12.67 20.49 13.18H20.48ZM10 2.98999C10 2.70999 10.22 2.48999 10.5 2.48999H13.5C13.78 2.48999 14 2.70999 14 2.98999C14 3.26999 13.78 3.48999 13.5 3.48999H10.5C10.22 3.48999 10 3.26999 10 2.98999ZM18.03 14.46C18.17 14.6 18.25 14.79 18.25 14.99C18.25 15.09 18.23 15.19 18.19 15.28C18.15 15.37 18.1 15.45 18.03 15.52C17.89 15.66 17.7 15.74 17.5 15.74C17.3 15.74 17.11 15.66 16.97 15.52C16.9 15.45 16.85 15.37 16.81 15.28C16.77 15.19 16.75 15.09 16.75 14.99C16.75 14.79 16.83 14.6 16.97 14.46C17.25 14.18 17.75 14.18 18.03 14.46ZM7.03 14.46C7.17 14.6 7.25 14.79 7.25 14.99C7.25 15.09 7.23 15.18 7.19 15.28C7.15 15.37 7.1 15.45 7.03 15.52C6.96 15.59 6.88 15.64 6.79 15.68C6.7 15.72 6.6 15.74 6.5 15.74C6.3 15.74 6.11 15.66 5.97 15.52C5.9 15.45 5.85 15.37 5.81 15.28C5.77 15.18 5.75 15.09 5.75 14.99C5.75 14.89 5.77 14.79 5.81 14.7C5.85 14.61 5.9 14.53 5.97 14.46C6.04 14.39 6.12 14.34 6.21 14.3C6.4 14.22 6.6 14.22 6.79 14.3C6.88 14.33 6.96 14.39 7.03 14.46ZM15 14.99C15 15.27 14.78 15.49 14.5 15.49H9.5C9.22 15.49 9 15.27 9 14.99C9 14.71 9.22 14.49 9.5 14.49H14.5C14.78 14.49 15 14.71 15 14.99Z" />
</svg>
