<svg viewBox="0 0 24 24" fill="currentColor" stroke="currentColor" xmlns="http://www.w3.org/2000/svg">
<path d="M12 1.5C6.21 1.5 1.5 6.21 1.5 12C1.5 17.79 6.21 22.5 12 22.5C17.79 22.5 22.5 17.79 22.5 12C22.5 6.21 17.79 1.5 12 1.5ZM12 21.5C6.762 21.5 2.5 17.238 2.5 12C2.5 6.762 6.762 2.5 12 2.5C17.238 2.5 21.5 6.762 21.5 12C21.5 17.238 17.238 21.5 12 21.5ZM15.354 9.354L12.707 12L15.353 14.646C15.548 14.841 15.548 15.158 15.353 15.353C15.255 15.451 15.127 15.499 14.999 15.499C14.871 15.499 14.743 15.45 14.645 15.353L12 12.707L9.354 15.353C9.256 15.451 9.128 15.499 9 15.499C8.872 15.499 8.744 15.45 8.646 15.353C8.451 15.158 8.451 14.841 8.646 14.646L11.292 12L8.646 9.354C8.451 9.159 8.451 8.84197 8.646 8.64697C8.841 8.45197 9.158 8.45197 9.353 8.64697L11.999 11.293L14.645 8.64697C14.84 8.45197 15.157 8.45197 15.352 8.64697C15.547 8.84197 15.549 9.158 15.354 9.354Z" />
</svg>
