<svg viewBox="0 0 24 24" fill="currentColor" stroke="currentColor" xmlns="http://www.w3.org/2000/svg">
<path d="M18.354 17.646C18.549 17.841 18.549 18.158 18.354 18.353C18.256 18.451 18.128 18.499 18 18.499C17.872 18.499 17.744 18.45 17.646 18.353L12 12.707L6.354 18.353C6.256 18.451 6.12799 18.499 5.99999 18.499C5.87199 18.499 5.74399 18.45 5.64599 18.353C5.45099 18.158 5.45099 17.841 5.64599 17.646L11.292 12L5.64599 6.35401C5.45099 6.15901 5.45099 5.84198 5.64599 5.64698C5.84099 5.45198 6.15799 5.45198 6.35299 5.64698L11.999 11.293L17.645 5.64698C17.84 5.45198 18.157 5.45198 18.352 5.64698C18.547 5.84198 18.547 6.15901 18.352 6.35401L12.707 12L18.354 17.646Z" />
</svg>
