<svg viewBox="0 0 24 24" fill="currentColor" stroke="currentColor" xmlns="http://www.w3.org/2000/svg">
<path d="M21.04 6.37702C20.978 6.22202 20.841 6.10802 20.677 6.07502C20.512 6.04102 20.343 6.093 20.224 6.21L18.042 8.38102C17.658 8.76402 17.031 8.764 16.646 8.379L15.621 7.35401C15.237 6.96901 15.236 6.34301 15.62 5.95801L17.791 3.77701C17.909 3.65801 17.96 3.48801 17.926 3.32401C17.892 3.16001 17.779 3.02301 17.623 2.96101C15.774 2.21401 13.713 2.385 11.969 3.43C11.18 3.903 10.514 4.552 10.041 5.305V5.30601L9.961 5.43799C9.179 6.72999 8.877 8.181 9.088 9.633C9.13 9.925 9.025 10.23 8.806 10.449L3.483 15.772C2.849 16.406 2.5 17.249 2.5 18.145C2.5 19.041 2.849 19.884 3.483 20.518C4.137 21.172 4.997 21.499 5.856 21.499C6.715 21.499 7.575 21.172 8.229 20.518L13.552 15.195C13.771 14.976 14.075 14.869 14.369 14.914C15.822 15.126 17.266 14.826 18.553 14.051C19.381 13.554 20.076 12.859 20.561 12.043C21.614 10.298 21.789 8.23302 21.04 6.37702ZM19.702 11.529C19.3 12.206 18.724 12.781 18.036 13.194C16.949 13.849 15.73 14.102 14.511 13.924C13.911 13.838 13.284 14.047 12.844 14.488L7.521 19.811C6.602 20.73 5.108 20.729 4.189 19.811C3.744 19.366 3.49899 18.775 3.49899 18.145C3.49899 17.515 3.744 16.924 4.189 16.479L9.51199 11.156C9.95299 10.715 10.164 10.092 10.076 9.48902C9.899 8.26902 10.155 7.04702 10.818 5.95002L10.888 5.835C11.277 5.215 11.828 4.68 12.482 4.288C14.049 3.35 15.504 3.405 16.505 3.65L14.909 5.253C14.138 6.028 14.139 7.28802 14.912 8.06202L15.937 9.08701C16.71 9.86101 17.971 9.862 18.745 9.09L20.349 7.495C20.678 8.85 20.455 10.283 19.702 11.529ZM6.75 18C6.75 18.414 6.415 18.75 6.004 18.75C5.591 18.75 5.25 18.414 5.25 18C5.25 17.586 5.57701 17.25 5.98801 17.25H6.00301C6.41501 17.25 6.75 17.586 6.75 18Z" />
</svg>
