<svg viewBox="0 0 24 24" fill="currentColor" stroke="currentColor" xmlns="http://www.w3.org/2000/svg">
<path d="M21 5.5H17.441C16.36 5.5 16.274 5.24201 16.018 4.47501L15.815 3.868C15.543 3.05 14.78 2.5 13.918 2.5H10.08C9.21802 2.5 8.45498 3.05 8.18298 3.868L7.98102 4.47501C7.72502 5.24201 7.63898 5.5 6.55798 5.5H3C2.724 5.5 2.5 5.724 2.5 6C2.5 6.276 2.724 6.5 3 6.5H4.53198L5.31403 18.232C5.45303 20.309 6.72503 21.5 8.80603 21.5H15.193C17.274 21.5 18.547 20.309 18.685 18.232L19.467 6.5H21C21.276 6.5 21.5 6.276 21.5 6C21.5 5.724 21.276 5.5 21 5.5ZM9.13202 4.18401C9.26902 3.77501 9.64999 3.5 10.081 3.5H13.919C14.35 3.5 14.731 3.77401 14.867 4.18401L15.07 4.791C15.151 5.033 15.237 5.275 15.355 5.5H8.646C8.764 5.274 8.85003 5.033 8.93103 4.791L9.13202 4.18401ZM17.688 18.166C17.585 19.715 16.746 20.5 15.194 20.5H8.80701C7.25501 20.5 6.41599 19.715 6.31299 18.166L5.53497 6.5H6.55902C6.68302 6.5 6.78398 6.486 6.89398 6.479C6.92898 6.487 6.963 6.5 7 6.5H17C17.038 6.5 17.071 6.486 17.106 6.479C17.216 6.487 17.317 6.5 17.441 6.5H18.465L17.688 18.166ZM14.854 11.998C15.049 12.193 15.049 12.51 14.854 12.705L13.503 14.056C13.405 14.154 13.277 14.202 13.149 14.202C13.021 14.202 12.893 14.153 12.795 14.056C12.6 13.861 12.6 13.544 12.795 13.349L13.416 12.728C12.498 12.563 11.536 12.852 10.858 13.549C10.127 14.305 9.837 15.364 10.086 16.382C10.151 16.65 9.98702 16.921 9.71802 16.986C9.67802 16.995 9.638 17 9.599 17C9.374 17 9.16901 16.847 9.11401 16.618C8.78401 15.266 9.16801 13.858 10.14 12.852C10.941 12.027 12.04 11.631 13.135 11.693L12.795 11.353C12.6 11.158 12.6 10.841 12.795 10.646C12.99 10.451 13.307 10.451 13.502 10.646L14.854 11.998Z" />
</svg>
