<svg viewBox="0 0 24 24" fill="currentColor" stroke="currentColor" xmlns="http://www.w3.org/2000/svg">
<path d="M14 16.5C13.724 16.5 13.5 16.276 13.5 16V14C13.5 13.724 13.724 13.5 14 13.5C14.276 13.5 14.5 13.724 14.5 14V16C14.5 16.276 14.276 16.5 14 16.5ZM18.823 8.71099C18.551 8.68999 18.309 8.901 18.291 9.177L17.691 18.165C17.582 19.736 16.764 20.5 15.19 20.5H8.80999C8.28599 20.5 7.86299 20.418 7.51899 20.25C7.26899 20.128 6.97099 20.233 6.85099 20.48C6.72999 20.728 6.83299 21.027 7.08099 21.148C7.56499 21.384 8.13099 21.499 8.80999 21.499H15.19C17.269 21.499 18.544 20.309 18.689 18.232L19.289 9.242C19.307 8.968 19.099 8.72899 18.823 8.71099ZM21.354 3.354L18.354 6.354C18.354 6.354 18.354 6.354 18.353 6.354L10.354 14.354C10.354 14.354 10.354 14.354 10.353 14.354L3.35299 21.354C3.25499 21.452 3.12699 21.5 2.99899 21.5C2.87099 21.5 2.743 21.451 2.645 21.354C2.45 21.159 2.45 20.842 2.645 20.647L5.296 17.997L4.531 6.501H2.99999C2.72399 6.501 2.49999 6.277 2.49999 6.001C2.49999 5.725 2.72399 5.501 2.99999 5.501H6.55999C7.63499 5.501 7.72199 5.24399 7.98199 4.48199L8.186 3.873C8.449 3.054 9.211 2.501 10.08 2.501H13.92C14.789 2.501 15.551 3.054 15.816 3.878L16.014 4.473C16.278 5.244 16.365 5.501 17.44 5.501H17.793L20.647 2.647C20.842 2.452 21.159 2.452 21.354 2.647C21.549 2.842 21.549 3.158 21.354 3.354ZM8.934 4.78799C8.851 5.03199 8.76299 5.27499 8.64399 5.49999H15.355C15.238 5.27899 15.152 5.04199 15.071 4.80499L14.865 4.18899C14.732 3.77499 14.352 3.501 13.919 3.501H10.079C9.64599 3.501 9.26699 3.77499 9.13499 4.18499L8.934 4.78799ZM6.23599 17.057L9.49999 13.793V11C9.49999 10.724 9.72399 10.5 9.99999 10.5C10.276 10.5 10.5 10.724 10.5 11V12.793L16.793 6.49999H6.99999C6.96199 6.49999 6.92899 6.486 6.89399 6.479C6.78399 6.487 6.68399 6.49999 6.55999 6.49999H5.53399L6.23599 17.057Z" />
</svg>
