<svg viewBox="0 0 24 24" fill="currentColor" stroke="currentColor" xmlns="http://www.w3.org/2000/svg">
<path d="M21 5.5H17.441C16.36 5.5 16.274 5.24201 16.018 4.47501L15.815 3.868C15.543 3.05 14.78 2.5 13.918 2.5H10.08C9.21799 2.5 8.45501 3.05 8.18301 3.868L7.98099 4.47501C7.72499 5.24201 7.63901 5.5 6.55801 5.5H3C2.724 5.5 2.5 5.724 2.5 6C2.5 6.276 2.724 6.5 3 6.5H4.53201L5.314 18.232C5.453 20.309 6.725 21.5 8.806 21.5H15.193C17.274 21.5 18.547 20.309 18.685 18.232L19.467 6.5H21C21.276 6.5 21.5 6.276 21.5 6C21.5 5.724 21.276 5.5 21 5.5ZM9.13199 4.18401C9.26899 3.77501 9.64999 3.5 10.081 3.5H13.919C14.35 3.5 14.731 3.77401 14.867 4.18401L15.07 4.791C15.151 5.033 15.237 5.275 15.355 5.5H8.646C8.764 5.274 8.85 5.033 8.931 4.791L9.13199 4.18401ZM17.688 18.166C17.585 19.715 16.746 20.5 15.194 20.5H8.80701C7.25501 20.5 6.41599 19.715 6.31299 18.166L5.535 6.5H6.55899C6.68299 6.5 6.78401 6.486 6.89401 6.479C6.92901 6.487 6.963 6.5 7 6.5H17C17.038 6.5 17.071 6.486 17.106 6.479C17.216 6.487 17.317 6.5 17.441 6.5H18.465L17.688 18.166ZM15 14C15 14.276 14.776 14.5 14.5 14.5H9.5C9.224 14.5 9 14.276 9 14C9 13.724 9.224 13.5 9.5 13.5H14.5C14.776 13.5 15 13.724 15 14Z" />
</svg>
