<svg viewBox="0 0 24 24" fill="currentColor" stroke="currentColor" xmlns="http://www.w3.org/2000/svg">
<path d="M18.107 13.513L15.374 10H15.489C16.071 10 16.591 9.67498 16.847 9.15198C17.103 8.62798 17.039 8.01701 16.68 7.55701L13.191 3.08198C12.614 2.34198 11.385 2.34198 10.808 3.08198L7.32002 7.55701C6.96102 8.01701 6.89703 8.62798 7.15303 9.15198C7.40903 9.67498 7.929 10 8.511 10H8.62602L5.89201 13.514C5.45401 14.078 5.37702 14.826 5.69002 15.467C6.00202 16.104 6.637 16.501 7.347 16.501H11.499V21.001C11.499 21.277 11.723 21.501 11.999 21.501C12.275 21.501 12.499 21.277 12.499 21.001V16.501H16.651C17.361 16.501 17.996 16.105 18.308 15.467C18.623 14.826 18.545 14.078 18.107 13.513ZM8.05201 8.71302C7.96401 8.53202 7.98502 8.33 8.10902 8.172L11.598 3.69703C11.695 3.57203 11.842 3.50001 12 3.50001C12.158 3.50001 12.305 3.57203 12.402 3.69703L15.891 8.172C16.014 8.33 16.036 8.53202 15.947 8.71302C15.859 8.89302 15.688 9.00001 15.488 9.00001H8.51002C8.31202 9.00001 8.14001 8.89302 8.05201 8.71302ZM17.411 15.026C17.265 15.323 16.982 15.5 16.652 15.5H7.348C7.018 15.5 6.734 15.323 6.589 15.026C6.443 14.727 6.47802 14.391 6.68202 14.127L9.89302 10H14.106L17.317 14.126C17.522 14.391 17.558 14.727 17.411 15.026Z" />
</svg>
