<svg viewBox="0 0 24 24" fill="currentColor" stroke="currentColor" xmlns="http://www.w3.org/2000/svg">
<path d="M21.5 5.5V4.5C21.5 3.229 20.771 2.5 19.5 2.5H18.5C17.229 2.5 16.5 3.229 16.5 4.5H7.5C7.5 3.229 6.771 2.5 5.5 2.5H4.5C3.229 2.5 2.5 3.229 2.5 4.5V5.5C2.5 6.771 3.229 7.5 4.5 7.5V16.5C3.229 16.5 2.5 17.229 2.5 18.5V19.5C2.5 20.771 3.229 21.5 4.5 21.5H5.5C6.771 21.5 7.5 20.771 7.5 19.5H16.5C16.5 20.771 17.229 21.5 18.5 21.5H19.5C20.771 21.5 21.5 20.771 21.5 19.5V18.5C21.5 17.229 20.771 16.5 19.5 16.5V7.5C20.771 7.5 21.5 6.771 21.5 5.5ZM17.5 4.5C17.5 3.78 17.78 3.5 18.5 3.5H19.5C20.22 3.5 20.5 3.78 20.5 4.5V5.5C20.5 6.22 20.22 6.5 19.5 6.5H18.5C17.78 6.5 17.5 6.22 17.5 5.5V4.5ZM3.5 5.5V4.5C3.5 3.78 3.78 3.5 4.5 3.5H5.5C6.22 3.5 6.5 3.78 6.5 4.5V5.5C6.5 6.22 6.22 6.5 5.5 6.5H4.5C3.78 6.5 3.5 6.22 3.5 5.5ZM6.5 19.5C6.5 20.22 6.22 20.5 5.5 20.5H4.5C3.78 20.5 3.5 20.22 3.5 19.5V18.5C3.5 17.78 3.78 17.5 4.5 17.5H5.5C6.22 17.5 6.5 17.78 6.5 18.5V19.5ZM20.5 18.5V19.5C20.5 20.22 20.22 20.5 19.5 20.5H18.5C17.78 20.5 17.5 20.22 17.5 19.5V18.5C17.5 17.78 17.78 17.5 18.5 17.5H19.5C20.22 17.5 20.5 17.78 20.5 18.5ZM18.5 16.5C17.229 16.5 16.5 17.229 16.5 18.5H7.5C7.5 17.229 6.771 16.5 5.5 16.5V7.5C6.771 7.5 7.5 6.771 7.5 5.5H16.5C16.5 6.771 17.229 7.5 18.5 7.5V16.5Z" />
</svg>
