<svg viewBox="0 0 24 24" fill="currentColor" stroke="currentColor" xmlns="http://www.w3.org/2000/svg">
<path d="M20 8.75C21.079 8.75 21.75 8.08 21.75 7V5C21.75 3.92 21.079 3.25 20 3.25H4C2.921 3.25 2.25 3.92 2.25 5V7C2.25 8.08 2.921 8.75 4 8.75H4.25V19.25H3C2.586 19.25 2.25 19.586 2.25 20C2.25 20.414 2.586 20.75 3 20.75H9C9.414 20.75 9.75 20.414 9.75 20V15C9.75 13.759 10.76 12.75 12 12.75C13.24 12.75 14.25 13.759 14.25 15V20C14.25 20.414 14.586 20.75 15 20.75H21C21.414 20.75 21.75 20.414 21.75 20C21.75 19.586 21.414 19.25 21 19.25H19.75V8.75H20ZM3.78406 7.2229C3.78306 7.2229 3.78306 7.2229 3.78406 7.2229C3.77906 7.2149 3.75 7.156 3.75 7V5C3.75 4.844 3.77898 4.78596 3.77698 4.78296C3.78498 4.77896 3.844 4.75 4 4.75H20C20.182 4.75 20.218 4.7761 20.217 4.7771C20.221 4.7861 20.25 4.844 20.25 5V7C20.25 7.156 20.221 7.21404 20.223 7.21704C20.215 7.22104 20.156 7.25 20 7.25H19H5H4C3.849 7.25 3.78906 7.2229 3.78406 7.2229ZM18.25 19.25H15.75V15C15.75 12.932 14.067 11.25 12 11.25C9.933 11.25 8.25 12.932 8.25 15V19.25H5.75V8.75H18.25V19.25Z" />
</svg>
