<svg viewBox="0 0 24 24" fill="currentColor" stroke="currentColor" xmlns="http://www.w3.org/2000/svg">
<path d="M20.001 9.14603L16.75 8.40213V6.80814C16.75 5.75414 16.033 4.853 15.006 4.616L5.00598 2.30814C4.33398 2.15314 3.63998 2.31002 3.09998 2.74002C2.55998 3.17002 2.25 3.81101 2.25 4.50101V19.001C2.25 20.749 3.252 21.751 5 21.751H19C20.748 21.751 21.75 20.749 21.75 19.001V11.3401C21.75 10.2841 21.031 9.38103 20.001 9.14603ZM3.75 19V4.50003C3.75 4.27003 3.85396 4.05612 4.03296 3.91312C4.16796 3.80612 4.33105 3.75003 4.49805 3.75003C4.55505 3.75003 4.61197 3.75605 4.66797 3.77005L14.668 6.07791C15.011 6.15691 15.25 6.45714 15.25 6.80814V9.00003V20.25H12.25V17C12.25 15.483 11.017 14.25 9.5 14.25C7.983 14.25 6.75 15.483 6.75 17V20.25H5C4.077 20.25 3.75 19.923 3.75 19ZM10.75 20.25H8.25V17C8.25 16.311 8.811 15.75 9.5 15.75C10.189 15.75 10.75 16.311 10.75 17V20.25ZM20.25 19C20.25 19.923 19.923 20.25 19 20.25H16.75V9.94095L19.667 10.6079C20.01 10.6869 20.25 10.9871 20.25 11.3391V19ZM10.25 9.00003C10.25 8.58603 10.586 8.25003 11 8.25003H12C12.414 8.25003 12.75 8.58603 12.75 9.00003C12.75 9.41403 12.414 9.75003 12 9.75003H11C10.586 9.75003 10.25 9.41403 10.25 9.00003ZM6.25 9.00003C6.25 8.58603 6.586 8.25003 7 8.25003H8C8.414 8.25003 8.75 8.58603 8.75 9.00003C8.75 9.41403 8.414 9.75003 8 9.75003H7C6.586 9.75003 6.25 9.41403 6.25 9.00003ZM10.25 12C10.25 11.586 10.586 11.25 11 11.25H12C12.414 11.25 12.75 11.586 12.75 12C12.75 12.414 12.414 12.75 12 12.75H11C10.586 12.75 10.25 12.414 10.25 12ZM6.25 12C6.25 11.586 6.586 11.25 7 11.25H8C8.414 11.25 8.75 11.586 8.75 12C8.75 12.414 8.414 12.75 8 12.75H7C6.586 12.75 6.25 12.414 6.25 12Z" />
</svg>
