<svg viewBox="0 0 24 24" fill="currentColor" stroke="currentColor" xmlns="http://www.w3.org/2000/svg">
<path d="M21.477 9.08502L14.0649 2.98907C12.8679 2.00707 11.133 2.00607 9.93598 2.98907L2.52399 9.08404C2.20499 9.34704 2.15796 9.81907 2.42096 10.1401C2.68396 10.4611 3.15699 10.5051 3.47699 10.2431L4.24994 9.60711V18.0001C4.24994 20.4181 5.58194 21.7501 7.99994 21.7501H15.9999C18.4179 21.7501 19.7499 20.4181 19.7499 18.0001V9.60711L20.5229 10.2431C20.6629 10.3581 20.8319 10.414 20.9999 10.414C21.2159 10.414 21.4309 10.321 21.5789 10.141C21.8429 9.82005 21.796 9.34802 21.477 9.08502ZM18.2499 18.0001C18.2499 19.5771 17.5769 20.2501 15.9999 20.2501H7.99994C6.42294 20.2501 5.74994 19.5771 5.74994 18.0001V8.37408L10.889 4.14911C11.532 3.62011 12.469 3.62011 13.112 4.14911L18.2509 8.37506V18.0001H18.2499ZM12.7499 9.695C13.6649 9.89701 14.3779 10.6631 14.4859 11.6401C14.5319 12.0521 14.2349 12.4231 13.8229 12.4681C13.4229 12.5111 13.0419 12.2171 12.9959 11.8051C12.9539 11.4251 12.644 11.1391 12.275 11.1391H11.7239C11.3249 11.1391 10.999 11.474 10.999 11.887C10.999 12.057 11.0529 12.22 11.1509 12.346C11.2549 12.482 11.392 12.5731 11.55 12.6141L12.817 12.9332C13.808 13.1882 14.499 14.0841 14.499 15.1131C14.499 15.7101 14.2689 16.2731 13.8489 16.6971C13.5439 17.0081 13.163 17.215 12.749 17.306V17.4991C12.749 17.9131 12.413 18.2491 11.999 18.2491C11.585 18.2491 11.249 17.9131 11.249 17.4991V17.304C10.334 17.102 9.62088 16.3359 9.51288 15.3589C9.46688 14.9469 9.76397 14.5761 10.176 14.5311C10.577 14.4881 10.957 14.7822 11.003 15.1941C11.045 15.5742 11.3549 15.8602 11.7239 15.8602H12.275C12.464 15.8602 12.6439 15.7831 12.7809 15.6441C12.9229 15.5001 12.9999 15.3121 12.9999 15.1121C12.9999 14.7681 12.7719 14.4691 12.4479 14.3851L11.181 14.066C10.698 13.941 10.2659 13.656 9.96393 13.261C9.66493 12.878 9.49897 12.387 9.49897 11.886C9.49897 10.811 10.25 9.91308 11.249 9.69208V9.49908C11.249 9.08508 11.585 8.74908 11.999 8.74908C12.413 8.74908 12.749 9.08508 12.749 9.49908V9.695H12.7499Z" />
</svg>
