<svg viewBox="0 0 24 24" fill="currentColor" stroke="currentColor" xmlns="http://www.w3.org/2000/svg">
<path d="M20.747 8.48299L14.065 2.98994C12.868 2.00694 11.131 2.00594 9.93401 2.98994L3.25201 8.48299C2.48201 9.11599 2.11502 10.1189 2.29302 11.0999L3.7481 19.083C4.0301 20.628 5.3751 21.75 6.9461 21.75H17.0511C18.6221 21.75 19.9671 20.628 20.2491 19.083L21.704 11.0999C21.884 10.1189 21.517 9.11599 20.747 8.48299ZM20.2291 10.831L18.7741 18.8139C18.6231 19.6459 17.8981 20.25 17.0521 20.25H6.94707C6.10107 20.25 5.37703 19.6459 5.22503 18.8139L3.77007 10.832C3.68807 10.386 3.85511 9.92992 4.20611 9.64192L10.888 4.149C11.21 3.884 11.6051 3.75191 12.0001 3.75191C12.3951 3.75191 12.7901 3.88498 13.1121 4.14998L19.794 9.6429C20.144 9.9299 20.3111 10.385 20.2291 10.831ZM14.5001 12.3709V11.25C14.5001 9.87195 13.3791 8.74995 12.0001 8.74995C10.6211 8.74995 9.50005 9.87195 9.50005 11.25V12.3709C8.70705 12.6289 8.25005 13.302 8.25005 14.286V16.2149C8.25005 17.4889 9.01106 18.2509 10.2861 18.2509H13.714C14.989 18.2509 15.7501 17.4899 15.7501 16.2149V14.286C15.7501 13.302 15.2931 12.6289 14.5001 12.3709ZM12.0001 10.25C12.5521 10.25 13.0001 10.699 13.0001 11.25V12.25H11.0001V11.25C11.0001 10.699 11.4481 10.25 12.0001 10.25ZM14.2501 16.2139C14.2501 16.6539 14.155 16.75 13.714 16.75H10.2861C9.84506 16.75 9.75005 16.6549 9.75005 16.2139V14.285C9.75005 13.845 9.84506 13.749 10.2861 13.749H13.714C14.155 13.749 14.2501 13.844 14.2501 14.285V16.2139Z" />
</svg>
