<svg viewBox="0 0 24 24" fill="currentColor" stroke="currentColor" xmlns="http://www.w3.org/2000/svg">
<path d="M21.477 9.08502L14.0649 2.98907C12.8679 2.00707 11.133 2.00607 9.93598 2.98907L2.52399 9.08404C2.20499 9.34704 2.15796 9.81907 2.42096 10.1401C2.68596 10.4601 3.15799 10.5051 3.47699 10.2431L4.24994 9.60711V18.0001C4.24994 20.4181 5.58194 21.7501 7.99994 21.7501H15.9999C18.4179 21.7501 19.7499 20.4181 19.7499 18.0001V9.60711L20.5229 10.2431C20.6629 10.3581 20.8319 10.414 20.9999 10.414C21.2159 10.414 21.4309 10.321 21.5789 10.141C21.8429 9.82005 21.796 9.34802 21.477 9.08502ZM18.2499 18.0001C18.2499 19.5771 17.5769 20.2501 15.9999 20.2501H7.99994C6.42294 20.2501 5.74994 19.5771 5.74994 18.0001V8.37408L10.889 4.14911C11.532 3.62011 12.469 3.62011 13.112 4.14911L18.2509 8.37506V18.0001H18.2499ZM11.6689 8.83001C10.9069 9.21401 10.0759 9.6011 8.29291 10.1131C7.97191 10.2051 7.74994 10.499 7.74994 10.834V13.056C7.74994 15.856 9.82095 17.555 11.76 18.211C11.838 18.237 11.9189 18.251 11.9999 18.251C12.0809 18.251 12.1619 18.238 12.2399 18.211C14.1779 17.555 16.2499 15.856 16.2499 13.056V10.7761C16.2499 10.4331 16.018 10.133 15.685 10.049C13.925 9.60201 13.1029 9.21907 12.3489 8.83307C12.1359 8.72307 11.8839 8.72301 11.6689 8.83001ZM14.7499 13.056C14.7499 15.352 12.7919 16.379 11.9999 16.7C11.2079 16.379 9.24994 15.352 9.24994 13.056V11.3941C10.4589 11.0261 11.2379 10.7081 12.0049 10.3371C12.7599 10.7051 13.5539 11.0221 14.7499 11.3521V13.056Z" />
</svg>
