<svg viewBox="0 0 24 24" fill="currentColor" stroke="currentColor" xmlns="http://www.w3.org/2000/svg">
<path d="M17.053 21.75H6.94805C5.37705 21.75 4.03205 20.628 3.75005 19.083L2.2951 11.0999C2.1171 10.1189 2.48408 9.11599 3.25408 8.483L9.93609 2.98995C11.1331 2.00595 12.8701 2.00595 14.0671 2.98995L20.7491 8.483C21.5191 9.11599 21.8861 10.1189 21.7081 11.0999L20.2531 19.083C19.9691 20.628 18.624 21.75 17.053 21.75ZM12.0001 3.75094C11.6041 3.75094 11.21 3.88291 10.888 4.14791L4.20611 9.64095C3.85511 9.92895 3.68807 10.385 3.77007 10.831L5.22503 18.813C5.37603 19.645 6.10107 20.249 6.94707 20.249H17.0521C17.8981 20.249 18.6221 19.645 18.7741 18.813L20.2291 10.8299C20.3101 10.3839 20.143 9.92895 19.793 9.64095L13.111 4.14791C12.79 3.88391 12.3961 3.75094 12.0001 3.75094ZM19.513 18.948H19.523H19.513ZM14.7501 17C14.7501 16.586 14.4141 16.25 14.0001 16.25H10.0001C9.58605 16.25 9.25005 16.586 9.25005 17C9.25005 17.414 9.58605 17.75 10.0001 17.75H14.0001C14.4141 17.75 14.7501 17.414 14.7501 17Z" />
</svg>
