<svg viewBox="0 0 24 24" fill="currentColor" stroke="currentColor" xmlns="http://www.w3.org/2000/svg">
<path d="M21.477 9.08502L14.0649 2.98907C12.8679 2.00707 11.133 2.00607 9.93598 2.98907L2.52399 9.08404C2.20499 9.34704 2.15796 9.81907 2.42096 10.1401C2.68396 10.4611 3.15699 10.5051 3.47699 10.2431L4.24994 9.60711V18.0001C4.24994 20.4181 5.58194 21.7501 7.99994 21.7501H15.9999C18.4179 21.7501 19.7499 20.4181 19.7499 18.0001V9.60711L20.5229 10.2431C20.6629 10.3581 20.8319 10.414 20.9999 10.414C21.2159 10.414 21.4309 10.321 21.5789 10.141C21.8429 9.82005 21.796 9.34802 21.477 9.08502ZM18.2499 18.0001C18.2499 19.5771 17.5769 20.2501 15.9999 20.2501H7.99994C6.42294 20.2501 5.74994 19.5771 5.74994 18.0001V8.37408L10.889 4.14911C11.532 3.62011 12.469 3.62011 13.112 4.14911L18.2509 8.37506V18.0001H18.2499ZM9.49994 11.2501V12.3712C8.70694 12.6292 8.24994 13.3019 8.24994 14.2859V16.2151C8.24994 17.4891 9.01095 18.251 10.286 18.251H13.7139C14.9889 18.251 15.7499 17.4901 15.7499 16.2151V14.2859C15.7499 13.3029 15.2929 12.6292 14.4999 12.3712V11.2501C14.4999 9.87206 13.3789 8.75006 11.9999 8.75006C10.6209 8.75006 9.49994 9.87206 9.49994 11.2501ZM14.2499 16.2142C14.2499 16.6542 14.1549 16.7501 13.7139 16.7501H10.286C9.84495 16.7501 9.74994 16.6552 9.74994 16.2142V14.285C9.74994 13.845 9.84495 13.7491 10.286 13.7491H13.7139C14.1549 13.7491 14.2499 13.844 14.2499 14.285V16.2142ZM12.9999 11.2501V12.2501H10.9999V11.2501C10.9999 10.6991 11.4479 10.2501 11.9999 10.2501C12.5519 10.2501 12.9999 10.6991 12.9999 11.2501Z" />
</svg>
