<svg viewBox="0 0 24 24" fill="currentColor" stroke="currentColor" xmlns="http://www.w3.org/2000/svg">
<path d="M20.747 8.48299L14.065 2.98994C12.868 2.00694 11.131 2.00594 9.93401 2.98994L3.25201 8.48299C2.48201 9.11599 2.11502 10.1189 2.29302 11.0999L3.7481 19.083C4.0301 20.628 5.3751 21.75 6.9461 21.75H17.0511C18.6221 21.75 19.9671 20.628 20.2491 19.083L21.704 11.0999C21.884 10.1189 21.517 9.11599 20.747 8.48299ZM20.2291 10.831L18.7741 18.8139C18.6231 19.6459 17.8981 20.25 17.0521 20.25H6.94707C6.10107 20.25 5.37703 19.6459 5.22503 18.8139L3.77007 10.832C3.68807 10.386 3.85511 9.92992 4.20611 9.64192L10.888 4.149C11.21 3.884 11.6051 3.75191 12.0001 3.75191C12.3951 3.75191 12.7901 3.884 13.1121 4.149L19.794 9.64192C20.144 9.92992 20.3111 10.385 20.2291 10.831ZM14.481 14.92C14.859 14.343 15.0831 13.656 15.0831 12.916C15.0831 10.895 13.438 9.24898 11.417 9.24898C9.39504 9.24898 7.75005 10.894 7.75005 12.916C7.75005 14.938 9.39504 16.583 11.417 16.583C12.157 16.583 12.8441 16.3589 13.4201 15.9799L14.969 17.529C15.115 17.675 15.3071 17.749 15.4991 17.749C15.6911 17.749 15.8831 17.676 16.0291 17.529C16.3221 17.236 16.3221 16.761 16.0291 16.468L14.481 14.92ZM9.25005 12.9169C9.25005 11.7219 10.222 10.75 11.417 10.75C12.611 10.75 13.5831 11.7219 13.5831 12.9169C13.5831 14.1119 12.611 15.0839 11.417 15.0839C10.222 15.0829 9.25005 14.1109 9.25005 12.9169Z" />
</svg>
