<svg viewBox="0 0 24 24" fill="currentColor" stroke="currentColor" xmlns="http://www.w3.org/2000/svg">
<path d="M20.208 8.14101L14.088 3.01003C12.879 1.99503 11.121 1.99503 9.91199 3.01003L3.79199 8.14101C2.83599 8.93401 2.25 9.52804 2.25 11.65V18C2.25 20.418 3.582 21.75 6 21.75H18C20.418 21.75 21.75 20.418 21.75 18V11.65C21.75 9.52804 21.164 8.93401 20.208 8.14101ZM20.25 18C20.25 19.577 19.577 20.25 18 20.25H6C4.423 20.25 3.75 19.577 3.75 18V11.65C3.75 10.124 4.00202 9.91506 4.74902 9.29506L10.875 4.15908C11.201 3.88608 11.601 3.74904 12 3.74904C12.399 3.74904 12.799 3.88608 13.125 4.15908L19.251 9.29506C19.998 9.91506 20.25 10.124 20.25 11.65V18ZM15.952 11.444L13.9771 11.1591L13.125 9.44704C12.912 9.01704 12.48 8.75002 11.999 8.75002C11.518 8.75002 11.086 9.01706 10.873 9.44606L10.021 11.1591L8.04602 11.444C7.58002 11.511 7.20198 11.831 7.05798 12.277C6.91298 12.722 7.034 13.201 7.37 13.527L8.79395 14.9041L8.46997 16.78C8.38797 17.252 8.57794 17.721 8.96594 18.005C9.35494 18.289 9.86204 18.328 10.29 18.105L11.998 17.215L13.707 18.106C13.892 18.202 14.091 18.25 14.29 18.25C14.551 18.25 14.81 18.168 15.03 18.007C15.418 17.724 15.608 17.256 15.527 16.782L15.202 14.9041L16.626 13.527C16.963 13.201 17.083 12.722 16.938 12.277C16.796 11.831 16.418 11.511 15.952 11.444ZM14.056 13.929C13.765 14.21 13.632 14.615 13.701 15.013L13.967 16.549L12.5699 15.82C12.3909 15.726 12.196 15.6801 12.001 15.6801C11.807 15.6801 11.612 15.726 11.436 15.819L10.037 16.548L10.303 15.012C10.371 14.614 10.239 14.209 9.94897 13.929L8.82996 12.8471L10.382 12.6231C10.779 12.5661 11.1241 12.3181 11.3051 11.9571L12.004 10.5501L12.704 11.958C12.884 12.317 13.228 12.565 13.624 12.622L15.178 12.846L14.056 13.929Z" />
</svg>
