<svg viewBox="0 0 24 24" fill="currentColor" stroke="currentColor" xmlns="http://www.w3.org/2000/svg">
<path d="M20.208 8.14101L14.088 3.01003C12.879 1.99503 11.121 1.99503 9.91199 3.01003L3.79199 8.14101C2.83599 8.93401 2.25 9.52804 2.25 11.65V18C2.25 20.418 3.582 21.75 6 21.75H18C20.418 21.75 21.75 20.418 21.75 18V11.65C21.75 9.52804 21.164 8.93401 20.208 8.14101ZM20.25 18C20.25 19.577 19.577 20.25 18 20.25H6C4.423 20.25 3.75 19.577 3.75 18V11.65C3.75 10.124 4.00202 9.91506 4.74902 9.29506L10.875 4.15908C11.201 3.88608 11.601 3.74904 12 3.74904C12.399 3.74904 12.799 3.88608 13.125 4.15908L19.251 9.29506C19.998 9.91506 20.25 10.124 20.25 11.65V18ZM16.75 13.5V16C16.75 16.098 16.73 16.195 16.692 16.287C16.616 16.47 16.47 16.616 16.287 16.692C16.195 16.73 16.098 16.75 16 16.75H13.5C13.086 16.75 12.75 16.414 12.75 16C12.75 15.586 13.086 15.25 13.5 15.25H14.189L12.631 13.692L11.535 14.871C10.992 15.414 10.042 15.416 9.49597 14.871L7.46997 12.844C7.17697 12.551 7.17697 12.076 7.46997 11.783C7.76297 11.49 8.23801 11.49 8.53101 11.783L10.558 13.8101L11.6541 12.631C12.1991 12.086 13.148 12.087 13.693 12.631L15.251 14.189V13.5C15.251 13.086 15.587 12.75 16.001 12.75C16.415 12.75 16.75 13.086 16.75 13.5Z" />
</svg>
