<svg viewBox="0 0 24 24" fill="currentColor" stroke="currentColor" xmlns="http://www.w3.org/2000/svg">
<path d="M19.87 4.72512L12.869 2.39113C12.301 2.20313 11.7 2.20213 11.13 2.39113L4.13 4.72414C3.006 5.09914 2.25 6.14703 2.25 7.33303V16.666C2.25 17.852 3.006 18.8999 4.13 19.2749L11.131 21.6089C11.415 21.7029 11.707 21.751 12 21.751C12.293 21.751 12.585 21.7039 12.87 21.6089L19.87 19.2759C20.994 18.9009 21.75 17.853 21.75 16.667V7.334C21.75 6.147 20.994 5.09912 19.87 4.72512ZM4.604 6.14699L11.603 3.81398C11.733 3.77098 11.867 3.74904 11.999 3.74904C12.131 3.74904 12.266 3.77001 12.395 3.81301L19.395 6.14601C19.906 6.31601 20.249 6.79305 20.249 7.33205V9.35012L12.868 6.88991C12.3 6.70191 11.699 6.70091 11.129 6.88991L3.74902 9.35012V7.33205C3.75002 6.79405 4.094 6.31799 4.604 6.14699ZM19.396 17.853L12.397 20.1861C12.137 20.2731 11.863 20.2721 11.605 20.1861L4.60498 17.853C4.09398 17.683 3.75098 17.206 3.75098 16.667V14.3789L5.06104 13.94C5.26104 13.88 5.41198 13.7401 5.50098 13.5601C5.59098 13.3801 5.60102 13.18 5.54102 12.99C5.41102 12.61 4.97994 12.39 4.59094 12.52L3.75098 12.8001V10.9319L11.605 8.31398C11.865 8.22698 12.139 8.22798 12.397 8.31398L20.251 10.9319V12.7959L19.3409 12.489C18.9609 12.359 18.521 12.579 18.391 12.969C18.261 13.359 18.471 13.789 18.861 13.919L20.252 14.3799V16.666C20.25 17.206 19.906 17.682 19.396 17.853ZM15.03 11.2901C15.12 11.4701 15.13 11.6701 15.069 11.8601C14.939 12.2401 14.509 12.4601 14.12 12.3401L12.39 11.76C12.18 11.69 11.93 11.67 11.701 11.73C11.701 11.73 11.68 11.74 11.671 11.74C11.65 11.75 11.631 11.75 11.61 11.76L9.81006 12.3601C9.73006 12.3801 9.64995 12.3999 9.56995 12.3999C9.25095 12.3999 8.96099 12.1899 8.85999 11.8799C8.79999 11.6899 8.81002 11.4901 8.90002 11.3101C8.99102 11.1301 9.14005 10.9999 9.33105 10.9299L11.131 10.3401C11.181 10.3201 11.221 10.3101 11.271 10.2901C11.771 10.1501 12.3509 10.1601 12.8719 10.3401L14.592 10.9099H14.6021C14.7901 10.9799 14.939 11.1101 15.03 11.2901ZM7.47205 12.6001C7.47205 13.0141 7.13605 13.3501 6.72205 13.3501C6.30805 13.3501 5.97205 13.0141 5.97205 12.6001C5.97205 12.1861 6.30805 11.8501 6.72205 11.8501C7.13605 11.8501 7.47205 12.1861 7.47205 12.6001ZM17.0081 12.2571C17.0081 12.6711 16.6721 13.0071 16.2581 13.0071C15.8441 13.0071 15.5081 12.6711 15.5081 12.2571C15.5081 11.8431 15.8441 11.5071 16.2581 11.5071C16.6721 11.5071 17.0081 11.8431 17.0081 12.2571Z" />
</svg>
