<svg viewBox="0 0 24 24" fill="currentColor" stroke="currentColor" xmlns="http://www.w3.org/2000/svg">
<path d="M10.019 4.479C9.96204 4.071 10.048 3.63497 10.271 3.24097C10.651 2.61997 11.318 2.25 12.025 2.25C12.439 2.25 12.775 2.586 12.775 3C12.775 3.414 12.439 3.75 12.025 3.75C11.798 3.75 11.638 3.87995 11.564 4.00195C11.517 4.08495 11.4941 4.19312 11.5081 4.29712C11.5341 4.54012 11.71 4.71507 11.939 4.74707C12.21 4.78407 12.418 4.62303 12.493 4.45703C12.666 4.08103 13.1101 3.91591 13.4871 4.08691C13.8631 4.25891 14.029 4.70505 13.856 5.08105C13.525 5.80505 12.8079 6.25098 12.0179 6.25098C11.9239 6.25098 11.83 6.24493 11.734 6.23193C10.818 6.10493 10.115 5.384 10.019 4.479ZM19.75 19.5V20.5C19.75 21.189 19.189 21.75 18.5 21.75H5.5C4.811 21.75 4.25 21.189 4.25 20.5V19.5C4.25 18.403 4.76498 17.656 5.65698 17.377C4.90898 16.637 4.25 15.548 4.25 14C4.25 11.291 6.53197 10.2659 8.36597 9.44189C9.69397 8.84489 10.948 8.28196 11.288 7.26196C11.391 6.95596 11.677 6.74902 12 6.74902C12.323 6.74902 12.609 6.95596 12.712 7.26196C13.052 8.28196 14.306 8.84489 15.634 9.44189C17.468 10.2649 19.75 11.29 19.75 14C19.75 15.548 19.091 16.637 18.343 17.377C19.235 17.656 19.75 18.403 19.75 19.5ZM5.75 14C5.75 16.182 7.69394 17.074 8.13794 17.25H15.8621C16.2981 17.077 18.25 16.187 18.25 14C18.25 12.378 17.029 11.713 15.02 10.811C13.905 10.311 12.763 9.79795 12 8.94995C11.237 9.79795 10.096 10.311 8.97998 10.811C6.97098 11.713 5.75 12.378 5.75 14ZM18.25 19.5C18.25 18.911 18.089 18.75 17.5 18.75H6.5C5.911 18.75 5.75 18.911 5.75 19.5V20.25H18.25V19.5Z" />
</svg>
