<svg viewBox="0 0 24 24" fill="currentColor" stroke="currentColor" xmlns="http://www.w3.org/2000/svg">
<path d="M12 5.75009C9.933 5.75009 8.25 7.43209 8.25 9.50009C8.25 11.5681 9.933 13.2501 12 13.2501C14.067 13.2501 15.75 11.5681 15.75 9.50009C15.75 7.43209 14.067 5.75009 12 5.75009ZM12 11.7501C10.76 11.7501 9.75 10.7411 9.75 9.50009C9.75 8.25909 10.76 7.25009 12 7.25009C13.24 7.25009 14.25 8.25909 14.25 9.50009C14.25 10.7411 13.24 11.7501 12 11.7501ZM12.75 8.37509V9.50009C12.75 9.91409 12.414 10.2501 12 10.2501C11.586 10.2501 11.25 9.91409 11.25 9.50009V8.37509C11.25 7.96109 11.586 7.62509 12 7.62509C12.414 7.62509 12.75 7.96109 12.75 8.37509ZM22 21.2501H21.75V13.5001C21.75 12.2591 20.74 11.2501 19.5 11.2501H18.75V7.07211L19.5861 7.62606C19.7131 7.71006 19.857 7.75106 19.999 7.75106C20.242 7.75106 20.48 7.63313 20.625 7.41513C20.854 7.07013 20.7599 6.60409 20.4139 6.37509L13.248 1.62802C12.491 1.12302 11.511 1.12204 10.754 1.62704L3.58606 6.37509C3.24006 6.60409 3.146 7.06913 3.375 7.41513C3.604 7.76013 4.06894 7.85506 4.41394 7.62606L5.25 7.07211V11.2501H4.5C3.26 11.2501 2.25 12.2591 2.25 13.5001V21.2501H2C1.586 21.2501 1.25 21.5861 1.25 22.0001C1.25 22.4141 1.586 22.7501 2 22.7501H3H21H22C22.414 22.7501 22.75 22.4141 22.75 22.0001C22.75 21.5861 22.414 21.2501 22 21.2501ZM10.75 21.2501V18.0001C10.75 17.3111 11.311 16.7501 12 16.7501C12.689 16.7501 13.25 17.3111 13.25 18.0001V21.2501H10.75ZM14.75 21.2501V18.0001C14.75 16.4831 13.517 15.2501 12 15.2501C10.483 15.2501 9.25 16.4831 9.25 18.0001V21.2501H3.75V13.5001C3.75 13.0861 4.087 12.7501 4.5 12.7501H6C6.414 12.7501 6.75 12.4141 6.75 12.0001V6.07797L11.584 2.87606C11.837 2.70806 12.163 2.70704 12.418 2.87704L17.25 6.07797V12.0001C17.25 12.4141 17.586 12.7501 18 12.7501H19.5C19.913 12.7501 20.25 13.0861 20.25 13.5001V21.2501H14.75ZM7.25 15.5001C7.25 15.9141 6.914 16.2501 6.5 16.2501C6.086 16.2501 5.75 15.9141 5.75 15.5001C5.75 15.0861 6.086 14.7501 6.5 14.7501C6.914 14.7501 7.25 15.0861 7.25 15.5001ZM7.25 18.0001C7.25 18.4141 6.914 18.7501 6.5 18.7501C6.086 18.7501 5.75 18.4141 5.75 18.0001C5.75 17.5861 6.086 17.2501 6.5 17.2501C6.914 17.2501 7.25 17.5861 7.25 18.0001ZM18.25 15.5001C18.25 15.9141 17.914 16.2501 17.5 16.2501C17.086 16.2501 16.75 15.9141 16.75 15.5001C16.75 15.0861 17.086 14.7501 17.5 14.7501C17.914 14.7501 18.25 15.0861 18.25 15.5001ZM18.25 18.0001C18.25 18.4141 17.914 18.7501 17.5 18.7501C17.086 18.7501 16.75 18.4141 16.75 18.0001C16.75 17.5861 17.086 17.2501 17.5 17.2501C17.914 17.2501 18.25 17.5861 18.25 18.0001Z" />
</svg>
