<svg viewBox="0 0 24 24" fill="currentColor" stroke="currentColor" xmlns="http://www.w3.org/2000/svg">
<path d="M16 3H8C6 3 5 4 5 6V21L12 17L19 21V6C19 4 18 3 16 3ZM15.03 8.86401L11.697 12.197C11.551 12.343 11.359 12.417 11.167 12.417C10.975 12.417 10.783 12.344 10.637 12.197L8.96997 10.53C8.67697 10.238 8.67697 9.76199 8.96997 9.46899C9.26297 9.17599 9.73801 9.17599 10.031 9.46899L11.168 10.605L13.9709 7.802C14.2639 7.509 14.739 7.509 15.032 7.802C15.325 8.095 15.323 8.57101 15.03 8.86401Z" />
</svg>
