<svg viewBox="0 0 24 24" fill="currentColor" stroke="currentColor" xmlns="http://www.w3.org/2000/svg">
<path d="M21 10.501V18.501C21 18.776 20.7831 19 20.5081 19.001C18.2751 19.011 13.852 19.148 12 21C10.148 19.148 5.72494 19.011 3.49194 19.001C3.21694 19 3 18.776 3 18.501V10.501C3 10.224 3.22498 10 3.50098 10C5.39198 10.004 7.28405 10.052 9.17505 10.646C10.851 11.172 12 12.718 12 14.474C12 12.717 13.149 11.172 14.825 10.646C16.716 10.052 18.607 10.004 20.499 10C20.775 9.999 21 10.224 21 10.501ZM12 8.5C13.654 8.5 15 7.154 15 5.5C15 3.846 13.654 2.5 12 2.5C10.346 2.5 9 3.846 9 5.5C9 7.154 10.346 8.5 12 8.5Z" />
</svg>
