<svg viewBox="0 0 24 24" fill="currentColor" stroke="currentColor" xmlns="http://www.w3.org/2000/svg">
<path d="M19.9971 4.56995V18L19.99 17.986V18L17.6411 16.656C17.5471 16.603 17.49 16.503 17.49 16.396C17.49 16.396 17.49 8.50495 17.49 8.47095C17.449 5.98395 15.9439 4.501 13.4299 4.5H8.21704C8.04304 4.5 7.9911 4.34805 8.0061 4.17505C8.1311 2.73105 8.98506 2 10.5601 2H17.4199H17.427C19.137 2 19.9971 2.85995 19.9971 4.56995ZM16 8.57104V22L10 18.572L4 22V8.57104C4 6.85705 4.85704 6 6.57104 6H13.428C15.143 6 16 6.85705 16 8.57104ZM12.75 12.5C12.75 12.086 12.414 11.75 12 11.75H8C7.586 11.75 7.25 12.086 7.25 12.5C7.25 12.914 7.586 13.25 8 13.25H12C12.414 13.25 12.75 12.914 12.75 12.5Z" />
</svg>
