<svg viewBox="0 0 24 24" fill="currentColor" stroke="currentColor" xmlns="http://www.w3.org/2000/svg">
<path d="M16 3H8C6 3 5 4 5 6V21L12 17L19 21V6C19 4 18 3 16 3ZM12 6C13.186 6 14.1499 6.96402 14.1499 8.15002C14.1499 9.33602 13.185 10.3 12 10.3C10.815 10.3 9.8501 9.33602 9.8501 8.15002C9.8501 6.96402 10.814 6 12 6ZM15.5 14.5C15.5 14.776 15.276 15 15 15H9C8.724 15 8.5 14.776 8.5 14.5V14.197C8.5 12.857 9.48091 11.5 11.3579 11.5H12.6411C14.5181 11.5 15.499 12.856 15.499 14.197V14.5H15.5Z" />
</svg>
