<svg viewBox="0 0 24 24" fill="currentColor" stroke="currentColor" xmlns="http://www.w3.org/2000/svg">
<path d="M18.5 2.25H7C4.582 2.25 3.25 3.582 3.25 6V18C3.25 20.243 4.757 21.75 7 21.75H18.5C19.74 21.75 20.75 20.741 20.75 19.5V13.5V4.5C20.75 3.259 19.74 2.25 18.5 2.25ZM9 6.25H15C15.414 6.25 15.75 6.586 15.75 7C15.75 7.414 15.414 7.75 15 7.75H9C8.586 7.75 8.25 7.414 8.25 7C8.25 6.586 8.586 6.25 9 6.25ZM9 9.25H13C13.414 9.25 13.75 9.586 13.75 10C13.75 10.414 13.414 10.75 13 10.75H9C8.586 10.75 8.25 10.414 8.25 10C8.25 9.586 8.586 9.25 9 9.25ZM19.25 19.5C19.25 19.914 18.913 20.25 18.5 20.25H7C4.97 20.25 4.75 18.676 4.75 18C4.75 17.324 4.97 15.75 7 15.75H18.5C18.645 15.75 18.7851 15.733 18.9221 15.707C18.9661 15.699 19.008 15.684 19.051 15.673C19.117 15.656 19.186 15.644 19.25 15.621V19.5Z" />
</svg>
