<svg viewBox="0 0 24 24" fill="currentColor" stroke="currentColor" xmlns="http://www.w3.org/2000/svg">
<path d="M20.569 15.761C19.985 15.431 19.295 15.4401 18.72 15.7841L16.4659 17.136C16.2949 16.206 15.478 15.499 14.499 15.499H8.99902C8.32502 15.499 7.71599 15.77 7.26599 16.204C6.99999 15.782 6.53402 15.499 5.99902 15.499H3.99902C3.17202 15.499 2.49902 16.172 2.49902 16.999V20.999C2.49902 21.826 3.17202 22.499 3.99902 22.499H5.99902C6.53302 22.499 6.99999 22.2159 7.26599 21.7939C7.71599 22.2289 8.32602 22.499 8.99902 22.499H14.5959C15.6149 22.499 16.613 22.1489 17.408 21.5129L20.811 18.79C21.249 18.44 21.499 17.9171 21.499 17.3571C21.5 16.6881 21.152 16.091 20.569 15.761ZM6.5 18V20V21C6.5 21.276 6.275 21.5 6 21.5H4C3.725 21.5 3.5 21.276 3.5 21V17C3.5 16.724 3.725 16.5 4 16.5H6C6.275 16.5 6.5 16.724 6.5 17V18ZM20.187 18.01L16.7841 20.733C16.1661 21.228 15.389 21.5 14.597 21.5H9C8.173 21.5 7.5 20.827 7.5 20V18C7.5 17.173 8.173 16.5 9 16.5H14.5C15.052 16.5 15.5 16.949 15.5 17.5C15.5 18.051 15.052 18.5 14.5 18.5H11C10.724 18.5 10.5 18.724 10.5 19C10.5 19.276 10.724 19.5 11 19.5H14.5C15.272 19.5 15.944 19.06 16.277 18.417L19.234 16.6429C19.497 16.4869 19.8111 16.481 20.076 16.632C20.3421 16.782 20.5 17.054 20.5 17.359C20.5 17.613 20.386 17.851 20.187 18.01ZM12.005 6C13.245 6 14.255 4.991 14.255 3.75C14.255 2.509 13.245 1.5 12.005 1.5C10.765 1.5 9.755 2.509 9.755 3.75C9.755 4.991 10.765 6 12.005 6ZM12.005 2.5C12.694 2.5 13.255 3.061 13.255 3.75C13.255 4.439 12.694 5 12.005 5C11.316 5 10.755 4.439 10.755 3.75C10.755 3.061 11.315 2.5 12.005 2.5ZM10.001 12.5H13.999C15.27 12.5 16 11.774 16 10.509C16 9.12103 15.214 7.5 13 7.5H11C8.786 7.5 8 9.12103 8 10.509C8 11.774 8.72898 12.5 10.001 12.5ZM11 8.5H13C14.855 8.5 15 10.038 15 10.509C15 11.222 14.72 11.5 13.999 11.5H10.001C9.27998 11.5 9 11.222 9 10.509C9 9.90503 9.195 8.5 11 8.5Z" />
</svg>
