<svg viewBox="0 0 24 24" fill="currentColor" stroke="currentColor" xmlns="http://www.w3.org/2000/svg">
<path d="M10.009 10.5C12.215 10.5 14.009 8.706 14.009 6.5C14.009 4.294 12.215 2.5 10.009 2.5C7.80303 2.5 6.00903 4.294 6.00903 6.5C6.00903 8.706 7.80303 10.5 10.009 10.5ZM10.009 3.5C11.663 3.5 13.009 4.846 13.009 6.5C13.009 8.154 11.663 9.5 10.009 9.5C8.35503 9.5 7.00903 8.154 7.00903 6.5C7.00903 4.846 8.35403 3.5 10.009 3.5ZM3.5 18.02C3.5 19.735 4.271 20.5 6 20.5H10C10.276 20.5 10.5 20.724 10.5 21C10.5 21.276 10.276 21.5 10 21.5H6C3.743 21.5 2.5 20.264 2.5 18.02C2.5 15.474 3.94 12.5 8 12.5H12C12.821 12.5 13.554 12.6181 14.176 12.8521C14.435 12.9491 14.566 13.237 14.468 13.496C14.371 13.755 14.08 13.884 13.824 13.788C13.315 13.597 12.701 13.5 12 13.5H8C3.824 13.5 3.5 16.959 3.5 18.02ZM22.061 14.053L20.947 12.9399C20.664 12.6569 20.288 12.501 19.886 12.501C19.885 12.501 19.885 12.501 19.884 12.501C19.483 12.501 19.106 12.659 18.823 12.943L12.645 19.149C12.552 19.242 12.499 19.369 12.499 19.502V22.002C12.499 22.278 12.723 22.502 12.999 22.502H15.499C15.631 22.502 15.7581 22.45 15.8521 22.356L22.057 16.179C22.342 15.896 22.499 15.5189 22.499 15.1169C22.501 14.7139 22.345 14.337 22.061 14.053ZM15.2939 21.5H13.5V19.707L17.8719 15.3149L19.6851 17.1281L15.2939 21.5ZM21.353 15.468L20.394 16.423L18.578 14.606L19.533 13.647C19.627 13.552 19.753 13.5 19.886 13.5C19.887 13.5 19.887 13.5 19.887 13.5C20.021 13.5 20.146 13.552 20.241 13.646L21.355 14.76C21.45 14.854 21.501 14.98 21.501 15.114C21.501 15.248 21.447 15.374 21.353 15.468Z" />
</svg>
