<svg viewBox="0 0 24 24" fill="currentColor" stroke="currentColor" xmlns="http://www.w3.org/2000/svg">
<path d="M21.5 4.5V8C21.5 8.276 21.276 8.5 21 8.5C20.724 8.5 20.5 8.276 20.5 8V4.5C20.5 3.78 20.22 3.5 19.5 3.5H16C15.724 3.5 15.5 3.276 15.5 3C15.5 2.724 15.724 2.5 16 2.5H19.5C20.771 2.5 21.5 3.229 21.5 4.5ZM3 8.5C3.276 8.5 3.5 8.276 3.5 8V4.5C3.5 3.78 3.78 3.5 4.5 3.5H8C8.276 3.5 8.5 3.276 8.5 3C8.5 2.724 8.276 2.5 8 2.5H4.5C3.229 2.5 2.5 3.229 2.5 4.5V8C2.5 8.276 2.724 8.5 3 8.5ZM8 20.5H4.5C3.78 20.5 3.5 20.22 3.5 19.5V16C3.5 15.724 3.276 15.5 3 15.5C2.724 15.5 2.5 15.724 2.5 16V19.5C2.5 20.771 3.229 21.5 4.5 21.5H8C8.276 21.5 8.5 21.276 8.5 21C8.5 20.724 8.276 20.5 8 20.5ZM21 15.5C20.724 15.5 20.5 15.724 20.5 16V19.5C20.5 20.22 20.22 20.5 19.5 20.5H16C15.724 20.5 15.5 20.724 15.5 21C15.5 21.276 15.724 21.5 16 21.5H19.5C20.771 21.5 21.5 20.771 21.5 19.5V16C21.5 15.724 21.276 15.5 21 15.5ZM9.17297 8.33301C9.17297 6.77101 10.444 5.5 12.006 5.5C13.568 5.5 14.84 6.77101 14.84 8.33301C14.84 9.89501 13.569 11.166 12.006 11.166C10.443 11.166 9.17297 9.89601 9.17297 8.33301ZM10.173 8.33301C10.173 9.34401 10.995 10.166 12.006 10.166C13.018 10.166 13.84 9.34401 13.84 8.33301C13.84 7.32201 13.018 6.5 12.006 6.5C10.995 6.5 10.173 7.32201 10.173 8.33301ZM14.665 18.5H9.33496C7.72196 18.5 6.83301 17.617 6.83301 16.012C6.83301 14.238 7.83699 12.166 10.667 12.166H13.333C16.163 12.166 17.167 14.238 17.167 16.012C17.167 17.617 16.278 18.5 14.665 18.5ZM16.167 16.012C16.167 15.345 15.963 13.166 13.333 13.166H10.667C8.03699 13.166 7.83301 15.344 7.83301 16.012C7.83301 17.055 8.28196 17.5 9.33496 17.5H14.665C15.718 17.5 16.167 17.055 16.167 16.012Z" />
</svg>
