<svg viewBox="0 0 24 24" fill="currentColor" stroke="currentColor" xmlns="http://www.w3.org/2000/svg">
<path d="M17.625 2.5H6.375C3.84 2.5 2.5 3.84 2.5 6.375V17.625C2.5 19.983 3.673 21.292 5.875 21.465C5.916 21.476 5.956 21.49 6 21.49C6.021 21.49 6.04004 21.48 6.06104 21.478C6.16804 21.483 6.264 21.5 6.375 21.5H17.625C17.736 21.5 17.833 21.483 17.939 21.478C17.96 21.481 17.978 21.49 18 21.49C18.044 21.49 18.084 21.476 18.125 21.465C20.327 21.291 21.5 19.983 21.5 17.625V6.375C21.5 3.84 20.16 2.5 17.625 2.5ZM17.5 20.5H6.5V19.87C6.5 18.978 6.77304 16.0699 10.29 16.0699H13.71C17.227 16.0699 17.5 18.979 17.5 19.87V20.5ZM20.5 17.625C20.5 19.263 19.853 20.161 18.5 20.415V19.87C18.5 17.656 17.245 15.0699 13.71 15.0699H10.29C6.75504 15.0699 5.5 17.656 5.5 19.87V20.415C4.147 20.16 3.5 19.263 3.5 17.625V6.375C3.5 4.414 4.413 3.5 6.375 3.5H17.625C19.587 3.5 20.5 4.414 20.5 6.375V17.625ZM12.0081 6.5C10.0781 6.5 8.50806 8.07 8.50806 10C8.50806 11.93 10.0781 13.5 12.0081 13.5C13.9381 13.5 15.5081 11.93 15.5081 10C15.5081 8.07 13.9381 6.5 12.0081 6.5ZM12.0081 12.5C10.6291 12.5 9.50806 11.378 9.50806 10C9.50806 8.622 10.6291 7.5 12.0081 7.5C13.3871 7.5 14.5081 8.622 14.5081 10C14.5081 11.378 13.3871 12.5 12.0081 12.5Z" />
</svg>
