<svg viewBox="0 0 24 24" fill="currentColor" stroke="currentColor" xmlns="http://www.w3.org/2000/svg">
<path d="M10.009 10.5C12.215 10.5 14.009 8.706 14.009 6.5C14.009 4.294 12.215 2.5 10.009 2.5C7.80303 2.5 6.00903 4.294 6.00903 6.5C6.00903 8.706 7.80303 10.5 10.009 10.5ZM10.009 3.5C11.663 3.5 13.009 4.846 13.009 6.5C13.009 8.154 11.663 9.5 10.009 9.5C8.35503 9.5 7.00903 8.154 7.00903 6.5C7.00903 4.846 8.35403 3.5 10.009 3.5ZM13.493 13.149C13.45 13.421 13.184 13.607 12.921 13.563C12.655 13.521 12.354 13.5 12 13.5H8C3.824 13.5 3.5 16.959 3.5 18.02C3.5 19.735 4.271 20.5 6 20.5H11C11.276 20.5 11.5 20.724 11.5 21C11.5 21.276 11.276 21.5 11 21.5H6C3.743 21.5 2.5 20.264 2.5 18.02C2.5 15.474 3.94 12.5 8 12.5H12C12.408 12.5 12.761 12.5251 13.079 12.576C13.353 12.62 13.537 12.876 13.493 13.149ZM22.354 21.646L20.363 19.655C20.86 19.009 21.167 18.209 21.167 17.333C21.167 15.219 19.447 13.5 17.333 13.5C15.22 13.5 13.5 15.22 13.5 17.333C13.5 19.446 15.22 21.166 17.333 21.166C18.21 21.166 19.009 20.8591 19.655 20.3621L21.646 22.353C21.744 22.451 21.872 22.499 22 22.499C22.128 22.499 22.256 22.45 22.354 22.353C22.549 22.158 22.549 21.842 22.354 21.646ZM14.5 17.333C14.5 15.771 15.771 14.5 17.333 14.5C18.895 14.5 20.167 15.771 20.167 17.333C20.167 18.895 18.896 20.166 17.333 20.166C15.77 20.166 14.5 18.896 14.5 17.333Z" />
</svg>
