<svg viewBox="0 0 24 24" fill="currentColor" stroke="currentColor" xmlns="http://www.w3.org/2000/svg">
<path d="M21.354 11.646C21.549 11.841 21.549 12.158 21.354 12.353C21.256 12.451 21.128 12.499 21 12.499C20.872 12.499 20.744 12.45 20.646 12.353L19 10.707L17.354 12.353C17.256 12.451 17.128 12.499 17 12.499C16.872 12.499 16.744 12.45 16.646 12.353C16.451 12.158 16.451 11.841 16.646 11.646L18.292 10L16.646 8.354C16.451 8.159 16.451 7.84197 16.646 7.64697C16.841 7.45197 17.158 7.45197 17.353 7.64697L18.999 9.29297L20.645 7.64697C20.84 7.45197 21.1571 7.45197 21.3521 7.64697C21.5471 7.84197 21.5471 8.159 21.3521 8.354L19.7061 10L21.354 11.646ZM6.00903 6.5C6.00903 4.294 7.80303 2.5 10.009 2.5C12.215 2.5 14.009 4.294 14.009 6.5C14.009 8.706 12.215 10.5 10.009 10.5C7.80303 10.5 6.00903 8.706 6.00903 6.5ZM7.00903 6.5C7.00903 8.154 8.35503 9.5 10.009 9.5C11.663 9.5 13.009 8.154 13.009 6.5C13.009 4.846 11.663 3.5 10.009 3.5C8.35503 3.5 7.00903 4.846 7.00903 6.5ZM12 12.5H8C3.94 12.5 2.5 15.473 2.5 18.019V21C2.5 21.276 2.724 21.5 3 21.5C3.276 21.5 3.5 21.276 3.5 21V18.019C3.5 16.959 3.824 13.5 8 13.5H12C16.283 13.5 16.5 17.264 16.5 18.019V21C16.5 21.276 16.724 21.5 17 21.5C17.276 21.5 17.5 21.276 17.5 21V18.019C17.5 15.473 16.06 12.5 12 12.5Z" />
</svg>
