<svg viewBox="0 0 24 24" fill="currentColor" stroke="currentColor" xmlns="http://www.w3.org/2000/svg">
<path d="M11.009 10.5C13.215 10.5 15.009 8.706 15.009 6.5C15.009 4.294 13.215 2.5 11.009 2.5C8.80303 2.5 7.00903 4.294 7.00903 6.5C7.00903 8.706 8.80303 10.5 11.009 10.5ZM11.009 3.5C12.663 3.5 14.009 4.846 14.009 6.5C14.009 8.154 12.663 9.5 11.009 9.5C9.35503 9.5 8.00903 8.154 8.00903 6.5C8.00903 4.846 9.35403 3.5 11.009 3.5ZM16.65 14.312C16.477 14.529 16.164 14.562 15.947 14.39C15.209 13.799 14.218 13.499 13 13.499H9C4.824 13.499 4.5 16.958 4.5 18.019C4.5 19.734 5.271 20.499 7 20.499H14C14.276 20.499 14.5 20.723 14.5 20.999C14.5 21.275 14.276 21.499 14 21.499H7C4.743 21.499 3.5 20.263 3.5 18.019C3.5 15.473 4.94 12.499 9 12.499H13C14.45 12.499 15.652 12.873 16.572 13.608C16.788 13.782 16.822 14.097 16.65 14.312ZM21.5 19C21.5 19.276 21.276 19.5 21 19.5H19.5V21C19.5 21.276 19.276 21.5 19 21.5C18.724 21.5 18.5 21.276 18.5 21V19.5H17C16.724 19.5 16.5 19.276 16.5 19C16.5 18.724 16.724 18.5 17 18.5H18.5V17C18.5 16.724 18.724 16.5 19 16.5C19.276 16.5 19.5 16.724 19.5 17V18.5H21C21.276 18.5 21.5 18.724 21.5 19Z" />
</svg>
