<svg viewBox="0 0 24 24" fill="currentColor" stroke="currentColor" xmlns="http://www.w3.org/2000/svg">
<path d="M10.009 10.5C12.215 10.5 14.009 8.706 14.009 6.5C14.009 4.294 12.215 2.5 10.009 2.5C7.80303 2.5 6.00903 4.294 6.00903 6.5C6.00903 8.706 7.80303 10.5 10.009 10.5ZM10.009 3.5C11.663 3.5 13.009 4.846 13.009 6.5C13.009 8.154 11.663 9.5 10.009 9.5C8.35503 9.5 7.00903 8.154 7.00903 6.5C7.00903 4.846 8.35403 3.5 10.009 3.5ZM12 12.5H8C3.94 12.5 2.5 15.473 2.5 18.019C2.5 20.296 3.71105 21.5 6.00305 21.5H13.9969C16.2889 21.5 17.5 20.296 17.5 18.019C17.5 15.473 16.06 12.5 12 12.5ZM13.9969 20.5H6.00305C4.27205 20.5 3.5 19.735 3.5 18.019C3.5 16.959 3.824 13.5 8 13.5H12C16.283 13.5 16.5 17.264 16.5 18.019C16.5 19.735 15.7289 20.5 13.9969 20.5ZM21.354 11.674C21.549 11.8689 21.549 12.186 21.354 12.381C21.256 12.479 21.128 12.527 21 12.527C20.872 12.527 20.744 12.478 20.646 12.381L19 10.735L17.354 12.381C17.256 12.479 17.128 12.527 17 12.527C16.872 12.527 16.744 12.478 16.646 12.381C16.451 12.186 16.451 11.8689 16.646 11.674L18.292 10.028L16.646 8.38196C16.451 8.18696 16.451 7.87005 16.646 7.67505C16.841 7.48005 17.158 7.48005 17.353 7.67505L18.999 9.32104L20.645 7.67505C20.84 7.48005 21.1571 7.48005 21.3521 7.67505C21.5471 7.87005 21.5471 8.18696 21.3521 8.38196L19.7061 10.028L21.354 11.674Z" />
</svg>
