<svg viewBox="0 0 24 24" fill="currentColor" stroke="currentColor" xmlns="http://www.w3.org/2000/svg">
<path d="M16.3199 10.459C16.3969 10.194 16.6719 10.042 16.9399 10.12C17.0539 10.154 17.184 10.17 17.339 10.17C18.348 10.17 19.1689 9.34496 19.1689 8.32996C19.1689 7.49896 18.607 6.77296 17.803 6.56396C17.536 6.49496 17.3749 6.22196 17.4449 5.95496C17.5139 5.68796 17.7871 5.52405 18.0551 5.59705C19.3001 5.92005 20.1689 7.04505 20.1689 8.33105C20.1689 9.89705 18.899 11.171 17.339 11.171C17.088 11.171 16.865 11.1421 16.658 11.0811C16.395 11.0021 16.2419 10.725 16.3199 10.459ZM18.8879 12.181C18.6309 12.158 18.381 12.387 18.37 12.662C18.36 12.938 18.5761 13.1701 18.8521 13.1801C21.3081 13.2691 21.499 15.368 21.499 16.01V18C21.499 18.276 21.723 18.5 21.999 18.5C22.275 18.5 22.499 18.276 22.499 18V16.01C22.5 14.303 21.5539 12.277 18.8879 12.181ZM6.67004 11.17C6.92104 11.17 7.14395 11.141 7.35095 11.08C7.61595 11.002 7.76794 10.725 7.68994 10.459C7.61294 10.194 7.33795 10.042 7.06995 10.12C6.95595 10.154 6.82602 10.17 6.67102 10.17C5.66202 10.17 4.84094 9.34496 4.84094 8.32996C4.84094 7.49296 5.40594 6.76296 6.21594 6.55396C6.48394 6.48496 6.64395 6.21195 6.57495 5.94495C6.50595 5.67795 6.23594 5.51706 5.96594 5.58606C4.71494 5.90906 3.84094 7.03705 3.84094 8.33105C3.83994 9.89605 5.10904 11.17 6.67004 11.17ZM5.60999 12.66C5.59899 12.384 5.37199 12.156 5.08899 12.181C2.43999 12.287 1.49902 14.31 1.49902 16.01V18C1.49902 18.276 1.72302 18.5 1.99902 18.5C2.27502 18.5 2.49902 18.276 2.49902 18V16.01C2.49902 15.371 2.688 13.2781 5.13 13.1801C5.406 13.1681 5.62099 12.936 5.60999 12.66ZM8.50806 7C8.50806 5.07 10.0781 3.5 12.0081 3.5C13.9381 3.5 15.5081 5.07 15.5081 7C15.5081 8.93 13.9381 10.5 12.0081 10.5C10.0781 10.5 8.50806 8.93 8.50806 7ZM9.50806 7C9.50806 8.378 10.6291 9.5 12.0081 9.5C13.3871 9.5 14.5081 8.378 14.5081 7C14.5081 5.622 13.3871 4.5 12.0081 4.5C10.6291 4.5 9.50806 5.622 9.50806 7ZM13.777 12.389H10.222C6.57205 12.389 5.27698 15.061 5.27698 17.35V20C5.27698 20.276 5.50098 20.5 5.77698 20.5C6.05298 20.5 6.27698 20.276 6.27698 20V17.35C6.27698 16.421 6.56105 13.389 10.222 13.389H13.777C17.438 13.389 17.722 16.421 17.722 17.35V20C17.722 20.276 17.946 20.5 18.222 20.5C18.498 20.5 18.722 20.276 18.722 20V17.35C18.723 15.061 17.428 12.389 13.777 12.389Z" />
</svg>
