<svg viewBox="0 0 24 24" fill="currentColor" stroke="currentColor" xmlns="http://www.w3.org/2000/svg">
<path d="M20.882 20.8521C20.522 21.2261 20.054 21.4391 19.552 21.4821V22C19.552 22.276 19.328 22.5 19.052 22.5C18.776 22.5 18.552 22.276 18.552 22V21.479C17.567 21.375 16.767 20.588 16.656 19.554C16.626 19.279 16.825 19.0331 17.099 19.0031C17.351 18.9761 17.62 19.171 17.65 19.446C17.715 20.047 18.1959 20.5 18.7679 20.5H19.375C19.67 20.5 19.95 20.378 20.162 20.158C20.38 19.932 20.5 19.6329 20.5 19.3149C20.5 18.7699 20.147 18.2959 19.644 18.1639L18.248 17.8051C17.786 17.6831 17.3741 17.406 17.0861 17.021C16.8021 16.646 16.644 16.171 16.644 15.686C16.644 14.557 17.484 13.6359 18.553 13.5229V13C18.553 12.724 18.777 12.5 19.053 12.5C19.329 12.5 19.553 12.724 19.553 13V13.517C20.556 13.603 21.375 14.398 21.489 15.446C21.519 15.721 21.32 15.9669 21.046 15.9969C20.798 16.0279 20.525 15.829 20.495 15.554C20.43 14.953 19.949 14.5 19.377 14.5H18.77C18.15 14.5 17.645 15.0321 17.645 15.6851C17.645 15.9531 17.731 16.213 17.886 16.417C18.041 16.625 18.259 16.772 18.501 16.835L19.897 17.1949C20.842 17.4439 21.501 18.315 21.501 19.314C21.5 19.893 21.28 20.4391 20.882 20.8521ZM6.00903 6.5C6.00903 4.294 7.80303 2.5 10.009 2.5C12.215 2.5 14.009 4.294 14.009 6.5C14.009 8.706 12.215 10.5 10.009 10.5C7.80303 10.5 6.00903 8.706 6.00903 6.5ZM7.00903 6.5C7.00903 8.154 8.35503 9.5 10.009 9.5C11.663 9.5 13.009 8.154 13.009 6.5C13.009 4.846 11.663 3.5 10.009 3.5C8.35503 3.5 7.00903 4.846 7.00903 6.5ZM14 20.5H6C4.271 20.5 3.5 19.735 3.5 18.02C3.5 16.959 3.824 13.5 8 13.5H12C12.694 13.5 13.311 13.595 13.832 13.781C14.093 13.875 14.3779 13.739 14.4709 13.479C14.5639 13.219 14.429 12.933 14.168 12.84C13.539 12.615 12.81 12.501 12 12.501H8C3.94 12.501 2.5 15.475 2.5 18.021C2.5 20.265 3.743 21.501 6 21.501H14C14.276 21.501 14.5 21.277 14.5 21.001C14.5 20.725 14.276 20.5 14 20.5Z" />
</svg>
