<svg viewBox="0 0 24 24" fill="currentColor" stroke="currentColor" xmlns="http://www.w3.org/2000/svg">
<path d="M21.354 8.71497L18.021 12.048C17.923 12.146 17.795 12.194 17.667 12.194C17.539 12.194 17.411 12.145 17.313 12.048L15.646 10.381C15.451 10.186 15.451 9.86895 15.646 9.67395C15.841 9.47895 16.158 9.47895 16.353 9.67395L17.666 10.9871L20.645 8.00806C20.84 7.81306 21.1571 7.81306 21.3521 8.00806C21.5471 8.20306 21.549 8.51997 21.354 8.71497ZM6.00903 6.5C6.00903 4.294 7.80303 2.5 10.009 2.5C12.215 2.5 14.009 4.294 14.009 6.5C14.009 8.706 12.215 10.5 10.009 10.5C7.80303 10.5 6.00903 8.706 6.00903 6.5ZM7.00903 6.5C7.00903 8.154 8.35503 9.5 10.009 9.5C11.663 9.5 13.009 8.154 13.009 6.5C13.009 4.846 11.663 3.5 10.009 3.5C8.35503 3.5 7.00903 4.846 7.00903 6.5ZM17.5 18.019C17.5 20.296 16.2889 21.5 13.9969 21.5H6.00305C3.71105 21.5 2.5 20.296 2.5 18.019C2.5 15.473 3.94 12.5 8 12.5H12C16.06 12.5 17.5 15.473 17.5 18.019ZM16.5 18.019C16.5 17.265 16.283 13.5 12 13.5H8C3.824 13.5 3.5 16.958 3.5 18.019C3.5 19.735 4.27105 20.5 6.00305 20.5H13.9969C15.7289 20.5 16.5 19.735 16.5 18.019Z" />
</svg>
