<svg viewBox="0 0 24 24" fill="currentColor" stroke="currentColor" xmlns="http://www.w3.org/2000/svg">
<path d="M10.009 10.5C12.215 10.5 14.009 8.706 14.009 6.5C14.009 4.294 12.215 2.5 10.009 2.5C7.80303 2.5 6.00903 4.294 6.00903 6.5C6.00903 8.706 7.80303 10.5 10.009 10.5ZM10.009 3.5C11.663 3.5 13.009 4.846 13.009 6.5C13.009 8.154 11.663 9.5 10.009 9.5C8.35503 9.5 7.00903 8.154 7.00903 6.5C7.00903 4.846 8.35403 3.5 10.009 3.5ZM14.468 13.496C14.37 13.755 14.08 13.884 13.824 13.788C13.315 13.597 12.701 13.5 12 13.5H8C3.824 13.5 3.5 16.959 3.5 18.02C3.5 19.735 4.271 20.5 6 20.5H13C13.276 20.5 13.5 20.724 13.5 21C13.5 21.276 13.276 21.5 13 21.5H6C3.743 21.5 2.5 20.264 2.5 18.02C2.5 15.474 3.94 12.5 8 12.5H12C12.821 12.5 13.554 12.6181 14.176 12.8521C14.435 12.9491 14.565 13.237 14.468 13.496ZM21.25 17.064V15.75C21.25 14.509 20.24 13.5 19 13.5C17.76 13.5 16.75 14.509 16.75 15.75V17.064C15.952 17.245 15.5 17.846 15.5 18.786V20.715C15.5 21.85 16.151 22.501 17.286 22.501H20.714C21.849 22.501 22.5 21.85 22.5 20.715V18.786C22.5 17.846 22.048 17.245 21.25 17.064ZM19 14.5C19.689 14.5 20.25 15.061 20.25 15.75V17H17.75V15.75C17.75 15.061 18.311 14.5 19 14.5ZM21.5 20.714C21.5 21.294 21.294 21.5 20.714 21.5H17.286C16.706 21.5 16.5 21.294 16.5 20.714V18.785C16.5 18.205 16.706 17.999 17.286 17.999H20.714C21.294 17.999 21.5 18.205 21.5 18.785V20.714Z" />
</svg>
