<svg viewBox="0 0 24 24" fill="currentColor" stroke="currentColor" xmlns="http://www.w3.org/2000/svg">
<path d="M19.5 18.02C19.5 20.264 18.257 21.5 16 21.5H8.00001C7.62801 21.5 7.28497 21.466 6.98097 21.3979C6.71097 21.3379 6.54196 21.071 6.60096 20.801C6.66096 20.532 6.92601 20.363 7.19801 20.421C7.43101 20.473 7.70101 20.499 8.00001 20.499H16C17.729 20.499 18.5 19.734 18.5 18.019C18.5 17.088 18.2381 14.0141 14.8731 13.5551C14.6001 13.5171 14.407 13.2649 14.445 12.9919C14.482 12.7189 14.74 12.531 15.007 12.564C18.32 13.017 19.5 15.68 19.5 18.02ZM21.354 3.354L11.355 13.354L11.354 13.355L2.35499 22.355C2.25699 22.453 2.12899 22.501 2.00099 22.501C1.87299 22.501 1.74498 22.452 1.64698 22.355C1.45198 22.16 1.45198 21.8429 1.64698 21.6479L4.57203 18.723C4.53903 18.496 4.50099 18.272 4.50099 18.021C4.50099 15.475 5.94099 12.501 10.001 12.501H10.794L12.903 10.392C12.615 10.458 12.318 10.501 12.01 10.501C9.80402 10.501 8.01002 8.70698 8.01002 6.50098C8.01002 4.29498 9.80402 2.50098 12.01 2.50098C14.216 2.50098 16.01 4.29498 16.01 6.50098C16.01 6.80898 15.968 7.10604 15.901 7.39404L20.647 2.64795C20.842 2.45295 21.159 2.45295 21.354 2.64795C21.549 2.84295 21.549 3.158 21.354 3.354ZM12.009 9.5C13.663 9.5 15.009 8.154 15.009 6.5C15.009 4.846 13.663 3.5 12.009 3.5C10.355 3.5 9.00904 4.846 9.00904 6.5C9.00904 8.154 10.354 9.5 12.009 9.5ZM5.50501 17.788L9.78102 13.512C6.08002 13.627 5.55601 16.555 5.50501 17.788Z" />
</svg>
