<svg viewBox="0 0 24 24" fill="currentColor" stroke="currentColor" xmlns="http://www.w3.org/2000/svg">
<path d="M16.854 17.354L14.708 19.5L16.854 21.646C17.049 21.841 17.049 22.158 16.854 22.353C16.756 22.451 16.628 22.499 16.5 22.499C16.372 22.499 16.244 22.45 16.146 22.353L13.646 19.853C13.451 19.658 13.451 19.341 13.646 19.146L16.146 16.646C16.341 16.451 16.658 16.451 16.853 16.646C17.048 16.841 17.049 17.158 16.854 17.354ZM22.354 19.146L19.854 16.646C19.659 16.451 19.342 16.451 19.147 16.646C18.952 16.841 18.952 17.158 19.147 17.353L21.293 19.499L19.147 21.645C18.952 21.84 18.952 22.1571 19.147 22.3521C19.245 22.4501 19.373 22.498 19.501 22.498C19.629 22.498 19.757 22.4491 19.855 22.3521L22.355 19.8521C22.549 19.6581 22.549 19.342 22.354 19.146ZM6.00903 6.5C6.00903 4.294 7.80303 2.5 10.009 2.5C12.215 2.5 14.009 4.294 14.009 6.5C14.009 8.706 12.215 10.5 10.009 10.5C7.80303 10.5 6.00903 8.706 6.00903 6.5ZM7.00903 6.5C7.00903 8.154 8.35503 9.5 10.009 9.5C11.663 9.5 13.009 8.154 13.009 6.5C13.009 4.846 11.663 3.5 10.009 3.5C8.35503 3.5 7.00903 4.846 7.00903 6.5ZM8 13.5H12C13.218 13.5 14.209 13.8 14.947 14.391C15.164 14.563 15.477 14.53 15.65 14.313C15.822 14.097 15.788 13.783 15.572 13.61C14.652 12.874 13.45 12.501 12 12.501H8C3.94 12.501 2.5 15.475 2.5 18.021C2.5 20.265 3.743 21.501 6 21.501H11C11.276 21.501 11.5 21.277 11.5 21.001C11.5 20.725 11.276 20.501 11 20.501H6C4.271 20.501 3.5 19.736 3.5 18.021C3.5 16.959 3.824 13.5 8 13.5Z" />
</svg>
