<svg viewBox="0 0 24 24" fill="currentColor" stroke="currentColor" xmlns="http://www.w3.org/2000/svg">
<path d="M10.009 10.5C12.215 10.5 14.009 8.706 14.009 6.5C14.009 4.294 12.215 2.5 10.009 2.5C7.80303 2.5 6.00903 4.294 6.00903 6.5C6.00903 8.706 7.80303 10.5 10.009 10.5ZM10.009 3.5C11.663 3.5 13.009 4.846 13.009 6.5C13.009 8.154 11.663 9.5 10.009 9.5C8.35503 9.5 7.00903 8.154 7.00903 6.5C7.00903 4.846 8.35403 3.5 10.009 3.5ZM13.493 13.149C13.45 13.421 13.189 13.607 12.921 13.563C12.655 13.521 12.354 13.5 12 13.5H8C3.824 13.5 3.5 16.959 3.5 18.02C3.5 19.735 4.271 20.5 6 20.5H11C11.276 20.5 11.5 20.724 11.5 21C11.5 21.276 11.276 21.5 11 21.5H6C3.743 21.5 2.5 20.264 2.5 18.02C2.5 15.474 3.94 12.5 8 12.5H12C12.408 12.5 12.761 12.5251 13.079 12.576C13.353 12.62 13.537 12.876 13.493 13.149ZM21.825 14.927C21.332 14.324 20.621 14.004 19.769 14C19.765 14 19.761 14 19.757 14C18.905 14 18.345 14.418 17.999 14.833C17.653 14.418 17.093 14 16.24 14C16.236 14 16.232 14 16.228 14C15.376 14.004 14.666 14.325 14.173 14.928C13.574 15.659 13.36 16.727 13.583 17.859C14.147 20.724 17.6449 22.318 17.7939 22.385C17.8579 22.414 17.929 22.428 17.998 22.428C18.067 22.428 18.138 22.413 18.202 22.385C18.35 22.318 21.848 20.723 22.413 17.859C22.639 16.726 22.424 15.658 21.825 14.927ZM21.4351 17.666C21.0391 19.667 18.709 21.0069 18 21.3719C17.291 21.0069 14.9609 19.667 14.5649 17.666C14.4019 16.84 14.545 16.054 14.948 15.562C15.251 15.192 15.683 15.003 16.233 15.001C16.236 15.001 16.238 15.001 16.24 15.001C17.174 15.001 17.513 15.931 17.526 15.967C17.594 16.169 17.7839 16.3041 17.9969 16.3051C17.9979 16.3051 17.999 16.3051 18.001 16.3051C18.212 16.3051 18.401 16.17 18.473 15.97C18.487 15.93 18.827 15.001 19.759 15.001C19.761 15.001 19.763 15.001 19.766 15.001C20.317 15.003 20.749 15.192 21.052 15.562C21.454 16.052 21.5971 16.839 21.4351 17.666Z" />
</svg>
