<svg viewBox="0 0 24 24" fill="currentColor" stroke="currentColor" xmlns="http://www.w3.org/2000/svg">
<path d="M10.009 2.5C7.80303 2.5 6.00903 4.294 6.00903 6.5C6.00903 8.706 7.80303 10.5 10.009 10.5C12.215 10.5 14.009 8.706 14.009 6.5C14.009 4.294 12.215 2.5 10.009 2.5ZM10.009 9.5C8.35503 9.5 7.00903 8.154 7.00903 6.5C7.00903 4.846 8.35503 3.5 10.009 3.5C11.663 3.5 13.009 4.846 13.009 6.5C13.009 8.154 11.663 9.5 10.009 9.5ZM13.493 13.149C13.449 13.421 13.187 13.607 12.921 13.563C12.655 13.521 12.354 13.5 12 13.5H8C3.824 13.5 3.5 16.959 3.5 18.02C3.5 19.735 4.271 20.5 6 20.5H12C12.276 20.5 12.5 20.724 12.5 21C12.5 21.276 12.276 21.5 12 21.5H6C3.743 21.5 2.5 20.264 2.5 18.02C2.5 15.474 3.94 12.5 8 12.5H12C12.408 12.5 12.761 12.5251 13.079 12.576C13.353 12.62 13.537 12.876 13.493 13.149ZM21.9821 14.792C20.2371 14.34 19.418 13.95 18.667 13.557C18.523 13.482 18.351 13.482 18.207 13.556C17.45 13.945 16.625 14.337 14.859 14.854C14.646 14.916 14.5 15.112 14.5 15.334V17.556C14.5 20.222 16.445 21.844 18.266 22.473C18.319 22.491 18.373 22.5 18.429 22.5C18.485 22.5 18.539 22.491 18.592 22.473C20.412 21.844 22.358 20.222 22.358 17.556V15.276C22.357 15.047 22.2031 14.849 21.9821 14.792ZM21.3571 17.556C21.3571 20.095 19.181 21.171 18.428 21.467C17.675 21.171 15.499 20.096 15.499 17.556V15.7061C16.821 15.3031 17.624 14.966 18.433 14.561C19.243 14.971 20.0441 15.3001 21.3571 15.6591V17.556Z" />
</svg>
