<svg viewBox="0 0 24 24" fill="currentColor" stroke="currentColor" xmlns="http://www.w3.org/2000/svg">
<path d="M18.72 18.35C18.72 20.381 17.5941 21.5 15.5501 21.5H8.44996C7.87996 21.5 7.41005 21.423 7.01405 21.264C6.75705 21.161 6.63297 20.87 6.73597 20.614C6.83897 20.357 7.13202 20.2321 7.38502 20.3361C7.66102 20.4461 8.00898 20.5 8.44898 20.5H15.549C17.05 20.5 17.719 19.837 17.719 18.35C17.719 17.462 17.4561 14.5541 14.0761 14.3991C13.8001 14.3861 13.587 14.152 13.599 13.877C13.611 13.603 13.807 13.383 14.12 13.4C17.516 13.556 18.72 16.164 18.72 18.35ZM6.12696 18.58L2.35304 22.354C2.25504 22.452 2.12703 22.5 1.99903 22.5C1.87103 22.5 1.74303 22.451 1.64503 22.354C1.45003 22.159 1.45003 21.842 1.64503 21.647L5.29896 17.9931C5.42196 15.8191 6.68405 13.577 9.86805 13.424L11.803 11.489C9.96499 11.38 8.49903 9.86902 8.49903 8.01002C8.49903 6.07502 10.073 4.50001 12.009 4.50001C13.868 4.50001 15.38 5.96596 15.488 7.80396L18.938 4.35401C18.651 3.84101 18.1171 3.50001 17.5081 3.50001C17.0751 3.50001 16.677 3.656 16.387 3.938C16.191 4.131 15.8741 4.12796 15.6801 3.92896C15.4881 3.73096 15.492 3.41406 15.69 3.22206C16.168 2.75606 16.8131 2.50001 17.5081 2.50001C18.3871 2.50001 19.185 2.93105 19.673 3.61805L21.6441 1.64698C21.8391 1.45198 22.156 1.45198 22.351 1.64698C22.546 1.84198 22.546 2.15901 22.351 2.35401L6.12904 18.5761C6.13004 18.5771 6.12896 18.578 6.12696 18.58ZM12.9871 10.306L14.308 8.98499C14.438 8.66999 14.511 8.34304 14.511 8.00904C14.511 6.62504 13.39 5.49903 12.011 5.49903C10.627 5.49903 9.50099 6.62504 9.50099 8.00904C9.50099 9.38704 10.627 10.509 12.011 10.509C12.344 10.51 12.6721 10.437 12.9871 10.306ZM6.55201 16.741L8.65699 14.636C7.44099 15.044 6.84201 15.922 6.55201 16.741ZM18.79 8.93006H18.57C18.294 8.93006 18.07 9.15406 18.07 9.43006C18.07 9.70606 18.294 9.93006 18.57 9.93006H18.79C21.305 9.93006 21.5 12.012 21.5 12.65C21.5 13.658 21.086 14.07 20.07 14.07H19.71C19.434 14.07 19.21 14.294 19.21 14.57C19.21 14.846 19.434 15.07 19.71 15.07H20.07C21.636 15.07 22.5 14.211 22.5 12.65C22.5 10.934 21.528 8.93006 18.79 8.93006ZM5.97206 7.79005C6.00506 7.79705 6.03803 7.80006 6.07203 7.80006C6.30403 7.80006 6.51304 7.63606 6.56104 7.39906C6.61604 7.12806 6.43995 6.86507 6.16895 6.81007C5.39395 6.65407 4.82997 5.96405 4.82997 5.17005C4.82997 4.24905 5.58402 3.50001 6.51002 3.50001C6.93402 3.50001 7.33397 3.658 7.63697 3.943C7.83797 4.133 8.154 4.12298 8.344 3.92298C8.533 3.72198 8.52498 3.40595 8.32398 3.21595C7.83498 2.75395 7.19002 2.49903 6.51002 2.49903C5.03202 2.49903 3.82997 3.69696 3.82997 5.16896C3.82997 6.43795 4.73006 7.54005 5.97206 7.79005ZM3.93006 15.07H4.28102C4.55702 15.07 4.78102 14.846 4.78102 14.57C4.78102 14.294 4.55702 14.07 4.28102 14.07H3.93006C2.91406 14.07 2.50001 13.658 2.50001 12.65C2.50001 12.012 2.69497 9.93006 5.20997 9.93006H6.19996C6.47596 9.93006 6.69996 9.70606 6.69996 9.43006C6.69996 9.15406 6.47596 8.93006 6.19996 8.93006H5.20997C2.47197 8.93006 1.50001 10.934 1.50001 12.65C1.50001 14.21 2.36306 15.07 3.93006 15.07Z" />
</svg>
