<svg viewBox="0 0 24 24" fill="currentColor" stroke="currentColor" xmlns="http://www.w3.org/2000/svg">
<path d="M13.777 13.389H10.222C6.57205 13.389 5.27698 16.061 5.27698 18.35C5.27698 20.382 6.40302 21.5 8.44702 21.5H15.552C17.596 21.5 18.722 20.381 18.722 18.35C18.723 16.061 17.428 13.389 13.777 13.389ZM15.553 20.5H8.448C6.947 20.5 6.27795 19.837 6.27795 18.35C6.27795 17.421 6.56202 14.389 10.223 14.389H13.778C17.439 14.389 17.723 17.421 17.723 18.35C17.723 19.837 17.054 20.5 15.553 20.5ZM12.0081 11.512C13.9421 11.512 15.515 9.93898 15.515 8.00598C15.515 6.07198 13.9421 4.5 12.0081 4.5C10.0741 4.5 8.50195 6.07298 8.50195 8.00598C8.50195 9.93898 10.0741 11.512 12.0081 11.512ZM12.0081 5.5C13.3901 5.5 14.515 6.62498 14.515 8.00598C14.515 9.38698 13.3901 10.512 12.0081 10.512C10.6261 10.512 9.50195 9.38798 9.50195 8.00598C9.50195 6.62398 10.6261 5.5 12.0081 5.5ZM22.5 12.65C22.5 14.211 21.6369 15.0699 20.0699 15.0699H19.71C19.434 15.0699 19.21 14.8459 19.21 14.5699C19.21 14.2939 19.434 14.0699 19.71 14.0699H20.0699C21.0859 14.0699 21.5 13.658 21.5 12.65C21.5 12.012 21.305 9.93005 18.79 9.93005H17.8199C17.5439 9.93005 17.3199 9.70605 17.3199 9.43005C17.3199 9.15405 17.5439 8.93005 17.8199 8.93005H18.79C21.528 8.93005 22.5 10.934 22.5 12.65ZM15.682 3.92896C15.49 3.73096 15.494 3.41405 15.692 3.22205C16.17 2.75605 16.815 2.5 17.51 2.5C18.983 2.5 20.1801 3.69804 20.1801 5.17004C20.1801 6.43904 19.284 7.54104 18.049 7.79004C18.0159 7.79704 17.983 7.80005 17.949 7.80005C17.717 7.80005 17.508 7.63605 17.46 7.39905C17.405 7.12805 17.5811 6.86506 17.8521 6.81006C18.6221 6.65506 19.1801 5.96504 19.1801 5.17004C19.1801 4.24904 18.431 3.5 17.51 3.5C17.077 3.5 16.679 3.65599 16.389 3.93799C16.193 4.13099 15.877 4.12796 15.682 3.92896ZM2.5 12.65C2.5 13.658 2.91405 14.0699 3.93005 14.0699H4.28101C4.55701 14.0699 4.78101 14.2939 4.78101 14.5699C4.78101 14.8459 4.55701 15.0699 4.28101 15.0699H3.93005C2.36405 15.0699 1.5 14.211 1.5 12.65C1.5 10.934 2.47196 8.93005 5.20996 8.93005H6.19995C6.47595 8.93005 6.69995 9.15405 6.69995 9.43005C6.69995 9.70605 6.47595 9.93005 6.19995 9.93005H5.20996C2.69496 9.93005 2.5 12.012 2.5 12.65ZM3.82996 5.17004C3.82996 3.69804 5.03201 2.5 6.51001 2.5C7.19101 2.5 7.83497 2.75404 8.32397 3.21704C8.52397 3.40604 8.53299 3.72295 8.34399 3.92395C8.15399 4.12395 7.83796 4.13397 7.63696 3.94397C7.33396 3.65797 6.93401 3.50098 6.51001 3.50098C5.58401 3.50098 4.82996 4.25002 4.82996 5.17102C4.82996 5.96402 5.39295 6.65404 6.16895 6.81104C6.43995 6.86603 6.61504 7.12902 6.56104 7.40002C6.51304 7.63702 6.30402 7.80103 6.07202 7.80103C6.03902 7.80103 6.00605 7.79802 5.97205 7.79102C4.73005 7.54002 3.82996 6.43804 3.82996 5.17004Z" />
</svg>
