<svg viewBox="0 0 24 24" fill="currentColor" stroke="currentColor" xmlns="http://www.w3.org/2000/svg">
<path d="M9.00904 10.5C11.215 10.5 13.009 8.70601 13.009 6.50001C13.009 4.29401 11.215 2.50001 9.00904 2.50001C6.80304 2.50001 5.00904 4.29401 5.00904 6.50001C5.00904 8.70601 6.80304 10.5 9.00904 10.5ZM9.00904 3.50001C10.663 3.50001 12.009 4.84601 12.009 6.50001C12.009 8.15401 10.663 9.50001 9.00904 9.50001C7.35504 9.50001 6.00904 8.15401 6.00904 6.50001C6.00904 4.84601 7.35404 3.50001 9.00904 3.50001ZM16.5 18.02C16.5 20.264 15.257 21.5 13 21.5H6.89002C6.61402 21.5 6.39002 21.276 6.39002 21C6.39002 20.724 6.61402 20.5 6.89002 20.5H13C14.729 20.5 15.5 19.735 15.5 18.02C15.5 17.423 15.376 15.388 13.785 14.28C13.557 14.122 13.502 13.811 13.66 13.584C13.818 13.356 14.131 13.301 14.355 13.459C16.346 14.844 16.5 17.3 16.5 18.02ZM11.354 13.353L21.353 3.35304C21.548 3.15804 21.548 2.84101 21.353 2.64601C21.158 2.45101 20.841 2.45101 20.646 2.64601L18.291 5.00099C17.366 4.41999 16.101 4.34098 15.161 4.82398C14.915 4.94998 14.818 5.25196 14.945 5.49696C15.071 5.74296 15.3751 5.84002 15.6181 5.71302C16.1801 5.42402 16.941 5.45005 17.548 5.74305L10.793 12.4981H7.00001C2.94001 12.4981 1.50001 15.472 1.50001 18.018C1.50001 19.24 1.86802 20.138 2.56202 20.729L1.64601 21.645C1.45101 21.84 1.45101 22.1571 1.64601 22.3521C1.74401 22.4501 1.87201 22.4981 2.00001 22.4981C2.12801 22.4981 2.25601 22.4491 2.35401 22.3521L11.353 13.3521C11.353 13.3541 11.354 13.353 11.354 13.353ZM2.50001 18.02C2.50001 16.959 2.82401 13.5 7.00001 13.5H9.79298L3.27406 20.0191C2.76506 19.6211 2.50001 18.974 2.50001 18.02ZM19.3101 8.65296C19.4951 8.82796 19.5201 9.10606 19.3731 9.30506C19.0661 9.84106 18.6231 10.2731 18.0861 10.5551C18.0081 10.6001 17.92 10.622 17.833 10.622C17.705 10.622 17.578 10.575 17.481 10.478C17.286 10.283 17.281 9.97101 17.476 9.77601C17.512 9.74001 17.563 9.70004 17.609 9.67603C17.997 9.47403 18.304 9.17196 18.522 8.77796C18.543 8.73996 18.5681 8.70606 18.5971 8.67506C18.7871 8.47606 19.1081 8.46196 19.3101 8.65296ZM22.5 16.6801C22.5 18.4981 21.491 19.5 19.66 19.5H18.98C18.704 19.5 18.48 19.276 18.48 19C18.48 18.724 18.704 18.5 18.98 18.5H19.66C20.932 18.5 21.5 17.9391 21.5 16.6801C21.5 15.8821 21.256 13.28 18.11 13.28H16.599C16.323 13.28 16.099 13.056 16.099 12.78C16.099 12.504 16.323 12.28 16.599 12.28H18.11C21.351 12.28 22.5 14.6501 22.5 16.6801Z" />
</svg>
