<svg viewBox="0 0 24 24" fill="currentColor" stroke="currentColor" xmlns="http://www.w3.org/2000/svg">
<path d="M12.009 10.5C14.215 10.5 16.009 8.706 16.009 6.5C16.009 4.294 14.215 2.5 12.009 2.5C9.80303 2.5 8.00903 4.294 8.00903 6.5C8.00903 8.706 9.80303 10.5 12.009 10.5ZM12.009 3.5C13.663 3.5 15.009 4.846 15.009 6.5C15.009 8.154 13.663 9.5 12.009 9.5C10.355 9.5 9.00903 8.154 9.00903 6.5C9.00903 4.846 10.354 3.5 12.009 3.5ZM19.5 18.019V21C19.5 21.276 19.276 21.5 19 21.5C18.724 21.5 18.5 21.276 18.5 21V18.019C18.5 17.265 18.283 13.5 14 13.5H10C5.824 13.5 5.5 16.958 5.5 18.019V21C5.5 21.276 5.276 21.5 5 21.5C4.724 21.5 4.5 21.276 4.5 21V18.019C4.5 15.473 5.94 12.5 10 12.5H14C18.06 12.5 19.5 15.473 19.5 18.019Z" />
</svg>
