<svg viewBox="0 0 24 24" fill="currentColor" stroke="currentColor" xmlns="http://www.w3.org/2000/svg">
<path d="M10.009 10.5C12.215 10.5 14.009 8.706 14.009 6.5C14.009 4.294 12.215 2.5 10.009 2.5C7.80303 2.5 6.00903 4.294 6.00903 6.5C6.00903 8.706 7.80303 10.5 10.009 10.5ZM10.009 3.5C11.663 3.5 13.009 4.846 13.009 6.5C13.009 8.154 11.663 9.5 10.009 9.5C8.35503 9.5 7.00903 8.154 7.00903 6.5C7.00903 4.846 8.35403 3.5 10.009 3.5ZM13.493 13.149C13.45 13.421 13.188 13.607 12.921 13.563C12.655 13.521 12.354 13.5 12 13.5H8C3.824 13.5 3.5 16.959 3.5 18.02C3.5 19.735 4.271 20.5 6 20.5H11C11.276 20.5 11.5 20.724 11.5 21C11.5 21.276 11.276 21.5 11 21.5H6C3.743 21.5 2.5 20.264 2.5 18.02C2.5 15.474 3.94 12.5 8 12.5H12C12.408 12.5 12.761 12.5251 13.079 12.576C13.353 12.62 13.537 12.876 13.493 13.149ZM22.111 17.28L22.244 17.2061C22.361 17.1401 22.448 17.029 22.483 16.899C22.517 16.769 22.499 16.63 22.429 16.514L21.5129 14.976C21.3729 14.743 21.074 14.665 20.839 14.795L20.707 14.869C20.432 15.022 20.093 15.022 19.817 14.868C19.552 14.719 19.387 14.443 19.387 14.15C19.387 13.792 19.093 13.501 18.733 13.501H17.209C16.849 13.501 16.5551 13.793 16.5551 14.15C16.5551 14.443 16.39 14.719 16.124 14.868C15.851 15.023 15.511 15.023 15.235 14.869C14.931 14.697 14.535 14.803 14.354 15.103L13.59 16.385C13.5 16.535 13.475 16.711 13.52 16.88C13.564 17.047 13.6751 17.193 13.8311 17.28C14.0971 17.43 14.2619 17.705 14.2629 17.999C14.2639 18.294 14.099 18.571 13.828 18.723C13.678 18.809 13.565 18.954 13.52 19.121C13.476 19.289 13.5 19.465 13.589 19.616L14.354 20.899C14.534 21.2 14.932 21.305 15.236 21.132C15.509 20.979 15.85 20.9781 16.124 21.1331H16.125C16.39 21.2821 16.555 21.557 16.554 21.851C16.554 22.209 16.847 22.5 17.207 22.5H18.734C19.094 22.5 19.387 22.208 19.387 21.851C19.387 21.558 19.552 21.2821 19.818 21.1331C20.089 20.9781 20.429 20.978 20.707 21.132C21.013 21.304 21.409 21.2 21.588 20.899L22.355 19.6121C22.444 19.4621 22.467 19.287 22.422 19.119C22.377 18.95 22.268 18.809 22.115 18.723C22.109 18.72 22.103 18.717 22.097 18.714C21.839 18.562 21.6801 18.291 21.6801 18.002C21.6811 17.706 21.847 17.429 22.111 17.28ZM21.326 19.386L20.8879 20.121C20.3779 19.945 19.804 19.993 19.328 20.261C18.853 20.528 18.5259 20.984 18.424 21.5H17.521C17.418 20.985 17.091 20.529 16.618 20.261C16.14 19.991 15.566 19.946 15.057 20.12L14.619 19.385C15.025 19.038 15.265 18.531 15.264 17.994C15.263 17.462 15.023 16.959 14.618 16.614L15.056 15.8781C15.569 16.0531 16.14 16.0051 16.616 15.7371C17.091 15.4701 17.418 15.014 17.52 14.498H18.423C18.526 15.014 18.8531 15.4701 19.326 15.7371C19.805 16.0071 20.379 16.052 20.887 15.877L21.325 16.6121C20.92 16.9581 20.6791 17.465 20.6801 18C20.6821 18.536 20.9221 19.041 21.326 19.386ZM18.75 18C18.75 18.415 18.416 18.75 18.004 18.75C17.593 18.75 17.25 18.415 17.25 18C17.25 17.585 17.577 17.25 17.989 17.25H18.004C18.416 17.25 18.75 17.585 18.75 18Z" />
</svg>
