<svg viewBox="0 0 24 24" fill="currentColor" stroke="currentColor" xmlns="http://www.w3.org/2000/svg">
<path d="M3.49696 11.16C3.46896 11.416 3.25199 11.606 3.00099 11.606C2.98199 11.606 2.96396 11.605 2.94496 11.603C2.67096 11.573 2.47206 11.326 2.50306 11.052C2.85706 7.82 4.80696 5.03703 7.72096 3.60803C7.87496 3.53203 8.05797 3.54096 8.20497 3.63196C8.35097 3.72296 8.43995 3.88303 8.43995 4.05603V7.10596C8.43995 7.38196 8.21595 7.60596 7.93995 7.60596C7.66395 7.60596 7.43995 7.38196 7.43995 7.10596V4.90198C5.23695 6.25998 3.78296 8.54503 3.49696 11.16ZM21.0551 12.5081C20.7801 12.4761 20.5341 12.675 20.5031 12.951C20.2181 15.5651 18.7631 17.851 16.5601 19.209V17.005C16.5601 16.729 16.3361 16.505 16.0601 16.505C15.7841 16.505 15.5601 16.729 15.5601 17.005V20.0551C15.5601 20.2281 15.6491 20.388 15.7951 20.479C15.8761 20.529 15.9681 20.5551 16.0601 20.5551C16.1351 20.5551 16.21 20.538 16.281 20.504C19.194 19.074 21.1441 16.291 21.4981 13.059C21.5271 12.785 21.3291 12.5381 21.0551 12.5081ZM13.255 3.75C13.255 2.509 14.265 1.5 15.505 1.5C16.745 1.5 17.755 2.509 17.755 3.75C17.755 4.991 16.745 6 15.505 6C14.265 6 13.255 4.991 13.255 3.75ZM14.255 3.75C14.255 4.439 14.816 5 15.505 5C16.194 5 16.755 4.439 16.755 3.75C16.755 3.061 16.194 2.5 15.505 2.5C14.816 2.5 14.255 3.061 14.255 3.75ZM17.499 12.5H13.501C12.23 12.5 11.5 11.774 11.5 10.509C11.5 9.12103 12.286 7.5 14.5 7.5H16.5C18.714 7.5 19.5 9.12103 19.5 10.509C19.5 11.774 18.771 12.5 17.499 12.5ZM13.501 11.5H17.499C18.22 11.5 18.5 11.222 18.5 10.509C18.5 10.038 18.355 8.5 16.5 8.5H14.5C12.695 8.5 12.5 9.90503 12.5 10.509C12.5 11.222 12.78 11.5 13.501 11.5ZM7.50502 11.5C8.74502 11.5 9.75502 12.509 9.75502 13.75C9.75502 14.991 8.74502 16 7.50502 16C6.26502 16 5.25502 14.991 5.25502 13.75C5.25502 12.509 6.26502 11.5 7.50502 11.5ZM7.50502 12.5C6.81602 12.5 6.25502 13.061 6.25502 13.75C6.25502 14.439 6.81602 15 7.50502 15C8.19402 15 8.75502 14.439 8.75502 13.75C8.75502 13.061 8.19402 12.5 7.50502 12.5ZM11.5 20.509C11.5 21.774 10.771 22.5 9.49903 22.5H5.50099C4.22999 22.5 3.50001 21.774 3.50001 20.509C3.50001 19.121 4.28601 17.5 6.50001 17.5H8.50001C10.714 17.5 11.5 19.121 11.5 20.509ZM10.5 20.509C10.5 20.038 10.355 18.5 8.50001 18.5H6.50001C4.69501 18.5 4.50001 19.905 4.50001 20.509C4.50001 21.222 4.77999 21.5 5.50099 21.5H9.49903C10.22 21.5 10.5 21.222 10.5 20.509Z" />
</svg>
