<svg viewBox="0 0 24 24" fill="currentColor" stroke="currentColor" xmlns="http://www.w3.org/2000/svg">
<path d="M10.009 10.5C12.215 10.5 14.009 8.706 14.009 6.5C14.009 4.294 12.215 2.5 10.009 2.5C7.80303 2.5 6.00903 4.294 6.00903 6.5C6.00903 8.706 7.80303 10.5 10.009 10.5ZM10.009 3.5C11.663 3.5 13.009 4.846 13.009 6.5C13.009 8.154 11.663 9.5 10.009 9.5C8.35503 9.5 7.00903 8.154 7.00903 6.5C7.00903 4.846 8.35403 3.5 10.009 3.5ZM3.5 18.02C3.5 19.735 4.271 20.5 6 20.5H10C10.276 20.5 10.5 20.724 10.5 21C10.5 21.276 10.276 21.5 10 21.5H6C3.743 21.5 2.5 20.264 2.5 18.02C2.5 15.474 3.94 12.5 8 12.5H12C12.408 12.5 12.761 12.5251 13.079 12.576C13.352 12.62 13.537 12.876 13.493 13.149C13.45 13.421 13.185 13.607 12.921 13.563C12.655 13.521 12.354 13.5 12 13.5H8C3.824 13.5 3.5 16.959 3.5 18.02ZM22.226 17.505C21.555 16.382 20.05 14.5 17.5 14.5C14.95 14.5 13.445 16.383 12.775 17.505C12.407 18.119 12.407 18.881 12.774 19.495C13.445 20.618 14.95 22.5 17.5 22.5C20.05 22.5 21.555 20.617 22.226 19.495C22.593 18.881 22.593 18.119 22.226 17.505ZM21.3669 18.981C21.3669 18.981 21.3669 18.982 21.3669 18.981C20.8049 19.922 19.555 21.5 17.5 21.5C15.445 21.5 14.1951 19.922 13.6331 18.981C13.4551 18.684 13.455 18.3149 13.634 18.0179C14.196 17.0779 15.445 15.5 17.5 15.5C19.555 15.5 20.8049 17.078 21.3669 18.019C21.5449 18.315 21.5449 18.685 21.3669 18.981ZM18.5 18.5C18.5 19.053 18.055 19.5 17.505 19.5C16.957 19.5 16.5 19.053 16.5 18.5C16.5 17.947 16.935 17.5 17.485 17.5H17.505C18.055 17.5 18.5 17.947 18.5 18.5Z" />
</svg>
