<svg viewBox="0 0 24 24" fill="currentColor" stroke="currentColor" xmlns="http://www.w3.org/2000/svg">
<path d="M10.009 10.5C12.215 10.5 14.009 8.706 14.009 6.5C14.009 4.294 12.215 2.5 10.009 2.5C7.80303 2.5 6.00903 4.294 6.00903 6.5C6.00903 8.706 7.80303 10.5 10.009 10.5ZM10.009 3.5C11.663 3.5 13.009 4.846 13.009 6.5C13.009 8.154 11.663 9.5 10.009 9.5C8.35503 9.5 7.00903 8.154 7.00903 6.5C7.00903 4.846 8.35403 3.5 10.009 3.5ZM3.5 18.02C3.5 19.735 4.271 20.5 6 20.5H11C11.276 20.5 11.5 20.724 11.5 21C11.5 21.276 11.276 21.5 11 21.5H6C3.743 21.5 2.5 20.264 2.5 18.02C2.5 15.474 3.94 12.5 8 12.5H12C12.821 12.5 13.554 12.6181 14.176 12.8521C14.435 12.9491 14.566 13.237 14.468 13.496C14.371 13.755 14.081 13.884 13.824 13.788C13.315 13.597 12.701 13.5 12 13.5H8C3.824 13.5 3.5 16.959 3.5 18.02ZM22.455 17.144C22.345 16.798 22.051 16.551 21.688 16.499L19.7371 16.2469L18.874 14.535C18.542 13.875 17.458 13.875 17.126 14.535L16.304 16.2159L14.312 16.499C13.95 16.55 13.656 16.797 13.545 17.144C13.436 17.486 13.529 17.8531 13.79 18.1021L15.212 19.415L14.8831 21.2939C14.8191 21.6559 14.964 22.017 15.262 22.236C15.564 22.459 15.962 22.491 16.295 22.319L17.979 21.4301L19.707 22.3199C19.851 22.3929 20.005 22.4301 20.158 22.4301C20.363 22.4301 20.566 22.365 20.739 22.238C21.037 22.019 21.182 21.659 21.119 21.297L20.771 19.4771L22.209 18.103C22.471 17.853 22.564 17.486 22.455 17.144ZM20.08 18.751C19.853 18.966 19.75 19.2781 19.804 19.5861L20.163 21.429L18.4351 20.54C18.1641 20.399 17.835 20.399 17.564 20.54L15.8669 21.4659L16.197 19.585C16.25 19.278 16.146 18.966 15.921 18.751L14.579 17.4709L16.444 17.2061C16.752 17.1621 17.018 16.972 17.155 16.697L17.994 15.011L18.844 16.696C18.982 16.972 19.248 17.1621 19.556 17.2061L21.421 17.4709L20.08 18.751Z" />
</svg>
