<svg viewBox="0 0 24 24" fill="currentColor" stroke="currentColor" xmlns="http://www.w3.org/2000/svg">
<path d="M11.009 10.5C13.215 10.5 15.009 8.706 15.009 6.5C15.009 4.294 13.215 2.5 11.009 2.5C8.80303 2.5 7.00903 4.294 7.00903 6.5C7.00903 8.706 8.80303 10.5 11.009 10.5ZM11.009 3.5C12.663 3.5 14.009 4.846 14.009 6.5C14.009 8.154 12.663 9.5 11.009 9.5C9.35503 9.5 8.00903 8.154 8.00903 6.5C8.00903 4.846 9.35403 3.5 11.009 3.5ZM4.5 18.02C4.5 19.735 5.271 20.5 7 20.5H14C14.276 20.5 14.5 20.724 14.5 21C14.5 21.276 14.276 21.5 14 21.5H7C4.743 21.5 3.5 20.264 3.5 18.02C3.5 15.474 4.94 12.5 9 12.5H13C16.416 12.5 17.681 14.586 18.13 15.83C18.225 16.09 18.09 16.376 17.83 16.47C17.574 16.564 17.2829 16.43 17.1899 16.17C16.7489 14.952 15.665 13.5 13 13.5H9C4.824 13.5 4.5 16.959 4.5 18.02ZM21.5 19C21.5 19.276 21.276 19.5 21 19.5H17C16.724 19.5 16.5 19.276 16.5 19C16.5 18.724 16.724 18.5 17 18.5H21C21.276 18.5 21.5 18.724 21.5 19Z" />
</svg>
