<svg viewBox="0 0 24 24" fill="currentColor" stroke="currentColor" xmlns="http://www.w3.org/2000/svg">
<path d="M22.5 12C22.5 6.21 17.79 1.5 12 1.5C6.21 1.5 1.5 6.21 1.5 12C1.5 15.398 3.12999 18.4161 5.64099 20.3361C5.65799 20.3541 5.67995 20.365 5.69995 20.38C7.45695 21.705 9.635 22.5 12 22.5C14.365 22.5 16.543 21.705 18.3 20.38C18.32 20.365 18.342 20.3541 18.359 20.3361C20.87 18.4161 22.5 15.398 22.5 12ZM6.50305 19.734C6.53205 18.719 6.93204 16.0699 10.29 16.0699H13.71C17.068 16.0699 17.4679 18.718 17.4969 19.734C15.9429 20.842 14.049 21.5 12 21.5C9.951 21.5 8.05605 20.841 6.50305 19.734ZM18.429 18.974C18.124 17.014 16.775 15.0699 13.71 15.0699H10.29C7.22504 15.0699 5.87604 17.014 5.57104 18.974C3.68805 17.237 2.5 14.758 2.5 12C2.5 6.762 6.762 2.5 12 2.5C17.238 2.5 21.5 6.762 21.5 12C21.5 14.758 20.312 17.237 18.429 18.974ZM12.0081 6.5C10.0781 6.5 8.50806 8.07 8.50806 10C8.50806 11.93 10.0781 13.5 12.0081 13.5C13.9381 13.5 15.5081 11.93 15.5081 10C15.5081 8.07 13.9381 6.5 12.0081 6.5ZM12.0081 12.5C10.6291 12.5 9.50806 11.378 9.50806 10C9.50806 8.622 10.6291 7.5 12.0081 7.5C13.3871 7.5 14.5081 8.622 14.5081 10C14.5081 11.378 13.3871 12.5 12.0081 12.5Z" />
</svg>
