<svg viewBox="0 0 24 24" fill="currentColor" stroke="currentColor" xmlns="http://www.w3.org/2000/svg">
<path d="M10.009 10.5C12.215 10.5 14.009 8.706 14.009 6.5C14.009 4.294 12.215 2.5 10.009 2.5C7.80303 2.5 6.00903 4.294 6.00903 6.5C6.00903 8.706 7.80303 10.5 10.009 10.5ZM10.009 3.5C11.663 3.5 13.009 4.846 13.009 6.5C13.009 8.154 11.663 9.5 10.009 9.5C8.35503 9.5 7.00903 8.154 7.00903 6.5C7.00903 4.846 8.35403 3.5 10.009 3.5ZM13.493 13.149C13.45 13.421 13.185 13.607 12.921 13.563C12.655 13.521 12.354 13.5 12 13.5H8C3.824 13.5 3.5 16.959 3.5 18.02C3.5 19.735 4.271 20.5 6 20.5H11C11.276 20.5 11.5 20.724 11.5 21C11.5 21.276 11.276 21.5 11 21.5H6C3.743 21.5 2.5 20.264 2.5 18.02C2.5 15.474 3.94 12.5 8 12.5H12C12.408 12.5 12.761 12.5251 13.079 12.576C13.353 12.62 13.537 12.876 13.493 13.149ZM18 13.5C15.519 13.5 13.5 15.519 13.5 18C13.5 20.481 15.519 22.5 18 22.5C20.481 22.5 22.5 20.481 22.5 18C22.5 15.519 20.481 13.5 18 13.5ZM18 14.5C18.785 14.5 19.502 14.769 20.087 15.207L15.207 20.0861C14.769 19.5021 14.5 18.784 14.5 18C14.5 16.07 16.07 14.5 18 14.5ZM18 21.5C17.215 21.5 16.498 21.231 15.913 20.793L20.793 15.9139C21.231 16.4979 21.5 17.216 21.5 18C21.5 19.93 19.93 21.5 18 21.5Z" />
</svg>
