<svg viewBox="0 0 24 24" fill="currentColor" stroke="currentColor" xmlns="http://www.w3.org/2000/svg">
<path d="M21.354 8.68701L18.021 12.02C17.923 12.118 17.795 12.166 17.667 12.166C17.539 12.166 17.411 12.117 17.313 12.02L15.646 10.353C15.451 10.158 15.451 9.841 15.646 9.646C15.841 9.451 16.158 9.451 16.353 9.646L17.666 10.959L20.645 7.97998C20.84 7.78498 21.1571 7.78498 21.3521 7.97998C21.5471 8.17498 21.549 8.49201 21.354 8.68701ZM6.00903 6.5C6.00903 4.294 7.80303 2.5 10.009 2.5C12.215 2.5 14.009 4.294 14.009 6.5C14.009 8.706 12.215 10.5 10.009 10.5C7.80303 10.5 6.00903 8.706 6.00903 6.5ZM7.00903 6.5C7.00903 8.154 8.35503 9.5 10.009 9.5C11.663 9.5 13.009 8.154 13.009 6.5C13.009 4.846 11.663 3.5 10.009 3.5C8.35503 3.5 7.00903 4.846 7.00903 6.5ZM12 12.5H8C3.94 12.5 2.5 15.473 2.5 18.019V21C2.5 21.276 2.724 21.5 3 21.5C3.276 21.5 3.5 21.276 3.5 21V18.019C3.5 16.959 3.824 13.5 8 13.5H12C16.283 13.5 16.5 17.264 16.5 18.019V21C16.5 21.276 16.724 21.5 17 21.5C17.276 21.5 17.5 21.276 17.5 21V18.019C17.5 15.473 16.06 12.5 12 12.5Z" />
</svg>
