<svg viewBox="0 0 24 24" fill="currentColor" stroke="currentColor" xmlns="http://www.w3.org/2000/svg">
<path d="M9.00903 10.5C11.215 10.5 13.009 8.706 13.009 6.5C13.009 4.294 11.215 2.5 9.00903 2.5C6.80303 2.5 5.00903 4.294 5.00903 6.5C5.00903 8.706 6.80303 10.5 9.00903 10.5ZM9.00903 3.5C10.663 3.5 12.009 4.846 12.009 6.5C12.009 8.154 10.663 9.5 9.00903 9.5C7.35503 9.5 6.00903 8.154 6.00903 6.5C6.00903 4.846 7.35403 3.5 9.00903 3.5ZM11 12.5H7C2.94 12.5 1.5 15.473 1.5 18.019C1.5 20.296 2.71105 21.5 5.00305 21.5H12.9969C15.2889 21.5 16.5 20.296 16.5 18.019C16.5 15.473 15.06 12.5 11 12.5ZM12.9969 20.5H5.00305C3.27205 20.5 2.5 19.735 2.5 18.019C2.5 16.959 2.824 13.5 7 13.5H11C15.283 13.5 15.5 17.264 15.5 18.019C15.5 19.735 14.7289 20.5 12.9969 20.5ZM14.33 10.038C14.133 9.84496 14.129 9.52805 14.322 9.33105C14.514 9.13405 14.8331 9.13 15.0291 9.323C15.4351 9.721 15.979 9.93994 16.559 9.93994C17.784 9.93994 18.78 8.94397 18.78 7.71997C18.78 6.49597 17.784 5.5 16.559 5.5C16.211 5.5 15.895 5.57197 15.618 5.71497C15.374 5.84097 15.0709 5.74502 14.9449 5.49902C14.8179 5.25302 14.915 4.95205 15.161 4.82605C15.581 4.61005 16.052 4.50098 16.559 4.50098C18.335 4.50098 19.78 5.94595 19.78 7.72095C19.78 9.49595 18.336 10.941 16.559 10.941C15.716 10.94 14.924 10.62 14.33 10.038ZM22.5 16.6801C22.5 18.4981 21.491 19.5 19.66 19.5H18.98C18.704 19.5 18.48 19.276 18.48 19C18.48 18.724 18.704 18.5 18.98 18.5H19.66C20.932 18.5 21.5 17.9391 21.5 16.6801C21.5 15.8821 21.256 13.28 18.11 13.28H16.599C16.323 13.28 16.099 13.056 16.099 12.78C16.099 12.504 16.323 12.28 16.599 12.28H18.11C21.351 12.28 22.5 14.6501 22.5 16.6801Z" />
</svg>
