<svg viewBox="0 0 24 24" fill="currentColor" stroke="currentColor" xmlns="http://www.w3.org/2000/svg">
<path d="M17.667 1.5H6.33301C3.82501 1.5 2.5 2.82601 2.5 5.33301V15.333C2.5 17.841 3.82501 19.166 6.33301 19.166H7.83301C8.19801 19.166 8.54797 19.3411 8.76697 19.6331L10.267 21.6331C10.68 22.1841 11.312 22.5 12 22.5C12.688 22.5 13.32 22.1841 13.733 21.6331L15.2321 19.6331C15.4521 19.3411 15.801 19.166 16.167 19.166H17.667C20.175 19.166 21.5 17.841 21.5 15.333V5.33301C21.5 2.82601 20.175 1.5 17.667 1.5ZM20.5 15.333C20.5 17.266 19.6 18.166 17.667 18.166H16.167C15.489 18.166 14.841 18.49 14.433 19.033L12.933 21.033C12.49 21.626 11.511 21.626 11.068 21.033L9.56702 19.033C9.16002 18.491 8.51098 18.166 7.83398 18.166H6.33398C4.40098 18.166 3.50098 17.266 3.50098 15.333V5.33301C3.50098 3.40001 4.40098 2.5 6.33398 2.5H17.668C19.601 2.5 20.501 3.40001 20.501 5.33301V15.333H20.5ZM12 9.5C13.24 9.5 14.25 8.491 14.25 7.25C14.25 6.009 13.24 5 12 5C10.76 5 9.75 6.009 9.75 7.25C9.75 8.491 10.76 9.5 12 9.5ZM12 6C12.689 6 13.25 6.561 13.25 7.25C13.25 7.939 12.689 8.5 12 8.5C11.311 8.5 10.75 7.939 10.75 7.25C10.75 6.561 11.311 6 12 6ZM12.995 11H10.995C8.781 11 7.995 12.621 7.995 14.009C7.995 15.274 8.72395 16 9.99695 16H13.994C15.265 16 15.995 15.274 15.995 14.009C15.995 12.621 15.209 11 12.995 11ZM13.994 15H9.99695C9.27595 15 8.995 14.722 8.995 14.009C8.995 13.405 9.19 12 10.995 12H12.995C14.85 12 14.995 13.538 14.995 14.009C14.995 14.722 14.715 15 13.994 15Z" />
</svg>
