<svg viewBox="0 0 24 24" fill="currentColor" stroke="currentColor" xmlns="http://www.w3.org/2000/svg">
<path d="M10.009 10.5C12.215 10.5 14.009 8.706 14.009 6.5C14.009 4.294 12.215 2.5 10.009 2.5C7.80303 2.5 6.00903 4.294 6.00903 6.5C6.00903 8.706 7.80303 10.5 10.009 10.5ZM10.009 3.5C11.663 3.5 13.009 4.846 13.009 6.5C13.009 8.154 11.663 9.5 10.009 9.5C8.35503 9.5 7.00903 8.154 7.00903 6.5C7.00903 4.846 8.35403 3.5 10.009 3.5ZM12 12.5H8C3.94 12.5 2.5 15.473 2.5 18.019C2.5 20.296 3.71105 21.5 6.00305 21.5H13.9969C16.2889 21.5 17.5 20.296 17.5 18.019C17.5 15.473 16.06 12.5 12 12.5ZM13.9969 20.5H6.00305C4.27205 20.5 3.5 19.735 3.5 18.019C3.5 16.959 3.824 13.5 8 13.5H12C16.283 13.5 16.5 17.264 16.5 18.019C16.5 19.735 15.7289 20.5 13.9969 20.5ZM21.5 10.028C21.5 10.304 21.276 10.528 21 10.528H19V12.528C19 12.804 18.776 13.028 18.5 13.028C18.224 13.028 18 12.804 18 12.528V10.528H16C15.724 10.528 15.5 10.304 15.5 10.028C15.5 9.75195 15.724 9.52795 16 9.52795H18V7.52795C18 7.25195 18.224 7.02795 18.5 7.02795C18.776 7.02795 19 7.25195 19 7.52795V9.52795H21C21.276 9.52795 21.5 9.75095 21.5 10.028Z" />
</svg>
