<svg viewBox="0 0 24 24" fill="currentColor" stroke="currentColor" xmlns="http://www.w3.org/2000/svg">
<path d="M11.009 10.5C13.215 10.5 15.009 8.706 15.009 6.5C15.009 4.294 13.215 2.5 11.009 2.5C8.80303 2.5 7.00903 4.294 7.00903 6.5C7.00903 8.706 8.80303 10.5 11.009 10.5ZM11.009 3.5C12.663 3.5 14.009 4.846 14.009 6.5C14.009 8.154 12.663 9.5 11.009 9.5C9.35503 9.5 8.00903 8.154 8.00903 6.5C8.00903 4.846 9.35403 3.5 11.009 3.5ZM4.5 18.02C4.5 19.735 5.271 20.5 7 20.5H14C14.276 20.5 14.5 20.724 14.5 21C14.5 21.276 14.276 21.5 14 21.5H7C4.743 21.5 3.5 20.264 3.5 18.02C3.5 15.474 4.94 12.5 9 12.5H13C15.602 12.5 16.9271 13.712 17.5811 14.729C17.7301 14.961 17.663 15.271 17.431 15.42C17.198 15.569 16.889 15.502 16.74 15.27C15.985 14.095 14.727 13.499 13.001 13.499H9.00098C4.82398 13.5 4.5 16.959 4.5 18.02ZM20.354 20.646C20.549 20.841 20.549 21.158 20.354 21.353C20.256 21.451 20.128 21.499 20 21.499C19.872 21.499 19.744 21.45 19.646 21.353L18.5 20.207L17.354 21.353C17.256 21.451 17.128 21.499 17 21.499C16.872 21.499 16.744 21.45 16.646 21.353C16.451 21.158 16.451 20.841 16.646 20.646L17.792 19.5L16.646 18.354C16.451 18.159 16.451 17.842 16.646 17.647C16.841 17.452 17.158 17.452 17.353 17.647L18.499 18.793L19.645 17.647C19.84 17.452 20.1571 17.452 20.3521 17.647C20.5471 17.842 20.5471 18.159 20.3521 18.354L19.2061 19.5L20.354 20.646Z" />
</svg>
