<svg viewBox="0 0 24 24" fill="currentColor" stroke="currentColor" xmlns="http://www.w3.org/2000/svg">
<path d="M21.5 10C21.5 10.276 21.276 10.5 21 10.5H19V12.5C19 12.776 18.776 13 18.5 13C18.224 13 18 12.776 18 12.5V10.5H16C15.724 10.5 15.5 10.276 15.5 10C15.5 9.724 15.724 9.5 16 9.5H18V7.5C18 7.224 18.224 7 18.5 7C18.776 7 19 7.224 19 7.5V9.5H21C21.276 9.5 21.5 9.724 21.5 10ZM6.00903 6.5C6.00903 4.294 7.80303 2.5 10.009 2.5C12.215 2.5 14.009 4.294 14.009 6.5C14.009 8.706 12.215 10.5 10.009 10.5C7.80303 10.5 6.00903 8.706 6.00903 6.5ZM7.00903 6.5C7.00903 8.154 8.35503 9.5 10.009 9.5C11.663 9.5 13.009 8.154 13.009 6.5C13.009 4.846 11.663 3.5 10.009 3.5C8.35503 3.5 7.00903 4.846 7.00903 6.5ZM12 12.5H8C3.94 12.5 2.5 15.473 2.5 18.019V21C2.5 21.276 2.724 21.5 3 21.5C3.276 21.5 3.5 21.276 3.5 21V18.019C3.5 16.959 3.824 13.5 8 13.5H12C16.283 13.5 16.5 17.264 16.5 18.019V21C16.5 21.276 16.724 21.5 17 21.5C17.276 21.5 17.5 21.276 17.5 21V18.019C17.5 15.473 16.06 12.5 12 12.5Z" />
</svg>
