<svg viewBox="0 0 24 24" fill="currentColor" stroke="currentColor" xmlns="http://www.w3.org/2000/svg">
<path d="M21.5 10.028C21.5 10.304 21.276 10.528 21 10.528H16C15.724 10.528 15.5 10.304 15.5 10.028C15.5 9.75195 15.724 9.52795 16 9.52795H21C21.276 9.52795 21.5 9.75095 21.5 10.028ZM6.00903 6.5C6.00903 4.294 7.80303 2.5 10.009 2.5C12.215 2.5 14.009 4.294 14.009 6.5C14.009 8.706 12.215 10.5 10.009 10.5C7.80303 10.5 6.00903 8.706 6.00903 6.5ZM7.00903 6.5C7.00903 8.154 8.35503 9.5 10.009 9.5C11.663 9.5 13.009 8.154 13.009 6.5C13.009 4.846 11.663 3.5 10.009 3.5C8.35503 3.5 7.00903 4.846 7.00903 6.5ZM17.5 18.019C17.5 20.296 16.2889 21.5 13.9969 21.5H6.00305C3.71105 21.5 2.5 20.296 2.5 18.019C2.5 15.473 3.94 12.5 8 12.5H12C16.06 12.5 17.5 15.473 17.5 18.019ZM16.5 18.019C16.5 17.265 16.283 13.5 12 13.5H8C3.824 13.5 3.5 16.958 3.5 18.019C3.5 19.735 4.27105 20.5 6.00305 20.5H13.9969C15.7289 20.5 16.5 19.735 16.5 18.019Z" />
</svg>
