<svg viewBox="0 0 24 24" fill="currentColor" stroke="currentColor" xmlns="http://www.w3.org/2000/svg">
<path d="M12 22.75C6.07 22.75 1.25 17.93 1.25 12C1.25 6.07 6.07 1.25 12 1.25C17.93 1.25 22.75 6.07 22.75 12C22.75 17.93 17.93 22.75 12 22.75ZM12 2.75C6.9 2.75 2.75 6.9 2.75 12C2.75 17.1 6.9 21.25 12 21.25C17.1 21.25 21.25 17.1 21.25 12C21.25 6.9 17.1 2.75 12 2.75ZM10.25 10C10.25 8.99 9.72 8.25 9 8.25C8.28 8.25 7.75 8.99 7.75 10C7.75 11.01 8.28 11.75 9 11.75C9.72 11.75 10.25 11.01 10.25 10ZM16.6 15.45C16.85 15.12 16.79 14.65 16.46 14.4C16.13 14.15 15.66 14.21 15.41 14.54C14.59 15.62 13.35 16.24 12.01 16.24C10.67 16.24 9.42 15.6 8.62 14.54C8.37 14.21 7.90001 14.14 7.57001 14.39C7.24001 14.64 7.17001 15.11 7.42001 15.44C8.50001 16.88 10.22 17.74 12.01 17.74C13.8 17.74 15.5 16.9 16.61 15.44L16.6 15.45ZM16.25 11.06C16.64 10.93 16.85 10.5 16.71 10.11C16.46 9.38 15.77 8.89 15 8.89C14.23 8.89 13.54 9.38 13.29 10.11C13.16 10.5 13.36 10.93 13.75 11.06C14.14 11.2 14.57 10.99 14.7 10.6C14.73 10.5 14.84 10.39 14.99 10.39C15.14 10.39 15.25 10.5 15.28 10.59C15.39 10.9 15.68 11.1 15.99 11.1C16.07 11.1 16.15 11.09 16.23 11.06H16.25Z" />
</svg>
