<svg viewBox="0 0 24 24" fill="currentColor" stroke="currentColor" xmlns="http://www.w3.org/2000/svg">
<path d="M12 1.25C6.07 1.25 1.25 6.07 1.25 12C1.25 17.93 6.07 22.75 12 22.75C17.93 22.75 22.75 17.93 22.75 12C22.75 6.07 17.93 1.25 12 1.25ZM12 21.25C6.9 21.25 2.75 17.1 2.75 12C2.75 6.9 6.9 2.75 12 2.75C17.1 2.75 21.25 6.9 21.25 12C21.25 17.1 17.1 21.25 12 21.25ZM17.75 11C17.75 12.01 17.22 12.75 16.5 12.75C15.78 12.75 15.25 12.01 15.25 11C15.25 10.91 15.25 10.83 15.27 10.75H14C13.59 10.75 13.25 10.41 13.25 10C13.25 9.59 13.59 9.25 14 9.25H16.5C17.22 9.25 17.75 9.99 17.75 11ZM8.26999 10.75H7C6.59 10.75 6.25 10.41 6.25 10C6.25 9.59 6.59 9.25 7 9.25H9.5C10.22 9.25 10.75 9.99 10.75 11C10.75 12.01 10.22 12.75 9.5 12.75C8.78 12.75 8.25 12.01 8.25 11C8.25 10.91 8.24999 10.83 8.26999 10.75ZM15.43 15.4C15.76 15.65 15.83 16.12 15.58 16.45C15.33 16.78 14.86 16.85 14.53 16.6C13.05 15.48 10.9 15.49 9.42999 16.6C9.28999 16.7 9.14001 16.75 8.98001 16.75C8.75001 16.75 8.53 16.65 8.38 16.45C8.13 16.12 8.2 15.65 8.53 15.4C10.52 13.9 13.42 13.89 15.43 15.4Z" />
</svg>
