<svg viewBox="0 0 24 24" fill="currentColor" stroke="currentColor" xmlns="http://www.w3.org/2000/svg">
<path d="M13.75 12.21C13.36 12.07 13.15 11.65 13.29 11.26C13.6 10.36 14.45 9.75 15.41 9.75C16.37 9.75 17.22 10.35 17.53 11.26C17.66 11.65 17.46 12.08 17.07 12.21C16.99 12.24 16.91 12.25 16.82 12.25C16.51 12.25 16.22 12.06 16.11 11.74C16.01 11.45 15.72 11.25 15.41 11.25C15.1 11.25 14.81 11.45 14.71 11.74C14.58 12.13 14.15 12.34 13.76 12.2L13.75 12.21ZM10.7 11.26C10.39 10.36 9.54002 9.75 8.58002 9.75C7.62002 9.75 6.77002 10.35 6.46002 11.26C6.33002 11.65 6.52998 12.08 6.91998 12.21C7.31998 12.35 7.74 12.14 7.87 11.75C7.97 11.46 8.26001 11.26 8.57001 11.26C8.88001 11.26 9.17002 11.46 9.27002 11.75C9.38002 12.06 9.66998 12.26 9.97998 12.26C10.06 12.26 10.14 12.25 10.23 12.22C10.62 12.08 10.83 11.66 10.69 11.27L10.7 11.26ZM9.73999 16.5C9.73999 15.26 10.75 14.25 11.99 14.25C13.23 14.25 14.24 15.26 14.24 16.5C14.24 17.74 13.23 18.75 11.99 18.75C10.75 18.75 9.73999 17.74 9.73999 16.5ZM11.24 16.5C11.24 16.91 11.58 17.25 11.99 17.25C12.4 17.25 12.74 16.91 12.74 16.5C12.74 16.09 12.4 15.75 11.99 15.75C11.58 15.75 11.24 16.09 11.24 16.5ZM21.54 8.99001C21.14 9.09001 20.89 9.48999 20.99 9.89999C21.16 10.57 21.24 11.27 21.24 12C21.24 17.1 17.09 21.25 11.99 21.25C6.88999 21.25 2.73999 17.1 2.73999 12C2.73999 6.9 6.88999 2.75 11.99 2.75C12.9 2.75 13.81 2.87999 14.67 3.14999C15.07 3.26999 15.49 3.04999 15.61 2.64999C15.73 2.24999 15.51 1.83001 15.11 1.71001C14.1 1.40001 13.05 1.25 11.99 1.25C6.05999 1.25 1.23999 6.07 1.23999 12C1.23999 17.93 6.05999 22.75 11.99 22.75C17.92 22.75 22.74 17.93 22.74 12C22.74 11.15 22.64 10.33 22.45 9.53999C22.35 9.13999 21.94 8.89001 21.54 8.99001ZM19.19 2.75H20.18L18.66 4.27C18.45 4.48 18.38 4.81 18.5 5.09C18.62 5.37 18.89 5.55 19.19 5.55H21.99C22.4 5.55 22.74 5.21 22.74 4.8C22.74 4.39 22.4 4.05 21.99 4.05H21L22.52 2.53C22.73 2.32 22.8 1.99001 22.68 1.71001C22.56 1.43001 22.29 1.25 21.99 1.25H19.19C18.78 1.25 18.44 1.59 18.44 2C18.44 2.41 18.78 2.75 19.19 2.75ZM14.24 5.27C14.24 5.68 14.58 6.02 14.99 6.02H15.51L14.46 7.07001C14.25 7.28001 14.18 7.61 14.3 7.89C14.42 8.17 14.69 8.35001 14.99 8.35001H17.32C17.73 8.35001 18.07 8.01001 18.07 7.60001C18.07 7.19001 17.73 6.85001 17.32 6.85001H16.8L17.85 5.8C18.06 5.59 18.13 5.26 18.01 4.98C17.89 4.7 17.62 4.52 17.32 4.52H14.99C14.58 4.52 14.24 4.86 14.24 5.27Z" />
</svg>
