<svg viewBox="0 0 24 24" fill="currentColor" stroke="currentColor" xmlns="http://www.w3.org/2000/svg">
<path d="M12 22.75C6.07 22.75 1.25 17.93 1.25 12C1.25 6.07 6.07 1.25 12 1.25C17.93 1.25 22.75 6.07 22.75 12C22.75 17.93 17.93 22.75 12 22.75ZM12 2.75C6.9 2.75 2.75 6.9 2.75 12C2.75 17.1 6.9 21.25 12 21.25C17.1 21.25 21.25 17.1 21.25 12C21.25 6.9 17.1 2.75 12 2.75ZM16.23 10C16.23 8.99 15.7 8.25 14.98 8.25C14.26 8.25 13.73 8.99 13.73 10C13.73 11.01 14.26 11.75 14.98 11.75C15.7 11.75 16.23 11.01 16.23 10ZM10.23 10C10.23 8.99 9.7 8.25 8.98 8.25C8.26 8.25 7.73 8.99 7.73 10C7.73 11.01 8.26 11.75 8.98 11.75C9.7 11.75 10.23 11.01 10.23 10Z" />
</svg>
