<svg viewBox="0 0 24 24" fill="currentColor" stroke="currentColor" xmlns="http://www.w3.org/2000/svg">
<path d="M12.02 1.25C6.09002 1.25 1.27002 6.07 1.27002 12C1.27002 17.93 6.09002 22.75 12.02 22.75C17.95 22.75 22.77 17.93 22.77 12C22.77 6.07 17.95 1.25 12.02 1.25ZM12.02 21.25C6.92002 21.25 2.77002 17.1 2.77002 12C2.77002 6.9 6.92002 2.75 12.02 2.75C17.12 2.75 21.27 6.9 21.27 12C21.27 17.1 17.12 21.25 12.02 21.25ZM12 13.25C10.48 13.25 9.25 14.48 9.25 16C9.25 17.52 10.48 18.75 12 18.75C13.52 18.75 14.75 17.52 14.75 16C14.75 14.48 13.52 13.25 12 13.25ZM12 17.25C11.31 17.25 10.75 16.69 10.75 16C10.75 15.31 11.31 14.75 12 14.75C12.69 14.75 13.25 15.31 13.25 16C13.25 16.69 12.69 17.25 12 17.25ZM16.53 9.53L16.06 10L16.53 10.47C16.82 10.76 16.82 11.24 16.53 11.53C16.38 11.68 16.19 11.75 16 11.75C15.81 11.75 15.62 11.68 15.47 11.53L15 11.06L14.53 11.53C14.38 11.68 14.19 11.75 14 11.75C13.81 11.75 13.62 11.68 13.47 11.53C13.18 11.24 13.18 10.76 13.47 10.47L13.94 10L13.47 9.53C13.18 9.24 13.18 8.76 13.47 8.47C13.76 8.18 14.24 8.18 14.53 8.47L15 8.94L15.47 8.47C15.76 8.18 16.24 8.18 16.53 8.47C16.82 8.76 16.82 9.24 16.53 9.53ZM9 11.06L8.53003 11.53C8.38003 11.68 8.19 11.75 8 11.75C7.81 11.75 7.61997 11.68 7.46997 11.53C7.17997 11.24 7.17997 10.76 7.46997 10.47L7.94 10L7.46997 9.53C7.17997 9.24 7.17997 8.76 7.46997 8.47C7.75997 8.18 8.24003 8.18 8.53003 8.47L9 8.94L9.46997 8.47C9.75997 8.18 10.24 8.18 10.53 8.47C10.82 8.76 10.82 9.24 10.53 9.53L10.06 10L10.53 10.47C10.82 10.76 10.82 11.24 10.53 11.53C10.38 11.68 10.19 11.75 10 11.75C9.81 11.75 9.61997 11.68 9.46997 11.53L9 11.06Z" />
</svg>
