<svg viewBox="0 0 24 24" fill="currentColor" stroke="currentColor" xmlns="http://www.w3.org/2000/svg">
<path d="M12 1.25C6.07 1.25 1.25 6.07 1.25 12C1.25 17.93 6.07 22.75 12 22.75C17.93 22.75 22.75 17.93 22.75 12C22.75 6.07 17.93 1.25 12 1.25ZM12 21.25C6.9 21.25 2.75 17.1 2.75 12C2.75 6.9 6.9 2.75 12 2.75C17.1 2.75 21.25 6.9 21.25 12C21.25 17.1 17.1 21.25 12 21.25ZM13.75 10C13.75 8.99 14.28 8.25 15 8.25C15.72 8.25 16.25 8.99 16.25 10C16.25 11.01 15.72 11.75 15 11.75C14.28 11.75 13.75 11.01 13.75 10ZM7.75 10C7.75 8.99 8.28 8.25 9 8.25C9.72 8.25 10.25 8.99 10.25 10C10.25 11.01 9.72 11.75 9 11.75C8.28 11.75 7.75 11.01 7.75 10ZM16.6 16.55C16.85 16.88 16.78 17.35 16.45 17.6C16.32 17.7 16.16 17.75 16 17.75C15.77 17.75 15.55 17.65 15.4 17.45C14.77 16.62 13.87 16.05 12.86 15.85C12.45 15.77 12.19 15.38 12.27 14.97C12.35 14.56 12.75 14.3 13.15 14.38C14.53 14.65 15.76 15.42 16.61 16.56L16.6 16.55ZM8.46001 12.98C8.19001 13.26 6.85 14.74 6.85 16.04C6.85 17.27 7.79 18.24 9 18.24C10.21 18.24 11.15 17.27 11.15 16.04C11.15 14.73 9.80999 13.26 9.53999 12.98C9.25999 12.68 8.74 12.68 8.45 12.98H8.46001ZM9 16.75C8.62 16.75 8.35001 16.46 8.35001 16.05C8.35001 15.71 8.65 15.16 9 14.68C9.35 15.16 9.64999 15.7 9.64999 16.05C9.64999 16.46 9.38 16.75 9 16.75Z" />
</svg>
