<svg viewBox="0 0 24 24" fill="currentColor" stroke="currentColor" xmlns="http://www.w3.org/2000/svg">
<path d="M12 22.75C6.07 22.75 1.25 17.93 1.25 12C1.25 6.07 6.07 1.25 12 1.25C17.93 1.25 22.75 6.07 22.75 12C22.75 17.93 17.93 22.75 12 22.75ZM12 2.75C6.9 2.75 2.75 6.9 2.75 12C2.75 17.1 6.9 21.25 12 21.25C17.1 21.25 21.25 17.1 21.25 12C21.25 6.9 17.1 2.75 12 2.75ZM15.75 16C15.75 15.59 15.41 15.25 15 15.25H9C8.59 15.25 8.25 15.59 8.25 16C8.25 16.41 8.59 16.75 9 16.75H15C15.41 16.75 15.75 16.41 15.75 16ZM16.75 10C16.75 9.59 16.41 9.25 16 9.25H14C13.59 9.25 13.25 9.59 13.25 10C13.25 10.41 13.59 10.75 14 10.75H16C16.41 10.75 16.75 10.41 16.75 10ZM10.75 10C10.75 9.59 10.41 9.25 10 9.25H8C7.59 9.25 7.25 9.59 7.25 10C7.25 10.41 7.59 10.75 8 10.75H10C10.41 10.75 10.75 10.41 10.75 10Z" />
</svg>
