<svg viewBox="0 0 24 24" fill="currentColor" stroke="currentColor" xmlns="http://www.w3.org/2000/svg">
<path d="M16.45 13.4C16.78 13.65 16.84 14.12 16.59 14.45C16.34 14.78 16.05 15.08 15.74 15.35V18C15.74 18.41 15.4 18.75 14.99 18.75C14.58 18.75 14.24 18.41 14.24 18V16.28C14.08 16.35 13.91 16.41 13.74 16.47V17C13.74 17.41 13.4 17.75 12.99 17.75C12.58 17.75 12.24 17.41 12.24 17V16.74C12.16 16.74 12.07 16.75 11.99 16.75C10.2 16.75 8.48002 15.89 7.40002 14.45C7.15002 14.12 7.21999 13.65 7.54999 13.4C7.88999 13.15 8.34998 13.22 8.59998 13.55C9.39998 14.61 10.67 15.25 11.99 15.25C13.31 15.25 14.57 14.63 15.39 13.55C15.64 13.22 16.11 13.16 16.44 13.41L16.45 13.4ZM22.75 12C22.75 17.93 17.93 22.75 12 22.75C6.07 22.75 1.25 17.93 1.25 12C1.25 6.07 6.07 1.25 12 1.25C17.93 1.25 22.75 6.07 22.75 12ZM21.25 12C21.25 6.9 17.1 2.75 12 2.75C6.9 2.75 2.75 6.9 2.75 12C2.75 17.1 6.9 21.25 12 21.25C17.1 21.25 21.25 17.1 21.25 12ZM15.41 8.25C14.45 8.25 13.6 8.84999 13.29 9.75999C13.16 10.15 13.36 10.58 13.75 10.71C14.14 10.85 14.57 10.64 14.7 10.25C14.8 9.96 15.09 9.75999 15.4 9.75999C15.71 9.75999 16 9.96 16.1 10.25C16.21 10.56 16.5 10.76 16.81 10.76C16.89 10.76 16.97 10.75 17.06 10.72C17.45 10.58 17.66 10.16 17.52 9.77C17.21 8.87 16.36 8.25999 15.4 8.25999L15.41 8.25ZM7.89001 10.24C7.99001 9.95001 8.28003 9.75 8.59003 9.75C8.90003 9.75 9.18998 9.95001 9.28998 10.24C9.39998 10.55 9.69 10.75 10 10.75C10.08 10.75 10.16 10.74 10.25 10.71C10.64 10.57 10.85 10.15 10.71 9.75999C10.4 8.85999 9.55003 8.25 8.59003 8.25C7.63003 8.25 6.77997 8.84999 6.46997 9.75999C6.33997 10.15 6.53999 10.58 6.92999 10.71C7.31999 10.85 7.75 10.64 7.88 10.25L7.89001 10.24Z" />
</svg>
