<svg viewBox="0 0 24 24" fill="currentColor" stroke="currentColor" xmlns="http://www.w3.org/2000/svg">
<path d="M12 1.25C6.07 1.25 1.25 6.07 1.25 12C1.25 17.93 6.07 22.75 12 22.75C17.93 22.75 22.75 17.93 22.75 12C22.75 6.07 17.93 1.25 12 1.25ZM12 21.25C6.9 21.25 2.75 17.1 2.75 12C2.75 6.9 6.9 2.75 12 2.75C17.1 2.75 21.25 6.9 21.25 12C21.25 17.1 17.1 21.25 12 21.25ZM9 12.75C8.28 12.75 7.75 12.01 7.75 11C7.75 10.73 7.78999 10.49 7.85999 10.27L6.67001 9.67C6.30001 9.48 6.14999 9.03 6.32999 8.66C6.51999 8.29 6.97 8.14001 7.34 8.32001L9.23999 9.27C9.38999 9.3 9.52001 9.38 9.64001 9.47L10.84 10.07C11.21 10.26 11.36 10.71 11.18 11.08C11.05 11.34 10.78 11.49 10.51 11.49C10.41 11.49 10.32 11.46 10.22 11.42C10.09 12.2 9.62001 12.74 9.01001 12.74L9 12.75ZM14.6 15.55C14.85 15.88 14.78 16.35 14.45 16.6C14.31 16.7 14.16 16.75 14 16.75C13.77 16.75 13.55 16.65 13.4 16.45C12.73 15.57 11.28 15.56 10.6 16.45C10.35 16.78 9.87999 16.84 9.54999 16.59C9.21999 16.34 9.16 15.87 9.41 15.54C10.04 14.72 10.98 14.24 12.01 14.24C13.04 14.24 13.99 14.73 14.6 15.54V15.55ZM17.67 8.67C17.86 9.04 17.71 9.48999 17.33 9.67999L16.14 10.28C16.21 10.5 16.25 10.75 16.25 11.01C16.25 12.02 15.72 12.76 15 12.76C14.38 12.76 13.92 12.23 13.79 11.44C13.7 11.48 13.6 11.51 13.5 11.51C13.22 11.51 12.96 11.36 12.83 11.1C12.64 10.73 12.79 10.28 13.17 10.09L14.37 9.49001C14.49 9.40001 14.62 9.32999 14.77 9.28999L16.67 8.34C17.04 8.15 17.49 8.30999 17.68 8.67999L17.67 8.67Z" />
</svg>
