<svg viewBox="0 0 24 24" fill="currentColor" stroke="currentColor" xmlns="http://www.w3.org/2000/svg">
<path d="M9.72998 12.25C9.56998 12.25 9.39998 12.21 9.24998 12.13L8.44998 11.71L7.64998 12.13C7.29998 12.31 6.87998 12.28 6.55998 12.05C6.23998 11.82 6.07998 11.43 6.14998 11.04L6.29999 10.15L5.62999 9.5C5.34999 9.23 5.24998 8.83001 5.36998 8.46001C5.48998 8.09001 5.79999 7.83 6.18999 7.77L7.12999 7.63L7.52998 6.82001C7.87998 6.11001 9.02999 6.11001 9.37999 6.82001L9.77998 7.63L10.72 7.77C11.11 7.83 11.42 8.09001 11.54 8.46001C11.66 8.83001 11.56 9.23 11.28 9.5L10.61 10.15L10.76 11.04C10.83 11.43 10.67 11.82 10.35 12.05C10.17 12.18 9.95999 12.25 9.73999 12.25H9.72998ZM7.36998 9.11L7.51999 9.25C7.75999 9.48 7.86998 9.81999 7.80998 10.15L7.76999 10.36L7.95999 10.26C8.24999 10.11 8.60998 10.11 8.89998 10.26L9.08998 10.36L9.04999 10.15C8.98999 9.81999 9.09998 9.48 9.33998 9.25L9.48999 9.11L9.27998 9.08C8.94998 9.03 8.66999 8.83 8.51999 8.53L8.41998 8.33L8.31999 8.52C8.16999 8.82 7.87998 9.03001 7.55998 9.07001L7.34999 9.10001L7.36998 9.11ZM16.96 12.25C16.8 12.25 16.63 12.21 16.48 12.13L15.68 11.71L14.88 12.13C14.53 12.31 14.11 12.28 13.79 12.05C13.47 11.82 13.31 11.43 13.38 11.04L13.53 10.16L12.86 9.50999C12.58 9.23999 12.48 8.84 12.6 8.47C12.72 8.1 13.03 7.84 13.42 7.78L14.36 7.64L14.76 6.83C15.11 6.12 16.26 6.12 16.61 6.83L17.01 7.64L17.95 7.78C18.34 7.84 18.65 8.1 18.77 8.47C18.89 8.84 18.79 9.23999 18.51 9.50999L17.84 10.16L17.99 11.05C18.06 11.44 17.9 11.83 17.58 12.06C17.4 12.19 17.19 12.26 16.97 12.26L16.96 12.25ZM14.6 9.11L14.75 9.25999C14.99 9.48999 15.1 9.83 15.04 10.16L15 10.37L15.19 10.27C15.48 10.12 15.84 10.12 16.13 10.27L16.32 10.37L16.28 10.16C16.22 9.83 16.33 9.48999 16.58 9.25999L16.72 9.12L16.51 9.09C16.18 9.04 15.9 8.83999 15.75 8.53999L15.65 8.34L15.55 8.53C15.4 8.83 15.11 9.04 14.79 9.08L14.58 9.11H14.6ZM11.99 22.75C6.05999 22.75 1.23999 17.93 1.23999 12C1.23999 6.07 6.05999 1.25 11.99 1.25C17.92 1.25 22.74 6.07 22.74 12C22.74 17.93 17.92 22.75 11.99 22.75ZM11.99 2.75C6.88999 2.75 2.73999 6.9 2.73999 12C2.73999 17.1 6.88999 21.25 11.99 21.25C17.09 21.25 21.24 17.1 21.24 12C21.24 6.9 17.09 2.75 11.99 2.75ZM12.05 18.75C9.77999 18.75 7.83999 17.21 7.32999 15C7.22999 14.56 7.37998 14.1 7.72998 13.8C8.09998 13.49 8.60998 13.4 9.05998 13.58C11.07 14.39 13.03 14.39 15.05 13.58C15.5 13.4 16.01 13.48 16.38 13.8C16.73 14.1 16.88 14.56 16.78 15C16.27 17.21 14.33 18.75 12.06 18.75H12.05ZM8.93999 15.14C9.42999 16.4 10.65 17.25 12.05 17.25C13.45 17.25 14.67 16.4 15.16 15.14C13.09 15.86 11 15.86 8.93999 15.14Z" />
</svg>
