<svg viewBox="0 0 24 24" fill="currentColor" stroke="currentColor" xmlns="http://www.w3.org/2000/svg">
<path d="M16.71 10.04C16.84 10.43 16.64 10.86 16.25 10.99C15.86 11.12 15.43 10.92 15.3 10.53C15.18 10.17 14.55 10.17 14.42 10.53C14.31 10.84 14.02 11.04 13.71 11.04C13.63 11.04 13.55 11.03 13.47 11C13.08 10.87 12.87 10.44 13 10.05C13.27 9.25999 14.02 8.73001 14.86 8.73001C15.7 8.73001 16.44 9.25999 16.72 10.05L16.71 10.04ZM8.71001 10.53C8.83001 10.17 9.46 10.17 9.59 10.53C9.7 10.84 9.99 11.04 10.3 11.04C10.38 11.04 10.46 11.03 10.54 11C10.93 10.87 11.14 10.44 11.01 10.05C10.74 9.25999 9.98999 8.73001 9.14999 8.73001C8.30999 8.73001 7.56999 9.25999 7.28999 10.05C7.15999 10.44 7.36 10.87 7.75 11C8.14 11.14 8.57 10.93 8.7 10.54L8.71001 10.53ZM22.08 15.58C21.72 15.95 21.25 16.16 20.76 16.22C19.14 19.59 15.77 21.75 12 21.75C8.23 21.75 4.86001 19.59 3.24001 16.22C2.75001 16.16 2.28 15.94 1.92 15.58C1.49 15.15 1.25 14.58 1.25 13.98C1.25 13.38 1.50001 12.79 1.96001 12.34C2.05001 12.25 2.14999 12.18 2.25999 12.11C2.25999 12.07 2.25999 12.04 2.25999 12C2.25999 6.62 6.62999 2.25 12.01 2.25C17.39 2.25 21.76 6.62 21.76 12C21.76 12.04 21.76 12.07 21.76 12.11C21.86 12.18 21.97 12.26 22.06 12.34C22.51 12.79 22.76 13.38 22.77 13.98C22.77 14.58 22.54 15.14 22.1 15.58H22.08ZM2.75 13.99C2.75 14.18 2.83 14.37 2.98 14.52C3.13 14.67 3.30999 14.75 3.50999 14.75C3.71999 14.75 3.92001 14.66 4.10001 14.48C4.39001 14.19 4.57999 13.49 4.67999 12.83C4.19999 12.9 3.72 13.02 3.37 13.19C3.37 13.19 3.35 13.19 3.34 13.2C3.21 13.26 3.1 13.33 3.03 13.41C2.86 13.58 2.75999 13.79 2.75999 14L2.75 13.99ZM19.26 15.87C19.11 15.78 18.97 15.67 18.85 15.54C17.87 14.56 17.77 12.43 17.75 12.02C17.75 11.81 17.82 11.62 17.97 11.47C18.12 11.32 18.31 11.24 18.52 11.25C18.74 11.25 19.46 11.29 20.22 11.47C19.95 7.17 16.37 3.75 12 3.75C7.63 3.75 4.05 7.17 3.78 11.47C4.55 11.29 5.26 11.25 5.48 11.25C5.69 11.24 5.88 11.32 6.03 11.47C6.18 11.62 6.25 11.81 6.25 12.02C6.24 12.44 6.12999 14.56 5.14999 15.54C5.01999 15.67 4.88001 15.78 4.74001 15.87C6.17001 18.54 8.93 20.25 12 20.25C15.07 20.25 17.83 18.55 19.26 15.87ZM21.25 13.99C21.25 13.78 21.16 13.58 20.98 13.4C20.9 13.32 20.79 13.25 20.67 13.19C20.67 13.19 20.65 13.19 20.64 13.18C20.29 13.01 19.8 12.89 19.33 12.82C19.43 13.49 19.62 14.19 19.91 14.47C20.08 14.64 20.29 14.74 20.5 14.74C20.69 14.74 20.88 14.66 21.03 14.51C21.18 14.36 21.26 14.17 21.26 13.98L21.25 13.99ZM15.56 13.53C15.88 13.8 16.02 14.23 15.92 14.64C15.5 16.47 13.89 17.75 12 17.75C10.11 17.75 8.5 16.47 8.08 14.64C7.99 14.23 8.12 13.81 8.44 13.53C8.77 13.24 9.23999 13.16 9.64999 13.33C11.23 13.96 12.76 13.96 14.33 13.33C14.74 13.17 15.21 13.24 15.54 13.53H15.56ZM14.21 14.97C12.75 15.41 11.27 15.41 9.81 14.97C10.25 15.75 11.07 16.25 12.01 16.25C12.95 16.25 13.78 15.75 14.21 14.97Z" />
</svg>
