<svg viewBox="0 0 24 24" fill="currentColor" stroke="currentColor" xmlns="http://www.w3.org/2000/svg">
<path d="M13.76 10C13.76 9.31 14.31 8.75 15.01 8.75C15.7 8.75 16.26 9.31 16.26 10C16.26 10.69 15.7 11.25 15.01 11.25C14.32 11.25 13.76 10.69 13.76 10ZM10.26 10C10.26 9.31 9.70001 8.75 9.01001 8.75C8.32001 8.75 7.76001 9.31 7.76001 10C7.76001 10.69 8.33001 11.25 9.01001 11.25C9.69001 11.25 10.26 10.69 10.26 10ZM14.67 15.31C14.85 14.94 14.69 14.49 14.32 14.31C12.83 13.6 11.1 13.62 9.66 14.33C9.29 14.51 9.14 14.96 9.32 15.34C9.45 15.6 9.71999 15.76 9.98999 15.76C10.1 15.76 10.22 15.74 10.32 15.68C11.34 15.17 12.59 15.16 13.66 15.68C14.03 15.86 14.48 15.7 14.66 15.33L14.67 15.31ZM22.74 12V12.51C22.74 14.31 22.04 16.01 20.76 17.28L17.28 20.76C16 22.03 14.31 22.74 12.51 22.74H12C9.07 22.74 6.34 21.58 4.29 19.49C2.25 17.39 1.17 14.62 1.25 11.69C1.41 6.09 6.09 1.4 11.69 1.25C14.64 1.17 17.39 2.25 19.49 4.29C21.59 6.33 22.74 9.07 22.74 12ZM12.5 21.25C13.1 21.25 13.68 21.13 14.24 20.94V19C14.24 16.38 16.37 14.25 18.99 14.25H20.93C21.12 13.7 21.24 13.12 21.24 12.51V12C21.24 9.48 20.24 7.12999 18.44 5.36999C16.7 3.67999 14.42 2.75 11.99 2.75C11.9 2.75 11.81 2.75 11.73 2.75C6.91001 2.88 2.88 6.91001 2.75 11.73C2.68 14.25 3.60999 16.64 5.36999 18.44C7.12999 20.25 9.48 21.24 12 21.24H12.51L12.5 21.25ZM19.7 16.23C19.85 16.08 19.96 15.91 20.09 15.75H18.99C17.2 15.75 15.74 17.21 15.74 19V20.1C15.9 19.97 16.07 19.86 16.22 19.71L19.7 16.23Z" />
</svg>
