<svg viewBox="0 0 24 24" fill="currentColor" stroke="currentColor" xmlns="http://www.w3.org/2000/svg">
<path d="M9.01998 11.25C8.32998 11.25 7.76998 10.69 7.76998 10C7.76998 9.31 8.31998 8.75 9.01998 8.75C9.70998 8.75 10.27 9.31 10.27 10C10.27 10.69 9.70998 11.25 9.01998 11.25ZM14.67 14.2C14.49 13.83 14.04 13.68 13.67 13.86C12.65 14.37 11.4 14.38 10.33 13.86C9.95998 13.68 9.50998 13.84 9.32998 14.21C9.14998 14.58 9.30999 15.03 9.67999 15.21C10.41 15.56 11.19 15.74 11.99 15.74C12.79 15.74 13.61 15.56 14.33 15.2C14.7 15.02 14.85 14.57 14.67 14.19V14.2ZM13.77 10.65C14.13 10.86 14.59 10.73 14.79 10.37C14.88 10.22 15.12 10.22 15.21 10.37C15.35 10.61 15.6 10.75 15.86 10.75C15.98 10.75 16.11 10.72 16.23 10.65C16.59 10.45 16.72 9.99 16.51 9.63C16.2 9.09 15.62 8.75 15 8.75C14.38 8.75 13.79 9.09 13.49 9.63C13.29 9.99 13.41 10.45 13.77 10.65ZM22.75 12V12.51C22.75 14.31 22.05 16.01 20.77 17.28L17.29 20.76C16.01 22.03 14.32 22.74 12.52 22.74H12.01C9.08001 22.74 6.34998 21.58 4.29998 19.49C2.25998 17.39 1.18001 14.62 1.26001 11.69C1.42001 6.09 6.10001 1.4 11.7 1.25C14.65 1.17 17.4 2.25 19.5 4.29C21.6 6.33 22.75 9.07 22.75 12ZM12.51 21.25C13.11 21.25 13.69 21.13 14.25 20.94V19C14.25 16.38 16.38 14.25 19 14.25H20.94C21.13 13.7 21.25 13.12 21.25 12.51V12C21.25 9.48 20.25 7.12999 18.45 5.36999C16.71 3.67999 14.43 2.75 12 2.75C11.91 2.75 11.82 2.75 11.74 2.75C6.91999 2.88 2.89001 6.91001 2.76001 11.73C2.69001 14.25 3.62 16.64 5.38 18.44C7.14 20.25 9.49001 21.24 12.01 21.24H12.52L12.51 21.25ZM19.71 16.23C19.86 16.08 19.97 15.91 20.1 15.75H19C17.21 15.75 15.75 17.21 15.75 19V20.1C15.91 19.97 16.08 19.86 16.23 19.71L19.71 16.23Z" />
</svg>
