<svg viewBox="0 0 24 24" fill="currentColor" stroke="currentColor" xmlns="http://www.w3.org/2000/svg">
<path d="M9.01001 11.25C8.32001 11.25 7.76001 10.69 7.76001 10C7.76001 9.31 8.31001 8.75 9.01001 8.75C9.70001 8.75 10.26 9.31 10.26 10C10.26 10.69 9.70001 11.25 9.01001 11.25ZM14.66 14.2C14.48 13.83 14.03 13.68 13.66 13.86C12.64 14.37 11.38 14.38 10.32 13.86C9.94001 13.68 9.50001 13.84 9.32001 14.21C9.14001 14.58 9.29998 15.03 9.66998 15.21C10.4 15.56 11.18 15.74 11.98 15.74C12.78 15.74 13.6 15.56 14.32 15.2C14.69 15.02 14.84 14.57 14.66 14.19V14.2ZM13.76 10.65C14.12 10.86 14.58 10.73 14.78 10.37C14.82 10.3 14.9 10.25 14.99 10.25C15.11 10.25 15.18 10.33 15.2 10.37C15.34 10.61 15.59 10.75 15.85 10.75C15.97 10.75 16.1 10.72 16.22 10.65C16.58 10.45 16.71 9.99001 16.5 9.63C16.19 9.09 15.61 8.75 14.99 8.75C14.37 8.75 13.78 9.09 13.48 9.63C13.28 9.99001 13.4 10.45 13.76 10.65ZM21.75 6.37V13.75C21.75 14.75 21.36 15.69 20.65 16.4L16.41 20.64C15.71 21.34 14.75 21.74 13.76 21.74H6.38C3.6 21.74 2.26001 20.39 2.26001 17.62V6.37C2.26001 3.59 3.61 2.25 6.38 2.25H17.63C20.41 2.25 21.75 3.6 21.75 6.37ZM13.76 20.25C13.93 20.25 14.09 20.23 14.25 20.19V18.5C14.25 16.16 16.16 14.25 18.5 14.25H20.19C20.23 14.09 20.25 13.93 20.25 13.76V6.38C20.25 4.42 19.59 3.76001 17.63 3.76001H6.38C4.42 3.76001 3.76001 4.42 3.76001 6.38V17.63C3.76001 19.59 4.42 20.25 6.38 20.25H13.76ZM19.19 15.75H18.5C16.98 15.75 15.75 16.98 15.75 18.5V19.19L19.19 15.75Z" />
</svg>
