<svg viewBox="0 0 24 24" fill="currentColor" stroke="currentColor" xmlns="http://www.w3.org/2000/svg">
<path d="M13.76 10C13.76 9.31 14.31 8.75 15.01 8.75C15.7 8.75 16.26 9.31 16.26 10C16.26 10.69 15.7 11.25 15.01 11.25C14.32 11.25 13.76 10.69 13.76 10ZM10.26 10C10.26 9.31 9.69999 8.75 9.00999 8.75C8.31999 8.75 7.75999 9.31 7.75999 10C7.75999 10.69 8.32999 11.25 9.00999 11.25C9.68999 11.25 10.26 10.69 10.26 10ZM14.66 14.2C14.48 13.83 14.03 13.68 13.66 13.86C12.64 14.37 11.39 14.38 10.32 13.86C9.95 13.68 9.5 13.84 9.32 14.21C9.14 14.58 9.29999 15.03 9.66999 15.21C10.4 15.56 11.18 15.74 11.98 15.74C12.78 15.74 13.6 15.56 14.32 15.2C14.69 15.02 14.84 14.57 14.66 14.19V14.2ZM22.74 12V12.51C22.74 14.31 22.04 16.01 20.76 17.28L17.28 20.76C16 22.03 14.31 22.74 12.51 22.74H12C9.07 22.74 6.33999 21.58 4.28999 19.49C2.24999 17.39 1.17 14.62 1.25 11.69C1.41 6.09 6.09 1.4 11.69 1.25C14.65 1.17 17.39 2.25 19.49 4.29C21.59 6.33 22.74 9.07 22.74 12ZM12.5 21.25C13.1 21.25 13.68 21.13 14.24 20.94V19C14.24 16.38 16.37 14.25 18.99 14.25H20.93C21.12 13.7 21.24 13.12 21.24 12.51V12C21.24 9.48 20.24 7.12999 18.44 5.36999C16.7 3.67999 14.42 2.75 11.99 2.75C11.9 2.75 11.81 2.75 11.73 2.75C6.90999 2.88 2.88 6.91001 2.75 11.73C2.68 14.25 3.60999 16.64 5.36999 18.44C7.12999 20.25 9.48 21.24 12 21.24H12.51L12.5 21.25ZM19.7 16.23C19.85 16.08 19.96 15.91 20.09 15.75H18.99C17.2 15.75 15.74 17.21 15.74 19V20.1C15.9 19.97 16.07 19.86 16.22 19.71L19.7 16.23Z" />
</svg>
