<svg viewBox="0 0 24 24" fill="currentColor" stroke="currentColor" xmlns="http://www.w3.org/2000/svg">
<path d="M13.76 10C13.76 9.31 14.31 8.75 15.01 8.75C15.7 8.75 16.26 9.31 16.26 10C16.26 10.69 15.7 11.25 15.01 11.25C14.32 11.25 13.76 10.69 13.76 10ZM10.26 10C10.26 9.31 9.70001 8.75 9.01001 8.75C8.32001 8.75 7.76001 9.31 7.76001 10C7.76001 10.69 8.33001 11.25 9.01001 11.25C9.69001 11.25 10.26 10.69 10.26 10ZM14.67 15.31C14.85 14.94 14.69 14.49 14.32 14.31C12.83 13.6 11.1 13.62 9.66 14.33C9.29 14.51 9.14001 14.96 9.32001 15.34C9.45001 15.6 9.71999 15.76 9.98999 15.76C10.1 15.76 10.22 15.74 10.32 15.68C11.34 15.17 12.59 15.16 13.66 15.68C14.03 15.86 14.48 15.7 14.66 15.33L14.67 15.31ZM21.74 6.37V13.75C21.74 14.75 21.35 15.69 20.64 16.4L16.4 20.64C15.7 21.34 14.74 21.74 13.75 21.74H6.37C3.59 21.74 2.25 20.39 2.25 17.62V6.37C2.25 3.59 3.6 2.25 6.37 2.25H17.62C20.4 2.25 21.74 3.6 21.74 6.37ZM13.75 20.25C13.92 20.25 14.08 20.23 14.24 20.19V18.5C14.24 16.16 16.15 14.25 18.49 14.25H20.18C20.22 14.09 20.24 13.93 20.24 13.76V6.38C20.24 4.42 19.58 3.76001 17.62 3.76001H6.37C4.41 3.76001 3.75 4.42 3.75 6.38V17.63C3.75 19.59 4.41 20.25 6.37 20.25H13.75ZM19.18 15.75H18.49C16.97 15.75 15.74 16.98 15.74 18.5V19.19L19.18 15.75Z" />
</svg>
