<svg viewBox="0 0 24 24" fill="currentColor" stroke="currentColor" xmlns="http://www.w3.org/2000/svg">
<path d="M19.5 9.50001V15.5C19.5 16.771 18.771 17.5 17.5 17.5H13C12.724 17.5 12.5 17.276 12.5 17C12.5 16.724 12.724 16.5 13 16.5H17.5C18.22 16.5 18.5 16.22 18.5 15.5V9.50001C18.5 8.78001 18.22 8.50001 17.5 8.50001H14C13.724 8.50001 13.5 8.27601 13.5 8.00001C13.5 7.72401 13.724 7.50001 14 7.50001H17.5C18.771 7.50001 19.5 8.22901 19.5 9.50001ZM8 16.5H4.5C3.78 16.5 3.5 16.22 3.5 15.5V9.50001C3.5 8.78001 3.78 8.50001 4.5 8.50001H9C9.276 8.50001 9.5 8.27601 9.5 8.00001C9.5 7.72401 9.276 7.50001 9 7.50001H4.5C3.229 7.50001 2.5 8.22901 2.5 9.50001V15.5C2.5 16.771 3.229 17.5 4.5 17.5H8C8.276 17.5 8.5 17.276 8.5 17C8.5 16.724 8.276 16.5 8 16.5ZM21 10.5C20.724 10.5 20.5 10.724 20.5 11V14C20.5 14.276 20.724 14.5 21 14.5C21.276 14.5 21.5 14.276 21.5 14V11C21.5 10.724 21.276 10.5 21 10.5ZM14.146 12.533L10.3169 18.2781C10.2219 18.4211 10.0639 18.501 9.90088 18.501C9.83288 18.501 9.76397 18.487 9.69897 18.458C9.47597 18.36 9.35702 18.1159 9.41602 17.8799L10.3611 14.1011H8.72803C8.34003 14.1011 7.985 13.8889 7.802 13.5459C7.619 13.2029 7.63898 12.791 7.85498 12.468L11.6841 6.72291C11.8191 6.51991 12.081 6.44498 12.302 6.54298C12.525 6.64098 12.644 6.8851 12.585 7.1211L11.6399 10.8999H13.2729C13.6609 10.8999 14.016 11.1121 14.199 11.4551C14.382 11.7981 14.361 12.21 14.146 12.533ZM13.313 11.978L11.3521 11.8999C11.1121 11.8999 10.8889 11.792 10.7419 11.603C10.5939 11.414 10.5421 11.172 10.5991 10.938L10.9131 9.67994L8.68506 13.022L10.646 13.1001C10.886 13.1001 11.1091 13.208 11.2561 13.397C11.4041 13.586 11.4559 13.828 11.3989 14.062L11.085 15.3201L13.313 11.978Z" />
</svg>
