<svg viewBox="0 0 24 24" fill="currentColor" stroke="currentColor" xmlns="http://www.w3.org/2000/svg">
<path d="M17.5 7.5H4.5C3.229 7.5 2.5 8.229 2.5 9.5V15.5C2.5 16.771 3.229 17.5 4.5 17.5H17.5C18.771 17.5 19.5 16.771 19.5 15.5V9.5C19.5 8.229 18.771 7.5 17.5 7.5ZM18.5 15.5C18.5 16.22 18.22 16.5 17.5 16.5H4.5C3.78 16.5 3.5 16.22 3.5 15.5V9.5C3.5 8.78 3.78 8.5 4.5 8.5H17.5C18.22 8.5 18.5 8.78 18.5 9.5V15.5ZM21.5 11V14C21.5 14.276 21.276 14.5 21 14.5C20.724 14.5 20.5 14.276 20.5 14V11C20.5 10.724 20.724 10.5 21 10.5C21.276 10.5 21.5 10.724 21.5 11Z" />
</svg>
