<svg viewBox="0 0 24 24" fill="currentColor" stroke="currentColor" xmlns="http://www.w3.org/2000/svg">
<path d="M21.5 11V14C21.5 14.276 21.276 14.5 21 14.5C20.724 14.5 20.5 14.276 20.5 14V11C20.5 10.724 20.724 10.5 21 10.5C21.276 10.5 21.5 10.724 21.5 11ZM6 10C5.724 10 5.5 10.224 5.5 10.5V14.5C5.5 14.776 5.724 15 6 15C6.276 15 6.5 14.776 6.5 14.5V10.5C6.5 10.224 6.276 10 6 10ZM8.5 10C8.224 10 8 10.224 8 10.5V14.5C8 14.776 8.224 15 8.5 15C8.776 15 9 14.776 9 14.5V10.5C9 10.224 8.776 10 8.5 10ZM11 10C10.724 10 10.5 10.224 10.5 10.5V14.5C10.5 14.776 10.724 15 11 15C11.276 15 11.5 14.776 11.5 14.5V10.5C11.5 10.224 11.276 10 11 10ZM13.5 10C13.224 10 13 10.224 13 10.5V14.5C13 14.776 13.224 15 13.5 15C13.776 15 14 14.776 14 14.5V10.5C14 10.224 13.776 10 13.5 10ZM16 10C15.724 10 15.5 10.224 15.5 10.5V14.5C15.5 14.776 15.724 15 16 15C16.276 15 16.5 14.776 16.5 14.5V10.5C16.5 10.224 16.276 10 16 10ZM19.5 9.5V15.5C19.5 16.771 18.771 17.5 17.5 17.5H4.5C3.229 17.5 2.5 16.771 2.5 15.5V9.5C2.5 8.229 3.229 7.5 4.5 7.5H17.5C18.771 7.5 19.5 8.229 19.5 9.5ZM18.5 9.5C18.5 8.78 18.22 8.5 17.5 8.5H4.5C3.78 8.5 3.5 8.78 3.5 9.5V15.5C3.5 16.22 3.78 16.5 4.5 16.5H17.5C18.22 16.5 18.5 16.22 18.5 15.5V9.5Z" />
</svg>
