<svg viewBox="0 0 24 24" fill="currentColor" stroke="currentColor" xmlns="http://www.w3.org/2000/svg">
<path d="M17 2.5H7C4.71 2.5 3.5 3.71 3.5 6V18C3.5 20.29 4.71 21.5 7 21.5H17C19.29 21.5 20.5 20.29 20.5 18V6C20.5 3.71 19.29 2.5 17 2.5ZM19.5 18C19.5 19.729 18.729 20.5 17 20.5H7C5.271 20.5 4.5 19.729 4.5 18V6C4.5 4.271 5.271 3.5 7 3.5H17C18.729 3.5 19.5 4.271 19.5 6V18ZM15 5.5H9C7.729 5.5 7 6.229 7 7.5V8.5C7 9.771 7.729 10.5 9 10.5H15C16.271 10.5 17 9.771 17 8.5V7.5C17 6.229 16.271 5.5 15 5.5ZM16 8.5C16 9.22 15.72 9.5 15 9.5H9C8.28 9.5 8 9.22 8 8.5V7.5C8 6.78 8.28 6.5 9 6.5H15C15.72 6.5 16 6.78 16 7.5V8.5ZM16.75 14.002C16.75 14.416 16.414 14.752 16 14.752C15.586 14.752 15.25 14.416 15.25 14.002C15.25 13.588 15.586 13.252 16 13.252C16.414 13.252 16.75 13.587 16.75 14.002ZM12.75 14.002C12.75 14.416 12.414 14.752 12 14.752C11.586 14.752 11.25 14.416 11.25 14.002C11.25 13.588 11.586 13.252 12 13.252C12.414 13.252 12.75 13.587 12.75 14.002ZM8.75 14.002C8.75 14.416 8.414 14.752 8 14.752C7.586 14.752 7.25 14.416 7.25 14.002C7.25 13.588 7.586 13.252 8 13.252C8.414 13.252 8.75 13.587 8.75 14.002ZM16.75 17C16.75 17.414 16.414 17.75 16 17.75C15.586 17.75 15.25 17.414 15.25 17C15.25 16.586 15.586 16.25 16 16.25C16.414 16.25 16.75 16.586 16.75 17ZM12.75 17C12.75 17.414 12.414 17.75 12 17.75C11.586 17.75 11.25 17.414 11.25 17C11.25 16.586 11.586 16.25 12 16.25C12.414 16.25 12.75 16.586 12.75 17ZM8.75 17C8.75 17.414 8.414 17.75 8 17.75C7.586 17.75 7.25 17.414 7.25 17C7.25 16.586 7.586 16.25 8 16.25C8.414 16.25 8.75 16.586 8.75 17Z" />
</svg>
