<svg viewBox="0 0 24 24" fill="currentColor" stroke="currentColor" xmlns="http://www.w3.org/2000/svg">
<path d="M18 6.5H16.3601L15.8159 4.86792C15.5439 4.04992 14.7809 3.5 13.9189 3.5H10.0811C9.21905 3.5 8.45608 4.04992 8.18408 4.86792L7.63989 6.5H6C3.71 6.5 2.5 7.71 2.5 10V18C2.5 20.29 3.71 21.5 6 21.5H18C20.29 21.5 21.5 20.29 21.5 18V10C21.5 7.71 20.29 6.5 18 6.5ZM20.5 18C20.5 19.729 19.729 20.5 18 20.5H6C4.271 20.5 3.5 19.729 3.5 18V10C3.5 8.271 4.271 7.5 6 7.5H8C8.215 7.5 8.4061 7.36196 8.4751 7.15796L9.13306 5.18408C9.26906 4.77508 9.65105 4.5 10.0811 4.5H13.9189C14.3499 4.5 14.7309 4.77508 14.8669 5.18408L15.5249 7.15796C15.5929 7.36196 15.785 7.5 16 7.5H18C19.729 7.5 20.5 8.271 20.5 10V18ZM12 10.5C10.07 10.5 8.5 12.07 8.5 14C8.5 15.93 10.07 17.5 12 17.5C13.93 17.5 15.5 15.93 15.5 14C15.5 12.07 13.93 10.5 12 10.5ZM12 16.5C10.621 16.5 9.5 15.378 9.5 14C9.5 12.622 10.621 11.5 12 11.5C13.379 11.5 14.5 12.622 14.5 14C14.5 15.378 13.379 16.5 12 16.5ZM18.25 10.5C18.25 10.914 17.914 11.25 17.5 11.25C17.086 11.25 16.75 10.914 16.75 10.5C16.75 10.086 17.086 9.75 17.5 9.75C17.914 9.75 18.25 10.086 18.25 10.5Z" />
</svg>
