<svg viewBox="0 0 24 24" fill="currentColor" stroke="currentColor" xmlns="http://www.w3.org/2000/svg">
<path d="M15.333 8.16699H14.583L14.3311 7.41309C14.1491 6.86809 13.6419 6.50098 13.0659 6.50098H10.9331C10.3581 6.50098 9.84997 6.86809 9.66797 7.41309L9.41602 8.16797H8.66602C7.26902 8.16797 6.49902 8.93796 6.49902 10.335V15.335C6.49902 16.732 7.26902 17.502 8.66602 17.502H15.332C16.729 17.502 17.499 16.732 17.499 15.335V10.335C17.5 8.93596 16.73 8.16699 15.333 8.16699ZM16.5 15.333C16.5 16.172 16.173 16.5 15.333 16.5H8.66699C7.82699 16.5 7.5 16.173 7.5 15.333V10.333C7.5 9.49301 7.82699 9.16602 8.66699 9.16602H9.7771C9.9921 9.16602 10.183 9.02797 10.252 8.82397L10.6179 7.72705C10.6629 7.59105 10.7901 7.49902 10.9331 7.49902H13.0659C13.2099 7.49902 13.3371 7.59005 13.3811 7.72705L13.7471 8.82397C13.8151 9.02797 14.0069 9.16602 14.2219 9.16602H15.332C16.172 9.16602 16.499 9.49301 16.499 10.333V15.333H16.5ZM12 10.667C10.805 10.667 9.83301 11.639 9.83301 12.834C9.83301 14.029 10.805 15.001 12 15.001C13.195 15.001 14.167 14.029 14.167 12.834C14.167 11.639 13.195 10.667 12 10.667ZM12 14C11.356 14 10.833 13.477 10.833 12.833C10.833 12.189 11.356 11.666 12 11.666C12.644 11.666 13.167 12.189 13.167 12.833C13.167 13.477 12.644 14 12 14ZM17.625 2.5H6.375C3.84 2.5 2.5 3.84 2.5 6.375V17.625C2.5 20.16 3.84 21.5 6.375 21.5H17.625C20.16 21.5 21.5 20.16 21.5 17.625V6.375C21.5 3.84 20.16 2.5 17.625 2.5ZM20.5 17.625C20.5 19.586 19.587 20.5 17.625 20.5H6.375C4.413 20.5 3.5 19.586 3.5 17.625V6.375C3.5 4.414 4.413 3.5 6.375 3.5H17.625C19.587 3.5 20.5 4.414 20.5 6.375V17.625Z" />
</svg>
