<svg viewBox="0 0 24 24" fill="currentColor" stroke="currentColor" xmlns="http://www.w3.org/2000/svg">
<path d="M21.117 7.10597C21.371 7.61497 21.5 8.25201 21.5 9.00001V17C21.5 19.29 20.29 20.5 18 20.5H8.00001C7.72401 20.5 7.50001 20.276 7.50001 20C7.50001 19.724 7.72401 19.5 8.00001 19.5H18C19.729 19.5 20.5 18.729 20.5 17V9.00001C20.5 8.40901 20.4059 7.92196 20.2229 7.55396C20.0999 7.30696 20.2 7.00707 20.447 6.88307C20.694 6.76007 20.993 6.85897 21.117 7.10597ZM18.353 6.35401L3.35304 21.354C3.25504 21.452 3.12703 21.5 2.99903 21.5C2.87103 21.5 2.74303 21.451 2.64503 21.354C2.45003 21.159 2.45003 20.842 2.64503 20.647L3.56202 19.73C2.86802 19.138 2.49903 18.233 2.49903 17V9.00001C2.49903 6.71001 3.70903 5.50001 5.99903 5.50001H7.6399L8.18604 3.8711C8.45004 3.0531 9.21109 2.50001 10.0801 2.50001H13.9199C14.7879 2.50001 15.5499 3.05299 15.8159 3.87599L16.3601 5.50001H17.794L20.648 2.64601C20.843 2.45101 21.16 2.45101 21.355 2.64601C21.55 2.84101 21.55 3.15804 21.355 3.35304L18.353 6.35401C18.354 6.35301 18.353 6.35401 18.353 6.35401ZM4.27394 19.0191L8.82594 14.4671C8.61394 14.0131 8.49903 13.514 8.49903 13.001C8.49903 11.071 10.069 9.50099 11.999 9.50099C12.512 9.50099 13.0111 9.61589 13.4651 9.82789L16.792 6.50099H16C15.785 6.50099 15.5939 6.36392 15.5259 6.15992L14.866 4.18995C14.732 3.77595 14.3519 3.50196 13.9199 3.50196H10.0801C9.64709 3.50196 9.268 3.77704 9.136 4.18604L8.47413 6.1609C8.40713 6.3649 8.21501 6.50196 8.00001 6.50196H6.00001C4.27101 6.50196 3.50001 7.27296 3.50001 9.00196V17.002C3.50001 17.965 3.76494 18.6181 4.27394 19.0191ZM12.6931 10.6001C12.4701 10.5361 12.238 10.5 12 10.5C10.621 10.5 9.50001 11.622 9.50001 13C9.50001 13.238 9.53511 13.4711 9.60011 13.6931L12.6931 10.6001ZM14.5 13C14.5 14.378 13.379 15.5 12 15.5C11.724 15.5 11.5 15.724 11.5 16C11.5 16.276 11.724 16.5 12 16.5C13.93 16.5 15.5 14.93 15.5 13C15.5 12.724 15.276 12.5 15 12.5C14.724 12.5 14.5 12.724 14.5 13Z" />
</svg>
