<svg viewBox="0 0 24 24" fill="currentColor" stroke="currentColor" xmlns="http://www.w3.org/2000/svg">
<path d="M18 6.5H16.3601L15.8159 4.86792C15.5439 4.04992 14.7809 3.5 13.9189 3.5H10.0811C9.21905 3.5 8.45608 4.04992 8.18408 4.86792L7.63989 6.5H6C3.71 6.5 2.5 7.71 2.5 10V18C2.5 20.29 3.71 21.5 6 21.5H18C20.29 21.5 21.5 20.29 21.5 18V10C21.5 7.71 20.29 6.5 18 6.5ZM20.5 18C20.5 19.729 19.729 20.5 18 20.5H6C4.271 20.5 3.5 19.729 3.5 18V10C3.5 8.271 4.271 7.5 6 7.5H8C8.215 7.5 8.4061 7.36196 8.4751 7.15796L9.13306 5.18408C9.26906 4.77508 9.65105 4.5 10.0811 4.5H13.9189C14.3499 4.5 14.7309 4.77508 14.8669 5.18408L15.5249 7.15796C15.5929 7.36196 15.785 7.5 16 7.5H18C19.729 7.5 20.5 8.271 20.5 10V18ZM15.585 15.707C14.953 17.1 13.542 18 11.99 18C10.948 18 9.96799 17.578 9.23999 16.876V17.478C9.23999 17.754 9.01599 17.978 8.73999 17.978C8.46399 17.978 8.23999 17.754 8.23999 17.478V15.28C8.23999 15.276 8.24194 15.2721 8.24194 15.2681C8.24294 15.2301 8.25392 15.1959 8.26392 15.1599C8.27092 15.1319 8.27291 15.1029 8.28491 15.0769C8.29691 15.0499 8.31698 15.0289 8.33398 15.0049C8.35398 14.9759 8.37002 14.9449 8.39502 14.9209C8.41402 14.9029 8.43896 14.892 8.45996 14.877C8.49196 14.855 8.52211 14.8309 8.55811 14.8169C8.56211 14.8149 8.56512 14.8121 8.56812 14.8101C8.59712 14.8001 8.62701 14.8021 8.65601 14.7971C8.68401 14.7921 8.70999 14.78 8.73999 14.78H10.9319C11.2079 14.78 11.4319 15.004 11.4319 15.28C11.4319 15.556 11.2079 15.78 10.9319 15.78H9.60889C10.1879 16.549 11.055 17 11.989 17C13.149 17 14.2031 16.33 14.6741 15.293C14.7881 15.041 15.0849 14.9299 15.3359 15.0439C15.5879 15.1589 15.699 15.455 15.585 15.707ZM15.74 10.522V12.72C15.74 12.723 15.738 12.726 15.738 12.729C15.737 12.771 15.7251 12.8101 15.7141 12.8501C15.7081 12.8731 15.707 12.8989 15.697 12.9199C15.684 12.9509 15.6611 12.9749 15.6411 13.0029C15.6231 13.0279 15.6101 13.0559 15.5891 13.0769C15.5711 13.0949 15.5459 13.1051 15.5249 13.1201C15.4929 13.1431 15.462 13.1681 15.425 13.1831C15.422 13.1841 15.42 13.187 15.417 13.188C15.358 13.21 15.299 13.22 15.24 13.22H13.0481C12.7721 13.22 12.5481 12.996 12.5481 12.72C12.5481 12.444 12.7721 12.22 13.0481 12.22H14.3831C13.8191 11.46 12.939 11 11.991 11C10.84 11 9.78496 11.671 9.30396 12.71C9.18795 12.96 8.89089 13.0711 8.63989 12.9541C8.38889 12.8381 8.281 12.541 8.396 12.29C9.041 10.899 10.451 10 11.991 10C13.034 10 14.012 10.419 14.741 11.116V10.522C14.741 10.246 14.965 10.022 15.241 10.022C15.517 10.022 15.74 10.246 15.74 10.522Z" />
</svg>
