<svg viewBox="0 0 24 24" fill="currentColor" stroke="currentColor" xmlns="http://www.w3.org/2000/svg">
<path d="M21 14.5H19.5V9.5H21C21.276 9.5 21.5 9.276 21.5 9C21.5 8.724 21.276 8.5 21 8.5H19.5V8C19.5 5.71 18.29 4.5 16 4.5H15.5V3C15.5 2.724 15.276 2.5 15 2.5C14.724 2.5 14.5 2.724 14.5 3V4.5H9.5V3C9.5 2.724 9.276 2.5 9 2.5C8.724 2.5 8.5 2.724 8.5 3V4.5H8C5.71 4.5 4.5 5.71 4.5 8V8.5H3C2.724 8.5 2.5 8.724 2.5 9C2.5 9.276 2.724 9.5 3 9.5H4.5V14.5H3C2.724 14.5 2.5 14.724 2.5 15C2.5 15.276 2.724 15.5 3 15.5H4.5V16C4.5 18.29 5.71 19.5 8 19.5H8.5V21C8.5 21.276 8.724 21.5 9 21.5C9.276 21.5 9.5 21.276 9.5 21V19.5H14.5V21C14.5 21.276 14.724 21.5 15 21.5C15.276 21.5 15.5 21.276 15.5 21V19.5H16C18.29 19.5 19.5 18.29 19.5 16V15.5H21C21.276 15.5 21.5 15.276 21.5 15C21.5 14.724 21.276 14.5 21 14.5ZM18.5 16C18.5 17.729 17.729 18.5 16 18.5H8C6.271 18.5 5.5 17.729 5.5 16V8C5.5 6.271 6.271 5.5 8 5.5H16C17.729 5.5 18.5 6.271 18.5 8V16ZM14 8H10C8.729 8 8 8.729 8 10V14C8 15.271 8.729 16 10 16H14C15.271 16 16 15.271 16 14V10C16 8.729 15.271 8 14 8ZM15 14C15 14.72 14.72 15 14 15H10C9.28 15 9 14.72 9 14V10C9 9.28 9.28 9 10 9H14C14.72 9 15 9.28 15 10V14Z" />
</svg>
