<svg viewBox="0 0 24 24" fill="currentColor" stroke="currentColor" xmlns="http://www.w3.org/2000/svg">
<path d="M12 2.5C7.233 2.5 3.5 4.477 3.5 7V17C3.5 19.397 7.472 21.5 12 21.5C16.528 21.5 20.5 19.397 20.5 17V7C20.5 4.477 16.767 2.5 12 2.5ZM12 3.5C16.065 3.5 19.5 5.103 19.5 7C19.5 8.897 16.065 10.5 12 10.5C7.935 10.5 4.5 8.897 4.5 7C4.5 5.103 7.935 3.5 12 3.5ZM19.5 17C19.5 18.619 16.224 20.5 12 20.5C7.776 20.5 4.5 18.619 4.5 17V14.1489C5.919 15.5599 8.713 16.5 12 16.5C15.287 16.5 18.081 15.5599 19.5 14.1489V17ZM19.5 12C19.5 13.897 16.065 15.5 12 15.5C7.935 15.5 4.5 13.897 4.5 12V9.14893C5.919 10.5599 8.713 11.5 12 11.5C15.287 11.5 18.081 10.5599 19.5 9.14893V12Z" />
</svg>
