<svg viewBox="0 0 24 24" fill="currentColor" stroke="currentColor" xmlns="http://www.w3.org/2000/svg">
<path d="M18 2.5H6C3.71 2.5 2.5 3.71 2.5 6V14C2.5 16.29 3.71 17.5 6 17.5H9.5V20.5H7.5C7.224 20.5 7 20.724 7 21C7 21.276 7.224 21.5 7.5 21.5H16.5C16.776 21.5 17 21.276 17 21C17 20.724 16.776 20.5 16.5 20.5H14.5V17.5H18C20.29 17.5 21.5 16.29 21.5 14V6C21.5 3.71 20.29 2.5 18 2.5ZM13.5 20.5H10.5V17.5H13.5V20.5ZM20.5 14C20.5 15.729 19.729 16.5 18 16.5H14H10H6C4.271 16.5 3.5 15.729 3.5 14V6C3.5 4.271 4.271 3.5 6 3.5H18C19.729 3.5 20.5 4.271 20.5 6V14ZM10.354 8.354L8.70801 10L10.354 11.646C10.549 11.841 10.549 12.158 10.354 12.353C10.256 12.451 10.128 12.499 10 12.499C9.872 12.499 9.744 12.45 9.646 12.353L7.646 10.353C7.451 10.158 7.451 9.841 7.646 9.646L9.646 7.646C9.841 7.451 10.158 7.451 10.353 7.646C10.548 7.841 10.549 8.158 10.354 8.354ZM16.354 9.646C16.549 9.841 16.549 10.158 16.354 10.353L14.354 12.353C14.256 12.451 14.128 12.499 14 12.499C13.872 12.499 13.744 12.45 13.646 12.353C13.451 12.158 13.451 11.841 13.646 11.646L15.292 10L13.646 8.354C13.451 8.159 13.451 7.84197 13.646 7.64697C13.841 7.45197 14.158 7.45197 14.353 7.64697L16.354 9.646Z" />
</svg>
