<svg viewBox="0 0 24 24" fill="currentColor" stroke="currentColor" xmlns="http://www.w3.org/2000/svg">
<path d="M18 2.5H6C3.71 2.5 2.5 3.71 2.5 6V14C2.5 16.29 3.71 17.5 6 17.5H9.5V20.5H7.5C7.224 20.5 7 20.724 7 21C7 21.276 7.224 21.5 7.5 21.5H16.5C16.776 21.5 17 21.276 17 21C17 20.724 16.776 20.5 16.5 20.5H14.5V17.5H18C20.29 17.5 21.5 16.29 21.5 14V6C21.5 3.71 20.29 2.5 18 2.5ZM6 3.5H18C19.729 3.5 20.5 4.271 20.5 6V12.5H3.5V6C3.5 4.271 4.271 3.5 6 3.5ZM13.5 20.5H10.5V17.5H13.5V20.5ZM18 16.5H14H10H6C4.271 16.5 3.5 15.729 3.5 14V13.5H20.5V14C20.5 15.729 19.729 16.5 18 16.5Z" />
</svg>
