<svg viewBox="0 0 24 24" fill="currentColor" stroke="currentColor" xmlns="http://www.w3.org/2000/svg">
<path d="M20.5 9.53101V5C20.5 2.71 19.29 1.5 17 1.5H5C2.71 1.5 1.5 2.71 1.5 5V13C1.5 15.29 2.71 16.5 5 16.5H8.5V19.5H6.5C6.224 19.5 6 19.724 6 20C6 20.276 6.224 20.5 6.5 20.5H12.532C12.685 21.791 13.518 22.5 14.929 22.5H20.072C21.638 22.5 22.501 21.6331 22.501 20.0581V11.9419C22.5 10.5199 21.791 9.68101 20.5 9.53101ZM5 2.5H17C18.729 2.5 19.5 3.271 19.5 5V9.5H14.929C13.518 9.5 12.685 10.209 12.532 11.5H2.5V5C2.5 3.271 3.271 2.5 5 2.5ZM2.5 13V12.5H12.5V15.5H12H9H5C3.271 15.5 2.5 14.729 2.5 13ZM9.5 16.5H12H12.5V19.5H9.5V16.5ZM21.5 20.0581C21.5 21.0821 21.086 21.5 20.071 21.5H14.928C13.913 21.5 13.499 21.0821 13.499 20.0581V11.9419C13.499 10.9179 13.913 10.5 14.928 10.5H20.071C21.086 10.5 21.5 10.9179 21.5 11.9419V20.0581ZM18.25 19.5C18.25 19.914 17.914 20.25 17.5 20.25C17.086 20.25 16.75 19.914 16.75 19.5C16.75 19.086 17.086 18.75 17.5 18.75C17.914 18.75 18.25 19.086 18.25 19.5Z" />
</svg>
