<svg viewBox="0 0 24 24" fill="currentColor" stroke="currentColor" xmlns="http://www.w3.org/2000/svg">
<path d="M6.5 3.75V6.17212C6.5 6.42812 6.53599 6.68008 6.56299 6.93408C6.55999 6.95708 6.55005 6.977 6.55005 7C6.55005 7.056 6.56503 7.10794 6.58203 7.15894C6.75403 8.41194 7.23706 9.61602 8.00806 10.624C8.32506 11.039 8.5 11.5631 8.5 12.1021V19.5C8.5 20.603 9.397 21.5 10.5 21.5H13.5C14.603 21.5 15.5 20.603 15.5 19.5V12.1021C15.5 11.5641 15.6749 11.04 15.9919 10.624C16.7629 9.61602 17.245 8.41194 17.418 7.15894C17.435 7.10794 17.45 7.056 17.45 7C17.45 6.977 17.44 6.95608 17.437 6.93408C17.464 6.68108 17.5 6.42812 17.5 6.17212V3.75C17.5 3.061 16.939 2.5 16.25 2.5H7.75C7.061 2.5 6.5 3.061 6.5 3.75ZM14.5 12.1021V19.5C14.5 20.052 14.051 20.5 13.5 20.5H10.5C9.949 20.5 9.5 20.052 9.5 19.5V12.1021C9.5 11.3461 9.252 10.6061 8.802 10.0171C8.235 9.27609 7.85689 8.408 7.66089 7.5H16.3401C16.1431 8.408 15.766 9.27509 15.199 10.0171C14.748 10.6051 14.5 11.3461 14.5 12.1021ZM16.25 3.5C16.388 3.5 16.5 3.612 16.5 3.75V6.17212C16.5 6.28212 16.4789 6.39 16.4729 6.5H7.5271C7.5211 6.39 7.5 6.28212 7.5 6.17212V3.75C7.5 3.612 7.612 3.5 7.75 3.5H16.25ZM12 12.5C12.276 12.5 12.5 12.724 12.5 13V15C12.5 15.276 12.276 15.5 12 15.5C11.724 15.5 11.5 15.276 11.5 15V13C11.5 12.724 11.724 12.5 12 12.5Z" />
</svg>
