<svg viewBox="0 0 24 24" fill="currentColor" stroke="currentColor" xmlns="http://www.w3.org/2000/svg">
<path d="M20.9141 6.20703L17.793 3.08594C17.421 2.71294 16.9049 2.5 16.3789 2.5H6C3.71 2.5 2.5 3.71 2.5 6V18C2.5 20.29 3.71 21.5 6 21.5H18C20.29 21.5 21.5 20.29 21.5 18V7.62109C21.5 7.09509 21.2861 6.57903 20.9141 6.20703ZM16.5 20.5H7.5V14.5C7.5 13.78 7.78 13.5 8.5 13.5H15.5C16.22 13.5 16.5 13.78 16.5 14.5V20.5ZM20.5 18C20.5 19.729 19.729 20.5 18 20.5H17.5V14.5C17.5 13.229 16.771 12.5 15.5 12.5H8.5C7.229 12.5 6.5 13.229 6.5 14.5V20.5H6C4.271 20.5 3.5 19.729 3.5 18V6C3.5 4.271 4.271 3.5 6 3.5H16.3789C16.6419 3.5 16.8999 3.60697 17.0859 3.79297L20.207 6.91406C20.394 7.10006 20.5 7.35809 20.5 7.62109V18ZM15 8C15 8.276 14.776 8.5 14.5 8.5H9.5C9.224 8.5 9 8.276 9 8C9 7.724 9.224 7.5 9.5 7.5H14.5C14.776 7.5 15 7.724 15 8Z" />
</svg>
