<svg viewBox="0 0 24 24" fill="currentColor" stroke="currentColor" xmlns="http://www.w3.org/2000/svg">
<path d="M10.5 13C10.5 13.276 10.276 13.5 10 13.5H8.5V15C8.5 15.276 8.276 15.5 8 15.5C7.724 15.5 7.5 15.276 7.5 15V13.5H6C5.724 13.5 5.5 13.276 5.5 13C5.5 12.724 5.724 12.5 6 12.5H7.5V11C7.5 10.724 7.724 10.5 8 10.5C8.276 10.5 8.5 10.724 8.5 11V12.5H10C10.276 12.5 10.5 12.724 10.5 13ZM21.5 13V17C21.5 19.167 20.404 21.5 18 21.5H17.741C16.483 21.5 15.3159 20.8751 14.6179 19.8291C14.5799 19.7711 13.718 18.5 12 18.5C10.263 18.5 9.39303 19.8039 9.38403 19.8159C8.68503 20.8709 7.51493 21.5 6.25293 21.5H6C3.596 21.5 2.5 19.167 2.5 17V13C2.5 8.93 4.556 6.5 8 6.5H11.5V6C11.5 4.897 12.397 4 13.5 4H14.5C15.052 4 15.5 3.551 15.5 3C15.5 2.724 15.724 2.5 16 2.5C16.276 2.5 16.5 2.724 16.5 3C16.5 4.103 15.603 5 14.5 5H13.5C12.948 5 12.5 5.449 12.5 6V6.5H16C19.444 6.5 21.5 8.93 21.5 13ZM20.5 13C20.5 9.453 18.902 7.5 16 7.5H8C5.098 7.5 3.5 9.453 3.5 13V17C3.5 18.686 4.282 20.5 6 20.5H6.25293C7.17893 20.5 8.0371 20.0391 8.5481 19.2681C8.5931 19.1991 9.727 17.5 12 17.5C14.274 17.5 15.4061 19.207 15.4541 19.28C15.9621 20.042 16.818 20.5 17.741 20.5H18C19.718 20.5 20.5 18.686 20.5 17V13ZM17.25 11C16.836 11 16.5 11.336 16.5 11.75C16.5 12.164 16.836 12.5 17.25 12.5C17.664 12.5 18 12.164 18 11.75C18 11.336 17.664 11 17.25 11ZM14.75 13.5C14.336 13.5 14 13.836 14 14.25C14 14.664 14.336 15 14.75 15C15.164 15 15.5 14.664 15.5 14.25C15.5 13.836 15.164 13.5 14.75 13.5Z" />
</svg>
