<svg viewBox="0 0 24 24" fill="currentColor" stroke="currentColor" xmlns="http://www.w3.org/2000/svg">
<path d="M21.396 13.3779L19.9409 5.37402C19.6319 3.68202 18.2161 2.5 16.4971 2.5H7.50488C5.78488 2.5 4.36904 3.68202 4.06104 5.37402L2.60596 13.3779C2.53696 13.7599 2.50195 14.151 2.50195 14.541V16V17V18C2.50195 20.29 3.71195 21.5 6.00195 21.5H18.002C20.292 21.5 21.502 20.29 21.502 18V17V16V14.541C21.5 14.151 21.465 13.7599 21.396 13.3779ZM5.04395 5.55298C5.26395 4.34498 6.27491 3.5 7.50391 3.5H16.4961C17.7251 3.5 18.7361 4.34398 18.9561 5.55298L20.343 13.1841C19.767 12.7411 18.991 12.501 18 12.501H6C5.009 12.501 4.23298 12.7411 3.65698 13.1841L5.04395 5.55298ZM20.5 18C20.5 19.729 19.729 20.5 18 20.5H6C4.271 20.5 3.5 19.729 3.5 18V17V16C3.5 14.271 4.271 13.5 6 13.5H18C19.729 13.5 20.5 14.271 20.5 16V17V18ZM17.75 17.001C17.75 17.415 17.414 17.751 17 17.751C16.586 17.751 16.25 17.415 16.25 17.001C16.25 16.587 16.586 16.251 17 16.251C17.414 16.251 17.75 16.587 17.75 17.001ZM14.75 17.001C14.75 17.415 14.414 17.751 14 17.751C13.586 17.751 13.25 17.415 13.25 17.001C13.25 16.587 13.586 16.251 14 16.251C14.414 16.251 14.75 16.587 14.75 17.001Z" />
</svg>
