<svg viewBox="0 0 24 24" fill="currentColor" stroke="currentColor" xmlns="http://www.w3.org/2000/svg">
<path d="M20.916 16.5779C21.292 15.0559 21.5 13.486 21.5 12C21.5 6.762 17.238 2.5 12 2.5C6.762 2.5 2.5 6.762 2.5 12C2.5 13.486 2.70798 15.0561 3.08398 16.5791C3.08998 16.6101 3.0899 16.6411 3.0979 16.6721C3.1149 16.7421 3.13901 16.806 3.15601 16.876C3.17901 16.961 3.19499 17.049 3.21899 17.134C3.22399 17.154 3.23812 17.168 3.24512 17.186C3.33912 17.529 3.42911 17.8769 3.53711 18.2029L4.01001 19.7361C4.34101 20.8081 5.3331 21.5 6.4021 21.5C6.6431 21.5 6.8881 21.4651 7.1311 21.3911L8.09497 21.0959C8.47897 20.9789 8.79393 20.72 8.98193 20.366C9.16993 20.012 9.21004 19.6061 9.09204 19.2241L7.60791 14.3679C7.48991 13.9849 7.22995 13.6699 6.87695 13.4819C6.52295 13.2949 6.11791 13.255 5.73291 13.373L4.79102 13.6621C4.34302 13.7991 3.9649 14.058 3.6709 14.386C3.5599 13.58 3.50195 12.778 3.50195 12.001C3.50195 7.31398 7.31495 3.50098 12.002 3.50098C16.689 3.50098 20.502 7.31398 20.502 12.001C20.502 12.778 20.444 13.58 20.333 14.386C20.04 14.057 19.6619 13.7991 19.2129 13.6621L18.271 13.373C17.887 13.256 17.481 13.2949 17.127 13.4819C16.773 13.6699 16.514 13.9849 16.396 14.3689L14.9131 19.2241C14.7951 19.6071 14.834 20.0129 15.022 20.3669C15.21 20.7209 15.525 20.9809 15.908 21.0969L16.873 21.3921C17.115 21.4661 17.3601 21.501 17.6021 21.501C18.6701 21.501 19.6629 20.8101 19.9939 19.7371L20.4661 18.209C20.5781 17.868 20.6711 17.5151 20.7661 17.1631C20.7701 17.1521 20.7819 17.146 20.7859 17.135C20.8089 17.051 20.8259 16.9649 20.8479 16.8799C20.8659 16.8099 20.89 16.7441 20.907 16.6731C20.91 16.6411 20.91 16.6099 20.916 16.5779ZM5.08203 14.6169L6.02393 14.3279C6.07293 14.3129 6.1229 14.3059 6.1709 14.3059C6.2519 14.3059 6.33203 14.326 6.40503 14.365C6.52303 14.428 6.60895 14.5329 6.64795 14.6599L8.13306 19.5161C8.17206 19.6431 8.15795 19.779 8.09595 19.896C8.03395 20.014 7.92905 20.1009 7.80005 20.1399L6.83496 20.4351C6.05096 20.6771 5.20689 20.2309 4.96289 19.4419L4.48706 17.8999C4.35006 17.4859 4.23109 17.0579 4.12109 16.6279C4.09709 16.5349 4.07598 16.4409 4.05298 16.3479C3.91598 15.5889 4.35003 14.8409 5.08203 14.6169ZM19.5081 17.908L19.0349 19.4409C18.7909 20.2299 17.9481 20.6761 17.1631 20.4341L16.197 20.1389C16.069 20.0999 15.9651 20.014 15.9021 19.895C15.8401 19.777 15.826 19.6419 15.866 19.5139L17.3501 14.6589C17.3891 14.5309 17.475 14.426 17.593 14.363C17.666 14.324 17.7459 14.304 17.8269 14.304C17.8759 14.304 17.9261 14.3109 17.9741 14.3259L18.916 14.615C19.648 14.839 20.0821 15.587 19.9431 16.344C19.9201 16.438 19.9 16.532 19.875 16.625C19.765 17.056 19.646 17.483 19.509 17.897C19.51 17.901 19.5091 17.905 19.5081 17.908Z" />
</svg>
