<svg viewBox="0 0 24 24" fill="currentColor" stroke="currentColor" xmlns="http://www.w3.org/2000/svg">
<path d="M18 6.5H12.5V6C12.5 5.449 12.948 5 13.5 5H14.5C15.603 5 16.5 4.103 16.5 3C16.5 2.724 16.276 2.5 16 2.5C15.724 2.5 15.5 2.724 15.5 3C15.5 3.551 15.052 4 14.5 4H13.5C12.397 4 11.5 4.897 11.5 6V6.5H6C3.71 6.5 2.5 7.71 2.5 10V17C2.5 19.29 3.71 20.5 6 20.5H18C20.29 20.5 21.5 19.29 21.5 17V10C21.5 7.71 20.29 6.5 18 6.5ZM20.5 17C20.5 18.729 19.729 19.5 18 19.5H6C4.271 19.5 3.5 18.729 3.5 17V10C3.5 8.271 4.271 7.5 6 7.5H18C19.729 7.5 20.5 8.271 20.5 10V17ZM18.75 11C18.75 11.276 18.526 11.5 18.25 11.5H16.5C16.224 11.5 16 11.276 16 11C16 10.724 16.224 10.5 16.5 10.5H18.25C18.526 10.5 18.75 10.724 18.75 11ZM17.5 14C17.5 14.276 17.276 14.5 17 14.5H15.5C15.224 14.5 15 14.276 15 14C15 13.724 15.224 13.5 15.5 13.5H17C17.276 13.5 17.5 13.724 17.5 14ZM12.25 11C12.25 10.586 12.586 10.25 13 10.25C13.414 10.25 13.75 10.586 13.75 11C13.75 11.414 13.414 11.75 13 11.75C12.586 11.75 12.25 11.414 12.25 11ZM8.75 11C8.75 10.586 9.086 10.25 9.5 10.25C9.914 10.25 10.25 10.586 10.25 11C10.25 11.414 9.914 11.75 9.5 11.75C9.086 11.75 8.75 11.414 8.75 11ZM6.75 11C6.75 11.414 6.414 11.75 6 11.75C5.586 11.75 5.25 11.414 5.25 11C5.25 10.586 5.586 10.25 6 10.25C6.414 10.25 6.75 10.586 6.75 11ZM8.5 14.75C8.086 14.75 7.75 14.414 7.75 14C7.75 13.586 8.086 13.25 8.5 13.25C8.914 13.25 9.25 13.586 9.25 14C9.25 14.414 8.914 14.75 8.5 14.75ZM11.25 14C11.25 13.586 11.586 13.25 12 13.25C12.414 13.25 12.75 13.586 12.75 14C12.75 14.414 12.414 14.75 12 14.75C11.586 14.75 11.25 14.414 11.25 14ZM15.5 17C15.5 17.276 15.276 17.5 15 17.5H9C8.724 17.5 8.5 17.276 8.5 17C8.5 16.724 8.724 16.5 9 16.5H15C15.276 16.5 15.5 16.724 15.5 17Z" />
</svg>
