<svg viewBox="0 0 24 24" fill="currentColor" stroke="currentColor" xmlns="http://www.w3.org/2000/svg">
<path d="M19.3701 12.13C18.6401 10.95 16.9301 7.72001 16.8301 3.38C16.8201 2.89 16.4301 2.5 15.9401 2.5H8.07011C7.58011 2.5 7.1901 2.89 7.1801 3.38C7.0801 7.72001 5.37012 10.95 4.64012 12.13C4.47012 12.41 4.4601 12.75 4.6201 13.03C4.7801 13.31 5.08011 13.49 5.41011 13.49H11.5101V20.49H9.51011C9.23011 20.49 9.01011 20.71 9.01011 20.99C9.01011 21.27 9.23011 21.49 9.51011 21.49H14.5101C14.7901 21.49 15.0101 21.27 15.0101 20.99C15.0101 20.71 14.7901 20.49 14.5101 20.49H12.5101V13.49H15.0101V15.99C15.0101 16.27 15.2301 16.49 15.5101 16.49C15.7901 16.49 16.0101 16.27 16.0101 15.99V13.49H18.6101C18.9401 13.49 19.2401 13.31 19.4001 13.03C19.5601 12.75 19.5501 12.4 19.3801 12.12L19.3701 12.13ZM8.17009 3.5H15.8301C15.8901 5.87 16.4201 7.9 17.0101 9.5H7.0001C7.5901 7.9 8.1101 5.87 8.1801 3.5H8.17009ZM15.5601 12.51C15.5601 12.51 15.5201 12.5 15.5001 12.5C15.4801 12.5 15.4601 12.5 15.4401 12.51H12.1201C12.1201 12.51 12.0401 12.5 12.0001 12.5C11.9601 12.5 11.9101 12.51 11.8701 12.53L5.55009 12.55C5.83009 12.09 6.2101 11.39 6.5901 10.5H17.4001C17.7701 11.36 18.1401 12.05 18.4101 12.5H15.5501L15.5601 12.51Z" />
</svg>
