<svg viewBox="0 0 24 24" fill="currentColor" stroke="currentColor" xmlns="http://www.w3.org/2000/svg">
<path d="M21 15.5H20.5V7C20.5 4.71 19.29 3.5 17 3.5H7C4.71 3.5 3.5 4.71 3.5 7V15.5H3C2.724 15.5 2.5 15.724 2.5 16V17C2.5 18.612 3.388 19.5 5 19.5H19C20.612 19.5 21.5 18.612 21.5 17V16C21.5 15.724 21.276 15.5 21 15.5ZM4.5 7C4.5 5.271 5.271 4.5 7 4.5H17C18.729 4.5 19.5 5.271 19.5 7V15.5H4.5V7ZM20.5 17C20.5 18.051 20.052 18.5 19 18.5H5C3.948 18.5 3.5 18.051 3.5 17V16.5H20.5V17ZM10.354 8.354L8.70801 10L10.354 11.646C10.549 11.841 10.549 12.158 10.354 12.353C10.256 12.451 10.128 12.499 10 12.499C9.872 12.499 9.744 12.45 9.646 12.353L7.646 10.353C7.451 10.158 7.451 9.841 7.646 9.646L9.646 7.646C9.841 7.451 10.158 7.451 10.353 7.646C10.548 7.841 10.549 8.158 10.354 8.354ZM16.354 9.646C16.549 9.841 16.549 10.158 16.354 10.353L14.354 12.353C14.256 12.451 14.128 12.499 14 12.499C13.872 12.499 13.744 12.45 13.646 12.353C13.451 12.158 13.451 11.841 13.646 11.646L15.292 10L13.646 8.354C13.451 8.159 13.451 7.84197 13.646 7.64697C13.841 7.45197 14.158 7.45197 14.353 7.64697L16.354 9.646Z" />
</svg>
