<svg viewBox="0 0 24 24" fill="currentColor" stroke="currentColor" xmlns="http://www.w3.org/2000/svg">
<path d="M11.7061 2.503C9.80305 2.453 7.99107 3.15005 6.62207 4.48005C5.25407 5.81005 4.5 7.59305 4.5 9.50105C4.5 11.194 5.22391 12.8631 6.71191 14.6021C7.46591 15.4851 8 16.1961 8 17.3231V18.0001C8 20.0931 9.40698 21.5001 11.501 21.5001C13.595 21.5001 15.001 20.0931 15.001 18.0001V17.317C15.001 16.175 15.5401 15.4592 16.2461 14.6412C17.3811 13.3252 18.536 11.6781 18.499 9.43513C18.438 5.71813 15.3901 2.608 11.7061 2.503ZM11.5 20.5001C9.935 20.5001 9 19.5651 9 18.0001V17.5001H14.001V18.0001C14.001 19.5651 13.066 20.5001 11.5 20.5001ZM15.488 13.9881C14.86 14.7171 14.2899 15.4691 14.0859 16.5001H12V13.2071L13.854 11.3531C14.049 11.1581 14.049 10.8411 13.854 10.6461C13.659 10.4511 13.342 10.4511 13.147 10.6461L11.501 12.2921L9.85498 10.6461C9.65998 10.4511 9.34295 10.4511 9.14795 10.6461C8.95295 10.8411 8.95295 11.1581 9.14795 11.3531L11.002 13.2071V16.5001H8.91504C8.71004 15.4851 8.1399 14.731 7.4729 13.951C6.1459 12.401 5.50098 10.9451 5.50098 9.50007C5.50098 7.86507 6.14709 6.33609 7.31909 5.19709C8.44909 4.09909 9.927 3.50007 11.5 3.50007C11.56 3.50007 11.618 3.501 11.678 3.503C14.836 3.593 17.448 6.26198 17.5 9.45198C17.53 11.358 16.5 12.8151 15.488 13.9881Z" />
</svg>
