<svg viewBox="0 0 24 24" fill="currentColor" stroke="currentColor" xmlns="http://www.w3.org/2000/svg">
<path d="M10.3001 13.6989C10.4951 13.8939 10.4951 14.2109 10.3001 14.4059L9.30691 15.3978C9.20891 15.4958 9.08091 15.5438 8.95291 15.5438C8.82491 15.5438 8.69715 15.4948 8.59915 15.3978C8.40415 15.2028 8.40415 14.8858 8.59915 14.6908L9.59207 13.6989C9.78807 13.5029 10.1041 13.5029 10.3001 13.6989ZM19.8469 11.4899L19.6961 11.641C19.6871 11.651 19.6841 11.664 19.6751 11.673C19.6661 11.682 19.6531 11.686 19.6431 11.694L18.9141 12.422C17.8531 13.484 16.779 13.995 15.585 13.995C15.403 13.995 15.2139 13.967 15.0259 13.943L7.07107 20.8248C6.55307 21.2728 5.90892 21.495 5.26492 21.495C4.55392 21.495 3.84508 21.2238 3.31008 20.6888C2.29008 19.6688 2.2311 18.0169 3.1741 16.9269L10.0491 8.97986C9.8681 7.55486 10.3509 6.30986 11.5769 5.08386L12.51 4.15076C14.704 1.95676 17.6529 1.95576 19.8469 4.15076C20.9559 5.26076 21.528 6.55795 21.499 7.90296C21.472 9.19696 20.8999 10.4359 19.8469 11.4899ZM13.406 4.69885L19.3011 10.5939C20.056 9.76987 20.479 8.84089 20.499 7.88489C20.521 6.81889 20.0519 5.77296 19.1399 4.86096C17.3739 3.09496 15.198 3.05385 13.406 4.69885ZM14.1341 13.3939L10.607 9.86682L3.92996 17.5839C3.32796 18.2789 3.36711 19.3338 4.01711 19.9838C4.66811 20.6338 5.72104 20.6719 6.41604 20.0699L14.1341 13.3939ZM18.2061 11.7159L18.6079 11.3148L12.6861 5.39295L12.2849 5.79382C11.0179 7.06082 10.9301 8.09787 11.0401 8.88587L15.115 12.9608C15.901 13.0718 16.9391 12.9829 18.2061 11.7159Z" />
</svg>
