<svg viewBox="0 0 24 24" fill="currentColor" stroke="currentColor" xmlns="http://www.w3.org/2000/svg">
<path d="M19.5 11C19.5 14.967 16.402 18.2161 12.5 18.4751V21C12.5 21.276 12.276 21.5 12 21.5C11.724 21.5 11.5 21.276 11.5 21V18.468C11.024 18.436 10.5541 18.3749 10.1021 18.2529C9.83406 18.1819 9.67606 17.9071 9.74806 17.6411C9.82106 17.3751 10.1011 17.2181 10.3601 17.2871C10.8881 17.4281 11.44 17.5 12.001 17.5C15.585 17.5 18.501 14.584 18.501 11C18.501 10.724 18.725 10.5 19.001 10.5C19.277 10.5 19.5 10.724 19.5 11ZM13.3391 15.2971C14.7501 14.8571 15.8571 13.7511 16.2981 12.3391C16.3131 12.2911 16.3201 12.241 16.3201 12.19V12.1799C16.3201 11.9039 16.0961 11.6851 15.8201 11.6851C15.5911 11.6851 15.3971 11.843 15.3391 12.054C14.9971 13.133 14.157 13.9791 13.084 14.3291C12.855 14.3741 12.686 14.5771 12.686 14.8201C12.686 15.0961 12.9149 15.3201 13.1909 15.3201C13.2409 15.3201 13.2911 15.3121 13.3391 15.2971ZM21.354 3.35401L16.354 8.35401L16.353 8.35499L3.35304 21.355C3.25504 21.453 3.12703 21.501 2.99903 21.501C2.87103 21.501 2.74303 21.452 2.64503 21.355C2.45003 21.16 2.45003 20.843 2.64503 20.648L6.85011 16.4431C6.80011 16.3951 6.7441 16.3549 6.6941 16.3059C5.2781 14.8889 4.49806 13.006 4.49806 11.002C4.49806 10.726 4.72206 10.502 4.99806 10.502C5.27406 10.502 5.49806 10.726 5.49806 11.002C5.49806 12.738 6.17389 14.3711 7.40089 15.5991C7.45089 15.6491 7.50592 15.6891 7.55592 15.7371L8.96998 14.323C8.03998 13.478 7.49708 12.2759 7.49708 11.0029V7.00294C7.49708 5.81094 7.96407 4.68103 8.81007 3.82203C9.67507 2.97003 10.8051 2.50294 11.9971 2.50294C14.4141 2.50294 16.377 4.42195 16.478 6.81495L20.6441 2.64894C20.8391 2.45394 21.1561 2.45394 21.3511 2.64894C21.5461 2.84394 21.549 3.15801 21.354 3.35401ZM9.69703 13.596L15.5 7.79298V7.00001C15.5 5.07001 13.93 3.50001 12 3.50001C11.073 3.50001 10.192 3.86389 9.52101 4.52589C8.86501 5.19189 8.50001 6.07201 8.50001 7.00001V11C8.50001 12.006 8.95303 12.938 9.69703 13.596Z" />
</svg>
