<svg viewBox="0 0 24 24" fill="currentColor" stroke="currentColor" xmlns="http://www.w3.org/2000/svg">
<path d="M12.5 18.4751V21C12.5 21.276 12.276 21.5 12 21.5C11.724 21.5 11.5 21.276 11.5 21V18.4751C7.598 18.2161 4.5 14.967 4.5 11C4.5 10.724 4.724 10.5 5 10.5C5.276 10.5 5.5 10.724 5.5 11C5.5 14.584 8.416 17.5 12 17.5C15.584 17.5 18.5 14.584 18.5 11C18.5 10.724 18.724 10.5 19 10.5C19.276 10.5 19.5 10.724 19.5 11C19.5 14.967 16.402 18.2161 12.5 18.4751ZM7.5 11V7C7.5 4.519 9.519 2.5 12 2.5C14.481 2.5 16.5 4.519 16.5 7V11C16.5 13.481 14.481 15.5 12 15.5C9.519 15.5 7.5 13.481 7.5 11ZM8.5 11C8.5 12.93 10.07 14.5 12 14.5C13.93 14.5 15.5 12.93 15.5 11V7C15.5 5.07 13.93 3.5 12 3.5C10.07 3.5 8.5 5.07 8.5 7V11Z" />
</svg>
