<svg viewBox="0 0 24 24" fill="currentColor" stroke="currentColor" xmlns="http://www.w3.org/2000/svg">
<path d="M16 2.5H8C5.71 2.5 4.5 3.71 4.5 6V18C4.5 20.29 5.71 21.5 8 21.5H16C18.29 21.5 19.5 20.29 19.5 18V6C19.5 3.71 18.29 2.5 16 2.5ZM18.5 18C18.5 19.729 17.729 20.5 16 20.5H8C6.271 20.5 5.5 19.729 5.5 18V6C5.5 4.271 6.271 3.5 8 3.5H16C17.729 3.5 18.5 4.271 18.5 6V18ZM14 6C14 6.276 13.776 6.5 13.5 6.5H10.5C10.224 6.5 10 6.276 10 6C10 5.724 10.224 5.5 10.5 5.5H13.5C13.776 5.5 14 5.724 14 6ZM12.75 18C12.75 18.414 12.414 18.75 12 18.75C11.586 18.75 11.25 18.414 11.25 18C11.25 17.586 11.586 17.25 12 17.25C12.414 17.25 12.75 17.586 12.75 18Z" />
</svg>
