<svg viewBox="0 0 24 24" fill="currentColor" stroke="currentColor" xmlns="http://www.w3.org/2000/svg">
<path d="M12 2.5C7.233 2.5 4.5 5.233 4.5 10V14C4.5 18.767 7.233 21.5 12 21.5C16.767 21.5 19.5 18.767 19.5 14V10C19.5 5.233 16.767 2.5 12 2.5ZM12 7C12.552 7 13 7.449 13 8V9.5C13 10.051 12.552 10.5 12 10.5C11.448 10.5 11 10.051 11 9.5V8C11 7.449 11.448 7 12 7ZM18.5 14C18.5 19.372 14.965 20.5 12 20.5C9.035 20.5 5.5 19.372 5.5 14V10C5.5 4.927 8.652 3.63996 11.5 3.51196V6.07104C10.64 6.29504 10 7.071 10 8V9.5C10 10.603 10.897 11.5 12 11.5C13.103 11.5 14 10.603 14 9.5V8C14 7.071 13.36 6.29504 12.5 6.07104V3.51196C15.348 3.63996 18.5 4.926 18.5 10V14Z" />
</svg>
