<svg viewBox="0 0 24 24" fill="currentColor" stroke="currentColor" xmlns="http://www.w3.org/2000/svg">
<path d="M19 3.5H11.5C11.5 2.229 10.771 1.5 9.5 1.5H6.5C5.229 1.5 4.5 2.229 4.5 3.5V3.53491C2.542 3.70691 1.5 4.888 1.5 7V18C1.5 20.29 2.71 21.5 5 21.5C5.276 21.5 5.5 21.276 5.5 21C5.5 20.724 5.276 20.5 5 20.5C3.271 20.5 2.5 19.729 2.5 18V7C2.5 5.45 3.126 4.67503 4.5 4.53003V16.5C4.5 17.771 5.229 18.5 6.5 18.5H7.5V19C7.5 20.103 8.397 21 9.5 21H10.5C11.052 21 11.5 21.449 11.5 22C11.5 22.276 11.724 22.5 12 22.5C12.276 22.5 12.5 22.276 12.5 22C12.5 20.897 11.603 20 10.5 20H9.5C8.948 20 8.5 19.551 8.5 19V18.5H9.5C10.771 18.5 11.5 17.771 11.5 16.5V4.5H19C20.729 4.5 21.5 5.271 21.5 7V18C21.5 19.729 20.729 20.5 19 20.5H15C14.724 20.5 14.5 20.724 14.5 21C14.5 21.276 14.724 21.5 15 21.5H19C21.29 21.5 22.5 20.29 22.5 18V7C22.5 4.71 21.29 3.5 19 3.5ZM10.5 16.5C10.5 17.22 10.22 17.5 9.5 17.5H6.5C5.78 17.5 5.5 17.22 5.5 16.5V3.5C5.5 2.78 5.78 2.5 6.5 2.5H9.5C10.22 2.5 10.5 2.78 10.5 3.5V16.5ZM18 11.5C19.103 11.5 20 10.603 20 9.5C20 8.397 19.103 7.5 18 7.5H15C13.897 7.5 13 8.397 13 9.5C13 10.603 13.897 11.5 15 11.5H18ZM14 9.5C14 8.949 14.448 8.5 15 8.5H18C18.552 8.5 19 8.949 19 9.5C19 10.051 18.552 10.5 18 10.5H15C14.448 10.5 14 10.051 14 9.5ZM18.75 14C18.75 14.414 18.414 14.75 18 14.75C17.586 14.75 17.25 14.414 17.25 14C17.25 13.586 17.586 13.25 18 13.25C18.414 13.25 18.75 13.586 18.75 14ZM15 13.25C15.414 13.25 15.75 13.586 15.75 14C15.75 14.414 15.414 14.75 15 14.75C14.586 14.75 14.25 14.414 14.25 14C14.25 13.586 14.586 13.25 15 13.25ZM18.75 17C18.75 17.414 18.414 17.75 18 17.75C17.586 17.75 17.25 17.414 17.25 17C17.25 16.586 17.586 16.25 18 16.25C18.414 16.25 18.75 16.586 18.75 17ZM15 17.75C14.586 17.75 14.25 17.414 14.25 17C14.25 16.586 14.586 16.25 15 16.25C15.414 16.25 15.75 16.586 15.75 17C15.75 17.414 15.414 17.75 15 17.75Z" />
</svg>
