<svg viewBox="0 0 24 24" fill="currentColor" stroke="currentColor" xmlns="http://www.w3.org/2000/svg">
<path d="M14.5 11C14.5 11.276 14.276 11.5 14 11.5H10C9.724 11.5 9.5 11.276 9.5 11C9.5 10.724 9.724 10.5 10 10.5H14C14.276 10.5 14.5 10.724 14.5 11ZM19.5 7.75V11.343C19.5 12.527 19.0199 13.6869 18.1819 14.5249L14.793 17.9141C14.606 18.1001 14.5 18.3581 14.5 18.6211V21C14.5 21.276 14.276 21.5 14 21.5H10C9.724 21.5 9.5 21.276 9.5 21V18.6211C9.5 18.3581 9.39403 18.1001 9.20703 17.9141L5.81812 14.5249C4.98012 13.6869 4.5 12.527 4.5 11.343V7.75C4.5 7.061 5.061 6.5 5.75 6.5H8V3C8 2.724 8.224 2.5 8.5 2.5C8.776 2.5 9 2.724 9 3V6.5H15V3C15 2.724 15.224 2.5 15.5 2.5C15.776 2.5 16 2.724 16 3V6.5H18.25C18.939 6.5 19.5 7.061 19.5 7.75ZM18.5 7.75C18.5 7.612 18.388 7.5 18.25 7.5H5.75C5.612 7.5 5.5 7.612 5.5 7.75V11.343C5.5 12.264 5.8739 13.1661 6.5249 13.8181L9.91406 17.207C10.2861 17.579 10.5 18.0951 10.5 18.6211V20.5H13.5V18.6211C13.5 18.0951 13.7139 17.579 14.0859 17.207L17.4751 13.8181C18.1261 13.1661 18.5 12.264 18.5 11.343V7.75Z" />
</svg>
