<svg viewBox="0 0 24 24" fill="currentColor" stroke="currentColor" xmlns="http://www.w3.org/2000/svg">
<path d="M18 6.5H17.5V5C17.5 4.867 17.447 4.74 17.354 4.646L15.354 2.646C15.26 2.552 15.133 2.5 15 2.5H8C7.173 2.5 6.5 3.173 6.5 4V6.5H6C3.71 6.5 2.5 7.71 2.5 10V15.5C2.5 16.603 3.397 17.5 4.5 17.5H6.5V20C6.5 20.827 7.173 21.5 8 21.5H16C16.827 21.5 17.5 20.827 17.5 20V17.5H19.5C20.603 17.5 21.5 16.603 21.5 15.5V10C21.5 7.71 20.29 6.5 18 6.5ZM7.5 4C7.5 3.724 7.725 3.5 8 3.5H14.793L16.5 5.20703V6.5H7.5V4ZM16.5 20C16.5 20.276 16.275 20.5 16 20.5H8C7.725 20.5 7.5 20.276 7.5 20V15.5H16.5V20ZM20.5 15.5C20.5 16.051 20.052 16.5 19.5 16.5H17.5V15C17.5 14.724 17.276 14.5 17 14.5H7C6.724 14.5 6.5 14.724 6.5 15V16.5H4.5C3.948 16.5 3.5 16.051 3.5 15.5V10C3.5 8.271 4.271 7.5 6 7.5H18C19.729 7.5 20.5 8.271 20.5 10V15.5ZM17.75 11.002C17.75 11.416 17.414 11.752 17 11.752C16.586 11.752 16.25 11.416 16.25 11.002C16.25 10.588 16.586 10.252 17 10.252C17.414 10.252 17.75 10.587 17.75 11.002Z" />
</svg>
