<svg viewBox="0 0 24 24" fill="currentColor" stroke="currentColor" xmlns="http://www.w3.org/2000/svg">
<path d="M20.604 7.396C21.199 7.991 21.5 8.867 21.5 10V15.5C21.5 16.603 20.603 17.5 19.5 17.5H17.5V20C17.5 20.827 16.827 21.5 16 21.5H8C7.605 21.5 7.24104 21.353 6.94604 21.073C6.74605 20.883 6.73703 20.567 6.92603 20.366C7.11603 20.165 7.43306 20.1569 7.63306 20.3459C7.74106 20.4489 7.86202 20.499 7.99902 20.499H15.999C16.274 20.499 16.499 20.275 16.499 19.999V15.499H12.999C12.723 15.499 12.499 15.275 12.499 14.999C12.499 14.723 12.723 14.499 12.999 14.499H16.999C17.275 14.499 17.499 14.723 17.499 14.999V16.499H19.499C20.051 16.499 20.499 16.05 20.499 15.499V9.99902C20.499 9.14102 20.296 8.50303 19.895 8.10303C19.7 7.90803 19.7 7.591 19.895 7.396C20.09 7.201 20.408 7.201 20.604 7.396ZM7.35303 17.354L3.35303 21.354C3.25503 21.452 3.12702 21.5 2.99902 21.5C2.87102 21.5 2.74302 21.451 2.64502 21.354C2.45002 21.159 2.45002 20.842 2.64502 20.647L5.79102 17.501H4.49805C3.39505 17.501 2.49805 16.604 2.49805 15.501V10.001C2.49805 7.71098 3.70805 6.50098 5.99805 6.50098H6.49805V4.00098C6.49805 3.17398 7.17105 2.50098 7.99805 2.50098H14.998C15.131 2.50098 15.2581 2.55397 15.3521 2.64697L17.3521 4.64697C17.4461 4.74097 17.498 4.86798 17.498 5.00098V5.79395L20.644 2.64795C20.839 2.45295 21.1561 2.45295 21.3511 2.64795C21.5461 2.84295 21.5461 3.15998 21.3511 3.35498L17.3511 7.35498L17.3501 7.35596L9.35107 15.355L9.3501 15.356L7.35303 17.354C7.35403 17.353 7.35303 17.354 7.35303 17.354ZM7.79297 15.5H7.5V15.793L7.79297 15.5ZM7.5 6.5H16.5V5.20703L14.793 3.5H8C7.725 3.5 7.5 3.724 7.5 4V6.5ZM4.5 16.5H6.5V15C6.5 14.724 6.724 14.5 7 14.5H8.79297L15.793 7.5H6C4.271 7.5 3.5 8.271 3.5 10V15.5C3.5 16.051 3.948 16.5 4.5 16.5Z" />
</svg>
