<svg viewBox="0 0 24 24" fill="currentColor" stroke="currentColor" xmlns="http://www.w3.org/2000/svg">
<path d="M18 6.50004H10.0811L16.1589 4.47417C16.4209 4.38717 16.5621 4.10409 16.4751 3.84209C16.3871 3.58009 16.104 3.43892 15.842 3.52592L6.91992 6.50004H6C3.71 6.50004 2.5 7.71004 2.5 10V17C2.5 19.29 3.71 20.5 6 20.5H18C20.29 20.5 21.5 19.29 21.5 17V10C21.5 7.71004 20.29 6.50004 18 6.50004ZM20.5 17C20.5 18.729 19.729 19.5 18 19.5H6C4.271 19.5 3.5 18.729 3.5 17V10C3.5 8.27104 4.271 7.50004 6 7.50004H18C19.729 7.50004 20.5 8.27104 20.5 10V17ZM8.5 10.5C6.846 10.5 5.5 11.846 5.5 13.5C5.5 15.154 6.846 16.5 8.5 16.5C10.154 16.5 11.5 15.154 11.5 13.5C11.5 11.846 10.154 10.5 8.5 10.5ZM8.5 15.5C7.397 15.5 6.5 14.603 6.5 13.5C6.5 12.397 7.397 11.5 8.5 11.5C9.603 11.5 10.5 12.397 10.5 13.5C10.5 14.603 9.603 15.5 8.5 15.5ZM18.5 12C18.5 12.276 18.276 12.5 18 12.5H14C13.724 12.5 13.5 12.276 13.5 12C13.5 11.724 13.724 11.5 14 11.5H18C18.276 11.5 18.5 11.724 18.5 12ZM18.5 15C18.5 15.276 18.276 15.5 18 15.5H14C13.724 15.5 13.5 15.276 13.5 15C13.5 14.724 13.724 14.5 14 14.5H18C18.276 14.5 18.5 14.724 18.5 15Z" />
</svg>
