<svg viewBox="0 0 24 24" fill="currentColor" stroke="currentColor" xmlns="http://www.w3.org/2000/svg">
<path d="M17.2843 18.4894H6.26012C5.25428 18.4894 4.43604 17.6712 4.43604 16.6653V7.31054C4.43604 6.30469 5.25428 5.48645 6.26012 5.48645H17.2842C18.2901 5.48645 19.1083 6.30469 19.1083 7.31054V16.6654C19.1084 17.6712 18.2902 18.4894 17.2843 18.4894ZM6.26012 6.70251C5.92489 6.70251 5.65209 6.97523 5.65209 7.31054V16.6654C5.65209 17.0007 5.92489 17.2734 6.26012 17.2734H17.2842C17.6195 17.2734 17.8923 17.0007 17.8923 16.6654V7.31054C17.8923 6.97523 17.6195 6.70251 17.2842 6.70251H6.26012Z" />
<path d="M7.23083 6.63391C6.89504 6.63391 6.6228 6.36167 6.6228 6.02588V2.60803C6.6228 2.27223 6.89504 2 7.23083 2C7.56662 2 7.83886 2.27223 7.83886 2.60803V6.02588C7.83886 6.36167 7.56662 6.63391 7.23083 6.63391Z" />
<path d="M10.2587 6.63391C9.92287 6.63391 9.65063 6.36167 9.65063 6.02588V2.60803C9.65063 2.27223 9.92287 2 10.2587 2C10.5945 2 10.8667 2.27223 10.8667 2.60803V6.02588C10.8667 6.36167 10.5945 6.63391 10.2587 6.63391Z" />
<path d="M13.2863 6.63391C12.9505 6.63391 12.6782 6.36167 12.6782 6.02588V2.60803C12.6782 2.27223 12.9505 2 13.2863 2C13.622 2 13.8943 2.27223 13.8943 2.60803V6.02588C13.8943 6.36167 13.622 6.63391 13.2863 6.63391Z" />
<path d="M16.3138 6.63391C15.978 6.63391 15.7058 6.36167 15.7058 6.02588V2.60803C15.7058 2.27223 15.978 2 16.3138 2C16.6496 2 16.9219 2.27223 16.9219 2.60803V6.02588C16.9219 6.36167 16.6496 6.63391 16.3138 6.63391Z" />
<path d="M21.9181 8.05456H18.5004C18.1646 8.05456 17.8923 7.78232 17.8923 7.44653C17.8923 7.11074 18.1646 6.8385 18.5004 6.8385H21.9181C22.2539 6.8385 22.5262 7.11074 22.5262 7.44653C22.5262 7.78232 22.2539 8.05456 21.9181 8.05456Z" />
<path d="M21.9184 11.0823H18.5006C18.1648 11.0823 17.8926 10.81 17.8926 10.4742C17.8926 10.1384 18.1648 9.86621 18.5006 9.86621H21.9184C22.2542 9.86621 22.5264 10.1384 22.5264 10.4742C22.5264 10.81 22.2542 11.0823 21.9184 11.0823Z" />
<path d="M21.9184 14.1099H18.5006C18.1648 14.1099 17.8926 13.8376 17.8926 13.5018C17.8926 13.166 18.1648 12.8938 18.5006 12.8938H21.9184C22.2542 12.8938 22.5264 13.166 22.5264 13.5018C22.5264 13.8376 22.2542 14.1099 21.9184 14.1099Z" />
<path d="M21.9184 17.1373H18.5006C18.1648 17.1373 17.8926 16.8651 17.8926 16.5293C17.8926 16.1935 18.1648 15.9213 18.5006 15.9213H21.9184C22.2542 15.9213 22.5264 16.1935 22.5264 16.5293C22.5264 16.8651 22.2542 17.1373 21.9184 17.1373Z" />
<path d="M5.02588 8.05456H1.60803C1.27223 8.05456 1 7.78232 1 7.44653C1 7.11074 1.27223 6.8385 1.60803 6.8385H5.02588C5.36167 6.8385 5.63391 7.11074 5.63391 7.44653C5.63391 7.78232 5.36167 8.05456 5.02588 8.05456Z" />
<path d="M5.02588 11.0823H1.60803C1.27223 11.0823 1 10.81 1 10.4742C1 10.1384 1.27223 9.86621 1.60803 9.86621H5.02588C5.36167 9.86621 5.63391 10.1384 5.63391 10.4742C5.63391 10.81 5.36167 11.0823 5.02588 11.0823Z" />
<path d="M5.02588 14.1099H1.60803C1.27223 14.1099 1 13.8376 1 13.5018C1 13.166 1.27223 12.8938 1.60803 12.8938H5.02588C5.36167 12.8938 5.63391 13.166 5.63391 13.5018C5.63391 13.8376 5.36167 14.1099 5.02588 14.1099Z" />
<path d="M5.02588 17.1373H1.60803C1.27223 17.1373 1 16.8651 1 16.5293C1 16.1935 1.27223 15.9213 1.60803 15.9213H5.02588C5.36167 15.9213 5.63391 16.1935 5.63391 16.5293C5.63391 16.8651 5.36167 17.1373 5.02588 17.1373Z" />
<path d="M7.23083 22C6.89504 22 6.6228 21.7278 6.6228 21.392V17.9741C6.6228 17.6383 6.89504 17.3661 7.23083 17.3661C7.56662 17.3661 7.83886 17.6383 7.83886 17.9741V21.392C7.83886 21.7278 7.56662 22 7.23083 22Z" />
<path d="M10.2587 22C9.92287 22 9.65063 21.7278 9.65063 21.392V17.9741C9.65063 17.6383 9.92287 17.3661 10.2587 17.3661C10.5945 17.3661 10.8667 17.6383 10.8667 17.9741V21.392C10.8667 21.7278 10.5945 22 10.2587 22Z" />
<path d="M13.2863 22C12.9505 22 12.6782 21.7278 12.6782 21.392V17.9741C12.6782 17.6383 12.9505 17.3661 13.2863 17.3661C13.622 17.3661 13.8943 17.6383 13.8943 17.9741V21.392C13.8943 21.7278 13.622 22 13.2863 22Z" />
<path d="M16.3138 22C15.978 22 15.7058 21.7278 15.7058 21.392V17.9741C15.7058 17.6383 15.978 17.3661 16.3138 17.3661C16.6496 17.3661 16.9219 17.6383 16.9219 17.9741V21.392C16.9219 21.7278 16.6496 22 16.3138 22Z" />
</svg>
