<svg viewBox="0 0 24 24" fill="currentColor" stroke="currentColor" xmlns="http://www.w3.org/2000/svg">
<path d="M15.5 2.5H10.1211C9.59509 2.5 9.07903 2.71294 8.70703 3.08594L5.58594 6.20703C5.21394 6.57903 5 7.09509 5 7.62109V18C5 20.29 6.21 21.5 8.5 21.5H15.5C17.79 21.5 19 20.29 19 18V6C19 3.71 17.79 2.5 15.5 2.5ZM18 18C18 19.729 17.229 20.5 15.5 20.5H8.5C6.771 20.5 6 19.729 6 18V7.62109C6 7.35809 6.10597 7.10006 6.29297 6.91406L9.41406 3.79297C9.60106 3.60697 9.85809 3.5 10.1211 3.5H15.5C17.229 3.5 18 4.271 18 6V18ZM16 7V9.5C16 9.776 15.776 10 15.5 10C15.224 10 15 9.776 15 9.5V7C15 6.724 15.224 6.5 15.5 6.5C15.776 6.5 16 6.724 16 7ZM13 7V9.5C13 9.776 12.776 10 12.5 10C12.224 10 12 9.776 12 9.5V7C12 6.724 12.224 6.5 12.5 6.5C12.776 6.5 13 6.724 13 7ZM10 7V9.5C10 9.776 9.776 10 9.5 10C9.224 10 9 9.776 9 9.5V7C9 6.724 9.224 6.5 9.5 6.5C9.776 6.5 10 6.724 10 7Z" />
</svg>
