<svg viewBox="0 0 24 24" fill="currentColor" stroke="currentColor" xmlns="http://www.w3.org/2000/svg">
<path d="M21.5 9V6C21.5 3.71 20.29 2.5 18 2.5H6C3.71 2.5 2.5 3.71 2.5 6V9C2.5 10.435 2.97604 11.445 3.89404 12C2.97604 12.555 2.5 13.565 2.5 15V18C2.5 20.29 3.71 21.5 6 21.5H18C20.29 21.5 21.5 20.29 21.5 18V15C21.5 13.565 21.024 12.555 20.106 12C21.024 11.445 21.5 10.435 21.5 9ZM20.5 15V18C20.5 19.729 19.729 20.5 18 20.5H6C4.271 20.5 3.5 19.729 3.5 18V15C3.5 13.271 4.271 12.5 6 12.5H18C19.729 12.5 20.5 13.271 20.5 15ZM20.5 9C20.5 10.729 19.729 11.5 18 11.5H6C4.271 11.5 3.5 10.729 3.5 9V6C3.5 4.271 4.271 3.5 6 3.5H18C19.729 3.5 20.5 4.271 20.5 6V9ZM18.25 7.5C18.25 7.914 17.914 8.25 17.5 8.25C17.086 8.25 16.75 7.914 16.75 7.5C16.75 7.086 17.086 6.75 17.5 6.75C17.914 6.75 18.25 7.086 18.25 7.5ZM15.25 7.5C15.25 7.914 14.914 8.25 14.5 8.25C14.086 8.25 13.75 7.914 13.75 7.5C13.75 7.086 14.086 6.75 14.5 6.75C14.914 6.75 15.25 7.086 15.25 7.5ZM16.75 16.5C16.75 16.086 17.086 15.75 17.5 15.75C17.914 15.75 18.25 16.086 18.25 16.5C18.25 16.914 17.914 17.25 17.5 17.25C17.086 17.25 16.75 16.914 16.75 16.5ZM13.75 16.5C13.75 16.086 14.086 15.75 14.5 15.75C14.914 15.75 15.25 16.086 15.25 16.5C15.25 16.914 14.914 17.25 14.5 17.25C14.086 17.25 13.75 16.914 13.75 16.5Z" />
</svg>
