<svg viewBox="0 0 24 24" fill="currentColor" stroke="currentColor" xmlns="http://www.w3.org/2000/svg">
<path d="M18.9141 7.20703L14.793 3.08594C14.421 2.71294 13.9049 2.5 13.3789 2.5H8C5.71 2.5 4.5 3.71 4.5 6V18C4.5 20.29 5.71 21.5 8 21.5H16C18.29 21.5 19.5 20.29 19.5 18V8.62109C19.5 8.09509 19.2861 7.57903 18.9141 7.20703ZM18.5 18C18.5 19.729 17.729 20.5 16 20.5H8C6.271 20.5 5.5 19.729 5.5 18V6C5.5 4.271 6.271 3.5 8 3.5H13.3789C13.6419 3.5 13.8999 3.60697 14.0859 3.79297L18.207 7.91406C18.394 8.10006 18.5 8.35809 18.5 8.62109V18ZM14.5 9.5H9.5C8.229 9.5 7.5 10.229 7.5 11.5V16.5C7.5 17.771 8.229 18.5 9.5 18.5H14.5C15.771 18.5 16.5 17.771 16.5 16.5V11.5C16.5 10.229 15.771 9.5 14.5 9.5ZM15.5 11.5V13.5H12.5V10.5H14.5C15.22 10.5 15.5 10.78 15.5 11.5ZM8.5 16.5V11.5C8.5 10.78 8.78 10.5 9.5 10.5H11.5V17.5H9.5C8.78 17.5 8.5 17.22 8.5 16.5ZM14.5 17.5H12.5V14.5H15.5V16.5C15.5 17.22 15.22 17.5 14.5 17.5Z" />
</svg>
