<svg viewBox="0 0 24 24" fill="currentColor" stroke="currentColor" xmlns="http://www.w3.org/2000/svg">
<path d="M18.9141 7.20703L14.793 3.08594C14.421 2.71294 13.9049 2.5 13.3789 2.5H8C5.71 2.5 4.5 3.71 4.5 6V18C4.5 20.29 5.71 21.5 8 21.5H16C18.29 21.5 19.5 20.29 19.5 18V8.62109C19.5 8.09509 19.2861 7.57903 18.9141 7.20703ZM18.5 18C18.5 19.729 17.729 20.5 16 20.5H8C6.271 20.5 5.5 19.729 5.5 18V6C5.5 4.271 6.271 3.5 8 3.5H13.3789C13.6419 3.5 13.8999 3.60697 14.0859 3.79297L18.207 7.91406C18.394 8.10006 18.5 8.35809 18.5 8.62109V18ZM12.5 10V16C12.5 16.276 12.276 16.5 12 16.5C11.724 16.5 11.5 16.276 11.5 16V11.187L10.8501 11.822C10.6521 12.015 10.3351 12.012 10.1431 11.813C9.95007 11.615 9.95388 11.299 10.1509 11.106L11.6509 9.64307C11.7959 9.50307 12.0091 9.46204 12.1951 9.54004C12.3811 9.61804 12.5 9.799 12.5 10Z" />
</svg>
