<svg viewBox="0 0 24 24" fill="currentColor" stroke="currentColor" xmlns="http://www.w3.org/2000/svg">
<path d="M18.9141 7.20703L14.793 3.08594C14.421 2.71294 13.9049 2.5 13.3789 2.5H8C5.71 2.5 4.5 3.71 4.5 6V18C4.5 20.29 5.71 21.5 8 21.5H16C18.29 21.5 19.5 20.29 19.5 18V8.62109C19.5 8.09509 19.2861 7.57903 18.9141 7.20703ZM18.5 18C18.5 19.729 17.729 20.5 16 20.5H8C6.271 20.5 5.5 19.729 5.5 18V6C5.5 4.271 6.271 3.5 8 3.5H13.3789C13.6419 3.5 13.8999 3.60697 14.0859 3.79297L18.207 7.91406C18.394 8.10006 18.5 8.35809 18.5 8.62109V18ZM14.6431 16C14.6431 16.276 14.4191 16.5 14.1431 16.5H10.4431C10.2421 16.5 10.0599 16.3801 9.98193 16.1941C9.90393 16.0091 9.94396 15.7949 10.085 15.6509C10.085 15.6509 11.1691 14.5361 12.7671 12.9331C13.4371 12.2621 13.5719 11.4221 13.0879 10.9341C12.7459 10.5901 12.312 10.4441 11.865 10.5181C11.437 10.5911 11.066 10.859 10.894 11.219C10.777 11.469 10.477 11.5731 10.228 11.4561C9.97903 11.3371 9.87294 11.0391 9.99194 10.7891C10.3009 10.1401 10.954 9.65798 11.697 9.53198C12.467 9.40298 13.2301 9.656 13.7981 10.229C14.6881 11.125 14.5521 12.5589 13.4751 13.6379C12.7301 14.3869 12.0961 15.028 11.6331 15.498H14.144C14.419 15.5 14.6431 15.724 14.6431 16Z" />
</svg>
