<svg viewBox="0 0 24 24" fill="currentColor" stroke="currentColor" xmlns="http://www.w3.org/2000/svg">
<path d="M16 2.5H8C5.71 2.5 4.5 3.71 4.5 6V18C4.5 20.29 5.71 21.5 8 21.5H16C18.29 21.5 19.5 20.29 19.5 18V6C19.5 3.71 18.29 2.5 16 2.5ZM18.5 18C18.5 19.729 17.729 20.5 16 20.5H8C6.271 20.5 5.5 19.729 5.5 18V6C5.5 4.271 6.271 3.5 8 3.5H16C17.729 3.5 18.5 4.271 18.5 6V18ZM12 10.5C9.794 10.5 8 12.294 8 14.5C8 16.706 9.794 18.5 12 18.5C14.206 18.5 16 16.706 16 14.5C16 12.294 14.206 10.5 12 10.5ZM12 17.5C10.346 17.5 9 16.154 9 14.5C9 12.846 10.346 11.5 12 11.5C13.654 11.5 15 12.846 15 14.5C15 16.154 13.654 17.5 12 17.5ZM11.25 7.00195C11.25 6.58795 11.586 6.25195 12 6.25195C12.414 6.25195 12.75 6.58795 12.75 7.00195C12.75 7.41595 12.414 7.75195 12 7.75195C11.586 7.75195 11.25 7.41595 11.25 7.00195ZM13 14.5C13 15.052 12.552 15.5 12 15.5C11.448 15.5 11 15.052 11 14.5C11 13.948 11.448 13.5 12 13.5C12.552 13.5 13 13.948 13 14.5Z" />
</svg>
