<svg viewBox="0 0 24 24" fill="currentColor" stroke="currentColor" xmlns="http://www.w3.org/2000/svg">
<path d="M14.5 6C14.5 6.276 14.276 6.5 14 6.5H10C9.724 6.5 9.5 6.276 9.5 6C9.5 5.724 9.724 5.5 10 5.5H14C14.276 5.5 14.5 5.724 14.5 6ZM20.5 6V18C20.5 20.29 19.29 21.5 17 21.5H7C4.71 21.5 3.5 20.29 3.5 18V6C3.5 3.71 4.71 2.5 7 2.5H17C19.29 2.5 20.5 3.71 20.5 6ZM19.5 6C19.5 4.271 18.729 3.5 17 3.5H7C5.271 3.5 4.5 4.271 4.5 6V18C4.5 19.729 5.271 20.5 7 20.5H17C18.729 20.5 19.5 19.729 19.5 18V6ZM12 17.25C11.586 17.25 11.25 17.586 11.25 18C11.25 18.414 11.586 18.75 12 18.75C12.414 18.75 12.75 18.414 12.75 18C12.75 17.586 12.414 17.25 12 17.25Z" />
</svg>
