<svg viewBox="0 0 24 24" fill="currentColor" stroke="currentColor" xmlns="http://www.w3.org/2000/svg">
<path d="M21.2319 7.77098L18.77 3.49998C18.503 3.03698 18.0718 2.7071 17.5558 2.5681C17.0428 2.4301 16.503 2.50105 16.04 2.76805L14.2971 3.77586C13.7251 4.10686 13.3841 4.68097 13.3181 5.29197L3.58295 11.917C2.51295 12.651 2.18392 14.106 2.83392 15.229L3.09198 15.677C3.54898 16.476 4.39505 16.9319 5.26605 16.9319C5.62605 16.9319 5.99095 16.8539 6.33295 16.6899L10.8659 14.5239L7.57489 20.7649C7.44589 21.0099 7.53987 21.3119 7.78387 21.4409C7.85787 21.4799 7.93803 21.499 8.01703 21.499C8.19603 21.499 8.36992 21.4019 8.45892 21.2319L11.999 14.518L15.5629 21.2329C15.6919 21.4779 15.997 21.5699 16.239 21.4399C16.483 21.3109 16.576 21.0079 16.446 20.7639L12.674 13.6589L16.9728 11.605C17.0608 11.643 17.1489 11.681 17.2429 11.706C17.4149 11.752 17.5899 11.7749 17.7639 11.7749C18.1099 11.7749 18.452 11.6841 18.759 11.5061L20.499 10.5C21.454 9.94998 21.7819 8.72498 21.2319 7.77098ZM9.14203 14.2409L7.1059 10.7309L13.5099 6.37303C13.5309 6.41503 13.5441 6.45993 13.5681 6.50193L16.0319 10.7771C16.0589 10.8231 16.094 10.862 16.124 10.906L9.14203 14.2409ZM5.90204 15.789C5.20204 16.125 4.3469 15.8589 3.9599 15.1799L3.69989 14.729C3.30989 14.055 3.50789 13.1819 4.14789 12.7429L6.27582 11.2939L8.23602 14.6731L5.90204 15.789ZM19.9999 9.63694L18.2609 10.643C18.0289 10.776 17.7608 10.8109 17.5038 10.7429C17.2458 10.6739 17.0309 10.5091 16.8989 10.2781L14.435 6.00291H14.434C14.16 5.52791 14.324 4.91805 14.798 4.64305L16.541 3.63499C16.695 3.54599 16.865 3.50096 17.038 3.50096C17.125 3.50096 17.212 3.51189 17.298 3.53489C17.556 3.60389 17.771 3.76898 17.903 3.99998L20.3649 8.27098C20.6419 8.74798 20.4769 9.36094 19.9999 9.63694Z" />
</svg>
