<svg viewBox="0 0 24 24" fill="currentColor" stroke="currentColor" xmlns="http://www.w3.org/2000/svg">
<path d="M18 3.5H6C4.403 3.5 2.5 4.14696 2.5 7.23096V14.769C2.5 17.852 4.403 18.5 6 18.5H18C19.597 18.5 21.5 17.853 21.5 14.769V7.23096C21.5 4.14696 19.597 3.5 18 3.5ZM20.5 14.769C20.5 16.658 19.729 17.5 18 17.5H6C4.271 17.5 3.5 16.658 3.5 14.769V7.23096C3.5 5.34196 4.271 4.5 6 4.5H18C19.729 4.5 20.5 5.34196 20.5 7.23096V14.769ZM17.5 21C17.5 21.276 17.276 21.5 17 21.5H7C6.724 21.5 6.5 21.276 6.5 21C6.5 20.724 6.724 20.5 7 20.5H17C17.276 20.5 17.5 20.724 17.5 21ZM14.842 9.82788L11.6941 7.9021C11.2431 7.6251 10.6981 7.61602 10.2361 7.87402C9.77508 8.13202 9.50098 8.60093 9.50098 9.12793V12.874C9.50098 13.401 9.77508 13.8699 10.2361 14.1279C10.4591 14.2529 10.6999 14.3149 10.9419 14.3149C11.2019 14.3149 11.4611 14.2431 11.6941 14.1001L14.842 12.1741C15.254 11.9221 15.5 11.484 15.5 11.002C15.5 10.52 15.254 10.0799 14.842 9.82788ZM14.3201 11.3191L11.1721 13.2461C10.9721 13.3691 10.7931 13.2929 10.7251 13.2539C10.6581 13.2159 10.5 13.104 10.5 12.873V9.12695C10.5 8.89595 10.6571 8.78309 10.7251 8.74609C10.7651 8.72309 10.8441 8.68701 10.9441 8.68701C11.0121 8.68701 11.0901 8.70391 11.1731 8.75391L14.321 10.6809C14.483 10.7799 14.501 10.937 14.501 11C14.501 11.063 14.4821 11.2201 14.3201 11.3191Z" />
</svg>
