<svg viewBox="0 0 24 24" fill="currentColor" stroke="currentColor" xmlns="http://www.w3.org/2000/svg">
<path d="M18 6.50001H13.207L16.353 3.35401C16.548 3.15901 16.548 2.84198 16.353 2.64698C16.158 2.45198 15.841 2.45198 15.646 2.64698L12 6.29298L8.354 2.64698C8.159 2.45198 7.84197 2.45198 7.64697 2.64698C7.45197 2.84198 7.45197 3.15901 7.64697 3.35401L10.793 6.50001H6C3.71 6.50001 2.5 7.71001 2.5 10V18C2.5 20.29 3.71 21.5 6 21.5H18C20.29 21.5 21.5 20.29 21.5 18V10C21.5 7.71001 20.29 6.50001 18 6.50001ZM20.5 18C20.5 19.729 19.729 20.5 18 20.5H6C4.271 20.5 3.5 19.729 3.5 18V10C3.5 8.27101 4.271 7.50001 6 7.50001H18C19.729 7.50001 20.5 8.27101 20.5 10V18ZM13.5 9.50001H7.5C6.229 9.50001 5.5 10.229 5.5 11.5V16.5C5.5 17.771 6.229 18.5 7.5 18.5H13.5C14.771 18.5 15.5 17.771 15.5 16.5V11.5C15.5 10.229 14.771 9.50001 13.5 9.50001ZM14.5 16.5C14.5 17.22 14.22 17.5 13.5 17.5H7.5C6.78 17.5 6.5 17.22 6.5 16.5V11.5C6.5 10.78 6.78 10.5 7.5 10.5H13.5C14.22 10.5 14.5 10.78 14.5 11.5V16.5ZM18.75 11.002C18.75 11.416 18.414 11.752 18 11.752C17.586 11.752 17.25 11.416 17.25 11.002C17.25 10.588 17.586 10.252 18 10.252C18.414 10.252 18.75 10.587 18.75 11.002ZM18.75 14C18.75 14.414 18.414 14.75 18 14.75C17.586 14.75 17.25 14.414 17.25 14C17.25 13.586 17.586 13.25 18 13.25C18.414 13.25 18.75 13.586 18.75 14Z" />
</svg>
