<svg viewBox="0 0 24 24" fill="currentColor" stroke="currentColor" xmlns="http://www.w3.org/2000/svg">
<path d="M18 3.5H6C4.403 3.5 2.5 4.14696 2.5 7.23096V14.769C2.5 17.852 4.403 18.5 6 18.5H18C19.597 18.5 21.5 17.853 21.5 14.769V7.23096C21.5 4.14696 19.597 3.5 18 3.5ZM20.5 14.769C20.5 16.658 19.729 17.5 18 17.5H6C4.271 17.5 3.5 16.658 3.5 14.769V7.23096C3.5 5.34196 4.271 4.5 6 4.5H18C19.729 4.5 20.5 5.34196 20.5 7.23096V14.769ZM17.5 21C17.5 21.276 17.276 21.5 17 21.5H7C6.724 21.5 6.5 21.276 6.5 21C6.5 20.724 6.724 20.5 7 20.5H17C17.276 20.5 17.5 20.724 17.5 21Z" />
</svg>
