<svg viewBox="0 0 24 24" fill="currentColor" stroke="currentColor" xmlns="http://www.w3.org/2000/svg">
<path d="M16.5 7.5V4C16.5 3.173 15.827 2.5 15 2.5H9C8.173 2.5 7.5 3.173 7.5 4V7.5C6.229 7.5 5.5 8.229 5.5 9.5V18C5.5 20.29 6.71 21.5 9 21.5H15C17.29 21.5 18.5 20.29 18.5 18V9.5C18.5 8.229 17.771 7.5 16.5 7.5ZM8.5 4C8.5 3.724 8.725 3.5 9 3.5H15C15.275 3.5 15.5 3.724 15.5 4V7.5H8.5V4ZM17.5 18C17.5 19.729 16.729 20.5 15 20.5H9C7.271 20.5 6.5 19.729 6.5 18V9.5C6.5 8.78 6.78 8.5 7.5 8.5H16.5C17.22 8.5 17.5 8.78 17.5 9.5V18ZM14 17C14 17.276 13.776 17.5 13.5 17.5H10.5C10.224 17.5 10 17.276 10 17C10 16.724 10.224 16.5 10.5 16.5H13.5C13.776 16.5 14 16.724 14 17ZM14 5.5C14 5.776 13.776 6 13.5 6C13.224 6 13 5.776 13 5.5C13 5.224 13.224 5 13.5 5C13.776 5 14 5.224 14 5.5ZM11 5.5C11 5.776 10.776 6 10.5 6C10.224 6 10 5.776 10 5.5C10 5.224 10.224 5 10.5 5C10.776 5 11 5.224 11 5.5Z" />
</svg>
