<svg viewBox="0 0 24 24" fill="currentColor" stroke="currentColor" xmlns="http://www.w3.org/2000/svg">
<path d="M12 1.5C6.21 1.5 1.5 6.21 1.5 12C1.5 17.79 6.21 22.5 12 22.5C17.79 22.5 22.5 17.79 22.5 12C22.5 6.21 17.79 1.5 12 1.5ZM12 21.5C6.762 21.5 2.5 17.238 2.5 12C2.5 6.762 6.762 2.5 12 2.5C17.238 2.5 21.5 6.762 21.5 12C21.5 17.238 17.238 21.5 12 21.5ZM17.4819 8.73511C17.1599 8.58111 16.7931 8.62497 16.5171 8.84497L15.249 9.85889V9.79907C15.249 8.43307 14.4651 7.64893 13.0991 7.64893H8.1499C6.7839 7.64893 6 8.43307 6 9.79907V14.199C6 15.565 6.7839 16.3491 8.1499 16.3491H13.0991C14.4651 16.3491 15.249 15.565 15.249 14.199V14.1389L16.5171 15.1521C16.6831 15.2851 16.883 15.354 17.085 15.354C17.219 15.354 17.355 15.3239 17.481 15.2629C17.8 15.1099 17.999 14.7939 17.999 14.4399V9.55591C18 9.20391 17.8019 8.88911 17.4819 8.73511ZM14.25 14.2C14.25 15.028 13.9281 15.3501 13.1001 15.3501H8.15088C7.32288 15.3501 7.00098 15.028 7.00098 14.2V9.80005C7.00098 8.97205 7.32288 8.6499 8.15088 8.6499H13.1001C13.9281 8.6499 14.25 8.97205 14.25 9.80005V14.2ZM17 14.259L15.25 12.8589V11.1399L17 9.73999V14.259Z" />
</svg>
