<svg viewBox="0 0 24 24" fill="currentColor" stroke="currentColor" xmlns="http://www.w3.org/2000/svg">
<path d="M21.792 6.43408C21.355 6.22408 20.848 6.28098 20.469 6.58398L17.5 8.95898V8C17.5 5.71 16.29 4.5 14 4.5H5C2.71 4.5 1.5 5.71 1.5 8V16C1.5 18.29 2.71 19.5 5 19.5H14C16.29 19.5 17.5 18.29 17.5 16V15.041L20.469 17.416C20.697 17.598 20.9711 17.6909 21.2471 17.6909C21.4321 17.6909 21.617 17.6489 21.792 17.5659C22.229 17.3559 22.5 16.9239 22.5 16.4399V7.56104C22.5 7.07604 22.229 6.64408 21.792 6.43408ZM16.5 16C16.5 17.729 15.729 18.5 14 18.5H5C3.271 18.5 2.5 17.729 2.5 16V8C2.5 6.271 3.271 5.5 5 5.5H14C15.729 5.5 16.5 6.271 16.5 8V16ZM21.5 16.439C21.5 16.581 21.4009 16.644 21.3579 16.665C21.3139 16.685 21.204 16.725 21.093 16.635L17.499 13.76V10.241L21.093 7.36597C21.204 7.27697 21.3149 7.31694 21.3579 7.33594C21.4009 7.35694 21.5 7.41901 21.5 7.56201V16.439Z" />
</svg>
