<svg viewBox="0 0 24 24" fill="currentColor" stroke="currentColor" xmlns="http://www.w3.org/2000/svg">
<path d="M17.625 2.5H6.375C3.84 2.5 2.5 3.84 2.5 6.375V17.625C2.5 20.16 3.84 21.5 6.375 21.5H17.625C20.16 21.5 21.5 20.16 21.5 17.625V6.375C21.5 3.84 20.16 2.5 17.625 2.5ZM20.5 17.625C20.5 19.586 19.587 20.5 17.625 20.5H6.375C4.413 20.5 3.5 19.586 3.5 17.625V6.375C3.5 4.414 4.413 3.5 6.375 3.5H17.625C19.587 3.5 20.5 4.414 20.5 6.375V17.625ZM17.4819 8.73511C17.1599 8.58111 16.7921 8.62497 16.5171 8.84497L15.249 9.85889V9.79907C15.249 8.43307 14.4651 7.64893 13.0991 7.64893H8.1499C6.7839 7.64893 6 8.43307 6 9.79907V14.199C6 15.565 6.7839 16.3491 8.1499 16.3491H13.0991C14.4651 16.3491 15.249 15.565 15.249 14.199V14.1389L16.5171 15.1521C16.6831 15.2851 16.883 15.354 17.085 15.354C17.219 15.354 17.355 15.3239 17.481 15.2629C17.8 15.1099 17.999 14.7939 17.999 14.4399V9.55591C18 9.20391 17.8019 8.88911 17.4819 8.73511ZM14.25 14.2C14.25 15.028 13.9281 15.3501 13.1001 15.3501H8.15088C7.32288 15.3501 7.00098 15.028 7.00098 14.2V9.80005C7.00098 8.97205 7.32288 8.6499 8.15088 8.6499H13.1001C13.9281 8.6499 14.25 8.97205 14.25 9.80005V14.2ZM17 14.259L15.25 12.8589V11.1399L17 9.73999V14.259Z" />
</svg>
