<svg viewBox="0 0 24 24" fill="currentColor" stroke="currentColor" xmlns="http://www.w3.org/2000/svg">
<path d="M22.5 7.56007V16.44C22.5 16.925 22.229 17.3571 21.79 17.5681C21.615 17.6521 21.4289 17.6941 21.2439 17.6941C20.9679 17.6941 20.695 17.6009 20.469 17.4209L17.5 15.042V16C17.5 18.29 16.29 19.5 14 19.5H9C8.724 19.5 8.5 19.276 8.5 19C8.5 18.724 8.724 18.5 9 18.5H14C15.729 18.5 16.5 17.729 16.5 16V11C16.5 10.724 16.724 10.5 17 10.5C17.276 10.5 17.5 10.724 17.5 11V13.76L21.093 16.6389C21.202 16.7259 21.3149 16.687 21.3569 16.666C21.3999 16.645 21.501 16.582 21.501 16.439V7.55909C21.501 7.48509 21.476 7.42396 21.426 7.37696C21.373 7.32796 21.304 7.29789 21.229 7.30689C20.96 7.32789 20.7131 7.12096 20.6931 6.84596C20.6731 6.57096 20.88 6.33107 21.155 6.31007C21.509 6.28107 21.8499 6.40605 22.1069 6.64405C22.3589 6.88205 22.5 7.20707 22.5 7.56007ZM5.35303 19.354L3.35303 21.354C3.25503 21.452 3.12702 21.5 2.99902 21.5C2.87102 21.5 2.74302 21.451 2.64502 21.354C2.45002 21.159 2.45002 20.842 2.64502 20.647L3.91406 19.3779C2.33606 19.0329 1.49805 17.892 1.49805 16.001V8.00099C1.49805 5.71099 2.70805 4.50099 4.99805 4.50099H13.998C15.831 4.50099 16.7129 5.28707 17.1279 6.16407L20.644 2.64796C20.839 2.45296 21.1561 2.45296 21.3511 2.64796C21.5461 2.84296 21.5461 3.15999 21.3511 3.35499L5.35303 19.354C5.35403 19.353 5.35303 19.354 5.35303 19.354ZM4.80493 18.488L16.3589 6.93409C16.1679 6.25709 15.665 5.49903 14.001 5.49903H5.00098C3.27198 5.49903 2.50098 6.27003 2.50098 7.99903V15.999C2.49998 17.659 3.21993 18.428 4.80493 18.488Z" />
</svg>
