<svg viewBox="0 0 24 24" fill="currentColor" stroke="currentColor" xmlns="http://www.w3.org/2000/svg">
<path d="M8 3C8 2.724 8.224 2.5 8.5 2.5H14.5C14.776 2.5 15 2.724 15 3C15 3.276 14.776 3.5 14.5 3.5H8.5C8.224 3.5 8 3.276 8 3ZM14.5 20.5H8.5C8.224 20.5 8 20.724 8 21C8 21.276 8.224 21.5 8.5 21.5H14.5C14.776 21.5 15 21.276 15 21C15 20.724 14.776 20.5 14.5 20.5ZM19.5 11.75C19.5 12.026 19.276 12.25 19 12.25H18.5V15.5C18.5 17.79 17.29 19 15 19H8C5.71 19 4.5 17.79 4.5 15.5V8.5C4.5 6.21 5.71 5 8 5H15C17.29 5 18.5 6.21 18.5 8.5V11.25H19C19.276 11.25 19.5 11.474 19.5 11.75ZM17.5 8.5C17.5 6.771 16.729 6 15 6H8C6.271 6 5.5 6.771 5.5 8.5V15.5C5.5 17.229 6.271 18 8 18H15C16.729 18 17.5 17.229 17.5 15.5V8.5ZM12 11.75V8.5C12 8.224 11.776 8 11.5 8C11.224 8 11 8.224 11 8.5V12C11 12.157 11.074 12.3059 11.2 12.3999L13.2 13.8999C13.29 13.9669 13.395 14 13.5 14C13.651 14 13.8019 13.931 13.8999 13.8C14.0649 13.579 14.0201 13.2661 13.7991 13.1001L12 11.75Z" />
</svg>
