<svg viewBox="0 0 24 24" fill="currentColor" stroke="currentColor" xmlns="http://www.w3.org/2000/svg">
<path d="M18 2.5H6C3.71 2.5 2.5 3.71 2.5 6V18C2.5 20.29 3.71 21.5 6 21.5H18C20.29 21.5 21.5 20.29 21.5 18V6C21.5 3.71 20.29 2.5 18 2.5ZM20.5 18C20.5 19.73 19.73 20.5 18 20.5H6C4.27 20.5 3.5 19.73 3.5 18V6C3.5 4.27 4.27 3.5 6 3.5H18C19.73 3.5 20.5 4.27 20.5 6V18ZM6.69 17.71C6.73 17.81 6.75 17.9 6.75 18C6.75 18.1 6.73 18.19 6.69 18.29C6.65 18.38 6.60003 18.46 6.53003 18.53C6.46003 18.6 6.37998 18.65 6.28998 18.69C6.18998 18.73 6.1 18.75 6 18.75C5.9 18.75 5.80002 18.73 5.71002 18.69C5.62002 18.65 5.53997 18.6 5.46997 18.53C5.39997 18.46 5.35 18.38 5.31 18.29C5.27 18.2 5.25 18.1 5.25 18C5.25 17.9 5.27 17.8 5.31 17.71C5.35 17.62 5.39997 17.54 5.46997 17.47C5.53997 17.4 5.62002 17.35 5.71002 17.31C5.89002 17.23 6.09998 17.23 6.28998 17.31C6.37998 17.35 6.46003 17.4 6.53003 17.47C6.60003 17.54 6.65 17.62 6.69 17.71ZM18.53 17.47C18.67 17.61 18.75 17.8 18.75 18C18.75 18.1 18.73 18.2 18.69 18.29C18.65 18.38 18.6 18.46 18.53 18.53C18.46 18.6 18.38 18.65 18.29 18.69C18.19 18.73 18.1 18.75 18 18.75C17.8 18.75 17.61 18.67 17.47 18.53C17.4 18.46 17.34 18.38 17.31 18.29C17.27 18.2 17.25 18.1 17.25 18C17.25 17.8 17.33 17.61 17.47 17.47C17.68 17.26 18.01 17.19 18.29 17.31C18.38 17.34 18.46 17.4 18.53 17.47ZM16.74 6.69998C13.85 5.12998 10.14 5.12998 7.25 6.69998C6.59 7.05998 6.31 7.86998 6.63 8.53998L7.73999 10.93C7.89999 11.28 8.26002 11.51 8.65002 11.51H15.35C15.74 11.51 16.09 11.28 16.26 10.93L17.37 8.53998C17.68 7.86998 17.41 7.05998 16.75 6.69998H16.74ZM16.46 8.12L15.35 10.51H12.5V8.50998C12.5 8.22998 12.28 8.00998 12 8.00998C11.72 8.00998 11.5 8.22998 11.5 8.50998V10.51H8.65002L7.53998 8.12C7.44998 7.92 7.53999 7.68999 7.73999 7.57999C9.03999 6.87999 10.51 6.5 12.01 6.5C13.51 6.5 14.98 6.86999 16.28 7.57999C16.48 7.68999 16.57 7.92 16.48 8.12H16.46Z" />
</svg>
