<svg viewBox="0 0 24 24" fill="currentColor" stroke="currentColor" xmlns="http://www.w3.org/2000/svg">
<path d="M17 4.25H16.73C16.633 2.996 15.821 2.25 14.5 2.25H9.5C8.179 2.25 7.36702 2.996 7.27002 4.25H7C4.582 4.25 3.25 5.582 3.25 8V18C3.25 20.418 4.582 21.75 7 21.75H17C19.418 21.75 20.75 20.418 20.75 18V8C20.75 5.582 19.418 4.25 17 4.25ZM8.75 4.5C8.75 3.911 8.911 3.75 9.5 3.75H14.5C15.089 3.75 15.25 3.911 15.25 4.5V5.5C15.25 6.089 15.089 6.25 14.5 6.25H9.5C8.911 6.25 8.75 6.089 8.75 5.5V4.5ZM19.25 18C19.25 19.577 18.577 20.25 17 20.25H7C5.423 20.25 4.75 19.577 4.75 18V8C4.75 6.423 5.423 5.75 7 5.75H7.27002C7.36702 7.004 8.179 7.75 9.5 7.75H14.5C15.821 7.75 16.633 7.004 16.73 5.75H17C18.577 5.75 19.25 6.423 19.25 8V18ZM14.53 12.03L13.0601 13.5L14.53 14.97C14.823 15.263 14.823 15.738 14.53 16.031C14.384 16.177 14.192 16.251 14 16.251C13.808 16.251 13.616 16.178 13.47 16.031L12 14.561L10.53 16.031C10.384 16.177 10.192 16.251 10 16.251C9.808 16.251 9.61597 16.178 9.46997 16.031C9.17697 15.738 9.17697 15.263 9.46997 14.97L10.9399 13.5L9.46997 12.03C9.17697 11.737 9.17697 11.262 9.46997 10.969C9.76297 10.676 10.238 10.676 10.531 10.969L12.001 12.439L13.4709 10.969C13.7639 10.676 14.239 10.676 14.532 10.969C14.823 11.262 14.823 11.738 14.53 12.03Z" />
</svg>
