<svg viewBox="0 0 24 24" fill="currentColor" stroke="currentColor" xmlns="http://www.w3.org/2000/svg">
<path d="M16 9C15.67 9 15.35 9.03003 15.03 9.09003C14.692 8.54103 14.274 8.04597 13.791 7.62097C12.648 6.61297 11.145 6 9.49902 6C5.90902 6 2.99902 8.91 2.99902 12.5C2.99902 16.09 5.90902 19 9.49902 19H15.999C18.759 19 20.999 16.76 20.999 14C20.999 11.24 18.76 9 16 9ZM14.53 12.697L11.863 15.364C11.722 15.505 11.532 15.584 11.333 15.584C11.134 15.584 10.943 15.505 10.803 15.364L9.46997 14.031C9.17697 13.738 9.17697 13.263 9.46997 12.97C9.76297 12.677 10.238 12.677 10.531 12.97L11.334 13.773L13.4709 11.637C13.7639 11.344 14.239 11.344 14.532 11.637C14.825 11.93 14.823 12.404 14.53 12.697Z" />
</svg>
