<svg viewBox="0 0 24 24" fill="currentColor" stroke="currentColor" xmlns="http://www.w3.org/2000/svg">
<path d="M22 13C22 15.76 19.76 18 17 18C17 18 10.4601 18 10.2991 18C10.1381 18 10 17.878 10 17.7C10 17.522 10 15.57 10 15.57C10 14.55 9.64 13.72 9 13.19V12.75C9 10.575 7.26698 8.80698 5.10498 8.75098C4.83498 8.74898 4.7531 8.47602 4.8501 8.29602C5.9571 6.32502 8.06902 5 10.499 5C12.149 5 13.6491 5.61 14.7891 6.62C15.2691 7.05 15.6891 7.54003 16.0291 8.09003C16.3491 8.03003 16.669 8 16.999 8C19.76 8 22 10.24 22 13ZM8.5 15.571V17.928C8.5 18.975 8 19.499 7 19.499H3C2 19.499 1.5 18.975 1.5 17.928V15.571C1.5 14.723 1.845 14.236 2.5 14.074V12.749C2.5 11.371 3.621 10.249 5 10.249C6.379 10.249 7.5 11.371 7.5 12.749V14.074C8.155 14.236 8.5 14.723 8.5 15.571ZM6 12.75C6 12.198 5.552 11.75 5 11.75C4.448 11.75 4 12.198 4 12.75V14H6V12.75Z" />
</svg>
