<svg viewBox="0 0 24 24" fill="currentColor" stroke="currentColor" xmlns="http://www.w3.org/2000/svg">
<path d="M15.97 9C15.64 9 15.32 9.03003 15 9.09003C14.662 8.54103 14.244 8.04597 13.761 7.62097C12.618 6.61297 11.115 6 9.46899 6C5.87899 6 2.96899 8.91 2.96899 12.5C2.96899 16.09 5.87899 19 9.46899 19H15.969C18.729 19 20.969 16.76 20.969 14C20.969 11.24 18.73 9 15.97 9ZM14 14.25H12.75V15.5C12.75 15.914 12.414 16.25 12 16.25C11.586 16.25 11.25 15.914 11.25 15.5V14.25H10C9.586 14.25 9.25 13.914 9.25 13.5C9.25 13.086 9.586 12.75 10 12.75H11.25V11.5C11.25 11.086 11.586 10.75 12 10.75C12.414 10.75 12.75 11.086 12.75 11.5V12.75H14C14.414 12.75 14.75 13.086 14.75 13.5C14.75 13.914 14.414 14.25 14 14.25Z" />
</svg>
