<svg viewBox="0 0 24 24" fill="currentColor" stroke="currentColor" xmlns="http://www.w3.org/2000/svg">
<path d="M19.75 20C19.75 20.414 19.414 20.75 19 20.75H13.8521C13.5551 21.482 12.839 22 12 22C11.161 22 10.4449 21.482 10.1479 20.75H5C4.586 20.75 4.25 20.414 4.25 20C4.25 19.586 4.586 19.25 5 19.25H10.1479C10.3509 18.75 10.749 18.351 11.25 18.148V15H9.5C5.91 15 3 12.09 3 8.5C3 4.91 5.91 2 9.5 2C11.146 2 12.648 2.61297 13.792 3.62097C14.274 4.04597 14.692 4.54103 15.031 5.09003C15.351 5.03003 15.671 5 16.001 5C18.761 5 21.001 7.24 21.001 10C21.001 12.76 18.761 15 16.001 15H12.751V18.148C13.251 18.351 13.65 18.749 13.853 19.25H19C19.414 19.25 19.75 19.586 19.75 20Z" />
</svg>
