<svg viewBox="0 0 24 24" fill="currentColor" stroke="currentColor" xmlns="http://www.w3.org/2000/svg">
<path d="M16 9C15.67 9 15.35 9.03003 15.03 9.09003C14.692 8.54103 14.274 8.04597 13.791 7.62097C12.648 6.61297 11.145 6 9.49902 6C5.90902 6 2.99902 8.91 2.99902 12.5C2.99902 16.09 5.90902 19 9.49902 19H15.999C18.759 19 20.999 16.76 20.999 14C20.999 11.24 18.76 9 16 9ZM14 14.25H10C9.586 14.25 9.25 13.914 9.25 13.5C9.25 13.086 9.586 12.75 10 12.75H14C14.414 12.75 14.75 13.086 14.75 13.5C14.75 13.914 14.414 14.25 14 14.25Z" />
</svg>
