<svg viewBox="0 0 24 24" fill="currentColor" stroke="currentColor" xmlns="http://www.w3.org/2000/svg">
<path d="M9.62012 5.5C7.04012 5.5 5.5 7.04 5.5 9.62V16.675C5.5 16.85 5.3449 16.997 5.1709 16.98C3.7289 16.836 3 15.964 3 14.38V5.62C3 3.88 3.88012 3 5.62012 3H14.3799C15.9639 3 16.836 3.72902 16.98 5.17102C16.998 5.34502 16.851 5.5 16.676 5.5H9.62012ZM21 9.625V18.375C21 20.125 20.125 21 18.375 21H9.625C7.875 21 7 20.125 7 18.375V17V9.625C7 7.875 7.875 7 9.625 7H17H18.375C20.125 7 21 7.875 21 9.625ZM17.25 14C17.25 13.586 16.914 13.25 16.5 13.25H14.75V11.5C14.75 11.086 14.414 10.75 14 10.75C13.586 10.75 13.25 11.086 13.25 11.5V13.25H11.5C11.086 13.25 10.75 13.586 10.75 14C10.75 14.414 11.086 14.75 11.5 14.75H13.25V16.5C13.25 16.914 13.586 17.25 14 17.25C14.414 17.25 14.75 16.914 14.75 16.5V14.75H16.5C16.914 14.75 17.25 14.414 17.25 14Z" />
</svg>
