<svg viewBox="0 0 24 24" fill="currentColor" stroke="currentColor" xmlns="http://www.w3.org/2000/svg">
<path d="M9.62012 5.5C7.04012 5.5 5.5 7.04 5.5 9.62V16.675C5.5 16.85 5.3449 16.997 5.1709 16.98C3.7289 16.836 3 15.964 3 14.38V5.62C3 3.88 3.88012 3 5.62012 3H14.3799C15.9639 3 16.836 3.72902 16.98 5.17102C16.998 5.34502 16.851 5.5 16.676 5.5H9.62012ZM21 9.625V18.375C21 20.125 20.125 21 18.375 21H9.625C7.875 21 7 20.125 7 18.375V17V9.625C7 7.875 7.875 7 9.625 7H17H18.375C20.125 7 21 7.875 21 9.625ZM17.03 11.803C16.737 11.51 16.262 11.51 15.969 11.803L13.166 14.606L12.0291 13.47C11.7361 13.177 11.261 13.177 10.968 13.47C10.675 13.763 10.675 14.238 10.968 14.531L12.635 16.198C12.776 16.339 12.966 16.418 13.165 16.418C13.364 16.418 13.5551 16.339 13.6951 16.198L17.0281 12.865C17.3231 12.571 17.323 12.096 17.03 11.803Z" />
</svg>
