<svg viewBox="0 0 24 24" fill="currentColor" stroke="currentColor" xmlns="http://www.w3.org/2000/svg">
<path d="M14.083 13.917C14.083 15.112 13.111 16.084 11.917 16.084C10.722 16.084 9.75 15.112 9.75 13.917C9.75 12.722 10.722 11.75 11.917 11.75C13.111 11.75 14.083 12.722 14.083 13.917ZM17 8.25H19.25L14.75 3.75V6C14.75 7.58 15.42 8.25 17 8.25ZM20 9.75V18C20 20 19 21 17 21H8C6 21 5 20 5 18V6C5 4 6 3 8 3H13.25V6C13.25 8.42 14.58 9.75 17 9.75H20ZM16.53 17.47L14.98 15.921C15.358 15.344 15.583 14.657 15.583 13.918C15.583 11.896 13.938 10.251 11.917 10.251C9.89499 10.251 8.25 11.896 8.25 13.918C8.25 15.94 9.89499 17.585 11.917 17.585C12.657 17.585 13.3429 17.361 13.9199 16.983L15.47 18.532C15.616 18.678 15.808 18.752 16 18.752C16.192 18.752 16.384 18.679 16.53 18.532C16.823 18.237 16.823 17.762 16.53 17.47Z" />
</svg>
