<svg viewBox="0 0 24 24" fill="currentColor" stroke="currentColor" xmlns="http://www.w3.org/2000/svg">
<path d="M19.25 8.25H17C15.42 8.25 14.75 7.58 14.75 6V3.75L19.25 8.25ZM20 9.75V18C20 20 19 21 17 21H8C6 21 5 20 5 18V6C5 4 6 3 8 3H13.25V6C13.25 8.42 14.58 9.75 17 9.75H20ZM9.75 16C9.75 15.586 9.414 15.25 9 15.25C8.586 15.25 8.25 15.586 8.25 16C8.25 16.414 8.586 16.75 9 16.75C9.414 16.75 9.75 16.414 9.75 16ZM9.75 12C9.75 11.586 9.414 11.25 9 11.25C8.586 11.25 8.25 11.586 8.25 12C8.25 12.414 8.586 12.75 9 12.75C9.414 12.75 9.75 12.414 9.75 12ZM16.75 16C16.75 15.586 16.414 15.25 16 15.25H11.5C11.086 15.25 10.75 15.586 10.75 16C10.75 16.414 11.086 16.75 11.5 16.75H16C16.414 16.75 16.75 16.414 16.75 16ZM16.75 12C16.75 11.586 16.414 11.25 16 11.25H11.5C11.086 11.25 10.75 11.586 10.75 12C10.75 12.414 11.086 12.75 11.5 12.75H16C16.414 12.75 16.75 12.414 16.75 12Z" />
</svg>
