<svg viewBox="0 0 24 24" fill="currentColor" stroke="currentColor" xmlns="http://www.w3.org/2000/svg">
<path d="M13.25 12.5V13.6H11.75V12.5C11.75 12.086 12.087 11.75 12.5 11.75C12.913 11.75 13.25 12.086 13.25 12.5ZM17 8.25H19.25L14.75 3.75V6C14.75 7.58 15.42 8.25 17 8.25ZM20 9.75V18C20 20 19 21 17 21H8C6 21 5 20 5 18V6C5 4 6 3 8 3H13.25V6C13.25 8.42 14.58 9.75 17 9.75H20ZM15.5 14.95C15.5 14.28 15.249 13.861 14.75 13.69V12.5C14.75 11.259 13.74 10.25 12.5 10.25C11.26 10.25 10.25 11.259 10.25 12.5V13.69C9.751 13.861 9.5 14.28 9.5 14.95V17.05C9.5 17.95 9.9501 18.4 10.8501 18.4H14.1499C15.0499 18.4 15.5 17.95 15.5 17.05V14.95Z" />
</svg>
