<svg viewBox="0 0 24 24" fill="currentColor" stroke="currentColor" xmlns="http://www.w3.org/2000/svg">
<path d="M12.5901 17.49C12.8101 16.79 13.4001 16.3 14.1201 16.2L15.29 16.03L15.79 15.05C16.11 14.4 16.77 14 17.5 14C17.67 14 18 13.97 18 13.65V9.75H15C12.58 9.75 11.25 8.42 11.25 6V3H6C4 3 3 4 3 6V18C3 20 4 21 6 21C6 21 13.3 21 13.53 21C13.76 21 13.8101 20.77 13.8101 20.77L13.9099 20.21L13.0801 19.42C12.5601 18.92 12.3701 18.18 12.5901 17.49ZM7 11.25H14C14.414 11.25 14.75 11.586 14.75 12C14.75 12.414 14.414 12.75 14 12.75H7C6.586 12.75 6.25 12.414 6.25 12C6.25 11.586 6.586 11.25 7 11.25ZM11 16.75H7C6.586 16.75 6.25 16.414 6.25 16C6.25 15.586 6.586 15.25 7 15.25H11C11.414 15.25 11.75 15.586 11.75 16C11.75 16.414 11.414 16.75 11 16.75ZM12.75 6V3.75L17.25 8.25H15C13.42 8.25 12.75 7.58 12.75 6ZM19.6221 19.537C19.5301 19.625 19.488 19.752 19.51 19.876L19.7981 21.522C19.8561 21.856 19.4991 22.11 19.1941 21.953L17.6819 21.175C17.5679 21.117 17.4331 21.117 17.3201 21.175L15.8091 21.952C15.5031 22.11 15.1451 21.854 15.2041 21.52L15.4919 19.876C15.5139 19.752 15.4719 19.625 15.3799 19.537L14.1201 18.335C13.8881 18.114 14.0159 17.728 14.3359 17.683L16.0791 17.435C16.2061 17.417 16.3151 17.339 16.3721 17.226L17.127 15.728C17.28 15.424 17.722 15.424 17.876 15.728L18.6311 17.226C18.6881 17.339 18.7981 17.417 18.9241 17.435L20.667 17.683C20.987 17.728 21.1141 18.114 20.8831 18.335L19.6221 19.537Z" />
</svg>
