<svg viewBox="0 0 24 24" fill="currentColor" stroke="currentColor" xmlns="http://www.w3.org/2000/svg">
<path d="M14.75 6V3.75L19.25 8.25H17C15.42 8.25 14.75 7.58 14.75 6ZM20 9.75V18C20 20 19 21 17 21H8C6 21 5 20 5 18V6C5 4 6 3 8 3H13.25V6C13.25 8.42 14.58 9.75 17 9.75H20ZM14.6919 14.713C14.6539 14.621 14.599 14.538 14.53 14.469L12.53 12.469C12.237 12.176 11.762 12.176 11.469 12.469C11.176 12.762 11.176 13.237 11.469 13.53L12.189 14.25H9C8.586 14.25 8.25 14.586 8.25 15C8.25 15.414 8.586 15.75 9 15.75H12.189L11.469 16.47C11.176 16.763 11.176 17.238 11.469 17.531C11.615 17.677 11.807 17.751 11.999 17.751C12.191 17.751 12.3831 17.678 12.5291 17.531L14.5291 15.531C14.5981 15.462 14.6529 15.379 14.6909 15.287C14.7679 15.103 14.7679 14.897 14.6919 14.713Z" />
</svg>
