<svg viewBox="0 0 24 24" fill="currentColor" stroke="currentColor" xmlns="http://www.w3.org/2000/svg">
<path d="M15.9951 19.823C15.9221 21.274 15.1241 22 13.6001 22H6.3999C4.7999 22 4 21.2 4 19.6V9.39999C4 7.87199 4.72994 7.073 6.18994 7.005C6.25794 7.00201 6.5 7.048 6.5 7.317C6.5 7.586 6.5 15.6 6.5 15.6C6.5 18.04 7.9599 19.5 10.3999 19.5C10.3999 19.5 15.433 19.5 15.7 19.5C15.967 19.5 15.9981 19.75 15.9951 19.823ZM17.5 8.75C15.4 8.75 14.25 7.6 14.25 5.5V3H10.3999C8.7999 3 8 3.79999 8 5.39999V15.6C8 17.2 8.7999 18 10.3999 18H17.6001C19.2001 18 20 17.2 20 15.6V8.75H17.5ZM15.75 3.75V5.5C15.75 6.76 16.24 7.25 17.5 7.25H19.25L15.75 3.75Z" />
</svg>
