<svg viewBox="0 0 24 24" fill="currentColor" stroke="currentColor" xmlns="http://www.w3.org/2000/svg">
<path d="M18 7H13L10 4H6C4 4 3 5 3 7V17C3 19 4 20 6 20H18C20 20 21 19 21 17V10C21 8 20 7 18 7ZM15.03 12.364L11.697 15.697C11.556 15.838 11.366 15.917 11.167 15.917C10.968 15.917 10.777 15.838 10.637 15.697L8.96997 14.03C8.67697 13.737 8.67697 13.262 8.96997 12.969C9.26297 12.676 9.73801 12.676 10.031 12.969L11.168 14.105L13.9709 11.302C14.2639 11.009 14.739 11.009 15.032 11.302C15.323 11.596 15.323 12.071 15.03 12.364Z" />
</svg>
