<svg viewBox="0 0 24 24" fill="currentColor" stroke="currentColor" xmlns="http://www.w3.org/2000/svg">
<path d="M18 7H13L10 4H6C4 4 3 5 3 7V17C3 19 4 20 6 20H18C20 20 21 19 21 17V10C21 8 20 7 18 7ZM15.3821 12.798L14.1221 14C14.0301 14.088 13.988 14.215 14.01 14.339L14.2981 15.985C14.3571 16.319 14.0001 16.573 13.6941 16.416L12.1819 15.638C12.0679 15.58 11.9331 15.58 11.8201 15.638L10.3091 16.415C10.0031 16.573 9.6451 16.317 9.7041 15.983L9.99194 14.339C10.0139 14.215 9.97188 14.088 9.87988 14L8.62012 12.798C8.38812 12.577 8.51594 12.191 8.83594 12.146L10.5791 11.898C10.7061 11.88 10.8161 11.802 10.8721 11.689L11.627 10.191C11.78 9.88701 12.222 9.88701 12.375 10.191L13.1299 11.689C13.1869 11.802 13.2971 11.88 13.4231 11.898L15.166 12.146C15.486 12.191 15.6131 12.577 15.3821 12.798Z" />
</svg>
