<svg viewBox="0 0 24 24" fill="currentColor" stroke="currentColor" xmlns="http://www.w3.org/2000/svg">
<path d="M18.98 9.54001H7.72001C6.09001 9.54001 4.58007 10.42 3.78007 11.84L2.00004 15.04V8C2.00004 6 3.00004 5 5.00004 5H8.00004L10 7H16C17.84 7 18.83 7.85001 18.98 9.54001ZM20.492 11.043L18.98 11.042L7.71293 11.036C6.62293 11.035 5.61815 11.624 5.08915 12.573L2.1851 17.78C2.0561 18.012 2.00204 18.255 2.00004 18.493C1.99404 19.279 2.61814 20 3.49614 20H16.2771C17.3661 20 18.37 19.412 18.899 18.464L21.803 13.263C22.358 12.268 21.636 11.043 20.492 11.043Z" />
</svg>
