<svg viewBox="0 0 24 24" fill="currentColor" stroke="currentColor" xmlns="http://www.w3.org/2000/svg">
<path d="M3 21.75C2.903 21.75 2.80589 21.731 2.71289 21.693C2.43289 21.577 2.25 21.303 2.25 21V6C2.25 3.582 3.582 2.25 6 2.25H18C20.418 2.25 21.75 3.582 21.75 6V15C21.75 17.418 20.418 18.75 18 18.75H6.31104L3.53101 21.53C3.38701 21.674 3.195 21.75 3 21.75ZM6 3.75C4.423 3.75 3.75 4.423 3.75 6V19.189L5.46997 17.469C5.61097 17.328 5.801 17.249 6 17.249H18C19.577 17.249 20.25 16.576 20.25 14.999V5.99902C20.25 4.42202 19.577 3.74902 18 3.74902H6V3.75ZM13.02 7.5C13.02 6.948 12.573 6.5 12.02 6.5H12.01C11.458 6.5 11.0149 6.948 11.0149 7.5C11.0149 8.052 11.468 8.5 12.02 8.5C12.572 8.5 13.02 8.052 13.02 7.5ZM12.75 13.5V10.5C12.75 10.086 12.414 9.75 12 9.75C11.586 9.75 11.25 10.086 11.25 10.5V13.5C11.25 13.914 11.586 14.25 12 14.25C12.414 14.25 12.75 13.914 12.75 13.5Z" />
</svg>
