<svg viewBox="0 0 24 24" fill="currentColor" stroke="currentColor" xmlns="http://www.w3.org/2000/svg">
<path d="M18 2.25H6C3.582 2.25 2.25 3.582 2.25 6V21C2.25 21.303 2.43289 21.577 2.71289 21.693C2.80589 21.732 2.903 21.75 3 21.75C3.195 21.75 3.38703 21.674 3.53003 21.53L6.31006 18.75H18C20.418 18.75 21.75 17.418 21.75 15V6C21.75 3.582 20.418 2.25 18 2.25ZM20.25 15C20.25 16.577 19.577 17.25 18 17.25H6C5.801 17.25 5.60997 17.329 5.46997 17.47L3.75 19.1899V6C3.75 4.423 4.423 3.75 6 3.75H18C19.577 3.75 20.25 4.423 20.25 6V15ZM15.553 7.96997C15.846 8.26297 15.846 8.73801 15.553 9.03101L11.553 13.031C11.407 13.177 11.2149 13.251 11.0229 13.251C10.8309 13.251 10.6389 13.178 10.4929 13.031L8.49292 11.031C8.19992 10.738 8.19992 10.263 8.49292 9.96997C8.78592 9.67697 9.26095 9.67697 9.55396 9.96997L11.0239 11.4399L14.4939 7.96997C14.7849 7.67697 15.26 7.67697 15.553 7.96997Z" />
</svg>
