<svg viewBox="0 0 24 24" fill="currentColor" stroke="currentColor" xmlns="http://www.w3.org/2000/svg">
<path d="M3 21.75C2.903 21.75 2.80589 21.731 2.71289 21.693C2.43289 21.577 2.25 21.303 2.25 21V6C2.25 3.582 3.582 2.25 6 2.25H18C20.418 2.25 21.75 3.582 21.75 6V15C21.75 17.418 20.418 18.75 18 18.75H6.31104L3.53101 21.53C3.38701 21.674 3.195 21.75 3 21.75ZM6 3.75C4.423 3.75 3.75 4.423 3.75 6V19.189L5.46997 17.469C5.61097 17.328 5.801 17.249 6 17.249H18C19.577 17.249 20.25 16.576 20.25 14.999V5.99902C20.25 4.42202 19.577 3.74902 18 3.74902H6V3.75ZM16.75 8.5C16.75 8.086 16.414 7.75 16 7.75H8C7.586 7.75 7.25 8.086 7.25 8.5C7.25 8.914 7.586 9.25 8 9.25H16C16.414 9.25 16.75 8.914 16.75 8.5ZM13.75 12.5C13.75 12.086 13.414 11.75 13 11.75H8C7.586 11.75 7.25 12.086 7.25 12.5C7.25 12.914 7.586 13.25 8 13.25H13C13.414 13.25 13.75 12.914 13.75 12.5Z" />
</svg>
