<svg viewBox="0 0 24 24" fill="currentColor" stroke="currentColor" xmlns="http://www.w3.org/2000/svg">
<path d="M3 21.75C2.903 21.75 2.80589 21.731 2.71289 21.693C2.43289 21.577 2.25 21.303 2.25 21V6C2.25 3.582 3.582 2.25 6 2.25H18C20.418 2.25 21.75 3.582 21.75 6V15C21.75 17.418 20.418 18.75 18 18.75H6.31104L3.53101 21.53C3.38701 21.674 3.195 21.75 3 21.75ZM6 3.75C4.423 3.75 3.75 4.423 3.75 6V19.189L5.46997 17.469C5.61097 17.328 5.801 17.249 6 17.249H18C19.577 17.249 20.25 16.576 20.25 14.999V5.99902C20.25 4.42202 19.577 3.74902 18 3.74902H6V3.75ZM14.292 15.25C14.093 15.25 13.894 15.203 13.709 15.106L12 14.214L10.292 15.105C9.86399 15.329 9.35502 15.29 8.96802 15.005C8.58002 14.722 8.38992 14.253 8.47192 13.78L8.7959 11.9041L7.37207 10.527C7.03507 10.201 6.91506 9.722 7.06006 9.276C7.20506 8.829 7.58307 8.50999 8.04907 8.44299L10.0229 8.15796L10.875 6.44495C11.088 6.01595 11.52 5.74902 12.001 5.74902C12.481 5.74902 12.913 6.01595 13.127 6.44495L13.979 8.15796L15.9541 8.44299C16.4191 8.50899 16.7979 8.829 16.9419 9.276C17.0869 9.722 16.9659 10.201 16.6299 10.527L15.2061 11.9041L15.531 13.782C15.612 14.255 15.4219 14.724 15.0339 15.007C14.8119 15.168 14.553 15.25 14.292 15.25ZM12 12.6801C12.194 12.6801 12.3889 12.726 12.5659 12.819L13.9651 13.549L13.699 12.0129C13.631 11.6149 13.763 11.209 14.054 10.929L15.1721 9.84705L13.6179 9.62305C13.2209 9.56505 12.877 9.31601 12.698 8.95801L11.998 7.55103L11.2991 8.95703C11.1191 9.31603 10.7759 9.56505 10.3789 9.62305L8.82397 9.84705L9.94312 10.929C10.2331 11.209 10.3661 11.615 10.2971 12.012L10.031 13.547L11.4299 12.818C11.6109 12.726 11.806 12.6801 12 12.6801ZM15.738 9.92798H15.748H15.738ZM11.782 7.11401L11.783 7.11499L11.782 7.11401Z" />
</svg>
