<svg viewBox="0 0 24 24" fill="currentColor" stroke="currentColor" xmlns="http://www.w3.org/2000/svg">
<path d="M21 8.75H17.5C16.091 8.75 15.25 7.909 15.25 6.5V3C15.25 2.586 15.586 2.25 16 2.25C16.414 2.25 16.75 2.586 16.75 3V6.5C16.75 7.089 16.911 7.25 17.5 7.25H21C21.414 7.25 21.75 7.586 21.75 8C21.75 8.414 21.414 8.75 21 8.75ZM8.75 6.5V3C8.75 2.586 8.414 2.25 8 2.25C7.586 2.25 7.25 2.586 7.25 3V6.5C7.25 7.089 7.089 7.25 6.5 7.25H3C2.586 7.25 2.25 7.586 2.25 8C2.25 8.414 2.586 8.75 3 8.75H6.5C7.909 8.75 8.75 7.909 8.75 6.5ZM8.75 21V17.5C8.75 16.091 7.909 15.25 6.5 15.25H3C2.586 15.25 2.25 15.586 2.25 16C2.25 16.414 2.586 16.75 3 16.75H6.5C7.089 16.75 7.25 16.911 7.25 17.5V21C7.25 21.414 7.586 21.75 8 21.75C8.414 21.75 8.75 21.414 8.75 21ZM16.75 21V17.5C16.75 16.911 16.911 16.75 17.5 16.75H21C21.414 16.75 21.75 16.414 21.75 16C21.75 15.586 21.414 15.25 21 15.25H17.5C16.091 15.25 15.25 16.091 15.25 17.5V21C15.25 21.414 15.586 21.75 16 21.75C16.414 21.75 16.75 21.414 16.75 21Z" />
</svg>
