<svg viewBox="0 0 24 24" fill="currentColor" stroke="currentColor" xmlns="http://www.w3.org/2000/svg">
<path d="M17.997 14.7499H6.00308C4.91808 14.7499 3.96099 14.1349 3.50699 13.1449C3.04999 12.1489 3.20901 11.014 3.92301 10.184L9.92008 3.20694C10.9621 1.99094 13.0371 1.98894 14.0821 3.20694L20.0771 10.184C20.7911 11.014 20.9501 12.1489 20.4931 13.1449C20.0391 14.1349 19.082 14.7499 17.997 14.7499ZM12.001 3.74991C11.639 3.74991 11.294 3.90797 11.058 4.18497L5.06009 11.162C4.72809 11.548 4.658 12.0559 4.871 12.5199C5.081 12.9779 5.50506 13.2499 6.00406 13.2499H17.9981C18.4971 13.2499 18.921 12.9769 19.131 12.5199C19.344 12.0559 19.274 11.548 18.942 11.162L12.9461 4.18497H12.945C12.707 3.90797 12.362 3.74991 12.001 3.74991ZM18.8001 21.7499H5.19998C3.97898 21.7499 3.25003 21.021 3.25003 19.8V18.1999C3.25003 16.9789 3.97898 16.2499 5.19998 16.2499H18.8001C20.0211 16.2499 20.75 16.9789 20.75 18.1999V19.8C20.75 21.021 20.0211 21.7499 18.8001 21.7499ZM5.19998 17.7499C4.81298 17.7499 4.75003 17.8129 4.75003 18.1999V19.8C4.75003 20.187 4.81298 20.2499 5.19998 20.2499H18.8001C19.1871 20.2499 19.25 20.187 19.25 19.8V18.1999C19.25 17.8129 19.1871 17.7499 18.8001 17.7499H5.19998Z" />
</svg>
