<svg viewBox="0 0 24 24" fill="currentColor" stroke="currentColor" xmlns="http://www.w3.org/2000/svg">
<path d="M19.962 2.62701C19.438 2.23001 18.719 2.14301 17.887 2.37701L13.251 3.67901C12.072 4.02101 11.25 5.11116 11.25 6.32916V14.2859C10.507 13.6489 9.554 13.2491 8.5 13.2491C6.156 13.2491 4.25 15.1561 4.25 17.4991C4.25 19.8421 6.156 21.7491 8.5 21.7491C10.844 21.7491 12.75 19.8421 12.75 17.4991V11.9991C12.75 11.3371 13.137 10.7441 13.662 10.5911L19.1 9.0711C20.118 8.7891 20.749 8.01014 20.749 7.03814V4.53814C20.75 3.66714 20.484 3.02401 19.962 2.62701ZM8.5 20.2501C6.983 20.2501 5.75 19.0171 5.75 17.5001C5.75 15.9831 6.983 14.7501 8.5 14.7501C10.017 14.7501 11.25 15.9831 11.25 17.5001C11.25 19.0171 10.017 20.2501 8.5 20.2501ZM19.25 7.04009C19.25 7.14709 19.25 7.47498 18.698 7.62798L13.251 9.14996C13.075 9.20096 12.908 9.27001 12.75 9.35601V6.33111C12.75 5.76811 13.119 5.2811 13.663 5.1231L18.293 3.82305C18.464 3.77505 18.6221 3.75103 18.7531 3.75103C18.8861 3.75103 18.991 3.77503 19.056 3.82403C19.18 3.91703 19.25 4.17807 19.25 4.54107V7.04009Z" />
</svg>
