<svg viewBox="0 0 24 24" fill="currentColor" stroke="currentColor" xmlns="http://www.w3.org/2000/svg">
<path d="M21.125 5.55194C20.836 5.33294 20.3249 5.11793 19.5229 5.34393L16.4301 6.21283C15.5381 6.47183 14.916 7.29691 14.916 8.21991V13.0348C14.451 12.7538 13.913 12.5829 13.332 12.5829C11.632 12.5829 10.249 13.966 10.249 15.666C10.249 17.366 11.632 18.749 13.332 18.749C15.032 18.749 16.416 17.366 16.416 15.666V11.9999C16.416 11.6669 16.5979 11.3729 16.8409 11.3019L20.4659 10.289C21.2579 10.07 21.749 9.45805 21.749 8.69305V7.02582C21.75 6.19882 21.41 5.76794 21.125 5.55194ZM13.333 17.2499C12.46 17.2499 11.75 16.5399 11.75 15.6669C11.75 14.7939 12.46 14.0839 13.333 14.0839C14.206 14.0839 14.917 14.7939 14.917 15.6669C14.917 16.5399 14.206 17.2499 13.333 17.2499ZM20.25 8.69305C20.25 8.73105 20.25 8.79293 20.064 8.84393L16.4301 9.85882C16.4251 9.85982 16.421 9.86097 16.416 9.86297V8.21893C16.416 7.95493 16.59 7.72797 16.842 7.65497L19.929 6.78802C20.108 6.73802 20.199 6.7489 20.208 6.7409C20.223 6.7709 20.249 6.85982 20.249 7.02582V8.69305H20.25ZM2.25 6.99994C2.25 6.58594 2.586 6.24994 3 6.24994H12C12.414 6.24994 12.75 6.58594 12.75 6.99994C12.75 7.41394 12.414 7.74994 12 7.74994H3C2.586 7.74994 2.25 7.41394 2.25 6.99994ZM10 12.7499H3C2.586 12.7499 2.25 12.4139 2.25 11.9999C2.25 11.5859 2.586 11.2499 3 11.2499H10C10.414 11.2499 10.75 11.5859 10.75 11.9999C10.75 12.4139 10.414 12.7499 10 12.7499ZM7.75 16.9999C7.75 17.4139 7.414 17.7499 7 17.7499H3C2.586 17.7499 2.25 17.4139 2.25 16.9999C2.25 16.5859 2.586 16.2499 3 16.2499H7C7.414 16.2499 7.75 16.5859 7.75 16.9999Z" />
</svg>
