<svg viewBox="0 0 24 24" fill="currentColor" stroke="currentColor" xmlns="http://www.w3.org/2000/svg">
<path d="M8.5 21.75H6.5C5.091 21.75 4.25 20.909 4.25 19.5V4.5C4.25 3.091 5.091 2.25 6.5 2.25H8.5C9.909 2.25 10.75 3.091 10.75 4.5V19.5C10.75 20.909 9.909 21.75 8.5 21.75ZM6.5 3.75C5.911 3.75 5.75 3.911 5.75 4.5V19.5C5.75 20.089 5.911 20.25 6.5 20.25H8.5C9.089 20.25 9.25 20.089 9.25 19.5V4.5C9.25 3.911 9.089 3.75 8.5 3.75H6.5ZM17.5 21.75H15.5C14.091 21.75 13.25 20.909 13.25 19.5V4.5C13.25 3.091 14.091 2.25 15.5 2.25H17.5C18.909 2.25 19.75 3.091 19.75 4.5V19.5C19.75 20.909 18.909 21.75 17.5 21.75ZM15.5 3.75C14.911 3.75 14.75 3.911 14.75 4.5V19.5C14.75 20.089 14.911 20.25 15.5 20.25H17.5C18.089 20.25 18.25 20.089 18.25 19.5V4.5C18.25 3.911 18.089 3.75 17.5 3.75H15.5Z" />
</svg>
