<svg viewBox="0 0 24 24" fill="currentColor" stroke="currentColor" xmlns="http://www.w3.org/2000/svg">
<path d="M12 22.75C6.072 22.75 1.25 17.928 1.25 12C1.25 6.072 6.072 1.25 12 1.25C17.928 1.25 22.75 6.072 22.75 12C22.75 17.928 17.928 22.75 12 22.75ZM12 2.75C6.899 2.75 2.75 6.899 2.75 12C2.75 17.101 6.899 21.25 12 21.25C17.101 21.25 21.25 17.101 21.25 12C21.25 6.899 17.101 2.75 12 2.75ZM10.068 16.75H8.93103C8.06103 16.75 7.49902 16.194 7.49902 15.333V8.66602C7.49902 7.80602 8.06103 7.24902 8.93103 7.24902H10.068C10.938 7.24902 11.5 7.80502 11.5 8.66602V15.333C11.5 16.194 10.938 16.75 10.068 16.75ZM9 15.25H9.99597L10 8.75488L9.00403 8.75098L9 15.25ZM15.068 16.75H13.931C13.061 16.75 12.499 16.194 12.499 15.333V8.66602C12.499 7.80602 13.061 7.24902 13.931 7.24902H15.068C15.938 7.24902 16.5 7.80502 16.5 8.66602V15.333C16.5 16.194 15.938 16.75 15.068 16.75ZM14 15.25H14.996L15 8.75488L14.004 8.75098L14 15.25Z" />
</svg>
