<svg viewBox="0 0 24 24" fill="currentColor" stroke="currentColor" xmlns="http://www.w3.org/2000/svg">
<path d="M18 8.25H6C3.582 8.25 2.25 9.582 2.25 12V19C2.25 21.418 3.582 22.75 6 22.75H18C20.418 22.75 21.75 21.418 21.75 19V12C21.75 9.582 20.418 8.25 18 8.25ZM20.25 19C20.25 20.577 19.577 21.25 18 21.25H6C4.423 21.25 3.75 20.577 3.75 19V12C3.75 10.423 4.423 9.75 6 9.75H18C19.577 9.75 20.25 10.423 20.25 12V19ZM5.25 6C5.25 5.586 5.586 5.25 6 5.25H18C18.414 5.25 18.75 5.586 18.75 6C18.75 6.414 18.414 6.75 18 6.75H6C5.586 6.75 5.25 6.414 5.25 6ZM7.25 3C7.25 2.586 7.586 2.25 8 2.25H16C16.414 2.25 16.75 2.586 16.75 3C16.75 3.414 16.414 3.75 16 3.75H8C7.586 3.75 7.25 3.414 7.25 3ZM14.973 14.115L11.825 12.188C11.304 11.869 10.647 11.855 10.114 12.155C9.57301 12.458 9.25098 13.008 9.25098 13.627V17.373C9.25098 17.992 9.57301 18.542 10.114 18.845C10.371 18.989 10.656 19.061 10.941 19.061C11.248 19.061 11.554 18.978 11.825 18.812L14.972 16.886C15.459 16.588 15.75 16.07 15.75 15.5C15.75 14.93 15.459 14.412 14.973 14.115ZM14.189 15.606L11.041 17.533C10.96 17.582 10.89 17.5621 10.847 17.5371C10.803 17.5121 10.75 17.464 10.75 17.373V13.627C10.75 13.537 10.803 13.4879 10.847 13.4629C10.871 13.4489 10.904 13.437 10.942 13.437C10.972 13.437 11.006 13.445 11.042 13.467L14.1899 15.394C14.1899 15.394 14.19 15.394 14.191 15.394C14.23 15.418 14.251 15.454 14.251 15.499C14.251 15.544 14.229 15.582 14.189 15.606Z" />
</svg>
