<svg viewBox="0 0 24 24" fill="currentColor" stroke="currentColor" xmlns="http://www.w3.org/2000/svg">
<path d="M17.8571 3.58691C16.7001 3.02691 15.353 3.17292 14.343 3.97192L7.52795 9.354C7.20495 9.609 6.955 9.92389 6.75 10.2649V4C6.75 3.586 6.414 3.25 6 3.25C5.586 3.25 5.25 3.586 5.25 4V20C5.25 20.414 5.586 20.75 6 20.75C6.414 20.75 6.75 20.414 6.75 20V13.7329C6.956 14.0739 7.20595 14.389 7.52795 14.644L14.343 20.0271C14.947 20.5041 15.67 20.749 16.402 20.749C16.895 20.749 17.3911 20.6381 17.8571 20.4131C19.0241 19.8471 19.75 18.6861 19.75 17.3831V6.61792C19.75 5.31392 19.0241 4.15291 17.8571 3.58691ZM18.25 17.3821C18.25 18.1161 17.858 18.745 17.203 19.062C16.558 19.374 15.8379 19.2951 15.2729 18.8501L8.45801 13.467C8.00801 13.112 7.75 12.576 7.75 11.999C7.75 11.421 8.00801 10.886 8.45801 10.531L15.2729 5.14893C15.8369 4.70393 16.558 4.62601 17.203 4.93701C17.858 5.25401 18.25 5.88294 18.25 6.61694V17.3821Z" />
</svg>
