<svg viewBox="0 0 24 24" fill="currentColor" stroke="currentColor" xmlns="http://www.w3.org/2000/svg">
<path d="M15.323 21.7511C14.764 21.7511 14.215 21.5542 13.765 21.1732L10.074 18.046C9.84897 17.855 9.56199 17.7501 9.26599 17.7501H7.49902C6.25902 17.7501 5.24902 16.7411 5.24902 15.5001V8.50106C5.24902 7.26006 6.25902 6.25106 7.49902 6.25106H9.26599C9.56199 6.25106 9.84895 6.14617 10.075 5.95517L13.766 2.82797C14.494 2.21097 15.482 2.07809 16.347 2.47909C17.212 2.88009 17.749 3.72114 17.749 4.67514V19.328C17.749 20.282 17.212 21.123 16.347 21.524C16.018 21.676 15.669 21.7511 15.323 21.7511ZM7.5 7.75009C7.087 7.75009 6.75 8.08609 6.75 8.50009V15.4991C6.75 15.9131 7.087 16.2491 7.5 16.2491H9.26697C9.91697 16.2491 10.5479 16.48 11.0439 16.901L14.735 20.0282C15.015 20.2652 15.3819 20.317 15.7159 20.161C16.0499 20.006 16.249 19.694 16.249 19.326V4.67318C16.249 4.30518 16.0499 3.99298 15.7159 3.83798C15.3829 3.68298 15.015 3.73303 14.736 3.97103L11.0439 7.09799C10.5479 7.51799 9.91697 7.75009 9.26697 7.75009H7.5Z" />
</svg>
