<svg viewBox="0 0 24 24" fill="currentColor" stroke="currentColor" xmlns="http://www.w3.org/2000/svg">
<path d="M3.85693 21.75C3.71193 21.75 3.57111 21.748 3.43311 21.743C2.93311 21.731 2.49497 21.411 2.32397 20.928C2.15197 20.442 2.29408 19.9131 2.68408 19.5811C3.61608 18.8291 3.98892 17.997 4.13892 17.426C2.90192 15.947 2.24902 14.08 2.24902 12.001C2.24902 6.84798 6.25902 3.25 11.999 3.25C12.362 3.25 12.7149 3.26097 13.0669 3.29297C13.4799 3.33097 13.7841 3.69603 13.7461 4.10803C13.7071 4.52103 13.3439 4.82299 12.9309 4.78699C12.6229 4.75899 12.316 4.75 11.999 4.75C7.14202 4.75 3.74902 7.73198 3.74902 12.001C3.74902 13.837 4.354 15.463 5.5 16.703C5.655 16.871 5.72594 17.101 5.68994 17.328C5.52194 18.399 4.99388 19.412 4.18188 20.243C5.34188 20.201 6.90206 19.934 7.86206 18.91C8.06406 18.694 8.37605 18.617 8.65405 18.714C9.68905 19.072 10.814 19.2531 11.999 19.2531C16.856 19.2531 20.249 16.271 20.249 12.002C20.249 11.588 20.585 11.252 20.999 11.252C21.413 11.252 21.749 11.588 21.749 12.002C21.749 17.155 17.739 20.7531 11.999 20.7531C10.812 20.7531 9.67398 20.592 8.60498 20.274C7.24198 21.46 5.36393 21.75 3.85693 21.75ZM3.47803 20.243C3.48003 20.243 3.48189 20.243 3.48389 20.243C3.48089 20.244 3.47903 20.244 3.47803 20.243ZM19 8.75C17.483 8.75 16.25 7.517 16.25 6C16.25 4.483 17.483 3.25 19 3.25C20.517 3.25 21.75 4.483 21.75 6C21.75 7.517 20.517 8.75 19 8.75ZM19 4.75C18.311 4.75 17.75 5.311 17.75 6C17.75 6.689 18.311 7.25 19 7.25C19.689 7.25 20.25 6.689 20.25 6C20.25 5.311 19.689 4.75 19 4.75ZM13.02 12C13.02 11.448 12.573 11 12.02 11H12.01C11.458 11 11.0149 11.448 11.0149 12C11.0149 12.552 11.468 13 12.02 13C12.572 13 13.02 12.552 13.02 12ZM17.02 12C17.02 11.448 16.573 11 16.02 11H16.01C15.458 11 15.0149 11.448 15.0149 12C15.0149 12.552 15.468 13 16.02 13C16.572 13 17.02 12.552 17.02 12ZM9.02002 12C9.02002 11.448 8.57302 11 8.02002 11H8.01001C7.45801 11 7.01489 11.448 7.01489 12C7.01489 12.552 7.46802 13 8.02002 13C8.57202 13 9.02002 12.552 9.02002 12Z" />
</svg>
