<svg viewBox="0 0 24 24" fill="currentColor" stroke="currentColor" xmlns="http://www.w3.org/2000/svg">
<path d="M3.85693 21.75C3.71193 21.75 3.57111 21.748 3.43311 21.743C2.93311 21.731 2.49497 21.411 2.32397 20.928C2.15197 20.442 2.29408 19.9131 2.68408 19.5811C3.61608 18.8291 3.98892 17.997 4.13892 17.426C2.90192 15.947 2.24902 14.08 2.24902 12.001C2.24902 6.84798 6.25902 3.25 11.999 3.25C17.739 3.25 21.749 6.84898 21.749 12.001C21.749 17.153 17.739 20.752 11.999 20.752C10.812 20.752 9.67398 20.591 8.60498 20.2729C7.24198 21.4599 5.36393 21.75 3.85693 21.75ZM3.47803 20.243C3.48003 20.243 3.48189 20.243 3.48389 20.243C3.48089 20.244 3.47903 20.244 3.47803 20.243ZM12 4.75C7.143 4.75 3.75 7.73198 3.75 12.001C3.75 13.837 4.35498 15.463 5.50098 16.703C5.65598 16.871 5.72692 17.101 5.69092 17.328C5.52292 18.399 4.99511 19.412 4.18311 20.243C5.34311 20.201 6.90304 19.934 7.86304 18.91C8.06404 18.694 8.37603 18.617 8.65503 18.714C9.69003 19.072 10.815 19.2531 12 19.2531C16.857 19.2531 20.25 16.271 20.25 12.002C20.25 7.73295 16.857 4.75 12 4.75ZM14.292 16.75C14.093 16.75 13.894 16.703 13.709 16.606L12 15.715L10.292 16.605C9.86399 16.829 9.35502 16.79 8.96802 16.505C8.58002 16.222 8.38992 15.753 8.47192 15.28L8.7959 13.4041L7.37207 12.027C7.03507 11.701 6.91506 11.222 7.06006 10.777C7.20506 10.33 7.5821 10.011 8.0481 9.94397L10.0229 9.65906L10.875 7.94604C11.088 7.51705 11.52 7.25 12.001 7.25C12.482 7.25 12.914 7.51702 13.127 7.94702L13.979 9.65906L15.9541 9.94397C16.4201 10.011 16.7979 10.331 16.9419 10.777C17.0869 11.222 16.9659 11.701 16.6299 12.027L15.2061 13.4041L15.531 15.282C15.612 15.755 15.4219 16.224 15.0339 16.507C14.8119 16.668 14.553 16.75 14.292 16.75ZM12.1289 15.6479C12.1279 15.6479 12.1279 15.6479 12.1289 15.6479V15.6479ZM11.999 14.1801C12.194 14.1801 12.3901 14.2259 12.5681 14.3199L13.9651 15.049L13.699 13.5129C13.631 13.1149 13.763 12.709 14.054 12.429L15.1721 11.347L13.6179 11.123C13.2219 11.067 12.878 10.818 12.698 10.459L11.998 9.05103L11.2991 10.458C11.1181 10.818 10.774 11.067 10.376 11.124L8.82397 11.348L9.94312 12.4301C10.2331 12.7101 10.3661 13.1159 10.2971 13.5129L10.031 15.049L11.4299 14.3199C11.6099 14.2259 11.805 14.1801 11.999 14.1801ZM15.7371 11.428H15.7471H15.7371Z" />
</svg>
