<svg viewBox="0 0 24 24" fill="currentColor" stroke="currentColor" xmlns="http://www.w3.org/2000/svg">
<path d="M12 3.25C6.26 3.25 2.25 6.84898 2.25 12.001C2.25 14.08 2.90189 15.947 4.13989 17.426C3.98989 17.996 3.61706 18.8291 2.68506 19.5811C2.29406 19.9131 2.15295 20.442 2.32495 20.928C2.49595 21.411 2.93408 21.731 3.43408 21.743C3.57208 21.748 3.71291 21.75 3.85791 21.75C5.36491 21.75 7.24293 21.4599 8.60693 20.2729C9.67493 20.591 10.814 20.752 12.001 20.752C17.741 20.752 21.751 17.153 21.751 12.001C21.751 6.84898 17.74 3.25 12 3.25ZM12 19.2531C10.815 19.2531 9.69003 19.072 8.65503 18.714C8.37603 18.617 8.06404 18.694 7.86304 18.91C6.90304 19.934 5.34311 20.202 4.18311 20.243C4.99511 19.413 5.52292 18.399 5.69092 17.328C5.72592 17.101 5.65598 16.871 5.50098 16.703C4.35498 15.463 3.75 13.837 3.75 12.001C3.75 7.73098 7.143 4.75 12 4.75C16.857 4.75 20.25 7.73198 20.25 12.001C20.25 16.27 16.857 19.2531 12 19.2531ZM15.03 10.03L13.0601 12L15.03 13.97C15.323 14.263 15.323 14.738 15.03 15.031C14.884 15.177 14.692 15.251 14.5 15.251C14.308 15.251 14.116 15.178 13.97 15.031L12 13.061L10.03 15.031C9.88403 15.177 9.692 15.251 9.5 15.251C9.308 15.251 9.11597 15.178 8.96997 15.031C8.67697 14.738 8.67697 14.263 8.96997 13.97L10.9399 12L8.96997 10.03C8.67697 9.73703 8.67697 9.26199 8.96997 8.96899C9.26297 8.67599 9.73801 8.67599 10.031 8.96899L12.001 10.939L13.9709 8.96899C14.2639 8.67599 14.739 8.67599 15.032 8.96899C15.325 9.26199 15.323 9.73703 15.03 10.03Z" />
</svg>
