<svg viewBox="0 0 24 24" fill="currentColor" stroke="currentColor" xmlns="http://www.w3.org/2000/svg">
<path d="M12 3.25C6.26 3.25 2.25 6.84898 2.25 12.001C2.25 14.08 2.90189 15.947 4.13989 17.426C3.98989 17.996 3.61706 18.8291 2.68506 19.5811C2.29406 19.9131 2.15295 20.442 2.32495 20.928C2.49595 21.411 2.93408 21.731 3.43408 21.743C3.57208 21.748 3.71291 21.75 3.85791 21.75C5.36491 21.75 7.24293 21.4599 8.60693 20.2729C9.67493 20.591 10.814 20.752 12.001 20.752C17.741 20.752 21.751 17.153 21.751 12.001C21.751 6.84898 17.74 3.25 12 3.25ZM12 19.2531C10.815 19.2531 9.69003 19.072 8.65503 18.714C8.37703 18.617 8.06404 18.694 7.86304 18.91C6.90304 19.934 5.34311 20.202 4.18311 20.243C4.99511 19.413 5.52292 18.399 5.69092 17.328C5.72592 17.101 5.65598 16.871 5.50098 16.703C4.35498 15.463 3.75 13.837 3.75 12.001C3.75 7.73098 7.143 4.75 12 4.75C16.857 4.75 20.25 7.73198 20.25 12.001C20.25 16.27 16.857 19.2531 12 19.2531ZM12 7.25C9.381 7.25 7.25 9.381 7.25 12C7.25 14.619 9.381 16.75 12 16.75C14.619 16.75 16.75 14.619 16.75 12C16.75 9.381 14.619 7.25 12 7.25ZM12 15.25C10.208 15.25 8.75 13.792 8.75 12C8.75 10.208 10.208 8.75 12 8.75C13.792 8.75 15.25 10.208 15.25 12C15.25 13.792 13.792 15.25 12 15.25ZM13.53 12.47C13.823 12.763 13.823 13.238 13.53 13.531C13.384 13.677 13.192 13.751 13 13.751C12.808 13.751 12.616 13.678 12.47 13.531L11.47 12.531C11.329 12.39 11.25 12.199 11.25 12.001V10.501C11.25 10.087 11.586 9.75098 12 9.75098C12.414 9.75098 12.75 10.087 12.75 10.501V11.6899L13.53 12.47Z" />
</svg>
