<svg viewBox="0 0 24 24" fill="currentColor" stroke="currentColor" xmlns="http://www.w3.org/2000/svg">
<path d="M3.85693 21.75C3.71193 21.75 3.57111 21.7479 3.43311 21.7429C2.93311 21.7309 2.49497 21.411 2.32397 20.928C2.15197 20.442 2.29408 19.9131 2.68408 19.5811C3.61608 18.8291 3.98892 17.997 4.13892 17.426C2.90192 15.947 2.24902 14.08 2.24902 12.001C2.24902 6.84798 6.25902 3.25 11.999 3.25C17.739 3.25 21.749 6.84898 21.749 12.001C21.749 17.153 17.739 20.752 11.999 20.752C10.812 20.752 9.67398 20.591 8.60498 20.2729C7.24198 21.4599 5.36393 21.75 3.85693 21.75ZM3.47803 20.2429C3.48003 20.2429 3.48189 20.2429 3.48389 20.2429C3.48089 20.2439 3.47903 20.2439 3.47803 20.2429ZM12 4.75C7.143 4.75 3.75 7.73198 3.75 12.001C3.75 13.837 4.35498 15.4629 5.50098 16.7029C5.65598 16.8709 5.72692 17.1009 5.69092 17.3279C5.52292 18.3989 4.99511 19.4119 4.18311 20.2429C5.34311 20.2009 6.90304 19.9339 7.86304 18.9099C8.06504 18.6939 8.37703 18.6171 8.65503 18.7141C9.69003 19.0721 10.815 19.2529 12 19.2529C16.857 19.2529 20.25 16.271 20.25 12.002C20.25 7.73295 16.857 4.75 12 4.75ZM8.53003 14.1299L10.834 11.8979L12.105 13.167C12.397 13.459 12.786 13.6189 13.199 13.6189C13.2 13.6189 13.2 13.6189 13.2 13.6189C13.614 13.6189 14.0039 13.457 14.2949 13.165L16.53 10.9301C16.823 10.6371 16.823 10.162 16.53 9.86902C16.237 9.57602 15.762 9.57602 15.469 9.86902L13.1631 12.104L11.8921 10.835C11.2881 10.232 10.3049 10.2331 9.70093 10.8361L7.46899 13.0681C7.17599 13.3611 7.17599 13.8359 7.46899 14.1289C7.61499 14.2749 7.80702 14.3491 7.99902 14.3491C8.19102 14.3491 8.38403 14.2769 8.53003 14.1299Z" />
</svg>
