<svg viewBox="0 0 24 24" fill="currentColor" stroke="currentColor" xmlns="http://www.w3.org/2000/svg">
<path d="M6.41699 8C6.41699 7.586 6.75299 7.25 7.16699 7.25H13.833C14.247 7.25 14.583 7.586 14.583 8C14.583 8.414 14.247 8.75 13.833 8.75H7.16699C6.75299 8.75 6.41699 8.414 6.41699 8ZM12.083 11.333C12.083 10.919 11.747 10.583 11.333 10.583H7.16699C6.75299 10.583 6.41699 10.919 6.41699 11.333C6.41699 11.747 6.75299 12.083 7.16699 12.083H11.333C11.747 12.083 12.083 11.748 12.083 11.333ZM21.6841 21.028C21.5261 21.463 21.1279 21.744 20.6689 21.744C20.5619 21.748 20.4499 21.75 20.3369 21.75C19.2669 21.75 17.9219 21.543 16.8999 20.71C16.1539 20.924 15.348 21.033 14.499 21.033C11.201 21.033 8.58894 19.355 7.65894 16.734C6.50394 17.682 4.96009 17.9189 3.71509 17.9189C3.59309 17.9189 3.47391 17.917 3.35791 17.913C2.88991 17.902 2.47909 17.603 2.31909 17.15C2.15909 16.695 2.29198 16.201 2.65698 15.891C3.37698 15.31 3.68201 14.674 3.81201 14.22C2.79001 12.973 2.25 11.4079 2.25 9.66895C2.25 5.29995 5.64302 2.25 10.499 2.25C15.14 2.25 18.4359 5.03905 18.7209 9.09705C20.6449 10.252 21.749 12.191 21.749 14.502C21.749 16.013 21.286 17.3749 20.405 18.4659C20.521 18.8409 20.7801 19.349 21.3501 19.811C21.7151 20.115 21.8431 20.59 21.6841 21.028ZM6.95996 15.343C7.16196 15.128 7.46993 15.05 7.75293 15.147C8.60393 15.44 9.52702 15.589 10.499 15.589C14.474 15.589 17.249 13.155 17.249 9.67004C17.249 6.18504 14.474 3.75098 10.499 3.75098C6.52502 3.75098 3.75 6.18504 3.75 9.67004C3.75 11.169 4.24303 12.495 5.17603 13.504C5.33103 13.672 5.40197 13.902 5.36597 14.129C5.23697 14.951 4.86211 15.7329 4.28711 16.3979C5.18511 16.3289 6.27096 16.08 6.95996 15.343ZM18.8479 18.38C18.8129 18.153 18.8831 17.922 19.0381 17.754C19.8301 16.899 20.249 15.7751 20.249 14.5031C20.249 13.0171 19.6849 11.7681 18.6489 10.8781C18.0799 14.5891 14.893 17.09 10.499 17.09C10.137 17.09 9.78701 17.0539 9.43701 17.0179C10.368 18.5719 12.222 19.535 14.499 19.535C15.347 19.535 16.1339 19.408 16.8379 19.158C17.1179 19.059 17.43 19.134 17.635 19.351C18.158 19.907 18.95 20.132 19.655 20.212C19.23 19.664 18.9509 19.036 18.8479 18.38ZM20.6399 20.245C20.6309 20.245 20.6239 20.245 20.6169 20.246C20.6239 20.245 20.6319 20.245 20.6399 20.245Z" />
</svg>
