<svg viewBox="0 0 24 24" fill="currentColor" stroke="currentColor" xmlns="http://www.w3.org/2000/svg">
<path d="M12 3.25C6.26 3.25 2.25 6.84898 2.25 12.001C2.25 14.08 2.90189 15.947 4.13989 17.426C3.98989 17.996 3.61706 18.8291 2.68506 19.5811C2.29406 19.9131 2.15295 20.442 2.32495 20.928C2.49595 21.411 2.93408 21.731 3.43408 21.743C3.57208 21.748 3.71291 21.75 3.85791 21.75C5.36491 21.75 7.24293 21.4599 8.60693 20.2729C9.67493 20.591 10.814 20.752 12.001 20.752C17.741 20.752 21.751 17.153 21.751 12.001C21.751 6.84898 17.74 3.25 12 3.25ZM12 19.2531C10.815 19.2531 9.69003 19.072 8.65503 18.714C8.37703 18.617 8.06404 18.694 7.86304 18.91C6.90304 19.934 5.34311 20.202 4.18311 20.243C4.99511 19.413 5.52292 18.399 5.69092 17.328C5.72592 17.101 5.65598 16.871 5.50098 16.703C4.35498 15.463 3.75 13.837 3.75 12.001C3.75 7.73098 7.143 4.75 12 4.75C16.857 4.75 20.25 7.73198 20.25 12.001C20.25 16.27 16.857 19.2531 12 19.2531ZM15.729 8.84705C15.521 8.49805 15.075 8.37805 14.718 8.57605L14.585 8.65002C14.388 8.76102 14.1409 8.76202 13.9409 8.65002C13.7539 8.54502 13.6379 8.35302 13.6379 8.15002C13.6379 7.65402 13.2329 7.25098 12.7339 7.25098H11.21C10.711 7.25098 10.3059 7.65402 10.3059 8.15002C10.3059 8.35402 10.1899 8.54502 10.0029 8.65002C9.80393 8.76202 9.55689 8.76202 9.35889 8.65002C8.93289 8.41302 8.38889 8.558 8.13989 8.974L7.37695 10.255C7.25395 10.46 7.21808 10.711 7.27808 10.942C7.33908 11.174 7.4941 11.376 7.7041 11.495C7.7111 11.498 7.71712 11.502 7.72412 11.506C7.90312 11.613 8.01294 11.8 8.01294 11.999C8.01394 12.204 7.89808 12.397 7.70508 12.505C7.49608 12.624 7.34105 12.825 7.27905 13.056C7.21705 13.289 7.251 13.533 7.375 13.743L8.14111 15.026C8.39311 15.448 8.92611 15.591 9.36011 15.349C9.55711 15.238 9.80293 15.238 10.0029 15.35C10.1899 15.455 10.3049 15.646 10.3049 15.85C10.3049 16.346 10.71 16.749 11.208 16.749H12.7351C13.2331 16.749 13.6379 16.346 13.6379 15.85C13.6379 15.646 13.7539 15.455 13.9409 15.35C14.1399 15.238 14.387 15.238 14.585 15.35C15.011 15.587 15.555 15.442 15.804 15.026L16.572 13.738C16.694 13.53 16.727 13.287 16.665 13.054C16.603 12.82 16.451 12.625 16.24 12.505C16.234 12.502 16.2269 12.498 16.2209 12.495C16.0419 12.388 15.9319 12.2 15.9319 12.001C15.9319 11.796 16.0479 11.603 16.2339 11.499L16.3669 11.425C16.5439 11.326 16.6731 11.16 16.7251 10.965C16.7781 10.769 16.748 10.561 16.645 10.387L15.729 8.84705ZM15.009 13.429L14.772 13.827C14.247 13.702 13.6831 13.773 13.2061 14.043C12.7301 14.311 12.385 14.747 12.23 15.25H11.7151C11.5611 14.748 11.216 14.312 10.739 14.043C10.261 13.774 9.6981 13.7 9.1731 13.827L8.93604 13.4301C9.30404 13.0461 9.51592 12.534 9.51392 11.995C9.51292 11.46 9.30003 10.952 8.93604 10.571L9.1731 10.173C9.6981 10.299 10.262 10.227 10.739 9.95703C11.215 9.68903 11.5601 9.253 11.7151 8.75H12.23C12.384 9.252 12.7301 9.68803 13.2061 9.95703C13.6841 10.227 14.251 10.299 14.772 10.173L15.009 10.571C14.643 10.954 14.4309 11.465 14.4319 12.002C14.4319 12.538 14.644 13.047 15.009 13.429ZM13.02 12C13.02 12.552 12.573 13 12.02 13C11.468 13 11.0149 12.552 11.0149 12C11.0149 11.448 11.458 11 12.01 11H12.02C12.572 11 13.02 11.448 13.02 12Z" />
</svg>
