<svg viewBox="0 0 24 24" fill="currentColor" stroke="currentColor" xmlns="http://www.w3.org/2000/svg">
<path d="M8.62004 13.8099C8.62004 14.2299 8.28004 14.5699 7.87004 14.5699C7.46004 14.5699 7.11003 14.2299 7.11003 13.8099C7.11003 13.3899 7.45004 13.0599 7.87004 13.0599C8.29004 13.0599 8.62004 13.3999 8.62004 13.8099ZM16.13 13.0599C15.72 13.0599 15.38 13.3899 15.38 13.8099C15.38 14.2299 15.71 14.5699 16.13 14.5699C16.55 14.5699 16.8901 14.2299 16.8901 13.8099C16.8901 13.3899 16.55 13.0599 16.13 13.0599ZM21.5 16.9499C21.51 17.0899 21.47 17.2299 21.37 17.3399C21.27 17.4499 21.14 17.5099 21 17.5099H3.00004C2.86004 17.5099 2.72005 17.4499 2.63005 17.3399C2.54005 17.2299 2.49004 17.0899 2.50004 16.9499C2.81004 13.8999 4.56003 11.2099 7.18003 9.68986L5.78007 7.24986C5.64007 7.00986 5.73006 6.70987 5.96006 6.56987C6.20006 6.42987 6.50006 6.50986 6.64006 6.74986L8.07005 9.23985C10.52 8.15985 13.51 8.16985 15.93 9.23985L17.36 6.75987C17.5 6.51987 17.81 6.43985 18.04 6.57985C18.28 6.71985 18.36 7.01987 18.22 7.25987L16.82 9.69987C19.44 11.2199 21.18 13.9099 21.5 16.9599V16.9499ZM20.43 16.4999C20 13.9299 18.4301 11.6899 16.1501 10.4499L15.63 10.1899C13.43 9.17986 10.59 9.16986 8.36003 10.1899L7.83006 10.4499C5.57006 11.6899 4.00005 13.9199 3.57005 16.4899H20.43V16.4999Z" />
</svg>
