<svg viewBox="0 0 24 24" fill="currentColor" stroke="currentColor" xmlns="http://www.w3.org/2000/svg">
<path d="M19.21 15.2501C17.08 14.2401 17.03 12.3901 17.04 12.0301V12.0101C17.04 10.7101 17.59 9.7601 18.79 9.0301C18.91 8.9601 18.99 8.84009 19.02 8.71009C19.05 8.58009 19.02 8.44011 18.94 8.32011C18.11 7.12011 16.84 6.4401 15.19 6.3101C14.79 6.2801 14.39 6.3301 14 6.4101C14.23 6.2201 14.46 5.99009 14.68 5.74009C15.9 4.29009 15.8 2.9301 15.76 2.4701C15.74 2.2001 15.5 1.99011 15.23 2.01011C14.16 2.07011 12.9 2.72008 12.16 3.58008C11.31 4.54008 10.91 5.67009 11.01 6.84009C11.01 6.90009 11.03 6.9501 11.05 7.0001C10.93 6.9601 10.81 6.91009 10.69 6.87009C10.03 6.63009 9.28001 6.36008 8.57001 6.36008C6.05001 6.40008 3.48999 8.42009 3.48999 12.2101C3.48999 13.3101 3.69 14.4601 4.09 15.6401C4.58 17.0401 6.47 21.0101 8.78 21.0101C8.8 21.0101 8.82 21.0101 8.84 21.0101C9.39 21.0001 9.85001 20.8201 10.29 20.6501C10.78 20.4601 11.23 20.2901 11.85 20.2901C12.41 20.2901 12.84 20.4601 13.29 20.6301C13.77 20.8201 14.26 21.0101 14.9 21.0101C17.25 20.9801 19.02 17.1901 19.46 15.8701C19.54 15.6301 19.43 15.3701 19.2 15.2601L19.21 15.2501ZM12.92 4.2201C13.37 3.6901 14.1 3.26008 14.78 3.08008C14.75 3.58008 14.58 4.31009 13.92 5.09009C13.49 5.59009 12.83 6.1701 12.01 6.2801C12.06 5.5501 12.37 4.85011 12.92 4.23011V4.2201ZM14.91 19.9901C14.46 19.9901 14.09 19.8501 13.67 19.6801C13.18 19.4901 12.62 19.2701 11.87 19.2701C11.07 19.2701 10.48 19.5001 9.95001 19.7001C9.55001 19.8501 9.20999 19.9801 8.82999 19.9901C8.81999 19.9901 8.80999 19.9901 8.79999 19.9901C7.31999 19.9901 5.59999 16.8901 5.04999 15.3001C4.68999 14.2401 4.5 13.1901 4.5 12.2001C4.5 8.91011 6.62 7.3801 8.59 7.3501C9.12 7.3501 9.77999 7.59009 10.36 7.80009C10.88 7.99009 11.29 8.14011 11.64 8.14011C11.94 8.14011 12.29 8.01008 12.77 7.83008C13.47 7.57008 14.34 7.2401 15.13 7.3101C16.29 7.4001 17.17 7.79009 17.82 8.49009C16.64 9.37009 16.05 10.5501 16.05 12.0101C16.04 12.4501 16.1 14.6301 18.39 15.9501C17.77 17.5401 16.32 19.9801 14.92 20.0001L14.91 19.9901Z" />
</svg>
