<svg viewBox="0 0 24 24" fill="currentColor" stroke="currentColor" xmlns="http://www.w3.org/2000/svg">
<path d="M7.89999 10.69H5.42999V8.10999H7.72C8.6 8.10999 9.39 8.35 9.39 9.37C9.39 10.31 8.76999 10.69 7.89999 10.69ZM8.09 12.36H5.42999V15.41H8.03999C9.02999 15.41 9.84 15.06 9.84 13.94C9.84 12.82 9.16 12.36 8.09 12.36ZM19.24 6.79999H14.75V7.89001H19.24V6.79999ZM20.98 14.31H20.85C21.01 14.31 21.16 14.39 21.26 14.52C21.35 14.65 21.38 14.82 21.33 14.97C20.67 16.98 19.25 18 17.1 18C14.82 18 13.18 16.69 12.68 14.64C12.51 16.69 10.86 18 8.33 18H3C2.72 18 2.5 17.78 2.5 17.5V6.5C2.5 6.22 2.72 6 3 6H8.19C10.85 6 12.2 7.09001 12.2 9.23001C12.2 10.16 11.89 10.89 11.25 11.44C11.87 11.83 12.29 12.41 12.51 13.13C12.59 10.47 14.49 8.56 17.09 8.56C19.69 8.56 21.49 10.55 21.49 13.41C21.49 13.56 21.48 13.72 21.47 13.86C21.45 14.12 21.23 14.32 20.97 14.32L20.98 14.31ZM11.71 14.31C11.71 13.09 11.16 12.31 10.06 12C9.86 11.94 9.72 11.77 9.7 11.56C9.68 11.35 9.79 11.16 9.98 11.07C10.83 10.67 11.19 10.12 11.19 9.23001C11.19 7.67001 10.29 7 8.17999 7H3.49001V17H8.32001C9.95001 17 11.7 16.29 11.7 14.31H11.71ZM20.11 15.31H19.23C18.82 15.99 17.94 16.35 17.17 16.35C15.62 16.35 14.7 15.4 14.7 13.81C14.7 13.53 14.92 13.31 15.2 13.31H20.5C20.47 11.42 19.41 9.54999 17.1 9.54999C14.98 9.54999 13.5 11.09 13.5 13.29C13.5 15.49 14.88 17 17.1 17C18.56 17 19.53 16.46 20.11 15.31ZM18.91 14.31H15.74C15.88 15.01 16.35 15.35 17.16 15.35C17.67 15.35 18.3 15.07 18.42 14.66C18.48 14.45 18.68 14.31 18.9 14.31H18.91ZM17.03 10.71C15.97 10.71 15.27 11.37 15.2 12.42H18.78C18.69 11.36 18.13 10.71 17.03 10.71Z" />
</svg>
