<svg viewBox="0 0 24 24" fill="currentColor" stroke="currentColor" xmlns="http://www.w3.org/2000/svg">
<path d="M19.82 9.45978H18.73C18.42 9.45978 18.14 9.17977 18.14 8.86977C18.14 5.41977 15.33 2.50977 12 2.50977H8.64001C5.26001 2.50977 2.5 5.25976 2.5 8.64977V15.3798C2.5 18.7598 5.25001 21.5198 8.64001 21.5198H15.37C18.75 21.5198 21.51 18.7698 21.51 15.3798V11.1498C21.51 10.1898 20.79 9.46977 19.83 9.46977L19.82 9.45978ZM20.5 15.3698C20.5 18.1998 18.2 20.5098 15.36 20.5098H8.63C5.8 20.5098 3.48999 18.2098 3.48999 15.3698V8.63977C3.48999 5.80977 5.79 3.49977 8.63 3.49977H11.99C14.77 3.49977 17.13 5.95977 17.13 8.85977C17.13 9.71977 17.86 10.4498 18.72 10.4498H19.81C20.21 10.4498 20.49 10.7298 20.49 11.1298V15.3598L20.5 15.3698ZM7.45999 8.90977C7.45999 8.31977 7.95999 7.81978 8.54999 7.81978H12.59C13.18 7.81978 13.68 8.31977 13.68 8.90977C13.68 9.49977 13.18 9.99977 12.59 9.99977H8.54999C7.95999 9.99977 7.45999 9.49977 7.45999 8.90977ZM16.46 15.4998C16.46 16.0898 15.96 16.5898 15.37 16.5898H8.56C7.97 16.5898 7.47 16.0898 7.47 15.4998C7.47 14.9098 7.97 14.4098 8.56 14.4098H15.37C15.96 14.4098 16.46 14.9098 16.46 15.4998Z" />
</svg>
