<svg viewBox="0 0 24 24" fill="currentColor" stroke="currentColor" xmlns="http://www.w3.org/2000/svg">
<path d="M17.5 6.60001V3C17.5 2.72 17.27 2.5 16.99 2.5H13.84C13.71 2.5 13.58 2.55001 13.49 2.64001L13.15 2.97C13.15 2.97 13.08 3.05 13.06 3.09L11.52 5.97L11.29 6.10001H5.98999C5.70999 6.10001 5.48999 6.32001 5.48999 6.60001V11.1C5.48999 11.38 5.70999 11.6 5.98999 11.6H8.51999L5.54999 17.17C5.50999 17.24 5.48999 17.32 5.48999 17.41V21C5.48999 21.13 5.54001 21.26 5.64001 21.35C5.74001 21.44 5.85999 21.5 5.98999 21.5H9.14999C9.27999 21.5 9.41 21.45 9.5 21.36L9.84 21.03C9.84 21.03 9.90999 20.95 9.92999 20.91L11.47 18.03L11.69 17.91H17C17.28 17.91 17.5 17.69 17.5 17.41V12.92C17.5 12.64 17.28 12.42 17 12.42H14.47L17.44 6.85001C17.48 6.78001 17.5 6.69999 17.5 6.60999V6.60001ZM16.5 6.48001L13.35 12.38C13.25 12.58 13.28 12.82 13.44 12.97L13.73 13.26C13.82 13.35 13.95 13.4 14.08 13.4H16.49V16.89H11.55C11.46 16.89 11.38 16.91 11.3 16.96L10.84 17.22C10.76 17.27 10.69 17.34 10.65 17.42L9.07999 20.36L8.94 20.49H6.48999V17.52L9.64001 11.62C9.74001 11.42 9.70999 11.18 9.54999 11.03L9.25 10.73C9.16 10.64 9.02999 10.59 8.89999 10.59H6.5V7.09H11.44C11.53 7.09 11.61 7.06999 11.69 7.01999L12.16 6.75C12.24 6.7 12.31 6.62999 12.35 6.54999L13.92 3.60999L14.05 3.48001H16.5V6.45999V6.48001Z" />
</svg>
