<svg viewBox="0 0 24 24" fill="currentColor" stroke="currentColor" xmlns="http://www.w3.org/2000/svg">
<path d="M19.3599 5.96994C19.3099 5.89994 19.2399 5.83992 19.1599 5.79992C17.7899 5.17992 16.3599 4.73993 14.9099 4.49993C14.7099 4.46993 14.4999 4.55992 14.3999 4.73992C14.2599 4.97992 14.1199 5.24994 13.9999 5.50994C12.6699 5.34994 11.3399 5.34994 10.0299 5.50994C9.89993 5.23994 9.75995 4.96993 9.63995 4.74993C9.53995 4.55993 9.32993 4.45993 9.11993 4.49993C7.64993 4.73993 6.20993 5.17992 4.86993 5.79992C4.78993 5.83992 4.71995 5.89994 4.66995 5.96994C2.20995 9.55994 1.20994 13.3399 1.59994 17.5299C1.60994 17.6699 1.68993 17.8099 1.80993 17.8899C3.44993 19.0599 5.14993 19.8999 7.02993 20.4699C7.22993 20.5299 7.44994 20.4699 7.56994 20.2899C7.98994 19.7399 8.36995 19.1299 8.69995 18.4799C8.72995 18.4199 8.74994 18.3599 8.74994 18.2999C10.9099 18.8799 13.1399 18.8899 15.2799 18.2999C15.2799 18.3599 15.2999 18.4199 15.3299 18.4799C15.6399 19.0799 16.0199 19.6899 16.4499 20.2799C16.5499 20.4099 16.6999 20.4799 16.8499 20.4799C16.8999 20.4799 16.9499 20.4799 16.9899 20.4599C18.8899 19.8799 20.5999 19.0399 22.2099 17.8799C22.3299 17.7999 22.3999 17.6699 22.4099 17.5299C22.8299 13.3699 21.7999 9.47993 19.3599 5.95993V5.96994ZM21.4299 17.2099C20.0599 18.1699 18.6199 18.8899 17.0299 19.4099C16.8199 19.1199 16.6299 18.8199 16.4599 18.5199C16.8999 18.3299 17.3199 18.1199 17.7199 17.8799C17.8699 17.7899 17.9599 17.6399 17.9699 17.4699C17.9699 17.2999 17.8999 17.1399 17.7599 17.0399C17.6299 16.9499 17.4999 16.8499 17.3799 16.7499C17.2299 16.6199 17.0199 16.5899 16.8499 16.6799C13.7299 18.0999 10.29 18.0999 7.13995 16.6799C6.96995 16.5999 6.75992 16.6299 6.60992 16.7599C6.51992 16.8299 6.41992 16.9099 6.32992 16.9799L6.21994 17.0599C6.08994 17.1599 6.01993 17.3199 6.02993 17.4899C6.03994 17.6599 6.12993 17.8099 6.26993 17.8899C6.67992 18.1299 7.08993 18.3399 7.51993 18.5299C7.33993 18.8399 7.14993 19.1399 6.95993 19.4199C5.38993 18.9099 3.94993 18.1899 2.55993 17.2199C2.24993 13.4099 3.17993 9.94994 5.39993 6.65994C6.51993 6.15994 7.70993 5.78993 8.92993 5.55993C9.06993 5.82993 9.17995 6.06993 9.25995 6.24993C9.33995 6.46993 9.56992 6.59993 9.79992 6.55993C11.2699 6.34993 12.7599 6.34993 14.2499 6.55993C14.4799 6.58993 14.6999 6.45993 14.7899 6.24993C14.8699 6.04993 14.9899 5.79993 15.1099 5.55993C16.3199 5.78993 17.4999 6.15994 18.6399 6.65994C20.8699 9.92994 21.7999 13.3799 21.4599 17.2199L21.4299 17.2099ZM10.4799 13.1599C10.4799 14.2599 9.67993 15.1599 8.67993 15.1599C7.67993 15.1599 6.87994 14.2599 6.87994 13.1599C6.87994 12.0599 7.66993 11.1599 8.67993 11.1599C9.68993 11.1599 10.4999 12.0599 10.4799 13.1599ZM17.1199 13.1599C17.1199 14.2599 16.3299 15.1599 15.3199 15.1599C14.3099 15.1599 13.5199 14.2599 13.5199 13.1599C13.5199 12.0599 14.3099 11.1599 15.3199 11.1599C16.3299 11.1599 17.1399 12.0599 17.1199 13.1599Z" />
</svg>
