<svg viewBox="0 0 24 24" fill="currentColor" stroke="currentColor" xmlns="http://www.w3.org/2000/svg">
<path d="M19.61 4.78C17.64 2.7 14.86 1.5 12 1.5C10.59 1.5 9.23998 1.77 7.97998 2.3C4.45998 3.76 2.01003 7.02 1.59003 10.78C1.54003 11.15 1.52002 11.54 1.52002 11.97C1.52002 14.82 2.63999 17.48 4.67999 19.47C6.64999 21.41 9.26002 22.47 12.02 22.47C13.49 22.47 14.89 22.18 16.2 21.6C19.8 20.03 22.21 16.63 22.48 12.73C22.5 12.49 22.51 12.23 22.51 11.98C22.51 9.28 21.48 6.71999 19.62 4.75999L19.61 4.78ZM21.49 12.06C19.24 11.44 16.86 11.35 14.56 11.81C14.27 11.05 13.93 10.29 13.55 9.53999C15.63 8.58999 17.53 7.35 19.19 5.83C20.67 7.55 21.49 9.72 21.49 12C21.49 12.02 21.49 12.04 21.49 12.05V12.06ZM18.5 5.11C16.9 6.56 15.08 7.74999 13.09 8.64999C11.98 6.59999 10.61 4.70001 9.03003 2.99001C9.98003 2.67001 10.97 2.50999 12 2.50999C14.42 2.50999 16.75 3.46 18.51 5.11H18.5ZM8.03998 3.39C9.65998 5.09 11.04 6.99 12.17 9.05C9.16998 10.23 6.01997 10.71 2.65997 10.41C3.17997 7.33 5.18998 4.7 8.03998 3.39ZM2.52002 11.41C3.19002 11.47 3.85 11.51 4.5 11.51C7.31 11.51 10.04 10.97 12.64 9.92999C12.99 10.63 13.31 11.34 13.59 12.05C10.05 13 6.96001 15.25 4.95001 18.34C3.38001 16.6 2.51001 14.38 2.51001 12C2.51001 11.79 2.51003 11.59 2.53003 11.4L2.52002 11.41ZM5.65997 19.06C7.54997 16.06 10.52 13.88 13.93 12.99C14.83 15.51 15.35 18.15 15.45 20.84C14.36 21.27 13.2 21.5 11.99 21.5C9.62999 21.5 7.40002 20.63 5.65002 19.05L5.65997 19.06ZM16.42 20.38C16.28 17.77 15.77 15.21 14.9 12.76C17.06 12.35 19.3 12.46 21.4 13.08C21.05 16.21 19.19 18.92 16.41 20.39L16.42 20.38Z" />
</svg>
