<svg viewBox="0 0 24 24" fill="currentColor" stroke="currentColor" xmlns="http://www.w3.org/2000/svg">
<path d="M12 1.5C6.21 1.5 1.5 6.21 1.5 12C1.5 17.2 5.23 21.57 10.36 22.37C10.5 22.39 10.65 22.35 10.76 22.26C10.87 22.17 10.93 22.03 10.93 21.88V15C10.93 14.72 10.71 14.5 10.43 14.5H8.50999V12.5H10.43C10.71 12.5 10.93 12.28 10.93 12V9.8C10.93 7.67 12.09 6.5 14.21 6.5C14.86 6.5 15.53 6.57 15.95 6.63V8.07001H15.19C13.88 8.07001 13.06 8.86 13.06 10.13V12.01C13.06 12.29 13.28 12.51 13.56 12.51H15.87L15.57 14.51H13.56C13.28 14.51 13.06 14.73 13.06 15.01V21.89C13.06 22.04 13.12 22.18 13.23 22.27C13.32 22.35 13.44 22.39 13.56 22.39C13.59 22.39 13.61 22.39 13.64 22.39C18.77 21.58 22.5 17.22 22.5 12.02C22.5 6.23 17.79 1.52 12 1.52V1.5ZM14.06 21.28V15.5H16C16.25 15.5 16.46 15.32 16.49 15.07L16.94 12.07C16.96 11.93 16.92 11.78 16.82 11.67C16.72 11.56 16.59 11.5 16.44 11.5H14.05V10.12C14.05 9.17 14.69 9.06 15.18 9.06H16.44C16.72 9.06 16.94 8.84 16.94 8.56V6.19C16.94 5.95 16.76 5.74 16.52 5.7C16.47 5.7 15.32 5.5 14.2 5.5C11.52 5.5 9.92 7.11 9.92 9.8V11.5H8C7.72 11.5 7.5 11.72 7.5 12V15C7.5 15.28 7.72 15.5 8 15.5H9.92V21.28C5.58 20.33 2.48 16.52 2.48 12C2.48 6.76 6.74 2.5 11.98 2.5C17.22 2.5 21.48 6.76 21.48 12C21.48 16.51 18.39 20.32 14.04 21.28H14.06Z" />
</svg>
