<svg viewBox="0 0 24 24" fill="currentColor" stroke="currentColor" xmlns="http://www.w3.org/2000/svg">
<path d="M12 2.5C6.58 2.5 2.5 6.47 2.5 11.73C2.5 14.41 3.55999 16.83 5.48999 18.56C5.52999 18.6 5.56 18.65 5.56 18.72L5.60999 20.32C5.62999 20.98 6.16999 21.5 6.82999 21.5C6.83999 21.5 6.85999 21.5 6.87 21.5C7.02999 21.5 7.17999 21.46 7.32999 21.4L9.12 20.61C9.12 20.61 9.20999 20.59 9.26999 20.61C10.15 20.85 11.07 20.97 12.01 20.97C17.43 20.97 21.51 17 21.51 11.74C21.51 6.48001 17.43 2.50999 12.01 2.50999L12 2.5ZM12 19.96C11.16 19.96 10.32 19.85 9.51999 19.63C9.24999 19.56 8.95999 19.58 8.70999 19.69L6.84 20.5C6.72 20.5 6.62 20.41 6.62 20.29L6.57001 18.69C6.57001 18.36 6.41 18.04 6.16 17.81C4.45 16.28 3.5 14.12 3.5 11.73C3.5 7.04 7.15 3.5 12 3.5C16.85 3.5 20.5 7.04 20.5 11.73C20.5 16.42 16.85 19.96 12 19.96ZM17.43 9.67L14.77 13.94C14.37 14.58 13.53 14.78 12.9 14.37C12.87 14.35 12.84 14.33 12.81 14.31L10.7 12.7C10.51 12.55 10.24 12.55 10.05 12.7L7.20001 14.9C6.82001 15.19 6.31999 14.73 6.57999 14.32L9.23999 10.04C9.63999 9.39999 10.48 9.2 11.11 9.61C11.14 9.63 11.17 9.65 11.2 9.67L13.31 11.28C13.5 11.43 13.77 11.43 13.96 11.28L16.81 9.08C17.19 8.79 17.69 9.25 17.43 9.66V9.67Z" />
</svg>
