<svg viewBox="0 0 24 24" fill="currentColor" stroke="currentColor" xmlns="http://www.w3.org/2000/svg">
<path d="M15.58 6.49001H17C17.28 6.49001 17.5 6.27001 17.5 5.99001V3.22C17.5 2.98 17.32 2.77 17.08 2.73C17.03 2.73 15.74 2.5 14.47 2.5C11.54 2.5 9.70999 4.37 9.70999 7.38V9.36H7.98999C7.70999 9.36 7.48999 9.58 7.48999 9.86V13.12C7.48999 13.4 7.70999 13.62 7.98999 13.62H9.70999V21C9.70999 21.28 9.92999 21.5 10.21 21.5H13.73C14.01 21.5 14.23 21.28 14.23 21V13.62H16.36C16.61 13.62 16.82 13.44 16.85 13.2L17.35 9.94C17.37 9.8 17.33 9.64999 17.24 9.53999C17.14 9.42999 17.01 9.37 16.86 9.37H14.23V7.75999C14.23 6.90999 14.67 6.5 15.57 6.5L15.58 6.49001ZM13.74 10.36H16.28L15.93 12.62H13.73C13.45 12.62 13.23 12.84 13.23 13.12V20.5H10.71V13.12C10.71 12.84 10.49 12.62 10.21 12.62H8.48999V10.36H10.21C10.49 10.36 10.71 10.14 10.71 9.86V7.38C10.71 4.91 12.08 3.5 14.47 3.5C15.23 3.5 16.02 3.58999 16.49 3.64999V5.49001H15.57C14.11 5.49001 13.23 6.33 13.23 7.75V9.86C13.23 10.14 13.45 10.36 13.73 10.36H13.74Z" />
</svg>
