<svg viewBox="0 0 24 24" fill="currentColor" stroke="currentColor" xmlns="http://www.w3.org/2000/svg">
<path d="M16.77 9C17.8 8.39 18.5 7.28 18.5 6C18.5 4.07 16.93 2.5 15 2.5H9C7.07 2.5 5.5 4.07 5.5 6C5.5 7.28 6.19998 8.39 7.22998 9C6.19998 9.61 5.5 10.72 5.5 12C5.5 13.28 6.19998 14.39 7.22998 15C6.19998 15.61 5.5 16.72 5.5 18C5.5 19.93 7.07 21.5 9 21.5C10.93 21.5 12.5 19.93 12.5 18V14.44C13.14 15.09 14.02 15.5 15 15.5C16.93 15.5 18.5 13.93 18.5 12C18.5 10.72 17.8 9.61 16.77 9ZM17.5 6C17.5 7.38 16.38 8.5 15 8.5H12.5V3.5H15C16.38 3.5 17.5 4.62 17.5 6ZM12.5 9.5H12.56C12.56 9.5 12.52 9.54 12.5 9.56V9.5ZM6.5 6C6.5 4.62 7.62 3.5 9 3.5H11.5V8.5H9C7.62 8.5 6.5 7.38 6.5 6ZM11.5 18C11.5 19.38 10.38 20.5 9 20.5C7.62 20.5 6.5 19.38 6.5 18C6.5 16.62 7.62 15.5 9 15.5H11.5V18ZM11.5 14.5H9C7.62 14.5 6.5 13.38 6.5 12C6.5 10.62 7.62 9.5 9 9.5H11.5V14.5ZM15 14.5C13.62 14.5 12.5 13.38 12.5 12C12.5 10.62 13.62 9.5 15 9.5C16.38 9.5 17.5 10.62 17.5 12C17.5 13.38 16.38 14.5 15 14.5Z" />
</svg>
