<svg viewBox="0 0 24 24" fill="currentColor" stroke="currentColor" xmlns="http://www.w3.org/2000/svg">
<path fill-rule="evenodd" clip-rule="evenodd" d="M12 2.5C6.76 2.5 2.5 6.76 2.5 12C2.5 17.24 6.76 21.5 12 21.5C17.24 21.5 21.5 17.24 21.5 12C21.5 6.76 17.24 2.5 12 2.5ZM14.24 20.19C14.24 20.19 14.23 20.14 14.23 20.11C14.23 19.81 14.24 18.84 14.24 17.64C14.24 16.8 13.95 16.25 13.63 15.97C15.63 15.75 17.74 14.99 17.74 11.53C17.74 10.55 17.39 9.75 16.81 9.12C16.91 8.89 17.22 7.97001 16.73 6.73001C16.73 6.73001 15.97 6.49 14.25 7.66C13.53 7.46 12.76 7.36001 12 7.35001C11.23 7.36001 10.46 7.46 9.75 7.66C8.03 6.49 7.27002 6.73001 7.27002 6.73001C6.78002 7.97001 7.08999 8.89 7.17999 9.12C6.60999 9.75 6.26001 10.55 6.26001 11.53C6.26001 14.98 8.35999 15.75 10.36 15.98C10.1 16.2 9.86998 16.6 9.78998 17.18C9.26998 17.41 7.96998 17.81 7.16998 16.43C7.16998 16.43 6.68998 15.57 5.78998 15.51C5.78998 15.51 4.90998 15.5 5.72998 16.05C5.72998 16.05 6.31998 16.33 6.72998 17.37C6.72998 17.37 7.25001 18.98 9.76001 18.43C9.76001 19.18 9.77002 19.89 9.77002 20.11C9.77002 20.14 9.76001 20.16 9.76001 20.19C6.16001 19.2 3.5 15.91 3.5 12C3.5 7.31 7.31 3.5 12 3.5C16.69 3.5 20.5 7.31 20.5 12C20.5 15.91 17.84 19.2 14.24 20.19Z" />
</svg>
