<svg viewBox="0 0 24 24" fill="currentColor" stroke="currentColor" xmlns="http://www.w3.org/2000/svg">
<path d="M20.1 9.81979L7.51007 2.90979C7.13007 2.66979 6.64006 2.52979 6.12006 2.52979C4.95006 2.52979 3.91006 3.27977 3.62006 4.32977C3.62006 4.32977 3.62006 4.33979 3.62006 4.34979C3.62006 4.36979 3.61004 4.37978 3.60004 4.39978C3.55004 4.62978 3.54004 4.87977 3.54004 5.04977V19.0698C3.54004 19.2898 3.54005 19.5098 3.61005 19.7098C3.61005 19.7098 3.61005 19.7198 3.61005 19.7298C3.95005 20.7898 4.97005 21.5298 6.11005 21.5298C6.61005 21.5298 7.06004 21.3998 7.42004 21.1698L16.29 16.3398L20.1301 14.2498C20.9701 13.8098 21.5201 12.9398 21.5201 11.9998C21.4601 11.0898 20.9101 10.2498 20.0901 9.81979H20.1ZM6.12006 3.52979C6.45006 3.52979 6.76006 3.6098 7.00006 3.7598L15.2001 8.2598L12.0101 11.3098L4.69006 4.37979C4.93006 3.87979 5.50007 3.51978 6.13007 3.51978L6.12006 3.52979ZM4.53009 18.4298V5.61978L11.2701 11.9998L4.53009 18.4298ZM6.91003 20.3098C6.68003 20.4598 6.42005 20.5298 6.11005 20.5298C5.50005 20.5298 4.96005 20.1798 4.68005 19.6598L11.9901 12.6898L15.2401 15.7698L6.90009 20.3198L6.91003 20.3098ZM19.67 13.3598L16.1801 15.2598L12.73 11.9898L16.1201 8.7598L19.6301 10.6898C19.6301 10.6898 19.6301 10.6898 19.6401 10.6898C20.1501 10.9598 20.5 11.4898 20.54 12.0198C20.54 12.5598 20.2101 13.0798 19.6801 13.3498L19.67 13.3598Z" />
</svg>
