<svg viewBox="0 0 24 24" fill="currentColor" stroke="currentColor" xmlns="http://www.w3.org/2000/svg">
<path d="M21.83 10.2498C21.79 10.0098 21.58 9.82974 21.34 9.82974H11.96C11.68 9.82974 11.46 10.0497 11.46 10.3297V14.0898C11.46 14.3698 11.68 14.5898 11.96 14.5898H16.68C16.39 15.4298 15.83 16.1398 15.06 16.6598C14.18 17.2398 13.14 17.5398 11.96 17.5398C9.65002 17.5398 7.59998 16.0197 6.84998 13.7397C6.65998 13.1897 6.56 12.5998 6.56 11.9998C6.56 11.3998 6.65998 10.8298 6.84998 10.2498C7.59998 7.97976 9.66002 6.45975 11.96 6.45975C13.3 6.45975 14.5 6.92976 15.43 7.81976C15.63 8.00976 15.94 7.99976 16.13 7.81976L18.97 4.96976C19.06 4.86976 19.12 4.73974 19.12 4.60974C19.12 4.47974 19.06 4.34976 18.96 4.24976C17.05 2.44976 14.63 1.50977 11.96 1.50977C7.99002 1.50977 4.41 3.72974 2.62 7.29974C1.87 8.77974 1.5 10.3598 1.5 12.0098C1.5 13.6598 1.88 15.2398 2.62 16.7198C4.41 20.2898 7.99002 22.5098 11.96 22.5098C14.69 22.5098 17.08 21.6298 18.88 19.9498C20.89 18.0898 22 15.3498 22 12.2298C22 11.5798 21.95 10.9298 21.83 10.2598V10.2498ZM18.2 19.2097C16.58 20.7097 14.43 21.4998 11.96 21.4998C8.37002 21.4998 5.13002 19.4898 3.52002 16.2598C2.85002 14.9198 2.5 13.4898 2.5 11.9998C2.5 10.5098 2.84002 9.07975 3.52002 7.73975C5.14002 4.50975 8.37002 2.49976 11.96 2.49976C14.2 2.49976 16.24 3.22976 17.89 4.62976L15.76 6.76974C14.7 5.90974 13.4 5.45975 11.96 5.45975C9.22002 5.45975 6.79002 7.25976 5.90002 9.93976C5.67002 10.6198 5.56 11.3198 5.56 12.0098C5.56 12.6998 5.68002 13.4297 5.90002 14.0797C6.79002 16.7597 9.22002 18.5598 11.96 18.5598C13.32 18.5598 14.59 18.1998 15.62 17.5098C16.78 16.7298 17.56 15.5497 17.82 14.2097C17.85 14.0597 17.82 13.9097 17.72 13.7997C17.63 13.6797 17.48 13.6198 17.33 13.6198H12.46V10.8597H20.91C20.97 11.3297 21 11.7898 21 12.2498C21 15.0798 20.01 17.5598 18.21 19.2298L18.2 19.2097Z" />
</svg>
