<svg viewBox="0 0 24 24" fill="currentColor" stroke="currentColor" xmlns="http://www.w3.org/2000/svg">
<path d="M21.4399 8.25993C21.3799 7.02993 21.1499 5.45994 19.8399 4.15994C18.5399 2.85994 16.9699 2.61993 15.7399 2.55993C14.2399 2.46993 9.75994 2.46993 8.25994 2.55993C7.03994 2.61993 5.46994 2.84994 4.15994 4.15994C2.85994 5.45994 2.61993 7.02993 2.55993 8.25993C2.46993 9.75993 2.46993 14.2399 2.55993 15.7399C2.61993 16.9699 2.84994 18.5399 4.15994 19.8399C5.46994 21.1399 7.03993 21.3799 8.24993 21.4399C8.99993 21.4799 10.4999 21.4999 11.9899 21.4999C13.4799 21.4999 14.9699 21.4799 15.7199 21.4399C16.9399 21.3799 18.5199 21.1499 19.8199 19.8399C21.1199 18.5399 21.3599 16.9699 21.4199 15.7399C21.5099 14.2399 21.5099 9.76993 21.4199 8.25993H21.4399ZM20.4399 15.6799C20.3599 17.2599 19.9699 18.2799 19.1299 19.1199C18.2899 19.9599 17.2599 20.3499 15.6899 20.4299C14.2099 20.5099 9.79994 20.5099 8.31994 20.4299C6.74994 20.3499 5.71994 19.9599 4.87994 19.1199C4.03994 18.2799 3.64994 17.2499 3.56994 15.6699C3.48994 14.1899 3.48994 9.77994 3.56994 8.29994C3.64994 6.71994 4.03994 5.68993 4.87994 4.85993C5.71994 4.01993 6.74992 3.62994 8.32992 3.54994C9.06992 3.50994 10.5399 3.48994 12.0099 3.48994C13.4799 3.48994 14.9599 3.50994 15.6999 3.54994C17.2699 3.62994 18.2999 4.01993 19.1399 4.85993C19.9799 5.69993 20.3699 6.72994 20.4499 8.29994C20.5299 9.77994 20.5299 14.1899 20.4499 15.6699L20.4399 15.6799ZM11.9999 7.49993C9.51993 7.49993 7.49993 9.51993 7.49993 11.9999C7.49993 14.4799 9.51993 16.4999 11.9999 16.4999C14.4799 16.4999 16.4999 14.4799 16.4999 11.9999C16.4999 9.51993 14.4799 7.49993 11.9999 7.49993ZM11.9999 15.4999C10.0699 15.4999 8.49993 13.9299 8.49993 11.9999C8.49993 10.0699 10.0699 8.49993 11.9999 8.49993C13.9299 8.49993 15.4999 10.0699 15.4999 11.9999C15.4999 13.9299 13.9299 15.4999 11.9999 15.4999ZM18.2699 6.49993C18.2699 6.90993 17.9399 7.24993 17.5199 7.24993C17.0999 7.24993 16.7699 6.90993 16.7699 6.49993C16.7699 6.08993 17.0999 5.74993 17.5199 5.74993C17.9399 5.74993 18.2699 6.08993 18.2699 6.49993Z" />
</svg>
