<svg viewBox="0 0 24 24" fill="currentColor" stroke="currentColor" xmlns="http://www.w3.org/2000/svg">
<path d="M7.03997 9.12981H3.24997C2.96997 9.12981 2.74997 9.3498 2.74997 9.62981V20.9998C2.74997 21.2798 2.96997 21.4998 3.24997 21.4998H7.03997C7.31997 21.4998 7.53997 21.2798 7.53997 20.9998V9.62981C7.53997 9.3498 7.31997 9.12981 7.03997 9.12981ZM6.53997 20.4998H3.74997V10.1298H6.53997V20.4998ZM5.28997 2.4998C4.53997 2.4898 3.87998 2.73981 3.34998 3.23981C2.81998 3.73981 2.51997 4.40981 2.49997 5.12981C2.47997 5.84981 2.73998 6.53981 3.23998 7.06981C3.73998 7.59981 4.40998 7.8998 5.12998 7.9198C5.13998 7.9198 5.15997 7.9198 5.16997 7.9198C6.65997 7.9198 7.88997 6.70981 7.91997 5.20981C7.91997 3.72981 6.75997 2.5398 5.28997 2.4998ZM5.15998 6.9198C4.69998 6.9098 4.27998 6.71981 3.96998 6.37981C3.65998 6.04981 3.48997 5.6098 3.49997 5.1598C3.50997 4.6998 3.69997 4.27981 4.03997 3.95981C4.36997 3.64981 4.79997 3.47981 5.25997 3.48981C6.18997 3.51981 6.91997 4.2698 6.91997 5.1898C6.89997 6.1498 6.14998 6.9298 5.15998 6.9098V6.9198ZM21.45 14.1298C21.45 10.3498 19 9.00979 16.72 9.00979C15.66 8.96979 14.61 9.33981 13.79 9.98981V9.62981C13.79 9.3498 13.57 9.12981 13.29 9.12981H9.62998C9.34998 9.12981 9.12998 9.3498 9.12998 9.62981V20.9998C9.12998 21.2798 9.34998 21.4998 9.62998 21.4998H13.42C13.7 21.4998 13.92 21.2798 13.92 20.9998V15.0998C13.92 15.0998 13.92 14.9998 13.92 14.9798C13.92 14.9498 13.92 14.9098 13.92 14.8798C13.89 14.4298 14.04 13.9898 14.34 13.6498C14.64 13.3098 15.05 13.0998 15.47 13.0798C15.78 13.0798 16.71 13.0798 16.71 15.0198V21.0098C16.71 21.2898 16.93 21.5098 17.21 21.5098H21C21.13 21.5098 21.26 21.4598 21.35 21.3598C21.44 21.2698 21.5 21.1398 21.5 20.9998L21.45 14.1298ZM17.71 20.4998V15.0098C17.71 12.3598 16.15 12.0698 15.44 12.0698C14.72 12.1198 14.06 12.4398 13.59 12.9898C13.13 13.5098 12.9 14.1698 12.93 14.8998C12.93 14.9798 12.93 15.0698 12.93 15.0998V20.4998H10.14V10.1298H12.8V11.2698C12.8 11.4898 12.94 11.6898 13.16 11.7498C13.37 11.8098 13.6 11.7298 13.72 11.5498C14.37 10.5598 15.52 9.95979 16.71 10.0098C17.84 10.0098 20.45 10.4098 20.45 14.1398L20.5 20.5098H17.71V20.4998Z" />
</svg>
