<svg viewBox="0 0 24 24" fill="currentColor" stroke="currentColor" xmlns="http://www.w3.org/2000/svg">
<path d="M21.42 11.6201C21.32 11.3801 21.13 11.1801 20.83 11.0701L18.24 10.3301C16.06 9.72013 14.31 7.98012 13.7 5.79012L12.96 3.21013C12.87 2.89013 12.62 2.64012 12.29 2.54012C12.04 2.47012 11.78 2.50012 11.55 2.62012C11.32 2.74012 11.16 2.95012 11.09 3.20012L10.35 5.78013C9.72997 7.96012 7.98998 9.70013 5.79998 10.3201L3.21001 11.0601C2.89001 11.1501 2.62997 11.4101 2.53997 11.7301C2.38997 12.2501 2.70001 12.7901 3.21001 12.9301L5.79998 13.6701C7.97998 14.2801 9.72002 16.0201 10.34 18.2101L11.08 20.7901C11.2 21.2101 11.58 21.5001 12.02 21.5001C12.45 21.5001 12.83 21.2101 12.96 20.8001L13.7 18.2201C14.32 16.0401 16.06 14.3001 18.25 13.6801L20.89 12.9201C21.14 12.8201 21.33 12.6201 21.43 12.3801C21.53 12.1401 21.53 11.8701 21.43 11.6201H21.42ZM17.97 12.7201C15.45 13.4301 13.44 15.4301 12.73 17.9501L12.02 20.4501L11.3 17.9501C10.59 15.4301 8.58 13.4301 6.07 12.7301L3.47997 12.0401L6.07 11.3001C8.59 10.5901 10.59 8.59013 11.31 6.08013L12 3.50013L12.74 6.08013C13.45 8.60013 15.46 10.6001 17.98 11.3001L20.57 11.9901L17.99 12.7301L17.97 12.7201ZM8.39001 18.2501C8.42001 18.3301 8.38999 18.4101 8.30999 18.4401L7.53002 18.6601C6.82002 18.8601 6.25999 19.4101 6.05999 20.1201L5.84002 20.9001C5.84002 20.9001 5.78998 20.9801 5.73998 21.0001C5.65998 21.0201 5.57999 20.9801 5.55999 20.9001L5.34002 20.1201C5.14002 19.4101 4.57999 18.8601 3.86999 18.6601L3.09002 18.4401C3.09002 18.4401 3.00998 18.3901 2.98998 18.3401C2.96998 18.2601 3.01002 18.1901 3.09002 18.1601L3.86999 17.9401C4.57999 17.7401 5.14002 17.1901 5.34002 16.4801L5.55999 15.7001C5.55999 15.7001 5.60996 15.6201 5.65996 15.6001C5.73996 15.5801 5.82002 15.6201 5.84002 15.7001L6.05999 16.4801C6.25999 17.1901 6.82002 17.7401 7.53002 17.9401L8.30999 18.1601C8.30999 18.1601 8.37001 18.2001 8.39001 18.2401V18.2501ZM17.47 4.89013C17.47 4.89013 17.42 4.86013 17.41 4.83013C17.4 4.78013 17.42 4.73013 17.47 4.71013L17.99 4.56012C18.46 4.43012 18.83 4.06012 18.97 3.59012L19.12 3.07013C19.12 3.07013 19.15 3.02012 19.18 3.01012C19.23 3.00012 19.28 3.02013 19.3 3.07013L19.45 3.59012C19.58 4.06012 19.95 4.43012 20.43 4.56012L20.95 4.71013C20.95 4.71013 20.99 4.74012 21 4.76012C21.02 4.81012 21 4.87013 20.95 4.89013L20.43 5.04012C19.96 5.17012 19.59 5.54012 19.45 6.01012L19.3 6.53013C19.3 6.53013 19.27 6.58012 19.24 6.59012C19.19 6.60012 19.14 6.58013 19.12 6.53013L18.97 6.01012C18.84 5.54012 18.47 5.17012 17.99 5.04012L17.47 4.89013Z" />
</svg>
