<svg viewBox="0 0 24 24" fill="currentColor" stroke="currentColor" xmlns="http://www.w3.org/2000/svg">
<path d="M18 4.5H6C3.71 4.5 2.5 5.71 2.5 8V16C2.5 18.29 3.71 19.5 6 19.5H18C20.29 19.5 21.5 18.29 21.5 16V8C21.5 5.71 20.29 4.5 18 4.5ZM20.5 16C20.5 17.73 19.73 18.5 18 18.5H6C4.27 18.5 3.5 17.73 3.5 16V8C3.5 6.27 4.27 5.5 6 5.5H18C19.73 5.5 20.5 6.27 20.5 8V16ZM12 8.14001C13.88 9.62001 13.89 12.49 12 13.97C10.11 12.5 10.12 9.63001 12 8.14001ZM10.48 16.33C10.48 16.69 9.90999 16.73 9.60999 16.53L9.70001 16.36C9.89001 16.49 10.25 16.51 10.25 16.34C10.25 16.16 9.64001 16.32 9.64001 15.94C9.64001 15.56 10.2 15.56 10.45 15.72L10.36 15.89C10.18 15.79 9.85999 15.77 9.85999 15.92C9.85999 16.11 10.47 15.92 10.47 16.33H10.48ZM6 11.05C6 9.00999 7.66002 7.35001 9.71002 7.35001C10.44 7.35001 11.15 7.57 11.76 7.97C9.82001 9.56 9.81001 12.56 11.76 14.14C11.15 14.54 10.44 14.76 9.71002 14.76C7.66002 14.76 6 13.1 6 11.05ZM8.19 16.01V16.63H7.96997C7.96997 16.09 8.02 15.82 7.75 15.82C7.44 15.82 7.51001 16.14 7.51001 16.63H7.29999C7.29999 16.09 7.35002 15.82 7.08002 15.82C6.77002 15.82 6.84003 16.12 6.84003 16.63H6.62V15.65H6.84003V15.77C6.92003 15.66 7.02 15.63 7.12 15.63C7.27 15.63 7.38001 15.69 7.45001 15.8C7.54001 15.66 7.66998 15.63 7.78998 15.63C8.02998 15.63 8.17999 15.79 8.17999 16.02L8.19 16.01ZM11.37 16.4L11.43 16.58C11.29 16.67 10.82 16.76 10.82 16.29V15.84H10.62V15.64H10.82V15.34H11.04V15.64H11.39V15.84H11.04V16.28C11.04 16.51 11.27 16.45 11.37 16.39V16.4ZM9.17999 15.77C9.10999 15.68 9.00999 15.63 8.87 15.63C8.58999 15.63 8.38 15.85 8.38 16.15C8.38 16.45 8.58999 16.67 8.87 16.67C9.00999 16.67 9.10999 16.62 9.17999 16.53V16.65H9.39001V15.66H9.17999V15.78V15.77ZM8.90002 16.46C8.71002 16.46 8.59998 16.32 8.59998 16.15C8.59998 15.98 8.71002 15.84 8.90002 15.84C9.07002 15.84 9.19 15.98 9.19 16.15C9.19 16.33 9.07002 16.46 8.90002 16.46ZM12.06 15.63C11.78 15.63 11.57 15.84 11.57 16.15C11.57 16.7 12.18 16.79 12.48 16.53L12.38 16.37C12.17 16.54 11.86 16.53 11.79 16.24H12.53C12.53 15.81 12.33 15.63 12.06 15.63ZM11.8 16.06C11.82 15.92 11.91 15.83 12.05 15.83C12.19 15.83 12.28 15.91 12.31 16.06H11.8ZM17.22 15.78C17 15.49 16.42 15.64 16.42 16.15C16.42 16.66 17.02 16.81 17.22 16.52V16.64H17.43V15.26H17.22V15.78ZM16.94 16.47C16.76 16.47 16.64 16.33 16.64 16.16C16.64 15.99 16.76 15.85 16.94 15.85C17.12 15.85 17.24 15.99 17.24 16.16C17.24 16.33 17.12 16.47 16.94 16.47ZM16.36 15.67L16.3 15.87C16.2 15.82 15.96 15.8 15.96 16.09V16.64H15.75V15.66H15.96V15.78C16.07 15.58 16.3 15.63 16.37 15.66L16.36 15.67ZM18.02 11.08C18.02 13.13 16.36 14.79 14.31 14.79C13.59 14.79 12.87 14.57 12.26 14.17C14.22 12.59 14.19 9.58 12.26 8C12.87 7.6 13.58 7.38 14.31 7.38C16.36 7.38 18.02 9.03999 18.02 11.08ZM15.23 15.79C15.01 15.5 14.43 15.66 14.43 16.16C14.43 16.66 15.03 16.82 15.23 16.53V16.65H15.45V15.66H15.23V15.78V15.79ZM14.95 16.48C14.77 16.48 14.66 16.34 14.66 16.17C14.66 16 14.77 15.86 14.95 15.86C15.13 15.86 15.25 16 15.25 16.17C15.25 16.34 15.13 16.48 14.95 16.48ZM13.67 16.17C13.67 16.47 13.98 16.57 14.22 16.4L14.32 16.57C14.04 16.81 13.44 16.7 13.44 16.17C13.44 15.64 14.01 15.52 14.32 15.77L14.22 15.94C13.98 15.76 13.67 15.86 13.67 16.17ZM13.39 15.68L13.33 15.88C13.24 15.83 12.99 15.79 12.99 16.1V16.65H12.77V15.67H12.99V15.79C13.09 15.62 13.27 15.62 13.4 15.67L13.39 15.68Z" />
</svg>
