<svg viewBox="0 0 24 24" fill="currentColor" stroke="currentColor" xmlns="http://www.w3.org/2000/svg">
<path d="M20.11 7.19C19.35 7.19 19 8.41001 18.85 9.70001C18.37 7.91001 17.34 6.69 16.11 6.69C14.75 6.69 13.63 8.20001 13.24 10.32C12.53 8.11001 10.45 6.5 8.01001 6.5C4.98001 6.5 2.51001 8.97 2.51001 12C2.51001 15.03 4.98001 17.5 8.01001 17.5C10.46 17.5 12.53 15.89 13.24 13.68C13.64 15.8 14.75 17.31 16.11 17.31C17.34 17.31 18.36 16.09 18.85 14.3C19.01 15.59 19.36 16.81 20.11 16.81C21.37 16.81 21.5 13.45 21.5 12C21.5 10.55 21.36 7.19 20.11 7.19ZM8.00002 16.5C5.52002 16.5 3.50002 14.48 3.50002 12C3.50002 9.52 5.52002 7.5 8.00002 7.5C10.48 7.5 12.5 9.52 12.5 12C12.5 14.48 10.48 16.5 8.00002 16.5ZM16.11 16.31C15.15 16.31 14.07 14.54 14.07 12C14.07 9.46 15.14 7.69 16.11 7.69C17.08 7.69 18.15 9.46 18.15 12C18.15 14.54 17.08 16.31 16.11 16.31ZM20.11 15.5C19.92 14.93 19.72 13.74 19.72 12C19.72 10.26 19.93 9.07 20.11 8.5C20.3 9.07 20.5 10.26 20.5 12C20.5 13.74 20.29 14.93 20.11 15.5Z" />
</svg>
