<svg viewBox="0 0 24 24" fill="currentColor" stroke="currentColor" xmlns="http://www.w3.org/2000/svg">
<path d="M18 4.5H6C3.71 4.5 2.5 5.71 2.5 8V16C2.5 18.29 3.71 19.5 6 19.5H18C20.29 19.5 21.5 18.29 21.5 16V8C21.5 5.71 20.29 4.5 18 4.5ZM20.5 16C20.5 17.73 19.73 18.5 18 18.5H6C4.27 18.5 3.5 17.73 3.5 16V8C3.5 6.27 4.27 5.5 6 5.5H18C19.73 5.5 20.5 6.27 20.5 8V16ZM6.22 9.98999H5.09C5.09 9.98999 5.01 10.02 5 10.07L4.5 13.24C4.5 13.24 4.50999 13.31 4.54999 13.32C4.55999 13.33 4.56999 13.33 4.57999 13.33H5.17999C5.17999 13.33 5.26001 13.3 5.26001 13.26L5.41 12.33C5.41 12.33 5.46 12.25 5.5 12.25H6.04001C6.34001 12.25 6.64 12.15 6.87 11.95C7.10999 11.75 7.26 11.48 7.31 11.17C7.41 10.55 6.91999 9.98999 6.20999 9.98999H6.22ZM5.98001 11.55H5.54001L5.67001 10.71H6.10999C6.46999 10.71 6.57999 10.92 6.54999 11.15C6.51999 11.38 6.33001 11.55 5.98001 11.55ZM9.92001 11H9.35001C9.35001 11 9.27001 11.03 9.26001 11.07L9.23999 11.2C9.23999 11.2 8.79999 10.72 8.01999 11.04C7.57999 11.22 7.35999 11.61 7.26999 11.89C7.26999 11.89 6.98001 12.73 7.64001 13.21C7.64001 13.21 8.24999 13.66 8.92999 13.19V13.26C8.92999 13.26 8.92999 13.33 8.95999 13.34C8.96999 13.35 8.97999 13.35 8.98999 13.35H9.56C9.56 13.35 9.63999 13.32 9.64999 13.28L10 11.1C10 11.1 9.99001 11.03 9.95001 11.02C9.94001 11.01 9.93001 11.01 9.92001 11.01V11ZM9.07999 12.2C9.05999 12.35 8.99 12.49 8.87 12.59C8.74 12.69 8.59 12.74 8.44 12.74C8.38 12.74 8.31999 12.73 8.26999 12.72C8.01999 12.64 7.88001 12.41 7.92001 12.15C7.94001 12 8.01001 11.86 8.14001 11.76C8.26001 11.66 8.41 11.61 8.56 11.61C8.63 11.61 8.68999 11.62 8.73999 11.63C8.97999 11.71 9.12001 11.94 9.07001 12.2H9.07999ZM12.82 11.1L11.08 13.96C11.08 13.96 11.02 14.01 10.99 14.01H10.32C10.32 14.01 10.3 14.01 10.29 14.01C10.26 13.99 10.25 13.95 10.27 13.92L10.83 13.02L10.21 11.1C10.21 11.1 10.21 11.08 10.21 11.07C10.21 11.04 10.24 11.01 10.28 11.01H10.9C10.9 11.01 10.97 11.04 10.98 11.07L11.33 12.21L12.01 11.06C12.01 11.06 12.07 11.01 12.11 11.01H12.78C12.78 11.01 12.83 11.02 12.84 11.04C12.85 11.06 12.85 11.09 12.84 11.11L12.82 11.1ZM14.41 9.98999H13.28C13.28 9.98999 13.2 10.02 13.19 10.07L12.69 13.24C12.69 13.24 12.7 13.31 12.74 13.33H13.36C13.36 13.33 13.44 13.3 13.45 13.26L13.6 12.33C13.6 12.33 13.65 12.25 13.69 12.25H14.23C14.53 12.25 14.83 12.15 15.06 11.95C15.3 11.75 15.45 11.48 15.5 11.17C15.6 10.55 15.11 9.98999 14.4 9.98999H14.41ZM14.17 11.55H13.73L13.86 10.71H14.3C14.66 10.71 14.77 10.92 14.74 11.15C14.71 11.38 14.52 11.55 14.17 11.55ZM19.44 10C19.44 10 19.51 10.05 19.51 10.09L19 13.27C19 13.27 18.96 13.34 18.91 13.34H18.31C18.31 13.34 18.31 13.34 18.3 13.34C18.26 13.34 18.23 13.29 18.23 13.25L18.74 10.07C18.74 10.07 18.78 9.99 18.83 10H19.43C19.43 10 19.43 10 19.44 10ZM18.1 11H17.52C17.52 11 17.44 11.03 17.44 11.07L17.42 11.2C17.42 11.2 16.98 10.72 16.2 11.04C15.76 11.22 15.54 11.61 15.45 11.89C15.45 11.89 15.16 12.73 15.82 13.21C15.82 13.21 16.43 13.66 17.11 13.19V13.26C17.11 13.26 17.11 13.33 17.14 13.34C17.15 13.35 17.16 13.35 17.17 13.35H17.74C17.74 13.35 17.82 13.32 17.83 13.28L18.18 11.1C18.18 11.1 18.17 11.05 18.16 11.04C18.15 11.02 18.13 11.01 18.1 11.01V11ZM17.26 12.2C17.24 12.35 17.17 12.49 17.05 12.59C16.92 12.69 16.77 12.74 16.62 12.74C16.56 12.74 16.5 12.73 16.45 12.72C16.2 12.64 16.06 12.41 16.1 12.15C16.12 12 16.19 11.86 16.31 11.76C16.44 11.67 16.59 11.61 16.74 11.61C16.8 11.61 16.86 11.62 16.91 11.63C17.16 11.71 17.3 11.94 17.26 12.2Z" />
</svg>
