<svg viewBox="0 0 24 24" fill="currentColor" stroke="currentColor" xmlns="http://www.w3.org/2000/svg">
<path d="M18.54 7.01001C18.44 6.94001 18.34 6.88999 18.24 6.82999C18.22 6.44999 18.17 6.06001 18.04 5.67001C17.96 5.45001 17.86 5.23001 17.75 5.01001C16.92 3.46001 15.2 2.5 13.27 2.5H7.70999C7.19999 2.5 6.78001 2.85999 6.70001 3.35999L4.54001 16.75C4.52001 16.8 4.51001 16.92 4.51001 16.98C4.51001 17.49 4.93 17.9 5.44 17.9H8.09L7.67999 20.44C7.64999 20.69 7.70999 20.94 7.85999 21.13C8.00999 21.32 8.22 21.45 8.47 21.48C8.52 21.48 8.56999 21.49 8.60999 21.49H11.39C11.89 21.49 12.33 21.12 12.41 20.63L13.18 16.09H14.81C17.64 16.09 20.02 14.1 20.46 11.36C20.74 9.65999 20.01 7.98 18.56 7L18.54 7.01001ZM7.70999 3.5H13.27C14.86 3.5 16.21 4.24001 16.87 5.48001C16.96 5.65001 17.04 5.82999 17.1 5.98999C17.22 6.35999 17.27 6.74 17.27 7.12C17.27 7.29 17.25 7.44999 17.23 7.60999C16.88 9.85999 14.91 11.5 12.56 11.5H10.01C9.87001 11.5 9.72999 11.54 9.60999 11.59C9.28999 11.72 9.04999 12 8.98999 12.36L8.25 16.9H5.53L7.72 3.5H7.70999ZM19.45 11.21C19.09 13.46 17.12 15.1 14.78 15.1H13.15C12.64 15.1 12.2 15.46 12.12 15.96L11.36 20.5H8.66L9.84 13.39L9.98999 12.5H12.54C12.89 12.5 13.24 12.47 13.57 12.41C13.67 12.39 13.77 12.36 13.87 12.33C14.1 12.28 14.33 12.23 14.55 12.15C14.67 12.11 14.77 12.05 14.88 12C15.07 11.92 15.26 11.84 15.44 11.74C15.55 11.68 15.65 11.59 15.76 11.52C15.92 11.41 16.09 11.31 16.24 11.18C16.34 11.09 16.43 10.99 16.53 10.9C16.67 10.77 16.81 10.64 16.93 10.5C17.02 10.4 17.09 10.28 17.17 10.17C17.28 10.02 17.39 9.86999 17.49 9.70999C17.56 9.58999 17.62 9.44999 17.68 9.32999C17.76 9.15999 17.85 8.99999 17.91 8.82999C17.96 8.68999 17.99 8.53999 18.04 8.39999C18.08 8.25999 18.14 8.12 18.16 7.97C19.17 8.75 19.65 9.94999 19.45 11.21Z" />
</svg>
