<svg viewBox="0 0 24 24" fill="currentColor" stroke="currentColor" xmlns="http://www.w3.org/2000/svg">
<path d="M12 1.5C6.21 1.5 1.5 6.21 1.5 12C1.5 17.79 6.21 22.5 12 22.5C17.79 22.5 22.5 17.79 22.5 12C22.5 6.21 17.79 1.5 12 1.5ZM12 21.5C11.07 21.5 10.17 21.36 9.32001 21.11C9.70001 20.46 10.16 19.59 10.35 18.86C10.47 18.4 10.97 16.5 10.97 16.5C11.29 17.12 12.24 17.64 13.25 17.64C16.25 17.64 18.41 14.88 18.41 11.45C18.41 8.02 15.73 5.7 12.28 5.7C7.98003 5.7 5.70001 8.58 5.70001 11.72C5.70001 13.18 6.47997 15 7.71997 15.58C7.90997 15.67 8.00999 15.63 8.04999 15.45C8.07999 15.31 8.25002 14.63 8.33002 14.32C8.36002 14.22 8.33001 14.11 8.26001 14.03C7.85001 13.53 7.52002 12.62 7.52002 11.76C7.52002 9.55999 9.18001 7.44 12.01 7.44C14.46 7.44 16.17 9.11001 16.17 11.49C16.17 14.18 14.81 16.05 13.04 16.05C12.07 16.05 11.33 15.24 11.57 14.25C11.85 13.07 12.39 11.79 12.39 10.94C12.39 10.17 11.98 9.53 11.13 9.53C10.13 9.53 9.33002 10.57 9.33002 11.95C9.33002 12.83 9.63 13.43 9.63 13.43C9.63 13.43 8.64002 17.6 8.46002 18.38C8.29002 19.09 8.32001 20.03 8.39001 20.78C4.94001 19.36 2.5 15.96 2.5 12C2.5 6.76 6.76 2.5 12 2.5C17.24 2.5 21.5 6.76 21.5 12C21.5 17.24 17.24 21.5 12 21.5Z" />
</svg>
