<svg viewBox="0 0 24 24" fill="currentColor" stroke="currentColor" xmlns="http://www.w3.org/2000/svg">
<path d="M18.94 9.72C18.47 9.74 18.02 9.88999 17.63 10.15C16.1 9.17999 14.36 8.62999 12.65 8.54999L13.46 5.01001L15.74 5.47C15.8 6.44 16.6 7.20001 17.58 7.20001C18.56 7.20001 19.43 6.37001 19.43 5.35001C19.43 4.33001 18.6 3.5 17.58 3.5C16.87 3.5 16.26 3.89999 15.95 4.48999L13.18 3.92999C12.91 3.86999 12.65 4.05 12.59 4.31L11.63 8.51999H11.58C9.72004 8.54999 7.92005 9.08001 6.35005 10.07C5.92005 9.78001 5.41004 9.63999 4.89004 9.64999C4.23004 9.66999 3.62005 9.94999 3.16005 10.43C2.71005 10.91 2.47005 11.54 2.49005 12.2C2.51005 12.86 2.79005 13.47 3.27005 13.93C3.38005 14.03 3.50005 14.13 3.63005 14.21C3.63005 14.32 3.63004 14.42 3.64004 14.52C3.64004 17.82 7.40005 20.51 12.02 20.51C16.64 20.51 20.4 17.82 20.4 14.56C20.4 14.44 20.41 14.32 20.41 14.2C21.09 13.74 21.51 12.95 21.49 12.11C21.44 10.75 20.31 9.68001 18.93 9.73001L18.94 9.72ZM17.58 4.5C18.05 4.5 18.43 4.88001 18.43 5.35001C18.43 5.82001 18.05 6.20001 17.58 6.20001C17.11 6.20001 16.73 5.82001 16.73 5.35001C16.73 4.88001 17.11 4.5 17.58 4.5ZM19.68 13.47C19.5 13.56 19.39 13.75 19.4 13.96C19.41 14.13 19.41 14.3 19.4 14.52C19.4 17.27 16.09 19.51 12.02 19.51C7.95005 19.51 4.64004 17.27 4.64004 14.48C4.63004 14.31 4.63004 14.14 4.64004 13.96C4.66004 13.75 4.54005 13.55 4.35005 13.47C4.20005 13.4 4.07005 13.31 3.96005 13.2C3.67005 12.93 3.51004 12.57 3.50004 12.17C3.49004 11.78 3.63004 11.4 3.90004 11.12C4.17004 10.83 4.53004 10.67 4.93004 10.66C4.95004 10.66 4.96004 10.66 4.98004 10.66C5.36004 10.66 5.71005 10.8 5.99005 11.06C6.16005 11.22 6.42004 11.24 6.61004 11.11C8.09004 10.11 9.82005 9.56 11.6 9.53H12.39C14.09 9.57 15.86 10.15 17.38 11.19C17.58 11.32 17.84 11.3 18.01 11.14C18.27 10.89 18.62 10.74 18.98 10.73C19.78 10.7 20.48 11.34 20.51 12.14C20.51 12.7 20.2 13.23 19.69 13.48L19.68 13.47ZM8.84004 14.82C8.09004 14.82 7.49005 14.21 7.49005 13.47C7.49005 12.73 8.09004 12.12 8.84004 12.12C9.59004 12.12 10.19 12.73 10.19 13.47C10.19 14.21 9.59004 14.82 8.84004 14.82ZM15.35 16.71C15.5 16.86 15.49 17.1 15.35 17.24C15.35 17.24 14.01 18.23 12.01 18.23C10.81 18.28 9.63004 17.91 8.67004 17.19C8.54004 17.03 8.56004 16.8 8.72004 16.68C8.85004 16.57 9.05004 16.57 9.18004 16.68C9.99004 17.28 10.84 17.53 11.99 17.53C13.14 17.53 13.99 17.29 14.81 16.71C14.96 16.56 15.2 16.57 15.34 16.71H15.35ZM16.45 13.47C16.45 14.22 15.85 14.82 15.1 14.82C14.35 14.82 13.75 14.21 13.75 13.47C13.75 12.73 14.36 12.12 15.1 12.12C15.84 12.12 16.45 12.73 16.45 13.47Z" />
</svg>
