<svg viewBox="0 0 24 24" fill="currentColor" stroke="currentColor" xmlns="http://www.w3.org/2000/svg">
<path d="M20.6 13.64C20.7 13.08 20.76 12.53 20.76 12C20.76 7.17 16.83 3.25 12.01 3.25C11.47 3.25 10.92 3.3 10.37 3.41C9.52999 2.82 8.54001 2.5 7.51001 2.5C4.75001 2.5 2.51001 4.74 2.51001 7.5C2.51001 8.53 2.81997 9.52 3.40997 10.36C3.30997 10.92 3.25 11.48 3.25 12C3.25 16.83 7.18 20.75 12 20.75C12.54 20.75 13.09 20.7 13.64 20.59C14.49 21.18 15.47 21.49 16.5 21.49C19.26 21.49 21.5 19.25 21.5 16.49C21.5 15.46 21.19 14.48 20.6 13.63V13.64ZM16.5 20.5C15.62 20.5 14.77 20.21 14.06 19.67C13.97 19.6 13.86 19.57 13.76 19.57C13.72 19.57 13.69 19.57 13.66 19.58C13.11 19.7 12.55 19.76 12 19.76C7.73 19.76 4.25 16.28 4.25 12.01C4.25 11.48 4.30999 10.93 4.42999 10.35C4.45999 10.21 4.43003 10.06 4.34003 9.94C3.80003 9.24 3.51001 8.39 3.51001 7.5C3.51001 5.29 5.30001 3.5 7.51001 3.5C8.40001 3.5 9.24001 3.79 9.95001 4.34C10.07 4.43 10.21 4.45999 10.36 4.42999C10.91 4.30999 11.47 4.25 12.02 4.25C16.29 4.25 19.77 7.73 19.77 12C19.77 12.53 19.71 13.09 19.59 13.66C19.56 13.8 19.59 13.95 19.68 14.07C20.22 14.78 20.51 15.62 20.51 16.5C20.51 18.71 18.72 20.5 16.51 20.5H16.5ZM16.5 13.94C16.5 16.23 14.29 17.29 12.16 17.29C9.61997 17.29 7.5 16.16 7.5 14.77C7.5 14.15 7.85001 13.59 8.64001 13.59C9.85001 13.59 9.95999 15.33 12.05 15.33C13.04 15.33 13.69 14.89 13.69 14.31C13.69 13.59 13.07 13.47 12.06 13.23C9.64 12.63 7.5 12.38 7.5 9.85001C7.5 7.56001 9.76997 6.71001 11.72 6.71001C13.85 6.71001 16.01 7.56001 16.01 8.85001C16.01 9.50001 15.57 10.08 14.84 10.08C13.74 10.08 13.71 8.78 11.94 8.78C10.95 8.78 10.31 9.04999 10.31 9.64999C10.31 10.42 11.12 10.49 12.98 10.93C14.58 11.29 16.49 11.97 16.49 13.93L16.5 13.94Z" />
</svg>
