<svg viewBox="0 0 24 24" fill="currentColor" stroke="currentColor" xmlns="http://www.w3.org/2000/svg">
<path d="M21.4599 16.5599C21.3199 16.1099 20.84 15.8599 20.78 15.8299C20.74 15.8099 20.6999 15.7899 20.6499 15.7599C20.0699 15.4799 19.5499 15.1399 19.1199 14.7599C18.7699 14.4499 18.4799 14.12 18.2499 13.77C18.0099 13.41 17.8799 13.0999 17.8099 12.8999C18.0099 12.7599 18.2799 12.5899 18.5199 12.4299C18.6899 12.3199 18.8299 12.2299 18.9099 12.1699C19.2699 11.9199 19.5199 11.65 19.6799 11.35C19.8999 10.93 19.9299 10.4599 19.7599 10.0099C19.4799 9.26994 18.72 8.85995 17.78 9.04995C17.71 9.05995 17.6499 9.07995 17.5799 9.09995C17.5899 8.51995 17.5799 7.87995 17.5499 7.37995C17.4899 6.65995 17.3399 6.04995 17.0899 5.51995C16.8299 4.94995 16.4999 4.54995 16.2699 4.29995C16.0299 4.01995 15.6099 3.61994 14.9799 3.25994C13.2199 2.24994 10.8199 2.24994 9.0399 3.25994C8.3699 3.63994 7.93991 4.07994 7.73991 4.30994C7.48991 4.59994 7.16991 4.98995 6.91991 5.52995C6.66991 6.06995 6.51994 6.66995 6.45994 7.38995C6.41994 7.82995 6.40992 8.40995 6.42992 9.10995C6.36992 9.08995 6.2999 9.07994 6.2299 9.05994C6.0899 9.02994 5.93995 9.00994 5.77995 9.00994C5.06995 9.00994 4.47992 9.39994 4.24992 10.0099C4.07992 10.4599 4.10994 10.93 4.32994 11.35C4.48994 11.65 4.7399 11.9099 5.0999 12.1699C5.1799 12.2299 5.3299 12.32 5.5399 12.46C5.7199 12.57 5.98993 12.7499 6.19993 12.8999C6.13994 13.0799 6.00993 13.4 5.75993 13.77C5.52993 14.12 5.23994 14.4499 4.88994 14.7599C4.44994 15.1499 3.93991 15.4799 3.35991 15.7599C3.31991 15.7799 3.26991 15.8 3.23991 15.82C3.10991 15.89 2.6599 16.14 2.5399 16.57C2.3899 17.09 2.64994 17.66 3.20994 18.02C3.71994 18.35 4.30994 18.53 4.70994 18.63C4.76994 18.65 4.82994 18.6599 4.88994 18.6799C4.88994 18.7099 4.88994 18.7299 4.88994 18.7299C4.96994 19.1299 5.14994 19.4399 5.44993 19.6399C5.82994 19.8999 6.2699 19.9199 6.7299 19.9399C7.1299 19.9499 7.62993 19.9699 8.19993 20.16C8.42993 20.24 8.65993 20.3799 8.94993 20.5599C9.59994 20.9599 10.4899 21.5099 11.9899 21.5099C13.4899 21.5099 14.3699 20.9599 15.0599 20.5399C15.3299 20.3799 15.56 20.24 15.78 20.16C16.33 19.9799 16.8099 19.9599 17.2499 19.9399C17.7099 19.9199 18.15 19.9099 18.53 19.6499C18.95 19.3699 19.0499 18.9499 19.0999 18.6899L19.3399 18.6199C19.6699 18.5299 20.1099 18.4099 20.6399 18.1099C21.4399 17.6499 21.5699 16.99 21.4399 16.57L21.4599 16.5599ZM20.1699 17.2299C19.7499 17.4699 19.4099 17.5599 19.0499 17.66L18.7599 17.74C18.5599 17.81 18.4099 17.9099 18.3199 18.0299C18.1999 18.1899 18.1699 18.3599 18.1399 18.4999C18.1099 18.6599 18.0699 18.7499 17.9899 18.8099C17.8499 18.9099 17.5799 18.9199 17.2199 18.9299C16.7799 18.9499 16.1799 18.9699 15.4899 19.1999C15.1599 19.3099 14.87 19.4899 14.53 19.6899C13.91 20.0699 13.2199 20.49 12.0099 20.49C10.7999 20.49 10.1099 20.0599 9.48991 19.6799C9.16991 19.4899 8.87995 19.2999 8.52995 19.1899C7.81995 18.9599 7.19995 18.9399 6.77995 18.9199C6.43995 18.9099 6.16995 18.9 6.02995 18.7999C5.94995 18.75 5.90992 18.6699 5.86992 18.4699C5.84992 18.3599 5.81993 18.1799 5.68993 18.0099C5.58993 17.8899 5.4399 17.7899 5.2299 17.7199C5.1499 17.6999 5.05994 17.6699 4.95994 17.6399C4.62994 17.5499 4.13992 17.41 3.74992 17.16C3.59992 17.0599 3.47991 16.9 3.48991 16.85C3.50991 16.81 3.60993 16.7399 3.68993 16.6999C3.69993 16.6999 3.7699 16.6599 3.7899 16.6499C4.4499 16.3299 5.03991 15.94 5.54991 15.49C5.95991 15.12 6.30995 14.7199 6.58995 14.3099C6.94995 13.7799 7.10992 13.3199 7.17992 13.0899C7.22992 12.8899 7.2499 12.7099 7.1599 12.4999C7.0899 12.3199 6.94995 12.1999 6.83995 12.1199C6.61995 11.9699 6.27995 11.7499 6.02995 11.5799C5.86995 11.4799 5.7399 11.3899 5.6599 11.3399C5.4299 11.1799 5.27993 11.03 5.19993 10.88C5.10994 10.71 5.09991 10.5399 5.16991 10.3599C5.28991 10.0499 5.58994 9.99995 5.76994 9.99995C5.85994 9.99995 5.92993 9.99995 6.00993 10.02C6.26993 10.08 6.51993 10.1699 6.68993 10.2299C6.84993 10.3099 7.04993 10.3 7.19993 10.21C7.34994 10.12 7.45994 9.91995 7.44993 9.73995C7.40993 8.75995 7.40993 7.98995 7.44993 7.45995C7.49994 6.85995 7.61993 6.35994 7.81993 5.92994C8.00993 5.50994 8.2599 5.19994 8.4799 4.94994C8.6399 4.76994 8.97994 4.42994 9.51994 4.11994C10.9899 3.28994 13.0099 3.28994 14.4699 4.11994C14.9799 4.40994 15.3199 4.72995 15.5099 4.95995C15.6899 5.16995 15.9599 5.49995 16.1699 5.93995C16.3699 6.36995 16.4899 6.86995 16.5399 7.46995C16.5999 8.11995 16.5799 9.06995 16.5399 9.76995C16.5399 9.93995 16.6399 10.1299 16.7899 10.2199C16.9199 10.2999 17.1099 10.3199 17.2499 10.2599C17.4599 10.1799 17.7099 10.0799 17.9599 10.0299C18.0399 10.0099 18.1299 9.99995 18.1999 9.99995C18.3699 9.99995 18.6799 10.0499 18.7999 10.3599C18.8699 10.5399 18.8599 10.71 18.7699 10.88C18.6899 11.03 18.5399 11.1899 18.3099 11.3399C18.2299 11.3999 18.0999 11.48 17.8699 11.63C17.6599 11.77 17.3199 11.98 17.1099 12.13C17.0299 12.19 16.8899 12.3099 16.7999 12.4999C16.7299 12.6799 16.7199 12.8499 16.7899 13.0899C16.8599 13.3099 17.0199 13.7699 17.3799 14.3099C17.6599 14.7299 18.0099 15.1299 18.4199 15.4999C18.9199 15.9499 19.5199 16.33 20.1799 16.66L20.28 16.71C20.34 16.74 20.4399 16.81 20.4699 16.85C20.4699 16.91 20.4199 17.0599 20.1299 17.2299H20.1699Z" />
</svg>
