<svg viewBox="0 0 24 24" fill="currentColor" stroke="currentColor" xmlns="http://www.w3.org/2000/svg">
<path d="M19.58 11.92C19.25 11.92 18.9 11.99 18.56 12.16C18.39 9.84 16.56 8 14.3 8C13.45 8 12.66 8.27 12 8.72V17H19.57C20.91 17 22 15.86 22 14.46C22 13.06 20.86 11.92 19.58 11.92ZM19.58 16H13.01V9.29999C13.42 9.10999 13.86 9 14.31 9C16.01 9 17.44 10.42 17.58 12.23C17.6 12.56 17.79 12.86 18.08 13.02C18.23 13.11 18.41 13.15 18.58 13.15C18.73 13.15 18.88 13.12 19.01 13.05C19.2 12.96 19.4 12.91 19.59 12.91C20.27 12.91 21.01 13.5 21.01 14.45C21.01 15.3 20.37 15.99 19.58 15.99V16ZM7.01001 10.4C7.27001 10.21 7.54 10.05 7.84 9.94V17H7.01001V10.4ZM10.66 10.16C10.81 9.91 10.99 9.67999 11.18 9.45999V17.01H10.35V10.01L10.67 10.16H10.66ZM9.51001 9.76999V17.01H8.67999V9.76001C8.98999 9.73001 9.09001 9.70001 9.51001 9.76001V9.76999ZM5.60001 12.52C5.71001 12.06 5.91999 11.64 6.17999 11.26V17H5.35001V12.36L5.60999 12.51L5.60001 12.52ZM2.01001 14.57C2.01001 13.82 2.34 13.16 2.84 12.71V16.42C2.34 15.97 2.01001 15.31 2.01001 14.56V14.57ZM4.51001 12.14V17.01C4.21001 17.01 4.04999 17.01 3.67999 16.9V12.25C4.06999 12.13 4.26001 12.13 4.51001 12.15V12.14Z" />
</svg>
