<svg viewBox="0 0 24 24" fill="currentColor" stroke="currentColor" xmlns="http://www.w3.org/2000/svg">
<path d="M12 1.5C6.21 1.5 1.5 6.21 1.5 12C1.5 17.79 6.21 22.5 12 22.5C17.79 22.5 22.5 17.79 22.5 12C22.5 6.21 17.79 1.5 12 1.5ZM12 21.5C6.76 21.5 2.5 17.24 2.5 12C2.5 6.76 6.76 2.5 12 2.5C17.24 2.5 21.5 6.76 21.5 12C21.5 17.24 17.24 21.5 12 21.5ZM16.67 16.09C16.67 16.46 16.38 16.71 16.06 16.71C15.89 16.71 15.79 16.66 15.63 16.56C13.11 15.04 10.19 14.98 7.29999 15.57C7.13999 15.61 6.94001 15.67 6.82001 15.67C6.43001 15.67 6.17999 15.36 6.17999 15.03C6.17999 14.61 6.43001 14.42 6.73001 14.35C10.03 13.62 13.41 13.68 16.29 15.41C16.54 15.57 16.68 15.71 16.68 16.08L16.67 16.09ZM19.33 10.05C19.33 10.6 18.89 10.99 18.39 10.99C18.18 10.99 18.05 10.94 17.87 10.83C15 9.12 9.87001 8.71 6.54001 9.63C6.39001 9.67 6.20999 9.73 6.01999 9.73C5.48999 9.73 5.07999 9.31 5.07999 8.78C5.07999 8.25 5.42 7.92001 5.78 7.82001C7.2 7.40001 8.78999 7.21001 10.52 7.21001C13.46 7.21001 16.55 7.82 18.8 9.14C19.11 9.32 19.32 9.57 19.32 10.05H19.33ZM17.93 13.28C17.93 13.72 17.59 14.07 17.15 14.07C16.94 14.07 16.8 13.98 16.65 13.9C14.13 12.41 10.37 11.81 7.03 12.71C6.84 12.76 6.72999 12.81 6.54999 12.81C6.11999 12.81 5.76999 12.46 5.76999 12.03C5.76999 11.6 5.98001 11.31 6.39001 11.2C7.51001 10.89 8.65999 10.65 10.33 10.65C12.95 10.65 15.48 11.3 17.47 12.48C17.8 12.67 17.93 12.92 17.93 13.27V13.28Z" />
</svg>
