<svg viewBox="0 0 24 24" fill="currentColor" stroke="currentColor" xmlns="http://www.w3.org/2000/svg">
<path d="M21.4599 5.56C21.4399 5.44 21.3699 5.08 21.0499 4.81C20.6799 4.51 20.1799 4.5 20.0799 4.5C19.3799 4.51 18.5499 4.79 13.7099 6.81C12.1099 7.48 8.84995 8.89 4.03995 11C3.03995 11.4 2.56995 11.81 2.49995 12.32C2.37995 13.24 3.33993 13.54 4.26993 13.84L4.62995 13.96C5.33995 14.19 6.62995 14.58 7.34995 14.6C8.00995 14.62 8.68995 14.37 9.43995 13.85C12.1899 11.99 13.8799 10.85 14.8999 10.17C14.0399 11 12.97 12.01 12.42 12.52C12 12.91 11.7099 13.19 11.6499 13.25C11.5299 13.38 11.3999 13.5 11.2699 13.62C10.7399 14.13 10.2399 14.62 10.2999 15.28C10.3399 15.77 10.6899 16.2 11.3699 16.66C12.0599 17.11 12.5999 17.49 13.1499 17.86C13.7299 18.26 14.32 18.66 15.07 19.16C15.26 19.28 15.4399 19.41 15.6099 19.54C16.2699 20.01 16.9599 20.5 17.8099 20.5C17.8799 20.5 17.9499 20.5 18.0199 20.5C18.5699 20.45 19.29 20.04 19.6 18.38C20.11 15.62 21.23 9.05 21.48 6.36C21.51 6.07 21.48 5.73 21.45 5.56H21.4599ZM20.4999 6.25999C20.2499 8.92999 19.1399 15.46 18.6299 18.2C18.4599 19.13 18.1599 19.48 17.9399 19.5C17.3599 19.55 16.8599 19.19 16.2099 18.73C16.0199 18.6 15.83 18.46 15.63 18.33C14.88 17.84 14.2999 17.44 13.7199 17.04C13.1699 16.66 12.6199 16.29 11.9299 15.83C11.3699 15.46 11.3099 15.25 11.2999 15.19C11.2799 15 11.6499 14.65 11.9699 14.34C12.0999 14.21 12.2399 14.08 12.3699 13.94C12.4299 13.88 12.71 13.62 13.1 13.25C16.78 9.81 16.9999 9.49 17.0599 9.22C17.0999 9.04 17.0899 8.68 16.8299 8.45C16.6699 8.3 16.48 8.25999 16.32 8.25999C16.2 8.25999 16.1 8.28 16.04 8.3C15.87 8.34 15.7299 8.37 8.86994 13.02C8.29994 13.41 7.78994 13.62 7.36994 13.6C6.94994 13.6 6.03995 13.37 4.93995 13.01L4.56995 12.89C4.16995 12.76 3.56994 12.57 3.48994 12.47C3.48994 12.47 3.59996 12.26 4.41996 11.93C4.41996 11.93 4.41994 11.93 4.42994 11.93C9.23994 9.81999 12.4899 8.42 14.0899 7.75C18.3599 5.97 19.5399 5.53 20.0899 5.52C20.1999 5.52 20.3499 5.55001 20.4099 5.60001C20.4399 5.62001 20.4599 5.67001 20.4699 5.74001C20.4899 5.86001 20.5099 6.1 20.4899 6.27L20.4999 6.25999Z" />
</svg>
