<svg viewBox="0 0 24 24" fill="currentColor" stroke="currentColor" xmlns="http://www.w3.org/2000/svg">
<path d="M20.35 6.95999C20.26 6.86999 20.13 6.80998 20 6.80998C19.19 6.80998 18.23 6.54998 17.67 6.17998C16.8 5.61998 16.19 4.70999 16 3.68999C15.96 3.46999 15.94 3.22998 15.94 2.99998C15.94 2.86998 15.89 2.73998 15.79 2.63998C15.7 2.54998 15.57 2.48999 15.44 2.48999H12.35C12.07 2.48999 11.85 2.70999 11.85 2.98999V15.28C11.85 15.5 11.82 15.71 11.75 15.92C11.58 16.46 11.21 16.9 10.71 17.17C10.21 17.43 9.63003 17.48 9.09003 17.31C8.55003 17.14 8.11003 16.77 7.84003 16.27C7.58003 15.77 7.53001 15.19 7.70001 14.65C7.87001 14.11 8.23999 13.67 8.73999 13.4C9.23999 13.14 9.81999 13.09 10.36 13.26C10.51 13.31 10.68 13.28 10.81 13.19C10.94 13.1 11.01 12.95 11.01 12.79V9.62999C11.01 9.37999 10.83 9.16999 10.58 9.12999C10.3 9.08999 10.01 9.06999 9.72998 9.06999C8.06998 9.06999 6.51003 9.71998 5.34003 10.89C4.17003 12.06 3.52002 13.62 3.52002 15.29C3.52002 18.72 6.30998 21.51 9.72998 21.51C13.16 21.51 15.95 18.72 15.95 15.3V9.90999C17.14 10.53 18.61 10.9 20 10.9C20.33 10.9 20.52 10.68 20.52 10.4V7.32999C20.52 7.19999 20.47 7.06998 20.37 6.97998L20.35 6.95999ZM19.5 9.86998C18.13 9.77998 16.72 9.30999 15.72 8.59999C15.57 8.48999 15.37 8.47998 15.2 8.55998C15.03 8.64998 14.93 8.81998 14.93 8.99998V15.28C14.93 18.16 12.59 20.49 9.71002 20.49C6.83002 20.49 4.5 18.15 4.5 15.27C4.5 13.88 5.04003 12.57 6.03003 11.58C7.02003 10.6 8.31997 10.05 9.71997 10.05C9.82997 10.07 9.91001 10.05 10.01 10.05V12.15C9.42001 12.1 8.82003 12.21 8.28003 12.49C7.54003 12.88 6.98999 13.53 6.73999 14.32C6.48999 15.12 6.56001 15.96 6.95001 16.7C7.34001 17.44 7.99003 17.99 8.78003 18.24C9.58003 18.49 10.42 18.42 11.16 18.03C11.9 17.64 12.45 16.99 12.7 16.2C12.8 15.9 12.84 15.58 12.84 15.26V3.46999H14.96C14.97 3.58999 14.99 3.71998 15.01 3.83998C15.25 5.12998 16.02 6.27999 17.12 6.98999C17.73 7.38999 18.63 7.67998 19.5 7.75998V9.83998V9.86998Z" />
</svg>
