<svg viewBox="0 0 24 24" fill="currentColor" stroke="currentColor" xmlns="http://www.w3.org/2000/svg">
<path d="M17 16.96H15.41C14.45 16.96 14.09 16.59 14.09 15.59V11.44H16.87C17.15 11.44 17.37 11.22 17.37 10.94V7.58C17.37 7.3 17.15 7.08 16.87 7.08H14.09V3C14.09 2.72 13.87 2.5 13.59 2.5H10.78C10.52 2.5 10.3 2.7 10.28 2.97C10.19 4.38 9.63 6.85001 6.87 7.57001C6.65 7.63001 6.5 7.83 6.5 8.05V10.94C6.5 11.22 6.72 11.44 7 11.44H8.76999V16.28C8.76999 19.6 10.67 21.5 14 21.5H17.01C17.29 21.5 17.51 21.28 17.51 21V17.46C17.51 17.18 17.29 16.96 17.01 16.96H17ZM16.5 20.5H13.99C12.06 20.5 9.76001 19.77 9.76001 16.28V10.94C9.76001 10.66 9.54001 10.44 9.26001 10.44H7.48999V8.42C10.31 7.5 11.04 4.95 11.22 3.5H13.08V7.58C13.08 7.86 13.3 8.08 13.58 8.08H16.36V10.44H13.58C13.3 10.44 13.08 10.66 13.08 10.94V15.59C13.08 17.14 13.88 17.96 15.4 17.96H16.49V20.5H16.5Z" />
</svg>
