<svg viewBox="0 0 24 24" fill="currentColor" stroke="currentColor" xmlns="http://www.w3.org/2000/svg">
<path d="M22.39 5.57999C22.25 5.40999 22.01 5.34998 21.81 5.42998C21.65 5.49998 21.5 5.55999 21.34 5.60999C21.59 5.24999 21.79 4.85999 21.92 4.43999C21.98 4.23999 21.92 4.02998 21.76 3.89998C21.6 3.76998 21.3701 3.74999 21.1901 3.85999C20.5201 4.24999 19.77 4.54999 19 4.71999C18.15 3.92999 17.02 3.48999 15.84 3.48999C13.3 3.48999 11.2401 5.52998 11.2401 8.02998C11.2401 8.14998 11.24 8.27999 11.26 8.40999C8.33004 8.09999 5.63005 6.66999 3.78005 4.40999C3.68005 4.27999 3.53005 4.21998 3.36005 4.22998C3.20005 4.23998 3.05005 4.32999 2.97005 4.46999C2.55005 5.16999 2.34004 5.94998 2.34004 6.75998C2.34004 7.61998 2.59005 8.44999 3.03005 9.15999C2.88005 9.08999 2.70005 9.11998 2.56005 9.19998C2.41005 9.28998 2.31005 9.47999 2.31005 9.65999C2.31005 11.09 2.99005 12.39 4.07006 13.23C3.99006 13.26 3.92005 13.31 3.86005 13.38C3.75005 13.51 3.71005 13.69 3.77005 13.86C4.23005 15.27 5.35005 16.34 6.74005 16.79C5.32005 17.56 3.65005 17.87 2.06005 17.69C1.82005 17.66 1.61005 17.8 1.53005 18.02C1.45005 18.24 1.53004 18.48 1.73004 18.61C3.68004 19.85 5.95004 20.5 8.29004 20.5C15.9 20.5 20.45 14.41 20.45 8.50998C20.45 8.41998 20.45 8.31998 20.45 8.22998C21.2 7.65998 21.8601 6.96999 22.4101 6.18999C22.5401 6.00999 22.53 5.75998 22.39 5.58998V5.57999ZM19.65 7.57999C19.51 7.67999 19.43 7.84999 19.4401 8.01999C19.4501 8.17999 19.45 8.34998 19.45 8.50998C19.45 13.91 15.28 19.5 8.29004 19.5C6.82004 19.5 5.37004 19.22 4.04004 18.68C5.63004 18.5 7.11005 17.89 8.38005 16.91C8.55005 16.78 8.62005 16.56 8.55005 16.36C8.48005 16.16 8.30004 16.02 8.09004 16.02C6.82004 15.99 5.67005 15.32 5.05005 14.28C5.44005 14.28 5.84005 14.23 6.22005 14.13C6.45005 14.07 6.60005 13.87 6.60005 13.63C6.60005 13.4 6.43004 13.2 6.20004 13.15C4.79004 12.87 3.71004 11.79 3.40004 10.42C3.80004 10.55 4.22004 10.62 4.65004 10.64C4.87004 10.67 5.08004 10.51 5.15004 10.29C5.22004 10.08 5.14004 9.83999 4.95004 9.71999C3.95004 9.05999 3.35005 7.95998 3.35005 6.77998C3.35005 6.38998 3.41004 6.00998 3.54004 5.64998C5.68004 7.92998 8.66004 9.30999 11.84 9.46999C11.99 9.46999 12.14 9.40999 12.25 9.29999C12.35 9.17999 12.39 9.01998 12.36 8.86998C12.3 8.58998 12.2701 8.30999 12.2701 8.04999C12.2701 6.09999 13.88 4.50998 15.87 4.50998C16.87 4.50998 17.83 4.91999 18.5 5.62999C18.62 5.74999 18.7901 5.80998 18.9601 5.77998C19.4001 5.69998 19.83 5.57998 20.25 5.42998C20.01 5.68998 19.7301 5.91999 19.4101 6.10999C19.2101 6.22999 19.1101 6.46998 19.1901 6.69998C19.26 6.91998 19.48 7.06998 19.72 7.03998C19.98 7.00998 20.25 6.96998 20.51 6.91998C20.25 7.16998 19.97 7.38999 19.68 7.59999L19.65 7.57999Z" />
</svg>
