<svg viewBox="0 0 24 24" fill="currentColor" stroke="currentColor" xmlns="http://www.w3.org/2000/svg">
<path d="M20.57 5.41004C20.04 4.84004 19.3 4.53003 18.39 4.51003C16.51 4.44003 14.05 5.22004 12.83 9.22004C12.77 9.41004 12.83 9.61004 12.97 9.74004C13.12 9.87004 13.32 9.90004 13.5 9.83004C14.2 9.53004 14.98 9.48004 15.21 9.75004C15.34 9.89004 15.39 10.18 15.35 10.58C15.32 10.95 15.09 11.69 14.21 13.08C13.33 14.47 12.96 14.62 12.97 14.64C12.93 14.62 12.55 14.34 12.09 12.26C11.96 11.74 11.72 10.37 11.37 8.17003C10.91 5.24003 9.40003 4.76003 8.24003 4.87003C7.52003 4.94003 6.59002 5.49003 5.28002 6.62003C4.42002 7.40003 3.55003 8.18004 2.66003 8.96004C2.46003 9.13004 2.43002 9.43004 2.59002 9.64004L3.44003 10.73C3.60003 10.94 3.90003 10.98 4.12003 10.83C5.04003 10.19 5.28003 10.08 5.25003 10.07C5.30002 10.07 5.83002 10.22 6.50002 12.61L7.97003 17.99C8.85003 20.35 9.88003 21.5 11.1 21.5C12.86 21.5 14.96 19.83 17.71 16.25C20.17 13.09 21.4 10.64 21.49 8.76003C21.56 7.26003 21.25 6.14004 20.57 5.41004ZM16.92 15.64C14.41 18.91 12.51 20.5 11.1 20.5C10.38 20.5 9.60002 19.48 8.92002 17.68L7.47003 12.34C6.84003 10.07 6.16003 9.06003 5.26003 9.06003C5.07003 9.06003 4.86002 9.11003 3.95002 9.73003L3.68003 9.38004C4.45003 8.70004 5.21002 8.02004 5.95002 7.35004C7.39002 6.10004 8.06002 5.88004 8.34002 5.85004C9.05002 5.79004 10.01 5.96003 10.38 8.31003C10.74 10.57 10.98 11.93 11.11 12.47C11.59 14.68 12.14 15.62 12.93 15.62C13.52 15.62 14.15 15.02 15.05 13.6C15.85 12.33 16.28 11.36 16.34 10.66C16.41 9.97004 16.28 9.43004 15.95 9.07004C15.56 8.63004 14.86 8.49004 14.09 8.61004C14.97 6.48004 16.39 5.44004 18.35 5.50004C19 5.52004 19.48 5.71004 19.83 6.08004C20.32 6.60004 20.54 7.49004 20.48 8.71004C20.4 10.35 19.2 12.68 16.91 15.64H16.92Z" />
</svg>
