<svg viewBox="0 0 24 24" fill="currentColor" stroke="currentColor" xmlns="http://www.w3.org/2000/svg">
<path d="M18 4.5H6C3.71 4.5 2.5 5.71 2.5 8V16C2.5 18.29 3.71 19.5 6 19.5H18C20.29 19.5 21.5 18.29 21.5 16V8C21.5 5.71 20.29 4.5 18 4.5ZM20.5 16C20.5 17.73 19.73 18.5 18 18.5H6C4.27 18.5 3.5 17.73 3.5 16V8C3.5 6.27 4.27 5.5 6 5.5H18C19.73 5.5 20.5 6.27 20.5 8V16ZM10.31 9.95999L8.64999 14.03H7.54001L6.60001 10.49C6.28001 10.3 5.90999 10.15 5.48999 10.04L5.51001 9.95999H7.20999C7.43999 9.96999 7.63 10.04 7.69 10.3L8.06 12.17L8.17001 12.73L9.20001 9.95001H10.31V9.95999ZM11.79 9.95999L11.13 14.03H10.08L10.74 9.95999H11.79ZM14.8 12.7C14.8 13.54 14.07 14.09 12.97 14.09C12.5 14.09 12.04 13.99 11.8 13.87L11.95 12.96L12.09 13.03C12.43 13.18 12.66 13.25 13.08 13.25C13.38 13.25 13.71 13.12 13.71 12.85C13.71 12.67 13.57 12.54 13.16 12.34C12.76 12.14 12.23 11.82 12.24 11.23C12.24 10.44 12.98 9.88 14.02 9.88C14.43 9.88 14.76 9.96999 14.96 10.05L14.82 10.93L14.73 10.89C14.54 10.81 14.29 10.73 13.95 10.74C13.54 10.74 13.35 10.92 13.34 11.09C13.34 11.28 13.57 11.41 13.93 11.59C14.54 11.88 14.82 12.23 14.81 12.7H14.8ZM16.84 9.95999C16.59 9.95999 16.4 10.03 16.29 10.3L14.73 14.03H15.84C15.84 14.03 16.02 13.53 16.06 13.42H17.41C17.44 13.56 17.54 14.03 17.54 14.03H18.51L17.66 9.95999H16.84ZM16.36 12.59C16.45 12.36 16.78 11.45 16.78 11.45C16.78 11.45 16.87 11.21 16.92 11.06L16.99 11.41C16.99 11.41 17.19 12.38 17.23 12.59H16.35H16.36Z" />
</svg>
