<svg viewBox="0 0 24 24" fill="currentColor" stroke="currentColor" xmlns="http://www.w3.org/2000/svg">
<path d="M21.48 17.87C20.86 15.55 19.37 13.57 17.34 12.33C19.04 11.06 20.27 9.2 20.76 7.12C20.8 6.97 20.76 6.81 20.67 6.69C20.58 6.57 20.43 6.5 20.28 6.5H17.36C17.14 6.5 16.95 6.64001 16.88 6.85001C16.31 8.61001 14.97 10.14 13.65 10.59V7C13.65 6.72 13.43 6.5 13.15 6.5H10.25C9.96999 6.5 9.74999 6.72 9.74999 7V13.83C8.25999 13.1 6.71998 10.99 6.58998 6.98001C6.58998 6.71001 6.35998 6.5 6.08998 6.5H2.99999C2.86999 6.5 2.73999 6.54999 2.63999 6.64999C2.54999 6.74999 2.48999 6.88001 2.49999 7.01001C2.70999 14.2 6.55999 18.5 12.8 18.5H13.16C13.44 18.5 13.66 18.28 13.66 18V14.58C15.35 14.96 16.73 16.28 17.34 18.16C17.41 18.37 17.6 18.51 17.82 18.51H21.01C21.17 18.51 21.31 18.44 21.41 18.31C21.5 18.19 21.54 18.03 21.5 17.88L21.48 17.87ZM18.16 17.5C17.3 15.23 15.43 13.71 13.2 13.49C13.05 13.47 12.92 13.52 12.82 13.62C12.72 13.72 12.66 13.85 12.66 13.99V17.5C7.17999 17.44 3.86999 13.81 3.52999 7.5H5.61999C5.90999 12.29 8.11999 14.53 10.14 15.04C10.29 15.08 10.45 15.04 10.57 14.95C10.69 14.86 10.76 14.71 10.76 14.56V7.51001H12.66V11.22C12.66 11.36 12.72 11.5 12.83 11.59C12.94 11.68 13.08 11.73 13.22 11.72C14.99 11.53 16.88 9.75001 17.73 7.51001H19.64C19.04 9.35001 17.8 10.94 16.15 11.95C15.99 12.04 15.9 12.22 15.91 12.4C15.91 12.58 16.02 12.74 16.19 12.83C18.14 13.8 19.62 15.48 20.35 17.51H18.19L18.16 17.5Z" />
</svg>
