<svg viewBox="0 0 24 24" fill="currentColor" stroke="currentColor" xmlns="http://www.w3.org/2000/svg">
<path fill-rule="evenodd" clip-rule="evenodd" d="M21.5 14.8C21.5 12.21 19.29 10.06 16.42 9.70001C16.42 9.67001 16.42 9.65 16.42 9.62C15.88 6.65 12.96 4.5 9.49998 4.5C5.63998 4.5 2.48999 7.23 2.48999 10.59C2.48999 12.36 3.36999 14.03 4.90999 15.19L4.57999 16.5C4.57999 16.5 4.56999 16.57 4.56999 16.61C4.56999 17.01 4.88998 17.33 5.28998 17.33C5.33998 17.33 5.39998 17.33 5.44998 17.31L5.57999 17.27C5.57999 17.27 5.64998 17.24 5.67998 17.22L7.11998 16.33H7.23999C7.96999 16.56 8.72999 16.67 9.51999 16.67L10.05 16.65C10.91 18.58 13.06 19.95 15.57 19.95C16.22 19.95 16.87 19.86 17.42 19.69H17.53L18.72 20.39C18.75 20.41 18.78 20.42 18.82 20.43L18.92 20.46C18.97 20.48 19.02 20.49 19.08 20.49C19.46 20.49 19.76 20.18 19.76 19.8C19.76 19.76 19.76 19.73 19.75 19.69L19.48 18.65C20.76 17.67 21.49 16.26 21.49 14.78L21.5 14.8ZM9.50998 15.68C8.83998 15.68 8.16999 15.58 7.45999 15.38L7.18999 15.34C6.97999 15.34 6.77998 15.4 6.58998 15.51L5.73999 16.02L5.89998 15.4L5.92998 15.18C5.92998 14.88 5.78999 14.59 5.54999 14.41C4.24999 13.44 3.49998 12.05 3.49998 10.59C3.49998 7.78 6.18998 5.5 9.50998 5.5C12.38 5.5 14.87 7.27999 15.4 9.64999C12.22 9.73999 9.65999 12.01 9.65999 14.8C9.65999 15.1 9.69998 15.39 9.74998 15.67H9.50998V15.68ZM18.83 17.93C18.61 18.09 18.48 18.36 18.48 18.72L18.58 19.17L18.05 18.85C17.88 18.75 17.71 18.7 17.47 18.7C17.46 18.7 17.44 18.7 17.43 18.7L17.21 18.74C16.69 18.9 16.14 18.97 15.58 18.97C12.87 18.97 10.66 17.11 10.66 14.81C10.66 12.51 12.87 10.65 15.58 10.65C18.29 10.65 20.5 12.51 20.5 14.81C20.5 16 19.89 17.13 18.83 17.93ZM14.49 13.53C14.49 13.93 14.17 14.25 13.77 14.25C13.37 14.25 13.05 13.93 13.05 13.53C13.05 13.13 13.37 12.81 13.77 12.81C14.17 12.81 14.49 13.13 14.49 13.53ZM18.1 13.53C18.1 13.93 17.78 14.25 17.38 14.25C16.98 14.25 16.66 13.93 16.66 13.53C16.66 13.13 16.98 12.81 17.38 12.81C17.78 12.81 18.1 13.13 18.1 13.53ZM8.19998 9.17001C8.19998 9.65001 7.80999 10.04 7.32999 10.04C6.84999 10.04 6.45999 9.65001 6.45999 9.17001C6.45999 8.69001 6.84999 8.29999 7.32999 8.29999C7.80999 8.29999 8.19998 8.69001 8.19998 9.17001ZM10.8 9.17001C10.8 8.69001 11.19 8.29999 11.67 8.29999C12.15 8.29999 12.54 8.69001 12.54 9.17001C12.54 9.65001 12.15 10.04 11.67 10.04C11.19 10.04 10.8 9.65001 10.8 9.17001Z" />
</svg>
