<svg viewBox="0 0 24 24" fill="currentColor" stroke="currentColor" xmlns="http://www.w3.org/2000/svg">
<path fill-rule="evenodd" clip-rule="evenodd" d="M12 2.5C6.76 2.5 2.5 6.76 2.5 12C2.5 13.63 2.91997 15.23 3.71997 16.66L2.27002 21.73L7.34003 20.28C8.76003 21.08 10.37 21.5 12 21.5C17.24 21.5 21.5 17.24 21.5 12C21.5 6.76 17.24 2.5 12 2.5ZM12 20.5C10.48 20.5 8.97998 20.09 7.66998 19.31L7.47998 19.2L3.72998 20.27L4.79999 16.52L4.69 16.33C3.91 15.02 3.5 13.52 3.5 12C3.5 7.31 7.31 3.5 12 3.5C16.69 3.5 20.5 7.31 20.5 12C20.5 16.69 16.69 20.5 12 20.5ZM16.97 14.26C17.03 14.36 17.03 14.86 16.83 15.44C16.62 16.03 15.62 16.57 15.17 16.62C14.72 16.67 14.3 16.83 12.22 16.01C9.71997 15.01 8.13001 12.43 8.01001 12.27C7.89001 12.11 7.01001 10.93 7.01001 9.71001C7.01001 8.49001 7.64 7.9 7.87 7.64C8.1 7.39 8.37003 7.33 8.53003 7.33C8.70003 7.33 8.86001 7.33 9.01001 7.34C9.18001 7.34 9.38 7.33999 9.56 7.75999C9.78 8.24999 10.25 9.47 10.31 9.58C10.37 9.7 10.41 9.84999 10.33 10.01C10.24 10.17 10.2 10.28 10.08 10.42C9.96002 10.56 9.82002 10.74 9.71002 10.85C9.58002 10.97 9.45998 11.1 9.59998 11.35C9.74998 11.59 10.24 12.41 10.97 13.06C11.91 13.91 12.7 14.17 12.95 14.29C13.19 14.41 13.34 14.39 13.48 14.23C13.63 14.07 14.1 13.51 14.26 13.26C14.42 13.02 14.58 13.06 14.81 13.14C15.04 13.22 16.24 13.83 16.49 13.95C16.73 14.08 16.9 14.14 16.96 14.24L16.97 14.26Z" />
</svg>
