<svg viewBox="0 0 24 24" fill="currentColor" stroke="currentColor" xmlns="http://www.w3.org/2000/svg">
<path d="M12 1.5C6.21 1.5 1.5 6.21 1.5 12C1.5 17.79 6.21 22.5 12 22.5C17.79 22.5 22.5 17.79 22.5 12C22.5 6.21 17.79 1.5 12 1.5ZM12 2.5C14.31 2.5 16.43 3.33 18.07 4.7C17.4 4.96 16.96 5.63 16.96 6.36C16.96 7.18 17.43 7.89 17.95 8.72C18.33 9.38 18.77 10.24 18.77 11.49C18.77 12.35 18.44 13.35 18.01 14.74L17 18.09L13.37 7.28C13.99 7.25 14.53 7.19 14.53 7.19C15.08 7.13 15 6.34 14.46 6.36C14.46 6.36 12.84 6.5 11.8 6.5C10.76 6.5 9.14999 6.36 9.14999 6.36C8.60999 6.34 8.55 7.17 9.09 7.2C9.44 7.24 9.8 7.27 10.14 7.28L11.71 11.57L9.50999 18.16L5.84 7.28C6.46 7.26 7 7.19 7 7.19C7.55 7.13 7.48 6.34 6.94 6.36C6.94 6.36 5.33999 6.49 4.28999 6.5C6.00999 4.09 8.83 2.50999 12.02 2.50999L12 2.5ZM2.5 12C2.5 10.84 2.72 9.72 3.11 8.69L7.34 20.27C4.46 18.64 2.5 15.55 2.5 12ZM9.35001 21.12L12.18 12.89L15.13 20.96C14.15 21.3 13.1 21.5 12 21.5C11.08 21.5 10.19 21.36 9.35001 21.12ZM17.34 19.85L20.13 11.81C20.56 10.78 20.8 9.68001 20.85 8.57001C21.26 9.63001 21.5 10.79 21.5 11.99C21.5 15.25 19.85 18.13 17.34 19.84V19.85Z" />
</svg>
