<svg viewBox="0 0 24 24" fill="currentColor" stroke="currentColor" xmlns="http://www.w3.org/2000/svg">
<path d="M18.68 5.22025C18.62 5.16025 18.53 5.11023 18.44 5.08023C17.57 4.78023 16.07 5.65025 14.12 7.57025L14.09 7.60025C14 7.69025 13.94 7.82026 13.94 7.95026C13.94 8.08026 14 8.22024 14.1 8.31024C16.35 10.9802 19.17 15.5503 18.64 17.2303C18.62 17.2803 18.62 17.3702 18.62 17.4302C18.62 17.7102 18.84 17.9302 19.12 17.9302C19.29 17.9302 19.45 17.8402 19.56 17.7102C20.81 16.0702 21.5 14.0302 21.5 11.9602C21.5 9.40024 20.5 7.01025 18.68 5.22025ZM15.13 7.99023C17.04 6.18023 17.86 6.03024 18.07 6.03024C19.64 7.62024 20.5 9.73025 20.5 11.9702C20.5 13.3002 20.18 14.6303 19.57 15.8203C18.99 13.2203 16.45 9.63024 15.12 8.00024L15.13 7.99023ZM12.37 9.87024C12.28 9.77024 12.15 9.72025 12.01 9.72025H12C11.87 9.72025 11.74 9.77024 11.65 9.87024C9.59999 11.4302 6 15.1103 5.4 17.4503C5.4 17.3803 5.38 17.3102 5.36 17.2502C4.84 15.5702 7.67 11.0002 9.91 8.34024C10 8.25024 10.06 8.12023 10.06 7.99023C10.06 7.85023 9.99 7.71023 9.89 7.61023C7.35 5.09023 6.1 4.87025 5.5 5.13025C5.5 5.13025 5.46 5.15025 5.44 5.16025C5.39 5.18025 5.34 5.22025 5.29 5.26025C3.49 7.06025 2.5 9.45024 2.5 12.0002C2.5 14.0602 3.19 16.1102 4.44 17.7502C4.66 18.0302 5.18 18.0002 5.34 17.6902C5.33 17.7702 5.32 17.8502 5.31 17.9302C5.26 18.5602 5.5 18.9403 5.74 19.1703C7.45 20.6803 9.67 21.5103 12 21.5103C14.33 21.5103 16.52 20.6803 18.28 19.1403C18.49 18.9303 18.72 18.5503 18.67 17.9203C18.5 15.6503 14.57 11.5802 12.37 9.88025V9.87024ZM4.41 15.8102C3.82 14.6302 3.5 13.3102 3.5 11.9902C3.5 9.75023 4.36 7.64025 5.92 6.04025C6.13 6.04025 6.9 6.13023 8.88 8.02023C7.97001 9.17023 5.04 13.0103 4.42 15.8203L4.41 15.8102ZM17.59 18.4002C16.04 19.7502 14.05 20.5002 11.99 20.5002C9.93001 20.5002 7.92 19.7602 6.42 18.4302C6.39 18.4002 6.28 18.2903 6.3 17.9803C6.42 16.3103 9.68001 12.6903 11.99 10.8503C14.3 12.7003 17.54 16.3203 17.66 17.9803C17.68 18.2903 17.58 18.3902 17.58 18.4002H17.59ZM7.43 4.87024C8.88 4.55024 11.29 5.82023 11.7 6.08023C11.78 6.13023 11.92 6.16025 12.01 6.16025C12.1 6.16025 12.2 6.13023 12.28 6.08023C12.69 5.82023 15.1 4.55024 16.55 4.87024C16.85 4.93024 17.2 4.67023 17.2 4.36023C17.2 4.17023 17.09 3.99026 16.93 3.89026C15.38 2.95026 13.76 2.49023 11.98 2.49023C10.2 2.49023 8.58 2.95026 7.03 3.89026C6.87 4.00026 6.76 4.18023 6.76 4.36023C6.76 4.67023 7.11 4.94024 7.41 4.87024H7.43ZM14.82 3.97025C13.61 4.25025 12.47 4.83025 11.99 5.10025C11.5 4.83025 10.37 4.25025 9.16 3.97025C10.95 3.32025 13.03 3.32025 14.82 3.97025Z" />
</svg>
