<svg viewBox="0 0 24 24" fill="currentColor" stroke="currentColor" xmlns="http://www.w3.org/2000/svg">
<path d="M22.07 7.06C21.79 6.03 20.98 5.21 19.95 4.94C18.34 4.51 12.26 4.5 12.01 4.5C11.76 4.5 5.67004 4.5 4.07004 4.94C3.04004 5.22 2.22004 6.03 1.95004 7.06C1.52004 8.67 1.52002 11.88 1.52002 12.01C1.52002 12.14 1.52004 15.35 1.95004 16.96C2.23004 17.99 3.02004 18.78 4.07004 19.06C5.68004 19.49 11.76 19.5 12.01 19.5C12.26 19.5 18.35 19.5 19.95 19.06C20.99 18.78 21.8 17.98 22.07 16.96C22.5 15.35 22.5 12.14 22.5 12.01C22.5 11.88 22.5 8.67 22.07 7.06ZM21.1 16.71C20.92 17.39 20.39 17.91 19.68 18.1C18.45 18.43 13.72 18.5 12 18.5C10.28 18.5 5.54004 18.43 4.32004 18.1C3.62004 17.91 3.09003 17.39 2.91003 16.71C2.51003 15.23 2.51004 12.05 2.51004 12.02C2.51004 11.99 2.51003 8.81 2.91003 7.33C3.09003 6.64 3.64002 6.1 4.33002 5.91C5.56002 5.58 10.29 5.50999 12.01 5.50999C13.73 5.50999 18.47 5.58 19.69 5.91C20.38 6.09 20.92 6.64 21.1 7.33C21.5 8.81 21.5 11.99 21.5 12.03C21.5 12.07 21.5 15.24 21.1 16.73V16.71ZM10 9L15 12L10 15V9Z" />
</svg>
