<svg viewBox="0 0 24 24" fill="currentColor" stroke="currentColor" xmlns="http://www.w3.org/2000/svg">
<path d="M20 8.5C20.939 8.5 21.5 7.939 21.5 7V5C21.5 4.061 20.939 3.5 20 3.5H4C3.061 3.5 2.5 4.061 2.5 5V7C2.5 7.939 3.061 8.5 4 8.5H4.5V19.5H3C2.724 19.5 2.5 19.724 2.5 20C2.5 20.276 2.724 20.5 3 20.5H9C9.276 20.5 9.5 20.276 9.5 20V15C9.5 13.622 10.621 12.5 12 12.5C13.379 12.5 14.5 13.622 14.5 15V20C14.5 20.276 14.724 20.5 15 20.5H21C21.276 20.5 21.5 20.276 21.5 20C21.5 19.724 21.276 19.5 21 19.5H19.5V8.5H20ZM3.5 7V5C3.5 4.607 3.607 4.5 4 4.5H20C20.393 4.5 20.5 4.607 20.5 5V7C20.5 7.393 20.393 7.5 20 7.5H19H5H4C3.607 7.5 3.5 7.393 3.5 7ZM18.5 19.5H15.5V15C15.5 13.07 13.93 11.5 12 11.5C10.07 11.5 8.5 13.07 8.5 15V19.5H5.5V8.5H18.5V19.5Z" />
</svg>
