<svg viewBox="0 0 24 24" fill="currentColor" stroke="currentColor" xmlns="http://www.w3.org/2000/svg">
<path d="M21 20.5H20.5V19C20.5 18.061 19.939 17.5 19 17.5H18.5V11.5H19C19.939 11.5 20.5 10.939 20.5 10V7.44094C20.5 6.86894 20.183 6.35514 19.671 6.09914L12.895 2.71096C12.335 2.43196 11.667 2.43196 11.106 2.71096L4.32996 6.09914C3.81796 6.35514 3.50098 6.86894 3.50098 7.44094V10C3.50098 10.939 4.06198 11.5 5.00098 11.5H5.50098V17.5H5.00098C4.06198 17.5 3.50098 18.061 3.50098 19V20.5H3.00098C2.72498 20.5 2.50098 20.724 2.50098 21C2.50098 21.276 2.72498 21.5 3.00098 21.5H21.001C21.277 21.5 21.501 21.276 21.501 21C21.501 20.724 21.276 20.5 21 20.5ZM17.5 17.5H14.5V11.5H17.5V17.5ZM10.5 17.5V11.5H13.5V17.5H10.5ZM4.5 10V7.44094C4.5 7.24994 4.605 7.07892 4.776 6.99392L11.552 3.60598C11.692 3.53598 11.846 3.501 11.999 3.501C12.152 3.501 12.307 3.53598 12.446 3.60598L19.222 6.99392C19.393 7.07892 19.498 7.24994 19.498 7.44094V10C19.498 10.393 19.391 10.5 18.998 10.5H4.99805C4.60705 10.5 4.5 10.393 4.5 10ZM6.5 11.5H9.5V17.5H6.5V11.5ZM4.5 19C4.5 18.607 4.607 18.5 5 18.5H19C19.393 18.5 19.5 18.607 19.5 19V20.5H4.5V19ZM11 7.00002C11 6.44802 11.448 6.00002 12 6.00002C12.552 6.00002 13 6.44802 13 7.00002C13 7.55202 12.552 8.00002 12 8.00002C11.448 8.00002 11 7.55202 11 7.00002Z" />
</svg>
