<svg viewBox="0 0 24 24" fill="currentColor" stroke="currentColor" xmlns="http://www.w3.org/2000/svg">
<path d="M18 11.4999C17.466 11.4999 16.968 11.556 16.5 11.643V6.80995C16.5 5.87995 15.848 5.05995 14.952 4.86195L4.95398 2.55287C4.35398 2.41287 3.74103 2.55297 3.25903 2.93397C2.77703 3.31597 2.5 3.88689 2.5 4.49989V18.9999C2.5 19.1039 2.50199 19.2078 2.51099 19.2619C2.59699 20.6119 3.38805 21.403 4.70105 21.486C4.79205 21.499 4.895 21.5009 5 21.5009H16C16.153 21.5009 16.285 21.428 16.377 21.32C16.884 21.433 17.43 21.5009 18 21.5009C20.439 21.5009 22.5 20.3559 22.5 19.0009V14.0009C22.5 12.5749 20.565 11.4999 18 11.4999ZM21.5 16.4999C21.5 17.2079 20.003 17.9999 18 17.9999C15.997 17.9999 14.5 17.2079 14.5 16.4999V15.589C15.311 16.147 16.546 16.4999 18 16.4999C19.454 16.4999 20.689 16.147 21.5 15.589V16.4999ZM21.5 13.9999C21.5 14.7079 20.003 15.4999 18 15.4999C15.997 15.4999 14.5 14.7079 14.5 13.9999C14.5 13.2919 15.997 12.4999 18 12.4999C20.003 12.4999 21.5 13.2919 21.5 13.9999ZM11 20.4999H8V16.9999C8 16.1729 8.673 15.4999 9.5 15.4999C10.327 15.4999 11 16.1729 11 16.9999V20.4999ZM12 20.4999V16.9999C12 15.6219 10.879 14.4999 9.5 14.4999C8.121 14.4999 7 15.6219 7 16.9999V20.4999H5C4.943 20.4999 4.887 20.5009 4.802 20.4909C3.95 20.4369 3.564 20.0498 3.505 19.1598C3.498 19.1108 3.5 19.0559 3.5 18.9989V4.49891C3.5 4.19291 3.639 3.90793 3.88 3.71693C4.12 3.52693 4.42503 3.45399 4.72803 3.52699L14.7321 5.83778C15.1771 5.93678 15.501 6.34495 15.501 6.80995V11.8998C14.28 12.3378 13.501 13.0969 13.501 13.9999V18.9999C13.501 19.5599 13.866 20.0779 14.451 20.4999H12ZM18 20.4999C15.97 20.4999 14.5 19.6039 14.5 18.9999V18.089C15.311 18.647 16.546 18.9999 18 18.9999C19.454 18.9999 20.689 18.647 21.5 18.089V18.9999C21.5 19.6039 20.03 20.4999 18 20.4999ZM12.5 8.99989C12.5 9.27589 12.276 9.49989 12 9.49989H11C10.724 9.49989 10.5 9.27589 10.5 8.99989C10.5 8.72389 10.724 8.49989 11 8.49989H12C12.276 8.49989 12.5 8.72389 12.5 8.99989ZM8.5 8.99989C8.5 9.27589 8.276 9.49989 8 9.49989H7C6.724 9.49989 6.5 9.27589 6.5 8.99989C6.5 8.72389 6.724 8.49989 7 8.49989H8C8.276 8.49989 8.5 8.72389 8.5 8.99989ZM12.5 11.9999C12.5 12.2759 12.276 12.4999 12 12.4999H11C10.724 12.4999 10.5 12.2759 10.5 11.9999C10.5 11.7239 10.724 11.4999 11 11.4999H12C12.276 11.4999 12.5 11.7239 12.5 11.9999ZM8.5 11.9999C8.5 12.2759 8.276 12.4999 8 12.4999H7C6.724 12.4999 6.5 12.2759 6.5 11.9999C6.5 11.7239 6.724 11.4999 7 11.4999H8C8.276 11.4999 8.5 11.7239 8.5 11.9999Z" />
</svg>
