<svg viewBox="0 0 24 24" fill="currentColor" stroke="currentColor" xmlns="http://www.w3.org/2000/svg">
<path d="M12 8C12 8.276 11.776 8.5 11.5 8.5H10.5C10.224 8.5 10 8.276 10 8C10 7.724 10.224 7.5 10.5 7.5H11.5C11.776 7.5 12 7.723 12 8ZM7.5 7.5H6.5C6.224 7.5 6 7.724 6 8C6 8.276 6.224 8.5 6.5 8.5H7.5C7.776 8.5 8 8.276 8 8C8 7.724 7.776 7.5 7.5 7.5ZM11.5 10.5H10.5C10.224 10.5 10 10.724 10 11C10 11.276 10.224 11.5 10.5 11.5H11.5C11.776 11.5 12 11.276 12 11C12 10.724 11.776 10.5 11.5 10.5ZM7.5 10.5H6.5C6.224 10.5 6 10.724 6 11C6 11.276 6.224 11.5 6.5 11.5H7.5C7.776 11.5 8 11.276 8 11C8 10.724 7.776 10.5 7.5 10.5ZM22.5 21C22.5 21.276 22.276 21.5 22 21.5H2C1.724 21.5 1.5 21.276 1.5 21C1.5 20.724 1.724 20.5 2 20.5H2.5V6C2.5 3.71 3.71 2.5 6 2.5H12C14.29 2.5 15.5 3.71 15.5 6V20.5H19V17.449C17.86 17.217 17 16.207 17 15V12C17 10.622 18.121 9.5 19.5 9.5C20.879 9.5 22 10.622 22 12V15C22 16.207 21.14 17.217 20 17.449V20.5H22C22.276 20.5 22.5 20.724 22.5 21ZM19.5 16.5C20.327 16.5 21 15.827 21 15V12C21 11.173 20.327 10.5 19.5 10.5C18.673 10.5 18 11.173 18 12V15C18 15.827 18.673 16.5 19.5 16.5ZM10.5 17C10.5 16.173 9.827 15.5 9 15.5C8.173 15.5 7.5 16.173 7.5 17V20.5H10.5V17ZM14.5 20.5V6C14.5 4.271 13.729 3.5 12 3.5H6C4.271 3.5 3.5 4.271 3.5 6V20.5H6.5V17C6.5 15.622 7.621 14.5 9 14.5C10.379 14.5 11.5 15.622 11.5 17V20.5H14.5Z" />
</svg>
