<svg viewBox="0 0 24 24" fill="currentColor" stroke="currentColor" xmlns="http://www.w3.org/2000/svg">
<path d="M21 20.5H20V6C20 3.71 18.79 2.5 16.5 2.5H7.5C5.21 2.5 4 3.71 4 6V20.5H3C2.724 20.5 2.5 20.724 2.5 21C2.5 21.276 2.724 21.5 3 21.5H21C21.276 21.5 21.5 21.276 21.5 21C21.5 20.724 21.276 20.5 21 20.5ZM13.75 20.5H10.25V17.5C10.25 16.78 10.53 16.5 11.25 16.5H12.75C13.47 16.5 13.75 16.78 13.75 17.5V20.5ZM14.75 20.5V17.5C14.75 16.229 14.021 15.5 12.75 15.5H11.25C9.979 15.5 9.25 16.229 9.25 17.5V20.5H5V6C5 4.271 5.771 3.5 7.5 3.5H16.5C18.229 3.5 19 4.271 19 6V20.5H14.75ZM15.5 13C15.5 13.276 15.276 13.5 15 13.5H14C13.724 13.5 13.5 13.276 13.5 13C13.5 12.724 13.724 12.5 14 12.5H15C15.276 12.5 15.5 12.724 15.5 13ZM10.5 13C10.5 13.276 10.276 13.5 10 13.5H9C8.724 13.5 8.5 13.276 8.5 13C8.5 12.724 8.724 12.5 9 12.5H10C10.276 12.5 10.5 12.724 10.5 13ZM15.5 10C15.5 10.276 15.276 10.5 15 10.5H14C13.724 10.5 13.5 10.276 13.5 10C13.5 9.724 13.724 9.5 14 9.5H15C15.276 9.5 15.5 9.724 15.5 10ZM10.5 10C10.5 10.276 10.276 10.5 10 10.5H9C8.724 10.5 8.5 10.276 8.5 10C8.5 9.724 8.724 9.5 9 9.5H10C10.276 9.5 10.5 9.724 10.5 10ZM15.5 7C15.5 7.276 15.276 7.5 15 7.5H14C13.724 7.5 13.5 7.276 13.5 7C13.5 6.724 13.724 6.5 14 6.5H15C15.276 6.5 15.5 6.724 15.5 7ZM10.5 7C10.5 7.276 10.276 7.5 10 7.5H9C8.724 7.5 8.5 7.276 8.5 7C8.5 6.724 8.724 6.5 9 6.5H10C10.276 6.5 10.5 6.724 10.5 7Z" />
</svg>
