<svg viewBox="0 0 24 24" fill="currentColor" stroke="currentColor" xmlns="http://www.w3.org/2000/svg">
<path d="M19.9449 9.38983L16.5 8.60199V6.80902C16.5 5.87202 15.862 5.07104 14.949 4.86004L4.94897 2.55194C4.35097 2.41394 3.733 2.55397 3.255 2.93597C2.776 3.31797 2.5 3.88791 2.5 4.50091V19.0009C2.5 20.6129 3.388 21.5009 5 21.5009H19C20.612 21.5009 21.5 20.6129 21.5 19.0009V11.34C21.5 10.401 20.8599 9.59883 19.9449 9.38983ZM3.5 18.9999V4.49993C3.5 4.19393 3.63805 3.90895 3.87805 3.71795C4.05705 3.57495 4.27405 3.49993 4.49805 3.49993C4.57305 3.49993 4.64898 3.50781 4.72498 3.52581L14.725 5.83392C15.181 5.93892 15.5 6.34004 15.5 6.80804V8.99993V20.4999H12V16.9999C12 15.6219 10.879 14.4999 9.5 14.4999C8.121 14.4999 7 15.6219 7 16.9999V20.4999H5C3.948 20.4999 3.5 20.0509 3.5 18.9999ZM11 20.4999H8V16.9999C8 16.1729 8.673 15.4999 9.5 15.4999C10.327 15.4999 11 16.1729 11 16.9999V20.4999ZM20.5 18.9999C20.5 20.0509 20.052 20.4999 19 20.4999H16.5V9.62689L19.723 10.3639C20.181 10.4689 20.5 10.87 20.5 11.339V18.9999ZM10.5 8.99993C10.5 8.72393 10.724 8.49993 11 8.49993H12C12.276 8.49993 12.5 8.72393 12.5 8.99993C12.5 9.27593 12.276 9.49993 12 9.49993H11C10.724 9.49993 10.5 9.27593 10.5 8.99993ZM6.5 8.99993C6.5 8.72393 6.724 8.49993 7 8.49993H8C8.276 8.49993 8.5 8.72393 8.5 8.99993C8.5 9.27593 8.276 9.49993 8 9.49993H7C6.724 9.49993 6.5 9.27593 6.5 8.99993ZM10.5 11.9999C10.5 11.7239 10.724 11.4999 11 11.4999H12C12.276 11.4999 12.5 11.7239 12.5 11.9999C12.5 12.2759 12.276 12.4999 12 12.4999H11C10.724 12.4999 10.5 12.2759 10.5 11.9999ZM6.5 11.9999C6.5 11.7239 6.724 11.4999 7 11.4999H8C8.276 11.4999 8.5 11.7239 8.5 11.9999C8.5 12.2759 8.276 12.4999 8 12.4999H7C6.724 12.4999 6.5 12.2759 6.5 11.9999Z" />
</svg>
