<svg viewBox="0 0 24 24" fill="currentColor" stroke="currentColor" xmlns="http://www.w3.org/2000/svg">
<path d="M21 20.5H19.457L18.542 10.437C19.66 10.188 20.5 9.192 20.5 8V3.5C20.5 2.949 20.052 2.5 19.5 2.5H17.5C16.948 2.5 16.5 2.949 16.5 3.5V5C16.5 5.551 16.052 6 15.5 6C14.948 6 14.5 5.551 14.5 5V3.5C14.5 2.949 14.052 2.5 13.5 2.5H10.5C9.948 2.5 9.5 2.949 9.5 3.5V5C9.5 5.551 9.052 6 8.5 6C7.948 6 7.5 5.551 7.5 5V3.5C7.5 2.949 7.052 2.5 6.5 2.5H4.5C3.948 2.5 3.5 2.949 3.5 3.5V8C3.5 9.192 4.34001 10.188 5.45801 10.437L4.54297 20.5H3C2.724 20.5 2.5 20.724 2.5 21C2.5 21.276 2.724 21.5 3 21.5H10C10.276 21.5 10.5 21.276 10.5 21V17C10.5 16.173 11.173 15.5 12 15.5C12.827 15.5 13.5 16.173 13.5 17V21C13.5 21.276 13.724 21.5 14 21.5H21C21.276 21.5 21.5 21.276 21.5 21C21.5 20.724 21.276 20.5 21 20.5ZM4.5 8V3.5H6.5V5C6.5 6.103 7.397 7 8.5 7C9.603 7 10.5 6.103 10.5 5V3.5H13.5V5C13.5 6.103 14.397 7 15.5 7C16.603 7 17.5 6.103 17.5 5V3.5H19.5V8C19.5 8.827 18.827 9.5 18 9.5H6C5.173 9.5 4.5 8.827 4.5 8ZM18.4301 20.5H14.5V17C14.5 15.622 13.379 14.5 12 14.5C10.621 14.5 9.5 15.622 9.5 17V20.5H5.56995H5.54797L6.45703 10.5H17.543L18.452 20.5H18.4301Z" />
</svg>
