<svg viewBox="0 0 24 24" fill="currentColor" stroke="currentColor" xmlns="http://www.w3.org/2000/svg">
<path d="M21.3171 9.27791L13.9051 3.18294C12.8011 2.27594 11.198 2.27594 10.094 3.18294L2.68206 9.27791C2.46806 9.45291 2.43807 9.76901 2.61407 9.98201C2.79007 10.196 3.10507 10.226 3.31707 10.051L4.50005 9.07796V18C4.50005 20.29 5.71005 21.5 8.00005 21.5H16.0001C18.2901 21.5 19.5001 20.29 19.5001 18V9.07796L20.683 10.051C20.776 10.128 20.8881 10.165 21.0001 10.165C21.1451 10.165 21.287 10.103 21.386 9.98201C21.562 9.76901 21.5311 9.45291 21.3171 9.27791ZM18.5001 18C18.5001 19.729 17.7291 20.5 16.0001 20.5H8.00005C6.27105 20.5 5.50005 19.729 5.50005 18V8.25496L10.7291 3.95491C11.4651 3.35091 12.5341 3.35091 13.2701 3.95491L18.4991 8.25496V18H18.5001ZM14.553 13.863C14.773 14.03 14.8161 14.3429 14.6491 14.5639C14.5501 14.6929 14.401 14.7609 14.251 14.7609C14.146 14.7609 14.0391 14.7279 13.9481 14.6589C12.8311 13.8099 11.171 13.8099 10.053 14.6589C9.83303 14.8259 9.5201 14.7839 9.3521 14.5639C9.1851 14.3439 9.22805 14.03 9.44805 13.863C10.9161 12.747 13.084 12.747 14.553 13.863ZM12.0001 9.99995C13.7731 9.99995 15.4871 10.6349 16.8261 11.7879C17.0351 11.9679 17.0591 12.2839 16.8791 12.4929C16.7801 12.6079 16.6411 12.6669 16.5001 12.6669C16.3841 12.6669 16.269 12.6269 16.174 12.5459C15.016 11.5489 13.5341 11.0009 12.0001 11.0009C10.4661 11.0009 8.9841 11.5499 7.8261 12.5459C7.6161 12.7259 7.30203 12.7019 7.12103 12.4929C6.94003 12.2839 6.965 11.9679 7.174 11.7879C8.513 10.6349 10.2271 9.99995 12.0001 9.99995ZM12.7501 16.5C12.7501 16.914 12.4141 17.25 12.0001 17.25C11.5861 17.25 11.2501 16.914 11.2501 16.5C11.2501 16.086 11.5861 15.75 12.0001 15.75C12.4141 15.75 12.7501 16.086 12.7501 16.5Z" />
</svg>
