<svg viewBox="0 0 24 24" fill="currentColor" stroke="currentColor" xmlns="http://www.w3.org/2000/svg">
<path d="M20.588 8.676L13.906 3.18296C12.801 2.27396 11.197 2.27496 10.094 3.18296L3.41198 8.676C2.71198 9.252 2.37803 10.163 2.54003 11.055L3.99498 19.037C4.25598 20.463 5.49701 21.499 6.94701 21.499H17.052C18.502 21.499 19.743 20.463 20.004 19.037L21.459 11.0539C21.622 10.1629 21.288 9.252 20.588 8.676ZM20.4759 10.875L19.021 18.858C18.848 19.809 18.02 20.5 17.053 20.5H6.94799C5.98099 20.5 5.15297 19.81 4.97997 18.858L3.52501 10.876C3.42701 10.34 3.62799 9.79298 4.04699 9.44798L10.729 3.95493C11.097 3.65193 11.548 3.49998 12 3.49998C12.451 3.49998 12.902 3.65193 13.271 3.95493L19.953 9.44798C20.373 9.79398 20.5729 10.341 20.4759 10.875ZM14.25 12.5639V11.25C14.25 10.009 13.24 8.99998 12 8.99998C10.76 8.99998 9.74999 10.009 9.74999 11.25V12.5639C8.95199 12.7449 8.49999 13.346 8.49999 14.286V16.2149C8.49999 17.3499 9.151 18.001 10.286 18.001H13.714C14.849 18.001 15.5 17.3499 15.5 16.2149V14.286C15.5 13.346 15.048 12.7449 14.25 12.5639ZM12 9.99998C12.689 9.99998 13.25 10.561 13.25 11.25V12.5H10.75V11.25C10.75 10.561 11.311 9.99998 12 9.99998ZM14.5 16.214C14.5 16.794 14.294 17 13.714 17H10.286C9.706 17 9.49999 16.794 9.49999 16.214V14.285C9.49999 13.705 9.706 13.499 10.286 13.499H13.714C14.294 13.499 14.5 13.705 14.5 14.285V16.214Z" />
</svg>
