<svg viewBox="0 0 24 24" fill="currentColor" stroke="currentColor" xmlns="http://www.w3.org/2000/svg">
<path d="M20.588 8.676L13.906 3.18296C12.8 2.27396 11.196 2.27496 10.094 3.18296L3.41198 8.676C2.71198 9.252 2.37803 10.163 2.54003 11.055L3.99498 19.037C4.25598 20.463 5.49701 21.499 6.94701 21.499H17.052C18.502 21.499 19.743 20.463 20.004 19.037L21.459 11.0539C21.622 10.1629 21.288 9.252 20.588 8.676ZM20.4759 10.875L19.021 18.858C18.848 19.809 18.02 20.5 17.053 20.5H6.94799C5.98099 20.5 5.15297 19.81 4.97997 18.858L3.52501 10.876C3.42701 10.34 3.62799 9.79298 4.04699 9.44798L10.729 3.95493C11.097 3.65193 11.548 3.49998 12 3.49998C12.451 3.49998 12.902 3.65193 13.271 3.95493L19.953 9.44798C20.373 9.79398 20.5729 10.341 20.4759 10.875ZM12.75 16.5C12.75 16.914 12.414 17.25 12 17.25C11.586 17.25 11.25 16.914 11.25 16.5C11.25 16.086 11.586 15.75 12 15.75C12.414 15.75 12.75 16.086 12.75 16.5ZM14.553 13.863C14.773 14.03 14.816 14.3439 14.649 14.5639C14.55 14.6929 14.401 14.761 14.251 14.761C14.146 14.761 14.039 14.728 13.948 14.659C12.831 13.81 11.171 13.81 10.053 14.659C9.83297 14.826 9.52004 14.7839 9.35204 14.5639C9.18504 14.3439 9.22799 14.03 9.44799 13.863C10.914 12.747 13.086 12.747 14.553 13.863ZM16.826 11.7879C17.035 11.9679 17.059 12.284 16.879 12.493C16.78 12.608 16.641 12.667 16.5 12.667C16.384 12.667 16.2689 12.627 16.1739 12.546C15.0159 11.549 13.534 11.001 12 11.001C10.466 11.001 8.98404 11.55 7.82604 12.546C7.61604 12.726 7.30196 12.702 7.12096 12.493C6.93996 12.284 6.96494 11.9679 7.17394 11.7879C8.51294 10.6349 10.227 9.99998 12 9.99998C13.773 9.99998 15.487 10.6349 16.826 11.7879Z" />
</svg>
