<svg viewBox="0 0 24 24" fill="currentColor" stroke="currentColor" xmlns="http://www.w3.org/2000/svg">
<path d="M20.049 8.33299L13.928 3.20103C12.811 2.26403 11.19 2.26503 10.073 3.20103L3.95203 8.33299C3.02503 9.10199 2.50098 9.63501 2.50098 11.65V18C2.50098 20.29 3.71098 21.5 6.00098 21.5H18.001C20.291 21.5 21.501 20.29 21.501 18V11.65C21.5 9.63601 20.976 9.10299 20.049 8.33299ZM20.5 18C20.5 19.729 19.729 20.5 18 20.5H6C4.271 20.5 3.5 19.729 3.5 18V11.65C3.5 10.007 3.81897 9.74201 4.58997 9.10301L10.715 3.968C11.087 3.656 11.544 3.49998 12 3.49998C12.456 3.49998 12.913 3.656 13.285 3.968L19.41 9.10301C20.181 9.74301 20.5 10.007 20.5 11.65V18ZM14.553 13.863C14.773 14.03 14.816 14.3429 14.649 14.5639C14.55 14.6929 14.401 14.761 14.251 14.761C14.146 14.761 14.039 14.728 13.948 14.659C12.831 13.81 11.171 13.81 10.053 14.659C9.83298 14.826 9.52005 14.7839 9.35205 14.5639C9.18505 14.3439 9.228 14.03 9.448 13.863C10.916 12.747 13.084 12.747 14.553 13.863ZM16.826 11.7879C17.035 11.9679 17.059 12.284 16.879 12.493C16.78 12.608 16.641 12.667 16.5 12.667C16.384 12.667 16.269 12.627 16.174 12.546C15.016 11.549 13.534 11.001 12 11.001C10.466 11.001 8.98405 11.55 7.82605 12.546C7.61605 12.726 7.30197 12.703 7.12097 12.493C6.93997 12.283 6.96495 11.9679 7.17395 11.7879C8.51295 10.6349 10.227 9.99998 12 9.99998C13.773 9.99998 15.4871 10.6349 16.826 11.7879ZM12.75 16.5C12.75 16.914 12.414 17.25 12 17.25C11.586 17.25 11.25 16.914 11.25 16.5C11.25 16.086 11.586 15.75 12 15.75C12.414 15.75 12.75 16.086 12.75 16.5Z" />
</svg>
