<svg viewBox="0 0 24 24" fill="currentColor" stroke="currentColor" xmlns="http://www.w3.org/2000/svg">
<path d="M21.3171 9.27791L13.9051 3.18294C12.8011 2.27594 11.198 2.27594 10.094 3.18294L2.68206 9.27791C2.46806 9.45291 2.43807 9.76901 2.61407 9.98201C2.79007 10.196 3.10407 10.226 3.31707 10.051L4.50005 9.07796V18C4.50005 20.29 5.71005 21.5 8.00005 21.5H16.0001C18.2901 21.5 19.5001 20.29 19.5001 18V9.07796L20.683 10.051C20.776 10.128 20.8881 10.165 21.0001 10.165C21.1451 10.165 21.287 10.103 21.386 9.98201C21.562 9.76901 21.5311 9.45291 21.3171 9.27791ZM18.5001 18C18.5001 19.729 17.7291 20.5 16.0001 20.5H8.00005C6.27105 20.5 5.50005 19.729 5.50005 18V8.25496L10.7291 3.95491C11.4651 3.35091 12.5341 3.35091 13.2701 3.95491L18.4991 8.25496V18H18.5001ZM8.00005 12.9169C8.00005 14.8009 9.53305 16.3339 11.417 16.3339C12.179 16.3339 12.875 16.0751 13.444 15.6521L15.1461 17.354C15.2441 17.452 15.3721 17.5 15.5001 17.5C15.6281 17.5 15.7561 17.451 15.8541 17.354C16.0491 17.159 16.0491 16.8419 15.8541 16.6469L14.152 14.945C14.575 14.376 14.834 13.6789 14.834 12.9169C14.834 11.0329 13.302 9.49995 11.418 9.49995C9.53402 9.49995 8.00005 11.0329 8.00005 12.9169ZM13.8331 12.9169C13.8331 14.2499 12.749 15.3339 11.417 15.3339C10.084 15.3339 9.00005 14.2499 9.00005 12.9169C9.00005 11.5839 10.084 10.5 11.417 10.5C12.749 10.5 13.8331 11.5839 13.8331 12.9169Z" />
</svg>
