<svg viewBox="0 0 24 24" fill="currentColor" stroke="currentColor" xmlns="http://www.w3.org/2000/svg">
<path d="M20.588 8.676L13.906 3.18296C12.8 2.27396 11.196 2.27496 10.094 3.18296L3.41198 8.676C2.71198 9.252 2.37803 10.163 2.54003 11.055L3.99498 19.037C4.25598 20.463 5.49701 21.499 6.94701 21.499H17.052C18.502 21.499 19.743 20.463 20.004 19.037L21.459 11.0539C21.622 10.1629 21.288 9.252 20.588 8.676ZM20.4759 10.875L19.021 18.858C18.848 19.809 18.02 20.5 17.053 20.5H6.94799C5.98099 20.5 5.15297 19.81 4.97997 18.858L3.52501 10.876C3.42701 10.34 3.62799 9.79298 4.04699 9.44798L10.729 3.95493C11.097 3.65193 11.548 3.49998 12 3.49998C12.451 3.49998 12.902 3.65193 13.271 3.95493L19.953 9.44798C20.373 9.79398 20.5729 10.341 20.4759 10.875ZM16.5 12.519V15.019C16.5 15.084 16.487 15.1489 16.462 15.2099C16.411 15.3329 16.314 15.4299 16.191 15.4809C16.13 15.5059 16.065 15.52 16 15.52H13.5C13.224 15.52 13 15.296 13 15.02C13 14.744 13.224 14.52 13.5 14.52H14.793L12.808 12.535C12.744 12.472 12.602 12.471 12.537 12.535L11.358 13.713C10.91 14.163 10.124 14.164 9.67296 13.713L7.64599 11.686C7.45099 11.491 7.45099 11.174 7.64599 10.979C7.84099 10.784 8.15802 10.784 8.35302 10.979L10.38 13.006C10.48 13.105 10.555 13.102 10.651 13.006L11.8299 11.827C12.2809 11.377 13.065 11.376 13.515 11.827L15.5 13.812V12.519C15.5 12.243 15.724 12.019 16 12.019C16.276 12.019 16.5 12.242 16.5 12.519Z" />
</svg>
