<svg viewBox="0 0 24 24" fill="currentColor" stroke="currentColor" xmlns="http://www.w3.org/2000/svg">
<path d="M21.3171 9.27791L13.9051 3.18294C12.8011 2.27594 11.198 2.27594 10.094 3.18294L2.68206 9.27791C2.46806 9.45291 2.43807 9.76901 2.61407 9.98201C2.79007 10.196 3.10507 10.226 3.31707 10.051L4.50005 9.07796V18C4.50005 20.29 5.71005 21.5 8.00005 21.5H16.0001C18.2901 21.5 19.5001 20.29 19.5001 18V9.07796L20.683 10.051C20.776 10.128 20.8881 10.165 21.0001 10.165C21.1451 10.165 21.287 10.103 21.386 9.98201C21.562 9.76901 21.5311 9.45291 21.3171 9.27791ZM18.5001 18C18.5001 19.729 17.7291 20.5 16.0001 20.5H8.00005C6.27105 20.5 5.50005 19.729 5.50005 18V8.25496L10.7291 3.95491C11.4651 3.35091 12.5341 3.35091 13.2701 3.95491L18.4991 8.25496V18H18.5001ZM11.0991 9.55794L10.2021 11.3859L8.08501 11.692C7.71402 11.745 7.41303 11.9999 7.29803 12.3549C7.18403 12.7089 7.27905 13.0901 7.54705 13.3491L9.06805 14.802L8.71905 16.8249C8.65305 17.2029 8.80504 17.5779 9.11504 17.8049C9.42704 18.0339 9.83406 18.064 10.1771 17.885L11.9891 16.9279L13.825 17.8859C13.973 17.9629 14.134 18.0009 14.292 18.0009C14.501 18.0009 14.709 17.9349 14.886 17.8059C15.197 17.5799 15.349 17.2049 15.283 16.8259L14.9251 14.8278L16.455 13.3479C16.723 13.0889 16.818 12.708 16.704 12.354C16.589 11.999 16.288 11.745 15.917 11.691L13.819 11.401L12.902 9.55696C12.56 8.86896 11.4381 8.86994 11.0991 9.55794ZM13.6561 12.3759L15.7591 12.6289L14.2291 14.1079C13.9991 14.3309 13.8931 14.6529 13.9481 14.9699L14.288 16.997L12.4531 16.04C12.3111 15.966 12.156 15.9289 12.001 15.9289C11.846 15.9289 11.6901 15.966 11.5501 16.04L9.70501 16.9938L10.0551 14.9699C10.1091 14.6539 10.003 14.3308 9.773 14.1088L8.22808 12.6809L10.344 12.3759C10.66 12.3309 10.9351 12.133 11.0771 11.847L12.0051 9.99898C12.0051 9.99898 12.006 9.99991 12.007 10.0019C12.007 10.0019 12.0071 10.0019 12.0081 10.0019L12.9251 11.847C13.0661 12.133 13.3411 12.3309 13.6561 12.3759Z" />
</svg>
