<svg viewBox="0 0 24 24" fill="currentColor" stroke="currentColor" xmlns="http://www.w3.org/2000/svg">
<path d="M21.3171 9.27791L13.9051 3.18294C12.8011 2.27594 11.198 2.27594 10.094 3.18294L2.68206 9.27791C2.46806 9.45291 2.43807 9.76901 2.61407 9.98201C2.78907 10.196 3.10407 10.226 3.31707 10.051L4.50005 9.07796V18C4.50005 20.29 5.71005 21.5 8.00005 21.5H16.0001C18.2901 21.5 19.5001 20.29 19.5001 18V9.07796L20.683 10.051C20.776 10.128 20.8881 10.165 21.0001 10.165C21.1451 10.165 21.287 10.103 21.386 9.98201C21.562 9.76901 21.5311 9.45291 21.3171 9.27791ZM18.5001 18C18.5001 19.729 17.7291 20.5 16.0001 20.5H8.00005C6.27105 20.5 5.50005 19.729 5.50005 18V8.25496L10.7291 3.95491C11.4651 3.35091 12.5341 3.35091 13.2701 3.95491L18.4991 8.25496V18H18.5001ZM11.782 9.05391C11.009 9.44291 10.1661 9.83598 8.36211 10.353C8.14711 10.415 8.00005 10.61 8.00005 10.833V13.0549C8.00005 15.7219 9.98302 17.3449 11.84 17.9729C11.892 17.9909 11.9461 17.999 12.0001 17.999C12.0541 17.999 12.1081 17.9899 12.1601 17.9729C14.0161 17.3449 16.0001 15.7229 16.0001 13.0549V10.775C16.0001 10.546 15.8451 10.347 15.6231 10.29C13.8391 9.83699 13.0021 9.44691 12.2341 9.05391C12.0921 8.98091 11.923 8.97991 11.782 9.05391ZM15.0001 13.0559C15.0001 15.6009 12.7641 16.6759 12.0001 16.9689C11.2361 16.6769 9.00005 15.6009 9.00005 13.0559V11.208C10.3561 10.804 11.1771 10.4659 12.0051 10.0589C12.8341 10.4709 13.6531 10.8009 15.0001 11.1619V13.0559Z" />
</svg>
