<svg viewBox="0 0 24 24" fill="currentColor" stroke="currentColor" xmlns="http://www.w3.org/2000/svg">
<path d="M20.049 8.33299L13.928 3.20103C12.811 2.26403 11.19 2.26503 10.073 3.20103L3.95203 8.33299C3.02503 9.10199 2.50098 9.63501 2.50098 11.65V18C2.50098 20.29 3.71098 21.5 6.00098 21.5H18.001C20.291 21.5 21.501 20.29 21.501 18V11.65C21.5 9.63601 20.976 9.10299 20.049 8.33299ZM20.5 18C20.5 19.729 19.729 20.5 18 20.5H6C4.271 20.5 3.5 19.729 3.5 18V11.65C3.5 10.007 3.81897 9.74201 4.58997 9.10301L10.715 3.968C11.087 3.656 11.544 3.49998 12 3.49998C12.456 3.49998 12.913 3.656 13.285 3.968L19.41 9.10301C20.181 9.74301 20.5 10.007 20.5 11.65V18ZM16.354 12.446C16.549 12.641 16.549 12.9579 16.354 13.1529L14.119 15.3879C13.612 15.8959 12.788 15.894 12.283 15.389L11.011 14.12C10.897 14.004 10.705 14.002 10.587 14.12L8.35498 16.352C8.25698 16.45 8.12898 16.498 8.00098 16.498C7.87298 16.498 7.74497 16.449 7.64697 16.352C7.45197 16.157 7.45197 15.84 7.64697 15.645L9.87903 13.4129C10.387 12.9069 11.211 12.907 11.717 13.412L12.988 14.681C13.102 14.796 13.293 14.799 13.411 14.681L15.646 12.446C15.842 12.251 16.158 12.251 16.354 12.446Z" />
</svg>
