<svg viewBox="0 0 24 24" fill="currentColor" stroke="currentColor" xmlns="http://www.w3.org/2000/svg">
<path d="M21.3171 9.27791L13.9051 3.18294C12.8011 2.27594 11.198 2.27594 10.094 3.18294L2.68206 9.27791C2.46806 9.45291 2.43807 9.76901 2.61407 9.98201C2.79007 10.196 3.10507 10.226 3.31707 10.051L4.50005 9.07796V18C4.50005 20.29 5.71005 21.5 8.00005 21.5H16.0001C18.2901 21.5 19.5001 20.29 19.5001 18V9.07796L20.683 10.051C20.776 10.128 20.8881 10.165 21.0001 10.165C21.1451 10.165 21.287 10.103 21.386 9.98201C21.562 9.76901 21.5311 9.45291 21.3171 9.27791ZM18.5001 18C18.5001 19.729 17.7291 20.5 16.0001 20.5H8.00005C6.27105 20.5 5.50005 19.729 5.50005 18V8.25496L10.7291 3.95491C11.4651 3.35091 12.5341 3.35091 13.2701 3.95491L18.4991 8.25496V18H18.5001ZM13.5151 12.4951L15.5001 14.4799V13.187C15.5001 12.911 15.7241 12.687 16.0001 12.687C16.2761 12.687 16.5001 12.911 16.5001 13.187V15.687C16.5001 15.752 16.4871 15.8169 16.4621 15.8779C16.4111 16.0009 16.3141 16.0979 16.1911 16.1489C16.1301 16.1739 16.0651 16.1879 16.0001 16.1879H13.5001C13.2241 16.1879 13.0001 15.9639 13.0001 15.6879C13.0001 15.4119 13.2241 15.1879 13.5001 15.1879H14.793L12.808 13.2028C12.744 13.1398 12.602 13.1388 12.537 13.2028L11.3581 14.382C10.9101 14.832 10.124 14.833 9.67303 14.382L7.64605 12.3549C7.45105 12.1599 7.45105 11.8429 7.64605 11.6479C7.84105 11.4529 8.15808 11.4529 8.35308 11.6479L10.3801 13.675C10.4801 13.775 10.5551 13.771 10.6511 13.675L11.83 12.4951C12.281 12.0441 13.0651 12.0441 13.5151 12.4951Z" />
</svg>
