<svg viewBox="0 0 24 24" fill="currentColor" stroke="currentColor" xmlns="http://www.w3.org/2000/svg">
<path d="M20.049 8.33299L13.928 3.20103C12.811 2.26403 11.19 2.26503 10.073 3.20103L3.95203 8.33299C3.02503 9.10199 2.50098 9.63501 2.50098 11.65V18C2.50098 20.29 3.71098 21.5 6.00098 21.5H18.001C20.291 21.5 21.501 20.29 21.501 18V11.65C21.5 9.63601 20.976 9.10299 20.049 8.33299ZM20.5 18C20.5 19.729 19.729 20.5 18 20.5H6C4.271 20.5 3.5 19.729 3.5 18V11.65C3.5 10.007 3.81897 9.74201 4.58997 9.10301L10.715 3.968C11.087 3.656 11.544 3.49998 12 3.49998C12.456 3.49998 12.913 3.656 13.285 3.968L19.41 9.10301C20.181 9.74301 20.5 10.007 20.5 11.65V18ZM14.25 14.613C14.25 15.144 14.045 15.645 13.672 16.022C13.354 16.347 12.942 16.538 12.5 16.589V17C12.5 17.276 12.276 17.5 12 17.5C11.724 17.5 11.5 17.276 11.5 17V16.5899C10.596 16.4849 9.86496 15.769 9.76196 14.832C9.73196 14.558 9.92998 14.311 10.204 14.28C10.47 14.248 10.725 14.447 10.756 14.722C10.812 15.229 11.229 15.6109 11.725 15.6109H12.276C12.533 15.6109 12.7761 15.5079 12.9611 15.3199C13.1491 15.1299 13.251 14.879 13.251 14.612C13.251 14.154 12.946 13.7549 12.511 13.6429L11.244 13.323C10.815 13.213 10.4319 12.959 10.1639 12.609C9.89794 12.268 9.75098 11.832 9.75098 11.385C9.75098 10.361 10.519 9.52402 11.501 9.41002V8.99998C11.501 8.72398 11.725 8.49998 12.001 8.49998C12.277 8.49998 12.501 8.72398 12.501 8.99998V9.41002C13.405 9.51502 14.136 10.231 14.239 11.168C14.269 11.442 14.071 11.689 13.797 11.72C13.521 11.746 13.276 11.5529 13.245 11.2779C13.189 10.7709 12.772 10.389 12.276 10.389H11.725C11.188 10.389 10.75 10.8369 10.75 11.3869C10.75 11.6119 10.823 11.83 10.955 12C11.092 12.179 11.276 12.3009 11.49 12.3559L12.757 12.676C13.637 12.902 14.25 13.699 14.25 14.613Z" />
</svg>
