<svg viewBox="0 0 24 24" fill="currentColor" stroke="currentColor" xmlns="http://www.w3.org/2000/svg">
<path d="M20.049 8.33299L13.928 3.20103C12.811 2.26403 11.19 2.26503 10.073 3.20103L3.95203 8.33299C3.02503 9.10199 2.50098 9.63501 2.50098 11.65V18C2.50098 20.29 3.71098 21.5 6.00098 21.5H18.001C20.291 21.5 21.501 20.29 21.501 18V11.65C21.5 9.63601 20.976 9.10299 20.049 8.33299ZM20.5 18C20.5 19.729 19.729 20.5 18 20.5H6C4.271 20.5 3.5 19.729 3.5 18V11.65C3.5 10.007 3.81897 9.74201 4.58997 9.10301L10.715 3.968C11.087 3.656 11.544 3.49998 12 3.49998C12.456 3.49998 12.913 3.656 13.285 3.968L19.41 9.10301C20.181 9.74301 20.5 10.007 20.5 11.65V18ZM12 12.8C13.186 12.8 14.15 11.836 14.15 10.65C14.15 9.46401 13.185 8.49998 12 8.49998C10.815 8.49998 9.84998 9.46401 9.84998 10.65C9.84998 11.836 10.814 12.8 12 12.8ZM12 9.49998C12.635 9.49998 13.15 10.016 13.15 10.65C13.15 11.284 12.634 11.8 12 11.8C11.366 11.8 10.85 11.284 10.85 10.65C10.85 10.016 11.365 9.49998 12 9.49998ZM15.5 16.697V17C15.5 17.276 15.276 17.5 15 17.5C14.724 17.5 14.5 17.276 14.5 17V16.697C14.5 15.88 13.918 15 12.642 15H11.359C10.083 15 9.50098 15.879 9.50098 16.697V17C9.50098 17.276 9.27698 17.5 9.00098 17.5C8.72498 17.5 8.50098 17.276 8.50098 17V16.697C8.50098 15.357 9.48201 14 11.359 14H12.642C14.519 14 15.5 15.356 15.5 16.697Z" />
</svg>
