<svg viewBox="0 0 24 24" fill="currentColor" stroke="currentColor" xmlns="http://www.w3.org/2000/svg">
<path d="M20.049 8.33299L13.928 3.20103C12.811 2.26403 11.19 2.26503 10.073 3.20103L3.95203 8.33299C3.02503 9.10199 2.50098 9.63501 2.50098 11.65V18C2.50098 20.29 3.71098 21.5 6.00098 21.5H10.001V16.5C10.001 15.397 10.898 14.5 12.001 14.5C13.104 14.5 14.001 15.397 14.001 16.5V21.5H18.001C20.291 21.5 21.501 20.29 21.501 18V11.65C21.5 9.63601 20.976 9.10299 20.049 8.33299ZM20.5 18C20.5 19.729 19.729 20.5 18 20.5H15V16.5C15 14.846 13.654 13.5 12 13.5C10.346 13.5 9 14.846 9 16.5V20.5H6C4.271 20.5 3.5 19.729 3.5 18V11.65C3.5 10.007 3.81897 9.74201 4.58997 9.10301L10.715 3.968C11.459 3.343 12.541 3.344 13.285 3.968L19.41 9.10301C20.181 9.74301 20.5 10.007 20.5 11.65V18Z" />
</svg>
