<svg viewBox="0 0 24 24" fill="currentColor" stroke="currentColor" xmlns="http://www.w3.org/2000/svg">
<path d="M20.588 8.676L13.906 3.18296C12.8 2.27396 11.196 2.27496 10.094 3.18296L3.41198 8.676C2.71198 9.252 2.37803 10.163 2.54003 11.055L3.99498 19.037C4.25598 20.463 5.49701 21.499 6.94701 21.499H17.052C18.502 21.499 19.743 20.463 20.004 19.037L21.459 11.0539C21.622 10.1629 21.288 9.252 20.588 8.676ZM20.4759 10.875L19.021 18.858C18.848 19.809 18.02 20.5 17.053 20.5H6.94799C5.98099 20.5 5.15297 19.81 4.97997 18.858L3.52501 10.876C3.42701 10.34 3.62799 9.79298 4.04699 9.44798L10.729 3.95493C11.097 3.65193 11.548 3.49998 12 3.49998C12.451 3.49998 12.902 3.65193 13.271 3.95493L19.953 9.44798C20.373 9.79398 20.5729 10.341 20.4759 10.875ZM13.77 9.49998C13.766 9.49998 13.762 9.49998 13.758 9.49998C12.906 9.49998 12.346 9.92097 12 10.339C11.653 9.92097 11.094 9.49998 10.241 9.49998C10.237 9.49998 10.233 9.49998 10.228 9.49998C9.38202 9.50398 8.67402 9.825 8.18102 10.426C7.58602 11.153 7.363 12.26 7.583 13.389C8.148 16.278 11.645 17.8889 11.793 17.9549C11.858 17.9849 11.929 17.999 11.999 17.999C12.069 17.999 12.1399 17.9839 12.2049 17.9549C12.3529 17.8879 15.85 16.278 16.415 13.389C16.635 12.259 16.412 11.151 15.817 10.425C15.325 9.82403 14.617 9.50398 13.77 9.49998ZM15.4339 13.198C15.0389 15.219 12.712 16.572 12 16.942C11.288 16.571 8.96093 15.219 8.56493 13.197C8.40093 12.357 8.54595 11.558 8.95495 11.06C9.25795 10.691 9.68702 10.503 10.233 10.5C10.236 10.5 10.238 10.5 10.24 10.5C11.173 10.5 11.512 11.44 11.526 11.478C11.593 11.68 11.7829 11.816 11.9969 11.817C11.9979 11.817 11.999 11.817 12.001 11.817C12.213 11.817 12.402 11.6809 12.473 11.4809C12.488 11.4409 12.797 10.489 13.765 10.501C14.313 10.504 14.744 10.692 15.045 11.06C15.452 11.557 15.5989 12.356 15.4339 13.198Z" />
</svg>
