<svg viewBox="0 0 24 24" fill="currentColor" stroke="currentColor" xmlns="http://www.w3.org/2000/svg">
<path d="M20.588 8.676L13.906 3.18296C12.8 2.27396 11.196 2.27496 10.094 3.18296L3.41198 8.676C2.71198 9.252 2.37803 10.163 2.54003 11.055L3.99498 19.037C4.25598 20.463 5.49701 21.499 6.94701 21.499H17.052C18.502 21.499 19.743 20.463 20.004 19.037L21.459 11.0539C21.622 10.1629 21.288 9.252 20.588 8.676ZM20.4759 10.875L19.021 18.858C18.848 19.809 18.02 20.5 17.053 20.5H6.94799C5.98099 20.5 5.15297 19.81 4.97997 18.858L3.52501 10.876C3.42701 10.34 3.62799 9.79298 4.04699 9.44798L10.729 3.95493C11.097 3.65193 11.548 3.49998 12 3.49998C12.451 3.49998 12.902 3.65193 13.271 3.95493L19.953 9.44798C20.373 9.79398 20.5729 10.341 20.4759 10.875ZM14.25 14.613C14.25 15.144 14.045 15.645 13.672 16.022C13.354 16.347 12.942 16.538 12.5 16.589V17C12.5 17.276 12.276 17.5 12 17.5C11.724 17.5 11.5 17.276 11.5 17V16.5899C10.596 16.4849 9.86495 15.769 9.76195 14.832C9.73195 14.558 9.92997 14.311 10.204 14.28C10.47 14.247 10.725 14.447 10.756 14.722C10.812 15.229 11.229 15.6109 11.725 15.6109H12.276C12.533 15.6109 12.776 15.5079 12.961 15.3199C13.149 15.1299 13.251 14.879 13.251 14.612C13.251 14.154 12.946 13.7549 12.511 13.6429L11.244 13.323C10.815 13.213 10.4319 12.959 10.1639 12.609C9.89793 12.268 9.75097 11.832 9.75097 11.385C9.75097 10.361 10.519 9.52401 11.501 9.41001V8.99998C11.501 8.72398 11.725 8.49998 12.001 8.49998C12.277 8.49998 12.501 8.72398 12.501 8.99998V9.41001C13.405 9.51501 14.136 10.2309 14.239 11.1679C14.269 11.4419 14.071 11.6889 13.797 11.7199C13.521 11.7449 13.276 11.5529 13.245 11.2779C13.189 10.7709 12.772 10.389 12.276 10.389H11.725C11.188 10.389 10.75 10.8369 10.75 11.3869C10.75 11.6119 10.8229 11.83 10.9549 12C11.0919 12.179 11.276 12.3009 11.49 12.3559L12.7569 12.676C13.6369 12.902 14.25 13.699 14.25 14.613Z" />
</svg>
