<svg viewBox="0 0 24 24" fill="currentColor" stroke="currentColor" xmlns="http://www.w3.org/2000/svg">
<path d="M20.588 8.67599L13.906 3.18295C12.802 2.27495 11.197 2.27495 10.094 3.18295L3.41198 8.67599C2.71198 9.252 2.37803 10.163 2.54003 11.055L3.99498 19.037C4.25598 20.463 5.49701 21.499 6.94701 21.499H17.052C18.502 21.499 19.743 20.463 20.004 19.037L21.459 11.0539C21.622 10.1629 21.288 9.252 20.588 8.67599ZM20.4759 10.875L19.021 18.858C18.848 19.809 18.02 20.5 17.053 20.5H6.94799C5.98099 20.5 5.15297 19.81 4.97997 18.858L3.52501 10.8759C3.42701 10.3399 3.62799 9.79297 4.04699 9.44797L10.729 3.95493C11.097 3.65193 11.549 3.50095 12 3.50095C12.451 3.50095 12.903 3.65193 13.271 3.95493L19.953 9.44797C20.373 9.79397 20.5729 10.341 20.4759 10.875ZM14.151 14.9439C14.574 14.3749 14.833 13.678 14.833 12.916C14.833 11.032 13.301 9.49899 11.417 9.49899C9.53298 9.49899 7.99999 11.032 7.99999 12.916C7.99999 14.8 9.53298 16.333 11.417 16.333C12.179 16.333 12.875 16.074 13.444 15.651L15.146 17.353C15.244 17.451 15.372 17.499 15.5 17.499C15.628 17.499 15.756 17.45 15.854 17.353C16.049 17.158 16.049 16.841 15.854 16.646L14.151 14.9439ZM8.99999 12.917C8.99999 11.584 10.084 10.5 11.417 10.5C12.749 10.5 13.833 11.584 13.833 12.917C13.833 14.25 12.749 15.334 11.417 15.334C10.084 15.333 8.99999 14.249 8.99999 12.917Z" />
</svg>
