<svg viewBox="0 0 24 24" fill="currentColor" stroke="currentColor" xmlns="http://www.w3.org/2000/svg">
<path d="M21.3171 9.27791L13.9051 3.18294C12.8011 2.27594 11.198 2.27594 10.094 3.18294L2.68206 9.27791C2.46806 9.45291 2.43807 9.76901 2.61407 9.98201C2.78907 10.196 3.10507 10.226 3.31707 10.051L4.50005 9.07796V18C4.50005 20.29 5.71005 21.5 8.00005 21.5H16.0001C18.2901 21.5 19.5001 20.29 19.5001 18V9.07796L20.683 10.051C20.776 10.128 20.8881 10.165 21.0001 10.165C21.1451 10.165 21.287 10.103 21.386 9.98201C21.562 9.76901 21.5311 9.45291 21.3171 9.27791ZM18.5001 18C18.5001 19.729 17.7291 20.5 16.0001 20.5H8.00005C6.27105 20.5 5.50005 19.729 5.50005 18V8.25496L10.7291 3.95491C11.4651 3.35091 12.5341 3.35091 13.2701 3.95491L18.4991 8.25496V18H18.5001ZM12.5001 9.90999C13.4041 10.015 14.1351 10.7309 14.2381 11.6679C14.2681 11.9419 14.0701 12.1889 13.7961 12.2199C13.5201 12.2469 13.2751 12.0519 13.2441 11.7779C13.1881 11.2709 12.7711 10.889 12.2751 10.889H11.7241C11.1871 10.889 10.7491 11.3369 10.7491 11.8869C10.7491 12.1119 10.822 12.33 10.954 12.5C11.091 12.679 11.2751 12.8009 11.4891 12.8559L12.756 13.176C13.636 13.403 14.2491 14.199 14.2491 15.114C14.2491 15.645 14.0441 16.1459 13.6711 16.5229C13.3531 16.8479 12.9411 17.039 12.4991 17.09V17.5009C12.4991 17.7769 12.2751 18.0009 11.9991 18.0009C11.7231 18.0009 11.4991 17.7769 11.4991 17.5009V17.091C10.5951 16.986 9.86404 16.27 9.76104 15.333C9.73104 15.059 9.92906 14.812 10.2031 14.781C10.4691 14.75 10.7241 14.9479 10.7551 15.2229C10.8111 15.7299 11.2281 16.112 11.7241 16.112H12.2751C12.5321 16.112 12.775 16.009 12.96 15.821C13.148 15.631 13.2501 15.38 13.2501 15.113C13.2501 14.655 12.9451 14.256 12.5101 14.144L11.2431 13.8239C10.8141 13.7139 10.431 13.4601 10.163 13.1101C9.89702 12.7691 9.75005 12.3329 9.75005 11.8859C9.75005 10.8619 10.5181 10.025 11.5001 9.91096V9.49898C11.5001 9.22298 11.7241 8.99898 12.0001 8.99898C12.2761 8.99898 12.5001 9.22298 12.5001 9.49898V9.90999Z" />
</svg>
