<svg viewBox="0 0 24 24" fill="currentColor" stroke="currentColor" xmlns="http://www.w3.org/2000/svg">
<path d="M20.588 8.676L13.906 3.18296C12.8 2.27396 11.196 2.27496 10.094 3.18296L3.41198 8.676C2.71198 9.252 2.37803 10.163 2.54003 11.055L3.99498 19.037C4.25598 20.463 5.49701 21.499 6.94701 21.499H17.052C18.502 21.499 19.743 20.463 20.004 19.037L21.459 11.0539C21.622 10.1629 21.288 9.252 20.588 8.676ZM20.4759 10.875L19.021 18.858C18.848 19.809 18.02 20.5 17.053 20.5H6.94799C5.98099 20.5 5.15297 19.81 4.97997 18.858L3.52501 10.876C3.42701 10.34 3.62799 9.79298 4.04699 9.44798L10.729 3.95493C11.097 3.65193 11.548 3.49998 12 3.49998C12.451 3.49998 12.902 3.65193 13.271 3.95493L19.953 9.44798C20.373 9.79398 20.5729 10.341 20.4759 10.875ZM15.916 11.691L13.818 11.401L12.902 9.55796C12.56 8.86996 11.438 8.86996 11.098 9.55796L10.201 11.386L8.08397 11.692C7.71297 11.745 7.41199 12 7.29699 12.355C7.18299 12.709 7.27801 13.09 7.54601 13.349L9.06701 14.802L8.71801 16.8249C8.65201 17.2029 8.804 17.578 9.114 17.805C9.426 18.034 9.83301 18.064 10.176 17.885L11.988 16.928L13.824 17.886C13.972 17.963 14.133 18.001 14.291 18.001C14.5 18.001 14.708 17.935 14.885 17.806C15.196 17.58 15.348 17.205 15.282 16.826L14.9239 14.828L16.454 13.348C16.722 13.089 16.817 12.708 16.703 12.354C16.588 11.999 16.287 11.745 15.916 11.691ZM14.229 14.108C13.999 14.331 13.893 14.6529 13.948 14.9699L14.288 16.9969L12.452 16.0389C12.31 15.9649 12.156 15.9289 12.001 15.9289C11.846 15.9289 11.691 15.9659 11.55 16.0389L9.70495 16.993L10.055 14.969C10.109 14.653 10.0029 14.33 9.77294 14.108L8.22802 12.68L10.344 12.375C10.66 12.33 10.935 12.1319 11.077 11.8459L12.005 9.999C12.005 9.999 12.0059 9.99993 12.0069 10.0019H12.008L12.925 11.8459C13.068 12.1319 13.342 12.329 13.657 12.374L15.76 12.6269L14.229 14.108Z" />
</svg>
