<svg viewBox="0 0 24 24" fill="currentColor" stroke="currentColor" xmlns="http://www.w3.org/2000/svg">
<path d="M20.049 8.33299L13.928 3.20103C12.811 2.26403 11.19 2.26503 10.073 3.20103L3.95203 8.33299C3.02503 9.10199 2.50098 9.63501 2.50098 11.65V18C2.50098 20.29 3.71098 21.5 6.00098 21.5H18.001C20.291 21.5 21.501 20.29 21.501 18V11.65C21.5 9.63601 20.976 9.10299 20.049 8.33299ZM20.5 18C20.5 19.729 19.729 20.5 18 20.5H6C4.271 20.5 3.5 19.729 3.5 18V11.65C3.5 10.007 3.81897 9.74201 4.58997 9.10301L10.715 3.968C11.087 3.656 11.544 3.49998 12 3.49998C12.456 3.49998 12.913 3.656 13.285 3.968L19.41 9.10301C20.181 9.74301 20.5 10.007 20.5 11.65V18ZM16.5 13.5V16C16.5 16.065 16.487 16.13 16.462 16.191C16.411 16.314 16.314 16.411 16.191 16.462C16.13 16.487 16.065 16.501 16 16.501H13.5C13.224 16.501 13 16.277 13 16.001C13 15.725 13.224 15.501 13.5 15.501H14.793L12.808 13.516C12.744 13.453 12.602 13.452 12.537 13.516L11.358 14.6949C10.91 15.1439 10.124 15.1469 9.67297 14.6949L7.646 12.668C7.451 12.473 7.451 12.156 7.646 11.961C7.841 11.766 8.15803 11.766 8.35303 11.961L10.38 13.988C10.48 14.088 10.555 14.083 10.651 13.988L11.83 12.808C12.281 12.358 13.065 12.357 13.515 12.808L15.5 14.793V13.5C15.5 13.224 15.724 13 16 13C16.276 13 16.5 13.224 16.5 13.5Z" />
</svg>
