<svg viewBox="0 0 24 24" fill="currentColor" stroke="currentColor" xmlns="http://www.w3.org/2000/svg">
<path d="M20.049 8.33299L13.928 3.20103C12.811 2.26403 11.19 2.26503 10.073 3.20103L3.95203 8.33299C3.02503 9.10199 2.50098 9.63501 2.50098 11.65V18C2.50098 20.29 3.71098 21.5 6.00098 21.5H18.001C20.291 21.5 21.501 20.29 21.501 18V11.65C21.5 9.63601 20.976 9.10299 20.049 8.33299ZM20.5 18C20.5 19.729 19.729 20.5 18 20.5H6C4.271 20.5 3.5 19.729 3.5 18V11.65C3.5 10.007 3.81897 9.74201 4.58997 9.10301L10.715 3.968C11.087 3.656 11.544 3.49998 12 3.49998C12.456 3.49998 12.913 3.656 13.285 3.968L19.41 9.10301C20.181 9.74301 20.5 10.007 20.5 11.65V18ZM14.25 12.5639V11.25C14.25 10.009 13.24 8.99998 12 8.99998C10.76 8.99998 9.75 10.009 9.75 11.25V12.5639C8.952 12.7449 8.5 13.346 8.5 14.286V16.2149C8.5 17.3499 9.15101 18.001 10.286 18.001H13.714C14.849 18.001 15.5 17.3499 15.5 16.2149V14.286C15.5 13.346 15.048 12.7449 14.25 12.5639ZM12 9.99998C12.689 9.99998 13.25 10.561 13.25 11.25V12.5H10.75V11.25C10.75 10.561 11.311 9.99998 12 9.99998ZM14.5 16.214C14.5 16.794 14.294 17 13.714 17H10.286C9.70601 17 9.5 16.794 9.5 16.214V14.285C9.5 13.705 9.70601 13.499 10.286 13.499H13.714C14.294 13.499 14.5 13.705 14.5 14.285V16.214Z" />
</svg>
