<svg viewBox="0 0 24 24" fill="currentColor" stroke="currentColor" xmlns="http://www.w3.org/2000/svg">
<path d="M20.588 8.676L13.906 3.18296C12.8 2.27396 11.196 2.27496 10.094 3.18296L3.41198 8.676C2.71198 9.252 2.37803 10.163 2.54003 11.055L3.99498 19.037C4.25598 20.463 5.49701 21.499 6.94701 21.499H17.052C18.502 21.499 19.743 20.463 20.004 19.037L21.459 11.0539C21.622 10.1629 21.288 9.252 20.588 8.676ZM20.4759 10.875L19.021 18.858C18.848 19.809 18.02 20.5 17.053 20.5H6.94799C5.98099 20.5 5.15297 19.81 4.97997 18.858L3.52501 10.876C3.42701 10.34 3.62799 9.79298 4.04699 9.44798L10.729 3.95493C11.097 3.65193 11.548 3.49998 12 3.49998C12.451 3.49998 12.902 3.65193 13.271 3.95493L19.953 9.44798C20.373 9.79398 20.5729 10.341 20.4759 10.875ZM12 12.8C13.186 12.8 14.15 11.836 14.15 10.65C14.15 9.464 13.185 8.49998 12 8.49998C10.815 8.49998 9.84997 9.464 9.84997 10.65C9.84997 11.836 10.814 12.8 12 12.8ZM12 9.49998C12.635 9.49998 13.15 10.016 13.15 10.65C13.15 11.284 12.634 11.8 12 11.8C11.366 11.8 10.85 11.284 10.85 10.65C10.85 10.016 11.365 9.49998 12 9.49998ZM15.5 16.697V17C15.5 17.276 15.276 17.5 15 17.5C14.724 17.5 14.5 17.276 14.5 17V16.697C14.5 15.88 13.918 15 12.642 15H11.359C10.083 15 9.50097 15.879 9.50097 16.697V17C9.50097 17.276 9.27697 17.5 9.00097 17.5C8.72497 17.5 8.50097 17.276 8.50097 17V16.697C8.50097 15.357 9.482 14 11.359 14H12.642C14.519 14 15.5 15.356 15.5 16.697Z" />
</svg>
