<svg viewBox="0 0 24 24" fill="currentColor" stroke="currentColor" xmlns="http://www.w3.org/2000/svg">
<path d="M21.3171 9.27791L13.9051 3.18294C12.8011 2.27594 11.198 2.27594 10.094 3.18294L2.68206 9.27791C2.46806 9.45291 2.43807 9.76901 2.61407 9.98201C2.79007 10.196 3.10407 10.226 3.31707 10.051L4.50005 9.07796V18C4.50005 20.29 5.71005 21.5 8.00005 21.5H16.0001C18.2901 21.5 19.5001 20.29 19.5001 18V9.07796L20.683 10.051C20.776 10.128 20.8881 10.165 21.0001 10.165C21.1451 10.165 21.287 10.103 21.386 9.98201C21.562 9.76901 21.5311 9.45291 21.3171 9.27791ZM18.5001 18C18.5001 19.729 17.7291 20.5 16.0001 20.5H8.00005C6.27105 20.5 5.50005 19.729 5.50005 18V8.25496L10.7291 3.95491C11.4651 3.35091 12.5341 3.35091 13.2701 3.95491L18.4991 8.25496V18H18.5001ZM13.2 14.456C13.279 14.456 13.3541 14.4249 13.4111 14.3679L15.6461 12.133C15.8411 11.938 16.1581 11.938 16.3531 12.133C16.5481 12.328 16.5481 12.645 16.3531 12.84L14.1181 15.0749C13.8731 15.3199 13.547 15.455 13.2 15.456C13.2 15.456 13.2 15.456 13.199 15.456C12.852 15.456 12.5271 15.3209 12.2811 15.0759L11.0101 13.8068C10.8961 13.6908 10.7041 13.6888 10.5861 13.8068L8.35406 16.039C8.25606 16.137 8.12805 16.185 8.00005 16.185C7.87205 16.185 7.74405 16.136 7.64605 16.039C7.45105 15.844 7.45105 15.527 7.64605 15.332L9.87811 13.1C10.3861 12.5941 11.21 12.5941 11.716 13.0991L12.9871 14.3679C13.0451 14.4249 13.12 14.456 13.2 14.456C13.199 14.456 13.199 14.456 13.2 14.456Z" />
</svg>
