<svg viewBox="0 0 24 24" fill="currentColor" stroke="currentColor" xmlns="http://www.w3.org/2000/svg">
<path d="M21.3171 9.27791L13.9051 3.18294C12.8011 2.27594 11.198 2.27594 10.094 3.18294L2.68206 9.27791C2.46806 9.45291 2.43807 9.76901 2.61407 9.98201C2.78907 10.196 3.10507 10.226 3.31707 10.051L4.50005 9.07796V18C4.50005 20.29 5.71005 21.5 8.00005 21.5H16.0001C18.2901 21.5 19.5001 20.29 19.5001 18V9.07796L20.683 10.051C20.776 10.128 20.8881 10.165 21.0001 10.165C21.1451 10.165 21.287 10.103 21.386 9.98201C21.562 9.76901 21.5311 9.45291 21.3171 9.27791ZM18.5001 18C18.5001 19.729 17.7291 20.5 16.0001 20.5H8.00005C6.27105 20.5 5.50005 19.729 5.50005 18V8.25496L10.7291 3.95491C11.4651 3.35091 12.5341 3.35091 13.2701 3.95491L18.4991 8.25496V18H18.5001ZM9.75005 11.25V12.5639C8.95205 12.7449 8.50005 13.3458 8.50005 14.2858V16.215C8.50005 17.35 9.15106 18.0009 10.2861 18.0009H13.714C14.849 18.0009 15.5001 17.35 15.5001 16.215V14.2858C15.5001 13.3468 15.0481 12.7449 14.2501 12.5639V11.25C14.2501 10.009 13.2401 8.99995 12.0001 8.99995C10.7601 8.99995 9.75005 10.009 9.75005 11.25ZM14.5001 14.2858V16.215C14.5001 16.795 14.294 17.0009 13.714 17.0009H10.2861C9.70606 17.0009 9.50005 16.795 9.50005 16.215V14.2858C9.50005 13.7058 9.70606 13.5 10.2861 13.5H13.714C14.294 13.5 14.5001 13.7058 14.5001 14.2858ZM13.2501 11.25V12.5H10.7501V11.25C10.7501 10.561 11.3111 9.99995 12.0001 9.99995C12.6891 9.99995 13.2501 10.561 13.2501 11.25Z" />
</svg>
