<svg viewBox="0 0 24 24" fill="currentColor" stroke="currentColor" xmlns="http://www.w3.org/2000/svg">
<path d="M21.3171 9.27791L13.9051 3.18294C12.8011 2.27594 11.198 2.27594 10.094 3.18294L2.68206 9.27791C2.46806 9.45291 2.43807 9.76901 2.61407 9.98201C2.78907 10.196 3.10507 10.226 3.31707 10.051L4.50005 9.07796V18C4.50005 20.29 5.71005 21.5 8.00005 21.5H16.0001C18.2901 21.5 19.5001 20.29 19.5001 18V9.07796L20.683 10.051C20.776 10.128 20.8881 10.165 21.0001 10.165C21.1451 10.165 21.287 10.103 21.386 9.98201C21.562 9.76901 21.5311 9.45291 21.3171 9.27791ZM18.5001 18C18.5001 19.729 17.7291 20.5 16.0001 20.5H8.00005C6.27105 20.5 5.50005 19.729 5.50005 18V8.25496L10.7291 3.95491C11.4651 3.35091 12.5341 3.35091 13.2701 3.95491L18.4991 8.25496V18H18.5001ZM13.5001 11.5H16.0001C16.0651 11.5 16.1301 11.5129 16.1911 11.5389C16.3131 11.5899 16.4111 11.687 16.4621 11.81C16.4871 11.871 16.5001 11.9359 16.5001 12.0009V14.5009C16.5001 14.7769 16.2761 15.0009 16.0001 15.0009C15.7241 15.0009 15.5001 14.7769 15.5001 14.5009V13.208L13.5151 15.1931C13.0661 15.6431 12.282 15.6431 11.83 15.1931L10.6511 14.0129C10.5551 13.9169 10.4801 13.9139 10.3801 14.0129L8.35308 16.041C8.25508 16.139 8.12708 16.187 7.99908 16.187C7.87108 16.187 7.74307 16.138 7.64507 16.041C7.45007 15.846 7.45007 15.5289 7.64507 15.3339L9.67205 13.3068C10.1231 12.8558 10.9081 12.8568 11.3571 13.3068L12.5361 14.486C12.6001 14.549 12.7421 14.55 12.8071 14.486L14.792 12.5009H13.4991C13.2231 12.5009 12.9991 12.2769 12.9991 12.0009C12.9991 11.7249 13.2241 11.5 13.5001 11.5Z" />
</svg>
