<svg viewBox="0 0 24 24" fill="currentColor" stroke="currentColor" xmlns="http://www.w3.org/2000/svg">
<path d="M20.049 8.33299L13.928 3.20103C12.811 2.26403 11.19 2.26503 10.073 3.20103L3.95203 8.33299C3.02503 9.10199 2.50098 9.63501 2.50098 11.65V18C2.50098 20.29 3.71098 21.5 6.00098 21.5H18.001C20.291 21.5 21.501 20.29 21.501 18V11.65C21.5 9.63601 20.976 9.10299 20.049 8.33299ZM20.5 18C20.5 19.729 19.729 20.5 18 20.5H6C4.271 20.5 3.5 19.729 3.5 18V11.65C3.5 10.007 3.81897 9.74201 4.58997 9.10301L10.715 3.968C11.087 3.656 11.544 3.49998 12 3.49998C12.456 3.49998 12.913 3.656 13.285 3.968L19.41 9.10301C20.181 9.74301 20.5 10.007 20.5 11.65V18ZM15.916 11.691L13.818 11.401L12.901 9.55699C12.559 8.86899 11.438 8.86899 11.098 9.55699L10.201 11.385L8.08398 11.691C7.71298 11.744 7.412 11.999 7.297 12.354C7.183 12.708 7.27802 13.089 7.54602 13.348L9.06702 14.801L8.71802 16.824C8.65202 17.202 8.80401 17.5769 9.11401 17.8039C9.42601 18.0329 9.83303 18.063 10.176 17.884L11.988 16.927L13.824 17.885C13.972 17.962 14.133 18 14.291 18C14.5 18 14.708 17.934 14.885 17.805C15.196 17.579 15.348 17.2039 15.282 16.8249L14.924 14.827L16.454 13.347C16.722 13.088 16.817 12.707 16.703 12.353C16.588 11.999 16.287 11.745 15.916 11.691ZM14.229 14.108C13.999 14.331 13.893 14.653 13.948 14.97L14.288 16.9969L12.453 16.04C12.311 15.966 12.156 15.9289 12.001 15.9289C11.846 15.9289 11.69 15.966 11.55 16.04L9.70496 16.994L10.0551 14.97C10.1091 14.654 10.0029 14.331 9.77295 14.109L8.22803 12.681L10.344 12.376C10.66 12.331 10.935 12.133 11.077 11.847L12.005 9.99901C12.005 9.99901 12.006 9.99994 12.007 10.0019C12.007 10.0019 12.0071 10.0019 12.0081 10.0019L12.925 11.847C13.068 12.133 13.342 12.33 13.657 12.375L15.76 12.628L14.229 14.108Z" />
</svg>
