<svg viewBox="0 0 24 24" fill="currentColor" stroke="currentColor" xmlns="http://www.w3.org/2000/svg">
<path d="M20.588 8.67599L13.906 3.18295C12.802 2.27495 11.197 2.27495 10.094 3.18295L3.41198 8.67599C2.71198 9.252 2.37803 10.163 2.54003 11.055L3.99498 19.037C4.25598 20.463 5.49701 21.499 6.94701 21.499H17.052C18.502 21.499 19.743 20.463 20.004 19.037L21.459 11.0539C21.622 10.1629 21.288 9.252 20.588 8.67599ZM20.4759 10.875L19.021 18.858C18.848 19.809 18.02 20.5 17.053 20.5H6.94799C5.98099 20.5 5.15297 19.81 4.97997 18.858L3.52501 10.8759C3.42701 10.3399 3.62799 9.79297 4.04699 9.44797L10.729 3.95493C11.097 3.65193 11.549 3.50095 12 3.50095C12.451 3.50095 12.903 3.65193 13.271 3.95493L19.953 9.44797C20.373 9.79397 20.5729 10.341 20.4759 10.875ZM14.5 17C14.5 17.276 14.276 17.5 14 17.5H9.99999C9.72399 17.5 9.49999 17.276 9.49999 17C9.49999 16.724 9.72399 16.5 9.99999 16.5H14C14.276 16.5 14.5 16.724 14.5 17Z" />
</svg>
