<svg viewBox="0 0 24 24" fill="currentColor" stroke="currentColor" xmlns="http://www.w3.org/2000/svg">
<path d="M21.3171 9.27791L13.9051 3.18294C12.8011 2.27594 11.198 2.27594 10.094 3.18294L2.68206 9.27791C2.46806 9.45291 2.43807 9.76901 2.61407 9.98201C2.78907 10.196 3.10507 10.226 3.31707 10.051L4.50005 9.07796V18C4.50005 20.29 5.71005 21.5 8.00005 21.5H16.0001C18.2901 21.5 19.5001 20.29 19.5001 18V9.07796L20.683 10.051C20.776 10.128 20.8881 10.165 21.0001 10.165C21.1451 10.165 21.287 10.103 21.386 9.98201C21.562 9.76901 21.5311 9.45291 21.3171 9.27791ZM14.0001 20.5H10.0001V16.5C10.0001 15.397 10.8971 14.5 12.0001 14.5C13.1031 14.5 14.0001 15.397 14.0001 16.5V20.5ZM18.5001 18C18.5001 19.729 17.7291 20.5 16.0001 20.5H15.0001V16.5C15.0001 14.846 13.6541 13.5 12.0001 13.5C10.3461 13.5 9.00005 14.846 9.00005 16.5V20.5H8.00005C6.27105 20.5 5.50005 19.729 5.50005 18V8.25496L10.7291 3.95491C11.4651 3.35091 12.5341 3.35091 13.2701 3.95491L18.4991 8.25496V18H18.5001Z" />
</svg>
