<svg viewBox="0 0 24 24" fill="currentColor" stroke="currentColor" xmlns="http://www.w3.org/2000/svg">
<path d="M20.049 8.33299L13.928 3.20103C12.811 2.26403 11.19 2.26503 10.073 3.20103L3.95203 8.33299C3.02503 9.10199 2.50098 9.63501 2.50098 11.65V18C2.50098 20.29 3.71098 21.5 6.00098 21.5H18.001C20.291 21.5 21.501 20.29 21.501 18V11.65C21.5 9.63601 20.976 9.10299 20.049 8.33299ZM20.5 18C20.5 19.729 19.729 20.5 18 20.5H6C4.271 20.5 3.5 19.729 3.5 18V11.65C3.5 10.007 3.81897 9.74201 4.58997 9.10301L10.715 3.968C11.087 3.656 11.544 3.49998 12 3.49998C12.456 3.49998 12.913 3.656 13.285 3.968L19.41 9.10301C20.181 9.74301 20.5 10.007 20.5 11.65V18ZM16.462 12.123C16.487 12.184 16.5 12.2489 16.5 12.3139V14.8139C16.5 15.0899 16.276 15.3139 16 15.3139C15.724 15.3139 15.5 15.0899 15.5 14.8139V13.521L13.515 15.506C13.066 15.956 12.282 15.956 11.83 15.506L10.651 14.326C10.555 14.23 10.48 14.227 10.38 14.326L8.35303 16.354C8.25503 16.452 8.12702 16.5 7.99902 16.5C7.87102 16.5 7.74302 16.451 7.64502 16.354C7.45002 16.159 7.45002 15.842 7.64502 15.647L9.672 13.62C10.123 13.169 10.9081 13.17 11.3571 13.62L12.536 14.7989C12.6 14.8619 12.742 14.8629 12.807 14.7989L14.792 12.8139H13.499C13.223 12.8139 12.999 12.5899 12.999 12.3139C12.999 12.0379 13.223 11.8139 13.499 11.8139H15.999C16.064 11.8139 16.1289 11.827 16.1899 11.853C16.3129 11.903 16.411 12 16.462 12.123Z" />
</svg>
