<svg viewBox="0 0 24 24" fill="currentColor" stroke="currentColor" xmlns="http://www.w3.org/2000/svg">
<path d="M20.588 8.676L13.906 3.18296C12.8 2.27396 11.196 2.27496 10.094 3.18296L3.41198 8.676C2.71198 9.252 2.37803 10.163 2.54003 11.055L3.99498 19.037C4.25598 20.463 5.49701 21.499 6.94701 21.499H17.052C18.502 21.499 19.743 20.463 20.004 19.037L21.459 11.0539C21.622 10.1629 21.288 9.252 20.588 8.676ZM20.4759 10.875L19.021 18.858C18.848 19.809 18.02 20.5 17.053 20.5H6.94799C5.98099 20.5 5.15297 19.81 4.97997 18.858L3.52501 10.876C3.42701 10.34 3.62799 9.79298 4.04699 9.44798L10.729 3.95493C11.097 3.65193 11.548 3.49998 12 3.49998C12.451 3.49998 12.902 3.65193 13.271 3.95493L19.953 9.44798C20.373 9.79398 20.5729 10.341 20.4759 10.875ZM16.462 11.141C16.487 11.202 16.5 11.267 16.5 11.332V13.832C16.5 14.108 16.276 14.332 16 14.332C15.724 14.332 15.5 14.108 15.5 13.832V12.5389L13.515 14.524C13.066 14.974 12.2819 14.974 11.8299 14.524L10.651 13.3449C10.555 13.249 10.48 13.2459 10.38 13.3449L8.35302 15.373C8.25502 15.471 8.12701 15.519 7.99901 15.519C7.87101 15.519 7.74301 15.47 7.64501 15.373C7.45001 15.178 7.45001 14.861 7.64501 14.666L9.67199 12.639C10.123 12.188 10.908 12.189 11.357 12.639L12.536 13.817C12.6 13.88 12.742 13.881 12.807 13.817L14.792 11.832H13.499C13.223 11.832 12.999 11.608 12.999 11.332C12.999 11.056 13.223 10.832 13.499 10.832H15.999C16.064 10.832 16.1289 10.845 16.1899 10.871C16.3129 10.921 16.411 11.018 16.462 11.141Z" />
</svg>
