<svg viewBox="0 0 24 24" fill="currentColor" stroke="currentColor" xmlns="http://www.w3.org/2000/svg">
<path d="M20.588 8.676L13.906 3.18296C12.8 2.27396 11.196 2.27496 10.094 3.18296L3.41198 8.676C2.71198 9.252 2.37803 10.163 2.54003 11.055L3.99498 19.037C4.25598 20.463 5.49701 21.499 6.94701 21.499H17.052C18.502 21.499 19.743 20.463 20.004 19.037L21.459 11.0539C21.622 10.1629 21.288 9.252 20.588 8.676ZM20.4759 10.875L19.021 18.858C18.848 19.809 18.02 20.5 17.053 20.5H6.94799C5.98099 20.5 5.15297 19.81 4.97997 18.858L3.52501 10.876C3.42701 10.34 3.62799 9.79298 4.04699 9.44798L10.729 3.95493C11.097 3.65193 11.548 3.49998 12 3.49998C12.451 3.49998 12.902 3.65193 13.271 3.95493L19.953 9.44798C20.373 9.79398 20.5729 10.341 20.4759 10.875ZM16.354 11.4649C16.549 11.6599 16.549 11.977 16.354 12.172L14.119 14.407C13.875 14.652 13.549 14.7879 13.201 14.7879C12.854 14.7879 12.528 14.6529 12.282 14.4079L11.011 13.14C10.895 13.024 10.705 13.022 10.587 13.14L8.35497 15.3719C8.25697 15.4699 8.12897 15.5179 8.00097 15.5179C7.87297 15.5179 7.74496 15.4689 7.64696 15.3719C7.45196 15.1769 7.45196 14.86 7.64696 14.665L9.87902 12.433C10.385 11.926 11.209 11.926 11.717 12.432L12.988 13.6999C13.1 13.8119 13.298 13.8129 13.41 13.6999L15.646 11.4649C15.842 11.2699 16.158 11.2699 16.354 11.4649Z" />
</svg>
