<svg viewBox="0 0 24 24" fill="currentColor" stroke="currentColor" xmlns="http://www.w3.org/2000/svg">
<path d="M21.3171 9.27791L13.9051 3.18294C12.8011 2.27594 11.198 2.27594 10.094 3.18294L2.68206 9.27791C2.46806 9.45291 2.43807 9.76901 2.61407 9.98201C2.78907 10.196 3.10507 10.226 3.31707 10.051L4.50005 9.07796V18C4.50005 20.29 5.71005 21.5 8.00005 21.5H16.0001C18.2901 21.5 19.5001 20.29 19.5001 18V9.07796L20.683 10.051C20.776 10.128 20.8881 10.165 21.0001 10.165C21.1451 10.165 21.287 10.103 21.386 9.98201C21.562 9.76901 21.5311 9.45291 21.3171 9.27791ZM18.5001 18C18.5001 19.729 17.7291 20.5 16.0001 20.5H8.00005C6.27105 20.5 5.50005 19.729 5.50005 18V8.25496L10.7291 3.95491C11.4651 3.35091 12.5341 3.35091 13.2701 3.95491L18.4991 8.25496V18H18.5001ZM12.0001 10.8389C11.6531 10.4209 11.094 9.99995 10.241 9.99995C10.237 9.99995 10.2331 9.99995 10.2281 9.99995C9.38208 10.004 8.67408 10.325 8.18108 10.926C7.58608 11.653 7.36306 12.7599 7.58306 13.8889C8.14806 16.7779 11.645 18.389 11.793 18.455C11.858 18.485 11.9291 18.499 11.9991 18.499C12.0691 18.499 12.14 18.484 12.205 18.455C12.353 18.388 15.8501 16.7779 16.4151 13.8889C16.6351 12.7589 16.4121 11.651 15.8171 10.925C15.3241 10.324 14.616 10.004 13.768 9.99995C13.764 9.99995 13.76 9.99995 13.756 9.99995C12.906 9.99995 12.3461 10.4209 12.0001 10.8389ZM13.7651 11C14.3131 11.003 14.7441 11.1909 15.0451 11.5589C15.4521 12.0569 15.599 12.856 15.434 13.698C15.039 15.719 12.7121 17.0718 12.0001 17.4418C11.2881 17.0708 8.961 15.719 8.565 13.697C8.401 12.857 8.54601 12.058 8.95501 11.56C9.25801 11.191 9.68709 11.003 10.2331 11C10.2361 11 10.238 11 10.24 11C11.173 11 11.5121 11.94 11.5261 11.978C11.5931 12.18 11.783 12.3158 11.997 12.3168C11.998 12.3168 11.999 12.3168 12.001 12.3168C12.213 12.3168 12.4021 12.1809 12.4731 11.9809C12.4871 11.9399 12.7971 10.971 13.7651 11Z" />
</svg>
