<svg viewBox="0 0 24 24" fill="currentColor" stroke="currentColor" xmlns="http://www.w3.org/2000/svg">
<path d="M20.049 8.33299L13.928 3.20103C12.811 2.26403 11.19 2.26503 10.073 3.20103L3.95203 8.33299C3.02503 9.10199 2.50098 9.63501 2.50098 11.65V18C2.50098 20.29 3.71098 21.5 6.00098 21.5H18.001C20.291 21.5 21.501 20.29 21.501 18V11.65C21.5 9.63601 20.976 9.10299 20.049 8.33299ZM20.5 18C20.5 19.729 19.729 20.5 18 20.5H6C4.271 20.5 3.5 19.729 3.5 18V11.65C3.5 10.007 3.81897 9.74201 4.58997 9.10301L10.715 3.968C11.087 3.656 11.544 3.49998 12 3.49998C12.456 3.49998 12.913 3.656 13.285 3.968L19.41 9.10301C20.181 9.74301 20.5 10.007 20.5 11.65V18ZM15.623 10.291C13.839 9.838 13.002 9.44804 12.234 9.05504C12.091 8.98204 11.922 8.98094 11.782 9.05394C11.009 9.44294 10.1661 9.83601 8.36206 10.353C8.14706 10.415 8 10.61 8 10.833V13.055C8 15.722 9.98297 17.345 11.84 17.973C11.892 17.991 11.946 17.999 12 17.999C12.054 17.999 12.108 17.99 12.16 17.973C14.016 17.345 16 15.723 16 13.055V10.775C16 10.547 15.845 10.347 15.623 10.291ZM15 13.056C15 15.601 12.764 16.676 12 16.969C11.236 16.677 9 15.601 9 13.056V11.208C10.356 10.804 11.177 10.4659 12.005 10.0589C12.834 10.4709 13.653 10.801 15 11.162V13.056Z" />
</svg>
