<svg viewBox="0 0 24 24" fill="currentColor" stroke="currentColor" xmlns="http://www.w3.org/2000/svg">
<path d="M20.049 8.33299L13.928 3.20103C12.811 2.26403 11.19 2.26503 10.073 3.20103L3.95203 8.33299C3.02503 9.10199 2.50098 9.63501 2.50098 11.65V18C2.50098 20.29 3.71098 21.5 6.00098 21.5H18.001C20.291 21.5 21.501 20.29 21.501 18V11.65C21.5 9.63601 20.976 9.10299 20.049 8.33299ZM20.5 18C20.5 19.729 19.729 20.5 18 20.5H6C4.271 20.5 3.5 19.729 3.5 18V11.65C3.5 10.007 3.81897 9.74201 4.58997 9.10301L10.715 3.968C11.087 3.656 11.544 3.49998 12 3.49998C12.456 3.49998 12.913 3.656 13.285 3.968L19.41 9.10301C20.181 9.74301 20.5 10.007 20.5 11.65V18ZM14.151 14.944C14.574 14.375 14.833 13.678 14.833 12.916C14.833 11.032 13.301 9.49901 11.417 9.49901C9.53299 9.49901 8 11.032 8 12.916C8 14.8 9.53299 16.333 11.417 16.333C12.179 16.333 12.875 16.074 13.444 15.651L15.146 17.353C15.244 17.451 15.372 17.499 15.5 17.499C15.628 17.499 15.756 17.45 15.854 17.353C16.049 17.158 16.049 16.841 15.854 16.646L14.151 14.944ZM9 12.917C9 11.584 10.084 10.5 11.417 10.5C12.749 10.5 13.833 11.584 13.833 12.917C13.833 14.25 12.749 15.334 11.417 15.334C10.084 15.333 9 14.249 9 12.917Z" />
</svg>
