<svg viewBox="0 0 24 24" fill="currentColor" stroke="currentColor" xmlns="http://www.w3.org/2000/svg">
<path d="M20.588 8.676L13.906 3.18296C12.8 2.27396 11.196 2.27496 10.094 3.18296L3.41198 8.676C2.71198 9.252 2.37803 10.163 2.54003 11.055L3.99498 19.037C4.25598 20.463 5.49701 21.499 6.94701 21.499H17.052C18.502 21.499 19.743 20.463 20.004 19.037L21.459 11.0539C21.622 10.1629 21.288 9.252 20.588 8.676ZM20.4759 10.875L19.021 18.858C18.848 19.809 18.02 20.5 17.053 20.5H6.94799C5.98099 20.5 5.15297 19.81 4.97997 18.858L3.52501 10.876C3.42701 10.34 3.62799 9.79298 4.04699 9.44798L10.729 3.95493C11.097 3.65193 11.548 3.49998 12 3.49998C12.451 3.49998 12.902 3.65193 13.271 3.95493L19.953 9.44798C20.373 9.79398 20.5729 10.341 20.4759 10.875ZM15.623 10.291C13.839 9.83799 13.002 9.44803 12.234 9.05503C12.091 8.98203 11.922 8.98093 11.782 9.05393C11.009 9.44293 10.166 9.83601 8.36205 10.353C8.14705 10.415 7.99999 10.61 7.99999 10.833V13.055C7.99999 15.722 9.98296 17.345 11.84 17.973C11.892 17.991 11.946 17.999 12 17.999C12.054 17.999 12.108 17.99 12.16 17.973C14.016 17.345 16 15.723 16 13.055V10.775C16 10.547 15.845 10.347 15.623 10.291ZM15 13.056C15 15.601 12.764 16.676 12 16.969C11.236 16.677 8.99999 15.601 8.99999 13.056V11.208C10.356 10.804 11.177 10.4659 12.005 10.0589C12.834 10.4709 13.653 10.801 15 11.162V13.056Z" />
</svg>
