<svg viewBox="0 0 24 24" fill="currentColor" stroke="currentColor" xmlns="http://www.w3.org/2000/svg">
<path d="M20.049 8.33299L13.928 3.20103C12.811 2.26403 11.19 2.26503 10.073 3.20103L3.95203 8.33299C3.02503 9.10199 2.50098 9.63501 2.50098 11.65V18C2.50098 20.29 3.71098 21.5 6.00098 21.5H18.001C20.291 21.5 21.501 20.29 21.501 18V11.65C21.5 9.63601 20.976 9.10299 20.049 8.33299ZM20.5 18C20.5 19.729 19.729 20.5 18 20.5H6C4.271 20.5 3.5 19.729 3.5 18V11.65C3.5 10.007 3.81897 9.74201 4.58997 9.10301L10.715 3.968C11.087 3.656 11.544 3.49998 12 3.49998C12.456 3.49998 12.913 3.656 13.285 3.968L19.41 9.10301C20.181 9.74301 20.5 10.007 20.5 11.65V18ZM13.77 9.49998C13.766 9.49998 13.7621 9.49998 13.7581 9.49998C12.9061 9.49998 12.346 9.92097 12 10.339C11.653 9.92097 11.094 9.49998 10.241 9.49998C10.237 9.49998 10.233 9.49998 10.229 9.49998C9.382 9.50398 8.67401 9.82401 8.18201 10.426C7.58601 11.153 7.36301 12.26 7.58301 13.389C8.14801 16.278 11.645 17.8889 11.793 17.9549C11.858 17.9849 11.929 17.999 11.999 17.999C12.069 17.999 12.14 17.9839 12.205 17.9549C12.353 17.8879 15.85 16.278 16.415 13.389C16.635 12.259 16.412 11.151 15.817 10.425C15.325 9.82403 14.617 9.50398 13.77 9.49998ZM15.434 13.198C15.039 15.219 12.712 16.572 12 16.942C11.288 16.571 8.96094 15.219 8.56494 13.197C8.40094 12.357 8.54605 11.5579 8.95605 11.0589C9.25805 10.6899 9.68703 10.502 10.233 10.499C10.236 10.499 10.238 10.499 10.24 10.499C11.173 10.499 11.512 11.439 11.526 11.477C11.593 11.679 11.7829 11.815 11.9969 11.816C11.9979 11.816 11.999 11.816 12.001 11.816C12.213 11.816 12.402 11.68 12.473 11.48C12.488 11.44 12.797 10.472 13.765 10.5C14.313 10.503 14.744 10.6909 15.045 11.0589C15.452 11.5569 15.599 12.356 15.434 13.198Z" />
</svg>
