<svg viewBox="0 0 24 24" fill="currentColor" stroke="currentColor" xmlns="http://www.w3.org/2000/svg">
<path d="M21.3171 9.27791L13.9051 3.18294C12.8011 2.27594 11.198 2.27594 10.094 3.18294L2.68206 9.27791C2.46806 9.45291 2.43807 9.76901 2.61407 9.98201C2.79007 10.196 3.10507 10.226 3.31707 10.051L4.50005 9.07796V18C4.50005 20.29 5.71005 21.5 8.00005 21.5H16.0001C18.2901 21.5 19.5001 20.29 19.5001 18V9.07796L20.683 10.051C20.776 10.128 20.8881 10.165 21.0001 10.165C21.1451 10.165 21.287 10.103 21.386 9.98201C21.562 9.76901 21.5311 9.45291 21.3171 9.27791ZM18.5001 18C18.5001 19.729 17.7291 20.5 16.0001 20.5H8.00005C6.27105 20.5 5.50005 19.729 5.50005 18V8.25496L10.7291 3.95491C11.4651 3.35091 12.5341 3.35091 13.2701 3.95491L18.4991 8.25496V18H18.5001ZM9.85003 11.15C9.85003 12.336 10.8151 13.3 12.0001 13.3C13.1851 13.3 14.1501 12.336 14.1501 11.15C14.1501 9.96398 13.1851 8.99995 12.0001 8.99995C10.8151 8.99995 9.85003 9.96398 9.85003 11.15ZM13.1501 11.15C13.1501 11.784 12.6341 12.3 12.0001 12.3C11.3661 12.3 10.85 11.784 10.85 11.15C10.85 10.516 11.3661 9.99995 12.0001 9.99995C12.6341 9.99995 13.1501 10.516 13.1501 11.15ZM12.642 14.5C14.519 14.5 15.5001 15.856 15.5001 17.197V17.5C15.5001 17.776 15.2761 18 15.0001 18C14.7241 18 14.5001 17.776 14.5001 17.5V17.197C14.5001 16.38 13.918 15.5 12.642 15.5H11.3591C10.0831 15.5 9.50103 16.379 9.50103 17.197V17.5C9.50103 17.776 9.27703 18 9.00103 18C8.72503 18 8.50103 17.776 8.50103 17.5V17.197C8.50103 15.857 9.48206 14.5 11.3591 14.5H12.642Z" />
</svg>
