<svg viewBox="0 0 24 24" fill="currentColor" stroke="currentColor" xmlns="http://www.w3.org/2000/svg">
<path d="M10 11V7C10 6.724 10.224 6.5 10.5 6.5C10.776 6.5 11 6.724 11 7V8.5H13V7C13 6.724 13.224 6.5 13.5 6.5C13.776 6.5 14 6.724 14 7V11C14 11.276 13.776 11.5 13.5 11.5C13.224 11.5 13 11.276 13 11V9.5H11V11C11 11.276 10.776 11.5 10.5 11.5C10.224 11.5 10 11.276 10 11ZM22.5 21C22.5 21.276 22.276 21.5 22 21.5H2C1.724 21.5 1.5 21.276 1.5 21C1.5 20.724 1.724 20.5 2 20.5H2.5V11C2.5 9.388 3.388 8.5 5 8.5H5.5V6C5.5 3.71 6.71 2.5 9 2.5H15C17.29 2.5 18.5 3.71 18.5 6V8.5H19C20.612 8.5 21.5 9.388 21.5 11V20.5H22C22.276 20.5 22.5 20.724 22.5 21ZM6.5 20.5H9.5V17C9.5 15.622 10.621 14.5 12 14.5C13.379 14.5 14.5 15.622 14.5 17V20.5H17.5V6C17.5 4.271 16.729 3.5 15 3.5H9C7.271 3.5 6.5 4.271 6.5 6V20.5ZM13.5 17C13.5 16.173 12.827 15.5 12 15.5C11.173 15.5 10.5 16.173 10.5 17V20.5H13.5V17ZM3.5 20.5H5.5V9.5H5C3.948 9.5 3.5 9.949 3.5 11V20.5ZM20.5 20.5V11C20.5 9.949 20.052 9.5 19 9.5H18.5V20.5H20.5Z" />
</svg>
