<svg viewBox="0 0 24 24" fill="currentColor" stroke="currentColor" xmlns="http://www.w3.org/2000/svg">
<path d="M21.5 13.7982V7.33408C21.5 6.25608 20.813 5.30301 19.791 4.96201L12.791 2.62802C12.273 2.45602 11.727 2.45602 11.209 2.62802L4.20898 4.96103C3.18698 5.30103 2.5 6.2541 2.5 7.3331V13.796C2.5 13.799 2.5 13.803 2.5 13.806V16.6671C2.5 17.7451 3.18698 18.6982 4.20898 19.0392L11.209 21.3731C11.468 21.4591 11.734 21.502 12 21.502C12.266 21.502 12.532 21.4591 12.791 21.3731L19.791 19.0401C20.813 18.7001 21.5 17.7471 21.5 16.6681V13.8092C21.5 13.8042 21.5 13.8012 21.5 13.7982ZM4.52502 5.91001L11.525 3.577C11.68 3.525 11.839 3.49912 12 3.49912C12.161 3.49912 12.319 3.52502 12.475 3.57602L19.475 5.91001C20.088 6.11401 20.5 6.6861 20.5 7.3331V9.69809L12.791 7.12802C12.273 6.95602 11.727 6.95602 11.209 7.12802L3.5 9.69809V7.3331C3.5 6.6871 3.91202 6.11501 4.52502 5.91001ZM19.475 18.0902L12.475 20.4232C12.164 20.5272 11.836 20.5262 11.526 20.4232L4.526 18.0892C3.913 17.8852 3.50098 17.3131 3.50098 16.6661V14.1961L4.97998 13.7C5.25098 13.61 5.39005 13.3302 5.30005 13.0702C5.22005 12.8102 4.93004 12.6601 4.67004 12.7501L3.5 13.14V10.752L11.525 8.077C11.836 7.973 12.164 7.974 12.474 8.077L20.499 10.752V13.1412L19.259 12.7301C18.999 12.6401 18.709 12.7901 18.629 13.0501C18.589 13.1801 18.5991 13.31 18.6591 13.43C18.7191 13.55 18.818 13.64 18.938 13.68L20.499 14.1981V16.6671C20.5 17.3131 20.088 17.8852 19.475 18.0902ZM14.8 11.4C14.86 11.52 14.87 11.6501 14.83 11.7801C14.75 12.0401 14.46 12.1902 14.2 12.1002L12.47 11.5201C12.2 11.4301 11.89 11.4201 11.6 11.5001C11.59 11.5001 11.5799 11.5001 11.5699 11.5101C11.5599 11.5101 11.541 11.5201 11.531 11.5201L9.72998 12.1202C9.67998 12.1402 9.62995 12.15 9.56995 12.15C9.34995 12.15 9.16098 12.0102 9.09998 11.8102C9.00998 11.5402 9.15001 11.26 9.41101 11.17L11.2111 10.5702C11.2411 10.5602 11.271 10.5601 11.301 10.5501L11.3409 10.5401C11.8009 10.4101 12.32 10.4202 12.791 10.5702L14.511 11.15H14.521C14.64 11.19 14.74 11.28 14.8 11.4ZM7.224 12.5902C7.224 12.8662 7 13.0902 6.724 13.0902C6.448 13.0902 6.224 12.8662 6.224 12.5902C6.224 12.3142 6.448 12.0902 6.724 12.0902C7 12.0902 7.224 12.3142 7.224 12.5902ZM16.757 12.254C16.757 12.53 16.533 12.754 16.257 12.754C15.981 12.754 15.757 12.53 15.757 12.254C15.757 11.978 15.981 11.754 16.257 11.754C16.533 11.754 16.757 11.978 16.757 12.254Z" />
</svg>
