<svg viewBox="0 0 24 24" fill="currentColor" stroke="currentColor" xmlns="http://www.w3.org/2000/svg">
<path d="M10.2679 4.45288C10.2179 4.09188 10.293 3.71001 10.489 3.36401C10.819 2.82501 11.404 2.5 12.025 2.5C12.301 2.5 12.525 2.724 12.525 3C12.525 3.276 12.301 3.5 12.025 3.5C11.75 3.5 11.491 3.64209 11.35 3.87109C11.272 4.01109 11.239 4.17105 11.26 4.33105C11.297 4.68005 11.5621 4.94612 11.9041 4.99512C12.2491 5.04212 12.582 4.86301 12.719 4.56201C12.836 4.31001 13.133 4.20094 13.382 4.31494C13.633 4.42994 13.743 4.72703 13.629 4.97803C13.342 5.60403 12.697 6.00195 12.007 6.00195C11.928 6.00195 11.8479 5.99708 11.7679 5.98608C10.9669 5.87308 10.3519 5.24288 10.2679 4.45288ZM19.5 19.5V20.5C19.5 21.051 19.052 21.5 18.5 21.5H5.5C4.948 21.5 4.5 21.051 4.5 20.5V19.5C4.5 18.333 5.119 17.631 6.203 17.522C5.31 16.772 4.5 15.616 4.5 14C4.5 11.453 6.60799 10.5049 8.46899 9.66992C9.84899 9.04992 11.152 8.46506 11.526 7.34106C11.663 6.93306 12.338 6.93306 12.475 7.34106C12.849 8.46506 14.152 9.04992 15.532 9.66992C17.392 10.5049 19.501 11.452 19.501 14C19.501 15.616 18.691 16.773 17.798 17.522C18.881 17.631 19.5 18.333 19.5 19.5ZM8.08899 17.5H15.91C16.329 17.34 18.499 16.395 18.499 14C18.499 12.1 16.934 11.396 15.12 10.583C13.935 10.051 12.719 9.50393 11.999 8.55493C11.279 9.50493 10.0621 10.051 8.87805 10.583C7.06505 11.397 5.49902 12.1 5.49902 14C5.50002 16.395 7.67099 17.34 8.08899 17.5ZM18.5 19.5C18.5 18.78 18.22 18.5 17.5 18.5H6.5C5.78 18.5 5.5 18.78 5.5 19.5V20.5H18.5V19.5Z" />
</svg>
