<svg viewBox="0 0 24 24" fill="currentColor" stroke="currentColor" xmlns="http://www.w3.org/2000/svg">
<path d="M12 5.99995C10.07 5.99995 8.5 7.56995 8.5 9.49995C8.5 11.4299 10.07 12.9999 12 12.9999C13.93 12.9999 15.5 11.4299 15.5 9.49995C15.5 7.56995 13.93 5.99995 12 5.99995ZM12 11.9999C10.621 11.9999 9.5 10.8779 9.5 9.49995C9.5 8.12195 10.621 6.99995 12 6.99995C13.379 6.99995 14.5 8.12195 14.5 9.49995C14.5 10.8779 13.379 11.9999 12 11.9999ZM12.5 8.37495V9.49995C12.5 9.77595 12.276 9.99995 12 9.99995C11.724 9.99995 11.5 9.77595 11.5 9.49995V8.37495C11.5 8.09895 11.724 7.87495 12 7.87495C12.276 7.87495 12.5 8.09895 12.5 8.37495ZM22 21.4999H21.5V13.4999C21.5 12.3969 20.603 11.4999 19.5 11.4999H18.5V6.60591L19.724 7.41694C19.809 7.47294 19.905 7.49995 20 7.49995C20.162 7.49995 20.32 7.42083 20.417 7.27583C20.569 7.04583 20.506 6.73596 20.276 6.58296L13.109 1.83589C12.435 1.38589 11.565 1.38791 10.891 1.83491L3.72302 6.58296C3.49402 6.73596 3.43003 7.04583 3.58203 7.27583C3.73603 7.50683 4.04702 7.56794 4.27502 7.41694L5.49902 6.60591V11.4999H4.49902C3.39602 11.4999 2.49902 12.3969 2.49902 13.4999V21.4999H1.99902C1.72302 21.4999 1.49902 21.7239 1.49902 21.9999C1.49902 22.2759 1.72302 22.4999 1.99902 22.4999H21.999C22.275 22.4999 22.499 22.2759 22.499 21.9999C22.499 21.7239 22.276 21.4999 22 21.4999ZM10.5 21.4999V17.9999C10.5 17.1729 11.173 16.4999 12 16.4999C12.827 16.4999 13.5 17.1729 13.5 17.9999V21.4999H10.5ZM14.5 21.4999V17.9999C14.5 16.6219 13.379 15.4999 12 15.4999C10.621 15.4999 9.5 16.6219 9.5 17.9999V21.4999H3.5V13.4999C3.5 12.9489 3.948 12.4999 4.5 12.4999H6C6.276 12.4999 6.5 12.2759 6.5 11.9999V5.94404L11.4449 2.66792C11.7809 2.44292 12.2171 2.44289 12.5551 2.66889L17.499 5.94404V11.9999C17.499 12.2759 17.723 12.4999 17.999 12.4999H19.499C20.051 12.4999 20.499 12.9489 20.499 13.4999V21.4999H14.5ZM7.25 15.4999C7.25 15.9139 6.914 16.2499 6.5 16.2499C6.086 16.2499 5.75 15.9139 5.75 15.4999C5.75 15.0859 6.086 14.7499 6.5 14.7499C6.914 14.7499 7.25 15.0859 7.25 15.4999ZM7.25 17.9999C7.25 18.4139 6.914 18.7499 6.5 18.7499C6.086 18.7499 5.75 18.4139 5.75 17.9999C5.75 17.5859 6.086 17.2499 6.5 17.2499C6.914 17.2499 7.25 17.5859 7.25 17.9999ZM18.25 15.4999C18.25 15.9139 17.914 16.2499 17.5 16.2499C17.086 16.2499 16.75 15.9139 16.75 15.4999C16.75 15.0859 17.086 14.7499 17.5 14.7499C17.914 14.7499 18.25 15.0859 18.25 15.4999ZM18.25 17.9999C18.25 18.4139 17.914 18.7499 17.5 18.7499C17.086 18.7499 16.75 18.4139 16.75 17.9999C16.75 17.5859 17.086 17.2499 17.5 17.2499C17.914 17.2499 18.25 17.5859 18.25 17.9999Z" />
</svg>
