<svg viewBox="0 0 24 24" fill="currentColor" stroke="currentColor" xmlns="http://www.w3.org/2000/svg">
<path d="M12 10.4999C13.379 10.4999 14.5 9.37795 14.5 7.99995C14.5 6.62195 13.379 5.49995 12 5.49995C10.621 5.49995 9.5 6.62195 9.5 7.99995C9.5 9.37795 10.621 10.4999 12 10.4999ZM12 6.49995C12.827 6.49995 13.5 7.17295 13.5 7.99995C13.5 8.82695 12.827 9.49995 12 9.49995C11.173 9.49995 10.5 8.82695 10.5 7.99995C10.5 7.17295 11.173 6.49995 12 6.49995ZM22 21.4999H21.5V12.4999C21.5 11.2289 20.771 10.4999 19.5 10.4999H18.5V6.60591L19.724 7.41694C19.809 7.47294 19.905 7.49995 20 7.49995C20.162 7.49995 20.32 7.42083 20.417 7.27583C20.569 7.04583 20.506 6.73596 20.276 6.58296L13.109 1.83589C12.434 1.38589 11.564 1.38791 10.891 1.83491L3.72302 6.58296C3.49402 6.73596 3.43003 7.04583 3.58203 7.27583C3.73603 7.50683 4.04602 7.56794 4.27502 7.41694L5.49902 6.60591V10.4999H4.49902C3.22802 10.4999 2.49902 11.2289 2.49902 12.4999V21.4999H1.99902C1.72302 21.4999 1.49902 21.7239 1.49902 21.9999C1.49902 22.2759 1.72302 22.4999 1.99902 22.4999H21.999C22.275 22.4999 22.499 22.2759 22.499 21.9999C22.499 21.7239 22.276 21.4999 22 21.4999ZM3.5 12.4999C3.5 11.7799 3.78 11.4999 4.5 11.4999H5.5V21.4999H3.5V12.4999ZM6.5 5.94404L11.4449 2.66792C11.7809 2.44292 12.2171 2.44289 12.5551 2.66889L17.499 5.94404V21.4999H14.499V18.9999C14.499 17.6219 13.378 16.4999 11.999 16.4999C10.62 16.4999 9.49902 17.6219 9.49902 18.9999V21.4999H6.49902V5.94404H6.5ZM10.5 21.4999V18.9999C10.5 18.1729 11.173 17.4999 12 17.4999C12.827 17.4999 13.5 18.1729 13.5 18.9999V21.4999H10.5ZM18.5 21.4999V11.4999H19.5C20.22 11.4999 20.5 11.7799 20.5 12.4999V21.4999H18.5ZM9 14.2499C8.586 14.2499 8.25 13.9139 8.25 13.4999C8.25 13.0859 8.586 12.7499 9 12.7499C9.414 12.7499 9.75 13.0859 9.75 13.4999C9.75 13.9139 9.414 14.2499 9 14.2499ZM12.75 13.4999C12.75 13.9139 12.414 14.2499 12 14.2499C11.586 14.2499 11.25 13.9139 11.25 13.4999C11.25 13.0859 11.586 12.7499 12 12.7499C12.414 12.7499 12.75 13.0859 12.75 13.4999ZM15 12.7499C15.414 12.7499 15.75 13.0859 15.75 13.4999C15.75 13.9139 15.414 14.2499 15 14.2499C14.586 14.2499 14.25 13.9139 14.25 13.4999C14.25 13.0859 14.586 12.7499 15 12.7499Z" />
</svg>
