<svg viewBox="0 0 24 24" fill="currentColor" stroke="currentColor" xmlns="http://www.w3.org/2000/svg">
<path d="M20.47 6.83688L13.214 2.81393C12.454 2.39193 11.546 2.39293 10.786 2.81393L3.53003 6.83688C2.89403 7.18988 2.5 7.8589 2.5 8.5859V19.5C2.5 20.603 3.397 21.5 4.5 21.5H19.5C20.603 21.5 21.5 20.603 21.5 19.5V8.5859C21.5 7.8599 21.105 7.18988 20.47 6.83688ZM7 15.5H17V17.5H7V15.5ZM17 14.5H7V13.5C7 12.78 7.28 12.5 8 12.5H16C16.72 12.5 17 12.78 17 13.5V14.5ZM7 18.5H17V20.5H7V18.5ZM20.5 19.5C20.5 20.051 20.052 20.5 19.5 20.5H18V13.5C18 12.229 17.271 11.5 16 11.5H8C6.729 11.5 6 12.229 6 13.5V20.5H4.5C3.948 20.5 3.5 20.051 3.5 19.5V8.5859C3.5 8.2229 3.69701 7.88788 4.01501 7.71188L11.271 3.68795C11.5 3.56195 11.75 3.49801 12 3.49801C12.25 3.49801 12.501 3.56095 12.729 3.68795L19.985 7.7109C20.302 7.8869 20.5 8.22192 20.5 8.58492V19.5ZM14 7.99996C14 8.27596 13.776 8.49996 13.5 8.49996H10.5C10.224 8.49996 10 8.27596 10 7.99996C10 7.72396 10.224 7.49996 10.5 7.49996H13.5C13.776 7.49996 14 7.72396 14 7.99996Z" />
</svg>
