<svg viewBox="0 0 24 24" fill="currentColor" stroke="currentColor" xmlns="http://www.w3.org/2000/svg">
<path d="M12 3.5C6.406 3.5 2.5 6.99598 2.5 12.001C2.5 14.065 3.16009 15.913 4.41309 17.361C4.27609 17.967 3.89692 18.923 2.84692 19.771C2.53492 20.035 2.42306 20.457 2.56006 20.844C2.69706 21.228 3.04512 21.4829 3.44312 21.4919C3.57812 21.4969 3.71589 21.499 3.85889 21.499C5.35789 21.499 7.2309 21.2069 8.5459 19.9919C9.6289 20.3299 10.789 20.502 12.001 20.502C17.595 20.502 21.501 17.006 21.501 12.001C21.501 6.99598 17.594 3.5 12 3.5ZM12 19.5031C10.788 19.5031 9.635 19.317 8.573 18.95C8.385 18.885 8.17892 18.9371 8.04492 19.0811C6.87092 20.3341 4.92793 20.542 3.50293 20.542C3.49693 20.542 3.48989 20.542 3.48389 20.542C4.55389 19.677 5.25109 18.522 5.44409 17.29C5.46709 17.139 5.42089 16.986 5.31689 16.873C4.12889 15.586 3.5 13.901 3.5 12.001C3.5 7.58398 6.995 4.5 12 4.5C17.005 4.5 20.5 7.58398 20.5 12.001C20.5 16.418 17.005 19.5031 12 19.5031ZM15.103 7.90698C14.84 7.64498 14.4921 7.5 14.1221 7.5C14.1211 7.5 14.1201 7.5 14.1201 7.5C13.7481 7.5 13.3989 7.64606 13.1379 7.90906L7.64697 13.425C7.55397 13.518 7.50098 13.645 7.50098 13.778V16C7.50098 16.276 7.72498 16.5 8.00098 16.5H10.2241C10.3561 16.5 10.4829 16.448 10.5769 16.354L16.093 10.863C16.357 10.601 16.501 10.252 16.502 9.88C16.502 9.508 16.357 9.159 16.095 8.896L15.103 7.90698ZM10.0171 15.5H8.5V13.984L12.3311 10.136L13.864 11.67L10.0171 15.5ZM15.386 10.155L14.573 10.965L13.0371 9.42798L13.8469 8.61499C13.9199 8.54099 14.0181 8.50098 14.1211 8.50098C14.1211 8.50098 14.1211 8.50098 14.1221 8.50098C14.2261 8.50098 14.323 8.54199 14.396 8.61499L15.386 9.60498C15.459 9.67898 15.5 9.77698 15.5 9.88098C15.5 9.98498 15.459 10.082 15.386 10.155Z" />
</svg>
