<svg viewBox="0 0 24 24" fill="currentColor" stroke="currentColor" xmlns="http://www.w3.org/2000/svg">
<path d="M12 3.5C6.406 3.5 2.5 6.99598 2.5 12.001C2.5 14.065 3.16009 15.913 4.41309 17.361C4.27609 17.967 3.89692 18.923 2.84692 19.771C2.53492 20.035 2.42306 20.457 2.56006 20.844C2.69706 21.228 3.04512 21.4829 3.44312 21.4919C3.57812 21.4969 3.71589 21.499 3.85889 21.499C5.35789 21.499 7.2309 21.2069 8.5459 19.9919C9.6289 20.3299 10.789 20.502 12.001 20.502C17.595 20.502 21.501 17.006 21.501 12.001C21.501 6.99598 17.594 3.5 12 3.5ZM12 19.5031C10.788 19.5031 9.635 19.317 8.573 18.95C8.385 18.885 8.17892 18.9371 8.04492 19.0811C6.86592 20.3391 4.89889 20.517 3.48389 20.542C4.55389 19.677 5.25109 18.522 5.44409 17.29C5.46709 17.139 5.42089 16.986 5.31689 16.873C4.12889 15.586 3.5 13.901 3.5 12.001C3.5 7.58398 6.995 4.5 12 4.5C17.005 4.5 20.5 7.58398 20.5 12.001C20.5 16.418 17.005 19.5031 12 19.5031ZM14.1509 13.444C14.5739 12.875 14.833 12.178 14.833 11.416C14.833 9.53202 13.301 7.99902 11.417 7.99902C9.53299 7.99902 8 9.53202 8 11.416C8 13.3 9.53299 14.833 11.417 14.833C12.179 14.833 12.8751 14.574 13.4441 14.151L15.146 15.853C15.244 15.951 15.372 15.999 15.5 15.999C15.628 15.999 15.756 15.95 15.854 15.853C16.049 15.658 16.049 15.341 15.854 15.146L14.1509 13.444ZM9 11.417C9 10.084 10.084 9 11.417 9C12.749 9 13.833 10.084 13.833 11.417C13.833 12.75 12.749 13.834 11.417 13.834C10.084 13.833 9 12.749 9 11.417Z" />
</svg>
