<svg viewBox="0 0 24 24" fill="currentColor" stroke="currentColor" xmlns="http://www.w3.org/2000/svg">
<path d="M6.66699 8C6.66699 7.724 6.89099 7.5 7.16699 7.5H13.833C14.109 7.5 14.333 7.724 14.333 8C14.333 8.276 14.109 8.5 13.833 8.5H7.16699C6.89099 8.5 6.66699 8.276 6.66699 8ZM11.833 11.333C11.833 11.057 11.609 10.833 11.333 10.833H7.16699C6.89099 10.833 6.66699 11.057 6.66699 11.333C6.66699 11.609 6.89099 11.833 7.16699 11.833H11.333C11.609 11.833 11.833 11.61 11.833 11.333ZM21.448 20.943C21.327 21.277 21.0209 21.494 20.6689 21.494C20.5639 21.498 20.454 21.5 20.343 21.5C19.276 21.5 17.935 21.29 16.959 20.433C16.2 20.666 15.374 20.7841 14.499 20.7841C11.232 20.7841 8.6599 19.094 7.8269 16.467C7.7659 16.45 7.70111 16.444 7.64111 16.425C6.53011 17.427 4.96709 17.67 3.71509 17.67C3.59609 17.67 3.47997 17.6679 3.36597 17.6639C3.00097 17.6559 2.67896 17.422 2.55396 17.068C2.42796 16.712 2.53212 16.325 2.81812 16.083C3.65312 15.408 3.96691 14.654 4.08691 14.16C3.04791 12.943 2.5 11.397 2.5 9.67004C2.5 5.44904 5.78902 2.50098 10.499 2.50098C15.047 2.50098 18.262 5.25402 18.478 9.24402C20.396 10.344 21.499 12.238 21.499 14.504C21.499 16.003 21.0259 17.3471 20.1289 18.4091C20.2349 18.8281 20.5071 19.451 21.1931 20.007C21.4741 20.239 21.571 20.605 21.448 20.943ZM7.6709 15.3831C8.5479 15.6861 9.49902 15.839 10.499 15.839C14.62 15.839 17.499 13.302 17.499 9.67004C17.499 6.03804 14.62 3.50098 10.499 3.50098C6.37802 3.50098 3.5 6.03804 3.5 9.67004C3.5 11.233 4.01594 12.618 4.99194 13.674C5.09594 13.786 5.1419 13.9399 5.1189 14.0909C4.9689 15.0529 4.45792 15.96 3.66992 16.671C4.80992 16.676 6.25507 16.463 7.14307 15.515C7.27807 15.37 7.4819 15.3181 7.6709 15.3831ZM20.2451 20.499C19.6261 19.893 19.221 19.139 19.095 18.342C19.072 18.191 19.1179 18.036 19.2219 17.924C20.0579 17.0219 20.499 15.8391 20.499 14.5031C20.499 12.7791 19.7789 11.355 18.4629 10.411C18.0999 14.232 14.928 16.84 10.499 16.84C9.98102 16.84 9.47496 16.799 8.98096 16.725C9.85496 18.607 11.927 19.785 14.499 19.785C15.375 19.785 16.1901 19.653 16.9221 19.394C17.1091 19.326 17.3169 19.378 17.4529 19.522C18.1919 20.306 19.3961 20.483 20.2451 20.499Z" />
</svg>
