<svg viewBox="0 0 24 24" fill="currentColor" stroke="currentColor" xmlns="http://www.w3.org/2000/svg">
<path d="M12 3.5C6.406 3.5 2.5 6.99598 2.5 12.001C2.5 14.065 3.16009 15.913 4.41309 17.361C4.27609 17.967 3.89692 18.923 2.84692 19.771C2.53492 20.035 2.42306 20.457 2.56006 20.844C2.69706 21.228 3.04512 21.4829 3.44312 21.4919C3.57812 21.4969 3.71589 21.499 3.85889 21.499C5.35789 21.499 7.2309 21.2069 8.5459 19.9919C9.6289 20.3299 10.789 20.502 12.001 20.502C17.595 20.502 21.501 17.006 21.501 12.001C21.501 6.99598 17.594 3.5 12 3.5ZM12 19.5031C10.788 19.5031 9.635 19.317 8.573 18.95C8.385 18.885 8.17892 18.9371 8.04492 19.0811C6.87092 20.3341 4.92793 20.542 3.50293 20.542C3.49693 20.542 3.48989 20.542 3.48389 20.542C4.55389 19.677 5.25109 18.522 5.44409 17.29C5.46709 17.139 5.42089 16.986 5.31689 16.873C4.12889 15.586 3.5 13.901 3.5 12.001C3.5 7.58398 6.995 4.5 12 4.5C17.005 4.5 20.5 7.58398 20.5 12.001C20.5 16.418 17.005 19.5031 12 19.5031ZM15.916 10.191L13.8181 9.901L12.9009 8.05701C12.5589 7.36901 11.4379 7.36901 11.0979 8.05701L10.2009 9.88501L8.08398 10.191C7.71298 10.244 7.41212 10.499 7.29712 10.854C7.18312 11.208 7.2779 11.589 7.5459 11.848L9.06689 13.301L8.71802 15.324C8.65202 15.702 8.80401 16.077 9.11401 16.304C9.42601 16.533 9.83303 16.563 10.176 16.384L11.988 15.427L13.824 16.385C13.972 16.462 14.133 16.5 14.291 16.5C14.5 16.5 14.708 16.4341 14.885 16.3051C15.196 16.0791 15.348 15.704 15.282 15.325L14.9241 13.327L16.4541 11.847C16.7221 11.588 16.8169 11.207 16.7029 10.853C16.5879 10.499 16.287 10.245 15.916 10.191ZM14.229 12.608C13.999 12.831 13.893 13.153 13.948 13.47L14.2881 15.4969L12.4529 14.54C12.3109 14.466 12.156 14.429 12.001 14.429C11.846 14.429 11.69 14.466 11.55 14.54L9.70508 15.494L10.0549 13.47C10.1089 13.154 10.0029 12.831 9.77295 12.609L8.22803 11.181L10.344 10.876C10.66 10.831 10.9349 10.633 11.0769 10.347L12.0049 8.49902C12.0049 8.49902 12.0061 8.49995 12.0071 8.50195C12.0071 8.50195 12.0071 8.50195 12.0081 8.50195L12.925 10.347C13.068 10.633 13.342 10.83 13.657 10.875L15.76 11.1281L14.229 12.608Z" />
</svg>
