<svg viewBox="0 0 24 24" fill="currentColor" stroke="currentColor" xmlns="http://www.w3.org/2000/svg">
<path d="M13.498 19.918C13.522 20.193 13.3199 20.4361 13.0449 20.4611C11.5239 20.5981 9.94492 20.431 8.54492 19.993C7.23092 21.207 5.35691 21.5 3.85791 21.5C3.71491 21.5 3.57689 21.498 3.44189 21.493C3.04489 21.484 2.69608 21.229 2.55908 20.845C2.42208 20.457 2.53495 20.036 2.84595 19.772C3.89695 18.924 4.27611 17.9681 4.41211 17.3621C3.15911 15.9141 2.49902 14.067 2.49902 12.002C2.49902 6.99695 6.40502 3.50098 11.999 3.50098C17.593 3.50098 21.499 6.99695 21.499 12.002C21.499 12.278 21.275 12.502 20.999 12.502C20.723 12.502 20.499 12.278 20.499 12.002C20.499 7.58495 17.004 4.50098 11.999 4.50098C6.99402 4.50098 3.49902 7.58495 3.49902 12.002C3.49902 13.902 4.12792 15.586 5.31592 16.874C5.41992 16.986 5.46612 17.14 5.44312 17.291C5.25012 18.524 4.55291 19.679 3.48291 20.543C3.48891 20.543 3.49595 20.543 3.50195 20.543C4.92695 20.543 6.86995 20.335 8.04395 19.082C8.17995 18.938 8.38402 18.8861 8.57202 18.951C9.91802 19.416 11.4601 19.5999 12.9541 19.4659C13.2281 19.4389 13.473 19.643 13.498 19.918ZM21.354 15.646C21.159 15.451 20.842 15.451 20.647 15.646L19.001 17.292L17.355 15.646C17.16 15.451 16.8429 15.451 16.6479 15.646C16.4529 15.841 16.4529 16.158 16.6479 16.353L18.2939 17.999L16.6479 19.645C16.4529 19.84 16.4529 20.1571 16.6479 20.3521C16.7459 20.4501 16.874 20.498 17.002 20.498C17.13 20.498 17.258 20.4491 17.356 20.3521L19.002 18.7061L20.6479 20.3521C20.7459 20.4501 20.874 20.498 21.002 20.498C21.13 20.498 21.258 20.4491 21.356 20.3521C21.551 20.1571 21.551 19.84 21.356 19.645L19.71 17.999L21.356 16.353C21.549 16.158 21.549 15.842 21.354 15.646ZM16 9.5H8C7.724 9.5 7.5 9.724 7.5 10C7.5 10.276 7.724 10.5 8 10.5H16C16.276 10.5 16.5 10.276 16.5 10C16.5 9.724 16.276 9.5 16 9.5ZM13 13.5H8C7.724 13.5 7.5 13.724 7.5 14C7.5 14.276 7.724 14.5 8 14.5H13C13.276 14.5 13.5 14.276 13.5 14C13.5 13.724 13.276 13.5 13 13.5Z" />
</svg>
