<svg viewBox="0 0 24 24" fill="currentColor" stroke="currentColor" xmlns="http://www.w3.org/2000/svg">
<path d="M12 3.5C6.406 3.5 2.5 6.99598 2.5 12.001C2.5 14.065 3.16009 15.913 4.41309 17.361C4.27609 17.967 3.89692 18.923 2.84692 19.771C2.53492 20.035 2.42306 20.457 2.56006 20.844C2.69706 21.228 3.04512 21.4829 3.44312 21.4919C3.57812 21.4969 3.71589 21.499 3.85889 21.499C5.35789 21.499 7.2309 21.2069 8.5459 19.9919C9.6289 20.3299 10.789 20.502 12.001 20.502C17.595 20.502 21.501 17.006 21.501 12.001C21.501 6.99598 17.594 3.5 12 3.5ZM12 19.5031C10.788 19.5031 9.635 19.317 8.573 18.95C8.385 18.885 8.17992 18.9371 8.04492 19.0811C6.87092 20.3341 4.92793 20.542 3.50293 20.542C3.49693 20.542 3.48989 20.542 3.48389 20.542C4.55389 19.677 5.25109 18.522 5.44409 17.29C5.46709 17.139 5.42089 16.986 5.31689 16.873C4.12889 15.586 3.5 13.901 3.5 12.001C3.5 7.58398 6.995 4.5 12 4.5C17.005 4.5 20.5 7.58398 20.5 12.001C20.5 16.418 17.005 19.5031 12 19.5031ZM12.75 12C12.75 12.415 12.4159 12.75 12.0039 12.75C11.5929 12.75 11.25 12.415 11.25 12C11.25 11.585 11.577 11.25 11.989 11.25H12.0039C12.4159 11.25 12.75 11.585 12.75 12ZM16.75 12C16.75 12.415 16.4159 12.75 16.0039 12.75C15.5929 12.75 15.25 12.415 15.25 12C15.25 11.585 15.577 11.25 15.989 11.25H16.0039C16.4159 11.25 16.75 11.585 16.75 12ZM8.75 12C8.75 12.415 8.41591 12.75 8.00391 12.75C7.59291 12.75 7.25 12.415 7.25 12C7.25 11.585 7.57701 11.25 7.98901 11.25H8.00391C8.41591 11.25 8.75 11.585 8.75 12Z" />
</svg>
