<svg viewBox="0 0 24 24" fill="currentColor" stroke="currentColor" xmlns="http://www.w3.org/2000/svg">
<path d="M21.5 12.001C21.5 17.006 17.594 20.502 12 20.502C10.788 20.502 9.62792 20.3309 8.54492 19.9919C7.23092 21.2059 5.35691 21.499 3.85791 21.499C3.71491 21.499 3.57689 21.4969 3.44189 21.4919C3.04489 21.4829 2.69608 21.228 2.55908 20.844C2.42208 20.456 2.53495 20.035 2.84595 19.771C3.89695 18.923 4.27611 17.967 4.41211 17.361C3.15911 15.913 2.49902 14.066 2.49902 12.001C2.49902 6.99598 6.40502 3.5 11.999 3.5C12.354 3.5 12.6989 3.50999 13.0449 3.54199C13.3189 3.56699 13.5231 3.81106 13.4971 4.08606C13.4711 4.36106 13.2269 4.56196 12.9529 4.53796C12.6389 4.50896 12.323 4.5 11.999 4.5C6.99402 4.5 3.49902 7.58398 3.49902 12.001C3.49902 13.901 4.12792 15.585 5.31592 16.873C5.41992 16.985 5.46612 17.139 5.44312 17.29C5.25012 18.523 4.55291 19.678 3.48291 20.542C4.89691 20.567 6.86495 20.3391 8.04395 19.0811C8.17895 18.9371 8.38402 18.885 8.57202 18.95C9.63402 19.317 10.787 19.5031 11.999 19.5031C17.004 19.5031 20.499 16.419 20.499 12.002C20.499 11.726 20.723 11.502 20.999 11.502C21.275 11.502 21.5 11.725 21.5 12.001ZM16.5 6C16.5 4.622 17.621 3.5 19 3.5C20.379 3.5 21.5 4.622 21.5 6C21.5 7.378 20.379 8.5 19 8.5C17.621 8.5 16.5 7.378 16.5 6ZM17.5 6C17.5 6.827 18.173 7.5 19 7.5C19.827 7.5 20.5 6.827 20.5 6C20.5 5.173 19.827 4.5 19 4.5C18.173 4.5 17.5 5.173 17.5 6ZM7.5 10C7.5 10.276 7.724 10.5 8 10.5H16C16.276 10.5 16.5 10.276 16.5 10C16.5 9.724 16.276 9.5 16 9.5H8C7.724 9.5 7.5 9.724 7.5 10ZM8 13.5C7.724 13.5 7.5 13.724 7.5 14C7.5 14.276 7.724 14.5 8 14.5H13C13.276 14.5 13.5 14.276 13.5 14C13.5 13.724 13.276 13.5 13 13.5H8Z" />
</svg>
