<svg viewBox="0 0 24 24" fill="currentColor" stroke="currentColor" xmlns="http://www.w3.org/2000/svg">
<path d="M12 3.5C6.406 3.5 2.5 6.99598 2.5 12.001C2.5 14.065 3.16009 15.9131 4.41309 17.3611C4.27609 17.9671 3.89692 18.923 2.84692 19.771C2.53492 20.035 2.42306 20.457 2.56006 20.844C2.69706 21.228 3.04512 21.4829 3.44312 21.4919C3.57812 21.4969 3.71589 21.499 3.85889 21.499C5.35789 21.499 7.2309 21.2069 8.5459 19.9919C9.6289 20.3299 10.789 20.502 12.001 20.502C17.595 20.502 21.501 17.006 21.501 12.001C21.501 6.99598 17.594 3.5 12 3.5ZM12 19.5029C10.788 19.5029 9.635 19.317 8.573 18.95C8.385 18.885 8.17892 18.9371 8.04492 19.0811C6.86592 20.3391 4.86389 20.551 3.48389 20.542C4.55389 19.677 5.25109 18.522 5.44409 17.29C5.46709 17.139 5.42089 16.986 5.31689 16.873C4.12889 15.586 3.5 13.901 3.5 12.001C3.5 7.58398 6.995 4.5 12 4.5C17.005 4.5 20.5 7.58398 20.5 12.001C20.5 16.418 17.005 19.5029 12 19.5029ZM16.354 10.046C16.549 10.241 16.549 10.5581 16.354 10.7531L14.1189 12.988C13.8749 13.233 13.5489 13.3689 13.2009 13.3689C13.2009 13.3689 13.201 13.3689 13.2 13.3689C12.854 13.3689 12.528 13.234 12.283 12.99L11.011 11.7209C10.897 11.6049 10.7049 11.6029 10.5869 11.7209L8.35498 13.9529C8.25698 14.0509 8.12898 14.0991 8.00098 14.0991C7.87298 14.0991 7.74497 14.0499 7.64697 13.9529C7.45197 13.7579 7.45197 13.4411 7.64697 13.2461L9.87891 11.014C10.3859 10.508 11.21 10.5069 11.717 11.0129L12.988 12.282C13.103 12.399 13.2949 12.397 13.4099 12.282L15.646 10.047C15.842 9.851 16.158 9.85102 16.354 10.046Z" />
</svg>
