<svg viewBox="0 0 24 24" fill="currentColor" stroke="currentColor" xmlns="http://www.w3.org/2000/svg">
<path d="M12.5 20.0031C12.5 20.2791 12.276 20.5031 12 20.5031C10.788 20.5031 9.62792 20.332 8.54492 19.993C7.23092 21.207 5.35691 21.5 3.85791 21.5C3.71491 21.5 3.57689 21.498 3.44189 21.493C3.04489 21.484 2.69608 21.229 2.55908 20.845C2.42208 20.457 2.53495 20.036 2.84595 19.772C3.89695 18.924 4.27611 17.9681 4.41211 17.3621C3.15911 15.9141 2.49902 14.067 2.49902 12.002C2.49902 6.99695 6.40502 3.50098 11.999 3.50098C17.593 3.50098 21.499 6.99695 21.499 12.002C21.499 12.363 21.478 12.725 21.436 13.064C21.402 13.338 21.151 13.531 20.877 13.498C20.604 13.464 20.4091 13.2139 20.4431 12.9399C20.4801 12.6399 20.499 12.321 20.499 12.002C20.499 7.58495 17.004 4.50098 11.999 4.50098C6.99402 4.50098 3.49902 7.58495 3.49902 12.002C3.49902 13.902 4.12792 15.586 5.31592 16.874C5.41992 16.986 5.46612 17.14 5.44312 17.291C5.25012 18.524 4.55291 19.679 3.48291 20.543C3.48891 20.543 3.49595 20.543 3.50195 20.543C4.92695 20.543 6.86995 20.335 8.04395 19.082C8.17895 18.938 8.38402 18.8861 8.57202 18.951C9.63402 19.318 10.787 19.504 11.999 19.504C12.276 19.503 12.5 19.7271 12.5 20.0031ZM20.646 16.313L17.667 19.293L16.354 17.98C16.159 17.785 15.842 17.785 15.647 17.98C15.452 18.175 15.452 18.492 15.647 18.687L17.314 20.354C17.412 20.452 17.54 20.5 17.668 20.5C17.796 20.5 17.924 20.451 18.022 20.354L21.355 17.021C21.55 16.826 21.55 16.509 21.355 16.314C21.16 16.119 20.842 16.118 20.646 16.313ZM12.0039 11.25H11.989C11.577 11.25 11.25 11.585 11.25 12C11.25 12.415 11.5929 12.75 12.0039 12.75C12.4169 12.75 12.75 12.415 12.75 12C12.75 11.585 12.4159 11.25 12.0039 11.25ZM16.75 12C16.75 11.585 16.4159 11.25 16.0039 11.25H15.989C15.577 11.25 15.25 11.585 15.25 12C15.25 12.415 15.5929 12.75 16.0039 12.75C16.4159 12.75 16.75 12.415 16.75 12ZM7.98901 11.25C7.57701 11.25 7.25 11.585 7.25 12C7.25 12.415 7.59291 12.75 8.00391 12.75C8.41691 12.75 8.75 12.415 8.75 12C8.75 11.585 8.41591 11.25 8.00391 11.25H7.98901Z" />
</svg>
