<svg viewBox="0 0 24 24" fill="currentColor" stroke="currentColor" xmlns="http://www.w3.org/2000/svg">
<path d="M12 3.5C6.406 3.5 2.5 6.99598 2.5 12.001C2.5 14.065 3.16009 15.913 4.41309 17.361C4.27609 17.967 3.89692 18.923 2.84692 19.771C2.53492 20.035 2.42306 20.457 2.56006 20.844C2.69706 21.228 3.04512 21.4829 3.44312 21.4919C3.57812 21.4969 3.71589 21.499 3.85889 21.499C5.35789 21.499 7.2309 21.2069 8.5459 19.9919C9.6289 20.3299 10.789 20.502 12.001 20.502C17.595 20.502 21.501 17.006 21.501 12.001C21.501 6.99598 17.594 3.5 12 3.5ZM12 19.5031C10.788 19.5031 9.635 19.317 8.573 18.95C8.385 18.885 8.17992 18.9371 8.04492 19.0811C6.87092 20.3341 4.92793 20.542 3.50293 20.542C3.49693 20.542 3.48989 20.542 3.48389 20.542C4.55389 19.677 5.25109 18.522 5.44409 17.29C5.46709 17.139 5.42089 16.986 5.31689 16.873C4.12889 15.586 3.5 13.901 3.5 12.001C3.5 7.58398 6.995 4.5 12 4.5C17.005 4.5 20.5 7.58398 20.5 12.001C20.5 16.418 17.005 19.5031 12 19.5031ZM14.854 9.854L12.708 12L14.854 14.146C15.049 14.341 15.049 14.658 14.854 14.853C14.756 14.951 14.628 14.999 14.5 14.999C14.372 14.999 14.244 14.95 14.146 14.853L12 12.707L9.854 14.853C9.756 14.951 9.628 14.999 9.5 14.999C9.372 14.999 9.244 14.95 9.146 14.853C8.951 14.658 8.951 14.341 9.146 14.146L11.292 12L9.146 9.854C8.951 9.659 8.951 9.34197 9.146 9.14697C9.341 8.95197 9.65803 8.95197 9.85303 9.14697L11.999 11.293L14.145 9.14697C14.34 8.95197 14.6571 8.95197 14.8521 9.14697C15.0471 9.34197 15.049 9.658 14.854 9.854Z" />
</svg>
