<svg viewBox="0 0 24 24" fill="currentColor" stroke="currentColor" xmlns="http://www.w3.org/2000/svg">
<path d="M12 3.5C6.406 3.5 2.5 6.99598 2.5 12.001C2.5 14.065 3.16009 15.9131 4.41309 17.3611C4.27609 17.9671 3.89692 18.923 2.84692 19.771C2.53492 20.035 2.42306 20.457 2.56006 20.844C2.69706 21.228 3.04512 21.4829 3.44312 21.4919C3.57812 21.4969 3.71589 21.499 3.85889 21.499C5.35789 21.499 7.2309 21.2069 8.5459 19.9919C9.6289 20.3299 10.789 20.502 12.001 20.502C17.595 20.502 21.501 17.006 21.501 12.001C21.501 6.99598 17.594 3.5 12 3.5ZM12 19.5029C10.788 19.5029 9.635 19.317 8.573 18.95C8.385 18.885 8.17992 18.9371 8.04492 19.0811C6.87092 20.3341 4.92793 20.542 3.50293 20.542C3.49693 20.542 3.48989 20.542 3.48389 20.542C4.55389 19.677 5.25109 18.522 5.44409 17.29C5.46709 17.139 5.42089 16.986 5.31689 16.873C4.12889 15.586 3.5 13.901 3.5 12.001C3.5 7.58398 6.995 4.5 12 4.5C17.005 4.5 20.5 7.58398 20.5 12.001C20.5 16.418 17.005 19.5029 12 19.5029ZM14.3379 9.948C14.5039 10.896 14.103 11.746 13.207 12.343C12.626 12.729 12.5011 12.9549 12.4741 13.0349C12.4041 13.2429 12.209 13.375 12 13.375C11.947 13.375 11.8941 13.3671 11.8401 13.3491C11.5781 13.2611 11.4381 12.9771 11.5271 12.7151C11.6631 12.3131 12.0211 11.93 12.6541 11.51C13.2221 11.132 13.452 10.677 13.354 10.121C13.256 9.56997 12.8039 9.11797 12.2539 9.02197C11.8379 8.94897 11.434 9.05505 11.116 9.32104C10.804 9.58305 10.625 9.967 10.625 10.375C10.625 10.651 10.401 10.875 10.125 10.875C9.849 10.875 9.625 10.651 9.625 10.375C9.625 9.671 9.93512 9.00803 10.4741 8.55603C11.0131 8.10303 11.726 7.91599 12.426 8.03699C13.383 8.20499 14.1699 8.991 14.3379 9.948ZM12.75 15.5C12.75 15.915 12.4159 16.25 12.0039 16.25C11.5929 16.25 11.25 15.915 11.25 15.5C11.25 15.085 11.577 14.75 11.989 14.75H12.0039C12.4159 14.75 12.75 15.085 12.75 15.5Z" />
</svg>
