<svg viewBox="0 0 24 24" fill="currentColor" stroke="currentColor" xmlns="http://www.w3.org/2000/svg">
<path d="M12 3.5C6.406 3.5 2.5 6.99598 2.5 12.001C2.5 14.065 3.16009 15.913 4.41309 17.361C4.27609 17.967 3.89692 18.923 2.84692 19.771C2.53492 20.035 2.42306 20.457 2.56006 20.844C2.69706 21.228 3.04512 21.4829 3.44312 21.4919C3.57812 21.4969 3.71589 21.499 3.85889 21.499C5.35789 21.499 7.2309 21.2069 8.5459 19.9919C9.6289 20.3299 10.789 20.502 12.001 20.502C17.595 20.502 21.501 17.006 21.501 12.001C21.501 6.99598 17.594 3.5 12 3.5ZM12 19.5031C10.788 19.5031 9.635 19.317 8.573 18.95C8.385 18.885 8.17892 18.9371 8.04492 19.0811C6.86592 20.3391 4.93289 20.517 3.48389 20.542C4.55389 19.677 5.25109 18.522 5.44409 17.29C5.46709 17.139 5.42089 16.986 5.31689 16.873C4.12889 15.586 3.5 13.901 3.5 12.001C3.5 7.58398 6.995 4.5 12 4.5C17.005 4.5 20.5 7.58398 20.5 12.001C20.5 16.418 17.005 19.5031 12 19.5031ZM14.25 11.064V9.75C14.25 8.509 13.24 7.5 12 7.5C10.76 7.5 9.75 8.509 9.75 9.75V11.064C8.952 11.245 8.5 11.846 8.5 12.786V14.715C8.5 15.85 9.15089 16.501 10.2859 16.501H13.7141C14.8491 16.501 15.5 15.85 15.5 14.715V12.786C15.5 11.846 15.048 11.245 14.25 11.064ZM12 8.5C12.689 8.5 13.25 9.061 13.25 9.75V11H10.75V9.75C10.75 9.061 11.311 8.5 12 8.5ZM14.5 14.714C14.5 15.294 14.2941 15.5 13.7141 15.5H10.2859C9.70589 15.5 9.5 15.294 9.5 14.714V12.785C9.5 12.205 9.70589 11.999 10.2859 11.999H13.7141C14.2941 11.999 14.5 12.205 14.5 12.785V14.714Z" />
</svg>
