<svg viewBox="0 0 24 24" fill="currentColor" stroke="currentColor" xmlns="http://www.w3.org/2000/svg">
<path d="M12 3.5C6.406 3.5 2.5 6.99598 2.5 12.001C2.5 14.065 3.16009 15.913 4.41309 17.361C4.27609 17.967 3.89692 18.923 2.84692 19.771C2.53492 20.035 2.42306 20.457 2.56006 20.844C2.69706 21.228 3.04512 21.4829 3.44312 21.4919C3.57812 21.4969 3.71589 21.499 3.85889 21.499C5.35789 21.499 7.2309 21.2069 8.5459 19.9919C9.6289 20.3299 10.789 20.502 12.001 20.502C17.595 20.502 21.501 17.006 21.501 12.001C21.501 6.99598 17.594 3.5 12 3.5ZM12 19.5031C10.788 19.5031 9.635 19.317 8.573 18.95C8.385 18.885 8.17992 18.9371 8.04492 19.0811C6.87092 20.3341 4.92793 20.542 3.50293 20.542C3.49693 20.542 3.48989 20.542 3.48389 20.542C4.55389 19.677 5.25109 18.522 5.44409 17.29C5.46709 17.139 5.42089 16.986 5.31689 16.873C4.12889 15.586 3.5 13.901 3.5 12.001C3.5 7.58398 6.995 4.5 12 4.5C17.005 4.5 20.5 7.58398 20.5 12.001C20.5 16.418 17.005 19.5031 12 19.5031ZM12 7.5C9.519 7.5 7.5 9.519 7.5 12C7.5 14.481 9.519 16.5 12 16.5C14.481 16.5 16.5 14.481 16.5 12C16.5 9.519 14.481 7.5 12 7.5ZM12 15.5C10.07 15.5 8.5 13.93 8.5 12C8.5 10.07 10.07 8.5 12 8.5C13.93 8.5 15.5 10.07 15.5 12C15.5 13.93 13.93 15.5 12 15.5ZM13.354 12.646C13.549 12.841 13.549 13.158 13.354 13.353C13.256 13.451 13.128 13.499 13 13.499C12.872 13.499 12.744 13.45 12.646 13.353L11.646 12.353C11.552 12.259 11.5 12.132 11.5 11.999V10.499C11.5 10.223 11.724 9.99902 12 9.99902C12.276 9.99902 12.5 10.223 12.5 10.499V11.792L13.354 12.646Z" />
</svg>
