<svg viewBox="0 0 24 24" fill="currentColor" stroke="currentColor" xmlns="http://www.w3.org/2000/svg">
<path d="M12 3.5C6.406 3.5 2.5 6.99598 2.5 12.001C2.5 14.065 3.16009 15.913 4.41309 17.361C4.27609 17.967 3.89692 18.923 2.84692 19.771C2.53492 20.035 2.42306 20.457 2.56006 20.844C2.69706 21.228 3.04512 21.4829 3.44312 21.4919C3.57812 21.4969 3.71589 21.499 3.85889 21.499C5.35789 21.499 7.2309 21.2069 8.5459 19.9919C9.6289 20.3299 10.789 20.502 12.001 20.502C17.595 20.502 21.501 17.006 21.501 12.001C21.501 6.99598 17.594 3.5 12 3.5ZM12 19.5031C10.788 19.5031 9.635 19.317 8.573 18.95C8.385 18.885 8.17992 18.9371 8.04492 19.0811C6.87092 20.3341 4.92793 20.542 3.50293 20.542C3.49693 20.542 3.48989 20.542 3.48389 20.542C4.55389 19.677 5.25109 18.522 5.44409 17.29C5.46709 17.139 5.42089 16.986 5.31689 16.873C4.12889 15.586 3.5 13.901 3.5 12.001C3.5 7.58398 6.995 4.5 12 4.5C17.005 4.5 20.5 7.58398 20.5 12.001C20.5 16.418 17.005 19.5031 12 19.5031ZM15.623 8.79102C13.839 8.33802 13.0019 7.94805 12.2339 7.55505C12.0909 7.48205 11.922 7.48096 11.782 7.55396C11.009 7.94296 10.1661 8.33603 8.36206 8.85303C8.14706 8.91503 8 9.11001 8 9.33301V11.5551C8 14.2221 9.98309 15.845 11.8401 16.473C11.8921 16.491 11.946 16.499 12 16.499C12.054 16.499 12.1079 16.49 12.1599 16.473C14.0159 15.845 16 14.2231 16 11.5551V9.27502C16 9.04702 15.845 8.84702 15.623 8.79102ZM15 11.556C15 14.101 12.764 15.176 12 15.469C11.236 15.177 9 14.101 9 11.556V9.70801C10.356 9.30401 11.1769 8.96596 12.0049 8.55896C12.8339 8.97096 13.653 9.30099 15 9.66199V11.556Z" />
</svg>
