<svg viewBox="0 0 24 24" fill="currentColor" stroke="currentColor" xmlns="http://www.w3.org/2000/svg">
<path d="M21.5 12.001C21.5 17.006 17.594 20.502 12 20.502C10.788 20.502 9.62792 20.3309 8.54492 19.9919C7.23092 21.2059 5.35691 21.499 3.85791 21.499C3.71491 21.499 3.57689 21.4969 3.44189 21.4919C3.04489 21.4829 2.69608 21.228 2.55908 20.844C2.42208 20.456 2.53495 20.035 2.84595 19.771C3.89695 18.923 4.27611 17.967 4.41211 17.361C3.15911 15.913 2.49902 14.066 2.49902 12.001C2.49902 6.99598 6.40502 3.5 11.999 3.5C12.354 3.5 12.6989 3.50999 13.0449 3.54199C13.3189 3.56699 13.5231 3.81106 13.4971 4.08606C13.4711 4.36106 13.2319 4.56196 12.9529 4.53796C12.6389 4.50896 12.323 4.5 11.999 4.5C6.99402 4.5 3.49902 7.58398 3.49902 12.001C3.49902 13.901 4.12792 15.585 5.31592 16.873C5.41992 16.985 5.46612 17.139 5.44312 17.29C5.25012 18.523 4.55291 19.678 3.48291 20.542C3.48891 20.542 3.49595 20.542 3.50195 20.542C4.92695 20.542 6.86995 20.3341 8.04395 19.0811C8.17895 18.9371 8.38402 18.885 8.57202 18.95C9.63402 19.317 10.787 19.5031 11.999 19.5031C17.004 19.5031 20.499 16.419 20.499 12.002C20.499 11.726 20.723 11.502 20.999 11.502C21.275 11.502 21.5 11.725 21.5 12.001ZM16.5 6C16.5 4.622 17.621 3.5 19 3.5C20.379 3.5 21.5 4.622 21.5 6C21.5 7.378 20.379 8.5 19 8.5C17.621 8.5 16.5 7.378 16.5 6ZM17.5 6C17.5 6.827 18.173 7.5 19 7.5C19.827 7.5 20.5 6.827 20.5 6C20.5 5.173 19.827 4.5 19 4.5C18.173 4.5 17.5 5.173 17.5 6ZM11.989 11.25C11.577 11.25 11.25 11.585 11.25 12C11.25 12.415 11.5929 12.75 12.0039 12.75C12.4169 12.75 12.75 12.415 12.75 12C12.75 11.585 12.4159 11.25 12.0039 11.25H11.989ZM16.0039 12.75C16.4169 12.75 16.75 12.415 16.75 12C16.75 11.585 16.4159 11.25 16.0039 11.25H15.989C15.577 11.25 15.25 11.585 15.25 12C15.25 12.415 15.5929 12.75 16.0039 12.75ZM7.98901 11.25C7.57701 11.25 7.25 11.585 7.25 12C7.25 12.415 7.59291 12.75 8.00391 12.75C8.41691 12.75 8.75 12.415 8.75 12C8.75 11.585 8.41591 11.25 8.00391 11.25H7.98901Z" />
</svg>
