<svg viewBox="0 0 24 24" fill="currentColor" stroke="currentColor" xmlns="http://www.w3.org/2000/svg">
<path d="M12 3.5C6.406 3.5 2.5 6.99598 2.5 12.001C2.5 14.065 3.16009 15.913 4.41309 17.361C4.27609 17.967 3.89692 18.923 2.84692 19.771C2.53492 20.035 2.42306 20.457 2.56006 20.844C2.69706 21.228 3.04512 21.4829 3.44312 21.4919C3.57812 21.4969 3.71589 21.499 3.85889 21.499C5.35789 21.499 7.2309 21.2069 8.5459 19.9919C9.6289 20.3299 10.789 20.502 12.001 20.502C17.595 20.502 21.501 17.006 21.501 12.001C21.501 6.99598 17.594 3.5 12 3.5ZM12 19.5031C10.788 19.5031 9.635 19.317 8.573 18.95C8.385 18.885 8.17892 18.9371 8.04492 19.0811C6.87092 20.3341 4.92793 20.542 3.50293 20.542C3.49693 20.542 3.48989 20.542 3.48389 20.542C4.55389 19.677 5.25109 18.522 5.44409 17.29C5.46709 17.139 5.42089 16.986 5.31689 16.873C4.12889 15.586 3.5 13.901 3.5 12.001C3.5 7.58398 6.995 4.5 12 4.5C17.005 4.5 20.5 7.58398 20.5 12.001C20.5 16.418 17.005 19.5031 12 19.5031ZM13.77 8C12.917 7.988 12.347 8.41899 12 8.83899C11.653 8.42099 11.094 8 10.241 8C10.237 8 10.233 8 10.228 8C9.38203 8.004 8.67391 8.32503 8.18091 8.92603C7.58591 9.65303 7.36301 10.76 7.58301 11.889C8.14801 14.778 11.645 16.389 11.793 16.455C11.858 16.485 11.929 16.499 11.999 16.499C12.069 16.499 12.1401 16.484 12.2051 16.455C12.3531 16.388 15.85 14.778 16.415 11.889C16.635 10.759 16.4119 9.65105 15.8169 8.92505C15.3249 8.32405 14.617 8.004 13.77 8ZM15.4341 11.698C15.0391 13.719 12.712 15.072 12 15.442C11.288 15.071 8.96094 13.719 8.56494 11.697C8.40094 10.857 8.54608 10.0581 8.95508 9.56006C9.25808 9.19106 9.68691 9.003 10.2329 9C10.2359 9 10.238 9 10.24 9C11.173 9 11.5119 9.94003 11.5259 9.97803C11.5929 10.18 11.7831 10.316 11.9971 10.317C12.1811 10.347 12.4009 10.183 12.4729 9.98096C12.4879 9.94096 12.827 9.00098 13.759 9.00098C13.761 9.00098 13.7629 9.00098 13.7649 9.00098C14.3129 9.00398 14.7439 9.19206 15.0449 9.56006C15.4519 10.0571 15.5991 10.856 15.4341 11.698Z" />
</svg>
