<svg viewBox="0 0 24 24" fill="currentColor" stroke="currentColor" xmlns="http://www.w3.org/2000/svg">
<path d="M12 3.5C6.406 3.5 2.5 6.99598 2.5 12.001C2.5 14.065 3.16009 15.913 4.41309 17.361C4.27609 17.967 3.89692 18.923 2.84692 19.771C2.53492 20.035 2.42306 20.457 2.56006 20.844C2.69706 21.228 3.04512 21.4829 3.44312 21.4919C3.57812 21.4969 3.71589 21.499 3.85889 21.499C5.35789 21.499 7.2309 21.2069 8.5459 19.9919C9.6289 20.3299 10.789 20.502 12.001 20.502C17.595 20.502 21.501 17.006 21.501 12.001C21.501 6.99598 17.594 3.5 12 3.5ZM12 19.5031C10.788 19.5031 9.635 19.317 8.573 18.95C8.385 18.885 8.17992 18.9371 8.04492 19.0811C6.87092 20.3341 4.92793 20.542 3.50293 20.542C3.49693 20.542 3.48989 20.542 3.48389 20.542C4.55389 19.677 5.25109 18.522 5.44409 17.29C5.46709 17.139 5.42089 16.986 5.31689 16.873C4.12889 15.586 3.5 13.901 3.5 12.001C3.5 7.58398 6.995 4.5 12 4.5C17.005 4.5 20.5 7.58398 20.5 12.001C20.5 16.418 17.005 19.5031 12 19.5031ZM15.5139 8.97498C15.3739 8.74198 15.0751 8.66295 14.8401 8.79395L14.708 8.86804C14.433 9.02104 14.0941 9.02094 13.8181 8.86694C13.5531 8.71794 13.3879 8.44205 13.3879 8.14905C13.3879 7.79105 13.0939 7.5 12.7339 7.5H11.21C10.85 7.5 10.5559 7.79205 10.5559 8.14905C10.5559 8.44205 10.391 8.71794 10.125 8.86694C9.853 9.02194 9.51308 9.02204 9.23608 8.86804C8.93108 8.69704 8.53598 8.80105 8.35498 9.10205L7.59106 10.384C7.50106 10.534 7.476 10.71 7.521 10.879C7.565 11.046 7.67603 11.1921 7.83203 11.2791C8.09803 11.4291 8.26292 11.704 8.26392 11.998C8.26492 12.293 8.1001 12.57 7.8291 12.722C7.6791 12.808 7.566 12.953 7.521 13.12C7.477 13.288 7.50109 13.464 7.59009 13.615L8.35498 14.8979C8.53498 15.1989 8.93306 15.304 9.23706 15.131C9.51006 14.978 9.851 14.977 10.125 15.132H10.126C10.391 15.281 10.5559 15.556 10.5549 15.85C10.5549 16.208 10.848 16.499 11.208 16.499H12.7351C13.0951 16.499 13.3879 16.207 13.3879 15.85C13.3879 15.557 13.5531 15.281 13.8191 15.132C14.0911 14.977 14.431 14.977 14.708 15.131C15.015 15.303 15.4091 15.1989 15.5891 14.8979L16.356 13.611C16.445 13.461 16.4681 13.286 16.4231 13.118C16.3781 12.949 16.269 12.808 16.116 12.722C16.11 12.719 16.1039 12.716 16.0979 12.713C15.8399 12.561 15.6809 12.29 15.6809 12.001C15.6799 11.706 15.8461 11.429 16.1111 11.28L16.2439 11.2061C16.3609 11.1401 16.4479 11.029 16.4829 10.899C16.5169 10.769 16.499 10.63 16.429 10.514L15.5139 8.97498ZM15.3259 13.386L14.8879 14.121C14.3769 13.945 13.8039 13.993 13.3279 14.261C12.8529 14.528 12.5261 14.984 12.4241 15.5H11.521C11.418 14.985 11.0909 14.529 10.6179 14.261C10.1399 13.991 9.56588 13.946 9.05688 14.12L8.6189 13.385C9.0249 13.038 9.26492 12.531 9.26392 11.994C9.26292 11.462 9.02292 10.959 8.61792 10.614L9.05591 9.87805C9.56891 10.0531 10.14 10.0061 10.616 9.73706C11.091 9.47006 11.418 9.01405 11.52 8.49805H12.4231C12.5261 9.01405 12.8529 9.47006 13.3259 9.73706C13.8049 10.0071 14.379 10.053 14.887 9.87695L15.325 10.6121C14.92 10.9581 14.6789 11.465 14.6799 12C14.6819 12.536 14.9219 13.041 15.3259 13.386ZM12.75 12C12.75 12.415 12.4159 12.75 12.0039 12.75C11.5929 12.75 11.25 12.415 11.25 12C11.25 11.585 11.577 11.25 11.989 11.25H12.0039C12.4159 11.25 12.75 11.585 12.75 12Z" />
</svg>
