<svg viewBox="0 0 24 24" fill="currentColor" stroke="currentColor" xmlns="http://www.w3.org/2000/svg">
<path d="M12.5 20.0031C12.5 20.2791 12.276 20.5031 12 20.5031C10.788 20.5031 9.62792 20.332 8.54492 19.993C7.23092 21.207 5.35691 21.5 3.85791 21.5C3.71491 21.5 3.57689 21.498 3.44189 21.493C3.04489 21.484 2.69608 21.229 2.55908 20.845C2.42208 20.457 2.53495 20.036 2.84595 19.772C3.89695 18.924 4.27611 17.9681 4.41211 17.3621C3.15911 15.9141 2.49902 14.067 2.49902 12.002C2.49902 6.99695 6.40502 3.50098 11.999 3.50098C17.138 3.50098 20.931 6.49304 21.437 10.946C21.479 11.28 21.499 11.6421 21.499 12.0031C21.499 12.2791 21.275 12.5031 20.999 12.5031C20.723 12.5031 20.499 12.2791 20.499 12.0031C20.499 11.6841 20.4801 11.3649 20.4431 11.0649C19.9971 7.13694 16.603 4.50195 11.999 4.50195C6.99402 4.50195 3.49902 7.58605 3.49902 12.0031C3.49902 13.9031 4.12792 15.587 5.31592 16.875C5.41992 16.987 5.46612 17.141 5.44312 17.292C5.25012 18.525 4.55291 19.6799 3.48291 20.5439C3.48891 20.5439 3.49595 20.5439 3.50195 20.5439C4.92695 20.5439 6.86995 20.336 8.04395 19.083C8.17895 18.939 8.38402 18.887 8.57202 18.952C9.63402 19.319 10.787 19.505 11.999 19.505C12.276 19.503 12.5 19.7271 12.5 20.0031ZM21 17H16C15.724 17 15.5 17.224 15.5 17.5C15.5 17.776 15.724 18 16 18H21C21.276 18 21.5 17.776 21.5 17.5C21.5 17.224 21.276 17 21 17ZM12.0039 11.25H11.989C11.577 11.25 11.25 11.585 11.25 12C11.25 12.415 11.5929 12.75 12.0039 12.75C12.4169 12.75 12.75 12.415 12.75 12C12.75 11.585 12.4159 11.25 12.0039 11.25ZM16.75 12C16.75 11.585 16.4159 11.25 16.0039 11.25H15.989C15.577 11.25 15.25 11.585 15.25 12C15.25 12.415 15.5929 12.75 16.0039 12.75C16.4159 12.75 16.75 12.415 16.75 12ZM7.98901 11.25C7.57701 11.25 7.25 11.585 7.25 12C7.25 12.415 7.59291 12.75 8.00391 12.75C8.41691 12.75 8.75 12.415 8.75 12C8.75 11.585 8.41591 11.25 8.00391 11.25H7.98901Z" />
</svg>
