<svg viewBox="0 0 24 24" fill="currentColor" stroke="currentColor" xmlns="http://www.w3.org/2000/svg">
<path d="M21.1931 20.005C20.5061 19.449 20.2349 18.827 20.1289 18.407C21.0259 17.345 21.499 16.001 21.499 14.502C21.499 12.237 20.396 10.3429 18.478 9.24194C18.262 5.25194 15.047 2.49902 10.499 2.49902C5.78902 2.49902 2.5 5.44697 2.5 9.66797C2.5 11.395 3.04791 12.941 4.08691 14.158C3.96791 14.652 3.65312 15.4061 2.81812 16.0811C2.53212 16.3231 2.42796 16.71 2.55396 17.066C2.67896 17.42 2.99997 17.653 3.36597 17.662C3.47897 17.666 3.59509 17.668 3.71509 17.668C4.96709 17.668 6.52911 17.425 7.64111 16.423C7.70111 16.442 7.7659 16.447 7.8269 16.465C8.6599 19.092 11.233 20.782 14.499 20.782C15.374 20.782 16.2 20.664 16.959 20.431C17.935 21.288 19.275 21.498 20.343 21.498C20.454 21.498 20.5639 21.4959 20.6689 21.4919C21.0219 21.4919 21.327 21.276 21.448 20.941C21.571 20.605 21.4741 20.239 21.1931 20.005ZM7.14307 15.514C6.25507 16.463 4.84292 16.675 3.66992 16.67C4.45792 15.959 4.9689 15.052 5.1189 14.09C5.1419 13.939 5.09594 13.786 4.99194 13.673C4.01494 12.617 3.5 11.2319 3.5 9.66895C3.5 6.03695 6.37802 3.5 10.499 3.5C14.62 3.5 17.499 6.03695 17.499 9.66895C17.499 13.3009 14.62 15.838 10.499 15.838C9.49902 15.838 8.5479 15.685 7.6709 15.382C7.4819 15.318 7.27807 15.37 7.14307 15.514ZM17.4529 19.521C17.3159 19.377 17.1091 19.3249 16.9221 19.3929C16.1911 19.6519 15.375 19.7841 14.499 19.7841C11.927 19.7841 9.85496 18.606 8.98096 16.724C9.47496 16.798 9.98102 16.839 10.499 16.839C14.928 16.839 18.0999 14.231 18.4629 10.41C19.7799 11.355 20.499 12.778 20.499 14.502C20.499 15.838 20.0579 17.022 19.2219 17.923C19.1179 18.035 19.072 18.1899 19.095 18.3409C19.221 19.1379 19.6261 19.892 20.2451 20.498C19.3961 20.483 18.1919 20.306 17.4529 19.521Z" />
</svg>
