<svg viewBox="0 0 24 24" fill="currentColor" stroke="currentColor" xmlns="http://www.w3.org/2000/svg">
<path d="M12.0039 11.25C12.4169 11.25 12.75 11.585 12.75 12C12.75 12.415 12.4159 12.75 12.0039 12.75C11.5929 12.75 11.25 12.415 11.25 12C11.25 11.585 11.577 11.25 11.989 11.25H12.0039ZM16.75 12C16.75 11.585 16.4159 11.25 16.0039 11.25H15.989C15.577 11.25 15.25 11.585 15.25 12C15.25 12.415 15.5929 12.75 16.0039 12.75C16.4159 12.75 16.75 12.415 16.75 12ZM7.98901 11.25C7.57701 11.25 7.25 11.585 7.25 12C7.25 12.415 7.59291 12.75 8.00391 12.75C8.41691 12.75 8.75 12.415 8.75 12C8.75 11.585 8.41591 11.25 8.00391 11.25H7.98901ZM12.9551 19.465C11.4611 19.6 9.919 19.415 8.573 18.95C8.385 18.885 8.17892 18.9371 8.04492 19.0811C6.87092 20.3341 4.92793 20.542 3.50293 20.542C3.49693 20.542 3.48989 20.542 3.48389 20.542C4.55389 19.677 5.25109 18.522 5.44409 17.29C5.46709 17.139 5.42089 16.986 5.31689 16.873C4.12889 15.586 3.5 13.901 3.5 12.001C3.5 7.58398 6.995 4.5 12 4.5C17.005 4.5 20.5 7.58398 20.5 12.001C20.5 12.277 20.724 12.501 21 12.501C21.276 12.501 21.5 12.277 21.5 12.001C21.5 6.99598 17.594 3.5 12 3.5C6.406 3.5 2.5 6.99598 2.5 12.001C2.5 14.065 3.16009 15.913 4.41309 17.361C4.27609 17.967 3.89692 18.923 2.84692 19.771C2.53492 20.035 2.42306 20.457 2.56006 20.844C2.69706 21.228 3.04512 21.4829 3.44312 21.4919C3.57812 21.4969 3.71589 21.499 3.85889 21.499C5.35789 21.499 7.2309 21.2069 8.5459 19.9919C9.9459 20.4299 11.5249 20.597 13.0459 20.46C13.3209 20.435 13.524 20.192 13.499 19.917C13.474 19.643 13.2201 19.439 12.9551 19.465ZM21.354 15.646C21.159 15.451 20.842 15.451 20.647 15.646L19.001 17.292L17.355 15.646C17.16 15.451 16.8429 15.451 16.6479 15.646C16.4529 15.841 16.4529 16.158 16.6479 16.353L18.2939 17.999L16.6479 19.645C16.4529 19.84 16.4529 20.1571 16.6479 20.3521C16.7459 20.4501 16.874 20.498 17.002 20.498C17.13 20.498 17.258 20.4491 17.356 20.3521L19.002 18.7061L20.6479 20.3521C20.7459 20.4501 20.874 20.498 21.002 20.498C21.13 20.498 21.258 20.4491 21.356 20.3521C21.551 20.1571 21.551 19.84 21.356 19.645L19.71 17.999L21.356 16.353C21.549 16.158 21.549 15.842 21.354 15.646Z" />
</svg>
