<svg viewBox="0 0 24 24" fill="currentColor" stroke="currentColor" xmlns="http://www.w3.org/2000/svg">
<path d="M19.75 9.49996V15.5C19.75 16.909 18.909 17.75 17.5 17.75H13C12.586 17.75 12.25 17.414 12.25 17C12.25 16.586 12.586 16.25 13 16.25H17.5C18.089 16.25 18.25 16.089 18.25 15.5V9.49996C18.25 8.91096 18.089 8.74996 17.5 8.74996H14C13.586 8.74996 13.25 8.41396 13.25 7.99996C13.25 7.58596 13.586 7.24996 14 7.24996H17.5C18.909 7.24996 19.75 8.09096 19.75 9.49996ZM8 16.25H4.5C3.911 16.25 3.75 16.089 3.75 15.5V9.49996C3.75 8.91096 3.911 8.74996 4.5 8.74996H9C9.414 8.74996 9.75 8.41396 9.75 7.99996C9.75 7.58596 9.414 7.24996 9 7.24996H4.5C3.091 7.24996 2.25 8.09096 2.25 9.49996V15.5C2.25 16.909 3.091 17.75 4.5 17.75H8C8.414 17.75 8.75 17.414 8.75 17C8.75 16.586 8.414 16.25 8 16.25ZM21 10.25C20.586 10.25 20.25 10.586 20.25 11V14C20.25 14.414 20.586 14.75 21 14.75C21.414 14.75 21.75 14.414 21.75 14V11C21.75 10.586 21.414 10.25 21 10.25ZM14.353 12.6721L10.5249 18.416C10.3819 18.63 10.1449 18.75 9.90088 18.75C9.79788 18.75 9.69592 18.729 9.59692 18.686C9.26392 18.538 9.0841 18.1721 9.1731 17.8181L10.04 14.3501H8.72803C8.24803 14.3501 7.80803 14.087 7.58203 13.663C7.35603 13.239 7.38095 12.7278 7.64795 12.3278L11.4761 6.58394C11.6791 6.27894 12.0701 6.16692 12.4041 6.31392C12.7371 6.46192 12.9169 6.82784 12.8279 7.18184L11.9609 10.6499H13.2729C13.7529 10.6499 14.1929 10.9129 14.4189 11.3369C14.6449 11.7609 14.62 12.2721 14.353 12.6721ZM12.8979 12.1499H11.3521C11.0351 12.1499 10.7399 12.006 10.5439 11.757C10.3739 11.54 10.3 11.2699 10.333 11.0009L9.10107 12.8501H10.647C10.964 12.8501 11.2591 12.9939 11.4551 13.2429C11.6251 13.4599 11.699 13.73 11.666 13.999L12.8979 12.1499Z" />
</svg>
