<svg viewBox="0 0 24 24" fill="currentColor" stroke="currentColor" xmlns="http://www.w3.org/2000/svg">
<path d="M18 6.25H12.75V6C12.75 5.586 13.087 5.25 13.5 5.25H14.5C15.74 5.25 16.75 4.241 16.75 3C16.75 2.586 16.414 2.25 16 2.25C15.586 2.25 15.25 2.586 15.25 3C15.25 3.414 14.913 3.75 14.5 3.75H13.5C12.26 3.75 11.25 4.759 11.25 6V6.25H6C3.582 6.25 2.25 7.582 2.25 10V17C2.25 19.418 3.582 20.75 6 20.75H18C20.418 20.75 21.75 19.418 21.75 17V10C21.75 7.582 20.418 6.25 18 6.25ZM20.25 17C20.25 18.577 19.577 19.25 18 19.25H6C4.423 19.25 3.75 18.577 3.75 17V10C3.75 8.423 4.423 7.75 6 7.75H18C19.577 7.75 20.25 8.423 20.25 10V17ZM19 11C19 11.414 18.664 11.75 18.25 11.75H16.5C16.086 11.75 15.75 11.414 15.75 11C15.75 10.586 16.086 10.25 16.5 10.25H18.25C18.664 10.25 19 10.586 19 11ZM17.75 14C17.75 14.414 17.414 14.75 17 14.75H15.5C15.086 14.75 14.75 14.414 14.75 14C14.75 13.586 15.086 13.25 15.5 13.25H17C17.414 13.25 17.75 13.586 17.75 14ZM15.75 17C15.75 17.414 15.414 17.75 15 17.75H9C8.586 17.75 8.25 17.414 8.25 17C8.25 16.586 8.586 16.25 9 16.25H15C15.414 16.25 15.75 16.586 15.75 17ZM7 11C7 11.552 6.552 12 6 12C5.448 12 5 11.552 5 11C5 10.448 5.448 10 6 10C6.552 10 7 10.448 7 11ZM8.5 11C8.5 10.448 8.948 10 9.5 10C10.052 10 10.5 10.448 10.5 11C10.5 11.552 10.052 12 9.5 12C8.948 12 8.5 11.552 8.5 11ZM12 11C12 10.448 12.448 10 13 10C13.552 10 14 10.448 14 11C14 11.552 13.552 12 13 12C12.448 12 12 11.552 12 11ZM11 14C11 13.448 11.448 13 12 13C12.552 13 13 13.448 13 14C13 14.552 12.552 15 12 15C11.448 15 11 14.552 11 14ZM8.5 15C7.948 15 7.5 14.552 7.5 14C7.5 13.448 7.948 13 8.5 13C9.052 13 9.5 13.448 9.5 14C9.5 14.552 9.052 15 8.5 15Z" />
</svg>
