<svg viewBox="0 0 24 24" fill="currentColor" stroke="currentColor" xmlns="http://www.w3.org/2000/svg">
<path d="M12.75 18.7119V21C12.75 21.414 12.414 21.75 12 21.75C11.586 21.75 11.25 21.414 11.25 21V18.7119C7.327 18.3339 4.25 15.02 4.25 11C4.25 10.586 4.586 10.25 5 10.25C5.414 10.25 5.75 10.586 5.75 11C5.75 14.446 8.554 17.25 12 17.25C15.446 17.25 18.25 14.446 18.25 11C18.25 10.586 18.586 10.25 19 10.25C19.414 10.25 19.75 10.586 19.75 11C19.75 15.02 16.673 18.3329 12.75 18.7119ZM7.25 11V7C7.25 4.381 9.381 2.25 12 2.25C14.619 2.25 16.75 4.381 16.75 7V11C16.75 13.619 14.619 15.75 12 15.75C9.381 15.75 7.25 13.619 7.25 11ZM8.75 11C8.75 12.792 10.208 14.25 12 14.25C13.792 14.25 15.25 12.792 15.25 11V7C15.25 5.208 13.792 3.75 12 3.75C10.208 3.75 8.75 5.208 8.75 7V11Z" />
</svg>
