<svg viewBox="0 0 24 24" fill="currentColor" stroke="currentColor" xmlns="http://www.w3.org/2000/svg">
<path d="M19.75 11C19.75 15.02 16.673 18.3329 12.75 18.7119V21C12.75 21.414 12.414 21.75 12 21.75C11.586 21.75 11.25 21.414 11.25 21V18.7019C10.838 18.6619 10.4309 18.6011 10.0359 18.4951C9.63691 18.3881 9.39813 17.9759 9.50613 17.5769C9.61313 17.1779 10.0221 16.9409 10.4251 17.0459C10.9311 17.1819 11.461 17.251 12 17.251C15.446 17.251 18.25 14.447 18.25 11.001C18.25 10.587 18.586 10.251 19 10.251C19.414 10.251 19.75 10.586 19.75 11ZM13.4141 15.5359C14.9031 15.0719 16.0699 13.9051 16.5359 12.4141C16.5579 12.3421 16.5701 12.2659 16.5701 12.1899V12.1799C16.5701 11.7659 16.2341 11.4351 15.8201 11.4351C15.4771 11.4351 15.1869 11.6689 15.0979 11.9839C14.7809 12.9789 14.0071 13.7599 13.0191 14.0869C12.6831 14.1609 12.4351 14.4611 12.4351 14.8201C12.4351 15.2341 12.776 15.5701 13.19 15.5701C13.267 15.5701 13.3421 15.5589 13.4141 15.5359ZM21.5301 3.53003L3.53005 21.53C3.38405 21.676 3.19202 21.75 3.00002 21.75C2.80802 21.75 2.61599 21.677 2.46999 21.53C2.17699 21.237 2.17699 20.762 2.46999 20.469L6.49099 16.448C5.04599 14.988 4.25002 13.055 4.25002 10.999C4.25002 10.585 4.58602 10.249 5.00002 10.249C5.41402 10.249 5.75002 10.585 5.75002 10.999C5.75002 12.654 6.39105 14.21 7.55105 15.387L8.62014 14.3181C7.75514 13.4401 7.25002 12.254 7.25002 10.998V6.99805C7.25002 5.74005 7.74201 4.54809 8.63601 3.64209C9.55101 2.74109 10.742 2.24805 12 2.24805C14.367 2.24805 16.319 3.99396 16.676 6.26196L20.47 2.46802C20.763 2.17502 21.238 2.17502 21.531 2.46802C21.824 2.76102 21.8231 3.23703 21.5301 3.53003ZM9.68606 13.2529L15.25 7.68896V7C15.25 5.208 13.792 3.75 12 3.75C11.139 3.75 10.3201 4.0891 9.69607 4.7041C9.08907 5.3201 8.75002 6.139 8.75002 7V11C8.75002 11.854 9.10006 12.6539 9.68606 13.2529Z" />
</svg>
