<svg viewBox="0 0 24 24" fill="currentColor" stroke="currentColor" xmlns="http://www.w3.org/2000/svg">
<path d="M14.75 11C14.75 11.414 14.414 11.75 14 11.75H10C9.586 11.75 9.25 11.414 9.25 11C9.25 10.586 9.586 10.25 10 10.25H14C14.414 10.25 14.75 10.586 14.75 11ZM19.75 7.75V11.343C19.75 12.593 19.2429 13.8169 18.3579 14.7009L14.969 18.0901C14.829 18.2301 14.749 18.4231 14.749 18.6201V21C14.749 21.414 14.413 21.75 13.999 21.75H9.99902C9.58502 21.75 9.24902 21.414 9.24902 21V18.6211C9.24902 18.4241 9.16905 18.2301 9.02905 18.0911L5.63989 14.7019C4.75489 13.8179 4.24805 12.594 4.24805 11.344V7.75098C4.24805 6.92398 4.92105 6.25098 5.74805 6.25098H7.74805V3C7.74805 2.586 8.08405 2.25 8.49805 2.25C8.91205 2.25 9.24805 2.586 9.24805 3V6.25H14.748V3C14.748 2.586 15.084 2.25 15.498 2.25C15.912 2.25 16.248 2.586 16.248 3V6.25H18.248C19.077 6.25 19.75 6.923 19.75 7.75ZM18.25 7.75H5.75V11.343C5.75 12.198 6.0969 13.0361 6.7019 13.6411L10.0911 17.03C10.5101 17.449 10.75 18.0291 10.75 18.6211V20.25H13.25V18.6211C13.25 18.0291 13.4899 17.449 13.9089 17.03L17.2981 13.6411C17.9031 13.0361 18.25 12.198 18.25 11.343V7.75Z" />
</svg>
