<svg viewBox="0 0 24 24" fill="currentColor" stroke="currentColor" xmlns="http://www.w3.org/2000/svg">
<path d="M18 6.24997H11.6221L16.238 4.71091C16.631 4.57991 16.8429 4.15493 16.7129 3.76193C16.5809 3.36893 16.1589 3.15505 15.7639 3.28805L6.87988 6.24899H6C3.582 6.24899 2.25 7.58099 2.25 9.99899V16.999C2.25 19.417 3.582 20.749 6 20.749H18C20.418 20.749 21.75 19.417 21.75 16.999V9.99899C21.75 7.58199 20.418 6.24997 18 6.24997ZM20.25 17C20.25 18.577 19.577 19.25 18 19.25H6C4.423 19.25 3.75 18.577 3.75 17V9.99997C3.75 8.42297 4.423 7.74997 6 7.74997H18C19.577 7.74997 20.25 8.42297 20.25 9.99997V17ZM8.5 10.25C6.708 10.25 5.25 11.708 5.25 13.5C5.25 15.292 6.708 16.75 8.5 16.75C10.292 16.75 11.75 15.292 11.75 13.5C11.75 11.708 10.292 10.25 8.5 10.25ZM8.5 15.25C7.535 15.25 6.75 14.465 6.75 13.5C6.75 12.535 7.535 11.75 8.5 11.75C9.465 11.75 10.25 12.535 10.25 13.5C10.25 14.465 9.465 15.25 8.5 15.25ZM18.75 12C18.75 12.414 18.414 12.75 18 12.75H14C13.586 12.75 13.25 12.414 13.25 12C13.25 11.586 13.586 11.25 14 11.25H18C18.414 11.25 18.75 11.586 18.75 12ZM18.75 15C18.75 15.414 18.414 15.75 18 15.75H14C13.586 15.75 13.25 15.414 13.25 15C13.25 14.586 13.586 14.25 14 14.25H18C18.414 14.25 18.75 14.586 18.75 15Z" />
</svg>
