<svg viewBox="0 0 24 24" fill="currentColor" stroke="currentColor" xmlns="http://www.w3.org/2000/svg">
<path d="M16 21.75H8C5.582 21.75 4.25 20.418 4.25 18V6C4.25 3.582 5.582 2.25 8 2.25H13.3789C13.9709 2.25 14.551 2.48994 14.97 2.90894L19.0911 7.03003C19.5101 7.44903 19.75 8.02909 19.75 8.62109V18C19.75 20.418 18.418 21.75 16 21.75ZM8 3.75C6.423 3.75 5.75 4.423 5.75 6V18C5.75 19.577 6.423 20.25 8 20.25H16C17.577 20.25 18.25 19.577 18.25 18V8.62109C18.25 8.42409 18.17 8.23006 18.03 8.09106L13.9089 3.96997C13.7689 3.82997 13.5759 3.75 13.3789 3.75H8ZM12.75 16V10C12.75 9.698 12.569 9.42608 12.291 9.30908C12.015 9.19008 11.6921 9.25089 11.4771 9.46289L9.97705 10.926C9.68005 11.215 9.67389 11.6901 9.96289 11.9871C10.2529 12.2831 10.7279 12.29 11.0239 12L11.251 11.7791V16C11.251 16.414 11.587 16.75 12.001 16.75C12.415 16.75 12.75 16.414 12.75 16Z" />
</svg>
