<svg viewBox="0 0 24 24" fill="currentColor" stroke="currentColor" xmlns="http://www.w3.org/2000/svg">
<path d="M18 3.25H6C3.582 3.25 2.25 4.66396 2.25 7.23096V14.769C2.25 17.336 3.582 18.75 6 18.75H18C20.418 18.75 21.75 17.336 21.75 14.769V7.23096C21.75 4.66396 20.418 3.25 18 3.25ZM20.25 14.769C20.25 16.508 19.577 17.25 18 17.25H6C4.423 17.25 3.75 16.508 3.75 14.769V7.23096C3.75 5.49196 4.423 4.75 6 4.75H18C19.577 4.75 20.25 5.49196 20.25 7.23096V14.769ZM17.75 21C17.75 21.414 17.414 21.75 17 21.75H7C6.586 21.75 6.25 21.414 6.25 21C6.25 20.586 6.586 20.25 7 20.25H17C17.414 20.25 17.75 20.586 17.75 21Z" />
</svg>
