<svg viewBox="0 0 24 24" fill="currentColor" stroke="currentColor" xmlns="http://www.w3.org/2000/svg">
<path d="M21.8999 6.20801C21.3739 5.95601 20.767 6.02492 20.312 6.38892L17.75 8.43896V8C17.75 5.582 16.418 4.25 14 4.25H5C2.582 4.25 1.25 5.582 1.25 8V16C1.25 18.418 2.582 19.75 5 19.75H14C16.418 19.75 17.75 18.418 17.75 16V15.561L20.313 17.6121C20.585 17.8301 20.9141 17.9419 21.2471 17.9419C21.4681 17.9419 21.6899 17.893 21.8999 17.792C22.4229 17.54 22.75 17.0209 22.75 16.4399V7.56104C22.75 6.97904 22.4239 6.46101 21.8999 6.20801ZM16.25 16C16.25 17.577 15.577 18.25 14 18.25H5C3.423 18.25 2.75 17.577 2.75 16V8C2.75 6.423 3.423 5.75 5 5.75H14C15.577 5.75 16.25 6.423 16.25 8V16ZM21.25 16.4399L17.75 13.6399V10.3611L21.25 7.56104V16.4399ZM12.6919 9.21289C12.7299 9.30489 12.75 9.402 12.75 9.5V12.5C12.75 12.914 12.414 13.25 12 13.25C11.586 13.25 11.25 12.914 11.25 12.5V11.311L7.53003 15.031C7.38403 15.177 7.192 15.251 7 15.251C6.808 15.251 6.61597 15.178 6.46997 15.031C6.17697 14.738 6.17697 14.263 6.46997 13.97L10.1899 10.25H9C8.586 10.25 8.25 9.914 8.25 9.5C8.25 9.086 8.586 8.75 9 8.75H12C12.098 8.75 12.1951 8.77011 12.2871 8.80811C12.4701 8.88411 12.6159 9.02989 12.6919 9.21289Z" />
</svg>
