<svg viewBox="0 0 24 24" fill="currentColor" stroke="currentColor" xmlns="http://www.w3.org/2000/svg">
<path d="M18 2.25H6C3.58 2.25 2.25 3.58 2.25 6V18C2.25 20.42 3.58 21.75 6 21.75H18C20.42 21.75 21.75 20.42 21.75 18V6C21.75 3.58 20.42 2.25 18 2.25ZM20.25 18C20.25 19.58 19.58 20.25 18 20.25H6C4.42 20.25 3.75 19.58 3.75 18V6C3.75 4.42 4.42 3.75 6 3.75H18C19.58 3.75 20.25 4.42 20.25 6V18ZM6.71 17.29C6.89 17.48 7 17.73 7 18C7 18.13 6.97 18.26 6.92 18.38C6.87 18.51 6.8 18.62 6.71 18.71C6.52 18.89 6.26 19 6 19C5.74 19 5.48 18.89 5.29 18.71C5.11 18.52 5 18.26 5 18C5 17.94 5 17.87 5.02 17.8C5.02 17.74 5.05 17.68 5.08 17.62C5.1 17.56 5.13 17.5 5.17 17.44C5.2 17.39 5.25 17.34 5.29 17.29C5.66 16.92 6.33 16.92 6.71 17.29ZM18.71 17.29C18.89 17.48 19 17.74 19 18C19 18.26 18.89 18.52 18.71 18.71C18.61 18.8 18.51 18.87 18.38 18.92C18.26 18.97 18.13 19 18 19C17.74 19 17.48 18.89 17.29 18.71C17.11 18.52 17 18.26 17 18C17 17.74 17.11 17.48 17.29 17.29C17.57 17.01 18.02 16.93 18.38 17.08C18.51 17.13 18.61 17.2 18.71 17.29ZM16.86 6.48C13.9 4.88 10.1 4.88 7.13 6.48C6.35 6.9 6.03 7.85 6.4 8.64L7.51 11.03C7.71 11.47 8.16 11.75 8.64 11.75H15.34C15.82 11.75 16.27 11.47 16.47 11.03L17.58 8.64C17.95 7.85 17.63 6.9 16.85 6.48H16.86ZM16.23 8.01L15.19 10.25H12.75V8.5C12.75 8.09 12.41 7.75 12 7.75C11.59 7.75 11.25 8.09 11.25 8.5V10.25H8.81L7.77 8.01C7.73 7.93 7.79 7.84 7.86 7.8C10.39 6.43 13.63 6.43 16.16 7.8C16.23 7.84 16.29 7.93 16.25 8.01H16.23Z" />
</svg>
