<svg viewBox="0 0 24 24" fill="currentColor" stroke="currentColor" xmlns="http://www.w3.org/2000/svg">
<path d="M21.75 11V15V15.75V18C21.75 18.41 21.41 18.75 21 18.75C20.59 18.75 20.25 18.41 20.25 18V15.75H12H3.75V18C3.75 18.414 3.414 18.75 3 18.75C2.586 18.75 2.25 18.414 2.25 18V6C2.25 5.586 2.586 5.25 3 5.25C3.414 5.25 3.75 5.586 3.75 6V14.25H11.25V8C11.25 7.59 11.59 7.25 12 7.25H18C20.42 7.25 21.75 8.58 21.75 11ZM7.5 12.5C8.881 12.5 10 11.381 10 10C10 8.619 8.881 7.5 7.5 7.5C6.119 7.5 5 8.619 5 10C5 11.381 6.119 12.5 7.5 12.5Z" />
</svg>
