<svg viewBox="0 0 24 24" fill="currentColor" stroke="currentColor" xmlns="http://www.w3.org/2000/svg">
<path d="M20.391 17.688C20.511 17.838 20.534 18.044 20.451 18.217C20.368 18.39 20.193 18.5 20 18.5H10C9.79802 18.5 9.61505 18.378 9.53805 18.191C9.46005 18.004 9.50302 17.789 9.64602 17.646L17.646 9.64599C17.79 9.50199 18.004 9.45999 18.191 9.53799C18.378 9.61499 18.5 9.79799 18.5 9.99999V12.5C18.5 15.292 20.372 17.664 20.391 17.688ZM21.5301 2.46999C21.2371 2.17699 20.762 2.17699 20.469 2.46999L17.458 5.481C16.27 3.65 14.225 2.49999 11.997 2.49999C8.41703 2.49999 5.49703 5.41999 5.49703 8.99999V12.5C5.49703 15.28 3.62702 17.66 3.60702 17.69C3.48702 17.84 3.46702 18.04 3.54702 18.22C3.62702 18.39 3.80703 18.5 3.99703 18.5H4.43801L2.46804 20.47C2.17504 20.763 2.17504 21.238 2.46804 21.531C2.61404 21.677 2.80601 21.751 2.99801 21.751C3.19001 21.751 3.38204 21.678 3.52804 21.531L21.528 3.531C21.823 3.238 21.8231 2.76199 21.5301 2.46999ZM13.73 19.5H10.27C10.091 19.5 9.92602 19.596 9.83602 19.751C9.74602 19.906 9.74804 20.098 9.83804 20.252C10.294 21.033 11.102 21.5 12 21.5C12.898 21.5 13.706 21.033 14.162 20.252C14.252 20.098 14.253 19.906 14.164 19.751C14.075 19.596 13.909 19.5 13.73 19.5Z" />
</svg>
