<svg viewBox="0 0 24 24" fill="currentColor" stroke="currentColor" xmlns="http://www.w3.org/2000/svg">
<path d="M21.5301 3.52999L3.53005 21.53C3.38405 21.676 3.19202 21.75 3.00002 21.75C2.80802 21.75 2.61599 21.677 2.46999 21.53C2.17699 21.237 2.17699 20.762 2.46999 20.469L9.44003 13.499H5.00002C4.80002 13.499 4.62 13.379 4.54 13.199C4.46 13.019 4.50003 12.809 4.63003 12.669L13.63 2.669C13.77 2.509 13.98 2.459 14.18 2.529C14.37 2.609 14.5 2.78899 14.5 2.99899V8.438L20.47 2.468C20.763 2.175 21.238 2.175 21.531 2.468C21.823 2.762 21.8231 3.23799 21.5301 3.52999ZM19 10.5H17C16.867 10.5 16.74 10.553 16.646 10.646L9.64602 17.646C9.55202 17.74 9.50002 17.867 9.50002 18V21C9.50002 21.207 9.62701 21.393 9.82101 21.467C9.88001 21.489 9.94002 21.5 10 21.5C10.139 21.5 10.275 21.442 10.372 21.334L19.372 11.334C19.504 11.187 19.538 10.977 19.457 10.796C19.376 10.616 19.197 10.5 19 10.5Z" />
</svg>
