<svg viewBox="0 0 24 24" fill="currentColor" stroke="currentColor" xmlns="http://www.w3.org/2000/svg">
<path d="M12 2C6.48 2 2 6.48 2 12C2 17.52 6.48 22 12 22C17.52 22 22 17.52 22 12C22 6.48 17.52 2 12 2ZM16.56 11.64L11.06 17.75C10.98 17.83 10.88 17.88 10.78 17.88C10.73 17.88 10.69 17.87 10.64 17.85C10.5 17.79 10.4 17.66 10.4 17.5V12.99H7.71997C7.56997 12.99 7.44 12.9 7.38 12.76C7.32 12.63 7.34 12.47 7.44 12.36L12.94 6.25C13.05 6.13 13.21 6.08999 13.36 6.14999C13.5 6.20999 13.6 6.34 13.6 6.5V11.01H16.28C16.43 11.01 16.56 11.1 16.62 11.24C16.68 11.37 16.66 11.53 16.56 11.64Z" />
</svg>
