<svg viewBox="0 0 24 24" fill="currentColor" stroke="currentColor" xmlns="http://www.w3.org/2000/svg">
<path d="M18.39 4.5V9.26001H5.46997V4.5C5.46997 3.49 5.95997 3 6.96997 3H14.25V6C14.25 6.41 14.59 6.75 15 6.75C15.42 6.75 15.75 6.41 15.75 6V3H16.89C17.88 3 18.39 3.49 18.39 4.5ZM18.5 10.76H5.5C5.22 10.76 5 10.99 5 11.26V11.92C5 12.76 5.53001 13.51 6.32001 13.8L9.67999 14.84C10.33 15.07 10.73 15.73 10.65 16.41L10.36 19.1C10.35 19.16 10.35 19.23 10.35 19.29C10.35 20.22 11.1 21 12.06 21C13.08 21 13.88 20.11 13.76 19.1L13.46 16.4C13.39 15.72 13.79 15.07 14.43 14.83L17.7 13.81C18.48 13.51 19 12.77 19 11.93V11.26C19 10.99 18.78 10.76 18.5 10.76Z" />
</svg>
