<svg viewBox="0 0 24 24" fill="currentColor" stroke="currentColor" xmlns="http://www.w3.org/2000/svg">
<path d="M21 21.75H16C15.586 21.75 15.25 21.414 15.25 21C15.25 20.586 15.586 20.25 16 20.25H21C21.414 20.25 21.75 20.586 21.75 21C21.75 21.414 21.414 21.75 21 21.75ZM3.44 12.56C2.85 13.15 2.85 14.1 3.44 14.68L4.34997 15.59L6.46997 13.47C6.75997 13.18 7.24002 13.18 7.53002 13.47C7.82002 13.76 7.82002 14.24 7.53002 14.53L5.40997 16.65L9.32 20.56C9.9 21.15 10.85 21.15 11.44 20.56L15.39 16.62L7.39001 8.62001L3.44 12.56ZM9.01 5.98902L8.29602 6.70301C8.10102 6.89801 8.10102 7.21498 8.29602 7.40998L16.589 15.703C16.784 15.898 17.101 15.898 17.296 15.703L18.01 14.989C18.576 14.423 18.75 13.575 18.453 12.832L17.356 10.09C17.111 9.47604 17.296 8.77401 17.812 8.36201L20.287 6.38203C21.171 5.67503 21.244 4.35702 20.443 3.55702C19.643 2.75702 18.325 2.83002 17.618 3.71302L15.638 6.188C15.225 6.704 14.523 6.88899 13.91 6.64399L11.168 5.54701C10.425 5.24901 9.576 5.42302 9.01 5.98902Z" />
</svg>
