<svg viewBox="0 0 24 24" fill="currentColor" stroke="currentColor" xmlns="http://www.w3.org/2000/svg">
<path d="M12 2C6.48 2 2 6.48 2 12C2 17.52 6.48 22 12 22C17.52 22 22 17.52 22 12C22 6.48 17.52 2 12 2ZM9.75 13.69C10.05 13.98 10.05 14.46 9.75 14.75C9.61 14.9 9.41 14.97 9.22 14.97C9.03 14.97 8.84 14.9 8.69 14.75L6.47 12.53C6.18 12.24 6.18 11.76 6.47 11.47L8.69 9.25C8.98 8.95 9.46 8.95 9.75 9.25C10.05 9.54 10.05 10.02 9.75 10.31L8.06 12L9.75 13.69ZM13.73 8.17999L11.73 16.18C11.64 16.52 11.34 16.75 11 16.75C10.94 16.75 10.88 16.74 10.82 16.73C10.42 16.63 10.17 16.22 10.27 15.82L12.27 7.82001C12.37 7.42001 12.78 7.16999 13.18 7.26999C13.58 7.36999 13.83 7.77999 13.73 8.17999ZM17.53 12.53L15.31 14.75C15.16 14.9 14.97 14.97 14.78 14.97C14.59 14.97 14.39 14.9 14.25 14.75C13.95 14.46 13.95 13.98 14.25 13.69L15.94 12L14.25 10.31C13.95 10.02 13.95 9.54 14.25 9.25C14.54 8.95 15.02 8.95 15.31 9.25L17.53 11.47C17.82 11.76 17.82 12.24 17.53 12.53Z" />
</svg>
