<svg viewBox="0 0 24 24" fill="currentColor" stroke="currentColor" xmlns="http://www.w3.org/2000/svg">
<path d="M19.5 14C19.5 18.135 16.136 21.5 12 21.5C7.864 21.5 4.5 18.135 4.5 14C4.5 11.752 5.142 10.151 6.646 8.64598C6.941 8.34998 7.275 8.05397 7.621 7.74797C9.037 6.49397 10.5 5.19701 10.5 2.99901C10.5 2.81501 10.602 2.64497 10.764 2.55797C10.926 2.47097 11.123 2.47999 11.277 2.58299C11.337 2.62299 16.915 6.44596 14.055 13.014C14.726 12.639 15.529 12.024 16.022 11.069C16.338 10.457 16.499 9.76101 16.499 8.99901C16.499 8.79601 16.622 8.61299 16.81 8.53599C16.996 8.45899 17.213 8.50299 17.356 8.64799C18.719 10.033 19.5 11.984 19.5 14Z" />
</svg>
