<svg viewBox="0 0 24 24" fill="currentColor" stroke="currentColor" xmlns="http://www.w3.org/2000/svg">
<path d="M6.82999 12.75C6.97999 15.83 8.01999 18.97 9.82999 21.76C5.58999 20.82 2.36 17.19 2.03 12.75H6.82999ZM9.82999 2.23999C5.58999 3.17999 2.36 6.81 2.03 11.25H6.82999C6.97999 8.17 8.01999 5.02999 9.82999 2.23999ZM12.2 2H11.8L11.5 2.42999C9.6 5.12999 8.48999 8.23 8.32999 11.25H15.67C15.51 8.23 14.4 5.12999 12.5 2.42999L12.2 2ZM8.32999 12.75C8.48999 15.77 9.6 18.87 11.5 21.57L11.8 22H12.2L12.5 21.57C14.4 18.87 15.51 15.77 15.67 12.75H8.32999ZM17.17 12.75C17.02 15.83 15.98 18.97 14.17 21.76C18.41 20.82 21.64 17.19 21.97 12.75H17.17ZM21.97 11.25C21.64 6.81 18.41 3.17999 14.17 2.23999C15.98 5.02999 17.02 8.17 17.17 11.25H21.97Z" />
</svg>
