<svg viewBox="0 0 24 24" fill="currentColor" stroke="currentColor" xmlns="http://www.w3.org/2000/svg">
<path d="M12 3.59998C13.1 3.59998 14.1 4.49998 14.1 5.69998C14.1 6.79998 13.2 7.79998 12 7.79998C10.8 7.79998 9.89999 6.79998 9.89999 5.59998C9.89999 4.49998 10.9 3.59998 12 3.59998Z" />
<path d="M7.3 17.9C7.2 18.4 6.8 18.9 6.3 19.2C6 19.4 5.6 19.5 5.3 19.5C4.6 19.5 3.9 19.1 3.5 18.5C2.9 17.5 3.3 16.2 4.3 15.7C4.6 15.5 5 15.4 5.3 15.4C6 15.4 6.7 15.8 7.1 16.4C7.3 16.8 7.4 17.3 7.3 17.9Z" />
<path d="M20.6 14.2C20.6 13.9 20.6 13.7 20.6 13.5C20.6 10.1 18.6 7.1 15.7 5.7C15.6 3.6 14 2 12 2C10 2 8.4 3.6 8.4 5.6C5.5 7 3.4 10 3.4 13.4C3.4 13.6 3.4 13.9 3.4 14.1C1.7 15.1 1.1 17.3 2.1 19.1C2.8 20.3 4 21 5.3 21C5.9 21 6.5 20.8 7.1 20.5C8.5 21.5 10.2 22 12 22C13.8 22 15.5 21.4 16.9 20.5C17.5 20.8 18.1 21 18.7 21C20 21 21.2 20.3 21.9 19.2C22.9 17.4 22.3 15.2 20.6 14.2ZM19 13.7C18.9 13.7 18.8 13.7 18.7 13.7C17.4 13.7 16.2 14.4 15.5 15.5C14.8 16.7 14.9 18.2 15.6 19.4C14.5 20.1 13.2 20.5 11.9 20.5C10.6 20.5 9.3 20 8.3 19.4C9.1 18.3 9.2 16.8 8.4 15.5C7.7 14.3 6.5 13.7 5.2 13.7C5.1 13.7 5 13.7 4.9 13.7C4.9 13.6 4.9 13.5 4.9 13.4C4.9 10.7 6.4 8.4 8.6 7.2C9.2 8.4 10.4 9.2 11.9 9.2C13.4 9.2 14.6 8.4 15.2 7.2C17.4 8.4 18.9 10.7 18.9 13.4C19 13.5 19 13.6 19 13.7Z" />
<path d="M20.5 18.4C20.1 19 19.4 19.4 18.7 19.4C18.3 19.4 18 19.3 17.7 19.1C16.7 18.5 16.4 17.3 16.9 16.3C17.3 15.7 18 15.3 18.7 15.3C19.1 15.3 19.4 15.4 19.7 15.6C20.8 16.1 21.1 17.4 20.5 18.4Z" />
</svg>
