<svg viewBox="0 0 24 24" fill="currentColor" stroke="currentColor" xmlns="http://www.w3.org/2000/svg">
<path d="M5.84999 3.42999L5.86999 2.96001C5.89999 2.42001 6.33999 2 6.87999 2H17.13C17.66 2 18.1 2.42 18.13 2.95L18.15 3.42999C18.15 3.59999 18.02 3.74001 17.85 3.74001H6.13999C5.96999 3.74001 5.82999 3.6 5.83999 3.42L5.84999 3.42999ZM17.61 7.24001C17.78 7.24001 17.94 7.2 18.09 7.14C18.09 7.14 18.33 7.03 18.33 6.88C18.33 6.73 18.25 5.53 18.25 5.53C18.25 5.37 18.11 5.25 17.95 5.25H16.05C15.88 5.25 15.74 5.39001 15.75 5.57001C15.75 5.60001 15.75 5.64 15.75 5.67C15.85 6.59 16.68 7.29 17.6 7.25L17.61 7.24001ZM8.23999 5.66C8.23999 5.66 8.23999 5.59 8.23999 5.56C8.23999 5.39 8.10999 5.24001 7.93999 5.24001H6.03999C5.87999 5.24001 5.74999 5.37 5.73999 5.52C5.73999 5.52 5.66 6.72 5.66 6.87C5.66 7.02 5.89999 7.13 5.89999 7.13C6.04999 7.19 6.19999 7.22 6.37999 7.23C7.29999 7.28 8.13 6.56999 8.23 5.64999L8.23999 5.66ZM18.42 9.02C18.42 8.7 18.16 8.67 18.05 8.69C17.87 8.72 17.69 8.74001 17.5 8.74001C15.71 8.74001 14.25 7.28001 14.25 5.49001C14.25 5.41001 14.25 5.24001 13.95 5.24001H10.06C9.78999 5.24001 9.75999 5.41001 9.75999 5.49001C9.75999 7.28001 8.29999 8.74001 6.50999 8.74001C6.29999 8.74001 6.1 8.72 5.91 8.69C5.81 8.67 5.58999 8.78 5.58999 9.02C5.58999 9.26 5.00999 20.93 5.00999 20.93C4.97999 21.51 5.43999 21.99 6.01999 21.99H8.17999C8.64999 21.99 9.06 21.66 9.16 21.2L11.81 9.12C11.86 8.91 12.16 8.91 12.21 9.12L14.86 21.2C14.96 21.66 15.37 21.99 15.84 21.99H18C18.58 21.99 19.04 21.51 19.01 20.93C19.01 20.93 18.43 9.34 18.43 9.02H18.42Z" />
</svg>
