<svg viewBox="0 0 24 24" fill="currentColor" stroke="currentColor" xmlns="http://www.w3.org/2000/svg">
<path d="M20.84 13.32L18.27 18.45C18.1 18.79 17.75 19 17.38 19H14.81C14.44 19 14.2 18.61 14.36 18.28L17 13H14.5C13.67 13 13 12.33 13 11.5V6.5C13 5.67 13.67 5 14.5 5H19.5C20.33 5 21 5.67 21 6.5V12.65C21 12.88 20.95 13.11 20.84 13.32ZM11 12.65V6.5C11 5.67 10.33 5 9.5 5H4.5C3.67 5 3 5.67 3 6.5V11.5C3 12.33 3.67 13 4.5 13H7L4.36 18.28C4.19 18.61 4.44 19 4.81 19H7.38C7.76 19 8.11 18.79 8.27 18.45L10.84 13.32C10.94 13.11 11 12.88 11 12.65Z" />
</svg>
