<svg viewBox="0 0 24 24" fill="currentColor" stroke="currentColor" xmlns="http://www.w3.org/2000/svg">
<path d="M8.90001 7.08C7.69001 8.78 7.06001 10.44 6.42001 12.51L3.05002 13.26C3.05002 13.26 3.02001 13.27 3.00001 13.27C2.93001 13.27 2.86001 13.24 2.81001 13.18C2.75001 13.11 2.73002 13.01 2.77002 12.93L3.73001 10.54C4.40001 8.85 5.94002 7.61 7.74002 7.32L8.90001 7.08ZM10.76 20.95C10.74 21.04 10.77 21.13 10.84 21.19C10.88 21.23 10.94 21.25 11 21.25C11.03 21.25 11.06 21.24 11.09 21.23L13.48 20.27C15.18 19.6 16.42 18.07 16.7 16.28L16.93 15.2C15.22 16.4 13.56 17 11.51 17.58L10.76 20.95ZM7.55002 12.26C7.40002 12.73 7.25001 13.22 7.09001 13.74C7.03001 13.91 7.08002 14.11 7.21002 14.24L9.73001 16.76C9.83001 16.86 9.96001 16.91 10.09 16.91C10.13 16.91 10.18 16.9 10.22 16.89C10.76 16.74 11.28 16.6 11.76 16.46C12.49 16.25 13.15 16.03 13.78 15.77L8.27002 10.27C8.01002 10.89 7.78002 11.55 7.55002 12.26ZM18.65 12.45C18.13 12.97 17.63 13.42 17.15 13.81C16.35 14.45 15.58 14.94 14.76 15.33L14.74 15.31L8.74002 9.32C8.74002 9.32 8.73002 9.31 8.72002 9.31C9.13002 8.47 9.64001 7.67 10.31 6.85C10.69 6.39 11.12 5.92 11.62 5.42C13.6 3.43 16.25 3 18.17 3C19.16 3 19.95 3.11 20.37 3.19C20.58 3.23 20.73 3.38 20.77 3.58C21.01 4.83 21.66 9.44 18.65 12.45ZM17.5 8.78C17.5 7.54 16.49 6.53 15.25 6.53C14.01 6.53 13 7.54 13 8.78C13 10.02 14.01 11.02 15.25 11.02C16.49 11.02 17.5 10.02 17.5 8.78Z" />
</svg>
