<svg viewBox="0 0 24 24" fill="currentColor" stroke="currentColor" xmlns="http://www.w3.org/2000/svg">
<path fill-rule="evenodd" clip-rule="evenodd" d="M21.53 20.47L17.16 16.1C18.31 14.72 19 12.94 19 11C19 6.58 15.42 3 11 3C6.58 3 3 6.58 3 11C3 15.42 6.58 19 11 19C12.94 19 14.72 18.31 16.1 17.16L20.47 21.53C20.62 21.68 20.81 21.75 21 21.75C21.19 21.75 21.38 21.68 21.53 21.53C21.82 21.24 21.82 20.76 21.53 20.47ZM14 11.75H11.75V14C11.75 14.41 11.41 14.75 11 14.75C10.59 14.75 10.25 14.41 10.25 14V11.75H8C7.59 11.75 7.25 11.41 7.25 11C7.25 10.59 7.59 10.25 8 10.25H10.25V8C10.25 7.59 10.59 7.25 11 7.25C11.41 7.25 11.75 7.59 11.75 8V10.25H14C14.41 10.25 14.75 10.59 14.75 11C14.75 11.41 14.41 11.75 14 11.75Z" />
</svg>
