<svg viewBox="0 0 24 24" fill="currentColor" stroke="currentColor" xmlns="http://www.w3.org/2000/svg">
<path fill-rule="evenodd" clip-rule="evenodd" d="M21.72 20.47L17.35 16.1C18.5 14.71 19.19 12.94 19.19 11C19.19 6.58 15.61 3 11.19 3C6.77 3 3.19 6.58 3.19 11C3.19 15.41 6.77 19 11.19 19C13.13 19 14.91 18.31 16.29 17.16L20.66 21.53C20.81 21.68 21 21.75 21.19 21.75C21.38 21.75 21.57 21.68 21.72 21.53C22.01 21.24 22.01 20.76 21.72 20.47ZM12 13.25H8C7.59 13.25 7.25 12.91 7.25 12.5C7.25 12.09 7.59 11.75 8 11.75H12C12.41 11.75 12.75 12.09 12.75 12.5C12.75 12.91 12.41 13.25 12 13.25ZM14 10.25H8C7.59 10.25 7.25 9.91 7.25 9.5C7.25 9.09 7.59 8.75 8 8.75H14C14.41 8.75 14.75 9.09 14.75 9.5C14.75 9.91 14.41 10.25 14 10.25Z" />
</svg>
