<svg viewBox="0 0 24 24" fill="currentColor" stroke="currentColor" xmlns="http://www.w3.org/2000/svg">
<path d="M16.01 3.03002L20.34 4.61003C20.74 4.75003 21 5.13003 21 5.55003V8.68002C21 9.34002 20.36 9.82002 19.73 9.64002L17.5 9.00002V19.5C17.5 20.33 16.83 21 16 21H8C7.17 21 6.5 20.33 6.5 19.5V9.00002L4.27 9.64002C3.63 9.82002 3 9.34002 3 8.68002V5.55003C3 5.13003 3.26 4.75003 3.66 4.61003L7.99 3.03002C8.25 2.94002 8.54 3.07003 8.63 3.33003C8.92 4.18003 9.76 5.85003 12 5.85003C14.24 5.85003 15.08 4.18003 15.37 3.33003C15.46 3.07003 15.75 2.94002 16.01 3.03002Z" />
</svg>
