<svg viewBox="0 0 24 24" fill="currentColor" stroke="currentColor" xmlns="http://www.w3.org/2000/svg">
<path d="M4.85 14.75C4.23 14.75 2.94 14.75 2.35 14.75C2.19 14.75 2.06 14.63 2.05 14.48C2.01 14.02 1.99 13.53 1.99 13C1.99 12.69 1.99 12.39 2.01 12.1C2.02 11.86 2.22 11.79 2.33 11.8C3.23 11.89 4.75 12.31 5.14 14.39C5.17 14.57 5.03 14.74 4.85 14.74V14.75ZM18 10.02C17.7 10.02 17.39 9.99002 17.09 9.94002L15.53 11.5C15.38 11.64 15.19 11.72 15 11.72C14.81 11.72 14.62 11.64 14.47 11.5C14.18 11.2 14.18 10.73 14.47 10.44L15.44 9.47002C15 9.30002 14.57 9.10001 14.17 8.89001L12.53 10.53C12.38 10.67 12.19 10.75 12 10.75C11.81 10.75 11.62 10.67 11.47 10.53C11.18 10.23 11.18 9.76002 11.47 9.47002L12.84 8.10002C11.93 7.52002 11.34 7.02002 11.34 7.02002C11.24 6.98002 11.13 7.00002 11.05 7.07002C8.99 8.86002 5.38 8.92002 3.47 7.24002C3.31 7.11002 3.08 7.14002 3 7.32002C2.8 7.76002 2.47 8.65002 2.25 9.97002C2.22 10.14 2.35 10.3 2.52 10.32C4.88 10.55 6.37 12.02 6.68 14.49C6.7 14.64 6.82 14.76 6.97 14.76H21.7C22.01 14.76 22 14.54 22 14.54V14.1C22 14.1 21.88 10.03 18 10.03V10.02ZM21.75 16.25H2.56C2.41 16.25 2.29 16.4 2.31 16.55C2.32 16.63 2.34 16.71 2.35 16.78C2.47 17.49 3.1 18 3.82 18H20.5C21.33 18 22 17.33 22 16.5C22 16.36 21.89 16.25 21.75 16.25Z" />
</svg>
