<svg viewBox="0 0 24 24" fill="currentColor" stroke="currentColor" xmlns="http://www.w3.org/2000/svg">
<path d="M2 5C2 4.448 2.448 4 3 4H7V3C7 2.448 7.448 2 8 2C8.552 2 9 2.448 9 3V7C9 7.552 8.552 8 8 8C7.448 8 7 7.552 7 7V6H3C2.448 6 2 5.552 2 5ZM12 6H21C21.552 6 22 5.552 22 5C22 4.448 21.552 4 21 4H12C11.448 4 11 4.448 11 5C11 5.552 11.448 6 12 6ZM3 13H12C12.552 13 13 12.552 13 12C13 11.448 12.552 11 12 11H3C2.448 11 2 11.448 2 12C2 12.552 2.448 13 3 13ZM21 11H17V10C17 9.448 16.552 9 16 9C15.448 9 15 9.448 15 10V14C15 14.552 15.448 15 16 15C16.552 15 17 14.552 17 14V13H21C21.552 13 22 12.552 22 12C22 11.448 21.552 11 21 11ZM8 16C7.448 16 7 16.448 7 17V18H3C2.448 18 2 18.448 2 19C2 19.552 2.448 20 3 20H7V21C7 21.552 7.448 22 8 22C8.552 22 9 21.552 9 21V17C9 16.448 8.552 16 8 16ZM21 18H12C11.448 18 11 18.448 11 19C11 19.552 11.448 20 12 20H21C21.552 20 22 19.552 22 19C22 18.448 21.552 18 21 18Z" />
</svg>
