<svg viewBox="0 0 24 24" fill="currentColor" stroke="currentColor" xmlns="http://www.w3.org/2000/svg">
<path d="M20.5 6C20.5 7.93 18.93 9.5 17 9.5C15.07 9.5 13.5 7.93 13.5 6C13.5 4.07 15.07 2.5 17 2.5C18.93 2.5 20.5 4.07 20.5 6ZM7 14.5C5.07 14.5 3.5 16.07 3.5 18C3.5 19.93 5.07 21.5 7 21.5C8.93 21.5 10.5 19.93 10.5 18C10.5 16.07 8.93 14.5 7 14.5ZM17.75 21V15C17.75 14.586 17.414 14.25 17 14.25C16.586 14.25 16.25 14.586 16.25 15V21C16.25 21.414 16.586 21.75 17 21.75C17.414 21.75 17.75 21.414 17.75 21ZM7.75 9V3C7.75 2.586 7.414 2.25 7 2.25C6.586 2.25 6.25 2.586 6.25 3V9C6.25 9.414 6.586 9.75 7 9.75C7.414 9.75 7.75 9.414 7.75 9Z" />
</svg>
