<svg viewBox="0 0 24 24" fill="currentColor" stroke="currentColor" xmlns="http://www.w3.org/2000/svg">
<path d="M6.8077 13.3588H2V15.7946H6.8077V13.3588Z" />
<path d="M6.8077 9.76923H2V12.205H6.8077V9.76923Z" />
<path d="M11.6154 9.76923H7.96155V12.205H11.6154V9.76923Z" />
<path d="M11.6154 13.3588H7.96155V15.7946H11.6154V13.3588Z" />
<path d="M22 13.3588H17.5769V15.7946H22V13.3588Z" />
<path d="M20.2692 4H3.73078C2.77641 4 2 4.77641 2 5.73074V8.61535H22V5.73074C22 4.77641 21.2236 4 20.2692 4Z" />
<path d="M22 9.76923H17.5769V12.205H22V9.76923Z" />
<path d="M2 16.9487V18.8077C2 19.762 2.77641 20.5385 3.73078 20.5385H6.8077V16.9487H2Z" />
<path d="M16.423 9.76923H12.7692V12.205H16.423V9.76923Z" />
<path d="M11.6154 16.9489H7.96155V20.5385H11.6154V16.9489Z" />
<path d="M17.5769 16.9487V20.5385H20.2692C21.2235 20.5385 22 19.7621 22 18.8077V16.9487H17.5769Z" />
<path d="M16.423 13.3588H12.7692V15.7946H16.423V13.3588Z" />
<path d="M16.423 16.9489H12.7692V20.5385H16.423V16.9489Z" />
</svg>
