<svg viewBox="0 0 24 24" fill="currentColor" stroke="currentColor" xmlns="http://www.w3.org/2000/svg">
<path d="M17.63 3H6.38C4.13 3 3 4.12 3 6.37V17.62C3 19.87 4.13 21 6.38 21H17.63C19.88 21 21 19.87 21 17.62V6.37C21 4.12 19.88 3 17.63 3ZM15.53 14.47C15.82 14.76 15.82 15.24 15.53 15.53C15.38 15.68 15.19 15.75 15 15.75C14.81 15.75 14.62 15.68 14.47 15.53L12 13.06L9.53003 15.53C9.38003 15.68 9.19 15.75 9 15.75C8.81 15.75 8.61997 15.68 8.46997 15.53C8.17997 15.24 8.17997 14.76 8.46997 14.47L10.94 12L8.46997 9.53003C8.17997 9.24003 8.17997 8.75997 8.46997 8.46997C8.75997 8.17997 9.24003 8.17997 9.53003 8.46997L12 10.94L14.47 8.46997C14.76 8.17997 15.24 8.17997 15.53 8.46997C15.82 8.75997 15.82 9.24003 15.53 9.53003L13.06 12L15.53 14.47Z" />
</svg>
