<svg viewBox="0 0 24 24" fill="currentColor" stroke="currentColor" xmlns="http://www.w3.org/2000/svg">
<path d="M18.56 7.75H5.44C5.27 7.75 5.13001 7.90001 5.14001 8.07001L5.81 18.2C5.92 19.78 6.75 21 8.81 21H15.19C17.25 21 18.08 19.78 18.19 18.2L18.86 8.07001C18.87 7.90001 18.73 7.75 18.56 7.75ZM15.13 16.68C15.04 17.02 14.74 17.25 14.4 17.25C14.34 17.25 14.28 17.24 14.22 17.23C13.82 17.13 13.57 16.72 13.67 16.32C13.9 15.39 13.63 14.42 12.96 13.72C12.47 13.21 11.81 12.94 11.14 12.93L11.38 13.17C11.67 13.47 11.67 13.94 11.38 14.23C11.23 14.38 11.04 14.45 10.85 14.45C10.66 14.45 10.47 14.38 10.32 14.23L8.97 12.88C8.68 12.59 8.68 12.11 8.97 11.82L10.32 10.47C10.61 10.18 11.09 10.18 11.38 10.47C11.65 10.74 11.66 11.16 11.43 11.45C12.4 11.54 13.33 11.95 14.04 12.68C15.07 13.75 15.48 15.24 15.13 16.68ZM20 5.25H15.79C15.69 5.07 15.62 4.86 15.54 4.63L15.34 4.03C15.14 3.41 14.56 3 13.92 3H10.08C9.43999 3 8.86 3.41 8.66 4.03L8.45999 4.63C8.37999 4.86 8.30999 5.07 8.20999 5.25H4C3.59 5.25 3.25 5.59 3.25 6C3.25 6.41 3.59 6.75 4 6.75H20C20.41 6.75 20.75 6.41 20.75 6C20.75 5.59 20.41 5.25 20 5.25Z" />
</svg>
