<svg viewBox="0 0 24 24" fill="currentColor" stroke="currentColor" xmlns="http://www.w3.org/2000/svg">
<path d="M18.56 7.75H5.44C5.267 7.75 5.12899 7.89701 5.14099 8.07001L5.81 18.2C5.92 19.78 6.75 21 8.81 21H15.19C17.25 21 18.08 19.78 18.19 18.2L18.859 8.07001C18.87 7.89701 18.733 7.75 18.56 7.75ZM14.5 14.75H9.5C9.086 14.75 8.75 14.414 8.75 14C8.75 13.586 9.086 13.25 9.5 13.25H14.5C14.914 13.25 15.25 13.586 15.25 14C15.25 14.414 14.914 14.75 14.5 14.75ZM20.75 6C20.75 6.414 20.414 6.75 20 6.75H4C3.586 6.75 3.25 6.414 3.25 6C3.25 5.586 3.586 5.25 4 5.25H8.21399C8.30699 5.068 8.37899 4.862 8.45599 4.632L8.65799 4.02499C8.86199 3.41299 9.43499 3 10.081 3H13.919C14.565 3 15.138 3.41299 15.342 4.02499L15.544 4.632C15.621 4.862 15.693 5.068 15.786 5.25H20C20.414 5.25 20.75 5.586 20.75 6Z" />
</svg>
