<svg viewBox="0 0 24 24" fill="currentColor" stroke="currentColor" xmlns="http://www.w3.org/2000/svg">
<path d="M18.56 7.75H5.44C5.27 7.75 5.13001 7.90001 5.14001 8.07001L5.81 18.2C5.92 19.78 6.75 21 8.81 21H15.19C17.25 21 18.08 19.78 18.19 18.2L18.86 8.07001C18.87 7.90001 18.73 7.75 18.56 7.75ZM15.03 12.88L13.68 14.23C13.53 14.38 13.34 14.45 13.15 14.45C12.96 14.45 12.77 14.38 12.62 14.23C12.33 13.94 12.33 13.47 12.62 13.17L12.86 12.93C12.19 12.94 11.53 13.21 11.04 13.72C10.37 14.42 10.1 15.39 10.33 16.32C10.43 16.72 10.18 17.13 9.78003 17.23C9.72003 17.24 9.65998 17.25 9.59998 17.25C9.25998 17.25 8.96 17.02 8.87 16.68C8.52 15.24 8.93002 13.75 9.96002 12.68C10.67 11.95 11.6 11.54 12.57 11.45C12.34 11.16 12.35 10.74 12.62 10.47C12.91 10.18 13.39 10.18 13.68 10.47L15.03 11.82C15.32 12.11 15.32 12.59 15.03 12.88ZM20 5.25H15.79C15.69 5.07 15.62 4.86 15.54 4.63L15.34 4.03C15.14 3.41 14.56 3 13.92 3H10.08C9.44002 3 8.85997 3.41 8.65997 4.03L8.46002 4.63C8.38002 4.86 8.31002 5.07 8.21002 5.25H4C3.59 5.25 3.25 5.59 3.25 6C3.25 6.41 3.59 6.75 4 6.75H20C20.41 6.75 20.75 6.41 20.75 6C20.75 5.59 20.41 5.25 20 5.25Z" />
</svg>
