<svg viewBox="0 0 24 24" fill="currentColor" stroke="currentColor" xmlns="http://www.w3.org/2000/svg">
<path d="M21.5 5.5V4.5C21.5 3.229 20.771 2.5 19.5 2.5H18.5C17.317 2.5 16.612 3.138 16.519 4.25H7.48199C7.38899 3.138 6.68398 2.5 5.50098 2.5H4.50098C3.22998 2.5 2.50098 3.229 2.50098 4.5V5.5C2.50098 6.683 3.13898 7.38799 4.25098 7.48099V16.518C3.13898 16.611 2.50098 17.316 2.50098 18.499V19.499C2.50098 20.77 3.22998 21.499 4.50098 21.499H5.50098C6.68398 21.499 7.38899 20.861 7.48199 19.749H16.519C16.612 20.861 17.317 21.499 18.5 21.499H19.5C20.771 21.499 21.5 20.77 21.5 19.499V18.499C21.5 17.316 20.862 16.611 19.75 16.518V7.48099C20.862 7.38799 21.5 6.683 21.5 5.5ZM16.519 18.25H7.48199C7.39599 17.221 6.77998 16.605 5.75098 16.519V7.48199C6.77998 7.39599 7.39599 6.78001 7.48199 5.75101H16.519C16.605 6.78001 17.221 7.39599 18.25 7.48199V16.519C17.221 16.605 16.605 17.221 16.519 18.25Z" />
</svg>
