<svg viewBox="0 0 24 24" fill="currentColor" stroke="currentColor" xmlns="http://www.w3.org/2000/svg">
<path d="M8 16.5C6.621 16.5 5.5 17.622 5.5 19C5.5 20.378 6.621 21.5 8 21.5C9.379 21.5 10.5 20.378 10.5 19C10.5 17.622 9.379 16.5 8 16.5ZM8 20.5C7.173 20.5 6.5 19.827 6.5 19C6.5 18.173 7.173 17.5 8 17.5C8.827 17.5 9.5 18.173 9.5 19C9.5 19.827 8.827 20.5 8 20.5ZM8 9.5C6.621 9.5 5.5 10.622 5.5 12C5.5 13.378 6.621 14.5 8 14.5C9.379 14.5 10.5 13.378 10.5 12C10.5 10.622 9.379 9.5 8 9.5ZM8 13.5C7.173 13.5 6.5 12.827 6.5 12C6.5 11.173 7.173 10.5 8 10.5C8.827 10.5 9.5 11.173 9.5 12C9.5 12.827 8.827 13.5 8 13.5ZM8 2.5C6.621 2.5 5.5 3.622 5.5 5C5.5 6.378 6.621 7.5 8 7.5C9.379 7.5 10.5 6.378 10.5 5C10.5 3.622 9.379 2.5 8 2.5ZM8 6.5C7.173 6.5 6.5 5.827 6.5 5C6.5 4.173 7.173 3.5 8 3.5C8.827 3.5 9.5 4.173 9.5 5C9.5 5.827 8.827 6.5 8 6.5ZM16 16.5C14.621 16.5 13.5 17.622 13.5 19C13.5 20.378 14.621 21.5 16 21.5C17.379 21.5 18.5 20.378 18.5 19C18.5 17.622 17.379 16.5 16 16.5ZM16 20.5C15.173 20.5 14.5 19.827 14.5 19C14.5 18.173 15.173 17.5 16 17.5C16.827 17.5 17.5 18.173 17.5 19C17.5 19.827 16.827 20.5 16 20.5ZM16 9.5C14.621 9.5 13.5 10.622 13.5 12C13.5 13.378 14.621 14.5 16 14.5C17.379 14.5 18.5 13.378 18.5 12C18.5 10.622 17.379 9.5 16 9.5ZM16 13.5C15.173 13.5 14.5 12.827 14.5 12C14.5 11.173 15.173 10.5 16 10.5C16.827 10.5 17.5 11.173 17.5 12C17.5 12.827 16.827 13.5 16 13.5ZM16 7.5C17.379 7.5 18.5 6.378 18.5 5C18.5 3.622 17.379 2.5 16 2.5C14.621 2.5 13.5 3.622 13.5 5C13.5 6.378 14.621 7.5 16 7.5ZM16 3.5C16.827 3.5 17.5 4.173 17.5 5C17.5 5.827 16.827 6.5 16 6.5C15.173 6.5 14.5 5.827 14.5 5C14.5 4.173 15.173 3.5 16 3.5Z" />
</svg>
