<svg viewBox="0 0 24 24" fill="currentColor" stroke="currentColor" xmlns="http://www.w3.org/2000/svg">
<path d="M5 5.5C3.621 5.5 2.5 6.622 2.5 8C2.5 9.378 3.621 10.5 5 10.5C6.379 10.5 7.5 9.378 7.5 8C7.5 6.622 6.379 5.5 5 5.5ZM5 9.5C4.173 9.5 3.5 8.827 3.5 8C3.5 7.173 4.173 6.5 5 6.5C5.827 6.5 6.5 7.173 6.5 8C6.5 8.827 5.827 9.5 5 9.5ZM12 5.5C10.621 5.5 9.5 6.622 9.5 8C9.5 9.378 10.621 10.5 12 10.5C13.379 10.5 14.5 9.378 14.5 8C14.5 6.622 13.379 5.5 12 5.5ZM12 9.5C11.173 9.5 10.5 8.827 10.5 8C10.5 7.173 11.173 6.5 12 6.5C12.827 6.5 13.5 7.173 13.5 8C13.5 8.827 12.827 9.5 12 9.5ZM19 10.5C20.379 10.5 21.5 9.378 21.5 8C21.5 6.622 20.379 5.5 19 5.5C17.621 5.5 16.5 6.622 16.5 8C16.5 9.378 17.621 10.5 19 10.5ZM19 6.5C19.827 6.5 20.5 7.173 20.5 8C20.5 8.827 19.827 9.5 19 9.5C18.173 9.5 17.5 8.827 17.5 8C17.5 7.173 18.173 6.5 19 6.5ZM5 13.5C3.621 13.5 2.5 14.622 2.5 16C2.5 17.378 3.621 18.5 5 18.5C6.379 18.5 7.5 17.378 7.5 16C7.5 14.622 6.379 13.5 5 13.5ZM5 17.5C4.173 17.5 3.5 16.827 3.5 16C3.5 15.173 4.173 14.5 5 14.5C5.827 14.5 6.5 15.173 6.5 16C6.5 16.827 5.827 17.5 5 17.5ZM12 13.5C10.621 13.5 9.5 14.622 9.5 16C9.5 17.378 10.621 18.5 12 18.5C13.379 18.5 14.5 17.378 14.5 16C14.5 14.622 13.379 13.5 12 13.5ZM12 17.5C11.173 17.5 10.5 16.827 10.5 16C10.5 15.173 11.173 14.5 12 14.5C12.827 14.5 13.5 15.173 13.5 16C13.5 16.827 12.827 17.5 12 17.5ZM19 13.5C17.621 13.5 16.5 14.622 16.5 16C16.5 17.378 17.621 18.5 19 18.5C20.379 18.5 21.5 17.378 21.5 16C21.5 14.622 20.379 13.5 19 13.5ZM19 17.5C18.173 17.5 17.5 16.827 17.5 16C17.5 15.173 18.173 14.5 19 14.5C19.827 14.5 20.5 15.173 20.5 16C20.5 16.827 19.827 17.5 19 17.5Z" />
</svg>
