<svg viewBox="0 0 24 24" fill="currentColor" stroke="currentColor" xmlns="http://www.w3.org/2000/svg">
<path d="M18.5 3.5H5.5C4.229 3.5 3.5 4.229 3.5 5.5V8.5C3.5 9.771 4.229 10.5 5.5 10.5H18.5C19.771 10.5 20.5 9.771 20.5 8.5V5.5C20.5 4.229 19.771 3.5 18.5 3.5ZM19.5 8.5C19.5 9.22 19.22 9.5 18.5 9.5H5.5C4.78 9.5 4.5 9.22 4.5 8.5V5.5C4.5 4.78 4.78 4.5 5.5 4.5H18.5C19.22 4.5 19.5 4.78 19.5 5.5V8.5ZM18.5 13.5H5.5C4.229 13.5 3.5 14.229 3.5 15.5V18.5C3.5 19.771 4.229 20.5 5.5 20.5H18.5C19.771 20.5 20.5 19.771 20.5 18.5V15.5C20.5 14.229 19.771 13.5 18.5 13.5ZM19.5 18.5C19.5 19.22 19.22 19.5 18.5 19.5H5.5C4.78 19.5 4.5 19.22 4.5 18.5V15.5C4.5 14.78 4.78 14.5 5.5 14.5H18.5C19.22 14.5 19.5 14.78 19.5 15.5V18.5Z" />
</svg>
