<svg viewBox="0 0 24 24" fill="currentColor" stroke="currentColor" xmlns="http://www.w3.org/2000/svg">
<path d="M17 13.5C15.07 13.5 13.5 15.07 13.5 17C13.5 18.93 15.07 20.5 17 20.5C18.93 20.5 20.5 18.93 20.5 17C20.5 15.07 18.93 13.5 17 13.5ZM17 19.5C15.621 19.5 14.5 18.378 14.5 17C14.5 15.622 15.621 14.5 17 14.5C18.379 14.5 19.5 15.622 19.5 17C19.5 18.378 18.379 19.5 17 19.5ZM18.5 3.5H15.5C14.229 3.5 13.5 4.229 13.5 5.5V8.5C13.5 9.771 14.229 10.5 15.5 10.5H18.5C19.771 10.5 20.5 9.771 20.5 8.5V5.5C20.5 4.229 19.771 3.5 18.5 3.5ZM19.5 8.5C19.5 9.22 19.22 9.5 18.5 9.5H15.5C14.78 9.5 14.5 9.22 14.5 8.5V5.5C14.5 4.78 14.78 4.5 15.5 4.5H18.5C19.22 4.5 19.5 4.78 19.5 5.5V8.5ZM8.5 3.5H5.5C4.229 3.5 3.5 4.229 3.5 5.5V8.5C3.5 9.771 4.229 10.5 5.5 10.5H8.5C9.771 10.5 10.5 9.771 10.5 8.5V5.5C10.5 4.229 9.771 3.5 8.5 3.5ZM9.5 8.5C9.5 9.22 9.22 9.5 8.5 9.5H5.5C4.78 9.5 4.5 9.22 4.5 8.5V5.5C4.5 4.78 4.78 4.5 5.5 4.5H8.5C9.22 4.5 9.5 4.78 9.5 5.5V8.5ZM8.5 13.5H5.5C4.229 13.5 3.5 14.229 3.5 15.5V18.5C3.5 19.771 4.229 20.5 5.5 20.5H8.5C9.771 20.5 10.5 19.771 10.5 18.5V15.5C10.5 14.229 9.771 13.5 8.5 13.5ZM9.5 18.5C9.5 19.22 9.22 19.5 8.5 19.5H5.5C4.78 19.5 4.5 19.22 4.5 18.5V15.5C4.5 14.78 4.78 14.5 5.5 14.5H8.5C9.22 14.5 9.5 14.78 9.5 15.5V18.5Z" />
</svg>
