<svg viewBox="0 0 24 24" fill="currentColor" stroke="currentColor" xmlns="http://www.w3.org/2000/svg">
<path d="M5 2.5C3.621 2.5 2.5 3.622 2.5 5C2.5 6.378 3.621 7.5 5 7.5C6.379 7.5 7.5 6.378 7.5 5C7.5 3.622 6.379 2.5 5 2.5ZM5 6.5C4.173 6.5 3.5 5.827 3.5 5C3.5 4.173 4.173 3.5 5 3.5C5.827 3.5 6.5 4.173 6.5 5C6.5 5.827 5.827 6.5 5 6.5ZM12 2.5C10.621 2.5 9.5 3.622 9.5 5C9.5 6.378 10.621 7.5 12 7.5C13.379 7.5 14.5 6.378 14.5 5C14.5 3.622 13.379 2.5 12 2.5ZM12 6.5C11.173 6.5 10.5 5.827 10.5 5C10.5 4.173 11.173 3.5 12 3.5C12.827 3.5 13.5 4.173 13.5 5C13.5 5.827 12.827 6.5 12 6.5ZM19 7.5C20.379 7.5 21.5 6.378 21.5 5C21.5 3.622 20.379 2.5 19 2.5C17.621 2.5 16.5 3.622 16.5 5C16.5 6.378 17.621 7.5 19 7.5ZM19 3.5C19.827 3.5 20.5 4.173 20.5 5C20.5 5.827 19.827 6.5 19 6.5C18.173 6.5 17.5 5.827 17.5 5C17.5 4.173 18.173 3.5 19 3.5ZM5 9.5C3.621 9.5 2.5 10.622 2.5 12C2.5 13.378 3.621 14.5 5 14.5C6.379 14.5 7.5 13.378 7.5 12C7.5 10.622 6.379 9.5 5 9.5ZM5 13.5C4.173 13.5 3.5 12.827 3.5 12C3.5 11.173 4.173 10.5 5 10.5C5.827 10.5 6.5 11.173 6.5 12C6.5 12.827 5.827 13.5 5 13.5ZM12 9.5C10.621 9.5 9.5 10.622 9.5 12C9.5 13.378 10.621 14.5 12 14.5C13.379 14.5 14.5 13.378 14.5 12C14.5 10.622 13.379 9.5 12 9.5ZM12 13.5C11.173 13.5 10.5 12.827 10.5 12C10.5 11.173 11.173 10.5 12 10.5C12.827 10.5 13.5 11.173 13.5 12C13.5 12.827 12.827 13.5 12 13.5ZM19 9.5C17.621 9.5 16.5 10.622 16.5 12C16.5 13.378 17.621 14.5 19 14.5C20.379 14.5 21.5 13.378 21.5 12C21.5 10.622 20.379 9.5 19 9.5ZM19 13.5C18.173 13.5 17.5 12.827 17.5 12C17.5 11.173 18.173 10.5 19 10.5C19.827 10.5 20.5 11.173 20.5 12C20.5 12.827 19.827 13.5 19 13.5ZM5 16.5C3.621 16.5 2.5 17.622 2.5 19C2.5 20.378 3.621 21.5 5 21.5C6.379 21.5 7.5 20.378 7.5 19C7.5 17.622 6.379 16.5 5 16.5ZM5 20.5C4.173 20.5 3.5 19.827 3.5 19C3.5 18.173 4.173 17.5 5 17.5C5.827 17.5 6.5 18.173 6.5 19C6.5 19.827 5.827 20.5 5 20.5ZM12 16.5C10.621 16.5 9.5 17.622 9.5 19C9.5 20.378 10.621 21.5 12 21.5C13.379 21.5 14.5 20.378 14.5 19C14.5 17.622 13.379 16.5 12 16.5ZM12 20.5C11.173 20.5 10.5 19.827 10.5 19C10.5 18.173 11.173 17.5 12 17.5C12.827 17.5 13.5 18.173 13.5 19C13.5 19.827 12.827 20.5 12 20.5ZM19 16.5C17.621 16.5 16.5 17.622 16.5 19C16.5 20.378 17.621 21.5 19 21.5C20.379 21.5 21.5 20.378 21.5 19C21.5 17.622 20.379 16.5 19 16.5ZM19 20.5C18.173 20.5 17.5 19.827 17.5 19C17.5 18.173 18.173 17.5 19 17.5C19.827 17.5 20.5 18.173 20.5 19C20.5 19.827 19.827 20.5 19 20.5Z" />
</svg>
