<svg viewBox="0 0 24 24" fill="currentColor" stroke="currentColor" xmlns="http://www.w3.org/2000/svg">
<path d="M7 3.5C5.07 3.5 3.5 5.07 3.5 7C3.5 8.93 5.07 10.5 7 10.5C8.93 10.5 10.5 8.93 10.5 7C10.5 5.07 8.93 3.5 7 3.5ZM7 9.5C5.621 9.5 4.5 8.378 4.5 7C4.5 5.622 5.621 4.5 7 4.5C8.379 4.5 9.5 5.622 9.5 7C9.5 8.378 8.379 9.5 7 9.5ZM17 10.5C18.93 10.5 20.5 8.93 20.5 7C20.5 5.07 18.93 3.5 17 3.5C15.07 3.5 13.5 5.07 13.5 7C13.5 8.93 15.07 10.5 17 10.5ZM17 4.5C18.379 4.5 19.5 5.622 19.5 7C19.5 8.378 18.379 9.5 17 9.5C15.621 9.5 14.5 8.378 14.5 7C14.5 5.622 15.621 4.5 17 4.5ZM7 13.5C5.07 13.5 3.5 15.07 3.5 17C3.5 18.93 5.07 20.5 7 20.5C8.93 20.5 10.5 18.93 10.5 17C10.5 15.07 8.93 13.5 7 13.5ZM7 19.5C5.621 19.5 4.5 18.378 4.5 17C4.5 15.622 5.621 14.5 7 14.5C8.379 14.5 9.5 15.622 9.5 17C9.5 18.378 8.379 19.5 7 19.5ZM17 13.5C15.07 13.5 13.5 15.07 13.5 17C13.5 18.93 15.07 20.5 17 20.5C18.93 20.5 20.5 18.93 20.5 17C20.5 15.07 18.93 13.5 17 13.5ZM17 19.5C15.621 19.5 14.5 18.378 14.5 17C14.5 15.622 15.621 14.5 17 14.5C18.379 14.5 19.5 15.622 19.5 17C19.5 18.378 18.379 19.5 17 19.5Z" />
</svg>
