<svg viewBox="0 0 24 24" fill="currentColor" stroke="currentColor" xmlns="http://www.w3.org/2000/svg">
<path d="M5.5 2.5H4.5C3.229 2.5 2.5 3.229 2.5 4.5V5.5C2.5 6.771 3.229 7.5 4.5 7.5H5.5C6.771 7.5 7.5 6.771 7.5 5.5V4.5C7.5 3.229 6.771 2.5 5.5 2.5ZM6.5 5.5C6.5 6.22 6.22 6.5 5.5 6.5H4.5C3.78 6.5 3.5 6.22 3.5 5.5V4.5C3.5 3.78 3.78 3.5 4.5 3.5H5.5C6.22 3.5 6.5 3.78 6.5 4.5V5.5ZM12.5 2.5H11.5C10.229 2.5 9.5 3.229 9.5 4.5V5.5C9.5 6.771 10.229 7.5 11.5 7.5H12.5C13.771 7.5 14.5 6.771 14.5 5.5V4.5C14.5 3.229 13.771 2.5 12.5 2.5ZM13.5 5.5C13.5 6.22 13.22 6.5 12.5 6.5H11.5C10.78 6.5 10.5 6.22 10.5 5.5V4.5C10.5 3.78 10.78 3.5 11.5 3.5H12.5C13.22 3.5 13.5 3.78 13.5 4.5V5.5ZM19.5 2.5H18.5C17.229 2.5 16.5 3.229 16.5 4.5V5.5C16.5 6.771 17.229 7.5 18.5 7.5H19.5C20.771 7.5 21.5 6.771 21.5 5.5V4.5C21.5 3.229 20.771 2.5 19.5 2.5ZM20.5 5.5C20.5 6.22 20.22 6.5 19.5 6.5H18.5C17.78 6.5 17.5 6.22 17.5 5.5V4.5C17.5 3.78 17.78 3.5 18.5 3.5H19.5C20.22 3.5 20.5 3.78 20.5 4.5V5.5ZM5.5 9.5H4.5C3.229 9.5 2.5 10.229 2.5 11.5V12.5C2.5 13.771 3.229 14.5 4.5 14.5H5.5C6.771 14.5 7.5 13.771 7.5 12.5V11.5C7.5 10.229 6.771 9.5 5.5 9.5ZM6.5 12.5C6.5 13.22 6.22 13.5 5.5 13.5H4.5C3.78 13.5 3.5 13.22 3.5 12.5V11.5C3.5 10.78 3.78 10.5 4.5 10.5H5.5C6.22 10.5 6.5 10.78 6.5 11.5V12.5ZM12.5 9.5H11.5C10.229 9.5 9.5 10.229 9.5 11.5V12.5C9.5 13.771 10.229 14.5 11.5 14.5H12.5C13.771 14.5 14.5 13.771 14.5 12.5V11.5C14.5 10.229 13.771 9.5 12.5 9.5ZM13.5 12.5C13.5 13.22 13.22 13.5 12.5 13.5H11.5C10.78 13.5 10.5 13.22 10.5 12.5V11.5C10.5 10.78 10.78 10.5 11.5 10.5H12.5C13.22 10.5 13.5 10.78 13.5 11.5V12.5ZM19.5 9.5H18.5C17.229 9.5 16.5 10.229 16.5 11.5V12.5C16.5 13.771 17.229 14.5 18.5 14.5H19.5C20.771 14.5 21.5 13.771 21.5 12.5V11.5C21.5 10.229 20.771 9.5 19.5 9.5ZM20.5 12.5C20.5 13.22 20.22 13.5 19.5 13.5H18.5C17.78 13.5 17.5 13.22 17.5 12.5V11.5C17.5 10.78 17.78 10.5 18.5 10.5H19.5C20.22 10.5 20.5 10.78 20.5 11.5V12.5ZM5.5 16.5H4.5C3.229 16.5 2.5 17.229 2.5 18.5V19.5C2.5 20.771 3.229 21.5 4.5 21.5H5.5C6.771 21.5 7.5 20.771 7.5 19.5V18.5C7.5 17.229 6.771 16.5 5.5 16.5ZM6.5 19.5C6.5 20.22 6.22 20.5 5.5 20.5H4.5C3.78 20.5 3.5 20.22 3.5 19.5V18.5C3.5 17.78 3.78 17.5 4.5 17.5H5.5C6.22 17.5 6.5 17.78 6.5 18.5V19.5ZM12.5 16.5H11.5C10.229 16.5 9.5 17.229 9.5 18.5V19.5C9.5 20.771 10.229 21.5 11.5 21.5H12.5C13.771 21.5 14.5 20.771 14.5 19.5V18.5C14.5 17.229 13.771 16.5 12.5 16.5ZM13.5 19.5C13.5 20.22 13.22 20.5 12.5 20.5H11.5C10.78 20.5 10.5 20.22 10.5 19.5V18.5C10.5 17.78 10.78 17.5 11.5 17.5H12.5C13.22 17.5 13.5 17.78 13.5 18.5V19.5ZM19.5 16.5H18.5C17.229 16.5 16.5 17.229 16.5 18.5V19.5C16.5 20.771 17.229 21.5 18.5 21.5H19.5C20.771 21.5 21.5 20.771 21.5 19.5V18.5C21.5 17.229 20.771 16.5 19.5 16.5ZM20.5 19.5C20.5 20.22 20.22 20.5 19.5 20.5H18.5C17.78 20.5 17.5 20.22 17.5 19.5V18.5C17.5 17.78 17.78 17.5 18.5 17.5H19.5C20.22 17.5 20.5 17.78 20.5 18.5V19.5Z" />
</svg>
