<svg viewBox="0 0 24 24" fill="currentColor" stroke="currentColor" xmlns="http://www.w3.org/2000/svg">
<path d="M20.5 17C20.5 17.276 20.276 17.5 20 17.5H17.5V20C17.5 20.276 17.276 20.5 17 20.5C16.724 20.5 16.5 20.276 16.5 20V17.5H14C13.724 17.5 13.5 17.276 13.5 17C13.5 16.724 13.724 16.5 14 16.5H16.5V14C16.5 13.724 16.724 13.5 17 13.5C17.276 13.5 17.5 13.724 17.5 14V16.5H20C20.276 16.5 20.5 16.724 20.5 17ZM20.5 5.5V8.5C20.5 9.771 19.771 10.5 18.5 10.5H15.5C14.229 10.5 13.5 9.771 13.5 8.5V5.5C13.5 4.229 14.229 3.5 15.5 3.5H18.5C19.771 3.5 20.5 4.229 20.5 5.5ZM19.5 5.5C19.5 4.78 19.22 4.5 18.5 4.5H15.5C14.78 4.5 14.5 4.78 14.5 5.5V8.5C14.5 9.22 14.78 9.5 15.5 9.5H18.5C19.22 9.5 19.5 9.22 19.5 8.5V5.5ZM10.5 5.5V8.5C10.5 9.771 9.771 10.5 8.5 10.5H5.5C4.229 10.5 3.5 9.771 3.5 8.5V5.5C3.5 4.229 4.229 3.5 5.5 3.5H8.5C9.771 3.5 10.5 4.229 10.5 5.5ZM9.5 5.5C9.5 4.78 9.22 4.5 8.5 4.5H5.5C4.78 4.5 4.5 4.78 4.5 5.5V8.5C4.5 9.22 4.78 9.5 5.5 9.5H8.5C9.22 9.5 9.5 9.22 9.5 8.5V5.5ZM10.5 15.5V18.5C10.5 19.771 9.771 20.5 8.5 20.5H5.5C4.229 20.5 3.5 19.771 3.5 18.5V15.5C3.5 14.229 4.229 13.5 5.5 13.5H8.5C9.771 13.5 10.5 14.229 10.5 15.5ZM9.5 15.5C9.5 14.78 9.22 14.5 8.5 14.5H5.5C4.78 14.5 4.5 14.78 4.5 15.5V18.5C4.5 19.22 4.78 19.5 5.5 19.5H8.5C9.22 19.5 9.5 19.22 9.5 18.5V15.5Z" />
</svg>
