<svg viewBox="0 0 24 24" fill="currentColor" stroke="currentColor" xmlns="http://www.w3.org/2000/svg">
<path d="M16.458 13.5281C16.575 13.6451 16.575 13.8349 16.458 13.9519L13.952 16.458C13.835 16.575 13.645 16.575 13.528 16.458L7.56203 10.492C7.44503 10.375 7.44503 10.1851 7.56203 10.0681L10.068 7.56203C10.185 7.44503 10.375 7.44503 10.492 7.56203L16.458 13.5281ZM12.448 17.5181C12.565 17.6351 12.565 17.8249 12.448 17.9419L10.4301 19.96C9.04007 21.35 7.66004 21.35 6.27004 19.96L4.04006 17.73C2.65006 16.34 2.65006 14.9601 4.04006 13.5701L6.058 11.552C6.175 11.435 6.36508 11.435 6.48208 11.552L12.448 17.5181ZM7.50002 17.25C7.50002 16.836 7.16402 16.5 6.75002 16.5C6.33602 16.5 6.00002 16.836 6.00002 17.25C6.00002 17.664 6.33602 18 6.75002 18C7.16402 18 7.50002 17.664 7.50002 17.25ZM8.00002 14.75C8.00002 14.336 7.66402 14 7.25002 14C6.83602 14 6.50002 14.336 6.50002 14.75C6.50002 15.164 6.83602 15.5 7.25002 15.5C7.66402 15.5 8.00002 15.164 8.00002 14.75ZM10 16.75C10 16.336 9.66402 16 9.25002 16C8.83602 16 8.50002 16.336 8.50002 16.75C8.50002 17.164 8.83602 17.5 9.25002 17.5C9.66402 17.5 10 17.164 10 16.75ZM19.96 10.43L17.942 12.448C17.825 12.565 17.635 12.565 17.518 12.448L11.552 6.48195C11.435 6.36495 11.435 6.17513 11.552 6.05813L13.57 4.04006C14.96 2.65006 16.34 2.65006 17.73 4.04006L19.96 6.27004C21.35 7.66004 21.35 9.03995 19.96 10.43ZM15.5 7.25002C15.5 6.83602 15.164 6.50002 14.75 6.50002C14.336 6.50002 14 6.83602 14 7.25002C14 7.66402 14.336 8.00002 14.75 8.00002C15.164 8.00002 15.5 7.66402 15.5 7.25002ZM17.5 9.25002C17.5 8.83602 17.164 8.50002 16.75 8.50002C16.336 8.50002 16 8.83602 16 9.25002C16 9.66402 16.336 10 16.75 10C17.164 10 17.5 9.66402 17.5 9.25002ZM18 6.75002C18 6.33602 17.664 6.00002 17.25 6.00002C16.836 6.00002 16.5 6.33602 16.5 6.75002C16.5 7.16402 16.836 7.50002 17.25 7.50002C17.664 7.50002 18 7.16402 18 6.75002Z" />
</svg>
