<svg viewBox="0 0 24 24" fill="currentColor" stroke="currentColor" xmlns="http://www.w3.org/2000/svg">
<path d="M20.2501 16.865L16.0981 10.335C15.8691 9.97296 15.747 9.55595 15.747 9.12695V3.75H16.0001C16.4141 3.75 16.7501 3.414 16.7501 3C16.7501 2.586 16.4141 2.25 16.0001 2.25H8.00005C7.58605 2.25 7.25005 2.586 7.25005 3C7.25005 3.414 7.58605 3.75 8.00005 3.75H8.2531V9.12695C8.2531 9.55595 8.13203 9.97296 7.90203 10.335L3.75005 16.866C3.11805 17.86 3.07905 19.0691 3.64605 20.1011C4.21205 21.1341 5.25406 21.75 6.43206 21.75H17.5671C18.7451 21.75 19.7861 21.1341 20.3531 20.1021C20.9201 19.0701 20.8821 17.86 20.2501 16.865ZM9.16802 11.1389C9.55102 10.5369 9.7531 9.84095 9.7531 9.12695V3.75H14.247V9.12695C14.247 9.84095 14.4491 10.5369 14.8321 11.1389L16.3331 13.5H7.66704L9.16802 11.1389Z" />
</svg>
