<svg viewBox="0 0 24 24" fill="currentColor" stroke="currentColor" xmlns="http://www.w3.org/2000/svg">
<path d="M15.647 8.16602C15.402 8.03702 15.25 7.78596 15.25 7.51196V3.75H16C16.414 3.75 16.75 3.414 16.75 3C16.75 2.586 16.414 2.25 16 2.25H8C7.586 2.25 7.25 2.586 7.25 3C7.25 3.414 7.586 3.75 8 3.75H8.75V7.51196C8.75 7.78596 8.59805 8.03699 8.35205 8.16699C5.82205 9.50799 4.25 12.126 4.25 15C4.25 17.143 5.104 19.1339 6.651 20.6069L6.80005 20.752C7.45605 21.39 7.90696 21.751 9.55896 21.751H14.4399C16.0909 21.751 16.543 21.39 17.199 20.752L17.347 20.6079C18.896 19.1349 19.749 17.143 19.749 15.001C19.75 12.125 18.179 9.50702 15.647 8.16602ZM9.05396 9.49194C9.79195 9.10094 10.25 8.34296 10.25 7.51196V3.75H13.75V7.51196C13.75 8.34296 14.2079 9.10194 14.9449 9.49194C16.9469 10.5529 18.1979 12.6109 18.2419 14.8799C17.1179 15.3429 14.826 15.902 12 14.5C9.217 13.123 6.95999 13.6379 5.81799 14.0959C6.10099 12.1439 7.28595 10.4289 9.05396 9.49194Z" />
</svg>
