<svg viewBox="0 0 24 24" fill="currentColor" stroke="currentColor" xmlns="http://www.w3.org/2000/svg">
<path d="M15.9781 4.00006C13.0001 3.98606 12 6.98809 12 6.98809C12 6.98809 11 3.98506 8.02104 4.00006C4.02104 4.02006 2.44898 7.75414 3.16898 11.4651C4.34198 17.5151 12 21.0001 12 21.0001C12 21.0001 19.6571 17.5151 20.8311 11.4651C21.5501 7.75414 19.9861 4.02006 15.9781 4.00006ZM17 13.2501H15.401L13.6241 15.9161C13.4831 16.1261 13.249 16.2501 13 16.2501C12.967 16.2501 12.9341 16.248 12.9001 16.243C12.6161 16.205 12.379 16.0091 12.288 15.7371L10.773 11.192L9.62406 12.9161C9.48506 13.1241 9.25104 13.2501 9.00004 13.2501H7.00004C6.58604 13.2501 6.25004 12.9141 6.25004 12.5001C6.25004 12.0861 6.58604 11.7501 7.00004 11.7501H8.59904L10.376 9.08404C10.535 8.84504 10.817 8.71614 11.1 8.75714C11.384 8.79514 11.6211 8.991 11.7121 9.263L13.2271 13.8082L14.376 12.084C14.515 11.876 14.749 11.7501 15 11.7501H17C17.414 11.7501 17.75 12.0861 17.75 12.5001C17.75 12.9141 17.414 13.2501 17 13.2501Z" />
</svg>
