<svg viewBox="0 0 24 24" fill="currentColor" stroke="currentColor" xmlns="http://www.w3.org/2000/svg">
<path d="M12 2C6.477 2 2 6.477 2 12C2 17.523 6.477 22 12 22C17.523 22 22 17.523 22 12C22 6.477 17.523 2 12 2ZM15.75 16C15.75 16.414 15.414 16.75 15 16.75C14.586 16.75 14.25 16.414 14.25 16V12.75H9.75V16C9.75 16.414 9.414 16.75 9 16.75C8.586 16.75 8.25 16.414 8.25 16V8C8.25 7.586 8.586 7.25 9 7.25C9.414 7.25 9.75 7.586 9.75 8V11.25H14.25V8C14.25 7.586 14.586 7.25 15 7.25C15.414 7.25 15.75 7.586 15.75 8V16Z" />
</svg>
