<svg viewBox="0 0 24 24" fill="currentColor" stroke="currentColor" xmlns="http://www.w3.org/2000/svg">
<path d="M17.625 3H6.375C4.125 3 3 4.125 3 6.375V17.625C3 19.875 4.125 21 6.375 21H17.625C19.875 21 21 19.875 21 17.625V6.375C21 4.125 19.875 3 17.625 3ZM15.75 16C15.75 16.414 15.414 16.75 15 16.75C14.586 16.75 14.25 16.414 14.25 16V12.75H9.75V16C9.75 16.414 9.414 16.75 9 16.75C8.586 16.75 8.25 16.414 8.25 16V8C8.25 7.586 8.586 7.25 9 7.25C9.414 7.25 9.75 7.586 9.75 8V11.25H14.25V8C14.25 7.586 14.586 7.25 15 7.25C15.414 7.25 15.75 7.586 15.75 8V16Z" />
</svg>
