<svg viewBox="0 0 24 24" fill="currentColor" stroke="currentColor" xmlns="http://www.w3.org/2000/svg">
<path d="M20.5 7.25H18.54C18.288 6.942 17.952 6.70096 17.549 6.58496C17.549 6.58496 14 5 12 5C10 5 6.45105 6.58496 6.45105 6.58496C6.04805 6.69996 5.71196 6.941 5.45996 7.25H3.5C2.26 7.25 1.25 8.259 1.25 9.5V13C1.25 15.619 3.381 17.75 6 17.75H6.87C7.52399 18.457 8.32194 19.0401 9.24194 19.4341C11.0029 20.1891 12.996 20.1891 14.757 19.4341C15.677 19.0401 16.475 18.457 17.129 17.75H17.999C20.618 17.75 22.749 15.619 22.749 13V9.5C22.75 8.259 21.74 7.25 20.5 7.25ZM2.75 13V9.5C2.75 9.086 3.087 8.75 3.5 8.75H5V13C5 14.152 5.29501 15.25 5.80701 16.23C4.10601 16.128 2.75 14.726 2.75 13ZM15 15.25H9C8.586 15.25 8.25 14.914 8.25 14.5C8.25 14.086 8.586 13.75 9 13.75H15C15.414 13.75 15.75 14.086 15.75 14.5C15.75 14.914 15.414 15.25 15 15.25ZM8 12.25C7.586 12.25 7.25 11.914 7.25 11.5C7.25 11.086 7.586 10.75 8 10.75H16C16.414 10.75 16.75 11.086 16.75 11.5C16.75 11.914 16.414 12.25 16 12.25H8ZM21.25 13C21.25 14.726 19.894 16.128 18.193 16.23C18.704 15.25 19 14.151 19 13V8.75H20.5C20.913 8.75 21.25 9.086 21.25 9.5V13Z" />
</svg>
