<svg viewBox="0 0 24 24" fill="currentColor" stroke="currentColor" xmlns="http://www.w3.org/2000/svg">
<path d="M16.077 18.9308C16.234 19.3238 16.368 19.8118 16.42 20.3898C16.45 20.6698 16.36 20.9599 16.16 21.1699C15.98 21.3799 15.7101 21.4999 15.4301 21.4999H8.57996C8.29996 21.4999 8.02997 21.3799 7.83997 21.1699C7.64997 20.9599 7.55996 20.6698 7.57996 20.3898C7.63996 19.8128 7.76697 19.3248 7.92297 18.9318C7.96797 18.8178 8.081 18.7499 8.203 18.7499H15.798C15.92 18.7499 16.032 18.8178 16.077 18.9308ZM21 9.24993H16.17L18.03 7.20989C18.19 7.03989 18.42 6.9299 18.65 6.9699C18.76 6.9899 18.87 6.99993 18.99 6.99993C19.81 6.99993 20.53 6.56999 20.84 5.80999C21.54 4.07999 19.86 2.42987 18.13 3.18987C17.42 3.49987 17 4.22993 17 4.99993C17 5.00993 17 5.00994 17 5.00994C17 5.24994 16.9 5.48005 16.71 5.62005L11.9399 9.24993H3C2.59 9.24993 2.25 9.58993 2.25 9.99993C2.25 10.4099 2.59 10.7499 3 10.7499H3.53003C3.72703 13.5339 4.78498 15.7559 6.53198 17.1799C6.58798 17.2259 6.65906 17.2499 6.73206 17.2499H17.2679C17.3399 17.2499 17.411 17.2259 17.467 17.1799C19.215 15.7659 20.273 13.5339 20.469 10.7499H20.999C21.409 10.7499 21.749 10.4099 21.749 9.99993C21.75 9.58993 21.41 9.24993 21 9.24993Z" />
</svg>
