<svg viewBox="0 0 24 24" fill="currentColor" stroke="currentColor" xmlns="http://www.w3.org/2000/svg">
<path d="M21.75 7.97803C21.75 6.44803 21.154 5.00998 20.072 3.92798C18.99 2.84598 17.552 2.25 16.022 2.25C14.492 2.25 13.053 2.84598 11.972 3.92798L7.94995 7.94995L3.93005 11.97C3.92905 11.971 3.92898 11.9719 3.92798 11.9719C3.65698 12.2429 3.41701 12.5359 3.20801 12.8479C3.18701 12.8789 3.17601 12.915 3.15601 12.946C2.97401 13.23 2.81001 13.524 2.68201 13.834C2.66801 13.867 2.664 13.903 2.651 13.937C2.528 14.25 2.42499 14.5711 2.35999 14.9031C2.35599 14.9221 2.358 14.9429 2.354 14.9619C2.29 15.3079 2.25 15.662 2.25 16.022C2.25 16.023 2.25 16.0239 2.25 16.0259C2.25 16.0269 2.25 16.028 2.25 16.03C2.25 16.39 2.289 16.7441 2.354 17.0901C2.358 17.1091 2.35599 17.1299 2.35999 17.1489C2.40299 17.3659 2.48303 17.571 2.55103 17.78C2.82603 18.632 3.27598 19.422 3.92798 20.073C4.18098 20.326 4.45795 20.5481 4.74695 20.7461C4.76495 20.7591 4.78095 20.7771 4.79895 20.7891C4.94195 20.8851 5.1 20.949 5.25 21.031C5.427 21.128 5.59696 21.2389 5.78296 21.3159C5.95396 21.3869 6.13699 21.423 6.31299 21.4771C6.49199 21.5311 6.665 21.6029 6.849 21.6389C7.217 21.7119 7.59405 21.75 7.97705 21.75H7.97803H7.979C8.12 21.75 8.25394 21.719 8.39294 21.709C8.63194 21.692 8.87298 21.6849 9.10498 21.6389C9.13698 21.6319 9.16695 21.6171 9.19995 21.6101C10.25 21.3821 11.215 20.8679 11.996 20.0969C12.006 20.0869 12.0191 20.0801 12.0291 20.0701L16.049 16.05L20.071 12.0281C21.154 10.9461 21.75 9.50703 21.75 7.97803ZM8.12 13.3301L7.35999 14.0901C6.69999 14.7501 6.37997 15.6601 6.46997 16.5901C6.50997 17.0101 6.21005 17.3699 5.80005 17.4199H5.71997C5.33997 17.4199 5.01998 17.13 4.97998 16.74C4.83998 15.36 5.32005 14.01 6.30005 13.03L7.06006 12.27C7.36006 11.98 7.83 11.98 8.12 12.27C8.42 12.56 8.42 13.0401 8.12 13.3301ZM14.989 14.989L9.01001 9.01001L13.032 4.98804C13.831 4.19004 14.892 3.75 16.021 3.75C17.15 3.75 18.211 4.19004 19.01 4.98804C19.809 5.78704 20.248 6.84805 20.248 7.97705C20.248 9.10605 19.809 10.1671 19.01 10.9661L14.989 14.989Z" />
</svg>
