<svg viewBox="0 0 24 24" fill="currentColor" stroke="currentColor" xmlns="http://www.w3.org/2000/svg">
<path d="M12 2C6.477 2 2 6.477 2 12C2 17.523 6.477 22 12 22C17.523 22 22 17.523 22 12C22 6.477 17.523 2 12 2ZM12 11.1111C12.552 11.1111 13 11.5591 13 12.1111C13 12.6631 12.552 13.1111 12 13.1111C11.448 13.1111 11 12.6631 11 12.1111C11 11.5591 11.448 11.1111 12 11.1111ZM5.50098 11.5969C5.62398 9.42992 6.75703 7.53795 8.42603 6.41895C8.59903 6.30295 8.83003 6.36807 8.93103 6.54907L10.83 9.8999C10.064 10.3049 9.52998 11.077 9.47998 11.98C9.47298 11.98 9.47294 11.98 9.46594 11.98H5.87C5.66 11.98 5.48598 11.8069 5.50098 11.5969ZM14.932 17.9241C14.051 18.3791 13.054 18.6389 12 18.6389C10.946 18.6389 9.94899 18.3791 9.06799 17.9241C8.88799 17.8301 8.83003 17.5989 8.93103 17.4189L10.693 14.2991C11.076 14.5371 11.524 14.667 12 14.667C12.476 14.667 12.924 14.5371 13.307 14.2991L15.069 17.4189C15.17 17.5989 15.112 17.8301 14.932 17.9241ZM18.131 11.98H14.535C14.528 11.98 14.528 11.98 14.521 11.98C14.47 11.077 13.936 10.3039 13.171 9.8999L15.0699 6.54907C15.1709 6.36907 15.402 6.30295 15.575 6.41895C17.243 7.53795 18.377 9.43092 18.5 11.5969C18.514 11.8069 18.34 11.98 18.131 11.98Z" />
</svg>
