<svg viewBox="0 0 24 24" fill="currentColor" stroke="currentColor" xmlns="http://www.w3.org/2000/svg">
<path d="M21.5 10C21.5 8.622 20.379 7.5 19 7.5C17.621 7.5 16.5 8.622 16.5 10C16.5 11.022 17.118 11.9011 18 12.2881V15.5C18 17.981 15.981 20 13.5 20C11.019 20 9 17.981 9 15.5V14.9241C11.987 14.5011 14 12.188 14 9V4.5C14 2.958 13.042 2 11.5 2H11C10.447 2 10 2.448 10 3C10 3.552 10.447 4 11 4H11.5C11.948 4 12 4.051 12 4.5V9C12 11.43 10.43 13 8 13C5.57 13 4 11.43 4 9V4.5C4 4.051 4.052 4 4.5 4H5C5.553 4 6 3.552 6 3C6 2.448 5.553 2 5 2H4.5C2.958 2 2 2.958 2 4.5V9C2 12.188 4.013 14.5011 7 14.9241V15.5C7 19.084 9.916 22 13.5 22C17.084 22 20 19.084 20 15.5V12.2881C20.882 11.9011 21.5 11.022 21.5 10Z" />
</svg>
