<svg viewBox="0 0 24 24" fill="currentColor" stroke="currentColor" xmlns="http://www.w3.org/2000/svg">
<path d="M21.532 7.75198C21.386 7.89798 21.1939 7.97195 21.0019 7.97195C20.8099 7.97195 20.618 7.89898 20.472 7.75198L19.417 6.69704L17.312 8.80203L19.16 10.6499C19.45 10.9399 19.45 11.42 19.16 11.71C19.01 11.86 18.82 11.93 18.63 11.93C18.43 11.93 18.2399 11.86 18.0999 11.71L17.3039 10.916L11.2199 17C10.0739 18.146 8.85799 18.4271 7.57199 17.4881L3.53 21.5301C3.38 21.6801 3.18997 21.75 2.99997 21.75C2.80997 21.75 2.61994 21.6801 2.46994 21.5301C2.17994 21.2401 2.17994 20.76 2.46994 20.47L6.50595 16.4341C5.86895 15.5561 5.79902 14.7001 6.19602 13.8841C6.26302 13.7471 6.49797 13.5389 6.72397 13.7649L7.47897 14.52C7.62497 14.666 7.817 14.74 8.009 14.74C8.201 14.74 8.39291 14.667 8.53891 14.52C8.83191 14.227 8.83191 13.752 8.53891 13.459C8.53891 13.459 7.96397 12.8811 7.64597 12.5591C7.52997 12.4421 7.53192 12.2559 7.64792 12.1389C7.82992 11.9549 8.04202 11.742 8.27902 11.511C8.39602 11.397 8.58697 11.396 8.70297 11.512L9.59897 12.408C9.74497 12.554 9.937 12.628 10.129 12.628C10.321 12.628 10.513 12.555 10.659 12.408C10.952 12.115 10.952 11.6399 10.659 11.3469C10.659 11.3469 10.0809 10.7661 9.76291 10.4451C9.64791 10.3291 9.646 10.1461 9.759 10.0281C9.963 9.8161 10.1759 9.60192 10.3869 9.38992C10.5039 9.27292 10.694 9.27292 10.812 9.38992L11.7099 10.2871C11.8559 10.4331 12.048 10.5071 12.24 10.5071C12.432 10.5071 12.624 10.4341 12.77 10.2871C13.063 9.99413 13.063 9.5191 12.77 9.2261L11.8759 8.33205C11.7569 8.21305 11.761 8.01502 11.88 7.89602C12.243 7.53302 12.732 7.04409 13.081 6.69509L12.29 5.90603C12 5.60603 12 5.13596 12.29 4.83596C12.59 4.54596 13.0599 4.54596 13.3499 4.83596L15.201 6.68704L17.306 4.58205L16.2509 3.5259C15.9579 3.2329 15.9579 2.75811 16.2509 2.46511C16.5439 2.17211 17.019 2.17211 17.312 2.46511L21.534 6.68704C21.825 6.98503 21.825 7.45898 21.532 7.75198Z" />
</svg>
