<svg viewBox="0 0 24 24" fill="currentColor" stroke="currentColor" xmlns="http://www.w3.org/2000/svg">
<path d="M6.29798 19.3588C6.41498 19.4758 6.41498 19.6659 6.29798 19.7829L5.52003 20.571C5.23003 20.861 4.84999 21.0009 4.47999 21.0009C4.09999 21.0009 3.72006 20.861 3.43006 20.571C2.86006 19.991 2.86006 19.0609 3.43006 18.4809L4.21803 17.7028C4.33503 17.5858 4.52498 17.5858 4.64198 17.7028L6.29798 19.3588ZM20.14 8.03999L13.6751 14.5048C13.1101 15.0698 12.42 15.4929 11.66 15.7399L10.86 16C10.1 16.26 9.39996 16.69 8.81996 17.26L7.78199 18.298C7.66499 18.415 7.47504 18.415 7.35804 18.298L5.70204 16.642C5.58504 16.525 5.58504 16.335 5.70204 16.218L6.74 15.1799C7.31 14.5999 7.74001 13.8998 8.00001 13.1398L8.26002 12.34C8.50702 11.581 8.93003 10.8909 9.49403 10.3259L15.96 3.86006C17.11 2.71006 18.98 2.71006 20.14 3.86006C21.29 5.02006 21.29 6.88999 20.14 8.03999ZM15.53 8.46992C15.24 8.17992 14.76 8.17992 14.47 8.46992L12.47 10.4699C12.18 10.7599 12.18 11.24 12.47 11.53C12.62 11.68 12.81 11.75 13 11.75C13.19 11.75 13.38 11.68 13.53 11.53L15.53 9.52998C15.82 9.23998 15.82 8.75992 15.53 8.46992ZM18 6.99995C18 6.44995 17.55 5.99995 17 5.99995C16.45 5.99995 16 6.44995 16 6.99995C16 7.54995 16.45 7.99995 17 7.99995C17.55 7.99995 18 7.54995 18 6.99995Z" />
</svg>
