<svg viewBox="0 0 24 24" fill="currentColor" stroke="currentColor" xmlns="http://www.w3.org/2000/svg">
<path d="M21 9.75C20.59 9.75 20.25 10.09 20.25 10.5V11.25H18.453C18.311 10.017 17.824 8.89202 17.092 7.96802L18.36 6.69995L18.89 7.22998C19.04 7.36998 19.23 7.44995 19.42 7.44995C19.62 7.44995 19.81 7.36998 19.96 7.22998C20.25 6.92998 20.25 6.45992 19.96 6.16992L17.83 4.04004C17.54 3.75004 17.07 3.75004 16.77 4.04004C16.48 4.34004 16.48 4.81011 16.77 5.11011L17.3 5.63989L16.032 6.90796C15.108 6.17596 13.982 5.68912 12.75 5.54712V3.75H13.5C13.91 3.75 14.25 3.41 14.25 3C14.25 2.59 13.91 2.25 13.5 2.25H10.5C10.09 2.25 9.75 2.59 9.75 3C9.75 3.41 10.09 3.75 10.5 3.75H11.25V5.54712C10.017 5.68912 8.89202 6.17596 7.96802 6.90796L6.69995 5.63989L7.22998 5.11011C7.51998 4.81011 7.51998 4.34004 7.22998 4.04004C6.92998 3.75004 6.46004 3.75004 6.17004 4.04004L4.04004 6.16992C3.75004 6.45992 3.75004 6.92998 4.04004 7.22998C4.19004 7.36998 4.37996 7.44995 4.57996 7.44995C4.76996 7.44995 4.95999 7.36998 5.10999 7.22998L5.64001 6.69995L6.90796 7.96802C6.17596 8.89202 5.689 10.018 5.547 11.25H3.75V10.5C3.75 10.09 3.41 9.75 3 9.75C2.59 9.75 2.25 10.09 2.25 10.5V13.5C2.25 13.91 2.59 14.25 3 14.25C3.41 14.25 3.75 13.91 3.75 13.5V12.75H5.547C5.689 13.983 6.17596 15.108 6.90796 16.032L5.64001 17.3L5.10999 16.77C4.80999 16.48 4.34004 16.48 4.04004 16.77C3.75004 17.07 3.75004 17.5401 4.04004 17.8301L6.17004 19.96C6.31004 20.1 6.49995 20.1699 6.69995 20.1699C6.88995 20.1699 7.07998 20.1 7.22998 19.96C7.51998 19.66 7.51998 19.1899 7.22998 18.8899L6.69995 18.3601L7.96802 17.092C8.89202 17.824 10.018 18.3109 11.25 18.4529V20.25H10.5C10.09 20.25 9.75 20.59 9.75 21C9.75 21.41 10.09 21.75 10.5 21.75H13.5C13.91 21.75 14.25 21.41 14.25 21C14.25 20.59 13.91 20.25 13.5 20.25H12.75V18.4529C13.983 18.3109 15.108 17.824 16.032 17.092L17.3 18.3601L16.77 18.8899C16.48 19.1899 16.48 19.66 16.77 19.96C16.92 20.1 17.11 20.1699 17.3 20.1699C17.5 20.1699 17.69 20.1 17.83 19.96L19.96 17.8301C20.25 17.5401 20.25 17.07 19.96 16.77C19.66 16.48 19.19 16.48 18.89 16.77L18.36 17.3L17.092 16.032C17.824 15.108 18.311 13.982 18.453 12.75H20.25V13.5C20.25 13.91 20.59 14.25 21 14.25C21.41 14.25 21.75 13.91 21.75 13.5V10.5C21.75 10.09 21.41 9.75 21 9.75ZM9 13.25C8.31 13.25 7.75 12.69 7.75 12C7.75 11.31 8.31 10.75 9 10.75C9.69 10.75 10.25 11.31 10.25 12C10.25 12.69 9.69 13.25 9 13.25ZM13 14.75C12.586 14.75 12.25 14.414 12.25 14C12.25 13.586 12.586 13.25 13 13.25C13.414 13.25 13.75 13.586 13.75 14C13.75 14.414 13.414 14.75 13 14.75ZM14 11C13.448 11 13 10.552 13 10C13 9.448 13.448 9 14 9C14.552 9 15 9.448 15 10C15 10.552 14.552 11 14 11Z" />
</svg>
