<svg viewBox="0 0 24 24" fill="currentColor" stroke="currentColor" xmlns="http://www.w3.org/2000/svg">
<path d="M21 11.3401V19C21 20.33 20.33 21 19 21H17.8C17.634 21 17.5 20.866 17.5 20.7V9.72C17.5 9.52 17.68 9.37996 17.87 9.42996L19.83 9.87991C20.52 10.0299 21 10.6401 21 11.3401ZM16 6.81008V20.7C16 20.866 15.866 21 15.7 21C15.7 21 11.864 21 11.8 21C11.63 21 11.5 20.85 11.5 20.71C11.5 20.58 11.5 17 11.5 17C11.5 15.9 10.6 15 9.5 15C8.4 15 7.5 15.9 7.5 17C7.5 17 7.5 20.54 7.5 20.7C7.5 20.86 7.34998 21 7.22998 21C7.09998 21 5 21 5 21C3.67 21 3 20.33 3 19V4.50003C3 3.54003 3.89997 2.82006 4.83997 3.04006L14.84 5.35012C15.52 5.50012 16 6.11008 16 6.81008ZM8.75 12C8.75 11.59 8.41 11.25 8 11.25H7C6.59 11.25 6.25 11.59 6.25 12C6.25 12.41 6.59 12.75 7 12.75H8C8.41 12.75 8.75 12.41 8.75 12ZM8.75 9.00003C8.75 8.59003 8.41 8.25003 8 8.25003H7C6.59 8.25003 6.25 8.59003 6.25 9.00003C6.25 9.41003 6.59 9.75003 7 9.75003H8C8.41 9.75003 8.75 9.41003 8.75 9.00003ZM12.75 12C12.75 11.59 12.41 11.25 12 11.25H11C10.59 11.25 10.25 11.59 10.25 12C10.25 12.41 10.59 12.75 11 12.75H12C12.41 12.75 12.75 12.41 12.75 12ZM12.75 9.00003C12.75 8.59003 12.41 8.25003 12 8.25003H11C10.59 8.25003 10.25 8.59003 10.25 9.00003C10.25 9.41003 10.59 9.75003 11 9.75003H12C12.41 9.75003 12.75 9.41003 12.75 9.00003Z" />
</svg>
