<svg viewBox="0 0 24 24" fill="currentColor" stroke="currentColor" xmlns="http://www.w3.org/2000/svg">
<path d="M21 20.25H19.5V6C19.5 4 18.5 3 16.5 3H7.5C5.5 3 4.5 4 4.5 6V20.25H3C2.586 20.25 2.25 20.586 2.25 21C2.25 21.414 2.586 21.75 3 21.75H21C21.414 21.75 21.75 21.414 21.75 21C21.75 20.586 21.414 20.25 21 20.25ZM14 6.25H15C15.414 6.25 15.75 6.586 15.75 7C15.75 7.414 15.414 7.75 15 7.75H14C13.586 7.75 13.25 7.414 13.25 7C13.25 6.586 13.586 6.25 14 6.25ZM14 9.25H15C15.414 9.25 15.75 9.586 15.75 10C15.75 10.414 15.414 10.75 15 10.75H14C13.586 10.75 13.25 10.414 13.25 10C13.25 9.586 13.586 9.25 14 9.25ZM14 12.25H15C15.414 12.25 15.75 12.586 15.75 13C15.75 13.414 15.414 13.75 15 13.75H14C13.586 13.75 13.25 13.414 13.25 13C13.25 12.586 13.586 12.25 14 12.25ZM9 6.25H10C10.414 6.25 10.75 6.586 10.75 7C10.75 7.414 10.414 7.75 10 7.75H9C8.586 7.75 8.25 7.414 8.25 7C8.25 6.586 8.586 6.25 9 6.25ZM9 9.25H10C10.414 9.25 10.75 9.586 10.75 10C10.75 10.414 10.414 10.75 10 10.75H9C8.586 10.75 8.25 10.414 8.25 10C8.25 9.586 8.586 9.25 9 9.25ZM9 12.25H10C10.414 12.25 10.75 12.586 10.75 13C10.75 13.414 10.414 13.75 10 13.75H9C8.586 13.75 8.25 13.414 8.25 13C8.25 12.586 8.586 12.25 9 12.25ZM9.75 17.5C9.75 16.5 10.25 16 11.25 16H12.75C13.75 16 14.25 16.5 14.25 17.5V20.25H9.75V17.5Z" />
</svg>
