<svg viewBox="0 0 24 24" fill="currentColor" stroke="currentColor" xmlns="http://www.w3.org/2000/svg">
<path d="M20.75 21C20.75 21.41 20.41 21.75 20 21.75H14.75C14.34 21.75 14 21.41 14 21V17C14 15.9 13.1 15 12 15C10.9 15 10 15.9 10 17V21C10 21.41 9.66 21.75 9.25 21.75H4C3.59 21.75 3.25 21.41 3.25 21C3.25 20.59 3.59 20.25 4 20.25H5.06995L5.64001 13.95L5.83496 11.7729C5.84896 11.6179 5.97903 11.5 6.13403 11.5H17.865C18.02 11.5 18.1499 11.6179 18.1639 11.7729L18.359 13.95L18.929 20.25H19.999C20.41 20.25 20.75 20.59 20.75 21ZM6 10H18C19.104 10 20 9.104 20 8V3.5C20 3.224 19.776 3 19.5 3H17.5C17.224 3 17 3.224 17 3.5V5C17 5.828 16.328 6.5 15.5 6.5C14.672 6.5 14 5.828 14 5V3.5C14 3.224 13.776 3 13.5 3H10.5C10.224 3 10 3.224 10 3.5V5C10 5.828 9.328 6.5 8.5 6.5C7.672 6.5 7 5.828 7 5V3.5C7 3.224 6.776 3 6.5 3H4.5C4.224 3 4 3.224 4 3.5V8C4 9.104 4.896 10 6 10Z" />
</svg>
