<svg viewBox="0 0 24 24" fill="currentColor" stroke="currentColor" xmlns="http://www.w3.org/2000/svg">
<path fill-rule="evenodd" clip-rule="evenodd" d="M19.5699 8.58608L13.606 3.58498C12.677 2.80598 11.3219 2.80598 10.3929 3.58498L4.42896 8.58608C3.52296 9.34608 2.99902 9.65302 2.99902 11.651V18C2.99902 20 3.99902 21 5.99902 21H17.999C19.999 21 20.999 20 20.999 18V11.651C21 9.65202 20.4769 9.34608 19.5699 8.58608ZM16.75 16C16.75 16.098 16.73 16.195 16.692 16.287C16.616 16.47 16.47 16.616 16.287 16.692C16.195 16.73 16.098 16.75 16 16.75H13.5C13.086 16.75 12.75 16.414 12.75 16C12.75 15.586 13.086 15.25 13.5 15.25H14.189L12.631 13.692L11.535 14.871C10.992 15.414 10.042 15.416 9.49597 14.871L7.46997 12.844C7.17697 12.551 7.17697 12.076 7.46997 11.783C7.76297 11.49 8.23801 11.49 8.53101 11.783L10.558 13.8101L11.6541 12.631C12.1991 12.086 13.148 12.087 13.693 12.631L15.251 14.189V13.5C15.251 13.086 15.587 12.75 16.001 12.75C16.415 12.75 16.751 13.086 16.751 13.5V16H16.75Z" />
</svg>
