<svg viewBox="0 0 24 24" fill="currentColor" stroke="currentColor" xmlns="http://www.w3.org/2000/svg">
<path fill-rule="evenodd" clip-rule="evenodd" d="M19.5699 8.58608L13.606 3.58498C12.677 2.80598 11.3219 2.80598 10.3929 3.58498L4.42896 8.58608C3.52296 9.34608 2.99902 9.65302 2.99902 11.651V18C2.99902 20 3.99902 21 5.99902 21H17.999C19.999 21 20.999 20 20.999 18V11.651C21 9.65202 20.4769 9.34608 19.5699 8.58608ZM16.106 12.9881L14.576 14.468C14.464 14.576 14.4129 14.732 14.4399 14.885L14.79 16.9101C14.861 17.3211 14.428 17.6341 14.056 17.4411L12.22 16.4831C12.082 16.4111 11.918 16.4111 11.78 16.4831L9.94495 17.44C9.57295 17.634 9.13896 17.3201 9.20996 16.9091L9.56006 14.885C9.58606 14.732 9.53495 14.576 9.42395 14.468L7.89404 12.9881C7.61304 12.7161 7.76801 12.2421 8.15601 12.1861L10.2729 11.881C10.4269 11.859 10.56 11.763 10.629 11.624L11.546 9.78103C11.732 9.40703 12.269 9.40703 12.455 9.78103L13.3719 11.624C13.4409 11.763 13.574 11.859 13.728 11.881L15.845 12.1861C16.233 12.2421 16.387 12.7171 16.106 12.9881Z" />
</svg>
