<svg viewBox="0 0 24 24" fill="currentColor" stroke="currentColor" xmlns="http://www.w3.org/2000/svg">
<path fill-rule="evenodd" clip-rule="evenodd" d="M20.27 9.06205L13.588 3.56901C12.665 2.81001 11.334 2.81001 10.411 3.56901L3.72898 9.06205C3.16798 9.52305 2.90096 10.251 3.03196 10.965L4.48704 18.9471C4.70404 20.1351 5.73902 20.9991 6.94602 20.9991H17.052C18.26 20.9991 19.2949 20.1351 19.5119 18.9471L20.967 10.964C21.098 10.252 20.831 9.52305 20.27 9.06205ZM16.75 13.8321C16.75 14.2461 16.414 14.5821 16 14.5821C15.586 14.5821 15.25 14.2461 15.25 13.8321V13.142L13.691 14.7C13.148 15.244 12.1979 15.244 11.6529 14.7L10.474 13.521L8.53001 15.548C8.38401 15.694 8.19198 15.768 7.99998 15.768C7.80798 15.768 7.61595 15.695 7.46995 15.548C7.17695 15.255 7.17695 14.7801 7.46995 14.4871L9.49693 12.46C10.0409 11.916 10.992 11.916 11.536 12.46L12.714 13.638L14.227 12.08H13.5C13.086 12.08 12.75 11.744 12.75 11.33C12.75 10.916 13.086 10.58 13.5 10.58H16C16.098 10.58 16.195 10.6 16.287 10.638C16.47 10.714 16.616 10.86 16.693 11.044C16.731 11.136 16.751 11.2331 16.751 11.3311V13.8321H16.75Z" />
</svg>
