<svg viewBox="0 0 24 24" fill="currentColor" stroke="currentColor" xmlns="http://www.w3.org/2000/svg">
<path d="M21.477 9.08502L14.0649 2.98907C12.8679 2.00707 11.133 2.00607 9.93598 2.98907L2.52399 9.08404C2.20499 9.34704 2.15796 9.81907 2.42096 10.1401C2.68396 10.4611 3.15699 10.5051 3.47699 10.2431L4.49994 9.40106V18.0001C4.49994 20.2901 5.70994 21.5001 7.99994 21.5001H15.9999C18.2899 21.5001 19.4999 20.2901 19.4999 18.0001V9.40204L20.5229 10.2441C20.6629 10.3591 20.8319 10.4151 20.9999 10.4151C21.2159 10.4151 21.4309 10.322 21.5789 10.142C21.8429 9.82003 21.796 9.34802 21.477 9.08502ZM13.8499 16.6981C13.5449 17.0091 13.1639 17.2159 12.7499 17.3069V17.5001C12.7499 17.9141 12.4139 18.2501 11.9999 18.2501C11.5859 18.2501 11.2499 17.9141 11.2499 17.5001V17.305C10.3349 17.103 9.62198 16.3372 9.51398 15.3602C9.46798 14.9482 9.76495 14.577 10.1769 14.532C10.5779 14.489 10.958 14.7831 11.004 15.1951C11.046 15.5751 11.3559 15.8611 11.7249 15.8611H12.2759C12.4649 15.8611 12.6449 15.7841 12.7819 15.6451C12.9239 15.5011 13.0009 15.3131 13.0009 15.1131C13.0009 14.7691 12.7729 14.47 12.4489 14.386L11.1819 14.067C10.6989 13.942 10.2669 13.657 9.96491 13.262C9.66591 12.879 9.49994 12.388 9.49994 11.887C9.49994 10.812 10.2509 9.91405 11.2499 9.69305V9.50006C11.2499 9.08606 11.5859 8.75006 11.9999 8.75006C12.4139 8.75006 12.7499 9.08606 12.7499 9.50006V9.695C13.6649 9.89701 14.3779 10.6631 14.4859 11.6401C14.5319 12.0521 14.2349 12.4231 13.8229 12.4681C13.4229 12.5111 13.0419 12.2171 12.9959 11.8051C12.9539 11.4251 12.644 11.1391 12.275 11.1391H11.7239C11.3249 11.1391 10.999 11.474 10.999 11.887C10.999 12.057 11.0529 12.22 11.1509 12.346C11.2549 12.482 11.392 12.5731 11.55 12.6141L12.817 12.9332C13.808 13.1882 14.499 14.0841 14.499 15.1131C14.5 15.7101 14.2699 16.2731 13.8499 16.6981Z" />
</svg>
