<svg viewBox="0 0 24 24" fill="currentColor" stroke="currentColor" xmlns="http://www.w3.org/2000/svg">
<path fill-rule="evenodd" clip-rule="evenodd" d="M17.053 21H6.94707C5.73907 21 4.70409 20.136 4.48809 18.948L3.03301 10.966C2.90301 10.252 3.17003 9.52302 3.73003 9.06302L10.412 3.56998C11.335 2.81098 12.666 2.81098 13.589 3.56998L20.271 9.06302C20.832 9.52402 21.0981 10.252 20.9681 10.966L19.513 18.949C19.296 20.136 18.261 21 17.053 21ZM12 12.8001C13.186 12.8001 14.1501 11.8361 14.1501 10.6501C14.1501 9.46406 13.185 8.50004 12 8.50004C10.815 8.50004 9.85002 9.46406 9.85002 10.6501C9.85002 11.8361 10.814 12.8001 12 12.8001ZM15.5 16.6971V17C15.5 17.276 15.276 17.5 15 17.5H9.00005C8.72405 17.5 8.50005 17.276 8.50005 17V16.6971C8.50005 15.3571 9.48108 14 11.3581 14H12.641C14.519 14 15.5 15.3561 15.5 16.6971Z" />
</svg>
