<svg viewBox="0 0 24 24" fill="currentColor" stroke="currentColor" xmlns="http://www.w3.org/2000/svg">
<path d="M20.717 14.079C21.112 13.278 21.402 12.453 21.567 11.613C22.045 9.14598 21.567 6.74503 20.29 5.18903C19.257 3.92903 17.768 3.259 15.983 3.25C15.976 3.25 15.97 3.25 15.964 3.25C13.928 3.25 12.687 4.40898 12 5.39398C11.312 4.40798 10.072 3.25 8.03404 3.25C8.02804 3.25 8.021 3.25 8.015 3.25C6.235 3.259 4.74702 3.93 3.71202 5.19C2.43402 6.747 1.95499 9.148 2.43199 11.612C3.66099 17.969 11.3619 21.534 11.6889 21.683C11.7879 21.728 11.894 21.75 12 21.75C12.106 21.75 12.2099 21.728 12.3089 21.684C12.3429 21.668 13.061 21.342 14.083 20.72C14.891 21.355 15.896 21.75 17 21.75C19.619 21.75 21.75 19.619 21.75 17C21.75 15.893 21.354 14.887 20.717 14.079ZM12.0019 20.166C10.5979 19.451 4.85701 16.254 3.90501 11.328C3.51201 9.297 3.87393 7.35901 4.87193 6.14301C5.62493 5.22601 6.68495 4.75798 8.02195 4.75098C8.02595 4.75098 8.03004 4.75098 8.03404 4.75098C10.412 4.75098 11.2549 7.13003 11.2879 7.22803C11.3909 7.53303 11.6759 7.73801 11.9969 7.73901C11.9979 7.73901 11.999 7.73901 12.001 7.73901C12.321 7.73901 12.606 7.53398 12.711 7.22998C12.745 7.12898 13.588 4.75 15.964 4.75C15.968 4.75 15.9719 4.75 15.9759 4.75C17.3169 4.757 18.378 5.22499 19.13 6.14099C20.127 7.35499 20.487 9.29399 20.094 11.326C19.983 11.893 19.783 12.451 19.545 13.003C18.808 12.532 17.938 12.25 17.001 12.25C14.382 12.25 12.251 14.381 12.251 17C12.251 17.96 12.5419 18.851 13.0329 19.599C12.5999 19.852 12.2369 20.047 12.0019 20.166ZM17 20.25C15.208 20.25 13.75 18.792 13.75 17C13.75 15.208 15.208 13.75 17 13.75C18.792 13.75 20.25 15.208 20.25 17C20.25 18.792 18.792 20.25 17 20.25ZM18.53 16.53L18.06 17L18.53 17.47C18.823 17.763 18.823 18.238 18.53 18.531C18.384 18.677 18.192 18.751 18 18.751C17.808 18.751 17.616 18.678 17.47 18.531L17 18.061L16.53 18.531C16.384 18.677 16.192 18.751 16 18.751C15.808 18.751 15.616 18.678 15.47 18.531C15.177 18.238 15.177 17.763 15.47 17.47L15.9399 17L15.47 16.53C15.177 16.237 15.177 15.762 15.47 15.469C15.763 15.176 16.238 15.176 16.531 15.469L17.001 15.939L17.4709 15.469C17.7639 15.176 18.239 15.176 18.532 15.469C18.823 15.762 18.823 16.238 18.53 16.53Z" />
</svg>
