<svg viewBox="0 0 24 24" fill="currentColor" stroke="currentColor" xmlns="http://www.w3.org/2000/svg">
<path d="M17.625 21.75H6.375C3.715 21.75 2.25 20.285 2.25 17.625V6.375C2.25 3.715 3.715 2.25 6.375 2.25H17.625C20.285 2.25 21.75 3.715 21.75 6.375V17.625C21.75 20.285 20.285 21.75 17.625 21.75ZM6.375 3.75C4.535 3.75 3.75 4.535 3.75 6.375V17.625C3.75 19.465 4.535 20.25 6.375 20.25H17.625C19.465 20.25 20.25 19.465 20.25 17.625V6.375C20.25 4.535 19.465 3.75 17.625 3.75H6.375ZM12 17.75C11.894 17.75 11.788 17.728 11.689 17.683C11.509 17.601 7.27501 15.637 6.58801 12.096C6.31601 10.693 6.59599 9.31402 7.33899 8.40802C7.95599 7.65602 8.83804 7.255 9.88904 7.25C9.89504 7.25 9.90003 7.25 9.90503 7.25C10.886 7.25 11.559 7.69499 12 8.17499C12.44 7.69499 13.113 7.25 14.095 7.25C14.1 7.25 14.105 7.25 14.111 7.25C15.163 7.255 16.045 7.65501 16.661 8.40601C17.415 9.32401 17.688 10.669 17.412 12.095C16.725 15.637 12.491 17.601 12.311 17.682C12.212 17.728 12.106 17.75 12 17.75ZM9.90405 8.75C9.90105 8.75 9.89897 8.75 9.89697 8.75C9.29797 8.753 8.82902 8.95801 8.49902 9.35901C8.03702 9.92301 7.87303 10.839 8.06104 11.809C8.50804 14.116 11.094 15.678 11.999 16.16C12.902 15.676 15.493 14.107 15.938 11.81C16.126 10.838 15.962 9.92197 15.5 9.35797C15.171 8.95797 14.7011 8.753 14.1021 8.75C14.1001 8.75 14.097 8.75 14.095 8.75C13.099 8.75 12.725 9.78101 12.709 9.82501C12.602 10.127 12.298 10.319 11.994 10.329C11.673 10.326 11.389 10.123 11.287 9.81897C11.274 9.78097 10.9001 8.75 9.90405 8.75ZM16.675 11.952H16.6851H16.675Z" />
</svg>
