<svg viewBox="0 0 24 24" fill="currentColor" stroke="currentColor" xmlns="http://www.w3.org/2000/svg">
<path d="M15.7751 21.75C15.5241 21.75 15.272 21.69 15.039 21.568L12.0151 19.985L8.96405 21.566C8.42705 21.846 7.7881 21.802 7.2951 21.443C6.8051 21.086 6.56505 20.493 6.66705 19.896L7.2431 16.552L4.71405 14.083C4.29305 13.674 4.14501 13.074 4.32501 12.517C4.50601 11.959 4.97912 11.56 5.56012 11.476L9.04608 10.972L10.579 7.90997C10.849 7.36697 11.3921 7.03003 11.9991 7.03003C12.6061 7.03003 13.149 7.36697 13.419 7.90997L14.9301 10.957L18.439 11.477C19.02 11.561 19.494 11.959 19.674 12.518C19.855 13.075 19.7061 13.675 19.2851 14.084L16.7641 16.53L17.3331 19.901C17.4361 20.497 17.1951 21.09 16.7061 21.447C16.4291 21.647 16.1041 21.75 15.7751 21.75ZM12.0001 18.481C12.2441 18.481 12.488 18.539 12.71 18.656L15.7341 20.239L15.855 20.154L15.278 16.807C15.194 16.309 15.3581 15.804 15.7181 15.453L18.2401 13.006L14.7371 12.456C14.2381 12.384 13.807 12.071 13.585 11.621L12.075 8.57501C12.067 8.56001 12.0521 8.52802 11.9991 8.52802L10.412 11.622C10.19 12.071 9.76005 12.383 9.26105 12.456L5.77508 12.96L8.28009 15.452C8.64109 15.804 8.80501 16.309 8.72101 16.805L8.14508 20.151L8.268 20.237L11.289 18.656C11.512 18.539 11.7561 18.481 12.0001 18.481ZM6.75006 9V3C6.75006 2.586 6.41406 2.25 6.00006 2.25C5.58606 2.25 5.25006 2.586 5.25006 3V9C5.25006 9.414 5.58606 9.75 6.00006 9.75C6.41406 9.75 6.75006 9.414 6.75006 9ZM12.7501 5V3C12.7501 2.586 12.4141 2.25 12.0001 2.25C11.5861 2.25 11.2501 2.586 11.2501 3V5C11.2501 5.414 11.5861 5.75 12.0001 5.75C12.4141 5.75 12.7501 5.414 12.7501 5ZM18.7501 9V3C18.7501 2.586 18.4141 2.25 18.0001 2.25C17.5861 2.25 17.2501 2.586 17.2501 3V9C17.2501 9.414 17.5861 9.75 18.0001 9.75C18.4141 9.75 18.7501 9.414 18.7501 9Z" />
</svg>
