<svg viewBox="0 0 24 24" fill="currentColor" stroke="currentColor" xmlns="http://www.w3.org/2000/svg">
<path d="M17.667 1.5H6.33301C3.82501 1.5 2.5 2.82601 2.5 5.33301V15.333C2.5 17.841 3.82501 19.166 6.33301 19.166H7.83301C8.19801 19.166 8.54797 19.341 8.76697 19.633L10.267 21.6331C10.68 22.1841 11.312 22.5 12 22.5C12.688 22.5 13.32 22.1841 13.733 21.6331L15.2321 19.633C15.4521 19.341 15.801 19.166 16.167 19.166H17.667C20.175 19.166 21.5 17.841 21.5 15.333V5.33301C21.5 2.82601 20.175 1.5 17.667 1.5ZM20.5 15.333C20.5 17.266 19.6 18.166 17.667 18.166H16.167C15.489 18.166 14.841 18.49 14.433 19.033L12.933 21.033C12.49 21.626 11.511 21.626 11.068 21.033L9.56702 19.033C9.16002 18.491 8.51098 18.166 7.83398 18.166H6.33398C4.40098 18.166 3.50098 17.266 3.50098 15.333V5.33301C3.50098 3.40001 4.40098 2.5 6.33398 2.5H17.668C19.601 2.5 20.501 3.40001 20.501 5.33301V15.333H20.5ZM15.958 6.25H9.93896C8.55396 6.25 8.20404 6.95401 7.96204 7.67401L6.90601 10.841C6.64901 11.614 6.70802 12.319 7.07202 12.823C7.32202 13.17 7.83903 13.583 8.88403 13.583H10.4449V14.791C10.4449 15.489 10.792 16.137 11.373 16.524C11.597 16.673 11.853 16.75 12.113 16.75C12.252 16.75 12.39 16.728 12.526 16.685C12.917 16.559 13.223 16.266 13.374 15.862L14.473 12.528H15.958C16.671 12.528 17.25 11.948 17.25 11.236V7.54102C17.25 6.83002 16.671 6.25 15.958 6.25ZM13.637 11.872L12.432 15.531C12.382 15.664 12.277 15.715 12.219 15.734C12.161 15.753 12.044 15.772 11.928 15.693C11.626 15.492 11.446 15.155 11.446 14.792V13.084C11.446 12.808 11.222 12.584 10.946 12.584H8.88501C8.54201 12.584 8.09003 12.524 7.88403 12.239C7.71603 12.006 7.70506 11.611 7.85706 11.158L8.91296 7.99103C9.08296 7.48203 9.15994 7.25 9.93994 7.25H14V11.564C13.836 11.604 13.691 11.706 13.637 11.872ZM16.25 11.236C16.25 11.397 16.119 11.528 15.958 11.528H15V7.25H15.958C16.119 7.25 16.25 7.38099 16.25 7.54199V11.236Z" />
</svg>
