<svg viewBox="0 0 24 24" fill="currentColor" stroke="currentColor" xmlns="http://www.w3.org/2000/svg">
<path d="M12 1.5C6.21 1.5 1.5 6.21 1.5 12C1.5 17.79 6.21 22.5 12 22.5C17.79 22.5 22.5 17.79 22.5 12C22.5 6.21 17.79 1.5 12 1.5ZM12 21.5C6.762 21.5 2.5 17.238 2.5 12C2.5 6.762 6.762 2.5 12 2.5C17.238 2.5 21.5 6.762 21.5 12C21.5 17.238 17.238 21.5 12 21.5ZM16 7.25H9.98096C8.59396 7.25 8.24403 7.95401 8.00403 8.67401L6.948 11.841C6.69 12.614 6.74904 13.318 7.11304 13.823C7.36304 14.17 7.88005 14.583 8.92505 14.583H10.4871V15.791C10.4871 16.489 10.834 17.137 11.415 17.524C11.639 17.673 11.895 17.75 12.155 17.75C12.294 17.75 12.432 17.728 12.568 17.685C12.959 17.559 13.265 17.266 13.416 16.862L14.515 13.528H16C16.713 13.528 17.292 12.948 17.292 12.236V8.54102C17.292 7.83002 16.713 7.25 16 7.25ZM13.679 12.872L12.474 16.531C12.424 16.664 12.319 16.715 12.261 16.734C12.203 16.753 12.087 16.772 11.97 16.693C11.668 16.492 11.488 16.155 11.488 15.792V14.084C11.488 13.808 11.264 13.584 10.988 13.584H8.92603C8.58303 13.584 8.13105 13.524 7.92505 13.239C7.75705 13.005 7.74705 12.611 7.89905 12.158L8.95496 8.99103C9.12396 8.48303 9.20106 8.25098 9.98206 8.25098H14.043V12.565C13.878 12.604 13.733 12.706 13.679 12.872ZM16.292 12.236C16.292 12.397 16.161 12.528 16 12.528H15.042V8.25H16C16.161 8.25 16.292 8.38099 16.292 8.54199V12.236Z" />
</svg>
