<svg viewBox="0 0 24 24" fill="currentColor" stroke="currentColor" xmlns="http://www.w3.org/2000/svg">
<path d="M19.5 2.5H8.09597C5.76297 2.5 5.21202 3.58401 4.77602 4.89301L2.777 10.893C2.336 12.219 2.424 13.409 3.027 14.246C3.628 15.078 4.66006 15.5 6.09706 15.5H9.50307V18.237C9.50307 19.409 10.0851 20.498 11.0611 21.149C11.4101 21.381 11.81 21.501 12.215 21.501C12.431 21.501 12.648 21.467 12.859 21.399C13.468 21.202 13.948 20.746 14.179 20.127L16.3631 13.501H19.501C20.604 13.501 21.501 12.604 21.501 11.501V4.50098C21.5 3.39698 20.603 2.5 19.5 2.5ZM15.526 12.843L13.236 19.794C13.118 20.106 12.869 20.345 12.551 20.447C12.232 20.55 11.893 20.502 11.614 20.317C10.918 19.852 10.502 19.074 10.502 18.237V15C10.502 14.724 10.278 14.5 10.002 14.5H6.09597C4.99797 14.5 4.23905 14.218 3.83705 13.661C3.28405 12.893 3.52899 11.795 3.72499 11.209L5.72402 5.20898C6.08702 4.11698 6.37699 3.5 8.09499 3.5H16.249V12.5H16C15.785 12.5 15.594 12.639 15.526 12.843ZM20.5 11.5C20.5 12.051 20.052 12.5 19.5 12.5H17.25V3.5H19.5C20.052 3.5 20.5 3.949 20.5 4.5V11.5Z" />
</svg>
