<svg viewBox="0 0 24 24" fill="currentColor" stroke="currentColor" xmlns="http://www.w3.org/2000/svg">
<path d="M17.625 2.5H6.375C3.84 2.5 2.5 3.84 2.5 6.375V17.625C2.5 20.16 3.84 21.5 6.375 21.5H17.625C20.16 21.5 21.5 20.16 21.5 17.625V6.375C21.5 3.84 20.16 2.5 17.625 2.5ZM20.5 17.625C20.5 19.586 19.587 20.5 17.625 20.5H6.375C4.413 20.5 3.5 19.586 3.5 17.625V6.375C3.5 4.414 4.413 3.5 6.375 3.5H17.625C19.587 3.5 20.5 4.414 20.5 6.375V17.625ZM15.958 7.25H9.93896C8.55396 7.25 8.20404 7.95401 7.96204 8.67401L6.90601 11.841C6.64901 12.614 6.70802 13.319 7.07202 13.823C7.32202 14.17 7.83903 14.583 8.88403 14.583H10.4449V15.791C10.4449 16.489 10.792 17.137 11.373 17.524C11.597 17.673 11.853 17.75 12.113 17.75C12.252 17.75 12.39 17.728 12.526 17.685C12.917 17.559 13.223 17.266 13.374 16.862L14.473 13.528H15.958C16.671 13.528 17.25 12.948 17.25 12.236V8.54102C17.25 7.83002 16.671 7.25 15.958 7.25ZM13.637 12.872L12.432 16.531C12.382 16.664 12.277 16.715 12.219 16.734C12.161 16.753 12.045 16.772 11.928 16.693C11.626 16.492 11.446 16.155 11.446 15.792V14.084C11.446 13.808 11.222 13.584 10.946 13.584H8.88501C8.54201 13.584 8.09003 13.524 7.88403 13.239C7.71603 13.006 7.70506 12.611 7.85706 12.158L8.91296 8.99103C9.08296 8.48203 9.15994 8.25 9.93994 8.25H14V12.564C13.836 12.604 13.691 12.706 13.637 12.872ZM16.25 12.236C16.25 12.397 16.119 12.528 15.958 12.528H15V8.25H15.958C16.119 8.25 16.25 8.38099 16.25 8.54199V12.236Z" />
</svg>
