<svg viewBox="0 0 24 24" fill="currentColor" stroke="currentColor" xmlns="http://www.w3.org/2000/svg">
<path d="M20.096 5.34998C19.11 4.14798 17.687 3.508 15.981 3.5C15.974 3.5 15.966 3.5 15.959 3.5C13.978 3.5 12.683 4.73703 12.001 5.84003C11.319 4.73703 10.024 3.5 8.04302 3.5C8.03502 3.5 8.02705 3.5 8.02105 3.5C6.31705 3.508 4.89501 4.14801 3.90801 5.35101C2.67701 6.85201 2.21701 9.17397 2.67901 11.561C3.88801 17.792 11.472 21.309 11.794 21.456C11.859 21.486 11.931 21.501 12.001 21.501C12.071 21.501 12.1431 21.486 12.2081 21.456C12.5301 21.309 20.1141 17.793 21.3221 11.561C21.7851 9.17197 21.327 6.85098 20.096 5.34998ZM20.339 11.37C19.336 16.548 13.2111 19.84 12.0001 20.444C10.7891 19.84 4.66408 16.548 3.66008 11.37C3.25308 9.272 3.6341 7.25899 4.6801 5.98499C5.4831 5.00599 6.6081 4.507 8.0241 4.5C8.0311 4.5 8.037 4.5 8.044 4.5C10.6 4.5 11.49 7.03897 11.527 7.14697C11.664 7.55297 12.338 7.55297 12.474 7.14697C12.511 7.03897 13.4021 4.5 15.9571 4.5C15.9641 4.5 15.9701 4.5 15.9771 4.5C17.3951 4.507 18.521 5.00599 19.323 5.98499C20.3671 7.25699 20.747 9.271 20.339 11.37Z" />
</svg>
