<svg viewBox="0 0 24 24" fill="currentColor" stroke="currentColor" xmlns="http://www.w3.org/2000/svg">
<path d="M21.103 7.20802C21.546 8.50802 21.622 10.014 21.32 11.565C20.115 17.796 12.529 21.308 12.207 21.455C12.142 21.485 12.07 21.5 12 21.5C11.929 21.5 11.858 21.485 11.792 21.455C11.732 21.428 10.311 20.772 8.57203 19.549C8.34603 19.39 8.29306 19.078 8.45106 18.852C8.61006 18.626 8.92196 18.572 9.14796 18.731C10.429 19.633 11.551 20.221 12 20.445C13.21 19.842 19.337 16.553 20.338 11.375C20.607 9.99501 20.544 8.66599 20.156 7.53199C20.067 7.27099 20.207 6.98598 20.468 6.89698C20.726 6.80698 21.013 6.94702 21.103 7.20802ZM21.354 3.35401L3.35401 21.354C3.25601 21.452 3.12801 21.5 3.00001 21.5C2.87201 21.5 2.74401 21.451 2.64601 21.354C2.45101 21.159 2.45101 20.842 2.64601 20.647L5.96302 17.33C4.18202 15.531 3.07101 13.595 2.67701 11.566C2.21401 9.17399 2.67402 6.84999 3.90602 5.34999C4.89202 4.14899 6.31302 3.50999 8.01502 3.50099C8.02102 3.50099 8.02599 3.50099 8.03199 3.50099C10.018 3.50099 11.316 4.74 11.999 5.844C12.682 4.74 13.978 3.50099 15.964 3.50099C15.97 3.50099 15.975 3.50099 15.981 3.50099C17.121 3.50999 18.109 3.80702 18.943 4.35102L20.647 2.64698C20.842 2.45198 21.159 2.45198 21.354 2.64698C21.549 2.84198 21.549 3.15801 21.354 3.35401ZM6.67103 16.622L18.223 5.07002C17.585 4.70402 16.835 4.50701 15.975 4.50001C15.971 4.50001 15.966 4.50001 15.962 4.50001C13.401 4.50001 12.51 7.041 12.473 7.149C12.336 7.555 11.662 7.555 11.526 7.149C11.489 7.041 10.5961 4.50001 8.03407 4.50001C8.03007 4.50001 8.02501 4.50001 8.02101 4.50001C6.60601 4.50701 5.48206 5.00598 4.68006 5.98298C3.63406 7.25598 3.25304 9.27201 3.66004 11.375C4.01504 13.205 5.03303 14.967 6.67103 16.622Z" />
</svg>
