<svg viewBox="0 0 24 24" fill="currentColor" stroke="currentColor" xmlns="http://www.w3.org/2000/svg">
<path d="M18.75 17C18.75 17.276 18.526 17.5 18.25 17.5H15.75C15.474 17.5 15.25 17.276 15.25 17C15.25 16.724 15.474 16.5 15.75 16.5H18.25C18.526 16.5 18.75 16.724 18.75 17ZM21.5 17C21.5 19.481 19.481 21.5 17 21.5C15.891 21.5 14.8871 21.081 14.1021 20.414C13.0161 21.086 12.241 21.44 12.205 21.456C12.141 21.486 12.07 21.5 12 21.5C11.93 21.5 11.859 21.485 11.793 21.455C11.471 21.309 3.88299 17.797 2.67799 11.565C2.21499 9.173 2.67499 6.85 3.90699 5.349C4.89299 4.148 6.31398 3.508 8.01698 3.5C8.02298 3.5 8.02807 3.5 8.03407 3.5C10.0201 3.5 11.318 4.73902 12.001 5.84302C12.686 4.73602 13.9901 3.49 15.9821 3.5C17.6891 3.509 19.1121 4.14702 20.0971 5.34802C21.3261 6.84702 21.785 9.171 21.322 11.565C21.151 12.432 20.844 13.286 20.421 14.11C21.084 14.895 21.5 15.895 21.5 17ZM13.3991 19.67C12.8421 18.921 12.5 18.003 12.5 17C12.5 14.519 14.519 12.5 17 12.5C17.992 12.5 18.901 12.833 19.646 13.378C19.956 12.722 20.206 12.053 20.34 11.373C20.746 9.26898 20.367 7.25299 19.323 5.98199C18.521 5.00599 17.395 4.507 15.976 4.5C15.972 4.5 15.967 4.5 15.963 4.5C13.401 4.5 12.51 7.04099 12.473 7.14899C12.336 7.55499 11.662 7.55499 11.526 7.14899C11.489 7.04099 10.5961 4.5 8.03407 4.5C8.03007 4.5 8.02501 4.5 8.02101 4.5C6.60601 4.507 5.48097 5.00601 4.67897 5.98401C3.63297 7.25701 3.25207 9.273 3.65907 11.375C4.66007 16.555 10.792 19.844 12 20.445C12.267 20.314 12.7731 20.049 13.3991 19.67ZM20.5 17C20.5 15.07 18.93 13.5 17 13.5C15.07 13.5 13.5 15.07 13.5 17C13.5 18.93 15.07 20.5 17 20.5C18.93 20.5 20.5 18.93 20.5 17Z" />
</svg>
