<svg viewBox="0 0 24 24" fill="currentColor" stroke="currentColor" xmlns="http://www.w3.org/2000/svg">
<path d="M20.4211 14.11C20.8441 13.285 21.1511 12.432 21.3221 11.565C21.7851 9.17 21.3271 6.84602 20.0971 5.34802C19.1121 4.14802 17.6891 3.509 15.9821 3.5C15.9761 3.5 15.971 3.5 15.965 3.5C13.98 3.5 12.6831 4.73902 12.0001 5.84302C11.3171 4.73902 10.02 3.5 8.03301 3.5C8.02701 3.5 8.02204 3.5 8.01604 3.5C6.31304 3.509 4.89206 4.148 3.90606 5.349C2.67506 6.849 2.21505 9.173 2.67705 11.565C3.88205 17.797 11.47 21.309 11.792 21.455C11.858 21.485 11.9291 21.5 11.9991 21.5C12.0691 21.5 12.14 21.485 12.204 21.456C12.24 21.44 13.015 21.086 14.101 20.414C14.886 21.082 15.8901 21.5 16.9991 21.5C19.4801 21.5 21.4991 19.481 21.4991 17C21.5001 15.895 21.0841 14.895 20.4211 14.11ZM12.001 20.445C10.793 19.843 4.66109 16.555 3.66008 11.375C3.25308 9.272 3.6341 7.25701 4.6801 5.98401C5.4821 5.00601 6.60702 4.507 8.02202 4.5C10.597 4.497 11.49 7.04099 11.527 7.14899C11.664 7.55499 12.338 7.55499 12.474 7.14899C12.511 7.04099 13.403 4.5 15.964 4.5C15.968 4.5 15.9731 4.5 15.9771 4.5C17.3961 4.507 18.522 5.00599 19.324 5.98199C20.368 7.25299 20.747 9.26899 20.341 11.373C20.207 12.053 19.957 12.722 19.647 13.378C18.902 12.832 17.993 12.5 17.001 12.5C14.52 12.5 12.501 14.519 12.501 17C12.501 18.003 12.8421 18.921 13.4001 19.67C12.7731 20.049 12.267 20.314 12.001 20.445ZM17.0001 20.5C15.0701 20.5 13.5001 18.93 13.5001 17C13.5001 15.07 15.0701 13.5 17.0001 13.5C18.93 13.5 20.5001 15.07 20.5001 17C20.5001 18.93 18.93 20.5 17.0001 20.5ZM18.6041 15.813C18.7991 16.008 18.7991 16.325 18.6041 16.52L16.9371 18.187C16.8431 18.281 16.7161 18.333 16.5831 18.333C16.4501 18.333 16.3231 18.28 16.2291 18.187L15.396 17.354C15.201 17.159 15.201 16.842 15.396 16.647C15.591 16.452 15.9081 16.452 16.1031 16.647L16.5821 17.127L17.8951 15.814C18.0921 15.618 18.4081 15.618 18.6041 15.813Z" />
</svg>
