<svg viewBox="0 0 24 24" fill="currentColor" stroke="currentColor" xmlns="http://www.w3.org/2000/svg">
<path d="M17.667 1.5H6.33301C3.82501 1.5 2.5 2.82501 2.5 5.33301V15.333C2.5 17.841 3.82501 19.166 6.33301 19.166H7.83301C8.19801 19.166 8.54797 19.341 8.76697 19.633L10.267 21.633C10.68 22.184 11.312 22.5 12 22.5C12.688 22.5 13.32 22.184 13.733 21.633L15.2321 19.633C15.4521 19.341 15.801 19.166 16.167 19.166H17.667C20.175 19.166 21.5 17.84 21.5 15.333V5.33301C21.5 2.82501 20.175 1.5 17.667 1.5ZM20.5 15.333C20.5 17.266 19.6 18.166 17.667 18.166H16.167C15.489 18.166 14.841 18.49 14.433 19.032L12.933 21.032C12.49 21.625 11.511 21.625 11.068 21.032L9.56702 19.032C9.16002 18.49 8.51098 18.166 7.83398 18.166H6.33398C4.40098 18.166 3.50098 17.266 3.50098 15.333V5.33301C3.50098 3.40001 4.40098 2.5 6.33398 2.5H17.668C19.601 2.5 20.501 3.40001 20.501 5.33301V15.333H20.5ZM14.119 6C14.115 6 14.11 6 14.105 6C13.064 6 12.401 6.55099 12.01 7.06299C11.619 6.54999 10.956 6 9.91504 6C9.91004 6 9.905 6 9.901 6C8.926 6.005 8.11195 6.373 7.54395 7.065C6.84795 7.913 6.58599 9.215 6.84399 10.547C7.50699 13.964 11.628 15.875 11.803 15.954C11.868 15.984 11.94 15.999 12.01 15.999C12.08 15.999 12.152 15.984 12.217 15.954C12.392 15.874 16.513 13.963 17.176 10.547C17.435 9.214 17.174 7.913 16.478 7.065C15.911 6.373 15.095 6.005 14.119 6ZM16.194 10.357C15.708 12.868 12.814 14.526 12.01 14.942C11.204 14.527 8.31505 12.875 7.82605 10.357C7.62405 9.31399 7.80704 8.32101 8.31604 7.70001C8.69504 7.23901 9.22903 7.003 9.90503 7C9.90803 7 9.91094 7 9.91394 7C11.0939 7 11.518 8.19199 11.535 8.23999C11.603 8.44299 11.7931 8.57999 12.0081 8.58099C12.0091 8.58099 12.01 8.58099 12.01 8.58099C12.224 8.58099 12.414 8.44398 12.484 8.24298C12.502 8.19198 12.926 7.00098 14.106 7.00098C14.109 7.00098 14.112 7.00098 14.115 7.00098C14.792 7.00398 15.3271 7.23999 15.7061 7.70099C16.2151 8.31999 16.397 9.31399 16.194 10.357Z" />
</svg>
