<svg viewBox="0 0 24 24" fill="currentColor" stroke="currentColor" xmlns="http://www.w3.org/2000/svg">
<path d="M12 1.5C6.21 1.5 1.5 6.21 1.5 12C1.5 17.79 6.21 22.5 12 22.5C17.79 22.5 22.5 17.79 22.5 12C22.5 6.21 17.79 1.5 12 1.5ZM12 21.5C6.762 21.5 2.5 17.238 2.5 12C2.5 6.762 6.762 2.5 12 2.5C17.238 2.5 21.5 6.762 21.5 12C21.5 17.238 17.238 21.5 12 21.5ZM14.108 7.5C14.104 7.5 14.099 7.5 14.094 7.5C13.053 7.5 12.39 8.05099 11.999 8.56299C11.608 8.04999 10.9451 7.5 9.90405 7.5C9.89905 7.5 9.89401 7.5 9.89001 7.5C8.91501 7.505 8.09998 7.87398 7.53198 8.56598C6.83598 9.41498 6.57401 10.716 6.83301 12.047C7.49601 15.464 11.617 17.375 11.792 17.454C11.857 17.484 11.929 17.499 11.999 17.499C12.069 17.499 12.1411 17.484 12.2061 17.454C12.3811 17.374 16.502 15.463 17.165 12.047C17.423 10.714 17.1619 9.41203 16.4659 8.56403C15.8989 7.87303 15.084 7.505 14.108 7.5ZM16.184 11.857C15.698 14.368 12.804 16.025 12 16.442C11.194 16.027 8.30504 14.375 7.81604 11.857C7.61304 10.815 7.79603 9.82199 8.30603 9.20099C8.68403 8.73999 9.21902 8.50398 9.89502 8.50098C9.89802 8.50098 9.90105 8.50098 9.90405 8.50098C11.0841 8.50098 11.508 9.69303 11.525 9.74103C11.593 9.94403 11.783 10.081 11.998 10.082C11.999 10.082 12 10.082 12 10.082C12.214 10.082 12.404 9.94502 12.474 9.74402C12.492 9.69302 12.9159 8.50201 14.0959 8.50201C14.0989 8.50201 14.102 8.50201 14.105 8.50201C14.782 8.50501 15.3169 8.74099 15.6949 9.20099C16.2029 9.81999 16.387 10.813 16.184 11.857Z" />
</svg>
