<svg viewBox="0 0 24 24" fill="currentColor" stroke="currentColor" xmlns="http://www.w3.org/2000/svg">
<path d="M20.974 9.75401C20.373 8.92201 19.3411 8.49998 17.9041 8.49998H14.498V5.76298C14.498 4.59098 13.9159 3.50199 12.9399 2.85099C12.4049 2.49499 11.75 2.40599 11.142 2.60099C10.533 2.79799 10.053 3.25397 9.82202 3.87297L7.63794 10.499H4.5C3.397 10.499 2.5 11.396 2.5 12.499V19.499C2.5 20.602 3.397 21.499 4.5 21.499H15.9041C18.2371 21.499 18.788 20.415 19.224 19.106L21.223 13.106C21.665 11.781 21.576 10.591 20.974 9.75401ZM3.5 19.5V12.5C3.5 11.949 3.948 11.5 4.5 11.5H6.75V20.5H4.5C3.948 20.5 3.5 20.051 3.5 19.5ZM20.274 12.791L18.275 18.791C17.912 19.883 17.6221 20.5 15.9041 20.5H7.75V11.5H7.99902C8.21502 11.5 8.406 11.361 8.474 11.157L10.764 4.20598C10.882 3.89398 11.131 3.65496 11.449 3.55296C11.768 3.44996 12.107 3.49696 12.386 3.68296C13.082 4.14796 13.498 4.92598 13.498 5.76298V8.99998C13.498 9.27598 13.722 9.49998 13.998 9.49998H17.9041C19.0021 9.49998 19.761 9.78197 20.163 10.339C20.715 11.106 20.47 12.205 20.274 12.791Z" />
</svg>
