<svg viewBox="0 0 24 24" fill="currentColor" stroke="currentColor" xmlns="http://www.w3.org/2000/svg">
<path d="M17.667 1.5H6.33301C3.82501 1.5 2.5 2.82601 2.5 5.33301V15.333C2.5 17.841 3.82501 19.166 6.33301 19.166H7.83301C8.19801 19.166 8.54797 19.341 8.76697 19.633L10.267 21.6331C10.68 22.1841 11.312 22.5 12 22.5C12.688 22.5 13.32 22.1841 13.733 21.6331L15.2321 19.633C15.4521 19.341 15.801 19.166 16.167 19.166H17.667C20.175 19.166 21.5 17.841 21.5 15.333V5.33301C21.5 2.82601 20.175 1.5 17.667 1.5ZM20.5 15.333C20.5 17.266 19.6 18.166 17.667 18.166H16.167C15.489 18.166 14.841 18.49 14.433 19.033L12.933 21.033C12.49 21.626 11.511 21.626 11.068 21.033L9.56702 19.033C9.16002 18.491 8.51098 18.166 7.83398 18.166H6.33398C4.40098 18.166 3.50098 17.266 3.50098 15.333V5.33301C3.50098 3.40001 4.40098 2.5 6.33398 2.5H17.668C19.601 2.5 20.501 3.40001 20.501 5.33301V15.333H20.5ZM15.115 7.91699H13.554V6.70898C13.554 6.01098 13.207 5.36301 12.626 4.97601C12.283 4.74701 11.862 4.69098 11.473 4.81598C11.082 4.94198 10.776 5.23498 10.625 5.63898L9.526 8.97302H8.04102C7.32802 8.97302 6.74902 9.55301 6.74902 10.265V13.96C6.74902 14.672 7.32802 15.252 8.04102 15.252H14.0601C15.4451 15.252 15.795 14.548 16.037 13.828L17.093 10.661C17.35 9.88801 17.291 9.18302 16.927 8.67902C16.677 8.33002 16.16 7.91699 15.115 7.91699ZM7.75 13.958V10.263C7.75 10.102 7.88099 9.97101 8.04199 9.97101H9V14.249H8.04199C7.88099 14.25 7.75 14.119 7.75 13.958ZM16.144 10.342L15.088 13.509C14.918 14.018 14.841 14.25 14.061 14.25H10V9.93597C10.164 9.89497 10.309 9.79399 10.363 9.62799L11.568 5.96899C11.618 5.83599 11.723 5.78499 11.781 5.76599C11.839 5.74699 11.955 5.72801 12.072 5.80701C12.374 6.00801 12.554 6.34501 12.554 6.70801V8.41602C12.554 8.69202 12.778 8.91602 13.054 8.91602H15.115C15.458 8.91602 15.91 8.97599 16.116 9.26099C16.284 9.49499 16.295 9.88898 16.144 10.342Z" />
</svg>
