<svg viewBox="0 0 24 24" fill="currentColor" stroke="currentColor" xmlns="http://www.w3.org/2000/svg">
<path d="M12 1.5C6.21 1.5 1.5 6.21 1.5 12C1.5 17.79 6.21 22.5 12 22.5C17.79 22.5 22.5 17.79 22.5 12C22.5 6.21 17.79 1.5 12 1.5ZM12 21.5C6.762 21.5 2.5 17.238 2.5 12C2.5 6.762 6.762 2.5 12 2.5C17.238 2.5 21.5 6.762 21.5 12C21.5 17.238 17.238 21.5 12 21.5ZM15.115 9.41699H13.554V8.20898C13.554 7.51098 13.207 6.86301 12.626 6.47601C12.282 6.24701 11.862 6.19098 11.473 6.31598C11.082 6.44198 10.776 6.73498 10.625 7.13898L9.526 10.473H8.04102C7.32802 10.473 6.74902 11.053 6.74902 11.765V15.46C6.74902 16.172 7.32802 16.752 8.04102 16.752H14.0601C15.4451 16.752 15.795 16.048 16.037 15.328L17.093 12.161C17.35 11.388 17.291 10.683 16.927 10.179C16.677 9.83002 16.16 9.41699 15.115 9.41699ZM7.75 15.458V11.763C7.75 11.602 7.88099 11.471 8.04199 11.471H9V15.749H8.04199C7.88099 15.75 7.75 15.619 7.75 15.458ZM16.144 11.842L15.088 15.009C14.918 15.518 14.841 15.75 14.061 15.75H10V11.436C10.164 11.395 10.309 11.294 10.363 11.128L11.568 7.46899C11.618 7.33599 11.723 7.28499 11.781 7.26599C11.839 7.24699 11.955 7.22801 12.072 7.30701C12.374 7.50801 12.554 7.84501 12.554 8.20801V9.91602C12.554 10.192 12.778 10.416 13.054 10.416H15.115C15.458 10.416 15.91 10.476 16.116 10.761C16.284 10.995 16.295 11.389 16.144 11.842Z" />
</svg>
