<svg viewBox="0 0 24 24" fill="currentColor" stroke="currentColor" xmlns="http://www.w3.org/2000/svg">
<path d="M21.044 11.772C21.456 11.371 21.6031 10.782 21.4261 10.235C21.2481 9.68699 20.7831 9.29501 20.2121 9.21301L15.73 8.565C15.567 8.541 15.4251 8.43999 15.3531 8.29199L13.4111 4.375C13.1431 3.836 12.603 3.50098 12.001 3.50098C11.399 3.50098 10.858 3.836 10.591 4.375L8.6491 8.29303C8.5771 8.44003 8.43502 8.54198 8.27202 8.56598L3.79009 9.21399C3.21909 9.29699 2.7541 9.68802 2.5761 10.236C2.3991 10.783 2.54606 11.372 2.95806 11.773L6.19902 14.918C6.31702 15.033 6.37107 15.198 6.34307 15.36L5.6021 19.661C5.5001 20.253 5.74 20.841 6.226 21.196C6.713 21.551 7.3501 21.599 7.8831 21.318L11.768 19.285C11.839 19.248 11.9161 19.231 11.9941 19.23C11.9971 19.23 12.0001 19.232 12.0031 19.232C12.0061 19.232 12.009 19.23 12.012 19.23C12.09 19.231 12.1671 19.248 12.2371 19.285L16.125 21.32C16.356 21.441 16.606 21.501 16.855 21.501C17.181 21.501 17.5041 21.399 17.7801 21.198C18.2661 20.844 18.505 20.257 18.403 19.665L17.662 15.362C17.634 15.199 17.6871 15.034 17.8071 14.919L21.044 11.772ZM7.41802 20.431C7.21802 20.535 6.99204 20.518 6.81304 20.386C6.63304 20.255 6.54811 20.047 6.58611 19.829L7.32707 15.528C7.41007 15.039 7.24799 14.542 6.89299 14.199L3.65203 11.054C3.51303 10.919 3.46507 10.728 3.52507 10.543C3.58607 10.358 3.7371 10.23 3.9301 10.202L8.41204 9.55402C8.90104 9.48302 9.32402 9.17699 9.54302 8.73499L11.485 4.81799C11.488 4.81199 11.4951 4.81002 11.4991 4.80402V18.323C11.4331 18.347 11.365 18.365 11.302 18.397L7.41802 20.431ZM16.673 15.529L17.414 19.833C17.452 20.05 17.367 20.258 17.188 20.388C17.007 20.52 16.781 20.535 16.584 20.433L12.6961 18.398C12.6331 18.365 12.5651 18.347 12.4991 18.324V4.80499C12.5021 4.81099 12.509 4.81297 12.513 4.81897L14.455 8.73499C14.674 9.17699 15.0971 9.48399 15.5861 9.55499L20.068 10.203C20.261 10.231 20.4131 10.359 20.4731 10.544C20.5331 10.729 20.485 10.919 20.345 11.055L17.106 14.2C16.752 14.543 16.59 15.04 16.673 15.529Z" />
</svg>
