<svg viewBox="0 0 24 24" fill="currentColor" stroke="currentColor" xmlns="http://www.w3.org/2000/svg">
<path d="M17.667 1.5H6.33301C3.82501 1.5 2.5 2.82501 2.5 5.33301V15.333C2.5 17.841 3.82501 19.166 6.33301 19.166H7.83301C8.19801 19.166 8.54797 19.341 8.76697 19.633L10.267 21.633C10.68 22.184 11.312 22.5 12 22.5C12.688 22.5 13.32 22.184 13.733 21.633L15.2321 19.633C15.4521 19.341 15.801 19.166 16.167 19.166H17.667C20.175 19.166 21.5 17.84 21.5 15.333V5.33301C21.5 2.82501 20.175 1.5 17.667 1.5ZM20.5 15.333C20.5 17.266 19.6 18.166 17.667 18.166H16.167C15.489 18.166 14.841 18.49 14.433 19.032L12.933 21.032C12.49 21.625 11.511 21.625 11.068 21.032L9.56702 19.032C9.16002 18.49 8.51098 18.166 7.83398 18.166H6.33398C4.40098 18.166 3.50098 17.266 3.50098 15.333V5.33301C3.50098 3.40001 4.40098 2.5 6.33398 2.5H17.668C19.601 2.5 20.501 3.40001 20.501 5.33301V15.333H20.5ZM16.595 8.19501L14.062 7.80103L12.983 5.612C12.797 5.234 12.421 5 12.001 5C11.581 5 11.204 5.234 11.019 5.612L9.89697 7.83301L7.40698 8.19501C7.00698 8.25301 6.67896 8.52898 6.55396 8.91498C6.42796 9.30098 6.53104 9.71698 6.82104 10.001L8.63794 11.811L8.22705 14.214C8.15605 14.63 8.32404 15.042 8.66504 15.289C9.00504 15.537 9.44699 15.567 9.81799 15.372L12.027 14.236L14.188 15.373C14.349 15.458 14.524 15.5 14.698 15.5C14.924 15.5 15.147 15.429 15.34 15.291C15.68 15.044 15.848 14.632 15.778 14.217L15.382 11.759L17.183 10.002C17.473 9.71901 17.576 9.30302 17.45 8.91602C17.322 8.52902 16.995 8.25301 16.595 8.19501ZM14.682 11.042C14.432 11.285 14.319 11.636 14.377 11.98L14.7889 14.385C14.7959 14.425 14.783 14.458 14.652 14.489L12.4919 13.352C12.3379 13.271 12.169 13.23 12 13.23C11.831 13.23 11.6621 13.271 11.5081 13.352L9.25 14.481C9.218 14.457 9.20404 14.425 9.21204 14.384L9.62305 11.982C9.68205 11.638 9.56797 11.287 9.31897 11.044L7.51794 9.28699L7.54895 9.18701L10.0389 8.82501C10.3839 8.77501 10.681 8.55797 10.834 8.24597L11.913 6.05701C11.948 5.98501 12.05 5.98501 12.085 6.05701L13.1639 8.245C13.3169 8.55699 13.614 8.77401 13.959 8.82501L16.449 9.18701L16.48 9.28699L14.682 11.042Z" />
</svg>
