<svg viewBox="0 0 24 24" fill="currentColor" stroke="currentColor" xmlns="http://www.w3.org/2000/svg">
<path d="M20.48 12.612C20.571 12.034 20.331 11.465 19.853 11.128L16.4239 8.70695C16.2999 8.61895 16.228 8.47595 16.23 8.32395L16.295 3.98295C16.303 3.42195 15.998 2.91599 15.499 2.66099C15.001 2.40599 14.408 2.456 13.96 2.793L10.473 5.39896C10.351 5.48996 10.194 5.51696 10.048 5.46696L6.06604 4.124C5.51104 3.937 4.90802 4.07796 4.49402 4.49296C4.07902 4.90796 3.937 5.50995 4.125 6.06595L5.46802 10.0479C5.51602 10.1929 5.49002 10.352 5.40002 10.474L2.79394 13.962C2.45694 14.412 2.40699 15.003 2.66199 15.502C2.91399 15.994 3.41003 16.297 3.96203 16.297C3.96903 16.297 3.97701 16.297 3.98401 16.297L8.323 16.232C8.513 16.229 8.61803 16.303 8.70703 16.426L11.126 19.853C11.416 20.264 11.878 20.499 12.37 20.499C12.45 20.499 12.5311 20.493 12.6121 20.48C13.1921 20.389 13.661 19.9839 13.837 19.4229L15.095 15.4C15.141 15.254 15.255 15.1399 15.401 15.0949L19.427 13.835C19.985 13.661 20.39 13.192 20.48 12.612ZM19.127 12.882L15.101 14.142C14.643 14.285 14.285 14.644 14.14 15.102L12.881 19.125C12.819 19.323 12.66 19.46 12.455 19.492C12.263 19.524 12.06 19.444 11.941 19.275L9.52197 15.848C9.24897 15.46 8.80398 15.23 8.32898 15.23C8.32198 15.23 8.31498 15.23 8.30798 15.23L3.96802 15.295C3.68502 15.295 3.592 15.122 3.552 15.045C3.471 14.885 3.48699 14.702 3.59399 14.558L6.19995 11.07C6.48795 10.685 6.56804 10.183 6.41504 9.72696L5.07202 5.74399C5.00702 5.54799 5.05405 5.34397 5.20105 5.19797C5.34705 5.05197 5.55097 5.00298 5.74597 5.06998L9.72803 6.413C10.184 6.567 10.687 6.48597 11.072 6.19797L14.558 3.59196C14.704 3.48396 14.884 3.46796 15.045 3.54996C15.121 3.58896 15.299 3.70798 15.295 3.96598L15.23 8.30601C15.222 8.78801 15.454 9.24297 15.848 9.52097L19.277 11.942C19.444 12.06 19.524 12.251 19.493 12.454C19.461 12.661 19.324 12.82 19.127 12.882ZM21.354 21.354C21.256 21.452 21.128 21.5 21 21.5C20.872 21.5 20.744 21.451 20.646 21.354L17.646 18.354C17.451 18.159 17.451 17.8419 17.646 17.6469C17.841 17.4519 18.158 17.4519 18.353 17.6469L21.353 20.6469C21.549 20.8419 21.549 21.158 21.354 21.354Z" />
</svg>
