<svg viewBox="0 0 24 24" fill="currentColor" stroke="currentColor" xmlns="http://www.w3.org/2000/svg">
<path d="M19.112 13.902C19.464 13.56 19.588 13.059 19.437 12.593C19.286 12.126 18.8889 11.793 18.4029 11.723L14.9179 11.219C14.8259 11.206 14.747 11.149 14.707 11.067L13.196 8.02002C12.968 7.56302 12.51 7.27899 12 7.27899C11.49 7.27899 11.0309 7.56302 10.8039 8.02002L9.29294 11.067C9.25294 11.149 9.17398 11.205 9.08298 11.218L5.59702 11.722C5.11102 11.792 4.71396 12.126 4.56296 12.592C4.41296 13.058 4.53691 13.56 4.88791 13.902L7.40903 16.348C7.47403 16.412 7.50499 16.504 7.48899 16.594L6.91294 19.938C6.82694 20.441 7.02899 20.94 7.44199 21.241C7.85499 21.542 8.39302 21.582 8.84702 21.345L11.869 19.763C11.949 19.721 12.048 19.72 12.13 19.763L15.154 21.346C15.35 21.449 15.562 21.499 15.774 21.499C16.049 21.499 16.324 21.412 16.558 21.242C16.97 20.941 17.172 20.443 17.086 19.941L16.509 16.595C16.493 16.504 16.524 16.412 16.588 16.348L19.112 13.902ZM15.524 16.764L16.1009 20.111C16.1329 20.293 16.0199 20.398 15.9699 20.434C15.9199 20.471 15.7859 20.547 15.6169 20.46L12.594 18.877C12.407 18.78 12.203 18.731 11.999 18.731C11.795 18.731 11.591 18.78 11.405 18.877L8.38401 20.459C8.21501 20.546 8.08 20.47 8.03 20.433C7.979 20.396 7.86592 20.292 7.89792 20.109L8.47397 16.763C8.54397 16.348 8.40696 15.925 8.10495 15.631L5.58396 13.185C5.47196 13.077 5.49691 12.951 5.51291 12.902C5.52991 12.852 5.58299 12.735 5.73899 12.713L9.22593 12.209C9.64293 12.148 10.0019 11.887 10.1889 11.511L11.6999 8.46399C11.7829 8.29599 11.937 8.27802 12 8.27802C12.063 8.27802 12.217 8.29599 12.3 8.46399L13.811 11.51C13.998 11.887 14.357 12.148 14.775 12.208L18.261 12.712C18.416 12.734 18.47 12.852 18.487 12.901C18.503 12.95 18.528 13.076 18.417 13.184L15.895 15.631C15.592 15.925 15.454 16.348 15.524 16.764ZM5.49997 9V3C5.49997 2.724 5.72397 2.5 5.99997 2.5C6.27597 2.5 6.49997 2.724 6.49997 3V9C6.49997 9.276 6.27597 9.5 5.99997 9.5C5.72397 9.5 5.49997 9.276 5.49997 9ZM11.5 5V3C11.5 2.724 11.724 2.5 12 2.5C12.276 2.5 12.5 2.724 12.5 3V5C12.5 5.276 12.276 5.5 12 5.5C11.724 5.5 11.5 5.276 11.5 5ZM17.5 9V3C17.5 2.724 17.724 2.5 18 2.5C18.276 2.5 18.5 2.724 18.5 3V9C18.5 9.276 18.276 9.5 18 9.5C17.724 9.5 17.5 9.276 17.5 9Z" />
</svg>
