<svg viewBox="0 0 24 24" fill="currentColor" stroke="currentColor" xmlns="http://www.w3.org/2000/svg">
<path d="M21.134 11.591C21.465 11.269 21.583 10.795 21.441 10.355C21.298 9.91498 20.924 9.60002 20.465 9.53302L17.301 9.07501C17.234 9.06501 17.176 9.02298 17.146 8.96198L15.775 6.19702C15.561 5.76602 15.1289 5.49799 14.6479 5.49799C14.1659 5.49799 13.734 5.76602 13.52 6.19702L12.149 8.96301C12.119 9.02301 12.061 9.06501 11.994 9.07501L8.82996 9.53302C8.37096 9.59902 7.997 9.91398 7.854 10.355C7.711 10.795 7.83001 11.268 8.16101 11.591L10.449 13.811C10.498 13.858 10.52 13.927 10.509 13.993L9.98596 17.028C9.90496 17.502 10.095 17.972 10.484 18.255C10.877 18.54 11.384 18.576 11.809 18.353L14.552 16.918C14.611 16.886 14.685 16.886 14.745 16.918L17.489 18.354C17.675 18.451 17.875 18.499 18.074 18.499C18.334 18.499 18.592 18.418 18.812 18.257C19.201 17.974 19.392 17.504 19.311 17.03L18.787 13.991C18.776 13.925 18.798 13.857 18.847 13.81L21.134 11.591ZM17.801 14.163L18.324 17.2C18.348 17.341 18.262 17.421 18.222 17.449C18.183 17.477 18.081 17.535 17.951 17.469L15.207 16.033C15.031 15.941 14.839 15.895 14.645 15.895C14.453 15.895 14.26 15.941 14.085 16.033L11.343 17.468C11.213 17.534 11.1089 17.477 11.0699 17.448C11.0319 17.42 10.945 17.339 10.969 17.199L11.4919 14.163C11.5579 13.771 11.4289 13.371 11.1429 13.095L8.85498 10.875C8.77498 10.798 8.788 10.71 8.802 10.665C8.817 10.619 8.85899 10.541 8.96899 10.525L12.1331 10.067C12.5271 10.01 12.866 9.764 13.042 9.409L14.413 6.64398C14.476 6.51498 14.596 6.50098 14.644 6.50098C14.692 6.50098 14.811 6.51498 14.874 6.64398L16.245 9.40802C16.421 9.76402 16.7611 10.011 17.1541 10.067L20.318 10.525C20.428 10.541 20.47 10.62 20.485 10.665C20.5 10.71 20.512 10.798 20.432 10.874L18.144 13.094C17.862 13.372 17.732 13.772 17.801 14.163ZM7.5 17C7.5 17.276 7.276 17.5 7 17.5H3C2.724 17.5 2.5 17.276 2.5 17C2.5 16.724 2.724 16.5 3 16.5H7C7.276 16.5 7.5 16.724 7.5 17ZM2.5 12C2.5 11.724 2.724 11.5 3 11.5H5C5.276 11.5 5.5 11.724 5.5 12C5.5 12.276 5.276 12.5 5 12.5H3C2.724 12.5 2.5 12.276 2.5 12ZM7.5 7C7.5 7.276 7.276 7.5 7 7.5H3C2.724 7.5 2.5 7.276 2.5 7C2.5 6.724 2.724 6.5 3 6.5H7C7.276 6.5 7.5 6.724 7.5 7Z" />
</svg>
