<svg viewBox="0 0 24 24" fill="currentColor" stroke="currentColor" xmlns="http://www.w3.org/2000/svg">
<path d="M17.625 2.5H6.375C3.84 2.5 2.5 3.84 2.5 6.375V17.625C2.5 20.16 3.84 21.5 6.375 21.5H17.625C20.16 21.5 21.5 20.16 21.5 17.625V6.375C21.5 3.84 20.16 2.5 17.625 2.5ZM20.5 17.625C20.5 19.586 19.587 20.5 17.625 20.5H6.375C4.413 20.5 3.5 19.586 3.5 17.625V6.375C3.5 4.414 4.413 3.5 6.375 3.5H17.625C19.587 3.5 20.5 4.414 20.5 6.375V17.625ZM16.595 9.94501L14.062 9.55103L12.983 7.362C12.797 6.984 12.421 6.75 12.001 6.75C11.581 6.75 11.204 6.984 11.019 7.362L9.89697 9.58301L7.40698 9.94501C7.00698 10.003 6.67896 10.279 6.55396 10.665C6.42796 11.051 6.53104 11.467 6.82104 11.751L8.63794 13.561L8.22705 15.964C8.15605 16.38 8.32404 16.792 8.66504 17.039C9.00404 17.287 9.44699 17.317 9.81799 17.122L12.027 15.986L14.188 17.123C14.349 17.208 14.524 17.25 14.698 17.25C14.924 17.25 15.147 17.179 15.34 17.041C15.68 16.794 15.848 16.382 15.778 15.967L15.382 13.509L17.183 11.752C17.473 11.469 17.576 11.053 17.45 10.666C17.322 10.279 16.995 10.003 16.595 9.94501ZM14.682 12.792C14.432 13.035 14.319 13.386 14.377 13.73L14.7889 16.135C14.7959 16.175 14.783 16.208 14.652 16.239L12.4919 15.102C12.3379 15.021 12.169 14.98 12 14.98C11.831 14.98 11.6621 15.021 11.5081 15.102L9.25 16.231C9.218 16.207 9.20404 16.175 9.21204 16.134L9.62305 13.732C9.68205 13.388 9.56797 13.037 9.31897 12.794L7.51794 11.037L7.54895 10.937L10.0389 10.575C10.3839 10.525 10.681 10.308 10.834 9.99597L11.913 7.80701C11.948 7.73501 12.05 7.73501 12.085 7.80701L13.1639 9.995C13.3169 10.307 13.614 10.524 13.959 10.575L16.449 10.937L16.48 11.037L14.682 12.792Z" />
</svg>
