<svg viewBox="0 0 24 24" fill="currentColor" stroke="currentColor" xmlns="http://www.w3.org/2000/svg">
<path d="M21.044 11.772C21.456 11.371 21.6031 10.782 21.4261 10.235C21.2481 9.68699 20.7831 9.29501 20.2121 9.21301L15.73 8.565C15.567 8.541 15.4251 8.43999 15.3531 8.29199L13.4111 4.375C13.1431 3.836 12.603 3.50098 12.001 3.50098C11.399 3.50098 10.858 3.836 10.591 4.375L8.6491 8.29303C8.5771 8.44003 8.43502 8.54198 8.27202 8.56598L3.79009 9.21399C3.21909 9.29699 2.7541 9.68802 2.5761 10.236C2.3991 10.783 2.54606 11.372 2.95806 11.773L6.19902 14.918C6.31702 15.033 6.37107 15.198 6.34307 15.36L5.6021 19.661C5.5001 20.253 5.74 20.841 6.226 21.196C6.713 21.551 7.3491 21.599 7.8831 21.318L11.768 19.285C11.914 19.208 12.0901 19.209 12.2371 19.285L16.125 21.32C16.356 21.441 16.606 21.501 16.855 21.501C17.181 21.501 17.5041 21.399 17.7801 21.198C18.2661 20.844 18.505 20.257 18.403 19.665L17.662 15.362C17.634 15.199 17.6871 15.034 17.8071 14.919L21.044 11.772ZM16.673 15.529L17.414 19.833C17.452 20.05 17.367 20.258 17.188 20.388C17.007 20.52 16.781 20.535 16.584 20.433L12.6961 18.398C12.4781 18.284 12.2381 18.227 11.9991 18.227C11.7601 18.227 11.5201 18.284 11.302 18.398L7.41704 20.431C7.21804 20.535 6.99106 20.518 6.81206 20.386C6.63206 20.255 6.54701 20.047 6.58501 19.829L7.3261 15.528C7.4091 15.039 7.24702 14.542 6.89202 14.199L3.65105 11.054C3.51205 10.919 3.4641 10.728 3.5241 10.543C3.5851 10.358 3.736 10.23 3.929 10.202L8.41106 9.55402C8.90006 9.48302 9.32304 9.17699 9.54204 8.73499L11.4841 4.81799C11.6811 4.41999 12.314 4.41999 12.511 4.81799L14.4531 8.73401C14.6721 9.17601 15.095 9.48302 15.584 9.55402L20.0661 10.202C20.2591 10.23 20.411 10.358 20.471 10.543C20.531 10.728 20.4831 10.918 20.3431 11.054L17.1041 14.199C16.7521 14.543 16.59 15.04 16.673 15.529Z" />
</svg>
