<svg viewBox="0 0 24 24" fill="currentColor" stroke="currentColor" xmlns="http://www.w3.org/2000/svg">
<path d="M21.354 2.64601C21.159 2.45101 20.842 2.45101 20.647 2.64601L15.235 8.05702L13.4091 4.38001C13.1441 3.83701 12.604 3.49903 12 3.49903C11.396 3.49903 10.8551 3.83699 10.5921 4.37599L8.65299 8.28498C8.57799 8.43598 8.43598 8.538 8.26798 8.563L3.78897 9.21302C3.21697 9.29602 2.75201 9.69104 2.57401 10.241C2.39801 10.786 2.54403 11.371 2.95303 11.766L6.19705 14.91C6.31305 15.025 6.36804 15.192 6.33804 15.351L6.00504 17.285L2.64798 20.641C2.45298 20.836 2.45298 21.153 2.64798 21.348C2.74598 21.446 2.87398 21.494 3.00198 21.494C3.12998 21.494 3.25799 21.445 3.35599 21.348L21.356 3.352C21.549 3.158 21.549 2.84201 21.354 2.64601ZM6.897 14.198L3.647 11.048C3.511 10.917 3.46606 10.731 3.52506 10.548C3.58606 10.36 3.73804 10.231 3.93204 10.203L8.41397 9.55299C8.91097 9.47799 9.32403 9.17803 9.54703 8.73103L11.4881 4.818C11.6831 4.419 12.313 4.41499 12.51 4.82099L14.444 8.71601C14.457 8.74501 14.4781 8.76901 14.4931 8.79701L7.22806 16.06L7.319 15.529C7.411 15.05 7.254 14.554 6.897 14.198ZM21.427 10.242C21.603 10.787 21.457 11.372 21.048 11.768L17.798 14.917C17.688 15.027 17.633 15.194 17.661 15.346L18.403 19.662C18.504 20.252 18.2651 20.838 17.7801 21.193C17.5021 21.396 17.1761 21.499 16.8481 21.499C16.5991 21.499 16.35 21.44 16.1191 21.32L12.2371 19.279C12.0851 19.203 11.9121 19.205 11.7541 19.283L7.88199 21.309C7.58099 21.467 7.25397 21.527 6.93997 21.481C6.66697 21.442 6.47605 21.189 6.51505 20.915C6.55505 20.642 6.81399 20.45 7.07999 20.491C7.18599 20.506 7.30398 20.483 7.41898 20.423L11.299 18.393C11.747 18.168 12.255 18.169 12.694 18.389L16.583 20.433C16.781 20.536 17.0091 20.517 17.1911 20.385C17.3701 20.254 17.455 20.047 17.418 19.831L16.678 15.522C16.59 15.05 16.7471 14.554 17.0981 14.203L20.354 11.049C20.49 10.918 20.535 10.731 20.476 10.549C20.415 10.361 20.263 10.232 20.069 10.204L18.4511 9.97499C18.1781 9.93599 17.987 9.68298 18.026 9.40998C18.064 9.13698 18.321 8.94699 18.591 8.98499L20.2111 9.21504C20.7841 9.29804 21.249 9.69201 21.427 10.242Z" />
</svg>
