<svg viewBox="0 0 24 24" fill="currentColor" stroke="currentColor" xmlns="http://www.w3.org/2000/svg">
<path d="M19.1781 12C19.8711 10.948 20.439 9.89703 20.837 8.88603C21.796 6.45303 21.7131 4.50307 20.6051 3.39507C19.4991 2.28807 17.5471 2.20401 15.1151 3.16301C14.1041 3.56101 13.0531 4.12907 12.0011 4.82207C10.9491 4.12907 9.89804 3.56101 8.88704 3.16301C6.45504 2.20401 4.50305 2.28807 3.39705 3.39507C2.28905 4.50207 2.20612 6.45303 3.16512 8.88603C3.56312 9.89703 4.13105 10.948 4.82405 12C4.13105 13.052 3.56312 14.1031 3.16512 15.1141C2.20712 17.5471 2.28905 19.497 3.39705 20.605C3.99305 21.201 4.83316 21.501 5.86116 21.501C6.74316 21.501 7.76404 21.2801 8.88704 20.8371C9.89804 20.4391 10.9491 19.871 12.0011 19.178C13.0531 19.871 14.1041 20.4391 15.1151 20.8371C16.2391 21.2801 17.2602 21.501 18.1412 21.501C19.1692 21.501 20.0091 21.202 20.6051 20.605C21.7131 19.497 21.795 17.5471 20.837 15.1141C20.439 14.1031 19.8711 13.052 19.1781 12ZM15.4801 4.09307C16.4811 3.69906 17.3821 3.502 18.1341 3.502C18.8921 3.502 19.4961 3.70207 19.8971 4.10307C20.6951 4.90007 20.6981 6.51007 19.9061 8.52007C19.5741 9.36307 19.119 10.237 18.564 11.117C17.803 10.075 16.925 9.04203 15.941 8.05803C14.958 7.07503 13.9251 6.19711 12.8831 5.43511C13.7641 4.88011 14.6381 4.42507 15.4801 4.09307ZM8.76619 8.76506C9.80719 7.72306 10.9021 6.80202 12.0001 6.02702C13.0981 6.80202 14.193 7.72406 15.234 8.76506C16.276 9.80706 17.198 10.901 17.973 12C17.198 13.098 16.276 14.193 15.234 15.235C14.193 16.276 13.0981 17.1981 12.0001 17.9731C10.9021 17.1981 9.80719 16.276 8.76619 15.235C7.72419 14.193 6.80218 13.099 6.02718 12C6.80218 10.902 7.72419 9.80706 8.76619 8.76506ZM4.09407 8.52007C3.30207 6.51007 3.30511 4.90007 4.10311 4.10307C4.50311 3.70307 5.10805 3.502 5.86605 3.502C6.61805 3.502 7.5191 3.69906 8.5201 4.09307C9.3631 4.42507 10.237 4.88011 11.117 5.43511C10.075 6.19611 9.04316 7.07403 8.05916 8.05803C7.07516 9.04203 6.19711 10.074 5.43611 11.117C4.88011 10.236 4.42507 9.36207 4.09407 8.52007ZM8.5201 19.907C6.5091 20.699 4.90111 20.695 4.10311 19.898C3.30511 19.101 3.30207 17.49 4.09407 15.481C4.42607 14.638 4.88111 13.7641 5.43611 12.8841C6.19711 13.9261 7.07516 14.959 8.05916 15.943C9.04216 16.926 10.075 17.804 11.117 18.565C10.236 19.12 9.3621 19.575 8.5201 19.907ZM19.8971 19.898C19.0991 20.694 17.4911 20.698 15.4801 19.907C14.6371 19.575 13.7631 19.12 12.8831 18.564C13.9251 17.803 14.957 16.9251 15.941 15.9421C16.925 14.9581 17.803 13.9261 18.564 12.8831C19.119 13.7631 19.5741 14.638 19.9061 15.48C20.6981 17.49 20.6951 19.101 19.8971 19.898ZM11.0001 12C11.0001 11.447 11.4352 11 11.9852 11H12.005C12.555 11 13.0001 11.447 13.0001 12C13.0001 12.553 12.555 13 12.005 13C11.457 13 11.0001 12.553 11.0001 12Z" />
</svg>
