<svg viewBox="0 0 24 24" fill="currentColor" stroke="currentColor" xmlns="http://www.w3.org/2000/svg">
<path d="M18.7199 7.61494L18.4008 7.29695C18.2908 7.18695 18.2299 7.03999 18.2299 6.88399V6.43599C18.2299 4.96599 17.0349 3.77095 15.5649 3.77095H15.1169C14.9629 3.77095 14.812 3.70893 14.704 3.59993L14.3859 3.28096C13.3469 2.24196 11.6559 2.24196 10.6159 3.28096L10.298 3.59993C10.19 3.70793 10.0389 3.77095 9.88495 3.77095H9.43695C7.96695 3.77095 6.77191 4.96599 6.77191 6.43599V6.88399C6.77191 7.03999 6.71101 7.18597 6.60101 7.29597L6.28192 7.61494C5.24392 8.65494 5.24392 10.345 6.28192 11.385L6.60101 11.703C6.71101 11.813 6.77191 11.9599 6.77191 12.1159V12.5639C6.77191 13.7629 7.57302 14.7669 8.66302 15.1009L7.02093 20.862C6.96793 21.046 7.02493 21.2429 7.16693 21.3709C7.30993 21.4979 7.51392 21.5349 7.68792 21.4639L10.4579 20.354C11.7779 19.829 13.231 19.829 14.548 20.354L17.3181 21.4639C17.3781 21.4879 17.4408 21.5 17.5038 21.5C17.6248 21.5 17.745 21.4559 17.839 21.3719C17.981 21.2439 18.037 21.047 17.985 20.863L16.343 15.102C17.434 14.768 18.2338 13.7639 18.2338 12.5649V12.1169C18.2338 11.9609 18.295 11.8149 18.405 11.7049L18.7241 11.3859C19.7581 10.3449 19.7579 8.65494 18.7199 7.61494ZM14.916 19.426C13.357 18.805 11.6429 18.805 10.0839 19.426L8.26092 20.1569L9.66497 15.2299H9.88397C10.038 15.2299 10.1891 15.292 10.2971 15.401L10.6149 15.7199C11.1349 16.2399 11.8169 16.499 12.4999 16.499C13.1829 16.499 13.8649 16.2389 14.3849 15.7199L14.7028 15.401C14.8108 15.293 14.9619 15.2299 15.1159 15.2299H15.3349L16.7389 20.1569L14.916 19.426ZM18.0129 10.6779L17.694 10.9969C17.395 11.2959 17.2299 11.6939 17.2299 12.1169V12.5649C17.2299 13.4829 16.4829 14.2299 15.5649 14.2299H15.1169C14.6999 14.2299 14.292 14.3989 13.997 14.6939L13.6789 15.0129C13.0289 15.6619 11.9739 15.6619 11.3239 15.0129L11.006 14.6939C10.711 14.3989 10.3029 14.2299 9.88592 14.2299H9.43792C8.51992 14.2299 7.77288 13.4829 7.77288 12.5649V12.1169C7.77288 11.6939 7.60802 11.2959 7.30902 10.9969L6.98993 10.6789C6.34193 10.0299 6.34193 8.97293 6.98993 8.32393L7.30902 8.00496C7.60802 7.70596 7.77288 7.30796 7.77288 6.88496V6.43696C7.77288 5.51897 8.51992 4.77193 9.43792 4.77193H9.88592C10.3029 4.77193 10.711 4.60294 11.006 4.30794L11.3239 3.98897C11.9739 3.33997 13.0289 3.33997 13.6789 3.98897L13.997 4.30794C14.292 4.60294 14.6999 4.77193 15.1169 4.77193H15.5649C16.4829 4.77193 17.2299 5.51897 17.2299 6.43696V6.88496C17.2299 7.30796 17.395 7.70596 17.694 8.00496L18.0129 8.32295C18.6609 8.97195 18.6609 10.0279 18.0129 10.6779ZM15.2848 8.0749L13.8769 7.87092L13.269 6.6429C12.978 6.0549 12.0229 6.0559 11.7319 6.6429L11.124 7.87092L9.716 8.0749C9.4 8.1199 9.14193 8.33792 9.04193 8.64192C8.94293 8.94592 9.02384 9.2729 9.25384 9.4969L10.2719 10.484L10.041 11.8289C9.98395 12.1529 10.1138 12.4739 10.3798 12.6669C10.6448 12.8609 10.9909 12.887 11.2829 12.734L12.5019 12.0959L13.7219 12.7349C13.8479 12.8009 13.9848 12.833 14.1188 12.833C14.2978 12.833 14.4739 12.7769 14.6249 12.6669C14.8899 12.4729 15.02 12.152 14.964 11.831L14.7319 10.484L15.7499 9.49592C15.9789 9.27292 16.0608 8.94592 15.9618 8.64192C15.8588 8.33692 15.6018 8.1199 15.2848 8.0749ZM13.9709 9.82698C13.7729 10.018 13.6829 10.295 13.7289 10.566L13.9269 11.7139L12.8859 11.1689C12.7659 11.1069 12.6329 11.0749 12.4999 11.0749C12.3669 11.0749 12.234 11.106 12.113 11.17L11.0729 11.7139L11.2709 10.566C11.3169 10.295 11.227 10.019 11.03 9.82698L10.1931 9.01497L11.35 8.84798C11.622 8.80898 11.8579 8.6389 11.9799 8.3929L12.4999 7.34492L13.02 8.3929C13.142 8.6399 13.3769 8.80998 13.6489 8.84798L14.8068 9.01594L13.9709 9.82698Z" />
</svg>
