<svg viewBox="0 0 24 24" fill="currentColor" stroke="currentColor" xmlns="http://www.w3.org/2000/svg">
<path d="M13.5 10C13.5 10.276 13.276 10.5 13 10.5H11C10.724 10.5 10.5 10.276 10.5 10C10.5 9.724 10.724 9.5 11 9.5H13C13.276 9.5 13.5 9.724 13.5 10ZM21.5 14V18C21.5 18.939 20.939 19.5 20 19.5H19.2781C18.8331 20.814 17.722 21.5 16 21.5H8C6.277 21.5 5.16692 20.814 4.72192 19.5H4C3.061 19.5 2.5 18.939 2.5 18V14C2.5 13.061 3.061 12.5 4 12.5H4.5V11C4.5 8.232 6.07598 6.24703 8.53198 5.68103C8.69598 3.90303 10.179 2.5 12 2.5C13.821 2.5 15.304 3.90303 15.468 5.68103C17.924 6.24703 19.5 8.232 19.5 11V12.5H20C20.939 12.5 21.5 13.061 21.5 14ZM9.54712 5.53894C9.70012 5.52894 9.842 5.5 10 5.5H14C14.158 5.5 14.3009 5.52894 14.4529 5.53894C14.2359 4.38094 13.221 3.5 12 3.5C10.779 3.5 9.76412 4.38094 9.54712 5.53894ZM4.53491 18.5C4.52091 18.336 4.5 18.177 4.5 18V13.5H4C3.607 13.5 3.5 13.607 3.5 14V18C3.5 18.393 3.607 18.5 4 18.5H4.53491ZM15.5 14.5C15.5 13.78 15.22 13.5 14.5 13.5H9.5C8.78 13.5 8.5 13.78 8.5 14.5V20.5H15.5V14.5ZM18.5 18V11C18.5 8.267 16.733 6.5 14 6.5H10C7.267 6.5 5.5 8.267 5.5 11V18C5.5 19.55 6.126 20.325 7.5 20.47V14.5C7.5 13.229 8.229 12.5 9.5 12.5H14.5C15.771 12.5 16.5 13.229 16.5 14.5V20.47C17.874 20.325 18.5 19.55 18.5 18ZM20.5 14C20.5 13.607 20.393 13.5 20 13.5H19.5V18C19.5 18.177 19.4791 18.336 19.4651 18.5H20C20.393 18.5 20.5 18.393 20.5 18V14Z" />
</svg>
