<svg viewBox="0 0 24 24" fill="currentColor" stroke="currentColor" xmlns="http://www.w3.org/2000/svg">
<path d="M16 2.5H8C5.71 2.5 4.5 3.71 4.5 6V21C4.5 21.178 4.59502 21.343 4.74902 21.433C4.82602 21.478 4.913 21.5 5 21.5C5.086 21.5 5.17105 21.478 5.24805 21.434L12 17.576L18.752 21.434C18.907 21.522 19.098 21.522 19.251 21.433C19.405 21.343 19.5 21.179 19.5 21V6C19.5 3.71 18.29 2.5 16 2.5ZM18.5 20.1379L12.248 16.566C12.094 16.478 11.906 16.478 11.752 16.566L5.5 20.1379V6C5.5 4.271 6.271 3.5 8 3.5H16C17.729 3.5 18.5 4.271 18.5 6V20.1379ZM12 10.3C13.186 10.3 14.1499 9.33602 14.1499 8.15002C14.1499 6.96402 13.185 6 12 6C10.815 6 9.8501 6.96402 9.8501 8.15002C9.8501 9.33602 10.814 10.3 12 10.3ZM12 7C12.635 7 13.1499 7.51602 13.1499 8.15002C13.1499 8.78402 12.634 9.30005 12 9.30005C11.366 9.30005 10.8501 8.78402 10.8501 8.15002C10.8501 7.51602 11.365 7 12 7ZM15.5 14.197V14.5C15.5 14.776 15.276 15 15 15C14.724 15 14.5 14.776 14.5 14.5V14.197C14.5 13.38 13.9181 12.5 12.6421 12.5H11.3589C10.0829 12.5 9.50098 13.379 9.50098 14.197V14.5C9.50098 14.776 9.27698 15 9.00098 15C8.72498 15 8.50098 14.776 8.50098 14.5V14.197C8.50098 12.857 9.48189 11.5 11.3589 11.5H12.6421C14.5191 11.5 15.5 12.856 15.5 14.197Z" />
</svg>
