<svg viewBox="0 0 24 24" fill="currentColor" stroke="currentColor" xmlns="http://www.w3.org/2000/svg">
<path d="M17.4299 1.5H10.571C8.59204 1.5 7.50098 2.58995 7.50098 4.56995V5.5H6.57202C4.59202 5.5 3.50098 6.59104 3.50098 8.57104V22C3.50098 22.178 3.596 22.343 3.75 22.433C3.827 22.478 3.91398 22.5 4.00098 22.5C4.08698 22.5 4.17202 22.478 4.24902 22.434L10.001 19.147L15.7529 22.434C15.9079 22.522 16.099 22.522 16.252 22.433C16.406 22.343 16.501 22.179 16.501 22V16.573L19.7529 18.4351C19.8289 18.4791 19.915 18.501 20.001 18.501C20.088 18.501 20.174 18.479 20.252 18.434C20.406 18.345 20.501 18.18 20.501 18.001V4.57104C20.5 2.59004 19.4089 1.5 17.4299 1.5ZM15.5 21.1379L10.248 18.137C10.094 18.049 9.90595 18.049 9.75195 18.137L4.5 21.1379V8.57104C4.5 7.13804 5.13904 6.5 6.57104 6.5H13.428C14.861 6.5 15.499 7.13904 15.499 8.57104V21.1379H15.5ZM19.5 17.1379L16.5 15.42V8.57104C16.5 6.59104 15.409 5.5 13.429 5.5H8.5V4.56995C8.5 3.13795 9.13907 2.5 10.5701 2.5H17.429C18.861 2.5 19.499 3.13795 19.499 4.56995V17.1379H19.5ZM11.854 11.354L10.708 12.5L11.854 13.646C12.049 13.841 12.049 14.158 11.854 14.353C11.756 14.451 11.628 14.499 11.5 14.499C11.372 14.499 11.244 14.45 11.146 14.353L10 13.207L8.854 14.353C8.756 14.451 8.628 14.499 8.5 14.499C8.372 14.499 8.244 14.45 8.146 14.353C7.951 14.158 7.951 13.841 8.146 13.646L9.29199 12.5L8.146 11.354C7.951 11.159 7.951 10.842 8.146 10.647C8.341 10.452 8.65803 10.452 8.85303 10.647L9.99902 11.793L11.145 10.647C11.34 10.452 11.6571 10.452 11.8521 10.647C12.0471 10.842 12.049 11.158 11.854 11.354Z" />
</svg>
