<svg viewBox="0 0 24 24" fill="currentColor" stroke="currentColor" xmlns="http://www.w3.org/2000/svg">
<path d="M17.4299 1.5H10.571C8.59204 1.5 7.50098 2.58995 7.50098 4.56995V5.5H6.57202C4.59202 5.5 3.50098 6.59104 3.50098 8.57104V22C3.50098 22.178 3.596 22.343 3.75 22.433C3.827 22.478 3.91398 22.5 4.00098 22.5C4.08698 22.5 4.17202 22.478 4.24902 22.434L10.001 19.147L15.7529 22.434C15.9069 22.522 16.098 22.522 16.252 22.433C16.406 22.343 16.501 22.179 16.501 22V16.573L19.7529 18.4351C19.8289 18.4791 19.915 18.501 20.001 18.501C20.088 18.501 20.174 18.479 20.252 18.434C20.406 18.345 20.501 18.18 20.501 18.001V4.57104C20.5 2.59004 19.4089 1.5 17.4299 1.5ZM15.5 21.1379L10.248 18.137C10.094 18.049 9.90595 18.049 9.75195 18.137L4.5 21.1379V8.57104C4.5 7.13804 5.13904 6.5 6.57104 6.5H13.428C14.861 6.5 15.499 7.13904 15.499 8.57104V21.1379H15.5ZM19.5 17.1379L16.5 15.42V8.57104C16.5 6.59104 15.409 5.5 13.429 5.5H8.5V4.56995C8.5 3.13795 9.13907 2.5 10.5701 2.5H17.429C18.861 2.5 19.499 3.13795 19.499 4.56995V17.1379H19.5ZM13.1279 9.82104C12.9879 9.58805 12.6901 9.50902 12.4541 9.64001L12.3379 9.70496C12.1189 9.82996 11.8451 9.82898 11.6221 9.70398C11.4091 9.58398 11.2771 9.36401 11.2771 9.13C11.2771 8.782 10.9921 8.49902 10.6421 8.49902H9.30811C8.95811 8.49902 8.6731 8.782 8.6731 9.13C8.6731 9.36401 8.54088 9.58398 8.32788 9.70398C8.10688 9.82898 7.83306 9.82896 7.61206 9.70496C7.31306 9.53796 6.92908 9.64001 6.75708 9.93201L6.08594 11.058C6.01794 11.174 5.985 11.4089 6.021 11.5389C6.066 11.7029 6.17202 11.84 6.32202 11.924C6.53502 12.044 6.66697 12.264 6.66797 12.499C6.66897 12.734 6.53705 12.956 6.32104 13.077C6.17404 13.16 6.064 13.301 6.021 13.463C5.986 13.593 6.01989 13.8289 6.08789 13.9449L6.75806 15.0699C6.93606 15.3649 7.31106 15.465 7.61206 15.295C7.83506 15.172 8.1079 15.172 8.3269 15.296C8.5399 15.416 8.67312 15.636 8.67212 15.87C8.67212 16.218 8.95688 16.501 9.30688 16.501H10.6431C10.9931 16.501 11.2771 16.218 11.2771 15.87C11.2771 15.636 11.409 15.416 11.623 15.296C11.843 15.172 12.1159 15.171 12.3379 15.296C12.6399 15.465 13.0151 15.366 13.1941 15.069L13.8611 13.948C13.9311 13.832 13.9649 13.5959 13.9299 13.4659C13.8869 13.3019 13.7779 13.161 13.6279 13.078C13.4149 12.958 13.283 12.7371 13.282 12.5031C13.282 12.2671 13.4149 12.045 13.6279 11.925L13.7439 11.86C13.8609 11.794 13.9469 11.683 13.9819 11.553C14.0159 11.423 13.997 11.284 13.928 11.168L13.1279 9.82104ZM12.8301 13.725L12.499 14.281C12.045 14.141 11.5491 14.189 11.1321 14.425C10.7161 14.659 10.4251 15.053 10.3201 15.501H9.6311C9.5271 15.054 9.23507 14.66 8.82007 14.425C8.40307 14.19 7.90388 14.142 7.45288 14.282L7.12207 13.726C7.46707 13.412 7.66997 12.9659 7.66797 12.4969C7.66697 12.0309 7.46509 11.589 7.12109 11.277L7.45288 10.7209C7.90188 10.8609 8.40207 10.813 8.82007 10.577C9.23507 10.343 9.5271 9.94998 9.6311 9.50098H10.3201C10.4241 9.94898 10.7161 10.3431 11.1311 10.576C11.5491 10.8131 12.05 10.861 12.499 10.72L12.8301 11.276C12.4861 11.588 12.283 12.0331 12.283 12.5031C12.284 12.9701 12.4871 13.412 12.8301 13.725ZM10.75 12.5C10.75 12.915 10.4159 13.25 10.0039 13.25C9.59291 13.25 9.25 12.915 9.25 12.5C9.25 12.085 9.57701 11.75 9.98901 11.75H10.0039C10.4159 11.75 10.75 12.085 10.75 12.5Z" />
</svg>
