<svg viewBox="0 0 24 24" fill="currentColor" stroke="currentColor" xmlns="http://www.w3.org/2000/svg">
<path d="M16 2.5H8C5.71 2.5 4.5 3.71 4.5 6V21C4.5 21.178 4.59502 21.343 4.74902 21.433C4.82602 21.478 4.913 21.5 5 21.5C5.086 21.5 5.17105 21.478 5.24805 21.434L12 17.576L18.752 21.434C18.907 21.522 19.098 21.522 19.251 21.433C19.405 21.343 19.5 21.179 19.5 21V6C19.5 3.71 18.29 2.5 16 2.5ZM18.5 20.1379L12.248 16.566C12.094 16.478 11.906 16.478 11.752 16.566L5.5 20.1379V6C5.5 4.271 6.271 3.5 8 3.5H16C17.729 3.5 18.5 4.271 18.5 6V20.1379ZM14.354 8.354L12.708 10L14.354 11.646C14.549 11.841 14.549 12.158 14.354 12.353C14.256 12.451 14.128 12.499 14 12.499C13.872 12.499 13.744 12.45 13.646 12.353L12 10.707L10.354 12.353C10.256 12.451 10.128 12.499 10 12.499C9.872 12.499 9.744 12.45 9.646 12.353C9.451 12.158 9.451 11.841 9.646 11.646L11.292 10L9.646 8.354C9.451 8.159 9.451 7.84197 9.646 7.64697C9.841 7.45197 10.158 7.45197 10.353 7.64697L11.999 9.29297L13.645 7.64697C13.84 7.45197 14.1571 7.45197 14.3521 7.64697C14.5471 7.84197 14.549 8.158 14.354 8.354Z" />
</svg>
