<svg viewBox="0 0 24 24" fill="currentColor" stroke="currentColor" xmlns="http://www.w3.org/2000/svg">
<path d="M16 2.5H8C5.71 2.5 4.5 3.71 4.5 6V21C4.5 21.178 4.59502 21.343 4.74902 21.433C4.82602 21.478 4.913 21.5 5 21.5C5.086 21.5 5.17105 21.478 5.24805 21.434L12 17.576L18.752 21.434C18.907 21.522 19.098 21.522 19.251 21.433C19.405 21.343 19.5 21.179 19.5 21V6C19.5 3.71 18.29 2.5 16 2.5ZM18.5 20.1379L12.248 16.566C12.094 16.478 11.906 16.478 11.752 16.566L5.5 20.1379V6C5.5 4.271 6.271 3.5 8 3.5H16C17.729 3.5 18.5 4.271 18.5 6V20.1379ZM13.5491 6.5C13.5461 6.5 13.5421 6.5 13.5381 6.5C12.8081 6.5 12.314 6.84104 12 7.19604C11.686 6.84104 11.1919 6.5 10.4619 6.5C10.4579 6.5 10.4539 6.5 10.4509 6.5C9.68693 6.503 9.04898 6.79198 8.60498 7.33398C8.06898 7.98798 7.87595 8.94205 8.07495 9.95105C8.57595 12.489 11.6639 13.8971 11.7959 13.9561C11.8599 13.9851 11.931 13.999 12 13.999C12.069 13.999 12.1401 13.9841 12.2041 13.9561C12.3361 13.8971 15.4241 12.488 15.9241 9.95105C16.1231 8.94205 15.931 7.98798 15.397 7.33398C14.952 6.79198 14.3131 6.503 13.5491 6.5ZM14.9431 9.75806C14.6081 11.4561 12.644 12.607 12 12.943C11.355 12.607 9.39191 11.4571 9.05591 9.75806C8.91691 9.05306 9.03791 8.38402 9.37891 7.96802C9.63091 7.66002 9.99308 7.502 10.4551 7.5C10.4571 7.5 10.4589 7.5 10.4609 7.5C11.2319 7.5 11.5159 8.27298 11.5259 8.30298C11.5939 8.50498 11.7841 8.63899 11.9971 8.64099C12.1841 8.67399 12.3999 8.50801 12.4729 8.30701C12.4849 8.27401 12.7691 7.5 13.5391 7.5C13.5411 7.5 13.5429 7.5 13.5449 7.5C14.0079 7.502 14.3701 7.66002 14.6221 7.96802C14.9621 8.38302 15.0821 9.05306 14.9431 9.75806Z" />
</svg>
