<svg viewBox="0 0 24 24" fill="currentColor" stroke="currentColor" xmlns="http://www.w3.org/2000/svg">
<path d="M20.929 4.40791C20.928 4.40691 20.928 4.40791 20.929 4.40791C19.27 3.61991 17.4271 3.34199 15.4561 3.58699C13.9221 3.77499 12.66 4.73392 12 6.03792C11.339 4.73392 10.077 3.77599 8.54297 3.58699C6.57197 3.34299 4.73102 3.62091 3.07202 4.40791C2.72402 4.57291 2.5 4.931 2.5 5.321V18.326C2.5 18.64 2.64402 18.93 2.89502 19.119C3.15002 19.311 3.47296 19.3719 3.78296 19.2829C6.72696 18.4469 9.3249 18.817 11.7229 20.416C11.7299 20.42 11.7381 20.4179 11.7451 20.4229C11.7531 20.4279 11.7559 20.437 11.7639 20.441C11.8379 20.481 11.919 20.5 12 20.5C12.081 20.5 12.1621 20.48 12.2361 20.441C12.2441 20.437 12.2469 20.4269 12.2549 20.4229C12.2619 20.4189 12.2701 20.421 12.2771 20.416C14.6751 18.817 17.272 18.4459 20.217 19.2829C20.528 19.3699 20.85 19.311 21.105 19.119C21.356 18.93 21.5 18.64 21.5 18.326V5.321C21.5 4.932 21.275 4.57391 20.929 4.40791ZM6.73511 17.8459C5.69711 17.8459 4.621 18.0059 3.5 18.3249L3.50488 5.30794C5.00888 4.59594 6.61212 4.35596 8.42212 4.57796C10.1771 4.79396 11.5 6.28991 11.5 8.05891V19.107C9.992 18.266 8.41411 17.8459 6.73511 17.8459ZM20.5 5.3199L20.491 18.3199C17.562 17.4869 14.937 17.743 12.5 19.107V8.05891C12.5 6.28991 13.8229 4.79396 15.5769 4.57796C16.0109 4.52496 16.432 4.498 16.844 4.498C18.15 4.498 19.355 4.76701 20.498 5.31001L20.7129 4.85799L20.5 5.3199Z" />
</svg>
