<svg viewBox="0 0 24 24" fill="currentColor" stroke="currentColor" xmlns="http://www.w3.org/2000/svg">
<path d="M17.4299 1.5H10.571C8.59204 1.5 7.50098 2.58995 7.50098 4.56995V5.5H6.57202C4.59202 5.5 3.50098 6.59104 3.50098 8.57104V22C3.50098 22.178 3.596 22.343 3.75 22.433C3.827 22.478 3.91398 22.5 4.00098 22.5C4.08698 22.5 4.17202 22.478 4.24902 22.434L10.001 19.147L15.7529 22.434C15.9069 22.522 16.098 22.522 16.252 22.433C16.406 22.343 16.501 22.179 16.501 22V16.573L19.7529 18.4351C19.8289 18.4791 19.915 18.501 20.001 18.501C20.088 18.501 20.174 18.479 20.252 18.434C20.406 18.345 20.501 18.18 20.501 18.001V4.57104C20.5 2.59004 19.4089 1.5 17.4299 1.5ZM15.5 21.1379L10.248 18.137C10.094 18.049 9.90595 18.049 9.75195 18.137L4.5 21.1379V8.57104C4.5 7.13804 5.13904 6.5 6.57104 6.5H13.428C14.861 6.5 15.499 7.13904 15.499 8.57104V21.1379H15.5ZM19.5 17.1379L16.5 15.42V8.57104C16.5 6.59104 15.409 5.5 13.429 5.5H8.5V4.56995C8.5 3.13795 9.13907 2.5 10.5701 2.5H17.429C18.861 2.5 19.499 3.13795 19.499 4.56995V17.1379H19.5ZM10 12.3C11.048 12.3 11.8999 11.448 11.8999 10.4C11.8999 9.35202 11.047 8.5 10 8.5C8.953 8.5 8.1001 9.35202 8.1001 10.4C8.1001 11.448 8.952 12.3 10 12.3ZM10 9.5C10.496 9.5 10.8999 9.90402 10.8999 10.4C10.8999 10.896 10.496 11.3 10 11.3C9.504 11.3 9.1001 10.896 9.1001 10.4C9.1001 9.90402 9.504 9.5 10 9.5ZM13.02 15.746V16C13.02 16.276 12.796 16.5 12.52 16.5C12.244 16.5 12.02 16.276 12.02 16V15.746C12.02 15.098 11.557 14.4 10.54 14.4H9.46191C8.44391 14.4 7.98193 15.098 7.98193 15.746V16C7.98193 16.276 7.75793 16.5 7.48193 16.5C7.20593 16.5 6.98193 16.276 6.98193 16V15.746C6.98193 14.58 7.83391 13.4 9.46191 13.4H10.54C12.168 13.4 13.02 14.58 13.02 15.746Z" />
</svg>
