<svg viewBox="0 0 24 24" fill="currentColor" stroke="currentColor" xmlns="http://www.w3.org/2000/svg">
<path d="M16 2.5H8C5.71 2.5 4.5 3.71 4.5 6V21C4.5 21.178 4.59502 21.343 4.74902 21.433C4.82602 21.478 4.913 21.5 5 21.5C5.086 21.5 5.17105 21.478 5.24805 21.434L12 17.576L18.752 21.434C18.907 21.522 19.098 21.522 19.251 21.433C19.405 21.343 19.5 21.179 19.5 21V6C19.5 3.71 18.29 2.5 16 2.5ZM18.5 20.1379L12.248 16.566C12.094 16.478 11.906 16.478 11.752 16.566L5.5 20.1379V6C5.5 4.271 6.271 3.5 8 3.5H16C17.729 3.5 18.5 4.271 18.5 6V20.1379ZM14.854 7.97998C15.049 8.17498 15.049 8.49201 14.854 8.68701L11.521 12.02C11.423 12.118 11.295 12.166 11.167 12.166C11.039 12.166 10.911 12.117 10.813 12.02L9.146 10.353C8.951 10.158 8.951 9.841 9.146 9.646C9.341 9.451 9.65803 9.451 9.85303 9.646L11.166 10.959L14.145 7.97998C14.342 7.78498 14.658 7.78498 14.854 7.97998Z" />
</svg>
