<svg viewBox="0 0 24 24" fill="currentColor" stroke="currentColor" xmlns="http://www.w3.org/2000/svg">
<path d="M18.5 2.5H7C4.71 2.5 3.5 3.71 3.5 6V18C3.5 20.093 4.906 21.5 7 21.5H18.5C19.603 21.5 20.5 20.603 20.5 19.5V13.5V11V4.5C20.5 3.397 19.603 2.5 18.5 2.5ZM7 3.5H18.5C19.052 3.5 19.5 3.949 19.5 4.5V11V13.5C19.5 14.051 19.052 14.5 18.5 14.5H7C5.971 14.5 5.112 14.843 4.5 15.437V6C4.5 4.271 5.271 3.5 7 3.5ZM18.5 20.5H7C5.435 20.5 4.5 19.565 4.5 18C4.5 16.435 5.435 15.5 7 15.5H18.5C18.866 15.5 19.205 15.394 19.5 15.222V19.5C19.5 20.051 19.052 20.5 18.5 20.5ZM8.5 7C8.5 6.724 8.724 6.5 9 6.5H15C15.276 6.5 15.5 6.724 15.5 7C15.5 7.276 15.276 7.5 15 7.5H9C8.724 7.5 8.5 7.276 8.5 7ZM8.5 10C8.5 9.724 8.724 9.5 9 9.5H13C13.276 9.5 13.5 9.724 13.5 10C13.5 10.276 13.276 10.5 13 10.5H9C8.724 10.5 8.5 10.276 8.5 10Z" />
</svg>
