<svg viewBox="0 0 24 24" fill="currentColor" stroke="currentColor" xmlns="http://www.w3.org/2000/svg">
<path d="M20.929 4.40798C20.928 4.40698 20.928 4.40798 20.929 4.40798C20.223 4.07298 19.4789 3.85107 18.7119 3.70107C18.6469 3.67007 18.577 3.65005 18.5 3.65005C18.498 3.65005 18.4959 3.65103 18.4929 3.65103C17.5229 3.48503 16.5101 3.45508 15.4551 3.58608C13.9221 3.77508 12.66 4.73301 12 6.03701C11.34 4.73401 10.0779 3.77508 8.54395 3.58608C6.57095 3.34208 4.73102 3.62001 3.07202 4.40701C3.07202 4.40701 3.07204 4.40701 3.07104 4.40701C2.72404 4.57301 2.5 4.93097 2.5 5.31997V18.325C2.5 18.639 2.64402 18.929 2.89502 19.117C3.14902 19.309 3.47196 19.37 3.78296 19.281C6.72696 18.445 9.3259 18.8161 11.7229 20.4151C11.7299 20.4191 11.7381 20.417 11.7451 20.422C11.7531 20.427 11.7559 20.436 11.7639 20.44C11.8379 20.48 11.919 20.499 12 20.499C12.081 20.499 12.1621 20.479 12.2361 20.44C12.2441 20.436 12.2469 20.426 12.2549 20.422C12.2619 20.418 12.2701 20.4201 12.2771 20.4151C14.6751 18.8161 17.272 18.445 20.217 19.281C20.529 19.37 20.851 19.309 21.105 19.117C21.356 18.928 21.5 18.639 21.5 18.325V5.31997C21.5 4.93197 21.275 4.57398 20.929 4.40798ZM18 4.58206V9.13796L17.249 8.70706C17.095 8.61806 16.905 8.61806 16.751 8.70706L16 9.13796V4.553C16.284 4.53 16.57 4.50002 16.844 4.50002C17.239 4.49902 17.622 4.53206 18 4.58206ZM6.73511 17.846C5.69711 17.846 4.621 18.006 3.5 18.325L3.50488 5.30801C5.00988 4.59501 6.61712 4.35703 8.42212 4.57803C10.1771 4.79403 11.5 6.28998 11.5 8.05898V19.1071C9.992 18.2661 8.41411 17.846 6.73511 17.846ZM20.5 5.31997L20.491 18.32C17.559 17.488 14.938 17.7451 12.5 19.1081V8.06008C12.5 6.49308 13.542 5.14308 15 4.70608V10C15 10.178 15.095 10.343 15.249 10.433C15.404 10.523 15.594 10.524 15.749 10.434L17 9.71707L18.251 10.434C18.328 10.478 18.414 10.5 18.5 10.5C18.587 10.5 18.673 10.478 18.751 10.433C18.905 10.344 19 10.179 19 10V4.777C19.511 4.909 20.012 5.07908 20.498 5.31008L20.7129 4.85806L20.5 5.31997Z" />
</svg>
