<svg viewBox="0 0 24 24" fill="currentColor" stroke="currentColor" xmlns="http://www.w3.org/2000/svg">
<path d="M22.4351 18.663L21.9189 16.2371V16.236V16.235L19.856 6.52795C19.856 6.52695 19.856 6.52602 19.856 6.52502C19.856 6.52402 19.855 6.52297 19.855 6.52197L19.3401 4.09705C19.2091 3.47905 18.9361 3.03199 18.5281 2.76599C18.1191 2.50099 17.597 2.43396 16.981 2.56396L15.04 2.97705C14.165 3.16305 13.637 3.65299 13.491 4.35999C13.437 3.17799 12.724 2.49902 11.501 2.49902H9.50098C8.84898 2.49902 8.34198 2.693 8.00098 3.052C7.65998 2.694 7.15298 2.49902 6.50098 2.49902H4.50098C3.22998 2.49902 2.50098 3.22802 2.50098 4.49902V19.499C2.50098 20.77 3.22998 21.499 4.50098 21.499H6.50098C7.15298 21.499 7.65998 21.305 8.00098 20.946C8.34198 21.304 8.84898 21.499 9.50098 21.499H11.501C12.772 21.499 13.501 20.77 13.501 19.499V5.30005C13.503 5.31205 13.5031 5.32406 13.5061 5.33606L16.0859 17.4709C16.0859 17.4719 16.0859 17.472 16.0859 17.473C16.0859 17.474 16.0869 17.474 16.0869 17.475L16.603 19.9C16.734 20.518 17.007 20.965 17.415 21.231C17.688 21.408 18.0131 21.498 18.3821 21.498C18.5651 21.498 18.7579 21.476 18.9619 21.433L20.9031 21.02C21.5211 20.889 21.9679 20.615 22.2339 20.207C22.4979 19.8 22.5661 19.28 22.4351 18.663ZM3.5 7.5H7.5V16.5H3.5V7.5ZM8.5 7.5H12.5V16.5H8.5V7.5ZM9.5 3.5H11.5C12.22 3.5 12.5 3.78 12.5 4.5V6.5H8.5V4.5C8.5 3.78 8.78 3.5 9.5 3.5ZM4.5 3.5H6.5C7.22 3.5 7.5 3.78 7.5 4.5V6.5H3.5V4.5C3.5 3.78 3.78 3.5 4.5 3.5ZM6.5 20.5H4.5C3.78 20.5 3.5 20.22 3.5 19.5V17.5H7.5V19.5C7.5 20.22 7.22 20.5 6.5 20.5ZM11.5 20.5H9.5C8.78 20.5 8.5 20.22 8.5 19.5V17.5H12.5V19.5C12.5 20.22 12.22 20.5 11.5 20.5ZM15.104 8.04602L18.981 7.22205L20.8369 15.954L16.9609 16.778L15.104 8.04602ZM15.2461 3.95703L17.188 3.54395C17.324 3.51495 17.4481 3.50098 17.5581 3.50098C17.7311 3.50098 17.872 3.53596 17.981 3.60596C18.159 3.72096 18.2861 3.95703 18.3601 4.30603L18.772 6.245L14.895 7.06897L14.4829 5.13098C14.3359 4.43298 14.5491 4.10403 15.2461 3.95703ZM21.395 19.6639C21.28 19.8419 21.044 19.97 20.696 20.043C20.696 20.043 20.6961 20.043 20.6951 20.043L18.7529 20.4561C18.4039 20.5321 18.138 20.509 17.96 20.394C17.782 20.279 17.6551 20.043 17.5811 19.694L17.1689 17.755L21.0449 16.932L21.457 18.87C21.53 19.22 21.51 19.4859 21.395 19.6639Z" />
</svg>
