<svg viewBox="0 0 24 24" fill="currentColor" stroke="currentColor" xmlns="http://www.w3.org/2000/svg">
<path d="M16 2.5H8C5.71 2.5 4.5 3.71 4.5 6V21C4.5 21.178 4.59502 21.343 4.74902 21.433C4.82602 21.478 4.913 21.5 5 21.5C5.086 21.5 5.17105 21.478 5.24805 21.434L12 17.576L18.752 21.434C18.907 21.522 19.098 21.522 19.251 21.433C19.405 21.343 19.5 21.179 19.5 21V6C19.5 3.71 18.29 2.5 16 2.5ZM18.5 20.1379L12.248 16.566C12.094 16.478 11.906 16.478 11.752 16.566L5.5 20.1379V6C5.5 4.271 6.271 3.5 8 3.5H16C17.729 3.5 18.5 4.271 18.5 6V20.1379ZM15.5 8C15.5 8.276 15.276 8.5 15 8.5H9C8.724 8.5 8.5 8.276 8.5 8C8.5 7.724 8.724 7.5 9 7.5H15C15.276 7.5 15.5 7.724 15.5 8Z" />
</svg>
