<svg viewBox="0 0 24 24" fill="currentColor" stroke="currentColor" xmlns="http://www.w3.org/2000/svg">
<path d="M21.2061 9.79199C21.0181 9.60299 20.767 9.5 20.5 9.5C20.499 9.5 20.499 9.5 20.498 9.5C18.54 9.504 16.621 9.55797 14.676 10.168C13.485 10.542 12.54 11.361 12 12.408C11.46 11.361 10.515 10.542 9.32397 10.168C7.37897 9.55797 5.45995 9.503 3.50195 9.5C3.50095 9.5 3.501 9.5 3.5 9.5C3.233 9.5 2.98195 9.60399 2.79395 9.79199C2.60495 9.98099 2.5 10.233 2.5 10.5V18.5C2.5 19.048 2.94399 19.497 3.48999 19.5C7.69099 19.519 10.435 20.142 11.646 21.353C11.692 21.399 11.7469 21.434 11.8049 21.459C11.8059 21.459 11.8071 21.4611 11.8081 21.4611H11.8091C11.8701 21.4861 11.934 21.499 11.999 21.499C12.064 21.499 12.129 21.4861 12.189 21.4611H12.1899C12.1909 21.4611 12.1921 21.459 12.1931 21.459C12.2511 21.434 12.3061 21.399 12.3521 21.353C13.5631 20.142 16.307 19.519 20.509 19.5C21.054 19.497 21.498 19.048 21.498 18.5V10.5C21.5 10.233 21.3961 9.98099 21.2061 9.79199ZM3.50098 10.5C5.37898 10.504 7.2139 10.555 9.0249 11.123C10.5049 11.587 11.5 12.935 11.5 14.475V19.988C9.098 18.527 4.968 18.509 3.5 18.502L3.50098 10.5ZM12.5 19.9871V14.474C12.5 12.934 13.4941 11.5869 14.9751 11.1219C16.7871 10.5539 18.622 10.503 20.5 10.499L20.5061 18.5C19.0331 18.507 14.903 18.5251 12.5 19.9871ZM12 8.5C13.654 8.5 15 7.154 15 5.5C15 3.846 13.654 2.5 12 2.5C10.346 2.5 9 3.846 9 5.5C9 7.154 10.346 8.5 12 8.5ZM12 3.5C13.103 3.5 14 4.397 14 5.5C14 6.603 13.103 7.5 12 7.5C10.897 7.5 10 6.603 10 5.5C10 4.397 10.897 3.5 12 3.5Z" />
</svg>
