<svg viewBox="0 0 24 24" fill="currentColor" stroke="currentColor" xmlns="http://www.w3.org/2000/svg">
<path d="M17.4299 1.5H10.571C8.59204 1.5 7.50098 2.58995 7.50098 4.56995V5.5H6.57202C4.59202 5.5 3.50098 6.59104 3.50098 8.57104V22C3.50098 22.178 3.596 22.343 3.75 22.433C3.827 22.478 3.91398 22.5 4.00098 22.5C4.08698 22.5 4.17202 22.478 4.24902 22.434L10.001 19.147L15.7529 22.434C15.9079 22.522 16.099 22.522 16.252 22.433C16.406 22.343 16.501 22.179 16.501 22V16.573L19.7529 18.4351C19.8289 18.4791 19.915 18.501 20.001 18.501C20.088 18.501 20.174 18.479 20.252 18.434C20.406 18.345 20.501 18.18 20.501 18.001V4.57104C20.5 2.59004 19.4089 1.5 17.4299 1.5ZM15.5 21.1379L10.248 18.137C10.094 18.049 9.90595 18.049 9.75195 18.137L4.5 21.1379V8.57104C4.5 7.13804 5.13904 6.5 6.57104 6.5H13.428C14.861 6.5 15.499 7.13904 15.499 8.57104V21.1379H15.5ZM19.5 17.1379L16.5 15.42V8.57104C16.5 6.59104 15.409 5.5 13.429 5.5H8.5V4.56995C8.5 3.13795 9.13907 2.5 10.5701 2.5H17.429C18.861 2.5 19.499 3.13795 19.499 4.56995V17.1379H19.5ZM13.011 10.9969L11.4651 10.7729L10.7959 9.42395C10.4929 8.81595 9.5071 8.81595 9.2041 9.42395L8.53491 10.7729L6.98901 10.9969C6.66101 11.0439 6.39299 11.269 6.29199 11.585C6.18999 11.899 6.27496 12.2369 6.51196 12.4659L7.62988 13.55L7.37402 15.0291C7.31602 15.3641 7.45107 15.696 7.72607 15.897C8.00107 16.098 8.36089 16.1229 8.66089 15.9659L10.001 15.265L11.342 15.967C11.473 16.035 11.6129 16.069 11.7539 16.069C11.9379 16.069 12.1199 16.0109 12.2759 15.8979C12.5489 15.6979 12.684 15.366 12.627 15.032L12.3711 13.551L13.488 12.467C13.725 12.238 13.81 11.9 13.709 11.585C13.606 11.27 13.339 11.0439 13.011 10.9969ZM11.6201 12.886C11.4181 13.083 11.3251 13.3669 11.3721 13.6479L11.6011 14.975L10.3999 14.347C10.1499 14.216 9.85107 14.216 9.60107 14.347L8.39893 14.975L8.62793 13.645C8.67493 13.367 8.58191 13.083 8.37891 12.884L7.41211 11.946L8.74805 11.7531C9.03005 11.7131 9.27293 11.537 9.39893 11.283L10 10.071L10.6011 11.282C10.7271 11.537 10.97 11.7141 11.25 11.7531L12.5879 11.947L11.6201 12.886Z" />
</svg>
