<svg viewBox="0 0 24 24" fill="currentColor" stroke="currentColor" xmlns="http://www.w3.org/2000/svg">
<path d="M17.4299 1.5H10.571C8.59204 1.5 7.50098 2.58995 7.50098 4.56995V5.5H6.57202C4.59202 5.5 3.50098 6.59104 3.50098 8.57104V22C3.50098 22.178 3.596 22.343 3.75 22.433C3.827 22.478 3.91398 22.5 4.00098 22.5C4.08698 22.5 4.17202 22.478 4.24902 22.434L10.001 19.147L15.7529 22.434C15.9069 22.522 16.098 22.522 16.252 22.433C16.406 22.343 16.501 22.179 16.501 22V16.573L19.7529 18.4351C19.8289 18.4791 19.915 18.501 20.001 18.501C20.088 18.501 20.174 18.479 20.252 18.434C20.406 18.345 20.501 18.18 20.501 18.001V4.57104C20.5 2.59004 19.4089 1.5 17.4299 1.5ZM15.5 21.1379L10.248 18.137C10.094 18.049 9.90595 18.049 9.75195 18.137L4.5 21.1379V8.57104C4.5 7.13804 5.13904 6.5 6.57104 6.5H13.428C14.861 6.5 15.499 7.13904 15.499 8.57104V21.1379H15.5ZM19.5 17.1379L16.5 15.42V8.57104C16.5 6.59104 15.409 5.5 13.429 5.5H8.5V4.56995C8.5 3.13795 9.13907 2.5 10.5701 2.5H17.429C18.861 2.5 19.499 3.13795 19.499 4.56995V17.1379H19.5ZM11.439 8.93103C11.435 8.93103 11.431 8.93103 11.427 8.93103C10.756 8.93103 10.298 9.23899 9.99902 9.56799C9.70002 9.23899 9.24204 8.93103 8.57104 8.93103C8.56704 8.93103 8.56306 8.93103 8.56006 8.93103C7.84606 8.93403 7.2481 9.20604 6.8291 9.71704C6.3241 10.332 6.13409 11.269 6.31909 12.222C6.78609 14.632 9.66999 15.969 9.79199 16.025C9.85699 16.055 9.92902 16.0699 9.99902 16.0699C10.069 16.0699 10.1411 16.055 10.2061 16.025C10.3281 15.969 13.211 14.632 13.679 12.223C13.867 11.254 13.6819 10.34 13.1699 9.71704C12.7519 9.20604 12.153 8.93403 11.439 8.93103ZM12.697 12.031C12.391 13.608 10.613 14.682 10 15.01C9.387 14.682 7.60698 13.608 7.30298 12.031C7.17298 11.366 7.285 10.738 7.604 10.351C7.831 10.074 8.15489 9.93303 8.56689 9.93103C8.56789 9.93103 8.57002 9.93103 8.57202 9.93103C9.26002 9.93103 9.51688 10.641 9.52588 10.668C9.59288 10.871 9.78407 11.0061 9.99707 11.0081C10.2361 11.0101 10.4031 10.874 10.4741 10.672C10.4851 10.642 10.7429 9.93103 11.4299 9.93103C11.4319 9.93103 11.434 9.93103 11.436 9.93103C11.848 9.93303 12.1719 10.074 12.3989 10.35C12.7149 10.737 12.827 11.365 12.697 12.031Z" />
</svg>
