<svg viewBox="0 0 24 24" fill="currentColor" stroke="currentColor" xmlns="http://www.w3.org/2000/svg">
<path d="M20.929 4.40791C20.928 4.40691 20.928 4.40791 20.929 4.40791C19.27 3.61991 17.4251 3.34199 15.4561 3.58699C13.9221 3.77499 12.66 4.73394 12 6.03694C11.34 4.73394 10.0779 3.77499 8.54395 3.58699C6.56895 3.34299 4.73102 3.62091 3.07202 4.40791C2.72402 4.57291 2.5 4.931 2.5 5.321V18.326C2.5 18.64 2.64402 18.93 2.89502 19.118C3.15002 19.31 3.47096 19.3709 3.78296 19.2819C6.72796 18.4459 9.3249 18.817 11.7229 20.416C11.7299 20.42 11.7381 20.4179 11.7451 20.4229C11.7531 20.4279 11.7559 20.437 11.7639 20.441C11.8379 20.481 11.919 20.5 12 20.5C12.081 20.5 12.1621 20.48 12.2361 20.441C12.2441 20.437 12.2469 20.4269 12.2549 20.4229C12.2619 20.4189 12.2701 20.421 12.2771 20.416C14.6761 18.817 17.276 18.4469 20.217 19.2819C20.528 19.3709 20.85 19.31 21.105 19.118C21.356 18.929 21.5 18.64 21.5 18.326V5.321C21.5 4.932 21.275 4.57391 20.929 4.40791ZM6.73511 17.8459C5.69711 17.8459 4.621 18.0059 3.5 18.3249L3.50488 5.30794C5.00788 4.59594 6.6141 4.35596 8.4231 4.57796C10.1771 4.79396 11.5 6.28991 11.5 8.05891V19.107C9.992 18.266 8.41411 17.8459 6.73511 17.8459ZM20.5 5.3199L20.491 18.3199C17.561 17.4879 14.937 17.744 12.5 19.108V8.06001C12.5 6.29101 13.8229 4.79493 15.5769 4.57893C16.0109 4.52593 16.432 4.49898 16.844 4.49898C18.15 4.49898 19.355 4.76799 20.498 5.31099L20.7129 4.85896L20.5 5.3199ZM18.5 8.99995C18.5 9.27595 18.276 9.49995 18 9.49995H15C14.724 9.49995 14.5 9.27595 14.5 8.99995C14.5 8.72395 14.724 8.49995 15 8.49995H18C18.276 8.49995 18.5 8.72395 18.5 8.99995ZM17.5 12C17.5 12.276 17.276 12.5 17 12.5H15C14.724 12.5 14.5 12.276 14.5 12C14.5 11.724 14.724 11.5 15 11.5H17C17.276 11.5 17.5 11.724 17.5 12Z" />
</svg>
