<svg viewBox="0 0 24 24" fill="currentColor" stroke="currentColor" xmlns="http://www.w3.org/2000/svg">
<path d="M16 2.5H8C5.71 2.5 4.5 3.71 4.5 6V21C4.5 21.178 4.59502 21.343 4.74902 21.433C4.82602 21.478 4.913 21.5 5 21.5C5.086 21.5 5.17105 21.478 5.24805 21.434L12 17.576L18.752 21.434C18.907 21.522 19.098 21.522 19.251 21.433C19.405 21.343 19.5 21.179 19.5 21V6C19.5 3.71 18.29 2.5 16 2.5ZM18.5 20.1379L12.248 16.566C12.094 16.478 11.906 16.478 11.752 16.566L5.5 20.1379V6C5.5 4.271 6.271 3.5 8 3.5H16C17.729 3.5 18.5 4.271 18.5 6V20.1379ZM15.2361 8.68799L13.5481 8.448L12.8191 7.00403C12.5071 6.38403 11.491 6.38403 11.178 7.00403L10.449 8.448L8.76099 8.68799C8.41999 8.73599 8.14406 8.96897 8.03906 9.29297C7.93506 9.61497 8.02402 9.96104 8.27002 10.196L9.48389 11.354L9.20801 12.934C9.14801 13.275 9.28497 13.6139 9.56396 13.8199C9.84896 14.0289 10.22 14.059 10.533 13.897L11.949 13.12L13.4609 13.897C13.5959 13.966 13.741 14.001 13.885 14.001C14.077 14.001 14.2679 13.94 14.4299 13.821C14.7099 13.615 14.8459 13.2761 14.7859 12.9351L14.51 11.354L15.7251 10.196C15.9701 9.96204 16.0591 9.61497 15.9551 9.29297C15.8541 8.96797 15.5771 8.73599 15.2361 8.68799ZM13.7749 10.675C13.5629 10.879 13.4651 11.172 13.5161 11.462L13.7729 12.931L12.4099 12.23C12.1539 12.097 11.8471 12.098 11.5911 12.23L10.2271 12.932L10.4839 11.462C10.5349 11.173 10.4371 10.88 10.2241 10.676L9.14307 9.64502L10.6479 9.43103C10.9349 9.39003 11.1851 9.21203 11.3181 8.95203L11.9771 7.55103L12.6841 8.95398C12.8161 9.21098 13.066 9.39003 13.353 9.43103L14.8579 9.64502L13.7749 10.675Z" />
</svg>
