<svg viewBox="0 0 24 24" fill="currentColor" stroke="currentColor" xmlns="http://www.w3.org/2000/svg">
<path d="M18.5 2.5H16H12H7C4.71 2.5 3.5 3.71 3.5 6V18C3.5 20.093 4.906 21.5 7 21.5H18.5C19.603 21.5 20.5 20.603 20.5 19.5V13.5V11V4.5C20.5 3.397 19.603 2.5 18.5 2.5ZM15.5 3.5V9.13794L14.248 8.42297C14.171 8.37897 14.086 8.35706 14 8.35706C13.914 8.35706 13.829 8.37897 13.752 8.42297L12.5 9.13794V3.5H15.5ZM7 3.5H11.5V10C11.5 10.178 11.595 10.343 11.749 10.433C11.903 10.523 12.094 10.523 12.248 10.434L14 9.43298L15.752 10.434C15.829 10.478 15.914 10.5 16 10.5C16.087 10.5 16.174 10.478 16.251 10.433C16.405 10.343 16.5 10.179 16.5 10V3.5H18.5C19.052 3.5 19.5 3.949 19.5 4.5V11V13.5C19.5 14.051 19.052 14.5 18.5 14.5H7C5.971 14.5 5.112 14.843 4.5 15.437V6C4.5 4.271 5.271 3.5 7 3.5ZM18.5 20.5H7C5.435 20.5 4.5 19.565 4.5 18C4.5 16.435 5.435 15.5 7 15.5H18.5C18.866 15.5 19.205 15.394 19.5 15.222V19.5C19.5 20.051 19.052 20.5 18.5 20.5Z" />
</svg>
