<svg viewBox="0 0 24 24" fill="currentColor" stroke="currentColor" xmlns="http://www.w3.org/2000/svg">
<path d="M16 2.5H8C5.71 2.5 4.5 3.71 4.5 6V21C4.5 21.178 4.59502 21.343 4.74902 21.433C4.82602 21.478 4.913 21.5 5 21.5C5.086 21.5 5.17105 21.478 5.24805 21.434L12 17.576L18.752 21.434C18.907 21.522 19.098 21.522 19.251 21.433C19.405 21.343 19.5 21.179 19.5 21V6C19.5 3.71 18.29 2.5 16 2.5ZM18.5 20.1379L12.248 16.566C12.094 16.478 11.906 16.478 11.752 16.566L5.5 20.1379V6C5.5 4.271 6.271 3.5 8 3.5H16C17.729 3.5 18.5 4.271 18.5 6V20.1379ZM15.1279 7.82104C14.9879 7.58805 14.6891 7.50901 14.4541 7.64001L14.3379 7.70496C14.1189 7.82996 13.8451 7.82898 13.6221 7.70398C13.4091 7.58398 13.2771 7.36401 13.2771 7.13C13.2771 6.782 12.9921 6.49902 12.6421 6.49902H11.3081C10.9581 6.49902 10.6731 6.782 10.6731 7.13C10.6731 7.36401 10.5409 7.58398 10.3279 7.70398C10.1069 7.82898 9.83306 7.82896 9.61206 7.70496C9.31206 7.53696 8.92908 7.64001 8.75708 7.93201L8.08594 9.05798C8.01794 9.17398 7.985 9.40894 8.021 9.53894C8.066 9.70294 8.17202 9.83995 8.32202 9.92395C8.53502 10.044 8.66795 10.264 8.66895 10.498C8.66995 10.734 8.53705 10.956 8.32104 11.077C8.17404 11.16 8.064 11.301 8.021 11.463C7.986 11.593 8.01989 11.8289 8.08789 11.9449L8.75806 13.0699C8.93606 13.3649 9.31006 13.465 9.61206 13.295C9.83506 13.172 10.1079 13.172 10.3269 13.296C10.5399 13.416 10.6731 13.636 10.6721 13.87C10.6721 14.218 10.9569 14.501 11.3069 14.501H12.6431C12.9931 14.501 13.2771 14.218 13.2771 13.87C13.2771 13.636 13.409 13.416 13.623 13.296C13.842 13.171 14.1169 13.17 14.3379 13.295C14.6389 13.463 15.0151 13.365 15.1941 13.068L15.8611 11.947C15.9311 11.831 15.9649 11.595 15.9299 11.465C15.8869 11.301 15.7779 11.16 15.6279 11.077C15.4149 10.957 15.283 10.736 15.282 10.502C15.282 10.266 15.4149 10.044 15.6279 9.92395L15.7439 9.85901C15.8609 9.79301 15.9469 9.682 15.9819 9.552C16.0159 9.422 15.997 9.28299 15.928 9.16699L15.1279 7.82104ZM14.8301 11.725L14.499 12.281C14.048 12.141 13.5491 12.188 13.1321 12.425C12.7161 12.659 12.4251 13.053 12.3201 13.501H11.6311C11.5271 13.054 11.2351 12.66 10.8201 12.425C10.4031 12.19 9.90388 12.142 9.45288 12.282L9.12207 11.726C9.46707 11.412 9.66995 10.967 9.66895 10.495C9.66695 10.029 9.46409 9.588 9.12109 9.276L9.45288 8.71997C9.90188 8.85997 10.4021 8.81205 10.8201 8.57605C11.2351 8.34205 11.5271 7.949 11.6311 7.5H12.3201C12.4241 7.948 12.7161 8.34205 13.1311 8.57605C13.5511 8.81205 14.05 8.85997 14.499 8.71997L14.8301 9.276C14.4861 9.588 14.283 10.0331 14.283 10.5031C14.284 10.9701 14.4871 11.412 14.8301 11.725ZM12.75 10.5C12.75 10.915 12.4159 11.25 12.0039 11.25C11.5929 11.25 11.25 10.915 11.25 10.5C11.25 10.085 11.577 9.75 11.989 9.75H12.0039C12.4159 9.75 12.75 10.085 12.75 10.5Z" />
</svg>
