<svg viewBox="0 0 24 24" fill="currentColor" stroke="currentColor" xmlns="http://www.w3.org/2000/svg">
<path d="M11 17C11 17.276 10.776 17.5 10.5 17.5H5C2.71 17.5 1.5 16.29 1.5 14V6C1.5 3.71 2.71 2.5 5 2.5H17C19.29 2.5 20.5 3.71 20.5 6C20.5 6.276 20.276 6.5 20 6.5C19.724 6.5 19.5 6.276 19.5 6C19.5 4.271 18.729 3.5 17 3.5H5C3.271 3.5 2.5 4.271 2.5 6V14C2.5 15.729 3.271 16.5 5 16.5H10.5C10.776 16.5 11 16.724 11 17ZM12 7.5H6C5.724 7.5 5.5 7.724 5.5 8C5.5 8.276 5.724 8.5 6 8.5H12C12.276 8.5 12.5 8.276 12.5 8C12.5 7.724 12.276 7.5 12 7.5ZM9 12.5C9.276 12.5 9.5 12.276 9.5 12C9.5 11.724 9.276 11.5 9 11.5H6C5.724 11.5 5.5 11.724 5.5 12C5.5 12.276 5.724 12.5 6 12.5H9ZM21.9309 14.708L21.718 14.921C21.677 14.962 21.6541 15.019 21.6541 15.078V15.377C21.6541 16.194 21.1459 16.892 20.4309 17.179L21.481 20.864C21.534 21.048 21.477 21.245 21.335 21.373C21.241 21.457 21.121 21.501 21 21.501C20.938 21.501 20.874 21.489 20.814 21.465L18.967 20.725C18.128 20.391 17.204 20.392 16.363 20.725L14.5181 21.465C14.3411 21.537 14.1401 21.5 13.9971 21.373C13.8551 21.245 13.7991 21.048 13.8511 20.864L14.9021 17.179C14.1871 16.892 13.6799 16.194 13.6799 15.377V15.078C13.6799 15.019 13.657 14.964 13.616 14.922L13.4021 14.709C12.6441 13.952 12.6441 12.719 13.4021 11.96L13.615 11.7469C13.657 11.7049 13.6799 11.649 13.6799 11.59V11.291C13.6799 10.219 14.552 9.34705 15.623 9.34705H15.9221C15.9821 9.34705 16.0371 9.32398 16.0791 9.28198L16.291 9.06995C17.025 8.33495 18.306 8.33495 19.04 9.06995L19.2529 9.28198C19.2949 9.32498 19.3509 9.34705 19.4099 9.34705H19.709C20.78 9.34705 21.6521 10.219 21.6521 11.291V11.59C21.6521 11.649 21.676 11.706 21.717 11.749L21.929 11.959C22.688 12.717 22.6879 13.95 21.9309 14.708ZM20.239 20.157L19.4309 17.3199H19.4109C19.3509 17.3199 19.2959 17.343 19.2549 17.384L19.041 17.597C18.674 17.964 18.187 18.166 17.667 18.166C17.147 18.166 16.659 17.964 16.292 17.597L16.0801 17.384C16.0381 17.343 15.9821 17.3199 15.9231 17.3199H15.9021L15.094 20.157L15.9939 19.796C17.0719 19.365 18.2611 19.366 19.3391 19.796L20.239 20.157ZM21.2241 12.666L21.011 12.454C20.781 12.221 20.6541 11.914 20.6541 11.589V11.29C20.6541 10.769 20.2309 10.3459 19.7109 10.3459H19.4121C19.0841 10.3459 18.7761 10.2191 18.5471 9.98706L18.335 9.77698C17.978 9.41998 17.357 9.41998 17 9.77698L16.7881 9.98901C16.5581 10.22 16.2501 10.347 15.9241 10.347H15.625C15.104 10.347 14.6819 10.77 14.6819 11.291V11.59C14.6819 11.916 14.555 12.223 14.324 12.454L14.1111 12.667C13.7441 13.035 13.7431 13.633 14.1111 14.001L14.324 14.214C14.554 14.444 14.6819 14.751 14.6819 15.078V15.377C14.6819 15.898 15.105 16.321 15.625 16.321H15.9241C16.2501 16.321 16.5571 16.448 16.7871 16.678L17 16.891C17.357 17.246 17.978 17.247 18.335 16.891L18.5481 16.678C18.7771 16.448 19.0851 16.321 19.4121 16.321H19.7109C20.2319 16.321 20.6541 15.898 20.6541 15.377V15.078C20.6541 14.757 20.784 14.442 21.01 14.215L21.2241 14.002C21.5921 13.633 21.5911 13.034 21.2241 12.666ZM19.833 13.333C19.833 14.528 18.861 15.5 17.667 15.5C16.472 15.5 15.5 14.528 15.5 13.333C15.5 12.138 16.472 11.166 17.667 11.166C18.861 11.167 19.833 12.139 19.833 13.333ZM18.833 13.333C18.833 12.689 18.31 12.166 17.667 12.166C17.023 12.166 16.5 12.689 16.5 13.333C16.5 13.976 17.023 14.5 17.667 14.5C18.31 14.5 18.833 13.977 18.833 13.333Z" />
</svg>
