<svg viewBox="0 0 24 24" fill="currentColor" stroke="currentColor" xmlns="http://www.w3.org/2000/svg">
<path d="M19.863 5.61098C19.748 4.88298 19.3209 4.24701 18.6909 3.86501C18.0629 3.48201 17.3001 3.39702 16.6021 3.63002L15.8411 3.88405C15.5791 3.97105 15.4379 4.25501 15.5249 4.51601C15.6129 4.77801 15.896 4.92005 16.158 4.83205L16.9189 4.579C17.3389 4.438 17.7951 4.49099 18.1731 4.71999C18.5501 4.94899 18.8059 5.33102 18.8889 5.82802C19.4189 7.66202 20.0781 10.242 20.3601 13.197C19.7831 12.745 19.001 12.5 18 12.5H17C14.738 12.5 13.5351 13.685 13.5061 15.921C13.0551 15.657 12.544 15.5 12 15.5C11.456 15.5 10.9459 15.656 10.4939 15.921C10.4649 13.686 9.262 12.5 7 12.5H6C4.999 12.5 4.21789 12.7451 3.63989 13.1961C3.92189 10.2381 4.585 7.64798 5.125 5.76698C5.194 5.32998 5.4499 4.94901 5.8269 4.71901C6.2059 4.49001 6.66205 4.43904 7.08105 4.57704L7.84204 4.83107C8.10404 4.91907 8.3881 4.77703 8.4751 4.51503C8.5621 4.25303 8.41994 3.97007 8.15894 3.88307L7.39795 3.62905C6.70095 3.39805 5.93808 3.48201 5.30908 3.86501C4.67908 4.24701 4.25188 4.88404 4.15088 5.55104C3.44288 8.00404 2.50098 11.757 2.50098 16.001V17.001C2.50098 19.291 3.71098 20.501 6.00098 20.501H7.00098C9.21598 20.501 10.4091 19.359 10.4861 17.214C11.2521 16.326 12.7501 16.326 13.5161 17.214C13.5931 19.359 14.787 20.501 17.001 20.501H18.001C20.291 20.501 21.501 19.291 21.501 17.001V16.001C21.5 11.756 20.558 8.00298 19.863 5.61098ZM9.5 17C9.5 18.729 8.729 19.5 7 19.5H6C4.271 19.5 3.5 18.729 3.5 17V16C3.5 14.271 4.271 13.5 6 13.5H7C8.729 13.5 9.5 14.271 9.5 16V17ZM20.5 17C20.5 18.729 19.729 19.5 18 19.5H17C15.271 19.5 14.5 18.729 14.5 17V16C14.5 14.271 15.271 13.5 17 13.5H18C19.729 13.5 20.5 14.271 20.5 16V17Z" />
</svg>
