<svg viewBox="0 0 24 24" fill="currentColor" stroke="currentColor" xmlns="http://www.w3.org/2000/svg">
<path d="M12.5 18.486V20.5H16C16.276 20.5 16.5 20.724 16.5 21C16.5 21.276 16.276 21.5 16 21.5H8.00001C7.72401 21.5 7.50001 21.276 7.50001 21C7.50001 20.724 7.72401 20.5 8.00001 20.5H11.5V18.466C9.45101 18.307 7.53609 17.483 6.00709 16.09L4.35401 17.7431C4.15901 17.9381 3.84198 17.9381 3.64698 17.7431C3.45198 17.5481 3.45198 17.231 3.64698 17.036L5.64698 15.036C5.74098 14.942 5.86799 14.89 6.00099 14.89C6.11199 14.877 6.26197 14.943 6.35597 15.038C7.92297 16.625 10.01 17.499 12.231 17.499C16.791 17.499 20.501 13.794 20.501 9.23903C20.501 7.02203 19.6261 4.93104 18.0381 3.35304C17.8431 3.15904 17.8409 2.84201 18.0359 2.64601C18.2309 2.45101 18.5479 2.44906 18.7429 2.64406C20.5209 4.41106 21.501 6.75303 21.501 9.23903C21.5 14.255 17.486 18.342 12.5 18.486ZM6.00001 9.25001C6.00001 5.94101 8.69101 3.25001 12 3.25001C15.309 3.25001 18 5.94101 18 9.25001C18 12.559 15.309 15.25 12 15.25C8.69101 15.25 6.00001 12.559 6.00001 9.25001ZM7.00001 9.25001C7.00001 12.007 9.24301 14.25 12 14.25C14.757 14.25 17 12.007 17 9.25001C17 6.49301 14.757 4.25001 12 4.25001C9.24301 4.25001 7.00001 6.49301 7.00001 9.25001Z" />
</svg>
