<svg viewBox="0 0 24 24" fill="currentColor" stroke="currentColor" xmlns="http://www.w3.org/2000/svg">
<path d="M21.5 9.69602C21.5 8.75202 21.005 7.91792 20.176 7.46592L13.7041 3.93504C12.6381 3.35304 11.3619 3.35304 10.2959 3.93504L3.82397 7.46592C2.99497 7.91792 2.5 8.75202 2.5 9.69602C2.5 10.64 2.99497 11.474 3.82397 11.926L5.5 12.8399V16.698C5.5 17.567 5.94612 18.367 6.69312 18.837C8.45412 19.944 10.227 20.498 12 20.498C13.773 20.498 15.5459 19.944 17.3069 18.837C18.0539 18.367 18.5 17.567 18.5 16.698V12.8399L20.176 11.926C20.297 11.86 20.394 11.7699 20.5 11.6889V15.999C20.5 16.275 20.724 16.499 21 16.499C21.276 16.499 21.5 16.275 21.5 15.999V9.999C21.5 9.956 21.4861 9.918 21.4761 9.879C21.4801 9.81701 21.5 9.76002 21.5 9.69602ZM17.5 16.699C17.5 17.215 17.2219 17.7099 16.7729 17.9909C13.5619 20.0119 10.4371 20.0119 7.22607 17.9909C6.77807 17.7089 6.49902 17.214 6.49902 16.699V13.3869L10.2949 15.458C10.8279 15.75 11.414 15.895 11.999 15.895C12.584 15.895 13.1699 15.749 13.7029 15.458L17.499 13.3869V16.699H17.5ZM19.697 11.0489L13.2251 14.5799C12.4571 14.9989 11.5409 14.9989 10.7739 14.5799L4.302 11.0489C3.799 10.7749 3.49902 10.269 3.49902 9.69602C3.49902 9.12302 3.799 8.61799 4.302 8.34299L10.7739 4.81199C11.1579 4.60299 11.579 4.49802 12 4.49802C12.421 4.49802 12.8421 4.60199 13.2261 4.81199L19.698 8.34299C20.201 8.61699 20.501 9.12302 20.501 9.69602C20.501 10.269 20.2 10.7739 19.697 11.0489Z" />
</svg>
