<svg viewBox="0 0 24 24" fill="currentColor" stroke="currentColor" xmlns="http://www.w3.org/2000/svg">
<path d="M21.5 7.23096C21.501 6.56296 21.2401 5.93396 20.7681 5.45996L18.54 3.23206C18.067 2.76006 17.439 2.5 16.771 2.5C16.77 2.5 16.7691 2.5 16.7681 2.5C16.0991 2.501 15.471 2.76196 14.999 3.23596L2.64502 15.647C2.55202 15.74 2.49902 15.867 2.49902 16V21C2.49902 21.276 2.72302 21.5 2.99902 21.5H7.99902C8.13102 21.5 8.25805 21.448 8.35205 21.354L20.7629 9C21.2379 8.528 21.499 7.89996 21.5 7.23096ZM7.79395 20.5H3.5V16.207L12.7419 6.922L17.0779 11.2581L7.79395 20.5ZM20.0591 8.29102L17.7881 10.552L13.448 6.21301L15.709 3.94202C15.992 3.65802 16.368 3.50098 16.77 3.50098C16.771 3.50098 16.772 3.50098 16.772 3.50098C17.173 3.50098 17.55 3.65694 17.834 3.93994L20.062 6.16797C20.346 6.45197 20.501 6.82898 20.501 7.22998C20.501 7.63098 20.3431 8.00802 20.0591 8.29102ZM21.5 21C21.5 21.276 21.276 21.5 21 21.5H14C13.724 21.5 13.5 21.276 13.5 21C13.5 20.724 13.724 20.5 14 20.5H21C21.276 20.5 21.5 20.724 21.5 21Z" />
</svg>
