<svg viewBox="0 0 24 24" fill="currentColor" stroke="currentColor" xmlns="http://www.w3.org/2000/svg">
<path d="M18 5.5H16.5V4C16.5 3.173 15.827 2.5 15 2.5H9C8.173 2.5 7.5 3.173 7.5 4V5.5H6C3.71 5.5 2.5 6.71 2.5 9V18C2.5 20.29 3.71 21.5 6 21.5H15C15.276 21.5 15.5 21.276 15.5 21C15.5 20.724 15.276 20.5 15 20.5H6C4.271 20.5 3.5 19.729 3.5 18V12.963C3.564 13.001 3.618 13.0511 3.687 13.0811C4.609 13.4921 6.174 14.077 8.392 14.53C8.986 14.652 9.6 14.386 9.955 13.854C10.447 13.118 11.212 12.679 12 12.679C12.788 12.679 13.553 13.118 14.045 13.853C14.343 14.3 14.823 14.559 15.321 14.559C15.416 14.559 15.512 14.549 15.608 14.53C17.825 14.077 19.39 13.4921 20.313 13.0811C20.382 13.0501 20.436 13 20.5 12.963V15C20.5 15.276 20.724 15.5 21 15.5C21.276 15.5 21.5 15.276 21.5 15V9C21.5 6.71 20.29 5.5 18 5.5ZM8.5 4C8.5 3.724 8.724 3.5 9 3.5H15C15.276 3.5 15.5 3.724 15.5 4V5.5H8.5V4ZM19.906 12.168C19.03 12.559 17.537 13.115 15.408 13.55C15.217 13.59 15.006 13.49 14.877 13.297C14.199 12.284 13.124 11.679 12.001 11.679C10.878 11.679 9.803 12.284 9.125 13.298C8.996 13.491 8.787 13.59 8.593 13.55C6.464 13.115 4.972 12.558 4.095 12.168C3.734 12.007 3.50101 11.6481 3.50101 11.2531V9.11902V9C3.50101 7.271 4.27201 6.5 6.00101 6.5H18.001C19.73 6.5 20.501 7.271 20.501 9V9.11902V11.2531C20.5 11.6481 20.267 12.007 19.906 12.168ZM12.004 14.25C12.416 14.25 12.75 14.585 12.75 15C12.75 15.415 12.415 15.75 12.004 15.75C11.591 15.75 11.25 15.415 11.25 15C11.25 14.585 11.577 14.25 11.988 14.25H12.004ZM21.354 17.98C21.549 18.175 21.549 18.492 21.354 18.687L18.687 21.354C18.589 21.452 18.461 21.5 18.333 21.5C18.205 21.5 18.077 21.451 17.979 21.354L16.646 20.021C16.451 19.826 16.451 19.509 16.646 19.314C16.841 19.119 17.158 19.119 17.353 19.314L18.333 20.2939L20.646 17.981C20.842 17.785 21.158 17.785 21.354 17.98Z" />
</svg>
