<svg viewBox="0 0 24 24" fill="currentColor" stroke="currentColor" xmlns="http://www.w3.org/2000/svg">
<path d="M18 5.5H16.5V4C16.5 3.173 15.827 2.5 15 2.5H9C8.173 2.5 7.5 3.173 7.5 4V5.5H6C3.71 5.5 2.5 6.71 2.5 9V18C2.5 20.29 3.71 21.5 6 21.5H18C20.29 21.5 21.5 20.29 21.5 18V9C21.5 6.71 20.29 5.5 18 5.5ZM8.5 4C8.5 3.724 8.724 3.5 9 3.5H15C15.276 3.5 15.5 3.724 15.5 4V5.5H8.5V4ZM20.5 18C20.5 19.729 19.729 20.5 18 20.5H6C4.271 20.5 3.5 19.729 3.5 18V9C3.5 7.271 4.271 6.5 6 6.5H18C19.729 6.5 20.5 7.271 20.5 9V18ZM12 10C10.07 10 8.5 11.57 8.5 13.5C8.5 15.43 10.07 17 12 17C13.93 17 15.5 15.43 15.5 13.5C15.5 11.57 13.93 10 12 10ZM12 16C10.622 16 9.5 14.878 9.5 13.5C9.5 12.122 10.622 11 12 11C13.378 11 14.5 12.122 14.5 13.5C14.5 14.878 13.378 16 12 16ZM6.75 13.5C6.75 13.914 6.414 14.25 6 14.25C5.586 14.25 5.25 13.914 5.25 13.5C5.25 13.086 5.586 12.75 6 12.75C6.414 12.75 6.75 13.086 6.75 13.5ZM18.75 13.5C18.75 13.914 18.414 14.25 18 14.25C17.586 14.25 17.25 13.914 17.25 13.5C17.25 13.086 17.586 12.75 18 12.75C18.414 12.75 18.75 13.086 18.75 13.5Z" />
</svg>
