<svg viewBox="0 0 24 24" fill="currentColor" stroke="currentColor" xmlns="http://www.w3.org/2000/svg">
<path d="M18 5.5H16.5V4C16.5 3.173 15.827 2.5 15 2.5H9C8.173 2.5 7.5 3.173 7.5 4V5.5H6C3.71 5.5 2.5 6.71 2.5 9V18C2.5 20.29 3.71 21.5 6 21.5H18C20.29 21.5 21.5 20.29 21.5 18V9C21.5 6.71 20.29 5.5 18 5.5ZM8.5 4C8.5 3.724 8.724 3.5 9 3.5H15C15.276 3.5 15.5 3.724 15.5 4V5.5H8.5V4ZM3.5 9C3.5 7.271 4.271 6.5 6 6.5H18C19.729 6.5 20.5 7.271 20.5 9V9.11902V11.2531C20.5 11.6481 20.267 12.007 19.906 12.168C19.03 12.559 17.537 13.115 15.408 13.55C15.215 13.59 15.006 13.49 14.877 13.297C14.199 12.284 13.124 11.679 12.001 11.679C10.878 11.679 9.803 12.284 9.125 13.298C8.996 13.491 8.785 13.59 8.593 13.55C6.464 13.115 4.972 12.558 4.095 12.168C3.734 12.007 3.501 11.6481 3.501 11.2531V9.11902V9H3.5ZM18 20.5H6C4.271 20.5 3.5 19.729 3.5 18V12.963C3.564 13.001 3.618 13.0511 3.687 13.0811C4.609 13.4921 6.17401 14.077 8.39101 14.53C8.98601 14.652 9.59899 14.386 9.95399 13.854C10.446 13.118 11.211 12.679 11.999 12.679C12.787 12.679 13.552 13.118 14.044 13.853C14.342 14.3 14.822 14.559 15.32 14.559C15.415 14.559 15.511 14.549 15.607 14.53C17.824 14.077 19.389 13.4921 20.312 13.0811C20.381 13.0501 20.435 13 20.499 12.963V18C20.5 19.729 19.729 20.5 18 20.5ZM12.75 15C12.75 15.415 12.415 15.75 12.004 15.75C11.591 15.75 11.25 15.415 11.25 15C11.25 14.585 11.577 14.25 11.988 14.25H12.003C12.415 14.25 12.75 14.585 12.75 15Z" />
</svg>
