<svg viewBox="0 0 24 24" fill="currentColor" stroke="currentColor" xmlns="http://www.w3.org/2000/svg">
<path d="M18 2.5H6C3.71 2.5 2.5 3.71 2.5 6V18C2.5 20.29 3.71 21.5 6 21.5H18C20.29 21.5 21.5 20.29 21.5 18V6C21.5 3.71 20.29 2.5 18 2.5ZM20.5 6V11.5H12.5V3.5H18C19.729 3.5 20.5 4.271 20.5 6ZM6 3.5H11.5V11.5H3.5V6C3.5 4.271 4.271 3.5 6 3.5ZM3.5 18V12.5H11.5V20.5H6C4.271 20.5 3.5 19.729 3.5 18ZM18 20.5H12.5V12.5H20.5V18C20.5 19.729 19.729 20.5 18 20.5ZM18.5 15.25C18.5 15.526 18.276 15.75 18 15.75H15C14.724 15.75 14.5 15.526 14.5 15.25C14.5 14.974 14.724 14.75 15 14.75H18C18.276 14.75 18.5 14.974 18.5 15.25ZM5.5 7.5C5.5 7.224 5.724 7 6 7H9C9.276 7 9.5 7.224 9.5 7.5C9.5 7.776 9.276 8 9 8H6C5.724 8 5.5 7.776 5.5 7.5ZM14.5 7.5C14.5 7.224 14.724 7 15 7H16V6C16 5.724 16.224 5.5 16.5 5.5C16.776 5.5 17 5.724 17 6V7H18C18.276 7 18.5 7.224 18.5 7.5C18.5 7.776 18.276 8 18 8H17V9C17 9.276 16.776 9.5 16.5 9.5C16.224 9.5 16 9.276 16 9V8H15C14.724 8 14.5 7.776 14.5 7.5ZM9.104 17.396C9.299 17.591 9.299 17.908 9.104 18.103C9.006 18.201 8.878 18.249 8.75 18.249C8.622 18.249 8.494 18.2 8.396 18.103L7.5 17.207L6.604 18.103C6.506 18.201 6.378 18.249 6.25 18.249C6.122 18.249 5.994 18.2 5.896 18.103C5.701 17.908 5.701 17.591 5.896 17.396L6.792 16.5L5.896 15.604C5.701 15.409 5.701 15.092 5.896 14.897C6.091 14.702 6.408 14.702 6.603 14.897L7.499 15.793L8.395 14.897C8.59 14.702 8.907 14.702 9.10201 14.897C9.29701 15.092 9.29701 15.409 9.10201 15.604L8.20599 16.5L9.104 17.396ZM18.5 17.75C18.5 18.026 18.276 18.25 18 18.25H15C14.724 18.25 14.5 18.026 14.5 17.75C14.5 17.474 14.724 17.25 15 17.25H18C18.276 17.25 18.5 17.474 18.5 17.75Z" />
</svg>
