<svg viewBox="0 0 24 24" fill="currentColor" stroke="currentColor" xmlns="http://www.w3.org/2000/svg">
<path d="M9.00598 11.8C10.192 11.8 11.156 10.836 11.156 9.65002C11.156 8.46402 10.191 7.5 9.00598 7.5C7.82098 7.5 6.85699 8.46402 6.85699 9.65002C6.85699 10.836 7.81998 11.8 9.00598 11.8ZM9.00598 8.5C9.64098 8.5 10.156 9.01602 10.156 9.65002C10.156 10.284 9.63998 10.8 9.00598 10.8C8.37198 10.8 7.85699 10.284 7.85699 9.65002C7.85699 9.01602 8.37198 8.5 9.00598 8.5ZM12.5 15.697V16C12.5 16.276 12.276 16.5 12 16.5C11.724 16.5 11.5 16.276 11.5 16V15.697C11.5 14.88 10.918 14 9.64203 14H8.35901C7.08301 14 6.50098 14.879 6.50098 15.697V16C6.50098 16.276 6.27698 16.5 6.00098 16.5C5.72498 16.5 5.50098 16.276 5.50098 16V15.697C5.50098 14.357 6.48201 13 8.35901 13H9.64203C11.519 13 12.5 14.356 12.5 15.697ZM18 4H6C3.71 4 2.5 5.21 2.5 7.5V16.5C2.5 18.79 3.71 20 6 20H18C20.29 20 21.5 18.79 21.5 16.5V7.5C21.5 5.21 20.29 4 18 4ZM20.5 16.5C20.5 18.229 19.729 19 18 19H6C4.271 19 3.5 18.229 3.5 16.5V7.5C3.5 5.771 4.271 5 6 5H18C19.729 5 20.5 5.771 20.5 7.5V16.5ZM18.5 9.93799C18.5 10.214 18.276 10.438 18 10.438H14C13.724 10.438 13.5 10.214 13.5 9.93799C13.5 9.66199 13.724 9.43799 14 9.43799H18C18.276 9.43799 18.5 9.66099 18.5 9.93799ZM18.45 14C18.45 14.276 18.226 14.5 17.95 14.5H14.95C14.674 14.5 14.45 14.276 14.45 14C14.45 13.724 14.674 13.5 14.95 13.5H17.95C18.227 13.5 18.45 13.724 18.45 14Z" />
</svg>
