<svg viewBox="0 0 24 24" fill="currentColor" stroke="currentColor" xmlns="http://www.w3.org/2000/svg">
<path d="M16.354 6.146C16.549 6.341 16.549 6.65803 16.354 6.85303L8.354 14.853C8.256 14.951 8.128 14.999 8 14.999C7.872 14.999 7.744 14.95 7.646 14.853C7.451 14.658 7.451 14.341 7.646 14.146L15.646 6.146C15.842 5.951 16.158 5.951 16.354 6.146ZM16.5 13.25C16.5 14.215 15.715 15 14.75 15C13.785 15 13 14.215 13 13.25C13 12.285 13.785 11.5 14.75 11.5C15.715 11.5 16.5 12.285 16.5 13.25ZM15.5 13.25C15.5 12.836 15.164 12.5 14.75 12.5C14.336 12.5 14 12.836 14 13.25C14 13.664 14.336 14 14.75 14C15.164 14 15.5 13.664 15.5 13.25ZM7.5 7.75C7.5 6.785 8.285 6 9.25 6C10.215 6 11 6.785 11 7.75C11 8.715 10.215 9.5 9.25 9.5C8.285 9.5 7.5 8.715 7.5 7.75ZM8.5 7.75C8.5 8.164 8.836 8.5 9.25 8.5C9.664 8.5 10 8.164 10 7.75C10 7.336 9.664 7 9.25 7C8.836 7 8.5 7.336 8.5 7.75ZM21.5 5.33301V15.333C21.5 17.841 20.174 19.166 17.667 19.166H16.167C15.802 19.166 15.453 19.3401 15.234 19.6331L13.734 21.6331C13.321 22.1841 12.689 22.5 12.001 22.5C11.313 22.5 10.681 22.184 10.268 21.634L8.76801 19.634C8.54901 19.342 8.20002 19.167 7.83502 19.167H6.33502C3.82702 19.167 2.50201 17.842 2.50201 15.334V5.33398C2.50201 2.82598 3.82802 1.50098 6.33502 1.50098H17.668C20.174 1.49998 21.5 2.82601 21.5 5.33301ZM20.5 5.33301C20.5 3.40001 19.6 2.5 17.667 2.5H6.33398C4.40098 2.5 3.50098 3.40001 3.50098 5.33301V15.333C3.50098 17.266 4.40098 18.166 6.33398 18.166H7.83398C8.51298 18.166 9.16102 18.49 9.56702 19.033L11.067 21.033C11.512 21.626 12.489 21.626 12.934 21.033L14.434 19.033C14.84 18.49 15.488 18.166 16.167 18.166H17.667C19.6 18.166 20.5 17.266 20.5 15.333V5.33301Z" />
</svg>
