<svg viewBox="0 0 24 24" fill="currentColor" stroke="currentColor" xmlns="http://www.w3.org/2000/svg">
<path d="M16.354 7.646C16.549 7.841 16.549 8.15803 16.354 8.35303L8.354 16.353C8.256 16.451 8.128 16.499 8 16.499C7.872 16.499 7.744 16.45 7.646 16.353C7.451 16.158 7.451 15.841 7.646 15.646L15.646 7.646C15.842 7.451 16.158 7.451 16.354 7.646ZM16.5 14.75C16.5 15.715 15.715 16.5 14.75 16.5C13.785 16.5 13 15.715 13 14.75C13 13.785 13.785 13 14.75 13C15.715 13 16.5 13.785 16.5 14.75ZM15.5 14.75C15.5 14.336 15.164 14 14.75 14C14.336 14 14 14.336 14 14.75C14 15.164 14.336 15.5 14.75 15.5C15.164 15.5 15.5 15.164 15.5 14.75ZM7.5 9.25C7.5 8.285 8.285 7.5 9.25 7.5C10.215 7.5 11 8.285 11 9.25C11 10.215 10.215 11 9.25 11C8.285 11 7.5 10.215 7.5 9.25ZM8.5 9.25C8.5 9.664 8.836 10 9.25 10C9.664 10 10 9.664 10 9.25C10 8.836 9.664 8.5 9.25 8.5C8.836 8.5 8.5 8.836 8.5 9.25ZM22.5 12C22.5 17.79 17.79 22.5 12 22.5C6.21 22.5 1.5 17.79 1.5 12C1.5 6.21 6.21 1.5 12 1.5C17.79 1.5 22.5 6.21 22.5 12ZM21.5 12C21.5 6.762 17.238 2.5 12 2.5C6.762 2.5 2.5 6.762 2.5 12C2.5 17.238 6.762 21.5 12 21.5C17.238 21.5 21.5 17.238 21.5 12Z" />
</svg>
