<svg viewBox="0 0 24 24" fill="currentColor" stroke="currentColor" xmlns="http://www.w3.org/2000/svg">
<path d="M20.354 4.354L4.35401 20.354C4.25601 20.452 4.12801 20.5 4.00001 20.5C3.87201 20.5 3.74401 20.451 3.64601 20.354C3.45101 20.159 3.45101 19.842 3.64601 19.647L19.646 3.64697C19.841 3.45197 20.158 3.45197 20.353 3.64697C20.548 3.84197 20.549 4.158 20.354 4.354ZM20.5 17.5C20.5 19.154 19.154 20.5 17.5 20.5C15.846 20.5 14.5 19.154 14.5 17.5C14.5 15.846 15.846 14.5 17.5 14.5C19.154 14.5 20.5 15.846 20.5 17.5ZM19.5 17.5C19.5 16.397 18.603 15.5 17.5 15.5C16.397 15.5 15.5 16.397 15.5 17.5C15.5 18.603 16.397 19.5 17.5 19.5C18.603 19.5 19.5 18.603 19.5 17.5ZM3.50001 6.5C3.50001 4.846 4.84601 3.5 6.50001 3.5C8.15401 3.5 9.50001 4.846 9.50001 6.5C9.50001 8.154 8.15401 9.5 6.50001 9.5C4.84601 9.5 3.50001 8.154 3.50001 6.5ZM4.50001 6.5C4.50001 7.603 5.39701 8.5 6.50001 8.5C7.60301 8.5 8.50001 7.603 8.50001 6.5C8.50001 5.397 7.60301 4.5 6.50001 4.5C5.39701 4.5 4.50001 5.397 4.50001 6.5Z" />
</svg>
