<svg viewBox="0 0 24 24" fill="currentColor" stroke="currentColor" xmlns="http://www.w3.org/2000/svg">
<path d="M21 2.5H3C2.724 2.5 2.5 2.724 2.5 3C2.5 3.276 2.724 3.5 3 3.5H4V13C4 15.29 5.21 16.5 7.5 16.5H11.5V18.7321L8.72299 20.584C8.49299 20.737 8.43102 21.047 8.58401 21.277C8.73601 21.506 9.04601 21.568 9.27701 21.416L12 19.601L14.723 21.416C14.808 21.473 14.905 21.5 15 21.5C15.162 21.5 15.32 21.422 15.417 21.277C15.57 21.047 15.508 20.737 15.278 20.584L12.501 18.7321V16.5H16.501C18.791 16.5 20.001 15.29 20.001 13V3.5H21.001C21.277 3.5 21.501 3.276 21.501 3C21.501 2.724 21.276 2.5 21 2.5ZM19 13C19 14.729 18.229 15.5 16.5 15.5H7.5C5.771 15.5 5 14.729 5 13V3.5H19V13ZM9.73499 12.627C9.95799 12.752 10.199 12.814 10.441 12.814C10.701 12.814 10.96 12.742 11.193 12.599L14.342 10.673C14.754 10.421 15 9.98298 15 9.50098C15 9.01898 14.754 8.58098 14.342 8.32898L11.194 6.40198C10.744 6.12498 10.198 6.11502 9.73599 6.37402C9.27599 6.63202 9.00101 7.10105 9.00101 7.62805V11.374C9.00001 11.9 9.27499 12.369 9.73499 12.627ZM10 7.62695C10 7.39595 10.157 7.28297 10.224 7.24597C10.264 7.22297 10.344 7.18701 10.443 7.18701C10.511 7.18701 10.589 7.20403 10.672 7.25403L13.821 9.18103C13.983 9.28003 14 9.437 14 9.5C14 9.563 13.982 9.71997 13.821 9.81897L10.672 11.746C10.472 11.869 10.293 11.793 10.225 11.754C10.158 11.716 10.001 11.604 10.001 11.373V7.62695H10Z" />
</svg>
