<svg viewBox="0 0 24 24" fill="currentColor" stroke="currentColor" xmlns="http://www.w3.org/2000/svg">
<path d="M21 2.5H3C2.724 2.5 2.5 2.724 2.5 3C2.5 3.276 2.724 3.5 3 3.5H4V13C4 15.29 5.21 16.5 7.5 16.5H11.5V18.7321L8.72299 20.584C8.49299 20.737 8.43102 21.047 8.58401 21.277C8.73701 21.506 9.04601 21.568 9.27701 21.416L12 19.601L14.723 21.416C14.808 21.473 14.905 21.5 15 21.5C15.162 21.5 15.32 21.422 15.417 21.277C15.57 21.047 15.508 20.737 15.278 20.584L12.501 18.7321V16.5H16.501C18.791 16.5 20.001 15.29 20.001 13V3.5H21.001C21.277 3.5 21.501 3.276 21.501 3C21.501 2.724 21.276 2.5 21 2.5ZM19 13C19 14.729 18.229 15.5 16.5 15.5H7.5C5.771 15.5 5 14.729 5 13V3.5H19V13ZM8 12.5V8.5C8 8.224 8.224 8 8.5 8C8.776 8 9 8.224 9 8.5V12.5C9 12.776 8.776 13 8.5 13C8.224 13 8 12.776 8 12.5ZM11.5 12.5V6.5C11.5 6.224 11.724 6 12 6C12.276 6 12.5 6.224 12.5 6.5V12.5C12.5 12.776 12.276 13 12 13C11.724 13 11.5 12.776 11.5 12.5ZM15 12.5V10.5C15 10.224 15.224 10 15.5 10C15.776 10 16 10.224 16 10.5V12.5C16 12.776 15.776 13 15.5 13C15.224 13 15 12.776 15 12.5Z" />
</svg>
