<svg viewBox="0 0 24 24" fill="currentColor" stroke="currentColor" xmlns="http://www.w3.org/2000/svg">
<path d="M21 2.5H3C2.724 2.5 2.5 2.724 2.5 3C2.5 3.276 2.724 3.5 3 3.5H4V13C4 15.29 5.21 16.5 7.5 16.5H11.5V18.7321L8.72301 20.584C8.49301 20.737 8.431 21.047 8.584 21.277C8.737 21.506 9.04599 21.568 9.27699 21.416L12 19.601L14.723 21.416C14.808 21.473 14.905 21.5 15 21.5C15.162 21.5 15.32 21.422 15.417 21.277C15.57 21.047 15.508 20.737 15.278 20.584L12.501 18.7321V16.5H16.501C18.791 16.5 20.001 15.29 20.001 13V3.5H21.001C21.277 3.5 21.501 3.276 21.501 3C21.501 2.724 21.276 2.5 21 2.5ZM19 13C19 14.729 18.229 15.5 16.5 15.5H7.5C5.771 15.5 5 14.729 5 13V3.5H19V13ZM7.646 11.697C7.451 11.502 7.451 11.185 7.646 10.99L9.673 8.96301C10.138 8.49801 10.893 8.49801 11.358 8.96301L12.537 10.142C12.611 10.216 12.733 10.216 12.808 10.142L14.793 8.15698H13.5C13.224 8.15698 13 7.93298 13 7.65698C13 7.38098 13.224 7.15698 13.5 7.15698H16C16.065 7.15698 16.13 7.17004 16.191 7.19604C16.313 7.24705 16.411 7.34404 16.462 7.46704C16.487 7.52804 16.5 7.59296 16.5 7.65796V10.158C16.5 10.434 16.276 10.658 16 10.658C15.724 10.658 15.5 10.434 15.5 10.158V8.86499L13.515 10.85C13.05 11.315 12.295 11.315 11.83 10.85L10.651 9.67102C10.588 9.60802 10.444 9.60802 10.38 9.67102L8.353 11.698C8.255 11.796 8.12699 11.844 7.99899 11.844C7.87099 11.844 7.744 11.794 7.646 11.697Z" />
</svg>
