<svg viewBox="0 0 24 24" fill="currentColor" stroke="currentColor" xmlns="http://www.w3.org/2000/svg">
<path d="M21 2.5H3C2.724 2.5 2.5 2.724 2.5 3C2.5 3.276 2.724 3.5 3 3.5H4V13C4 15.29 5.21 16.5 7.5 16.5H11.5V18.7321L8.72302 20.584C8.49302 20.737 8.43098 21.047 8.58398 21.277C8.73598 21.506 9.04598 21.568 9.27698 21.416L12 19.601L14.723 21.416C14.808 21.473 14.905 21.5 15 21.5C15.162 21.5 15.32 21.422 15.417 21.277C15.57 21.047 15.508 20.737 15.278 20.584L12.501 18.7321V16.5H16.501C18.791 16.5 20.001 15.29 20.001 13V3.5H21.001C21.277 3.5 21.501 3.276 21.501 3C21.501 2.724 21.276 2.5 21 2.5ZM19 13C19 14.729 18.229 15.5 16.5 15.5H7.5C5.771 15.5 5 14.729 5 13V3.5H19V13ZM10.2 11.371C10.311 11.741 10.663 12 11.056 12H12.934C13.332 12 13.677 11.7479 13.79 11.3719C13.898 11.0149 14.032 10.801 14.116 10.726C14.902 10.009 15.272 8.94195 15.107 7.87195C14.901 6.53695 13.812 5.47296 12.459 5.28296C11.543 5.15596 10.621 5.42397 9.93298 6.02197C9.24598 6.61897 8.85199 7.48495 8.85199 8.39795C8.85199 9.28295 9.22399 10.127 9.85999 10.698C9.97699 10.809 10.113 11.08 10.2 11.371ZM10.59 6.776C11.066 6.361 11.681 6.18197 12.321 6.27197C13.226 6.39797 13.982 7.13495 14.119 8.02295C14.233 8.76195 13.98 9.49599 13.444 9.98499C13.152 10.25 12.967 10.668 12.86 11H11.131C11.047 10.744 10.86 10.273 10.543 9.96704C10.105 9.57204 9.85303 8.99995 9.85303 8.39795C9.85403 7.77395 10.122 7.183 10.59 6.776ZM13.5 13.25C13.5 13.526 13.276 13.75 13 13.75H11C10.724 13.75 10.5 13.526 10.5 13.25C10.5 12.974 10.724 12.75 11 12.75H13C13.276 12.75 13.5 12.974 13.5 13.25Z" />
</svg>
