<svg viewBox="0 0 24 24" fill="currentColor" stroke="currentColor" xmlns="http://www.w3.org/2000/svg">
<path d="M21 2.5H3C2.724 2.5 2.5 2.724 2.5 3C2.5 3.276 2.724 3.5 3 3.5H4V13C4 15.29 5.21 16.5 7.5 16.5H11.5V18.7321L8.72302 20.584C8.49402 20.737 8.43098 21.047 8.58398 21.277C8.73698 21.507 9.04898 21.567 9.27698 21.416L12 19.601L14.723 21.416C14.808 21.473 14.905 21.5 15 21.5C15.161 21.5 15.319 21.422 15.416 21.277C15.569 21.047 15.507 20.737 15.277 20.584L12.5 18.7321V16.5H16.5C18.79 16.5 20 15.29 20 13V3.5H21C21.276 3.5 21.5 3.276 21.5 3C21.5 2.724 21.276 2.5 21 2.5ZM19 13C19 14.729 18.229 15.5 16.5 15.5H7.5C5.771 15.5 5 14.729 5 13V3.5H19V13ZM10.163 9.10999C9.89703 8.76899 9.75 8.33299 9.75 7.88599C9.75 6.86199 10.518 6.02501 11.5 5.91101V5.49902C11.5 5.22302 11.724 4.99902 12 4.99902C12.276 4.99902 12.5 5.22302 12.5 5.49902V5.90906C13.404 6.01406 14.135 6.72999 14.238 7.66699C14.268 7.94099 14.07 8.18799 13.796 8.21899C13.522 8.24499 13.275 8.05198 13.244 7.77698C13.188 7.26998 12.771 6.88794 12.275 6.88794H11.724C11.187 6.88794 10.749 7.33599 10.749 7.88599C10.749 8.11099 10.822 8.32902 10.954 8.49902C11.091 8.67802 11.275 8.79998 11.489 8.85498L12.756 9.17505C13.636 9.40205 14.249 10.198 14.249 11.113C14.249 11.644 14.044 12.145 13.671 12.522C13.353 12.847 12.941 13.038 12.499 13.089V13.5C12.499 13.776 12.275 14 11.999 14C11.723 14 11.499 13.776 11.499 13.5V13.09C10.595 12.985 9.86399 12.269 9.76099 11.332C9.73099 11.058 9.929 10.811 10.203 10.78C10.471 10.748 10.724 10.947 10.755 11.222C10.811 11.729 11.228 12.111 11.724 12.111H12.275C12.532 12.111 12.775 12.0079 12.96 11.8199C13.148 11.6299 13.25 11.3791 13.25 11.1121C13.25 10.6541 12.945 10.2549 12.51 10.1429L11.243 9.823C10.814 9.714 10.432 9.46099 10.163 9.10999Z" />
</svg>
