<svg viewBox="0 0 24 24" fill="currentColor" stroke="currentColor" xmlns="http://www.w3.org/2000/svg">
<path d="M21 2.5H3C2.724 2.5 2.5 2.724 2.5 3C2.5 3.276 2.724 3.5 3 3.5H4V13C4 15.29 5.21 16.5 7.5 16.5H11.5V18.7321L8.72301 20.584C8.49301 20.737 8.431 21.047 8.584 21.277C8.736 21.506 9.04599 21.568 9.27699 21.416L12 19.601L14.723 21.416C14.808 21.473 14.905 21.5 15 21.5C15.162 21.5 15.32 21.422 15.417 21.277C15.57 21.047 15.508 20.737 15.278 20.584L12.501 18.7321V16.5H16.501C18.791 16.5 20.001 15.29 20.001 13V3.5H21.001C21.277 3.5 21.501 3.276 21.501 3C21.501 2.724 21.276 2.5 21 2.5ZM19 13C19 14.729 18.229 15.5 16.5 15.5H7.5C5.771 15.5 5 14.729 5 13V3.5H19V13ZM7.646 11.454C7.451 11.259 7.451 10.9419 7.646 10.7469L9.87801 8.51501C10.384 8.00801 11.208 8.00804 11.716 8.51404L12.987 9.78296C13.104 9.89896 13.295 9.89996 13.411 9.78296L15.646 7.54797C15.841 7.35297 16.158 7.35297 16.353 7.54797C16.548 7.74297 16.548 8.06 16.353 8.255L14.118 10.49C13.613 10.995 12.788 10.998 12.281 10.491L11.01 9.22205C10.892 9.10405 10.702 9.10505 10.586 9.22205L8.354 11.454C8.256 11.552 8.128 11.6 8 11.6C7.872 11.6 7.744 11.551 7.646 11.454Z" />
</svg>
