<svg viewBox="0 0 24 24" fill="currentColor" stroke="currentColor" xmlns="http://www.w3.org/2000/svg">
<path d="M21 2.5H3C2.724 2.5 2.5 2.724 2.5 3C2.5 3.276 2.724 3.5 3 3.5H4V13C4 15.29 5.21 16.5 7.5 16.5H11.5V18.7321L8.72302 20.584C8.49302 20.737 8.43098 21.047 8.58398 21.277C8.73698 21.506 9.04598 21.568 9.27698 21.416L12 19.601L14.723 21.416C14.808 21.473 14.905 21.5 15 21.5C15.162 21.5 15.32 21.422 15.417 21.277C15.57 21.047 15.508 20.737 15.278 20.584L12.501 18.7321V16.5H16.501C18.791 16.5 20.001 15.29 20.001 13V3.5H21.001C21.277 3.5 21.501 3.276 21.501 3C21.501 2.724 21.276 2.5 21 2.5ZM19 13C19 14.729 18.229 15.5 16.5 15.5H7.5C5.771 15.5 5 14.729 5 13V3.5H19V13ZM8 14H10.222C10.354 14 10.481 13.948 10.575 13.854L16.092 8.36304C16.355 8.10004 16.5 7.75201 16.501 7.38C16.501 7.008 16.357 6.65897 16.094 6.39697L15.104 5.40698C14.842 5.14498 14.493 5 14.122 5H14.121C13.749 5 13.4 5.14606 13.138 5.40906L7.64697 10.925C7.55397 11.018 7.50098 11.145 7.50098 11.278V13.5C7.49998 13.776 7.724 14 8 14ZM13.845 6.11499C13.918 6.04099 14.016 6 14.12 6C14.224 6 14.321 6.04101 14.395 6.11401L15.385 7.104C15.459 7.178 15.499 7.27503 15.499 7.37903C15.499 7.48303 15.458 7.58105 15.385 7.65405L14.572 8.46301L13.035 6.927L13.845 6.11499ZM8.5 11.484L12.331 7.63599L13.864 9.16895L10.016 13H8.5V11.484Z" />
</svg>
