<svg viewBox="0 0 24 24" fill="currentColor" stroke="currentColor" xmlns="http://www.w3.org/2000/svg">
<path d="M21 2.5H3C2.724 2.5 2.5 2.724 2.5 3C2.5 3.276 2.724 3.5 3 3.5H4V13C4 15.29 5.21 16.5 7.5 16.5H11.5V18.7321L8.72302 20.584C8.49302 20.737 8.43098 21.047 8.58398 21.277C8.73598 21.506 9.04598 21.568 9.27698 21.416L12 19.601L14.723 21.416C14.808 21.473 14.905 21.5 15 21.5C15.162 21.5 15.32 21.422 15.417 21.277C15.57 21.047 15.508 20.737 15.278 20.584L12.501 18.7321V16.5H16.501C18.791 16.5 20.001 15.29 20.001 13V3.5H21.001C21.277 3.5 21.501 3.276 21.501 3C21.501 2.724 21.276 2.5 21 2.5ZM19 13C19 14.729 18.229 15.5 16.5 15.5H7.5C5.771 15.5 5 14.729 5 13V3.5H19V13ZM7.5 8C7.5 7.724 7.724 7.5 8 7.5H16C16.276 7.5 16.5 7.724 16.5 8C16.5 8.276 16.276 8.5 16 8.5H8C7.724 8.5 7.5 8.276 7.5 8ZM7.5 11C7.5 10.724 7.724 10.5 8 10.5H12C12.276 10.5 12.5 10.724 12.5 11C12.5 11.276 12.276 11.5 12 11.5H8C7.724 11.5 7.5 11.276 7.5 11Z" />
</svg>
