<svg viewBox="0 0 24 24" fill="currentColor" stroke="currentColor" xmlns="http://www.w3.org/2000/svg">
<path d="M21 2.5H3C2.724 2.5 2.5 2.724 2.5 3C2.5 3.276 2.724 3.5 3 3.5H4V13C4 15.29 5.21 16.5 7.5 16.5H11.5V18.7321L8.72299 20.584C8.49299 20.737 8.43102 21.047 8.58401 21.277C8.73701 21.506 9.04701 21.568 9.27701 21.416L12 19.601L14.723 21.416C14.808 21.473 14.905 21.5 15 21.5C15.162 21.5 15.32 21.422 15.417 21.277C15.57 21.047 15.508 20.737 15.278 20.584L12.501 18.7321V16.5H16.501C18.791 16.5 20.001 15.29 20.001 13V3.5H21.001C21.277 3.5 21.501 3.276 21.501 3C21.501 2.724 21.276 2.5 21 2.5ZM19 13C19 14.729 18.229 15.5 16.5 15.5H7.5C5.771 15.5 5 14.729 5 13V3.5H19V13ZM8 9.68994C8 8.38794 8.64699 7.19906 9.73099 6.50806C9.96299 6.36006 10.273 6.42801 10.421 6.66101C10.569 6.89401 10.501 7.20295 10.268 7.35095C9.47401 7.85695 8.99899 8.73096 8.99899 9.68896C8.99899 11.238 10.255 12.499 11.799 12.499C12.749 12.499 13.624 12.0231 14.14 11.2271C14.29 10.9961 14.6 10.929 14.831 11.08C15.062 11.23 15.129 11.539 14.978 11.771C14.277 12.853 13.088 13.499 11.798 13.499C9.705 13.5 8 11.7909 8 9.68994ZM12.643 9.94104H14.917C15.243 9.94104 15.548 9.79595 15.754 9.54395C15.962 9.29095 16.043 8.96101 15.978 8.64001C15.658 7.06601 14.435 5.842 12.862 5.521C12.543 5.458 12.214 5.538 11.961 5.745C11.708 5.952 11.562 6.25896 11.562 6.58496V8.85706C11.562 9.45606 12.047 9.94104 12.643 9.94104ZM12.594 6.52002C12.606 6.51102 12.623 6.5 12.647 6.5C12.652 6.5 12.658 6.49995 12.664 6.50195C13.842 6.74195 14.759 7.65997 14.999 8.83997L15.489 8.73999L14.918 8.94104H12.644C12.599 8.94104 12.563 8.90403 12.563 8.85803L12.594 6.52002Z" />
</svg>
