<svg viewBox="0 0 24 24" fill="currentColor" stroke="currentColor" xmlns="http://www.w3.org/2000/svg">
<path d="M21 2.5H3C2.724 2.5 2.5 2.724 2.5 3C2.5 3.276 2.724 3.5 3 3.5H4V13C4 15.29 5.21 16.5 7.5 16.5H11.5V18.7321L8.72302 20.584C8.49302 20.737 8.43098 21.047 8.58398 21.277C8.73598 21.506 9.04698 21.568 9.27698 21.416L12 19.601L14.723 21.416C14.808 21.473 14.905 21.5 15 21.5C15.162 21.5 15.32 21.422 15.417 21.277C15.57 21.047 15.508 20.737 15.278 20.584L12.501 18.7321V16.5H16.501C18.791 16.5 20.001 15.29 20.001 13V3.5H21.001C21.277 3.5 21.501 3.276 21.501 3C21.501 2.724 21.276 2.5 21 2.5ZM19 13C19 14.729 18.229 15.5 16.5 15.5H7.5C5.771 15.5 5 14.729 5 13V3.5H19V13ZM12.006 9.30005C13.192 9.30005 14.156 8.33602 14.156 7.15002C14.156 5.96402 13.192 5 12.006 5C10.82 5 9.85602 5.96402 9.85602 7.15002C9.85602 8.33602 10.821 9.30005 12.006 9.30005ZM12.006 6C12.64 6 13.156 6.51602 13.156 7.15002C13.156 7.78402 12.64 8.30005 12.006 8.30005C11.372 8.30005 10.856 7.78402 10.856 7.15002C10.856 6.51602 11.372 6 12.006 6ZM8.5 13.5V13.197C8.5 11.857 9.48097 10.5 11.358 10.5H12.642C14.518 10.5 15.5 11.856 15.5 13.197V13.5C15.5 13.776 15.276 14 15 14C14.724 14 14.5 13.776 14.5 13.5V13.197C14.5 12.38 13.918 11.5 12.642 11.5H11.358C10.082 11.5 9.5 12.379 9.5 13.197V13.5C9.5 13.776 9.276 14 9 14C8.724 14 8.5 13.776 8.5 13.5Z" />
</svg>
