<svg viewBox="0 0 24 24" fill="currentColor" stroke="currentColor" xmlns="http://www.w3.org/2000/svg">
<path d="M21 2.5H3C2.724 2.5 2.5 2.724 2.5 3C2.5 3.276 2.724 3.5 3 3.5H4V13C4 15.29 5.21 16.5 7.5 16.5H11.5V18.7321L8.72299 20.584C8.49299 20.737 8.43102 21.047 8.58401 21.277C8.73601 21.506 9.04601 21.568 9.27701 21.416L12 19.601L14.723 21.416C14.808 21.473 14.905 21.5 15 21.5C15.162 21.5 15.32 21.422 15.417 21.277C15.57 21.047 15.508 20.737 15.278 20.584L12.501 18.7321V16.5H16.501C18.791 16.5 20.001 15.29 20.001 13V3.5H21.001C21.277 3.5 21.501 3.276 21.501 3C21.501 2.724 21.276 2.5 21 2.5ZM19 13C19 14.729 18.229 15.5 16.5 15.5H7.5C5.771 15.5 5 14.729 5 13V3.5H19V13ZM7.646 8.01001C7.451 7.81501 7.451 7.49798 7.646 7.30298C7.841 7.10798 8.158 7.10798 8.353 7.30298L10.38 9.32996C10.443 9.39296 10.587 9.39296 10.651 9.32996L11.83 8.151C12.295 7.686 13.05 7.686 13.515 8.151L15.5 10.136V8.84302C15.5 8.56702 15.724 8.34302 16 8.34302C16.276 8.34302 16.5 8.56702 16.5 8.84302V11.343C16.5 11.408 16.487 11.4731 16.462 11.5341C16.411 11.6571 16.314 11.7541 16.191 11.8051C16.13 11.8301 16.065 11.844 16 11.844H13.5C13.224 11.844 13 11.62 13 11.344C13 11.068 13.224 10.844 13.5 10.844H14.793L12.808 8.85901C12.734 8.78501 12.612 8.78501 12.537 8.85901L11.358 10.038C10.893 10.503 10.138 10.503 9.673 10.038L7.646 8.01001Z" />
</svg>
