<svg viewBox="0 0 24 24" fill="currentColor" stroke="currentColor" xmlns="http://www.w3.org/2000/svg">
<path d="M19.5 15.5H16.5C16.112 15.5 15.782 15.576 15.5 15.706V12.5C15.5 11.229 14.771 10.5 13.5 10.5H10.5C9.229 10.5 8.5 11.229 8.5 12.5V13.706C8.218 13.576 7.888 13.5 7.5 13.5H4.5C3.229 13.5 2.5 14.229 2.5 15.5V21C2.5 21.276 2.724 21.5 3 21.5H9H15H21C21.276 21.5 21.5 21.276 21.5 21V17.5C21.5 16.229 20.771 15.5 19.5 15.5ZM3.5 15.5C3.5 14.78 3.78 14.5 4.5 14.5H7.5C8.22 14.5 8.5 14.78 8.5 15.5V20.5H3.5V15.5ZM9.5 15.5V12.5C9.5 11.78 9.78 11.5 10.5 11.5H13.5C14.22 11.5 14.5 11.78 14.5 12.5V17.5V20.5H9.5V15.5ZM20.5 20.5H15.5V17.5C15.5 16.78 15.78 16.5 16.5 16.5H19.5C20.22 16.5 20.5 16.78 20.5 17.5V20.5ZM9.77 6.816L9.539 8.16292C9.483 8.48592 9.61301 8.80696 9.87801 8.99996C10.143 9.19296 10.489 9.21998 10.782 9.06698L12 8.42892L13.219 9.06698C13.345 9.13298 13.482 9.16598 13.618 9.16598C13.795 9.16598 13.971 9.10994 14.121 9.00094C14.387 8.80794 14.517 8.4869 14.461 8.1639L14.229 6.816L15.246 5.82992C15.475 5.60692 15.557 5.27991 15.458 4.97591C15.359 4.67191 15.101 4.45402 14.785 4.40902L13.376 4.20492L12.768 2.97701C12.476 2.38901 11.522 2.38901 11.23 2.97701L10.622 4.20492L9.214 4.40902C8.897 4.45402 8.63899 4.67191 8.53999 4.97591C8.44099 5.27991 8.523 5.60692 8.752 5.82992L9.77 6.816ZM10.851 5.18197C11.122 5.14297 11.358 4.97301 11.48 4.72701L12 3.67794L12.52 4.72799C12.642 4.97399 12.877 5.14397 13.148 5.18197L14.306 5.34994L13.47 6.16097C13.272 6.35297 13.181 6.62998 13.229 6.89998L13.427 8.04891L12.386 7.50399C12.265 7.44099 12.132 7.40902 11.999 7.40902C11.866 7.40902 11.733 7.44099 11.612 7.50399L10.572 8.04793L10.769 6.90194C10.817 6.62994 10.727 6.35297 10.529 6.16097L9.69299 5.34994L10.851 5.18197Z" />
</svg>
