<svg viewBox="0 0 24 24" fill="currentColor" stroke="currentColor" xmlns="http://www.w3.org/2000/svg">
<path d="M16.354 17.646C16.549 17.841 16.549 18.158 16.354 18.353C16.256 18.451 16.128 18.499 16 18.499C15.872 18.499 15.744 18.45 15.646 18.353L12 14.707L8.35401 18.353C8.15901 18.548 7.84198 18.548 7.64698 18.353C7.45198 18.158 7.45198 17.841 7.64698 17.646L11.647 13.646C11.842 13.451 12.159 13.451 12.354 13.646L16.354 17.646ZM11.646 10.354C11.744 10.452 11.872 10.5 12 10.5C12.128 10.5 12.256 10.451 12.354 10.354L16.354 6.35401C16.549 6.15901 16.549 5.84198 16.354 5.64698C16.159 5.45198 15.842 5.45198 15.647 5.64698L12.001 9.29298L8.35499 5.64698C8.15999 5.45198 7.84296 5.45198 7.64796 5.64698C7.45296 5.84198 7.45296 6.15901 7.64796 6.35401L11.646 10.354Z" />
</svg>
