<svg viewBox="0 0 24 24" fill="currentColor" stroke="currentColor" xmlns="http://www.w3.org/2000/svg">
<path d="M17.625 2.5H6.375C3.84 2.5 2.5 3.84 2.5 6.375V17.625C2.5 20.16 3.84 21.5 6.375 21.5H17.625C20.16 21.5 21.5 20.16 21.5 17.625V6.375C21.5 3.84 20.16 2.5 17.625 2.5ZM20.5 17.625C20.5 19.586 19.587 20.5 17.625 20.5H6.375C4.413 20.5 3.5 19.586 3.5 17.625V6.375C3.5 4.414 4.413 3.5 6.375 3.5H17.625C19.587 3.5 20.5 4.414 20.5 6.375V17.625ZM13.354 9.354L10.708 12L13.354 14.646C13.549 14.841 13.549 15.158 13.354 15.353C13.256 15.451 13.128 15.499 13 15.499C12.872 15.499 12.744 15.45 12.646 15.353L9.646 12.353C9.451 12.158 9.451 11.841 9.646 11.646L12.646 8.646C12.841 8.451 13.158 8.451 13.353 8.646C13.548 8.841 13.549 9.158 13.354 9.354Z" />
</svg>
