<svg viewBox="0 0 24 24" fill="currentColor" stroke="currentColor" xmlns="http://www.w3.org/2000/svg">
<path d="M17.625 2.5H6.375C3.84 2.5 2.5 3.84 2.5 6.375V17.625C2.5 20.16 3.84 21.5 6.375 21.5H17.625C20.16 21.5 21.5 20.16 21.5 17.625V6.375C21.5 3.84 20.16 2.5 17.625 2.5ZM20.5 17.625C20.5 19.586 19.587 20.5 17.625 20.5H6.375C4.413 20.5 3.5 19.586 3.5 17.625V6.375C3.5 4.414 4.413 3.5 6.375 3.5H17.625C19.587 3.5 20.5 4.414 20.5 6.375V17.625ZM14.354 11.646C14.549 11.841 14.549 12.158 14.354 12.353L11.354 15.353C11.256 15.451 11.128 15.499 11 15.499C10.872 15.499 10.744 15.45 10.646 15.353C10.451 15.158 10.451 14.841 10.646 14.646L13.292 12L10.646 9.354C10.451 9.159 10.451 8.84197 10.646 8.64697C10.841 8.45197 11.158 8.45197 11.353 8.64697L14.354 11.646Z" />
</svg>
