<svg viewBox="0 0 24 24" fill="currentColor" stroke="currentColor" xmlns="http://www.w3.org/2000/svg">
<path d="M16.354 12.646C16.549 12.841 16.549 13.158 16.354 13.353L12.354 17.353C12.256 17.451 12.128 17.499 12 17.499C11.872 17.499 11.744 17.45 11.646 17.353L7.64601 13.353C7.45101 13.158 7.45101 12.841 7.64601 12.646C7.84101 12.451 8.15804 12.451 8.35304 12.646L11.999 16.292L15.645 12.646C15.842 12.451 16.158 12.451 16.354 12.646ZM11.646 11.354C11.744 11.452 11.872 11.5 12 11.5C12.128 11.5 12.256 11.451 12.354 11.354L16.354 7.35401C16.549 7.15901 16.549 6.84198 16.354 6.64698C16.159 6.45198 15.842 6.45198 15.647 6.64698L12.001 10.293L8.35499 6.64698C8.15999 6.45198 7.84296 6.45198 7.64796 6.64698C7.45296 6.84198 7.45296 7.15901 7.64796 7.35401L11.646 11.354Z" />
</svg>
