<svg viewBox="0 0 24 24" fill="currentColor" stroke="currentColor" xmlns="http://www.w3.org/2000/svg">
<path d="M17.625 2.5H6.375C3.84 2.5 2.5 3.84 2.5 6.375V17.625C2.5 20.16 3.84 21.5 6.375 21.5H17.625C20.16 21.5 21.5 20.16 21.5 17.625V6.375C21.5 3.84 20.16 2.5 17.625 2.5ZM20.5 17.625C20.5 19.586 19.587 20.5 17.625 20.5H6.375C4.413 20.5 3.5 19.586 3.5 17.625V6.375C3.5 4.414 4.413 3.5 6.375 3.5H17.625C19.587 3.5 20.5 4.414 20.5 6.375V17.625ZM15.354 10.646C15.549 10.841 15.549 11.158 15.354 11.353L12.354 14.353C12.256 14.451 12.128 14.499 12 14.499C11.872 14.499 11.744 14.45 11.646 14.353L8.646 11.353C8.451 11.158 8.451 10.841 8.646 10.646C8.841 10.451 9.15803 10.451 9.35303 10.646L11.999 13.292L14.645 10.646C14.842 10.451 15.158 10.451 15.354 10.646Z" />
</svg>
