<svg viewBox="0 0 24 24" fill="currentColor" stroke="currentColor" xmlns="http://www.w3.org/2000/svg">
<path d="M19.354 11.646C19.549 11.841 19.549 12.158 19.354 12.353L12.354 19.353C12.256 19.451 12.128 19.499 12 19.499C11.872 19.499 11.744 19.45 11.646 19.353L4.64601 12.353C4.45101 12.158 4.45101 11.841 4.64601 11.646C4.84101 11.451 5.15804 11.451 5.35304 11.646L11.999 18.292L18.645 11.646C18.842 11.451 19.158 11.451 19.354 11.646ZM11.646 12.354C11.744 12.452 11.872 12.5 12 12.5C12.128 12.5 12.256 12.451 12.354 12.354L19.354 5.35401C19.549 5.15901 19.549 4.84198 19.354 4.64698C19.159 4.45198 18.842 4.45198 18.647 4.64698L12.001 11.293L5.35499 4.64698C5.15999 4.45198 4.84296 4.45198 4.64796 4.64698C4.45296 4.84198 4.45296 5.15901 4.64796 5.35401L11.646 12.354Z" />
</svg>
