<svg viewBox="0 0 24 24" fill="currentColor" stroke="currentColor" xmlns="http://www.w3.org/2000/svg">
<path d="M19.354 12.354L12.354 19.354C12.256 19.452 12.128 19.5 12 19.5C11.872 19.5 11.744 19.451 11.646 19.354C11.451 19.159 11.451 18.842 11.646 18.647L18.292 12.001L11.646 5.35499C11.451 5.15999 11.451 4.84296 11.646 4.64796C11.841 4.45296 12.158 4.45296 12.353 4.64796L19.353 11.648C19.549 11.842 19.549 12.158 19.354 12.354ZM12.354 11.646L5.35401 4.64601C5.15901 4.45101 4.84198 4.45101 4.64698 4.64601C4.45198 4.84101 4.45198 5.15804 4.64698 5.35304L11.293 11.999L4.64698 18.645C4.45198 18.84 4.45198 19.1571 4.64698 19.3521C4.74498 19.4501 4.87299 19.4981 5.00099 19.4981C5.12899 19.4981 5.25699 19.4491 5.35499 19.3521L12.355 12.3521C12.549 12.1581 12.549 11.842 12.354 11.646Z" />
</svg>
