<svg viewBox="0 0 24 24" fill="currentColor" stroke="currentColor" xmlns="http://www.w3.org/2000/svg">
<path d="M7.64601 11.354C7.45101 11.159 7.45101 10.842 7.64601 10.647L11.646 6.64698C11.841 6.45198 12.158 6.45198 12.353 6.64698L16.353 10.647C16.548 10.842 16.548 11.159 16.353 11.354C16.255 11.452 16.127 11.5 15.999 11.5C15.871 11.5 15.743 11.451 15.645 11.354L11.999 7.70802L8.35304 11.354C8.15804 11.549 7.84201 11.549 7.64601 11.354ZM12.354 12.646C12.159 12.451 11.842 12.451 11.647 12.646L7.64698 16.646C7.45198 16.841 7.45198 17.158 7.64698 17.353C7.84198 17.548 8.15901 17.548 8.35401 17.353L12 13.707L15.646 17.353C15.744 17.451 15.872 17.499 16 17.499C16.128 17.499 16.256 17.45 16.354 17.353C16.549 17.158 16.549 16.841 16.354 16.646L12.354 12.646Z" />
</svg>
