<svg viewBox="0 0 24 24" fill="currentColor" stroke="currentColor" xmlns="http://www.w3.org/2000/svg">
<path d="M13.354 9.354L10.708 12L13.354 14.646C13.549 14.841 13.549 15.158 13.354 15.353C13.256 15.451 13.128 15.499 13 15.499C12.872 15.499 12.744 15.45 12.646 15.353L9.646 12.353C9.451 12.158 9.451 11.841 9.646 11.646L12.646 8.646C12.841 8.451 13.158 8.451 13.353 8.646C13.548 8.841 13.549 9.158 13.354 9.354ZM22.5 12C22.5 17.79 17.79 22.5 12 22.5C6.21 22.5 1.5 17.79 1.5 12C1.5 6.21 6.21 1.5 12 1.5C17.79 1.5 22.5 6.21 22.5 12ZM21.5 12C21.5 6.762 17.238 2.5 12 2.5C6.762 2.5 2.5 6.762 2.5 12C2.5 17.238 6.762 21.5 12 21.5C17.238 21.5 21.5 17.238 21.5 12Z" />
</svg>
