<svg viewBox="0 0 24 24" fill="currentColor" stroke="currentColor" xmlns="http://www.w3.org/2000/svg">
<path d="M12.354 18.646C12.549 18.841 12.549 19.158 12.354 19.353C12.256 19.451 12.128 19.499 12 19.499C11.872 19.499 11.744 19.45 11.646 19.353L4.64601 12.353C4.45101 12.158 4.45101 11.841 4.64601 11.646L11.646 4.64601C11.841 4.45101 12.158 4.45101 12.353 4.64601C12.548 4.84101 12.548 5.15804 12.353 5.35304L5.70704 11.999L12.354 18.646ZM12.707 12L19.353 5.35401C19.548 5.15901 19.548 4.84198 19.353 4.64698C19.158 4.45198 18.841 4.45198 18.646 4.64698L11.646 11.647C11.451 11.842 11.451 12.159 11.646 12.354L18.646 19.354C18.744 19.452 18.872 19.5 19 19.5C19.128 19.5 19.256 19.451 19.354 19.354C19.549 19.159 19.549 18.842 19.354 18.647L12.707 12Z" />
</svg>
