<svg viewBox="0 0 24 24" fill="currentColor" stroke="currentColor" xmlns="http://www.w3.org/2000/svg">
<path d="M4.64601 12.354C4.45101 12.159 4.45101 11.842 4.64601 11.647L11.646 4.64698C11.841 4.45198 12.158 4.45198 12.353 4.64698L19.353 11.647C19.548 11.842 19.548 12.159 19.353 12.354C19.255 12.452 19.127 12.5 18.999 12.5C18.871 12.5 18.743 12.451 18.645 12.354L11.999 5.70802L5.35304 12.354C5.15804 12.549 4.84201 12.549 4.64601 12.354ZM12.354 11.646C12.159 11.451 11.842 11.451 11.647 11.646L4.64698 18.646C4.45198 18.841 4.45198 19.158 4.64698 19.353C4.84198 19.548 5.15901 19.548 5.35401 19.353L12 12.707L18.646 19.353C18.744 19.451 18.872 19.499 19 19.499C19.128 19.499 19.256 19.45 19.354 19.353C19.549 19.158 19.549 18.841 19.354 18.646L12.354 11.646Z" />
</svg>
