<svg viewBox="0 0 24 24" fill="currentColor" stroke="currentColor" xmlns="http://www.w3.org/2000/svg">
<path d="M10.354 11.646C10.549 11.841 10.549 12.158 10.354 12.353L6.35401 16.353C6.25601 16.451 6.12801 16.499 6.00001 16.499C5.87201 16.499 5.74401 16.45 5.64601 16.353C5.45101 16.158 5.45101 15.841 5.64601 15.646L9.292 12L5.64601 8.35401C5.45101 8.15901 5.45101 7.84198 5.64601 7.64698C5.84101 7.45198 6.15804 7.45198 6.35304 7.64698L10.354 11.646ZM14.707 12L18.353 8.35401C18.548 8.15901 18.548 7.84198 18.353 7.64698C18.158 7.45198 17.841 7.45198 17.646 7.64698L13.646 11.647C13.451 11.842 13.451 12.159 13.646 12.354L17.646 16.354C17.744 16.452 17.872 16.5 18 16.5C18.128 16.5 18.256 16.451 18.354 16.354C18.549 16.159 18.549 15.842 18.354 15.647L14.707 12Z" />
</svg>
