<svg viewBox="0 0 24 24" fill="currentColor" stroke="currentColor" xmlns="http://www.w3.org/2000/svg">
<path d="M17.625 2.5H6.375C3.84 2.5 2.5 3.84 2.5 6.375V17.625C2.5 20.16 3.84 21.5 6.375 21.5H17.625C20.16 21.5 21.5 20.16 21.5 17.625V6.375C21.5 3.84 20.16 2.5 17.625 2.5ZM20.5 17.625C20.5 19.586 19.587 20.5 17.625 20.5H6.375C4.413 20.5 3.5 19.586 3.5 17.625V6.375C3.5 4.414 4.413 3.5 6.375 3.5H17.625C19.587 3.5 20.5 4.414 20.5 6.375V17.625ZM15.354 12.646C15.549 12.841 15.549 13.158 15.354 13.353C15.256 13.451 15.128 13.499 15 13.499C14.872 13.499 14.744 13.45 14.646 13.353L12 10.707L9.354 13.353C9.159 13.548 8.84197 13.548 8.64697 13.353C8.45197 13.158 8.45197 12.841 8.64697 12.646L11.647 9.646C11.842 9.451 12.159 9.451 12.354 9.646L15.354 12.646Z" />
</svg>
