<svg viewBox="0 0 24 24" fill="currentColor" stroke="currentColor" xmlns="http://www.w3.org/2000/svg">
<path d="M11.354 8.35401L7.70802 12L11.354 15.646C11.549 15.841 11.549 16.158 11.354 16.353C11.256 16.451 11.128 16.499 11 16.499C10.872 16.499 10.744 16.45 10.646 16.353L6.64601 12.353C6.45101 12.158 6.45101 11.841 6.64601 11.646L10.646 7.64601C10.841 7.45101 11.158 7.45101 11.353 7.64601C11.548 7.84101 11.549 8.15801 11.354 8.35401ZM13.707 12L17.353 8.35401C17.548 8.15901 17.548 7.84198 17.353 7.64698C17.158 7.45198 16.841 7.45198 16.646 7.64698L12.646 11.647C12.451 11.842 12.451 12.159 12.646 12.354L16.646 16.354C16.744 16.452 16.872 16.5 17 16.5C17.128 16.5 17.256 16.451 17.354 16.354C17.549 16.159 17.549 15.842 17.354 15.647L13.707 12Z" />
</svg>
