<svg viewBox="0 0 24 24" fill="currentColor" stroke="currentColor" xmlns="http://www.w3.org/2000/svg">
<path d="M17.354 12.354L13.354 16.354C13.256 16.452 13.128 16.5 13 16.5C12.872 16.5 12.744 16.451 12.646 16.354C12.451 16.159 12.451 15.842 12.646 15.647L16.292 12.001L12.646 8.35499C12.451 8.15999 12.451 7.84296 12.646 7.64796C12.841 7.45296 13.158 7.45296 13.353 7.64796L17.353 11.648C17.549 11.842 17.549 12.158 17.354 12.354ZM7.35401 7.64601C7.15901 7.45101 6.84198 7.45101 6.64698 7.64601C6.45198 7.84101 6.45198 8.15804 6.64698 8.35304L10.293 11.999L6.64698 15.645C6.45198 15.84 6.45198 16.1571 6.64698 16.3521C6.74498 16.4501 6.87299 16.4981 7.00099 16.4981C7.12899 16.4981 7.25699 16.4491 7.35499 16.3521L11.355 12.3521C11.55 12.1571 11.55 11.84 11.355 11.645L7.35401 7.64601Z" />
</svg>
