<svg viewBox="0 0 24 24" fill="currentColor" stroke="currentColor" xmlns="http://www.w3.org/2000/svg">
<path d="M17.625 2.5H6.375C3.84 2.5 2.5 3.84 2.5 6.375V17.625C2.5 20.16 3.84 21.5 6.375 21.5H17.625C20.16 21.5 21.5 20.16 21.5 17.625V6.375C21.5 3.84 20.16 2.5 17.625 2.5ZM20.5 17.625C20.5 19.586 19.587 20.5 17.625 20.5H6.375C4.413 20.5 3.5 19.586 3.5 17.625V6.375C3.5 4.414 4.413 3.5 6.375 3.5H17.625C19.587 3.5 20.5 4.414 20.5 6.375V17.625ZM15.5 11V15C15.5 15.065 15.4869 15.1299 15.4609 15.1909C15.4099 15.3139 15.3129 15.4109 15.1899 15.4619C15.1289 15.4869 15.064 15.501 14.999 15.501H10.999C10.723 15.501 10.499 15.277 10.499 15.001C10.499 14.725 10.723 14.501 10.999 14.501H13.792L8.646 9.35498C8.451 9.15998 8.451 8.84295 8.646 8.64795C8.841 8.45295 9.15803 8.45295 9.35303 8.64795L14.499 13.7939V11C14.499 10.724 14.723 10.5 14.999 10.5C15.275 10.5 15.5 10.724 15.5 11Z" />
</svg>
