<svg viewBox="0 0 24 24" fill="currentColor" stroke="currentColor" xmlns="http://www.w3.org/2000/svg">
<path d="M17.5 6V12C17.5 12.276 17.276 12.5 17 12.5C16.724 12.5 16.5 12.276 16.5 12V7.20703L6.35401 17.353C6.25601 17.451 6.12801 17.499 6.00001 17.499C5.87201 17.499 5.74401 17.45 5.64601 17.353C5.45101 17.158 5.45101 16.841 5.64601 16.646L15.792 6.5H11C10.724 6.5 10.5 6.276 10.5 6C10.5 5.724 10.724 5.5 11 5.5H17C17.065 5.5 17.1299 5.51306 17.1909 5.53906C17.3139 5.59006 17.4109 5.68706 17.4619 5.81006C17.4869 5.87006 17.5 5.935 17.5 6Z" />
</svg>
