<svg viewBox="0 0 24 24" fill="currentColor" stroke="currentColor" xmlns="http://www.w3.org/2000/svg">
<path d="M21.4999 13V18C21.4999 18.276 21.2759 18.5 20.9999 18.5C20.7239 18.5 20.4999 18.276 20.4999 18V13C20.4999 11.622 19.3789 10.5 17.9999 10.5H4.20695L7.35295 13.646C7.54795 13.841 7.54795 14.158 7.35295 14.353C7.25495 14.451 7.12694 14.499 6.99894 14.499C6.87094 14.499 6.74294 14.45 6.64494 14.353L2.64494 10.353C2.59894 10.307 2.56203 10.251 2.53703 10.19C2.48603 10.068 2.48603 9.93012 2.53703 9.80812C2.56203 9.74612 2.59894 9.69103 2.64494 9.64503L6.64494 5.64503C6.83994 5.45003 7.15697 5.45003 7.35197 5.64503C7.54697 5.84003 7.54697 6.15706 7.35197 6.35206L4.20597 9.49806H17.9999C19.9299 9.50006 21.4999 11.07 21.4999 13Z" />
</svg>
