<svg viewBox="0 0 24 24" fill="currentColor" stroke="currentColor" xmlns="http://www.w3.org/2000/svg">
<path d="M22.353 14.354L18.353 18.354C18.255 18.452 18.127 18.5 17.999 18.5C17.871 18.5 17.743 18.451 17.645 18.354C17.45 18.159 17.45 17.842 17.645 17.647L20.791 14.501H7C5.07 14.501 3.5 12.931 3.5 11.001V6.00098C3.5 5.72498 3.724 5.50098 4 5.50098C4.276 5.50098 4.5 5.72498 4.5 6.00098V11.001C4.5 12.379 5.621 13.501 7 13.501H20.793L17.647 10.355C17.452 10.16 17.452 9.84295 17.647 9.64795C17.842 9.45295 18.159 9.45295 18.354 9.64795L22.354 13.6479C22.4 13.6939 22.4369 13.75 22.4619 13.811C22.5129 13.933 22.5129 14.0711 22.4619 14.1931C22.4359 14.2521 22.399 14.308 22.353 14.354Z" />
</svg>
