<svg viewBox="0 0 24 24" fill="currentColor" stroke="currentColor" xmlns="http://www.w3.org/2000/svg">
<path d="M18.5 3C18.5 3.276 18.276 3.5 18 3.5H13C11.621 3.5 10.5 4.622 10.5 6V19.793L13.646 16.647C13.841 16.452 14.158 16.452 14.353 16.647C14.548 16.842 14.548 17.159 14.353 17.354L10.353 21.354C10.307 21.4 10.251 21.4369 10.19 21.4619C10.129 21.4869 10.064 21.501 9.99903 21.501C9.93403 21.501 9.86911 21.4879 9.80812 21.4619C9.74612 21.4369 9.69103 21.4 9.64503 21.354L5.64503 17.354C5.45003 17.159 5.45003 16.842 5.64503 16.647C5.84003 16.452 6.15706 16.452 6.35206 16.647L9.49806 19.793V6C9.49806 4.07 11.0681 2.5 12.9981 2.5H17.9981C18.2761 2.5 18.5 2.724 18.5 3Z" />
</svg>
