<svg viewBox="0 0 24 24" fill="currentColor" stroke="currentColor" xmlns="http://www.w3.org/2000/svg">
<path d="M16.9861 13.135C17.0491 13.404 16.883 13.6731 16.615 13.7371C16.576 13.7461 16.538 13.751 16.5 13.751C16.273 13.751 16.0669 13.596 16.0139 13.366C15.5789 11.532 13.954 10.251 12.061 10.251C10.611 10.251 9.29007 11.034 8.57007 12.251H9.75098C10.027 12.251 10.251 12.475 10.251 12.751C10.251 13.027 10.027 13.251 9.75098 13.251H7.50098C7.22498 13.251 7.00098 13.027 7.00098 12.751V10.5029C7.00098 10.2269 7.22498 10.0029 7.50098 10.0029C7.77698 10.0029 8.00098 10.2269 8.00098 10.5029V11.302C8.93898 10.04 10.435 9.25 12.062 9.25C14.42 9.25 16.4451 10.848 16.9861 13.135ZM22.5 12C22.5 17.79 17.79 22.5 12 22.5C6.21 22.5 1.5 17.79 1.5 12C1.5 6.21 6.21 1.5 12 1.5C17.79 1.5 22.5 6.21 22.5 12ZM21.5 12C21.5 6.762 17.238 2.5 12 2.5C6.762 2.5 2.5 6.762 2.5 12C2.5 17.238 6.762 21.5 12 21.5C17.238 21.5 21.5 17.238 21.5 12Z" />
</svg>
