<svg viewBox="0 0 24 24" fill="currentColor" stroke="currentColor" xmlns="http://www.w3.org/2000/svg">
<path d="M21.5 12C21.5 12.276 21.276 12.5 21 12.5H8.20703L12.353 16.646C12.548 16.841 12.548 17.158 12.353 17.353C12.255 17.451 12.127 17.499 11.999 17.499C11.871 17.499 11.743 17.45 11.645 17.353L6.64502 12.353C6.59902 12.307 6.56211 12.2509 6.53711 12.1899C6.48611 12.0679 6.48611 11.9301 6.53711 11.8081C6.56211 11.7461 6.59902 11.691 6.64502 11.645L11.645 6.64502C11.84 6.45002 12.1571 6.45002 12.3521 6.64502C12.5471 6.84002 12.5471 7.15705 12.3521 7.35205L8.20605 11.498H21C21.276 11.5 21.5 11.724 21.5 12ZM3 5.5C2.724 5.5 2.5 5.724 2.5 6V18C2.5 18.276 2.724 18.5 3 18.5C3.276 18.5 3.5 18.276 3.5 18V6C3.5 5.724 3.276 5.5 3 5.5Z" />
</svg>
