<svg viewBox="0 0 24 24" fill="currentColor" stroke="currentColor" xmlns="http://www.w3.org/2000/svg">
<path d="M21.353 10.354L17.353 14.354C17.255 14.452 17.127 14.5 16.999 14.5C16.871 14.5 16.743 14.451 16.645 14.354C16.45 14.159 16.45 13.842 16.645 13.647L19.791 10.501H6C4.621 10.501 3.5 11.623 3.5 13.001V18.001C3.5 18.277 3.276 18.501 3 18.501C2.724 18.501 2.5 18.277 2.5 18.001V13.001C2.5 11.071 4.07 9.50099 6 9.50099H19.793L16.647 6.35499C16.452 6.15999 16.452 5.84296 16.647 5.64796C16.842 5.45296 17.159 5.45296 17.354 5.64796L21.354 9.64796C21.4 9.69396 21.4369 9.75004 21.4619 9.81104C21.5129 9.93304 21.5129 10.0711 21.4619 10.1931C21.4359 10.2521 21.399 10.308 21.353 10.354Z" />
</svg>
