<svg viewBox="0 0 24 24" fill="currentColor" stroke="currentColor" xmlns="http://www.w3.org/2000/svg">
<path d="M20.5 4V9C20.5 9.276 20.276 9.5 20 9.5C19.724 9.5 19.5 9.276 19.5 9V5.20703L11.354 13.353C11.256 13.451 11.128 13.499 11 13.499C10.872 13.499 10.744 13.45 10.646 13.353C10.451 13.158 10.451 12.841 10.646 12.646L18.792 4.5H15C14.724 4.5 14.5 4.276 14.5 4C14.5 3.724 14.724 3.5 15 3.5H20C20.065 3.5 20.1299 3.51306 20.1909 3.53906C20.3139 3.59006 20.4109 3.68706 20.4619 3.81006C20.4869 3.87006 20.5 3.935 20.5 4ZM20 12.5C19.724 12.5 19.5 12.724 19.5 13V17C19.5 18.729 18.729 19.5 17 19.5H7C5.271 19.5 4.5 18.729 4.5 17V7C4.5 5.271 5.271 4.5 7 4.5H11C11.276 4.5 11.5 4.276 11.5 4C11.5 3.724 11.276 3.5 11 3.5H7C4.71 3.5 3.5 4.71 3.5 7V17C3.5 19.29 4.71 20.5 7 20.5H17C19.29 20.5 20.5 19.29 20.5 17V13C20.5 12.724 20.276 12.5 20 12.5Z" />
</svg>
