<svg viewBox="0 0 24 24" fill="currentColor" stroke="currentColor" xmlns="http://www.w3.org/2000/svg">
<path d="M20.4999 12C20.4999 12.276 20.2759 12.5 19.9999 12.5H5.20695L8.35295 15.646C8.54795 15.841 8.54795 16.158 8.35295 16.353C8.25495 16.451 8.12694 16.499 7.99894 16.499C7.87094 16.499 7.74294 16.45 7.64494 16.353L3.64494 12.353C3.59894 12.307 3.56203 12.251 3.53703 12.19C3.48603 12.068 3.48603 11.9301 3.53703 11.8081C3.56203 11.7461 3.59894 11.691 3.64494 11.645L7.64494 7.64503C7.83994 7.45003 8.15697 7.45003 8.35197 7.64503C8.54697 7.84003 8.54697 8.15706 8.35197 8.35206L5.20597 11.4981H19.9999C20.2759 11.5001 20.4999 11.724 20.4999 12Z" />
</svg>
