<svg viewBox="0 0 24 24" fill="currentColor" stroke="currentColor" xmlns="http://www.w3.org/2000/svg">
<path d="M21.353 12.354L16.353 17.354C16.255 17.452 16.127 17.5 15.999 17.5C15.871 17.5 15.743 17.451 15.645 17.354C15.45 17.159 15.45 16.842 15.645 16.647L19.791 12.501H7C6.724 12.501 6.5 12.277 6.5 12.001C6.5 11.725 6.724 11.501 7 11.501H19.793L15.647 7.35498C15.452 7.15998 15.452 6.84295 15.647 6.64795C15.842 6.45295 16.159 6.45295 16.354 6.64795L21.354 11.6479C21.4 11.6939 21.4369 11.75 21.4619 11.811C21.5129 11.933 21.5129 12.0711 21.4619 12.1931C21.4359 12.2521 21.399 12.308 21.353 12.354ZM4 5.5C3.724 5.5 3.5 5.724 3.5 6V18C3.5 18.276 3.724 18.5 4 18.5C4.276 18.5 4.5 18.276 4.5 18V6C4.5 5.724 4.276 5.5 4 5.5Z" />
</svg>
