<svg viewBox="0 0 24 24" fill="currentColor" stroke="currentColor" xmlns="http://www.w3.org/2000/svg">
<path d="M12 1.5C6.21 1.5 1.5 6.21 1.5 12C1.5 17.79 6.21 22.5 12 22.5C17.79 22.5 22.5 17.79 22.5 12C22.5 6.21 17.79 1.5 12 1.5ZM12 21.5C6.762 21.5 2.5 17.238 2.5 12C2.5 6.762 6.762 2.5 12 2.5C17.238 2.5 21.5 6.762 21.5 12C21.5 17.238 17.238 21.5 12 21.5ZM16.4609 12.1909C16.4359 12.2529 16.399 12.308 16.353 12.354L13.353 15.354C13.255 15.452 13.127 15.5 12.999 15.5C12.871 15.5 12.743 15.451 12.645 15.354C12.45 15.159 12.45 14.842 12.645 14.647L14.791 12.501H8C7.724 12.501 7.5 12.277 7.5 12.001C7.5 11.725 7.724 11.501 8 11.501H14.793L12.647 9.35498C12.452 9.15998 12.452 8.84295 12.647 8.64795C12.842 8.45295 13.159 8.45295 13.354 8.64795L16.354 11.6479C16.4 11.6939 16.4369 11.75 16.4619 11.811C16.5119 11.931 16.5119 12.0689 16.4609 12.1909Z" />
</svg>
