<svg viewBox="0 0 24 24" fill="currentColor" stroke="currentColor" xmlns="http://www.w3.org/2000/svg">
<path d="M17.625 2.5H6.375C3.84 2.5 2.5 3.84 2.5 6.375V17.625C2.5 20.16 3.84 21.5 6.375 21.5H17.625C20.16 21.5 21.5 20.16 21.5 17.625V6.375C21.5 3.84 20.16 2.5 17.625 2.5ZM20.5 17.625C20.5 19.586 19.587 20.5 17.625 20.5H6.375C4.413 20.5 3.5 19.586 3.5 17.625V6.375C3.5 4.414 4.413 3.5 6.375 3.5H17.625C19.587 3.5 20.5 4.414 20.5 6.375V17.625ZM8.31299 12.022L6.646 10.356C6.6 10.31 6.56309 10.2551 6.53809 10.1941C6.51309 10.1341 6.49902 10.069 6.49902 10.002C6.49902 9.93495 6.51309 9.87006 6.53809 9.81006C6.56309 9.74906 6.6 9.69395 6.646 9.64795L8.31299 7.98096C8.50799 7.78596 8.82502 7.78596 9.02002 7.98096C9.21502 8.17596 9.21502 8.49299 9.02002 8.68799L8.20703 9.50098H15C15.276 9.50098 15.5 9.72498 15.5 10.001C15.5 10.277 15.276 10.501 15 10.501H8.20703L9.02002 11.314C9.21502 11.509 9.21502 11.826 9.02002 12.021C8.92202 12.119 8.79402 12.167 8.66602 12.167C8.53802 12.167 8.41099 12.12 8.31299 12.022ZM17.5 13.998C17.5 14.065 17.4859 14.1299 17.4609 14.1899C17.4359 14.2509 17.399 14.3061 17.353 14.3521L15.686 16.0181C15.588 16.1161 15.46 16.1641 15.332 16.1641C15.204 16.1641 15.076 16.1151 14.978 16.0181C14.783 15.8231 14.783 15.506 14.978 15.311L15.791 14.498H9C8.724 14.498 8.5 14.274 8.5 13.998C8.5 13.722 8.724 13.498 9 13.498H15.793L14.98 12.6851C14.785 12.4901 14.785 12.173 14.98 11.978C15.175 11.783 15.492 11.783 15.687 11.978L17.354 13.644C17.4 13.69 17.4369 13.7449 17.4619 13.8059C17.4859 13.8659 17.5 13.931 17.5 13.998Z" />
</svg>
