<svg viewBox="0 0 24 24" fill="currentColor" stroke="currentColor" xmlns="http://www.w3.org/2000/svg">
<path d="M6.646 12.354C6.451 12.159 6.451 11.842 6.646 11.647C6.841 11.452 7.15803 11.452 7.35303 11.647L11.499 15.793V3C11.499 2.724 11.723 2.5 11.999 2.5C12.275 2.5 12.499 2.724 12.499 3V15.793L16.645 11.647C16.84 11.452 17.1571 11.452 17.3521 11.647C17.5471 11.842 17.5471 12.159 17.3521 12.354L12.3521 17.354C12.3061 17.4 12.25 17.4369 12.189 17.4619C12.128 17.4869 12.063 17.501 11.998 17.501C11.933 17.501 11.8679 17.4879 11.8069 17.4619C11.7449 17.4369 11.69 17.4 11.644 17.354L6.646 12.354ZM18 20.5H6C5.724 20.5 5.5 20.724 5.5 21C5.5 21.276 5.724 21.5 6 21.5H18C18.276 21.5 18.5 21.276 18.5 21C18.5 20.724 18.276 20.5 18 20.5Z" />
</svg>
