<svg viewBox="0 0 24 24" fill="currentColor" stroke="currentColor" xmlns="http://www.w3.org/2000/svg">
<path d="M17.4609 12.1909C17.4359 12.2529 17.399 12.308 17.353 12.354L12.353 17.354C12.255 17.452 12.127 17.5 11.999 17.5C11.871 17.5 11.743 17.451 11.645 17.354C11.45 17.159 11.45 16.842 11.645 16.647L15.791 12.501H3C2.724 12.501 2.5 12.277 2.5 12.001C2.5 11.725 2.724 11.501 3 11.501H15.793L11.647 7.35498C11.452 7.15998 11.452 6.84295 11.647 6.64795C11.842 6.45295 12.159 6.45295 12.354 6.64795L17.354 11.6479C17.4 11.6939 17.4369 11.75 17.4619 11.811C17.5119 11.931 17.5119 12.0689 17.4609 12.1909ZM21 5.5C20.724 5.5 20.5 5.724 20.5 6V18C20.5 18.276 20.724 18.5 21 18.5C21.276 18.5 21.5 18.276 21.5 18V6C21.5 5.724 21.276 5.5 21 5.5Z" />
</svg>
