<svg viewBox="0 0 24 24" fill="currentColor" stroke="currentColor" xmlns="http://www.w3.org/2000/svg">
<path d="M21.4999 12V15C21.4999 16.93 19.9299 18.5 17.9999 18.5H4.20695L6.35295 20.646C6.54795 20.841 6.54795 21.158 6.35295 21.353C6.25495 21.451 6.12694 21.499 5.99894 21.499C5.87094 21.499 5.74294 21.45 5.64494 21.353L2.64494 18.353C2.59894 18.307 2.56203 18.251 2.53703 18.19C2.48603 18.068 2.48603 17.9301 2.53703 17.8081C2.56203 17.7461 2.59894 17.691 2.64494 17.645L5.64494 14.645C5.83994 14.45 6.15697 14.45 6.35197 14.645C6.54697 14.84 6.54697 15.1571 6.35197 15.3521L4.20597 17.4981H17.9999C19.3789 17.4981 20.4999 16.3761 20.4999 14.9981V11.9981C20.4999 11.7221 20.7239 11.4981 20.9999 11.4981C21.2759 11.4981 21.4999 11.724 21.4999 12ZM2.99992 12.5C3.27592 12.5 3.49992 12.276 3.49992 12V9.00001C3.49992 7.62201 4.62092 6.50001 5.99992 6.50001H19.7929L17.6469 8.64601C17.4519 8.84101 17.4519 9.15804 17.6469 9.35304C17.7449 9.45104 17.8729 9.49903 18.0009 9.49903C18.1289 9.49903 18.2569 9.45004 18.3549 9.35304L21.3549 6.35304C21.4009 6.30704 21.4378 6.25095 21.4628 6.18995C21.5138 6.06795 21.5138 5.93012 21.4628 5.80812C21.4378 5.74612 21.4009 5.69103 21.3549 5.64503L18.3549 2.64503C18.1599 2.45003 17.8429 2.45003 17.6479 2.64503C17.4529 2.84003 17.4529 3.15706 17.6479 3.35206L19.7939 5.49806H5.99992C4.06992 5.49806 2.49992 7.06806 2.49992 8.99806V11.9981C2.49992 12.2761 2.72392 12.5 2.99992 12.5Z" />
</svg>
