<svg viewBox="0 0 24 24" fill="currentColor" stroke="currentColor" xmlns="http://www.w3.org/2000/svg">
<path d="M21 10.238L15.072 3.968C14.65 3.522 14.009 3.3809 13.437 3.6079C12.867 3.8359 12.499 4.37895 12.499 4.99095V8.00096C6.04502 8.12996 2.49902 10.778 2.49902 15.49C2.49902 17.099 2.90695 18.701 3.64795 20.001C3.82795 20.317 4.1479 20.5 4.4939 20.5C4.5799 20.5 4.66908 20.4891 4.75708 20.4651C5.18808 20.3481 5.47302 19.969 5.46802 19.522C5.45102 18.242 5.58812 17.301 6.31812 16.561C7.31012 15.557 9.335 15.0431 12.5 14.9951V17.9961C12.499 18.6091 12.867 19.1519 13.438 19.3789C14.008 19.6069 14.651 19.464 15.073 19.019L21.001 12.749C21.666 12.045 21.666 10.942 21 10.238ZM20.2729 12.062L14.345 18.332C14.132 18.558 13.8789 18.4799 13.8069 18.4509C13.7349 18.4219 13.499 18.3051 13.499 17.9971V14.4919C13.499 14.2159 13.275 13.9919 12.999 13.9919C9.21302 13.9919 6.86396 14.5849 5.60596 15.8589C4.57696 16.9009 4.45109 18.242 4.51709 19.508C3.86009 18.356 3.49805 16.929 3.49805 15.491C3.49805 10.123 8.66405 8.99706 12.998 8.99706C13.274 8.99706 13.498 8.77306 13.498 8.49706V4.99095C13.498 4.68395 13.7329 4.56609 13.8059 4.53709C13.8389 4.52409 13.9101 4.49998 13.9971 4.49998C14.1011 4.49998 14.228 4.53301 14.344 4.65501L20.272 10.925C20.575 11.244 20.5749 11.744 20.2729 12.062Z" />
</svg>
