<svg viewBox="0 0 24 24" fill="currentColor" stroke="currentColor" xmlns="http://www.w3.org/2000/svg">
<path d="M8.31299 12.02L6.646 10.354C6.6 10.308 6.56309 10.2529 6.53809 10.1919C6.51309 10.1319 6.49902 10.067 6.49902 10C6.49902 9.933 6.51309 9.86811 6.53809 9.80811C6.56309 9.74711 6.6 9.692 6.646 9.646L8.31299 7.97998C8.50799 7.78498 8.82502 7.78498 9.02002 7.97998C9.21502 8.17498 9.21502 8.49201 9.02002 8.68701L8.20703 9.5H15C15.276 9.5 15.5 9.724 15.5 10C15.5 10.276 15.276 10.5 15 10.5H8.20703L9.02002 11.313C9.21502 11.508 9.21502 11.825 9.02002 12.02C8.92202 12.118 8.79402 12.166 8.66602 12.166C8.53802 12.166 8.41099 12.118 8.31299 12.02ZM17.4609 13.804C17.4359 13.743 17.399 13.6881 17.353 13.6421L15.686 11.9761C15.491 11.7811 15.174 11.7811 14.979 11.9761C14.784 12.1711 14.784 12.4881 14.979 12.6831L15.792 13.4961H9C8.724 13.4961 8.5 13.7201 8.5 13.9961C8.5 14.2721 8.724 14.4961 9 14.4961H15.793L14.98 15.3091C14.785 15.5041 14.785 15.8211 14.98 16.0161C15.078 16.1141 15.206 16.1621 15.334 16.1621C15.462 16.1621 15.59 16.1131 15.688 16.0161L17.355 14.3491C17.401 14.3031 17.4379 14.248 17.4629 14.187C17.4879 14.127 17.502 14.0621 17.502 13.9951C17.502 13.9281 17.4859 13.864 17.4609 13.804ZM22.5 12C22.5 17.79 17.79 22.5 12 22.5C6.21 22.5 1.5 17.79 1.5 12C1.5 6.21 6.21 1.5 12 1.5C17.79 1.5 22.5 6.21 22.5 12ZM21.5 12C21.5 6.762 17.238 2.5 12 2.5C6.762 2.5 2.5 6.762 2.5 12C2.5 17.238 6.762 21.5 12 21.5C17.238 21.5 21.5 17.238 21.5 12Z" />
</svg>
