<svg viewBox="0 0 24 24" fill="currentColor" stroke="currentColor" xmlns="http://www.w3.org/2000/svg">
<path d="M19.5 19C19.5 19.065 19.4869 19.1299 19.4609 19.1909C19.4099 19.3139 19.313 19.4109 19.19 19.4619C19.129 19.4869 19.064 19.501 18.999 19.501H8.99903C8.72303 19.501 8.49903 19.277 8.49903 19.001C8.49903 18.725 8.72303 18.501 8.99903 18.501H17.792L5.64601 6.35499C5.45101 6.15999 5.45101 5.84296 5.64601 5.64796C5.84101 5.45296 6.15804 5.45296 6.35304 5.64796L18.499 17.794V9.00001C18.499 8.72401 18.723 8.50001 18.999 8.50001C19.275 8.50001 19.499 8.72401 19.499 9.00001V19H19.5Z" />
</svg>
