<svg viewBox="0 0 24 24" fill="currentColor" stroke="currentColor" xmlns="http://www.w3.org/2000/svg">
<path d="M17 12V13.5C17 14.603 16.103 15.5 15 15.5H8.70703L9.35303 16.146C9.54803 16.341 9.54803 16.658 9.35303 16.853C9.25503 16.951 9.12702 16.999 8.99902 16.999C8.87102 16.999 8.74302 16.95 8.64502 16.853L7.14502 15.353C7.09902 15.307 7.06211 15.2509 7.03711 15.1899C6.98611 15.0679 6.98611 14.9301 7.03711 14.8081C7.06211 14.7461 7.09902 14.691 7.14502 14.645L8.64502 13.145C8.84002 12.95 9.15705 12.95 9.35205 13.145C9.54705 13.34 9.54705 13.6571 9.35205 13.8521L8.70605 14.498H15C15.552 14.498 16 14.049 16 13.498V11.998C16 11.722 16.224 11.498 16.5 11.498C16.776 11.498 17 11.724 17 12ZM16.853 8.646L15.353 7.146C15.158 6.951 14.841 6.951 14.646 7.146C14.451 7.341 14.451 7.65803 14.646 7.85303L15.292 8.49902H9C7.897 8.49902 7 9.39602 7 10.499V11.999C7 12.275 7.224 12.499 7.5 12.499C7.776 12.499 8 12.275 8 11.999V10.499C8 9.94802 8.448 9.49902 9 9.49902H15.293L14.647 10.145C14.452 10.34 14.452 10.6571 14.647 10.8521C14.745 10.9501 14.873 10.998 15.001 10.998C15.129 10.998 15.257 10.9491 15.355 10.8521L16.855 9.35205C16.901 9.30605 16.9379 9.24996 16.9629 9.18896C17.0139 9.06696 17.0139 8.92888 16.9629 8.80688C16.9359 8.74788 16.899 8.692 16.853 8.646ZM22.5 12C22.5 17.79 17.79 22.5 12 22.5C6.21 22.5 1.5 17.79 1.5 12C1.5 6.21 6.21 1.5 12 1.5C17.79 1.5 22.5 6.21 22.5 12ZM21.5 12C21.5 6.762 17.238 2.5 12 2.5C6.762 2.5 2.5 6.762 2.5 12C2.5 17.238 6.762 21.5 12 21.5C17.238 21.5 21.5 17.238 21.5 12Z" />
</svg>
