<svg viewBox="0 0 24 24" fill="currentColor" stroke="currentColor" xmlns="http://www.w3.org/2000/svg">
<path d="M17.354 17.354C17.256 17.452 17.128 17.5 17 17.5C16.872 17.5 16.744 17.451 16.646 17.354L6.5 7.20801V12C6.5 12.276 6.276 12.5 6 12.5C5.724 12.5 5.5 12.276 5.5 12V6C5.5 5.935 5.51306 5.87008 5.53906 5.80908C5.59006 5.68608 5.68706 5.58909 5.81006 5.53809C5.87106 5.51309 5.93598 5.49902 6.00098 5.49902H12.001C12.277 5.49902 12.501 5.72302 12.501 5.99902C12.501 6.27502 12.277 6.49902 12.001 6.49902H7.20801L17.354 16.645C17.549 16.842 17.549 17.158 17.354 17.354Z" />
</svg>
