<svg viewBox="0 0 24 24" fill="currentColor" stroke="currentColor" xmlns="http://www.w3.org/2000/svg">
<path d="M21.4999 13.5C21.4999 16.257 19.2569 18.5 16.4999 18.5H5.99992C5.72392 18.5 5.49992 18.276 5.49992 18C5.49992 17.724 5.72392 17.5 5.99992 17.5H16.4999C18.7059 17.5 20.4999 15.706 20.4999 13.5C20.4999 11.294 18.7059 9.50001 16.4999 9.50001H4.20695L6.35295 11.646C6.54795 11.841 6.54795 12.158 6.35295 12.353C6.25495 12.451 6.12694 12.499 5.99894 12.499C5.87094 12.499 5.74294 12.45 5.64494 12.353L2.64494 9.35304C2.59894 9.30704 2.56203 9.25095 2.53703 9.18995C2.48603 9.06795 2.48603 8.93012 2.53703 8.80812C2.56203 8.74612 2.59894 8.69103 2.64494 8.64503L5.64494 5.64503C5.83994 5.45003 6.15697 5.45003 6.35197 5.64503C6.54697 5.84003 6.54697 6.15706 6.35197 6.35206L4.20597 8.49806H16.4989C19.2569 8.50006 21.4999 10.743 21.4999 13.5Z" />
</svg>
