<svg viewBox="0 0 24 24" fill="currentColor" stroke="currentColor" xmlns="http://www.w3.org/2000/svg">
<path d="M17.5 17C17.5 17.065 17.4869 17.1299 17.4609 17.1909C17.4099 17.3139 17.313 17.4109 17.19 17.4619C17.129 17.4869 17.064 17.501 16.999 17.501H10.999C10.723 17.501 10.499 17.277 10.499 17.001C10.499 16.725 10.723 16.501 10.999 16.501H15.792L5.64601 6.35499C5.45101 6.15999 5.45101 5.84296 5.64601 5.64796C5.84101 5.45296 6.15804 5.45296 6.35304 5.64796L16.499 15.794V11C16.499 10.724 16.723 10.5 16.999 10.5C17.275 10.5 17.499 10.724 17.499 11V17H17.5Z" />
</svg>
