<svg viewBox="0 0 24 24" fill="currentColor" stroke="currentColor" xmlns="http://www.w3.org/2000/svg">
<path d="M17.646 11.646L19.792 9.50001H7.5C5.294 9.50001 3.5 11.294 3.5 13.5C3.5 15.706 5.294 17.5 7.5 17.5H18C18.276 17.5 18.5 17.724 18.5 18C18.5 18.276 18.276 18.5 18 18.5H7.5C4.743 18.5 2.5 16.257 2.5 13.5C2.5 10.743 4.743 8.50001 7.5 8.50001H19.793L17.647 6.35401C17.452 6.15901 17.452 5.84198 17.647 5.64698C17.842 5.45198 18.159 5.45198 18.354 5.64698L21.354 8.64698C21.4 8.69298 21.4369 8.74907 21.4619 8.81007C21.5129 8.93207 21.5129 9.0699 21.4619 9.1919C21.4369 9.2539 21.4 9.30899 21.354 9.35499L18.354 12.355C18.256 12.453 18.128 12.501 18 12.501C17.872 12.501 17.744 12.452 17.646 12.355C17.451 12.158 17.451 11.842 17.646 11.646Z" />
</svg>
