<svg viewBox="0 0 24 24" fill="currentColor" stroke="currentColor" xmlns="http://www.w3.org/2000/svg">
<path d="M12 1.5C6.21 1.5 1.5 6.21 1.5 12C1.5 17.79 6.21 22.5 12 22.5C17.79 22.5 22.5 17.79 22.5 12C22.5 6.21 17.79 1.5 12 1.5ZM12 21.5C6.762 21.5 2.5 17.238 2.5 12C2.5 6.762 6.762 2.5 12 2.5C17.238 2.5 21.5 6.762 21.5 12C21.5 17.238 17.238 21.5 12 21.5ZM15.354 10.646C15.549 10.841 15.549 11.158 15.354 11.353C15.256 11.451 15.128 11.499 15 11.499C14.872 11.499 14.744 11.45 14.646 11.353L12.5 9.20703V16C12.5 16.276 12.276 16.5 12 16.5C11.724 16.5 11.5 16.276 11.5 16V9.20703L9.354 11.353C9.159 11.548 8.84197 11.548 8.64697 11.353C8.45197 11.158 8.45197 10.841 8.64697 10.646L11.647 7.646C11.693 7.6 11.7491 7.56309 11.8101 7.53809C11.9321 7.48709 12.0699 7.48709 12.1919 7.53809C12.2539 7.56309 12.309 7.6 12.355 7.646L15.354 10.646Z" />
</svg>
