<svg viewBox="0 0 24 24" fill="currentColor" stroke="currentColor" xmlns="http://www.w3.org/2000/svg">
<path d="M17.625 2.5H6.375C3.84 2.5 2.5 3.84 2.5 6.375V17.625C2.5 20.16 3.84 21.5 6.375 21.5H17.625C20.16 21.5 21.5 20.16 21.5 17.625V6.375C21.5 3.84 20.16 2.5 17.625 2.5ZM20.5 17.625C20.5 19.586 19.587 20.5 17.625 20.5H6.375C4.413 20.5 3.5 19.586 3.5 17.625V6.375C3.5 4.414 4.413 3.5 6.375 3.5H17.625C19.587 3.5 20.5 4.414 20.5 6.375V17.625ZM15.354 8.646C15.549 8.841 15.549 9.15803 15.354 9.35303L10.208 14.499H13C13.276 14.499 13.5 14.723 13.5 14.999C13.5 15.275 13.276 15.499 13 15.499H9C8.935 15.499 8.87008 15.486 8.80908 15.46C8.68608 15.409 8.58909 15.312 8.53809 15.189C8.51309 15.128 8.49902 15.063 8.49902 14.998V10.998C8.49902 10.722 8.72302 10.498 8.99902 10.498C9.27502 10.498 9.49902 10.722 9.49902 10.998V13.791L14.645 8.64502C14.842 8.45102 15.158 8.451 15.354 8.646Z" />
</svg>
