<svg viewBox="0 0 24 24" fill="currentColor" stroke="currentColor" xmlns="http://www.w3.org/2000/svg">
<path d="M21.5 3V9C21.5 9.276 21.276 9.5 21 9.5C20.724 9.5 20.5 9.276 20.5 9V4.20703L14.354 10.353C14.256 10.451 14.128 10.499 14 10.499C13.872 10.499 13.744 10.45 13.646 10.353C13.451 10.158 13.451 9.841 13.646 9.646L19.792 3.5H15C14.724 3.5 14.5 3.276 14.5 3C14.5 2.724 14.724 2.5 15 2.5H21C21.065 2.5 21.1299 2.51306 21.1909 2.53906C21.3139 2.59006 21.4109 2.68706 21.4619 2.81006C21.4869 2.87006 21.5 2.935 21.5 3ZM9.646 13.646L3.5 19.792V15C3.5 14.724 3.276 14.5 3 14.5C2.724 14.5 2.5 14.724 2.5 15V21C2.5 21.065 2.51306 21.1299 2.53906 21.1909C2.59006 21.3139 2.68706 21.4109 2.81006 21.4619C2.87106 21.4869 2.93598 21.501 3.00098 21.501H9.00098C9.27698 21.501 9.50098 21.277 9.50098 21.001C9.50098 20.725 9.27698 20.501 9.00098 20.501H4.20801L10.354 14.355C10.549 14.16 10.549 13.8429 10.354 13.6479C10.159 13.4529 9.842 13.451 9.646 13.646Z" />
</svg>
