<svg viewBox="0 0 24 24" fill="currentColor" stroke="currentColor" xmlns="http://www.w3.org/2000/svg">
<path d="M21.4999 6V11C21.4999 12.93 19.9299 14.5 17.9999 14.5H4.20695L7.35295 17.646C7.54795 17.841 7.54795 18.158 7.35295 18.353C7.25495 18.451 7.12694 18.499 6.99894 18.499C6.87094 18.499 6.74294 18.45 6.64494 18.353L2.64494 14.353C2.59894 14.307 2.56203 14.2509 2.53703 14.1899C2.48603 14.0679 2.48603 13.9301 2.53703 13.8081C2.56203 13.7461 2.59894 13.691 2.64494 13.645L6.64494 9.64502C6.83994 9.45002 7.15697 9.45002 7.35197 9.64502C7.54697 9.84002 7.54697 10.1571 7.35197 10.3521L4.20597 13.498H17.9999C19.3789 13.498 20.4999 12.376 20.4999 10.998V5.99805C20.4999 5.72205 20.7239 5.49805 20.9999 5.49805C21.2759 5.49805 21.4999 5.724 21.4999 6Z" />
</svg>
