<svg viewBox="0 0 24 24" fill="currentColor" stroke="currentColor" xmlns="http://www.w3.org/2000/svg">
<path d="M17.625 2.5H6.375C3.84 2.5 2.5 3.84 2.5 6.375V17.625C2.5 20.16 3.84 21.5 6.375 21.5H17.625C20.16 21.5 21.5 20.16 21.5 17.625V6.375C21.5 3.84 20.16 2.5 17.625 2.5ZM20.5 17.625C20.5 19.586 19.587 20.5 17.625 20.5H6.375C4.413 20.5 3.5 19.586 3.5 17.625V6.375C3.5 4.414 4.413 3.5 6.375 3.5H17.625C19.587 3.5 20.5 4.414 20.5 6.375V17.625ZM17 12.752C17 14.269 15.767 15.502 14.25 15.502H9C8.724 15.502 8.5 15.278 8.5 15.002C8.5 14.726 8.724 14.502 9 14.502H14.25C15.215 14.502 16 13.717 16 12.752C16 11.787 15.215 11.002 14.25 11.002H8.70703L9.35303 11.6479C9.54803 11.8429 9.54803 12.16 9.35303 12.355C9.25503 12.453 9.12702 12.501 8.99902 12.501C8.87102 12.501 8.74302 12.452 8.64502 12.355L7.14502 10.855C7.09902 10.809 7.06211 10.7529 7.03711 10.6919C6.98611 10.5699 6.98611 10.4321 7.03711 10.3101C7.06211 10.2481 7.09902 10.193 7.14502 10.147L8.64502 8.64697C8.84002 8.45197 9.15705 8.45197 9.35205 8.64697C9.54705 8.84197 9.54705 9.159 9.35205 9.354L8.70605 10H14.249C15.767 10.002 17 11.235 17 12.752Z" />
</svg>
