<svg viewBox="0 0 24 24" fill="currentColor" stroke="currentColor" xmlns="http://www.w3.org/2000/svg">
<path d="M21.4999 12C21.4999 12.276 21.2759 12.5 20.9999 12.5H4.20695L10.3529 18.646C10.5479 18.841 10.5479 19.158 10.3529 19.353C10.2549 19.451 10.1269 19.499 9.99894 19.499C9.87094 19.499 9.74294 19.45 9.64494 19.353L2.64494 12.353C2.59894 12.307 2.56203 12.251 2.53703 12.19C2.48603 12.068 2.48603 11.9301 2.53703 11.8081C2.56203 11.7461 2.59894 11.691 2.64494 11.645L9.64494 4.64503C9.83994 4.45003 10.157 4.45003 10.352 4.64503C10.547 4.84003 10.547 5.15706 10.352 5.35206L4.20597 11.4981H20.9999C21.2759 11.5001 21.4999 11.724 21.4999 12Z" />
</svg>
