<svg viewBox="0 0 24 24" fill="currentColor" stroke="currentColor" xmlns="http://www.w3.org/2000/svg">
<path d="M12 1.5C6.21 1.5 1.5 6.21 1.5 12C1.5 17.79 6.21 22.5 12 22.5C17.79 22.5 22.5 17.79 22.5 12C22.5 6.21 17.79 1.5 12 1.5ZM12 21.5C6.762 21.5 2.5 17.238 2.5 12C2.5 6.762 6.762 2.5 12 2.5C17.238 2.5 21.5 6.762 21.5 12C21.5 17.238 17.238 21.5 12 21.5ZM15.4609 8.80908C15.4859 8.87008 15.5 8.935 15.5 9V13C15.5 13.276 15.276 13.5 15 13.5C14.724 13.5 14.5 13.276 14.5 13V10.207L9.354 15.353C9.256 15.451 9.128 15.499 9 15.499C8.872 15.499 8.744 15.45 8.646 15.353C8.451 15.158 8.451 14.841 8.646 14.646L13.792 9.5H11C10.724 9.5 10.5 9.276 10.5 9C10.5 8.724 10.724 8.5 11 8.5H15C15.065 8.5 15.1299 8.51306 15.1909 8.53906C15.3129 8.58906 15.4109 8.68708 15.4609 8.80908Z" />
</svg>
