<svg viewBox="0 0 24 24" fill="currentColor" stroke="currentColor" xmlns="http://www.w3.org/2000/svg">
<path d="M16.9609 10.6909C16.9359 10.7529 16.899 10.808 16.853 10.854L15.353 12.354C15.255 12.452 15.127 12.5 14.999 12.5C14.871 12.5 14.743 12.451 14.645 12.354C14.45 12.159 14.45 11.842 14.645 11.647L15.291 11.001H9.74805C8.78305 11.001 7.99805 11.786 7.99805 12.751C7.99805 13.716 8.78305 14.501 9.74805 14.501H14.998C15.274 14.501 15.498 14.725 15.498 15.001C15.498 15.277 15.274 15.501 14.998 15.501H9.74805C8.23105 15.501 6.99805 14.268 6.99805 12.751C6.99805 11.234 8.23105 10.001 9.74805 10.001H15.291L14.645 9.35498C14.45 9.15998 14.45 8.84295 14.645 8.64795C14.84 8.45295 15.1571 8.45295 15.3521 8.64795L16.8521 10.1479C16.8981 10.1939 16.935 10.25 16.96 10.311C17.012 10.431 17.0119 10.5689 16.9609 10.6909ZM22.5 12C22.5 17.79 17.79 22.5 12 22.5C6.21 22.5 1.5 17.79 1.5 12C1.5 6.21 6.21 1.5 12 1.5C17.79 1.5 22.5 6.21 22.5 12ZM21.5 12C21.5 6.762 17.238 2.5 12 2.5C6.762 2.5 2.5 6.762 2.5 12C2.5 17.238 6.762 21.5 12 21.5C17.238 21.5 21.5 17.238 21.5 12Z" />
</svg>
