<svg viewBox="0 0 24 24" fill="currentColor" stroke="currentColor" xmlns="http://www.w3.org/2000/svg">
<path d="M11.5 11.793L19.646 3.64697C19.841 3.45197 20.158 3.45197 20.353 3.64697C20.548 3.84197 20.548 4.159 20.353 4.354L12.207 12.5H16C16.276 12.5 16.5 12.724 16.5 13C16.5 13.276 16.276 13.5 16 13.5H11C10.935 13.5 10.8701 13.4869 10.8091 13.4609C10.6861 13.4099 10.5891 13.3129 10.5381 13.1899C10.5131 13.1289 10.499 13.064 10.499 12.999V7.99902C10.499 7.72302 10.723 7.49902 10.999 7.49902C11.275 7.49902 11.499 7.72302 11.499 7.99902V11.793H11.5ZM20 12.5C19.724 12.5 19.5 12.724 19.5 13V17C19.5 18.729 18.729 19.5 17 19.5H7C5.271 19.5 4.5 18.729 4.5 17V7C4.5 5.271 5.271 4.5 7 4.5H11C11.276 4.5 11.5 4.276 11.5 4C11.5 3.724 11.276 3.5 11 3.5H7C4.71 3.5 3.5 4.71 3.5 7V17C3.5 19.29 4.71 20.5 7 20.5H17C19.29 20.5 20.5 19.29 20.5 17V13C20.5 12.724 20.276 12.5 20 12.5Z" />
</svg>
