<svg viewBox="0 0 24 24" fill="currentColor" stroke="currentColor" xmlns="http://www.w3.org/2000/svg">
<path d="M12.022 14.978C12.217 15.173 12.217 15.4901 12.022 15.6851L10.355 17.3511C10.309 17.3971 10.2529 17.434 10.1919 17.459C10.1309 17.484 10.066 17.498 10.001 17.498C9.93598 17.498 9.87106 17.485 9.81006 17.459C9.74806 17.434 9.69297 17.3971 9.64697 17.3511L7.97998 15.6851C7.78498 15.4901 7.78498 15.173 7.97998 14.978C8.17498 14.783 8.49201 14.783 8.68701 14.978L9.5 15.791V8.99805C9.5 8.72205 9.724 8.49805 10 8.49805C10.276 8.49805 10.5 8.72205 10.5 8.99805V15.791L11.313 14.978C11.511 14.783 11.827 14.783 12.022 14.978ZM14.3521 6.64502C14.3061 6.59902 14.25 6.56211 14.189 6.53711C14.067 6.48611 13.9289 6.48611 13.8069 6.53711C13.7449 6.56211 13.69 6.59902 13.644 6.64502L11.9771 8.31104C11.7821 8.50604 11.7821 8.82307 11.9771 9.01807C12.1721 9.21307 12.4891 9.21307 12.6841 9.01807L13.4971 8.20508V14.998C13.4971 15.274 13.7211 15.498 13.9971 15.498C14.2731 15.498 14.4971 15.274 14.4971 14.998V8.20508L15.3101 9.01807C15.4081 9.11607 15.5361 9.16406 15.6641 9.16406C15.7921 9.16406 15.9201 9.11507 16.0181 9.01807C16.2131 8.82307 16.2131 8.50604 16.0181 8.31104L14.3521 6.64502ZM22.5 12C22.5 17.79 17.79 22.5 12 22.5C6.21 22.5 1.5 17.79 1.5 12C1.5 6.21 6.21 1.5 12 1.5C17.79 1.5 22.5 6.21 22.5 12ZM21.5 12C21.5 6.762 17.238 2.5 12 2.5C6.762 2.5 2.5 6.762 2.5 12C2.5 17.238 6.762 21.5 12 21.5C17.238 21.5 21.5 17.238 21.5 12Z" />
</svg>
