<svg viewBox="0 0 24 24" fill="currentColor" stroke="currentColor" xmlns="http://www.w3.org/2000/svg">
<path d="M17.625 2.5H6.375C3.84 2.5 2.5 3.84 2.5 6.375V17.625C2.5 20.16 3.84 21.5 6.375 21.5H17.625C20.16 21.5 21.5 20.16 21.5 17.625V6.375C21.5 3.84 20.16 2.5 17.625 2.5ZM20.5 17.625C20.5 19.586 19.587 20.5 17.625 20.5H6.375C4.413 20.5 3.5 19.586 3.5 17.625V6.375C3.5 4.414 4.413 3.5 6.375 3.5H17.625C19.587 3.5 20.5 4.414 20.5 6.375V17.625ZM15.354 10.646C15.549 10.841 15.549 11.158 15.354 11.353C15.256 11.451 15.128 11.499 15 11.499C14.872 11.499 14.744 11.45 14.646 11.353L12.5 9.20703V16C12.5 16.276 12.276 16.5 12 16.5C11.724 16.5 11.5 16.276 11.5 16V9.20703L9.354 11.353C9.159 11.548 8.84197 11.548 8.64697 11.353C8.45197 11.158 8.45197 10.841 8.64697 10.646L11.647 7.646C11.693 7.6 11.7491 7.56309 11.8101 7.53809C11.9321 7.48709 12.0699 7.48709 12.1919 7.53809C12.2539 7.56309 12.309 7.6 12.355 7.646L15.354 10.646Z" />
</svg>
