<svg viewBox="0 0 24 24" fill="currentColor" stroke="currentColor" xmlns="http://www.w3.org/2000/svg">
<path d="M17.625 2.5H6.375C3.84 2.5 2.5 3.84 2.5 6.375V17.625C2.5 20.16 3.84 21.5 6.375 21.5H17.625C20.16 21.5 21.5 20.16 21.5 17.625V6.375C21.5 3.84 20.16 2.5 17.625 2.5ZM20.5 17.625C20.5 19.586 19.587 20.5 17.625 20.5H6.375C4.413 20.5 3.5 19.586 3.5 17.625V6.375C3.5 4.414 4.413 3.5 6.375 3.5H17.625C19.587 3.5 20.5 4.414 20.5 6.375V17.625ZM15.354 12.646C15.549 12.841 15.549 13.158 15.354 13.353L12.354 16.353C12.308 16.399 12.2519 16.4359 12.1909 16.4609C12.1299 16.4859 12.065 16.5 12 16.5C11.935 16.5 11.8701 16.4869 11.8091 16.4609C11.7471 16.4359 11.692 16.399 11.646 16.353L8.646 13.353C8.451 13.158 8.451 12.841 8.646 12.646C8.841 12.451 9.15803 12.451 9.35303 12.646L11.499 14.792V8C11.499 7.724 11.723 7.5 11.999 7.5C12.275 7.5 12.499 7.724 12.499 8V14.793L14.645 12.647C14.842 12.451 15.158 12.451 15.354 12.646Z" />
</svg>
