<svg viewBox="0 0 24 24" fill="currentColor" stroke="currentColor" xmlns="http://www.w3.org/2000/svg">
<path d="M19.354 14.354L12.354 21.354C12.308 21.4 12.2519 21.4369 12.1909 21.4619C12.1299 21.4869 12.065 21.501 12 21.501C11.935 21.501 11.8701 21.4879 11.8091 21.4619C11.7471 21.4369 11.692 21.4 11.646 21.354L4.64601 14.354C4.45101 14.159 4.45101 13.842 4.64601 13.647C4.84101 13.452 5.15804 13.452 5.35304 13.647L11.499 19.793V3C11.499 2.724 11.723 2.5 11.999 2.5C12.275 2.5 12.499 2.724 12.499 3V19.793L18.645 13.647C18.84 13.452 19.1571 13.452 19.3521 13.647C19.5471 13.842 19.549 14.158 19.354 14.354Z" />
</svg>
