<svg viewBox="0 0 24 24" fill="currentColor" stroke="currentColor" xmlns="http://www.w3.org/2000/svg">
<path d="M17.625 2.5H6.375C3.84 2.5 2.5 3.84 2.5 6.375V17.625C2.5 20.16 3.84 21.5 6.375 21.5H17.625C20.16 21.5 21.5 20.16 21.5 17.625V6.375C21.5 3.84 20.16 2.5 17.625 2.5ZM20.5 17.625C20.5 19.586 19.587 20.5 17.625 20.5H6.375C4.413 20.5 3.5 19.586 3.5 17.625V6.375C3.5 4.414 4.413 3.5 6.375 3.5H17.625C19.587 3.5 20.5 4.414 20.5 6.375V17.625ZM17 10.5039V12.752C17 13.028 16.776 13.252 16.5 13.252H14.25C13.974 13.252 13.75 13.028 13.75 12.752C13.75 12.476 13.974 12.252 14.25 12.252H15.4309C14.7109 11.035 13.3899 10.252 11.9399 10.252C10.0459 10.252 8.42106 11.5329 7.98706 13.3669C7.93306 13.5969 7.72698 13.752 7.50098 13.752C7.46298 13.752 7.42499 13.748 7.38599 13.738C7.11699 13.675 6.95089 13.405 7.01489 13.136C7.55589 10.849 9.58092 9.25098 11.9409 9.25098C13.5669 9.25098 15.064 10.04 16.002 11.302V10.5029C16.002 10.2269 16.226 10.0029 16.502 10.0029C16.778 10.0029 17 10.2279 17 10.5039Z" />
</svg>
