<svg viewBox="0 0 24 24" fill="currentColor" stroke="currentColor" xmlns="http://www.w3.org/2000/svg">
<path d="M17.354 11.646C17.549 11.841 17.549 12.158 17.354 12.353C17.256 12.451 17.128 12.499 17 12.499C16.872 12.499 16.744 12.45 16.646 12.353L12.5 8.20703V21C12.5 21.276 12.276 21.5 12 21.5C11.724 21.5 11.5 21.276 11.5 21V8.20703L7.354 12.353C7.159 12.548 6.84197 12.548 6.64697 12.353C6.45197 12.158 6.45197 11.841 6.64697 11.646L11.647 6.646C11.693 6.6 11.7491 6.56309 11.8101 6.53809C11.9321 6.48709 12.0699 6.48709 12.1919 6.53809C12.2539 6.56309 12.309 6.6 12.355 6.646L17.354 11.646ZM18 2.5H6C5.724 2.5 5.5 2.724 5.5 3C5.5 3.276 5.724 3.5 6 3.5H18C18.276 3.5 18.5 3.276 18.5 3C18.5 2.724 18.276 2.5 18 2.5Z" />
</svg>
