<svg viewBox="0 0 24 24" fill="currentColor" stroke="currentColor" xmlns="http://www.w3.org/2000/svg">
<path d="M16.354 16.354L12.354 20.354C12.308 20.4 12.2519 20.4369 12.1909 20.4619C12.1299 20.4869 12.065 20.501 12 20.501C11.935 20.501 11.8701 20.4879 11.8091 20.4619C11.7471 20.4369 11.692 20.4 11.646 20.354L7.64601 16.354C7.45101 16.159 7.45101 15.842 7.64601 15.647C7.84101 15.452 8.15804 15.452 8.35304 15.647L11.499 18.793V4C11.499 3.724 11.723 3.5 11.999 3.5C12.275 3.5 12.499 3.724 12.499 4V18.793L15.645 15.647C15.84 15.452 16.1571 15.452 16.3521 15.647C16.5471 15.842 16.549 16.158 16.354 16.354Z" />
</svg>
