<svg viewBox="0 0 24 24" fill="currentColor" stroke="currentColor" xmlns="http://www.w3.org/2000/svg">
<path d="M17.354 6.35401L7.20801 16.5H12C12.276 16.5 12.5 16.724 12.5 17C12.5 17.276 12.276 17.5 12 17.5H6C5.935 17.5 5.87008 17.4869 5.80908 17.4609C5.68608 17.4099 5.58909 17.313 5.53809 17.19C5.51309 17.129 5.49902 17.064 5.49902 16.999V10.999C5.49902 10.723 5.72302 10.499 5.99902 10.499C6.27502 10.499 6.49902 10.723 6.49902 10.999V15.792L16.645 5.64601C16.84 5.45101 17.1571 5.45101 17.3521 5.64601C17.5471 5.84101 17.549 6.15801 17.354 6.35401Z" />
</svg>
