<svg viewBox="0 0 24 24" fill="currentColor" stroke="currentColor" xmlns="http://www.w3.org/2000/svg">
<path d="M18.354 18.354C18.256 18.452 18.128 18.5 18 18.5C17.872 18.5 17.744 18.451 17.646 18.354L5.5 6.20801V15C5.5 15.276 5.276 15.5 5 15.5C4.724 15.5 4.5 15.276 4.5 15V5C4.5 4.935 4.51306 4.87008 4.53906 4.80908C4.59006 4.68608 4.68706 4.58909 4.81006 4.53809C4.87106 4.51309 4.93598 4.49902 5.00098 4.49902H15.001C15.277 4.49902 15.501 4.72302 15.501 4.99902C15.501 5.27502 15.277 5.49902 15.001 5.49902H6.20801L18.354 17.645C18.549 17.842 18.549 18.158 18.354 18.354Z" />
</svg>
