<svg viewBox="0 0 24 24" fill="currentColor" stroke="currentColor" xmlns="http://www.w3.org/2000/svg">
<path d="M18.354 17.354L14.354 21.354C14.308 21.4 14.2519 21.4369 14.1909 21.4619C14.1299 21.4869 14.065 21.501 14 21.501C13.935 21.501 13.8701 21.4879 13.8091 21.4619C13.7471 21.4369 13.692 21.4 13.646 21.354L9.646 17.354C9.451 17.159 9.451 16.842 9.646 16.647C9.841 16.452 10.158 16.452 10.353 16.647L13.499 19.793V6C13.499 4.622 12.378 3.5 10.999 3.5H5.99902C5.72302 3.5 5.49902 3.276 5.49902 3C5.49902 2.724 5.72302 2.5 5.99902 2.5H10.999C12.929 2.5 14.499 4.07 14.499 6V19.793L17.645 16.647C17.84 16.452 18.1571 16.452 18.3521 16.647C18.5471 16.842 18.549 17.158 18.354 17.354Z" />
</svg>
