<svg viewBox="0 0 24 24" fill="currentColor" stroke="currentColor" xmlns="http://www.w3.org/2000/svg">
<path d="M21.3529 12.354L17.3529 16.354C17.2549 16.452 17.1269 16.5 16.9989 16.5C16.8709 16.5 16.7429 16.451 16.6449 16.354C16.4499 16.159 16.4499 15.842 16.6449 15.647L19.7909 12.501H4.205L7.35099 15.647C7.54599 15.842 7.54599 16.159 7.35099 16.354C7.25299 16.452 7.12499 16.5 6.99699 16.5C6.86899 16.5 6.74099 16.451 6.64299 16.354L2.64299 12.354C2.59699 12.308 2.55983 12.2519 2.53483 12.1909C2.48383 12.0689 2.48383 11.9311 2.53483 11.8091C2.55983 11.7471 2.59699 11.692 2.64299 11.646L6.64299 7.64601C6.83799 7.45101 7.15502 7.45101 7.35002 7.64601C7.54502 7.84101 7.54502 8.15804 7.35002 8.35304L4.20402 11.499H19.79L16.644 8.35304C16.449 8.15804 16.449 7.84101 16.644 7.64601C16.839 7.45101 17.156 7.45101 17.351 7.64601L21.351 11.646C21.397 11.692 21.4339 11.7481 21.4589 11.8091C21.5099 11.9311 21.5099 12.0689 21.4589 12.1909C21.4359 12.2519 21.3989 12.308 21.3529 12.354Z" />
</svg>
