<svg viewBox="0 0 24 24" fill="currentColor" stroke="currentColor" xmlns="http://www.w3.org/2000/svg">
<path d="M21.5 10V14C21.5 14.276 21.276 14.5 21 14.5H16.9952C16.7192 14.5 16.4952 14.276 16.4952 14C16.4952 13.724 16.7192 13.5 16.9952 13.5H19.6751C18.2791 10.49 15.2469 8.5 11.8799 8.5C7.85893 8.5 4.40813 11.22 3.48613 15.115C3.43213 15.345 3.22604 15.5 3.00004 15.5C2.96204 15.5 2.92405 15.4961 2.88505 15.4861C2.61605 15.4231 2.44996 15.153 2.51396 14.884C3.54196 10.536 7.39393 7.49902 11.8799 7.49902C15.5599 7.49902 18.9 9.61904 20.5 12.863V10C20.5 9.724 20.724 9.5 21 9.5C21.276 9.5 21.5 9.724 21.5 10Z" />
</svg>
