<svg viewBox="0 0 24 24" fill="currentColor" stroke="currentColor" xmlns="http://www.w3.org/2000/svg">
<path d="M17.354 15.646C17.549 15.841 17.549 16.158 17.354 16.353L12.354 21.353C12.308 21.399 12.2519 21.4359 12.1909 21.4609C12.1299 21.4859 12.065 21.5 12 21.5C11.935 21.5 11.8701 21.4869 11.8091 21.4609C11.7471 21.4359 11.692 21.399 11.646 21.353L6.646 16.353C6.451 16.158 6.451 15.841 6.646 15.646C6.841 15.451 7.15803 15.451 7.35303 15.646L11.499 19.792V7C11.499 6.724 11.723 6.5 11.999 6.5C12.275 6.5 12.499 6.724 12.499 7V19.793L16.645 15.647C16.842 15.451 17.158 15.451 17.354 15.646ZM18 2.5H6C5.724 2.5 5.5 2.724 5.5 3C5.5 3.276 5.724 3.5 6 3.5H18C18.276 3.5 18.5 3.276 18.5 3C18.5 2.724 18.276 2.5 18 2.5Z" />
</svg>
