<svg viewBox="0 0 24 24" fill="currentColor" stroke="currentColor" xmlns="http://www.w3.org/2000/svg">
<path d="M18.354 6.35401L6.20801 18.5H15C15.276 18.5 15.5 18.724 15.5 19C15.5 19.276 15.276 19.5 15 19.5H5C4.935 19.5 4.87008 19.4869 4.80908 19.4609C4.68608 19.4099 4.58909 19.313 4.53809 19.19C4.51309 19.129 4.49902 19.064 4.49902 18.999V8.99903C4.49902 8.72303 4.72302 8.49903 4.99902 8.49903C5.27502 8.49903 5.49902 8.72303 5.49902 8.99903V17.792L17.645 5.64601C17.84 5.45101 18.1571 5.45101 18.3521 5.64601C18.5471 5.84101 18.549 6.15801 18.354 6.35401Z" />
</svg>
