<svg viewBox="0 0 24 24" fill="currentColor" stroke="currentColor" xmlns="http://www.w3.org/2000/svg">
<path d="M21.3529 12.3539L18.3529 15.3539C18.2549 15.4519 18.1269 15.4999 17.9989 15.4999C17.8709 15.4999 17.7429 15.4509 17.6449 15.3539C17.4499 15.1589 17.4499 14.8419 17.6449 14.6469L19.7909 12.5009H12.498V19.7939L14.644 17.6479C14.839 17.4529 15.156 17.4529 15.351 17.6479C15.546 17.8429 15.546 18.1599 15.351 18.3549L12.351 21.3549C12.305 21.4009 12.2489 21.4378 12.1879 21.4628C12.1269 21.4878 12.062 21.5019 11.997 21.5019C11.932 21.5019 11.8668 21.4888 11.8058 21.4628C11.7438 21.4378 11.689 21.4009 11.643 21.3549L8.64299 18.3549C8.44799 18.1599 8.44799 17.8429 8.64299 17.6479C8.83799 17.4529 9.15502 17.4529 9.35002 17.6479L11.496 19.7939V12.5009H4.2028L6.34904 14.6469C6.54404 14.8419 6.54404 15.1589 6.34904 15.3539C6.25104 15.4519 6.12304 15.4999 5.99504 15.4999C5.86704 15.4999 5.73903 15.4509 5.64103 15.3539L2.64103 12.3539C2.59503 12.3079 2.55788 12.2518 2.53288 12.1908C2.48188 12.0688 2.48188 11.931 2.53288 11.809C2.55788 11.747 2.59503 11.6919 2.64103 11.6459L5.64103 8.64592C5.83603 8.45092 6.15282 8.45092 6.34782 8.64592C6.54282 8.84092 6.54282 9.15795 6.34782 9.35295L4.20182 11.4989H11.495V4.20597L9.34904 6.35197C9.15404 6.54697 8.83701 6.54697 8.64201 6.35197C8.44701 6.15697 8.44701 5.83994 8.64201 5.64494L11.642 2.64494C11.688 2.59894 11.7439 2.56203 11.8049 2.53703C11.9269 2.48603 12.0649 2.48603 12.1869 2.53703C12.2489 2.56203 12.304 2.59894 12.35 2.64494L15.35 5.64494C15.545 5.83994 15.545 6.15697 15.35 6.35197C15.252 6.44997 15.124 6.49797 14.996 6.49797C14.868 6.49797 14.74 6.44897 14.642 6.35197L12.496 4.20597V11.4989H19.789L17.643 9.35295C17.448 9.15795 17.448 8.84092 17.643 8.64592C17.838 8.45092 18.155 8.45092 18.35 8.64592L21.35 11.6459C21.396 11.6919 21.4329 11.748 21.4579 11.809C21.5089 11.931 21.5089 12.0688 21.4579 12.1908C21.4359 12.2518 21.3989 12.3079 21.3529 12.3539Z" />
</svg>
