<svg viewBox="0 0 24 24" fill="currentColor" stroke="currentColor" xmlns="http://www.w3.org/2000/svg">
<path d="M2.53898 7.19093C2.48798 7.06893 2.48798 6.93109 2.53898 6.80909C2.56398 6.74709 2.60089 6.69201 2.64689 6.64601L6.64689 2.64601C6.84189 2.45101 7.15892 2.45101 7.35392 2.64601C7.54892 2.84101 7.54892 3.15804 7.35392 3.35304L4.20793 6.49903H16.9999C17.2759 6.49903 17.4999 6.72303 17.4999 6.99903C17.4999 7.27503 17.2759 7.49903 16.9999 7.49903H4.20695L7.35295 10.645C7.54795 10.84 7.54795 11.1571 7.35295 11.3521C7.25495 11.4501 7.12694 11.4981 6.99894 11.4981C6.87094 11.4981 6.74294 11.4491 6.64494 11.3521L2.64494 7.35206C2.60094 7.30806 2.56398 7.25193 2.53898 7.19093ZM21.4609 17.1909C21.5119 17.0689 21.5119 16.9311 21.4609 16.8091C21.4359 16.7471 21.3989 16.692 21.3529 16.646L17.3529 12.646C17.1579 12.451 16.8409 12.451 16.6459 12.646C16.4509 12.841 16.4509 13.158 16.6459 13.353L19.7919 16.499H6.99992C6.72392 16.499 6.49992 16.723 6.49992 16.999C6.49992 17.275 6.72392 17.499 6.99992 17.499H19.7929L16.6469 20.645C16.4519 20.84 16.4519 21.1571 16.6469 21.3521C16.7449 21.4501 16.8729 21.4981 17.0009 21.4981C17.1289 21.4981 17.2569 21.4491 17.3549 21.3521L21.3549 17.3521C21.3989 17.3081 21.4359 17.2519 21.4609 17.1909Z" />
</svg>
