<svg viewBox="0 0 24 24" fill="currentColor" stroke="currentColor" xmlns="http://www.w3.org/2000/svg">
<path d="M18.5 20.9999C18.5 21.2759 18.276 21.4999 18 21.4999H13C11.07 21.4999 9.50001 19.9299 9.50001 17.9999V4.20695L6.35401 7.35295C6.15901 7.54795 5.84198 7.54795 5.64698 7.35295C5.45198 7.15795 5.45198 6.84092 5.64698 6.64592L9.64698 2.64592C9.69298 2.59992 9.74907 2.56301 9.81007 2.53801C9.93207 2.48701 10.0699 2.48701 10.1919 2.53801C10.2539 2.56301 10.309 2.59992 10.355 2.64592L14.355 6.64592C14.55 6.84092 14.55 7.15795 14.355 7.35295C14.257 7.45095 14.129 7.49894 14.001 7.49894C13.873 7.49894 13.745 7.44995 13.647 7.35295L10.501 4.20695V17.9999C10.501 19.3779 11.622 20.4999 13.001 20.4999H18.001C18.276 20.4999 18.5 20.7239 18.5 20.9999Z" />
</svg>
