<svg viewBox="0 0 24 24" fill="currentColor" stroke="currentColor" xmlns="http://www.w3.org/2000/svg">
<path d="M17.625 2.5H6.375C3.84 2.5 2.5 3.84 2.5 6.375V17.625C2.5 20.16 3.84 21.5 6.375 21.5H17.625C20.16 21.5 21.5 20.16 21.5 17.625V6.375C21.5 3.84 20.16 2.5 17.625 2.5ZM20.5 17.625C20.5 19.586 19.587 20.5 17.625 20.5H6.375C4.413 20.5 3.5 19.586 3.5 17.625V6.375C3.5 4.414 4.413 3.5 6.375 3.5H17.625C19.587 3.5 20.5 4.414 20.5 6.375V17.625ZM16.9609 10.6931C16.9359 10.7551 16.899 10.81 16.853 10.856L15.353 12.356C15.255 12.454 15.127 12.502 14.999 12.502C14.871 12.502 14.743 12.453 14.645 12.356C14.45 12.161 14.45 11.8439 14.645 11.6489L15.291 11.0029H9.74805C8.78305 11.0029 7.99805 11.7879 7.99805 12.7529C7.99805 13.7179 8.78305 14.5029 9.74805 14.5029H14.998C15.274 14.5029 15.498 14.7269 15.498 15.0029C15.498 15.2789 15.274 15.5029 14.998 15.5029H9.74805C8.23105 15.5029 6.99805 14.2699 6.99805 12.7529C6.99805 11.2359 8.23105 10.0029 9.74805 10.0029H15.291L14.645 9.35693C14.45 9.16193 14.45 8.8449 14.645 8.6499C14.84 8.4549 15.1571 8.4549 15.3521 8.6499L16.8521 10.1499C16.8981 10.1959 16.935 10.252 16.96 10.313C17.012 10.433 17.0119 10.5711 16.9609 10.6931Z" />
</svg>
