<svg viewBox="0 0 24 24" fill="currentColor" stroke="currentColor" xmlns="http://www.w3.org/2000/svg">
<path d="M16.354 16.6459C16.549 16.8409 16.549 17.1579 16.354 17.3529L12.354 21.3529C12.308 21.3989 12.2519 21.4359 12.1909 21.4609C12.1299 21.4859 12.065 21.4999 12 21.4999C11.935 21.4999 11.8701 21.4869 11.8091 21.4609C11.7471 21.4359 11.692 21.3989 11.646 21.3529L7.64601 17.3529C7.45101 17.1579 7.45101 16.8409 7.64601 16.6459C7.84101 16.4509 8.15804 16.4509 8.35304 16.6459L11.499 19.7919V4.20597L8.35304 7.35197C8.15804 7.54697 7.84101 7.54697 7.64601 7.35197C7.45101 7.15697 7.45101 6.83994 7.64601 6.64494L11.646 2.64494C11.692 2.59894 11.7481 2.56203 11.8091 2.53703C11.9311 2.48603 12.0689 2.48603 12.1909 2.53703C12.2529 2.56203 12.308 2.59894 12.354 2.64494L16.354 6.64494C16.549 6.83994 16.549 7.15697 16.354 7.35197C16.256 7.44997 16.128 7.49797 16 7.49797C15.872 7.49797 15.744 7.44897 15.646 7.35197L12.5 4.20597V19.7919L15.646 16.6459C15.842 16.4509 16.158 16.4509 16.354 16.6459Z" />
</svg>
