<svg viewBox="0 0 24 24" fill="currentColor" stroke="currentColor" xmlns="http://www.w3.org/2000/svg">
<path d="M11.5 8.00096V4.99095C11.501 4.37795 11.133 3.83492 10.562 3.60692C9.991 3.37992 9.34899 3.52103 8.92699 3.96703L2.99901 10.237C2.33301 10.942 2.33301 12.045 2.99901 12.749L8.92699 19.019C9.34799 19.465 9.99 19.6069 10.562 19.3789C11.132 19.1519 11.5 18.6091 11.5 17.9961V14.9951C14.665 15.0431 16.6889 15.557 17.6819 16.561C18.4109 17.301 18.548 18.242 18.532 19.522C18.527 19.969 18.8119 20.3481 19.2429 20.4651C19.3309 20.4891 19.4201 20.5 19.5061 20.5C19.8521 20.5 20.172 20.3179 20.352 20.0019C21.093 18.7019 21.501 17.099 21.501 15.49C21.5 10.778 17.954 8.12996 11.5 8.00096ZM19.531 19.5349C19.548 18.2419 19.4221 16.9009 18.3921 15.8589C17.1341 14.5849 14.786 13.9919 10.999 13.9919C10.723 13.9919 10.499 14.2159 10.499 14.4919V17.998C10.499 18.305 10.2639 18.4229 10.1909 18.4519C10.1179 18.4809 9.86606 18.559 9.65306 18.333L3.72509 12.063C3.42309 11.744 3.42309 11.245 3.72509 10.926L9.65306 4.65599C9.86706 4.43099 10.1199 4.50909 10.1909 4.53709C10.2629 4.56609 10.499 4.68295 10.499 4.99095V8.49608C10.499 8.77208 10.723 8.99608 10.999 8.99608C15.333 8.99608 20.499 10.122 20.499 15.49C20.5 16.929 20.139 18.3549 19.531 19.5349Z" />
</svg>
