<svg viewBox="0 0 24 24" fill="currentColor" stroke="currentColor" xmlns="http://www.w3.org/2000/svg">
<path d="M17 12.75C17 14.267 15.767 15.5 14.25 15.5H9C8.724 15.5 8.5 15.276 8.5 15C8.5 14.724 8.724 14.5 9 14.5H14.25C15.215 14.5 16 13.715 16 12.75C16 11.785 15.215 11 14.25 11H8.70703L9.35303 11.646C9.54803 11.841 9.54803 12.158 9.35303 12.353C9.25503 12.451 9.12702 12.499 8.99902 12.499C8.87102 12.499 8.74302 12.45 8.64502 12.353L7.14502 10.853C7.09902 10.807 7.06211 10.7509 7.03711 10.6899C6.98611 10.5679 6.98611 10.4301 7.03711 10.3081C7.06211 10.2461 7.09902 10.191 7.14502 10.145L8.64502 8.64502C8.84002 8.45002 9.15705 8.45002 9.35205 8.64502C9.54705 8.84002 9.54705 9.15705 9.35205 9.35205L8.70605 9.99805H14.249C15.767 10 17 11.233 17 12.75ZM22.5 12C22.5 17.79 17.79 22.5 12 22.5C6.21 22.5 1.5 17.79 1.5 12C1.5 6.21 6.21 1.5 12 1.5C17.79 1.5 22.5 6.21 22.5 12ZM21.5 12C21.5 6.762 17.238 2.5 12 2.5C6.762 2.5 2.5 6.762 2.5 12C2.5 17.238 6.762 21.5 12 21.5C17.238 21.5 21.5 17.238 21.5 12Z" />
</svg>
