<svg viewBox="0 0 24 24" fill="currentColor" stroke="currentColor" xmlns="http://www.w3.org/2000/svg">
<path d="M17 10.502V12.75C17 13.026 16.776 13.25 16.5 13.25H14.25C13.974 13.25 13.75 13.026 13.75 12.75C13.75 12.474 13.974 12.25 14.25 12.25H15.4309C14.7109 11.033 13.3899 10.25 11.9399 10.25C10.0459 10.25 8.42106 11.531 7.98706 13.365C7.93306 13.595 7.72698 13.75 7.50098 13.75C7.46298 13.75 7.42499 13.7461 7.38599 13.7361C7.11699 13.6731 6.95089 13.403 7.01489 13.134C7.55589 10.847 9.58092 9.24902 11.9409 9.24902C13.5669 9.24902 15.064 10.038 16.002 11.3V10.501C16.002 10.225 16.226 10.001 16.502 10.001C16.778 10.001 17 10.226 17 10.502ZM22.5 12C22.5 17.79 17.79 22.5 12 22.5C6.21 22.5 1.5 17.79 1.5 12C1.5 6.21 6.21 1.5 12 1.5C17.79 1.5 22.5 6.21 22.5 12ZM21.5 12C21.5 6.762 17.238 2.5 12 2.5C6.762 2.5 2.5 6.762 2.5 12C2.5 17.238 6.762 21.5 12 21.5C17.238 21.5 21.5 17.238 21.5 12Z" />
</svg>
