<svg viewBox="0 0 24 24" fill="currentColor" stroke="currentColor" xmlns="http://www.w3.org/2000/svg">
<path d="M19.354 10.3539C19.256 10.4519 19.128 10.4999 19 10.4999C18.872 10.4999 18.744 10.4509 18.646 10.3539L12.5 4.20793V20.9999C12.5 21.2759 12.276 21.4999 12 21.4999C11.724 21.4999 11.5 21.2759 11.5 20.9999V4.20695L5.35401 10.3529C5.15901 10.5479 4.84198 10.5479 4.64698 10.3529C4.45198 10.1579 4.45198 9.84092 4.64698 9.64592L11.647 2.64592C11.693 2.59992 11.7491 2.56301 11.8101 2.53801C11.9321 2.48701 12.0699 2.48701 12.1919 2.53801C12.2539 2.56301 12.309 2.59992 12.355 2.64592L19.355 9.64592C19.549 9.84192 19.549 10.1579 19.354 10.3539Z" />
</svg>
