<svg viewBox="0 0 24 24" fill="currentColor" stroke="currentColor" xmlns="http://www.w3.org/2000/svg">
<path d="M19.5 5V15C19.5 15.276 19.276 15.5 19 15.5C18.724 15.5 18.5 15.276 18.5 15V6.20703L6.35401 18.353C6.25601 18.451 6.12801 18.499 6.00001 18.499C5.87201 18.499 5.74401 18.45 5.64601 18.353C5.45101 18.158 5.45101 17.841 5.64601 17.646L17.792 5.5H9.00001C8.72401 5.5 8.50001 5.276 8.50001 5C8.50001 4.724 8.72401 4.5 9.00001 4.5H19C19.065 4.5 19.1299 4.51306 19.1909 4.53906C19.3139 4.59006 19.4109 4.68706 19.4619 4.81006C19.4869 4.87006 19.5 4.935 19.5 5Z" />
</svg>
