<svg viewBox="0 0 24 24" fill="currentColor" stroke="currentColor" xmlns="http://www.w3.org/2000/svg">
<path d="M20.353 12.354L16.353 16.354C16.255 16.452 16.127 16.5 15.999 16.5C15.871 16.5 15.743 16.451 15.645 16.354C15.45 16.159 15.45 15.842 15.645 15.647L18.791 12.501H4C3.724 12.501 3.5 12.277 3.5 12.001C3.5 11.725 3.724 11.501 4 11.501H18.793L15.647 8.35499C15.452 8.15999 15.452 7.84296 15.647 7.64796C15.842 7.45296 16.159 7.45296 16.354 7.64796L20.354 11.648C20.4 11.694 20.4369 11.75 20.4619 11.811C20.5129 11.933 20.5129 12.0711 20.4619 12.1931C20.4359 12.2521 20.399 12.308 20.353 12.354Z" />
</svg>
