<svg viewBox="0 0 24 24" fill="currentColor" stroke="currentColor" xmlns="http://www.w3.org/2000/svg">
<path d="M21.354 3.35401L15.208 9.50001H20C20.276 9.50001 20.5 9.72401 20.5 10C20.5 10.276 20.276 10.5 20 10.5H14C13.935 10.5 13.8701 10.4869 13.8091 10.4609C13.6861 10.4099 13.5891 10.313 13.5381 10.19C13.5131 10.129 13.499 10.064 13.499 9.99903V3.99903C13.499 3.72303 13.723 3.49903 13.999 3.49903C14.275 3.49903 14.499 3.72303 14.499 3.99903V8.792L20.645 2.64601C20.84 2.45101 21.1571 2.45101 21.3521 2.64601C21.5471 2.84101 21.549 3.15801 21.354 3.35401ZM10.1909 13.5391C10.1299 13.5141 10.065 13.5 10 13.5H4.00001C3.72401 13.5 3.50001 13.724 3.50001 14C3.50001 14.276 3.72401 14.5 4.00001 14.5H8.79298L2.64698 20.646C2.45198 20.841 2.45198 21.158 2.64698 21.353C2.74498 21.451 2.87299 21.499 3.00099 21.499C3.12899 21.499 3.25699 21.45 3.35499 21.353L9.50099 15.207V20C9.50099 20.276 9.72499 20.5 10.001 20.5C10.277 20.5 10.501 20.276 10.501 20V14C10.501 13.935 10.4879 13.8701 10.4619 13.8091C10.4109 13.6871 10.3129 13.5891 10.1909 13.5391Z" />
</svg>
