<svg viewBox="0 0 24 24" fill="currentColor" stroke="currentColor" xmlns="http://www.w3.org/2000/svg">
<path d="M17.625 2.5H6.375C3.84 2.5 2.5 3.84 2.5 6.375V17.625C2.5 20.16 3.84 21.5 6.375 21.5H17.625C20.16 21.5 21.5 20.16 21.5 17.625V6.375C21.5 3.84 20.16 2.5 17.625 2.5ZM20.5 17.625C20.5 19.586 19.587 20.5 17.625 20.5H6.375C4.413 20.5 3.5 19.586 3.5 17.625V6.375C3.5 4.414 4.413 3.5 6.375 3.5H17.625C19.587 3.5 20.5 4.414 20.5 6.375V17.625ZM17.0481 13.165C17.1111 13.434 16.945 13.7031 16.677 13.7671C16.638 13.7761 16.6 13.781 16.562 13.781C16.335 13.781 16.1299 13.626 16.0759 13.396C15.6339 11.529 13.978 10.2251 12.051 10.2251C10.586 10.2251 9.25189 11.0109 8.51489 12.2339H9.77808C10.0541 12.2339 10.2781 12.4579 10.2781 12.7339C10.2781 13.0099 10.0541 13.2339 9.77808 13.2339H7.87695C7.76795 13.2759 7.64588 13.2859 7.52588 13.2429C7.50988 13.2369 7.50011 13.225 7.48511 13.218C7.24711 13.18 7.06201 12.9829 7.06201 12.7329V10.52C7.06201 10.244 7.28601 10.02 7.56201 10.02C7.83801 10.02 8.06201 10.244 8.06201 10.52V11.1389C9.01901 9.95692 10.475 9.22412 12.05 9.22412C14.443 9.22412 16.4991 10.844 17.0481 13.165Z" />
</svg>
