<svg viewBox="0 0 24 24" fill="currentColor" stroke="currentColor" xmlns="http://www.w3.org/2000/svg">
<path d="M6.646 8.35392C6.451 8.15892 6.451 7.84189 6.646 7.64689L11.646 2.64689C11.692 2.60089 11.7481 2.56398 11.8091 2.53898C11.9311 2.48798 12.0689 2.48798 12.1909 2.53898C12.2529 2.56398 12.308 2.60089 12.354 2.64689L17.354 7.64689C17.549 7.84189 17.549 8.15892 17.354 8.35392C17.256 8.45192 17.128 8.49992 17 8.49992C16.872 8.49992 16.744 8.45092 16.646 8.35392L12.5 4.20793V16.9999C12.5 17.2759 12.276 17.4999 12 17.4999C11.724 17.4999 11.5 17.2759 11.5 16.9999V4.20695L7.354 8.35295C7.158 8.54895 6.842 8.54892 6.646 8.35392ZM18 20.4999H6C5.724 20.4999 5.5 20.7239 5.5 20.9999C5.5 21.2759 5.724 21.4999 6 21.4999H18C18.276 21.4999 18.5 21.2759 18.5 20.9999C18.5 20.7239 18.276 20.4999 18 20.4999Z" />
</svg>
