<svg viewBox="0 0 24 24" fill="currentColor" stroke="currentColor" xmlns="http://www.w3.org/2000/svg">
<path d="M12 1.5C6.21 1.5 1.5 6.21 1.5 12C1.5 17.79 6.21 22.5 12 22.5C17.79 22.5 22.5 17.79 22.5 12C22.5 6.21 17.79 1.5 12 1.5ZM12 21.5C6.762 21.5 2.5 17.238 2.5 12C2.5 6.762 6.762 2.5 12 2.5C17.238 2.5 21.5 6.762 21.5 12C21.5 17.238 17.238 21.5 12 21.5ZM15.354 14.646C15.549 14.841 15.549 15.158 15.354 15.353C15.256 15.451 15.128 15.499 15 15.499C14.872 15.499 14.744 15.45 14.646 15.353L9.5 10.207V13C9.5 13.276 9.276 13.5 9 13.5C8.724 13.5 8.5 13.276 8.5 13V9C8.5 8.935 8.51306 8.87008 8.53906 8.80908C8.59006 8.68608 8.68706 8.58909 8.81006 8.53809C8.87106 8.51309 8.93598 8.49902 9.00098 8.49902H13.001C13.277 8.49902 13.501 8.72302 13.501 8.99902C13.501 9.27502 13.277 9.49902 13.001 9.49902H10.208L15.354 14.646Z" />
</svg>
