<svg viewBox="0 0 24 24" fill="currentColor" stroke="currentColor" xmlns="http://www.w3.org/2000/svg">
<path d="M21.354 7.35392C21.256 7.45192 21.128 7.49992 21 7.49992C20.872 7.49992 20.744 7.45092 20.646 7.35392L17.5 4.20793V16.9999C17.5 17.2759 17.276 17.4999 17 17.4999C16.724 17.4999 16.5 17.2759 16.5 16.9999V4.20695L13.354 7.35295C13.159 7.54795 12.842 7.54795 12.647 7.35295C12.452 7.15795 12.452 6.84092 12.647 6.64592L16.647 2.64592C16.693 2.59992 16.7491 2.56301 16.8101 2.53801C16.9321 2.48701 17.0699 2.48701 17.1919 2.53801C17.2539 2.56301 17.309 2.59992 17.355 2.64592L21.355 6.64592C21.549 6.84192 21.549 7.15792 21.354 7.35392ZM10.646 16.6459L7.50001 19.7919V6.99992C7.50001 6.72392 7.27601 6.49992 7.00001 6.49992C6.72401 6.49992 6.50001 6.72392 6.50001 6.99992V19.7929L3.35401 16.6469C3.15901 16.4519 2.84198 16.4519 2.64698 16.6469C2.45198 16.8419 2.45198 17.1589 2.64698 17.3539L6.64698 21.3539C6.69298 21.3999 6.74907 21.4368 6.81007 21.4618C6.87107 21.4868 6.93599 21.5009 7.00099 21.5009C7.06599 21.5009 7.1309 21.4878 7.1919 21.4618C7.2539 21.4368 7.30899 21.3999 7.35499 21.3539L11.355 17.3539C11.55 17.1589 11.55 16.8419 11.355 16.6469C11.16 16.4519 10.842 16.4509 10.646 16.6459Z" />
</svg>
