<svg viewBox="0 0 24 24" fill="currentColor" stroke="currentColor" xmlns="http://www.w3.org/2000/svg">
<path d="M17.625 2.5H6.375C3.84 2.5 2.5 3.84 2.5 6.375V17.625C2.5 20.16 3.84 21.5 6.375 21.5H17.625C20.16 21.5 21.5 20.16 21.5 17.625V6.375C21.5 3.84 20.16 2.5 17.625 2.5ZM20.5 17.625C20.5 19.586 19.587 20.5 17.625 20.5H6.375C4.413 20.5 3.5 19.586 3.5 17.625V6.375C3.5 4.414 4.413 3.5 6.375 3.5H17.625C19.587 3.5 20.5 4.414 20.5 6.375V17.625ZM17 12V13.5C17 14.603 16.103 15.5 15 15.5H8.70703L9.35303 16.146C9.54803 16.341 9.54803 16.658 9.35303 16.853C9.25503 16.951 9.12702 16.999 8.99902 16.999C8.87102 16.999 8.74302 16.95 8.64502 16.853L7.14502 15.353C7.09902 15.307 7.06211 15.2509 7.03711 15.1899C6.98611 15.0679 6.98611 14.9301 7.03711 14.8081C7.06211 14.7461 7.09902 14.691 7.14502 14.645L8.64502 13.145C8.84002 12.95 9.15705 12.95 9.35205 13.145C9.54705 13.34 9.54705 13.6571 9.35205 13.8521L8.70605 14.498H15C15.552 14.498 16 14.049 16 13.498V11.998C16 11.722 16.224 11.498 16.5 11.498C16.776 11.498 17 11.724 17 12ZM16.9609 8.80908C17.0119 8.93108 17.0119 9.06892 16.9609 9.19092C16.9359 9.25292 16.899 9.308 16.853 9.354L15.353 10.854C15.255 10.952 15.127 11 14.999 11C14.871 11 14.743 10.951 14.645 10.854C14.45 10.659 14.45 10.342 14.645 10.147L15.291 9.50098H9C8.448 9.50098 8 9.94998 8 10.501V12.001C8 12.277 7.776 12.501 7.5 12.501C7.224 12.501 7 12.277 7 12.001V10.501C7 9.39798 7.897 8.50098 9 8.50098H15.293L14.647 7.85498C14.452 7.65998 14.452 7.34295 14.647 7.14795C14.842 6.95295 15.159 6.95295 15.354 7.14795L16.854 8.64795C16.899 8.69195 16.9359 8.74808 16.9609 8.80908Z" />
</svg>
