<svg viewBox="0 0 24 24" fill="currentColor" stroke="currentColor" xmlns="http://www.w3.org/2000/svg">
<path d="M17.625 2.5H6.375C3.84 2.5 2.5 3.84 2.5 6.375V17.625C2.5 20.16 3.84 21.5 6.375 21.5H17.625C20.16 21.5 21.5 20.16 21.5 17.625V6.375C21.5 3.84 20.16 2.5 17.625 2.5ZM20.5 17.625C20.5 19.586 19.587 20.5 17.625 20.5H6.375C4.413 20.5 3.5 19.586 3.5 17.625V6.375C3.5 4.414 4.413 3.5 6.375 3.5H17.625C19.587 3.5 20.5 4.414 20.5 6.375V17.625ZM12.022 14.98C12.217 15.175 12.217 15.492 12.022 15.687L10.355 17.353C10.309 17.399 10.2529 17.4359 10.1919 17.4609C10.1309 17.4859 10.066 17.5 10.001 17.5C9.93598 17.5 9.87106 17.4869 9.81006 17.4609C9.74806 17.4359 9.69297 17.399 9.64697 17.353L7.97998 15.687C7.78498 15.492 7.78498 15.175 7.97998 14.98C8.17498 14.785 8.49201 14.785 8.68701 14.98L9.5 15.793V9C9.5 8.724 9.724 8.5 10 8.5C10.276 8.5 10.5 8.724 10.5 9V15.793L11.313 14.98C11.511 14.785 11.827 14.785 12.022 14.98ZM16.019 8.31299C16.214 8.50799 16.214 8.82502 16.019 9.02002C15.921 9.11802 15.793 9.16602 15.665 9.16602C15.537 9.16602 15.409 9.11702 15.311 9.02002L14.498 8.20703V15C14.498 15.276 14.274 15.5 13.998 15.5C13.722 15.5 13.498 15.276 13.498 15V8.20703L12.6851 9.02002C12.4901 9.21502 12.173 9.21502 11.978 9.02002C11.783 8.82502 11.783 8.50799 11.978 8.31299L13.645 6.64697C13.691 6.60097 13.7471 6.56406 13.8081 6.53906C13.9301 6.48806 14.0679 6.48806 14.1899 6.53906C14.2519 6.56406 14.307 6.60097 14.353 6.64697L16.019 8.31299Z" />
</svg>
