<svg viewBox="0 0 24 24" fill="currentColor" stroke="currentColor" xmlns="http://www.w3.org/2000/svg">
<path d="M16.354 8.35392C16.256 8.45192 16.128 8.49992 16 8.49992C15.872 8.49992 15.744 8.45092 15.646 8.35392L12.5 5.20793V19.9999C12.5 20.2759 12.276 20.4999 12 20.4999C11.724 20.4999 11.5 20.2759 11.5 19.9999V5.20695L8.35401 8.35295C8.15901 8.54795 7.84198 8.54795 7.64698 8.35295C7.45198 8.15795 7.45198 7.84092 7.64698 7.64592L11.647 3.64592C11.693 3.59992 11.7491 3.56301 11.8101 3.53801C11.9321 3.48701 12.0699 3.48701 12.1919 3.53801C12.2539 3.56301 12.309 3.59992 12.355 3.64592L16.355 7.64592C16.549 7.84192 16.549 8.15792 16.354 8.35392Z" />
</svg>
