<svg viewBox="0 0 24 24" fill="currentColor" stroke="currentColor" xmlns="http://www.w3.org/2000/svg">
<path d="M21.115 15.4861C21.076 15.4951 21.038 15.5 21 15.5C20.773 15.5 20.5669 15.345 20.5139 15.115C19.5919 11.22 16.1411 8.5 12.1201 8.5C8.75312 8.5 5.72095 10.49 4.32495 13.5H7.00488C7.28088 13.5 7.50488 13.724 7.50488 14C7.50488 14.276 7.28088 14.5 7.00488 14.5H3C2.724 14.5 2.5 14.276 2.5 14V10C2.5 9.724 2.724 9.5 3 9.5C3.276 9.5 3.5 9.724 3.5 10V12.864C5.1 9.62001 8.44012 7.5 12.1201 7.5C16.6061 7.5 20.4581 10.537 21.4861 14.885C21.5501 15.154 21.384 15.4231 21.115 15.4861Z" />
</svg>
