<svg viewBox="0 0 24 24" fill="currentColor" stroke="currentColor" xmlns="http://www.w3.org/2000/svg">
<path d="M12 1.5C6.21 1.5 1.5 6.21 1.5 12C1.5 17.79 6.21 22.5 12 22.5C17.79 22.5 22.5 17.79 22.5 12C22.5 6.21 17.79 1.5 12 1.5ZM12 21.5C6.762 21.5 2.5 17.238 2.5 12C2.5 6.762 6.762 2.5 12 2.5C17.238 2.5 21.5 6.762 21.5 12C21.5 17.238 17.238 21.5 12 21.5ZM16.5 12C16.5 12.276 16.276 12.5 16 12.5H9.20703L11.353 14.646C11.548 14.841 11.548 15.158 11.353 15.353C11.255 15.451 11.127 15.499 10.999 15.499C10.871 15.499 10.743 15.45 10.645 15.353L7.64502 12.353C7.59902 12.307 7.56211 12.2509 7.53711 12.1899C7.48611 12.0679 7.48611 11.9301 7.53711 11.8081C7.56211 11.7461 7.59902 11.691 7.64502 11.645L10.645 8.64502C10.84 8.45002 11.1571 8.45002 11.3521 8.64502C11.5471 8.84002 11.5471 9.15705 11.3521 9.35205L9.20605 11.498H16C16.276 11.5 16.5 11.724 16.5 12Z" />
</svg>
