<svg viewBox="0 0 24 24" fill="currentColor" stroke="currentColor" xmlns="http://www.w3.org/2000/svg">
<path d="M18.354 7.35392C18.256 7.45192 18.128 7.49992 18 7.49992C17.872 7.49992 17.744 7.45092 17.646 7.35392L14.5 4.20793V17.9999C14.5 19.9299 12.93 21.4999 11 21.4999H6C5.724 21.4999 5.5 21.2759 5.5 20.9999C5.5 20.7239 5.724 20.4999 6 20.4999H11C12.379 20.4999 13.5 19.3779 13.5 17.9999V4.20695L10.354 7.35295C10.159 7.54795 9.84197 7.54795 9.64697 7.35295C9.45197 7.15795 9.45197 6.84092 9.64697 6.64592L13.647 2.64592C13.693 2.59992 13.7491 2.56301 13.8101 2.53801C13.9321 2.48701 14.0699 2.48701 14.1919 2.53801C14.2539 2.56301 14.309 2.59992 14.355 2.64592L18.355 6.64592C18.549 6.84192 18.549 7.15792 18.354 7.35392Z" />
</svg>
