<svg viewBox="0 0 24 24" fill="currentColor" stroke="currentColor" xmlns="http://www.w3.org/2000/svg">
<path d="M17.4999 12C17.4999 12.276 17.2759 12.5 16.9999 12.5H4.20695L8.35295 16.646C8.54795 16.841 8.54795 17.158 8.35295 17.353C8.25495 17.451 8.12694 17.499 7.99894 17.499C7.87094 17.499 7.74294 17.45 7.64494 17.353L2.64494 12.353C2.59894 12.307 2.56203 12.2509 2.53703 12.1899C2.48603 12.0679 2.48603 11.9301 2.53703 11.8081C2.56203 11.7461 2.59894 11.691 2.64494 11.645L7.64494 6.64502C7.83994 6.45002 8.15697 6.45002 8.35197 6.64502C8.54697 6.84002 8.54697 7.15705 8.35197 7.35205L4.20597 11.498H16.9999C17.2759 11.5 17.4999 11.724 17.4999 12ZM20.9999 5.5C20.7239 5.5 20.4999 5.724 20.4999 6V18C20.4999 18.276 20.7239 18.5 20.9999 18.5C21.2759 18.5 21.4999 18.276 21.4999 18V6C21.4999 5.724 21.2759 5.5 20.9999 5.5Z" />
</svg>
