<svg viewBox="0 0 24 24" fill="currentColor" stroke="currentColor" xmlns="http://www.w3.org/2000/svg">
<path d="M16.648 16.5001H7.35114C6.62214 16.5001 5.98017 16.0912 5.67317 15.4332C5.36817 14.7782 5.46915 14.0282 5.93415 13.4752L10.316 8.2821C11.152 7.2891 12.8472 7.2891 13.6832 8.2821L18.064 13.4752C18.53 14.0282 18.63 14.7782 18.326 15.4332C18.02 16.0912 17.377 16.5001 16.648 16.5001ZM12.0001 8.50012C11.6441 8.50012 11.3091 8.65515 11.0801 8.92615L6.69904 14.119C6.48404 14.374 6.43915 14.7081 6.58015 15.0101C6.72315 15.3161 7.01114 15.4991 7.35114 15.4991H16.648C16.989 15.4991 17.277 15.3161 17.419 15.0101C17.56 14.7081 17.5151 14.374 17.2991 14.119L12.919 8.92615C12.691 8.65515 12.3561 8.50012 12.0001 8.50012ZM10.6981 8.60413H10.7081H10.6981Z" />
</svg>
