<svg viewBox="0 0 24 24" fill="currentColor" stroke="currentColor" xmlns="http://www.w3.org/2000/svg">
<path d="M15.719 10.315L10.5249 5.93606C9.9719 5.46906 9.22509 5.36912 8.56909 5.67312C7.91009 5.97912 7.50098 6.6221 7.50098 7.3511V16.648C7.50098 17.377 7.91009 18.02 8.56909 18.326C8.82009 18.443 9.08495 18.5 9.34595 18.5C9.76795 18.5 10.1839 18.352 10.5249 18.064L15.719 13.6841C16.216 13.2651 16.5 12.651 16.5 11.999C16.5 11.347 16.216 10.734 15.719 10.315ZM15.074 12.9199L9.87988 17.3001C9.62388 17.5151 9.29099 17.5599 8.98999 17.4199C8.68199 17.2769 8.5 16.9889 8.5 16.6489V7.35207C8.5 7.01107 8.68299 6.72308 8.98999 6.58108C9.10599 6.52708 9.22597 6.50002 9.34497 6.50002C9.53497 6.50002 9.72191 6.56795 9.87891 6.70095L15.073 11.0811C15.344 11.3101 15.499 11.645 15.499 12.001C15.5 12.356 15.345 12.6909 15.074 12.9199Z" />
</svg>
