<svg viewBox="0 0 24 24" fill="currentColor" stroke="currentColor" xmlns="http://www.w3.org/2000/svg">
<path d="M17.625 2.5H6.375C3.84 2.5 2.5 3.84 2.5 6.375V17.625C2.5 20.16 3.84 21.5 6.375 21.5H17.625C20.16 21.5 21.5 20.16 21.5 17.625V6.375C21.5 3.84 20.16 2.5 17.625 2.5ZM20.5 17.625C20.5 19.586 19.587 20.5 17.625 20.5H6.375C4.413 20.5 3.5 19.586 3.5 17.625V6.375C3.5 4.414 4.413 3.5 6.375 3.5H17.625C19.587 3.5 20.5 4.414 20.5 6.375V17.625ZM15.0991 9.33301H8.9021C8.3501 9.33301 7.86408 9.64311 7.63208 10.1411C7.40208 10.6371 7.47708 11.204 7.83008 11.623L10.75 15.0859C11.061 15.4539 11.517 15.666 12 15.666C12.483 15.666 12.939 15.4549 13.25 15.0859L16.1699 11.624C16.5239 11.206 16.5999 10.6381 16.3689 10.1431C16.1379 9.64407 15.6501 9.33301 15.0991 9.33301ZM15.406 10.979L12.4861 14.4409C12.2441 14.7269 11.7559 14.7269 11.5129 14.4409L8.59399 10.979C8.44799 10.807 8.50611 10.63 8.53711 10.562C8.56211 10.508 8.6629 10.333 8.8999 10.333H15.0969C15.3349 10.333 15.436 10.509 15.46 10.563C15.493 10.631 15.551 10.807 15.406 10.979Z" />
</svg>
