<svg viewBox="0 0 24 24" fill="currentColor" stroke="currentColor" xmlns="http://www.w3.org/2000/svg">
<path d="M12 1.5C6.21 1.5 1.5 6.21 1.5 12C1.5 17.79 6.21 22.5 12 22.5C17.79 22.5 22.5 17.79 22.5 12C22.5 6.21 17.79 1.5 12 1.5ZM12 21.5C6.762 21.5 2.5 17.238 2.5 12C2.5 6.762 6.762 2.5 12 2.5C17.238 2.5 21.5 6.762 21.5 12C21.5 17.238 17.238 21.5 12 21.5ZM13.8579 7.6311C13.3619 7.4001 12.794 7.4771 12.376 7.8291L8.91406 10.749C8.54506 11.06 8.33301 11.516 8.33301 11.999C8.33301 12.482 8.54506 12.938 8.91406 13.249L12.376 16.1689C12.634 16.3869 12.949 16.499 13.27 16.499C13.468 16.499 13.6689 16.4559 13.8589 16.3669C14.3579 16.1349 14.668 15.6489 14.668 15.0969V8.8999C14.667 8.3499 14.3569 7.8631 13.8579 7.6311ZM13.667 15.0991C13.667 15.3371 13.491 15.4369 13.438 15.4619C13.372 15.4939 13.196 15.552 13.021 15.406L9.55908 12.4861C9.41508 12.3651 9.33301 12.188 9.33301 12C9.33301 11.812 9.41508 11.6349 9.55908 11.5139L13.021 8.59399C13.107 8.52199 13.1941 8.5 13.2671 8.5C13.3421 8.5 13.404 8.52209 13.438 8.53809C13.492 8.56309 13.667 8.66288 13.667 8.90088V15.0991Z" />
</svg>
