<svg viewBox="0 0 24 24" fill="currentColor" stroke="currentColor" xmlns="http://www.w3.org/2000/svg">
<path d="M12 1.5C6.21 1.5 1.5 6.21 1.5 12C1.5 17.79 6.21 22.5 12 22.5C17.79 22.5 22.5 17.79 22.5 12C22.5 6.21 17.79 1.5 12 1.5ZM12 21.5C6.762 21.5 2.5 17.238 2.5 12C2.5 6.762 6.762 2.5 12 2.5C17.238 2.5 21.5 6.762 21.5 12C21.5 17.238 17.238 21.5 12 21.5ZM15.0991 9.33301H8.9021C8.3501 9.33301 7.8631 9.64309 7.6311 10.1421C7.4011 10.6381 7.47708 11.205 7.83008 11.623L10.75 15.0859C11.061 15.4539 11.517 15.666 12 15.666C12.483 15.666 12.939 15.4549 13.25 15.0859L16.1699 11.624C16.5239 11.206 16.5999 10.6381 16.3689 10.1431C16.1379 9.64407 15.6501 9.33301 15.0991 9.33301ZM15.406 10.979L12.4861 14.4409C12.2441 14.7269 11.7559 14.7269 11.5129 14.4409L8.59302 10.979C8.44802 10.807 8.50611 10.631 8.53711 10.563C8.56111 10.509 8.6619 10.333 8.8999 10.333H15.0969C15.3349 10.333 15.436 10.509 15.46 10.563C15.493 10.631 15.551 10.807 15.406 10.979Z" />
</svg>
