<svg viewBox="0 0 24 24" fill="currentColor" stroke="currentColor" xmlns="http://www.w3.org/2000/svg">
<path d="M17.625 2.5H6.375C3.84 2.5 2.5 3.84 2.5 6.375V17.625C2.5 20.16 3.84 21.5 6.375 21.5H17.625C20.16 21.5 21.5 20.16 21.5 17.625V6.375C21.5 3.84 20.16 2.5 17.625 2.5ZM20.5 17.625C20.5 19.586 19.587 20.5 17.625 20.5H6.375C4.413 20.5 3.5 19.586 3.5 17.625V6.375C3.5 4.414 4.413 3.5 6.375 3.5H17.625C19.587 3.5 20.5 4.414 20.5 6.375V17.625ZM13.25 8.91309C12.629 8.17709 11.371 8.17709 10.75 8.91309L7.83008 12.375C7.47608 12.793 7.4001 13.361 7.6311 13.856C7.8621 14.355 8.3501 14.665 8.9021 14.665H15.0991C15.6511 14.665 16.1381 14.355 16.3701 13.856C16.6001 13.36 16.5239 12.793 16.1709 12.375L13.25 8.91309ZM15.4619 13.437C15.4379 13.491 15.3371 13.667 15.0991 13.667H8.9021C8.6641 13.667 8.56306 13.491 8.53906 13.437C8.50806 13.369 8.44997 13.193 8.59497 13.021L11.5149 9.55908C11.7569 9.27308 12.245 9.27308 12.488 9.55908L15.408 13.021C15.551 13.193 15.4929 13.369 15.4619 13.437Z" />
</svg>
