<svg viewBox="0 0 24 24" fill="currentColor" stroke="currentColor" xmlns="http://www.w3.org/2000/svg">
<path d="M17.625 2.5H6.375C3.84 2.5 2.5 3.84 2.5 6.375V17.625C2.5 20.16 3.84 21.5 6.375 21.5H17.625C20.16 21.5 21.5 20.16 21.5 17.625V6.375C21.5 3.84 20.16 2.5 17.625 2.5ZM20.5 17.625C20.5 19.586 19.587 20.5 17.625 20.5H6.375C4.413 20.5 3.5 19.586 3.5 17.625V6.375C3.5 4.414 4.413 3.5 6.375 3.5H17.625C19.587 3.5 20.5 4.414 20.5 6.375V17.625ZM11.624 7.83008C11.207 7.47808 10.6391 7.40108 10.1421 7.63208C9.64309 7.86408 9.33301 8.3501 9.33301 8.9021V15.0991C9.33301 15.6511 9.64309 16.1369 10.1421 16.3689C10.3311 16.4569 10.533 16.501 10.731 16.501C11.051 16.501 11.367 16.3889 11.625 16.1709L15.0869 13.251C15.4559 12.94 15.668 12.484 15.668 12.001C15.668 11.518 15.4559 11.062 15.0869 10.751L11.624 7.83008ZM14.4409 12.4861L10.979 15.406C10.805 15.552 10.63 15.4939 10.562 15.4619C10.508 15.4369 10.333 15.3371 10.333 15.0991V8.9021C10.333 8.6641 10.509 8.56406 10.562 8.53906C10.596 8.52306 10.6579 8.50098 10.7329 8.50098C10.8059 8.50098 10.893 8.52297 10.979 8.59497L14.4409 11.5149C14.5849 11.6359 14.667 11.813 14.667 12.001C14.667 12.189 14.5849 12.3651 14.4409 12.4861Z" />
</svg>
