<svg viewBox="0 0 24 24" fill="currentColor" stroke="currentColor" xmlns="http://www.w3.org/2000/svg">
<path d="M18.3259 8.56689C18.0189 7.90889 17.377 7.5 16.648 7.5H7.3511C6.6221 7.5 5.98012 7.90889 5.67312 8.56689C5.36812 9.22189 5.46908 9.9719 5.93508 10.5249L10.3159 15.718C10.7339 16.215 11.348 16.5 12 16.5C12.652 16.5 13.2661 16.215 13.6841 15.718L18.0659 10.5249C18.5299 9.9719 18.6309 9.22189 18.3259 8.56689ZM17.301 9.87988L12.9199 15.073C12.4629 15.615 11.5371 15.615 11.0801 15.073L6.69997 9.87988C6.48397 9.62488 6.4391 9.29101 6.5801 8.98901C6.7231 8.68301 7.0111 8.5 7.3511 8.5H16.648C16.989 8.5 17.277 8.68301 17.419 8.98901C17.561 9.29201 17.516 9.62488 17.301 9.87988Z" />
</svg>
