<svg viewBox="0 0 24 24" fill="currentColor" stroke="currentColor" xmlns="http://www.w3.org/2000/svg">
<path d="M15.4319 5.67312C14.7769 5.36812 14.0281 5.46908 13.4761 5.93508L8.28198 10.315C7.78498 10.734 7.50098 11.348 7.50098 12C7.50098 12.652 7.78498 13.2661 8.28198 13.6851L13.4761 18.064C13.8171 18.352 14.233 18.501 14.655 18.501C14.917 18.501 15.1809 18.4439 15.4319 18.3269C16.0909 18.0209 16.5 17.3779 16.5 16.6489V7.35207C16.5 6.62307 16.0909 5.97912 15.4319 5.67312ZM15.5 16.648C15.5 16.989 15.317 17.277 15.01 17.419C14.707 17.56 14.3751 17.5151 14.1201 17.2991L8.92603 12.919C8.65503 12.69 8.5 12.355 8.5 11.999C8.5 11.643 8.65503 11.3081 8.92603 11.0791L14.1201 6.699C14.3751 6.484 14.707 6.43812 15.01 6.57912C15.318 6.72212 15.5 7.01012 15.5 7.35012V16.648Z" />
</svg>
