<svg viewBox="0 0 24 24" fill="currentColor" stroke="currentColor" xmlns="http://www.w3.org/2000/svg">
<path d="M10.5 5.99989V20.9999C10.5 21.2019 10.3779 21.3848 10.1909 21.4618C10.1289 21.4878 10.064 21.4999 10 21.4999C9.87001 21.4999 9.74201 21.4489 9.64601 21.3539L4.64601 16.3539C4.45101 16.1589 4.45101 15.8419 4.64601 15.6469C4.84101 15.4519 5.15804 15.4519 5.35304 15.6469L9.49903 19.7929V5.99989C9.49903 5.72389 9.72303 5.49989 9.99903 5.49989C10.275 5.49989 10.5 5.72389 10.5 5.99989ZM20.354 7.64589L15.354 2.64589C15.211 2.50289 14.9971 2.45998 14.8091 2.53798C14.6221 2.61498 14.5 2.79789 14.5 2.99989V17.9999C14.5 18.2759 14.724 18.4999 15 18.4999C15.276 18.4999 15.5 18.2759 15.5 17.9999V4.20693L19.646 8.35292C19.841 8.54792 20.158 8.54792 20.353 8.35292C20.548 8.15792 20.549 7.84189 20.354 7.64589Z" />
</svg>
