<svg viewBox="0 0 24 24" fill="currentColor" stroke="currentColor" xmlns="http://www.w3.org/2000/svg">
<path d="M21.3539 14.354L16.3539 19.354C16.2559 19.452 16.1279 19.5 15.9999 19.5C15.8719 19.5 15.7439 19.451 15.6459 19.354C15.4509 19.159 15.4509 18.842 15.6459 18.647L19.7919 14.501H5.99989C5.72389 14.501 5.49989 14.277 5.49989 14.001C5.49989 13.725 5.72389 13.501 5.99989 13.501H20.9999C21.2019 13.501 21.3848 13.6231 21.4618 13.8101C21.5388 13.9971 21.4959 14.21 21.3539 14.354ZM18.4999 9.00001C18.4999 8.72401 18.2759 8.50001 17.9999 8.50001H4.20693L8.35292 4.35401C8.54792 4.15901 8.54792 3.84198 8.35292 3.64698C8.15792 3.45198 7.84089 3.45198 7.64589 3.64698L2.64589 8.64698C2.50289 8.78998 2.45998 9.0049 2.53798 9.1919C2.61598 9.3789 2.79789 9.50099 2.99989 9.50099H17.9999C18.2759 9.49999 18.4999 9.27601 18.4999 9.00001Z" />
</svg>
