<svg viewBox="0 0 24 24" fill="currentColor" stroke="currentColor" xmlns="http://www.w3.org/2000/svg">
<path d="M17.4619 13.3091C17.5389 13.4961 17.496 13.711 17.354 13.854L14.354 16.854C14.256 16.952 14.128 17 14 17C13.872 17 13.744 16.951 13.646 16.854C13.451 16.659 13.451 16.342 13.646 16.147L15.792 14.001H9C8.724 14.001 8.5 13.777 8.5 13.501C8.5 13.225 8.724 13.001 9 13.001H17C17.202 13 17.3849 13.1221 17.4619 13.3091ZM15.5 10.5C15.5 10.224 15.276 10 15 10H8.20703L10.353 7.854C10.548 7.659 10.548 7.34197 10.353 7.14697C10.158 6.95197 9.841 6.95197 9.646 7.14697L6.646 10.147C6.503 10.29 6.46009 10.5049 6.53809 10.6919C6.61609 10.8789 6.798 11.001 7 11.001H15C15.276 11 15.5 10.776 15.5 10.5ZM22.5 12C22.5 17.79 17.79 22.5 12 22.5C6.21 22.5 1.5 17.79 1.5 12C1.5 6.21 6.21 1.5 12 1.5C17.79 1.5 22.5 6.21 22.5 12ZM21.5 12C21.5 6.762 17.238 2.5 12 2.5C6.762 2.5 2.5 6.762 2.5 12C2.5 17.238 6.762 21.5 12 21.5C17.238 21.5 21.5 17.238 21.5 12Z" />
</svg>
