<svg viewBox="0 0 24 24" fill="currentColor" stroke="currentColor" xmlns="http://www.w3.org/2000/svg">
<path d="M17.625 2.5H6.375C3.84 2.5 2.5 3.84 2.5 6.375V17.625C2.5 20.16 3.84 21.5 6.375 21.5H17.625C20.16 21.5 21.5 20.16 21.5 17.625V6.375C21.5 3.84 20.16 2.5 17.625 2.5ZM20.5 17.625C20.5 19.586 19.587 20.5 17.625 20.5H6.375C4.413 20.5 3.5 19.586 3.5 17.625V6.375C3.5 4.414 4.413 3.5 6.375 3.5H17.625C19.587 3.5 20.5 4.414 20.5 6.375V17.625ZM16.4031 9.8479C16.5981 10.0429 16.5981 10.3599 16.4031 10.5549C16.2081 10.7499 15.891 10.7499 15.696 10.5549L13.8491 8.70898V14.7019C13.8491 14.9779 13.6251 15.2019 13.3491 15.2019C13.0731 15.2019 12.8491 14.9779 12.8491 14.7019V7.50195C12.8491 7.29995 12.971 7.11704 13.158 7.04004C13.346 6.96204 13.5599 7.00595 13.7029 7.14795L16.4031 9.8479ZM11.1499 9.302V16.502C11.1499 16.704 11.0281 16.8871 10.8411 16.9641C10.7791 16.9901 10.7139 17.002 10.6499 17.002C10.5199 17.002 10.3919 16.951 10.2959 16.856L7.59595 14.156C7.40095 13.961 7.40095 13.644 7.59595 13.449C7.79095 13.254 8.10798 13.254 8.30298 13.449L10.1499 15.2959V9.30298C10.1499 9.02698 10.3739 8.80298 10.6499 8.80298C10.9259 8.80298 11.1499 9.025 11.1499 9.302Z" />
</svg>
