<svg viewBox="0 0 24 24" fill="currentColor" stroke="currentColor" xmlns="http://www.w3.org/2000/svg">
<path d="M16.854 9.646C17.049 9.841 17.049 10.158 16.854 10.353C16.659 10.548 16.342 10.548 16.147 10.353L14.001 8.20703V15C14.001 15.276 13.777 15.5 13.501 15.5C13.225 15.5 13.001 15.276 13.001 15V7C13.001 6.798 13.1231 6.61509 13.3101 6.53809C13.4971 6.46109 13.712 6.504 13.855 6.646L16.854 9.646ZM10.5 8.5C10.224 8.5 10 8.724 10 9V15.793L7.854 13.647C7.659 13.452 7.34197 13.452 7.14697 13.647C6.95197 13.842 6.95197 14.159 7.14697 14.354L10.147 17.354C10.243 17.45 10.371 17.5 10.501 17.5C10.565 17.5 10.6309 17.4879 10.6919 17.4619C10.8789 17.3849 11.001 17.202 11.001 17V9C11 8.724 10.776 8.5 10.5 8.5ZM22.5 12C22.5 17.79 17.79 22.5 12 22.5C6.21 22.5 1.5 17.79 1.5 12C1.5 6.21 6.21 1.5 12 1.5C17.79 1.5 22.5 6.21 22.5 12ZM21.5 12C21.5 6.762 17.238 2.5 12 2.5C6.762 2.5 2.5 6.762 2.5 12C2.5 17.238 6.762 21.5 12 21.5C17.238 21.5 21.5 17.238 21.5 12Z" />
</svg>
