<svg viewBox="0 0 24 24" fill="currentColor" stroke="currentColor" xmlns="http://www.w3.org/2000/svg">
<path d="M17.625 2.5H6.375C3.84 2.5 2.5 3.84 2.5 6.375V17.625C2.5 20.16 3.84 21.5 6.375 21.5H17.625C20.16 21.5 21.5 20.16 21.5 17.625V6.375C21.5 3.84 20.16 2.5 17.625 2.5ZM20.5 17.625C20.5 19.586 19.587 20.5 17.625 20.5H6.375C4.413 20.5 3.5 19.586 3.5 17.625V6.375C3.5 4.414 4.413 3.5 6.375 3.5H17.625C19.587 3.5 20.5 4.414 20.5 6.375V17.625ZM16.9619 13.1609C17.0389 13.3479 16.996 13.5631 16.854 13.7061L14.1541 16.406C14.0561 16.504 13.928 16.552 13.8 16.552C13.672 16.552 13.544 16.503 13.446 16.406C13.251 16.211 13.251 15.894 13.446 15.699L15.293 13.853H9.30005C9.02405 13.853 8.80005 13.629 8.80005 13.353C8.80005 13.077 9.02405 12.853 9.30005 12.853H16.5C16.702 12.852 16.8849 12.9739 16.9619 13.1609ZM14.7 11.1521H7.5C7.298 11.1521 7.11509 11.03 7.03809 10.843C6.96109 10.656 7.004 10.4411 7.146 10.2981L9.84595 7.5979C10.0409 7.4029 10.358 7.4029 10.553 7.5979C10.748 7.7929 10.748 8.10993 10.553 8.30493L8.70605 10.1521H14.699C14.975 10.1521 15.199 10.3761 15.199 10.6521C15.199 10.9281 14.977 11.1521 14.7 11.1521Z" />
</svg>
