<svg viewBox="0 0 24 24" fill="currentColor" stroke="currentColor" xmlns="http://www.w3.org/2000/svg">
<path d="M19.5 8V5.20703L12.707 12L19.5 18.793V16C19.5 15.724 19.724 15.5 20 15.5C20.276 15.5 20.5 15.724 20.5 16V20C20.5 20.065 20.4869 20.1299 20.4609 20.1909C20.4099 20.3139 20.3129 20.4109 20.1899 20.4619C20.1289 20.4869 20.064 20.501 19.999 20.501H15.999C15.723 20.501 15.499 20.277 15.499 20.001C15.499 19.725 15.723 19.501 15.999 19.501H18.792L11.999 12.708L5.20605 19.501H8C8.276 19.501 8.5 19.725 8.5 20.001C8.5 20.277 8.276 20.501 8 20.501H4C3.935 20.501 3.87008 20.4879 3.80908 20.4619C3.68608 20.4109 3.58909 20.3139 3.53809 20.1909C3.51309 20.1299 3.49902 20.065 3.49902 20V16C3.49902 15.724 3.72302 15.5 3.99902 15.5C4.27502 15.5 4.49902 15.724 4.49902 16V18.793L11.292 12L4.49902 5.20703V8C4.49902 8.276 4.27502 8.5 3.99902 8.5C3.72302 8.5 3.49902 8.276 3.49902 8V4C3.49902 3.935 3.51209 3.87008 3.53809 3.80908C3.58909 3.68608 3.68608 3.58909 3.80908 3.53809C3.87008 3.51309 3.935 3.49902 4 3.49902H8C8.276 3.49902 8.5 3.72302 8.5 3.99902C8.5 4.27502 8.276 4.49902 8 4.49902H5.20703L12 11.292L18.793 4.49902H16C15.724 4.49902 15.5 4.27502 15.5 3.99902C15.5 3.72302 15.724 3.49902 16 3.49902H20C20.065 3.49902 20.1299 3.51209 20.1909 3.53809C20.3139 3.58909 20.4109 3.68608 20.4619 3.80908C20.4869 3.87008 20.501 3.935 20.501 4V8C20.501 8.276 20.277 8.5 20.001 8.5C19.725 8.5 19.5 8.276 19.5 8Z" />
</svg>
