<svg viewBox="0 0 24 24" fill="currentColor" stroke="currentColor" xmlns="http://www.w3.org/2000/svg">
<path d="M14.5391 9.19093C14.5141 9.12993 14.5 9.06501 14.5 9.00001V5.00001C14.5 4.72401 14.724 4.50001 15 4.50001C15.276 4.50001 15.5 4.72401 15.5 5.00001V7.79298L20.646 2.64698C20.841 2.45198 21.158 2.45198 21.353 2.64698C21.548 2.84198 21.548 3.15901 21.353 3.35401L16.207 8.50001H19C19.276 8.50001 19.5 8.72401 19.5 9.00001C19.5 9.27601 19.276 9.50001 19 9.50001H15C14.935 9.50001 14.8701 9.48695 14.8091 9.46095C14.6871 9.41095 14.5891 9.31293 14.5391 9.19093ZM9.00001 4.50001C8.72401 4.50001 8.50001 4.72401 8.50001 5.00001V7.79298L3.35401 2.64698C3.15901 2.45198 2.84198 2.45198 2.64698 2.64698C2.45198 2.84198 2.45198 3.15901 2.64698 3.35401L7.79298 8.50001H5.00001C4.72401 8.50001 4.50001 8.72401 4.50001 9.00001C4.50001 9.27601 4.72401 9.50001 5.00001 9.50001H9.00001C9.06501 9.50001 9.12993 9.48695 9.19093 9.46095C9.31393 9.40995 9.41092 9.31295 9.46192 9.18995C9.48692 9.12895 9.50099 9.06403 9.50099 8.99903V4.99903C9.49999 4.72403 9.27601 4.50001 9.00001 4.50001ZM16.207 15.5H19C19.276 15.5 19.5 15.276 19.5 15C19.5 14.724 19.276 14.5 19 14.5H15C14.935 14.5 14.8701 14.5131 14.8091 14.5391C14.6861 14.5901 14.5891 14.6871 14.5381 14.8101C14.5131 14.8711 14.499 14.936 14.499 15.001V19.001C14.499 19.277 14.723 19.501 14.999 19.501C15.275 19.501 15.499 19.277 15.499 19.001V16.208L20.645 21.354C20.743 21.452 20.871 21.5 20.999 21.5C21.127 21.5 21.255 21.451 21.353 21.354C21.548 21.159 21.548 20.842 21.353 20.647L16.207 15.5ZM9.19093 14.5391C9.12993 14.5141 9.06501 14.5 9.00001 14.5H5.00001C4.72401 14.5 4.50001 14.724 4.50001 15C4.50001 15.276 4.72401 15.5 5.00001 15.5H7.79298L2.64698 20.646C2.45198 20.841 2.45198 21.158 2.64698 21.353C2.74498 21.451 2.87299 21.499 3.00099 21.499C3.12899 21.499 3.25699 21.45 3.35499 21.353L8.50099 16.207V19C8.50099 19.276 8.72499 19.5 9.00099 19.5C9.27699 19.5 9.50099 19.276 9.50099 19V15C9.50099 14.935 9.48792 14.8701 9.46192 14.8091C9.41092 14.6871 9.31293 14.5891 9.19093 14.5391Z" />
</svg>
