<svg viewBox="0 0 24 24" fill="currentColor" stroke="currentColor" xmlns="http://www.w3.org/2000/svg">
<path d="M16.5 8.44409V10.666C16.5 10.942 16.276 11.166 16 11.166H15.7371H15.7361H13.7781C13.5021 11.166 13.2781 10.942 13.2781 10.666C13.2781 10.39 13.5021 10.166 13.7781 10.166H14.97C14.344 9.15002 13.23 8.49902 12.001 8.49902C10.071 8.49902 8.50098 10.069 8.50098 11.999C8.50098 13.929 10.071 15.499 12.001 15.499C13.339 15.499 14.539 14.7539 15.135 13.5549C15.258 13.3059 15.5609 13.2071 15.8059 13.3291C16.0529 13.4521 16.154 13.752 16.032 13.999C15.265 15.541 13.721 16.499 12.002 16.499C9.52095 16.499 7.50195 14.48 7.50195 11.999C7.50195 9.51802 9.52095 7.49902 12.002 7.49902C13.39 7.49902 14.665 8.14408 15.502 9.18408V8.44409C15.502 8.16809 15.726 7.94409 16.002 7.94409C16.278 7.94409 16.5 8.16809 16.5 8.44409ZM22.5 12C22.5 17.79 17.79 22.5 12 22.5C6.21 22.5 1.5 17.79 1.5 12C1.5 6.21 6.21 1.5 12 1.5C17.79 1.5 22.5 6.21 22.5 12ZM21.5 12C21.5 6.762 17.238 2.5 12 2.5C6.762 2.5 2.5 6.762 2.5 12C2.5 17.238 6.762 21.5 12 21.5C17.238 21.5 21.5 17.238 21.5 12Z" />
</svg>
