<svg viewBox="0 0 24 24" fill="currentColor" stroke="currentColor" xmlns="http://www.w3.org/2000/svg">
<path d="M16.5 12C16.5 14.481 14.481 16.5 12 16.5C10.28 16.5 8.73597 15.542 7.96997 14C7.84797 13.753 7.94904 13.4531 8.19604 13.3301C8.44104 13.2081 8.74294 13.3069 8.86694 13.5559C9.46294 14.7549 10.663 15.5 12.001 15.5C13.931 15.5 15.501 13.93 15.501 12C15.501 10.07 13.931 8.5 12.001 8.5C10.772 8.5 9.65798 9.15099 9.03198 10.167H10.2241C10.5001 10.167 10.7241 10.391 10.7241 10.667C10.7241 10.943 10.5001 11.167 10.2241 11.167H8C7.724 11.167 7.5 10.943 7.5 10.667V8.44507C7.5 8.16907 7.724 7.94507 8 7.94507C8.276 7.94507 8.5 8.16907 8.5 8.44507V9.18506C9.337 8.14506 10.612 7.5 12 7.5C14.481 7.5 16.5 9.519 16.5 12ZM22.5 12C22.5 17.79 17.79 22.5 12 22.5C6.21 22.5 1.5 17.79 1.5 12C1.5 6.21 6.21 1.5 12 1.5C17.79 1.5 22.5 6.21 22.5 12ZM21.5 12C21.5 6.762 17.238 2.5 12 2.5C6.762 2.5 2.5 6.762 2.5 12C2.5 17.238 6.762 21.5 12 21.5C17.238 21.5 21.5 17.238 21.5 12Z" />
</svg>
