<svg viewBox="0 0 24 24" fill="currentColor" stroke="currentColor" xmlns="http://www.w3.org/2000/svg">
<path d="M21.5 4V9C21.5 9.276 21.276 9.5 21 9.5H20.4509C20.4499 9.5 20.449 9.5 20.448 9.5H16C15.724 9.5 15.5 9.276 15.5 9C15.5 8.724 15.724 8.5 16 8.5H19.7141C18.3531 5.49 15.352 3.5 12 3.5C7.313 3.5 3.5 7.313 3.5 12C3.5 16.687 7.313 20.5 12 20.5C15.249 20.5 18.1651 18.6901 19.6111 15.7781C19.7351 15.5291 20.036 15.43 20.282 15.552C20.529 15.675 20.6301 15.9749 20.5081 16.2219C18.8911 19.4769 15.631 21.5 12 21.5C6.762 21.5 2.5 17.238 2.5 12C2.5 6.762 6.762 2.5 12 2.5C15.635 2.5 18.917 4.58303 20.5 7.78003V4C20.5 3.724 20.724 3.5 21 3.5C21.276 3.5 21.5 3.724 21.5 4Z" />
</svg>
