<svg viewBox="0 0 24 24" fill="currentColor" stroke="currentColor" xmlns="http://www.w3.org/2000/svg">
<path d="M17.625 2.5H6.375C3.84 2.5 2.5 3.84 2.5 6.375V17.625C2.5 20.16 3.84 21.5 6.375 21.5H17.625C20.16 21.5 21.5 20.16 21.5 17.625V6.375C21.5 3.84 20.16 2.5 17.625 2.5ZM20.5 17.625C20.5 19.586 19.587 20.5 17.625 20.5H6.375C4.413 20.5 3.5 19.586 3.5 17.625V6.375C3.5 4.414 4.413 3.5 6.375 3.5H17.625C19.587 3.5 20.5 4.414 20.5 6.375V17.625ZM16.8279 13.2471C16.2739 15.4571 14.289 17 12 17C10.4 17 8.927 16.229 8 14.99V16C8 16.276 7.776 16.5 7.5 16.5C7.224 16.5 7 16.276 7 16V13.5C7 13.224 7.224 13 7.5 13H7.77002C7.77902 13 7.78692 12.999 7.79492 13H10C10.276 13 10.5 13.224 10.5 13.5C10.5 13.776 10.276 14 10 14H8.5481C9.2541 15.217 10.56 16 12 16C13.83 16 15.4159 14.7679 15.8569 13.0029C15.9239 12.7349 16.1989 12.5729 16.4629 12.6399C16.7319 12.7069 16.8949 12.9791 16.8279 13.2471ZM17 8V10.5C17 10.776 16.776 11 16.5 11H16.2241C16.2171 11 16.2111 11 16.2041 11H14C13.724 11 13.5 10.776 13.5 10.5C13.5 10.224 13.724 10 14 10H15.4519C14.7459 8.783 13.44 8 12 8C10.17 8 8.58407 9.23207 8.14307 10.9971C8.08507 11.2241 7.88196 11.375 7.65796 11.375C7.61796 11.375 7.57711 11.3701 7.53711 11.3601C7.26811 11.2931 7.1061 11.0219 7.1731 10.7539C7.7271 8.54391 9.71198 7.00098 12.001 7.00098C13.601 7.00098 15.073 7.77199 16.001 9.01099V8C16.001 7.724 16.225 7.5 16.501 7.5C16.777 7.5 17 7.724 17 8Z" />
</svg>
