<svg viewBox="0 0 24 24" fill="currentColor" stroke="currentColor" xmlns="http://www.w3.org/2000/svg">
<path d="M17.625 2.5H6.375C3.84 2.5 2.5 3.84 2.5 6.375V17.625C2.5 20.16 3.84 21.5 6.375 21.5H17.625C20.16 21.5 21.5 20.16 21.5 17.625V6.375C21.5 3.84 20.16 2.5 17.625 2.5ZM20.5 17.625C20.5 19.586 19.587 20.5 17.625 20.5H6.375C4.413 20.5 3.5 19.586 3.5 17.625V6.375C3.5 4.414 4.413 3.5 6.375 3.5H17.625C19.587 3.5 20.5 4.414 20.5 6.375V17.625ZM16.5 8.44604V10.668C16.5 10.944 16.276 11.168 16 11.168H13.7771C13.5011 11.168 13.2771 10.944 13.2771 10.668C13.2771 10.392 13.5011 10.168 13.7771 10.168H14.969C14.343 9.15197 13.229 8.50098 12 8.50098C10.07 8.50098 8.5 10.071 8.5 12.001C8.5 13.931 10.07 15.501 12 15.501C13.338 15.501 14.538 14.7559 15.134 13.5569C15.257 13.3079 15.5599 13.2081 15.8049 13.3311C16.0519 13.4541 16.153 13.754 16.031 14.001C15.264 15.543 13.72 16.501 12.001 16.501C9.51998 16.501 7.50098 14.482 7.50098 12.001C7.50098 9.51998 9.51998 7.50098 12.001 7.50098C13.389 7.50098 14.664 8.14604 15.501 9.18604V8.44604C15.501 8.17004 15.725 7.94604 16.001 7.94604C16.277 7.94604 16.5 8.17004 16.5 8.44604Z" />
</svg>
