<svg viewBox="0 0 24 24" fill="currentColor" stroke="currentColor" xmlns="http://www.w3.org/2000/svg">
<path d="M21.5 12C21.5 17.238 17.238 21.5 12 21.5C8.369 21.5 5.10894 19.4779 3.49194 16.2219C3.36994 15.9749 3.47102 15.675 3.71802 15.552C3.96402 15.43 4.26492 15.5291 4.38892 15.7781C5.83492 18.6911 8.751 20.5 12 20.5C16.687 20.5 20.5 16.687 20.5 12C20.5 7.313 16.687 3.5 12 3.5C8.648 3.5 5.64689 5.49 4.28589 8.5H8C8.276 8.5 8.5 8.724 8.5 9C8.5 9.276 8.276 9.5 8 9.5H3C2.724 9.5 2.5 9.276 2.5 9V4C2.5 3.724 2.724 3.5 3 3.5C3.276 3.5 3.5 3.724 3.5 4V7.78003C5.083 4.58303 8.365 2.5 12 2.5C17.238 2.5 21.5 6.762 21.5 12Z" />
</svg>
