<svg viewBox="0 0 24 24" fill="currentColor" stroke="currentColor" xmlns="http://www.w3.org/2000/svg">
<path d="M21.438 13.054C20.914 17.869 16.856 21.5 12 21.5C8.365 21.5 5.083 19.417 3.5 16.22V20C3.5 20.276 3.276 20.5 3 20.5C2.724 20.5 2.5 20.276 2.5 20V15C2.5 14.724 2.724 14.5 3 14.5H8C8.276 14.5 8.5 14.724 8.5 15C8.5 15.276 8.276 15.5 8 15.5H4.28589C5.64689 18.51 8.648 20.5 12 20.5C16.345 20.5 19.9751 17.252 20.4431 12.946C20.4731 12.672 20.7339 12.4739 20.9939 12.5029C21.2699 12.5329 21.468 12.78 21.438 13.054ZM21 3.5C20.724 3.5 20.5 3.724 20.5 4V7.78003C18.917 4.58303 15.635 2.5 12 2.5C7.145 2.5 3.08701 6.13104 2.56201 10.946C2.53201 11.22 2.72988 11.4671 3.00488 11.4971C3.02288 11.4991 3.04106 11.5 3.06006 11.5C3.31206 11.5 3.52791 11.31 3.55591 11.054C4.02491 6.74695 7.65502 3.5 11.999 3.5C15.351 3.5 18.3519 5.49 19.7129 8.5H16C15.724 8.5 15.5 8.724 15.5 9C15.5 9.276 15.724 9.5 16 9.5H20.448C20.449 9.5 20.4499 9.5 20.4509 9.5H21C21.276 9.5 21.5 9.276 21.5 9V4C21.5 3.724 21.276 3.5 21 3.5Z" />
</svg>
