<svg viewBox="0 0 24 24" fill="currentColor" stroke="currentColor" xmlns="http://www.w3.org/2000/svg">
<path d="M16.5 12.002C16.5 14.483 14.481 16.502 12 16.502C10.28 16.502 8.73597 15.544 7.96997 14.002C7.84797 13.755 7.94904 13.455 8.19604 13.332C8.44104 13.209 8.74294 13.3091 8.86694 13.5581C9.46294 14.7571 10.663 15.502 12.001 15.502C13.931 15.502 15.501 13.932 15.501 12.002C15.501 10.072 13.931 8.50195 12.001 8.50195C10.772 8.50195 9.65798 9.15295 9.03198 10.1689H10.2241C10.5001 10.1689 10.7241 10.3929 10.7241 10.6689C10.7241 10.9449 10.5001 11.1689 10.2241 11.1689H8C7.724 11.1689 7.5 10.9449 7.5 10.6689V8.44702C7.5 8.17102 7.724 7.94702 8 7.94702C8.276 7.94702 8.5 8.17102 8.5 8.44702V9.18701C9.337 8.14701 10.612 7.50195 12 7.50195C14.481 7.50195 16.5 9.52095 16.5 12.002ZM21.5 6.375V17.625C21.5 20.16 20.16 21.5 17.625 21.5H6.375C3.84 21.5 2.5 20.16 2.5 17.625V6.375C2.5 3.84 3.84 2.5 6.375 2.5H17.625C20.16 2.5 21.5 3.84 21.5 6.375ZM20.5 6.375C20.5 4.414 19.587 3.5 17.625 3.5H6.375C4.413 3.5 3.5 4.414 3.5 6.375V17.625C3.5 19.586 4.413 20.5 6.375 20.5H17.625C19.587 20.5 20.5 19.586 20.5 17.625V6.375Z" />
</svg>
