<svg viewBox="0 0 24 24" fill="currentColor" stroke="currentColor" xmlns="http://www.w3.org/2000/svg">
<path d="M16.8279 13.2471C16.2739 15.4571 14.289 17 12 17C10.4 17 8.927 16.229 8 14.99V16C8 16.276 7.776 16.5 7.5 16.5C7.224 16.5 7 16.276 7 16V13.5C7 13.224 7.224 13 7.5 13H7.76709C7.77709 13 7.78712 12.999 7.79712 13H10C10.276 13 10.5 13.224 10.5 13.5C10.5 13.776 10.276 14 10 14H8.5481C9.2541 15.217 10.56 16 12 16C13.83 16 15.4159 14.7679 15.8569 13.0029C15.9239 12.7349 16.1989 12.5699 16.4629 12.6399C16.7319 12.7069 16.8949 12.9791 16.8279 13.2471ZM16.5 7.5C16.224 7.5 16 7.724 16 8V9.01001C15.072 7.77101 13.6 7 12 7C9.711 7 7.72612 8.54293 7.17212 10.7529C7.10612 11.0209 7.26789 11.2929 7.53589 11.3589C7.57589 11.3689 7.61698 11.374 7.65698 11.374C7.88198 11.374 8.08509 11.2231 8.14209 10.9961C8.58309 9.23109 10.169 7.99902 11.999 7.99902C13.439 7.99902 14.7459 8.78202 15.4509 9.99902H14C13.724 9.99902 13.5 10.223 13.5 10.499C13.5 10.775 13.724 10.999 14 10.999H16.2019C16.2109 11 16.22 10.999 16.229 10.999H16.5C16.776 10.999 17 10.775 17 10.499V7.99902C17 7.72402 16.776 7.5 16.5 7.5ZM22.5 12C22.5 17.79 17.79 22.5 12 22.5C6.21 22.5 1.5 17.79 1.5 12C1.5 6.21 6.21 1.5 12 1.5C17.79 1.5 22.5 6.21 22.5 12ZM21.5 12C21.5 6.762 17.238 2.5 12 2.5C6.762 2.5 2.5 6.762 2.5 12C2.5 17.238 6.762 21.5 12 21.5C17.238 21.5 21.5 17.238 21.5 12Z" />
</svg>
