<svg viewBox="0 0 24 24" fill="currentColor" stroke="currentColor" xmlns="http://www.w3.org/2000/svg">
<path d="M7.23904 10.833H15.76C16.445 10.833 17.0489 10.4491 17.3369 9.83007C17.6219 9.21507 17.5281 8.51093 17.0901 7.99193L13.075 3.23095C12.29 2.30095 10.7081 2.30095 9.92312 3.23095L5.90798 7.99193C5.46998 8.51093 5.37591 9.21507 5.66091 9.83007C5.94991 10.4491 6.55504 10.833 7.23904 10.833ZM6.67312 8.63695L10.689 3.87597C10.689 3.87597 10.689 3.87597 10.69 3.87597C10.891 3.63697 11.186 3.49999 11.501 3.49999C11.816 3.49999 12.11 3.63697 12.313 3.87597L16.3291 8.63695C16.5161 8.85895 16.5551 9.14693 16.4331 9.40893C16.3091 9.67493 16.059 9.83397 15.763 9.83397H7.24197C6.94597 9.83397 6.69605 9.67493 6.57205 9.40893C6.44705 9.14593 6.48612 8.85795 6.67312 8.63695ZM15.761 13.167H7.24002C6.55502 13.167 5.95111 13.5509 5.66311 14.1699C5.37811 14.7849 5.47194 15.489 5.90994 16.008L9.92507 20.769C10.3181 21.234 10.892 21.5 11.501 21.5C12.11 21.5 12.6849 21.233 13.0769 20.769L17.0921 16.008C17.5301 15.489 17.6241 14.7849 17.3391 14.1699C17.0501 13.5509 16.445 13.167 15.761 13.167ZM16.3269 15.363L12.3111 20.124C12.3111 20.124 12.3111 20.124 12.3101 20.124C11.9081 20.602 11.092 20.602 10.688 20.124L6.67214 15.363C6.48514 15.141 6.44614 14.8531 6.56814 14.5911C6.69214 14.3251 6.94206 14.166 7.23806 14.166H15.7591C16.0551 14.166 16.305 14.3251 16.429 14.5911C16.553 14.8541 16.5139 15.142 16.3269 15.363Z" />
</svg>
