<svg viewBox="0 0 24 24" fill="currentColor" stroke="currentColor" xmlns="http://www.w3.org/2000/svg">
<path d="M10.354 8.35401L6.70802 12L10.354 15.646C10.549 15.841 10.549 16.158 10.354 16.353C10.256 16.451 10.128 16.499 10 16.499C9.87201 16.499 9.74401 16.45 9.64601 16.353L5.64601 12.353C5.45101 12.158 5.45101 11.841 5.64601 11.646L9.64601 7.64601C9.84101 7.45101 10.158 7.45101 10.353 7.64601C10.548 7.84101 10.549 8.15801 10.354 8.35401ZM18.354 11.646L14.354 7.64601C14.159 7.45101 13.842 7.45101 13.647 7.64601C13.452 7.84101 13.452 8.15804 13.647 8.35304L17.293 11.999L13.647 15.645C13.452 15.84 13.452 16.1571 13.647 16.3521C13.745 16.4501 13.873 16.4981 14.001 16.4981C14.129 16.4981 14.257 16.4491 14.355 16.3521L18.355 12.3521C18.549 12.1581 18.549 11.842 18.354 11.646Z" />
</svg>
