<svg viewBox="0 0 24 24" fill="currentColor" stroke="currentColor" xmlns="http://www.w3.org/2000/svg">
<path d="M16.354 13.646C16.549 13.841 16.549 14.158 16.354 14.353L12.354 18.353C12.256 18.451 12.128 18.499 12 18.499C11.872 18.499 11.744 18.45 11.646 18.353L7.64601 14.353C7.45101 14.158 7.45101 13.841 7.64601 13.646C7.84101 13.451 8.15804 13.451 8.35304 13.646L11.999 17.292L15.645 13.646C15.842 13.451 16.158 13.451 16.354 13.646ZM8.35401 10.354L12 6.70802L15.646 10.354C15.744 10.452 15.872 10.5 16 10.5C16.128 10.5 16.256 10.451 16.354 10.354C16.549 10.159 16.549 9.84198 16.354 9.64698L12.354 5.64698C12.159 5.45198 11.842 5.45198 11.647 5.64698L7.64698 9.64698C7.45198 9.84198 7.45198 10.159 7.64698 10.354C7.84198 10.549 8.15801 10.549 8.35401 10.354Z" />
</svg>
