<svg viewBox="0 0 24 24" fill="currentColor" stroke="currentColor" xmlns="http://www.w3.org/2000/svg">
<path d="M21 14.25H19.75V9.75H21C21.414 9.75 21.75 9.414 21.75 9C21.75 8.586 21.414 8.25 21 8.25H19.75V6C19.75 3.582 18.418 2.25 16 2.25H6C3.582 2.25 2.25 3.582 2.25 6V18C2.25 20.418 3.582 21.75 6 21.75H16C18.418 21.75 19.75 20.418 19.75 18V15.75H21C21.414 15.75 21.75 15.414 21.75 15C21.75 14.586 21.414 14.25 21 14.25ZM18.25 18C18.25 19.577 17.577 20.25 16 20.25H6C4.423 20.25 3.75 19.577 3.75 18V6C3.75 4.423 4.423 3.75 6 3.75H16C17.577 3.75 18.25 4.423 18.25 6V18ZM11 11.75C12.517 11.75 13.75 10.516 13.75 9C13.75 7.484 12.517 6.25 11 6.25C9.483 6.25 8.25 7.484 8.25 9C8.25 10.516 9.483 11.75 11 11.75ZM11 7.75C11.689 7.75 12.25 8.311 12.25 9C12.25 9.689 11.689 10.25 11 10.25C10.311 10.25 9.75 9.689 9.75 9C9.75 8.311 10.311 7.75 11 7.75ZM15.75 16.36V17C15.75 17.414 15.414 17.75 15 17.75C14.586 17.75 14.25 17.414 14.25 17V16.36C14.25 15.31 13.5111 14.25 11.8601 14.25H10.1389C8.48892 14.25 7.74902 15.31 7.74902 16.36V17C7.74902 17.414 7.41302 17.75 6.99902 17.75C6.58502 17.75 6.24902 17.414 6.24902 17V16.36C6.24902 14.566 7.58492 12.75 10.1389 12.75H11.8601C14.4141 12.75 15.75 14.566 15.75 16.36Z" />
</svg>
