<svg viewBox="0 0 24 24" fill="currentColor" stroke="currentColor" xmlns="http://www.w3.org/2000/svg">
<path d="M21.0911 10.409L16.5911 5.909C16.1731 5.49 15.593 5.25 15 5.25H6C3.582 5.25 2.25 6.582 2.25 9V15C2.25 17.418 3.582 18.75 6 18.75H15C15.593 18.75 16.1731 18.51 16.5911 18.091L21.0911 13.591C21.5161 13.166 21.75 12.601 21.75 12C21.75 11.399 21.5161 10.834 21.0911 10.409ZM20.03 12.53L15.53 17.03C15.39 17.169 15.197 17.249 15 17.249H6C4.423 17.249 3.75 16.576 3.75 14.999V8.99899C3.75 7.42199 4.423 6.74899 6 6.74899H15C15.197 6.74899 15.391 6.82899 15.53 6.96899L20.03 11.469C20.172 11.611 20.25 11.799 20.25 11.999C20.25 12.199 20.172 12.388 20.03 12.53ZM12.53 10.53L11.0601 12L12.53 13.47C12.823 13.763 12.823 14.238 12.53 14.531C12.384 14.677 12.192 14.751 12 14.751C11.808 14.751 11.616 14.678 11.47 14.531L10 13.061L8.53003 14.531C8.38403 14.677 8.192 14.751 8 14.751C7.808 14.751 7.61597 14.678 7.46997 14.531C7.17697 14.238 7.17697 13.763 7.46997 13.47L8.93994 12L7.46997 10.53C7.17697 10.237 7.17697 9.76199 7.46997 9.46899C7.76297 9.17599 8.23801 9.17599 8.53101 9.46899L10.001 10.939L11.4709 9.46899C11.7639 9.17599 12.239 9.17599 12.532 9.46899C12.823 9.76199 12.823 10.238 12.53 10.53Z" />
</svg>
