<svg viewBox="0 0 24 24" fill="currentColor" stroke="currentColor" xmlns="http://www.w3.org/2000/svg">
<path d="M12 19.75H5C2.582 19.75 1.25 18.418 1.25 16V7C1.25 4.582 2.582 3.25 5 3.25H17C19.418 3.25 20.75 4.582 20.75 7V11C20.75 11.414 20.414 11.75 20 11.75C19.586 11.75 19.25 11.414 19.25 11V7C19.25 5.423 18.577 4.75 17 4.75H5C3.423 4.75 2.75 5.423 2.75 7V16C2.75 17.577 3.423 18.25 5 18.25H12C12.414 18.25 12.75 18.586 12.75 19C12.75 19.414 12.414 19.75 12 19.75ZM12.0291 12.179L16.9409 8.60699C17.2759 8.36399 17.35 7.89401 17.106 7.55901C16.864 7.22501 16.3951 7.149 16.0581 7.394L11.146 10.966C11.058 11.03 10.941 11.03 10.853 10.966L5.94092 7.394C5.60392 7.149 5.13507 7.22601 4.89307 7.55901C4.64907 7.89401 4.72311 8.36299 5.05811 8.60699L9.96997 12.18C10.278 12.404 10.639 12.515 10.999 12.515C11.359 12.515 11.7221 12.403 12.0291 12.179ZM20.0271 20.869C20.0271 20.725 20.1101 20.589 20.2461 20.513C20.3901 20.431 20.5701 20.43 20.7161 20.513C21.1361 20.749 21.6589 20.611 21.9089 20.196L22.575 19.077C22.68 18.903 22.7241 18.598 22.6731 18.401C22.6131 18.172 22.4599 17.975 22.2529 17.859C22.2489 17.857 22.245 17.855 22.241 17.853C22.113 17.776 22.033 17.642 22.033 17.502C22.033 17.356 22.117 17.218 22.251 17.142L22.3669 17.077C22.5429 16.978 22.6721 16.812 22.7241 16.617C22.7761 16.422 22.747 16.213 22.644 16.04L21.842 14.694C21.633 14.345 21.1861 14.225 20.8311 14.423L20.7151 14.488C20.5691 14.57 20.3899 14.569 20.2439 14.487C20.1089 14.412 20.0259 14.275 20.0259 14.131C20.0259 13.645 19.6301 13.25 19.1411 13.25H17.8069C17.3189 13.25 16.9221 13.645 16.9221 14.131C16.9221 14.275 16.8391 14.412 16.7051 14.487C16.5581 14.57 16.3769 14.568 16.2329 14.488C15.8179 14.256 15.28 14.397 15.041 14.805L14.3689 15.932C14.2669 16.106 14.2251 16.41 14.2781 16.605C14.3391 16.832 14.492 17.028 14.698 17.143C14.832 17.219 14.916 17.356 14.917 17.5C14.917 17.646 14.8331 17.783 14.6951 17.861C14.4891 17.977 14.3371 18.175 14.2771 18.403C14.2251 18.597 14.2691 18.901 14.3721 19.074L15.042 20.199C15.287 20.609 15.8109 20.749 16.2339 20.514C16.3789 20.433 16.5579 20.432 16.7029 20.514C16.7039 20.514 16.7041 20.514 16.7041 20.514C16.8381 20.589 16.9209 20.725 16.9209 20.87C16.9209 21.356 17.3169 21.751 17.8059 21.751H19.1421C19.6311 21.75 20.0271 21.355 20.0271 20.869ZM17.4419 19.206C17.0229 18.969 16.532 18.898 16.072 18.992L15.9351 18.763C16.2431 18.417 16.419 17.967 16.418 17.494C16.416 17.027 16.2391 16.582 15.9341 16.238L16.072 16.007C16.535 16.101 17.0241 16.029 17.4431 15.794C17.8591 15.559 18.1671 15.185 18.3181 14.75H18.6321C18.7831 15.184 19.0911 15.559 19.5071 15.793C19.9261 16.03 20.4149 16.101 20.8789 16.007L21.0161 16.237C20.7091 16.583 20.533 17.031 20.533 17.503C20.534 17.972 20.7111 18.418 21.0161 18.762L20.8779 18.992C20.4189 18.899 19.9271 18.969 19.5081 19.206C19.0921 19.441 18.7831 19.816 18.6321 20.25H18.3181C18.1671 19.816 17.8589 19.441 17.4419 19.206ZM21.45 19.204C21.449 19.204 21.449 19.203 21.448 19.203C21.449 19.204 21.449 19.204 21.45 19.204ZM15.4341 15.833C15.4351 15.834 15.436 15.834 15.437 15.835C15.436 15.834 15.4351 15.834 15.4341 15.833ZM15.502 15.796C15.503 15.796 15.5039 15.797 15.5049 15.798C15.5039 15.797 15.503 15.797 15.502 15.796ZM16.334 15.568L16.3301 15.575C16.3311 15.573 16.333 15.571 16.334 15.568ZM19.52 17.5C19.52 16.948 19.073 16.5 18.52 16.5H18.51C17.958 16.5 17.5149 16.948 17.5149 17.5C17.5149 18.052 17.968 18.5 18.52 18.5C19.072 18.5 19.52 18.052 19.52 17.5Z" />
</svg>
