<svg viewBox="0 0 24 24" fill="currentColor" stroke="currentColor" xmlns="http://www.w3.org/2000/svg">
<path d="M12.75 19C12.75 19.414 12.414 19.75 12 19.75H5C2.582 19.75 1.25 18.418 1.25 16V7C1.25 4.582 2.582 3.25 5 3.25H17C19.418 3.25 20.75 4.582 20.75 7V11C20.75 11.414 20.414 11.75 20 11.75C19.586 11.75 19.25 11.414 19.25 11V7C19.25 5.423 18.577 4.75 17 4.75H5C3.423 4.75 2.75 5.423 2.75 7V16C2.75 17.577 3.423 18.25 5 18.25H12C12.414 18.25 12.75 18.586 12.75 19ZM16.0591 7.394L11.147 10.966C11.059 11.029 10.942 11.029 10.854 10.966L5.94189 7.394C5.60489 7.149 5.13704 7.22601 4.89404 7.55901C4.65004 7.89401 4.72408 8.36399 5.05908 8.60699L9.97095 12.179C10.2789 12.403 10.64 12.515 11 12.515C11.36 12.515 11.7221 12.403 12.0291 12.179L16.9409 8.60699C17.2759 8.36399 17.35 7.89401 17.106 7.55901C16.863 7.22501 16.3961 7.148 16.0591 7.394ZM22.75 17.5C22.75 19.844 20.844 21.75 18.5 21.75C16.156 21.75 14.25 19.844 14.25 17.5C14.25 15.156 16.156 13.25 18.5 13.25C20.844 13.25 22.75 15.156 22.75 17.5ZM15.75 17.5C15.75 17.985 15.8869 18.435 16.1089 18.831L19.8311 15.108C19.4351 14.887 18.986 14.75 18.5 14.75C16.983 14.75 15.75 15.983 15.75 17.5ZM21.25 17.5C21.25 17.015 21.1131 16.565 20.8911 16.169L17.1689 19.892C17.5649 20.113 18.014 20.25 18.5 20.25C20.017 20.25 21.25 19.017 21.25 17.5Z" />
</svg>
