<svg viewBox="0 0 24 24" fill="currentColor" stroke="currentColor" xmlns="http://www.w3.org/2000/svg">
<path d="M21.689 13.009C21.689 13.006 21.6909 13.003 21.6909 13C21.6909 12.991 21.686 12.984 21.686 12.975C21.674 12.904 21.6601 12.833 21.6431 12.762C21.6351 12.738 21.6311 12.714 21.6211 12.691C21.5731 12.504 21.525 12.318 21.448 12.138L19.469 7.522C18.968 6.353 18.495 5.24899 16.022 5.24899C15.608 5.24899 15.272 5.58499 15.272 5.99899C15.272 6.41299 15.608 6.74899 16.022 6.74899C17.506 6.74899 17.6411 7.06501 18.0901 8.11301L19.863 12.249H17.0449C15.7949 12.249 14.6361 12.954 13.9431 14.136C13.5421 14.822 12.797 15.249 12 15.249C11.203 15.249 10.4579 14.822 10.0569 14.135C9.36488 12.954 8.20508 12.249 6.95508 12.249H4.13696L5.90991 8.11301C6.35891 7.06501 6.49403 6.74899 7.97803 6.74899C8.39203 6.74899 8.72803 6.41299 8.72803 5.99899C8.72803 5.58499 8.39203 5.24899 7.97803 5.24899C5.50403 5.24899 5.03201 6.353 4.53101 7.522L2.552 12.139C2.475 12.318 2.42691 12.504 2.37891 12.69C2.36891 12.713 2.36493 12.738 2.35693 12.762C2.33993 12.832 2.32696 12.903 2.31396 12.974C2.31396 12.983 2.30908 12.99 2.30908 12.999C2.30908 13.002 2.31104 13.004 2.31104 13.008C2.27804 13.208 2.25 13.41 2.25 13.615V18C2.25 20.418 3.582 21.75 6 21.75H18C20.418 21.75 21.75 20.418 21.75 18V13.616C21.75 13.41 21.722 13.209 21.689 13.009ZM18 20.25H6C4.423 20.25 3.75 19.577 3.75 18V13.75H6.95508C7.66708 13.75 8.34196 14.178 8.76196 14.894C9.43096 16.039 10.672 16.75 12 16.75C13.328 16.75 14.569 16.039 15.238 14.895C15.658 14.178 16.3329 13.75 17.0449 13.75H20.25V18C20.25 19.577 19.577 20.25 18 20.25ZM9.46997 8.53C9.17697 8.237 9.17697 7.76199 9.46997 7.46899C9.76297 7.17599 10.238 7.17599 10.531 7.46899L11.251 8.189V2C11.251 1.586 11.587 1.25 12.001 1.25C12.415 1.25 12.751 1.586 12.751 2V8.189L13.4709 7.46899C13.7639 7.17599 14.239 7.17599 14.532 7.46899C14.825 7.76199 14.825 8.237 14.532 8.53L12.532 10.53C12.463 10.599 12.3801 10.654 12.2881 10.692C12.1961 10.73 12.099 10.75 12.001 10.75C11.903 10.75 11.8061 10.73 11.7141 10.692C11.6221 10.654 11.539 10.599 11.47 10.53L9.46997 8.53Z" />
</svg>
