<svg viewBox="0 0 24 24" fill="currentColor" stroke="currentColor" xmlns="http://www.w3.org/2000/svg">
<path d="M16 17.75H14C13.586 17.75 13.25 17.414 13.25 17C13.25 16.586 13.586 16.25 14 16.25H16C18.344 16.25 20.25 14.344 20.25 12C20.25 9.65599 18.344 7.74999 16 7.74999H14C13.586 7.74999 13.25 7.41399 13.25 6.99999C13.25 6.58599 13.586 6.24999 14 6.24999H16C19.171 6.24999 21.75 8.82899 21.75 12C21.75 15.171 19.171 17.75 16 17.75ZM10.75 17C10.75 16.586 10.414 16.25 10 16.25H8C5.656 16.25 3.75 14.344 3.75 12C3.75 9.65599 5.656 7.74999 8 7.74999H10C10.414 7.74999 10.75 7.41399 10.75 6.99999C10.75 6.58599 10.414 6.24999 10 6.24999H8C4.829 6.24999 2.25 8.82899 2.25 12C2.25 15.171 4.829 17.75 8 17.75H10C10.414 17.75 10.75 17.414 10.75 17ZM11.03 4.52999C11.323 4.23699 11.323 3.76199 11.03 3.46899L10.03 2.46899C9.73703 2.17599 9.26199 2.17599 8.96899 2.46899C8.67599 2.76199 8.67599 3.23699 8.96899 3.52999L9.96899 4.52999C10.115 4.67599 10.307 4.74999 10.499 4.74999C10.691 4.74999 10.884 4.67699 11.03 4.52999ZM14.03 4.52999L15.03 3.52999C15.323 3.23699 15.323 2.76199 15.03 2.46899C14.737 2.17599 14.262 2.17599 13.969 2.46899L12.969 3.46899C12.676 3.76199 12.676 4.23699 12.969 4.52999C13.115 4.67599 13.307 4.74999 13.499 4.74999C13.691 4.74999 13.884 4.67699 14.03 4.52999ZM15.03 21.53C15.323 21.237 15.323 20.762 15.03 20.469L14.03 19.469C13.737 19.176 13.262 19.176 12.969 19.469C12.676 19.762 12.676 20.237 12.969 20.53L13.969 21.53C14.115 21.676 14.307 21.75 14.499 21.75C14.691 21.75 14.884 21.677 15.03 21.53ZM10.03 21.53L11.03 20.53C11.323 20.237 11.323 19.762 11.03 19.469C10.737 19.176 10.262 19.176 9.96899 19.469L8.96899 20.469C8.67599 20.762 8.67599 21.237 8.96899 21.53C9.11499 21.676 9.30702 21.75 9.49902 21.75C9.69102 21.75 9.88403 21.677 10.03 21.53Z" />
</svg>
