<svg viewBox="0 0 24 24" fill="currentColor" stroke="currentColor" xmlns="http://www.w3.org/2000/svg">
<path d="M15 12.75H9C8.586 12.75 8.25 12.414 8.25 12C8.25 11.586 8.586 11.25 9 11.25H15C15.414 11.25 15.75 11.586 15.75 12C15.75 12.414 15.414 12.75 15 12.75ZM21.75 12C21.75 8.829 19.171 6.25 16 6.25H14C13.586 6.25 13.25 6.586 13.25 7C13.25 7.414 13.586 7.75 14 7.75H16C18.344 7.75 20.25 9.656 20.25 12C20.25 14.344 18.344 16.25 16 16.25H14C13.586 16.25 13.25 16.586 13.25 17C13.25 17.414 13.586 17.75 14 17.75H16C19.171 17.75 21.75 15.171 21.75 12ZM10.75 17C10.75 16.586 10.414 16.25 10 16.25H8C5.656 16.25 3.75 14.344 3.75 12C3.75 9.656 5.656 7.75 8 7.75H10C10.414 7.75 10.75 7.414 10.75 7C10.75 6.586 10.414 6.25 10 6.25H8C4.829 6.25 2.25 8.829 2.25 12C2.25 15.171 4.829 17.75 8 17.75H10C10.414 17.75 10.75 17.414 10.75 17Z" />
</svg>
