<svg viewBox="0 0 24 24" fill="currentColor" stroke="currentColor" xmlns="http://www.w3.org/2000/svg">
<path d="M20.651 15.106L18.0082 13.53C16.7282 12.767 15.0742 13.138 14.2452 14.377L13.483 15.514C11.322 14.458 9.54416 12.676 8.48716 10.505L9.61802 9.75299C10.859 8.92799 11.2362 7.27699 10.4772 5.99399L8.91417 3.35501C8.42817 2.53301 7.47417 2.10701 6.51817 2.29801C5.07517 2.58701 3.80411 3.47201 3.03111 4.72501C2.26111 5.97301 2.05116 7.43302 2.43516 8.83402C4.12816 14.995 9.01018 19.873 15.1742 21.565C15.6302 21.69 16.0921 21.752 16.5511 21.752C17.5011 21.752 18.4391 21.487 19.2801 20.968C20.5331 20.195 21.4182 18.924 21.7062 17.481C21.8942 16.548 21.47 15.594 20.651 15.106ZM20.2352 17.186C20.0282 18.222 19.392 19.135 18.492 19.691C17.604 20.239 16.5671 20.391 15.5711 20.118C9.91515 18.566 5.43516 14.089 3.88316 8.43601C3.60916 7.44001 3.76019 6.402 4.30919 5.512C4.86519 4.611 5.77718 3.97602 6.83018 3.76502C6.87918 3.75502 6.92915 3.75 6.97715 3.75C7.23915 3.75 7.48715 3.88699 7.62315 4.11899L9.18614 6.758C9.53914 7.353 9.36419 8.11999 8.78819 8.50299L7.12706 9.60801C6.82806 9.807 6.7122 10.19 6.8502 10.521C8.0912 13.495 10.5012 15.912 13.4642 17.15C13.7902 17.287 14.1761 17.174 14.3761 16.876L15.4911 15.211C15.8761 14.636 16.6411 14.462 17.2401 14.817L19.8832 16.393C20.1562 16.557 20.2982 16.875 20.2352 17.186ZM16.0802 5.37299C15.7912 5.07699 15.7971 4.60202 16.0941 4.31202L17.5941 2.849C17.8101 2.638 18.1311 2.57801 18.4081 2.69501C18.6861 2.81201 18.867 3.08399 18.867 3.38599V9.38599C18.867 9.79999 18.531 10.136 18.117 10.136C17.703 10.136 17.367 9.79999 17.367 9.38599V5.16599L17.14 5.387C16.846 5.676 16.3712 5.66899 16.0802 5.37299Z" />
</svg>
