<svg viewBox="0 0 24 24" fill="currentColor" stroke="currentColor" xmlns="http://www.w3.org/2000/svg">
<path d="M17.5 7.25C15.156 7.25 13.25 9.156 13.25 11.5C13.25 12.554 13.6491 13.507 14.2871 14.25H9.71411C10.3511 13.507 10.751 12.554 10.751 11.5C10.751 9.156 8.84498 7.25 6.50098 7.25C4.15698 7.25 2.25098 9.156 2.25098 11.5C2.25098 13.844 4.15698 15.75 6.50098 15.75H17.501C19.845 15.75 21.751 13.844 21.751 11.5C21.751 9.156 19.844 7.25 17.5 7.25ZM3.75 11.5C3.75 9.984 4.983 8.75 6.5 8.75C8.017 8.75 9.25 9.984 9.25 11.5C9.25 13.016 8.017 14.25 6.5 14.25C4.983 14.25 3.75 13.016 3.75 11.5ZM17.5 14.25C15.983 14.25 14.75 13.016 14.75 11.5C14.75 9.984 15.983 8.75 17.5 8.75C19.017 8.75 20.25 9.984 20.25 11.5C20.25 13.016 19.017 14.25 17.5 14.25Z" />
</svg>
