<svg viewBox="0 0 24 24" fill="currentColor" stroke="currentColor" xmlns="http://www.w3.org/2000/svg">
<path d="M16.36 6C14.72 6 13.43 7.20001 12.27 8.74001C10.67 6.76001 9.33999 6 7.73999 6C4.49999 6 2 10.14 2 14.53C2 17.27 3.36 19 5.63 19C7.27 19 8.44 18.25 10.53 14.67C10.53 14.67 11.4 13.16 12 12.13C12.21 12.47 12.44 12.83 12.67 13.21L13.64 14.83C15.55 17.95 16.63 19.01 18.55 19.01C20.76 19.01 21.99 17.26 21.99 14.45C21.99 9.87 19.45 6.00999 16.35 6.00999L16.36 6ZM8.95001 13.7C7.25001 16.3 6.66 16.89 5.72 16.89C4.78 16.89 4.16 16.05 4.16 14.57C4.16 11.38 5.79 8.13 7.72 8.13C8.78 8.13 9.64999 8.72001 10.99 10.6C9.71999 12.5 8.95001 13.7 8.95001 13.7ZM18.61 16.89C17.64 16.89 17.18 16.26 15.35 13.38L14.18 11.46C13.85 10.96 13.55 10.48 13.27 10.06C14.33 8.47 15.2 7.67 16.23 7.67C18.39 7.67 20.12 10.77 20.12 14.58C20.12 16.03 19.63 16.89 18.62 16.89H18.61Z" />
</svg>
