<svg viewBox="0 0 24 24" fill="currentColor" stroke="currentColor" xmlns="http://www.w3.org/2000/svg">
<path d="M16.98 11.41C16.98 11.41 17.18 12.38 17.22 12.59H16.34C16.43 12.36 16.76 11.45 16.76 11.45C16.76 11.45 16.85 11.21 16.9 11.06L16.97 11.41H16.98ZM21 8V16C21 18 20 19 18 19H6C4 19 3 18 3 16V8C3 6 4 5 6 5H18C20 5 21 6 21 8ZM8.66 14.03L10.32 9.95999H9.20999L8.17999 12.74L8.07001 12.18L7.70001 10.31C7.64001 10.05 7.45 9.98 7.22 9.97H5.51999L5.5 10.05C5.91 10.15 6.27999 10.31 6.60999 10.5L7.54999 14.04H8.66V14.03ZM11.13 14.03L11.79 9.95999H10.74L10.08 14.03H11.13ZM14.8 12.7C14.8 12.24 14.52 11.88 13.92 11.59C13.55 11.4 13.33 11.28 13.33 11.09C13.33 10.92 13.52 10.74 13.94 10.74C14.28 10.74 14.53 10.81 14.72 10.89L14.81 10.93L14.95 10.05C14.74 9.96999 14.41 9.88 14.01 9.88C12.97 9.88 12.24 10.44 12.23 11.23C12.23 11.81 12.75 12.14 13.15 12.34C13.56 12.54 13.7 12.67 13.7 12.85C13.7 13.12 13.37 13.25 13.07 13.25C12.65 13.25 12.43 13.18 12.08 13.03L11.94 12.96L11.79 13.87C12.04 13.98 12.49 14.08 12.96 14.09C14.07 14.09 14.79 13.54 14.79 12.7H14.8ZM18.5 14.03L17.65 9.95999H16.83C16.58 9.95999 16.39 10.03 16.28 10.3L14.72 14.03H15.83C15.83 14.03 16.01 13.53 16.05 13.42H17.4C17.43 13.56 17.53 14.03 17.53 14.03H18.5Z" />
</svg>
