<svg viewBox="0 0 24 24" fill="currentColor" stroke="currentColor" xmlns="http://www.w3.org/2000/svg">
<path fill-rule="evenodd" clip-rule="evenodd" d="M21 14.8002C21 12.2302 18.57 10.1403 15.58 10.1403C12.59 10.1403 10.16 12.2202 10.16 14.8002C10.16 17.3802 12.59 19.4602 15.58 19.4602C16.2 19.4602 16.8 19.3703 17.35 19.2003L17.51 19.1802C17.61 19.1802 17.71 19.2102 17.8 19.2702L18.99 19.9803L19.09 20.0103C19.19 20.0103 19.27 19.9303 19.27 19.8203L19.24 19.6802L19 18.7402L18.98 18.6202C18.98 18.4902 19.04 18.3803 19.13 18.3203C20.27 17.4703 21 16.2002 21 14.8002ZM13.77 14.2402C13.37 14.2402 13.05 13.9202 13.05 13.5202C13.05 13.1202 13.37 12.8002 13.77 12.8002C14.17 12.8002 14.49 13.1202 14.49 13.5202C14.49 13.9202 14.17 14.2402 13.77 14.2402ZM17.38 14.2402C16.98 14.2402 16.66 13.9202 16.66 13.5202C16.66 13.1202 16.98 12.8002 17.38 12.8002C17.78 12.8002 18.1 13.1202 18.1 13.5202C18.1 13.9202 17.78 14.2402 17.38 14.2402ZM9.49998 5.00024C5.90998 5.00024 2.98999 7.50024 2.98999 10.5902C2.98999 12.2702 3.86999 13.7902 5.23999 14.8102C5.34999 14.8902 5.41998 15.0203 5.41998 15.1703L5.39998 15.3102L5.10999 16.4402L5.06999 16.6003C5.06999 16.7203 5.16998 16.8203 5.28998 16.8203L5.41998 16.7802L6.83998 15.9302C6.94998 15.8702 7.05998 15.8302 7.17998 15.8302L7.36998 15.8602C8.02998 16.0602 8.74999 16.1703 9.48999 16.1703H9.84999C9.70999 15.7203 9.62999 15.2703 9.62999 14.7903C9.62999 11.9803 12.29 9.69025 15.56 9.69025H15.91C15.42 7.03025 12.73 4.99023 9.47998 4.99023L9.49998 5.00024ZM7.32999 10.0202C6.84999 10.0202 6.45999 9.63024 6.45999 9.15024C6.45999 8.67024 6.84999 8.28024 7.32999 8.28024C7.80999 8.28024 8.19998 8.67024 8.19998 9.15024C8.19998 9.63024 7.80999 10.0202 7.32999 10.0202ZM11.67 10.0202C11.19 10.0202 10.8 9.63024 10.8 9.15024C10.8 8.67024 11.19 8.28024 11.67 8.28024C12.15 8.28024 12.54 8.67024 12.54 9.15024C12.54 9.63024 12.15 10.0202 11.67 10.0202Z" />
</svg>
