<svg viewBox="0 0 24 24" fill="currentColor" stroke="currentColor" xmlns="http://www.w3.org/2000/svg">
<path d="M3.67 6.47C5.46 3.77 8.52 2 12 2C14.58 2 16.92 2.99 18.7 4.59H18.67C17.67 4.59 16.98 5.44 16.98 6.37C16.98 7.19 17.45 7.9 17.97 8.73C18.35 9.39 18.79 10.25 18.79 11.5C18.79 12.36 18.46 13.36 18.03 14.75L17.02 18.1L13.39 7.28999C14.01 7.25999 14.55 7.2 14.55 7.2C15.1 7.14 15.02 6.35 14.48 6.37C14.48 6.37 12.86 6.50999 11.82 6.50999C10.78 6.50999 9.17 6.37 9.17 6.37C8.63 6.35 8.57 7.18001 9.11 7.21001C9.46 7.25001 9.82 7.27999 10.16 7.28999L11.73 11.58L9.53 18.17L5.86 7.28999C6.48 7.26999 7.02 7.2 7.02 7.2C7.57 7.14 7.50001 6.35 6.96001 6.37C6.96001 6.37 5.33999 6.50999 4.28999 6.50999L3.71001 6.49001L3.67 6.47ZM2.85001 7.98C2.31001 9.21 2 10.57 2 12C2 15.94 4.28 19.33 7.59 20.97L2.85001 7.99001V7.98ZM20.84 7.31C20.97 8.85 20.73 10.38 20.13 11.81L17.08 20.6C20.02 18.86 22 15.66 22 12C22 10.31 21.58 8.71001 20.83 7.32001L20.84 7.31ZM15.28 21.34L12.19 12.88L9.2 21.59C9.03 21.54 8.86 21.48 8.7 21.43C9.74 21.79 10.85 22 12.01 22C13.17 22 14.28 21.79 15.32 21.43L15.28 21.35V21.34Z" />
</svg>
