<svg viewBox="0 0 24 24" fill="currentColor" stroke="currentColor" xmlns="http://www.w3.org/2000/svg">
<path d="M12 10.22C12 10.22 12.02 10.22 12 10.22C14.72 12.28 19.32 17.35 17.93 18.78C16.34 20.17 14.27 21 12 21C9.73 21 7.65 20.17 6.07 18.78C4.66 17.35 9.28 12.28 11.97 10.24C11.97 10.22 11.99 10.22 11.99 10.22H12ZM16.69 4.32001C15.32 3.49001 13.82 3 12 3C10.18 3 8.68 3.49001 7.31 4.32001C7.29 4.32001 7.29 4.33999 7.29 4.35999C7.29 4.37999 7.31 4.38 7.33 4.38C9.08 4 11.73 5.5 11.98 5.66H12.02C12.27 5.5 14.92 4 16.67 4.38C16.69 4.38 16.71 4.37999 16.71 4.35999C16.71 4.33999 16.71 4.32001 16.69 4.32001ZM5.69 5.57999C5.69 5.57999 5.67 5.60001 5.65 5.60001C4.01 7.24001 3 9.49999 3 11.99C3 14.03 3.7 15.94 4.84 17.44C4.84 17.46 4.86 17.46 4.88 17.46C4.9 17.46 4.9 17.44 4.88 17.42C4.18 15.29 7.71 10.16 9.53 8.01001L9.55 7.98999C9.55 7.98999 9.55 7.97 9.53 7.97C6.77 5.24 5.85 5.53 5.69 5.59V5.57999ZM14.47 7.92999L14.45 7.95001C14.45 7.95001 14.45 7.97 14.47 7.97C16.29 10.12 19.79 15.26 19.12 17.38V17.42C19.12 17.42 19.16 17.42 19.16 17.4C20.3 15.9 21 13.99 21 11.95C21 9.46001 19.99 7.2 18.33 5.56C18.33 5.56 18.3167 5.55334 18.29 5.54001C18.16 5.50001 17.24 5.20001 14.47 7.92001V7.92999Z" />
</svg>
