<svg viewBox="0 0 24 24" fill="currentColor" stroke="currentColor" xmlns="http://www.w3.org/2000/svg">
<path d="M20.827 3.18898C20.169 2.52398 19.22 2.32412 18.349 2.66212L9.614 6.06105C8.029 6.67805 6.76201 7.93901 6.13901 9.52101L2.666 18.3379C2.322 19.2119 2.523 20.164 3.189 20.825C3.635 21.267 4.21001 21.499 4.80201 21.499C5.09501 21.499 5.393 21.442 5.681 21.325L14.464 17.77C16.001 17.148 17.235 15.9091 17.85 14.3701L21.33 5.66994C21.677 4.80394 21.484 3.85298 20.827 3.18898ZM20.401 5.30104L16.921 14.001C16.406 15.288 15.374 16.325 14.088 16.845L5.305 20.3999C4.714 20.6369 4.187 20.409 3.892 20.116C3.596 19.822 3.36201 19.2981 3.59501 18.7051L7.068 9.88795C7.589 8.56495 8.64901 7.50893 9.97501 6.99293L18.71 3.59401C18.877 3.52901 19.039 3.50099 19.191 3.50099C19.578 3.50099 19.906 3.68108 20.115 3.89308C20.495 4.27508 20.602 4.80104 20.401 5.30104ZM13 12C13 12.552 12.552 13 12 13C11.448 13 11 12.552 11 12C11 11.448 11.448 11 12 11C12.552 11 13 11.448 13 12Z" />
</svg>
