<svg viewBox="0 0 24 24" fill="currentColor" stroke="currentColor" xmlns="http://www.w3.org/2000/svg">
<path d="M12 1.5C6.21 1.5 1.5 6.21 1.5 12C1.5 17.79 6.21 22.5 12 22.5C17.79 22.5 22.5 17.79 22.5 12C22.5 6.21 17.79 1.5 12 1.5ZM12 21.5C6.762 21.5 2.5 17.238 2.5 12C2.5 6.762 6.762 2.5 12 2.5C17.238 2.5 21.5 6.762 21.5 12C21.5 17.238 17.238 21.5 12 21.5ZM15.446 6.60498L10.592 8.4939C9.654 8.8589 8.904 9.60599 8.536 10.542L6.607 15.4399C6.383 16.0089 6.514 16.63 6.948 17.061C7.239 17.349 7.613 17.5 7.999 17.5C8.19 17.5 8.38401 17.463 8.57201 17.387L13.451 15.4121C14.361 15.0441 15.091 14.3099 15.455 13.3999L17.389 8.56689C17.615 8.00189 17.49 7.381 17.061 6.948C16.632 6.515 16.013 6.38398 15.446 6.60498ZM16.461 8.19604L14.527 13.0291C14.263 13.6881 13.735 14.2191 13.076 14.4861L8.19701 16.4609C7.90901 16.5769 7.707 16.4071 7.652 16.3521C7.597 16.2971 7.424 16.0951 7.538 15.8081L9.467 10.9099C9.734 10.2319 10.276 9.692 10.955 9.427L15.808 7.53809C16.094 7.42709 16.295 7.59808 16.35 7.65308C16.406 7.70808 16.575 7.91004 16.461 8.19604ZM12.75 12.0071C12.75 12.4211 12.414 12.7571 12 12.7571C11.586 12.7571 11.25 12.4211 11.25 12.0071C11.25 11.5931 11.586 11.2571 12 11.2571C12.414 11.2571 12.75 11.5931 12.75 12.0071Z" />
</svg>
