<svg viewBox="0 0 24 24" fill="currentColor" stroke="currentColor" xmlns="http://www.w3.org/2000/svg">
<path d="M19.522 8.09204L7.5 3.6521V3C7.5 2.724 7.276 2.5 7 2.5C6.724 2.5 6.5 2.724 6.5 3V20.5H5C4.724 20.5 4.5 20.724 4.5 21C4.5 21.276 4.724 21.5 5 21.5H9C9.276 21.5 9.5 21.276 9.5 21C9.5 20.724 9.276 20.5 9 20.5H7.5V15.3491L19.522 10.908C20.116 10.689 20.5 10.136 20.5 9.5C20.5 8.864 20.116 8.31204 19.522 8.09204ZM19.176 9.96997L7.5 14.282V4.71802L19.176 9.03003C19.477 9.14103 19.5 9.418 19.5 9.5C19.5 9.582 19.477 9.85897 19.176 9.96997Z" />
</svg>
