<svg viewBox="0 0 24 24" fill="currentColor" stroke="currentColor" xmlns="http://www.w3.org/2000/svg">
<path d="M15.618 8.5L19.404 3.29395C19.515 3.14195 19.53 2.94095 19.446 2.77295C19.361 2.60595 19.188 2.5 19 2.5H8C5.71 2.5 4.5 3.71 4.5 6V20.958C4.5 21.234 4.724 21.458 5 21.458C5.276 21.458 5.5 21.234 5.5 20.958V14.5H19C19.188 14.5 19.36 14.3951 19.446 14.2271C19.531 14.0591 19.515 13.8581 19.404 13.7061L15.618 8.5ZM5.5 13.5V6C5.5 4.271 6.271 3.5 8 3.5H18.018L14.596 8.20605C14.469 8.38105 14.469 8.61895 14.596 8.79395L18.018 13.5H5.5Z" />
</svg>
