<svg viewBox="0 0 24 24" fill="currentColor" stroke="currentColor" xmlns="http://www.w3.org/2000/svg">
<path d="M12 2.5C7.313 2.5 3.5 6.313 3.5 11C3.5 15.983 8.129 19.041 11.192 21.064L11.722 21.416C11.806 21.472 11.903 21.5 11.999 21.5C12.095 21.5 12.192 21.472 12.276 21.416L12.806 21.064C15.869 19.041 20.498 15.983 20.498 11C20.5 6.313 16.687 2.5 12 2.5ZM12.256 20.23L12 20.3999L11.744 20.23C8.859 18.324 4.5 15.445 4.5 11C4.5 6.864 7.864 3.5 12 3.5C16.136 3.5 19.5 6.864 19.5 11C19.5 15.445 15.141 18.325 12.256 20.23ZM12 8C10.346 8 9 9.346 9 11C9 12.654 10.346 14 12 14C13.654 14 15 12.654 15 11C15 9.346 13.654 8 12 8ZM12 13C10.897 13 10 12.103 10 11C10 9.897 10.897 9 12 9C13.103 9 14 9.897 14 11C14 12.103 13.103 13 12 13Z" />
</svg>
