<svg viewBox="0 0 24 24" fill="currentColor" stroke="currentColor" xmlns="http://www.w3.org/2000/svg">
<path d="M21.5 12C21.5 12.276 21.276 12.5 21 12.5H19.475C19.227 16.236 16.237 19.2271 12.5 19.4751V21C12.5 21.276 12.276 21.5 12 21.5C11.724 21.5 11.5 21.276 11.5 21V19.4771C10.744 19.4271 10.002 19.2701 9.29103 18.9971C9.03303 18.8971 8.90504 18.6081 9.00404 18.3511C9.10404 18.0931 9.39403 17.967 9.65003 18.064C10.402 18.354 11.193 18.501 12 18.501C15.584 18.501 18.5 15.585 18.5 12.001C18.5 11.194 18.353 10.4029 18.063 9.65089C17.964 9.39289 18.092 9.10389 18.35 9.00489C18.606 8.90789 18.897 9.034 18.996 9.292C19.27 10.003 19.427 10.745 19.477 11.501H21C21.276 11.5 21.5 11.724 21.5 12ZM3.35401 21.354C3.25601 21.452 3.12801 21.5 3.00001 21.5C2.87201 21.5 2.74401 21.451 2.64601 21.354C2.45101 21.159 2.45101 20.842 2.64601 20.647L6.36 16.9341C5.271 15.6921 4.632 14.15 4.524 12.501H3.00001C2.72401 12.501 2.50001 12.277 2.50001 12.001C2.50001 11.725 2.72401 11.501 3.00001 11.501H4.52503C4.77303 7.76499 7.76301 4.77389 11.5 4.52589V3.00001C11.5 2.72401 11.724 2.50001 12 2.50001C12.276 2.50001 12.5 2.72401 12.5 3.00001V4.52394C14.149 4.63194 15.691 5.2709 16.933 6.3589L20.647 2.64601C20.842 2.45101 21.159 2.45101 21.354 2.64601C21.549 2.84101 21.549 3.15804 21.354 3.35304L3.35401 21.354ZM10.281 13.012L13.013 10.28C12.709 10.102 12.365 9.99903 12.001 9.99903C10.898 9.99903 10.001 10.896 10.001 11.999C9.99999 12.364 10.102 12.708 10.281 13.012ZM7.06703 16.2261L9.55799 13.7351C9.19999 13.2321 9.00001 12.633 9.00001 12C9.00001 10.346 10.346 9.00001 12 9.00001C12.633 9.00001 13.232 9.19911 13.735 9.55812L16.226 7.0669C15.049 6.0559 13.569 5.50001 12 5.50001C8.41601 5.50001 5.50001 8.41601 5.50001 12C5.50001 13.569 6.05603 15.0491 7.06703 16.2261Z" />
</svg>
