<svg viewBox="0 0 24 24" fill="currentColor" stroke="currentColor" xmlns="http://www.w3.org/2000/svg">
<path d="M15.52 7.10107L7.59601 10.8301C7.20101 11.0161 6.96903 11.4161 7.00403 11.8511C7.03803 12.2861 7.33201 12.6449 7.75201 12.7649L9.659 13.3101C10.162 13.4531 10.547 13.8381 10.69 14.3401L11.235 16.249C11.355 16.668 11.714 16.9621 12.149 16.9971C12.177 16.9991 12.206 17 12.235 17C12.635 17 12.997 16.773 13.17 16.405L16.899 8.47998C17.087 8.07898 17.006 7.61791 16.694 7.30591C16.381 6.99291 15.92 6.91107 15.52 7.10107ZM12.196 15.9741L11.651 14.0659C11.413 13.2299 10.771 12.5881 9.93402 12.3491L8.021 11.7361L15.945 8.00708L15.995 8.05493L12.196 15.9741ZM17.625 2.5H6.375C3.84 2.5 2.5 3.84 2.5 6.375V17.625C2.5 20.16 3.84 21.5 6.375 21.5H17.625C20.16 21.5 21.5 20.16 21.5 17.625V6.375C21.5 3.84 20.16 2.5 17.625 2.5ZM20.5 17.625C20.5 19.586 19.587 20.5 17.625 20.5H6.375C4.413 20.5 3.5 19.586 3.5 17.625V6.375C3.5 4.414 4.413 3.5 6.375 3.5H17.625C19.587 3.5 20.5 4.414 20.5 6.375V17.625Z" />
</svg>
