<svg viewBox="0 0 24 24" fill="currentColor" stroke="currentColor" xmlns="http://www.w3.org/2000/svg">
<path d="M15.02 7.60107L7.09497 11.3301C6.69997 11.5161 6.46799 11.9171 6.50299 12.3521C6.53799 12.7871 6.83201 13.1449 7.25201 13.2649L9.15997 13.8101C9.66097 13.9531 10.047 14.3381 10.19 14.8401L10.735 16.748C10.855 17.167 11.214 17.4611 11.648 17.4971C11.677 17.4991 11.706 17.5 11.734 17.5C12.135 17.5 12.496 17.273 12.67 16.905L16.399 8.97998C16.588 8.57998 16.507 8.11891 16.194 7.80591C15.882 7.49191 15.42 7.41407 15.02 7.60107ZM11.697 16.4741L11.152 14.5659C10.913 13.7299 10.271 13.0881 9.435 12.8491L7.521 12.2361L15.446 8.50708L15.494 8.55493L11.697 16.4741ZM12 1.5C6.21 1.5 1.5 6.21 1.5 12C1.5 17.79 6.21 22.5 12 22.5C17.79 22.5 22.5 17.79 22.5 12C22.5 6.21 17.79 1.5 12 1.5ZM12 21.5C6.762 21.5 2.5 17.238 2.5 12C2.5 6.762 6.762 2.5 12 2.5C17.238 2.5 21.5 6.762 21.5 12C21.5 17.238 17.238 21.5 12 21.5Z" />
</svg>
