<svg viewBox="0 0 24 24" fill="currentColor" stroke="currentColor" xmlns="http://www.w3.org/2000/svg">
<path d="M12 2.5C7.313 2.5 3.5 6.313 3.5 11C3.5 15.983 8.12902 19.041 11.192 21.064L11.722 21.416C11.806 21.472 11.903 21.5 11.999 21.5C12.095 21.5 12.192 21.472 12.276 21.416L12.806 21.064C15.869 19.041 20.498 15.983 20.498 11C20.5 6.313 16.687 2.5 12 2.5ZM12.256 20.23L12 20.3999L11.744 20.23C8.85902 18.324 4.5 15.445 4.5 11C4.5 6.864 7.864 3.5 12 3.5C16.136 3.5 19.5 6.864 19.5 11C19.5 15.445 15.141 18.325 12.256 20.23ZM15.236 9.18799L13.549 8.948L12.82 7.50391C12.508 6.88291 11.492 6.88391 11.179 7.50391L10.45 8.948L8.763 9.18799C8.423 9.23599 8.14599 9.46797 8.04199 9.79297C7.93799 10.115 8.02597 10.461 8.27197 10.696L9.48602 11.854L9.20898 13.4341C9.14898 13.7741 9.28598 14.1141 9.56598 14.3201C9.85098 14.5291 10.221 14.558 10.536 14.397L11.952 13.6201L13.463 14.397C13.598 14.466 13.743 14.501 13.887 14.501C14.079 14.501 14.27 14.44 14.432 14.321C14.712 14.115 14.849 13.7761 14.789 13.4351L14.512 11.854L15.726 10.696C15.972 10.461 16.06 10.115 15.956 9.79297C15.854 9.46797 15.577 9.23599 15.236 9.18799ZM13.775 11.175C13.563 11.379 13.466 11.6719 13.516 11.9619L13.774 13.4309L12.411 12.73C12.155 12.598 11.848 12.598 11.59 12.73L10.226 13.4319L10.484 11.9609C10.534 11.6719 10.437 11.379 10.224 11.175L9.14203 10.144L10.647 9.92993C10.937 9.88793 11.187 9.70893 11.316 9.45093L11.976 8.05005L12.682 9.44995C12.812 9.70895 13.062 9.88796 13.352 9.92896L14.857 10.1431L13.775 11.175Z" />
</svg>
