<svg viewBox="0 0 24 24" fill="currentColor" stroke="currentColor" xmlns="http://www.w3.org/2000/svg">
<path d="M12 2.5C7.313 2.5 3.5 6.313 3.5 11C3.5 15.983 8.12899 19.041 11.192 21.064L11.722 21.416C11.806 21.472 11.903 21.5 11.999 21.5C12.095 21.5 12.192 21.472 12.276 21.416L12.806 21.064C15.869 19.041 20.498 15.983 20.498 11C20.5 6.313 16.687 2.5 12 2.5ZM12.256 20.23L12 20.3999L11.744 20.23C8.85899 18.324 4.5 15.445 4.5 11C4.5 6.864 7.864 3.5 12 3.5C16.136 3.5 19.5 6.864 19.5 11C19.5 15.445 15.141 18.325 12.256 20.23ZM15.103 6.40698C14.841 6.14498 14.492 6 14.121 6H14.12C13.748 6 13.399 6.14594 13.137 6.40894L7.646 11.925C7.553 12.018 7.5 12.1451 7.5 12.2781V14.5C7.5 14.776 7.724 15 8 15H10.222C10.354 15 10.481 14.948 10.575 14.854L16.092 9.36304C16.355 9.10004 16.5 8.75188 16.501 8.37988C16.501 8.00788 16.357 7.65897 16.094 7.39697L15.103 6.40698ZM10.016 14H8.5V12.4839L12.331 8.63599L13.864 10.1689L10.016 14ZM15.386 8.65503L14.573 9.46411L13.036 7.92798L13.845 7.11499C13.918 7.04099 14.016 7 14.12 7C14.224 7 14.321 7.04101 14.395 7.11401L15.385 8.104C15.459 8.178 15.499 8.27491 15.499 8.37891C15.5 8.48391 15.459 8.58203 15.386 8.65503Z" />
</svg>
