<svg viewBox="0 0 24 24" fill="currentColor" stroke="currentColor" xmlns="http://www.w3.org/2000/svg">
<path d="M12 2.5C7.313 2.5 3.5 6.313 3.5 11C3.5 15.983 8.12902 19.041 11.192 21.064L11.722 21.416C11.806 21.472 11.903 21.5 11.999 21.5C12.095 21.5 12.192 21.472 12.276 21.416L12.806 21.064C15.869 19.041 20.498 15.983 20.498 11C20.5 6.313 16.687 2.5 12 2.5ZM12.256 20.23L12 20.3999L11.744 20.23C8.85902 18.324 4.5 15.445 4.5 11C4.5 6.864 7.864 3.5 12 3.5C16.136 3.5 19.5 6.864 19.5 11C19.5 15.445 15.141 18.325 12.256 20.23ZM14.338 8.44897C14.505 9.39697 14.103 10.247 13.206 10.843C12.625 11.23 12.5 11.4559 12.474 11.5349C12.404 11.7429 12.209 11.875 12 11.875C11.947 11.875 11.893 11.8671 11.84 11.8491C11.579 11.7611 11.438 11.4771 11.527 11.2151C11.705 10.6891 12.255 10.276 12.652 10.01C13.222 9.63201 13.451 9.17709 13.353 8.62109C13.256 8.07009 12.805 7.61797 12.254 7.52197C11.838 7.44797 11.434 7.55605 11.117 7.82104C10.805 8.08305 10.625 8.467 10.625 8.875C10.625 9.151 10.401 9.375 10.125 9.375C9.849 9.375 9.625 9.151 9.625 8.875C9.625 8.171 9.934 7.50791 10.474 7.05591C11.012 6.60291 11.724 6.41511 12.427 6.53711C13.384 6.70511 14.169 7.49097 14.338 8.44897ZM12.75 14C12.75 14.415 12.415 14.75 12.004 14.75C11.591 14.75 11.25 14.415 11.25 14C11.25 13.585 11.577 13.25 11.988 13.25H12.003C12.415 13.25 12.75 13.585 12.75 14Z" />
</svg>
