<svg viewBox="0 0 24 24" fill="currentColor" stroke="currentColor" xmlns="http://www.w3.org/2000/svg">
<path d="M20.042 8.26709C20.346 9.14509 20.5 10.064 20.5 11C20.5 15.983 15.871 19.041 12.808 21.064L12.278 21.416C12.194 21.472 12.097 21.5 12.001 21.5C11.905 21.5 11.809 21.473 11.726 21.417L11.42 21.2161C10.602 20.6781 9.67402 20.0679 8.73902 19.3579C8.51902 19.1909 8.47602 18.878 8.64301 18.658C8.81001 18.437 9.123 18.395 9.343 18.562C10.251 19.251 11.164 19.8521 11.969 20.3811L12 20.4009L12.257 20.231C15.142 18.325 19.501 15.446 19.501 11.001C19.501 10.177 19.366 9.36697 19.098 8.59497C19.008 8.33397 19.146 8.04898 19.407 7.95898C19.667 7.86698 19.952 8.00609 20.042 8.26709ZM21.354 3.354L3.35401 21.354C3.25601 21.452 3.12801 21.5 3.00001 21.5C2.87201 21.5 2.74401 21.451 2.64601 21.354C2.45101 21.159 2.45101 20.842 2.64601 20.647L6.184 17.1089C4.387 15.1939 3.499 13.193 3.499 11.001C3.499 6.31398 7.312 2.50098 11.999 2.50098C14.339 2.50098 16.543 3.4671 18.141 5.1521L20.645 2.64795C20.84 2.45295 21.157 2.45295 21.352 2.64795C21.547 2.84295 21.549 3.158 21.354 3.354ZM6.891 16.4021L17.435 5.85791C16.023 4.35991 14.072 3.50098 11.999 3.50098C7.863 3.50098 4.499 6.86498 4.499 11.001C4.5 12.916 5.29 14.6871 6.891 16.4021Z" />
</svg>
