<svg viewBox="0 0 24 24" fill="currentColor" stroke="currentColor" xmlns="http://www.w3.org/2000/svg">
<path d="M12 2.5C7.313 2.5 3.5 6.313 3.5 11C3.5 15.983 8.129 19.041 11.192 21.064L11.722 21.416C11.806 21.472 11.903 21.5 11.999 21.5C12.095 21.5 12.192 21.472 12.276 21.416L12.806 21.064C15.869 19.041 20.498 15.983 20.498 11C20.5 6.313 16.687 2.5 12 2.5ZM12.256 20.23L12 20.3999L11.744 20.23C8.859 18.324 4.5 15.445 4.5 11C4.5 6.864 7.864 3.5 12 3.5C16.136 3.5 19.5 6.864 19.5 11C19.5 15.445 15.141 18.325 12.256 20.23ZM14.854 9.31299C15.049 9.50799 15.049 9.82502 14.854 10.02L11.521 13.353C11.423 13.451 11.295 13.499 11.167 13.499C11.039 13.499 10.911 13.45 10.813 13.353L9.146 11.686C8.951 11.491 8.951 11.174 9.146 10.979C9.341 10.784 9.658 10.784 9.853 10.979L11.166 12.292L14.146 9.31201C14.342 9.11801 14.658 9.11799 14.854 9.31299Z" />
</svg>
