<svg viewBox="0 0 24 24" fill="currentColor" stroke="currentColor" xmlns="http://www.w3.org/2000/svg">
<path d="M12 2.5C7.313 2.5 3.5 6.313 3.5 11C3.5 15.983 8.12899 19.041 11.192 21.064L11.722 21.416C11.806 21.472 11.903 21.5 11.999 21.5C12.095 21.5 12.192 21.472 12.276 21.416L12.806 21.064C15.869 19.041 20.498 15.983 20.498 11C20.5 6.313 16.687 2.5 12 2.5ZM12.256 20.23L12 20.3999L11.744 20.23C8.85899 18.324 4.5 15.445 4.5 11C4.5 6.864 7.864 3.5 12 3.5C16.136 3.5 19.5 6.864 19.5 11C19.5 15.445 15.141 18.325 12.256 20.23ZM15 11C15 11.276 14.776 11.5 14.5 11.5H9.5C9.224 11.5 9 11.276 9 11C9 10.724 9.224 10.5 9.5 10.5H14.5C14.776 10.5 15 10.724 15 11Z" />
</svg>
