<svg viewBox="0 0 24 24" fill="currentColor" stroke="currentColor" xmlns="http://www.w3.org/2000/svg">
<path d="M20.042 8.26709C20.346 9.14509 20.5 10.064 20.5 11C20.5 15.983 15.871 19.041 12.808 21.064L12.278 21.416C12.194 21.472 12.097 21.5 12.001 21.5C11.905 21.5 11.809 21.473 11.726 21.417L11.42 21.2161C10.602 20.6781 9.67399 20.0679 8.73899 19.3579C8.51899 19.1909 8.476 18.878 8.643 18.658C8.81 18.437 9.123 18.395 9.343 18.562C10.251 19.251 11.164 19.8521 11.969 20.3811L12 20.4009L12.257 20.231C15.142 18.325 19.501 15.446 19.501 11.001C19.501 10.177 19.366 9.36697 19.098 8.59497C19.008 8.33397 19.146 8.04898 19.407 7.95898C19.667 7.86698 19.952 8.00609 20.042 8.26709ZM21.354 3.354L14.56 10.1479C14.555 10.1529 14.551 10.1571 14.546 10.1621L11.177 13.531C11.164 13.545 11.151 13.558 11.137 13.571L3.354 21.354C3.256 21.452 3.12799 21.5 2.99999 21.5C2.87199 21.5 2.74399 21.451 2.64599 21.354C2.45099 21.159 2.45099 20.842 2.64599 20.647L6.184 17.1089C4.387 15.1939 3.49899 13.193 3.49899 11.001C3.49899 6.31398 7.31199 2.50098 11.999 2.50098C14.339 2.50098 16.543 3.4671 18.141 5.1521L20.645 2.64795C20.84 2.45295 21.157 2.45295 21.352 2.64795C21.547 2.84295 21.549 3.158 21.354 3.354ZM6.891 16.4021L10.039 13.2539C9.394 12.6889 8.99899 11.879 8.99899 11.001C8.99899 9.34698 10.345 8.00098 11.999 8.00098C12.877 8.00098 13.687 8.39602 14.252 9.04102L17.434 5.85889C16.022 4.36089 14.071 3.50195 11.998 3.50195C7.862 3.50195 4.498 6.86595 4.498 11.002C4.5 12.916 5.29 14.6871 6.891 16.4021ZM13.544 9.74902C13.166 9.28802 12.608 9 12 9C10.897 9 9.99999 9.897 9.99999 11C9.99999 11.609 10.287 12.1659 10.748 12.5449L13.544 9.74902Z" />
</svg>
