<svg viewBox="0 0 24 24" fill="currentColor" stroke="currentColor" xmlns="http://www.w3.org/2000/svg">
<path d="M12 2.5C7.313 2.5 3.5 6.313 3.5 11C3.5 15.983 8.12899 19.041 11.192 21.064L11.722 21.416C11.806 21.472 11.903 21.5 11.999 21.5C12.095 21.5 12.192 21.472 12.276 21.416L12.806 21.064C15.869 19.041 20.498 15.983 20.498 11C20.5 6.313 16.687 2.5 12 2.5ZM12.256 20.23L12 20.3999L11.744 20.23C8.85899 18.324 4.5 15.445 4.5 11C4.5 6.864 7.864 3.5 12 3.5C16.136 3.5 19.5 6.864 19.5 11C19.5 15.445 15.141 18.325 12.256 20.23ZM14 10.0991V9C14 7.897 13.103 7 12 7C10.897 7 10 7.897 10 9V10.0991C9.362 10.3001 9 10.827 9 11.625V13.375C9 14.408 9.592 15 10.625 15H13.375C14.408 15 15 14.408 15 13.375V11.625C15 10.826 14.638 10.3001 14 10.0991ZM12 8C12.551 8 13 8.449 13 9V10H11V9C11 8.449 11.449 8 12 8ZM14 13.375C14 13.848 13.848 14 13.375 14H10.625C10.152 14 10 13.848 10 13.375V11.625C10 11.152 10.152 11 10.625 11H13.375C13.848 11 14 11.152 14 11.625V13.375Z" />
</svg>
