<svg viewBox="0 0 24 24" fill="currentColor" stroke="currentColor" xmlns="http://www.w3.org/2000/svg">
<path d="M12 2.5C7.313 2.5 3.5 6.313 3.5 11C3.5 15.983 8.129 19.041 11.192 21.064L11.722 21.416C11.806 21.472 11.903 21.5 11.999 21.5C12.095 21.5 12.192 21.472 12.276 21.416L12.806 21.064C15.869 19.041 20.498 15.983 20.498 11C20.5 6.313 16.687 2.5 12 2.5ZM12.256 20.23L12 20.3999L11.744 20.23C8.859 18.324 4.5 15.445 4.5 11C4.5 6.864 7.864 3.5 12 3.5C16.136 3.5 19.5 6.864 19.5 11C19.5 15.445 15.141 18.325 12.256 20.23ZM14.354 9.354L12.708 11L14.354 12.646C14.549 12.841 14.549 13.158 14.354 13.353C14.256 13.451 14.128 13.499 14 13.499C13.872 13.499 13.744 13.45 13.646 13.353L12 11.707L10.354 13.353C10.256 13.451 10.128 13.499 10 13.499C9.872 13.499 9.744 13.45 9.646 13.353C9.451 13.158 9.451 12.841 9.646 12.646L11.292 11L9.646 9.354C9.451 9.159 9.451 8.84197 9.646 8.64697C9.841 8.45197 10.158 8.45197 10.353 8.64697L11.999 10.293L13.645 8.64697C13.84 8.45197 14.157 8.45197 14.352 8.64697C14.547 8.84197 14.549 9.158 14.354 9.354Z" />
</svg>
