<svg viewBox="0 0 24 24" fill="currentColor" stroke="currentColor" xmlns="http://www.w3.org/2000/svg">
<path d="M21.035 2.96507C20.56 2.48907 19.86 2.36806 19.253 2.65306L3.403 10.112C2.804 10.394 2.45099 11.0031 2.50499 11.6621C2.55899 12.3221 3.00498 12.8661 3.64098 13.0481L7.45696 14.1379C8.62696 14.4719 9.52597 15.371 9.85997 16.541L10.95 20.3569C11.132 20.9939 11.676 21.4399 12.336 21.4929C12.38 21.4959 12.423 21.498 12.467 21.498C13.075 21.498 13.623 21.154 13.886 20.595L21.344 4.7451C21.632 4.1391 21.51 3.43907 21.035 2.96507ZM20.441 4.32103L12.983 20.1709C12.826 20.5039 12.508 20.506 12.418 20.498C12.325 20.491 12.014 20.438 11.913 20.084L10.823 16.268C10.393 14.763 9.23798 13.607 7.73198 13.177L3.916 12.0869C3.562 11.9859 3.51 11.675 3.502 11.582C3.494 11.489 3.49597 11.1741 3.82897 11.0171L19.679 3.55906C20.015 3.39706 20.262 3.6041 20.328 3.6721C20.395 3.7391 20.601 3.98303 20.441 4.32103Z" />
</svg>
