<svg viewBox="0 0 24 24" fill="currentColor" stroke="currentColor" xmlns="http://www.w3.org/2000/svg">
<path d="M12 2.5C7.313 2.5 3.5 6.313 3.5 11C3.5 15.983 8.12902 19.041 11.192 21.064L11.722 21.416C11.806 21.472 11.903 21.5 11.999 21.5C12.095 21.5 12.192 21.472 12.276 21.416L12.806 21.064C15.869 19.041 20.498 15.983 20.498 11C20.5 6.313 16.687 2.5 12 2.5ZM12.256 20.23L12 20.3999L11.744 20.23C8.85902 18.324 4.5 15.445 4.5 11C4.5 6.864 7.864 3.5 12 3.5C16.136 3.5 19.5 6.864 19.5 11C19.5 15.445 15.141 18.325 12.256 20.23ZM12 7.375C9.706 7.375 8.35398 9.07296 7.75098 10.085C7.41498 10.649 7.41498 11.351 7.75098 11.915C8.35298 12.927 9.706 14.625 12 14.625C14.294 14.625 15.646 12.927 16.249 11.915C16.585 11.351 16.585 10.649 16.249 10.085C15.646 9.07296 14.294 7.375 12 7.375ZM15.389 11.4031C14.895 12.2331 13.799 13.625 12 13.625C10.201 13.625 9.10402 12.2331 8.61102 11.4031C8.46302 11.1541 8.46302 10.8449 8.61102 10.5959C9.10502 9.76595 10.201 8.375 12 8.375C13.799 8.375 14.896 9.76692 15.389 10.5969C15.537 10.8449 15.537 11.1551 15.389 11.4031ZM13 11C13 11.553 12.554 12 12.005 12C11.455 12 11 11.553 11 11C11 10.447 11.435 10 11.984 10H12.004C12.554 10 13 10.447 13 11Z" />
</svg>
