<svg viewBox="0 0 24 24" fill="currentColor" stroke="currentColor" xmlns="http://www.w3.org/2000/svg">
<path d="M12 2.5C7.313 2.5 3.5 6.313 3.5 11C3.5 15.983 8.12902 19.041 11.192 21.064L11.722 21.416C11.806 21.472 11.903 21.5 11.999 21.5C12.095 21.5 12.192 21.472 12.276 21.416L12.806 21.064C15.869 19.041 20.498 15.983 20.498 11C20.5 6.313 16.687 2.5 12 2.5ZM12.257 20.23L12 20.3999L11.743 20.23C8.85898 18.324 4.5 15.445 4.5 11C4.5 6.864 7.864 3.5 12 3.5C16.136 3.5 19.5 6.864 19.5 11C19.5 15.445 15.141 18.325 12.257 20.23ZM11.5 11V8C11.5 7.724 11.724 7.5 12 7.5C12.276 7.5 12.5 7.724 12.5 8V11C12.5 11.276 12.276 11.5 12 11.5C11.724 11.5 11.5 11.276 11.5 11ZM12.75 14C12.75 14.415 12.416 14.75 12.004 14.75C11.593 14.75 11.25 14.415 11.25 14C11.25 13.585 11.577 13.25 11.989 13.25H12.004C12.416 13.25 12.75 13.585 12.75 14Z" />
</svg>
