<svg viewBox="0 0 24 24" fill="currentColor" stroke="currentColor" xmlns="http://www.w3.org/2000/svg">
<path d="M12 2.5C7.313 2.5 3.5 6.313 3.5 11C3.5 15.983 8.12899 19.041 11.192 21.064L11.722 21.416C11.806 21.472 11.903 21.5 11.999 21.5C12.095 21.5 12.192 21.472 12.276 21.416L12.806 21.064C15.869 19.041 20.498 15.983 20.498 11C20.5 6.313 16.687 2.5 12 2.5ZM12.256 20.23L12 20.3999L11.744 20.23C8.85899 18.324 4.5 15.445 4.5 11C4.5 6.864 7.864 3.5 12 3.5C16.136 3.5 19.5 6.864 19.5 11C19.5 15.445 15.141 18.325 12.256 20.23ZM14.151 12.4441C14.574 11.8751 14.833 11.178 14.833 10.416C14.833 8.53202 13.3 6.99902 11.416 6.99902C9.53199 6.99902 7.99899 8.53202 7.99899 10.416C7.99899 12.3 9.53199 13.833 11.416 13.833C12.178 13.833 12.875 13.5739 13.444 13.1509L15.146 14.853C15.244 14.951 15.372 14.999 15.5 14.999C15.628 14.999 15.756 14.95 15.854 14.853C16.049 14.658 16.049 14.341 15.854 14.146L14.151 12.4441ZM9 10.417C9 9.08399 10.084 8 11.417 8C12.75 8 13.834 9.08399 13.834 10.417C13.834 11.75 12.75 12.834 11.417 12.834C10.084 12.834 9 11.749 9 10.417Z" />
</svg>
