<svg viewBox="0 0 24 24" fill="currentColor" stroke="currentColor" xmlns="http://www.w3.org/2000/svg">
<path d="M12 2.5C7.313 2.5 3.5 6.313 3.5 11C3.5 15.983 8.12902 19.041 11.192 21.064L11.722 21.416C11.806 21.472 11.903 21.5 11.999 21.5C12.095 21.5 12.192 21.472 12.276 21.416L12.806 21.064C15.869 19.041 20.498 15.983 20.498 11C20.5 6.313 16.687 2.5 12 2.5ZM12.256 20.23L12 20.3999L11.744 20.23C8.85902 18.324 4.5 15.445 4.5 11C4.5 6.864 7.864 3.5 12 3.5C16.136 3.5 19.5 6.864 19.5 11C19.5 15.445 15.141 18.325 12.256 20.23ZM13.549 7.5C12.797 7.458 12.317 7.83905 12 8.19604C11.685 7.84104 11.192 7.5 10.461 7.5C10.457 7.5 10.453 7.5 10.45 7.5C9.68601 7.503 9.048 7.79196 8.604 8.33496C8.069 8.98896 7.87601 9.94293 8.07501 10.9509C8.57501 13.4889 11.664 14.8971 11.796 14.9561C11.861 14.9851 11.93 14.999 12 14.999C12.07 14.999 12.139 14.9841 12.204 14.9561C12.335 14.8971 15.424 13.4879 15.925 10.9509C16.124 9.94193 15.931 8.98798 15.396 8.33398C14.953 7.79198 14.314 7.503 13.549 7.5ZM14.943 10.7581C14.608 12.4561 12.644 13.6071 12 13.9431C11.355 13.6071 9.39101 12.4571 9.05701 10.7581C8.91801 10.0541 9.03803 9.38502 9.37903 8.96802C9.63103 8.65902 9.99399 8.502 10.456 8.5C10.457 8.5 10.459 8.5 10.461 8.5C11.232 8.5 11.517 9.27298 11.527 9.30298C11.595 9.50498 11.784 9.63911 11.997 9.64111C11.998 9.64111 12 9.64111 12.001 9.64111C12.212 9.64111 12.402 9.50588 12.473 9.30688C12.485 9.27388 12.769 8.5 13.54 8.5C13.542 8.5 13.544 8.5 13.545 8.5C14.008 8.502 14.371 8.66002 14.623 8.96802C14.962 9.38302 15.083 10.0531 14.943 10.7581Z" />
</svg>
