<svg viewBox="0 0 24 24" fill="currentColor" stroke="currentColor" xmlns="http://www.w3.org/2000/svg">
<path d="M12 9C10.346 9 9 10.346 9 12C9 13.654 10.346 15 12 15C13.654 15 15 13.654 15 12C15 10.346 13.654 9 12 9ZM12 14C10.897 14 10 13.103 10 12C10 10.897 10.897 10 12 10C13.103 10 14 10.897 14 12C14 13.103 13.103 14 12 14ZM21 11.5H19.475C19.227 7.764 16.237 4.7729 12.5 4.5249V3C12.5 2.724 12.276 2.5 12 2.5C11.724 2.5 11.5 2.724 11.5 3V4.5249C7.764 4.7729 4.77302 7.763 4.52502 11.5H3C2.724 11.5 2.5 11.724 2.5 12C2.5 12.276 2.724 12.5 3 12.5H4.52502C4.77302 16.236 7.763 19.2271 11.5 19.4751V21C11.5 21.276 11.724 21.5 12 21.5C12.276 21.5 12.5 21.276 12.5 21V19.4751C16.236 19.2271 19.227 16.237 19.475 12.5H21C21.276 12.5 21.5 12.276 21.5 12C21.5 11.724 21.276 11.5 21 11.5ZM12 18.5C8.416 18.5 5.5 15.584 5.5 12C5.5 8.416 8.416 5.5 12 5.5C15.584 5.5 18.5 8.416 18.5 12C18.5 15.584 15.584 18.5 12 18.5Z" />
</svg>
