<svg viewBox="0 0 24 24" fill="currentColor" stroke="currentColor" xmlns="http://www.w3.org/2000/svg">
<path d="M12 10.501C13.195 10.501 14.167 9.52898 14.167 8.33398C14.167 7.13898 13.195 6.16699 12 6.16699C10.805 6.16699 9.83301 7.13898 9.83301 8.33398C9.83301 9.52898 10.805 10.501 12 10.501ZM12 7.16699C12.643 7.16699 13.167 7.68998 13.167 8.33398C13.167 8.97798 12.644 9.50098 12 9.50098C11.356 9.50098 10.833 8.97798 10.833 8.33398C10.833 7.68998 11.357 7.16699 12 7.16699ZM20.833 7.58789C20.397 7.31689 19.836 7.30396 19.327 7.55396L17.833 8.302C17.815 5.1 15.207 2.50098 12.001 2.50098C8.95901 2.50098 6.457 4.84312 6.194 7.81812L3.76901 9.03491C2.98701 9.42691 2.50101 10.2151 2.50101 11.0901V19.501C2.50101 20.027 2.76599 20.506 3.20999 20.782C3.65299 21.058 4.19899 21.0851 4.67499 20.8511L8.08401 19.136C8.20002 19.081 8.30699 19.053 8.42599 19.053C8.56399 19.045 8.66799 19.0611 8.77499 19.1021L14.869 21.3811C15.08 21.4631 15.286 21.5029 15.467 21.5029C15.513 21.5029 15.557 21.5001 15.6 21.4951C15.849 21.4951 16.085 21.438 16.354 21.311L20.233 19.3611C21.014 18.9681 21.5 18.1799 21.5 17.3059V8.89111C21.5 8.32711 21.257 7.85189 20.833 7.58789ZM12 3.5C14.665 3.5 16.833 5.66898 16.833 8.33398C16.833 8.55798 16.811 8.77408 16.779 8.98608C16.772 9.00608 16.772 9.0281 16.768 9.0481C16.587 10.1431 16.008 11.073 15.254 11.873C15.248 11.879 15.244 11.8851 15.238 11.8911C14.296 12.8851 13.093 13.6801 12.079 14.3501L12 14.4031L11.921 14.3501C10.907 13.6801 9.70499 12.8851 8.76199 11.8911C8.75599 11.8851 8.752 11.879 8.746 11.873C7.832 10.904 7.16599 9.74798 7.16599 8.33398C7.16699 5.66898 9.335 3.5 12 3.5ZM4.229 19.9551C4.067 20.0351 3.888 20.0261 3.737 19.9331C3.586 19.8391 3.49899 19.681 3.49899 19.5V11.0891C3.49899 10.5941 3.773 10.149 4.215 9.927L6.19901 8.93091C6.35201 10.3149 7.02601 11.4609 7.89801 12.4209V18.145C7.81401 18.172 7.73001 18.1961 7.64401 18.2361L4.229 19.9551ZM9.13101 18.167C9.05601 18.138 8.97799 18.123 8.89999 18.105V13.3889C9.72999 14.0999 10.619 14.6891 11.37 15.1851L11.723 15.4189C11.807 15.4749 11.904 15.5029 12 15.5029C12.096 15.5029 12.193 15.4749 12.277 15.4189L12.63 15.1851C13.381 14.6891 14.27 14.0989 15.1 13.3889V20.3999L9.13101 18.167ZM20.5 17.3059C20.5 17.7999 20.226 18.245 19.784 18.468L16.1 20.3201V12.4231C16.854 11.5931 17.458 10.6239 17.707 9.48291L19.77 8.45093C19.959 8.35693 20.165 8.35199 20.304 8.43799C20.466 8.53899 20.5 8.74109 20.5 8.89209V17.3059Z" />
</svg>
