<svg viewBox="0 0 24 24" fill="currentColor" stroke="currentColor" xmlns="http://www.w3.org/2000/svg">
<path d="M11.5 11.449V17C11.5 17.276 11.724 17.5 12 17.5C12.276 17.5 12.5 17.276 12.5 17V11.449C14.744 11.197 16.5 9.31 16.5 7C16.5 4.519 14.481 2.5 12 2.5C9.519 2.5 7.5 4.519 7.5 7C7.5 9.31 9.256 11.197 11.5 11.449ZM12 3.5C13.93 3.5 15.5 5.07 15.5 7C15.5 8.93 13.93 10.5 12 10.5C10.07 10.5 8.5 8.93 8.5 7C8.5 5.07 10.07 3.5 12 3.5ZM19.5 18C19.5 19.995 16.276 21.5 12 21.5C7.724 21.5 4.5 19.995 4.5 18C4.5 16.76 5.725 15.6921 7.86 15.0701C8.124 14.9901 8.403 15.1449 8.48 15.4099C8.557 15.6749 8.405 15.952 8.14 16.03C6.536 16.497 5.5 17.271 5.5 18C5.5 19.183 8.169 20.5 12 20.5C15.831 20.5 18.5 19.183 18.5 18C18.5 17.271 17.464 16.497 15.86 16.03C15.595 15.953 15.443 15.6749 15.52 15.4099C15.597 15.1449 15.874 14.9901 16.14 15.0701C18.275 15.6921 19.5 16.76 19.5 18Z" />
</svg>
