<svg viewBox="0 0 24 24" fill="currentColor" stroke="currentColor" xmlns="http://www.w3.org/2000/svg">
<path d="M20.789 3.22103C20.344 2.94603 19.797 2.92009 19.33 3.15609L15.904 4.86898C15.693 4.97398 15.446 4.98811 15.226 4.90511L9.12799 2.618C8.64699 2.438 8.108 2.46612 7.651 2.69612L3.883 4.58016C3.03 5.00716 2.50101 5.863 2.50101 6.816V19.504C2.50101 20.027 2.76701 20.5041 3.21201 20.7801C3.65501 21.0541 4.20299 21.0801 4.67099 20.8451L8.09698 19.1322C8.30798 19.0272 8.55499 19.013 8.77499 19.096L14.873 21.3831C15.082 21.4611 15.303 21.5001 15.522 21.5001C15.544 21.5001 15.565 21.493 15.587 21.493C15.592 21.493 15.595 21.4952 15.6 21.4952C15.617 21.4952 15.631 21.4872 15.647 21.4852C15.889 21.4692 16.129 21.415 16.35 21.305L20.118 19.421C20.971 18.994 21.5 18.1381 21.5 17.1851V4.49715C21.5 3.97415 21.234 3.49703 20.789 3.22103ZM4.224 19.95C3.999 20.063 3.809 19.9721 3.737 19.9281C3.666 19.8841 3.5 19.755 3.5 19.503V6.81502C3.5 6.24302 3.81801 5.72898 4.32901 5.47298L7.89999 3.68807V18.1461C7.81599 18.1741 7.72999 18.1962 7.64999 18.2362L4.224 19.95ZM9.12701 18.159C9.05301 18.131 8.97599 18.115 8.89999 18.097V3.60115L14.873 5.84114C14.947 5.86814 15.024 5.88198 15.1 5.89998V20.4L9.12701 18.159ZM20.5 17.1851C20.5 17.7571 20.182 18.2712 19.671 18.5272L16.1 20.3121V5.85701C16.184 5.82901 16.27 5.80302 16.35 5.76302L19.776 4.05013C20 3.93713 20.191 4.0281 20.263 4.0721C20.334 4.1161 20.5 4.24515 20.5 4.49715V17.1851Z" />
</svg>
