<svg viewBox="0 0 24 24" fill="currentColor" stroke="currentColor" xmlns="http://www.w3.org/2000/svg">
<path d="M12 1.5C6.21 1.5 1.5 6.21 1.5 12C1.5 17.79 6.21 22.5 12 22.5C17.79 22.5 22.5 17.79 22.5 12C22.5 6.21 17.79 1.5 12 1.5ZM12 21.5C6.762 21.5 2.5 17.238 2.5 12C2.5 6.762 6.762 2.5 12 2.5C17.238 2.5 21.5 6.762 21.5 12C21.5 17.238 17.238 21.5 12 21.5ZM13 7.5H10C9.724 7.5 9.5 7.724 9.5 8V16C9.5 16.276 9.724 16.5 10 16.5C10.276 16.5 10.5 16.276 10.5 16V12.5H13C14.378 12.5 15.5 11.378 15.5 10C15.5 8.622 14.378 7.5 13 7.5ZM13 11.5H10.5V8.5H13C13.827 8.5 14.5 9.173 14.5 10C14.5 10.827 13.827 11.5 13 11.5Z" />
</svg>
