<svg viewBox="0 0 24 24" fill="currentColor" stroke="currentColor" xmlns="http://www.w3.org/2000/svg">
<path d="M17.625 2.5H6.375C3.84 2.5 2.5 3.84 2.5 6.375V17.625C2.5 20.16 3.84 21.5 6.375 21.5H17.625C20.16 21.5 21.5 20.16 21.5 17.625V6.375C21.5 3.84 20.16 2.5 17.625 2.5ZM20.5 17.625C20.5 19.586 19.587 20.5 17.625 20.5H6.375C4.414 20.5 3.5 19.586 3.5 17.625V6.375C3.5 4.414 4.414 3.5 6.375 3.5H17.625C19.587 3.5 20.5 4.414 20.5 6.375V17.625ZM13 7.5H10C9.724 7.5 9.5 7.724 9.5 8V16C9.5 16.276 9.724 16.5 10 16.5C10.276 16.5 10.5 16.276 10.5 16V12.5H13C14.378 12.5 15.5 11.378 15.5 10C15.5 8.622 14.378 7.5 13 7.5ZM13 11.5H10.5V8.5H13C13.827 8.5 14.5 9.173 14.5 10C14.5 10.827 13.827 11.5 13 11.5Z" />
</svg>
