<svg viewBox="0 0 24 24" fill="currentColor" stroke="currentColor" xmlns="http://www.w3.org/2000/svg">
<path d="M21.5 12C21.5 17.238 17.238 21.5 12 21.5C6.762 21.5 2.5 17.238 2.5 12C2.5 9.625 3.37197 7.39601 4.94897 5.65601L3.646 4.35303C3.451 4.15803 3.451 3.841 3.646 3.646C3.841 3.451 4.15803 3.451 4.35303 3.646L11.545 10.8379C11.681 10.7859 11.825 10.749 11.98 10.749H12.006C12.692 10.749 13.25 11.308 13.25 11.999C13.25 12.69 12.692 13.249 12.006 13.249C11.318 13.249 10.75 12.69 10.75 11.999C10.75 11.838 10.785 11.6869 10.839 11.5449L8.14203 8.8479C7.41503 9.7439 7 10.837 7 11.999C7 14.756 9.243 16.999 12 16.999C13.331 16.999 14.589 16.4801 15.542 15.5381C16.48 14.5891 17 13.33 17 11.999C17 9.24202 14.757 6.99902 12 6.99902C11.724 6.99902 11.5 6.77502 11.5 6.49902C11.5 6.22302 11.724 5.99902 12 5.99902C15.309 5.99902 18 8.69002 18 11.999C18 13.595 17.378 15.1031 16.25 16.2451C15.104 17.3781 13.597 17.999 12 17.999C8.691 17.999 6 15.308 6 11.999C6 10.569 6.50203 9.21202 7.41803 8.12402L5.65698 6.36304C4.26798 7.91304 3.50098 9.892 3.50098 12C3.50098 16.687 7.31398 20.5 12.001 20.5C16.688 20.5 20.501 16.687 20.501 12C20.501 7.313 16.688 3.5 12.001 3.5C11.725 3.5 11.501 3.276 11.501 3C11.501 2.724 11.725 2.5 12.001 2.5C17.238 2.5 21.5 6.762 21.5 12Z" />
</svg>
