<svg viewBox="0 0 24 24" fill="currentColor" stroke="currentColor" xmlns="http://www.w3.org/2000/svg">
<path d="M12.5 10.5V13.5C12.5 13.776 12.276 14 12 14C11.724 14 11.5 13.776 11.5 13.5V10.5C11.5 10.224 11.724 10 12 10C12.276 10 12.5 10.224 12.5 10.5ZM20.838 19.3779C20.265 20.0909 19.413 20.5 18.499 20.5H5.50101C4.58701 20.5 3.73401 20.0909 3.16201 19.3779C2.59001 18.6649 2.37501 17.7441 2.57201 16.8521L4.91901 6.2439C5.28801 4.5769 6.54501 3.5 8.12301 3.5H15.878C17.456 3.5 18.713 4.5769 19.082 6.2439L21.429 16.8521C21.625 17.7451 21.411 18.6659 20.838 19.3779ZM20.452 17.0681L18.105 6.45996C17.838 5.25096 16.984 4.5 15.878 4.5H12.5V7C12.5 7.276 12.276 7.5 12 7.5C11.724 7.5 11.5 7.276 11.5 7V4.5H8.12301C7.01701 4.5 6.163 5.25096 5.896 6.45996L3.549 17.0681C3.417 17.6631 3.56101 18.2769 3.94201 18.7529C4.32401 19.2279 4.89201 19.501 5.50201 19.501H11.501V17.001C11.501 16.725 11.725 16.501 12.001 16.501C12.277 16.501 12.501 16.725 12.501 17.001V19.501H18.5C19.109 19.501 19.678 19.2289 20.06 18.7529C20.44 18.2769 20.583 17.6631 20.452 17.0681Z" />
</svg>
