<svg viewBox="0 0 24 24" fill="currentColor" stroke="currentColor" xmlns="http://www.w3.org/2000/svg">
<path d="M16.814 9.5C17.028 9.5 17.24 9.43 17.411 9.302L20.098 7.302C20.353 7.112 20.5 6.819 20.5 6.5C20.5 6.181 20.353 5.889 20.097 5.698L17.411 3.698C17.24 3.57 17.028 3.5 16.814 3.5H12.5V3C12.5 2.724 12.276 2.5 12 2.5C11.724 2.5 11.5 2.724 11.5 3V3.5H7.5C6.229 3.5 5.5 4.229 5.5 5.5V7.5C5.5 8.771 6.229 9.5 7.5 9.5H11.5V11.5H7.186C6.972 11.5 6.76 11.57 6.589 11.698L3.90199 13.698C3.64699 13.888 3.5 14.181 3.5 14.5C3.5 14.819 3.647 15.111 3.903 15.302L6.589 17.302C6.76 17.43 6.972 17.5 7.186 17.5H11.5V20.5H9C8.724 20.5 8.5 20.724 8.5 21C8.5 21.276 8.724 21.5 9 21.5H15C15.276 21.5 15.5 21.276 15.5 21C15.5 20.724 15.276 20.5 15 20.5H12.5V17.5H16.5C17.771 17.5 18.5 16.771 18.5 15.5V13.5C18.5 12.229 17.771 11.5 16.5 11.5H12.5V9.5H16.814ZM17.5 13.5V15.5C17.5 16.22 17.22 16.5 16.5 16.5H7.186L4.49899 14.5L7.186 12.5H16.5C17.22 12.5 17.5 12.78 17.5 13.5ZM6.5 7.5V5.5C6.5 4.78 6.78 4.5 7.5 4.5H16.814L19.501 6.5L16.814 8.5H7.5C6.78 8.5 6.5 8.22 6.5 7.5Z" />
</svg>
