<svg viewBox="0 0 24 24" fill="currentColor" stroke="currentColor" xmlns="http://www.w3.org/2000/svg">
<path d="M20.061 7.93896L17.207 5.08496C16.829 4.70696 16.327 4.49902 15.793 4.49902H11.5V2.99902C11.5 2.72302 11.276 2.49902 11 2.49902C10.724 2.49902 10.5 2.72302 10.5 2.99902V4.49902H5.84601C4.33301 4.49902 3.5 5.33197 3.5 6.84497V11.1531C3.5 12.6661 4.33301 13.499 5.84601 13.499H10.5V20.499H8C7.724 20.499 7.5 20.723 7.5 20.999C7.5 21.275 7.724 21.499 8 21.499H14C14.276 21.499 14.5 21.275 14.5 20.999C14.5 20.723 14.276 20.499 14 20.499H11.5V13.499H15.793C16.327 13.499 16.829 13.2911 17.207 12.9131L20.061 10.0591C20.646 9.47608 20.646 8.52396 20.061 7.93896ZM19.354 9.354L16.5 12.208C16.311 12.397 16.06 12.501 15.793 12.501H5.84601C4.89001 12.501 4.5 12.111 4.5 11.155V6.84692C4.5 5.89092 4.89001 5.50098 5.84601 5.50098H15.793C16.06 5.50098 16.311 5.60495 16.5 5.79395L19.354 8.64795C19.548 8.84095 19.548 9.159 19.354 9.354Z" />
</svg>
