<svg viewBox="0 0 24 24" fill="currentColor" stroke="currentColor" xmlns="http://www.w3.org/2000/svg">
<path d="M18.154 4.5H13.5V3C13.5 2.724 13.276 2.5 13 2.5C12.724 2.5 12.5 2.724 12.5 3V4.5H8.207C7.673 4.5 7.171 4.70794 6.793 5.08594L3.93899 7.93994C3.35399 8.52494 3.35399 9.47604 3.93899 10.061L6.793 12.915C7.171 13.293 7.673 13.501 8.207 13.501H12.5V20.501H10C9.724 20.501 9.5 20.725 9.5 21.001C9.5 21.277 9.724 21.501 10 21.501H16C16.276 21.501 16.5 21.277 16.5 21.001C16.5 20.725 16.276 20.501 16 20.501H13.5V13.501H18.154C19.667 13.501 20.5 12.668 20.5 11.155V6.84692C20.5 5.33292 19.667 4.5 18.154 4.5ZM19.5 11.1541C19.5 12.1101 19.11 12.5 18.154 12.5H8.207C7.94 12.5 7.689 12.396 7.5 12.207L4.64599 9.35303C4.45099 9.15803 4.45099 8.841 4.64599 8.646L7.5 5.79199C7.689 5.60299 7.94 5.49902 8.207 5.49902H18.154C19.11 5.49902 19.5 5.88897 19.5 6.84497V11.1541Z" />
</svg>
