<svg viewBox="0 0 24 24" fill="currentColor" stroke="currentColor" xmlns="http://www.w3.org/2000/svg">
<path d="M7.5 13.0001C7.5 14.9301 9.07 16.5001 11 16.5001C12.601 16.5001 13.992 15.4211 14.386 13.8761C14.453 13.6091 14.721 13.443 14.993 13.515C15.261 13.583 15.423 13.8551 15.354 14.1231C14.848 16.1111 13.057 17.4991 11 17.4991C8.519 17.4991 6.5 15.4801 6.5 12.9991C6.5 10.9401 7.88901 9.15011 9.87701 8.64511C10.146 8.57511 10.417 8.7392 10.484 9.0062C10.552 9.2742 10.39 9.54613 10.123 9.61313C8.57899 10.0071 7.5 11.3991 7.5 13.0001ZM18.913 11.963C18.639 11.994 18.441 12.2422 18.473 12.5162C18.492 12.6772 18.5 12.8381 18.5 12.9991C18.5 17.1351 15.136 20.4991 11 20.4991C6.864 20.4991 3.5 17.1351 3.5 12.9991C3.5 8.86312 6.864 5.49912 11 5.49912C11.161 5.49912 11.323 5.50797 11.484 5.52597C11.768 5.55297 12.006 5.35908 12.037 5.08408C12.068 4.80908 11.87 4.56308 11.596 4.53208C11.398 4.51008 11.199 4.49912 11 4.49912C6.313 4.49912 2.5 8.31212 2.5 12.9991C2.5 17.6861 6.313 21.4991 11 21.4991C15.687 21.4991 19.5 17.6861 19.5 12.9991C19.5 12.8001 19.489 12.6022 19.467 12.4022C19.436 12.1282 19.184 11.928 18.913 11.963ZM21.354 7.3541L18.793 9.91513C18.421 10.2881 17.905 10.5011 17.379 10.5011H14.207L11.353 13.3551C11.255 13.4531 11.127 13.5011 10.999 13.5011C10.871 13.5011 10.743 13.4521 10.645 13.3551C10.45 13.1601 10.45 12.843 10.645 12.648L13.499 9.79404V6.62216C13.499 6.09616 13.713 5.5801 14.085 5.2081L16.646 2.64707C16.79 2.50407 17.005 2.46016 17.191 2.53916C17.378 2.61616 17.5 2.79907 17.5 3.00107V6.50107H21C21.202 6.50107 21.385 6.62315 21.462 6.81015C21.539 6.99715 21.496 7.2101 21.354 7.3541ZM14.5 6.62119V8.79306L16.5 6.79306V4.20713L14.793 5.91416C14.606 6.10016 14.5 6.35819 14.5 6.62119ZM19.793 7.50009H17.207L15.207 9.50009H17.379C17.642 9.50009 17.9 9.39313 18.086 9.20713L19.793 7.50009Z" />
</svg>
