<svg viewBox="0 0 24 24" fill="currentColor" stroke="currentColor" xmlns="http://www.w3.org/2000/svg">
<path d="M20.794 8.35884L15.64 3.20503C14.99 2.55503 14.394 2.46701 14.011 2.50801C13.449 2.56801 12.942 2.92193 12.547 3.53193L10.341 6.94087C10.011 7.45087 9.451 7.75606 8.843 7.75606C6.775 7.75606 4.83099 8.56088 3.36799 10.0239C3.27399 10.1179 3.22199 10.2449 3.22199 10.3779C3.22199 10.5109 3.27499 10.6379 3.36799 10.7319L7.96499 15.3278L2.647 20.6459C2.452 20.8409 2.452 21.158 2.647 21.353C2.745 21.451 2.873 21.499 3.001 21.499C3.129 21.499 3.25699 21.45 3.35499 21.353L8.673 16.0349L13.269 20.6311C13.367 20.7291 13.495 20.7771 13.623 20.7771C13.751 20.7771 13.879 20.7281 13.977 20.6311C15.439 19.1691 16.245 17.225 16.245 15.156C16.245 14.549 16.55 13.9889 17.06 13.6579L20.469 11.4519C21.08 11.0559 21.434 10.55 21.493 9.98799C21.532 9.60399 21.444 9.00884 20.794 8.35884ZM19.924 10.613L16.515 12.819C15.719 13.335 15.243 14.208 15.243 15.156C15.243 16.789 14.666 18.3338 13.609 19.5568L4.442 10.3898C5.666 9.33285 7.21 8.75606 8.843 8.75606C9.791 8.75606 10.665 8.27984 11.18 7.48384L13.386 4.0749C13.514 3.8759 13.781 3.53691 14.116 3.50191C14.349 3.46791 14.635 3.61284 14.933 3.91084L20.087 9.06489C20.384 9.36189 20.522 9.63703 20.496 9.88203C20.461 10.219 20.123 10.485 19.924 10.613Z" />
</svg>
