<svg viewBox="0 0 24 24" fill="currentColor" stroke="currentColor" xmlns="http://www.w3.org/2000/svg">
<path d="M17.232 10.5249C16.802 10.0949 16.622 9.48389 16.749 8.88989L17.6 4.91895C17.752 4.20795 17.645 3.59894 17.289 3.15894C17.046 2.85794 16.563 2.49902 15.644 2.49902H8.35501C7.43601 2.49902 6.95299 2.85794 6.70999 3.15894C6.35499 3.59894 6.24699 4.20695 6.39899 4.91895L7.25 8.88892C7.377 9.48292 7.196 10.0949 6.767 10.5249C5.305 11.9869 4.49899 13.931 4.49899 16C4.49899 16.276 4.72299 16.5 4.99899 16.5H11.499V21C11.499 21.276 11.723 21.5 11.999 21.5C12.275 21.5 12.499 21.276 12.499 21V16.5H18.999C19.275 16.5 19.499 16.276 19.499 16C19.5 13.932 18.694 11.9869 17.232 10.5249ZM5.51801 15.5C5.63601 13.888 6.32001 12.3869 7.47501 11.2319C8.14501 10.5619 8.428 9.60693 8.229 8.67993L7.37799 4.70898C7.32899 4.47798 7.27701 4.05009 7.48901 3.78809C7.64401 3.59709 7.93499 3.5 8.35599 3.5H15.645C16.066 3.5 16.357 3.59709 16.512 3.78809C16.724 4.05009 16.672 4.47798 16.623 4.70898L15.772 8.67993C15.573 9.60693 15.855 10.5609 16.526 11.2319C17.681 12.3869 18.365 13.887 18.483 15.5H5.51801Z" />
</svg>
