<svg viewBox="0 0 24 24" fill="currentColor" stroke="currentColor" xmlns="http://www.w3.org/2000/svg">
<path d="M20 20.5H18.401L14.749 4.06592C14.518 3.02692 13.86 2.5 12.796 2.5H11.202C10.138 2.5 9.48099 3.02692 9.24899 4.06592L5.59698 20.5H4C3.724 20.5 3.5 20.724 3.5 21C3.5 21.276 3.724 21.5 4 21.5H20C20.276 21.5 20.5 21.276 20.5 21C20.5 20.724 20.276 20.5 20 20.5ZM8.84601 10.5H15.155L16.266 15.5H7.73499L8.84601 10.5ZM10.227 4.28394C10.34 3.77594 10.529 3.5 11.203 3.5H12.797C13.471 3.5 13.66 3.77496 13.773 4.28296L14.932 9.5H9.06799L10.227 4.28394ZM7.51199 16.5H16.487L17.376 20.5H6.62299L7.51199 16.5Z" />
</svg>
