<svg viewBox="0 0 24 24" fill="currentColor" stroke="currentColor" xmlns="http://www.w3.org/2000/svg">
<path d="M16.305 11.667C17.184 10.888 17.75 9.763 17.75 8.5C17.75 6.242 15.975 4.40802 13.75 4.27502V3C13.75 2.586 13.414 2.25 13 2.25C12.586 2.25 12.25 2.586 12.25 3V4.25H9.75V3C9.75 2.586 9.414 2.25 9 2.25C8.586 2.25 8.25 2.586 8.25 3V4.25H6C5.586 4.25 5.25 4.586 5.25 5C5.25 5.414 5.586 5.75 6 5.75H7.25V18.25H6C5.586 18.25 5.25 18.586 5.25 19C5.25 19.414 5.586 19.75 6 19.75H8.25V21C8.25 21.414 8.586 21.75 9 21.75C9.414 21.75 9.75 21.414 9.75 21V19.75H12.25V21C12.25 21.414 12.586 21.75 13 21.75C13.414 21.75 13.75 21.414 13.75 21V19.75H14.5C16.843 19.75 18.75 17.843 18.75 15.5C18.75 13.804 17.745 12.349 16.305 11.667ZM13.5 5.75C15.017 5.75 16.25 6.983 16.25 8.5C16.25 10.017 15.017 11.25 13.5 11.25H8.75V5.75H13.5ZM14.5 18.25H8.75V12.75H13.5H14.5C16.017 12.75 17.25 13.983 17.25 15.5C17.25 17.017 16.017 18.25 14.5 18.25Z" />
</svg>
