<svg viewBox="0 0 24 24" fill="currentColor" stroke="currentColor" xmlns="http://www.w3.org/2000/svg">
<path d="M11 17.25H5C3.423 17.25 2.75 16.577 2.75 15V9.75H19.25V10C19.25 10.414 19.586 10.75 20 10.75C20.414 10.75 20.75 10.414 20.75 10V7C20.75 4.582 19.418 3.25 17 3.25H5C2.582 3.25 1.25 4.582 1.25 7V15C1.25 17.418 2.582 18.75 5 18.75H11C11.414 18.75 11.75 18.414 11.75 18C11.75 17.586 11.414 17.25 11 17.25ZM5 4.75H17C18.577 4.75 19.25 5.423 19.25 7V8.25H2.75V7C2.75 5.423 3.423 4.75 5 4.75ZM9 13.25C9.414 13.25 9.75 13.586 9.75 14C9.75 14.414 9.414 14.75 9 14.75H6C5.586 14.75 5.25 14.414 5.25 14C5.25 13.586 5.586 13.25 6 13.25H9ZM18 12.25C15.381 12.25 13.25 14.381 13.25 17C13.25 19.619 15.381 21.75 18 21.75C20.619 21.75 22.75 19.619 22.75 17C22.75 14.381 20.619 12.25 18 12.25ZM18 20.25C16.208 20.25 14.75 18.792 14.75 17C14.75 15.208 16.208 13.75 18 13.75C19.792 13.75 21.25 15.208 21.25 17C21.25 18.792 19.792 20.25 18 20.25ZM19.53 16.53L19.06 17L19.53 17.47C19.823 17.763 19.823 18.238 19.53 18.531C19.384 18.677 19.192 18.751 19 18.751C18.808 18.751 18.616 18.678 18.47 18.531L18 18.061L17.53 18.531C17.384 18.677 17.192 18.751 17 18.751C16.808 18.751 16.616 18.678 16.47 18.531C16.177 18.238 16.177 17.763 16.47 17.47L16.94 17L16.47 16.53C16.177 16.237 16.177 15.762 16.47 15.469C16.763 15.176 17.238 15.176 17.531 15.469L18.001 15.939L18.471 15.469C18.764 15.176 19.239 15.176 19.532 15.469C19.825 15.762 19.823 16.237 19.53 16.53Z" />
</svg>
