<svg viewBox="0 0 24 24" fill="currentColor" stroke="currentColor" xmlns="http://www.w3.org/2000/svg">
<path d="M18 4.25H6C3.582 4.25 2.25 5.582 2.25 8V16C2.25 18.418 3.582 19.75 6 19.75H18C20.418 19.75 21.75 18.418 21.75 16V8C21.75 5.582 20.418 4.25 18 4.25ZM20.25 16C20.25 17.577 19.577 18.25 18 18.25H6C4.423 18.25 3.75 17.577 3.75 16V10.75H20.25V16ZM20.25 9.25H3.75V8C3.75 6.423 4.423 5.75 6 5.75H18C19.577 5.75 20.25 6.423 20.25 8V9.25ZM6.25 15C6.25 14.586 6.586 14.25 7 14.25H10C10.414 14.25 10.75 14.586 10.75 15C10.75 15.414 10.414 15.75 10 15.75H7C6.586 15.75 6.25 15.414 6.25 15Z" />
</svg>
