<svg viewBox="0 0 24 24" fill="currentColor" stroke="currentColor" xmlns="http://www.w3.org/2000/svg">
<path d="M21.642 6.92703C21.714 7.24903 21.75 7.61002 21.75 8.00002V16C21.75 18.418 20.418 19.75 18 19.75H9C8.586 19.75 8.25 19.414 8.25 19C8.25 18.586 8.586 18.25 9 18.25H18C19.577 18.25 20.25 17.577 20.25 16V10.75H18C17.586 10.75 17.25 10.414 17.25 10C17.25 9.58602 17.586 9.25002 18 9.25002H20.25V8.00002C20.25 7.72302 20.225 7.46404 20.178 7.25204C20.088 6.84804 20.343 6.44702 20.747 6.35702C21.15 6.26802 21.552 6.52303 21.642 6.92703ZM3.53003 21.5301C3.38403 21.6761 3.192 21.75 3 21.75C2.808 21.75 2.61597 21.6771 2.46997 21.5301C2.17697 21.2371 2.17697 20.762 2.46997 20.469L3.75201 19.187C2.77701 18.58 2.25 17.488 2.25 15.999V7.99905C2.25 5.58105 3.582 4.24905 6 4.24905H18C18.228 4.24905 18.443 4.265 18.649 4.29L20.47 2.46902C20.763 2.17602 21.238 2.17602 21.531 2.46902C21.824 2.76202 21.824 3.23705 21.531 3.53005L3.53003 21.5301ZM3.75 8.00002V9.25002H13.689L17.189 5.75002H6C4.423 5.75002 3.75 6.42302 3.75 8.00002ZM4.86798 18.072L7.19 15.75H7C6.586 15.75 6.25 15.414 6.25 15C6.25 14.586 6.586 14.25 7 14.25H8.68903L12.189 10.75H3.75V16C3.75 17.38 4.29098 17.867 4.86798 18.072Z" />
</svg>
