<svg viewBox="0 0 24 24" fill="currentColor" stroke="currentColor" xmlns="http://www.w3.org/2000/svg">
<path d="M19.627 8.75195C19.323 9.70695 18.5431 10.482 17.5861 10.781C16.0381 11.265 14.566 10.601 13.83 9.43201C13.772 9.34001 13.776 9.22403 13.829 9.12903C14.264 8.35303 14.511 7.457 14.511 6.5C14.511 6.168 14.4819 5.84398 14.424 5.52698C14.405 5.42298 14.4369 5.31497 14.5179 5.24597C15.0729 4.77497 15.791 4.5 16.561 4.5C18.677 4.5 20.327 6.55095 19.627 8.75195ZM18.11 12.28H16.13C15.96 12.28 15.83 12.41 15.83 12.58C15.83 12.66 15.86 12.74 15.92 12.79C15.93 12.8 15.94 12.8099 15.95 12.8199C17.35 14.1699 18 16.1 18 18.02C18 18.39 17.98 18.75 17.92 19.08C17.91 19.124 17.907 19.161 17.907 19.201C17.907 19.371 18.04 19.5 18.2 19.5H19.66C21.49 19.5 22.5 18.5001 22.5 16.6801C22.5 14.6501 21.35 12.28 18.11 12.28ZM9.01001 2.5C6.80001 2.5 5.01001 4.29 5.01001 6.5C5.01001 8.71 6.80001 10.5 9.01001 10.5C11.21 10.5 13.01 8.71 13.01 6.5C13.01 4.29 11.21 2.5 9.01001 2.5ZM11 12.5H7C2.94 12.5 1.5 15.47 1.5 18.02C1.5 20.3 2.71 21.5 5 21.5H13C15.29 21.5 16.5 20.3 16.5 18.02C16.5 15.47 15.06 12.5 11 12.5Z" />
</svg>
