<svg viewBox="0 0 24 24" fill="currentColor" stroke="currentColor" xmlns="http://www.w3.org/2000/svg">
<path d="M6.00903 6.5C6.00903 4.294 7.80303 2.5 10.009 2.5C12.215 2.5 14.009 4.294 14.009 6.5C14.009 8.706 12.215 10.5 10.009 10.5C7.80303 10.5 6.00903 8.706 6.00903 6.5ZM11.91 20C11.36 19.07 11.36 17.93 11.91 16.99C12.475 16.052 13.554 14.657 15.239 13.955C15.466 13.86 15.509 13.562 15.306 13.422C14.479 12.853 13.395 12.5 12.001 12.5H8.00098C3.94098 12.5 2.50098 15.47 2.50098 18.02C2.50098 20.3 3.71098 21.5 6.00098 21.5H12.391C12.561 21.5 12.691 21.37 12.691 21.2C12.691 21.113 12.6259 21.017 12.5909 20.98C12.3099 20.63 12.08 20.29 11.91 20ZM21.8 19.24C21.18 20.27 19.8 22 17.5 22C15.2 22 13.82 20.27 13.2 19.24C12.93 18.78 12.93 18.22 13.2 17.76C13.82 16.73 15.2 15 17.5 15C19.8 15 21.18 16.73 21.8 17.76C22.07 18.22 22.07 18.78 21.8 19.24ZM18.75 18.5C18.75 17.81 18.19 17.25 17.5 17.25H17.49C16.8 17.25 16.25 17.81 16.25 18.5C16.25 19.19 16.81 19.75 17.5 19.75C18.19 19.75 18.75 19.19 18.75 18.5Z" />
</svg>
