<svg viewBox="0 0 24 24" fill="currentColor" stroke="currentColor" xmlns="http://www.w3.org/2000/svg">
<path d="M21.75 10.028C21.75 10.442 21.414 10.778 21 10.778H19.25V12.528C19.25 12.942 18.914 13.278 18.5 13.278C18.086 13.278 17.75 12.942 17.75 12.528V10.778H16C15.586 10.778 15.25 10.442 15.25 10.028C15.25 9.61395 15.586 9.27795 16 9.27795H17.75V7.52795C17.75 7.11395 18.086 6.77795 18.5 6.77795C18.914 6.77795 19.25 7.11395 19.25 7.52795V9.27795H21C21.414 9.27795 21.75 9.61395 21.75 10.028ZM10.009 10.5C12.215 10.5 14.009 8.706 14.009 6.5C14.009 4.294 12.215 2.5 10.009 2.5C7.80303 2.5 6.00903 4.294 6.00903 6.5C6.00903 8.706 7.80303 10.5 10.009 10.5ZM12 12.5H8C3.94 12.5 2.5 15.473 2.5 18.019C2.5 20.296 3.71105 21.5 6.00305 21.5H13.9969C16.2889 21.5 17.5 20.296 17.5 18.019C17.5 15.473 16.06 12.5 12 12.5Z" />
</svg>
