<svg viewBox="0 0 24 24" fill="currentColor" stroke="currentColor" xmlns="http://www.w3.org/2000/svg">
<path d="M6.00903 6.5C6.00903 4.294 7.80303 2.5 10.009 2.5C12.215 2.5 14.009 4.294 14.009 6.5C14.009 8.706 12.215 10.5 10.009 10.5C7.80303 10.5 6.00903 8.706 6.00903 6.5ZM11.75 17.33C11.75 15.673 12.52 14.242 13.62 13.166C13.758 13.031 13.716 12.8811 13.709 12.8621C13.705 12.8511 13.678 12.693 13.472 12.649C13.026 12.553 12.534 12.501 12.001 12.501H8.00098C3.94098 12.501 2.50098 15.471 2.50098 18.021C2.50098 20.301 3.71098 21.501 6.00098 21.501H12.911C13.081 21.501 13.2111 21.371 13.2111 21.201C13.2111 21.121 13.179 21.05 13.121 20.991C12.26 20.01 11.75 18.73 11.75 17.33ZM22.53 22.53C22.384 22.676 22.192 22.75 22 22.75C21.808 22.75 21.616 22.677 21.47 22.53L19.639 20.698C18.982 21.149 18.189 21.416 17.334 21.416C15.083 21.416 13.251 19.584 13.251 17.333C13.251 15.082 15.083 13.25 17.334 13.25C19.586 13.25 21.418 15.082 21.418 17.333C21.418 18.188 21.151 18.9809 20.7 19.6379L22.531 21.469C22.823 21.763 22.823 22.237 22.53 22.53ZM19.917 17.333C19.917 15.909 18.758 14.75 17.333 14.75C15.909 14.75 14.75 15.909 14.75 17.333C14.75 18.757 15.909 19.916 17.333 19.916C18.758 19.917 19.917 18.758 19.917 17.333Z" />
</svg>
