<svg viewBox="0 0 24 24" fill="currentColor" stroke="currentColor" xmlns="http://www.w3.org/2000/svg">
<path d="M6.00903 6.5C6.00903 4.294 7.80303 2.5 10.009 2.5C12.215 2.5 14.009 4.294 14.009 6.5C14.009 8.706 12.215 10.5 10.009 10.5C7.80303 10.5 6.00903 8.706 6.00903 6.5ZM15.26 13.8199C15.28 13.8199 15.3 13.83 15.33 13.83C15.45 13.83 15.51 13.75 15.5 13.65C15.5 13.57 15.42 13.51 15.38 13.48C14.55 12.88 13.44 12.5 12 12.5H8C3.94 12.5 2.5 15.47 2.5 18.02C2.5 20.3 3.71 21.5 6 21.5H13.03C13.19 21.5 13.3199 21.39 13.3199 21.21C13.3199 21.15 13.26 21.03 13.24 20.99L12.72 20.1C12.49 19.71 12.4399 19.2401 12.5699 18.8101C12.6399 18.5901 12.75 18.38 12.91 18.21C12.92 18.2 13 18.112 13 18C13 17.92 12.96 17.84 12.91 17.79C12.65 17.49 12.5 17.11 12.5 16.71C12.5 16.39 12.6001 16.13 12.6801 15.97C12.7001 15.93 12.71 15.9 12.73 15.87L13.49 14.62C13.78 14.1 14.33 13.78 14.92 13.78C15.04 13.78 15.15 13.7899 15.26 13.8199ZM21.87 19.16C21.92 19.19 21.9399 19.23 21.9399 19.28C21.9399 19.31 21.94 19.34 21.92 19.36L21.16 20.64C21.12 20.71 21.02 20.74 20.95 20.7C20.74 20.58 20.5 20.52 20.26 20.52C20.02 20.52 19.7799 20.58 19.5699 20.7C19.1499 20.94 18.89 21.38 18.89 21.85C18.89 21.93 18.82 22 18.74 22H17.21C17.12 22 17.05 21.93 17.05 21.85V21.8199C17.05 21.3599 16.78 20.94 16.37 20.7C15.95 20.46 15.42 20.46 14.99 20.7C14.97 20.71 14.95 20.72 14.92 20.72C14.87 20.72 14.81 20.69 14.78 20.64L14.02 19.36C13.98 19.29 14 19.2 14.08 19.16C14.49 18.92 14.76 18.49 14.76 18.03V18C14.76 17.52 14.5 17.08 14.08 16.84C14.03 16.81 14 16.76 14 16.71C14 16.69 14.01 16.66 14.02 16.64L14.79 15.36C14.83 15.29 14.92 15.26 14.99 15.3C15.2 15.42 15.4401 15.48 15.6801 15.48C15.9201 15.48 16.16 15.42 16.37 15.3C16.8 15.06 17.0601 14.62 17.0601 14.15C17.0601 14.07 17.12 14 17.21 14H18.73C18.82 14 18.89 14.07 18.89 14.15C18.89 14.62 19.1499 15.06 19.5699 15.3C19.7799 15.42 20.02 15.48 20.26 15.48C20.5 15.48 20.74 15.42 20.95 15.3L21.08 15.23L22 16.77L21.87 16.84C21.44 17.08 21.1801 17.52 21.1801 18C21.1801 18.48 21.44 18.92 21.87 19.16ZM19.17 18C19.17 17.37 18.65 16.86 18.02 16.86H18.01C17.38 16.86 16.87 17.37 16.87 18C16.87 18.63 17.39 19.14 18.02 19.14C18.65 19.14 19.17 18.63 19.17 18Z" />
</svg>
