<svg viewBox="0 0 24 24" fill="currentColor" stroke="currentColor" xmlns="http://www.w3.org/2000/svg">
<path d="M17.625 3H6.375C4.125 3 3 4.125 3 6.375V17.625C3 19.875 4.125 21 6.375 21H17.625C19.875 21 21 19.875 21 17.625V6.375C21 4.125 19.875 3 17.625 3ZM12.0081 7C13.6651 7 15.0081 8.343 15.0081 10C15.0081 11.657 13.6651 13 12.0081 13C10.3511 13 9.00806 11.657 9.00806 10C9.00806 8.343 10.3511 7 12.0081 7ZM17.62 19.5H6.38C6.25 19.5 6.13001 19.5 6.01001 19.49C6.14001 17.79 7.10004 15.5699 10.29 15.5699H13.71C16.89 15.5699 17.86 17.81 17.99 19.49C17.87 19.5 17.75 19.5 17.62 19.5Z" />
</svg>
