<svg viewBox="0 0 24 24" fill="currentColor" stroke="currentColor" xmlns="http://www.w3.org/2000/svg">
<path d="M18.75 18.35C18.75 20.38 17.62 21.5 15.57 21.5H8.43008C8.03008 21.5 7.67 21.46 7.35 21.37C7.28 21.35 7.05007 21.296 7.05007 21.07C7.05007 20.98 7.08004 20.91 7.14004 20.86L14.45 13.5501C14.52 13.4801 14.62 13.45 14.72 13.46C17.68 13.86 18.75 16.27 18.75 18.35ZM19.2071 8.949C19.1171 8.942 19.023 8.97704 18.96 9.04104L16.1801 11.8211C16.0211 11.9801 16.0931 12.241 16.3051 12.315C17.7241 12.81 18.739 13.744 19.371 14.89C19.421 15 19.521 15.07 19.651 15.07H20.0711C21.6411 15.07 22.501 14.21 22.501 12.65C22.5 11.032 21.6251 9.136 19.2071 8.949ZM3.93008 15.07H4.35C4.48 15.07 4.58003 15 4.63003 14.89C5.36003 13.57 6.59001 12.53 8.36001 12.11C8.59001 12.05 8.69004 11.77 8.52004 11.61C7.83004 10.96 7.33001 10.1101 7.11001 9.16006C7.08001 9.03006 6.95997 8.93008 6.81997 8.93008H5.20998C2.46998 8.93008 1.50002 10.94 1.50002 12.65C1.50002 14.21 2.36008 15.07 3.93008 15.07ZM6.49001 7.85C6.56401 7.85 6.63703 7.84599 6.70803 7.83999C6.80003 7.83199 6.86796 7.80207 6.91396 7.75308C6.95996 7.70408 6.98597 7.65708 6.99197 7.58108C7.09897 6.23008 7.75198 5.03498 8.73098 4.20998C8.79198 4.15798 8.82206 4.12303 8.83706 4.05703C8.85106 3.99403 8.85306 3.922 8.81606 3.855C8.35806 3.045 7.48801 2.49905 6.49001 2.49905C5.02001 2.49905 3.81997 3.69897 3.81997 5.16897C3.81997 6.64997 5.02001 7.85 6.49001 7.85ZM22.5301 1.46999C22.2371 1.17699 21.762 1.17699 21.469 1.46999L19.52 3.41897C19.027 2.85597 18.308 2.50002 17.51 2.50002C16.51 2.50002 15.6401 3.05001 15.1801 3.86001C15.1501 3.92001 15.1501 4.00008 15.1601 4.06008C15.1801 4.12008 15.21 4.15998 15.27 4.20998C15.906 4.74798 16.4061 5.44406 16.7071 6.23306L15.475 7.46499C15.21 5.78599 13.763 4.50002 12.01 4.50002C10.07 4.50002 8.49001 6.07003 8.49001 8.01003C8.49001 9.76003 9.79308 11.2011 11.4821 11.4571L9.51199 13.427C6.72299 13.715 5.52307 15.7031 5.29507 17.6441L1.46999 21.469C1.17699 21.762 1.17699 22.2371 1.46999 22.5301C1.61599 22.6761 1.80802 22.75 2.00002 22.75C2.19202 22.75 2.38405 22.6771 2.53005 22.5301L22.5301 2.53005C22.8231 2.23705 22.8231 1.76299 22.5301 1.46999Z" />
</svg>
