<svg viewBox="0 0 24 24" fill="currentColor" stroke="currentColor" xmlns="http://www.w3.org/2000/svg">
<path d="M19.5 10.509C19.5 11.774 18.7711 12.5 17.4991 12.5H13.501C12.23 12.5 11.5 11.774 11.5 10.509C11.5 9.12103 12.286 7.5 14.5 7.5H16.5C18.714 7.5 19.5 9.12103 19.5 10.509ZM15.5051 6C16.7451 6 17.7551 4.991 17.7551 3.75C17.7551 2.509 16.7451 1.5 15.5051 1.5C14.2651 1.5 13.2551 2.509 13.2551 3.75C13.2551 4.991 14.2651 6 15.5051 6ZM11.5 20.509C11.5 21.774 10.7711 22.5 9.49907 22.5H5.50102C4.23002 22.5 3.50005 21.774 3.50005 20.509C3.50005 19.121 4.28605 17.5 6.50005 17.5H8.50005C10.714 17.5 11.5 19.121 11.5 20.509ZM7.50505 16C8.74505 16 9.75505 14.991 9.75505 13.75C9.75505 12.509 8.74505 11.5 7.50505 11.5C6.26505 11.5 5.25505 12.509 5.25505 13.75C5.25505 14.991 6.26505 16 7.50505 16ZM3.74504 11.187C4.00604 8.80401 5.26599 6.70301 7.18999 5.36401V7.10498C7.18999 7.51898 7.52599 7.85498 7.93999 7.85498C8.35399 7.85498 8.68999 7.51898 8.68999 7.10498V4.05505C8.68999 3.79605 8.55611 3.55497 8.33611 3.41797C8.11611 3.28097 7.84306 3.26698 7.60906 3.38098C4.61806 4.84798 2.61607 7.70495 2.25407 11.0229C2.20807 11.4349 2.50602 11.805 2.91802 11.85C2.94502 11.853 2.97305 11.854 3.00005 11.854C3.37905 11.855 3.70304 11.571 3.74504 11.187ZM16.3901 20.729C19.3811 19.261 21.383 16.404 21.745 13.087C21.791 12.675 21.4931 12.305 21.0811 12.26C20.6681 12.218 20.3001 12.512 20.2551 12.924C19.9941 15.3069 18.7341 17.4079 16.8101 18.7469V17.006C16.8101 16.592 16.4741 16.256 16.0601 16.256C15.6461 16.256 15.3101 16.592 15.3101 17.006V20.056C15.3101 20.315 15.444 20.556 15.664 20.693C15.785 20.768 15.9231 20.806 16.0601 20.806C16.1731 20.806 16.2851 20.78 16.3901 20.729Z" />
</svg>
