<svg viewBox="0 0 24 24" fill="currentColor" stroke="currentColor" xmlns="http://www.w3.org/2000/svg">
<path d="M19.5 18.02C19.5 20.264 18.257 21.5 16 21.5H8.00002C7.62802 21.5 7.28498 21.466 6.98098 21.398C6.80298 21.358 6.66103 21.225 6.60903 21.049C6.55803 20.874 6.60699 20.6851 6.73599 20.5561L14.5871 12.7061C14.6981 12.5961 14.8561 12.543 15.0081 12.564C18.3201 13.017 19.5 15.68 19.5 18.02ZM21.5301 2.46999C21.2371 2.17699 20.762 2.17699 20.469 2.46999L15.96 6.97903C15.979 6.82003 16.0081 6.66402 16.0081 6.50002C16.0081 4.29402 14.2141 2.50002 12.0081 2.50002C9.80208 2.50002 8.00808 4.29402 8.00808 6.50002C8.00808 8.70602 9.80208 10.5 12.0081 10.5C12.1721 10.5 12.3281 10.4711 12.4871 10.4521L10.439 12.5H10C5.94002 12.5 4.50002 15.47 4.50002 18.02C4.50002 18.159 4.50897 18.29 4.51797 18.421L1.46902 21.47C1.17602 21.763 1.17602 22.238 1.46902 22.531C1.61502 22.677 1.80705 22.751 1.99905 22.751C2.19105 22.751 2.38308 22.678 2.52908 22.531L21.5291 3.53103C21.8231 3.23703 21.8231 2.76299 21.5301 2.46999Z" />
</svg>
