<svg viewBox="0 0 24 24" fill="currentColor" stroke="currentColor" xmlns="http://www.w3.org/2000/svg">
<path d="M16 19.75H9.5C5.502 19.75 2.25 16.498 2.25 12.5C2.25 8.502 5.502 5.25 9.5 5.25C11.264 5.25 12.9641 5.89198 14.2881 7.05798C14.7021 7.42298 15.0711 7.83303 15.3921 8.28003C15.5931 8.25903 15.794 8.24902 16 8.24902C19.171 8.24902 21.75 10.828 21.75 13.999C21.75 17.17 19.171 19.75 16 19.75ZM9.5 6.75C6.329 6.75 3.75 9.329 3.75 12.5C3.75 15.671 6.329 18.25 9.5 18.25H16C18.344 18.25 20.25 16.344 20.25 14C20.25 11.656 18.344 9.75 16 9.75C15.717 9.75 15.4449 9.77503 15.1689 9.82703C14.8669 9.88503 14.5551 9.74801 14.3931 9.48401C14.0931 8.99901 13.7239 8.56102 13.2959 8.18402C12.2469 7.25902 10.898 6.75 9.5 6.75Z" />
</svg>
