<svg viewBox="0 0 24 24" fill="currentColor" stroke="currentColor" xmlns="http://www.w3.org/2000/svg">
<path d="M15.97 8.25C15.765 8.25 15.563 8.26001 15.363 8.28101C15.044 7.83501 14.674 7.42602 14.259 7.05902C12.935 5.89302 11.2349 5.25098 9.47095 5.25098C5.47295 5.25098 2.22095 8.50298 2.22095 12.501C2.22095 16.499 5.47295 19.751 9.47095 19.751H15.9709C19.1419 19.751 21.7209 17.172 21.7209 14.001C21.7209 10.83 19.141 8.25 15.97 8.25ZM15.97 18.25H9.46997C6.29897 18.25 3.71997 15.671 3.71997 12.5C3.71997 9.329 6.29897 6.75 9.46997 6.75C10.868 6.75 12.2171 7.25902 13.2661 8.18402C13.6961 8.56302 14.0651 9.00001 14.3621 9.48401C14.5231 9.74801 14.8279 9.885 15.1389 9.828C15.4149 9.776 15.688 9.75098 15.97 9.75098C18.314 9.75098 20.22 11.657 20.22 14.001C20.22 16.345 18.313 18.25 15.97 18.25ZM14.75 13.5C14.75 13.914 14.414 14.25 14 14.25H12.75V15.5C12.75 15.914 12.414 16.25 12 16.25C11.586 16.25 11.25 15.914 11.25 15.5V14.25H10C9.586 14.25 9.25 13.914 9.25 13.5C9.25 13.086 9.586 12.75 10 12.75H11.25V11.5C11.25 11.086 11.586 10.75 12 10.75C12.414 10.75 12.75 11.086 12.75 11.5V12.75H14C14.414 12.75 14.75 13.086 14.75 13.5Z" />
</svg>
