<svg viewBox="0 0 24 24" fill="currentColor" stroke="currentColor" xmlns="http://www.w3.org/2000/svg">
<path d="M20.53 8.47L14.53 2.47C14.389 2.329 14.199 2.25 14 2.25H8C5.582 2.25 4.25 3.582 4.25 6V18C4.25 20.418 5.582 21.75 8 21.75H17C19.418 21.75 20.75 20.418 20.75 18V9C20.75 8.801 20.671 8.61 20.53 8.47ZM14.75 4.811L18.189 8.25H17C15.423 8.25 14.75 7.577 14.75 6V4.811ZM17 20.25H8C6.423 20.25 5.75 19.577 5.75 18V6C5.75 4.423 6.423 3.75 8 3.75H13.25V6C13.25 8.418 14.582 9.75 17 9.75H19.25V18C19.25 19.577 18.577 20.25 17 20.25ZM15.688 11.39C14.19 11.002 13.493 10.67 12.853 10.335C12.635 10.223 12.3781 10.222 12.1631 10.333C11.5171 10.666 10.8101 11.001 9.28906 11.447C8.97006 11.541 8.75 11.834 8.75 12.167V14.111C8.75 16.607 10.5609 18.123 12.2549 18.709C12.3339 18.736 12.417 18.75 12.5 18.75C12.583 18.75 12.6661 18.736 12.7451 18.709C14.4391 18.123 16.25 16.607 16.25 14.111V12.116C16.25 11.774 16.019 11.476 15.688 11.39ZM14.75 14.111C14.75 16.024 13.187 16.902 12.5 17.195C11.813 16.902 10.25 16.024 10.25 14.111V12.723C11.228 12.416 11.8749 12.148 12.5039 11.84C13.1249 12.145 13.784 12.412 14.75 12.689V14.111Z" />
</svg>
