<svg viewBox="0 0 24 24" fill="currentColor" stroke="currentColor" xmlns="http://www.w3.org/2000/svg">
<path d="M16.854 19.557C16.513 20.023 15.907 20.25 15 20.25H6C4.423 20.25 3.75 19.577 3.75 18V6C3.75 4.423 4.423 3.75 6 3.75H11.25V6C11.25 8.418 12.582 9.75 15 9.75H17.25V12C17.25 12.414 17.586 12.75 18 12.75C18.414 12.75 18.75 12.414 18.75 12V9C18.75 8.801 18.671 8.61 18.53 8.47L12.53 2.47C12.389 2.329 12.199 2.25 12 2.25H6C3.582 2.25 2.25 3.582 2.25 6V18C2.25 20.418 3.582 21.75 6 21.75H15C16.399 21.75 17.4309 21.311 18.0649 20.443C18.3089 20.109 18.2371 19.64 17.9031 19.395C17.5661 19.149 17.1 19.224 16.854 19.557ZM12.75 6V4.811L16.189 8.25H15C13.423 8.25 12.75 7.577 12.75 6ZM22.75 16C22.75 16.414 22.414 16.75 22 16.75H14.811L15.531 17.47C15.824 17.763 15.824 18.238 15.531 18.531C15.385 18.677 15.193 18.751 15.001 18.751C14.809 18.751 14.6169 18.678 14.4709 18.531L12.4709 16.531C12.4019 16.462 12.3471 16.379 12.3091 16.287C12.2331 16.104 12.2331 15.897 12.3091 15.714C12.3471 15.622 12.4019 15.539 12.4709 15.47L14.4709 13.47C14.7639 13.177 15.239 13.177 15.532 13.47C15.825 13.763 15.825 14.238 15.532 14.531L14.812 15.251H22C22.414 15.25 22.75 15.586 22.75 16Z" />
</svg>
