<svg viewBox="0 0 24 24" fill="currentColor" stroke="currentColor" xmlns="http://www.w3.org/2000/svg">
<path d="M20.53 8.47L14.53 2.47C14.389 2.329 14.199 2.25 14 2.25H8C5.582 2.25 4.25 3.582 4.25 6V18C4.25 20.418 5.582 21.75 8 21.75H17C19.418 21.75 20.75 20.418 20.75 18V9C20.75 8.801 20.671 8.61 20.53 8.47ZM14.75 4.811L18.189 8.25H17C15.423 8.25 14.75 7.577 14.75 6V4.811ZM17 20.25H8C6.423 20.25 5.75 19.577 5.75 18V6C5.75 4.423 6.423 3.75 8 3.75H13.25V6C13.25 8.418 14.582 9.75 17 9.75H19.25V18C19.25 19.577 18.577 20.25 17 20.25ZM9.75 12C9.75 12.414 9.414 12.75 9 12.75C8.586 12.75 8.25 12.414 8.25 12C8.25 11.586 8.586 11.25 9 11.25C9.414 11.25 9.75 11.586 9.75 12ZM9.75 16C9.75 16.414 9.414 16.75 9 16.75C8.586 16.75 8.25 16.414 8.25 16C8.25 15.586 8.586 15.25 9 15.25C9.414 15.25 9.75 15.586 9.75 16ZM16.75 12C16.75 12.414 16.414 12.75 16 12.75H11.5C11.086 12.75 10.75 12.414 10.75 12C10.75 11.586 11.086 11.25 11.5 11.25H16C16.414 11.25 16.75 11.586 16.75 12ZM16.75 16C16.75 16.414 16.414 16.75 16 16.75H11.5C11.086 16.75 10.75 16.414 10.75 16C10.75 15.586 11.086 15.25 11.5 15.25H16C16.414 15.25 16.75 15.586 16.75 16Z" />
</svg>
