<svg viewBox="0 0 24 24" fill="currentColor" stroke="currentColor" xmlns="http://www.w3.org/2000/svg">
<path d="M20.53 8.47L14.53 2.47C14.389 2.329 14.199 2.25 14 2.25H8C5.582 2.25 4.25 3.582 4.25 6V18C4.25 20.418 5.582 21.75 8 21.75H17C19.418 21.75 20.75 20.418 20.75 18V9C20.75 8.801 20.671 8.61 20.53 8.47ZM14.75 4.811L18.189 8.25H17C15.423 8.25 14.75 7.577 14.75 6V4.811ZM17 20.25H8C6.423 20.25 5.75 19.577 5.75 18V6C5.75 4.423 6.423 3.75 8 3.75H13.25V6C13.25 8.418 14.582 9.75 17 9.75H19.25V18C19.25 19.577 18.577 20.25 17 20.25ZM14.051 10.5C14.046 10.5 14.0421 10.5 14.0381 10.5C13.3771 10.5 12.869 10.756 12.5 11.088C12.131 10.755 11.6229 10.5 10.9619 10.5C10.9579 10.5 10.953 10.5 10.949 10.5C10.109 10.504 9.40389 10.824 8.91089 11.426C8.32889 12.138 8.11608 13.167 8.33008 14.25C8.85508 16.913 12.0581 18.374 12.1931 18.435C12.2911 18.479 12.395 18.5 12.5 18.5C12.605 18.5 12.7089 18.479 12.8069 18.435C12.9429 18.374 16.1449 16.914 16.6689 14.25C16.8829 13.167 16.6721 12.138 16.0901 11.427C15.5981 10.824 14.893 10.504 14.051 10.5ZM15.198 13.959C14.901 15.463 13.205 16.526 12.5 16.909C11.795 16.526 10.099 15.463 9.802 13.96C9.677 13.328 9.779 12.735 10.073 12.376C10.279 12.125 10.568 12.002 10.958 12C10.959 12 10.9599 12 10.9619 12C11.5409 12 11.77 12.576 11.791 12.633C11.893 12.935 12.1749 13.134 12.4929 13.138C12.4959 13.138 12.4989 13.138 12.5029 13.138C12.8159 13.138 13.1 12.937 13.208 12.642C13.232 12.576 13.461 12 14.04 12C14.042 12 14.0429 12 14.0439 12C14.4349 12.002 14.7249 12.125 14.9299 12.376C15.2219 12.735 15.322 13.327 15.198 13.959Z" />
</svg>
