<svg viewBox="0 0 24 24" fill="currentColor" stroke="currentColor" xmlns="http://www.w3.org/2000/svg">
<path d="M20.53 8.47L14.53 2.47C14.389 2.329 14.199 2.25 14 2.25H8C5.582 2.25 4.25 3.582 4.25 6V18C4.25 20.418 5.582 21.75 8 21.75H17C19.418 21.75 20.75 20.418 20.75 18V9C20.75 8.801 20.671 8.61 20.53 8.47ZM14.75 4.811L18.189 8.25H17C15.423 8.25 14.75 7.577 14.75 6V4.811ZM17 20.25H8C6.423 20.25 5.75 19.577 5.75 18V6C5.75 4.423 6.423 3.75 8 3.75H13.25V6C13.25 8.418 14.582 9.75 17 9.75H19.25V18C19.25 19.577 18.577 20.25 17 20.25ZM15.03 12.53L13.5601 14L15.03 15.47C15.323 15.763 15.323 16.238 15.03 16.531C14.884 16.677 14.692 16.751 14.5 16.751C14.308 16.751 14.116 16.678 13.97 16.531L12.5 15.061L11.03 16.531C10.884 16.677 10.692 16.751 10.5 16.751C10.308 16.751 10.116 16.678 9.96997 16.531C9.67697 16.238 9.67697 15.763 9.96997 15.47L11.4399 14L9.96997 12.53C9.67697 12.237 9.67697 11.762 9.96997 11.469C10.263 11.176 10.738 11.176 11.031 11.469L12.501 12.939L13.9709 11.469C14.2639 11.176 14.739 11.176 15.032 11.469C15.325 11.762 15.323 12.237 15.03 12.53Z" />
</svg>
