<svg viewBox="0 0 24 24" fill="currentColor" stroke="currentColor" xmlns="http://www.w3.org/2000/svg">
<path d="M20.53 8.47L14.53 2.47C14.389 2.329 14.199 2.25 14 2.25H8C5.582 2.25 4.25 3.582 4.25 6V18C4.25 20.418 5.582 21.75 8 21.75H17C19.418 21.75 20.75 20.418 20.75 18V9C20.75 8.801 20.671 8.61 20.53 8.47ZM14.75 4.811L18.189 8.25H17C15.423 8.25 14.75 7.577 14.75 6V4.811ZM17 20.25H8C6.423 20.25 5.75 19.577 5.75 18V6C5.75 4.423 6.423 3.75 8 3.75H13.25V6C13.25 8.418 14.582 9.75 17 9.75H19.25V18C19.25 19.577 18.577 20.25 17 20.25ZM14.75 15C14.75 15.414 14.414 15.75 14 15.75H10.811L11.531 16.47C11.824 16.763 11.824 17.238 11.531 17.531C11.385 17.677 11.193 17.751 11.001 17.751C10.809 17.751 10.6169 17.678 10.4709 17.531L8.47095 15.531C8.40195 15.462 8.34708 15.379 8.30908 15.287C8.23308 15.104 8.23308 14.897 8.30908 14.714C8.34708 14.622 8.40195 14.539 8.47095 14.47L10.4709 12.47C10.7639 12.177 11.239 12.177 11.532 12.47C11.825 12.763 11.825 13.238 11.532 13.531L10.812 14.251H14C14.414 14.25 14.75 14.586 14.75 15Z" />
</svg>
