<svg viewBox="0 0 24 24" fill="currentColor" stroke="currentColor" xmlns="http://www.w3.org/2000/svg">
<path d="M22.439 11.403C22.032 10.708 21.306 10.293 20.499 10.292H19.75V10C19.75 7.582 18.418 6.25 16 6.25H10.311L8.53101 4.47C8.39001 4.329 8.19998 4.25 8.00098 4.25H5.00098C2.58298 4.25 1.25098 5.582 1.25098 8V18.496C1.25098 18.5 1.25293 18.503 1.25293 18.507C1.25293 18.897 1.35404 19.287 1.56104 19.64C1.96904 20.335 2.69495 20.75 3.50195 20.75H16.283C17.643 20.75 18.8981 20.014 19.5601 18.83L22.4629 13.629C22.8539 12.928 22.846 12.096 22.439 11.403ZM5 5.75H7.68896L9.46899 7.53C9.60999 7.671 9.80002 7.75 9.99902 7.75H15.999C17.576 7.75 18.249 8.423 18.249 10V10.292L7.71997 10.286C7.71897 10.286 7.71804 10.286 7.71704 10.286C6.35604 10.286 5.09996 11.022 4.43896 12.208L2.75 15.238V8C2.75 6.423 3.423 5.75 5 5.75ZM21.1531 12.898L18.25 18.099C17.854 18.809 17.1 19.251 16.283 19.251H3.50195C3.11295 19.251 2.91998 18.993 2.85498 18.882C2.79098 18.772 2.66092 18.481 2.84692 18.147L5.75 12.94C6.146 12.229 6.90002 11.788 7.71802 11.788C7.71902 11.788 7.71897 11.788 7.71997 11.788L20.499 11.795C20.888 11.795 21.081 12.054 21.145 12.165C21.21 12.272 21.3401 12.564 21.1531 12.898Z" />
</svg>
