<svg viewBox="0 0 24 24" fill="currentColor" stroke="currentColor" xmlns="http://www.w3.org/2000/svg">
<path d="M18 6.25H13.311L10.531 3.47C10.39 3.329 10.2 3.25 10.001 3.25H6.00098C3.58298 3.25 2.25098 4.582 2.25098 7V17C2.25098 19.418 3.58298 20.75 6.00098 20.75H18.001C20.419 20.75 21.751 19.418 21.751 17V10C21.75 7.582 20.418 6.25 18 6.25ZM20.25 17C20.25 18.577 19.577 19.25 18 19.25H6C4.423 19.25 3.75 18.577 3.75 17V7C3.75 5.423 4.423 4.75 6 4.75H9.68896L12.469 7.53C12.61 7.671 12.8 7.75 12.999 7.75H17.999C19.576 7.75 20.249 8.423 20.249 10V17H20.25ZM12.6919 13.713C12.7679 13.896 12.7679 14.103 12.6919 14.286C12.6539 14.378 12.599 14.461 12.53 14.53L10.53 16.53C10.384 16.676 10.192 16.75 10 16.75C9.808 16.75 9.61597 16.677 9.46997 16.53C9.17697 16.237 9.17697 15.762 9.46997 15.469L10.1899 14.749H7C6.586 14.749 6.25 14.413 6.25 13.999C6.25 13.585 6.586 13.249 7 13.249H10.189L9.46899 12.529C9.17599 12.236 9.17599 11.761 9.46899 11.468C9.76199 11.175 10.237 11.175 10.53 11.468L12.53 13.468C12.599 13.539 12.6539 13.622 12.6919 13.713Z" />
</svg>
