<svg viewBox="0 0 24 24" fill="currentColor" stroke="currentColor" xmlns="http://www.w3.org/2000/svg">
<path d="M6.00004 17C5.74404 17 5.48801 16.9021 5.29301 16.7071C4.90201 16.3161 4.90201 15.684 5.29301 15.293L8.58597 12L5.29301 8.70707C4.90201 8.31607 4.90201 7.68401 5.29301 7.29301C5.68401 6.90201 6.31607 6.90201 6.70707 7.29301L10.7071 11.293C11.0981 11.684 11.0981 12.3161 10.7071 12.7071L6.70707 16.7071C6.51207 16.9021 6.25604 17 6.00004 17ZM18.7071 16.7071C19.0981 16.3161 19.0981 15.684 18.7071 15.293L15.4141 12L18.7071 8.70707C19.0981 8.31607 19.0981 7.68401 18.7071 7.29301C18.3161 6.90201 17.684 6.90201 17.293 7.29301L13.293 11.293C12.902 11.684 12.902 12.3161 13.293 12.7071L17.293 16.7071C17.488 16.9021 17.744 17 18 17C18.256 17 18.5121 16.9021 18.7071 16.7071Z" />
</svg>
