<svg viewBox="0 0 24 24" fill="currentColor" stroke="currentColor" xmlns="http://www.w3.org/2000/svg">
<path d="M7.29301 11.7071C6.90201 11.3161 6.90201 10.684 7.29301 10.293L11.293 6.29301C11.684 5.90201 12.3161 5.90201 12.7071 6.29301L16.7071 10.293C17.0981 10.684 17.0981 11.3161 16.7071 11.7071C16.5121 11.9021 16.256 12 16 12C15.744 12 15.488 11.9021 15.293 11.7071L12 8.4141L8.70707 11.7071C8.31607 12.0981 7.68401 12.0981 7.29301 11.7071ZM12.7071 12.293C12.3161 11.902 11.684 11.902 11.293 12.293L7.29301 16.293C6.90201 16.684 6.90201 17.3161 7.29301 17.7071C7.68401 18.0981 8.31607 18.0981 8.70707 17.7071L12 14.4141L15.293 17.7071C15.488 17.9021 15.744 18 16 18C16.256 18 16.5121 17.9021 16.7071 17.7071C17.0981 17.3161 17.0981 16.684 16.7071 16.293L12.7071 12.293Z" />
</svg>
