<svg viewBox="0 0 24 24" fill="currentColor" stroke="currentColor" xmlns="http://www.w3.org/2000/svg">
<path d="M17.625 3H6.375C4.125 3 3 4.125 3 6.375V17.625C3 19.875 4.125 21 6.375 21H17.625C19.875 21 21 19.875 21 17.625V6.375C21 4.125 19.875 3 17.625 3ZM15.53 11.53L12.53 14.53C12.384 14.676 12.192 14.75 12 14.75C11.808 14.75 11.616 14.677 11.47 14.53L8.46997 11.53C8.17697 11.237 8.17697 10.762 8.46997 10.469C8.76297 10.176 9.23801 10.176 9.53101 10.469L12.001 12.939L14.4709 10.469C14.7639 10.176 15.239 10.176 15.532 10.469C15.825 10.762 15.823 11.237 15.53 11.53Z" />
</svg>
