<svg viewBox="0 0 24 24" fill="currentColor" stroke="currentColor" xmlns="http://www.w3.org/2000/svg">
<path d="M17.625 3H6.375C4.125 3 3 4.125 3 6.375V17.625C3 19.875 4.125 21 6.375 21H17.625C19.875 21 21 19.875 21 17.625V6.375C21 4.125 19.875 3 17.625 3ZM13.53 14.47C13.823 14.763 13.823 15.238 13.53 15.531C13.384 15.677 13.192 15.751 13 15.751C12.808 15.751 12.616 15.678 12.47 15.531L9.46997 12.531C9.17697 12.238 9.17697 11.763 9.46997 11.47L12.47 8.46997C12.763 8.17697 13.238 8.17697 13.531 8.46997C13.824 8.76297 13.824 9.23801 13.531 9.53101L11.061 12.001L13.53 14.47Z" />
</svg>
