<svg viewBox="0 0 24 24" fill="currentColor" stroke="currentColor" xmlns="http://www.w3.org/2000/svg">
<path d="M12 2C6.477 2 2 6.477 2 12C2 17.523 6.477 22 12 22C17.523 22 22 17.523 22 12C22 6.477 17.523 2 12 2ZM15.53 11.53L12.53 14.53C12.384 14.676 12.192 14.75 12 14.75C11.808 14.75 11.616 14.677 11.47 14.53L8.46997 11.53C8.17697 11.237 8.17697 10.762 8.46997 10.469C8.76297 10.176 9.23801 10.176 9.53101 10.469L12.001 12.939L14.4709 10.469C14.7639 10.176 15.239 10.176 15.532 10.469C15.825 10.762 15.823 11.237 15.53 11.53Z" />
</svg>
