<svg viewBox="0 0 24 24" fill="currentColor" stroke="currentColor" xmlns="http://www.w3.org/2000/svg">
<path d="M17.625 3H6.375C4.125 3 3 4.125 3 6.375V17.625C3 19.875 4.125 21 6.375 21H17.625C19.875 21 21 19.875 21 17.625V6.375C21 4.125 19.875 3 17.625 3ZM15.53 13.53C15.384 13.676 15.192 13.75 15 13.75C14.808 13.75 14.616 13.677 14.47 13.53L12 11.0601L9.53003 13.53C9.23703 13.823 8.76199 13.823 8.46899 13.53C8.17599 13.237 8.17599 12.762 8.46899 12.469L11.469 9.46899C11.762 9.17599 12.237 9.17599 12.53 9.46899L15.53 12.469C15.823 12.763 15.823 13.237 15.53 13.53Z" />
</svg>
