<svg viewBox="0 0 24 24" fill="currentColor" stroke="currentColor" xmlns="http://www.w3.org/2000/svg">
<path d="M12.7071 18.293C13.0981 18.684 13.0981 19.3161 12.7071 19.7071C12.5121 19.9021 12.256 20 12 20C11.744 20 11.488 19.9021 11.293 19.7071L4.29301 12.7071C3.90201 12.3161 3.90201 11.684 4.29301 11.293L11.293 4.29301C11.684 3.90201 12.3161 3.90201 12.7071 4.29301C13.0981 4.68401 13.0981 5.31607 12.7071 5.70707L6.4141 12L12.7071 18.293ZM13.4141 12L19.7071 5.70707C20.0981 5.31607 20.0981 4.68401 19.7071 4.29301C19.3161 3.90201 18.684 3.90201 18.293 4.29301L11.293 11.293C10.902 11.684 10.902 12.3161 11.293 12.7071L18.293 19.7071C18.488 19.9021 18.744 20 19 20C19.256 20 19.5121 19.9021 19.7071 19.7071C20.0981 19.3161 20.0981 18.684 19.7071 18.293L13.4141 12Z" />
</svg>
