<svg viewBox="0 0 24 24" fill="currentColor" stroke="currentColor" xmlns="http://www.w3.org/2000/svg">
<path d="M16.7071 17.293C17.0981 17.684 17.0981 18.3161 16.7071 18.7071C16.5121 18.9021 16.256 19 16 19C15.744 19 15.488 18.9021 15.293 18.7071L12 15.4141L8.70707 18.7071C8.31607 19.0981 7.68401 19.0981 7.29301 18.7071C6.90201 18.3161 6.90201 17.684 7.29301 17.293L11.293 13.293C11.684 12.902 12.3161 12.902 12.7071 13.293L16.7071 17.293ZM11.293 10.7071C11.488 10.9021 11.744 11 12 11C12.256 11 12.5121 10.9021 12.7071 10.7071L16.7071 6.70707C17.0981 6.31607 17.0981 5.68401 16.7071 5.29301C16.3161 4.90201 15.684 4.90201 15.293 5.29301L12 8.58597L8.70707 5.29301C8.31607 4.90201 7.68401 4.90201 7.29301 5.29301C6.90201 5.68401 6.90201 6.31607 7.29301 6.70707L11.293 10.7071Z" />
</svg>
