<svg viewBox="0 0 24 24" fill="currentColor" stroke="currentColor" xmlns="http://www.w3.org/2000/svg">
<path d="M21.23 15.9729C21.153 15.9909 21.075 16 20.999 16C20.546 16 20.1361 15.69 20.0271 15.23C19.1591 11.562 15.9071 9 12.1201 9C9.21912 9 6.57692 10.565 5.13892 13H7.00488C7.55788 13 8.00488 13.448 8.00488 14C8.00488 14.552 7.55788 15 7.00488 15H3C2.447 15 2 14.552 2 14V10C2 9.448 2.447 9 3 9C3.553 9 4 9.448 4 10V11.0901C5.876 8.57009 8.87212 7 12.1201 7C16.8391 7 20.8909 10.195 21.9729 14.77C22.1009 15.307 21.768 15.8459 21.23 15.9729Z" />
</svg>
