<svg viewBox="0 0 24 24" fill="currentColor" stroke="currentColor" xmlns="http://www.w3.org/2000/svg">
<path d="M22 12V15C22 17.206 20.206 19 18 19H5.41406L6.70703 20.293C7.09803 20.684 7.09803 21.3161 6.70703 21.7071C6.51203 21.9021 6.256 22 6 22C5.744 22 5.48797 21.9021 5.29297 21.7071L2.29395 18.708C2.20095 18.615 2.1279 18.5051 2.0769 18.3821C1.9759 18.1381 1.9759 17.862 2.0769 17.618C2.1279 17.495 2.20095 17.385 2.29395 17.292L5.29297 14.293C5.68397 13.902 6.31603 13.902 6.70703 14.293C7.09803 14.684 7.09803 15.3161 6.70703 15.7071L5.41406 17H18C19.103 17 20 16.103 20 15V12C20 11.448 20.447 11 21 11C21.553 11 22 11.448 22 12ZM3 13C3.553 13 4 12.552 4 12V9.00004C4 7.89704 4.897 7.00004 6 7.00004H18.5859L17.293 8.29301C16.902 8.68401 16.902 9.31607 17.293 9.70707C17.488 9.90207 17.744 10 18 10C18.256 10 18.512 9.90207 18.707 9.70707L21.7061 6.70805C21.7991 6.61505 21.8721 6.50512 21.9231 6.38212C22.0241 6.13812 22.0241 5.86196 21.9231 5.61796C21.8721 5.49496 21.7991 5.38503 21.7061 5.29203L18.707 2.29301C18.316 1.90201 17.684 1.90201 17.293 2.29301C16.902 2.68401 16.902 3.31607 17.293 3.70707L18.5859 5.00004H6C3.794 5.00004 2 6.79404 2 9.00004V12C2 12.552 2.447 13 3 13Z" />
</svg>
