<svg viewBox="0 0 24 24" fill="currentColor" stroke="currentColor" xmlns="http://www.w3.org/2000/svg">
<path d="M18.707 6.70707L7.41406 18H15C15.553 18 16 18.448 16 19C16 19.552 15.553 20 15 20H5C4.87 20 4.73992 19.9731 4.61792 19.9231C4.37292 19.8221 4.1789 19.6271 4.0769 19.3821C4.0259 19.2601 4 19.13 4 19V9.00004C4 8.44804 4.447 8.00004 5 8.00004C5.553 8.00004 6 8.44804 6 9.00004V16.586L17.293 5.29301C17.684 4.90201 18.316 4.90201 18.707 5.29301C19.098 5.68401 19.098 6.31607 18.707 6.70707Z" />
</svg>
