<svg viewBox="0 0 24 24" fill="currentColor" stroke="currentColor" xmlns="http://www.w3.org/2000/svg">
<path d="M16.7071 16.707L12.708 20.7061C12.615 20.7991 12.5051 20.8721 12.3821 20.9231C12.2601 20.9741 12.13 21 12 21C11.87 21 11.74 20.9731 11.618 20.9231C11.495 20.8721 11.385 20.7991 11.292 20.7061L7.29301 16.707C6.90201 16.316 6.90201 15.684 7.29301 15.293C7.68401 14.902 8.31607 14.902 8.70707 15.293L11 17.5859V4C11 3.448 11.447 3 12 3C12.553 3 13 3.448 13 4V17.5859L15.293 15.293C15.684 14.902 16.3161 14.902 16.7071 15.293C17.0981 15.684 17.0981 16.316 16.7071 16.707Z" />
</svg>
