<svg viewBox="0 0 24 24" fill="currentColor" stroke="currentColor" xmlns="http://www.w3.org/2000/svg">
<path d="M12 2C6.477 2 2 6.477 2 12C2 17.523 6.477 22 12 22C17.523 22 22 17.523 22 12C22 6.477 17.523 2 12 2ZM15.53 9.53003L10.8101 14.25H13C13.414 14.25 13.75 14.586 13.75 15C13.75 15.414 13.414 15.75 13 15.75H9C8.902 15.75 8.80489 15.7299 8.71289 15.6919C8.52989 15.6159 8.38411 15.4701 8.30811 15.2871C8.27011 15.1951 8.25 15.098 8.25 15V11C8.25 10.586 8.586 10.25 9 10.25C9.414 10.25 9.75 10.586 9.75 11V13.189L14.47 8.46899C14.763 8.17599 15.238 8.17599 15.531 8.46899C15.824 8.76199 15.823 9.23703 15.53 9.53003Z" />
</svg>
