<svg viewBox="0 0 24 24" fill="currentColor" stroke="currentColor" xmlns="http://www.w3.org/2000/svg">
<path d="M12 2C6.477 2 2 6.477 2 12C2 17.523 6.477 22 12 22C17.523 22 22 17.523 22 12C22 6.477 17.523 2 12 2ZM15.75 13C15.75 13.414 15.414 13.75 15 13.75C14.586 13.75 14.25 13.414 14.25 13V10.811L9.53003 15.531C9.38403 15.677 9.192 15.751 9 15.751C8.808 15.751 8.61597 15.678 8.46997 15.531C8.17697 15.238 8.17697 14.763 8.46997 14.47L13.1899 9.75H11C10.586 9.75 10.25 9.414 10.25 9C10.25 8.586 10.586 8.25 11 8.25H15C15.098 8.25 15.1951 8.27011 15.2871 8.30811C15.4701 8.38411 15.6161 8.53011 15.6931 8.71411C15.7311 8.80611 15.751 8.90298 15.751 9.00098V13H15.75Z" />
</svg>
