<svg viewBox="0 0 24 24" fill="currentColor" stroke="currentColor" xmlns="http://www.w3.org/2000/svg">
<path d="M22 3V9C22 9.552 21.553 10 21 10C20.447 10 20 9.552 20 9V5.41406L14.707 10.707C14.512 10.902 14.256 11 14 11C13.744 11 13.488 10.902 13.293 10.707C12.902 10.316 12.902 9.68397 13.293 9.29297L18.5859 4H15C14.447 4 14 3.552 14 3C14 2.448 14.447 2 15 2H21C21.13 2 21.2601 2.0269 21.3821 2.0769C21.6271 2.1779 21.8221 2.37292 21.9231 2.61792C21.9741 2.73992 22 2.87 22 3ZM9.29297 13.293L4 18.5859V15C4 14.448 3.553 14 3 14C2.447 14 2 14.448 2 15V21C2 21.13 2.0269 21.2601 2.0769 21.3821C2.1779 21.6271 2.37292 21.8211 2.61792 21.9231C2.73992 21.9741 2.87 22 3 22H9C9.553 22 10 21.552 10 21C10 20.448 9.553 20 9 20H5.41406L10.707 14.707C11.098 14.316 11.098 13.684 10.707 13.293C10.316 12.902 9.68397 12.902 9.29297 13.293Z" />
</svg>
