<svg viewBox="0 0 24 24" fill="currentColor" stroke="currentColor" xmlns="http://www.w3.org/2000/svg">
<path d="M22.7061 14.708L18.707 18.707C18.512 18.902 18.256 19 18 19C17.744 19 17.488 18.902 17.293 18.707C16.902 18.316 16.902 17.684 17.293 17.293L19.5859 15H7C4.794 15 3 13.206 3 11V6C3 5.448 3.447 5 4 5C4.553 5 5 5.448 5 6V11C5 12.103 5.897 13 7 13H19.5859L17.293 10.707C16.902 10.316 16.902 9.68397 17.293 9.29297C17.684 8.90197 18.316 8.90197 18.707 9.29297L22.7061 13.292C22.7991 13.385 22.8721 13.4949 22.9231 13.6179C23.0241 13.8619 23.0241 14.1381 22.9231 14.3821C22.8721 14.5051 22.7991 14.615 22.7061 14.708Z" />
</svg>
