<svg viewBox="0 0 24 24" fill="currentColor" stroke="currentColor" xmlns="http://www.w3.org/2000/svg">
<path d="M6.29297 8.7071C5.90197 8.3161 5.90197 7.68403 6.29297 7.29304L11.292 2.29401C11.385 2.20101 11.4949 2.12797 11.6179 2.07697C11.8619 1.97597 12.1381 1.97597 12.3821 2.07697C12.5051 2.12797 12.615 2.20101 12.708 2.29401L17.707 7.29304C18.098 7.68403 18.098 8.3161 17.707 8.7071C17.512 8.9021 17.256 9.00007 17 9.00007C16.744 9.00007 16.488 8.9021 16.293 8.7071L13 5.41413V17.0001C13 17.5521 12.553 18.0001 12 18.0001C11.447 18.0001 11 17.5521 11 17.0001V5.41413L7.70703 8.7071C7.31603 9.0981 6.68397 9.0981 6.29297 8.7071ZM18 20.0001H6C5.447 20.0001 5 20.4481 5 21.0001C5 21.5521 5.447 22.0001 6 22.0001H18C18.553 22.0001 19 21.5521 19 21.0001C19 20.4481 18.553 20.0001 18 20.0001Z" />
</svg>
