<svg viewBox="0 0 24 24" fill="currentColor" stroke="currentColor" xmlns="http://www.w3.org/2000/svg">
<path d="M17.625 3H6.375C4.125 3 3 4.125 3 6.375V17.625C3 19.875 4.125 21 6.375 21H17.625C19.875 21 21 19.875 21 17.625V6.375C21 4.125 19.875 3 17.625 3ZM15.75 15C15.75 15.098 15.7299 15.1951 15.6919 15.2871C15.6159 15.4701 15.4701 15.6159 15.2871 15.6919C15.1951 15.7299 15.098 15.75 15 15.75H11C10.586 15.75 10.25 15.414 10.25 15C10.25 14.586 10.586 14.25 11 14.25H13.189L8.46899 9.53003C8.17599 9.23703 8.17599 8.76199 8.46899 8.46899C8.76199 8.17599 9.23703 8.17599 9.53003 8.46899L14.25 13.189V11C14.25 10.586 14.586 10.25 15 10.25C15.414 10.25 15.75 10.586 15.75 11V15Z" />
</svg>
