<svg viewBox="0 0 24 24" fill="currentColor" stroke="currentColor" xmlns="http://www.w3.org/2000/svg">
<path d="M16.7071 8.7071C16.5121 8.9021 16.256 9.00007 16 9.00007C15.744 9.00007 15.488 8.9021 15.293 8.7071L13 6.41413V20.0001C13 20.5521 12.553 21.0001 12 21.0001C11.447 21.0001 11 20.5521 11 20.0001V6.41413L8.70707 8.7071C8.31607 9.0981 7.68401 9.0981 7.29301 8.7071C6.90201 8.3161 6.90201 7.68403 7.29301 7.29304L11.292 3.29401C11.385 3.20101 11.495 3.12797 11.618 3.07697C11.862 2.97597 12.1381 2.97597 12.3821 3.07697C12.5051 3.12797 12.615 3.20101 12.708 3.29401L16.7071 7.29304C17.0981 7.68403 17.0981 8.3161 16.7071 8.7071Z" />
</svg>
