<svg viewBox="0 0 24 24" fill="currentColor" stroke="currentColor" xmlns="http://www.w3.org/2000/svg">
<path d="M12 2C6.477 2 2 6.477 2 12C2 17.523 6.477 22 12 22C17.523 22 22 17.523 22 12C22 6.477 17.523 2 12 2ZM14.25 15.75H9C8.586 15.75 8.25 15.414 8.25 15C8.25 14.586 8.586 14.25 9 14.25H14.25C15.077 14.25 15.75 13.577 15.75 12.75C15.75 11.923 15.077 11.25 14.25 11.25H9.31104L9.53101 11.47C9.82401 11.763 9.82401 12.238 9.53101 12.531C9.38501 12.677 9.19298 12.751 9.00098 12.751C8.80898 12.751 8.61695 12.678 8.47095 12.531L6.97095 11.031C6.90195 10.962 6.84708 10.8791 6.80908 10.7871C6.73308 10.6041 6.73308 10.3971 6.80908 10.2141C6.84708 10.1221 6.90195 10.039 6.97095 9.96997L8.47095 8.46997C8.76395 8.17697 9.23898 8.17697 9.53198 8.46997C9.82498 8.76297 9.82498 9.23801 9.53198 9.53101L9.31201 9.75098H14.251C15.905 9.75098 17.251 11.097 17.251 12.751C17.251 14.405 15.904 15.75 14.25 15.75Z" />
</svg>
