<svg viewBox="0 0 24 24" fill="currentColor" stroke="currentColor" xmlns="http://www.w3.org/2000/svg">
<path d="M19.7071 10.7071C19.5121 10.9021 19.256 11.0001 19 11.0001C18.744 11.0001 18.488 10.9021 18.293 10.7071L13 5.41413V21.0001C13 21.5521 12.553 22.0001 12 22.0001C11.447 22.0001 11 21.5521 11 21.0001V5.41413L5.70707 10.7071C5.31607 11.0981 4.68401 11.0981 4.29301 10.7071C3.90201 10.3161 3.90201 9.68403 4.29301 9.29304L11.292 2.29401C11.385 2.20101 11.495 2.12797 11.618 2.07697C11.862 1.97597 12.1381 1.97597 12.3821 2.07697C12.5051 2.12797 12.615 2.20101 12.708 2.29401L19.7071 9.29304C20.0981 9.68403 20.0981 10.3161 19.7071 10.7071Z" />
</svg>
