<svg viewBox="0 0 24 24" fill="currentColor" stroke="currentColor" xmlns="http://www.w3.org/2000/svg">
<path d="M17.707 15.293C18.098 15.684 18.098 16.316 17.707 16.707L12.708 21.7061C12.615 21.7991 12.5051 21.8721 12.3821 21.9231C12.2601 21.9741 12.13 22 12 22C11.87 22 11.7399 21.9731 11.6179 21.9231C11.4949 21.8721 11.385 21.7991 11.292 21.7061L6.29297 16.707C5.90197 16.316 5.90197 15.684 6.29297 15.293C6.68397 14.902 7.31603 14.902 7.70703 15.293L11 18.5859V7C11 6.448 11.447 6 12 6C12.553 6 13 6.448 13 7V18.5859L16.293 15.293C16.684 14.902 17.316 14.902 17.707 15.293ZM18 2H6C5.447 2 5 2.448 5 3C5 3.552 5.447 4 6 4H18C18.553 4 19 3.552 19 3C19 2.448 18.553 2 18 2Z" />
</svg>
