<svg viewBox="0 0 24 24" fill="currentColor" stroke="currentColor" xmlns="http://www.w3.org/2000/svg">
<path d="M17.625 3H6.375C4.125 3 3 4.125 3 6.375V17.625C3 19.875 4.125 21 6.375 21H17.625C19.875 21 21 19.875 21 17.625V6.375C21 4.125 19.875 3 17.625 3ZM16 12.75H9.81104L11.531 14.47C11.824 14.763 11.824 15.238 11.531 15.531C11.385 15.677 11.193 15.751 11.001 15.751C10.809 15.751 10.6169 15.678 10.4709 15.531L7.47095 12.531C7.40195 12.462 7.34708 12.3791 7.30908 12.2871C7.23308 12.1041 7.23308 11.8971 7.30908 11.7141C7.34708 11.6221 7.40195 11.539 7.47095 11.47L10.4709 8.46997C10.7639 8.17697 11.239 8.17697 11.532 8.46997C11.825 8.76297 11.825 9.23801 11.532 9.53101L9.81201 11.251H16C16.414 11.251 16.75 11.587 16.75 12.001C16.75 12.415 16.414 12.75 16 12.75Z" />
</svg>
