<svg viewBox="0 0 24 24" fill="currentColor" stroke="currentColor" xmlns="http://www.w3.org/2000/svg">
<path d="M18.707 17.707L14.708 21.7061C14.615 21.7991 14.5051 21.8721 14.3821 21.9231C14.2601 21.9741 14.13 22 14 22C13.87 22 13.7399 21.9731 13.6179 21.9231C13.4949 21.8721 13.385 21.7991 13.292 21.7061L9.29297 17.707C8.90197 17.316 8.90197 16.684 9.29297 16.293C9.68397 15.902 10.316 15.902 10.707 16.293L13 18.5859V6C13 4.897 12.103 4 11 4H6C5.447 4 5 3.552 5 3C5 2.448 5.447 2 6 2H11C13.206 2 15 3.794 15 6V18.5859L17.293 16.293C17.684 15.902 18.316 15.902 18.707 16.293C19.098 16.684 19.098 17.316 18.707 17.707Z" />
</svg>
