<svg viewBox="0 0 24 24" fill="currentColor" stroke="currentColor" xmlns="http://www.w3.org/2000/svg">
<path d="M18.707 7.7071C18.512 7.9021 18.256 8.00007 18 8.00007C17.744 8.00007 17.488 7.9021 17.293 7.7071L15 5.41413V18.0001C15 20.2061 13.206 22.0001 11 22.0001H6C5.447 22.0001 5 21.5521 5 21.0001C5 20.4481 5.447 20.0001 6 20.0001H11C12.103 20.0001 13 19.1031 13 18.0001V5.41413L10.707 7.7071C10.316 8.0981 9.68397 8.0981 9.29297 7.7071C8.90197 7.3161 8.90197 6.68403 9.29297 6.29304L13.292 2.29401C13.385 2.20101 13.4949 2.12797 13.6179 2.07697C13.8619 1.97597 14.1381 1.97597 14.3821 2.07697C14.5051 2.12797 14.615 2.20101 14.708 2.29401L18.707 6.29304C19.098 6.68403 19.098 7.3161 18.707 7.7071Z" />
</svg>
