<svg viewBox="0 0 24 24" fill="currentColor" stroke="currentColor" xmlns="http://www.w3.org/2000/svg">
<path d="M18 6V12C18 12.552 17.553 13 17 13C16.447 13 16 12.552 16 12V8.41406L6.70707 17.707C6.51207 17.902 6.25604 18 6.00004 18C5.74404 18 5.48801 17.902 5.29301 17.707C4.90201 17.316 4.90201 16.684 5.29301 16.293L14.586 7H11C10.447 7 10 6.552 10 6C10 5.448 10.447 5 11 5H17C17.13 5 17.2601 5.0269 17.3821 5.0769C17.6271 5.1779 17.8221 5.37292 17.9231 5.61792C17.9741 5.73992 18 5.87 18 6Z" />
</svg>
