<svg viewBox="0 0 24 24" fill="currentColor" stroke="currentColor" xmlns="http://www.w3.org/2000/svg">
<path d="M17.9231 12.3821C17.8721 12.5051 17.7991 12.615 17.7061 12.708L12.707 17.707C12.512 17.902 12.256 18 12 18C11.744 18 11.488 17.902 11.293 17.707C10.902 17.316 10.902 16.684 11.293 16.293L14.5859 13H3C2.447 13 2 12.552 2 12C2 11.448 2.447 11 3 11H14.5859L11.293 7.70703C10.902 7.31603 10.902 6.68397 11.293 6.29297C11.684 5.90197 12.316 5.90197 12.707 6.29297L17.7061 11.292C17.7991 11.385 17.8721 11.4949 17.9231 11.6179C18.0241 11.8619 18.0241 12.1381 17.9231 12.3821ZM21 5C20.447 5 20 5.448 20 6V18C20 18.552 20.447 19 21 19C21.553 19 22 18.552 22 18V6C22 5.448 21.553 5 21 5Z" />
</svg>
