<svg viewBox="0 0 24 24" fill="currentColor" stroke="currentColor" xmlns="http://www.w3.org/2000/svg">
<path d="M17.707 11.293C18.098 11.684 18.098 12.316 17.707 12.707C17.512 12.902 17.256 13 17 13C16.744 13 16.488 12.902 16.293 12.707L13 9.41406V21C13 21.552 12.553 22 12 22C11.447 22 11 21.552 11 21V9.41406L7.70703 12.707C7.31603 13.098 6.68397 13.098 6.29297 12.707C5.90197 12.316 5.90197 11.684 6.29297 11.293L11.292 6.29395C11.385 6.20095 11.4949 6.1279 11.6179 6.0769C11.8619 5.9759 12.1381 5.9759 12.3821 6.0769C12.5051 6.1279 12.615 6.20095 12.708 6.29395L17.707 11.293ZM18 2H6C5.447 2 5 2.448 5 3C5 3.552 5.447 4 6 4H18C18.553 4 19 3.552 19 3C19 2.448 18.553 2 18 2Z" />
</svg>
