<svg viewBox="0 0 24 24" fill="currentColor" stroke="currentColor" xmlns="http://www.w3.org/2000/svg">
<path d="M22.0001 13.5C22.0001 16.533 19.5321 19 16.5001 19H6.00007C5.44707 19 5.00007 18.552 5.00007 18C5.00007 17.448 5.44707 17 6.00007 17H16.5001C18.4301 17 20.0001 15.43 20.0001 13.5C20.0001 11.57 18.4301 10 16.5001 10H5.41413L6.7071 11.293C7.0981 11.684 7.0981 12.3161 6.7071 12.7071C6.5121 12.9021 6.25607 13 6.00007 13C5.74407 13 5.48804 12.9021 5.29304 12.7071L2.29401 9.70805C2.20101 9.61505 2.12797 9.50512 2.07697 9.38212C1.97597 9.13812 1.97597 8.86196 2.07697 8.61796C2.12797 8.49496 2.20101 8.38503 2.29401 8.29203L5.29304 5.29301C5.68404 4.90201 6.3161 4.90201 6.7071 5.29301C7.0981 5.68401 7.0981 6.31607 6.7071 6.70707L5.41413 8.00004H16.5001C19.5321 8.00004 22.0001 10.467 22.0001 13.5Z" />
</svg>
