<svg viewBox="0 0 24 24" fill="currentColor" stroke="currentColor" xmlns="http://www.w3.org/2000/svg">
<path d="M21.7071 3.70707L16.4141 9.00004H20C20.553 9.00004 21 9.44804 21 10C21 10.552 20.553 11 20 11H14C13.87 11 13.74 10.9731 13.618 10.9231C13.373 10.8221 13.1789 10.6271 13.0769 10.3821C13.0259 10.2601 13 10.13 13 10V4.00004C13 3.44804 13.447 3.00004 14 3.00004C14.553 3.00004 15 3.44804 15 4.00004V7.58597L20.293 2.29301C20.684 1.90201 21.3161 1.90201 21.7071 2.29301C22.0981 2.68401 22.0981 3.31607 21.7071 3.70707ZM10.3821 13.0769C10.2601 13.0259 10.13 13 10 13H4.00004C3.44704 13 3.00004 13.448 3.00004 14C3.00004 14.552 3.44704 15 4.00004 15H7.58597L2.29301 20.293C1.90201 20.684 1.90201 21.3161 2.29301 21.7071C2.48801 21.9021 2.74404 22 3.00004 22C3.25604 22 3.51207 21.9021 3.70707 21.7071L9.00004 16.4141V20C9.00004 20.552 9.44704 21 10 21C10.553 21 11 20.552 11 20V14C11 13.87 10.9741 13.74 10.9231 13.618C10.8221 13.373 10.6271 13.1779 10.3821 13.0769Z" />
</svg>
