<svg viewBox="0 0 24 24" fill="currentColor" stroke="currentColor" xmlns="http://www.w3.org/2000/svg">
<path d="M21.7061 10.708L17.707 14.7071C17.512 14.9021 17.256 15 17 15C16.744 15 16.488 14.9021 16.293 14.7071C15.902 14.3161 15.902 13.684 16.293 13.293L18.5859 11H6C4.897 11 4 11.897 4 13V18C4 18.552 3.553 19 3 19C2.447 19 2 18.552 2 18V13C2 10.794 3.794 9.00004 6 9.00004H18.5859L16.293 6.70707C15.902 6.31607 15.902 5.68401 16.293 5.29301C16.684 4.90201 17.316 4.90201 17.707 5.29301L21.7061 9.29203C21.7991 9.38503 21.8721 9.49496 21.9231 9.61796C22.0241 9.86196 22.0241 10.1381 21.9231 10.3821C21.8721 10.5051 21.7991 10.615 21.7061 10.708Z" />
</svg>
