<svg viewBox="0 0 24 24" fill="currentColor" stroke="currentColor" xmlns="http://www.w3.org/2000/svg">
<path d="M22.0001 13V18C22.0001 18.552 21.5531 19 21.0001 19C20.4471 19 20.0001 18.552 20.0001 18V13C20.0001 11.897 19.1031 11 18.0001 11H5.41413L7.7071 13.293C8.0981 13.684 8.0981 14.3161 7.7071 14.7071C7.5121 14.9021 7.25607 15 7.00007 15C6.74407 15 6.48804 14.9021 6.29304 14.7071L2.29401 10.708C2.20101 10.615 2.12797 10.5051 2.07697 10.3821C1.97597 10.1381 1.97597 9.86196 2.07697 9.61796C2.12797 9.49496 2.20101 9.38503 2.29401 9.29203L6.29304 5.29301C6.68403 4.90201 7.3161 4.90201 7.7071 5.29301C8.0981 5.68401 8.0981 6.31607 7.7071 6.70707L5.41413 9.00004H18.0001C20.2061 9.00004 22.0001 10.794 22.0001 13Z" />
</svg>
