<svg viewBox="0 0 24 24" fill="currentColor" stroke="currentColor" xmlns="http://www.w3.org/2000/svg">
<path d="M21.7061 12.708L16.707 17.707C16.512 17.902 16.256 18 16 18C15.744 18 15.488 17.902 15.293 17.707C14.902 17.316 14.902 16.684 15.293 16.293L18.5859 13H7C6.447 13 6 12.552 6 12C6 11.448 6.447 11 7 11H18.5859L15.293 7.70703C14.902 7.31603 14.902 6.68397 15.293 6.29297C15.684 5.90197 16.316 5.90197 16.707 6.29297L21.7061 11.292C21.7991 11.385 21.8721 11.4949 21.9231 11.6179C22.0241 11.8619 22.0241 12.1381 21.9231 12.3821C21.8721 12.5051 21.7991 12.615 21.7061 12.708ZM4 5C3.447 5 3 5.448 3 6V18C3 18.552 3.447 19 4 19C4.553 19 5 18.552 5 18V6C5 5.448 4.553 5 4 5Z" />
</svg>
