<svg viewBox="0 0 24 24" fill="currentColor" stroke="currentColor" xmlns="http://www.w3.org/2000/svg">
<path d="M20 19C20 19.13 19.9741 19.2601 19.9231 19.3821C19.8221 19.6271 19.6271 19.8221 19.3821 19.9231C19.2601 19.9741 19.13 20 19 20H9.00004C8.44704 20 8.00004 19.552 8.00004 19C8.00004 18.448 8.44704 18 9.00004 18H16.586L5.29301 6.70707C4.90201 6.31607 4.90201 5.68401 5.29301 5.29301C5.68401 4.90201 6.31607 4.90201 6.70707 5.29301L18 16.586V9.00004C18 8.44804 18.447 8.00004 19 8.00004C19.553 8.00004 20 8.44804 20 9.00004V19Z" />
</svg>
