<svg viewBox="0 0 24 24" fill="currentColor" stroke="currentColor" xmlns="http://www.w3.org/2000/svg">
<path d="M21.7061 12.708L14.707 19.7071C14.512 19.9021 14.256 20 14 20C13.744 20 13.488 19.9021 13.293 19.7071C12.902 19.3161 12.902 18.684 13.293 18.293L18.5859 13H3C2.447 13 2 12.552 2 12C2 11.448 2.447 11 3 11H18.5859L13.293 5.70707C12.902 5.31607 12.902 4.68401 13.293 4.29301C13.684 3.90201 14.316 3.90201 14.707 4.29301L21.7061 11.292C21.7991 11.385 21.8721 11.495 21.9231 11.618C22.0241 11.862 22.0241 12.1381 21.9231 12.3821C21.8721 12.5051 21.7991 12.615 21.7061 12.708Z" />
</svg>
