<svg viewBox="0 0 24 24" fill="currentColor" stroke="currentColor" xmlns="http://www.w3.org/2000/svg">
<path d="M21.7061 12.708L17.7071 16.7071C17.5121 16.9021 17.2561 17 17.0001 17C16.7441 17 16.488 16.9021 16.293 16.7071C15.902 16.3161 15.902 15.684 16.293 15.293L18.586 13H5.41413L7.7071 15.293C8.0981 15.684 8.0981 16.3161 7.7071 16.7071C7.5121 16.9021 7.25607 17 7.00007 17C6.74407 17 6.48804 16.9021 6.29304 16.7071L2.29401 12.708C2.20101 12.615 2.12797 12.5051 2.07697 12.3821C1.97597 12.1381 1.97597 11.862 2.07697 11.618C2.12797 11.495 2.20101 11.385 2.29401 11.292L6.29304 7.29301C6.68403 6.90201 7.3161 6.90201 7.7071 7.29301C8.0981 7.68401 8.0981 8.31607 7.7071 8.70707L5.41413 11H18.586L16.293 8.70707C15.902 8.31607 15.902 7.68401 16.293 7.29301C16.684 6.90201 17.3161 6.90201 17.7071 7.29301L21.7061 11.292C21.7991 11.385 21.8722 11.495 21.9232 11.618C22.0242 11.862 22.0242 12.1381 21.9232 12.3821C21.8722 12.5051 21.7991 12.615 21.7061 12.708Z" />
</svg>
