<svg viewBox="0 0 24 24" fill="currentColor" stroke="currentColor" xmlns="http://www.w3.org/2000/svg">
<path d="M22.0001 6V11C22.0001 13.206 20.2061 15 18.0001 15H5.41413L7.7071 17.293C8.0981 17.684 8.0981 18.316 7.7071 18.707C7.5121 18.902 7.25607 19 7.00007 19C6.74407 19 6.48804 18.902 6.29304 18.707L2.29401 14.708C2.20101 14.615 2.12797 14.5051 2.07697 14.3821C1.97597 14.1381 1.97597 13.8619 2.07697 13.6179C2.12797 13.4949 2.20101 13.385 2.29401 13.292L6.29304 9.29297C6.68403 8.90197 7.3161 8.90197 7.7071 9.29297C8.0981 9.68397 8.0981 10.316 7.7071 10.707L5.41413 13H18.0001C19.1031 13 20.0001 12.103 20.0001 11V6C20.0001 5.448 20.4471 5 21.0001 5C21.5531 5 22.0001 5.448 22.0001 6Z" />
</svg>
