<svg viewBox="0 0 24 24" fill="currentColor" stroke="currentColor" xmlns="http://www.w3.org/2000/svg">
<path d="M17.293 11.293L18.5859 10H7.5C5.57 10 4 11.57 4 13.5C4 15.43 5.57 17 7.5 17H18C18.553 17 19 17.448 19 18C19 18.552 18.553 19 18 19H7.5C4.468 19 2 16.533 2 13.5C2 10.467 4.468 8.00004 7.5 8.00004H18.5859L17.293 6.70707C16.902 6.31607 16.902 5.68401 17.293 5.29301C17.684 4.90201 18.316 4.90201 18.707 5.29301L21.7061 8.29203C21.7991 8.38503 21.8721 8.49496 21.9231 8.61796C22.0241 8.86196 22.0241 9.13812 21.9231 9.38212C21.8721 9.50512 21.7991 9.61505 21.7061 9.70805L18.707 12.7071C18.512 12.9021 18.256 13 18 13C17.744 13 17.488 12.9021 17.293 12.7071C16.902 12.3161 16.902 11.684 17.293 11.293Z" />
</svg>
