<svg viewBox="0 0 24 24" fill="currentColor" stroke="currentColor" xmlns="http://www.w3.org/2000/svg">
<path d="M11 6.00005V21.0001C11 21.4041 10.7571 21.7691 10.3831 21.9241C10.2591 21.9751 10.129 22.0001 10 22.0001C9.74004 22.0001 9.48401 21.8981 9.29301 21.7071L4.29301 16.7071C3.90201 16.3161 3.90201 15.684 4.29301 15.293C4.68401 14.902 5.31607 14.902 5.70707 15.293L9.00004 18.586V6.00005C9.00004 5.44805 9.44704 5.00005 10 5.00005C10.553 5.00005 11 5.44805 11 6.00005ZM20.7071 7.29302L15.7071 2.29302C15.4211 2.00702 14.993 1.92198 14.617 2.07598C14.243 2.23098 14 2.59605 14 3.00005V18.0001C14 18.552 14.447 19.0001 15 19.0001C15.553 19.0001 16 18.552 16 18.0001V5.41411L19.293 8.70708C19.684 9.09808 20.3161 9.09808 20.7071 8.70708C21.0981 8.31608 21.0981 7.68402 20.7071 7.29302Z" />
</svg>
