<svg viewBox="0 0 24 24" fill="currentColor" stroke="currentColor" xmlns="http://www.w3.org/2000/svg">
<path d="M19 8V6.41406L13.4141 12L19 17.5859V16C19 15.448 19.447 15 20 15C20.553 15 21 15.448 21 16V20C21 20.13 20.9741 20.2601 20.9231 20.3821C20.8221 20.6271 20.6271 20.8221 20.3821 20.9231C20.2601 20.9741 20.13 21 20 21H16C15.447 21 15 20.552 15 20C15 19.448 15.447 19 16 19H17.5859L12 13.4141L6.41406 19H8C8.553 19 9 19.448 9 20C9 20.552 8.553 21 8 21H4C3.87 21 3.73992 20.9731 3.61792 20.9231C3.37292 20.8221 3.1789 20.6271 3.0769 20.3821C3.0259 20.2601 3 20.13 3 20V16C3 15.448 3.447 15 4 15C4.553 15 5 15.448 5 16V17.5859L10.5859 12L5 6.41406V8C5 8.552 4.553 9 4 9C3.447 9 3 8.552 3 8V4C3 3.87 3.0269 3.73992 3.0769 3.61792C3.1779 3.37292 3.37292 3.1789 3.61792 3.0769C3.73992 3.0259 3.87 3 4 3H8C8.553 3 9 3.448 9 4C9 4.552 8.553 5 8 5H6.41406L12 10.5859L17.5859 5H16C15.447 5 15 4.552 15 4C15 3.448 15.447 3 16 3H20C20.13 3 20.2601 3.0269 20.3821 3.0769C20.6271 3.1779 20.8221 3.37292 20.9231 3.61792C20.9741 3.73992 21 3.87 21 4V8C21 8.552 20.553 9 20 9C19.447 9 19 8.552 19 8Z" />
</svg>
