<svg viewBox="0 0 24 24" fill="currentColor" stroke="currentColor" xmlns="http://www.w3.org/2000/svg">
<path d="M21.7071 20.293C22.0981 20.684 22.0981 21.3161 21.7071 21.7071C21.5121 21.9021 21.256 22 21 22C20.744 22 20.488 21.9021 20.293 21.7071L16 17.4141V19C16 19.552 15.553 20 15 20C14.447 20 14 19.552 14 19V15C14 14.87 14.0269 14.74 14.0769 14.618C14.1779 14.373 14.373 14.1789 14.618 14.0769C14.74 14.0259 14.87 14 15 14H19C19.553 14 20 14.448 20 15C20 15.552 19.553 16 19 16H17.4141L21.7071 20.293ZM14.618 9.92313C14.74 9.97413 14.87 10 15 10H19C19.553 10 20 9.55204 20 9.00004C20 8.44804 19.553 8.00004 19 8.00004H17.4141L21.7071 3.70707C22.0981 3.31607 22.0981 2.68401 21.7071 2.29301C21.3161 1.90201 20.684 1.90201 20.293 2.29301L16 6.58597V5.00004C16 4.44804 15.553 4.00004 15 4.00004C14.447 4.00004 14 4.44804 14 5.00004V9.00004C14 9.13004 14.0269 9.26012 14.0769 9.38212C14.1779 9.62712 14.373 9.82213 14.618 9.92313ZM9.38212 14.0769C9.26012 14.0259 9.13004 14 9.00004 14H5.00004C4.44704 14 4.00004 14.448 4.00004 15C4.00004 15.552 4.44704 16 5.00004 16H6.58597L2.29301 20.293C1.90201 20.684 1.90201 21.3161 2.29301 21.7071C2.48801 21.9021 2.74404 22 3.00004 22C3.25604 22 3.51207 21.9021 3.70707 21.7071L8.00004 17.4141V19C8.00004 19.552 8.44704 20 9.00004 20C9.55304 20 10 19.552 10 19V15C10 14.87 9.97413 14.74 9.92313 14.618C9.82213 14.373 9.62712 14.1779 9.38212 14.0769ZM9.00004 4.00004C8.44704 4.00004 8.00004 4.44804 8.00004 5.00004V6.58597L3.70707 2.29301C3.31607 1.90201 2.68401 1.90201 2.29301 2.29301C1.90201 2.68401 1.90201 3.31607 2.29301 3.70707L6.58597 8.00004H5.00004C4.44704 8.00004 4.00004 8.44804 4.00004 9.00004C4.00004 9.55204 4.44704 10 5.00004 10H9.00004C9.13004 10 9.26012 9.97313 9.38212 9.92313C9.62712 9.82213 9.82213 9.62712 9.92313 9.38212C9.97413 9.26012 10 9.13004 10 9.00004V5.00004C10 4.44804 9.55304 4.00004 9.00004 4.00004Z" />
</svg>
