<svg viewBox="0 0 24 24" fill="currentColor" stroke="currentColor" xmlns="http://www.w3.org/2000/svg">
<path d="M22 4V9C22 9.552 21.553 10 21 10H16C15.447 10 15 9.552 15 9C15 8.448 15.447 8 16 8H18.9099C17.5029 5.565 14.887 4 12 4C7.589 4 4 7.589 4 12C4 16.411 7.589 20 12 20C15.058 20 17.8031 18.2969 19.1641 15.5549C19.4091 15.0609 20.0109 14.857 20.5039 15.104C20.9989 15.35 21.2011 15.9501 20.9551 16.4441C19.2541 19.8711 15.822 21.999 12 21.999C6.486 21.999 2 17.513 2 11.999C2 6.48502 6.486 1.99902 12 1.99902C15.203 1.99902 18.147 3.53408 20 6.00708V4C20 3.448 20.447 3 21 3C21.553 3 22 3.448 22 4Z" />
</svg>
