<svg viewBox="0 0 24 24" fill="currentColor" stroke="currentColor" xmlns="http://www.w3.org/2000/svg">
<path d="M18 6H16.75V4.5C16.75 3.54 15.96 2.75 15 2.75H9C8.04 2.75 7.25 3.54 7.25 4.5V6H6C4 6 3 7 3 9V18C3 20 4 21 6 21H18C20 21 21 20 21 18V9C21 7 20 6 18 6ZM6 14.5C5.448 14.5 5 14.052 5 13.5C5 12.948 5.448 12.5 6 12.5C6.552 12.5 7 12.948 7 13.5C7 14.052 6.552 14.5 6 14.5ZM12 16.5C10.343 16.5 9 15.157 9 13.5C9 11.843 10.343 10.5 12 10.5C13.657 10.5 15 11.843 15 13.5C15 15.157 13.657 16.5 12 16.5ZM8.75 6V4.5C8.75 4.36 8.86 4.25 9 4.25H15C15.14 4.25 15.25 4.36 15.25 4.5V6H8.75ZM18 14.5C17.448 14.5 17 14.052 17 13.5C17 12.948 17.448 12.5 18 12.5C18.552 12.5 19 12.948 19 13.5C19 14.052 18.552 14.5 18 14.5Z" />
</svg>
