<svg viewBox="0 0 24 24" fill="currentColor" stroke="currentColor" xmlns="http://www.w3.org/2000/svg">
<path d="M12 2C6.477 2 2 6.477 2 12C2 17.523 6.477 22 12 22C17.523 22 22 17.523 22 12C22 6.477 17.523 2 12 2ZM9.25 8C9.94 8 10.5 8.56 10.5 9.25C10.5 9.94 9.94 10.5 9.25 10.5C8.56 10.5 8 9.94 8 9.25C8 8.56 8.56 8 9.25 8ZM14.75 16C14.06 16 13.5 15.44 13.5 14.75C13.5 14.06 14.06 13.5 14.75 13.5C15.44 13.5 16 14.06 16 14.75C16 15.44 15.44 16 14.75 16ZM16.53 8.53003L8.53003 16.53C8.38403 16.676 8.192 16.75 8 16.75C7.808 16.75 7.61597 16.677 7.46997 16.53C7.17697 16.237 7.17697 15.762 7.46997 15.469L15.47 7.46899C15.763 7.17599 16.238 7.17599 16.531 7.46899C16.824 7.76199 16.823 8.23703 16.53 8.53003Z" />
</svg>
