<svg viewBox="0 0 24 24" fill="currentColor" stroke="currentColor" xmlns="http://www.w3.org/2000/svg">
<path d="M3.99999 20.75C3.80799 20.75 3.61599 20.6771 3.46999 20.5301C3.17699 20.2371 3.17699 19.762 3.46999 19.469L19.47 3.46902C19.763 3.17602 20.238 3.17602 20.531 3.46902C20.824 3.76202 20.824 4.23705 20.531 4.53005L4.531 20.5301C4.384 20.6771 4.19199 20.75 3.99999 20.75ZM20 17.5C20 16.119 18.881 15 17.5 15C16.119 15 15 16.119 15 17.5C15 18.881 16.119 20 17.5 20C18.881 20 20 18.881 20 17.5ZM8.99999 6.50002C8.99999 5.11902 7.88099 4.00002 6.49999 4.00002C5.11899 4.00002 3.99999 5.11902 3.99999 6.50002C3.99999 7.88102 5.11899 9.00002 6.49999 9.00002C7.88099 9.00002 8.99999 7.88102 8.99999 6.50002Z" />
</svg>
