<svg viewBox="0 0 24 24" fill="currentColor" stroke="currentColor" xmlns="http://www.w3.org/2000/svg">
<path d="M21 2.25H3C2.586 2.25 2.25 2.586 2.25 3C2.25 3.414 2.586 3.75 3 3.75H4V13C4 15.29 5.21 16.5 7.5 16.5H11.25V18.6L8.57999 20.38C8.23999 20.61 8.15 21.07 8.38 21.42C8.61 21.76 9.07001 21.85 9.42001 21.62L12 19.9L14.58 21.62C14.71 21.71 14.86 21.75 15 21.75C15.24 21.75 15.48 21.63 15.62 21.42C15.85 21.07 15.76 20.61 15.42 20.38L12.75 18.6V16.5H16.5C18.79 16.5 20 15.29 20 13V3.75H21C21.414 3.75 21.75 3.414 21.75 3C21.75 2.586 21.414 2.25 21 2.25ZM13.576 12.907C12.984 13.298 12.3 13.5 11.596 13.5C11.341 13.5 11.084 13.474 10.827 13.42C9.467 13.137 8.36299 12.033 8.07999 10.673C7.87899 9.70697 8.06099 8.73095 8.59399 7.92395C9.11999 7.12595 9.95599 6.562 10.887 6.375C11.034 6.345 11.189 6.38396 11.307 6.48096C11.429 6.58096 11.5 6.72896 11.5 6.88696V9.45996C11.5 9.75796 11.742 10.001 12.041 10.001H14.615C14.773 10.001 14.92 10.071 15.02 10.194C15.118 10.313 15.156 10.466 15.126 10.614C14.938 11.544 14.373 12.38 13.576 12.907ZM15.868 8.98999C15.765 9.10799 15.616 9.17603 15.46 9.17603H12.862C12.566 9.17603 12.325 8.93504 12.325 8.63904V6.04102C12.325 5.88502 12.393 5.73606 12.512 5.63306C12.629 5.53106 12.784 5.48498 12.936 5.50598C14.517 5.72698 15.775 6.98504 15.996 8.56604C16.016 8.71804 15.97 8.87199 15.868 8.98999Z" />
</svg>
