<svg viewBox="0 0 24 24" fill="currentColor" stroke="currentColor" xmlns="http://www.w3.org/2000/svg">
<path d="M21 2.25H3C2.586 2.25 2.25 2.586 2.25 3C2.25 3.414 2.586 3.75 3 3.75H4V13C4 15.29 5.21 16.5 7.5 16.5H11.25V18.6L8.57999 20.38C8.23999 20.61 8.15 21.07 8.38 21.42C8.61 21.76 9.07001 21.85 9.42001 21.62L12 19.9L14.58 21.62C14.71 21.71 14.86 21.75 15 21.75C15.24 21.75 15.48 21.63 15.62 21.42C15.85 21.07 15.76 20.61 15.42 20.38L12.75 18.6V16.5H16.5C18.79 16.5 20 15.29 20 13V3.75H21C21.414 3.75 21.75 3.414 21.75 3C21.75 2.586 21.414 2.25 21 2.25ZM14.081 10.246L10.932 12.173C10.305 12.556 9.49899 12.107 9.49899 11.374V7.62695C9.49899 6.89395 10.305 6.444 10.932 6.828L14.081 8.755C14.64 9.096 14.64 9.90397 14.081 10.246Z" />
</svg>
