<svg viewBox="0 0 24 24" fill="currentColor" stroke="currentColor" xmlns="http://www.w3.org/2000/svg">
<path d="M21 2.25H3C2.586 2.25 2.25 2.586 2.25 3C2.25 3.414 2.586 3.75 3 3.75H4V13C4 15.29 5.21 16.5 7.5 16.5H11.25V18.6L8.58002 20.38C8.24002 20.61 8.15 21.07 8.38 21.42C8.61 21.76 9.06998 21.85 9.41998 21.62L12 19.9L14.58 21.62C14.71 21.71 14.86 21.75 15 21.75C15.24 21.75 15.48 21.63 15.62 21.42C15.85 21.07 15.76 20.61 15.42 20.38L12.75 18.6V16.5H16.5C18.79 16.5 20 15.29 20 13V3.75H21C21.414 3.75 21.75 3.414 21.75 3C21.75 2.586 21.414 2.25 21 2.25ZM12 11.75H8C7.586 11.75 7.25 11.414 7.25 11C7.25 10.586 7.586 10.25 8 10.25H12C12.414 10.25 12.75 10.586 12.75 11C12.75 11.414 12.414 11.75 12 11.75ZM16 8.75H8C7.586 8.75 7.25 8.414 7.25 8C7.25 7.586 7.586 7.25 8 7.25H16C16.414 7.25 16.75 7.586 16.75 8C16.75 8.414 16.414 8.75 16 8.75Z" />
</svg>
