<svg viewBox="0 0 24 24" fill="currentColor" stroke="currentColor" xmlns="http://www.w3.org/2000/svg">
<path d="M21 2.25H3C2.586 2.25 2.25 2.586 2.25 3C2.25 3.414 2.586 3.75 3 3.75H4V13C4 15.29 5.21 16.5 7.5 16.5H11.25V18.6L8.57999 20.38C8.23999 20.61 8.15 21.07 8.38 21.42C8.61 21.76 9.07001 21.85 9.42001 21.62L12 19.9L14.58 21.62C14.71 21.71 14.86 21.75 15 21.75C15.24 21.75 15.48 21.63 15.62 21.42C15.85 21.07 15.76 20.61 15.42 20.38L12.75 18.6V16.5H16.5C18.79 16.5 20 15.29 20 13V3.75H21C21.414 3.75 21.75 3.414 21.75 3C21.75 2.586 21.414 2.25 21 2.25ZM16.75 11.343C16.75 11.441 16.73 11.538 16.692 11.63C16.616 11.813 16.47 11.959 16.286 12.036C16.194 12.074 16.097 12.094 15.999 12.094H13.499C13.085 12.094 12.749 11.758 12.749 11.344C12.749 10.93 13.085 10.594 13.499 10.594H14.188L12.63 9.03601L11.534 10.215C10.972 10.777 10.057 10.777 9.496 10.215L7.46899 8.18799C7.17599 7.89499 7.17599 7.41995 7.46899 7.12695C7.76199 6.83395 8.237 6.83395 8.53 7.12695L10.557 9.15405L11.653 7.97498C12.215 7.41298 13.13 7.41298 13.691 7.97498L15.249 9.53296V8.84399C15.249 8.42999 15.585 8.09399 15.999 8.09399C16.413 8.09399 16.749 8.42999 16.749 8.84399V11.343H16.75Z" />
</svg>
