<svg viewBox="0 0 24 24" fill="currentColor" stroke="currentColor" xmlns="http://www.w3.org/2000/svg">
<path d="M12.0009 2.5C6.76392 2.5 2.50287 6.76102 2.50287 11.999C2.50287 13.363 2.80605 14.736 3.38105 15.974C3.52505 16.274 3.53589 16.648 3.41889 17.019L2.57782 19.52C2.39682 20.062 2.53803 20.651 2.94403 21.057C3.23203 21.346 3.61383 21.5 4.00483 21.5C4.16383 21.5 4.32388 21.474 4.48188 21.422L6.97504 20.585C7.35204 20.464 7.72593 20.477 8.03193 20.622C9.26493 21.195 10.6379 21.498 12.0019 21.498C17.2389 21.498 21.5009 17.237 21.5009 11.999C21.5009 6.76102 17.2379 2.5 12.0009 2.5ZM12.0009 20.498C10.7819 20.498 9.55595 20.227 8.45795 19.717C7.92695 19.463 7.29203 19.433 6.66303 19.634L4.16401 20.473C3.98101 20.534 3.78982 20.487 3.65082 20.349C3.51182 20.211 3.46482 20.018 3.52582 19.837L4.36884 17.33C4.56584 16.708 4.53585 16.074 4.28485 15.548C3.77285 14.445 3.50287 13.218 3.50287 11.999C3.50287 7.31302 7.31492 3.5 12.0009 3.5C16.6879 3.5 20.4999 7.31202 20.4999 11.999C20.4999 16.686 16.6879 20.498 12.0009 20.498ZM14.3378 9.948C14.5038 10.896 14.103 11.746 13.207 12.342C12.626 12.727 12.5011 12.954 12.4741 13.034C12.4041 13.242 12.2089 13.374 11.9999 13.374C11.9469 13.374 11.894 13.365 11.84 13.347C11.578 13.259 11.438 12.975 11.527 12.713C11.663 12.311 12.021 11.928 12.654 11.508C13.222 11.13 13.4519 10.676 13.3539 10.12C13.2559 9.56899 12.8038 9.118 12.2538 9.021C11.8378 8.949 11.4339 9.05401 11.1159 9.32001C10.8039 9.58201 10.6249 9.96599 10.6249 10.373C10.6249 10.649 10.4009 10.873 10.1249 10.873C9.84894 10.873 9.62494 10.649 9.62494 10.373C9.62494 9.66999 9.93506 9.00702 10.4741 8.55402C11.0131 8.10102 11.726 7.91401 12.426 8.03601C13.384 8.20501 14.1698 8.991 14.3378 9.948ZM12.7499 15.5C12.7499 15.914 12.4158 16.25 12.0038 16.25C11.5928 16.25 11.2499 15.914 11.2499 15.5C11.2499 15.086 11.577 14.75 11.989 14.75H12.0038C12.4158 14.75 12.7499 15.086 12.7499 15.5Z" />
</svg>
