<svg viewBox="0 0 24 24" fill="currentColor" stroke="currentColor" xmlns="http://www.w3.org/2000/svg">
<path d="M12.5009 20.998C12.5009 21.274 12.2769 21.498 12.0009 21.498C10.6379 21.498 9.26495 21.195 8.03095 20.621C7.72495 20.476 7.35306 20.463 6.97406 20.584L4.4809 21.421C4.3239 21.473 4.16385 21.499 4.00385 21.499C3.61285 21.499 3.23206 21.345 2.94306 21.056C2.53706 20.65 2.39585 20.061 2.57685 19.519L3.41791 17.018C3.53491 16.647 3.52283 16.273 3.37983 15.973C2.80483 14.735 2.5019 13.362 2.5019 11.998C2.5019 6.75999 6.76294 2.49902 11.9999 2.49902C17.2369 2.49902 21.499 6.75999 21.499 11.998C21.499 12.358 21.478 12.708 21.436 13.058C21.403 13.333 21.1578 13.527 20.8788 13.494C20.6058 13.461 20.4101 13.212 20.4431 12.937C20.4801 12.627 20.499 12.317 20.499 11.998C20.499 7.31199 16.6869 3.49902 11.9999 3.49902C7.31394 3.49902 3.5019 7.31099 3.5019 11.998C3.5019 13.217 3.77288 14.444 4.28388 15.547C4.53488 16.072 4.56486 16.707 4.36786 17.329L3.52485 19.836C3.46385 20.018 3.51084 20.21 3.64985 20.348C3.78885 20.486 3.97903 20.532 4.16303 20.472L6.66205 19.633C7.29105 19.432 7.926 19.462 8.456 19.715C9.554 20.225 10.7809 20.496 11.9999 20.496C12.2769 20.498 12.5009 20.721 12.5009 20.998ZM20.6459 17.313L17.6669 20.293L16.3539 18.98C16.1589 18.785 15.8419 18.785 15.6469 18.98C15.4519 19.175 15.4519 19.492 15.6469 19.687L17.3139 21.354C17.4119 21.452 17.5399 21.5 17.6679 21.5C17.7959 21.5 17.9239 21.451 18.0219 21.354L21.3549 18.021C21.5499 17.826 21.5499 17.509 21.3549 17.314C21.1599 17.119 20.8419 17.118 20.6459 17.313Z" />
</svg>
