<svg viewBox="0 0 24 24" fill="currentColor" stroke="currentColor" xmlns="http://www.w3.org/2000/svg">
<path d="M12.0009 2.5C6.76392 2.5 2.50287 6.76102 2.50287 11.999C2.50287 13.363 2.80605 14.736 3.38105 15.974C3.52505 16.274 3.53589 16.648 3.41889 17.019L2.57782 19.52C2.39682 20.062 2.53803 20.651 2.94403 21.057C3.23203 21.346 3.61383 21.5 4.00483 21.5C4.16383 21.5 4.32388 21.474 4.48188 21.422L6.97504 20.585C7.35204 20.464 7.72593 20.476 8.03193 20.622C9.26493 21.195 10.6379 21.498 12.0019 21.498C17.2389 21.498 21.5009 17.237 21.5009 11.999C21.5009 6.76102 17.2379 2.5 12.0009 2.5ZM12.0009 20.498C10.7819 20.498 9.55595 20.227 8.45795 19.717C7.92595 19.464 7.29203 19.433 6.66303 19.634L4.16401 20.473C3.97901 20.533 3.78982 20.487 3.65082 20.349C3.51182 20.211 3.46482 20.018 3.52582 19.837L4.36884 17.33C4.56584 16.708 4.53585 16.074 4.28485 15.548C3.77285 14.445 3.50287 13.218 3.50287 11.999C3.50287 7.31302 7.31492 3.5 12.0009 3.5C16.6879 3.5 20.4999 7.31202 20.4999 11.999C20.4999 16.686 16.6879 20.498 12.0009 20.498ZM15.623 8.79102C13.839 8.33802 13.0018 7.94799 12.2338 7.55499C12.0908 7.48199 11.9219 7.48202 11.7819 7.55402C11.0089 7.94302 10.166 8.33603 8.362 8.85303C8.147 8.91503 7.99994 9.11098 7.99994 9.33398V11.556C7.99994 14.223 9.98303 15.846 11.84 16.474C11.892 16.492 11.9459 16.5 11.9999 16.5C12.0539 16.5 12.1079 16.491 12.1599 16.474C14.0159 15.846 15.9999 14.224 15.9999 11.556V9.276C15.9999 9.047 15.845 8.84702 15.623 8.79102ZM14.9999 11.556C14.9999 14.101 12.7639 15.176 11.9999 15.469C11.2359 15.177 8.99994 14.101 8.99994 11.556V9.70801C10.3559 9.30401 11.1768 8.96602 12.0048 8.55902C12.8338 8.97102 13.6529 9.30099 14.9999 9.66199V11.556Z" />
</svg>
