<svg viewBox="0 0 24 24" fill="currentColor" stroke="currentColor" xmlns="http://www.w3.org/2000/svg">
<path d="M21.437 10.938C21.48 11.288 21.4999 11.638 21.4999 11.998C21.4999 17.236 17.2379 21.497 12.0009 21.497C10.6379 21.497 9.26495 21.194 8.03095 20.621C7.72595 20.476 7.35106 20.463 6.97406 20.584L4.4809 21.421C4.3239 21.473 4.16385 21.499 4.00385 21.499C3.61285 21.499 3.23206 21.345 2.94306 21.056C2.53706 20.65 2.39585 20.061 2.57685 19.519L3.41791 17.018C3.53491 16.647 3.52283 16.273 3.37983 15.973C2.80483 14.735 2.5019 13.362 2.5019 11.998C2.5019 6.75999 6.76294 2.49902 11.9999 2.49902C12.3599 2.49902 12.71 2.51999 13.061 2.56299C13.334 2.59599 13.53 2.845 13.497 3.12C13.464 3.395 13.2199 3.58903 12.9399 3.55603C12.6299 3.51803 12.3199 3.5 12.0009 3.5C7.31492 3.5 3.50287 7.31202 3.50287 11.999C3.50287 13.218 3.77385 14.445 4.28485 15.548C4.53585 16.073 4.56584 16.708 4.36884 17.33L3.52582 19.837C3.46482 20.019 3.51182 20.211 3.65082 20.349C3.78982 20.487 3.98001 20.533 4.16401 20.473L6.66303 19.634C7.29203 19.433 7.92695 19.463 8.45795 19.717C9.55595 20.227 10.7819 20.498 12.0009 20.498C16.6879 20.498 20.4999 16.686 20.4999 11.999C20.4999 11.679 20.481 11.369 20.444 11.059C20.411 10.785 20.6058 10.536 20.8798 10.502C21.1528 10.469 21.403 10.664 21.437 10.938ZM16.4999 5C16.4999 3.622 17.6209 2.5 18.9999 2.5C20.3789 2.5 21.4999 3.622 21.4999 5C21.4999 6.378 20.3789 7.5 18.9999 7.5C17.6209 7.5 16.4999 6.378 16.4999 5ZM17.4999 5C17.4999 5.827 18.1729 6.5 18.9999 6.5C19.8269 6.5 20.4999 5.827 20.4999 5C20.4999 4.173 19.8269 3.5 18.9999 3.5C18.1729 3.5 17.4999 4.173 17.4999 5ZM11.989 11.25C11.577 11.25 11.2499 11.586 11.2499 12C11.2499 12.414 11.5928 12.75 12.0038 12.75C12.4168 12.75 12.7499 12.414 12.7499 12C12.7499 11.586 12.4158 11.25 12.0038 11.25H11.989ZM16.0038 12.75C16.4168 12.75 16.7499 12.414 16.7499 12C16.7499 11.586 16.4158 11.25 16.0038 11.25H15.989C15.577 11.25 15.2499 11.586 15.2499 12C15.2499 12.414 15.5928 12.75 16.0038 12.75ZM7.98896 11.25C7.57696 11.25 7.24994 11.586 7.24994 12C7.24994 12.414 7.59285 12.75 8.00385 12.75C8.41685 12.75 8.74994 12.414 8.74994 12C8.74994 11.586 8.41585 11.25 8.00385 11.25H7.98896Z" />
</svg>
