<svg viewBox="0 0 24 24" fill="currentColor" stroke="currentColor" xmlns="http://www.w3.org/2000/svg">
<path d="M20.7848 17.875C20.7228 17.687 20.6779 17.404 20.8029 17.131C21.2589 16.152 21.4999 15.069 21.4999 14C21.4999 11.005 19.6648 8.27499 16.9208 7.11499C15.7878 4.40799 13.1129 2.50098 10.0009 2.50098C5.86588 2.50098 2.50186 5.865 2.50186 10C2.50186 11.077 2.74095 12.161 3.19595 13.139C3.29495 13.347 3.30188 13.609 3.21988 13.869L2.56583 15.814C2.41283 16.275 2.53184 16.777 2.87784 17.123C3.12384 17.369 3.44791 17.5 3.78091 17.5C3.91691 17.5 4.05292 17.478 4.18692 17.434L6.12491 16.783C6.39391 16.698 6.65388 16.706 6.86588 16.807C6.94088 16.842 7.02081 16.867 7.09781 16.9C8.25681 19.657 10.9959 21.501 13.9999 21.501C15.0699 21.501 16.1518 21.26 17.1278 20.806C17.4028 20.68 17.688 20.725 17.871 20.785L19.8139 21.436C20.2759 21.589 20.778 21.467 21.123 21.123C21.467 20.779 21.587 20.277 21.434 19.812L20.7848 17.875ZM5.8129 15.832L3.87003 16.485C3.72603 16.533 3.62287 16.453 3.58487 16.415C3.54787 16.378 3.4668 16.276 3.5148 16.131L4.17081 14.179C4.33281 13.669 4.30798 13.146 4.10098 12.712C3.70898 11.869 3.50186 10.931 3.50186 9.99902C3.50186 6.41602 6.41688 3.5 10.0009 3.5C13.5849 3.5 16.4999 6.41602 16.4999 9.99902C16.4999 13.582 13.5849 16.498 10.0009 16.498C9.06788 16.498 8.1309 16.291 7.2919 15.901C6.8539 15.693 6.3309 15.665 5.8129 15.832ZM19.8358 18.189L20.485 20.126C20.534 20.275 20.4519 20.378 20.4149 20.415C20.3769 20.452 20.2708 20.533 20.1288 20.486L18.185 19.835C17.673 19.669 17.1639 19.69 16.7089 19.897C15.8619 20.292 14.9249 20.5 13.9999 20.5C11.7039 20.5 9.58591 19.258 8.42691 17.327C8.94391 17.439 9.47289 17.498 10.0009 17.498C14.1359 17.498 17.4999 14.134 17.4999 9.99902C17.4999 9.46202 17.4409 8.94 17.3329 8.435C19.2599 9.592 20.4999 11.707 20.4999 14C20.4999 14.925 20.2909 15.862 19.8949 16.712C19.6879 17.163 19.6678 17.672 19.8358 18.189ZM9.24991 10C9.24991 9.586 9.57692 9.25 9.98892 9.25H10.0038C10.4168 9.25 10.7499 9.586 10.7499 10C10.7499 10.414 10.4158 10.75 10.0038 10.75C9.59281 10.75 9.24991 10.414 9.24991 10ZM12.2499 10C12.2499 9.586 12.5769 9.25 12.9889 9.25H13.0038C13.4168 9.25 13.7499 9.586 13.7499 10C13.7499 10.414 13.4158 10.75 13.0038 10.75C12.5928 10.75 12.2499 10.414 12.2499 10ZM7.00381 10.75C6.59281 10.75 6.24991 10.414 6.24991 10C6.24991 9.586 6.57692 9.25 6.98892 9.25H7.00381C7.41681 9.25 7.74991 9.586 7.74991 10C7.74991 10.414 7.41581 10.75 7.00381 10.75Z" />
</svg>
