<svg viewBox="0 0 24 24" fill="currentColor" stroke="currentColor" xmlns="http://www.w3.org/2000/svg">
<path d="M12.0009 2.5C6.76392 2.5 2.50287 6.76102 2.50287 11.999C2.50287 13.363 2.80605 14.736 3.38105 15.974C3.52505 16.274 3.53589 16.648 3.41889 17.019L2.57782 19.52C2.39682 20.062 2.53803 20.651 2.94403 21.057C3.23203 21.346 3.61383 21.5 4.00483 21.5C4.16383 21.5 4.32388 21.474 4.48188 21.422L6.97504 20.585C7.35204 20.464 7.72593 20.476 8.03193 20.622C9.26493 21.195 10.6379 21.498 12.0019 21.498C17.2389 21.498 21.5009 17.237 21.5009 11.999C21.5009 6.76102 17.2379 2.5 12.0009 2.5ZM12.0009 20.498C10.7819 20.498 9.55595 20.227 8.45795 19.717C7.92695 19.464 7.29203 19.433 6.66303 19.634L4.16401 20.473C3.98001 20.533 3.78982 20.487 3.65082 20.349C3.51182 20.211 3.46482 20.018 3.52582 19.837L4.36884 17.33C4.56584 16.708 4.53585 16.074 4.28485 15.548C3.77285 14.445 3.50287 13.218 3.50287 11.999C3.50287 7.31302 7.31492 3.5 12.0009 3.5C16.6879 3.5 20.4999 7.31202 20.4999 11.999C20.4999 16.686 16.6879 20.498 12.0009 20.498ZM15.5139 8.97498C15.3739 8.74198 15.076 8.66301 14.841 8.79401L14.708 8.86798C14.432 9.02198 14.0931 9.021 13.8181 8.867C13.5531 8.718 13.3879 8.44199 13.3879 8.14899C13.3879 7.79099 13.0938 7.5 12.7338 7.5H11.2099C10.8499 7.5 10.5559 7.79099 10.5559 8.14899C10.5559 8.44199 10.3909 8.718 10.1249 8.867C9.85294 9.021 9.51098 9.02202 9.23798 8.86902C8.92998 8.69702 8.53492 8.79999 8.35492 9.10199L7.59003 10.385C7.50003 10.535 7.47594 10.711 7.52094 10.88C7.56494 11.047 7.67697 11.192 7.83197 11.279C8.09797 11.429 8.26286 11.704 8.26386 11.998C8.26486 12.293 8.10002 12.57 7.83002 12.721C7.67902 12.807 7.56594 12.952 7.52094 13.119C7.47594 13.288 7.50003 13.463 7.59003 13.614L8.35492 14.896C8.53792 15.201 8.92198 15.306 9.23798 15.13C9.50898 14.977 9.85094 14.976 10.1249 15.131H10.1259C10.3909 15.28 10.5559 15.555 10.5549 15.85C10.5549 16.208 10.848 16.499 11.208 16.499H12.7351C13.095 16.499 13.3879 16.208 13.3879 15.85C13.3879 15.557 13.553 15.281 13.819 15.132C14.09 14.977 14.431 14.976 14.706 15.13C15.015 15.303 15.4091 15.198 15.5891 14.897L16.3569 13.609C16.4449 13.459 16.4681 13.283 16.4221 13.116C16.3771 12.948 16.268 12.807 16.113 12.72C15.846 12.57 15.6809 12.294 15.6809 12C15.6799 11.705 15.846 11.428 16.112 11.278L16.2451 11.203C16.3621 11.137 16.4479 11.026 16.4829 10.896C16.5169 10.766 16.4979 10.627 16.4289 10.511L15.5139 8.97498ZM15.3259 13.385L14.8879 14.121C14.3799 13.947 13.8058 13.992 13.3278 14.262C12.8528 14.529 12.526 14.985 12.424 15.501H11.5209C11.4179 14.986 11.0909 14.53 10.6179 14.262C10.1409 13.993 9.56783 13.946 9.05683 14.121L8.61884 13.386C9.02484 13.04 9.26486 12.532 9.26386 11.996C9.26286 11.464 9.02286 10.961 8.61786 10.616L9.05585 9.88C9.56385 10.055 10.1389 10.009 10.6159 9.73901C11.0909 9.47201 11.418 9.016 11.52 8.5H12.423C12.526 9.015 12.8529 9.47101 13.3259 9.73901C13.8039 10.008 14.3759 10.055 14.8869 9.88L15.3249 10.615C14.9199 10.961 14.6789 11.467 14.6799 12.002C14.6819 12.536 14.9219 13.04 15.3259 13.385ZM12.7499 12C12.7499 12.414 12.4158 12.75 12.0038 12.75C11.5928 12.75 11.2499 12.414 11.2499 12C11.2499 11.586 11.577 11.25 11.989 11.25H12.0038C12.4158 11.25 12.7499 11.586 12.7499 12Z" />
</svg>
