<svg viewBox="0 0 24 24" fill="currentColor" stroke="currentColor" xmlns="http://www.w3.org/2000/svg">
<path d="M21.4999 18C21.4999 18.276 21.2759 18.5 20.9999 18.5H15.9999C15.7239 18.5 15.4999 18.276 15.4999 18C15.4999 17.724 15.7239 17.5 15.9999 17.5H20.9999C21.2759 17.5 21.4999 17.724 21.4999 18ZM12.9399 20.441C11.4499 20.623 9.84197 20.36 8.45697 19.716C7.92697 19.463 7.29203 19.433 6.66303 19.634L4.16401 20.473C3.97901 20.533 3.78882 20.487 3.65082 20.349C3.51182 20.211 3.46482 20.018 3.52582 19.837L4.36884 17.33C4.56584 16.708 4.53585 16.074 4.28485 15.548C3.77285 14.445 3.50287 13.218 3.50287 11.999C3.50287 7.31302 7.31492 3.5 12.0009 3.5C16.6879 3.5 20.4999 7.31202 20.4999 11.999C20.4999 12.275 20.7239 12.499 20.9999 12.499C21.2759 12.499 21.4999 12.275 21.4999 11.999C21.4999 6.76102 17.2379 2.5 12.0009 2.5C6.76392 2.5 2.50287 6.76102 2.50287 11.999C2.50287 13.363 2.80605 14.736 3.38105 15.974C3.52505 16.274 3.53589 16.648 3.41889 17.019L2.57782 19.52C2.39682 20.062 2.53803 20.651 2.94403 21.057C3.23203 21.346 3.61383 21.5 4.00483 21.5C4.16383 21.5 4.32388 21.474 4.48188 21.422L6.97504 20.585C7.35404 20.464 7.72593 20.477 8.03193 20.622C9.59093 21.347 11.385 21.638 13.062 21.435C13.335 21.402 13.531 21.153 13.498 20.878C13.464 20.603 13.2029 20.408 12.9399 20.441ZM11.989 11.25C11.577 11.25 11.2499 11.586 11.2499 12C11.2499 12.414 11.5928 12.75 12.0038 12.75C12.4168 12.75 12.7499 12.414 12.7499 12C12.7499 11.586 12.4158 11.25 12.0038 11.25H11.989ZM16.7499 12C16.7499 11.586 16.4158 11.25 16.0038 11.25H15.989C15.577 11.25 15.2499 11.586 15.2499 12C15.2499 12.414 15.5928 12.75 16.0038 12.75C16.4158 12.75 16.7499 12.414 16.7499 12ZM7.98896 11.25C7.57696 11.25 7.24994 11.586 7.24994 12C7.24994 12.414 7.59285 12.75 8.00385 12.75C8.41685 12.75 8.74994 12.414 8.74994 12C8.74994 11.586 8.41585 11.25 8.00385 11.25H7.98896Z" />
</svg>
