<svg viewBox="0 0 24 24" fill="currentColor" stroke="currentColor" xmlns="http://www.w3.org/2000/svg">
<path d="M12.0009 2.5C6.76392 2.5 2.50287 6.76102 2.50287 11.999C2.50287 13.363 2.80605 14.736 3.38105 15.974C3.52505 16.274 3.53589 16.648 3.41889 17.019L2.57782 19.52C2.39682 20.062 2.53803 20.651 2.94403 21.057C3.23203 21.346 3.61383 21.5 4.00483 21.5C4.16383 21.5 4.32388 21.474 4.48188 21.422L6.97504 20.585C7.35304 20.464 7.72593 20.476 8.03193 20.622C9.26493 21.195 10.6379 21.498 12.0019 21.498C17.2389 21.498 21.5009 17.237 21.5009 11.999C21.5009 6.76102 17.2379 2.5 12.0009 2.5ZM12.0009 20.498C10.7819 20.498 9.55595 20.227 8.45795 19.717C7.92695 19.464 7.29203 19.433 6.66303 19.634L4.16401 20.473C3.98001 20.533 3.78982 20.487 3.65082 20.349C3.51182 20.211 3.46482 20.018 3.52582 19.837L4.36884 17.33C4.56584 16.708 4.53585 16.074 4.28485 15.548C3.77285 14.445 3.50287 13.218 3.50287 11.999C3.50287 7.31302 7.31492 3.5 12.0009 3.5C16.6879 3.5 20.4999 7.31202 20.4999 11.999C20.4999 16.686 16.6879 20.498 12.0009 20.498ZM13.77 8C12.917 7.994 12.3469 8.41899 11.9999 8.83899C11.6519 8.41899 11.1129 8.023 10.2289 8C9.38195 8.004 8.67385 8.32403 8.18085 8.92603C7.58585 9.65203 7.36295 10.76 7.58295 11.889C8.14795 14.778 11.6449 16.388 11.7929 16.455C11.8579 16.485 11.929 16.499 11.999 16.499C12.069 16.499 12.14 16.484 12.205 16.455C12.353 16.388 15.85 14.778 16.415 11.889C16.635 10.758 16.4118 9.64999 15.8168 8.92499C15.3248 8.32399 14.617 8.004 13.77 8ZM15.434 11.698C15.039 13.719 12.7119 15.072 11.9999 15.442C11.2879 15.072 8.96088 13.719 8.56488 11.698C8.40088 10.858 8.54602 10.059 8.95502 9.56C9.25802 9.191 9.68685 9.003 10.2329 9C10.2359 9 10.2379 9 10.2399 9C11.1729 9 11.5118 9.93999 11.5258 9.97699C11.5928 10.18 11.783 10.315 11.997 10.316C12.181 10.324 12.4008 10.182 12.4728 9.97998C12.4878 9.93998 12.827 9 13.759 9C13.761 9 13.7631 9 13.7661 9C14.3131 9.003 14.7429 9.19102 15.0449 9.55902C15.4519 10.057 15.599 10.856 15.434 11.698Z" />
</svg>
