<svg viewBox="0 0 24 24" fill="currentColor" stroke="currentColor" xmlns="http://www.w3.org/2000/svg">
<path d="M13.497 20.877C13.53 21.151 13.335 21.4 13.061 21.434C11.383 21.637 9.58995 21.346 8.03095 20.621C7.72595 20.476 7.35306 20.463 6.97406 20.584L4.4809 21.421C4.3239 21.473 4.16385 21.499 4.00385 21.499C3.61285 21.499 3.23206 21.345 2.94306 21.056C2.53706 20.65 2.39585 20.061 2.57685 19.519L3.41791 17.018C3.53491 16.647 3.52283 16.273 3.37983 15.973C2.80483 14.735 2.5019 13.362 2.5019 11.998C2.5019 6.75999 6.76294 2.49902 11.9999 2.49902C17.2369 2.49902 21.499 6.75999 21.499 11.998C21.499 12.274 21.275 12.498 20.999 12.498C20.723 12.498 20.499 12.274 20.499 11.998C20.499 7.31199 16.6869 3.49902 11.9999 3.49902C7.31394 3.49902 3.5019 7.31099 3.5019 11.998C3.5019 13.217 3.77288 14.444 4.28388 15.547C4.53488 16.072 4.56486 16.707 4.36786 17.329L3.52485 19.836C3.46385 20.018 3.51084 20.21 3.64985 20.348C3.78785 20.486 3.97903 20.532 4.16303 20.472L6.66205 19.633C7.29105 19.432 7.927 19.462 8.456 19.715C9.842 20.359 11.4499 20.622 12.9389 20.44C13.2099 20.408 13.465 20.603 13.497 20.877ZM20.9999 17.5H15.9999C15.7239 17.5 15.4999 17.724 15.4999 18C15.4999 18.276 15.7239 18.5 15.9999 18.5H20.9999C21.2759 18.5 21.4999 18.276 21.4999 18C21.4999 17.724 21.2759 17.5 20.9999 17.5ZM7.99994 9.5C7.72394 9.5 7.49994 9.724 7.49994 10C7.49994 10.276 7.72394 10.5 7.99994 10.5H15.9999C16.2759 10.5 16.4999 10.276 16.4999 10C16.4999 9.724 16.2759 9.5 15.9999 9.5H7.99994ZM12.9999 13.5H7.99994C7.72394 13.5 7.49994 13.724 7.49994 14C7.49994 14.276 7.72394 14.5 7.99994 14.5H12.9999C13.2759 14.5 13.4999 14.276 13.4999 14C13.4999 13.724 13.2759 13.5 12.9999 13.5Z" />
</svg>
