<svg viewBox="0 0 24 24" fill="currentColor" stroke="currentColor" xmlns="http://www.w3.org/2000/svg">
<path d="M12.0009 2.5C6.76392 2.5 2.50287 6.76102 2.50287 11.999C2.50287 13.363 2.80605 14.736 3.38105 15.974C3.52505 16.274 3.53589 16.648 3.41889 17.019L2.57782 19.52C2.39682 20.062 2.53803 20.651 2.94403 21.057C3.23203 21.346 3.61383 21.5 4.00483 21.5C4.16383 21.5 4.32388 21.474 4.48188 21.422L6.97504 20.585C7.35204 20.464 7.72593 20.477 8.03193 20.622C9.26493 21.195 10.6379 21.498 12.0019 21.498C17.2389 21.498 21.5009 17.237 21.5009 11.999C21.5009 6.76102 17.2379 2.5 12.0009 2.5ZM12.0009 20.498C10.7819 20.498 9.55595 20.227 8.45795 19.717C7.92595 19.463 7.29203 19.433 6.66303 19.634L4.16401 20.473C3.98001 20.534 3.78982 20.487 3.65082 20.349C3.51182 20.211 3.46482 20.018 3.52582 19.837L4.36884 17.33C4.56584 16.708 4.53585 16.074 4.28485 15.548C3.77285 14.445 3.50287 13.218 3.50287 11.999C3.50287 7.31302 7.31492 3.5 12.0009 3.5C16.6879 3.5 20.4999 7.31202 20.4999 11.999C20.4999 16.686 16.6879 20.498 12.0009 20.498ZM10.8539 10.354L9.20795 12L10.8539 13.646C11.0489 13.841 11.0489 14.158 10.8539 14.353C10.7559 14.451 10.6279 14.499 10.4999 14.499C10.3719 14.499 10.2439 14.45 10.1459 14.353L8.14594 12.353C7.95094 12.158 7.95094 11.841 8.14594 11.646L10.1459 9.646C10.3409 9.451 10.658 9.451 10.853 9.646C11.048 9.841 11.0489 10.158 10.8539 10.354ZM15.8539 11.646C16.0489 11.841 16.0489 12.158 15.8539 12.353L13.8539 14.353C13.7559 14.451 13.6279 14.499 13.4999 14.499C13.3719 14.499 13.2439 14.45 13.1459 14.353C12.9509 14.158 12.9509 13.841 13.1459 13.646L14.7919 12L13.1459 10.354C12.9509 10.159 12.9509 9.84197 13.1459 9.64697C13.3409 9.45197 13.658 9.45197 13.853 9.64697L15.8539 11.646Z" />
</svg>
