<svg viewBox="0 0 24 24" fill="currentColor" stroke="currentColor" xmlns="http://www.w3.org/2000/svg">
<path d="M12.5009 20.998C12.5009 21.274 12.2769 21.498 12.0009 21.498C10.6379 21.498 9.26495 21.195 8.03095 20.621C7.72595 20.476 7.35306 20.463 6.97406 20.584L4.4809 21.421C4.3239 21.473 4.16385 21.499 4.00385 21.499C3.61285 21.499 3.23206 21.345 2.94306 21.056C2.53706 20.65 2.39585 20.061 2.57685 19.519L3.41791 17.018C3.53491 16.647 3.52283 16.273 3.37983 15.973C2.80483 14.735 2.5019 13.362 2.5019 11.998C2.5019 6.75999 6.76294 2.49902 11.9999 2.49902C17.2369 2.49902 21.499 6.75999 21.499 11.998C21.499 12.274 21.275 12.498 20.999 12.498C20.723 12.498 20.499 12.274 20.499 11.998C20.499 7.31199 16.6869 3.49902 11.9999 3.49902C7.31394 3.49902 3.5019 7.31099 3.5019 11.998C3.5019 13.217 3.77288 14.444 4.28388 15.547C4.53488 16.072 4.56486 16.707 4.36786 17.329L3.52485 19.836C3.46385 20.018 3.51084 20.21 3.64985 20.348C3.78785 20.486 3.97903 20.532 4.16303 20.472L6.66205 19.633C7.29105 19.432 7.926 19.462 8.456 19.715C9.554 20.225 10.7809 20.496 11.9999 20.496C12.2769 20.498 12.5009 20.721 12.5009 20.998ZM20.9999 18H18.9999V16C18.9999 15.724 18.7759 15.5 18.4999 15.5C18.2239 15.5 17.9999 15.724 17.9999 16V18H15.9999C15.7239 18 15.4999 18.224 15.4999 18.5C15.4999 18.776 15.7239 19 15.9999 19H17.9999V21C17.9999 21.276 18.2239 21.5 18.4999 21.5C18.7759 21.5 18.9999 21.276 18.9999 21V19H20.9999C21.2759 19 21.4999 18.776 21.4999 18.5C21.4999 18.224 21.2759 18 20.9999 18ZM12.0038 11.25H11.989C11.577 11.25 11.2499 11.586 11.2499 12C11.2499 12.414 11.5928 12.75 12.0038 12.75C12.4168 12.75 12.7499 12.414 12.7499 12C12.7499 11.586 12.4158 11.25 12.0038 11.25ZM16.7499 12C16.7499 11.586 16.4158 11.25 16.0038 11.25H15.989C15.577 11.25 15.2499 11.586 15.2499 12C15.2499 12.414 15.5928 12.75 16.0038 12.75C16.4158 12.75 16.7499 12.414 16.7499 12ZM7.98896 11.25C7.57696 11.25 7.24994 11.586 7.24994 12C7.24994 12.414 7.59285 12.75 8.00385 12.75C8.41685 12.75 8.74994 12.414 8.74994 12C8.74994 11.586 8.41585 11.25 8.00385 11.25H7.98896Z" />
</svg>
