<svg viewBox="0 0 24 24" fill="currentColor" stroke="currentColor" xmlns="http://www.w3.org/2000/svg">
<path d="M12.0009 2.5C6.76392 2.5 2.50287 6.76102 2.50287 11.999C2.50287 13.363 2.80605 14.736 3.38105 15.974C3.52505 16.274 3.53589 16.648 3.41889 17.019L2.57782 19.52C2.39682 20.062 2.53803 20.651 2.94403 21.057C3.23203 21.346 3.61383 21.5 4.00483 21.5C4.16383 21.5 4.32388 21.474 4.48188 21.422L6.97504 20.585C7.35204 20.464 7.72593 20.476 8.03193 20.622C9.26493 21.195 10.6379 21.498 12.0019 21.498C17.2389 21.498 21.5009 17.237 21.5009 11.999C21.5009 6.76102 17.2379 2.5 12.0009 2.5ZM12.0009 20.498C10.7819 20.498 9.55595 20.227 8.45795 19.717C7.92695 19.464 7.29203 19.433 6.66303 19.634L4.16401 20.473C3.97901 20.533 3.78882 20.487 3.65082 20.349C3.51182 20.211 3.46482 20.018 3.52582 19.837L4.36884 17.33C4.56584 16.708 4.53585 16.074 4.28485 15.548C3.77285 14.445 3.50287 13.218 3.50287 11.999C3.50287 7.31302 7.31492 3.5 12.0009 3.5C16.6879 3.5 20.4999 7.31202 20.4999 11.999C20.4999 16.686 16.6879 20.498 12.0009 20.498ZM15.916 10.191L13.8181 9.901L12.902 8.05798C12.56 7.36898 11.4378 7.36998 11.0978 8.05798L10.2009 9.88599L8.08393 10.191C7.71393 10.244 7.41204 10.498 7.29804 10.854C7.18304 11.208 7.27784 11.589 7.54584 11.848L9.06684 13.3L8.71796 15.323C8.65196 15.701 8.80396 16.077 9.11396 16.304C9.42596 16.532 9.83297 16.563 10.176 16.383L11.988 15.426L13.8239 16.384C13.9719 16.461 14.1329 16.499 14.2919 16.499C14.4999 16.499 14.708 16.434 14.885 16.305C15.196 16.079 15.3479 15.703 15.2819 15.325L14.924 13.327L16.454 11.847C16.722 11.588 16.8168 11.207 16.7018 10.853C16.5878 10.499 16.286 10.245 15.916 10.191ZM14.2289 12.608C13.9979 12.831 13.892 13.153 13.947 13.471L14.2871 15.498L12.4509 14.54C12.3089 14.467 12.1549 14.43 11.9999 14.43C11.8449 14.43 11.69 14.467 11.549 14.54L9.70404 15.494L10.0539 13.47C10.1079 13.153 10.0019 12.831 9.77192 12.608L8.22699 11.18L10.3439 10.875C10.6589 10.83 10.9339 10.632 11.0759 10.346L12.0038 8.49902C12.0038 8.49902 12.005 8.50001 12.006 8.50201H12.007L12.924 10.346C13.067 10.631 13.3409 10.829 13.6559 10.874L15.759 11.127L14.2289 12.608Z" />
</svg>
