<svg viewBox="0 0 24 24" fill="currentColor" stroke="currentColor" xmlns="http://www.w3.org/2000/svg">
<path d="M12.0009 2.5C6.76392 2.5 2.50287 6.76102 2.50287 11.999C2.50287 13.363 2.80605 14.736 3.38105 15.974C3.52505 16.274 3.53589 16.648 3.41889 17.019L2.57782 19.52C2.39682 20.062 2.53803 20.651 2.94403 21.057C3.23203 21.346 3.61383 21.5 4.00483 21.5C4.16383 21.5 4.32388 21.474 4.48188 21.422L6.97504 20.585C7.35204 20.464 7.72693 20.477 8.03193 20.622C9.26493 21.195 10.6379 21.498 12.0019 21.498C17.2389 21.498 21.5009 17.237 21.5009 11.999C21.5009 6.76102 17.2379 2.5 12.0009 2.5ZM12.0009 20.498C10.7819 20.498 9.55595 20.227 8.45795 19.717C7.92695 19.463 7.29103 19.433 6.66303 19.634L4.16401 20.473C3.98001 20.534 3.78882 20.487 3.65082 20.349C3.51182 20.211 3.46482 20.018 3.52582 19.837L4.36884 17.33C4.56584 16.708 4.53585 16.074 4.28485 15.548C3.77285 14.445 3.50287 13.218 3.50287 11.999C3.50287 7.31302 7.31492 3.5 12.0009 3.5C16.6879 3.5 20.4999 7.31202 20.4999 11.999C20.4999 16.686 16.6879 20.498 12.0009 20.498ZM12.7499 15C12.7499 15.414 12.4158 15.75 12.0038 15.75C11.5928 15.75 11.2499 15.414 11.2499 15C11.2499 14.586 11.577 14.25 11.989 14.25H12.0038C12.4158 14.25 12.7499 14.586 12.7499 15ZM11.4999 12V9C11.4999 8.724 11.7239 8.5 11.9999 8.5C12.2759 8.5 12.4999 8.724 12.4999 9V12C12.4999 12.276 12.2759 12.5 11.9999 12.5C11.7239 12.5 11.4999 12.276 11.4999 12Z" />
</svg>
