<svg viewBox="0 0 24 24" fill="currentColor" stroke="currentColor" xmlns="http://www.w3.org/2000/svg">
<path d="M12.0009 2.5C6.76392 2.5 2.50287 6.76102 2.50287 11.999C2.50287 13.363 2.80605 14.736 3.38105 15.974C3.52505 16.274 3.53589 16.648 3.41889 17.019L2.57782 19.52C2.39682 20.062 2.53803 20.651 2.94403 21.057C3.23203 21.346 3.61383 21.5 4.00483 21.5C4.16383 21.5 4.32388 21.474 4.48188 21.422L6.97504 20.585C7.35204 20.464 7.72693 20.476 8.03193 20.622C9.26493 21.195 10.6379 21.498 12.0019 21.498C17.2389 21.498 21.5009 17.237 21.5009 11.999C21.5009 6.76102 17.2379 2.5 12.0009 2.5ZM12.0009 20.498C10.7819 20.498 9.55595 20.227 8.45795 19.717C7.92595 19.464 7.29203 19.433 6.66303 19.634L4.16401 20.473C3.98001 20.533 3.78882 20.487 3.65082 20.349C3.51182 20.211 3.46482 20.018 3.52582 19.837L4.36884 17.33C4.56584 16.708 4.53585 16.074 4.28485 15.548C3.77285 14.445 3.50287 13.218 3.50287 11.999C3.50287 7.31302 7.31492 3.5 12.0009 3.5C16.6879 3.5 20.4999 7.31202 20.4999 11.999C20.4999 16.686 16.6879 20.498 12.0009 20.498ZM14.2499 11.064V9.75C14.2499 8.509 13.2399 7.5 11.9999 7.5C10.7599 7.5 9.74994 8.509 9.74994 9.75V11.064C8.95194 11.245 8.49994 11.846 8.49994 12.786V14.715C8.49994 15.85 9.15083 16.501 10.2858 16.501H13.7141C14.8491 16.501 15.4999 15.85 15.4999 14.715V12.786C15.4999 11.846 15.0479 11.245 14.2499 11.064ZM11.9999 8.5C12.6889 8.5 13.2499 9.061 13.2499 9.75V11H10.7499V9.75C10.7499 9.061 11.3109 8.5 11.9999 8.5ZM14.4999 14.714C14.4999 15.294 14.2941 15.5 13.7141 15.5H10.2858C9.70583 15.5 9.49994 15.294 9.49994 14.714V12.785C9.49994 12.205 9.70583 11.999 10.2858 11.999H13.7141C14.2941 11.999 14.4999 12.205 14.4999 12.785V14.714Z" />
</svg>
