<svg viewBox="0 0 24 24" fill="currentColor" stroke="currentColor" xmlns="http://www.w3.org/2000/svg">
<path d="M12.0009 2.5C6.76392 2.5 2.50287 6.76102 2.50287 11.999C2.50287 13.363 2.80605 14.736 3.38105 15.974C3.52505 16.274 3.53589 16.648 3.41889 17.019L2.57782 19.52C2.39682 20.062 2.53803 20.651 2.94403 21.057C3.23203 21.346 3.61383 21.5 4.00483 21.5C4.16383 21.5 4.32388 21.474 4.48188 21.422L6.97504 20.585C7.35204 20.464 7.72693 20.476 8.03193 20.622C9.26493 21.195 10.6379 21.498 12.0019 21.498C17.2389 21.498 21.5009 17.237 21.5009 11.999C21.5009 6.76102 17.2379 2.5 12.0009 2.5ZM12.0009 20.498C10.7819 20.498 9.55595 20.227 8.45795 19.717C7.92695 19.464 7.29203 19.433 6.66303 19.634L4.16401 20.473C3.98001 20.533 3.78982 20.487 3.65082 20.349C3.51182 20.211 3.46482 20.018 3.52582 19.837L4.36884 17.33C4.56584 16.708 4.53585 16.074 4.28485 15.548C3.77285 14.445 3.50287 13.218 3.50287 11.999C3.50287 7.31302 7.31492 3.5 12.0009 3.5C16.6879 3.5 20.4999 7.31202 20.4999 11.999C20.4999 16.686 16.6879 20.498 12.0009 20.498ZM15.103 7.90698C14.84 7.64498 14.492 7.5 14.122 7.5C14.121 7.5 14.1211 7.5 14.1201 7.5C13.7491 7.5 13.3989 7.646 13.1379 7.909L7.64692 13.425C7.55392 13.519 7.50092 13.645 7.50092 13.778V16C7.50092 16.276 7.72492 16.5 8.00092 16.5H10.2241C10.3561 16.5 10.4828 16.448 10.5768 16.354L16.093 10.863C16.357 10.601 16.5009 10.252 16.5019 9.88098C16.5019 9.50898 16.3569 9.15997 16.0949 8.89697L15.103 7.90698ZM10.017 15.5H8.49994V13.984L12.331 10.136L13.864 11.67L10.017 15.5ZM15.3859 10.155L14.5729 10.965L13.0371 9.42798L13.8459 8.61499C13.9189 8.54099 14.0171 8.5 14.1201 8.5H14.121C14.225 8.5 14.322 8.54001 14.395 8.61401L15.385 9.604C15.458 9.678 15.499 9.776 15.499 9.88C15.5 9.984 15.4589 10.081 15.3859 10.155Z" />
</svg>
