<svg viewBox="0 0 24 24" fill="currentColor" stroke="currentColor" xmlns="http://www.w3.org/2000/svg">
<path d="M13.497 20.877C13.53 21.151 13.335 21.4 13.061 21.434C11.384 21.637 9.58995 21.346 8.03095 20.621C7.72495 20.476 7.35306 20.463 6.97406 20.584L4.4809 21.421C4.3239 21.473 4.16385 21.499 4.00385 21.499C3.61285 21.499 3.23206 21.345 2.94306 21.056C2.53706 20.65 2.39585 20.061 2.57685 19.519L3.41791 17.018C3.53491 16.647 3.52283 16.273 3.37983 15.973C2.80483 14.735 2.5019 13.362 2.5019 11.998C2.5019 6.75999 6.76294 2.49902 11.9999 2.49902C17.2369 2.49902 21.499 6.75999 21.499 11.998C21.499 12.358 21.478 12.708 21.436 13.058C21.404 13.333 21.1488 13.527 20.8788 13.494C20.6058 13.461 20.4101 13.212 20.4431 12.937C20.4801 12.627 20.499 12.317 20.499 11.998C20.499 7.31199 16.6869 3.49902 11.9999 3.49902C7.31394 3.49902 3.5019 7.31099 3.5019 11.998C3.5019 13.217 3.77288 14.444 4.28388 15.547C4.53488 16.072 4.56486 16.707 4.36786 17.329L3.52485 19.836C3.46385 20.018 3.51084 20.21 3.64985 20.348C3.78885 20.486 3.97803 20.532 4.16303 20.472L6.66205 19.633C7.29105 19.432 7.927 19.462 8.456 19.715C9.841 20.359 11.4489 20.622 12.9389 20.44C13.2069 20.408 13.464 20.603 13.497 20.877ZM21.3539 16.646C21.1589 16.451 20.8419 16.451 20.6469 16.646L19.0009 18.292L17.3549 16.646C17.1599 16.451 16.8429 16.451 16.6479 16.646C16.4529 16.841 16.4529 17.158 16.6479 17.353L18.2939 18.999L16.6479 20.645C16.4529 20.84 16.4529 21.157 16.6479 21.352C16.7459 21.45 16.8739 21.498 17.0019 21.498C17.1299 21.498 17.2579 21.449 17.3559 21.352L19.0019 19.706L20.6479 21.352C20.7459 21.45 20.8739 21.498 21.0019 21.498C21.1299 21.498 21.2579 21.449 21.3559 21.352C21.5509 21.157 21.5509 20.84 21.3559 20.645L19.7099 18.999L21.3559 17.353C21.5489 17.158 21.5489 16.842 21.3539 16.646ZM11.989 11.25C11.577 11.25 11.2499 11.586 11.2499 12C11.2499 12.414 11.5928 12.75 12.0038 12.75C12.4168 12.75 12.7499 12.414 12.7499 12C12.7499 11.586 12.4158 11.25 12.0038 11.25H11.989ZM16.7499 12C16.7499 11.586 16.4158 11.25 16.0038 11.25H15.989C15.577 11.25 15.2499 11.586 15.2499 12C15.2499 12.414 15.5928 12.75 16.0038 12.75C16.4158 12.75 16.7499 12.414 16.7499 12ZM7.98896 11.25C7.57696 11.25 7.24994 11.586 7.24994 12C7.24994 12.414 7.59285 12.75 8.00385 12.75C8.41685 12.75 8.74994 12.414 8.74994 12C8.74994 11.586 8.41585 11.25 8.00385 11.25H7.98896Z" />
</svg>
