<svg viewBox="0 0 24 24" fill="currentColor" stroke="currentColor" xmlns="http://www.w3.org/2000/svg">
<path d="M17.625 2.5H6.375C3.84 2.5 2.5 3.84 2.5 6.375V17.625C2.5 20.16 3.84 21.5 6.375 21.5H17.625C20.16 21.5 21.5 20.16 21.5 17.625V6.375C21.5 3.84 20.16 2.5 17.625 2.5ZM20.5 17.625C20.5 19.586 19.586 20.5 17.625 20.5H6.375C4.414 20.5 3.5 19.586 3.5 17.625V6.375C3.5 4.414 4.414 3.5 6.375 3.5H17.625C19.586 3.5 20.5 4.414 20.5 6.375V17.625ZM16.5 9C16.5 9.276 16.276 9.5 16 9.5H10C9.724 9.5 9.5 9.276 9.5 9C9.5 8.724 9.724 8.5 10 8.5H16C16.276 8.5 16.5 8.724 16.5 9ZM16.5 12C16.5 12.276 16.276 12.5 16 12.5H8C7.724 12.5 7.5 12.276 7.5 12C7.5 11.724 7.724 11.5 8 11.5H16C16.276 11.5 16.5 11.724 16.5 12ZM16.5 15C16.5 15.276 16.276 15.5 16 15.5H12C11.724 15.5 11.5 15.276 11.5 15C11.5 14.724 11.724 14.5 12 14.5H16C16.276 14.5 16.5 14.724 16.5 15Z" />
</svg>
