<svg viewBox="0 0 24 24" fill="currentColor" stroke="currentColor" xmlns="http://www.w3.org/2000/svg">
<path d="M16.5 10C16.5 10.276 16.276 10.5 16 10.5H8C7.724 10.5 7.5 10.276 7.5 10C7.5 9.724 7.724 9.5 8 9.5H16C16.276 9.5 16.5 9.724 16.5 10ZM16 13.5H8C7.724 13.5 7.5 13.724 7.5 14C7.5 14.276 7.724 14.5 8 14.5H16C16.276 14.5 16.5 14.276 16.5 14C16.5 13.724 16.276 13.5 16 13.5ZM22.5 12C22.5 17.79 17.79 22.5 12 22.5C6.21 22.5 1.5 17.79 1.5 12C1.5 6.21 6.21 1.5 12 1.5C17.79 1.5 22.5 6.21 22.5 12ZM21.5 12C21.5 6.762 17.238 2.5 12 2.5C6.762 2.5 2.5 6.762 2.5 12C2.5 17.238 6.762 21.5 12 21.5C17.238 21.5 21.5 17.238 21.5 12Z" />
</svg>
