<svg viewBox="0 0 24 24" fill="currentColor" stroke="currentColor" xmlns="http://www.w3.org/2000/svg">
<path d="M9.5 6C9.5 5.724 9.724 5.5 10 5.5H21C21.276 5.5 21.5 5.724 21.5 6C21.5 6.276 21.276 6.5 21 6.5H10C9.724 6.5 9.5 6.276 9.5 6ZM21 11.5H3C2.724 11.5 2.5 11.724 2.5 12C2.5 12.276 2.724 12.5 3 12.5H21C21.276 12.5 21.5 12.276 21.5 12C21.5 11.724 21.276 11.5 21 11.5ZM14 17.5H3C2.724 17.5 2.5 17.724 2.5 18C2.5 18.276 2.724 18.5 3 18.5H14C14.276 18.5 14.5 18.276 14.5 18C14.5 17.724 14.276 17.5 14 17.5Z" />
</svg>
