<svg viewBox="0 0 24 24" fill="currentColor" stroke="currentColor" xmlns="http://www.w3.org/2000/svg">
<path d="M17.625 2.5H6.375C3.84 2.5 2.5 3.84 2.5 6.375V17.625C2.5 20.16 3.84 21.5 6.375 21.5H17.625C20.16 21.5 21.5 20.16 21.5 17.625V6.375C21.5 3.84 20.16 2.5 17.625 2.5ZM20.5 17.625C20.5 19.586 19.586 20.5 17.625 20.5H6.375C4.414 20.5 3.5 19.586 3.5 17.625V6.375C3.5 4.414 4.414 3.5 6.375 3.5H17.625C19.586 3.5 20.5 4.414 20.5 6.375V17.625ZM16.5 10C16.5 10.276 16.276 10.5 16 10.5H8C7.724 10.5 7.5 10.276 7.5 10C7.5 9.724 7.724 9.5 8 9.5H16C16.277 9.5 16.5 9.724 16.5 10ZM16.5 14C16.5 14.276 16.276 14.5 16 14.5H8C7.724 14.5 7.5 14.276 7.5 14C7.5 13.724 7.724 13.5 8 13.5H16C16.277 13.5 16.5 13.724 16.5 14Z" />
</svg>
