<svg viewBox="0 0 24 24" fill="currentColor" stroke="currentColor" xmlns="http://www.w3.org/2000/svg">
<path d="M16.5 9C16.5 9.276 16.276 9.5 16 9.5H8C7.724 9.5 7.5 9.276 7.5 9C7.5 8.724 7.724 8.5 8 8.5H16C16.276 8.5 16.5 8.724 16.5 9ZM16 11.5H8C7.724 11.5 7.5 11.724 7.5 12C7.5 12.276 7.724 12.5 8 12.5H16C16.276 12.5 16.5 12.276 16.5 12C16.5 11.724 16.276 11.5 16 11.5ZM16 14.5H12C11.724 14.5 11.5 14.724 11.5 15C11.5 15.276 11.724 15.5 12 15.5H16C16.276 15.5 16.5 15.276 16.5 15C16.5 14.724 16.276 14.5 16 14.5ZM22.5 12C22.5 17.79 17.79 22.5 12 22.5C6.21 22.5 1.5 17.79 1.5 12C1.5 6.21 6.21 1.5 12 1.5C17.79 1.5 22.5 6.21 22.5 12ZM21.5 12C21.5 6.762 17.238 2.5 12 2.5C6.762 2.5 2.5 6.762 2.5 12C2.5 17.238 6.762 21.5 12 21.5C17.238 21.5 21.5 17.238 21.5 12Z" />
</svg>
