<svg viewBox="0 0 24 24" fill="currentColor" stroke="currentColor" xmlns="http://www.w3.org/2000/svg">
<path d="M2.5 6C2.5 5.724 2.724 5.5 3 5.5H21C21.276 5.5 21.5 5.724 21.5 6C21.5 6.276 21.276 6.5 21 6.5H3C2.724 6.5 2.5 6.276 2.5 6ZM21 11.5H3C2.724 11.5 2.5 11.724 2.5 12C2.5 12.276 2.724 12.5 3 12.5H21C21.276 12.5 21.5 12.276 21.5 12C21.5 11.724 21.276 11.5 21 11.5ZM21 17.5H12C11.724 17.5 11.5 17.724 11.5 18C11.5 18.276 11.724 18.5 12 18.5H21C21.276 18.5 21.5 18.276 21.5 18C21.5 17.724 21.276 17.5 21 17.5Z" />
</svg>
