<svg viewBox="0 0 24 24" fill="currentColor" stroke="currentColor" xmlns="http://www.w3.org/2000/svg">
<path d="M16.5 9C16.5 9.276 16.276 9.5 16 9.5H8C7.724 9.5 7.5 9.276 7.5 9C7.5 8.724 7.724 8.5 8 8.5H16C16.276 8.5 16.5 8.724 16.5 9ZM16 11.5H8C7.724 11.5 7.5 11.724 7.5 12C7.5 12.276 7.724 12.5 8 12.5H16C16.276 12.5 16.5 12.276 16.5 12C16.5 11.724 16.276 11.5 16 11.5ZM16 14.5H8C7.724 14.5 7.5 14.724 7.5 15C7.5 15.276 7.724 15.5 8 15.5H16C16.276 15.5 16.5 15.276 16.5 15C16.5 14.724 16.276 14.5 16 14.5ZM21.5 6.375V17.625C21.5 20.16 20.16 21.5 17.625 21.5H6.375C3.84 21.5 2.5 20.16 2.5 17.625V6.375C2.5 3.84 3.84 2.5 6.375 2.5H17.625C20.16 2.5 21.5 3.84 21.5 6.375ZM20.5 6.375C20.5 4.414 19.586 3.5 17.625 3.5H6.375C4.414 3.5 3.5 4.414 3.5 6.375V17.625C3.5 19.586 4.414 20.5 6.375 20.5H17.625C19.586 20.5 20.5 19.586 20.5 17.625V6.375Z" />
</svg>
