<svg viewBox="0 0 24 24" fill="currentColor" stroke="currentColor" xmlns="http://www.w3.org/2000/svg">
<path d="M12 1.5C6.21 1.5 1.5 6.21 1.5 12C1.5 17.79 6.21 22.5 12 22.5C17.79 22.5 22.5 17.79 22.5 12C22.5 6.21 17.79 1.5 12 1.5ZM12 21.5C6.762 21.5 2.5 17.238 2.5 12C2.5 6.762 6.762 2.5 12 2.5C17.238 2.5 21.5 6.762 21.5 12C21.5 17.238 17.238 21.5 12 21.5ZM13 7.98389V8.00488C13 8.55388 12.553 9 12 9C11.447 9 11 8.55388 11 8.00488C11 7.45488 11.447 7 12 7C12.553 7 13 7.43489 13 7.98389ZM13 11.9839V12.0049C13 12.5539 12.553 13 12 13C11.447 13 11 12.5539 11 12.0049C11 11.4549 11.447 11 12 11C12.553 11 13 11.4349 13 11.9839ZM13 15.9839V16.0049C13 16.5539 12.553 17 12 17C11.447 17 11 16.5539 11 16.0049C11 15.4549 11.447 15 12 15C12.553 15 13 15.4349 13 15.9839Z" />
</svg>
