<svg viewBox="0 0 24 24" fill="currentColor" stroke="currentColor" xmlns="http://www.w3.org/2000/svg">
<path d="M21.25 12C21.25 12.691 20.692 13.25 20.006 13.25C19.318 13.25 18.75 12.691 18.75 12C18.75 11.309 19.294 10.75 19.981 10.75H20.007C20.692 10.75 21.25 11.309 21.25 12ZM12.006 10.75H11.98C11.294 10.75 10.749 11.309 10.749 12C10.749 12.691 11.318 13.25 12.005 13.25C12.691 13.25 13.249 12.691 13.249 12C13.249 11.309 12.692 10.75 12.006 10.75ZM4.00598 10.75H3.97998C3.29398 10.75 2.74902 11.309 2.74902 12C2.74902 12.691 3.318 13.25 4.005 13.25C4.691 13.25 5.24902 12.691 5.24902 12C5.24902 11.309 4.69198 10.75 4.00598 10.75Z" />
</svg>
