<svg viewBox="0 0 24 24" fill="currentColor" stroke="currentColor" xmlns="http://www.w3.org/2000/svg">
<path d="M12 1.5C6.21 1.5 1.5 6.21 1.5 12C1.5 17.79 6.21 22.5 12 22.5C17.79 22.5 22.5 17.79 22.5 12C22.5 6.21 17.79 1.5 12 1.5ZM12 21.5C6.762 21.5 2.5 17.238 2.5 12C2.5 6.762 6.762 2.5 12 2.5C17.238 2.5 21.5 6.762 21.5 12C21.5 17.238 17.238 21.5 12 21.5ZM9 12C9 12.553 8.554 13 8.005 13C7.455 13 7 12.553 7 12C7 11.447 7.43501 11 7.98401 11H8.00403C8.55403 11 9 11.447 9 12ZM13 12C13 12.553 12.554 13 12.005 13C11.455 13 11 12.553 11 12C11 11.447 11.435 11 11.984 11H12.004C12.554 11 13 11.447 13 12ZM17 12C17 12.553 16.554 13 16.005 13C15.455 13 15 12.553 15 12C15 11.447 15.435 11 15.984 11H16.004C16.554 11 17 11.447 17 12Z" />
</svg>
