<svg viewBox="0 0 24 24" fill="currentColor" stroke="currentColor" xmlns="http://www.w3.org/2000/svg">
<path d="M18.6201 16.312C18.7041 15.887 18.75 15.449 18.75 15V13.75H21C21.414 13.75 21.75 13.414 21.75 13C21.75 12.586 21.414 12.25 21 12.25H18.75V10C18.75 9.871 18.7311 9.75701 18.7241 9.63501C19.9641 9.33501 20.9891 8.42694 21.3911 7.18994L21.7109 6.23999C21.8429 5.84699 21.632 5.42206 21.239 5.28906C20.848 5.15906 20.4221 5.36901 20.2891 5.76001L19.967 6.71802C19.729 7.45002 19.124 7.97391 18.394 8.15991C17.939 7.11591 17.045 6.47596 15.75 6.30396V6C15.75 3.932 14.067 2.25 12 2.25C9.933 2.25 8.25 3.932 8.25 6V6.30396C6.955 6.47596 6.06096 7.11591 5.60596 8.15991C4.87696 7.97391 4.27098 7.44896 4.03198 6.70996L3.71191 5.76001C3.57991 5.36801 3.15596 5.15806 2.76196 5.28906C2.36896 5.42106 2.15804 5.84699 2.29004 6.23999L2.60791 7.18188C3.01191 8.42588 4.0371 9.33401 5.2771 9.63501C5.2701 9.75801 5.25098 9.871 5.25098 10V12.25H3C2.586 12.25 2.25 12.586 2.25 13C2.25 13.414 2.586 13.75 3 13.75H5.25V15C5.25 15.449 5.29588 15.888 5.37988 16.312C3.60788 16.61 2.25 18.144 2.25 20C2.25 20.414 2.586 20.75 3 20.75C3.414 20.75 3.75 20.414 3.75 20C3.75 18.811 4.68012 17.8439 5.84912 17.7649C6.90812 20.1109 9.264 21.75 12 21.75C14.736 21.75 17.0919 20.1109 18.1509 17.7649C19.3199 17.8439 20.25 18.811 20.25 20C20.25 20.414 20.586 20.75 21 20.75C21.414 20.75 21.75 20.414 21.75 20C21.75 18.144 20.3921 16.61 18.6201 16.312ZM9.75 6C9.75 4.759 10.76 3.75 12 3.75C13.24 3.75 14.25 4.759 14.25 6V6.25H9.75V6ZM12.75 20.1741V13C12.75 12.586 12.414 12.25 12 12.25C11.586 12.25 11.25 12.586 11.25 13V20.1741C8.712 19.8061 6.75 17.638 6.75 15V10C6.75 8.423 7.423 7.75 9 7.75H15C16.577 7.75 17.25 8.423 17.25 10V15C17.25 17.638 15.288 19.8061 12.75 20.1741Z" />
</svg>
