<svg viewBox="0 0 24 24" fill="currentColor" stroke="currentColor" xmlns="http://www.w3.org/2000/svg">
<path d="M17.999 20.75C17.851 20.75 17.7011 20.706 17.5701 20.615C17.2301 20.378 17.148 19.91 17.385 19.571C17.983 18.716 18.249 17.614 18.249 16.001V10.001C18.249 8.68898 17.8521 7.44293 17.1011 6.39893C16.8591 6.06293 16.935 5.59405 17.271 5.35205C17.609 5.11005 18.0771 5.18695 18.3181 5.52295C19.2551 6.82395 19.75 8.37298 19.75 10.001V16.001C19.75 17.941 19.399 19.3079 18.614 20.4309C18.469 20.6379 18.236 20.75 17.999 20.75ZM5.75 16V10C5.75 6.554 8.554 3.75 12 3.75C12.22 3.75 12.4389 3.75791 12.6599 3.78491C13.0679 3.82691 13.4439 3.5421 13.4939 3.1311C13.5439 2.7191 13.2511 2.3459 12.8401 2.2959C12.5611 2.2619 12.28 2.25098 12 2.25098C7.727 2.25098 4.25 5.72798 4.25 10.001V16.001C4.25 16.415 4.586 16.751 5 16.751C5.414 16.751 5.75 16.414 5.75 16ZM12.417 21.624C14.66 20.125 15.75 18.0861 15.75 15.3911V10C15.75 9 15.3589 8.05912 14.6499 7.34912C13.9739 6.67512 13.0409 6.274 12.0879 6.25C11.6869 6.241 11.3301 6.56796 11.3191 6.98096C11.3091 7.39496 11.636 7.739 12.05 7.75C12.621 7.764 13.1829 8.00491 13.5879 8.40991C14.0139 8.83591 14.248 9.4 14.248 10V15.3899C14.248 17.5759 13.4001 19.16 11.5811 20.376C11.2371 20.606 11.144 21.072 11.374 21.417C11.52 21.633 11.757 21.75 11.999 21.75C12.144 21.75 12.289 21.709 12.417 21.624ZM8.56396 17.427C9.32896 16.431 9.75 15.1889 9.75 13.9299V10C9.75 9.766 9.78104 9.54594 9.84204 9.36694C9.97304 8.97394 9.75997 8.54895 9.36597 8.41895C8.97297 8.28595 8.54897 8.50104 8.41797 8.89404C8.30697 9.22904 8.25 9.60198 8.25 10.001V13.9309C8.25 14.8609 7.939 15.7789 7.375 16.5139C7.122 16.8429 7.18494 17.3129 7.51294 17.5659C7.64994 17.6699 7.80999 17.7209 7.96899 17.7209C8.19399 17.7199 8.41697 17.619 8.56396 17.427ZM12.75 15V11C12.75 10.586 12.414 10.25 12 10.25C11.586 10.25 11.25 10.586 11.25 11V15C11.25 15.414 11.586 15.75 12 15.75C12.414 15.75 12.75 15.414 12.75 15Z" />
</svg>
