<svg viewBox="0 0 24 24" fill="currentColor" stroke="currentColor" xmlns="http://www.w3.org/2000/svg">
<path d="M15 2.25C11.278 2.25 8.25 5.278 8.25 9C8.25 9.515 8.3081 10.0231 8.4231 10.5171L2.46997 16.47C2.32897 16.611 2.25 16.802 2.25 17V21C2.25 21.414 2.586 21.75 3 21.75H7C7.414 21.75 7.75 21.414 7.75 21V18.75H10C10.199 18.75 10.39 18.671 10.53 18.53L13.4829 15.5769C13.9759 15.6919 14.484 15.75 15 15.75C18.722 15.75 21.75 12.722 21.75 9C21.75 5.278 18.722 2.25 15 2.25ZM15 14.25C14.479 14.25 13.967 14.1739 13.481 14.0229C13.214 13.9399 12.925 14.012 12.729 14.21L9.68896 17.25H7C6.586 17.25 6.25 17.586 6.25 18V20.25H3.75V17.311L9.79004 11.271C9.98604 11.074 10.0591 10.785 9.97705 10.52C9.82705 10.034 9.75 9.52198 9.75 9.00098C9.75 6.10598 12.105 3.75098 15 3.75098C17.895 3.75098 20.25 6.10598 20.25 9.00098C20.25 11.896 17.895 14.25 15 14.25ZM17.27 8C17.27 8.69 16.71 9.25 16.02 9.25C15.331 9.25 14.7649 8.69 14.7649 8C14.7649 7.31 15.32 6.75 16.01 6.75H16.02C16.71 6.75 17.27 7.31 17.27 8Z" />
</svg>
