<svg viewBox="0 0 24 24" fill="currentColor" stroke="currentColor" xmlns="http://www.w3.org/2000/svg">
<path d="M17.625 2.25H6.375C3.715 2.25 2.25 3.715 2.25 6.375V17.625C2.25 20.285 3.715 21.75 6.375 21.75H17.625C20.285 21.75 21.75 20.285 21.75 17.625V6.375C21.75 3.715 20.285 2.25 17.625 2.25ZM20.25 17.625C20.25 19.465 19.465 20.25 17.625 20.25H6.375C4.535 20.25 3.75 19.465 3.75 17.625V6.375C3.75 4.535 4.535 3.75 6.375 3.75H17.625C19.465 3.75 20.25 4.535 20.25 6.375V17.625ZM12 8.25C10.76 8.25 9.75 9.259 9.75 10.5C9.75 11.476 10.379 12.3011 11.25 12.6121V16C11.25 16.414 11.586 16.75 12 16.75C12.414 16.75 12.75 16.414 12.75 16V12.6121C13.621 12.3011 14.25 11.477 14.25 10.5C14.25 9.259 13.24 8.25 12 8.25ZM12 11.25C11.587 11.25 11.25 10.914 11.25 10.5C11.25 10.086 11.587 9.75 12 9.75C12.413 9.75 12.75 10.086 12.75 10.5C12.75 10.914 12.413 11.25 12 11.25Z" />
</svg>
