<svg viewBox="0 0 24 24" fill="currentColor" stroke="currentColor" xmlns="http://www.w3.org/2000/svg">
<path d="M21.147 4.26487C16.223 3.27987 14.516 2.42005 12.355 1.33005C12.144 1.22505 11.8641 1.23797 11.6531 1.34397C9.46308 2.42997 7.73205 3.28887 2.85205 4.26487C2.50105 4.33487 2.24902 4.64298 2.24902 4.99998V10.8889C2.24902 19.1229 10.173 22.1819 11.762 22.7119C11.839 22.7379 11.919 22.751 11.999 22.751C12.079 22.751 12.1591 22.7379 12.2361 22.7119C13.8251 22.1819 21.749 19.1229 21.749 10.8889V4.99998C21.75 4.64298 21.498 4.33387 21.147 4.26487ZM20.25 10.8889C20.25 17.7539 13.832 20.549 12 21.206C10.168 20.549 3.75 17.7529 3.75 10.8889V5.61301C8.135 4.69701 9.93789 3.86609 12.0149 2.83909C13.9699 3.82009 15.829 4.68801 20.25 5.61301V10.8889ZM11.988 10.9389L13.958 8.96897C14.251 8.67597 14.726 8.67597 15.019 8.96897C15.312 9.26197 15.312 9.73701 15.019 10.03L13.0491 12L15.019 13.9699C15.312 14.2629 15.312 14.738 15.019 15.031C14.873 15.177 14.681 15.251 14.489 15.251C14.297 15.251 14.105 15.178 13.959 15.031L11.989 13.061L10.019 15.031C9.87304 15.177 9.68101 15.251 9.48901 15.251C9.29701 15.251 9.10498 15.178 8.95898 15.031C8.66598 14.738 8.66598 14.2629 8.95898 13.9699L10.929 12L8.95898 10.03C8.66598 9.73701 8.66598 9.26197 8.95898 8.96897C9.25198 8.67597 9.72702 8.67597 10.02 8.96897L11.988 10.9389Z" />
</svg>
