<svg viewBox="0 0 24 24" fill="currentColor" stroke="currentColor" xmlns="http://www.w3.org/2000/svg">
<path d="M12 22.7501C11.92 22.7501 11.8399 22.7371 11.7629 22.7111C10.1739 22.1811 2.25 19.1221 2.25 10.8881V5.00012C2.25 4.64312 2.50203 4.33401 2.85303 4.26501C7.73303 3.28901 9.46305 2.43111 11.6541 1.34411C11.8651 1.23911 12.145 1.22519 12.356 1.33019C14.517 2.41919 16.2239 3.28001 21.1479 4.26501C21.4989 4.33501 21.751 4.64312 21.751 5.00012V10.889C21.751 19.123 13.827 22.182 12.238 22.712C12.16 22.737 12.08 22.7501 12 22.7501ZM3.75 5.61218V10.8881C3.75 17.7531 10.168 20.5482 12 21.2052C13.832 20.5482 20.25 17.7521 20.25 10.8881V5.61218C15.829 4.68718 13.9699 3.81901 12.0149 2.83801C9.93789 3.86501 8.135 4.69618 3.75 5.61218ZM10.6299 16.0021C10.3149 16.0021 9.99898 15.9212 9.70898 15.7582C9.10798 15.4222 8.75 14.8102 8.75 14.1232V9.62707C8.75 8.93907 9.10798 8.32806 9.70898 7.99206C10.312 7.65406 11.0221 7.66917 11.6101 8.02917L15.3889 10.3412C15.9269 10.6712 16.249 11.2441 16.249 11.8751C16.249 12.5061 15.9279 13.08 15.3889 13.41L11.6101 15.722C11.3061 15.908 10.9679 16.0021 10.6299 16.0021ZM10.6311 9.25012C10.5451 9.25012 10.4771 9.28116 10.4431 9.30016C10.3851 9.33216 10.251 9.42907 10.251 9.62707V14.1232C10.251 14.3212 10.3861 14.4171 10.4431 14.4501C10.5021 14.4831 10.6589 14.5472 10.8279 14.4432L14.6069 12.1312C14.7319 12.0542 14.751 11.9381 14.751 11.8751C14.751 11.8131 14.7319 11.6972 14.6069 11.6202L10.8279 9.30822C10.7569 9.26522 10.6891 9.25012 10.6311 9.25012Z" />
</svg>
