<svg viewBox="0 0 24 24" fill="currentColor" stroke="currentColor" xmlns="http://www.w3.org/2000/svg">
<path d="M21 21H4.5C2.958 21 2 20.042 2 18.5V4C2 3.448 2.448 3 3 3C3.552 3 4 3.448 4 4V18.5C4 18.949 4.051 19 4.5 19H21C21.552 19 22 19.448 22 20C22 20.552 21.552 21 21 21ZM20.923 14.3831C20.974 14.2611 21 14.131 21 14C21 14 21 14 21 13.999V10.999C21 10.447 20.552 9.99902 20 9.99902C19.448 9.99902 19 10.447 19 10.999V11.579L15.435 8.00098C14.657 7.22098 13.39 7.21704 12.609 7.99304L11.003 9.58801L7.70799 6.29297C7.31699 5.90197 6.68501 5.90197 6.29401 6.29297C5.90301 6.68397 5.90301 7.31603 6.29401 7.70703L9.589 11.002C10.367 11.78 11.633 11.781 12.412 11.007L14.018 9.41296L17.592 13H17C16.448 13 16 13.448 16 14C16 14.552 16.448 15 17 15H20C20.13 15 20.26 14.973 20.382 14.923C20.483 14.881 20.569 14.816 20.65 14.746C20.667 14.731 20.689 14.725 20.706 14.709C20.706 14.709 20.706 14.708 20.707 14.708C20.799 14.615 20.872 14.5051 20.923 14.3831Z" />
</svg>
