<svg viewBox="0 0 24 24" fill="currentColor" stroke="currentColor" xmlns="http://www.w3.org/2000/svg">
<path d="M21 21.75H3C2.586 21.75 2.25 21.414 2.25 21C2.25 20.586 2.586 20.25 3 20.25H21C21.414 20.25 21.75 20.586 21.75 21C21.75 21.414 21.414 21.75 21 21.75ZM14 16.5V4.5C14 3.5 13.5 3 12.5 3H11.5C10.5 3 10 3.5 10 4.5V16.5C10 17.5 10.5 18 11.5 18H12.5C13.5 18 14 17.5 14 16.5ZM21 16.5V8.5C21 7.5 20.5 7 19.5 7H18.5C17.5 7 17 7.5 17 8.5V16.5C17 17.5 17.5 18 18.5 18H19.5C20.5 18 21 17.5 21 16.5ZM7 16.5V11.5C7 10.5 6.5 10 5.5 10H4.5C3.5 10 3 10.5 3 11.5V16.5C3 17.5 3.5 18 4.5 18H5.5C6.5 18 7 17.5 7 16.5Z" />
</svg>
