<svg viewBox="0 0 24 24" fill="currentColor" stroke="currentColor" xmlns="http://www.w3.org/2000/svg">
<path d="M21 21H4.5C2.958 21 2 20.042 2 18.5V4C2 3.448 2.448 3 3 3C3.552 3 4 3.448 4 4V18.5C4 18.949 4.051 19 4.5 19H21C21.552 19 22 19.448 22 20C22 20.552 21.552 21 21 21ZM7.707 14.707L11.002 11.412L12.608 13.007C13.39 13.783 14.658 13.779 15.434 12.999L19.708 8.70703C20.098 8.31503 20.097 7.68297 19.705 7.29297C19.313 6.90297 18.681 6.90402 18.291 7.29602L14.017 11.588L12.412 9.99402C11.632 9.22002 10.365 9.22102 9.588 9.99902L6.293 13.2939C5.902 13.6849 5.902 14.317 6.293 14.708C6.488 14.903 6.744 15.001 7 15.001C7.256 15.001 7.512 14.902 7.707 14.707Z" />
</svg>
