<svg viewBox="0 0 24 24" fill="currentColor" stroke="currentColor" xmlns="http://www.w3.org/2000/svg">
<path d="M21 21H4.5C2.958 21 2 20.042 2 18.5V4C2 3.448 2.448 3 3 3C3.552 3 4 3.448 4 4V18.5C4 18.949 4.051 19 4.5 19H21C21.552 19 22 19.448 22 20C22 20.552 21.552 21 21 21ZM20.923 6.61694C20.872 6.49494 20.799 6.38497 20.707 6.29297C20.707 6.29297 20.707 6.29199 20.706 6.29199C20.691 6.27699 20.671 6.27203 20.656 6.25903C20.574 6.18603 20.485 6.12 20.381 6.078C20.272 6.033 20.157 6.01403 20.041 6.00903C20.026 6.00903 20.014 6.00098 19.999 6.00098H19.997C19.997 6.00098 19.997 6.00098 19.996 6.00098H17C16.448 6.00098 16 6.44898 16 7.00098C16 7.55298 16.448 8.00098 17 8.00098H17.592L14.018 11.588L12.413 9.99304C11.633 9.21904 10.366 9.22005 9.589 9.99805L6.29401 13.293C5.90301 13.684 5.90301 14.316 6.29401 14.707C6.48901 14.902 6.74501 15 7.00101 15C7.25701 15 7.51299 14.902 7.70799 14.707L11.003 11.412L12.609 13.007C13.392 13.783 14.658 13.779 15.435 12.999L19 9.42102V10C19 10.552 19.448 11 20 11C20.552 11 21 10.552 21 10V7C21 7 21 7.00002 21 6.99902C21 6.86902 20.973 6.73894 20.923 6.61694Z" />
</svg>
