<svg viewBox="0 0 24 24" fill="currentColor" stroke="currentColor" xmlns="http://www.w3.org/2000/svg">
<path d="M17.625 3H6.375C4.125 3 3 4.125 3 6.375V17.625C3 19.875 4.125 21 6.375 21H17.625C19.875 21 21 19.875 21 17.625V6.375C21 4.125 19.875 3 17.625 3ZM17.75 14.304C17.75 14.402 17.73 14.4991 17.692 14.5911C17.616 14.7741 17.47 14.9201 17.287 14.9971C17.195 15.0351 17.098 15.0549 17 15.0549H14.12C13.706 15.0549 13.37 14.7189 13.37 14.3049C13.37 13.8909 13.706 13.5549 14.12 13.5549H15.19L12.922 11.2871C12.877 11.2431 12.805 11.2441 12.76 11.2871L11.286 12.761C10.657 13.391 9.63199 13.391 9.00299 12.761L6.46899 10.2271C6.17599 9.93405 6.17599 9.45902 6.46899 9.16602C6.76199 8.87302 7.237 8.87302 7.53 9.16602L10.064 11.7C10.102 11.738 10.188 11.739 10.226 11.7L11.7 10.2261C12.31 9.61707 13.374 9.61807 13.983 10.2261L16.251 12.4939V11.4241C16.251 11.0101 16.587 10.6741 17.001 10.6741C17.415 10.6741 17.751 11.0101 17.751 11.4241V14.304H17.75Z" />
</svg>
