<svg viewBox="0 0 24 24" fill="currentColor" stroke="currentColor" xmlns="http://www.w3.org/2000/svg">
<path d="M12 2C6.477 2 2 6.477 2 12C2 17.523 6.477 22 12 22C17.523 22 22 17.523 22 12C22 6.477 17.523 2 12 2ZM8.75 16C8.75 16.414 8.414 16.75 8 16.75C7.586 16.75 7.25 16.414 7.25 16V11C7.25 10.586 7.586 10.25 8 10.25C8.414 10.25 8.75 10.586 8.75 11V16ZM12.75 16C12.75 16.414 12.414 16.75 12 16.75C11.586 16.75 11.25 16.414 11.25 16V8C11.25 7.586 11.586 7.25 12 7.25C12.414 7.25 12.75 7.586 12.75 8V16ZM16.75 16C16.75 16.414 16.414 16.75 16 16.75C15.586 16.75 15.25 16.414 15.25 16V13C15.25 12.586 15.586 12.25 16 12.25C16.414 12.25 16.75 12.586 16.75 13V16Z" />
</svg>
