<svg viewBox="0 0 24 24" fill="currentColor" stroke="currentColor" xmlns="http://www.w3.org/2000/svg">
<path d="M12 2C6.477 2 2 6.477 2 12C2 17.523 6.477 22 12 22C17.523 22 22 17.523 22 12C22 6.477 17.523 2 12 2ZM8.75 17C8.75 17.414 8.414 17.75 8 17.75C7.586 17.75 7.25 17.414 7.25 17V12C7.25 11.586 7.586 11.25 8 11.25C8.414 11.25 8.75 11.586 8.75 12V17ZM12.75 17C12.75 17.414 12.414 17.75 12 17.75C11.586 17.75 11.25 17.414 11.25 17V14C11.25 13.586 11.586 13.25 12 13.25C12.414 13.25 12.75 13.586 12.75 14V17ZM16.75 17C16.75 17.414 16.414 17.75 16 17.75C15.586 17.75 15.25 17.414 15.25 17V15.5C15.25 15.086 15.586 14.75 16 14.75C16.414 14.75 16.75 15.086 16.75 15.5V17ZM16.75 10.3199C16.75 10.3299 16.745 10.338 16.744 10.348C16.741 10.436 16.726 10.524 16.692 10.606C16.658 10.688 16.607 10.76 16.548 10.824C16.541 10.832 16.539 10.842 16.531 10.849C16.531 10.849 16.531 10.849 16.53 10.849C16.461 10.918 16.378 10.973 16.286 11.011C16.194 11.049 16.097 11.069 15.999 11.069H13.799C13.385 11.069 13.049 10.733 13.049 10.319C13.049 9.90497 13.385 9.56897 13.799 9.56897H14.184L12.385 7.776L11.098 9.04895C10.514 9.62795 9.56497 9.62497 8.98297 9.04297L7.46899 7.52905C7.17599 7.23605 7.17599 6.76102 7.46899 6.46802C7.76199 6.17502 8.23703 6.17502 8.53003 6.46802L10.044 7.98206L11.331 6.70898C11.916 6.13098 12.864 6.13401 13.444 6.71301L15.25 8.51196V8.11804C15.25 7.70404 15.586 7.36804 16 7.36804C16.414 7.36804 16.75 7.70404 16.75 8.11804V10.3199Z" />
</svg>
