<svg viewBox="0 0 24 24" fill="currentColor" stroke="currentColor" xmlns="http://www.w3.org/2000/svg">
<path d="M22 7V11.1541C22 11.7061 21.552 12.1541 21 12.1541C20.448 12.1541 20 11.7061 20 11.1541V9.41406L14.414 15C13.635 15.78 12.365 15.78 11.586 15L9 12.4141L3.707 17.707C3.512 17.902 3.256 18 3 18C2.744 18 2.488 17.902 2.293 17.707C1.902 17.316 1.902 16.684 2.293 16.293L7.586 11C8.365 10.22 9.635 10.22 10.414 11L13 13.5859L18.586 8H16.846C16.294 8 15.846 7.552 15.846 7C15.846 6.448 16.294 6 16.846 6H21C21.13 6 21.26 6.0269 21.382 6.0769C21.627 6.1789 21.821 6.37292 21.923 6.61792C21.973 6.73992 22 6.87 22 7Z" />
</svg>
