<svg viewBox="0 0 24 24" fill="currentColor" stroke="currentColor" xmlns="http://www.w3.org/2000/svg">
<path d="M22 17C22 17.13 21.973 17.2601 21.923 17.3821C21.822 17.6261 21.627 17.8211 21.382 17.9231C21.26 17.9741 21.13 18 21 18H16.846C16.294 18 15.846 17.552 15.846 17C15.846 16.448 16.294 16 16.846 16H18.586L13 10.4141L10.414 13C9.63501 13.78 8.36501 13.78 7.58601 13L2.29301 7.70707C1.90201 7.31607 1.90201 6.68401 2.29301 6.29301C2.68401 5.90201 3.31601 5.90201 3.70701 6.29301L9.00001 11.586L11.586 9.00004C12.365 8.22004 13.635 8.22004 14.414 9.00004L20 14.586V12.846C20 12.294 20.448 11.846 21 11.846C21.552 11.846 22 12.294 22 12.846V17Z" />
</svg>
