<svg viewBox="0 0 24 24" fill="currentColor" stroke="currentColor" xmlns="http://www.w3.org/2000/svg">
<path d="M12 1.5C6.21 1.5 1.5 6.21 1.5 12C1.5 17.79 6.21 22.5 12 22.5C17.79 22.5 22.5 17.79 22.5 12C22.5 6.21 17.79 1.5 12 1.5ZM12 2.5C14.439 2.5 16.66 3.43197 18.344 4.94897L4.94897 18.345C3.43197 16.661 2.5 14.44 2.5 12.001C2.5 6.76198 6.762 2.5 12 2.5ZM12 21.5C9.561 21.5 7.34001 20.568 5.65601 19.051L19.051 5.65503C20.568 7.33903 21.5 9.56002 21.5 11.999C21.5 17.238 17.238 21.5 12 21.5Z" />
</svg>
