<svg viewBox="0 0 24 24" fill="currentColor" stroke="currentColor" xmlns="http://www.w3.org/2000/svg">
<path d="M17.5 2.5H6.25C3.715 2.5 2.375 3.84 2.375 6.375V17.625C2.375 20.16 3.715 21.5 6.25 21.5H17.5C20.035 21.5 21.375 20.16 21.375 17.625V6.375C21.375 3.84 20.035 2.5 17.5 2.5ZM20.375 17.625C20.375 19.586 19.462 20.5 17.5 20.5H6.25C4.288 20.5 3.375 19.586 3.375 17.625V6.375C3.375 4.414 4.288 3.5 6.25 3.5H17.5C19.462 3.5 20.375 4.414 20.375 6.375V17.625ZM15.625 5.5H8.125C6.352 5.5 5.375 6.477 5.375 8.25V15.75C5.375 17.523 6.352 18.5 8.125 18.5H15.625C17.398 18.5 18.375 17.523 18.375 15.75V8.25C18.375 6.477 17.398 5.5 15.625 5.5ZM17.375 15.75C17.375 16.977 16.852 17.5 15.625 17.5H8.125C6.898 17.5 6.375 16.977 6.375 15.75V8.25C6.375 7.023 6.898 6.5 8.125 6.5H15.625C16.852 6.5 17.375 7.023 17.375 8.25V15.75Z" />
</svg>
