<svg viewBox="0 0 24 24" fill="currentColor" stroke="currentColor" xmlns="http://www.w3.org/2000/svg">
<path d="M12 1.5C6.21 1.5 1.5 6.21 1.5 12C1.5 17.79 6.21 22.5 12 22.5C17.79 22.5 22.5 17.79 22.5 12C22.5 6.21 17.79 1.5 12 1.5ZM12 21.5C6.762 21.5 2.5 17.238 2.5 12C2.5 6.762 6.762 2.5 12 2.5C17.238 2.5 21.5 6.762 21.5 12C21.5 17.238 17.238 21.5 12 21.5ZM9.13989 12C9.13989 13.654 10.4859 15 12.1399 15C13.1169 15 14.0331 14.5201 14.5891 13.7151C14.7451 13.4871 15.0569 13.4321 15.2839 13.5891C15.5119 13.7461 15.5679 14.0579 15.4109 14.2849C14.6679 15.3589 13.4439 16 12.1399 16C9.93389 16 8.13989 14.206 8.13989 12C8.13989 9.794 9.93389 8 12.1399 8C13.4449 8 14.6679 8.64109 15.4109 9.71509C15.5679 9.94209 15.5119 10.2539 15.2839 10.4109C15.0569 10.5679 14.7451 10.5119 14.5891 10.2849C14.0321 9.47991 13.1159 9 12.1399 9C10.4849 9 9.13989 10.346 9.13989 12Z" />
</svg>
