<svg viewBox="0 0 24 24" fill="currentColor" stroke="currentColor" xmlns="http://www.w3.org/2000/svg">
<path d="M21.3831 9.30194L14.697 2.61688C13.258 1.17588 10.742 1.17588 9.302 2.61688L2.61596 9.30194C1.12996 10.7899 1.12996 13.2099 2.61596 14.6979L9.302 21.383C10.022 22.104 10.98 22.5009 11.999 22.5009C13.018 22.5009 13.977 22.104 14.696 21.383L21.3821 14.6979C22.8691 13.2099 22.8691 10.7899 21.3831 9.30194ZM20.676 13.9909L13.99 20.676C12.928 21.739 11.072 21.739 10.01 20.676L3.32397 13.9909C2.22697 12.8929 2.22697 11.1069 3.32397 10.0099L10.01 3.32489C10.541 2.79289 11.248 2.49994 12 2.49994C12.752 2.49994 13.459 2.79289 13.99 3.32489L20.676 10.0099C21.772 11.1069 21.772 12.8929 20.676 13.9909Z" />
</svg>
