<svg viewBox="0 0 24 24" fill="currentColor" stroke="currentColor" xmlns="http://www.w3.org/2000/svg">
<path d="M17.625 2.5H6.375C3.84 2.5 2.5 3.84 2.5 6.375V17.625C2.5 20.16 3.84 21.5 6.375 21.5H17.625C20.16 21.5 21.5 20.16 21.5 17.625V6.375C21.5 3.84 20.16 2.5 17.625 2.5ZM20.5 17.625C20.5 19.586 19.587 20.5 17.625 20.5H6.375C4.413 20.5 3.5 19.586 3.5 17.625V6.375C3.5 4.414 4.413 3.5 6.375 3.5H17.625C19.587 3.5 20.5 4.414 20.5 6.375V17.625ZM12.75 15.5C12.75 15.915 12.4159 16.25 12.0039 16.25C11.5929 16.25 11.25 15.915 11.25 15.5C11.25 15.085 11.577 14.75 11.989 14.75H12.0039C12.4159 14.75 12.75 15.085 12.75 15.5ZM11.5 12.071V7.5C11.5 7.224 11.724 7 12 7C12.276 7 12.5 7.224 12.5 7.5V12.071C12.5 12.347 12.276 12.571 12 12.571C11.724 12.571 11.5 12.348 11.5 12.071Z" />
</svg>
