<svg viewBox="0 0 24 24" fill="currentColor" stroke="currentColor" xmlns="http://www.w3.org/2000/svg">
<path d="M17.625 2.5H6.375C3.84 2.5 2.5 3.84 2.5 6.375V17.625C2.5 20.16 3.84 21.5 6.375 21.5H17.625C20.16 21.5 21.5 20.16 21.5 17.625V6.375C21.5 3.84 20.16 2.5 17.625 2.5ZM20.5 17.625C20.5 19.586 19.587 20.5 17.625 20.5H6.375C4.413 20.5 3.5 19.586 3.5 17.625V6.375C3.5 4.414 4.413 3.5 6.375 3.5H17.625C19.587 3.5 20.5 4.414 20.5 6.375V17.625ZM12.5 11.929V16.5C12.5 16.776 12.276 17 12 17C11.724 17 11.5 16.776 11.5 16.5V11.929C11.5 11.653 11.724 11.429 12 11.429C12.276 11.429 12.5 11.652 12.5 11.929ZM12.75 8.5C12.75 8.915 12.4159 9.25 12.0039 9.25C11.5929 9.25 11.25 8.915 11.25 8.5C11.25 8.085 11.577 7.75 11.989 7.75H12.0039C12.4159 7.75 12.75 8.085 12.75 8.5Z" />
</svg>
