<svg viewBox="0 0 24 24" fill="currentColor" stroke="currentColor" xmlns="http://www.w3.org/2000/svg">
<path d="M20.9141 7.20703L16.793 3.08594C16.421 2.71294 15.9049 2.5 15.3789 2.5H8.62109C8.09509 2.5 7.57903 2.71294 7.20703 3.08594L3.08594 7.20703C2.71394 7.57903 2.5 8.09509 2.5 8.62109V15.3789C2.5 15.9049 2.71394 16.421 3.08594 16.793L7.20703 20.9141C7.57903 21.2871 8.09509 21.5 8.62109 21.5H15.3789C15.9049 21.5 16.421 21.2871 16.793 20.9141L20.9141 16.793C21.2861 16.421 21.5 15.9049 21.5 15.3789V8.62109C21.5 8.09509 21.2861 7.57903 20.9141 7.20703ZM20.5 15.3789C20.5 15.6419 20.394 15.8999 20.207 16.0859L16.0859 20.207C15.8989 20.393 15.6419 20.5 15.3789 20.5H8.62109C8.35809 20.5 8.10006 20.393 7.91406 20.207L3.79297 16.0859C3.60597 15.8999 3.5 15.6419 3.5 15.3789V8.62109C3.5 8.35809 3.60597 8.10006 3.79297 7.91406L7.91406 3.79297C8.10106 3.60697 8.35809 3.5 8.62109 3.5H15.3789C15.6419 3.5 15.8999 3.60697 16.0859 3.79297L20.207 7.91406C20.394 8.10006 20.5 8.35809 20.5 8.62109V15.3789ZM15.354 9.646C15.549 9.841 15.549 10.158 15.354 10.353L11.354 14.353C11.256 14.451 11.128 14.499 11 14.499C10.872 14.499 10.744 14.45 10.646 14.353L8.646 12.353C8.451 12.158 8.451 11.841 8.646 11.646C8.841 11.451 9.15803 11.451 9.35303 11.646L10.999 13.292L14.645 9.646C14.842 9.451 15.158 9.451 15.354 9.646Z" />
</svg>
