<svg viewBox="0 0 24 24" fill="currentColor" stroke="currentColor" xmlns="http://www.w3.org/2000/svg">
<path d="M20.9141 7.20703L16.793 3.08594C16.421 2.71294 15.9049 2.5 15.3789 2.5H8.62109C8.09509 2.5 7.57903 2.71294 7.20703 3.08594L3.08594 7.20703C2.71394 7.57903 2.5 8.09509 2.5 8.62109V15.3789C2.5 15.9049 2.71394 16.421 3.08594 16.793L7.20703 20.9141C7.57903 21.2871 8.09509 21.5 8.62109 21.5H15.3789C15.9049 21.5 16.421 21.2871 16.793 20.9141L20.9141 16.793C21.2861 16.421 21.5 15.9049 21.5 15.3789V8.62109C21.5 8.09509 21.2861 7.57903 20.9141 7.20703ZM20.5 15.3789C20.5 15.6419 20.394 15.8999 20.207 16.0859L16.0859 20.207C15.8989 20.393 15.6419 20.5 15.3789 20.5H8.62109C8.35809 20.5 8.10006 20.393 7.91406 20.207L3.79297 16.0859C3.60597 15.8999 3.5 15.6419 3.5 15.3789V8.62109C3.5 8.35809 3.60597 8.10006 3.79297 7.91406L7.91406 3.79297C8.10106 3.60697 8.35809 3.5 8.62109 3.5H15.3789C15.6419 3.5 15.8999 3.60697 16.0859 3.79297L20.207 7.91406C20.394 8.10006 20.5 8.35809 20.5 8.62109V15.3789ZM12.75 15C12.75 15.415 12.4159 15.75 12.0039 15.75C11.5929 15.75 11.25 15.415 11.25 15C11.25 14.585 11.577 14.25 11.989 14.25H12.0039C12.4159 14.25 12.75 14.585 12.75 15ZM11.5 12V8C11.5 7.724 11.724 7.5 12 7.5C12.276 7.5 12.5 7.724 12.5 8V12C12.5 12.276 12.276 12.5 12 12.5C11.724 12.5 11.5 12.276 11.5 12Z" />
</svg>
