<svg viewBox="0 0 24 24" fill="currentColor" stroke="currentColor" xmlns="http://www.w3.org/2000/svg">
<path d="M17.625 2.5H6.375C3.84 2.5 2.5 3.84 2.5 6.375V17.625C2.5 20.16 3.84 21.5 6.375 21.5H17.625C20.16 21.5 21.5 20.16 21.5 17.625V6.375C21.5 3.84 20.16 2.5 17.625 2.5ZM20.5 17.625C20.5 19.586 19.587 20.5 17.625 20.5H6.375C4.413 20.5 3.5 19.586 3.5 17.625V6.375C3.5 4.414 4.413 3.5 6.375 3.5H17.625C19.587 3.5 20.5 4.414 20.5 6.375V17.625ZM11.5 11.4441V7C11.5 6.724 11.724 6.5 12 6.5C12.276 6.5 12.5 6.724 12.5 7V11.4441C12.5 11.7201 12.276 11.9441 12 11.9441C11.724 11.9441 11.5 11.7211 11.5 11.4441ZM15.491 9.06006C16.429 9.99806 16.9441 11.2389 16.9441 12.5559C16.9441 15.2829 14.726 17.5 12 17.5C9.274 17.5 7.05591 15.2819 7.05591 12.5559C7.05591 11.2389 7.57203 9.99706 8.50903 9.06006C8.70403 8.86506 9.02106 8.86506 9.21606 9.06006C9.41106 9.25506 9.41106 9.57209 9.21606 9.76709C8.46806 10.5161 8.05591 11.5059 8.05591 12.5559C8.05591 14.7309 9.826 16.5 12 16.5C14.174 16.5 15.9441 14.7299 15.9441 12.5559C15.9441 11.5059 15.5319 10.5151 14.7839 9.76709C14.5889 9.57209 14.5889 9.25506 14.7839 9.06006C14.9789 8.86406 15.296 8.86406 15.491 9.06006Z" />
</svg>
