<svg viewBox="0 0 24 24" fill="currentColor" stroke="currentColor" xmlns="http://www.w3.org/2000/svg">
<path d="M12 1.5C6.21 1.5 1.5 6.21 1.5 12C1.5 17.79 6.21 22.5 12 22.5C17.79 22.5 22.5 17.79 22.5 12C22.5 6.21 17.79 1.5 12 1.5ZM12 21.5C6.762 21.5 2.5 17.238 2.5 12C2.5 6.762 6.762 2.5 12 2.5C17.238 2.5 21.5 6.762 21.5 12C21.5 17.238 17.238 21.5 12 21.5ZM11.5 10.9441V6.5C11.5 6.224 11.724 6 12 6C12.276 6 12.5 6.224 12.5 6.5V10.9441C12.5 11.2201 12.276 11.4441 12 11.4441C11.724 11.4441 11.5 11.2211 11.5 10.9441ZM15.491 8.56006C16.429 9.49806 16.9441 10.7389 16.9441 12.0559C16.9441 14.7829 14.726 17 12 17C9.274 17 7.05591 14.7819 7.05591 12.0559C7.05591 10.7389 7.57203 9.49706 8.50903 8.56006C8.70403 8.36506 9.02106 8.36506 9.21606 8.56006C9.41106 8.75506 9.41106 9.07209 9.21606 9.26709C8.46806 10.0161 8.05591 11.0059 8.05591 12.0559C8.05591 14.2309 9.826 16 12 16C14.174 16 15.9441 14.2299 15.9441 12.0559C15.9441 11.0059 15.5319 10.0151 14.7839 9.26709C14.5889 9.07209 14.5889 8.75506 14.7839 8.56006C14.9789 8.36406 15.296 8.36406 15.491 8.56006Z" />
</svg>
