<svg viewBox="0 0 24 24" fill="currentColor" stroke="currentColor" xmlns="http://www.w3.org/2000/svg">
<path d="M11.5 10V3C11.5 2.724 11.724 2.5 12 2.5C12.276 2.5 12.5 2.724 12.5 3V10C12.5 10.276 12.276 10.5 12 10.5C11.724 10.5 11.5 10.276 11.5 10ZM16.251 5.63794C16.013 5.49994 15.7059 5.57909 15.5669 5.81909C15.4279 6.05809 15.509 6.36393 15.749 6.50293C18.062 7.84893 19.5 10.339 19.5 13.001C19.5 17.137 16.136 20.501 12 20.501C7.864 20.501 4.5 17.137 4.5 13.001C4.5 10.339 5.93798 7.84893 8.25098 6.50293C8.48998 6.36393 8.57111 6.05809 8.43311 5.81909C8.29111 5.58009 7.98602 5.50094 7.74902 5.63794C5.12802 7.16194 3.5 9.984 3.5 13C3.5 17.687 7.313 21.5 12 21.5C16.687 21.5 20.5 17.687 20.5 13C20.5 9.983 18.872 7.16194 16.251 5.63794Z" />
</svg>
