<svg viewBox="0 0 24 24" fill="currentColor" stroke="currentColor" xmlns="http://www.w3.org/2000/svg">
<path d="M14.845 9.38794C15.047 10.5469 14.5559 11.588 13.4629 12.321C12.7159 12.821 12.5231 13.1389 12.4741 13.2839C12.4051 13.4929 12.209 13.625 12 13.625C11.947 13.625 11.8941 13.6171 11.8411 13.5991C11.5791 13.5111 11.4391 13.2271 11.5271 12.9661C11.6891 12.4811 12.128 12.012 12.907 11.49C13.674 10.977 13.9941 10.3271 13.8611 9.56006C13.7281 8.79406 13.1049 8.16501 12.3469 8.03101C11.7809 7.93101 11.2279 8.07494 10.7939 8.43994C10.3579 8.80494 10.1089 9.34089 10.1089 9.91089C10.1089 10.1869 9.88489 10.4109 9.60889 10.4109C9.33289 10.4109 9.10889 10.1869 9.10889 9.91089C9.10889 9.04389 9.48888 8.22907 10.1509 7.67407C10.8049 7.12507 11.668 6.89412 12.52 7.04712C13.686 7.25212 14.642 8.21494 14.845 9.38794ZM12.0039 15.75H11.989C11.577 15.75 11.25 16.085 11.25 16.5C11.25 16.915 11.5929 17.25 12.0039 17.25C12.4169 17.25 12.75 16.915 12.75 16.5C12.75 16.085 12.4159 15.75 12.0039 15.75ZM21.5 6.375V17.625C21.5 20.16 20.16 21.5 17.625 21.5H6.375C3.84 21.5 2.5 20.16 2.5 17.625V6.375C2.5 3.84 3.84 2.5 6.375 2.5H17.625C20.16 2.5 21.5 3.84 21.5 6.375ZM20.5 6.375C20.5 4.414 19.587 3.5 17.625 3.5H6.375C4.413 3.5 3.5 4.414 3.5 6.375V17.625C3.5 19.586 4.413 20.5 6.375 20.5H17.625C19.587 20.5 20.5 19.586 20.5 17.625V6.375Z" />
</svg>
