<svg viewBox="0 0 24 24" fill="currentColor" stroke="currentColor" xmlns="http://www.w3.org/2000/svg">
<path d="M12 1.5C6.21 1.5 1.5 6.21 1.5 12C1.5 17.79 6.21 22.5 12 22.5C17.79 22.5 22.5 17.79 22.5 12C22.5 6.21 17.79 1.5 12 1.5ZM12 21.5C6.762 21.5 2.5 17.238 2.5 12C2.5 6.762 6.762 2.5 12 2.5C17.238 2.5 21.5 6.762 21.5 12C21.5 17.238 17.238 21.5 12 21.5ZM14.845 9.38794C15.047 10.5469 14.5559 11.588 13.4629 12.321C12.7159 12.821 12.5231 13.1389 12.4741 13.2839C12.4051 13.4929 12.209 13.625 12 13.625C11.947 13.625 11.8941 13.6171 11.8411 13.5991C11.5791 13.5111 11.4391 13.2271 11.5271 12.9661C11.6891 12.4811 12.128 12.012 12.907 11.49C13.674 10.977 13.9941 10.3271 13.8611 9.56006C13.7281 8.79406 13.1049 8.16501 12.3469 8.03101C11.7819 7.93101 11.2279 8.07494 10.7939 8.43994C10.3579 8.80494 10.1089 9.34089 10.1089 9.91089C10.1089 10.1869 9.88489 10.4109 9.60889 10.4109C9.33289 10.4109 9.10889 10.1869 9.10889 9.91089C9.10889 9.04389 9.48888 8.22907 10.1509 7.67407C10.8049 7.12507 11.668 6.89412 12.52 7.04712C13.686 7.25212 14.642 8.21494 14.845 9.38794ZM12.75 16.5C12.75 16.915 12.4159 17.25 12.0039 17.25C11.5929 17.25 11.25 16.915 11.25 16.5C11.25 16.085 11.577 15.75 11.989 15.75H12.0039C12.4159 15.75 12.75 16.085 12.75 16.5Z" />
</svg>
