<svg viewBox="0 0 24 24" fill="currentColor" stroke="currentColor" xmlns="http://www.w3.org/2000/svg">
<path d="M12 1.5C6.21 1.5 1.5 6.21 1.5 12C1.5 17.79 6.21 22.5 12 22.5C17.79 22.5 22.5 17.79 22.5 12C22.5 6.21 17.79 1.5 12 1.5ZM12 21.5C6.762 21.5 2.5 17.238 2.5 12C2.5 6.762 6.762 2.5 12 2.5C17.238 2.5 21.5 6.762 21.5 12C21.5 17.238 17.238 21.5 12 21.5ZM12 5.5C8.416 5.5 5.5 8.416 5.5 12C5.5 15.584 8.416 18.5 12 18.5C15.584 18.5 18.5 15.584 18.5 12C18.5 8.416 15.584 5.5 12 5.5ZM12 17.5C8.968 17.5 6.5 15.033 6.5 12C6.5 8.967 8.968 6.5 12 6.5C15.032 6.5 17.5 8.967 17.5 12C17.5 15.033 15.032 17.5 12 17.5Z" />
</svg>
