<svg viewBox="0 0 24 24" fill="currentColor" stroke="currentColor" xmlns="http://www.w3.org/2000/svg">
<path d="M20.769 10.241C20.303 9.76297 19.675 9.5 19 9.5H10.738C9.93004 8.295 8.556 7.5 7 7.5C4.519 7.5 2.5 9.519 2.5 12C2.5 14.481 4.519 16.5 7 16.5C8.557 16.5 9.93004 15.705 10.738 14.5H19C20.379 14.5 21.5 13.378 21.5 12C21.5 11.325 21.237 10.697 20.769 10.241ZM7 15.5C5.07 15.5 3.5 13.93 3.5 12C3.5 10.07 5.07 8.5 7 8.5C8.93 8.5 10.5 10.07 10.5 12C10.5 13.93 8.93 15.5 7 15.5ZM19 13.5H11.2241C11.3921 13.029 11.5 12.529 11.5 12C11.5 11.471 11.3921 10.971 11.2241 10.5H19C19.402 10.5 19.776 10.656 20.062 10.948C20.344 11.223 20.5 11.597 20.5 12C20.5 12.827 19.827 13.5 19 13.5Z" />
</svg>
