<svg viewBox="0 0 24 24" fill="currentColor" stroke="currentColor" xmlns="http://www.w3.org/2000/svg">
<path d="M17 7.5C15.443 7.5 14.07 8.295 13.262 9.5H5C4.325 9.5 3.69697 9.76296 3.24097 10.231C2.76197 10.696 2.5 11.324 2.5 12C2.5 13.378 3.621 14.5 5 14.5H13.262C14.07 15.705 15.444 16.5 17 16.5C19.481 16.5 21.5 14.481 21.5 12C21.5 9.519 19.481 7.5 17 7.5ZM5 13.5C4.173 13.5 3.5 12.827 3.5 12C3.5 11.597 3.656 11.224 3.948 10.939C4.223 10.656 4.597 10.5 5 10.5H12.7759C12.6079 10.971 12.5 11.471 12.5 12C12.5 12.529 12.6079 13.029 12.7759 13.5H5ZM17 15.5C15.07 15.5 13.5 13.93 13.5 12C13.5 10.07 15.07 8.5 17 8.5C18.93 8.5 20.5 10.07 20.5 12C20.5 13.93 18.93 15.5 17 15.5Z" />
</svg>
