<svg viewBox="0 0 24 24" fill="currentColor" stroke="currentColor" xmlns="http://www.w3.org/2000/svg">
<path d="M18.692 22.5H5.30698C3.95598 22.5 2.73706 21.8101 2.04306 20.6531C1.35206 19.5001 1.31702 18.102 1.95102 16.916L8.55698 4.56104C9.24698 3.27104 10.5341 2.50098 11.9981 2.50098C13.4621 2.50098 14.7491 3.27104 15.4391 4.56104L22.045 16.916C22.679 18.103 22.645 19.5001 21.953 20.6531C21.263 21.8101 20.043 22.5 18.692 22.5ZM12.0001 3.5C10.9101 3.5 9.95401 4.07298 9.44101 5.03198L2.83505 17.387C2.36705 18.261 2.39319 19.2889 2.90219 20.1389C3.41319 20.9909 4.31198 21.5 5.30698 21.5H18.692C19.687 21.5 20.587 20.9909 21.097 20.1389C21.607 19.2889 21.6322 18.261 21.1642 17.387L14.5582 5.03198C14.0462 4.07298 13.0901 3.5 12.0001 3.5Z" />
</svg>
