<svg viewBox="0 0 24 24" fill="currentColor" stroke="currentColor" xmlns="http://www.w3.org/2000/svg">
<path d="M22.0482 16.916L15.442 4.56104C14.752 3.27104 13.4651 2.50098 12.0011 2.50098C10.5371 2.50098 9.25013 3.27104 8.56013 4.56104L1.95418 16.916C1.32018 18.103 1.35397 19.4991 2.04597 20.6531C2.73997 21.8101 3.96011 22.501 5.31111 22.501H18.6951C20.0461 22.501 21.266 21.8101 21.96 20.6531C22.647 19.4991 22.6822 18.102 22.0482 16.916ZM21.0992 20.1379C20.5882 20.9909 19.6892 21.5 18.6932 21.5H5.30916C4.31316 21.5 3.41315 20.9909 2.90315 20.1379C2.39315 19.2889 2.36901 18.26 2.83601 17.387L9.44197 5.03198C9.95497 4.07298 10.9111 3.5 12.0011 3.5C13.0911 3.5 14.0471 4.07298 14.5601 5.03198L21.1661 17.387C21.1671 17.387 21.1671 17.387 21.1671 17.387C21.6331 18.26 21.6072 19.2889 21.0992 20.1379ZM11.5001 14V10C11.5001 9.724 11.7241 9.5 12.0001 9.5C12.2761 9.5 12.5001 9.724 12.5001 10V14C12.5001 14.276 12.2761 14.5 12.0001 14.5C11.7241 14.5 11.5001 14.276 11.5001 14ZM12.7501 17C12.7501 17.415 12.416 17.75 12.004 17.75C11.593 17.75 11.2501 17.415 11.2501 17C11.2501 16.585 11.5771 16.25 11.9891 16.25H12.004C12.416 16.25 12.7501 16.585 12.7501 17Z" />
</svg>
