<svg viewBox="0 0 24 24" fill="currentColor" stroke="currentColor" xmlns="http://www.w3.org/2000/svg">
<path d="M21 10.05V18C21 20 20 21 18 21H6C4 21 3 20 3 18V10.05C3 9.88405 3.13405 9.75 3.30005 9.75H20.7C20.866 9.75 21 9.88405 21 10.05ZM18 4.5H16.75V3C16.75 2.59 16.41 2.25 16 2.25C15.59 2.25 15.25 2.59 15.25 3V4.5H8.75V3C8.75 2.59 8.41 2.25 8 2.25C7.59 2.25 7.25 2.59 7.25 3V4.5H6C4 4.5 3 5.5 3 7.5V7.94995C3 8.11595 3.13405 8.25 3.30005 8.25H20.7C20.866 8.25 21 8.11595 21 7.94995V7.5C21 5.5 20 4.5 18 4.5Z" />
</svg>
