<svg viewBox="0 0 24 24" fill="currentColor" stroke="currentColor" xmlns="http://www.w3.org/2000/svg">
<path d="M20.7 9.75H3.30005C3.13405 9.75 3 9.88405 3 10.05V18C3 20 4 21 6 21H18C20 21 21 20 21 18V10.05C21 9.88405 20.866 9.75 20.7 9.75ZM15.3821 14.584L14.1221 15.7859C14.0301 15.8739 13.988 16.001 14.01 16.125L14.2981 17.771C14.3561 18.105 14.0001 18.3589 13.6941 18.2019L12.1819 17.4241C12.0679 17.3651 11.9331 17.3651 11.8201 17.4241L10.3091 18.2009C10.0031 18.3589 9.6451 18.103 9.7041 17.769L9.99194 16.125C10.0139 16.001 9.97188 15.8739 9.87988 15.7859L8.62012 14.584C8.38812 14.363 8.51594 13.9769 8.83594 13.9319L10.5791 13.6841C10.7061 13.6661 10.8161 13.5881 10.8721 13.4751L11.627 11.9771C11.78 11.6731 12.222 11.6731 12.375 11.9771L13.1299 13.4751C13.1869 13.5881 13.2971 13.6661 13.4231 13.6841L15.166 13.9319C15.486 13.9779 15.6131 14.363 15.3821 14.584ZM21 7.5V7.94995C21 8.11595 20.866 8.25 20.7 8.25H3.30005C3.13405 8.25 3 8.11595 3 7.94995V7.5C3 5.5 4 4.5 6 4.5H7.25V3C7.25 2.59 7.59 2.25 8 2.25C8.41 2.25 8.75 2.59 8.75 3V4.5H15.25V3C15.25 2.59 15.59 2.25 16 2.25C16.41 2.25 16.75 2.59 16.75 3V4.5H18C20 4.5 21 5.5 21 7.5Z" />
</svg>
