<svg viewBox="0 0 24 24" fill="currentColor" stroke="currentColor" xmlns="http://www.w3.org/2000/svg">
<path d="M20.7 9.75H3.30005C3.13405 9.75 3 9.88405 3 10.05V18C3 20 4 21 6 21H18C20 21 21 20 21 18V10.05C21 9.88405 20.866 9.75 20.7 9.75ZM16.03 19.03C15.884 19.176 15.692 19.25 15.5 19.25C15.308 19.25 15.116 19.177 14.97 19.03L13.4209 17.481C12.8439 17.859 12.157 18.084 11.418 18.084C9.39597 18.084 7.75098 16.439 7.75098 14.417C7.75098 12.396 9.39597 10.75 11.418 10.75C13.439 10.75 15.084 12.395 15.084 14.417C15.084 15.157 14.8599 15.8439 14.4819 16.4209L16.032 17.9709C16.323 18.2629 16.323 18.737 16.03 19.03ZM21 7.5V7.94995C21 8.11595 20.866 8.25 20.7 8.25H3.30005C3.13405 8.25 3 8.11595 3 7.94995V7.5C3 5.5 4 4.5 6 4.5H7.25V3C7.25 2.59 7.59 2.25 8 2.25C8.41 2.25 8.75 2.59 8.75 3V4.5H15.25V3C15.25 2.59 15.59 2.25 16 2.25C16.41 2.25 16.75 2.59 16.75 3V4.5H18C20 4.5 21 5.5 21 7.5ZM13.583 14.417C13.583 15.612 12.611 16.584 11.417 16.584C10.222 16.584 9.25 15.612 9.25 14.417C9.25 13.222 10.222 12.25 11.417 12.25C12.611 12.25 13.583 13.222 13.583 14.417Z" />
</svg>
