<svg viewBox="0 0 24 24" fill="currentColor" stroke="currentColor" xmlns="http://www.w3.org/2000/svg">
<path d="M20.7 9.75H3.30005C3.13405 9.75 3 9.88405 3 10.05V18C3 20 4 21 6 21H18C20 21 21 20 21 18V10.05C21 9.88405 20.866 9.75 20.7 9.75ZM15.03 13.864L11.697 17.197C11.551 17.343 11.359 17.417 11.167 17.417C10.975 17.417 10.783 17.344 10.637 17.197L8.96997 15.53C8.67697 15.238 8.67697 14.762 8.96997 14.469C9.26297 14.176 9.73801 14.176 10.031 14.469L11.168 15.605L13.9709 12.802C14.2639 12.509 14.739 12.509 15.032 12.802C15.325 13.095 15.323 13.571 15.03 13.864ZM21 7.5V7.94995C21 8.11595 20.866 8.25 20.7 8.25H3.30005C3.13405 8.25 3 8.11595 3 7.94995V7.5C3 5.5 4 4.5 6 4.5H7.25V3C7.25 2.59 7.59 2.25 8 2.25C8.41 2.25 8.75 2.59 8.75 3V4.5H15.25V3C15.25 2.59 15.59 2.25 16 2.25C16.41 2.25 16.75 2.59 16.75 3V4.5H18C20 4.5 21 5.5 21 7.5Z" />
</svg>
