<svg viewBox="0 0 24 24" fill="currentColor" stroke="currentColor" xmlns="http://www.w3.org/2000/svg">
<path d="M17.625 3H6.375C4.125 3 3 4.125 3 6.375V17.625C3 19.875 4.125 21 6.375 21H17.625C19.875 21 21 19.875 21 17.625V6.375C21 4.125 19.875 3 17.625 3ZM15.53 15.53C15.384 15.676 15.192 15.75 15 15.75C14.808 15.75 14.616 15.677 14.47 15.53L11.47 12.53C11.329 12.389 11.25 12.198 11.25 12V7C11.25 6.586 11.586 6.25 12 6.25C12.414 6.25 12.75 6.586 12.75 7V11.689L15.53 14.469C15.823 14.763 15.823 15.237 15.53 15.53Z" />
</svg>
