<svg viewBox="0 0 24 24" fill="currentColor" stroke="currentColor" xmlns="http://www.w3.org/2000/svg">
<path fill-rule="evenodd" clip-rule="evenodd" d="M8.25 3C8.25 2.586 8.586 2.25 9 2.25H14C14.414 2.25 14.75 2.586 14.75 3C14.75 3.414 14.414 3.75 14 3.75H9C8.586 3.75 8.25 3.414 8.25 3ZM19 13.5C19 17.642 15.642 21 11.5 21C7.358 21 4 17.642 4 13.5C4 9.358 7.358 6 11.5 6C13.173 6 14.712 6.55398 15.96 7.47998L17.47 5.96997C17.76 5.67997 18.24 5.67997 18.53 5.96997C18.82 6.25997 18.82 6.74003 18.53 7.03003L17.0701 8.48999C18.2661 9.81899 19 11.572 19 13.5ZM12.561 13.5L14.031 12.03C14.324 11.737 14.324 11.262 14.031 10.969C13.738 10.676 13.263 10.676 12.97 10.969L11.5 12.439L10.03 10.969C9.73703 10.676 9.26199 10.676 8.96899 10.969C8.67599 11.262 8.67599 11.737 8.96899 12.03L10.439 13.5L8.96899 14.97C8.67599 15.263 8.67599 15.738 8.96899 16.031C9.11499 16.177 9.30702 16.251 9.49902 16.251C9.69102 16.251 9.88305 16.178 10.0291 16.031L11.499 14.561L12.969 16.031C13.115 16.177 13.307 16.251 13.499 16.251C13.691 16.251 13.8831 16.178 14.0291 16.031C14.3221 15.738 14.3221 15.263 14.0291 14.97L12.561 13.5Z" />
</svg>
