<svg viewBox="0 0 24 24" fill="currentColor" stroke="currentColor" xmlns="http://www.w3.org/2000/svg">
<path d="M7.24997 3C7.24997 2.586 7.58597 2.25 7.99997 2.25H13C13.414 2.25 13.75 2.586 13.75 3C13.75 3.414 13.414 3.75 13 3.75H7.99997C7.58597 3.75 7.24997 3.414 7.24997 3ZM17.799 13.8311L12.936 18.724C12.657 19.005 12.5009 19.3841 12.5009 19.7791V20.483C12.5009 20.621 12.4079 20.747 12.2739 20.782C11.6949 20.931 11.0931 21.001 10.4751 20.999C6.92407 20.987 3.7609 18.393 3.1279 14.899C2.2669 10.144 5.90295 5.99902 10.5009 5.99902C12.1729 5.99902 13.7129 6.553 14.9599 7.479L16.4699 5.96899C16.7599 5.67899 17.24 5.67899 17.53 5.96899C17.82 6.25899 17.82 6.73905 17.53 7.02905L16.07 8.48901C17.221 9.76801 17.945 11.44 17.997 13.283C17.999 13.355 18.02 13.6111 17.799 13.8311ZM11.25 10C11.25 9.586 10.914 9.25 10.5 9.25C10.086 9.25 9.74997 9.586 9.74997 10V13.5C9.74997 13.914 10.086 14.25 10.5 14.25C10.914 14.25 11.25 13.914 11.25 13.5V10ZM21.74 15.25L20.75 14.26C20.4 13.91 19.84 13.91 19.49 14.26L18.6799 15.08L20.9199 17.3199L21.74 16.51C22.09 16.16 22.09 15.6 21.74 15.25ZM14 19.78V22H16.2199L20.2199 18.02L17.98 15.78L14 19.78Z" />
</svg>
