<svg viewBox="0 0 24 24" fill="currentColor" stroke="currentColor" xmlns="http://www.w3.org/2000/svg">
<path d="M7.24989 3C7.24989 2.586 7.58589 2.25 7.99989 2.25H12.9999C13.4139 2.25 13.7499 2.586 13.7499 3C13.7499 3.414 13.4139 3.75 12.9999 3.75H7.99989C7.58589 3.75 7.24989 3.414 7.24989 3ZM12.4999 17V19C12.4999 19.496 12.5529 19.959 12.6539 20.379C12.6919 20.538 12.6049 20.6989 12.4469 20.7419C11.6759 20.9499 10.8678 21.039 10.0118 20.984C6.57185 20.766 3.63383 18.123 3.09583 14.718C2.35783 10.039 5.95989 5.99902 10.4999 5.99902C12.1719 5.99902 13.7138 6.55103 14.9608 7.47803L16.4699 5.96899C16.7599 5.67899 17.2399 5.67899 17.5299 5.96899C17.8199 6.25899 17.8199 6.73905 17.5299 7.02905L16.07 8.48901C16.977 9.49801 17.6199 10.7509 17.8739 12.1429C17.9079 12.3269 17.7579 12.499 17.5709 12.499H16.9999C14.5149 12.5 12.4999 14.515 12.4999 17ZM11.2499 10C11.2499 9.586 10.9139 9.25 10.4999 9.25C10.0859 9.25 9.74989 9.586 9.74989 10V13.5C9.74989 13.914 10.0859 14.25 10.4999 14.25C10.9139 14.25 11.2499 13.914 11.2499 13.5V10ZM21.9999 17V19C21.9999 21 20.9999 22 18.9999 22H16.9999C14.9999 22 13.9999 21 13.9999 19V17C13.9999 15 14.9999 14 16.9999 14H18.9999C20.9999 14 21.9999 15 21.9999 17ZM18.7069 18L19.3529 17.354C19.5479 17.159 19.5479 16.842 19.3529 16.647C19.1579 16.452 18.8409 16.452 18.6459 16.647L17.9999 17.293L17.3539 16.647C17.1589 16.452 16.8419 16.452 16.6469 16.647C16.4519 16.842 16.4519 17.159 16.6469 17.354L17.2929 18L16.6469 18.646C16.4519 18.841 16.4519 19.158 16.6469 19.353C16.7449 19.451 16.8729 19.499 17.0009 19.499C17.1289 19.499 17.2569 19.45 17.3549 19.353L18.0009 18.707L18.6469 19.353C18.7449 19.451 18.8729 19.499 19.0009 19.499C19.1289 19.499 19.2569 19.45 19.3549 19.353C19.5499 19.158 19.5499 18.841 19.3549 18.646L18.7069 18Z" />
</svg>
