<svg viewBox="0 0 24 24" fill="currentColor" stroke="currentColor" xmlns="http://www.w3.org/2000/svg">
<path d="M17.0701 8.48999L18.53 7.03003C18.82 6.74003 18.82 6.25997 18.53 5.96997C18.24 5.67997 17.76 5.67997 17.47 5.96997L15.96 7.47998C14.713 6.55398 13.173 6 11.5 6C7.358 6 4 9.358 4 13.5C4 17.642 7.358 21 11.5 21C15.642 21 19 17.642 19 13.5C19 11.572 18.2661 9.81899 17.0701 8.48999ZM8.25 3C8.25 2.586 8.586 2.25 9 2.25H14C14.414 2.25 14.75 2.586 14.75 3C14.75 3.414 14.414 3.75 14 3.75H9C8.586 3.75 8.25 3.414 8.25 3Z" />
</svg>
