<svg viewBox="0 0 24 24" fill="currentColor" stroke="currentColor" xmlns="http://www.w3.org/2000/svg">
<path fill-rule="evenodd" clip-rule="evenodd" d="M8.25 3C8.25 2.586 8.586 2.25 9 2.25H14C14.414 2.25 14.75 2.586 14.75 3C14.75 3.414 14.414 3.75 14 3.75H9C8.586 3.75 8.25 3.414 8.25 3ZM19 13.5C19 17.642 15.642 21 11.5 21C7.358 21 4 17.642 4 13.5C4 9.358 7.358 6 11.5 6C13.173 6 14.712 6.55398 15.96 7.47998L17.47 5.96997C17.76 5.67997 18.24 5.67997 18.53 5.96997C18.82 6.25997 18.82 6.74003 18.53 7.03003L17.0701 8.48999C18.2661 9.81899 19 11.572 19 13.5ZM14.53 11.303C14.237 11.01 13.762 11.01 13.469 11.303L10.666 14.106L9.52905 12.97C9.23605 12.677 8.76102 12.677 8.46802 12.97C8.17502 13.263 8.17502 13.738 8.46802 14.031L10.135 15.698C10.281 15.844 10.473 15.918 10.665 15.918C10.857 15.918 11.0491 15.845 11.1951 15.698L14.5281 12.365C14.8231 12.071 14.823 11.596 14.53 11.303Z" />
</svg>
