<svg viewBox="0 0 24 24" fill="currentColor" stroke="currentColor" xmlns="http://www.w3.org/2000/svg">
<path d="M13 8V11.5859L14.707 13.293C15.098 13.684 15.098 14.316 14.707 14.707C14.512 14.902 14.256 15 14 15C13.744 15 13.488 14.902 13.293 14.707L11.293 12.707C11.105 12.519 11 12.265 11 12V8C11 7.448 11.447 7 12 7C12.553 7 13 7.448 13 8ZM15 7C15 7.552 15.447 8 16 8H20C20.553 8 21 7.552 21 7V3C21 2.448 20.553 2 20 2C19.447 2 19 2.448 19 3V4.92993C17.15 3.07793 14.6441 2 11.9741 2C6.47512 2 2 6.486 2 12C2 17.514 6.47512 22 11.9741 22C15.7971 22 19.2169 19.8699 20.8979 16.4399C21.1409 15.9439 20.9369 15.3451 20.4409 15.1021C19.9449 14.8591 19.345 15.0641 19.103 15.5601C17.76 18.2991 15.0291 20 11.9741 20C7.57812 20 4 16.411 4 12C4 7.589 7.57712 4 11.9741 4C13.9411 4 15.802 4.727 17.239 6H16C15.447 6 15 6.448 15 7Z" />
</svg>
