<svg viewBox="0 0 24 24" fill="currentColor" stroke="currentColor" xmlns="http://www.w3.org/2000/svg">
<path d="M12.9999 8V11.5859L14.7069 13.293C15.0979 13.684 15.0979 14.316 14.7069 14.707C14.5119 14.902 14.2559 15 13.9999 15C13.7439 15 13.4879 14.902 13.2929 14.707L11.2929 12.707C11.1049 12.519 10.9999 12.265 10.9999 12V8C10.9999 7.448 11.4469 7 11.9999 7C12.5529 7 12.9999 7.448 12.9999 8ZM12.0258 2C9.35577 2 6.84889 3.07793 4.99989 4.92993V3C4.99989 2.448 4.55289 2 3.99989 2C3.44689 2 2.99989 2.448 2.99989 3V7C2.99989 7.552 3.44689 8 3.99989 8H7.99989C8.55289 8 8.99989 7.552 8.99989 7C8.99989 6.448 8.55289 6 7.99989 6H6.76087C8.19887 4.727 10.0598 4 12.0258 4C16.4218 4 19.9999 7.589 19.9999 12C19.9999 16.411 16.4228 20 12.0258 20C8.97077 20 6.23986 18.2991 4.89686 15.5601C4.65486 15.0641 4.05597 14.8581 3.55897 15.1021C3.06297 15.3451 2.85894 15.9439 3.10194 16.4399C4.78294 19.8699 8.20277 22 12.0258 22C17.5248 22 21.9999 17.514 21.9999 12C21.9999 6.486 17.5248 2 12.0258 2Z" />
</svg>
