<svg viewBox="0 0 24 24" fill="currentColor" stroke="currentColor" xmlns="http://www.w3.org/2000/svg">
<path d="M12.499 20.9609C12.515 21.2369 12.304 21.473 12.029 21.489C11.849 21.499 11.68 21.5 11.5 21.5C5.986 21.5 1.5 17.014 1.5 11.5C1.5 5.986 5.986 1.5 11.5 1.5C17.014 1.5 21.5 5.986 21.5 11.5C21.5 11.68 21.5 11.8491 21.489 12.0291C21.473 12.3041 21.234 12.51 20.961 12.499C20.686 12.483 20.475 12.2469 20.491 11.9709C20.5 11.8109 20.5 11.66 20.5 11.5C20.5 6.538 16.462 2.5 11.5 2.5C6.538 2.5 2.5 6.538 2.5 11.5C2.5 16.462 6.538 20.5 11.5 20.5C11.664 20.497 11.811 20.5 11.971 20.491C12.238 20.479 12.483 20.6859 12.499 20.9609ZM16.354 9.34705C16.159 9.15205 15.842 9.15205 15.647 9.34705L13.133 11.861C12.978 12.016 12.723 12.017 12.567 11.861L11.138 10.434C10.592 9.88996 9.704 9.88906 9.159 10.4351L6.64801 12.946C6.45301 13.141 6.45301 13.4581 6.64801 13.6531C6.74601 13.7511 6.87401 13.7991 7.00201 13.7991C7.13001 13.7991 7.25799 13.7501 7.35599 13.6531L9.867 11.142C10.022 10.986 10.276 10.985 10.433 11.142L11.863 12.5691C12.409 13.1131 13.296 13.1121 13.842 12.5681L16.356 10.054C16.549 9.85795 16.549 9.54205 16.354 9.34705ZM22.425 18.4509C21.924 20.9889 18.836 22.3971 18.704 22.4561C18.639 22.4851 18.57 22.499 18.5 22.499C18.43 22.499 18.361 22.4841 18.296 22.4561C18.165 22.3971 15.076 20.9879 14.575 18.4509C14.376 17.4429 14.569 16.489 15.104 15.835C15.548 15.293 16.186 15.003 16.95 15C16.953 15 16.957 15 16.961 15C17.692 15 18.185 15.341 18.5 15.696C18.816 15.339 19.336 15.006 20.049 15C20.814 15.003 21.452 15.292 21.896 15.834C22.431 16.488 22.624 17.4419 22.425 18.4509ZM21.122 16.468C20.87 16.16 20.507 16.002 20.044 16C20.043 16 20.041 16 20.039 16C19.268 16 18.984 16.7729 18.972 16.8069C18.901 17.0059 18.712 17.1411 18.5 17.1411C18.499 17.1411 18.498 17.1411 18.496 17.1411C18.283 17.1401 18.094 17.005 18.026 16.803C18.016 16.774 17.731 16 16.96 16C16.958 16 16.956 16 16.955 16C16.493 16.002 16.131 16.16 15.878 16.468C15.537 16.885 15.417 17.5531 15.556 18.2581C15.89 19.9561 17.855 21.1071 18.499 21.4431C19.144 21.1071 21.107 19.9571 21.442 18.2581C21.583 17.5531 21.462 16.883 21.122 16.468Z" />
</svg>
