<svg viewBox="0 0 24 24" fill="currentColor" stroke="currentColor" xmlns="http://www.w3.org/2000/svg">
<path d="M21.5 10V17.6201C21.5 20.1581 20.158 21.5 17.62 21.5H6.38C3.842 21.5 2.5 20.1581 2.5 17.6201V6.37012C2.5 3.83812 3.842 2.5 6.38 2.5H14C14.276 2.5 14.5 2.724 14.5 3C14.5 3.276 14.276 3.5 14 3.5H6.38C4.388 3.5 3.5 4.38512 3.5 6.37012V17.6201C3.5 19.6121 4.388 20.5 6.38 20.5H17.62C19.612 20.5 20.5 19.6121 20.5 17.6201V10C20.5 9.724 20.724 9.5 21 9.5C21.276 9.5 21.5 9.724 21.5 10ZM13.146 12.4399L11.558 10.855C10.973 10.272 10.022 10.272 9.437 10.856L6.646 13.647C6.451 13.842 6.451 14.159 6.646 14.354C6.744 14.452 6.872 14.5 7 14.5C7.128 14.5 7.256 14.451 7.354 14.354L10.145 11.563C10.34 11.369 10.657 11.368 10.852 11.563L12.441 13.1479C13.025 13.7309 13.976 13.731 14.561 13.147L17.354 10.354C17.549 10.159 17.549 9.84197 17.354 9.64697C17.159 9.45197 16.842 9.45197 16.647 9.64697L13.854 12.4399C13.658 12.6339 13.342 12.6349 13.146 12.4399ZM22.5 4C22.5 5.378 21.378 6.5 20 6.5C18.622 6.5 17.5 5.378 17.5 4C17.5 2.622 18.622 1.5 20 1.5C21.378 1.5 22.5 2.622 22.5 4ZM21.5 4C21.5 3.173 20.827 2.5 20 2.5C19.173 2.5 18.5 3.173 18.5 4C18.5 4.827 19.173 5.5 20 5.5C20.827 5.5 21.5 4.827 21.5 4Z" />
</svg>
