<svg viewBox="0 0 24 24" fill="currentColor" stroke="currentColor" xmlns="http://www.w3.org/2000/svg">
<path d="M12.499 20.9609C12.515 21.2369 12.304 21.473 12.029 21.489C11.849 21.499 11.68 21.5 11.5 21.5C5.986 21.5 1.5 17.014 1.5 11.5C1.5 5.986 5.986 1.5 11.5 1.5C17.014 1.5 21.5 5.986 21.5 11.5C21.5 11.68 21.5 11.8491 21.489 12.0291C21.473 12.3041 21.238 12.51 20.961 12.499C20.686 12.483 20.475 12.2469 20.491 11.9709C20.5 11.8109 20.5 11.66 20.5 11.5C20.5 6.538 16.462 2.5 11.5 2.5C6.538 2.5 2.5 6.538 2.5 11.5C2.5 16.462 6.538 20.5 11.5 20.5C11.661 20.497 11.812 20.5 11.971 20.491C12.243 20.479 12.483 20.6859 12.499 20.9609ZM16.354 9.34705C16.159 9.15205 15.842 9.15205 15.647 9.34705L13.133 11.861C12.977 12.016 12.723 12.017 12.567 11.861L11.138 10.434C10.592 9.88996 9.704 9.88906 9.159 10.4351L6.64799 12.946C6.45299 13.141 6.45299 13.4581 6.64799 13.6531C6.746 13.7511 6.874 13.7991 7.002 13.7991C7.13 13.7991 7.258 13.7501 7.356 13.6531L9.867 11.142C10.022 10.986 10.276 10.985 10.433 11.142L11.863 12.5691C12.409 13.1131 13.296 13.1121 13.842 12.5681L16.356 10.054C16.549 9.85795 16.549 9.54205 16.354 9.34705ZM22.227 18.696L21.013 19.854L21.29 21.4351C21.35 21.7751 21.213 22.115 20.933 22.321C20.771 22.44 20.58 22.501 20.388 22.501C20.243 22.501 20.098 22.467 19.964 22.397L18.453 21.6201L17.037 22.397C16.722 22.558 16.351 22.5291 16.067 22.3201C15.787 22.1141 15.65 21.7751 15.71 21.4341L15.987 19.854L14.773 18.696C14.527 18.461 14.439 18.115 14.543 17.793C14.647 17.468 14.924 17.236 15.264 17.188L16.951 16.948L17.68 15.5039C17.992 14.8839 19.008 14.8829 19.321 15.5039L20.05 16.948L21.737 17.188C22.077 17.236 22.354 17.468 22.458 17.793C22.561 18.115 22.473 18.461 22.227 18.696ZM21.357 18.144L19.852 17.9299C19.562 17.8879 19.312 17.7089 19.182 17.4509L18.476 16.051L17.816 17.4519C17.687 17.7099 17.436 17.8899 17.147 17.9309L15.642 18.145L16.724 19.176C16.937 19.38 17.034 19.6739 16.984 19.9619L16.726 21.4331L18.09 20.731C18.348 20.599 18.655 20.599 18.911 20.731L20.274 21.4319L20.016 19.9629C19.966 19.6729 20.063 19.38 20.275 19.176L21.357 18.144Z" />
</svg>
