<svg viewBox="0 0 24 24" fill="currentColor" stroke="currentColor" xmlns="http://www.w3.org/2000/svg">
<path d="M12.5 21C12.5 21.276 12.276 21.5 12 21.5H5.38C2.842 21.5 1.5 20.1581 1.5 17.6201V6.37012C1.5 3.83812 2.842 2.5 5.38 2.5H16.62C19.158 2.5 20.5 3.83812 20.5 6.37012V12C20.5 12.276 20.276 12.5 20 12.5C19.724 12.5 19.5 12.276 19.5 12V6.37012C19.5 4.38512 18.612 3.5 16.62 3.5H5.38C3.388 3.5 2.5 4.38512 2.5 6.37012V17.6201C2.5 19.6121 3.388 20.5 5.38 20.5H12C12.276 20.5 12.5 20.724 12.5 21ZM16.354 9.646C16.159 9.451 15.842 9.451 15.647 9.646L12.854 12.439C12.659 12.633 12.342 12.634 12.147 12.439L10.559 10.854C9.97399 10.271 9.02299 10.271 8.43799 10.855L5.647 13.646C5.452 13.841 5.452 14.158 5.647 14.353C5.745 14.451 5.87301 14.499 6.00101 14.499C6.12901 14.499 6.25701 14.45 6.35501 14.353L9.146 11.562C9.341 11.368 9.658 11.367 9.853 11.562L11.442 13.147C12.026 13.73 12.978 13.73 13.562 13.146L16.355 10.353C16.549 10.158 16.549 9.842 16.354 9.646ZM22.425 18.4509C21.924 20.9889 18.836 22.3971 18.704 22.4561C18.639 22.4851 18.57 22.499 18.5 22.499C18.43 22.499 18.361 22.4841 18.296 22.4561C18.165 22.3971 15.076 20.9879 14.575 18.4509C14.376 17.4429 14.569 16.489 15.104 15.835C15.548 15.293 16.186 15.003 16.95 15C16.953 15 16.957 15 16.961 15C17.692 15 18.185 15.341 18.5 15.696C18.816 15.339 19.336 15.04 20.049 15C20.814 15.003 21.452 15.292 21.896 15.834C22.431 16.488 22.624 17.4419 22.425 18.4509ZM21.122 16.468C20.87 16.16 20.507 16.002 20.044 16C20.043 16 20.041 16 20.039 16C19.268 16 18.984 16.7729 18.972 16.8069C18.901 17.0059 18.712 17.1411 18.5 17.1411C18.499 17.1411 18.498 17.1411 18.496 17.1411C18.283 17.1401 18.094 17.005 18.026 16.803C18.016 16.774 17.731 16 16.96 16C16.958 16 16.956 16 16.955 16C16.493 16.002 16.131 16.16 15.878 16.468C15.537 16.885 15.417 17.5531 15.556 18.2581C15.89 19.9561 17.855 21.1071 18.499 21.4431C19.144 21.1071 21.107 19.9571 21.442 18.2581C21.583 17.5531 21.462 16.883 21.122 16.468Z" />
</svg>
