<svg viewBox="0 0 24 24" fill="currentColor" stroke="currentColor" xmlns="http://www.w3.org/2000/svg">
<path d="M22.29 9.90002C22.43 10.585 22.5 11.291 22.5 12C22.5 17.79 17.79 22.5 12 22.5C6.21 22.5 1.5 17.79 1.5 12C1.5 6.21 6.21 1.5 12 1.5C12.708 1.5 13.415 1.57096 14.1 1.70996C14.371 1.76496 14.545 2.02895 14.49 2.29895C14.435 2.56995 14.172 2.74396 13.901 2.68896C13.281 2.56296 12.642 2.49902 12.001 2.49902C6.76301 2.49902 2.50101 6.76102 2.50101 11.999C2.50101 17.237 6.76301 21.499 12.001 21.499C17.239 21.499 21.501 17.237 21.501 11.999C21.501 11.357 21.437 10.718 21.311 10.099C21.256 9.828 21.43 9.56401 21.701 9.51001C21.971 9.45601 22.235 9.62902 22.29 9.90002ZM13.146 12.4399L11.558 10.855C10.973 10.272 10.022 10.272 9.437 10.856L6.646 13.647C6.451 13.842 6.451 14.159 6.646 14.354C6.744 14.452 6.872 14.5 7 14.5C7.128 14.5 7.256 14.451 7.354 14.354L10.145 11.563C10.34 11.369 10.657 11.368 10.852 11.563L12.441 13.1479C13.025 13.7309 13.976 13.731 14.561 13.147L17.354 10.354C17.549 10.159 17.549 9.84197 17.354 9.64697C17.159 9.45197 16.842 9.45197 16.647 9.64697L13.854 12.4399C13.658 12.6339 13.342 12.6349 13.146 12.4399ZM17.5 4C17.5 2.622 18.622 1.5 20 1.5C21.378 1.5 22.5 2.622 22.5 4C22.5 5.378 21.378 6.5 20 6.5C18.622 6.5 17.5 5.378 17.5 4ZM18.5 4C18.5 4.827 19.173 5.5 20 5.5C20.827 5.5 21.5 4.827 21.5 4C21.5 3.173 20.827 2.5 20 2.5C19.173 2.5 18.5 3.173 18.5 4Z" />
</svg>
