<svg viewBox="0 0 24 24" fill="currentColor" stroke="currentColor" xmlns="http://www.w3.org/2000/svg">
<path d="M17.625 2.5H6.375C3.84 2.5 2.5 3.84 2.5 6.375V17.625C2.5 20.16 3.84 21.5 6.375 21.5H17.625C20.16 21.5 21.5 20.16 21.5 17.625V6.375C21.5 3.84 20.16 2.5 17.625 2.5ZM20.5 17.625C20.5 19.586 19.586 20.5 17.625 20.5H6.375C4.414 20.5 3.5 19.586 3.5 17.625V6.375C3.5 4.414 4.414 3.5 6.375 3.5H17.625C19.586 3.5 20.5 4.414 20.5 6.375V17.625ZM17.354 9.646C17.549 9.841 17.549 10.158 17.354 10.353L14.561 13.146C13.977 13.73 13.025 13.731 12.441 13.147L10.852 11.562C10.657 11.367 10.34 11.368 10.145 11.562L7.354 14.353C7.256 14.451 7.128 14.499 7 14.499C6.872 14.499 6.744 14.45 6.646 14.353C6.451 14.158 6.451 13.841 6.646 13.646L9.437 10.855C10.021 10.271 10.972 10.271 11.558 10.854L13.146 12.439C13.342 12.634 13.658 12.633 13.853 12.439L16.646 9.646C16.842 9.451 17.158 9.451 17.354 9.646Z" />
</svg>
