<svg viewBox="0 0 24 24" fill="currentColor" stroke="currentColor" xmlns="http://www.w3.org/2000/svg">
<path d="M12.5 21C12.5 21.276 12.276 21.5 12 21.5H5.38C2.842 21.5 1.5 20.1581 1.5 17.6201V6.37012C1.5 3.83812 2.842 2.5 5.38 2.5H16.62C19.158 2.5 20.5 3.83812 20.5 6.37012V12C20.5 12.276 20.276 12.5 20 12.5C19.724 12.5 19.5 12.276 19.5 12V6.37012C19.5 4.38512 18.612 3.5 16.62 3.5H5.38C3.388 3.5 2.5 4.38512 2.5 6.37012V17.6201C2.5 19.6121 3.388 20.5 5.38 20.5H12C12.276 20.5 12.5 20.724 12.5 21ZM22.227 18.696L21.013 19.854L21.29 21.4351C21.35 21.7751 21.213 22.115 20.933 22.321C20.771 22.44 20.58 22.501 20.388 22.501C20.243 22.501 20.098 22.467 19.964 22.397L18.453 21.6201L17.037 22.397C16.722 22.558 16.351 22.5291 16.067 22.3201C15.787 22.1141 15.65 21.7751 15.71 21.4341L15.987 19.854L14.773 18.696C14.527 18.461 14.439 18.115 14.543 17.793C14.647 17.468 14.924 17.236 15.264 17.188L16.951 16.948L17.68 15.5039C17.992 14.8839 19.008 14.8829 19.321 15.5039L20.05 16.948L21.737 17.188C22.077 17.236 22.354 17.468 22.458 17.793C22.561 18.115 22.473 18.461 22.227 18.696ZM21.357 18.144L19.852 17.9299C19.562 17.8879 19.312 17.7089 19.182 17.4509L18.476 16.051L17.816 17.4519C17.687 17.7099 17.436 17.8899 17.147 17.9309L15.642 18.145L16.724 19.176C16.937 19.38 17.034 19.6739 16.984 19.9619L16.726 21.4331L18.09 20.731C18.348 20.599 18.655 20.6 18.911 20.731L20.274 21.4319L20.016 19.9629C19.966 19.6729 20.063 19.38 20.275 19.176L21.357 18.144ZM16.354 9.646C16.159 9.451 15.842 9.451 15.647 9.646L12.854 12.439C12.659 12.633 12.343 12.634 12.147 12.439L10.559 10.854C9.97401 10.271 9.023 10.271 8.438 10.855L5.647 13.646C5.452 13.841 5.452 14.158 5.647 14.353C5.745 14.451 5.87301 14.499 6.00101 14.499C6.12901 14.499 6.257 14.45 6.355 14.353L9.146 11.562C9.341 11.368 9.658 11.367 9.853 11.562L11.442 13.147C12.026 13.73 12.978 13.73 13.562 13.146L16.355 10.353C16.549 10.158 16.549 9.842 16.354 9.646Z" />
</svg>
