<svg viewBox="0 0 24 24" fill="currentColor" stroke="currentColor" xmlns="http://www.w3.org/2000/svg">
<path d="M12.5 2.5H11.5C10.229 2.5 9.5 3.229 9.5 4.5V19.5C9.5 20.771 10.229 21.5 11.5 21.5H12.5C13.771 21.5 14.5 20.771 14.5 19.5V4.5C14.5 3.229 13.771 2.5 12.5 2.5ZM13.5 19.5C13.5 20.22 13.22 20.5 12.5 20.5H11.5C10.78 20.5 10.5 20.22 10.5 19.5V4.5C10.5 3.78 10.78 3.5 11.5 3.5H12.5C13.22 3.5 13.5 3.78 13.5 4.5V19.5ZM19.5 7.5H18.5C17.229 7.5 16.5 8.229 16.5 9.5V19.5C16.5 20.771 17.229 21.5 18.5 21.5H19.5C20.771 21.5 21.5 20.771 21.5 19.5V9.5C21.5 8.229 20.771 7.5 19.5 7.5ZM20.5 19.5C20.5 20.22 20.22 20.5 19.5 20.5H18.5C17.78 20.5 17.5 20.22 17.5 19.5V9.5C17.5 8.78 17.78 8.5 18.5 8.5H19.5C20.22 8.5 20.5 8.78 20.5 9.5V19.5ZM5.5 11.5H4.5C3.229 11.5 2.5 12.229 2.5 13.5V19.5C2.5 20.771 3.229 21.5 4.5 21.5H5.5C6.771 21.5 7.5 20.771 7.5 19.5V13.5C7.5 12.229 6.771 11.5 5.5 11.5ZM6.5 19.5C6.5 20.22 6.22 20.5 5.5 20.5H4.5C3.78 20.5 3.5 20.22 3.5 19.5V13.5C3.5 12.78 3.78 12.5 4.5 12.5H5.5C6.22 12.5 6.5 12.78 6.5 13.5V19.5Z" />
</svg>
