<svg viewBox="0 0 24 24" fill="currentColor" stroke="currentColor" xmlns="http://www.w3.org/2000/svg">
<path d="M21.5 20C21.5 20.276 21.276 20.5 21 20.5H4.5C3.229 20.5 2.5 19.771 2.5 18.5V4C2.5 3.724 2.724 3.5 3 3.5C3.276 3.5 3.5 3.724 3.5 4V18.5C3.5 19.22 3.78 19.5 4.5 19.5H21C21.276 19.5 21.5 19.724 21.5 20ZM7 16.5C7.276 16.5 7.5 16.276 7.5 16V13C7.5 12.724 7.276 12.5 7 12.5C6.724 12.5 6.5 12.724 6.5 13V16C6.5 16.276 6.724 16.5 7 16.5ZM11 16.5C11.276 16.5 11.5 16.276 11.5 16V9C11.5 8.724 11.276 8.5 11 8.5C10.724 8.5 10.5 8.724 10.5 9V16C10.5 16.276 10.724 16.5 11 16.5ZM15 16.5C15.276 16.5 15.5 16.276 15.5 16V11C15.5 10.724 15.276 10.5 15 10.5C14.724 10.5 14.5 10.724 14.5 11V16C14.5 16.276 14.724 16.5 15 16.5ZM19 16.5C19.276 16.5 19.5 16.276 19.5 16V5C19.5 4.724 19.276 4.5 19 4.5C18.724 4.5 18.5 4.724 18.5 5V16C18.5 16.276 18.724 16.5 19 16.5Z" />
</svg>
