<svg viewBox="0 0 24 24" fill="currentColor" stroke="currentColor" xmlns="http://www.w3.org/2000/svg">
<path d="M21.5 20C21.5 20.276 21.276 20.5 21 20.5H4.5C3.229 20.5 2.5 19.771 2.5 18.5V4C2.5 3.724 2.724 3.5 3 3.5C3.276 3.5 3.5 3.724 3.5 4V18.5C3.5 19.22 3.78 19.5 4.5 19.5H21C21.276 19.5 21.5 19.724 21.5 20ZM9.32098 6.02795C10.006 6.71295 11.119 6.71295 11.803 6.02795L12.953 4.87805C13.248 4.58405 13.726 4.58505 14.021 4.87805L16.792 7.64905H15C14.724 7.64905 14.5 7.87305 14.5 8.14905C14.5 8.42505 14.724 8.64905 15 8.64905H18C18.065 8.64905 18.13 8.63599 18.191 8.60999C18.313 8.55899 18.411 8.46199 18.462 8.33899C18.487 8.27799 18.5 8.21295 18.5 8.14795V5C18.5 4.724 18.276 4.5 18 4.5C17.724 4.5 17.5 4.724 17.5 5V6.94299L14.729 4.172C14.045 3.488 12.933 3.487 12.247 4.172L11.097 5.32202C10.814 5.60502 10.312 5.60502 10.029 5.32202L8.354 3.64697C8.159 3.45197 7.84197 3.45197 7.64697 3.64697C7.45197 3.84197 7.45197 4.159 7.64697 4.354L9.32098 6.02795ZM13 11.5C12.724 11.5 12.5 11.724 12.5 12V16C12.5 16.276 12.724 16.5 13 16.5C13.276 16.5 13.5 16.276 13.5 16V12C13.5 11.724 13.276 11.5 13 11.5ZM8 16.5C8.276 16.5 8.5 16.276 8.5 16V10C8.5 9.724 8.276 9.5 8 9.5C7.724 9.5 7.5 9.724 7.5 10V16C7.5 16.276 7.724 16.5 8 16.5ZM18 13.5C17.724 13.5 17.5 13.724 17.5 14V16C17.5 16.276 17.724 16.5 18 16.5C18.276 16.5 18.5 16.276 18.5 16V14C18.5 13.724 18.276 13.5 18 13.5Z" />
</svg>
