<svg viewBox="0 0 24 24" fill="currentColor" stroke="currentColor" xmlns="http://www.w3.org/2000/svg">
<path d="M21.5 20C21.5 20.276 21.276 20.5 21 20.5H4.5C3.229 20.5 2.5 19.771 2.5 18.5V4C2.5 3.724 2.724 3.5 3 3.5C3.276 3.5 3.5 3.724 3.5 4V18.5C3.5 19.22 3.78 19.5 4.5 19.5H21C21.276 19.5 21.5 19.724 21.5 20ZM9.942 10.649C10.525 11.232 11.474 11.233 12.06 10.653L13.665 9.05798C13.862 8.86398 14.178 8.86506 14.372 9.06006L18.796 13.5H17C16.724 13.5 16.5 13.724 16.5 14C16.5 14.276 16.724 14.5 17 14.5H20C20.065 14.5 20.129 14.487 20.19 14.462C20.313 14.411 20.41 14.314 20.461 14.192C20.486 14.131 20.499 14.066 20.5 14.001V11.001C20.5 10.725 20.276 10.501 20 10.501C19.724 10.501 19.5 10.725 19.5 11.001V12.791L15.08 8.35498C14.498 7.76998 13.546 7.768 12.96 8.349L11.354 9.94397C11.159 10.136 10.843 10.137 10.648 9.94299L7.353 6.64795C7.158 6.45295 6.841 6.45295 6.646 6.64795C6.451 6.84295 6.451 7.15998 6.646 7.35498L9.942 10.649Z" />
</svg>
