<svg viewBox="0 0 24 24" fill="currentColor" stroke="currentColor" xmlns="http://www.w3.org/2000/svg">
<path d="M21.5 20C21.5 20.276 21.276 20.5 21 20.5H4.5C3.229 20.5 2.5 19.771 2.5 18.5V4C2.5 3.724 2.724 3.5 3 3.5C3.276 3.5 3.5 3.724 3.5 4V18.5C3.5 19.22 3.78 19.5 4.5 19.5H21C21.276 19.5 21.5 19.724 21.5 20ZM8.00601 14.25C8.69201 14.25 9.25 13.691 9.25 13C9.25 12.84 9.214 12.689 9.159 12.548L11.549 10.158C11.692 10.214 11.844 10.25 12.006 10.25C12.164 10.25 12.313 10.2141 12.452 10.1591L14.839 12.546C14.785 12.687 14.75 12.838 14.75 13C14.75 13.691 15.319 14.25 16.006 14.25C16.692 14.25 17.25 13.691 17.25 13C17.25 12.84 17.214 12.689 17.159 12.548L19.549 10.158C19.692 10.214 19.844 10.25 20.006 10.25C20.692 10.25 21.25 9.691 21.25 9C21.25 8.309 20.692 7.75 20.006 7.75H19.98C19.294 7.75 18.749 8.309 18.749 9C18.749 9.16 18.786 9.31005 18.841 9.45105L16.451 11.8409C16.312 11.7869 16.163 11.75 16.005 11.75H15.979C15.824 11.75 15.68 11.787 15.544 11.839L13.158 9.453C13.213 9.312 13.249 9.16098 13.249 9.00098C13.249 8.30998 12.691 7.75098 12.005 7.75098H11.979C11.293 7.75098 10.748 8.30998 10.748 9.00098C10.748 9.16098 10.785 9.31103 10.84 9.45203L8.45001 11.842C8.31101 11.788 8.162 11.751 8.004 11.751H7.978C7.292 11.751 6.74701 12.31 6.74701 13.001C6.74701 13.692 7.31901 14.25 8.00601 14.25Z" />
</svg>
