<svg viewBox="0 0 24 24" fill="currentColor" stroke="currentColor" xmlns="http://www.w3.org/2000/svg">
<path d="M21.5 21C21.5 21.276 21.276 21.5 21 21.5H3C2.724 21.5 2.5 21.276 2.5 21C2.5 20.724 2.724 20.5 3 20.5H21C21.276 20.5 21.5 20.724 21.5 21ZM9.5 16.5V4.5C9.5 3.229 10.229 2.5 11.5 2.5H12.5C13.771 2.5 14.5 3.229 14.5 4.5V16.5C14.5 17.771 13.771 18.5 12.5 18.5H11.5C10.229 18.5 9.5 17.771 9.5 16.5ZM10.5 16.5C10.5 17.22 10.78 17.5 11.5 17.5H12.5C13.22 17.5 13.5 17.22 13.5 16.5V4.5C13.5 3.78 13.22 3.5 12.5 3.5H11.5C10.78 3.5 10.5 3.78 10.5 4.5V16.5ZM21.5 8.5V16.5C21.5 17.771 20.771 18.5 19.5 18.5H18.5C17.229 18.5 16.5 17.771 16.5 16.5V8.5C16.5 7.229 17.229 6.5 18.5 6.5H19.5C20.771 6.5 21.5 7.229 21.5 8.5ZM20.5 8.5C20.5 7.78 20.22 7.5 19.5 7.5H18.5C17.78 7.5 17.5 7.78 17.5 8.5V16.5C17.5 17.22 17.78 17.5 18.5 17.5H19.5C20.22 17.5 20.5 17.22 20.5 16.5V8.5ZM2.5 16.5V11.5C2.5 10.229 3.229 9.5 4.5 9.5H5.5C6.771 9.5 7.5 10.229 7.5 11.5V16.5C7.5 17.771 6.771 18.5 5.5 18.5H4.5C3.229 18.5 2.5 17.771 2.5 16.5ZM3.5 16.5C3.5 17.22 3.78 17.5 4.5 17.5H5.5C6.22 17.5 6.5 17.22 6.5 16.5V11.5C6.5 10.78 6.22 10.5 5.5 10.5H4.5C3.78 10.5 3.5 10.78 3.5 11.5V16.5Z" />
</svg>
