<svg viewBox="0 0 24 24" fill="currentColor" stroke="currentColor" xmlns="http://www.w3.org/2000/svg">
<path d="M17.625 2.5H6.375C3.84 2.5 2.5 3.84 2.5 6.375V17.625C2.5 20.16 3.84 21.5 6.375 21.5H17.625C20.16 21.5 21.5 20.16 21.5 17.625V6.375C21.5 3.84 20.16 2.5 17.625 2.5ZM20.5 17.625C20.5 19.586 19.587 20.5 17.625 20.5H6.375C4.413 20.5 3.5 19.586 3.5 17.625V6.375C3.5 4.414 4.413 3.5 6.375 3.5H17.625C19.587 3.5 20.5 4.414 20.5 6.375V17.625ZM15 6.5C13.729 6.5 13 7.229 13 8.5V15.5C13 16.771 13.729 17.5 15 17.5C16.271 17.5 17 16.771 17 15.5V8.5C17 7.229 16.271 6.5 15 6.5ZM16 15.5C16 16.22 15.72 16.5 15 16.5C14.28 16.5 14 16.22 14 15.5V8.5C14 7.78 14.28 7.5 15 7.5C15.72 7.5 16 7.78 16 8.5V15.5ZM9 10.5C7.729 10.5 7 11.229 7 12.5V15.5C7 16.771 7.729 17.5 9 17.5C10.271 17.5 11 16.771 11 15.5V12.5C11 11.229 10.271 10.5 9 10.5ZM10 15.5C10 16.22 9.72 16.5 9 16.5C8.28 16.5 8 16.22 8 15.5V12.5C8 11.78 8.28 11.5 9 11.5C9.72 11.5 10 11.78 10 12.5V15.5Z" />
</svg>
