<svg viewBox="0 0 24 24" fill="currentColor" stroke="currentColor" xmlns="http://www.w3.org/2000/svg">
<path d="M21.485 9.80294C20.959 6.03794 17.962 3.04 14.197 2.514C13.769 2.454 13.343 2.58393 13.017 2.86593C12.688 3.15193 12.499 3.56499 12.499 3.99899V10.0069C12.499 10.8299 13.168 11.499 13.991 11.499H20C20.434 11.499 20.847 11.311 21.133 10.982C21.416 10.657 21.545 10.2279 21.485 9.80294ZM20.379 10.326C20.282 10.436 20.145 10.5 20 10.5H13.992C13.721 10.5 13.5 10.279 13.5 10.008V3.99996C13.5 3.85496 13.563 3.71694 13.674 3.62094C13.729 3.57294 13.838 3.49996 13.99 3.49996C14.011 3.49996 14.035 3.50097 14.058 3.50497C17.382 3.96997 20.03 6.61598 20.495 9.94198C20.521 10.129 20.434 10.263 20.379 10.326ZM18.044 12.9069H12.093C11.541 12.9069 11.093 12.4579 11.093 11.9069V5.95602C11.093 5.51702 10.898 5.10392 10.556 4.82492C10.223 4.55292 9.79499 4.44492 9.37599 4.52792C7.15899 4.97392 5.16802 6.31898 3.91402 8.21798C2.64502 10.139 2.212 12.4639 2.691 14.7629C3.366 18.0019 5.99704 20.6319 9.23604 21.3079C9.84704 21.4349 10.46 21.498 11.066 21.498C12.742 21.498 14.37 21.0169 15.781 20.0849C17.681 18.8309 19.026 16.84 19.471 14.623C19.555 14.206 19.448 13.776 19.174 13.443C18.896 13.103 18.483 12.9069 18.044 12.9069ZM15.23 19.2519C13.534 20.3709 11.474 20.7539 9.441 20.3299C6.585 19.7339 4.265 17.4149 3.67 14.5589C3.245 12.5219 3.62804 10.4659 4.74904 8.76791C5.85604 7.08891 7.61502 5.90092 9.57302 5.50692C9.60102 5.50092 9.63005 5.49899 9.65505 5.49899C9.78105 5.49899 9.87399 5.55799 9.92299 5.59799C10.03 5.68599 10.093 5.81692 10.093 5.95492V11.906C10.093 13.009 10.99 13.906 12.093 13.906H18.044C18.183 13.906 18.313 13.968 18.401 14.076C18.449 14.135 18.525 14.259 18.491 14.426C18.098 16.385 16.909 18.1439 15.23 19.2519Z" />
</svg>
