<svg viewBox="0 0 24 24" fill="currentColor" stroke="currentColor" xmlns="http://www.w3.org/2000/svg">
<path d="M21.5 20C21.5 20.276 21.276 20.5 21 20.5H4.5C3.229 20.5 2.5 19.771 2.5 18.5V4C2.5 3.724 2.724 3.5 3 3.5C3.276 3.5 3.5 3.724 3.5 4V18.5C3.5 19.22 3.78 19.5 4.5 19.5H21C21.276 19.5 21.5 19.724 21.5 20ZM7 14.5C7.128 14.5 7.256 14.451 7.354 14.354L10.649 11.059C10.845 10.866 11.161 10.865 11.355 11.058L12.961 12.653C13.547 13.235 14.499 13.232 15.08 12.647L19.5 8.21106V10.001C19.5 10.277 19.724 10.501 20 10.501C20.276 10.501 20.5 10.277 20.5 10.001V7.00098C20.5 6.93598 20.487 6.87106 20.461 6.81006C20.41 6.68806 20.313 6.59004 20.19 6.54004C20.135 6.51704 20.076 6.507 20.018 6.505C20.012 6.505 20.006 6.50098 20 6.50098H17C16.724 6.50098 16.5 6.72498 16.5 7.00098C16.5 7.27698 16.724 7.50098 17 7.50098H18.796L14.372 11.941C14.177 12.136 13.86 12.137 13.665 11.943L12.059 10.349C11.474 9.768 10.524 9.76905 9.94099 10.3521L6.646 13.647C6.451 13.842 6.451 14.159 6.646 14.354C6.744 14.451 6.872 14.5 7 14.5Z" />
</svg>
