<svg viewBox="0 0 24 24" fill="currentColor" stroke="currentColor" xmlns="http://www.w3.org/2000/svg">
<path d="M21.5 20C21.5 20.276 21.276 20.5 21 20.5H4.5C3.229 20.5 2.5 19.771 2.5 18.5V4C2.5 3.724 2.724 3.5 3 3.5C3.276 3.5 3.5 3.724 3.5 4V18.5C3.5 19.22 3.78 19.5 4.5 19.5H21C21.276 19.5 21.5 19.724 21.5 20ZM7 7.5H14C14.276 7.5 14.5 7.276 14.5 7C14.5 6.724 14.276 6.5 14 6.5H7C6.724 6.5 6.5 6.724 6.5 7C6.5 7.276 6.724 7.5 7 7.5ZM7 11.5H12C12.276 11.5 12.5 11.276 12.5 11C12.5 10.724 12.276 10.5 12 10.5H7C6.724 10.5 6.5 10.724 6.5 11C6.5 11.276 6.724 11.5 7 11.5ZM7 15.5H17C17.276 15.5 17.5 15.276 17.5 15C17.5 14.724 17.276 14.5 17 14.5H7C6.724 14.5 6.5 14.724 6.5 15C6.5 15.276 6.724 15.5 7 15.5Z" />
</svg>
