<svg viewBox="0 0 24 24" fill="currentColor" stroke="currentColor" xmlns="http://www.w3.org/2000/svg">
<path d="M21.5 20C21.5 20.276 21.276 20.5 21 20.5H4.5C3.229 20.5 2.5 19.771 2.5 18.5V4C2.5 3.724 2.724 3.5 3 3.5C3.276 3.5 3.5 3.724 3.5 4V18.5C3.5 19.22 3.78 19.5 4.5 19.5H21C21.276 19.5 21.5 19.724 21.5 20ZM7 14.5C7.128 14.5 7.256 14.451 7.354 14.354L10.649 11.059C10.843 10.866 11.16 10.865 11.355 11.058L12.961 12.652C13.548 13.234 14.499 13.231 15.081 12.646L19.355 8.354C19.55 8.158 19.549 7.841 19.354 7.646C19.158 7.451 18.841 7.45297 18.646 7.64697L14.373 11.939C14.178 12.134 13.862 12.135 13.666 11.941L12.061 10.347C11.476 9.76605 10.526 9.76698 9.94299 10.35L6.648 13.645C6.453 13.84 6.453 14.1571 6.648 14.3521C6.744 14.4511 6.872 14.5 7 14.5Z" />
</svg>
