<svg viewBox="0 0 24 24" fill="currentColor" stroke="currentColor" xmlns="http://www.w3.org/2000/svg">
<path d="M21.26 17.679L14.081 4.72595C13.656 3.95795 12.878 3.5 12 3.5C11.122 3.5 10.345 3.95795 9.91902 4.72595L2.74 17.678C2.41 18.273 2.41899 18.978 2.76399 19.564C3.10899 20.15 3.72104 20.5 4.40004 20.5H19.598C20.278 20.5 20.89 20.15 21.235 19.564C21.58 18.978 21.59 18.273 21.26 17.679ZM7.58601 11H16.415L18.632 15H5.36903L7.58601 11ZM10.794 5.20996C11.041 4.76496 11.491 4.5 12 4.5C12.509 4.5 12.959 4.76596 13.206 5.20996L15.861 10H8.141L10.794 5.20996ZM20.373 19.057C20.21 19.335 19.921 19.5 19.599 19.5H4.40101C4.08001 19.5 3.79002 19.334 3.62702 19.057C3.46302 18.779 3.45904 18.445 3.61604 18.163L4.81501 16H19.186L20.385 18.1639C20.541 18.4449 20.537 18.779 20.373 19.057Z" />
</svg>
