<svg viewBox="0 0 24 24" fill="currentColor" stroke="currentColor" xmlns="http://www.w3.org/2000/svg">
<path d="M21.5 20C21.5 20.276 21.276 20.5 21 20.5H4.5C3.229 20.5 2.5 19.771 2.5 18.5V4C2.5 3.724 2.724 3.5 3 3.5C3.276 3.5 3.5 3.724 3.5 4V18.5C3.5 19.22 3.78 19.5 4.5 19.5H21C21.276 19.5 21.5 19.724 21.5 20ZM13 11.5C12.724 11.5 12.5 11.724 12.5 12V16C12.5 16.276 12.724 16.5 13 16.5C13.276 16.5 13.5 16.276 13.5 16V12C13.5 11.724 13.276 11.5 13 11.5ZM18 9.5C17.724 9.5 17.5 9.724 17.5 10V16C17.5 16.276 17.724 16.5 18 16.5C18.276 16.5 18.5 16.276 18.5 16V10C18.5 9.724 18.276 9.5 18 9.5ZM8 16.5C8.276 16.5 8.5 16.276 8.5 16V14C8.5 13.724 8.276 13.5 8 13.5C7.724 13.5 7.5 13.724 7.5 14V16C7.5 16.276 7.724 16.5 8 16.5ZM8 8.65002C8.128 8.65002 8.256 8.60103 8.354 8.50403L10.029 6.82898C10.312 6.54598 10.814 6.54598 11.097 6.82898L12.247 7.979C12.932 8.664 14.044 8.663 14.729 7.979L17.5 5.20801V7C17.5 7.276 17.724 7.5 18 7.5C18.276 7.5 18.5 7.276 18.5 7V4C18.5 3.935 18.487 3.86996 18.462 3.80896C18.411 3.68596 18.314 3.58896 18.191 3.53796C18.13 3.51296 18.065 3.49902 18 3.49902H15C14.724 3.49902 14.5 3.72302 14.5 3.99902C14.5 4.27502 14.724 4.49902 15 4.49902H16.793L14.022 7.27002C13.727 7.56302 13.249 7.56402 12.954 7.27002L11.804 6.12C11.119 5.435 10.006 5.435 9.32199 6.12L7.647 7.79504C7.452 7.99004 7.452 8.30695 7.647 8.50195C7.744 8.60095 7.872 8.65002 8 8.65002Z" />
</svg>
