<svg viewBox="0 0 24 24" fill="currentColor" stroke="currentColor" xmlns="http://www.w3.org/2000/svg">
<path d="M17.5 11.424V14.304C17.5 14.369 17.487 14.4341 17.462 14.4951C17.411 14.6181 17.314 14.7151 17.191 14.7661C17.13 14.7911 17.065 14.8049 17 14.8049H14.12C13.844 14.8049 13.62 14.5809 13.62 14.3049C13.62 14.0289 13.844 13.8049 14.12 13.8049H15.793L13.099 11.111C12.962 10.974 12.722 10.973 12.584 11.111L11.11 12.585C10.577 13.118 9.713 13.117 9.181 12.585L6.647 10.051C6.452 9.85603 6.452 9.53899 6.647 9.34399C6.842 9.14899 7.159 9.14899 7.354 9.34399L9.888 11.8781C10.03 12.0201 10.262 12.0201 10.403 11.8781L11.877 10.4041C12.409 9.87205 13.273 9.87105 13.806 10.4041L16.5 13.0979V11.425C16.5 11.149 16.724 10.925 17 10.925C17.276 10.925 17.5 11.1469 17.5 11.424ZM22.5 12C22.5 17.79 17.79 22.5 12 22.5C6.21 22.5 1.5 17.79 1.5 12C1.5 6.21 6.21 1.5 12 1.5C17.79 1.5 22.5 6.21 22.5 12ZM21.5 12C21.5 6.762 17.238 2.5 12 2.5C6.762 2.5 2.5 6.762 2.5 12C2.5 17.238 6.762 21.5 12 21.5C17.238 21.5 21.5 17.238 21.5 12Z" />
</svg>
