<svg viewBox="0 0 24 24" fill="currentColor" stroke="currentColor" xmlns="http://www.w3.org/2000/svg">
<path d="M17.625 2.5H6.375C3.84 2.5 2.5 3.84 2.5 6.375V17.625C2.5 20.16 3.84 21.5 6.375 21.5H17.625C20.16 21.5 21.5 20.16 21.5 17.625V6.375C21.5 3.84 20.16 2.5 17.625 2.5ZM20.5 17.625C20.5 19.586 19.586 20.5 17.625 20.5H6.375C4.414 20.5 3.5 19.586 3.5 17.625V6.375C3.5 4.414 4.414 3.5 6.375 3.5H17.625C19.586 3.5 20.5 4.414 20.5 6.375V17.625ZM17.462 9.50488C17.487 9.56588 17.5 9.63104 17.5 9.69604V12.5759C17.5 12.8519 17.276 13.0759 17 13.0759C16.724 13.0759 16.5 12.8519 16.5 12.5759V10.9031L13.806 13.5969C13.273 14.1289 12.409 14.1289 11.877 13.5969L10.403 12.123C10.261 11.981 10.029 11.982 9.888 12.123L7.354 14.657C7.256 14.755 7.128 14.803 7 14.803C6.872 14.803 6.744 14.754 6.646 14.657C6.451 14.462 6.451 14.145 6.646 13.95L9.17999 11.416C9.71199 10.884 10.576 10.884 11.109 11.416L12.583 12.8899C12.721 13.0279 12.96 13.0279 13.098 12.8899L15.792 10.196H14.119C13.843 10.196 13.619 9.97204 13.619 9.69604C13.619 9.42004 13.843 9.19604 14.119 9.19604H17C17.065 9.19604 17.13 9.20911 17.191 9.23511C17.313 9.28511 17.411 9.38188 17.462 9.50488Z" />
</svg>
