<svg viewBox="0 0 24 24" fill="currentColor" stroke="currentColor" xmlns="http://www.w3.org/2000/svg">
<path d="M17.462 9.505C17.487 9.566 17.5 9.63105 17.5 9.69604V12.5759C17.5 12.8519 17.276 13.0759 17 13.0759C16.724 13.0759 16.5 12.8519 16.5 12.5759V10.903L13.806 13.5969C13.273 14.1299 12.409 14.1289 11.877 13.5969L10.403 12.123C10.261 11.981 10.029 11.982 9.888 12.123L7.354 14.657C7.256 14.755 7.128 14.803 7 14.803C6.872 14.803 6.744 14.754 6.646 14.657C6.451 14.462 6.451 14.145 6.646 13.95L9.17999 11.416C9.71199 10.884 10.576 10.884 11.109 11.416L12.583 12.8899C12.721 13.0279 12.96 13.0269 13.098 12.8899L15.792 10.196H14.119C13.843 10.196 13.619 9.97204 13.619 9.69604C13.619 9.42004 13.843 9.19604 14.119 9.19604H17C17.065 9.19604 17.13 9.20899 17.191 9.23499C17.313 9.28499 17.411 9.382 17.462 9.505ZM22.5 12C22.5 17.79 17.79 22.5 12 22.5C6.21 22.5 1.5 17.79 1.5 12C1.5 6.21 6.21 1.5 12 1.5C17.79 1.5 22.5 6.21 22.5 12ZM21.5 12C21.5 6.762 17.238 2.5 12 2.5C6.762 2.5 2.5 6.762 2.5 12C2.5 17.238 6.762 21.5 12 21.5C17.238 21.5 21.5 17.238 21.5 12Z" />
</svg>
