<svg viewBox="0 0 24 24" fill="currentColor" stroke="currentColor" xmlns="http://www.w3.org/2000/svg">
<path d="M17.625 2.5H6.375C3.84 2.5 2.5 3.84 2.5 6.375V17.625C2.5 20.16 3.84 21.5 6.375 21.5H17.625C20.16 21.5 21.5 20.16 21.5 17.625V6.375C21.5 3.84 20.16 2.5 17.625 2.5ZM20.5 17.625C20.5 19.586 19.586 20.5 17.625 20.5H6.375C4.414 20.5 3.5 19.586 3.5 17.625V6.375C3.5 4.414 4.414 3.5 6.375 3.5H17.625C19.586 3.5 20.5 4.414 20.5 6.375V17.625ZM17.5 11.4241V14.304C17.5 14.369 17.487 14.4341 17.462 14.4951C17.411 14.6181 17.314 14.7151 17.191 14.7661C17.13 14.7911 17.065 14.8049 17 14.8049H14.12C13.844 14.8049 13.62 14.5809 13.62 14.3049C13.62 14.0289 13.844 13.8049 14.12 13.8049H15.793L13.099 11.1111C12.962 10.9731 12.722 10.9731 12.584 11.1111L11.11 12.585C10.577 13.118 9.713 13.117 9.181 12.585L6.647 10.051C6.452 9.85603 6.452 9.53899 6.647 9.34399C6.842 9.14899 7.159 9.14899 7.354 9.34399L9.888 11.8779C10.03 12.0199 10.262 12.0199 10.403 11.8779L11.877 10.4041C12.409 9.87205 13.273 9.87105 13.806 10.4041L16.5 13.0979V11.425C16.5 11.149 16.724 10.925 17 10.925C17.276 10.925 17.5 11.1471 17.5 11.4241Z" />
</svg>
