<svg viewBox="0 0 24 24" fill="currentColor" stroke="currentColor" xmlns="http://www.w3.org/2000/svg">
<path d="M22.5 9C22.5 9.829 21.831 10.5 21.007 10.5C20.775 10.5 20.557 10.4419 20.359 10.3479L16.35 14.3569C16.443 14.5529 16.499 14.769 16.499 15.001C16.499 15.83 15.83 16.501 15.006 16.501C14.181 16.501 13.499 15.83 13.499 15.001C13.499 14.769 13.555 14.552 13.646 14.355L9.64301 10.3521C9.44901 10.4451 9.235 10.5 9.006 10.5C8.774 10.5 8.556 10.4419 8.358 10.3479L4.349 14.3569C4.442 14.5529 4.498 14.769 4.498 15.001C4.498 15.83 3.829 16.501 3.005 16.501C2.18 16.501 1.498 15.83 1.498 15.001C1.498 14.172 2.15101 13.501 2.97501 13.501H3.006C3.235 13.501 3.44901 13.5569 3.64301 13.6489L7.64999 9.64209C7.55599 9.44709 7.49899 9.231 7.49899 9C7.49899 8.171 8.152 7.5 8.976 7.5H9.007C9.831 7.5 10.5 8.171 10.5 9C10.5 9.231 10.444 9.44804 10.351 9.64404L14.351 13.644C14.541 13.554 14.751 13.5 14.977 13.5H15.008C15.237 13.5 15.451 13.5559 15.645 13.6479L19.652 9.64111C19.558 9.44611 19.501 9.23002 19.501 8.99902C19.501 8.17002 20.154 7.49902 20.978 7.49902H21.009C21.831 7.50002 22.5 8.171 22.5 9Z" />
</svg>
