<svg viewBox="0 0 24 24" fill="currentColor" stroke="currentColor" xmlns="http://www.w3.org/2000/svg">
<path d="M17.625 2.5H6.375C3.84 2.5 2.5 3.84 2.5 6.375V17.625C2.5 20.16 3.84 21.5 6.375 21.5H17.625C20.16 21.5 21.5 20.16 21.5 17.625V6.375C21.5 3.84 20.16 2.5 17.625 2.5ZM20.5 17.625C20.5 19.586 19.586 20.5 17.625 20.5H6.375C4.414 20.5 3.5 19.586 3.5 17.625V6.375C3.5 4.414 4.414 3.5 6.375 3.5H17.625C19.586 3.5 20.5 4.414 20.5 6.375V17.625ZM18.268 10.333C18.268 11.024 17.71 11.583 17.024 11.583C16.857 11.583 16.699 11.547 16.552 11.488L14.84 13.2C14.898 13.345 14.934 13.501 14.934 13.667C14.934 14.358 14.376 14.917 13.69 14.917C13.002 14.917 12.434 14.358 12.434 13.667C12.434 13.511 12.47 13.365 12.52 13.228L10.788 11.4961C10.653 11.5471 10.509 11.584 10.356 11.584C10.189 11.584 10.031 11.548 9.884 11.489L8.172 13.2009C8.23 13.3459 8.26599 13.502 8.26599 13.668C8.26599 14.359 7.708 14.918 7.022 14.918C6.334 14.918 5.76599 14.359 5.76599 13.668C5.76599 12.977 6.31001 12.418 6.99701 12.418H7.02301C7.17601 12.418 7.31899 12.4551 7.45499 12.5061L9.19 10.771C9.138 10.634 9.10101 10.49 9.10101 10.335C9.10101 9.64396 9.645 9.08496 10.332 9.08496H10.358C11.044 9.08496 11.602 9.64396 11.602 10.335C11.602 10.501 11.566 10.657 11.508 10.802L13.216 12.51C13.356 12.455 13.505 12.418 13.666 12.418H13.692C13.845 12.418 13.988 12.4551 14.124 12.5061L15.859 10.771C15.807 10.634 15.77 10.49 15.77 10.335C15.77 9.64396 16.314 9.08496 17.001 9.08496H17.027C17.71 9.08296 18.268 9.64301 18.268 10.333Z" />
</svg>
