<svg viewBox="0 0 24 24" fill="currentColor" stroke="currentColor" xmlns="http://www.w3.org/2000/svg">
<path d="M17.625 2.5H6.375C3.84 2.5 2.5 3.84 2.5 6.375V17.625C2.5 20.16 3.84 21.5 6.375 21.5H17.625C20.16 21.5 21.5 20.16 21.5 17.625V6.375C21.5 3.84 20.16 2.5 17.625 2.5ZM20.5 17.625C20.5 19.586 19.586 20.5 17.625 20.5H6.375C4.414 20.5 3.5 19.586 3.5 17.625V6.375C3.5 4.414 4.414 3.5 6.375 3.5H17.625C19.586 3.5 20.5 4.414 20.5 6.375V17.625ZM8.5 11V16C8.5 16.276 8.276 16.5 8 16.5C7.724 16.5 7.5 16.276 7.5 16V11C7.5 10.724 7.724 10.5 8 10.5C8.276 10.5 8.5 10.724 8.5 11ZM12.5 8V16C12.5 16.276 12.276 16.5 12 16.5C11.724 16.5 11.5 16.276 11.5 16V8C11.5 7.724 11.724 7.5 12 7.5C12.276 7.5 12.5 7.724 12.5 8ZM16.5 13V16C16.5 16.276 16.276 16.5 16 16.5C15.724 16.5 15.5 16.276 15.5 16V13C15.5 12.724 15.724 12.5 16 12.5C16.276 12.5 16.5 12.724 16.5 13Z" />
</svg>
