<svg viewBox="0 0 24 24" fill="currentColor" stroke="currentColor" xmlns="http://www.w3.org/2000/svg">
<path d="M7.5 8C7.5 7.724 7.724 7.5 8 7.5H13C13.276 7.5 13.5 7.724 13.5 8C13.5 8.276 13.276 8.5 13 8.5H8C7.724 8.5 7.5 8.276 7.5 8ZM16 11.5H8C7.724 11.5 7.5 11.724 7.5 12C7.5 12.276 7.724 12.5 8 12.5H16C16.276 12.5 16.5 12.276 16.5 12C16.5 11.724 16.276 11.5 16 11.5ZM11 15.5H8C7.724 15.5 7.5 15.724 7.5 16C7.5 16.276 7.724 16.5 8 16.5H11C11.276 16.5 11.5 16.276 11.5 16C11.5 15.724 11.276 15.5 11 15.5ZM22.5 12C22.5 17.79 17.79 22.5 12 22.5C6.21 22.5 1.5 17.79 1.5 12C1.5 6.21 6.21 1.5 12 1.5C17.79 1.5 22.5 6.21 22.5 12ZM21.5 12C21.5 6.762 17.238 2.5 12 2.5C6.762 2.5 2.5 6.762 2.5 12C2.5 17.238 6.762 21.5 12 21.5C17.238 21.5 21.5 17.238 21.5 12Z" />
</svg>
