<svg viewBox="0 0 24 24" fill="currentColor" stroke="currentColor" xmlns="http://www.w3.org/2000/svg">
<path d="M17.625 2.5H6.375C3.84 2.5 2.5 3.84 2.5 6.375V17.625C2.5 20.16 3.84 21.5 6.375 21.5H17.625C20.16 21.5 21.5 20.16 21.5 17.625V6.375C21.5 3.84 20.16 2.5 17.625 2.5ZM20.5 17.625C20.5 19.586 19.586 20.5 17.625 20.5H6.375C4.414 20.5 3.5 19.586 3.5 17.625V6.375C3.5 4.414 4.414 3.5 6.375 3.5H17.625C19.586 3.5 20.5 4.414 20.5 6.375V17.625ZM7.5 8C7.5 7.724 7.724 7.5 8 7.5H13C13.276 7.5 13.5 7.724 13.5 8C13.5 8.276 13.276 8.5 13 8.5H8C7.724 8.5 7.5 8.276 7.5 8ZM16.5 12C16.5 12.276 16.276 12.5 16 12.5H8C7.724 12.5 7.5 12.276 7.5 12C7.5 11.724 7.724 11.5 8 11.5H16C16.276 11.5 16.5 11.724 16.5 12ZM11.5 16C11.5 16.276 11.276 16.5 11 16.5H8C7.724 16.5 7.5 16.276 7.5 16C7.5 15.724 7.724 15.5 8 15.5H11C11.276 15.5 11.5 15.724 11.5 16Z" />
</svg>
