<svg viewBox="0 0 24 24" fill="currentColor" stroke="currentColor" xmlns="http://www.w3.org/2000/svg">
<path d="M8.5 11V16C8.5 16.276 8.276 16.5 8 16.5C7.724 16.5 7.5 16.276 7.5 16V11C7.5 10.724 7.724 10.5 8 10.5C8.276 10.5 8.5 10.724 8.5 11ZM12 7.5C11.724 7.5 11.5 7.724 11.5 8V16C11.5 16.276 11.724 16.5 12 16.5C12.276 16.5 12.5 16.276 12.5 16V8C12.5 7.724 12.276 7.5 12 7.5ZM16 12.5C15.724 12.5 15.5 12.724 15.5 13V16C15.5 16.276 15.724 16.5 16 16.5C16.276 16.5 16.5 16.276 16.5 16V13C16.5 12.724 16.276 12.5 16 12.5ZM22.5 12C22.5 17.79 17.79 22.5 12 22.5C6.21 22.5 1.5 17.79 1.5 12C1.5 6.21 6.21 1.5 12 1.5C17.79 1.5 22.5 6.21 22.5 12ZM21.5 12C21.5 6.762 17.238 2.5 12 2.5C6.762 2.5 2.5 6.762 2.5 12C2.5 17.238 6.762 21.5 12 21.5C17.238 21.5 21.5 17.238 21.5 12Z" />
</svg>
