<svg viewBox="0 0 24 24" fill="currentColor" stroke="currentColor" xmlns="http://www.w3.org/2000/svg">
<path d="M12.5 14V17C12.5 17.276 12.276 17.5 12 17.5C11.724 17.5 11.5 17.276 11.5 17V14C11.5 13.724 11.724 13.5 12 13.5C12.276 13.5 12.5 13.724 12.5 14ZM8 11.5C7.724 11.5 7.5 11.724 7.5 12V17C7.5 17.276 7.724 17.5 8 17.5C8.276 17.5 8.5 17.276 8.5 17V12C8.5 11.724 8.276 11.5 8 11.5ZM16 15C15.724 15 15.5 15.224 15.5 15.5V17C15.5 17.276 15.724 17.5 16 17.5C16.276 17.5 16.5 17.276 16.5 17V15.5C16.5 15.224 16.276 15 16 15ZM16 7.62C15.724 7.62 15.5 7.844 15.5 8.12V9.11597L13.268 6.89197C12.783 6.40897 11.993 6.40804 11.507 6.88904L10.22 8.16199C10.123 8.25899 9.965 8.25901 9.867 8.16101L8.35303 6.64697C8.15803 6.45197 7.841 6.45197 7.646 6.64697C7.451 6.84197 7.451 7.159 7.646 7.354L9.15997 8.86804C9.64397 9.35304 10.436 9.35505 10.923 8.87305L12.21 7.59998C12.308 7.50398 12.467 7.50398 12.562 7.59998L14.79 9.81995H13.8C13.524 9.81995 13.3 10.0439 13.3 10.3199C13.3 10.5959 13.524 10.8199 13.8 10.8199H16C16.065 10.8199 16.13 10.807 16.191 10.781C16.313 10.73 16.411 10.633 16.461 10.51C16.484 10.455 16.493 10.397 16.496 10.338C16.496 10.331 16.5 10.326 16.5 10.319V8.11902C16.5 7.84402 16.276 7.62 16 7.62ZM22.5 12C22.5 17.79 17.79 22.5 12 22.5C6.21 22.5 1.5 17.79 1.5 12C1.5 6.21 6.21 1.5 12 1.5C17.79 1.5 22.5 6.21 22.5 12ZM21.5 12C21.5 6.762 17.238 2.5 12 2.5C6.762 2.5 2.5 6.762 2.5 12C2.5 17.238 6.762 21.5 12 21.5C17.238 21.5 21.5 17.238 21.5 12Z" />
</svg>
