<svg viewBox="0 0 24 24" fill="currentColor" stroke="currentColor" xmlns="http://www.w3.org/2000/svg">
<path d="M12.5 14V17C12.5 17.276 12.276 17.5 12 17.5C11.724 17.5 11.5 17.276 11.5 17V14C11.5 13.724 11.724 13.5 12 13.5C12.276 13.5 12.5 13.724 12.5 14ZM16 11.5C15.724 11.5 15.5 11.724 15.5 12V17C15.5 17.276 15.724 17.5 16 17.5C16.276 17.5 16.5 17.276 16.5 17V12C16.5 11.724 16.276 11.5 16 11.5ZM8 15C7.724 15 7.5 15.224 7.5 15.5V17C7.5 17.276 7.724 17.5 8 17.5C8.276 17.5 8.5 17.276 8.5 17V15.5C8.5 15.224 8.276 15 8 15ZM16.191 6.53894C16.13 6.51394 16.065 6.5 16 6.5H13.8C13.524 6.5 13.3 6.724 13.3 7C13.3 7.276 13.524 7.5 13.8 7.5H14.793L12.567 9.72595C12.439 9.85295 12.341 9.85395 12.213 9.72595L10.934 8.44702C10.446 7.95902 9.65202 7.96002 9.16602 8.44702L7.646 9.96704C7.451 10.162 7.451 10.479 7.646 10.674C7.744 10.7719 7.872 10.8199 8 10.8199C8.128 10.8199 8.256 10.771 8.354 10.674L9.87402 9.15405C9.97202 9.05605 10.131 9.05705 10.228 9.15405L11.507 10.433C11.979 10.906 12.802 10.907 13.275 10.433L15.501 8.20703V9.19995C15.501 9.47595 15.725 9.69995 16.001 9.69995C16.277 9.69995 16.501 9.47595 16.501 9.19995V7C16.501 6.935 16.488 6.86996 16.463 6.80896C16.411 6.68696 16.313 6.58894 16.191 6.53894ZM22.5 12C22.5 17.79 17.79 22.5 12 22.5C6.21 22.5 1.5 17.79 1.5 12C1.5 6.21 6.21 1.5 12 1.5C17.79 1.5 22.5 6.21 22.5 12ZM21.5 12C21.5 6.762 17.238 2.5 12 2.5C6.762 2.5 2.5 6.762 2.5 12C2.5 17.238 6.762 21.5 12 21.5C17.238 21.5 21.5 17.238 21.5 12Z" />
</svg>
