<svg viewBox="0 0 24 24" fill="currentColor" stroke="currentColor" xmlns="http://www.w3.org/2000/svg">
<path d="M21.5 7V11.1541C21.5 11.4301 21.276 11.6541 21 11.6541C20.724 11.6541 20.5 11.4301 20.5 11.1541V8.20703L14.061 14.646C13.476 15.231 12.525 15.231 11.94 14.646L9.35401 12.0601C9.15901 11.8651 8.84201 11.8651 8.64701 12.0601L3.354 17.353C3.256 17.451 3.128 17.499 3 17.499C2.872 17.499 2.74401 17.45 2.64601 17.353C2.45101 17.158 2.45101 16.841 2.64601 16.646L7.939 11.353C8.524 10.768 9.475 10.768 10.06 11.353L12.646 13.939C12.841 14.134 13.158 14.134 13.353 13.939L19.792 7.5H16.845C16.569 7.5 16.345 7.276 16.345 7C16.345 6.724 16.569 6.5 16.845 6.5H21C21.065 6.5 21.13 6.51306 21.191 6.53906C21.313 6.59006 21.411 6.68706 21.462 6.81006C21.487 6.87006 21.5 6.935 21.5 7Z" />
</svg>
