<svg viewBox="0 0 24 24" fill="currentColor" stroke="currentColor" xmlns="http://www.w3.org/2000/svg">
<path d="M17.625 2.5H6.375C3.84 2.5 2.5 3.84 2.5 6.375V17.625C2.5 20.16 3.84 21.5 6.375 21.5H17.625C20.16 21.5 21.5 20.16 21.5 17.625V6.375C21.5 3.84 20.16 2.5 17.625 2.5ZM20.5 17.625C20.5 19.586 19.587 20.5 17.625 20.5H6.375C4.414 20.5 3.5 19.586 3.5 17.625V6.375C3.5 4.414 4.414 3.5 6.375 3.5H17.625C19.587 3.5 20.5 4.414 20.5 6.375V17.625ZM12.5 14V17C12.5 17.276 12.276 17.5 12 17.5C11.724 17.5 11.5 17.276 11.5 17V14C11.5 13.724 11.724 13.5 12 13.5C12.276 13.5 12.5 13.724 12.5 14ZM8.5 12V17C8.5 17.276 8.276 17.5 8 17.5C7.724 17.5 7.5 17.276 7.5 17V12C7.5 11.724 7.724 11.5 8 11.5C8.276 11.5 8.5 11.724 8.5 12ZM16.5 15.5V17C16.5 17.276 16.276 17.5 16 17.5C15.724 17.5 15.5 17.276 15.5 17V15.5C15.5 15.224 15.724 15 16 15C16.276 15 16.5 15.224 16.5 15.5ZM16.5 8.12012V10.3201C16.5 10.3271 16.497 10.3321 16.496 10.3391C16.494 10.3981 16.484 10.456 16.461 10.511C16.41 10.634 16.313 10.731 16.191 10.782C16.13 10.807 16.065 10.821 16 10.821H13.8C13.524 10.821 13.3 10.597 13.3 10.321C13.3 10.045 13.524 9.82104 13.8 9.82104H14.79L12.562 7.60107C12.467 7.50507 12.308 7.50507 12.21 7.60107L10.923 8.87402C10.436 9.35602 9.64497 9.3539 9.15997 8.8689L7.646 7.35498C7.451 7.15998 7.451 6.84295 7.646 6.64795C7.841 6.45295 8.15803 6.45295 8.35303 6.64795L9.867 8.16211C9.964 8.26011 10.122 8.26009 10.22 8.16309L11.507 6.88989C11.993 6.40889 12.783 6.41007 13.268 6.89307L15.5 9.11694V8.12109C15.5 7.84509 15.724 7.62109 16 7.62109C16.276 7.62109 16.5 7.84412 16.5 8.12012Z" />
</svg>
