<svg viewBox="0 0 24 24" fill="currentColor" stroke="currentColor" xmlns="http://www.w3.org/2000/svg">
<path d="M17.625 2.5H6.375C3.84 2.5 2.5 3.84 2.5 6.375V17.625C2.5 20.16 3.84 21.5 6.375 21.5H17.625C20.16 21.5 21.5 20.16 21.5 17.625V6.375C21.5 3.84 20.16 2.5 17.625 2.5ZM20.5 17.625C20.5 19.586 19.586 20.5 17.625 20.5H6.375C4.414 20.5 3.5 19.586 3.5 17.625V6.375C3.5 4.414 4.414 3.5 6.375 3.5H17.625C19.586 3.5 20.5 4.414 20.5 6.375V17.625ZM12.5 14V17C12.5 17.276 12.276 17.5 12 17.5C11.724 17.5 11.5 17.276 11.5 17V14C11.5 13.724 11.724 13.5 12 13.5C12.276 13.5 12.5 13.724 12.5 14ZM16.5 12V17C16.5 17.276 16.276 17.5 16 17.5C15.724 17.5 15.5 17.276 15.5 17V12C15.5 11.724 15.724 11.5 16 11.5C16.276 11.5 16.5 11.724 16.5 12ZM8.5 15.5V17C8.5 17.276 8.276 17.5 8 17.5C7.724 17.5 7.5 17.276 7.5 17V15.5C7.5 15.224 7.724 15 8 15C8.276 15 8.5 15.224 8.5 15.5ZM16.462 6.80908C16.487 6.87008 16.5 6.935 16.5 7V9.19995C16.5 9.47595 16.276 9.69995 16 9.69995C15.724 9.69995 15.5 9.47595 15.5 9.19995V8.20703L13.274 10.4331C12.801 10.9061 11.978 10.9051 11.506 10.4331L10.227 9.15405C10.13 9.05705 9.97099 9.05605 9.87299 9.15405L8.35303 10.6741C8.25503 10.7721 8.12702 10.8201 7.99902 10.8201C7.87102 10.8201 7.74302 10.7711 7.64502 10.6741C7.45002 10.4791 7.45002 10.162 7.64502 9.96704L9.16498 8.44702C9.65098 7.96002 10.445 7.95902 10.933 8.44702L12.212 9.72607C12.34 9.85407 12.438 9.85307 12.566 9.72607L14.792 7.5H13.8C13.524 7.5 13.3 7.276 13.3 7C13.3 6.724 13.524 6.5 13.8 6.5H16C16.065 6.5 16.13 6.51306 16.191 6.53906C16.313 6.58906 16.411 6.68708 16.462 6.80908Z" />
</svg>
