<svg viewBox="0 0 24 24" fill="currentColor" stroke="currentColor" xmlns="http://www.w3.org/2000/svg">
<path d="M21.5 17C21.5 17.065 21.487 17.1299 21.462 17.1909C21.411 17.3139 21.314 17.4109 21.191 17.4619C21.13 17.4869 21.065 17.501 21 17.501H16.846C16.57 17.501 16.346 17.277 16.346 17.001C16.346 16.725 16.57 16.501 16.846 16.501H19.793L13.354 10.062C13.159 9.86702 12.842 9.86702 12.647 10.062L10.061 12.648C9.476 13.233 8.525 13.233 7.94 12.648L2.647 7.35499C2.452 7.15999 2.452 6.84296 2.647 6.64796C2.842 6.45296 3.159 6.45296 3.354 6.64796L8.647 11.9409C8.842 12.1359 9.159 12.1359 9.354 11.9409L11.94 9.35499C12.525 8.76999 13.476 8.76999 14.061 9.35499L20.5 15.794V12.8469C20.5 12.5709 20.724 12.3469 21 12.3469C21.276 12.3469 21.5 12.5709 21.5 12.8469V17Z" />
</svg>
