<svg viewBox="0 0 24 24" fill="currentColor" stroke="currentColor" xmlns="http://www.w3.org/2000/svg">
<path d="M12 19.75C11.808 19.75 11.616 19.6771 11.47 19.5301L4.46999 12.5301C4.17699 12.2371 4.17699 11.762 4.46999 11.469L11.47 4.46902C11.763 4.17602 12.238 4.17602 12.531 4.46902C12.824 4.76202 12.824 5.23705 12.531 5.53005L6.06106 12L12.531 18.47C12.824 18.763 12.824 19.238 12.531 19.531C12.384 19.677 12.192 19.75 12 19.75ZM19.5301 19.5301C19.8231 19.2371 19.8231 18.762 19.5301 18.469L13.0601 11.999L19.5301 5.52908C19.8231 5.23608 19.8231 4.76104 19.5301 4.46804C19.2371 4.17504 18.762 4.17504 18.469 4.46804L11.469 11.468C11.176 11.761 11.176 12.2361 11.469 12.5291L18.469 19.5291C18.615 19.6751 18.807 19.749 18.999 19.749C19.191 19.749 19.3841 19.6771 19.5301 19.5301Z" />
</svg>
