<svg viewBox="0 0 24 24" fill="currentColor" stroke="currentColor" xmlns="http://www.w3.org/2000/svg">
<path d="M12 1.25C6.072 1.25 1.25 6.072 1.25 12C1.25 17.928 6.072 22.75 12 22.75C17.928 22.75 22.75 17.928 22.75 12C22.75 6.072 17.928 1.25 12 1.25ZM12 21.25C6.899 21.25 2.75 17.101 2.75 12C2.75 6.899 6.899 2.75 12 2.75C17.101 2.75 21.25 6.899 21.25 12C21.25 17.101 17.101 21.25 12 21.25ZM15.53 10.47C15.823 10.763 15.823 11.238 15.53 11.531L12.53 14.531C12.384 14.677 12.192 14.751 12 14.751C11.808 14.751 11.616 14.678 11.47 14.531L8.46997 11.531C8.17697 11.238 8.17697 10.763 8.46997 10.47C8.76297 10.177 9.23801 10.177 9.53101 10.47L12.001 12.9399L14.4709 10.47C14.7629 10.177 15.237 10.177 15.53 10.47Z" />
</svg>
