<svg viewBox="0 0 24 24" fill="currentColor" stroke="currentColor" xmlns="http://www.w3.org/2000/svg">
<path d="M17.625 2.25H6.375C3.715 2.25 2.25 3.715 2.25 6.375V17.625C2.25 20.285 3.715 21.75 6.375 21.75H17.625C20.285 21.75 21.75 20.285 21.75 17.625V6.375C21.75 3.715 20.285 2.25 17.625 2.25ZM20.25 17.625C20.25 19.465 19.465 20.25 17.625 20.25H6.375C4.535 20.25 3.75 19.465 3.75 17.625V6.375C3.75 4.535 4.535 3.75 6.375 3.75H17.625C19.465 3.75 20.25 4.535 20.25 6.375V17.625ZM15.53 12.47C15.823 12.763 15.823 13.238 15.53 13.531C15.384 13.677 15.192 13.751 15 13.751C14.808 13.751 14.616 13.678 14.47 13.531L12 11.061L9.53003 13.531C9.23703 13.824 8.76199 13.824 8.46899 13.531C8.17599 13.238 8.17599 12.763 8.46899 12.47L11.469 9.46997C11.762 9.17697 12.237 9.17697 12.53 9.46997L15.53 12.47Z" />
</svg>
