<svg viewBox="0 0 24 24" fill="currentColor" stroke="currentColor" xmlns="http://www.w3.org/2000/svg">
<path d="M16.5301 17.47C16.8231 17.763 16.8231 18.238 16.5301 18.531C16.3841 18.677 16.192 18.751 16 18.751C15.808 18.751 15.616 18.678 15.47 18.531L12 15.0611L8.53005 18.531C8.23705 18.824 7.76202 18.824 7.46902 18.531C7.17602 18.238 7.17602 17.763 7.46902 17.47L11.469 13.47C11.762 13.177 12.2371 13.177 12.5301 13.47L16.5301 17.47ZM11.47 10.5301C11.616 10.6761 11.808 10.75 12 10.75C12.192 10.75 12.3841 10.6771 12.5301 10.5301L16.5301 6.53005C16.8231 6.23705 16.8231 5.76202 16.5301 5.46902C16.2371 5.17602 15.762 5.17602 15.469 5.46902L11.999 8.93899L8.52908 5.46902C8.23608 5.17602 7.76104 5.17602 7.46804 5.46902C7.17504 5.76202 7.17504 6.23705 7.46804 6.53005L11.47 10.5301Z" />
</svg>
