<svg viewBox="0 0 24 24" fill="currentColor" stroke="currentColor" xmlns="http://www.w3.org/2000/svg">
<path d="M19.5301 14.53L12.5301 21.53C12.4611 21.599 12.3781 21.6539 12.2871 21.6919C12.1961 21.7299 12.098 21.75 12 21.75C11.902 21.75 11.8049 21.7299 11.7129 21.6919C11.6209 21.6539 11.539 21.599 11.47 21.53L4.46999 14.53C4.17699 14.237 4.17699 13.762 4.46999 13.469C4.76299 13.176 5.23803 13.176 5.53103 13.469L11.251 19.189V3C11.251 2.586 11.587 2.25 12.001 2.25C12.415 2.25 12.751 2.586 12.751 3V19.189L18.471 13.469C18.764 13.176 19.239 13.176 19.532 13.469C19.825 13.762 19.8231 14.237 19.5301 14.53Z" />
</svg>
