<svg viewBox="0 0 24 24" fill="currentColor" stroke="currentColor" xmlns="http://www.w3.org/2000/svg">
<path d="M17.75 17C17.75 17.098 17.7299 17.1951 17.6919 17.2871C17.6159 17.4701 17.4701 17.6159 17.2871 17.6919C17.1951 17.7299 17.098 17.75 17 17.75H11C10.586 17.75 10.25 17.414 10.25 17C10.25 16.586 10.586 16.25 11 16.25H15.189L5.46902 6.53005C5.17602 6.23705 5.17602 5.76202 5.46902 5.46902C5.76202 5.17602 6.23705 5.17602 6.53005 5.46902L16.25 15.189V11C16.25 10.586 16.586 10.25 17 10.25C17.414 10.25 17.75 10.586 17.75 11V17Z" />
</svg>
