<svg viewBox="0 0 24 24" fill="currentColor" stroke="currentColor" xmlns="http://www.w3.org/2000/svg">
<path d="M17.53 17.53C17.384 17.676 17.192 17.75 17 17.75C16.808 17.75 16.616 17.677 16.47 17.53L6.75 7.81006V12C6.75 12.414 6.414 12.75 6 12.75C5.586 12.75 5.25 12.414 5.25 12V6C5.25 5.902 5.27011 5.80489 5.30811 5.71289C5.38411 5.52989 5.53011 5.38388 5.71411 5.30688C5.80611 5.26888 5.90298 5.24902 6.00098 5.24902H12.001C12.415 5.24902 12.751 5.58502 12.751 5.99902C12.751 6.41302 12.415 6.74902 12.001 6.74902H7.81201L17.532 16.469C17.823 16.763 17.823 17.237 17.53 17.53Z" />
</svg>
