<svg viewBox="0 0 24 24" fill="currentColor" stroke="currentColor" xmlns="http://www.w3.org/2000/svg">
<path d="M17.625 2.25H6.375C3.715 2.25 2.25 3.715 2.25 6.375V17.625C2.25 20.285 3.715 21.75 6.375 21.75H17.625C20.285 21.75 21.75 20.285 21.75 17.625V6.375C21.75 3.715 20.285 2.25 17.625 2.25ZM20.25 17.625C20.25 19.465 19.465 20.25 17.625 20.25H6.375C4.535 20.25 3.75 19.465 3.75 17.625V6.375C3.75 4.535 4.535 3.75 6.375 3.75H17.625C19.465 3.75 20.25 4.535 20.25 6.375V17.625ZM17.25 12.752C17.25 14.406 15.904 15.752 14.25 15.752H9C8.586 15.752 8.25 15.416 8.25 15.002C8.25 14.588 8.586 14.252 9 14.252H14.25C15.077 14.252 15.75 13.579 15.75 12.752C15.75 11.925 15.077 11.252 14.25 11.252H9.31104L9.53101 11.4719C9.82401 11.7649 9.82401 12.24 9.53101 12.533C9.38501 12.679 9.19298 12.7529 9.00098 12.7529C8.80898 12.7529 8.61695 12.68 8.47095 12.533L6.97095 11.033C6.90195 10.964 6.84708 10.8811 6.80908 10.7891C6.73308 10.6061 6.73308 10.3991 6.80908 10.2161C6.84708 10.1241 6.90195 10.0409 6.97095 9.97192L8.47095 8.47192C8.76395 8.17892 9.23898 8.17892 9.53198 8.47192C9.82498 8.76492 9.82498 9.23996 9.53198 9.53296L9.31201 9.75293H14.251C15.904 9.75193 17.25 11.098 17.25 12.752Z" />
</svg>
