<svg viewBox="0 0 24 24" fill="currentColor" stroke="currentColor" xmlns="http://www.w3.org/2000/svg">
<path d="M20.7501 12C20.7501 12.414 20.4141 12.75 20.0001 12.75H5.81115L8.53112 15.47C8.82412 15.763 8.82412 16.238 8.53112 16.531C8.38512 16.677 8.19309 16.751 8.00109 16.751C7.80909 16.751 7.61706 16.678 7.47106 16.531L3.47106 12.531C3.40206 12.462 3.3472 12.3791 3.3092 12.2871C3.2332 12.1041 3.2332 11.8971 3.3092 11.7141C3.3472 11.6221 3.40206 11.539 3.47106 11.47L7.47106 7.46999C7.76406 7.17699 8.2391 7.17699 8.5321 7.46999C8.8251 7.76299 8.8251 8.23803 8.5321 8.53103L5.81213 11.251H20.0001C20.4141 11.25 20.7501 11.586 20.7501 12Z" />
</svg>
