<svg viewBox="0 0 24 24" fill="currentColor" stroke="currentColor" xmlns="http://www.w3.org/2000/svg">
<path d="M17.625 2.25H6.375C3.715 2.25 2.25 3.715 2.25 6.375V17.625C2.25 20.285 3.715 21.75 6.375 21.75H17.625C20.285 21.75 21.75 20.285 21.75 17.625V6.375C21.75 3.715 20.285 2.25 17.625 2.25ZM20.25 17.625C20.25 19.465 19.465 20.25 17.625 20.25H6.375C4.535 20.25 3.75 19.465 3.75 17.625V6.375C3.75 4.535 4.535 3.75 6.375 3.75H17.625C19.465 3.75 20.25 4.535 20.25 6.375V17.625ZM12.199 14.803C12.492 15.096 12.492 15.571 12.199 15.864L10.532 17.531C10.463 17.6 10.3801 17.6551 10.2891 17.6931C10.1981 17.7311 10.1 17.751 10.002 17.751C9.90395 17.751 9.80709 17.7311 9.71509 17.6931C9.62309 17.6551 9.54092 17.6 9.47192 17.531L7.80493 15.864C7.51193 15.572 7.51193 15.096 7.80493 14.803C8.09793 14.51 8.57297 14.51 8.86597 14.803L9.25293 15.189V9C9.25293 8.586 9.58893 8.25 10.0029 8.25C10.4169 8.25 10.7529 8.586 10.7529 9V15.1899L11.1399 14.804C11.4329 14.51 11.907 14.511 12.199 14.803ZM16.1951 8.13599C16.4881 8.42799 16.4881 8.90402 16.1951 9.19702C16.0491 9.34302 15.857 9.41699 15.665 9.41699C15.473 9.41699 15.281 9.34402 15.135 9.19702L14.748 8.81104V15.001C14.748 15.415 14.412 15.751 13.998 15.751C13.584 15.751 13.248 15.415 13.248 15.001V8.81104L12.8611 9.19702C12.5671 9.49002 12.092 9.48902 11.8 9.19702C11.507 8.90402 11.507 8.42899 11.8 8.13599L13.467 6.46899C13.536 6.39999 13.6189 6.34488 13.7109 6.30688C13.8939 6.23088 14.1009 6.23088 14.2839 6.30688C14.3759 6.34488 14.4591 6.39999 14.5281 6.46899L16.1951 8.13599Z" />
</svg>
