<svg viewBox="0 0 24 24" fill="currentColor" stroke="currentColor" xmlns="http://www.w3.org/2000/svg">
<path d="M17.7501 12C17.7501 12.414 17.4141 12.75 17.0001 12.75H4.81115L8.53112 16.47C8.82412 16.763 8.82412 17.238 8.53112 17.531C8.38512 17.677 8.19309 17.751 8.00109 17.751C7.80909 17.751 7.61706 17.678 7.47106 17.531L2.47106 12.531C2.40206 12.462 2.3472 12.3791 2.3092 12.2871C2.2332 12.1041 2.2332 11.8971 2.3092 11.7141C2.3472 11.6221 2.40206 11.539 2.47106 11.47L7.47106 6.46997C7.76406 6.17697 8.2391 6.17697 8.5321 6.46997C8.8251 6.76297 8.8251 7.23801 8.5321 7.53101L4.81213 11.251H17.0001C17.4141 11.25 17.7501 11.586 17.7501 12ZM21.0001 5.25C20.5861 5.25 20.2501 5.586 20.2501 6V18C20.2501 18.414 20.5861 18.75 21.0001 18.75C21.4141 18.75 21.7501 18.414 21.7501 18V6C21.7501 5.586 21.4141 5.25 21.0001 5.25Z" />
</svg>
