<svg viewBox="0 0 24 24" fill="currentColor" stroke="currentColor" xmlns="http://www.w3.org/2000/svg">
<path d="M20.6919 12.2871C20.6539 12.3791 20.599 12.462 20.53 12.531L16.53 16.531C16.384 16.677 16.192 16.751 16 16.751C15.808 16.751 15.616 16.678 15.47 16.531C15.177 16.238 15.177 15.763 15.47 15.47L18.1899 12.75H4C3.586 12.75 3.25 12.414 3.25 12C3.25 11.586 3.586 11.25 4 11.25H18.189L15.469 8.53005C15.176 8.23705 15.176 7.76202 15.469 7.46902C15.762 7.17602 16.237 7.17602 16.53 7.46902L20.53 11.469C20.599 11.538 20.6539 11.6209 20.6919 11.7129C20.7679 11.8969 20.7679 12.1031 20.6919 12.2871Z" />
</svg>
