<svg viewBox="0 0 24 24" fill="currentColor" stroke="currentColor" xmlns="http://www.w3.org/2000/svg">
<path d="M6.46997 8.53014C6.17697 8.23714 6.17697 7.76211 6.46997 7.46911L11.47 2.46911C11.539 2.40011 11.6221 2.345 11.7141 2.307C11.8971 2.231 12.1041 2.231 12.2871 2.307C12.3791 2.345 12.462 2.40011 12.531 2.46911L17.531 7.46911C17.824 7.76211 17.824 8.23714 17.531 8.53014C17.385 8.67614 17.193 8.75012 17.001 8.75012C16.809 8.75012 16.6169 8.67714 16.4709 8.53014L12.751 4.81017V17.0001C12.751 17.4141 12.415 17.7501 12.001 17.7501C11.587 17.7501 11.251 17.4141 11.251 17.0001V4.81115L7.53101 8.53112C7.23701 8.82312 6.76297 8.82314 6.46997 8.53014ZM18 20.2501H6C5.586 20.2501 5.25 20.5861 5.25 21.0001C5.25 21.4141 5.586 21.7501 6 21.7501H18C18.414 21.7501 18.75 21.4141 18.75 21.0001C18.75 20.5861 18.414 20.2501 18 20.2501Z" />
</svg>
