<svg viewBox="0 0 24 24" fill="currentColor" stroke="currentColor" xmlns="http://www.w3.org/2000/svg">
<path d="M16.5301 8.53014C16.3841 8.67614 16.192 8.75012 16 8.75012C15.808 8.75012 15.616 8.67714 15.47 8.53014L12.75 5.81017V20.0001C12.75 20.4141 12.414 20.7501 12 20.7501C11.586 20.7501 11.25 20.4141 11.25 20.0001V5.81115L8.53005 8.53112C8.23705 8.82412 7.76202 8.82412 7.46902 8.53112C7.17602 8.23812 7.17602 7.76309 7.46902 7.47009L11.469 3.47009C11.538 3.40109 11.6209 3.34622 11.7129 3.30822C11.8959 3.23222 12.1029 3.23222 12.2859 3.30822C12.3779 3.34622 12.4611 3.40109 12.5301 3.47009L16.5301 7.47009C16.8231 7.76309 16.8231 8.23714 16.5301 8.53014Z" />
</svg>
