<svg viewBox="0 0 24 24" fill="currentColor" stroke="currentColor" xmlns="http://www.w3.org/2000/svg">
<path d="M17.625 2.25H6.375C3.715 2.25 2.25 3.715 2.25 6.375V17.625C2.25 20.285 3.715 21.75 6.375 21.75H17.625C20.285 21.75 21.75 20.285 21.75 17.625V6.375C21.75 3.715 20.285 2.25 17.625 2.25ZM20.25 17.625C20.25 19.465 19.465 20.25 17.625 20.25H6.375C4.535 20.25 3.75 19.465 3.75 17.625V6.375C3.75 4.535 4.535 3.75 6.375 3.75H17.625C19.465 3.75 20.25 4.535 20.25 6.375V17.625ZM17.25 12V13.5C17.25 14.741 16.24 15.75 15 15.75H9.31104L9.53101 15.97C9.82401 16.263 9.82401 16.738 9.53101 17.031C9.38501 17.177 9.19298 17.251 9.00098 17.251C8.80898 17.251 8.61695 17.178 8.47095 17.031L6.97095 15.531C6.90195 15.462 6.84708 15.3791 6.80908 15.2871C6.73308 15.1041 6.73308 14.8971 6.80908 14.7141C6.84708 14.6221 6.90195 14.539 6.97095 14.47L8.47095 12.97C8.76395 12.677 9.23898 12.677 9.53198 12.97C9.82498 13.263 9.82498 13.738 9.53198 14.031L9.31201 14.251H15C15.413 14.251 15.75 13.915 15.75 13.501V12.001C15.75 11.587 16.086 11.251 16.5 11.251C16.914 11.251 17.25 11.586 17.25 12ZM17.1919 8.71289C17.2679 8.89589 17.2679 9.10289 17.1919 9.28589C17.1539 9.37789 17.099 9.46103 17.03 9.53003L15.53 11.03C15.384 11.176 15.192 11.25 15 11.25C14.808 11.25 14.616 11.177 14.47 11.03C14.177 10.737 14.177 10.262 14.47 9.96899L14.6899 9.74902H9C8.587 9.74902 8.25 10.085 8.25 10.499V11.999C8.25 12.413 7.914 12.749 7.5 12.749C7.086 12.749 6.75 12.413 6.75 11.999V10.499C6.75 9.25802 7.76 8.24902 9 8.24902H14.689L14.469 8.02905C14.176 7.73605 14.176 7.26102 14.469 6.96802C14.762 6.67502 15.237 6.67502 15.53 6.96802L17.03 8.46802C17.099 8.53902 17.1539 8.62189 17.1919 8.71289Z" />
</svg>
