<svg viewBox="0 0 24 24" fill="currentColor" stroke="currentColor" xmlns="http://www.w3.org/2000/svg">
<path d="M21.6919 12.2871C21.6539 12.3791 21.599 12.462 21.53 12.531L14.53 19.531C14.384 19.677 14.192 19.751 14 19.751C13.808 19.751 13.616 19.678 13.47 19.531C13.177 19.238 13.177 18.763 13.47 18.47L19.1899 12.75H3C2.586 12.75 2.25 12.414 2.25 12C2.25 11.586 2.586 11.25 3 11.25H19.189L13.469 5.53005C13.176 5.23705 13.176 4.76202 13.469 4.46902C13.762 4.17602 14.237 4.17602 14.53 4.46902L21.53 11.469C21.599 11.538 21.6539 11.6209 21.6919 11.7129C21.7679 11.8969 21.7679 12.1031 21.6919 12.2871Z" />
</svg>
