<svg viewBox="0 0 24 24" fill="currentColor" stroke="currentColor" xmlns="http://www.w3.org/2000/svg">
<path d="M18.53 18.53C18.384 18.676 18.192 18.75 18 18.75C17.808 18.75 17.616 18.677 17.47 18.53L5.75 6.81006V15C5.75 15.414 5.414 15.75 5 15.75C4.586 15.75 4.25 15.414 4.25 15V5C4.25 4.902 4.27011 4.80489 4.30811 4.71289C4.38411 4.52989 4.53011 4.38388 4.71411 4.30688C4.80611 4.26888 4.90298 4.24902 5.00098 4.24902H15.001C15.415 4.24902 15.751 4.58502 15.751 4.99902C15.751 5.41302 15.415 5.74902 15.001 5.74902H6.81201L18.532 17.469C18.823 17.763 18.823 18.237 18.53 18.53Z" />
</svg>
