<svg viewBox="0 0 24 24" fill="currentColor" stroke="currentColor" xmlns="http://www.w3.org/2000/svg">
<path d="M16.5301 16.53L12.5301 20.53C12.4611 20.599 12.3781 20.6539 12.2871 20.6919C12.1961 20.7299 12.098 20.75 12 20.75C11.902 20.75 11.8049 20.7299 11.7129 20.6919C11.6209 20.6539 11.539 20.599 11.47 20.53L7.46999 16.53C7.17699 16.237 7.17699 15.762 7.46999 15.469C7.76299 15.176 8.23803 15.176 8.53103 15.469L11.251 18.189V4C11.251 3.586 11.587 3.25 12.001 3.25C12.415 3.25 12.751 3.586 12.751 4V18.189L15.471 15.469C15.764 15.176 16.239 15.176 16.532 15.469C16.825 15.762 16.8231 16.237 16.5301 16.53Z" />
</svg>
