<svg viewBox="0 0 24 24" fill="currentColor" stroke="currentColor" xmlns="http://www.w3.org/2000/svg">
<path d="M17.53 11.47C17.823 11.763 17.823 12.238 17.53 12.531C17.384 12.677 17.192 12.751 17 12.751C16.808 12.751 16.616 12.678 16.47 12.531L12.75 8.81104V21C12.75 21.414 12.414 21.75 12 21.75C11.586 21.75 11.25 21.414 11.25 21V8.81104L7.53003 12.531C7.23703 12.824 6.76199 12.824 6.46899 12.531C6.17599 12.238 6.17599 11.763 6.46899 11.47L11.469 6.46997C11.538 6.40097 11.6209 6.34611 11.7129 6.30811C11.8959 6.23211 12.1029 6.23211 12.2859 6.30811C12.3779 6.34611 12.461 6.40097 12.53 6.46997L17.53 11.47ZM18 2.25H6C5.586 2.25 5.25 2.586 5.25 3C5.25 3.414 5.586 3.75 6 3.75H18C18.414 3.75 18.75 3.414 18.75 3C18.75 2.586 18.414 2.25 18 2.25Z" />
</svg>
