<svg viewBox="0 0 24 24" fill="currentColor" stroke="currentColor" xmlns="http://www.w3.org/2000/svg">
<path d="M19.75 19C19.75 19.098 19.7299 19.1951 19.6919 19.2871C19.6159 19.4701 19.4701 19.6159 19.2871 19.6919C19.1951 19.7299 19.098 19.75 19 19.75H9.00002C8.58602 19.75 8.25002 19.414 8.25002 19C8.25002 18.586 8.58602 18.25 9.00002 18.25H17.189L5.46902 6.53005C5.17602 6.23705 5.17602 5.76202 5.46902 5.46902C5.76202 5.17602 6.23705 5.17602 6.53005 5.46902L18.25 17.189V9.00002C18.25 8.58602 18.586 8.25002 19 8.25002C19.414 8.25002 19.75 8.58602 19.75 9.00002V19Z" />
</svg>
