<svg viewBox="0 0 24 24" fill="currentColor" stroke="currentColor" xmlns="http://www.w3.org/2000/svg">
<path d="M21.7501 6V11C21.7501 13.068 20.0671 14.75 18.0001 14.75H4.81115L7.53112 17.47C7.82412 17.763 7.82412 18.238 7.53112 18.531C7.38512 18.677 7.19309 18.751 7.00109 18.751C6.80909 18.751 6.61706 18.678 6.47106 18.531L2.47106 14.531C2.40206 14.462 2.3472 14.3791 2.3092 14.2871C2.2332 14.1041 2.2332 13.8971 2.3092 13.7141C2.3472 13.6221 2.40206 13.539 2.47106 13.47L6.47106 9.46997C6.76406 9.17697 7.2391 9.17697 7.5321 9.46997C7.8251 9.76297 7.8251 10.238 7.5321 10.531L4.81213 13.251H18.0001C19.2401 13.251 20.2501 12.242 20.2501 11.001V6.00098C20.2501 5.58698 20.5861 5.25098 21.0001 5.25098C21.4141 5.25098 21.7501 5.586 21.7501 6Z" />
</svg>
