<svg viewBox="0 0 24 24" fill="currentColor" stroke="currentColor" xmlns="http://www.w3.org/2000/svg">
<path d="M17.25 12V13.5C17.25 14.741 16.24 15.75 15 15.75H9.31104L9.53101 15.97C9.82401 16.263 9.82401 16.738 9.53101 17.031C9.38501 17.177 9.19298 17.251 9.00098 17.251C8.80898 17.251 8.61695 17.178 8.47095 17.031L6.97095 15.531C6.90195 15.462 6.84708 15.3791 6.80908 15.2871C6.73308 15.1041 6.73308 14.8971 6.80908 14.7141C6.84708 14.6221 6.90195 14.539 6.97095 14.47L8.47095 12.97C8.76395 12.677 9.23898 12.677 9.53198 12.97C9.82498 13.263 9.82498 13.738 9.53198 14.031L9.31201 14.251H15C15.413 14.251 15.75 13.915 15.75 13.501V12.001C15.75 11.587 16.086 11.251 16.5 11.251C16.914 11.251 17.25 11.586 17.25 12ZM17.03 8.46997L15.53 6.96997C15.237 6.67697 14.762 6.67697 14.469 6.96997C14.176 7.26297 14.176 7.73801 14.469 8.03101L14.689 8.25098H9C7.76 8.25098 6.75 9.25998 6.75 10.501V12.001C6.75 12.415 7.086 12.751 7.5 12.751C7.914 12.751 8.25 12.415 8.25 12.001V10.501C8.25 10.087 8.587 9.75098 9 9.75098H14.689L14.469 9.97095C14.176 10.2639 14.176 10.739 14.469 11.032C14.615 11.178 14.807 11.252 14.999 11.252C15.191 11.252 15.3831 11.179 15.5291 11.032L17.0291 9.53198C17.0981 9.46298 17.1529 9.38009 17.1909 9.28809C17.2669 9.10509 17.2669 8.89809 17.1909 8.71509C17.1539 8.62209 17.099 8.53897 17.03 8.46997ZM22.75 12C22.75 17.928 17.928 22.75 12 22.75C6.072 22.75 1.25 17.928 1.25 12C1.25 6.072 6.072 1.25 12 1.25C17.928 1.25 22.75 6.072 22.75 12ZM21.25 12C21.25 6.899 17.101 2.75 12 2.75C6.899 2.75 2.75 6.899 2.75 12C2.75 17.101 6.899 21.25 12 21.25C17.101 21.25 21.25 17.101 21.25 12Z" />
</svg>
