<svg viewBox="0 0 24 24" fill="currentColor" stroke="currentColor" xmlns="http://www.w3.org/2000/svg">
<path d="M12 1.25C6.072 1.25 1.25 6.072 1.25 12C1.25 17.928 6.072 22.75 12 22.75C17.928 22.75 22.75 17.928 22.75 12C22.75 6.072 17.928 1.25 12 1.25ZM12 21.25C6.899 21.25 2.75 17.101 2.75 12C2.75 6.899 6.899 2.75 12 2.75C17.101 2.75 21.25 6.899 21.25 12C21.25 17.101 17.101 21.25 12 21.25ZM15.75 11V15C15.75 15.098 15.7299 15.1951 15.6919 15.2871C15.6159 15.4701 15.4701 15.6159 15.2871 15.6919C15.1951 15.7299 15.098 15.75 15 15.75H11C10.586 15.75 10.25 15.414 10.25 15C10.25 14.586 10.586 14.25 11 14.25H13.189L8.46899 9.53003C8.17599 9.23703 8.17599 8.76199 8.46899 8.46899C8.76199 8.17599 9.23703 8.17599 9.53003 8.46899L14.25 13.189V11C14.25 10.586 14.586 10.25 15 10.25C15.414 10.25 15.75 10.586 15.75 11Z" />
</svg>
