<svg viewBox="0 0 24 24" fill="currentColor" stroke="currentColor" xmlns="http://www.w3.org/2000/svg">
<path d="M6.46997 12.53C6.17697 12.237 6.17697 11.762 6.46997 11.469C6.76297 11.176 7.23801 11.176 7.53101 11.469L11.251 15.189V3C11.251 2.586 11.587 2.25 12.001 2.25C12.415 2.25 12.751 2.586 12.751 3V15.189L16.4709 11.469C16.7639 11.176 17.239 11.176 17.532 11.469C17.825 11.762 17.825 12.237 17.532 12.53L12.532 17.53C12.463 17.599 12.3801 17.6539 12.2891 17.6919C12.1981 17.7299 12.1 17.75 12.002 17.75C11.904 17.75 11.8071 17.7299 11.7151 17.6919C11.6231 17.6539 11.5409 17.599 11.4719 17.53L6.46997 12.53ZM18 20.25H6C5.586 20.25 5.25 20.586 5.25 21C5.25 21.414 5.586 21.75 6 21.75H18C18.414 21.75 18.75 21.414 18.75 21C18.75 20.586 18.414 20.25 18 20.25Z" />
</svg>
