<svg viewBox="0 0 24 24" fill="currentColor" stroke="currentColor" xmlns="http://www.w3.org/2000/svg">
<path d="M17.75 6V12C17.75 12.414 17.414 12.75 17 12.75C16.586 12.75 16.25 12.414 16.25 12V7.81104L6.53005 17.531C6.38405 17.677 6.19202 17.751 6.00002 17.751C5.80802 17.751 5.61599 17.678 5.46999 17.531C5.17699 17.238 5.17699 16.763 5.46999 16.47L15.19 6.75H11C10.586 6.75 10.25 6.414 10.25 6C10.25 5.586 10.586 5.25 11 5.25H17C17.098 5.25 17.1951 5.27011 17.2871 5.30811C17.4701 5.38411 17.6161 5.53011 17.6931 5.71411C17.7301 5.80511 17.75 5.902 17.75 6Z" />
</svg>
