<svg viewBox="0 0 24 24" fill="currentColor" stroke="currentColor" xmlns="http://www.w3.org/2000/svg">
<path d="M17.229 13.0769C17.325 13.4799 17.0761 13.884 16.6721 13.98C16.6131 13.994 16.556 14 16.498 14C16.158 14 15.851 13.7681 15.769 13.4231C15.362 11.7021 13.8361 10.5 12.0591 10.5C10.8521 10.5 9.73801 11.074 9.03101 12H9.74902C10.163 12 10.499 12.336 10.499 12.75C10.499 13.164 10.163 13.5 9.74902 13.5H7.49902C7.08502 13.5 6.74902 13.164 6.74902 12.75V10.502C6.74902 10.088 7.08502 9.75195 7.49902 9.75195C7.91302 9.75195 8.24902 10.088 8.24902 10.502V10.6299C9.23002 9.61688 10.5931 9 12.0601 9C14.5361 9 16.662 10.6769 17.229 13.0769ZM22.75 12C22.75 17.928 17.928 22.75 12 22.75C6.072 22.75 1.25 17.928 1.25 12C1.25 6.072 6.072 1.25 12 1.25C17.928 1.25 22.75 6.072 22.75 12ZM21.25 12C21.25 6.899 17.101 2.75 12 2.75C6.899 2.75 2.75 6.899 2.75 12C2.75 17.101 6.899 21.25 12 21.25C17.101 21.25 21.25 17.101 21.25 12Z" />
</svg>
