<svg viewBox="0 0 24 24" fill="currentColor" stroke="currentColor" xmlns="http://www.w3.org/2000/svg">
<path d="M21.5301 3.53005L15.8101 9.25002H20C20.414 9.25002 20.75 9.58602 20.75 10C20.75 10.414 20.414 10.75 20 10.75H14C13.902 10.75 13.8049 10.7299 13.7129 10.6919C13.5299 10.6159 13.3841 10.4701 13.3081 10.2871C13.2701 10.1951 13.25 10.098 13.25 10V4.00002C13.25 3.58602 13.586 3.25002 14 3.25002C14.414 3.25002 14.75 3.58602 14.75 4.00002V8.18899L20.47 2.46902C20.763 2.17602 21.238 2.17602 21.531 2.46902C21.824 2.76202 21.8231 3.23705 21.5301 3.53005ZM10.2871 13.3081C10.1951 13.2701 10.098 13.25 10 13.25H4.00002C3.58602 13.25 3.25002 13.586 3.25002 14C3.25002 14.414 3.58602 14.75 4.00002 14.75H8.18899L2.46902 20.47C2.17602 20.763 2.17602 21.238 2.46902 21.531C2.61502 21.677 2.80705 21.751 2.99905 21.751C3.19105 21.751 3.38308 21.678 3.52908 21.531L9.24905 15.8111V20C9.24905 20.414 9.58505 20.75 9.99905 20.75C10.413 20.75 10.749 20.414 10.749 20V14C10.749 13.902 10.7289 13.8049 10.6909 13.7129C10.6159 13.5299 10.4701 13.3841 10.2871 13.3081Z" />
</svg>
