<svg viewBox="0 0 24 24" fill="currentColor" stroke="currentColor" xmlns="http://www.w3.org/2000/svg">
<path d="M17.625 2.25H6.375C3.715 2.25 2.25 3.715 2.25 6.375V17.625C2.25 20.285 3.715 21.75 6.375 21.75H17.625C20.285 21.75 21.75 20.285 21.75 17.625V6.375C21.75 3.715 20.285 2.25 17.625 2.25ZM20.25 17.625C20.25 19.465 19.465 20.25 17.625 20.25H6.375C4.535 20.25 3.75 19.465 3.75 17.625V6.375C3.75 4.535 4.535 3.75 6.375 3.75H17.625C19.465 3.75 20.25 4.535 20.25 6.375V17.625ZM15.53 12.47C15.823 12.763 15.823 13.238 15.53 13.531L12.53 16.531C12.461 16.6 12.3781 16.6551 12.2871 16.6931C12.1961 16.7311 12.098 16.751 12 16.751C11.902 16.751 11.8049 16.7311 11.7129 16.6931C11.6209 16.6551 11.539 16.6 11.47 16.531L8.46997 13.531C8.17697 13.238 8.17697 12.763 8.46997 12.47C8.76297 12.177 9.23801 12.177 9.53101 12.47L11.251 14.1899V8C11.251 7.586 11.587 7.25 12.001 7.25C12.415 7.25 12.751 7.586 12.751 8V14.189L14.4709 12.469C14.7629 12.177 15.237 12.177 15.53 12.47Z" />
</svg>
