<svg viewBox="0 0 24 24" fill="currentColor" stroke="currentColor" xmlns="http://www.w3.org/2000/svg">
<path d="M18.53 6.53005L6.81006 18.25H15C15.414 18.25 15.75 18.586 15.75 19C15.75 19.414 15.414 19.75 15 19.75H5C4.902 19.75 4.80489 19.7299 4.71289 19.6919C4.52989 19.6159 4.38411 19.4701 4.30811 19.2871C4.27011 19.1951 4.25 19.098 4.25 19V9.00002C4.25 8.58602 4.586 8.25002 5 8.25002C5.414 8.25002 5.75 8.58602 5.75 9.00002V17.189L17.47 5.46902C17.763 5.17602 18.238 5.17602 18.531 5.46902C18.824 5.76202 18.823 6.23705 18.53 6.53005Z" />
</svg>
