<svg viewBox="0 0 24 24" fill="currentColor" stroke="currentColor" xmlns="http://www.w3.org/2000/svg">
<path d="M21.7501 13.5C21.7501 16.395 19.3951 18.75 16.5001 18.75H6.00012C5.58612 18.75 5.25012 18.414 5.25012 18C5.25012 17.586 5.58612 17.25 6.00012 17.25H16.5001C18.5671 17.25 20.2501 15.568 20.2501 13.5C20.2501 11.432 18.5671 9.75002 16.5001 9.75002H4.81115L6.53112 11.47C6.82412 11.763 6.82412 12.238 6.53112 12.531C6.38512 12.677 6.19309 12.751 6.00109 12.751C5.80909 12.751 5.61706 12.678 5.47106 12.531L2.47106 9.53103C2.40206 9.46203 2.3472 9.37913 2.3092 9.28713C2.2332 9.10413 2.2332 8.89713 2.3092 8.71413C2.3472 8.62213 2.40206 8.53899 2.47106 8.46999L5.47106 5.46999C5.76406 5.17699 6.2391 5.17699 6.5321 5.46999C6.8251 5.76299 6.8251 6.23803 6.5321 6.53103L4.81213 8.251H16.5011C19.3951 8.25 21.7501 10.605 21.7501 13.5Z" />
</svg>
