<svg viewBox="0 0 24 24" fill="currentColor" stroke="currentColor" xmlns="http://www.w3.org/2000/svg">
<path d="M17.53 6.53005L7.81006 16.25H12C12.414 16.25 12.75 16.586 12.75 17C12.75 17.414 12.414 17.75 12 17.75H6C5.902 17.75 5.80489 17.7299 5.71289 17.6919C5.52989 17.6159 5.38411 17.4701 5.30811 17.2871C5.27011 17.1951 5.25 17.098 5.25 17V11C5.25 10.586 5.586 10.25 6 10.25C6.414 10.25 6.75 10.586 6.75 11V15.189L16.47 5.46902C16.763 5.17602 17.238 5.17602 17.531 5.46902C17.824 5.76202 17.823 6.23705 17.53 6.53005Z" />
</svg>
