<svg viewBox="0 0 24 24" fill="currentColor" stroke="currentColor" xmlns="http://www.w3.org/2000/svg">
<path d="M12 1.25C6.072 1.25 1.25 6.072 1.25 12C1.25 17.928 6.072 22.75 12 22.75C17.928 22.75 22.75 17.928 22.75 12C22.75 6.072 17.928 1.25 12 1.25ZM12 21.25C6.899 21.25 2.75 17.101 2.75 12C2.75 6.899 6.899 2.75 12 2.75C17.101 2.75 21.25 6.899 21.25 12C21.25 17.101 17.101 21.25 12 21.25ZM13.9641 7.40405C13.3821 7.13305 12.7091 7.22194 12.2151 7.63794L8.75293 10.5569C8.32693 10.9159 8.08301 11.441 8.08301 11.999C8.08301 12.557 8.32693 13.0819 8.75293 13.4399L12.2151 16.3601C12.5201 16.6171 12.892 16.75 13.269 16.75C13.503 16.75 13.7411 16.699 13.9641 16.595C14.5521 16.322 14.917 15.7479 14.917 15.0979V8.90088C14.917 8.25088 14.5521 7.67805 13.9641 7.40405ZM13.417 15.0991C13.417 15.1631 13.389 15.2091 13.332 15.2361C13.248 15.2761 13.1989 15.2301 13.1819 15.2151L9.71997 12.2949C9.60197 12.1949 9.58301 12.068 9.58301 12.001C9.58301 11.934 9.60197 11.8061 9.71997 11.7061L13.1819 8.78589C13.1949 8.77589 13.224 8.75098 13.27 8.75098C13.288 8.75098 13.309 8.75511 13.332 8.76611C13.389 8.79211 13.417 8.83808 13.417 8.90308V15.0991Z" />
</svg>
