<svg viewBox="0 0 24 24" fill="currentColor" stroke="currentColor" xmlns="http://www.w3.org/2000/svg">
<path d="M10.75 5.99995V21C10.75 21.3029 10.5671 21.5771 10.2871 21.6931C10.1941 21.7321 10.097 21.75 10 21.75C9.80502 21.75 9.61299 21.674 9.46999 21.53L4.46999 16.53C4.17699 16.237 4.17699 15.7619 4.46999 15.4689C4.76299 15.1759 5.23803 15.1759 5.53103 15.4689L9.251 19.1889V5.99995C9.251 5.58595 9.587 5.24995 10.001 5.24995C10.415 5.24995 10.75 5.58595 10.75 5.99995ZM20.5301 7.46992L15.5301 2.46992C15.3161 2.25592 14.9919 2.19084 14.7129 2.30684C14.4329 2.42284 14.25 2.69695 14.25 2.99995V18C14.25 18.4139 14.586 18.75 15 18.75C15.414 18.75 15.75 18.4139 15.75 18V4.81099L19.47 8.53096C19.763 8.82396 20.238 8.82396 20.531 8.53096C20.824 8.23796 20.8231 7.76292 20.5301 7.46992Z" />
</svg>
