<svg viewBox="0 0 24 24" fill="currentColor" stroke="currentColor" xmlns="http://www.w3.org/2000/svg">
<path d="M17.6931 13.2129C17.8081 13.4929 17.745 13.816 17.53 14.03L14.53 17.03C14.384 17.176 14.192 17.25 14 17.25C13.808 17.25 13.616 17.177 13.47 17.03C13.177 16.737 13.177 16.262 13.47 15.969L15.1899 14.249H9C8.586 14.249 8.25 13.913 8.25 13.499C8.25 13.085 8.586 12.749 9 12.749H17C17.304 12.75 17.5771 12.9329 17.6931 13.2129ZM15.75 10.5C15.75 10.086 15.414 9.75 15 9.75H8.81104L10.531 8.03003C10.824 7.73703 10.824 7.26199 10.531 6.96899C10.238 6.67599 9.76297 6.67599 9.46997 6.96899L6.46997 9.96899C6.25497 10.183 6.19188 10.5059 6.30688 10.7859C6.42288 11.0659 6.697 11.249 7 11.249H15C15.414 11.25 15.75 10.914 15.75 10.5ZM22.75 12C22.75 17.928 17.928 22.75 12 22.75C6.072 22.75 1.25 17.928 1.25 12C1.25 6.072 6.072 1.25 12 1.25C17.928 1.25 22.75 6.072 22.75 12ZM21.25 12C21.25 6.899 17.101 2.75 12 2.75C6.899 2.75 2.75 6.899 2.75 12C2.75 17.101 6.899 21.25 12 21.25C17.101 21.25 21.25 17.101 21.25 12Z" />
</svg>
