<svg viewBox="0 0 24 24" fill="currentColor" stroke="currentColor" xmlns="http://www.w3.org/2000/svg">
<path d="M19.25 8V5.81104L13.061 12L19.25 18.189V16C19.25 15.586 19.586 15.25 20 15.25C20.414 15.25 20.75 15.586 20.75 16V20C20.75 20.098 20.7299 20.1951 20.6919 20.2871C20.6159 20.4701 20.4701 20.6159 20.2871 20.6919C20.1951 20.7299 20.098 20.75 20 20.75H16C15.586 20.75 15.25 20.414 15.25 20C15.25 19.586 15.586 19.25 16 19.25H18.189L12 13.061L5.81104 19.25H8C8.414 19.25 8.75 19.586 8.75 20C8.75 20.414 8.414 20.75 8 20.75H4C3.902 20.75 3.80489 20.7299 3.71289 20.6919C3.52989 20.6159 3.38411 20.4701 3.30811 20.2871C3.27011 20.1951 3.25 20.098 3.25 20V16C3.25 15.586 3.586 15.25 4 15.25C4.414 15.25 4.75 15.586 4.75 16V18.189L10.939 12L4.75 5.81104V8C4.75 8.414 4.414 8.75 4 8.75C3.586 8.75 3.25 8.414 3.25 8V4C3.25 3.902 3.27011 3.80489 3.30811 3.71289C3.38411 3.52989 3.53011 3.38388 3.71411 3.30688C3.80611 3.26888 3.90298 3.24902 4.00098 3.24902H8.00098C8.41498 3.24902 8.75098 3.58502 8.75098 3.99902C8.75098 4.41302 8.41498 4.74902 8.00098 4.74902H5.81201L12.001 10.938L18.1899 4.74902H16C15.586 4.74902 15.25 4.41302 15.25 3.99902C15.25 3.58502 15.586 3.24902 16 3.24902H20C20.098 3.24902 20.1951 3.26888 20.2871 3.30688C20.4701 3.38288 20.6161 3.52889 20.6931 3.71289C20.7311 3.80489 20.751 3.902 20.751 4V8C20.751 8.414 20.415 8.75 20.001 8.75C19.587 8.75 19.25 8.414 19.25 8Z" />
</svg>
