<svg viewBox="0 0 24 24" fill="currentColor" stroke="currentColor" xmlns="http://www.w3.org/2000/svg">
<path d="M17.625 2.25H6.375C3.715 2.25 2.25 3.715 2.25 6.375V17.625C2.25 20.285 3.715 21.75 6.375 21.75H17.625C20.285 21.75 21.75 20.285 21.75 17.625V6.375C21.75 3.715 20.285 2.25 17.625 2.25ZM20.25 17.625C20.25 19.465 19.465 20.25 17.625 20.25H6.375C4.535 20.25 3.75 19.465 3.75 17.625V6.375C3.75 4.535 4.535 3.75 6.375 3.75H17.625C19.465 3.75 20.25 4.535 20.25 6.375V17.625ZM16.75 8.44604V10.668C16.75 11.082 16.414 11.418 16 11.418H13.7771C13.3631 11.418 13.0271 11.082 13.0271 10.668C13.0271 10.254 13.3631 9.91797 13.7771 9.91797H14.4829C13.8789 9.19797 12.979 8.75098 12 8.75098C10.208 8.75098 8.75 10.209 8.75 12.001C8.75 13.793 10.208 15.251 12 15.251C13.242 15.251 14.3569 14.5591 14.9099 13.4451C15.0939 13.0751 15.541 12.9219 15.916 13.1069C16.287 13.2919 16.4379 13.7411 16.2539 14.1121C15.4449 15.7391 13.816 16.751 12 16.751C9.381 16.751 7.25 14.62 7.25 12.001C7.25 9.38198 9.381 7.25098 12 7.25098C13.236 7.25098 14.388 7.73397 15.25 8.54297V8.44507C15.25 8.03107 15.586 7.69507 16 7.69507C16.414 7.69507 16.75 8.03204 16.75 8.44604Z" />
</svg>
