<svg viewBox="0 0 24 24" fill="currentColor" stroke="currentColor" xmlns="http://www.w3.org/2000/svg">
<path d="M13.354 12.646C13.549 12.841 13.549 13.158 13.354 13.353C13.256 13.451 13.128 13.499 13 13.499C12.872 13.499 12.744 13.45 12.646 13.353L11.646 12.353C11.552 12.259 11.5 12.132 11.5 11.999V10.499C11.5 10.223 11.724 9.99902 12 9.99902C12.276 9.99902 12.5 10.223 12.5 10.499V11.792L13.354 12.646ZM21 11.999C21 16.969 16.971 20.998 12.001 20.998C10.661 20.998 9.38099 20.698 8.24099 20.168C7.80099 19.958 7.29107 19.958 6.82107 20.108L4.32107 20.948C3.54107 21.208 2.79105 20.458 3.05105 19.678L3.89113 17.178C4.04113 16.708 4.04108 16.198 3.83108 15.758C3.30108 14.618 3.001 13.338 3.001 11.999C3.001 7.02902 7.03002 3 12 3C16.97 3 21 7.02902 21 11.999ZM16 12C16 9.791 14.209 8 12 8C9.79102 8 8.00002 9.791 8.00002 12C8.00002 14.209 9.79102 16 12 16C14.209 16 16 14.209 16 12Z" />
</svg>
