<svg viewBox="0 0 24 24" fill="currentColor" stroke="currentColor" xmlns="http://www.w3.org/2000/svg">
<path d="M10.6211 3.10301C7.32013 3.59401 4.50113 5.96401 3.46513 9.13701C2.69813 11.486 2.93502 13.823 3.83402 15.757C4.04402 16.197 4.04408 16.707 3.89408 17.177L3.054 19.676C2.79 20.461 3.53902 21.21 4.32402 20.946L6.82402 20.106C7.29401 19.956 7.80394 19.956 8.24394 20.166C9.38394 20.696 10.663 20.996 12.003 20.996C12.506 20.996 13.002 20.957 13.481 20.878C13.659 20.849 13.76 20.667 13.71 20.494C13.544 19.908 13.472 19.283 13.514 18.63C13.69 15.93 15.9341 13.685 18.6351 13.509C19.2881 13.467 19.9121 13.539 20.4991 13.705C20.6721 13.754 20.8531 13.653 20.8831 13.476C20.9621 12.997 21.001 12.501 21.001 11.998C21 6.57597 16.2021 2.27301 10.6211 3.10301ZM13 14.75H8.00004C7.58604 14.75 7.25004 14.414 7.25004 14C7.25004 13.586 7.58604 13.25 8.00004 13.25H13C13.414 13.25 13.75 13.586 13.75 14C13.75 14.414 13.414 14.75 13 14.75ZM16 10.75H8.00004C7.58604 10.75 7.25004 10.414 7.25004 9.99998C7.25004 9.58598 7.58604 9.24998 8.00004 9.24998H16C16.414 9.24998 16.75 9.58598 16.75 9.99998C16.75 10.414 16.414 10.75 16 10.75ZM21 18.75H16C15.586 18.75 15.25 18.414 15.25 18C15.25 17.586 15.586 17.25 16 17.25H21C21.414 17.25 21.75 17.586 21.75 18C21.75 18.414 21.414 18.75 21 18.75Z" />
</svg>
