<svg viewBox="0 0 24 24" fill="currentColor" stroke="currentColor" xmlns="http://www.w3.org/2000/svg">
<path d="M19.97 20.96L18.03 20.31C17.66 20.19 17.2699 20.19 16.9199 20.35C16.0399 20.76 15.04 21 14 21C12.08 21 10.333 20.222 9.07496 18.969C8.88496 18.78 9.04696 18.451 9.30396 18.472C14.47 18.941 18.945 14.466 18.47 9.29999C18.422 9.01399 18.7711 8.84598 19.0501 9.16998C20.9831 11.061 21.5821 14.444 20.3501 16.92C19.9281 17.66 20.79 19.242 20.96 19.97C21.16 20.58 20.58 21.16 19.97 20.96ZM17 9.99902C17 6.13402 13.866 3 10.001 3C6.13598 3 3.00196 6.13402 3.00196 9.99902C3.00196 11.041 3.23498 12.036 3.64698 12.923C3.81098 13.265 3.8111 13.662 3.6941 14.027L3.04102 15.971C2.83902 16.578 3.42206 17.161 4.02906 16.959L5.97291 16.306C6.33891 16.189 6.73491 16.189 7.07691 16.353C7.96291 16.765 8.95898 16.998 10.001 16.998C13.866 16.998 17 13.864 17 9.99902Z" />
</svg>
