<svg viewBox="0 0 24 24" fill="currentColor" stroke="currentColor" xmlns="http://www.w3.org/2000/svg">
<path d="M13.25 11C13.25 11.69 12.69 12.25 12 12.25C11.31 12.25 10.75 11.69 10.75 11C10.75 10.31 11.3 9.75 11.99 9.75H12C12.69 9.75 13.25 10.31 13.25 11ZM20.5 11C20.5 15.983 15.871 19.041 12.808 21.064L12.278 21.416C12.194 21.472 12.097 21.5 12.001 21.5C11.905 21.5 11.808 21.472 11.724 21.416L11.194 21.064C8.13097 19.041 3.50201 15.983 3.50201 11C3.50201 6.313 7.31501 2.5 12.002 2.5C16.689 2.5 20.5 6.313 20.5 11ZM15.82 10.3401C15.27 9.42009 14.05 7.87012 12 7.87012C9.95 7.87012 8.72999 9.42009 8.17999 10.3401C7.93999 10.7501 7.93999 11.2499 8.17999 11.6599C8.72999 12.5799 9.95 14.1201 12 14.1201C14.05 14.1201 15.27 12.5799 15.82 11.6599C16.06 11.2499 16.06 10.7501 15.82 10.3401Z" />
</svg>
