<svg viewBox="0 0 24 24" fill="currentColor" stroke="currentColor" xmlns="http://www.w3.org/2000/svg">
<path d="M12 2.5C7.313 2.5 3.5 6.313 3.5 11C3.5 15.983 8.129 19.041 11.192 21.064L11.722 21.416C11.806 21.472 11.903 21.5 11.999 21.5C12.095 21.5 12.192 21.472 12.276 21.416L12.806 21.064C15.869 19.041 20.498 15.983 20.498 11C20.5 6.313 16.687 2.5 12 2.5ZM15.03 10.197L11.697 13.53C11.551 13.676 11.359 13.75 11.167 13.75C10.975 13.75 10.783 13.677 10.637 13.53L8.97 11.863C8.677 11.57 8.677 11.095 8.97 10.802C9.263 10.509 9.73801 10.509 10.031 10.802L11.167 11.938L13.97 9.13501C14.263 8.84201 14.738 8.84201 15.031 9.13501C15.324 9.42801 15.323 9.90402 15.03 10.197Z" />
</svg>
