<svg viewBox="0 0 24 24" fill="currentColor" stroke="currentColor" xmlns="http://www.w3.org/2000/svg">
<path d="M12 2.5C7.313 2.5 3.5 6.313 3.5 11C3.5 15.983 8.129 19.041 11.192 21.064L11.722 21.416C11.806 21.472 11.903 21.5 11.999 21.5C12.095 21.5 12.192 21.472 12.276 21.416L12.806 21.064C15.869 19.041 20.498 15.983 20.498 11C20.5 6.313 16.687 2.5 12 2.5ZM14.53 12.47C14.823 12.763 14.823 13.238 14.53 13.531C14.384 13.677 14.192 13.751 14 13.751C13.808 13.751 13.616 13.678 13.47 13.531L12 12.061L10.53 13.531C10.384 13.677 10.192 13.751 10 13.751C9.808 13.751 9.616 13.678 9.47 13.531C9.177 13.238 9.177 12.763 9.47 12.47L10.94 11L9.47 9.53003C9.177 9.23703 9.177 8.76199 9.47 8.46899C9.763 8.17599 10.238 8.17599 10.531 8.46899L12.001 9.93896L13.471 8.46899C13.764 8.17599 14.239 8.17599 14.532 8.46899C14.825 8.76199 14.825 9.23703 14.532 9.53003L13.062 11L14.53 12.47Z" />
</svg>
