<svg viewBox="0 0 24 24" fill="currentColor" stroke="currentColor" xmlns="http://www.w3.org/2000/svg">
<path d="M12 2.5C7.313 2.5 3.5 6.313 3.5 11C3.5 15.983 8.12899 19.041 11.192 21.064L11.722 21.416C11.806 21.472 11.903 21.5 11.999 21.5C12.095 21.5 12.192 21.472 12.276 21.416L12.806 21.064C15.869 19.041 20.498 15.983 20.498 11C20.5 6.313 16.687 2.5 12 2.5ZM10.219 14.5H8V12.281L11.979 8.28198L14.218 10.521L10.219 14.5ZM15.738 9.01196L14.918 9.82202L12.679 7.58203L13.489 6.76196C13.839 6.41196 14.399 6.41196 14.749 6.76196L15.739 7.75195C16.088 8.10195 16.088 8.66196 15.738 9.01196Z" />
</svg>
