<svg viewBox="0 0 24 24" fill="currentColor" stroke="currentColor" xmlns="http://www.w3.org/2000/svg">
<path d="M20.042 8.26711C20.346 9.14511 20.5 10.064 20.5 11C20.5 15.983 15.871 19.041 12.808 21.064L12.278 21.416C12.194 21.472 12.097 21.5 12.001 21.5C11.905 21.5 11.809 21.473 11.726 21.417L11.42 21.2161C10.602 20.6781 9.67401 20.0679 8.73901 19.3579C8.62401 19.2709 8.55199 19.1379 8.54199 18.9939C8.53198 18.8499 8.58498 18.709 8.68798 18.607L19.218 8.07693C19.339 7.95493 19.512 7.90414 19.684 7.94314C19.85 7.98114 19.986 8.10411 20.042 8.26711ZM21.53 2.46999C21.237 2.17699 20.762 2.17699 20.469 2.46999L17.966 4.97292C16.388 3.39692 14.257 2.501 11.999 2.501C7.30899 2.501 3.49899 6.311 3.49899 11.001C3.49899 13.122 4.32901 15.0681 6.01501 16.9241L2.46798 20.471C2.17498 20.764 2.17498 21.239 2.46798 21.532C2.61398 21.678 2.80598 21.752 2.99798 21.752C3.18998 21.752 3.38201 21.679 3.52801 21.532L21.528 3.53201C21.823 3.23701 21.823 2.76299 21.53 2.46999Z" />
</svg>
