<svg viewBox="0 0 24 24" fill="currentColor" stroke="currentColor" xmlns="http://www.w3.org/2000/svg">
<path d="M17.625 3H6.375C4.125 3 3 4.125 3 6.375V17.625C3 19.875 4.125 21 6.375 21H17.625C19.875 21 21 19.875 21 17.625V6.375C21 4.125 19.875 3 17.625 3ZM16.447 8.26709L12.718 16.1919C12.507 16.6399 11.853 16.5881 11.716 16.1111L11.171 14.2029C10.981 13.5379 10.462 13.0191 9.797 12.8291L7.88898 12.2839C7.41198 12.1479 7.35898 11.493 7.80798 11.282L15.733 7.55298C16.188 7.33898 16.661 7.81209 16.447 8.26709Z" />
</svg>
