<svg viewBox="0 0 24 24" fill="currentColor" stroke="currentColor" xmlns="http://www.w3.org/2000/svg">
<path d="M21.53 2.46997C21.237 2.17697 20.762 2.17697 20.469 2.46997L16.389 6.55103C15.368 5.72703 14.118 5.18404 12.741 5.04004C12.744 5.04004 12.747 5.04004 12.75 5.04004V3C12.75 2.59 12.41 2.25 12 2.25C11.59 2.25 11.25 2.59 11.25 3V5.04004C11.254 5.04004 11.258 5.04004 11.262 5.04004C7.98302 5.38304 5.38198 7.98294 5.03998 11.2629C5.03998 11.2589 5.04002 11.255 5.04102 11.251H3C2.59 11.251 2.25 11.591 2.25 12.001C2.25 12.411 2.59 12.751 3 12.751H5.03998C5.03998 12.748 5.03998 12.745 5.03998 12.741C5.18398 14.119 5.72603 15.3689 6.55103 16.3899L2.47101 20.4709C2.17801 20.7639 2.17801 21.239 2.47101 21.532C2.61701 21.678 2.80898 21.752 3.00098 21.752C3.19298 21.752 3.38501 21.679 3.53101 21.532L21.531 3.53198C21.823 3.23698 21.823 2.76297 21.53 2.46997ZM9.5 12C9.5 10.62 10.62 9.5 12 9.5C12.416 9.5 12.803 9.61104 13.149 9.79004L9.78998 13.1489C9.61098 12.8029 9.5 12.416 9.5 12ZM21 11.25H18.96C18.964 11.284 18.963 11.32 18.966 11.354C18.921 10.86 18.828 10.382 18.688 9.92603C18.622 9.71303 18.346 9.65404 18.189 9.81104L9.81201 18.188C9.65501 18.345 9.71403 18.622 9.92603 18.688C10.382 18.828 10.86 18.9211 11.354 18.9661C11.32 18.9621 11.284 18.964 11.25 18.96V21C11.25 21.41 11.59 21.75 12 21.75C12.41 21.75 12.75 21.41 12.75 21V18.95C12.746 18.95 12.743 18.9499 12.739 18.9509C12.85 18.9399 12.959 18.9369 13.072 18.9209C16.056 18.4799 18.479 16.056 18.921 13.073C18.938 12.96 18.94 12.851 18.951 12.74C18.951 12.744 18.951 12.747 18.95 12.751H21C21.41 12.751 21.75 12.411 21.75 12.001C21.75 11.591 21.41 11.25 21 11.25ZM11.618 18.9819C11.788 18.9909 11.959 18.9969 12.132 18.9929C11.958 18.9989 11.787 18.9919 11.618 18.9819ZM18.993 12.1321C18.996 11.9581 18.991 11.7879 18.982 11.6179C18.992 11.7879 18.999 11.9581 18.993 12.1321Z" />
</svg>
