<svg viewBox="0 0 24 24" fill="currentColor" stroke="currentColor" xmlns="http://www.w3.org/2000/svg">
<path d="M19 18C19 19.657 15.866 21 12 21C8.134 21 5 19.657 5 18C5 16.452 7.737 15.1781 11.25 15.0181V17C11.25 17.41 11.59 17.75 12 17.75C12.41 17.75 12.75 17.41 12.75 17V15.0181C16.263 15.1781 19 16.452 19 18ZM12.75 15.0181V10.9241C14.6 10.5721 16 8.952 16 7C16 4.791 14.209 3 12 3C9.791 3 8 4.791 8 7C8 8.952 9.4 10.5731 11.25 10.9241V15.0181C11.497 15.0071 11.746 15 12 15C12.254 15 12.503 15.0071 12.75 15.0181Z" />
</svg>
