<svg viewBox="0 0 24 24" fill="currentColor" stroke="currentColor" xmlns="http://www.w3.org/2000/svg">
<path d="M14.25 10C14.25 10.689 13.689 11.25 13 11.25H10.75V8.75H13C13.689 8.75 14.25 9.311 14.25 10ZM22 12C22 17.523 17.523 22 12 22C6.477 22 2 17.523 2 12C2 6.477 6.477 2 12 2C17.523 2 22 6.477 22 12ZM15.75 10C15.75 8.483 14.517 7.25 13 7.25H10C9.586 7.25 9.25 7.586 9.25 8V16C9.25 16.414 9.586 16.75 10 16.75C10.414 16.75 10.75 16.414 10.75 16V12.75H13C14.517 12.75 15.75 11.517 15.75 10Z" />
</svg>
