<svg viewBox="0 0 24 24" fill="currentColor" stroke="currentColor" xmlns="http://www.w3.org/2000/svg">
<path d="M20.94 16.96L18.593 6.35205C18.289 4.97805 17.285 4 15.878 4H13.051C12.885 4 12.751 4.13405 12.751 4.30005V7C12.751 7.41 12.411 7.75 12.001 7.75C11.591 7.75 11.251 7.41 11.251 7V4.30005C11.251 4.13405 11.117 4 10.951 4H8.124C6.717 4 5.713 4.97805 5.409 6.35205L3.062 16.96C2.717 18.521 3.90501 20 5.50301 20H10.952C11.118 20 11.252 19.866 11.252 19.7V17C11.252 16.59 11.592 16.25 12.002 16.25C12.412 16.25 12.752 16.59 12.752 17V19.7C12.752 19.866 12.886 20 13.052 20H18.501C20.097 20 21.285 18.521 20.94 16.96ZM12.75 13.5C12.75 13.914 12.414 14.25 12 14.25C11.586 14.25 11.25 13.914 11.25 13.5V10.5C11.25 10.086 11.586 9.75 12 9.75C12.414 9.75 12.75 10.086 12.75 10.5V13.5Z" />
</svg>
