<svg viewBox="0 0 24 24" fill="currentColor" stroke="currentColor" xmlns="http://www.w3.org/2000/svg">
<path d="M19.707 9.70703L16.853 12.561C16.572 12.842 16.19 13 15.792 13H5.845C4.614 13 3.99899 12.3851 3.99899 11.1541V6.84595C3.99899 5.61495 4.614 5 5.845 5H10.249V3C10.249 2.59 10.589 2.25 10.999 2.25C11.409 2.25 11.749 2.59 11.749 3V5H15.792C16.19 5 16.571 5.15796 16.853 5.43896L19.707 8.29297C20.098 8.68297 20.098 9.31703 19.707 9.70703ZM14 20.25H11.75V14.5H10.25V20.25H8C7.586 20.25 7.25 20.586 7.25 21C7.25 21.414 7.586 21.75 8 21.75H14C14.414 21.75 14.75 21.414 14.75 21C14.75 20.586 14.414 20.25 14 20.25Z" />
</svg>
