<svg viewBox="0 0 24 24" fill="currentColor" stroke="currentColor" xmlns="http://www.w3.org/2000/svg">
<path d="M17 4.5H16.5C16.5 3.229 15.771 2.5 14.5 2.5H9.5C8.229 2.5 7.5 3.229 7.5 4.5H7C4.71 4.5 3.5 5.71 3.5 8V18C3.5 20.29 4.71 21.5 7 21.5H17C19.29 21.5 20.5 20.29 20.5 18V8C20.5 5.71 19.29 4.5 17 4.5ZM8.5 4.5C8.5 3.78 8.78 3.5 9.5 3.5H14.5C15.22 3.5 15.5 3.78 15.5 4.5V5.5C15.5 6.22 15.22 6.5 14.5 6.5H9.5C8.78 6.5 8.5 6.22 8.5 5.5V4.5ZM19.5 18C19.5 19.729 18.729 20.5 17 20.5H7C5.271 20.5 4.5 19.729 4.5 18V8C4.5 6.271 5.271 5.5 7 5.5H7.5C7.5 6.771 8.229 7.5 9.5 7.5H14.5C15.771 7.5 16.5 6.771 16.5 5.5H17C18.729 5.5 19.5 6.271 19.5 8V18ZM14.1509 14.944C14.5739 14.375 14.833 13.678 14.833 12.917C14.833 11.033 13.301 9.5 11.417 9.5C9.53299 9.5 8 11.033 8 12.917C8 14.801 9.53299 16.334 11.417 16.334C12.178 16.334 12.8751 16.075 13.4441 15.652L15.146 17.354C15.244 17.452 15.372 17.5 15.5 17.5C15.628 17.5 15.756 17.451 15.854 17.354C16.049 17.159 16.049 16.842 15.854 16.647L14.1509 14.944ZM9 12.917C9 11.584 10.084 10.5 11.417 10.5C12.749 10.5 13.833 11.584 13.833 12.917C13.833 14.25 12.749 15.334 11.417 15.334C10.084 15.333 9 14.249 9 12.917Z" />
</svg>
