<svg viewBox="0 0 24 24" fill="currentColor" stroke="currentColor" xmlns="http://www.w3.org/2000/svg">
<path d="M17 4.5H16.5C16.5 3.229 15.771 2.5 14.5 2.5H9.5C8.229 2.5 7.5 3.229 7.5 4.5H7C4.71 4.5 3.5 5.71 3.5 8V18C3.5 20.29 4.71 21.5 7 21.5H17C19.29 21.5 20.5 20.29 20.5 18V8C20.5 5.71 19.29 4.5 17 4.5ZM8.5 4.5C8.5 3.78 8.78 3.5 9.5 3.5H14.5C15.22 3.5 15.5 3.78 15.5 4.5V5.5C15.5 6.22 15.22 6.5 14.5 6.5H9.5C8.78 6.5 8.5 6.22 8.5 5.5V4.5ZM19.5 18C19.5 19.729 18.729 20.5 17 20.5H7C5.271 20.5 4.5 19.729 4.5 18V8C4.5 6.271 5.271 5.5 7 5.5H7.5C7.5 6.771 8.229 7.5 9.5 7.5H14.5C15.771 7.5 16.5 6.771 16.5 5.5H17C18.729 5.5 19.5 6.271 19.5 8V18ZM14.854 11.313C15.049 11.508 15.049 11.825 14.854 12.02L11.521 15.353C11.423 15.451 11.295 15.499 11.167 15.499C11.039 15.499 10.911 15.45 10.813 15.353L9.146 13.686C8.951 13.491 8.951 13.174 9.146 12.979C9.341 12.784 9.65803 12.784 9.85303 12.979L11.166 14.292L14.145 11.312C14.342 11.118 14.658 11.118 14.854 11.313Z" />
</svg>
