<svg viewBox="0 0 24 24" fill="currentColor" stroke="currentColor" xmlns="http://www.w3.org/2000/svg">
<path d="M17 4.5H16.5C16.5 3.229 15.771 2.5 14.5 2.5H9.5C8.229 2.5 7.5 3.229 7.5 4.5H7C4.71 4.5 3.5 5.71 3.5 8V18C3.5 20.29 4.71 21.5 7 21.5H17C19.29 21.5 20.5 20.29 20.5 18V8C20.5 5.71 19.29 4.5 17 4.5ZM8.5 4.5C8.5 3.78 8.78 3.5 9.5 3.5H14.5C15.22 3.5 15.5 3.78 15.5 4.5V5.5C15.5 6.22 15.22 6.5 14.5 6.5H9.5C8.78 6.5 8.5 6.22 8.5 5.5V4.5ZM19.5 18C19.5 19.729 18.729 20.5 17 20.5H7C5.271 20.5 4.5 19.729 4.5 18V8C4.5 6.271 5.271 5.5 7 5.5H7.5C7.5 6.771 8.229 7.5 9.5 7.5H14.5C15.771 7.5 16.5 6.771 16.5 5.5H17C18.729 5.5 19.5 6.271 19.5 8V18ZM15 13.5C15 13.776 14.776 14 14.5 14H12.5V16C12.5 16.276 12.276 16.5 12 16.5C11.724 16.5 11.5 16.276 11.5 16V14H9.5C9.224 14 9 13.776 9 13.5C9 13.224 9.224 13 9.5 13H11.5V11C11.5 10.724 11.724 10.5 12 10.5C12.276 10.5 12.5 10.724 12.5 11V13H14.5C14.776 13 15 13.224 15 13.5Z" />
</svg>
