<svg viewBox="0 0 24 24" fill="currentColor" stroke="currentColor" xmlns="http://www.w3.org/2000/svg">
<path d="M17 4.5H16.5C16.5 3.229 15.771 2.5 14.5 2.5H9.5C8.229 2.5 7.5 3.229 7.5 4.5H7C4.71 4.5 3.5 5.71 3.5 8V18C3.5 20.29 4.71 21.5 7 21.5H17C19.29 21.5 20.5 20.29 20.5 18V8C20.5 5.71 19.29 4.5 17 4.5ZM8.5 4.5C8.5 3.78 8.78 3.5 9.5 3.5H14.5C15.22 3.5 15.5 3.78 15.5 4.5V5.5C15.5 6.22 15.22 6.5 14.5 6.5H9.5C8.78 6.5 8.5 6.22 8.5 5.5V4.5ZM19.5 18C19.5 19.729 18.729 20.5 17 20.5H7C5.271 20.5 4.5 19.729 4.5 18V8C4.5 6.271 5.271 5.5 7 5.5H7.5C7.5 6.771 8.229 7.5 9.5 7.5H14.5C15.771 7.5 16.5 6.771 16.5 5.5H17C18.729 5.5 19.5 6.271 19.5 8V18ZM14.354 11.854L12.708 13.5L14.354 15.146C14.549 15.341 14.549 15.658 14.354 15.853C14.256 15.951 14.128 15.999 14 15.999C13.872 15.999 13.744 15.95 13.646 15.853L12 14.207L10.354 15.853C10.256 15.951 10.128 15.999 10 15.999C9.872 15.999 9.744 15.95 9.646 15.853C9.451 15.658 9.451 15.341 9.646 15.146L11.292 13.5L9.646 11.854C9.451 11.659 9.451 11.342 9.646 11.147C9.841 10.952 10.158 10.952 10.353 11.147L11.999 12.793L13.645 11.147C13.84 10.952 14.1571 10.952 14.3521 11.147C14.5471 11.342 14.549 11.658 14.354 11.854Z" />
</svg>
