<svg viewBox="0 0 24 24" fill="currentColor" stroke="currentColor" xmlns="http://www.w3.org/2000/svg">
<path d="M17 4.5H16.5C16.5 3.229 15.771 2.5 14.5 2.5H9.5C8.229 2.5 7.5 3.229 7.5 4.5H7C4.71 4.5 3.5 5.71 3.5 8V18C3.5 20.29 4.71 21.5 7 21.5H17C19.29 21.5 20.5 20.29 20.5 18V8C20.5 5.71 19.29 4.5 17 4.5ZM8.5 4.5C8.5 3.78 8.78 3.5 9.5 3.5H14.5C15.22 3.5 15.5 3.78 15.5 4.5V5.5C15.5 6.22 15.22 6.5 14.5 6.5H9.5C8.78 6.5 8.5 6.22 8.5 5.5V4.5ZM19.5 18C19.5 19.729 18.729 20.5 17 20.5H7C5.271 20.5 4.5 19.729 4.5 18V8C4.5 6.271 5.271 5.5 7 5.5H7.5C7.5 6.771 8.229 7.5 9.5 7.5H14.5C15.771 7.5 16.5 6.771 16.5 5.5H17C18.729 5.5 19.5 6.271 19.5 8V18ZM17 12C17 12.276 16.776 12.5 16.5 12.5H12.5C12.224 12.5 12 12.276 12 12C12 11.724 12.224 11.5 12.5 11.5H16.5C16.776 11.5 17 11.724 17 12ZM17 16C17 16.276 16.776 16.5 16.5 16.5H12.5C12.224 16.5 12 16.276 12 16C12 15.724 12.224 15.5 12.5 15.5H16.5C16.776 15.5 17 15.724 17 16ZM9.854 10.98C10.049 11.175 10.049 11.492 9.854 11.687L8.521 13.02C8.427 13.114 8.29999 13.166 8.16699 13.166C8.03399 13.166 7.90699 13.113 7.81299 13.02L7.146 12.353C6.951 12.158 6.951 11.841 7.146 11.646C7.341 11.451 7.65803 11.451 7.85303 11.646L8.16602 11.959L9.14502 10.979C9.34202 10.784 9.658 10.784 9.854 10.98ZM9.854 14.98C10.049 15.175 10.049 15.492 9.854 15.687L8.521 17.02C8.427 17.114 8.29999 17.166 8.16699 17.166C8.03399 17.166 7.90699 17.113 7.81299 17.02L7.146 16.353C6.951 16.158 6.951 15.841 7.146 15.646C7.341 15.451 7.65803 15.451 7.85303 15.646L8.16602 15.959L9.14502 14.979C9.34202 14.784 9.658 14.784 9.854 14.98Z" />
</svg>
