<svg viewBox="0 0 24 24" fill="currentColor" stroke="currentColor" xmlns="http://www.w3.org/2000/svg">
<path d="M17 4.5H16.5C16.5 3.229 15.771 2.5 14.5 2.5H9.5C8.229 2.5 7.5 3.229 7.5 4.5H7C4.71 4.5 3.5 5.71 3.5 8V18C3.5 20.29 4.71 21.5 7 21.5H17C19.29 21.5 20.5 20.29 20.5 18V8C20.5 5.71 19.29 4.5 17 4.5ZM8.5 4.5C8.5 3.78 8.78 3.5 9.5 3.5H14.5C15.22 3.5 15.5 3.78 15.5 4.5V5.5C15.5 6.22 15.22 6.5 14.5 6.5H9.5C8.78 6.5 8.5 6.22 8.5 5.5V4.5ZM19.5 18C19.5 19.729 18.729 20.5 17 20.5H7C5.271 20.5 4.5 19.729 4.5 18V8C4.5 6.271 5.271 5.5 7 5.5H7.5C7.5 6.771 8.229 7.5 9.5 7.5H14.5C15.771 7.5 16.5 6.771 16.5 5.5H17C18.729 5.5 19.5 6.271 19.5 8V18ZM13.5491 10C13.5461 10 13.5421 10 13.5381 10C12.8081 10 12.314 10.341 12 10.696C11.686 10.341 11.1929 10 10.4619 10C10.4579 10 10.4539 10 10.4509 10C9.68693 10.004 9.04898 10.292 8.60498 10.834C8.06898 11.488 7.87595 12.442 8.07495 13.451C8.57595 15.989 11.6639 17.397 11.7959 17.456C11.8599 17.485 11.931 17.5 12 17.5C12.069 17.5 12.1401 17.485 12.2041 17.456C12.3361 17.397 15.424 15.989 15.925 13.451C16.124 12.442 15.931 11.488 15.396 10.834C14.952 10.292 14.3131 10.004 13.5491 10ZM14.9441 13.258C14.6081 14.956 12.644 16.107 12 16.443C11.355 16.107 9.39191 14.957 9.05591 13.259C8.91691 12.554 9.03791 11.885 9.37891 11.469C9.63091 11.161 9.99308 11.003 10.4551 11.001C10.4571 11.001 10.4589 11.001 10.4609 11.001C11.2319 11.001 11.5159 11.774 11.5259 11.804C11.5939 12.006 11.7841 12.14 11.9971 12.142C12.1641 12.155 12.4009 12.009 12.4729 11.808C12.4849 11.775 12.7691 11.002 13.5391 11.002C13.5411 11.002 13.5429 11.002 13.5449 11.002C14.0079 11.004 14.3701 11.161 14.6221 11.47C14.9621 11.883 15.0831 12.552 14.9441 13.258Z" />
</svg>
