<svg viewBox="0 0 24 24" fill="currentColor" stroke="currentColor" xmlns="http://www.w3.org/2000/svg">
<path d="M17 4.5H16.5C16.5 3.229 15.771 2.5 14.5 2.5H9.5C8.229 2.5 7.5 3.229 7.5 4.5H7C4.71 4.5 3.5 5.71 3.5 8V18C3.5 20.29 4.71 21.5 7 21.5H17C19.29 21.5 20.5 20.29 20.5 18V8C20.5 5.71 19.29 4.5 17 4.5ZM8.5 4.5C8.5 3.78 8.78 3.5 9.5 3.5H14.5C15.22 3.5 15.5 3.78 15.5 4.5V5.5C15.5 6.22 15.22 6.5 14.5 6.5H9.5C8.78 6.5 8.5 6.22 8.5 5.5V4.5ZM19.5 18C19.5 19.729 18.729 20.5 17 20.5H7C5.271 20.5 4.5 19.729 4.5 18V8C4.5 6.271 5.271 5.5 7 5.5H7.5C7.5 6.771 8.229 7.5 9.5 7.5H14.5C15.771 7.5 16.5 6.771 16.5 5.5H17C18.729 5.5 19.5 6.271 19.5 8V18ZM15.2361 12.187L13.5481 11.947L12.8191 10.502C12.5071 9.88201 11.491 9.88201 11.178 10.502L10.449 11.947L8.76099 12.187C8.41999 12.236 8.14406 12.468 8.03906 12.793C7.93506 13.115 8.02402 13.461 8.27002 13.696L9.48389 14.854L9.20801 16.433C9.14801 16.774 9.28497 17.113 9.56396 17.319C9.84696 17.527 10.22 17.558 10.533 17.396L11.949 16.619L13.4619 17.397C13.5959 17.466 13.741 17.5 13.885 17.5C14.077 17.5 14.2679 17.439 14.4309 17.32C14.7099 17.114 14.8459 16.775 14.7859 16.435L14.51 14.854L15.7251 13.696C15.9701 13.461 16.0591 13.115 15.9551 12.793C15.8541 12.468 15.5771 12.236 15.2361 12.187ZM13.7749 14.176C13.5629 14.379 13.4651 14.673 13.5161 14.962L13.7729 16.432L12.4089 15.73C12.2809 15.664 12.14 15.631 12 15.631C11.86 15.631 11.7191 15.664 11.5911 15.73L10.2271 16.432L10.4839 14.962C10.5349 14.673 10.4371 14.38 10.2241 14.176L9.14307 13.145L10.647 12.931C10.935 12.891 11.1851 12.712 11.3181 12.452L11.9771 11.051L12.6841 12.454C12.8161 12.712 13.066 12.89 13.353 12.93L14.8579 13.144L13.7749 14.176Z" />
</svg>
