<svg viewBox="0 0 24 24" fill="currentColor" stroke="currentColor" xmlns="http://www.w3.org/2000/svg">
<path d="M17 4.5H16.5C16.5 3.229 15.771 2.5 14.5 2.5H9.5C8.229 2.5 7.5 3.229 7.5 4.5H7C4.71 4.5 3.5 5.71 3.5 8V18C3.5 20.29 4.71 21.5 7 21.5H17C19.29 21.5 20.5 20.29 20.5 18V8C20.5 5.71 19.29 4.5 17 4.5ZM8.5 4.5C8.5 3.78 8.78 3.5 9.5 3.5H14.5C15.22 3.5 15.5 3.78 15.5 4.5V5.5C15.5 6.22 15.22 6.5 14.5 6.5H9.5C8.78 6.5 8.5 6.22 8.5 5.5V4.5ZM19.5 18C19.5 19.729 18.729 20.5 17 20.5H7C5.271 20.5 4.5 19.729 4.5 18V8C4.5 6.271 5.271 5.5 7 5.5H7.5C7.5 6.771 8.229 7.5 9.5 7.5H14.5C15.771 7.5 16.5 6.771 16.5 5.5H17C18.729 5.5 19.5 6.271 19.5 8V18ZM15.103 9.90698C14.84 9.64498 14.4921 9.5 14.1221 9.5C14.1211 9.5 14.1211 9.5 14.1201 9.5C13.7491 9.5 13.3989 9.646 13.1379 9.909L7.64697 15.425C7.55397 15.519 7.50098 15.645 7.50098 15.778V18C7.50098 18.276 7.72498 18.5 8.00098 18.5H10.2241C10.3561 18.5 10.4829 18.448 10.5769 18.354L16.093 12.863C16.357 12.601 16.501 12.252 16.502 11.881C16.502 11.509 16.357 11.16 16.095 10.896L15.103 9.90698ZM10.0171 17.5H8.5V15.984L12.3311 12.136L13.864 13.67L10.0171 17.5ZM15.386 12.155L14.573 12.965L13.0371 11.428L13.8459 10.615C13.9189 10.541 14.0171 10.5 14.1201 10.5H14.1211C14.2251 10.5 14.322 10.54 14.395 10.614L15.385 11.604C15.458 11.678 15.499 11.776 15.499 11.88C15.5 11.984 15.459 12.081 15.386 12.155Z" />
</svg>
