<svg viewBox="0 0 24 24" fill="currentColor" stroke="currentColor" xmlns="http://www.w3.org/2000/svg">
<path d="M14.5 8C14.5 8.276 14.276 8.5 14 8.5H10.5C10.224 8.5 10 8.276 10 8C10 7.724 10.224 7.5 10.5 7.5H14C14.276 7.5 14.5 7.724 14.5 8ZM14 11.5H10.5C10.224 11.5 10 11.724 10 12C10 12.276 10.224 12.5 10.5 12.5H14C14.276 12.5 14.5 12.276 14.5 12C14.5 11.724 14.276 11.5 14 11.5ZM14 15.5H10.5C10.224 15.5 10 15.724 10 16C10 16.276 10.224 16.5 10.5 16.5H14C14.276 16.5 14.5 16.276 14.5 16C14.5 15.724 14.276 15.5 14 15.5ZM7.146 7.146L6.5 7.79199L6.354 7.646C6.159 7.451 5.84197 7.451 5.64697 7.646C5.45197 7.841 5.45197 8.15803 5.64697 8.35303L6.14697 8.85303C6.24497 8.95103 6.37298 8.99902 6.50098 8.99902C6.62898 8.99902 6.75698 8.95003 6.85498 8.85303L7.85498 7.85303C8.04998 7.65803 8.04998 7.341 7.85498 7.146C7.65998 6.951 7.342 6.951 7.146 7.146ZM7.146 11.146L6.5 11.792L6.354 11.646C6.159 11.451 5.84197 11.451 5.64697 11.646C5.45197 11.841 5.45197 12.158 5.64697 12.353L6.14697 12.853C6.24497 12.951 6.37298 12.999 6.50098 12.999C6.62898 12.999 6.75698 12.95 6.85498 12.853L7.85498 11.853C8.04998 11.658 8.04998 11.341 7.85498 11.146C7.65998 10.951 7.342 10.951 7.146 11.146ZM7.146 15.146L6.5 15.792L6.354 15.646C6.159 15.451 5.84197 15.451 5.64697 15.646C5.45197 15.841 5.45197 16.158 5.64697 16.353L6.14697 16.853C6.24497 16.951 6.37298 16.999 6.50098 16.999C6.62898 16.999 6.75698 16.95 6.85498 16.853L7.85498 15.853C8.04998 15.658 8.04998 15.341 7.85498 15.146C7.65998 14.951 7.342 14.951 7.146 15.146ZM21.5 11.5V19C21.5 20.378 20.379 21.5 19 21.5H6C3.71 21.5 2.5 20.29 2.5 18V6C2.5 3.71 3.71 2.5 6 2.5H14C16.29 2.5 17.5 3.71 17.5 6V9.5H19.5C20.603 9.5 21.5 10.397 21.5 11.5ZM17.001 20.5C16.687 20.082 16.5 19.562 16.5 19V6C16.5 4.271 15.729 3.5 14 3.5H6C4.271 3.5 3.5 4.271 3.5 6V18C3.5 19.729 4.271 20.5 6 20.5H17.001ZM20.5 11.5C20.5 10.949 20.052 10.5 19.5 10.5H17.5V19C17.5 19.827 18.173 20.5 19 20.5C19.827 20.5 20.5 19.827 20.5 19V11.5Z" />
</svg>
