<svg viewBox="0 0 24 24" fill="currentColor" stroke="currentColor" xmlns="http://www.w3.org/2000/svg">
<path d="M13.5 12C13.5 12.276 13.276 12.5 13 12.5H7C6.724 12.5 6.5 12.276 6.5 12C6.5 11.724 6.724 11.5 7 11.5H13C13.276 11.5 13.5 11.724 13.5 12ZM7 8.5H10C10.276 8.5 10.5 8.276 10.5 8C10.5 7.724 10.276 7.5 10 7.5H7C6.724 7.5 6.5 7.724 6.5 8C6.5 8.276 6.724 8.5 7 8.5ZM13 15.5H7C6.724 15.5 6.5 15.724 6.5 16C6.5 16.276 6.724 16.5 7 16.5H13C13.276 16.5 13.5 16.276 13.5 16C13.5 15.724 13.276 15.5 13 15.5ZM21.5 11.5V19C21.5 20.378 20.379 21.5 19 21.5H6C3.71 21.5 2.5 20.29 2.5 18V6C2.5 3.71 3.71 2.5 6 2.5H14C16.29 2.5 17.5 3.71 17.5 6V9.5H19.5C20.603 9.5 21.5 10.397 21.5 11.5ZM17.001 20.5C16.687 20.082 16.5 19.562 16.5 19V6C16.5 4.271 15.729 3.5 14 3.5H6C4.271 3.5 3.5 4.271 3.5 6V18C3.5 19.729 4.271 20.5 6 20.5H17.001ZM20.5 11.5C20.5 10.949 20.052 10.5 19.5 10.5H17.5V19C17.5 19.827 18.173 20.5 19 20.5C19.827 20.5 20.5 19.827 20.5 19V11.5Z" />
</svg>
