<svg viewBox="0 0 24 24" fill="currentColor" stroke="currentColor" xmlns="http://www.w3.org/2000/svg">
<path d="M19.5 9.5H17.5V6C17.5 3.71 16.29 2.5 14 2.5H6C3.71 2.5 2.5 3.71 2.5 6V18C2.5 20.29 3.71 21.5 6 21.5H19C20.379 21.5 21.5 20.378 21.5 19V11.5C21.5 10.397 20.603 9.5 19.5 9.5ZM6 20.5C4.271 20.5 3.5 19.729 3.5 18V6C3.5 4.271 4.271 3.5 6 3.5H14C15.729 3.5 16.5 4.271 16.5 6V19C16.5 19.562 16.687 20.082 17.001 20.5H6ZM20.5 19C20.5 19.827 19.827 20.5 19 20.5C18.173 20.5 17.5 19.827 17.5 19V10.5H19.5C20.052 10.5 20.5 10.949 20.5 11.5V19ZM14 8C14 8.276 13.776 8.5 13.5 8.5H9C8.724 8.5 8.5 8.276 8.5 8C8.5 7.724 8.724 7.5 9 7.5H13.5C13.776 7.5 14 7.724 14 8ZM14 12C14 12.276 13.776 12.5 13.5 12.5H9C8.724 12.5 8.5 12.276 8.5 12C8.5 11.724 8.724 11.5 9 11.5H13.5C13.776 11.5 14 11.724 14 12ZM14 16C14 16.276 13.776 16.5 13.5 16.5H9C8.724 16.5 8.5 16.276 8.5 16C8.5 15.724 8.724 15.5 9 15.5H13.5C13.776 15.5 14 15.724 14 16ZM7.25 8C7.25 8.414 6.914 8.75 6.5 8.75C6.086 8.75 5.75 8.414 5.75 8C5.75 7.586 6.086 7.25 6.5 7.25C6.914 7.25 7.25 7.586 7.25 8ZM7.25 12C7.25 12.414 6.914 12.75 6.5 12.75C6.086 12.75 5.75 12.414 5.75 12C5.75 11.586 6.086 11.25 6.5 11.25C6.914 11.25 7.25 11.586 7.25 12ZM7.25 16C7.25 16.414 6.914 16.75 6.5 16.75C6.086 16.75 5.75 16.414 5.75 16C5.75 15.586 6.086 15.25 6.5 15.25C6.914 15.25 7.25 15.586 7.25 16Z" />
</svg>
