<svg viewBox="0 0 24 24" fill="currentColor" stroke="currentColor" xmlns="http://www.w3.org/2000/svg">
<path d="M17 2.5H7.5C5.21 2.5 4 3.71 4 6V7.5H3C2.724 7.5 2.5 7.724 2.5 8C2.5 8.276 2.724 8.5 3 8.5H4V15.5H3C2.724 15.5 2.5 15.724 2.5 16C2.5 16.276 2.724 16.5 3 16.5H4V18C4 20.29 5.21 21.5 7.5 21.5H17C19.29 21.5 20.5 20.29 20.5 18V6C20.5 3.71 19.29 2.5 17 2.5ZM19.5 18C19.5 19.729 18.729 20.5 17 20.5H7.5C5.771 20.5 5 19.729 5 18V16.5H6C6.276 16.5 6.5 16.276 6.5 16C6.5 15.724 6.276 15.5 6 15.5H5V8.5H6C6.276 8.5 6.5 8.276 6.5 8C6.5 7.724 6.276 7.5 6 7.5H5V6C5 4.271 5.771 3.5 7.5 3.5H17C18.729 3.5 19.5 4.271 19.5 6V18ZM15 6.5H10C9.061 6.5 8.5 7.061 8.5 8V11C8.5 11.939 9.061 12.5 10 12.5H15C15.939 12.5 16.5 11.939 16.5 11V8C16.5 7.061 15.939 6.5 15 6.5ZM15.5 11C15.5 11.393 15.393 11.5 15 11.5H10C9.607 11.5 9.5 11.393 9.5 11V8C9.5 7.607 9.607 7.5 10 7.5H15C15.393 7.5 15.5 7.607 15.5 8V11Z" />
</svg>
