<svg viewBox="0 0 24 24" fill="currentColor" stroke="currentColor" xmlns="http://www.w3.org/2000/svg">
<path d="M17 2.5H7C4.71 2.5 3.5 3.71 3.5 6V18C3.5 20.29 4.71 21.5 7 21.5H17C19.29 21.5 20.5 20.29 20.5 18V6C20.5 3.71 19.29 2.5 17 2.5ZM19.5 18C19.5 19.729 18.729 20.5 17 20.5H7C5.271 20.5 4.5 19.729 4.5 18V6C4.5 4.271 5.271 3.5 7 3.5H17C18.729 3.5 19.5 4.271 19.5 6V18ZM17 8C17 8.276 16.776 8.5 16.5 8.5H12.5C12.224 8.5 12 8.276 12 8C12 7.724 12.224 7.5 12.5 7.5H16.5C16.776 7.5 17 7.724 17 8ZM17 12C17 12.276 16.776 12.5 16.5 12.5H12.5C12.224 12.5 12 12.276 12 12C12 11.724 12.224 11.5 12.5 11.5H16.5C16.776 11.5 17 11.724 17 12ZM9.854 6.97998C10.049 7.17498 10.049 7.49201 9.854 7.68701L8.521 9.02002C8.423 9.11802 8.29499 9.16602 8.16699 9.16602C8.03899 9.16602 7.91099 9.11702 7.81299 9.02002L7.146 8.35303C6.951 8.15803 6.951 7.841 7.146 7.646C7.341 7.451 7.65803 7.451 7.85303 7.646L8.16602 7.95898L9.14502 6.97998C9.34202 6.78498 9.658 6.78498 9.854 6.97998ZM9.854 10.98C10.049 11.175 10.049 11.492 9.854 11.687L8.521 13.02C8.423 13.118 8.29499 13.166 8.16699 13.166C8.03899 13.166 7.91099 13.117 7.81299 13.02L7.146 12.353C6.951 12.158 6.951 11.841 7.146 11.646C7.341 11.451 7.65803 11.451 7.85303 11.646L8.16602 11.959L9.14502 10.98C9.34202 10.785 9.658 10.785 9.854 10.98ZM17 16C17 16.276 16.776 16.5 16.5 16.5H12.5C12.224 16.5 12 16.276 12 16C12 15.724 12.224 15.5 12.5 15.5H16.5C16.776 15.5 17 15.724 17 16ZM9.854 14.98C10.049 15.175 10.049 15.492 9.854 15.687L8.521 17.02C8.423 17.118 8.29499 17.166 8.16699 17.166C8.03899 17.166 7.91099 17.117 7.81299 17.02L7.146 16.353C6.951 16.158 6.951 15.841 7.146 15.646C7.341 15.451 7.65803 15.451 7.85303 15.646L8.16602 15.959L9.14502 14.98C9.34202 14.785 9.658 14.785 9.854 14.98Z" />
</svg>
