<svg viewBox="0 0 24 24" fill="currentColor" stroke="currentColor" xmlns="http://www.w3.org/2000/svg">
<path d="M17.625 2.5H6.375C3.84 2.5 2.5 3.84 2.5 6.375V17.625C2.5 20.16 3.84 21.5 6.375 21.5H17.625C20.16 21.5 21.5 20.16 21.5 17.625V6.375C21.5 3.84 20.16 2.5 17.625 2.5ZM20.5 17.625C20.5 19.586 19.587 20.5 17.625 20.5H6.375C4.413 20.5 3.5 19.586 3.5 17.625V6.375C3.5 4.414 4.413 3.5 6.375 3.5H17.625C19.587 3.5 20.5 4.414 20.5 6.375V17.625ZM16.5 9.5C16.5 9.776 16.276 10 16 10H8C7.724 10 7.5 9.776 7.5 9.5C7.5 9.224 7.724 9 8 9H16C16.276 9 16.5 9.224 16.5 9.5ZM13.5 14.5C13.5 14.776 13.276 15 13 15H8C7.724 15 7.5 14.776 7.5 14.5C7.5 14.224 7.724 14 8 14H13C13.276 14 13.5 14.224 13.5 14.5Z" />
</svg>
