<svg viewBox="0 0 24 24" fill="currentColor" stroke="currentColor" xmlns="http://www.w3.org/2000/svg">
<path d="M17 2.5H7C4.71 2.5 3.5 3.71 3.5 6V18C3.5 20.29 4.71 21.5 7 21.5H17C19.29 21.5 20.5 20.29 20.5 18V6C20.5 3.71 19.29 2.5 17 2.5ZM19.5 18C19.5 19.729 18.729 20.5 17 20.5H7C5.271 20.5 4.5 19.729 4.5 18V6C4.5 4.271 5.271 3.5 7 3.5H17C18.729 3.5 19.5 4.271 19.5 6V18ZM16.5 12C16.5 12.276 16.276 12.5 16 12.5H8C7.724 12.5 7.5 12.276 7.5 12C7.5 11.724 7.724 11.5 8 11.5H16C16.276 11.5 16.5 11.724 16.5 12ZM13.5 16C13.5 16.276 13.276 16.5 13 16.5H8C7.724 16.5 7.5 16.276 7.5 16C7.5 15.724 7.724 15.5 8 15.5H13C13.276 15.5 13.5 15.724 13.5 16ZM16.5 8C16.5 8.276 16.276 8.5 16 8.5H8C7.724 8.5 7.5 8.276 7.5 8C7.5 7.724 7.724 7.5 8 7.5H16C16.276 7.5 16.5 7.724 16.5 8Z" />
</svg>
