<svg viewBox="0 0 24 24" fill="currentColor" stroke="currentColor" xmlns="http://www.w3.org/2000/svg">
<path d="M16.5 11C16.5 11.276 16.276 11.5 16 11.5H8C7.724 11.5 7.5 11.276 7.5 11C7.5 10.724 7.724 10.5 8 10.5H16C16.276 10.5 16.5 10.724 16.5 11ZM13 14.5H8C7.724 14.5 7.5 14.724 7.5 15C7.5 15.276 7.724 15.5 8 15.5H13C13.276 15.5 13.5 15.276 13.5 15C13.5 14.724 13.276 14.5 13 14.5ZM21.5 6.82599V18.674C21.5 21.177 20.1761 22.5 17.6721 22.5H6.32788C3.82388 22.5 2.5 21.177 2.5 18.674V6.82599C2.5 4.32299 3.82388 3 6.32788 3H7.05591V2C7.05591 1.724 7.27991 1.5 7.55591 1.5C7.83191 1.5 8.05591 1.724 8.05591 2V3H11.5V2C11.5 1.724 11.724 1.5 12 1.5C12.276 1.5 12.5 1.724 12.5 2V3H15.9441V2C15.9441 1.724 16.1681 1.5 16.4441 1.5C16.7201 1.5 16.9441 1.724 16.9441 2V3H17.6721C20.1761 3 21.5 4.32299 21.5 6.82599ZM20.5 6.82599C20.5 4.89799 19.6021 4 17.6721 4H16.9441V5C16.9441 5.276 16.7201 5.5 16.4441 5.5C16.1681 5.5 15.9441 5.276 15.9441 5V4H12.5V5C12.5 5.276 12.276 5.5 12 5.5C11.724 5.5 11.5 5.276 11.5 5V4H8.05591V5C8.05591 5.276 7.83191 5.5 7.55591 5.5C7.27991 5.5 7.05591 5.276 7.05591 5V4H6.32788C4.39788 4 3.5 4.89799 3.5 6.82599V18.674C3.5 20.602 4.39788 21.5 6.32788 21.5H17.6721C19.6021 21.5 20.5 20.602 20.5 18.674V6.82599Z" />
</svg>
