<svg viewBox="0 0 24 24" fill="currentColor" stroke="currentColor" xmlns="http://www.w3.org/2000/svg">
<path d="M17.625 2.5H6.375C3.84 2.5 2.5 3.84 2.5 6.375V17.625C2.5 20.16 3.84 21.5 6.375 21.5H17.625C20.16 21.5 21.5 20.16 21.5 17.625V6.375C21.5 3.84 20.16 2.5 17.625 2.5ZM20.5 17.625C20.5 19.586 19.587 20.5 17.625 20.5H6.375C4.413 20.5 3.5 19.586 3.5 17.625V6.375C3.5 4.414 4.413 3.5 6.375 3.5H17.625C19.587 3.5 20.5 4.414 20.5 6.375V17.625ZM16.5 9.5C16.5 9.776 16.276 10 16 10H11C10.724 10 10.5 9.776 10.5 9.5C10.5 9.224 10.724 9 11 9H16C16.276 9 16.5 9.224 16.5 9.5ZM16.5 14.5C16.5 14.776 16.276 15 16 15H11C10.724 15 10.5 14.776 10.5 14.5C10.5 14.224 10.724 14 11 14H16C16.276 14 16.5 14.224 16.5 14.5ZM8.75 9.5C8.75 9.914 8.414 10.25 8 10.25C7.586 10.25 7.25 9.914 7.25 9.5C7.25 9.086 7.586 8.75 8 8.75C8.414 8.75 8.75 9.086 8.75 9.5ZM8.75 14.5C8.75 14.914 8.414 15.25 8 15.25C7.586 15.25 7.25 14.914 7.25 14.5C7.25 14.086 7.586 13.75 8 13.75C8.414 13.75 8.75 14.086 8.75 14.5Z" />
</svg>
