<svg viewBox="0 0 24 24" fill="currentColor" stroke="currentColor" xmlns="http://www.w3.org/2000/svg">
<path d="M17.625 2.5H6.375C3.84 2.5 2.5 3.84 2.5 6.375V17.625C2.5 20.16 3.84 21.5 6.375 21.5H17.625C20.16 21.5 21.5 20.16 21.5 17.625V6.375C21.5 3.84 20.16 2.5 17.625 2.5ZM20.5 17.625C20.5 19.586 19.587 20.5 17.625 20.5H6.375C4.413 20.5 3.5 19.586 3.5 17.625V6.375C3.5 4.414 4.413 3.5 6.375 3.5H17.625C19.587 3.5 20.5 4.414 20.5 6.375V17.625ZM17 9.5C17 9.776 16.776 10 16.5 10H12.5C12.224 10 12 9.776 12 9.5C12 9.224 12.224 9 12.5 9H16.5C16.776 9 17 9.224 17 9.5ZM17 14.5C17 14.776 16.776 15 16.5 15H12.5C12.224 15 12 14.776 12 14.5C12 14.224 12.224 14 12.5 14H16.5C16.776 14 17 14.224 17 14.5ZM9.854 8.47998C10.049 8.67498 10.049 8.99201 9.854 9.18701L8.521 10.52C8.423 10.618 8.29499 10.666 8.16699 10.666C8.03899 10.666 7.91099 10.617 7.81299 10.52L7.146 9.85303C6.951 9.65803 6.951 9.341 7.146 9.146C7.341 8.951 7.65803 8.951 7.85303 9.146L8.16602 9.45898L9.14502 8.47998C9.34202 8.28498 9.658 8.28498 9.854 8.47998ZM9.854 13.48C10.049 13.675 10.049 13.992 9.854 14.187L8.521 15.52C8.423 15.618 8.29499 15.666 8.16699 15.666C8.03899 15.666 7.91099 15.617 7.81299 15.52L7.146 14.853C6.951 14.658 6.951 14.341 7.146 14.146C7.341 13.951 7.65803 13.951 7.85303 14.146L8.16602 14.459L9.14502 13.48C9.34202 13.285 9.658 13.285 9.854 13.48Z" />
</svg>
