<svg viewBox="0 0 24 24" fill="currentColor" stroke="currentColor" xmlns="http://www.w3.org/2000/svg">
<path d="M19.2959 2.75203L12.731 1.59401C11.505 1.37601 10.503 1.53601 9.75098 2.06301C8.99798 2.59001 8.50702 3.47902 8.29102 4.70302L8.1521 5.48903L4.70093 6.09602C2.23093 6.53503 1.15793 8.07301 1.59693 10.542L3.14112 19.296C3.35312 20.52 3.84104 21.4071 4.59204 21.9351C5.12704 22.3101 5.78694 22.4981 6.56494 22.4981C6.88194 22.4981 7.21991 22.466 7.57691 22.403L14.146 21.247C16.025 20.906 16.8021 19.972 17.1121 19.12C17.2171 19.126 17.334 19.15 17.436 19.15C19.314 19.15 20.491 18.058 20.864 15.946L22.407 7.19203C22.841 4.72303 21.7659 3.18803 19.2959 2.75203ZM13.969 20.2641L7.4021 21.4201C6.4451 21.5901 5.695 21.4871 5.167 21.1181C4.641 20.7481 4.29098 20.079 4.12598 19.125L2.58106 10.369C2.24306 8.46504 2.97298 7.41999 4.87598 7.08199L7.96802 6.53804L6.74805 13.458C6.31205 15.928 7.38794 17.464 9.85694 17.899L16.0601 18.993C15.7251 19.642 15.048 20.0681 13.969 20.2641ZM21.4209 7.019L19.8779 15.773C19.5409 17.677 18.496 18.407 16.595 18.072L10.03 16.914C8.12603 16.578 7.39596 15.535 7.73096 13.631L9.27491 4.87703C9.44291 3.92303 9.79598 3.25204 10.324 2.88204C10.688 2.62804 11.1571 2.50002 11.7251 2.50002C11.9821 2.50002 12.2599 2.526 12.5569 2.579L19.1221 3.73702C21.0251 4.07302 21.7559 5.116 21.4209 7.019ZM18.3511 10.991C18.3081 11.234 18.0971 11.404 17.8601 11.404C17.8311 11.404 17.801 11.402 17.772 11.396L11.207 10.238C10.936 10.19 10.754 9.93101 10.802 9.65901C10.85 9.38601 11.1151 9.20505 11.3811 9.25405L17.946 10.412C18.217 10.46 18.3981 10.719 18.3511 10.991ZM19.051 7.73C19.008 7.973 18.7971 8.14302 18.5601 8.14302C18.5311 8.14302 18.5009 8.14103 18.4719 8.13503L11.907 6.97701C11.636 6.92901 11.454 6.67003 11.502 6.39803C11.55 6.12503 11.8171 5.943 12.0811 5.993L18.646 7.15102C18.917 7.19902 19.099 7.458 19.051 7.73ZM15.3081 13.853C15.2651 14.096 15.0539 14.266 14.8169 14.266C14.7879 14.266 14.758 14.264 14.729 14.258L10.625 13.534C10.354 13.486 10.172 13.227 10.22 12.955C10.269 12.682 10.5291 12.5 10.7991 12.55L14.9031 13.274C15.1741 13.321 15.3551 13.581 15.3081 13.853Z" />
</svg>
