<svg viewBox="0 0 24 24" fill="currentColor" stroke="currentColor" xmlns="http://www.w3.org/2000/svg">
<path d="M21.5 6.375C21.5 3.84 20.16 2.5 17.625 2.5H6.375C3.84 2.5 2.5 3.84 2.5 6.375V17.625C2.5 20.16 3.84 21.5 6.375 21.5H12.853C13.521 21.5 14.1549 21.316 14.7229 21H14.751V20.985C15.053 20.814 15.341 20.617 15.593 20.365L20.366 15.592C20.618 15.34 20.8151 15.052 20.9861 14.75H21V14.722C21.316 14.154 21.5 13.5201 21.5 12.8521V6.375ZM6.375 20.5C4.413 20.5 3.5 19.586 3.5 17.625V6.375C3.5 4.414 4.413 3.5 6.375 3.5H17.625C19.587 3.5 20.5 4.414 20.5 6.375V12.8521C20.5 13.1631 20.439 13.463 20.344 13.75H16.875C15.152 13.75 13.75 15.152 13.75 16.875V20.344C13.463 20.438 13.164 20.5 12.853 20.5H6.375ZM19.658 14.885L14.885 19.658C14.843 19.7 14.794 19.73 14.75 19.769V16.875C14.75 15.703 15.703 14.75 16.875 14.75H19.769C19.73 14.794 19.7 14.843 19.658 14.885Z" />
</svg>
