<svg viewBox="0 0 24 24" fill="currentColor" stroke="currentColor" xmlns="http://www.w3.org/2000/svg">
<path d="M7.61108 9.5C7.61108 9.224 7.83508 9 8.11108 9H16C16.276 9 16.5 9.224 16.5 9.5C16.5 9.776 16.276 10 16 10H8.11108C7.83508 10 7.61108 9.776 7.61108 9.5ZM12 13.5H8C7.724 13.5 7.5 13.724 7.5 14C7.5 14.276 7.724 14.5 8 14.5H12C12.276 14.5 12.5 14.276 12.5 14C12.5 13.724 12.276 13.5 12 13.5ZM22 14.722H21.8621C21.5201 15.467 21.0521 16.156 20.4561 16.752L16.7529 20.455C16.1559 21.051 15.4681 21.519 14.7241 21.861V22H14.4121C13.5971 22.326 12.7209 22.5 11.8169 22.5C6.12889 22.5 1.50195 17.8731 1.50195 12.1851V11.8149C1.50195 6.12694 6.12989 1.5 11.8169 1.5H12.186C17.874 1.5 22.501 6.12694 22.501 11.8149C22.501 12.7189 22.327 13.596 22.001 14.41V14.722H22ZM11.8149 21.5C12.4739 21.5 13.1149 21.3881 13.7219 21.1851V18.667C13.7219 15.941 15.94 13.723 18.666 13.723H21.1841C21.3881 13.116 21.499 12.475 21.499 11.816C21.499 6.68004 17.3201 2.50098 12.1841 2.50098H11.8149C6.67794 2.50098 2.5 6.68004 2.5 11.816V12.186C2.5 17.321 6.67894 21.5 11.8149 21.5ZM20.7451 14.722H18.667C16.492 14.722 14.7229 16.492 14.7229 18.666V20.744C15.2009 20.477 15.6469 20.146 16.0449 19.748L19.748 16.045C20.146 15.647 20.4781 15.201 20.7451 14.722Z" />
</svg>
