<svg viewBox="0 0 24 24" fill="currentColor" stroke="currentColor" xmlns="http://www.w3.org/2000/svg">
<path d="M22 14.41C22.326 13.595 22.5 12.7189 22.5 11.8149C22.5 6.12694 17.8721 1.5 12.1851 1.5H11.8159C6.12792 1.5 1.50098 6.12694 1.50098 11.8149V12.1851C1.50098 17.8731 6.12892 22.5 11.8159 22.5C12.7199 22.5 13.5959 22.326 14.4109 22H14.7229V21.861C15.4669 21.519 16.156 21.051 16.752 20.455L20.4551 16.752C21.0521 16.156 21.5201 15.467 21.8611 14.722H22V14.41ZM2.5 12.1851V11.8149C2.5 6.67894 6.67894 2.5 11.8149 2.5H12.1841C17.3211 2.5 21.499 6.67894 21.499 11.8149C21.499 12.4739 21.3881 13.115 21.1841 13.722H18.666C15.939 13.722 13.7219 15.94 13.7219 18.666V21.184C13.1149 21.388 12.4739 21.499 11.8149 21.499C6.67894 21.5 2.5 17.3211 2.5 12.1851ZM19.748 16.045L16.0449 19.748C15.6469 20.146 15.2009 20.477 14.7229 20.744V18.666C14.7229 16.491 16.493 14.722 18.667 14.722H20.7451C20.4781 15.201 20.146 15.647 19.748 16.045Z" />
</svg>
