<svg viewBox="0 0 24 24" fill="currentColor" stroke="currentColor" xmlns="http://www.w3.org/2000/svg">
<path d="M21.5 8.35012C21.5 7.52212 21.101 6.70404 20.313 5.91604L18.084 3.68703C16.491 2.09403 14.809 2.09703 13.218 3.68703L3.68701 13.218C2.90001 14.006 2.5 14.8239 2.5 15.6509C2.499 16.4789 2.89801 17.297 3.68701 18.085L5.91602 20.314C6.70302 21.101 7.52198 21.501 8.34998 21.501C9.17798 21.501 9.99596 21.102 10.783 20.314L13.52 17.5769C13.531 17.5679 13.5451 17.564 13.5551 17.554C13.5651 17.544 13.569 17.5301 13.578 17.5191L17.52 13.5769C17.531 13.5679 17.5451 13.564 17.5551 13.554C17.5651 13.544 17.569 13.5301 17.578 13.5191L20.3149 10.782C21.1009 9.996 21.5 9.17712 21.5 8.35012ZM13.194 16.4871L7.51196 10.8059L10.8051 7.51296L16.4871 13.1941L13.194 16.4871ZM10.075 19.606C8.88895 20.792 7.80805 20.792 6.62305 19.606L4.39404 17.377C3.80004 16.784 3.5 16.2029 3.5 15.6509C3.5 15.0989 3.80104 14.5181 4.39404 13.9251L6.80603 11.513L12.488 17.1941L10.075 19.606ZM17.194 12.4871L11.512 6.80593L13.924 4.39406C14.521 3.79706 15.085 3.49905 15.651 3.49905C16.215 3.49905 16.78 3.79706 17.377 4.39406L19.606 6.62307C20.199 7.21607 20.5 7.79712 20.5 8.35012C20.5 8.90212 20.199 9.48295 19.606 10.0759L17.194 12.4871ZM15.25 7.25198C15.25 7.52798 15.026 7.75198 14.75 7.75198C14.474 7.75198 14.25 7.52798 14.25 7.25198C14.25 6.97598 14.474 6.75198 14.75 6.75198C15.026 6.75198 15.25 6.97598 15.25 7.25198ZM7.75 14.7571C7.75 15.0331 7.526 15.2571 7.25 15.2571C6.974 15.2571 6.75 15.0331 6.75 14.7571C6.75 14.4811 6.974 14.2571 7.25 14.2571C7.526 14.2571 7.75 14.4811 7.75 14.7571ZM9.74597 16.7539C9.74597 17.0299 9.52197 17.2539 9.24597 17.2539C8.96997 17.2539 8.74597 17.0299 8.74597 16.7539C8.74597 16.4779 8.96997 16.2539 9.24597 16.2539C9.52197 16.2539 9.74597 16.4779 9.74597 16.7539ZM7.25 17.25C7.25 17.526 7.026 17.75 6.75 17.75C6.474 17.75 6.25 17.526 6.25 17.25C6.25 16.974 6.474 16.75 6.75 16.75C7.026 16.75 7.25 16.974 7.25 17.25ZM17.75 6.75198C17.75 7.02798 17.526 7.25198 17.25 7.25198C16.974 7.25198 16.75 7.02798 16.75 6.75198C16.75 6.47598 16.974 6.25197 17.25 6.25197C17.526 6.25197 17.75 6.47598 17.75 6.75198ZM17.25 9.25002C17.25 9.52602 17.026 9.75002 16.75 9.75002C16.474 9.75002 16.25 9.52602 16.25 9.25002C16.25 8.97402 16.474 8.75002 16.75 8.75002C17.026 8.75002 17.25 8.97402 17.25 9.25002Z" />
</svg>
