<svg viewBox="0 0 24 24" fill="currentColor" stroke="currentColor" xmlns="http://www.w3.org/2000/svg">
<path d="M21.3361 7.49904C20.9361 6.28504 19.823 5.49998 18.5 5.49098C18.497 4.54998 18.065 3.68308 17.314 3.11208C16.564 2.54108 15.6 2.35903 14.666 2.61403C13.741 2.86703 12.977 3.58293 12.671 4.48293C12.426 5.20493 12.442 5.94805 12.721 6.63405C12.888 7.04705 12.814 7.48111 12.528 7.76711L7.76406 12.531C7.47806 12.817 7.048 12.899 6.673 12.739C5.416 12.208 3.86999 12.6371 3.06899 13.7451C2.49599 14.5371 2.34806 15.542 2.66506 16.502C3.06406 17.714 4.17798 18.4981 5.50198 18.4981H5.50307L5.501 18.5029C5.502 19.4449 5.93301 20.315 6.68301 20.887C7.21201 21.29 7.84707 21.5 8.50307 21.5C8.77807 21.5 9.05898 21.463 9.33498 21.387C10.26 21.134 11.024 20.4181 11.33 19.5181C11.575 18.7961 11.5591 18.053 11.2801 17.367C11.1131 16.954 11.187 16.5199 11.473 16.2339L16.2371 11.47C16.5231 11.183 16.953 11.103 17.328 11.262C18.583 11.793 20.131 11.3641 20.932 10.2561C21.505 9.46412 21.6521 8.45904 21.3361 7.49904ZM20.122 9.66994C19.586 10.4109 18.5501 10.6941 17.7171 10.3421C16.9621 10.0231 16.1051 10.1889 15.5291 10.7639L10.765 15.5281C10.198 16.0941 10.0361 16.9639 10.3521 17.7429C10.5391 18.2019 10.548 18.705 10.381 19.197C10.181 19.787 9.67899 20.2571 9.06899 20.4231C8.43899 20.5971 7.78999 20.4751 7.28799 20.0921C6.78699 19.7101 6.49905 19.13 6.49905 18.502C6.49905 18.231 6.395 17.9771 6.204 17.7881C6.017 17.6011 5.76697 17.4981 5.50198 17.4981C5.50098 17.4981 5.50102 17.4981 5.50002 17.4981C4.60202 17.4981 3.87908 16.997 3.61208 16.188C3.39708 15.537 3.49398 14.8601 3.87698 14.3311C4.41198 13.5911 5.45 13.308 6.282 13.659C7.036 13.979 7.89299 13.8121 8.46999 13.2371L13.234 8.47292C13.801 7.90692 13.963 7.03707 13.647 6.25807C13.46 5.79907 13.4511 5.29597 13.6181 4.80397C13.8181 4.21497 14.3201 3.7449 14.9301 3.5779C15.5611 3.4059 16.209 3.526 16.709 3.907C17.21 4.288 17.498 4.86591 17.5 5.49391C17.502 6.04891 17.951 6.50002 18.502 6.50002C19.398 6.50002 20.119 7.00303 20.387 7.81203C20.602 8.46303 20.505 9.14094 20.122 9.66994Z" />
</svg>
