<svg viewBox="0 0 24 24" fill="currentColor" stroke="currentColor" xmlns="http://www.w3.org/2000/svg">
<path d="M20.332 15.4041C21.006 16.3021 20.9819 17.517 20.2869 18.415C19.7389 19.126 18.885 19.511 18.057 19.498C17.2 19.475 16.397 19.04 15.91 18.332C15.717 18.049 15.573 17.7119 15.493 17.3579C15.434 17.0219 15.1849 16.771 14.8669 16.71L12.0009 16.158L9.13495 16.71C8.81695 16.771 8.56798 17.022 8.51398 17.334C8.42898 17.713 8.28496 18.0491 8.09296 18.3311C7.60496 19.0391 6.80299 19.475 5.94599 19.498C5.92199 19.498 5.89797 19.499 5.87397 19.499C5.03097 19.499 4.24793 19.1061 3.71393 18.4141C3.01993 17.5161 2.99597 16.3021 3.65497 15.3201C2.97997 14.9361 2.5559 14.1871 2.5069 13.3491C2.4559 12.5051 2.80097 11.6971 3.45197 11.1321C4.11197 10.5711 5.02496 10.3639 5.84296 10.5869C6.50396 10.7719 7.04393 11.1569 7.40693 11.7019C7.60793 12.0089 7.93099 12.1589 8.24799 12.0979L10.894 11.511C11.166 11.453 11.4309 11.6221 11.4909 11.8911C11.5509 12.1611 11.3809 12.428 11.1109 12.488L8.4499 13.0779C7.7129 13.2149 6.98894 12.8899 6.57294 12.2529C6.34694 11.9149 6.00197 11.671 5.57697 11.552C5.07997 11.416 4.51295 11.5451 4.10395 11.8921C3.69395 12.2481 3.47295 12.76 3.50495 13.29C3.53595 13.816 3.8009 14.2839 4.2309 14.5759C4.6659 14.8799 4.7749 15.466 4.4809 15.887C4.0649 16.506 4.07293 17.244 4.50593 17.804C4.85893 18.26 5.34099 18.511 5.91999 18.499C6.45799 18.485 6.96299 18.2111 7.26899 17.7661C7.38999 17.5891 7.482 17.3721 7.534 17.1411C7.654 16.4461 8.22297 15.869 8.94697 15.729L11.9079 15.1589C11.9699 15.1469 12.035 15.1469 12.097 15.1589L15.0579 15.729C15.7819 15.869 16.3509 16.446 16.4759 17.165C16.5229 17.373 16.615 17.5891 16.737 17.7681C17.042 18.2111 17.547 18.485 18.086 18.499C18.586 18.517 19.147 18.2609 19.498 17.8049C19.933 17.2439 19.94 16.5059 19.519 15.8789C19.23 15.4659 19.3389 14.8801 19.7669 14.5811C20.2039 14.2851 20.468 13.817 20.499 13.291C20.531 12.76 20.311 12.2489 19.895 11.8889C19.492 11.5469 18.9289 11.417 18.4239 11.554C18.0019 11.672 17.6559 11.916 17.4279 12.259C17.0159 12.892 16.2879 13.22 15.5699 13.083L12.8929 12.49C12.6229 12.43 12.4539 12.1631 12.5129 11.8931C12.5739 11.6241 12.8379 11.4549 13.1099 11.5129L15.7709 12.103C16.0749 12.162 16.396 12.01 16.593 11.708C16.959 11.159 17.4989 10.7741 18.1569 10.5901C18.9729 10.3671 19.89 10.5729 20.546 11.1299C21.202 11.6989 21.5469 12.5071 21.4959 13.3511C21.4449 14.1881 21.021 14.9371 20.332 15.4041ZM11.9999 7.5C12.2759 7.5 12.4999 7.276 12.4999 7V4C12.4999 3.724 12.2759 3.5 11.9999 3.5C11.7239 3.5 11.4999 3.724 11.4999 4V7C11.4999 7.276 11.7239 7.5 11.9999 7.5ZM14.9999 8.5C15.1279 8.5 15.2559 8.451 15.3539 8.354L17.3539 6.354C17.5489 6.159 17.5489 5.84197 17.3539 5.64697C17.1589 5.45197 16.8419 5.45197 16.6469 5.64697L14.6469 7.64697C14.4519 7.84197 14.4519 8.159 14.6469 8.354C14.7439 8.451 14.8719 8.5 14.9999 8.5ZM8.64594 8.354C8.74394 8.452 8.87194 8.5 8.99994 8.5C9.12794 8.5 9.25595 8.451 9.35395 8.354C9.54895 8.159 9.54895 7.84197 9.35395 7.64697L7.35395 5.64697C7.15895 5.45197 6.84192 5.45197 6.64692 5.64697C6.45192 5.84197 6.45192 6.159 6.64692 6.354L8.64594 8.354Z" />
</svg>
