<svg viewBox="0 0 24 24" fill="currentColor" stroke="currentColor" xmlns="http://www.w3.org/2000/svg">
<path d="M21.5 12.0049C21.5 10.6069 20.7009 9.37311 19.4709 8.80811C19.4909 8.65311 19.5 8.491 19.5 8.323C19.5 6.139 17.902 5.15706 17.291 4.86206C16.934 3.93506 15.898 2.5 14 2.5C13.2 2.5 12.464 2.926 12 3.552C11.536 2.927 10.8 2.5 10 2.5C8.102 2.5 7.06598 3.93506 6.70898 4.86206C6.09798 5.15706 4.5 6.139 4.5 8.323C4.5 8.491 4.51005 8.65311 4.52905 8.80811C3.29905 9.37311 2.5 10.6069 2.5 12.0049C2.5 12.5209 2.75899 13.2141 2.91199 13.5801C2.74599 13.9121 2.5 14.547 2.5 15.387C2.5 17.36 3.89898 19.045 5.80298 19.426C6.35398 20.766 7.479 21.5 9 21.5C10.342 21.5 11.411 20.8829 12 19.8879C12.589 20.8819 13.658 21.5 15 21.5C16.521 21.5 17.646 20.767 18.197 19.426C20.1 19.045 21.5 17.36 21.5 15.387C21.5 14.547 21.254 13.9111 21.088 13.5801C21.241 13.2151 21.5 12.5209 21.5 12.0049ZM9 20.5C7.805 20.5 7.01302 19.936 6.64502 18.823C6.58402 18.639 6.42306 18.5069 6.23206 18.4839C4.67406 18.2919 3.50098 16.9619 3.50098 15.3879C3.50098 14.4749 3.88106 13.8929 3.88306 13.8899C3.98406 13.7439 3.99895 13.555 3.92395 13.394C3.75995 13.045 3.50098 12.3589 3.50098 12.0049C3.50098 10.8929 4.20402 9.92607 5.24902 9.60107C5.50702 9.52007 5.65403 9.24999 5.58203 8.98999C5.52803 8.79499 5.50098 8.571 5.50098 8.323C5.50098 6.391 7.21198 5.72693 7.28198 5.70093C7.42998 5.64693 7.54494 5.52502 7.59094 5.37402C7.61294 5.29802 8.17898 3.5 10.001 3.5C10.709 3.5 11.501 4.142 11.501 5V9.55103C10.913 8.90703 10.274 8.577 10.225 8.552C9.98098 8.431 9.68103 8.5289 9.55603 8.7749C9.43203 9.0209 9.53098 9.32104 9.77698 9.44604C9.79398 9.45504 11.502 10.342 11.502 12V14.551C10.914 13.907 10.275 13.577 10.226 13.552C9.98195 13.43 9.68201 13.5289 9.55701 13.7749C9.43301 14.0209 9.53195 14.321 9.77795 14.446C9.79495 14.455 11.5031 15.342 11.5031 17V18C11.5001 19.153 10.846 20.5 9 20.5ZM20.116 13.887C20.12 13.892 20.5 14.474 20.5 15.387C20.5 16.961 19.326 18.2909 17.769 18.4829C17.578 18.5059 17.416 18.639 17.356 18.822C16.988 19.935 16.196 20.499 15.001 20.499C13.155 20.499 12.501 19.152 12.501 17.999V16.999C12.501 15.341 14.209 14.4541 14.226 14.4451C14.472 14.3201 14.571 14.0199 14.447 13.7739C14.323 13.5279 14.022 13.428 13.778 13.551C13.728 13.576 13.09 13.906 12.502 14.55V12C12.502 10.342 14.2101 9.45504 14.2271 9.44604C14.4731 9.32104 14.572 9.0209 14.448 8.7749C14.324 8.5289 14.0231 8.431 13.7791 8.552C13.7291 8.577 13.0911 8.90703 12.5031 9.55103V5C12.5031 4.142 13.2951 3.5 14.0031 3.5C15.8251 3.5 16.391 5.29805 16.413 5.37305C16.457 5.52405 16.572 5.64593 16.72 5.70093C16.792 5.72793 18.5031 6.39097 18.5031 8.32397C18.5031 8.57197 18.476 8.79597 18.422 8.99097C18.35 9.25097 18.497 9.52205 18.755 9.60205C19.8 9.92805 20.5031 10.8941 20.5031 12.0061C20.5031 12.3601 20.244 13.046 20.08 13.395C20.004 13.552 20.02 13.741 20.116 13.887Z" />
</svg>
