<svg viewBox="0 0 24 24" fill="currentColor" stroke="currentColor" xmlns="http://www.w3.org/2000/svg">
<path d="M18.454 21.087C18.411 21.33 18.2001 21.5001 17.9631 21.5001C17.9341 21.5001 17.904 21.498 17.875 21.492C17.603 21.444 17.422 21.1852 17.47 20.9132C17.48 20.8512 17.556 20.3151 17.434 19.5001H8.61308C8.33708 19.5001 8.11308 19.2761 8.11308 19.0001C8.11308 18.7241 8.33708 18.5001 8.61308 18.5001H17.204C17.017 17.8911 16.7101 17.2011 16.2371 16.4701H12C11.724 16.4701 11.5 16.2461 11.5 15.9701C11.5 15.6941 11.724 15.4701 12 15.4701H15.4931C14.6421 14.4631 13.447 13.419 11.742 12.432C5.00699 8.53297 5.5351 3.1692 5.5601 2.9432C5.5911 2.6692 5.83911 2.47699 6.11211 2.50399C6.38511 2.53399 6.584 2.78102 6.554 3.05502C6.547 3.12002 6.50004 3.67109 6.64604 4.50009H15C15.276 4.50009 15.5 4.72409 15.5 5.00009C15.5 5.27609 15.276 5.50009 15 5.50009H6.89201C7.08301 6.10509 7.38205 6.78609 7.82805 7.50009H12C12.276 7.50009 12.5 7.72409 12.5 8.00009C12.5 8.27609 12.276 8.50009 12 8.50009H8.549C9.345 9.48109 10.455 10.4831 12 11.4141C17.872 7.87615 17.4691 3.25302 17.4471 3.05502C17.4181 2.78102 17.6161 2.53399 17.8891 2.50399C18.1601 2.47799 18.4091 2.67018 18.4411 2.94418C18.4661 3.16218 18.9331 8.15199 12.9351 12.004C19.2441 16.026 18.492 20.875 18.454 21.087ZM9.60503 14.3412C9.81003 14.1561 9.82704 13.8401 9.64104 13.6351C9.45604 13.4301 9.1401 13.4132 8.9351 13.5992C4.9181 17.2232 5.51699 20.931 5.54399 21.086C5.58599 21.329 5.79708 21.4991 6.03508 21.4991C6.06308 21.4991 6.09204 21.497 6.12004 21.492C6.39104 21.446 6.5741 21.1871 6.5291 20.9161C6.5081 20.7811 6.02103 17.5752 9.60503 14.3412Z" />
</svg>
