<svg viewBox="0 0 24 24" fill="currentColor" stroke="currentColor" xmlns="http://www.w3.org/2000/svg">
<path d="M20.039 17L15.887 10.469C15.632 10.067 15.497 9.60295 15.497 9.12695V3.5H16C16.276 3.5 16.5 3.276 16.5 3C16.5 2.724 16.276 2.5 16 2.5H8.00002C7.72402 2.5 7.50002 2.724 7.50002 3C7.50002 3.276 7.72402 3.5 8.00002 3.5H8.50307V9.12695C8.50307 9.60295 8.36805 10.067 8.11305 10.469L3.96108 17C3.37908 17.916 3.34301 19.03 3.86501 19.981C4.38701 20.932 5.34702 21.5 6.43202 21.5H17.567C18.652 21.5 19.6111 20.933 20.1331 19.981C20.6551 19.029 20.621 17.916 20.039 17ZM8.95705 11.0049C9.31405 10.4429 9.50307 9.79295 9.50307 9.12695V3.5H14.497V9.12695C14.497 9.79295 14.685 10.4419 15.043 11.0049L16.312 13H7.68898L8.95705 11.0049ZM19.2581 19.5C18.9131 20.126 18.281 20.5 17.568 20.5H6.433C5.718 20.5 5.08596 20.126 4.74196 19.5C4.39796 18.874 4.42207 18.1401 4.80507 17.5371L7.05299 14.001H16.947L19.195 17.5371C19.578 18.1391 19.6021 18.874 19.2581 19.5Z" />
</svg>
