<svg viewBox="0 0 24 24" fill="currentColor" stroke="currentColor" xmlns="http://www.w3.org/2000/svg">
<path d="M15.53 8.38696C15.203 8.21396 15 7.87796 15 7.51196V3.5H16C16.276 3.5 16.5 3.276 16.5 3C16.5 2.724 16.276 2.5 16 2.5H8C7.724 2.5 7.5 2.724 7.5 3C7.5 3.276 7.724 3.5 8 3.5H9V7.51196C9 7.87896 8.79699 8.21396 8.46899 8.38696C6.02099 9.68396 4.5 12.218 4.5 15C4.5 17.074 5.32497 19 6.82397 20.426L6.97498 20.572C7.60198 21.181 8.00096 21.5 9.55896 21.5H14.4399C15.9979 21.5 16.397 21.182 17.024 20.572L17.175 20.426C18.674 19 19.499 17.073 19.499 15C19.5 12.218 17.979 9.68496 15.53 8.38696ZM8.93701 9.271C9.59301 8.924 10 8.24996 10 7.51196V3.5H14V7.51196C14 8.24996 14.407 8.925 15.062 9.271C16.945 10.269 18.1889 12.1129 18.4449 14.2009C17.7709 14.5739 15.384 15.633 12.223 14.053C9.26502 12.574 6.86803 13.145 5.65503 13.647C6.04903 11.792 7.22401 10.179 8.93701 9.271ZM16.486 19.7019L16.327 19.855C15.845 20.324 15.6639 20.5 14.4399 20.5H9.55896C8.33496 20.5 8.155 20.324 7.672 19.855L7.51294 19.7019C6.21394 18.4669 5.49902 16.797 5.49902 15C5.49902 14.94 5.50899 14.882 5.51099 14.822C6.12699 14.472 8.55102 13.335 11.775 14.947C13.194 15.656 14.485 15.894 15.578 15.894C16.859 15.894 17.859 15.568 18.484 15.291C18.412 16.976 17.714 18.5339 16.486 19.7019Z" />
</svg>
