<svg viewBox="0 0 24 24" fill="currentColor" stroke="currentColor" xmlns="http://www.w3.org/2000/svg">
<path d="M20.096 5.3501C19.11 4.1481 17.687 3.508 15.981 3.5C15.974 3.5 15.966 3.5 15.959 3.5C13.978 3.5 12.683 4.73709 12.001 5.84009C11.316 4.73209 10.0331 3.516 8.02007 3.5C6.31707 3.508 4.89501 4.14807 3.90801 5.35107C2.67701 6.85207 2.21701 9.17404 2.67901 11.561C3.88801 17.792 11.472 21.3091 11.794 21.4561C11.859 21.4861 11.931 21.501 12.001 21.501C12.071 21.501 12.1431 21.4861 12.2081 21.4561C12.5301 21.3101 20.1141 17.793 21.3221 11.561C21.7851 9.17204 21.327 6.8511 20.096 5.3501ZM20.339 11.3701C19.335 16.5481 13.2101 19.8401 12.0001 20.4441C10.7891 19.8411 4.66609 16.5551 3.66008 11.3701C3.25308 9.27212 3.6341 7.25911 4.6801 5.98511C5.4831 5.00611 6.6081 4.506 8.0241 4.5C8.0311 4.5 8.03702 4.5 8.04302 4.5C10.6 4.5 11.49 7.03897 11.527 7.14697C11.595 7.34997 11.786 7.48706 12.001 7.48706H12.002C12.217 7.48606 12.407 7.349 12.476 7.146C12.485 7.119 13.387 4.5 15.959 4.5C15.965 4.5 15.9711 4.5 15.9781 4.5C17.3961 4.507 18.522 5.00589 19.324 5.98389C20.367 7.25689 20.747 9.27112 20.339 11.3701ZM17.5001 12.5C17.5001 12.776 17.2761 13 17.0001 13H15.268L13.4161 15.7771C13.3221 15.9171 13.1661 16 13.0001 16C12.9791 16 12.956 15.9991 12.934 15.9961C12.745 15.9711 12.5861 15.8399 12.5261 15.6589L10.849 10.6289L9.41607 12.7781C9.32307 12.9171 9.16705 13.001 9.00005 13.001H7.00005C6.72405 13.001 6.50005 12.777 6.50005 12.501C6.50005 12.225 6.72405 12.001 7.00005 12.001H8.73211L10.584 9.22412C10.689 9.06612 10.8701 8.9801 11.0661 9.0061C11.2551 9.0311 11.414 9.16202 11.474 9.34302L13.1511 14.373L14.584 12.2241C14.677 12.0851 14.8331 12.001 15.0001 12.001H17.0001C17.2761 12 17.5001 12.224 17.5001 12.5Z" />
</svg>
