<svg viewBox="0 0 24 24" fill="currentColor" stroke="currentColor" xmlns="http://www.w3.org/2000/svg">
<path d="M17.625 2.5H6.375C3.84 2.5 2.5 3.84 2.5 6.375V17.625C2.5 20.16 3.84 21.5 6.375 21.5H17.625C20.16 21.5 21.5 20.16 21.5 17.625V6.375C21.5 3.84 20.16 2.5 17.625 2.5ZM20.5 17.625C20.5 19.586 19.587 20.5 17.625 20.5H6.375C4.413 20.5 3.5 19.586 3.5 17.625V6.375C3.5 4.414 4.413 3.5 6.375 3.5H17.625C19.587 3.5 20.5 4.414 20.5 6.375V17.625ZM15.5 8V16C15.5 16.276 15.276 16.5 15 16.5C14.724 16.5 14.5 16.276 14.5 16V12.5H9.5V16C9.5 16.276 9.276 16.5 9 16.5C8.724 16.5 8.5 16.276 8.5 16V8C8.5 7.724 8.724 7.5 9 7.5C9.276 7.5 9.5 7.724 9.5 8V11.5H14.5V8C14.5 7.724 14.724 7.5 15 7.5C15.276 7.5 15.5 7.724 15.5 8Z" />
</svg>
