<svg viewBox="0 0 24 24" fill="currentColor" stroke="currentColor" xmlns="http://www.w3.org/2000/svg">
<path d="M12 1.5C6.21 1.5 1.5 6.21 1.5 12C1.5 17.79 6.21 22.5 12 22.5C17.79 22.5 22.5 17.79 22.5 12C22.5 6.21 17.79 1.5 12 1.5ZM12 21.5C6.762 21.5 2.5 17.238 2.5 12C2.5 6.762 6.762 2.5 12 2.5C17.238 2.5 21.5 6.762 21.5 12C21.5 17.238 17.238 21.5 12 21.5ZM15.5 8V16C15.5 16.276 15.276 16.5 15 16.5C14.724 16.5 14.5 16.276 14.5 16V12.5H9.5V16C9.5 16.276 9.276 16.5 9 16.5C8.724 16.5 8.5 16.276 8.5 16V8C8.5 7.724 8.724 7.5 9 7.5C9.276 7.5 9.5 7.724 9.5 8V11.5H14.5V8C14.5 7.724 14.724 7.5 15 7.5C15.276 7.5 15.5 7.724 15.5 8Z" />
</svg>
