<svg viewBox="0 0 24 24" fill="currentColor" stroke="currentColor" xmlns="http://www.w3.org/2000/svg">
<path d="M20.5 7.5H19.2791C18.9881 6.84 18.434 6.31991 17.754 6.12891C17.605 6.06291 14.083 4.5 12 4.5C9.917 4.5 6.39601 6.06198 6.31201 6.10498C5.58701 6.31198 5.01802 6.838 4.72302 7.5H3.5C2.397 7.5 1.5 8.397 1.5 9.5V13C1.5 15.481 3.519 17.5 6 17.5H6.02197C6.79297 18.524 7.81404 19.366 9.04504 19.894C9.98404 20.296 10.992 20.498 12 20.498C13.008 20.498 14.016 20.297 14.955 19.894C16.186 19.366 17.207 18.525 17.978 17.5H18C20.481 17.5 22.5 15.481 22.5 13V9.5C22.5 8.397 21.603 7.5 20.5 7.5ZM2.5 13V9.5C2.5 8.949 2.948 8.5 3.5 8.5H4.50098C4.50098 8.503 4.5 8.50603 4.5 8.50903V13C4.5 14.224 4.80905 15.3921 5.34705 16.4341C3.72905 16.1271 2.5 14.706 2.5 13ZM14.561 18.9751C12.934 19.6721 11.0669 19.6721 9.43994 18.9751C7.04594 17.9491 5.50098 15.604 5.50098 13V8.50903C5.50098 7.84303 5.94803 7.24999 6.65503 7.04199C6.68903 7.02599 10.132 5.5 12.001 5.5C13.87 5.5 17.313 7.02592 17.413 7.06592C18.054 7.24992 18.501 7.84303 18.501 8.50903V13C18.5 15.604 16.954 17.9491 14.561 18.9751ZM21.5 13C21.5 14.706 20.271 16.1271 18.653 16.4341C19.191 15.3921 19.5 14.224 19.5 13V8.50903C19.5 8.50603 19.499 8.503 19.499 8.5H20.5C21.052 8.5 21.5 8.949 21.5 9.5V13ZM16.5 11.5C16.5 11.776 16.276 12 16 12H8C7.724 12 7.5 11.776 7.5 11.5C7.5 11.224 7.724 11 8 11H16C16.276 11 16.5 11.224 16.5 11.5ZM15.5 14.5C15.5 14.776 15.276 15 15 15H9C8.724 15 8.5 14.776 8.5 14.5C8.5 14.224 8.724 14 9 14H15C15.276 14 15.5 14.224 15.5 14.5Z" />
</svg>
