<svg viewBox="0 0 24 24" fill="currentColor" stroke="currentColor" xmlns="http://www.w3.org/2000/svg">
<path d="M19 20.5001H13V19.4151C16.11 18.9321 18.5 16.2431 18.5 13.0001C18.5 11.1741 17.745 9.47517 16.422 8.24717L17.601 7.06821C18.043 6.62621 18.2679 6.15715 18.2679 5.67515C18.2679 5.29815 18.127 4.93002 17.856 4.57602C17.9 4.55302 17.9451 4.53002 17.9821 4.49302C18.1771 4.29802 18.1771 3.98098 17.9821 3.78598L16.9821 2.78598C16.7871 2.59098 16.47 2.59098 16.275 2.78598C16.238 2.82298 16.214 2.86821 16.191 2.91221C15.379 2.29621 14.488 2.37811 13.7 3.16611L8.93396 7.93198C8.34396 8.52198 8.15603 9.17017 8.35303 9.79917L7.50195 10.649C6.89195 11.26 6.89195 11.9902 7.50195 12.6012L8.16602 13.2662C8.47202 13.5712 8.79994 13.7252 9.14294 13.7252C9.48594 13.7252 9.81402 13.5702 10.119 13.2662L10.968 12.4171C11.125 12.4661 11.283 12.5001 11.443 12.5001C11.925 12.5001 12.3941 12.2761 12.8361 11.8331L15.715 8.9542C16.851 9.9952 17.5 11.4431 17.5 12.9991C17.5 16.0321 15.032 18.4991 12 18.4991C10.352 18.4991 8.80702 17.7461 7.77502 16.4991H10C10.276 16.4991 10.5 16.2751 10.5 15.9991C10.5 15.7231 10.276 15.4991 10 15.4991H5C4.724 15.4991 4.5 15.7231 4.5 15.9991C4.5 16.2751 4.724 16.4991 5 16.4991H6.54297C7.72897 18.3521 9.786 19.4991 12 19.4991V20.4991H6C5.724 20.4991 5.5 20.7231 5.5 20.9991C5.5 21.2751 5.724 21.4991 6 21.4991H19C19.276 21.4991 19.5 21.2751 19.5 20.9991C19.5 20.7231 19.276 20.5001 19 20.5001ZM9.41199 12.5592C9.19899 12.7732 9.08602 12.7692 8.87402 12.5592L8.20996 11.8941C7.98896 11.6731 7.98896 11.5781 8.20996 11.3561L8.89502 10.6722C8.91002 10.6872 8.92006 10.7031 8.93506 10.7191L10.05 11.8341C10.065 11.8491 10.081 11.8601 10.097 11.8751L9.41199 12.5592ZM12.129 11.1261C11.632 11.6231 11.252 11.6211 10.757 11.1261L9.64197 10.0111C9.14197 9.51108 9.14197 9.13804 9.64197 8.63804L14.408 3.87217C14.658 3.62217 14.877 3.49717 15.095 3.49717C15.313 3.49717 15.532 3.62217 15.782 3.87217L16.896 4.98716C17.144 5.23516 17.27 5.46617 17.27 5.67417C17.27 5.88217 17.144 6.1122 16.896 6.3602L12.129 11.1261Z" />
</svg>
