<svg viewBox="0 0 24 24" fill="currentColor" stroke="currentColor" xmlns="http://www.w3.org/2000/svg">
<path d="M18 3.5H6C3.71 3.5 2.5 4.71 2.5 7V17C2.5 19.29 3.71 20.5 6 20.5H18C20.29 20.5 21.5 19.29 21.5 17V7C21.5 4.71 20.29 3.5 18 3.5ZM20.5 17C20.5 18.729 19.729 19.5 18 19.5H6C4.271 19.5 3.5 18.729 3.5 17V12.5H8C8.167 12.5 8.32302 12.4171 8.41602 12.2771L9.849 10.1279L11.526 15.158C11.587 15.339 11.745 15.4701 11.934 15.4951C11.956 15.4981 11.979 15.499 12 15.499C12.166 15.499 12.322 15.4159 12.416 15.2759L14.2679 12.499H16C16.276 12.499 16.5 12.275 16.5 11.999C16.5 11.723 16.276 11.499 16 11.499H14C13.833 11.499 13.677 11.5819 13.584 11.7219L12.151 13.8711L10.474 8.84106C10.413 8.66006 10.255 8.52891 10.066 8.50391C9.87004 8.47791 9.68898 8.56392 9.58398 8.72192L7.73206 11.499H3.5V6.99902C3.5 5.27002 4.271 4.49902 6 4.49902H18C19.729 4.49902 20.5 5.27002 20.5 6.99902V17Z" />
</svg>
