<svg viewBox="0 0 24 24" fill="currentColor" stroke="currentColor" xmlns="http://www.w3.org/2000/svg">
<path d="M21 9.50001H20H16.614L18.397 7.54713C18.456 7.48313 18.534 7.45595 18.561 7.46095C18.696 7.48595 18.836 7.49801 18.984 7.50001C18.99 7.50001 18.996 7.50001 19.001 7.50001C20.045 7.50001 20.926 6.92508 21.302 5.99708C21.703 5.00508 21.4889 3.93697 20.7419 3.20997C19.9939 2.48297 18.918 2.29901 17.931 2.72901C17.06 3.10901 16.498 4.00112 16.499 5.01612C16.499 5.06712 16.487 5.16208 16.402 5.22608L10.78 9.50001H4H3C2.724 9.50001 2.5 9.72401 2.5 10C2.5 10.276 2.724 10.5 3 10.5H3.53503C3.73203 14.223 5.41704 16.9989 8.26404 18.2339C7.99404 18.6889 7.68098 19.408 7.58398 20.386C7.55698 20.673 7.64999 20.9601 7.84399 21.1731C8.03199 21.3811 8.3 21.5 8.578 21.5H15.4301C15.7091 21.5 15.9769 21.3811 16.1639 21.1741C16.3569 20.9611 16.451 20.674 16.424 20.387C16.327 19.408 16.014 18.6901 15.744 18.2351C18.584 17.0021 20.266 14.227 20.465 10.501H21C21.276 10.501 21.5 10.277 21.5 10.001C21.5 9.72499 21.276 9.50001 21 9.50001ZM17.0081 6.02198C17.3221 5.78398 17.502 5.41596 17.5 5.00196C17.499 4.39796 17.826 3.866 18.332 3.646C18.948 3.377 19.588 3.48301 20.045 3.92701C20.397 4.27001 20.669 4.89508 20.374 5.62208C20.155 6.16408 19.629 6.50001 19.002 6.50001C18.91 6.50201 18.825 6.49304 18.74 6.47804C18.348 6.40804 17.9481 6.55603 17.6591 6.87403L15.26 9.50099H12.434L17.0081 6.02198ZM8.57996 20.4851C8.68296 19.4411 9.08306 18.776 9.28406 18.5H14.723C14.926 18.778 15.326 19.446 15.429 20.5L8.57996 20.4851ZM14.864 17.5H9.14404C6.34404 16.525 4.71194 14.054 4.51794 10.5H19.4821C19.2851 14.057 17.656 16.528 14.864 17.5Z" />
</svg>
