<svg viewBox="0 0 24 24" fill="currentColor" stroke="currentColor" xmlns="http://www.w3.org/2000/svg">
<path d="M21.5 7.97803C21.5 6.51503 20.931 5.13998 19.896 4.10498C18.862 3.06998 17.4859 2.50098 16.0229 2.50098C14.5599 2.50098 13.184 3.07098 12.15 4.10498L4.10498 12.1499C3.06998 13.1849 2.50098 14.5599 2.50098 16.0229C2.50098 17.4859 3.06998 18.861 4.10498 19.896C5.13898 20.931 6.51503 21.5 7.97803 21.5C9.44103 21.5 10.817 20.93 11.851 19.896L15.8621 15.885C15.8721 15.876 15.884 15.873 15.894 15.864C15.904 15.855 15.907 15.842 15.915 15.832L19.896 11.8511C20.931 10.8161 21.5 9.44003 21.5 7.97803ZM11.144 19.188C10.298 20.034 9.17403 20.5 7.97803 20.5C6.78203 20.5 5.65801 20.034 4.81201 19.188C3.96601 18.342 3.5 17.218 3.5 16.022C3.5 14.826 3.96601 13.702 4.81201 12.856L8.49597 9.17212L14.828 15.5039L11.144 19.188ZM15.535 14.7971L9.203 8.46509L12.8571 4.81104C13.7031 3.96504 14.8269 3.49902 16.0229 3.49902C17.2189 3.49902 18.343 3.96504 19.189 4.81104C20.035 5.65704 20.501 6.78105 20.501 7.97705C20.501 9.17305 20.035 10.2971 19.189 11.1431L15.535 14.7971ZM7.94702 12.4451C8.14202 12.6401 8.14202 12.9571 7.94702 13.1521L7.18701 13.9121C6.47401 14.6261 6.12195 15.6131 6.22095 16.6201C6.24695 16.8941 6.04697 17.14 5.77197 17.166C5.75497 17.167 5.73905 17.168 5.72205 17.168C5.46805 17.168 5.25098 16.975 5.22498 16.717C5.09698 15.411 5.55398 14.1311 6.47998 13.2041L7.23999 12.4441C7.43599 12.2501 7.75202 12.2501 7.94702 12.4451Z" />
</svg>
