<svg viewBox="0 0 24 24" fill="currentColor" stroke="currentColor" xmlns="http://www.w3.org/2000/svg">
<path d="M14.2449 14.7438C14.1779 14.6248 14.0649 14.5388 13.9329 14.5048C13.8029 14.4708 13.661 14.4929 13.545 14.5649C12.633 15.1329 11.3669 15.1329 10.4549 14.5649C10.3389 14.4929 10.198 14.4708 10.067 14.5048C9.93396 14.5388 9.82195 14.6248 9.75495 14.7438L7.31598 19.0649C7.17898 19.3079 7.14592 19.599 7.22492 19.863C7.30092 20.121 7.474 20.33 7.711 20.454C9.054 21.148 10.4969 21.4999 11.9999 21.4999C13.5029 21.4999 14.9459 21.148 16.2889 20.454H16.29C16.526 20.331 16.699 20.121 16.775 19.864C16.854 19.599 16.8209 19.3079 16.6839 19.0649L14.2449 14.7438ZM8.18696 19.5559L10.3869 15.6599C11.3889 16.1079 12.613 16.1079 13.613 15.6599L15.8149 19.5739C13.4189 20.8069 10.548 20.8119 8.18696 19.5559ZM17.227 3.66401C16.999 3.51101 16.727 3.46305 16.456 3.52705C16.185 3.59205 15.9509 3.76988 15.8139 4.01288L13.185 8.65302C13.118 8.77102 13.102 8.90998 13.14 9.03998C13.177 9.16998 13.2659 9.27899 13.3859 9.34199C14.3319 9.84199 14.9319 10.7641 14.9899 11.8081C15.0049 12.0731 15.244 12.28 15.51 12.28H20.489C20.77 12.28 21.041 12.163 21.232 11.958C21.421 11.756 21.515 11.4939 21.498 11.2199C21.324 8.16692 19.729 5.34301 17.227 3.66401ZM20.4969 11.279C20.4929 11.279 20.489 11.279 20.489 11.279H15.9329C15.7499 10.244 15.165 9.33307 14.291 8.72407L16.67 4.49384C18.912 5.99884 20.344 8.53504 20.499 11.277C20.5 11.279 20.4979 11.279 20.4969 11.279ZM9.00995 11.8081C9.06795 10.7641 9.66696 9.84299 10.614 9.34199C10.734 9.27899 10.8229 9.16998 10.8599 9.03998C10.8979 8.91098 10.8819 8.77102 10.8149 8.65302L8.18696 4.01386C8.04896 3.76886 7.81489 3.59082 7.54389 3.52582C7.27589 3.46182 7.00189 3.51001 6.77289 3.66401C4.27189 5.34201 2.6749 8.16703 2.5019 11.215C2.4829 11.49 2.57789 11.754 2.76789 11.956C2.95889 12.161 3.22993 12.278 3.51093 12.278H8.51093C8.77593 12.28 8.99495 12.0721 9.00995 11.8081ZM3.49994 11.278C3.65494 8.53502 5.08698 6.00005 7.31598 4.50605L9.70698 8.72602C8.83398 9.33502 8.24798 10.246 8.06598 11.28L3.49994 11.278ZM10.9999 11.9999C10.9999 11.4479 11.4479 10.9999 11.9999 10.9999C12.5519 10.9999 12.9999 11.4479 12.9999 11.9999C12.9999 12.5519 12.5519 12.9999 11.9999 12.9999C11.4479 12.9999 10.9999 12.5519 10.9999 11.9999Z" />
</svg>
