<svg viewBox="0 0 24 24" fill="currentColor" stroke="currentColor" xmlns="http://www.w3.org/2000/svg">
<path d="M12 1.5C6.21 1.5 1.5 6.21 1.5 12C1.5 17.79 6.21 22.5 12 22.5C17.79 22.5 22.5 17.79 22.5 12C22.5 6.21 17.79 1.5 12 1.5ZM12 21.5C6.762 21.5 2.5 17.238 2.5 12C2.5 6.762 6.762 2.5 12 2.5C17.238 2.5 21.5 6.762 21.5 12C21.5 17.238 17.238 21.5 12 21.5ZM13.7419 14.052C13.6749 13.933 13.5621 13.847 13.4301 13.814C13.2991 13.778 13.158 13.802 13.042 13.874C12.429 14.257 11.571 14.257 10.958 13.874C10.843 13.802 10.7009 13.778 10.5699 13.814C10.4369 13.848 10.3251 13.934 10.2581 14.052L8.49402 17.175C8.37802 17.383 8.34995 17.6329 8.41895 17.8589C8.48495 18.0809 8.63399 18.2609 8.83899 18.3679C9.82899 18.8799 10.893 19.1389 12 19.1389C13.107 19.1389 14.171 18.8799 15.161 18.3679H15.162C15.366 18.2619 15.5151 18.0821 15.5811 17.8601C15.6491 17.6331 15.622 17.3841 15.505 17.1731L13.7419 14.052ZM9.43298 17.5471L10.896 14.958C11.59 15.232 12.416 15.2321 13.11 14.9561L14.601 17.531C12.975 18.333 11.058 18.3381 9.43298 17.5471ZM15.853 6.00293C15.658 5.87193 15.412 5.82903 15.186 5.88403C14.952 5.94003 14.75 6.09303 14.635 6.30103L12.736 9.6521C12.669 9.7701 12.653 9.90906 12.691 10.0391C12.728 10.1691 12.817 10.2781 12.937 10.3411C13.577 10.6791 13.982 11.3021 14.022 12.0081C14.037 12.2731 14.27 12.48 14.536 12.48H18.132C18.373 12.48 18.607 12.3789 18.772 12.2019C18.932 12.0299 19.015 11.7989 19 11.5659C18.869 9.31892 17.694 7.23993 15.853 6.00293ZM14.9561 11.48C14.8051 10.785 14.411 10.1701 13.838 9.73511L15.4301 6.927C16.8971 7.972 17.843 9.65398 17.991 11.48H14.9561ZM9.979 12.0081C10.019 11.3031 10.424 10.6801 11.064 10.3411C11.184 10.2781 11.2731 10.1691 11.3101 10.0391C11.3481 9.91006 11.332 9.7701 11.265 9.6521L9.36804 6.30396C9.25104 6.09296 9.04994 5.93906 8.81494 5.88306C8.58794 5.82706 8.34295 5.87095 8.14795 6.00195C6.30595 7.23795 5.12995 9.31804 5.00195 11.561C4.98495 11.795 5.06798 12.0279 5.22998 12.2009C5.39498 12.3779 5.628 12.479 5.87 12.479H9.47998C9.74498 12.48 9.964 12.2731 9.979 12.0081ZM6.01001 11.48C6.15701 9.65298 7.10404 7.971 8.57104 6.927L10.163 9.73511C9.58996 10.1711 9.19604 10.785 9.04504 11.48H6.01001ZM11.25 12.1111C11.25 11.6971 11.586 11.3611 12 11.3611C12.414 11.3611 12.75 11.6971 12.75 12.1111C12.75 12.5251 12.414 12.8611 12 12.8611C11.586 12.8611 11.25 12.5251 11.25 12.1111Z" />
</svg>
