<svg viewBox="0 0 24 24" fill="currentColor" stroke="currentColor" xmlns="http://www.w3.org/2000/svg">
<path d="M21.5 10C21.5 8.622 20.379 7.5 19 7.5C17.621 7.5 16.5 8.622 16.5 10C16.5 11.207 17.36 12.217 18.5 12.449V15.5C18.5 18.257 16.257 20.5 13.5 20.5C10.743 20.5 8.5 18.257 8.5 15.5V14.457C11.505 14.238 13.5 12.115 13.5 9V4.5C13.5 3.229 12.771 2.5 11.5 2.5H11C10.724 2.5 10.5 2.724 10.5 3C10.5 3.276 10.724 3.5 11 3.5H11.5C12.22 3.5 12.5 3.78 12.5 4.5V9C12.5 11.733 10.733 13.5 8 13.5C5.267 13.5 3.5 11.733 3.5 9V4.5C3.5 3.78 3.78 3.5 4.5 3.5H5C5.276 3.5 5.5 3.276 5.5 3C5.5 2.724 5.276 2.5 5 2.5H4.5C3.229 2.5 2.5 3.229 2.5 4.5V9C2.5 12.115 4.495 14.239 7.5 14.457V15.5C7.5 18.809 10.191 21.5 13.5 21.5C16.809 21.5 19.5 18.809 19.5 15.5V12.449C20.64 12.217 21.5 11.207 21.5 10ZM19 11.5C18.173 11.5 17.5 10.827 17.5 10C17.5 9.173 18.173 8.5 19 8.5C19.827 8.5 20.5 9.173 20.5 10C20.5 10.827 19.827 11.5 19 11.5Z" />
</svg>
