<svg viewBox="0 0 24 24" fill="currentColor" stroke="currentColor" xmlns="http://www.w3.org/2000/svg">
<path d="M21.354 6.86891L20.299 5.81397L17.132 2.64796C16.937 2.45296 16.6201 2.45296 16.4251 2.64796C16.2301 2.84296 16.2301 3.15999 16.4251 3.35499L17.127 4.05689L14.668 6.51612L13.966 5.81397C13.966 5.81397 13.965 5.814 13.965 5.813L13.174 5.02198C12.979 4.82698 12.6621 4.82698 12.4671 5.02198C12.2721 5.21698 12.2721 5.53401 12.4671 5.72901L12.905 6.167L6.64698 12.4251C6.61898 12.4531 6.60001 12.482 6.57301 12.51C6.56501 12.517 6.55498 12.5191 6.54798 12.5271C6.53298 12.5421 6.52705 12.5619 6.51405 12.5779C5.84105 13.2999 5.47398 14.0479 5.44898 14.8049C5.42598 15.5409 5.72996 16.2681 6.31996 16.9741L2.64796 20.646C2.45296 20.841 2.45296 21.158 2.64796 21.353C2.74596 21.451 2.87396 21.499 3.00196 21.499C3.12996 21.499 3.25797 21.45 3.35597 21.353L7.02796 17.6809C7.70796 18.2449 8.41002 18.5449 9.11402 18.5449C9.94902 18.5449 10.784 18.148 11.579 17.353L17.8361 11.096L18.2741 11.5339C18.3721 11.6319 18.5001 11.6799 18.6281 11.6799C18.7561 11.6799 18.8841 11.6309 18.9821 11.5339C19.1771 11.3389 19.1771 11.0219 18.9821 10.8269L18.19 10.0349L17.488 9.33302L19.948 6.87306L20.65 7.57496C20.748 7.67296 20.876 7.72096 21.004 7.72096C21.132 7.72096 21.26 7.67196 21.358 7.57496C21.549 7.37996 21.549 7.06391 21.354 6.86891ZM10.869 16.646C9.65203 17.861 8.56804 17.861 7.35304 16.646C6.73404 16.026 6.42901 15.4179 6.44801 14.8359C6.46101 14.4419 6.62699 14.0341 6.93299 13.6201L8.15602 14.843C8.25402 14.941 8.38202 14.989 8.51002 14.989C8.63802 14.989 8.76602 14.94 8.86402 14.843C9.05902 14.648 9.05902 14.331 8.86402 14.136L7.60707 12.8779L9.01502 11.47L10.268 12.7219C10.366 12.8199 10.494 12.8679 10.622 12.8679C10.75 12.8679 10.878 12.8189 10.976 12.7219C11.171 12.5269 11.171 12.2099 10.976 12.0149L9.72303 10.7629L11.131 9.35499L12.389 10.6121C12.487 10.7101 12.6151 10.7581 12.7431 10.7581C12.8711 10.7581 12.9991 10.7091 13.0971 10.6121C13.2921 10.4171 13.2921 10.1 13.0971 9.90504L11.839 8.64796L13.614 6.87306L16.426 9.68507C16.426 9.68507 16.426 9.68604 16.427 9.68604C16.428 9.68604 16.428 9.68602 16.428 9.68702L17.129 10.3879L10.869 16.646ZM16.778 8.62599L15.374 7.22193L17.833 4.76295L19.2371 6.167L16.778 8.62599Z" />
</svg>
