<svg viewBox="0 0 24 24" fill="currentColor" stroke="currentColor" xmlns="http://www.w3.org/2000/svg">
<path d="M20.488 3.51096C19.185 2.20596 16.909 2.20796 15.606 3.51096L9.16895 9.94699C8.54395 10.572 8.06599 11.3451 7.78699 12.1831L7.52197 12.976C7.29197 13.668 6.89696 14.306 6.38196 14.821L3.07703 18.125C2.70403 18.498 2.49805 18.9949 2.49805 19.5229C2.49805 20.0509 2.70403 20.5469 3.07703 20.9199C3.45003 21.2939 3.946 21.499 4.474 21.499C5.001 21.499 5.49697 21.2929 5.87097 20.9199L9.17505 17.6159C9.69205 17.0999 10.329 16.706 11.021 16.476L11.8149 16.2109C12.6529 15.9319 13.425 15.4541 14.05 14.8291L20.486 8.39304C21.138 7.74104 21.498 6.87388 21.498 5.95188C21.5 5.03088 21.141 4.16396 20.488 3.51096ZM5.16699 20.2141C4.79799 20.5831 4.15501 20.5841 3.78601 20.2141C3.60101 20.0301 3.5 19.7849 3.5 19.5249C3.5 19.2639 3.60201 19.0189 3.78601 18.8349L4.95605 17.665L6.33704 19.0459L5.16699 20.2141ZM19.781 7.68698L13.345 14.123C12.829 14.639 12.192 15.0329 11.5 15.2639L10.7061 15.528C9.86905 15.806 9.09597 16.2839 8.46997 16.9099L7.04297 18.3369L5.66296 16.956L7.08997 15.529C7.71397 14.905 8.19205 14.1319 8.47205 13.2939L8.73706 12.5C8.96606 11.809 9.36095 11.171 9.87695 10.655L16.314 4.21897C16.777 3.75597 17.393 3.50095 18.048 3.50095C18.702 3.50095 19.319 3.75597 19.781 4.21897C20.244 4.68197 20.5 5.29885 20.5 5.95285C20.5 6.60785 20.244 7.22398 19.781 7.68698ZM15.354 8.64597C15.549 8.84097 15.549 9.158 15.354 9.353L13.354 11.353C13.256 11.451 13.128 11.499 13 11.499C12.872 11.499 12.744 11.45 12.646 11.353C12.451 11.158 12.451 10.841 12.646 10.646L14.646 8.64597C14.842 8.45097 15.158 8.45097 15.354 8.64597ZM17.75 6.99997C17.75 7.41397 17.414 7.74997 17 7.74997C16.586 7.74997 16.25 7.41397 16.25 6.99997C16.25 6.58597 16.586 6.24997 17 6.24997C17.414 6.24997 17.75 6.58597 17.75 6.99997Z" />
</svg>
