<svg viewBox="0 0 24 24" fill="currentColor" stroke="currentColor" xmlns="http://www.w3.org/2000/svg">
<path d="M19.5959 5.23291C18.6129 3.46991 16.964 2.5 14.953 2.5C13.626 2.5 12.826 3.0319 12.349 3.6189C11.43 2.8759 10.322 2.5 9.04697 2.5C7.03597 2.5 5.38803 3.47091 4.40403 5.23291C3.09703 7.57791 3.21294 10.88 4.68394 13.262C5.44794 14.497 5.82193 16.1389 6.15293 17.5879C6.63193 19.6869 7.04493 21.5 8.55393 21.5C10.6009 21.5 10.9409 19.2729 11.1889 17.6479C11.3509 16.5919 11.518 15.5 12 15.5C12.482 15.5 12.648 16.5919 12.811 17.6479C13.059 19.2729 13.399 21.5 15.446 21.5C16.956 21.5 17.369 19.6879 17.847 17.5879C18.178 16.1399 18.552 14.498 19.316 13.262C20.787 10.88 20.9019 7.57891 19.5959 5.23291ZM18.464 12.7371C17.613 14.1131 17.2199 15.841 16.8719 17.366C16.5049 18.978 16.1569 20.5 15.4449 20.5C14.3399 20.5 14.0759 19.3111 13.7989 17.4971C13.5729 16.0231 13.341 14.5 12 14.5C10.659 14.5 10.427 16.0231 10.201 17.4971C9.92403 19.3111 9.66003 20.5 8.55503 20.5C7.84303 20.5 7.49503 18.978 7.12803 17.366C6.78003 15.842 6.38699 14.1141 5.53599 12.7371C4.26499 10.6811 4.15693 7.73097 5.27793 5.71997C5.84193 4.70697 6.95497 3.49902 9.04697 3.49902C10.26 3.49902 11.283 3.913 12.087 4.729C12.088 4.729 12.088 4.72998 12.088 4.72998C12.624 5.27498 12.953 5.83809 13.135 6.21509C13.255 6.46509 13.557 6.569 13.802 6.448C14.051 6.328 14.156 6.03001 14.035 5.78101C13.853 5.40301 13.5459 4.86609 13.0689 4.31909C13.4769 3.77409 14.109 3.49805 14.953 3.49805C17.045 3.49805 18.157 4.70599 18.722 5.71899C19.843 7.73099 19.734 10.6821 18.464 12.7371Z" />
</svg>
