<svg viewBox="0 0 24 24" fill="currentColor" stroke="currentColor" xmlns="http://www.w3.org/2000/svg">
<path d="M21.5 10.5V13.5C21.5 13.776 21.276 14 21 14C20.724 14 20.5 13.776 20.5 13.5V12.5H18.976C18.869 14.011 18.283 15.4291 17.2889 16.5811L18.364 17.656L19.0711 16.949C19.2661 16.754 19.583 16.754 19.778 16.949C19.973 17.144 19.973 17.461 19.778 17.656L17.657 19.7781C17.559 19.8761 17.431 19.9241 17.303 19.9241C17.175 19.9241 17.047 19.8751 16.949 19.7781C16.754 19.5831 16.754 19.2661 16.949 19.0711L17.656 18.364L16.58 17.2881C15.426 18.2831 14.0081 18.8691 12.4981 18.9751V20.499H13.4981C13.7741 20.499 13.9981 20.723 13.9981 20.999C13.9981 21.275 13.7741 21.499 13.4981 21.499H10.4981C10.2221 21.499 9.99806 21.275 9.99806 20.999C9.99806 20.723 10.2221 20.499 10.4981 20.499H11.4981V18.957C10.8891 18.913 10.2831 18.8131 9.69605 18.6121C9.43405 18.5221 9.29602 18.2371 9.38502 17.9771C9.47502 17.7161 9.75703 17.578 10.02 17.666C12.194 18.414 14.6131 17.8519 16.2321 16.2549C16.2361 16.2509 16.237 16.245 16.241 16.241C16.245 16.237 16.251 16.235 16.256 16.231C17.378 15.093 17.9981 13.5901 17.9981 11.9981C17.9981 11.3291 17.886 10.663 17.665 10.02C17.575 9.75903 17.714 9.47502 17.975 9.38502C18.24 9.29402 18.521 9.43408 18.611 9.69508C18.813 10.2821 18.913 10.8881 18.957 11.4981H20.499V10.4981C20.499 10.2221 20.723 9.99806 20.999 9.99806C21.275 9.99806 21.5 10.224 21.5 10.5ZM3.35401 21.354C3.25601 21.452 3.12801 21.5 3.00001 21.5C2.87201 21.5 2.74401 21.451 2.64601 21.354C2.45101 21.159 2.45101 20.842 2.64601 20.647L4.93202 18.3611L4.22596 17.6541C4.03096 17.4591 4.03096 17.142 4.22596 16.947C4.42096 16.752 4.73799 16.752 4.93299 16.947L5.63905 17.6541L6.71107 16.582C5.71707 15.43 5.13106 14.011 5.02406 12.5H3.50001V13.5C3.50001 13.776 3.27601 14 3.00001 14C2.72401 14 2.50001 13.776 2.50001 13.5V10.5C2.50001 10.224 2.72401 10 3.00001 10C3.27601 10 3.50001 10.224 3.50001 10.5V11.5H5.02406C5.13106 9.98901 5.71707 8.57095 6.71107 7.41895L5.636 6.344L4.92896 7.05103C4.83096 7.14903 4.70296 7.19703 4.57496 7.19703C4.44696 7.19703 4.31896 7.14804 4.22096 7.05103C4.02596 6.85603 4.02596 6.539 4.22096 6.344L6.34205 4.22193C6.53705 4.02693 6.85396 4.02693 7.04896 4.22193C7.24396 4.41693 7.24396 4.73396 7.04896 4.92896L6.34205 5.636L7.41798 6.71192C8.57198 5.71692 9.99001 5.13091 11.5 5.02491V3.50099H10.5C10.224 3.50099 10 3.27699 10 3.00099C10 2.72499 10.224 2.50099 10.5 2.50099H13.5C13.776 2.50099 14 2.72499 14 3.00099C14 3.27699 13.776 3.50099 13.5 3.50099H12.5V5.02491C14.011 5.13091 15.43 5.71792 16.582 6.71192L17.6541 5.6399L16.947 4.93409C16.752 4.73909 16.752 4.42206 16.947 4.22706C17.142 4.03206 17.4591 4.03206 17.6541 4.22706L18.361 4.93312L20.647 2.64698C20.842 2.45198 21.159 2.45198 21.354 2.64698C21.549 2.84198 21.549 3.15901 21.354 3.35401L18.715 5.99293C18.715 5.99293 18.715 5.99391 18.714 5.99391C18.713 5.99391 18.713 5.99413 18.713 5.99513L3.35401 21.354ZM7.41895 15.874L15.874 7.41895C14.787 6.50196 13.43 6.00001 12 6.00001C10.408 6.00001 8.90598 6.61895 7.76698 7.74195C7.76298 7.74695 7.76197 7.75209 7.75697 7.75709C7.75197 7.76209 7.74695 7.7631 7.74195 7.7671C6.61995 8.9051 6.00001 10.408 6.00001 12C6.00001 13.43 6.50196 14.786 7.41895 15.874Z" />
</svg>
