<svg viewBox="0 0 24 24" fill="currentColor" stroke="currentColor" xmlns="http://www.w3.org/2000/svg">
<path d="M21 10C20.724 10 20.5 10.224 20.5 10.5V11.5H18.975C18.864 9.946 18.247 8.5331 17.285 7.4231L18.365 6.34302L19.072 7.05005C19.17 7.14805 19.298 7.19604 19.426 7.19604C19.554 7.19604 19.682 7.14705 19.78 7.05005C19.975 6.85505 19.975 6.53802 19.78 6.34302L17.6591 4.22095C17.4641 4.02595 17.147 4.02595 16.952 4.22095C16.757 4.41595 16.757 4.73298 16.952 4.92798L17.6591 5.63501L16.579 6.71509C15.469 5.75209 14.056 5.13493 12.502 5.02393V3.49902H13.502C13.778 3.49902 14.002 3.27502 14.002 2.99902C14.002 2.72302 13.778 2.49902 13.502 2.49902H10.502C10.226 2.49902 10.002 2.72302 10.002 2.99902C10.002 3.27502 10.226 3.49902 10.502 3.49902H11.502V5.02393C9.94795 5.13493 8.53505 5.75209 7.42505 6.71509L6.34497 5.63501L7.052 4.92798C7.247 4.73298 7.247 4.41595 7.052 4.22095C6.857 4.02595 6.53997 4.02595 6.34497 4.22095L4.224 6.34302C4.029 6.53802 4.029 6.85505 4.224 7.05005C4.322 7.14805 4.45 7.19604 4.578 7.19604C4.706 7.19604 4.83401 7.14705 4.93201 7.05005L5.63904 6.34302L6.71899 7.4231C5.75599 8.5331 5.13905 9.946 5.02905 11.5H3.50403V10.5C3.50403 10.224 3.28003 10 3.00403 10C2.72803 10 2.50403 10.224 2.50403 10.5V13.5C2.50403 13.776 2.72803 14 3.00403 14C3.28003 14 3.50403 13.776 3.50403 13.5V12.5H5.02905C5.14005 14.054 5.75699 15.4669 6.71899 16.5769L5.63904 17.657L4.93201 16.95C4.73701 16.755 4.41998 16.755 4.22498 16.95C4.02998 17.145 4.02998 17.462 4.22498 17.657L6.34595 19.7791C6.44395 19.8771 6.57195 19.925 6.69995 19.925C6.82795 19.925 6.95596 19.8761 7.05396 19.7791C7.24896 19.5841 7.24896 19.267 7.05396 19.072L6.34705 18.365L7.427 17.2849C8.537 18.2479 9.95003 18.8651 11.504 18.9761V20.501H10.504C10.228 20.501 10.004 20.725 10.004 21.001C10.004 21.277 10.228 21.501 10.504 21.501H13.504C13.78 21.501 14.004 21.277 14.004 21.001C14.004 20.725 13.78 20.501 13.504 20.501H12.504V18.9761C14.058 18.8651 15.4711 18.2479 16.5811 17.2849L17.661 18.365L16.954 19.072C16.759 19.267 16.759 19.5841 16.954 19.7791C17.052 19.8771 17.18 19.925 17.308 19.925C17.436 19.925 17.564 19.8761 17.662 19.7791L19.783 17.657C19.978 17.462 19.978 17.145 19.783 16.95C19.588 16.755 19.271 16.755 19.076 16.95L18.369 17.657L17.2889 16.5769C18.2519 15.4669 18.869 14.054 18.979 12.5H20.504V13.5C20.504 13.776 20.728 14 21.004 14C21.28 14 21.504 13.776 21.504 13.5V10.5C21.5 10.224 21.276 10 21 10ZM12 18C8.691 18 6 15.309 6 12C6 8.691 8.691 6 12 6C15.309 6 18 8.691 18 12C18 15.309 15.309 18 12 18ZM10 12.001C10 12.553 9.552 13.001 9 13.001C8.448 13.001 8 12.553 8 12.001C8 11.449 8.448 11.001 9 11.001C9.552 11.001 10 11.449 10 12.001ZM14.75 10.002C14.75 10.416 14.414 10.752 14 10.752C13.586 10.752 13.25 10.416 13.25 10.002C13.25 9.58795 13.586 9.25195 14 9.25195C14.414 9.25195 14.75 9.58695 14.75 10.002ZM13.5 14C13.5 14.276 13.276 14.5 13 14.5C12.724 14.5 12.5 14.276 12.5 14C12.5 13.724 12.724 13.5 13 13.5C13.276 13.5 13.5 13.724 13.5 14Z" />
</svg>
