<svg viewBox="0 0 24 24" fill="currentColor" stroke="currentColor" xmlns="http://www.w3.org/2000/svg">
<path d="M21.5 11.9971C21.5 12.2731 21.276 12.4971 21 12.4971H17.6121C17.4241 12.4971 17.253 12.601 17.167 12.769L16.067 14.9209C15.875 15.2979 15.4791 15.51 15.0551 15.459C14.6331 15.407 14.299 15.1061 14.202 14.6931L12.064 5.49901L9.89905 17.6741C9.81505 18.1431 9.42505 18.482 8.95105 18.499C8.93805 18.499 8.92596 18.499 8.91296 18.499C8.45396 18.499 8.05895 18.1941 7.94495 17.7451L6.70605 12.8721C6.64905 12.6501 6.45005 12.4961 6.22205 12.4961H3C2.724 12.4961 2.5 12.2721 2.5 11.9961C2.5 11.7201 2.724 11.4961 3 11.4961H6.22302C6.91002 11.4961 7.50703 11.961 7.67603 12.626L8.91504 17.499L11.0811 5.32396C11.1641 4.85096 11.5589 4.51201 12.0389 4.49901C12.5139 4.47801 12.932 4.80396 13.04 5.27196L15.178 14.466L16.277 12.3139C16.535 11.8099 17.047 11.4961 17.613 11.4961H21C21.276 11.4971 21.5 11.7211 21.5 11.9971Z" />
</svg>
