<svg viewBox="0 0 24 24" fill="currentColor" stroke="currentColor" xmlns="http://www.w3.org/2000/svg">
<path d="M6.89796 17.8091L21.354 3.35304C21.549 3.15804 21.549 2.84101 21.354 2.64601C21.159 2.45101 20.842 2.45101 20.647 2.64601L16.532 6.761C16.225 6.651 15.881 6.57991 15.501 6.54591V6.00001C15.501 4.07001 13.931 2.50001 12.001 2.50001C10.071 2.50001 8.50099 4.07001 8.50099 6.00001V6.53492C7.08399 6.65992 6.14307 7.30812 5.73707 8.46412C4.83707 8.31112 4.08193 7.67502 3.79493 6.79103L3.47511 5.84107C3.38711 5.58007 3.10907 5.43811 2.84107 5.52711C2.57907 5.61511 2.43909 5.89892 2.52809 6.15992L2.84596 7.10499C3.24496 8.33299 4.29105 9.22108 5.54005 9.44508C5.52205 9.62608 5.50099 9.80399 5.50099 10.001V12.501H3.00099C2.72499 12.501 2.50099 12.725 2.50099 13.001C2.50099 13.277 2.72499 13.501 3.00099 13.501H5.50099V15.001C5.50099 15.815 5.65703 16.6009 5.94703 17.3479L2.64698 20.648C2.45198 20.843 2.45198 21.16 2.64698 21.355C2.74498 21.453 2.87299 21.501 3.00099 21.501C3.12899 21.501 3.25699 21.452 3.35499 21.355L6.89796 17.8091C6.89796 17.8101 6.89696 17.8101 6.89796 17.8091ZM9.50001 6.00001C9.50001 4.62201 10.621 3.50001 12 3.50001C13.379 3.50001 14.5 4.62201 14.5 6.00001V6.50001H9.50001V6.00001ZM6.50001 15V10C6.50001 8.27101 7.27101 7.50001 9.00001 7.50001H15C15.268 7.50001 15.507 7.525 15.73 7.563L6.72999 16.563C6.58099 16.059 6.50001 15.537 6.50001 15ZM18.5 15C18.5 15.528 18.4301 16.039 18.3101 16.531C20.0931 16.691 21.5 18.176 21.5 20C21.5 20.276 21.276 20.5 21 20.5C20.724 20.5 20.5 20.276 20.5 20C20.5 18.622 19.379 17.5 18 17.5H17.999C17.017 19.846 14.699 21.5 12 21.5C10.521 21.5 9.13101 21.0171 7.97901 20.1021C7.76301 19.9301 7.72694 19.6159 7.89894 19.3989C8.07194 19.1829 8.38506 19.1491 8.60206 19.3181C9.44306 19.9861 10.439 20.363 11.5 20.458V16C11.5 15.724 11.724 15.5 12 15.5C12.276 15.5 12.5 15.724 12.5 16V20.4751C15.299 20.2211 17.5 17.864 17.5 15V10C17.5 9.72401 17.724 9.50001 18 9.50001C18.276 9.50001 18.5 9.72401 18.5 10V12.5H21C21.276 12.5 21.5 12.724 21.5 13C21.5 13.276 21.276 13.5 21 13.5H18.5V15Z" />
</svg>
