<svg viewBox="0 0 24 24" fill="currentColor" stroke="currentColor" xmlns="http://www.w3.org/2000/svg">
<path d="M18.3101 16.531C18.4301 16.039 18.5 15.528 18.5 15V13.5H21C21.276 13.5 21.5 13.276 21.5 13C21.5 12.724 21.276 12.5 21 12.5H18.5V10C18.5 9.803 18.4789 9.62509 18.4609 9.44409C19.7099 9.22109 20.7561 8.33311 21.1531 7.11011L21.4729 6.15991C21.5619 5.89791 21.4209 5.6151 21.1599 5.5271C20.8939 5.4381 20.6149 5.58006 20.5259 5.84106L20.2041 6.79712C19.9181 7.67712 19.1639 8.31209 18.2639 8.46509C17.8579 7.30909 16.917 6.66089 15.5 6.53589V6C15.5 4.07 13.93 2.5 12 2.5C10.07 2.5 8.5 4.07 8.5 6V6.53491C7.083 6.65991 6.14208 7.30811 5.73608 8.46411C4.83608 8.31111 4.08095 7.67502 3.79395 6.79102L3.47412 5.84106C3.38612 5.58006 3.10709 5.4381 2.84009 5.5271C2.57809 5.6151 2.4381 5.89891 2.5271 6.15991L2.84497 7.10498C3.24397 8.33298 4.29006 9.22107 5.53906 9.44507C5.52106 9.62607 5.5 9.80398 5.5 10.001V12.501H3C2.724 12.501 2.5 12.725 2.5 13.001C2.5 13.277 2.724 13.501 3 13.501H5.5V15.001C5.5 15.529 5.56994 16.04 5.68994 16.532C3.90694 16.692 2.5 18.177 2.5 20.001C2.5 20.277 2.724 20.501 3 20.501C3.276 20.501 3.5 20.277 3.5 20.001C3.5 18.623 4.621 17.501 6 17.501H6.00098C6.98298 19.847 9.301 21.501 12 21.501C14.699 21.501 17.017 19.847 17.999 17.501H18C19.379 17.501 20.5 18.623 20.5 20.001C20.5 20.277 20.724 20.501 21 20.501C21.276 20.501 21.5 20.277 21.5 20.001C21.5 18.177 20.0931 16.691 18.3101 16.531ZM9.5 6C9.5 4.622 10.621 3.5 12 3.5C13.379 3.5 14.5 4.622 14.5 6V6.5H9.5V6ZM12.5 20.4751V13C12.5 12.724 12.276 12.5 12 12.5C11.724 12.5 11.5 12.724 11.5 13V20.4751C8.701 20.2211 6.5 17.864 6.5 15V10C6.5 8.271 7.271 7.5 9 7.5H15C16.729 7.5 17.5 8.271 17.5 10V15C17.5 17.864 15.299 20.2211 12.5 20.4751Z" />
</svg>
