<svg viewBox="0 0 24 24" fill="currentColor" stroke="currentColor" xmlns="http://www.w3.org/2000/svg">
<path d="M21.0161 13.738C19.7261 15.889 16.838 19.5 12 19.5C11.062 19.5 10.137 19.3569 9.25003 19.0769C8.98603 18.9939 8.8411 18.713 8.9241 18.45C9.0081 18.187 9.29105 18.038 9.55105 18.124C10.3411 18.374 11.165 18.5 12 18.5C16.345 18.5 18.977 15.1939 20.159 13.2229C20.615 12.4689 20.6149 11.5321 20.1599 10.7791C19.8079 10.1871 19.3781 9.58003 18.9131 9.02003C18.7361 8.80803 18.7661 8.49293 18.9781 8.31593C19.1891 8.13993 19.5059 8.16911 19.6819 8.38111C20.1799 8.98011 20.6421 9.6309 21.0171 10.2649C21.6641 11.3339 21.6641 12.666 21.0161 13.738ZM9.88406 14.823L3.35403 21.353C3.25603 21.451 3.12803 21.499 3.00003 21.499C2.87203 21.499 2.74403 21.45 2.64603 21.353C2.45103 21.158 2.45103 20.841 2.64603 20.646L6.01297 17.2791C4.60097 16.1181 3.58594 14.7411 2.98294 13.7371C2.33594 12.6661 2.33592 11.334 2.98392 10.261C4.27392 8.11 7.16203 4.49903 12 4.49903C13.851 4.49903 15.592 5.04399 17.187 6.10499L20.647 2.64503C20.842 2.45003 21.159 2.45003 21.354 2.64503C21.549 2.84003 21.549 3.15706 21.354 3.35206L9.88895 14.8169C9.88795 14.8179 9.88799 14.8191 9.88699 14.8201C9.88599 14.8221 9.88506 14.822 9.88406 14.823ZM9.56204 13.731L13.731 9.56202C13.231 9.20102 12.634 9.00001 12 9.00001C10.347 9.00001 9.00101 10.346 9.00101 12C9.00101 12.634 9.20204 13.23 9.56204 13.731ZM6.72195 16.5711L8.85599 14.437C8.31199 13.744 8.00101 12.901 8.00101 12C8.00101 9.79401 9.79503 8.00001 12 8.00001C12.901 8.00001 13.744 8.31099 14.438 8.85499L16.4519 6.84107C15.0719 5.96707 13.582 5.49903 12.001 5.49903C7.65601 5.49903 5.02407 8.80489 3.84207 10.7759C3.38607 11.5299 3.38609 12.467 3.84109 13.22C4.41309 14.176 5.37795 15.4891 6.72195 16.5711ZM14.9551 12.4741C14.7591 13.7401 13.7392 14.7611 12.4742 14.9561C12.2012 14.9981 12.0139 15.2529 12.0559 15.5259C12.0939 15.7729 12.3071 15.95 12.5491 15.95C12.5741 15.95 12.601 15.9481 12.626 15.9441C14.317 15.6831 15.6821 14.319 15.9431 12.626C15.9851 12.354 15.7979 12.0979 15.5249 12.0559C15.2559 12.0149 14.9971 12.2011 14.9551 12.4741Z" />
</svg>
