<svg viewBox="0 0 24 24" fill="currentColor" stroke="currentColor" xmlns="http://www.w3.org/2000/svg">
<path d="M18.675 13.1029L20.416 15.7228C20.569 15.9528 20.5068 16.2639 20.2758 16.4159C20.1908 16.4729 20.095 16.4989 20 16.4989C19.839 16.4989 19.6799 16.4198 19.5839 16.2758L17.885 13.7189C17.042 14.3129 16.0249 14.8208 14.8049 15.1398L15.4851 17.8778C15.5511 18.1458 15.3881 18.4168 15.1201 18.4838C15.0801 18.4938 15.039 18.4989 15 18.4989C14.775 18.4989 14.5708 18.347 14.5148 18.12L13.8249 15.3419C13.2519 15.4339 12.654 15.4989 12 15.4989C11.346 15.4989 10.749 15.4339 10.175 15.3419L9.48506 18.12C9.42806 18.348 9.22395 18.4989 8.99995 18.4989C8.96095 18.4989 8.91984 18.4938 8.87984 18.4838C8.61084 18.4168 8.44785 18.1458 8.51485 17.8778L9.19502 15.1398C7.97602 14.8208 6.95794 14.3129 6.11494 13.7189L4.41597 16.2758C4.31997 16.4208 4.16095 16.4989 3.99995 16.4989C3.90395 16.4989 3.80908 16.4719 3.72408 16.4159C3.49408 16.2629 3.43094 15.9528 3.58394 15.7228L5.32491 13.1029C3.28491 11.3219 2.53786 9.19487 2.52486 9.15787C2.43786 8.89587 2.58004 8.61379 2.84004 8.52579C3.10304 8.43879 3.38485 8.579 3.47285 8.84C3.51985 8.98 4.24089 11.0039 6.23189 12.5929C6.23989 12.5979 6.24903 12.5979 6.25703 12.6029C6.28003 12.6179 6.29394 12.6408 6.31294 12.6588C7.61994 13.6758 9.45595 14.4989 12 14.4989C14.544 14.4989 16.38 13.6758 17.687 12.6588C17.707 12.6408 17.7199 12.6179 17.7429 12.6029C17.7509 12.5979 17.76 12.5979 17.768 12.5929C19.758 11.0039 20.4788 8.97997 20.5258 8.84097C20.6148 8.57997 20.8979 8.44001 21.1589 8.52701C21.4199 8.61501 21.5611 8.89684 21.4741 9.15884C21.4621 9.19484 20.715 11.3219 18.675 13.1029Z" />
</svg>
