<svg viewBox="0 0 24 24" fill="currentColor" stroke="currentColor" xmlns="http://www.w3.org/2000/svg">
<path d="M21.5 4.5V8C21.5 8.276 21.276 8.5 21 8.5C20.724 8.5 20.5 8.276 20.5 8V4.5C20.5 3.78 20.22 3.5 19.5 3.5H16C15.724 3.5 15.5 3.276 15.5 3C15.5 2.724 15.724 2.5 16 2.5H19.5C20.771 2.5 21.5 3.229 21.5 4.5ZM3 8.5C3.276 8.5 3.5 8.276 3.5 8V4.5C3.5 3.78 3.78 3.5 4.5 3.5H8C8.276 3.5 8.5 3.276 8.5 3C8.5 2.724 8.276 2.5 8 2.5H4.5C3.229 2.5 2.5 3.229 2.5 4.5V8C2.5 8.276 2.724 8.5 3 8.5ZM8 20.5H4.5C3.78 20.5 3.5 20.22 3.5 19.5V16C3.5 15.724 3.276 15.5 3 15.5C2.724 15.5 2.5 15.724 2.5 16V19.5C2.5 20.771 3.229 21.5 4.5 21.5H8C8.276 21.5 8.5 21.276 8.5 21C8.5 20.724 8.276 20.5 8 20.5ZM21 15.5C20.724 15.5 20.5 15.724 20.5 16V19.5C20.5 20.22 20.22 20.5 19.5 20.5H16C15.724 20.5 15.5 20.724 15.5 21C15.5 21.276 15.724 21.5 16 21.5H19.5C20.771 21.5 21.5 20.771 21.5 19.5V16C21.5 15.724 21.276 15.5 21 15.5ZM15.896 17.5229C15.738 17.7499 15.793 18.061 16.02 18.219C16.107 18.28 16.2069 18.3091 16.3059 18.3091C16.4629 18.3091 16.6181 18.2349 16.7161 18.0959C17.2581 17.3199 17.5 16.375 17.5 15.031V10.863C17.5 9.73604 17.157 8.66392 16.509 7.76392C16.347 7.53892 16.033 7.4899 15.812 7.6499C15.587 7.8109 15.537 8.1239 15.699 8.3479C16.223 9.0769 16.501 9.94704 16.501 10.863V15.031C16.5 16.158 16.313 16.9259 15.896 17.5229ZM12.324 6.52393C12.583 6.55993 12.8469 6.36291 12.8799 6.08691C12.9129 5.81291 12.7181 5.56403 12.4431 5.53003C12.2501 5.50703 12.057 5.49902 11.863 5.49902C8.90604 5.49902 6.5 7.90506 6.5 10.8621V13.9441C6.5 14.2201 6.724 14.4441 7 14.4441C7.276 14.4441 7.5 14.2201 7.5 13.9441V10.8621C7.501 8.30506 9.74397 6.21393 12.324 6.52393ZM14.249 10.5649C14.22 10.4529 14.191 10.3411 14.146 10.2351C14.129 10.1951 14.1039 10.1611 14.0859 10.1221C14.0379 10.0231 13.99 9.92305 13.928 9.83105C13.883 9.76505 13.8269 9.707 13.7759 9.646C13.7289 9.59 13.69 9.53005 13.637 9.47705C13.419 9.25905 13.1649 9.08992 12.8879 8.97192C12.8539 8.95792 12.817 8.95099 12.783 8.93799C12.675 8.89799 12.5669 8.85896 12.4529 8.83496C12.4069 8.82496 12.3581 8.82512 12.3101 8.81812C12.2141 8.80412 12.118 8.78496 12.019 8.78296C12.013 8.78296 12.008 8.78611 12.002 8.78711C11.988 8.78711 11.9759 8.78296 11.9619 8.78296C10.6559 8.78296 9.59399 9.84488 9.59399 11.1509V11.4009V12.9319V13.9441C9.59399 14.3811 9.39288 15.094 9.05688 15.532C8.88888 15.751 8.92993 16.0649 9.14893 16.2329C9.23993 16.3029 9.3471 16.3369 9.4541 16.3369C9.6031 16.3369 9.7521 16.2701 9.8501 16.1411C10.3621 15.4751 10.594 14.5361 10.594 13.9441V12.9319V11.4009V11.1509C10.594 10.3969 11.2069 9.78296 11.9619 9.78296C11.9819 9.78296 12 9.78806 12.02 9.78906C12.358 9.80406 12.688 9.94506 12.929 10.1851C13.057 10.3141 13.1571 10.464 13.2251 10.626C13.2271 10.63 13.227 10.6349 13.229 10.6389C13.295 10.7999 13.3311 10.9731 13.3311 11.1521V12.9331V14.5071C13.3311 15.6181 13.193 16.7651 12.196 17.6201C11.986 17.8001 11.9621 18.115 12.1411 18.325C12.2411 18.44 12.38 18.499 12.521 18.499C12.636 18.499 12.7519 18.4589 12.8459 18.3779C14.1539 17.2559 14.3301 15.7911 14.3301 14.5061V12.9319V11.1509C14.3301 10.9909 14.313 10.833 14.282 10.679C14.275 10.64 14.259 10.6039 14.249 10.5649Z" />
</svg>
