<svg viewBox="0 0 24 24" fill="currentColor" stroke="currentColor" xmlns="http://www.w3.org/2000/svg">
<path d="M19.5 10V16C19.5 17.886 19.1639 19.2081 18.4099 20.2871C18.3119 20.4261 18.157 20.5 18 20.5C17.9 20.5 17.8011 20.4709 17.7141 20.4099C17.4871 20.2519 17.4321 19.9401 17.5901 19.7141C18.2201 18.8141 18.5 17.669 18.5 16.001V10.001C18.5 8.63598 18.087 7.33993 17.304 6.25293C17.143 6.02893 17.194 5.71593 17.418 5.55493C17.64 5.39393 17.954 5.44395 18.116 5.66895C19.021 6.92695 19.5 8.424 19.5 10ZM12.689 3.53711C12.957 3.57111 13.2121 3.3751 13.2461 3.1001C13.2791 2.8261 13.0841 2.57697 12.8101 2.54297C12.5391 2.50997 12.27 2.5 11.999 2.5C7.86302 2.5 4.49902 5.864 4.49902 10V16C4.49902 16.276 4.72302 16.5 4.99902 16.5C5.27502 16.5 5.49902 16.276 5.49902 16V10C5.49902 6.416 8.41502 3.5 11.999 3.5C12.229 3.5 12.46 3.50911 12.689 3.53711ZM12.083 6.5C12.078 6.5 12.0741 6.5 12.0701 6.5C11.7991 6.5 11.5771 6.71606 11.5701 6.98706C11.5631 7.26306 11.7819 7.493 12.0569 7.5C12.6929 7.516 13.3151 7.78291 13.7661 8.23291C14.2391 8.70591 14.499 9.334 14.499 10V15.3899C14.499 17.6669 13.6159 19.317 11.7209 20.584C11.4919 20.737 11.43 21.0481 11.583 21.2771C11.68 21.4211 11.838 21.499 11.999 21.499C12.095 21.499 12.1911 21.472 12.2771 21.415C14.4451 19.966 15.499 17.9949 15.499 15.3899V10C15.499 9.067 15.1349 8.18788 14.4729 7.52588C13.8429 6.89588 12.972 6.522 12.083 6.5ZM9.28809 8.65503C9.02409 8.57003 8.74303 8.70892 8.65503 8.97192C8.55203 9.28192 8.5 9.628 8.5 10V13.9299C8.5 14.9149 8.171 15.887 7.573 16.666C7.405 16.885 7.44604 17.1989 7.66504 17.3669C7.75604 17.4369 7.86297 17.4709 7.96997 17.4709C8.11897 17.4709 8.26797 17.4039 8.36597 17.2749C9.09697 16.3219 9.5 15.1349 9.5 13.9309V10C9.5 9.739 9.536 9.49309 9.604 9.28809C9.691 9.02609 9.55009 8.74303 9.28809 8.65503ZM12 15.5C12.276 15.5 12.5 15.276 12.5 15V11C12.5 10.724 12.276 10.5 12 10.5C11.724 10.5 11.5 10.724 11.5 11V15C11.5 15.276 11.724 15.5 12 15.5Z" />
</svg>
