<svg viewBox="0 0 24 24" fill="currentColor" stroke="currentColor" xmlns="http://www.w3.org/2000/svg">
<path d="M13.5 7C11.57 7 10 8.57 10 10.5C10 10.744 10.025 10.984 10.074 11.218L7.146 14.146C7.052 14.24 7 14.367 7 14.5V16.5C7 16.776 7.224 17 7.5 17H9.5C9.776 17 10 16.776 10 16.5V15.5H11C11.133 15.5 11.26 15.447 11.354 15.354L12.782 13.926C13.017 13.976 13.258 14.001 13.501 14.001C15.431 14.001 17.001 12.431 17.001 10.501C17.001 8.57098 15.43 7 13.5 7ZM13.5 13C13.252 13 13.0091 12.9641 12.7771 12.8931C12.5971 12.8371 12.4059 12.8861 12.2759 13.0171L10.793 14.5H9.5C9.224 14.5 9 14.724 9 15V16H8V14.707L10.9829 11.7241C11.1139 11.5931 11.1619 11.3999 11.1069 11.2229C11.0359 10.9919 11 10.749 11 10.5C11 9.122 12.121 8 13.5 8C14.879 8 16 9.122 16 10.5C16 11.878 14.879 13 13.5 13ZM14.75 10C14.75 10.415 14.4159 10.75 14.0039 10.75C13.5929 10.75 13.25 10.415 13.25 10C13.25 9.585 13.577 9.25 13.989 9.25H14.0039C14.4159 9.25 14.75 9.585 14.75 10ZM12 1.5C6.21 1.5 1.5 6.21 1.5 12C1.5 17.79 6.21 22.5 12 22.5C17.79 22.5 22.5 17.79 22.5 12C22.5 6.21 17.79 1.5 12 1.5ZM12 21.5C6.762 21.5 2.5 17.238 2.5 12C2.5 6.762 6.762 2.5 12 2.5C17.238 2.5 21.5 6.762 21.5 12C21.5 17.238 17.238 21.5 12 21.5Z" />
</svg>
