<svg viewBox="0 0 24 24" fill="currentColor" stroke="currentColor" xmlns="http://www.w3.org/2000/svg">
<path d="M15 2.5C11.416 2.5 8.5 5.416 8.5 9C8.5 9.543 8.56597 10.078 8.69897 10.594L2.646 16.647C2.552 16.741 2.5 16.868 2.5 17.001V21.001C2.5 21.277 2.724 21.501 3 21.501H7C7.276 21.501 7.5 21.277 7.5 21.001V18.501H10C10.133 18.501 10.26 18.448 10.354 18.355L13.407 15.302C13.923 15.434 14.458 15.501 15.001 15.501C18.585 15.501 21.501 12.585 21.501 9.00098C21.501 5.41698 18.584 2.5 15 2.5ZM15 14.5C14.453 14.5 13.917 14.4199 13.407 14.2629C13.23 14.2069 13.037 14.255 12.906 14.387L9.79297 17.5H7C6.724 17.5 6.5 17.724 6.5 18V20.5H3.5V17.207L9.61304 11.094C9.74404 10.963 9.79206 10.77 9.73706 10.593C9.58006 10.083 9.5 9.547 9.5 9C9.5 5.967 11.968 3.5 15 3.5C18.032 3.5 20.5 5.967 20.5 9C20.5 12.033 18.032 14.5 15 14.5ZM17 8C17 8.553 16.5549 9 16.0049 9C15.4569 9 15 8.553 15 8C15 7.447 15.4351 7 15.9851 7H16.0049C16.5549 7 17 7.447 17 8Z" />
</svg>
