<svg viewBox="0 0 24 24" fill="currentColor" stroke="currentColor" xmlns="http://www.w3.org/2000/svg">
<path d="M12 1.5C6.21 1.5 1.5 6.21 1.5 12C1.5 17.79 6.21 22.5 12 22.5C17.79 22.5 22.5 17.79 22.5 12C22.5 6.21 17.79 1.5 12 1.5ZM12 21.5C6.762 21.5 2.5 17.238 2.5 12C2.5 6.762 6.762 2.5 12 2.5C17.238 2.5 21.5 6.762 21.5 12C21.5 17.238 17.238 21.5 12 21.5ZM12 8.5C10.897 8.5 10 9.397 10 10.5C10 11.429 10.64 12.205 11.5 12.429V16C11.5 16.276 11.724 16.5 12 16.5C12.276 16.5 12.5 16.276 12.5 16V12.429C13.36 12.205 14 11.429 14 10.5C14 9.397 13.103 8.5 12 8.5ZM12 11.5C11.448 11.5 11 11.051 11 10.5C11 9.949 11.448 9.5 12 9.5C12.552 9.5 13 9.949 13 10.5C13 11.051 12.552 11.5 12 11.5Z" />
</svg>
