<svg viewBox="0 0 24 24" fill="currentColor" stroke="currentColor" xmlns="http://www.w3.org/2000/svg">
<path d="M17.625 2.5H6.375C3.84 2.5 2.5 3.84 2.5 6.375V17.625C2.5 20.16 3.84 21.5 6.375 21.5H17.625C20.16 21.5 21.5 20.16 21.5 17.625V6.375C21.5 3.84 20.16 2.5 17.625 2.5ZM20.5 17.625C20.5 19.586 19.587 20.5 17.625 20.5H6.375C4.413 20.5 3.5 19.586 3.5 17.625V6.375C3.5 4.414 4.413 3.5 6.375 3.5H17.625C19.587 3.5 20.5 4.414 20.5 6.375V17.625ZM12 8.5C10.897 8.5 10 9.397 10 10.5C10 11.429 10.64 12.205 11.5 12.429V16C11.5 16.276 11.724 16.5 12 16.5C12.276 16.5 12.5 16.276 12.5 16V12.429C13.36 12.205 14 11.429 14 10.5C14 9.397 13.103 8.5 12 8.5ZM12 11.5C11.448 11.5 11 11.051 11 10.5C11 9.949 11.448 9.5 12 9.5C12.552 9.5 13 9.949 13 10.5C13 11.051 12.552 11.5 12 11.5Z" />
</svg>
