<svg viewBox="0 0 24 24" fill="currentColor" stroke="currentColor" xmlns="http://www.w3.org/2000/svg">
<path d="M12.5 6.76099C12.5 7.03699 12.276 7.26099 12 7.26099C10.355 7.26099 9.02009 8.49391 8.89209 10.1289C8.87109 10.3909 8.65302 10.5901 8.39502 10.5901C8.38102 10.5901 8.36898 10.5901 8.35498 10.5891C8.07998 10.5681 7.875 10.327 7.896 10.051C8.064 7.89103 9.829 6.26099 12 6.26099C12.276 6.26099 12.5 6.48399 12.5 6.76099ZM21.5 19.499V21C21.5 21.276 21.276 21.5 21 21.5H3C2.724 21.5 2.5 21.276 2.5 21V19.5C2.5 18.538 3.18289 17.7339 4.08789 17.5439V11.4709C4.08789 6.10495 7.268 2.5 12 2.5C16.732 2.5 19.9121 6.10495 19.9121 11.4709V17.5439C20.8181 17.7339 21.5 18.538 21.5 19.499ZM5.08789 17.5H18.9121V11.4709C18.9121 6.70295 16.135 3.5 12 3.5C7.865 3.5 5.08789 6.70295 5.08789 11.4709V17.5ZM20.5 19.499C20.5 18.948 20.052 18.5 19.501 18.5H19.4121H4.58789H4.5C3.948 18.5 3.5 18.949 3.5 19.5V20.5H20.5V19.499Z" />
</svg>
