<svg viewBox="0 0 24 24" fill="currentColor" stroke="currentColor" xmlns="http://www.w3.org/2000/svg">
<path d="M12.5 9.41895C12.5 9.69495 12.276 9.91895 12 9.91895C10.529 9.91895 9.33397 11.0219 9.21997 12.4829C9.19997 12.7449 8.9809 12.9441 8.7229 12.9441C8.7089 12.9441 8.69711 12.9441 8.68311 12.9431C8.40811 12.9221 8.20312 12.681 8.22412 12.406C8.37812 10.418 10.002 8.91895 12 8.91895C12.276 8.91895 12.5 9.14295 12.5 9.41895ZM20.5 20.499V22C20.5 22.276 20.276 22.5 20 22.5H4C3.724 22.5 3.5 22.276 3.5 22V20.5C3.5 19.658 4.02396 18.94 4.76196 18.645V13.7009C4.76196 8.79593 7.671 5.5 12 5.5C16.329 5.5 19.238 8.79493 19.238 13.7009V18.645C19.976 18.939 20.5 19.658 20.5 20.499ZM5.76196 18.5H18.239V13.7009C18.239 9.39393 15.732 6.5 12.001 6.5C8.26998 6.5 5.76294 9.39393 5.76294 13.7009V18.5H5.76196ZM19.5 20.499C19.5 19.948 19.052 19.5 18.501 19.5H5.5C4.948 19.5 4.5 19.949 4.5 20.5V21.5H19.5V20.499ZM12 4C12.276 4 12.5 3.776 12.5 3.5V2C12.5 1.724 12.276 1.5 12 1.5C11.724 1.5 11.5 1.724 11.5 2V3.5C11.5 3.776 11.724 4 12 4ZM18.5 6C18.628 6 18.756 5.951 18.854 5.854L20.354 4.354C20.549 4.159 20.549 3.84197 20.354 3.64697C20.159 3.45197 19.842 3.45197 19.647 3.64697L18.147 5.14697C17.952 5.34197 17.952 5.659 18.147 5.854C18.244 5.951 18.372 6 18.5 6ZM5.146 5.854C5.244 5.952 5.372 6 5.5 6C5.628 6 5.756 5.951 5.854 5.854C6.049 5.659 6.049 5.34197 5.854 5.14697L4.354 3.64697C4.159 3.45197 3.84197 3.45197 3.64697 3.64697C3.45197 3.84197 3.45197 4.159 3.64697 4.354L5.146 5.854Z" />
</svg>
