<svg viewBox="0 0 24 24" fill="currentColor" stroke="currentColor" xmlns="http://www.w3.org/2000/svg">
<path d="M16.5 8.53491V7C16.5 4.519 14.481 2.5 12 2.5C9.519 2.5 7.5 4.519 7.5 7V8.53491C5.542 8.70691 4.5 9.888 4.5 12V18C4.5 20.29 5.71 21.5 8 21.5H16C18.29 21.5 19.5 20.29 19.5 18V12C19.5 9.888 18.458 8.70691 16.5 8.53491ZM12 3.5C13.93 3.5 15.5 5.07 15.5 7V8.5H8.5V7C8.5 5.07 10.07 3.5 12 3.5ZM18.5 18C18.5 19.729 17.729 20.5 16 20.5H8C6.271 20.5 5.5 19.729 5.5 18V12C5.5 10.271 6.271 9.5 8 9.5H16C17.729 9.5 18.5 10.271 18.5 12V18ZM13 14C13 14.368 12.794 14.6751 12.5 14.8491V17C12.5 17.276 12.276 17.5 12 17.5C11.724 17.5 11.5 17.276 11.5 17V14.843C11.208 14.668 11 14.364 11 14C11 13.447 11.4351 13 11.9851 13H12.0049C12.5549 13 13 13.447 13 14Z" />
</svg>
