<svg viewBox="0 0 24 24" fill="currentColor" stroke="currentColor" xmlns="http://www.w3.org/2000/svg">
<path d="M17.167 16V12C17.167 10.564 16.459 9.70789 15.167 9.53589V8.66602C15.167 6.92002 13.746 5.49902 12 5.49902C10.254 5.49902 8.83301 6.91902 8.83301 8.66602V9.53589C7.54101 9.70789 6.83301 10.564 6.83301 12V16C6.83301 17.612 7.72101 18.5 9.33301 18.5H14.667C16.279 18.5 17.167 17.612 17.167 16ZM12 6.5C13.195 6.5 14.167 7.47199 14.167 8.66699V9.5H9.83301V8.66699C9.83301 7.47199 10.805 6.5 12 6.5ZM16.167 16C16.167 17.051 15.719 17.5 14.667 17.5H9.33301C8.28101 17.5 7.83301 17.051 7.83301 16V12C7.83301 10.949 8.28101 10.5 9.33301 10.5H14.667C15.719 10.5 16.167 10.949 16.167 12V16ZM13 13.333C13 13.701 12.794 14.0079 12.5 14.1819V15.333C12.5 15.609 12.276 15.833 12 15.833C11.724 15.833 11.5 15.609 11.5 15.333V14.176C11.208 14.001 11 13.697 11 13.333C11 12.78 11.4351 12.333 11.9851 12.333H12.0049C12.5549 12.333 13 12.781 13 13.333ZM21.5 4.5V8C21.5 8.276 21.276 8.5 21 8.5C20.724 8.5 20.5 8.276 20.5 8V4.5C20.5 3.78 20.22 3.5 19.5 3.5H16C15.724 3.5 15.5 3.276 15.5 3C15.5 2.724 15.724 2.5 16 2.5H19.5C20.771 2.5 21.5 3.229 21.5 4.5ZM2.5 8V4.5C2.5 3.229 3.229 2.5 4.5 2.5H8C8.276 2.5 8.5 2.724 8.5 3C8.5 3.276 8.276 3.5 8 3.5H4.5C3.78 3.5 3.5 3.78 3.5 4.5V8C3.5 8.276 3.276 8.5 3 8.5C2.724 8.5 2.5 8.276 2.5 8ZM8.5 21C8.5 21.276 8.276 21.5 8 21.5H4.5C3.229 21.5 2.5 20.771 2.5 19.5V16C2.5 15.724 2.724 15.5 3 15.5C3.276 15.5 3.5 15.724 3.5 16V19.5C3.5 20.22 3.78 20.5 4.5 20.5H8C8.276 20.5 8.5 20.724 8.5 21ZM21.5 16V19.5C21.5 20.771 20.771 21.5 19.5 21.5H16C15.724 21.5 15.5 21.276 15.5 21C15.5 20.724 15.724 20.5 16 20.5H19.5C20.22 20.5 20.5 20.22 20.5 19.5V16C20.5 15.724 20.724 15.5 21 15.5C21.276 15.5 21.5 15.724 21.5 16Z" />
</svg>
