<svg viewBox="0 0 24 24" fill="currentColor" stroke="currentColor" xmlns="http://www.w3.org/2000/svg">
<path d="M21 11.5H3C2.724 11.5 2.5 11.724 2.5 12C2.5 12.276 2.724 12.5 3 12.5H4.5V18C4.5 20.29 5.71 21.5 8 21.5H16C18.29 21.5 19.5 20.29 19.5 18V12.5H21C21.276 12.5 21.5 12.276 21.5 12C21.5 11.724 21.276 11.5 21 11.5ZM18.5 18C18.5 19.729 17.729 20.5 16 20.5H8C6.271 20.5 5.5 19.729 5.5 18V12.5H18.5V18ZM4.5 9V6C4.5 3.71 5.71 2.5 8 2.5H16C18.29 2.5 19.5 3.71 19.5 6V9C19.5 9.276 19.276 9.5 19 9.5C18.724 9.5 18.5 9.276 18.5 9V6C18.5 4.271 17.729 3.5 16 3.5H8C6.271 3.5 5.5 4.271 5.5 6V9C5.5 9.276 5.276 9.5 5 9.5C4.724 9.5 4.5 9.276 4.5 9Z" />
</svg>
