<svg viewBox="0 0 24 24" fill="currentColor" stroke="currentColor" xmlns="http://www.w3.org/2000/svg">
<path d="M22.5 12C22.5 17.79 17.79 22.5 12 22.5C6.21 22.5 1.5 17.79 1.5 12C1.5 11.231 1.5861 10.4479 1.7561 9.6709C1.8151 9.4009 2.08707 9.23304 2.35107 9.29004C2.62207 9.34904 2.79191 9.61501 2.73291 9.88501C2.57891 10.592 2.50098 11.304 2.50098 12.001C2.50098 17.239 6.76298 21.501 12.001 21.501C17.239 21.501 21.501 17.239 21.501 12.001C21.501 6.76298 17.239 2.50098 12.001 2.50098C9.62498 2.50098 7.38893 3.36389 5.64893 4.94189L12.354 11.6479C12.549 11.8429 12.549 12.16 12.354 12.355C12.159 12.55 11.842 12.55 11.647 12.355L4.58105 5.28809C4.38605 5.09309 4.38608 4.77703 4.58008 4.58203C6.55408 2.59603 9.18898 1.50098 12.001 1.50098C17.79 1.49998 22.5 6.21 22.5 12Z" />
</svg>
