<svg viewBox="0 0 24 24" fill="currentColor" stroke="currentColor" xmlns="http://www.w3.org/2000/svg">
<path d="M21.5 6.99989V10.8898C21.5 18.9518 13.718 21.954 12.158 22.474C12.106 22.491 12.054 22.4999 12 22.4999C11.946 22.4999 11.8931 22.491 11.8411 22.474C10.8331 22.135 9.30212 21.4998 7.72412 20.3998C7.49712 20.2418 7.4421 19.93 7.6001 19.704C7.7591 19.476 8.0719 19.424 8.2959 19.58C9.6949 20.556 11.057 21.1418 12 21.4718C13.748 20.8588 20.5 18.0278 20.5 10.8898V6.99989C20.5 6.72389 20.724 6.49989 21 6.49989C21.276 6.49989 21.5 6.72389 21.5 6.99989ZM21.354 3.35389L3.354 21.3539C3.256 21.4519 3.128 21.4999 3 21.4999C2.872 21.4999 2.744 21.4509 2.646 21.3539C2.451 21.1589 2.451 20.8419 2.646 20.6469L5.18994 18.1029C3.41194 16.0299 2.49902 13.609 2.49902 10.891V4.99989C2.49902 4.76189 2.66688 4.5569 2.90088 4.5099C7.80988 3.5279 9.55299 2.66396 11.761 1.56996C11.901 1.49996 12.1029 1.48285 12.2429 1.55385C14.1389 2.51185 15.6641 3.27379 19.1931 4.09779L20.645 2.64589C20.84 2.45089 21.1571 2.45089 21.3521 2.64589C21.5471 2.84089 21.549 3.15789 21.354 3.35389ZM5.8999 17.393L18.3669 4.92592C15.2729 4.15892 13.7011 3.40797 12.0181 2.55897C9.87407 3.61997 8.077 4.46683 3.5 5.40883V10.8898C3.5 13.3348 4.3139 15.518 5.8999 17.393Z" />
</svg>
