<svg viewBox="0 0 24 24" fill="currentColor" stroke="currentColor" xmlns="http://www.w3.org/2000/svg">
<path d="M21.0979 4.50999C16.1419 3.51899 14.4209 2.65193 12.2429 1.55393C12.1039 1.48293 11.9069 1.49809 11.7639 1.56809C9.55692 2.66309 7.81408 3.52699 2.90308 4.50999C2.66908 4.55699 2.50098 4.76198 2.50098 4.99998V10.8889C2.50098 18.9509 10.283 21.9541 11.843 22.4741C11.895 22.4911 11.947 22.5 12.001 22.5C12.055 22.5 12.1069 22.4911 12.1589 22.4741C13.7189 21.9541 21.501 18.9509 21.501 10.8889V4.99998C21.5 4.76198 21.3319 4.55699 21.0979 4.50999ZM20.5 10.8889C20.5 18.0259 13.747 20.8589 12 21.4719C10.253 20.8589 3.5 18.0259 3.5 10.8889V5.40891C8.078 4.46691 9.87611 3.61906 12.0161 2.55906C14.0261 3.57006 15.883 4.45691 20.5 5.40891V10.8889ZM11.988 11.2929L14.134 9.14695C14.329 8.95195 14.6461 8.95195 14.8411 9.14695C15.0361 9.34195 15.0361 9.65898 14.8411 9.85398L12.6951 12L14.8411 14.146C15.0361 14.341 15.0361 14.658 14.8411 14.853C14.7431 14.951 14.6151 14.999 14.4871 14.999C14.3591 14.999 14.2311 14.95 14.1331 14.853L11.9871 12.707L9.84106 14.853C9.74306 14.951 9.61506 14.999 9.48706 14.999C9.35906 14.999 9.23106 14.95 9.13306 14.853C8.93806 14.658 8.93806 14.341 9.13306 14.146L11.2791 12L9.13306 9.85398C8.93806 9.65898 8.93806 9.34195 9.13306 9.14695C9.32806 8.95195 9.64509 8.95195 9.84009 9.14695L11.988 11.2929Z" />
</svg>
