<svg viewBox="0 0 24 24" fill="currentColor" stroke="currentColor" xmlns="http://www.w3.org/2000/svg">
<path d="M21.0979 4.50999C16.1389 3.51799 14.4189 2.65093 12.2439 1.55393C12.1029 1.48293 11.9069 1.49809 11.7649 1.56809C9.55789 2.66309 7.81505 3.52699 2.90405 4.50999C2.67005 4.55699 2.50195 4.76198 2.50195 4.99998V10.8889C2.50195 18.9509 10.284 21.9541 11.844 22.4741C11.896 22.4911 11.948 22.5 12.002 22.5C12.056 22.5 12.1079 22.4911 12.1599 22.4741C13.7199 21.9541 21.502 18.9509 21.502 10.8889V4.99998C21.5 4.76198 21.3319 4.55699 21.0979 4.50999ZM20.5 10.8889C20.5 18.0259 13.747 20.8589 12 21.4719C10.253 20.8589 3.5 18.0259 3.5 10.8889V5.40891C8.078 4.46691 9.87611 3.61906 12.0161 2.55906C14.0241 3.57006 15.88 4.45591 20.5 5.40891V10.8889ZM7.65405 12.759C7.73505 12.939 7.91408 13.0549 8.11108 13.0549H10.3879V17C10.3879 17.207 10.516 17.393 10.709 17.467C10.767 17.489 10.8269 17.5 10.8879 17.5C11.0269 17.5 11.163 17.442 11.26 17.334L16.26 11.7781C16.392 11.6311 16.425 11.421 16.345 11.24C16.264 11.06 16.0849 10.9441 15.8879 10.9441H13.6111V6.99998C13.6111 6.79298 13.483 6.60693 13.29 6.53293C13.1 6.45893 12.878 6.51101 12.739 6.66501L7.73901 12.2209C7.60701 12.3679 7.57405 12.579 7.65405 12.759ZM12.6111 8.30295V11.4441C12.6111 11.7201 12.8351 11.9441 13.1111 11.9441H14.7649L11.3879 15.696V12.5549C11.3879 12.2789 11.1639 12.0549 10.8879 12.0549H9.23389L12.6111 8.30295Z" />
</svg>
