<svg viewBox="0 0 24 24" fill="currentColor" stroke="currentColor" xmlns="http://www.w3.org/2000/svg">
<path d="M21.0979 4.50999C16.1389 3.51799 14.4189 2.65093 12.2439 1.55393C12.1029 1.48293 11.9069 1.49809 11.7649 1.56809C9.55789 2.66309 7.81505 3.52699 2.90405 4.50999C2.67005 4.55699 2.50195 4.76198 2.50195 4.99998V10.8889C2.50195 18.9509 10.284 21.9541 11.844 22.4741C11.896 22.4911 11.948 22.5 12.002 22.5C12.056 22.5 12.1079 22.4911 12.1599 22.4741C13.7199 21.9541 21.502 18.9509 21.502 10.8889V4.99998C21.5 4.76198 21.3319 4.55699 21.0979 4.50999ZM20.5 10.8889C20.5 18.0259 13.747 20.8589 12 21.4719C10.253 20.8589 3.5 18.0259 3.5 10.8889V5.40891C8.078 4.46691 9.87611 3.61906 12.0161 2.55906C14.0241 3.57006 15.88 4.45591 20.5 5.40891V10.8889ZM8 10.917C8 12.801 9.53299 14.334 11.417 14.334C12.179 14.334 12.8751 14.0751 13.4441 13.6521L15.146 15.354C15.244 15.452 15.372 15.5 15.5 15.5C15.628 15.5 15.756 15.451 15.854 15.354C16.049 15.159 16.049 14.8419 15.854 14.6469L14.1521 12.945C14.5751 12.376 14.834 11.679 14.834 10.917C14.834 9.03297 13.302 7.49998 11.418 7.49998C9.53397 7.49998 8 9.03297 8 10.917ZM13.833 10.917C13.833 12.25 12.749 13.334 11.417 13.334C10.084 13.334 9 12.25 9 10.917C9 9.58397 10.084 8.49998 11.417 8.49998C12.749 8.49998 13.833 9.58397 13.833 10.917Z" />
</svg>
