<svg viewBox="0 0 24 24" fill="currentColor" stroke="currentColor" xmlns="http://www.w3.org/2000/svg">
<path d="M21.0979 4.50999C16.1419 3.51899 14.4209 2.65193 12.2429 1.55393C12.1039 1.48293 11.9069 1.49809 11.7639 1.56809C9.55692 2.66309 7.81408 3.52699 2.90308 4.50999C2.66908 4.55699 2.50098 4.76198 2.50098 4.99998V10.8889C2.50098 18.9509 10.283 21.9541 11.843 22.4741C11.895 22.4911 11.947 22.5 12.001 22.5C12.055 22.5 12.1069 22.4911 12.1589 22.4741C13.7189 21.9541 21.501 18.9509 21.501 10.8889V4.99998C21.5 4.76198 21.3319 4.55699 21.0979 4.50999ZM20.5 10.8889C20.5 18.0259 13.747 20.8589 12 21.4719C10.253 20.8589 3.5 18.0259 3.5 10.8889V5.40891C8.078 4.46691 9.87611 3.61906 12.0161 2.55906C14.0261 3.57006 15.883 4.45691 20.5 5.40891V10.8889ZM11.988 8.49998C12.264 8.49998 12.488 8.72398 12.488 8.99998V11.5H14.988C15.264 11.5 15.488 11.724 15.488 12C15.488 12.276 15.264 12.5 14.988 12.5H12.488V15C12.488 15.276 12.264 15.5 11.988 15.5C11.712 15.5 11.488 15.276 11.488 15V12.5H8.98804C8.71204 12.5 8.48804 12.276 8.48804 12C8.48804 11.724 8.71204 11.5 8.98804 11.5H11.488V8.99998C11.488 8.72398 11.712 8.49998 11.988 8.49998Z" />
</svg>
