<svg viewBox="0 0 24 24" fill="currentColor" stroke="currentColor" xmlns="http://www.w3.org/2000/svg">
<path d="M21.0979 4.50999C16.1419 3.51899 14.4209 2.65193 12.2429 1.55393C12.1039 1.48293 11.9069 1.49809 11.7639 1.56809C9.55692 2.66309 7.81408 3.52699 2.90308 4.50999C2.66908 4.55699 2.50098 4.76198 2.50098 4.99998V10.8889C2.50098 18.9509 10.283 21.9541 11.843 22.4741C11.895 22.4911 11.947 22.5 12.001 22.5C12.055 22.5 12.1069 22.4911 12.1589 22.4741C13.7189 21.9541 21.501 18.9509 21.501 10.8889V4.99998C21.5 4.76198 21.3319 4.55699 21.0979 4.50999ZM20.5 10.8889C20.5 18.0259 13.747 20.8589 12 21.4719C10.253 20.8589 3.5 18.0259 3.5 10.8889V5.40891C8.078 4.46691 9.87611 3.61906 12.0161 2.55906C14.0261 3.57006 15.883 4.45691 20.5 5.40891V10.8889ZM12.426 7.53709C13.384 7.70509 14.1699 8.49097 14.3379 9.44797C14.5049 10.397 14.1031 11.247 13.2051 11.843C12.6251 12.23 12.5001 12.4559 12.4741 12.5349C12.4041 12.7429 12.209 12.875 12 12.875C11.947 12.875 11.8941 12.8671 11.8401 12.8491C11.5781 12.7611 11.4381 12.4771 11.5271 12.2151C11.7051 11.6901 12.2541 11.276 12.6521 11.01C13.2221 10.632 13.452 10.1771 13.354 9.62107C13.256 9.07107 12.8039 8.61795 12.2529 8.52195C11.8399 8.44895 11.434 8.55602 11.116 8.82102C10.804 9.08302 10.625 9.46698 10.625 9.87498C10.625 10.151 10.401 10.375 10.125 10.375C9.849 10.375 9.625 10.151 9.625 9.87498C9.625 9.17098 9.93512 8.50788 10.4741 8.05588C11.0131 7.60288 11.728 7.41609 12.426 7.53709ZM12.75 15C12.75 15.415 12.4159 15.75 12.0039 15.75C11.5929 15.75 11.25 15.415 11.25 15C11.25 14.585 11.577 14.25 11.989 14.25H12.0039C12.4159 14.25 12.75 14.585 12.75 15Z" />
</svg>
