<svg viewBox="0 0 24 24" fill="currentColor" stroke="currentColor" xmlns="http://www.w3.org/2000/svg">
<path d="M21.0979 4.50999C16.1419 3.51899 14.4209 2.65193 12.2429 1.55393C12.1039 1.48293 11.9069 1.49809 11.7639 1.56809C9.55692 2.66309 7.81408 3.52699 2.90308 4.50999C2.66908 4.55699 2.50098 4.76198 2.50098 4.99998V10.8889C2.50098 18.9509 10.283 21.9541 11.843 22.4741C11.895 22.4911 11.947 22.5 12.001 22.5C12.055 22.5 12.1069 22.4911 12.1589 22.4741C13.7189 21.9541 21.501 18.9509 21.501 10.8889V4.99998C21.5 4.76198 21.3319 4.55699 21.0979 4.50999ZM20.5 10.8889C20.5 18.0259 13.747 20.8589 12 21.4719C10.253 20.8589 3.5 18.0259 3.5 10.8889V5.40891C8.078 4.46691 9.87611 3.61906 12.0161 2.55906C14.0261 3.57006 15.883 4.45691 20.5 5.40891V10.8889ZM11.479 8.24192C10.97 7.92892 10.3541 7.91694 9.83105 8.20994C9.31005 8.50194 9 9.03193 9 9.62693V14.123C9 14.719 9.31105 15.248 9.83105 15.54C10.0831 15.681 10.3559 15.751 10.6299 15.751C10.9229 15.751 11.216 15.67 11.48 15.508L15.26 13.196C15.723 12.912 16 12.418 16 11.874C16 11.33 15.723 10.837 15.259 10.553L11.479 8.24192ZM14.7371 12.343L10.958 14.655C10.76 14.777 10.5201 14.78 10.3201 14.667C10.2231 14.613 10 14.452 10 14.122V9.62595C10 9.39695 10.1201 9.19303 10.3201 9.08103C10.4171 9.02603 10.5229 8.999 10.6289 8.999C10.7419 8.999 10.856 9.02999 10.958 9.09299L14.7371 11.405C14.9041 11.508 15 11.678 15 11.873C15 12.07 14.9041 12.241 14.7371 12.343Z" />
</svg>
