<svg viewBox="0 0 24 24" fill="currentColor" stroke="currentColor" xmlns="http://www.w3.org/2000/svg">
<path d="M21.0979 4.50999C16.1389 3.51799 14.4189 2.65093 12.2439 1.55393C12.1029 1.48293 11.9069 1.49809 11.7649 1.56809C9.55789 2.66309 7.81505 3.52699 2.90405 4.50999C2.67005 4.55699 2.50195 4.76198 2.50195 4.99998V10.8889C2.50195 18.9509 10.284 21.9541 11.844 22.4741C11.896 22.4911 11.948 22.5 12.002 22.5C12.056 22.5 12.1079 22.4911 12.1599 22.4741C13.7199 21.9541 21.502 18.9509 21.502 10.8889V4.99998C21.5 4.76198 21.3319 4.55699 21.0979 4.50999ZM20.5 10.8889C20.5 18.0259 13.747 20.8589 12 21.4719C10.253 20.8589 3.5 18.0259 3.5 10.8889V5.40891C8.078 4.46691 9.87611 3.61906 12.0161 2.55906C14.0241 3.57006 15.88 4.45591 20.5 5.40891V10.8889ZM9.85596 9.64988C9.85596 10.8359 10.8199 11.8 12.0049 11.8C13.1899 11.8 14.155 10.8359 14.155 9.64988C14.155 8.46388 13.1899 7.49998 12.0049 7.49998C10.8199 7.49998 9.85596 8.46388 9.85596 9.64988ZM13.156 9.64988C13.156 10.2839 12.6401 10.8 12.0061 10.8C11.3721 10.8 10.8569 10.2839 10.8569 9.64988C10.8569 9.01588 11.3731 8.49998 12.0061 8.49998C12.6411 8.49998 13.156 9.01588 13.156 9.64988ZM12.6421 13C14.5191 13 15.5 14.356 15.5 15.697V16C15.5 16.276 15.276 16.5 15 16.5C14.724 16.5 14.5 16.276 14.5 16V15.697C14.5 14.88 13.9181 14 12.6421 14H11.3589C10.0829 14 9.50098 14.879 9.50098 15.697V16C9.50098 16.276 9.27698 16.5 9.00098 16.5C8.72498 16.5 8.50098 16.276 8.50098 16V15.697C8.50098 14.357 9.48189 13 11.3589 13H12.6421Z" />
</svg>
