<svg viewBox="0 0 24 24" fill="currentColor" stroke="currentColor" xmlns="http://www.w3.org/2000/svg">
<path d="M21.0979 4.50999C16.1419 3.51899 14.4209 2.65193 12.2429 1.55393C12.1039 1.48293 11.9069 1.49809 11.7639 1.56809C9.55692 2.66309 7.81408 3.52699 2.90308 4.50999C2.66908 4.55699 2.50098 4.76198 2.50098 4.99998V10.8889C2.50098 18.9509 10.283 21.9541 11.843 22.4741C11.895 22.4911 11.947 22.5 12.001 22.5C12.055 22.5 12.1069 22.4911 12.1589 22.4741C13.7189 21.9541 21.501 18.9509 21.501 10.8889V4.99998C21.5 4.76198 21.3319 4.55699 21.0979 4.50999ZM20.5 10.8889C20.5 18.0259 13.747 20.8589 12 21.4719C10.253 20.8589 3.5 18.0259 3.5 10.8889V5.40891C8.078 4.46691 9.87611 3.61906 12.0161 2.55906C14.0261 3.57006 15.883 4.45691 20.5 5.40891V10.8889ZM12.0039 13.75C12.4169 13.75 12.75 14.085 12.75 14.5C12.75 14.915 12.4159 15.25 12.0039 15.25C11.5929 15.25 11.25 14.915 11.25 14.5C11.25 14.085 11.577 13.75 11.989 13.75H12.0039ZM12 7.99998C12.276 7.99998 12.5 8.22398 12.5 8.49998V11.5C12.5 11.776 12.276 12 12 12C11.724 12 11.5 11.776 11.5 11.5V8.49998C11.5 8.22398 11.724 7.99998 12 7.99998Z" />
</svg>
