<svg viewBox="0 0 24 24" fill="currentColor" stroke="currentColor" xmlns="http://www.w3.org/2000/svg">
<path d="M21.0979 4.50999C16.1389 3.51799 14.4189 2.65093 12.2439 1.55393C12.1029 1.48293 11.9069 1.49809 11.7649 1.56809C9.55789 2.66309 7.81505 3.52699 2.90405 4.50999C2.67005 4.55699 2.50195 4.76198 2.50195 4.99998V10.8889C2.50195 18.9509 10.284 21.9541 11.844 22.4741C11.896 22.4911 11.948 22.5 12.002 22.5C12.056 22.5 12.1079 22.4911 12.1599 22.4741C13.7199 21.9541 21.502 18.9509 21.502 10.8889V4.99998C21.5 4.76198 21.3319 4.55699 21.0979 4.50999ZM20.5 10.8889C20.5 18.0259 13.747 20.8589 12 21.4719C10.253 20.8589 3.5 18.0259 3.5 10.8889V5.40891C8.078 4.46691 9.87611 3.61906 12.0161 2.55906C14.0241 3.57006 15.88 4.45591 20.5 5.40891V10.8889ZM10.241 7.74998C10.237 7.74998 10.233 7.74998 10.228 7.74998C9.38203 7.75398 8.67391 8.075 8.18091 8.676C7.58591 9.403 7.36301 10.5099 7.58301 11.6389C8.14801 14.5279 11.645 16.1391 11.793 16.2051C11.858 16.2351 11.929 16.249 11.999 16.249C12.069 16.249 12.1401 16.2341 12.2051 16.2051C12.3531 16.1381 15.85 14.5279 16.415 11.6389C16.635 10.5089 16.4119 9.40102 15.8169 8.67502C15.3239 8.07402 14.6161 7.75398 13.7681 7.74998C13.7641 7.74998 13.7601 7.74998 13.7561 7.74998C12.9041 7.74998 12.344 8.17109 11.998 8.58909C11.653 8.17109 11.094 7.74998 10.241 7.74998ZM12.4729 9.72996C12.4879 9.68996 12.827 8.74998 13.759 8.74998C13.761 8.74998 13.7629 8.74998 13.7649 8.74998C14.3129 8.75298 14.7439 8.94106 15.0449 9.30906C15.4519 9.80706 15.5991 10.606 15.4341 11.448C15.0391 13.469 12.712 14.8219 12 15.1919C11.288 14.8209 8.96094 13.469 8.56494 11.447C8.40094 10.607 8.54608 9.80803 8.95508 9.31003C9.25808 8.94103 9.68691 8.75298 10.2329 8.74998C10.2359 8.74998 10.238 8.74998 10.24 8.74998C11.173 8.74998 11.5119 9.69 11.5259 9.728C11.5929 9.93 11.7831 10.0659 11.9971 10.0669C12.1811 10.0949 12.4009 9.93296 12.4729 9.72996Z" />
</svg>
