<svg viewBox="0 0 24 24" fill="currentColor" stroke="currentColor" xmlns="http://www.w3.org/2000/svg">
<path d="M21.0979 4.50999C16.1389 3.51799 14.4189 2.65093 12.2439 1.55393C12.1029 1.48293 11.9069 1.49809 11.7649 1.56809C9.55789 2.66309 7.81505 3.52699 2.90405 4.50999C2.67005 4.55699 2.50195 4.76198 2.50195 4.99998V10.8889C2.50195 18.9509 10.284 21.9541 11.844 22.4741C11.896 22.4911 11.948 22.5 12.002 22.5C12.056 22.5 12.1079 22.4911 12.1599 22.4741C13.7199 21.9541 21.502 18.9509 21.502 10.8889V4.99998C21.5 4.76198 21.3319 4.55699 21.0979 4.50999ZM20.5 10.8889C20.5 18.0259 13.747 20.8589 12 21.4719C10.253 20.8589 3.5 18.0259 3.5 10.8889V5.40891C8.078 4.46691 9.87611 3.61906 12.0161 2.55906C14.0241 3.57006 15.88 4.45591 20.5 5.40891V10.8889ZM12.0061 9.74998C12.6941 9.74998 13.25 10.309 13.25 11C13.25 11.514 12.941 11.953 12.5 12.146V15C12.5 15.276 12.276 15.5 12 15.5C11.724 15.5 11.5 15.276 11.5 15V12.1379C11.062 11.9429 10.75 11.509 10.75 11C10.75 10.309 11.2939 9.74998 11.9819 9.74998H12.0061Z" />
</svg>
