<svg viewBox="0 0 24 24" fill="currentColor" stroke="currentColor" xmlns="http://www.w3.org/2000/svg">
<path d="M21.0979 4.50999C16.1389 3.51799 14.4189 2.65093 12.2439 1.55393C12.1029 1.48293 11.9069 1.49809 11.7649 1.56809C9.55789 2.66309 7.81505 3.52699 2.90405 4.50999C2.67005 4.55699 2.50195 4.76198 2.50195 4.99998V10.8889C2.50195 18.9509 10.284 21.9541 11.844 22.4741C11.896 22.4911 11.948 22.5 12.002 22.5C12.056 22.5 12.1079 22.4911 12.1599 22.4741C13.7199 21.9541 21.502 18.9509 21.502 10.8889V4.99998C21.5 4.76198 21.3319 4.55699 21.0979 4.50999ZM20.5 10.8889C20.5 18.0259 13.747 20.8589 12 21.4719C10.253 20.8589 3.5 18.0259 3.5 10.8889V5.40891C8.078 4.46691 9.87611 3.61906 12.0161 2.55906C14.0241 3.57006 15.88 4.45591 20.5 5.40891V10.8889ZM11.0991 7.56907L10.2019 9.39695L8.08496 9.70188C7.71496 9.75488 7.41307 10.009 7.29907 10.365C7.18407 10.719 7.27912 11.0999 7.54712 11.3589L9.06812 12.812L8.71899 14.8349C8.65299 15.2129 8.80499 15.5889 9.11499 15.8159C9.42699 16.0439 9.834 16.074 10.177 15.896L11.989 14.9389L13.825 15.8969C13.973 15.9739 14.134 16.0119 14.293 16.0119C14.501 16.0119 14.709 15.9471 14.886 15.8181C15.197 15.5911 15.349 15.2159 15.283 14.8379L14.925 12.8401L16.4551 11.3601C16.7231 11.1011 16.8179 10.7199 16.7029 10.3659C16.5889 10.0109 16.287 9.75686 15.917 9.70286L13.8191 9.41306L12.9031 7.57004C12.5611 6.88104 11.4381 6.88207 11.0991 7.56907ZM12.0061 8.01389L12.9241 9.85886C13.0671 10.1439 13.34 10.3409 13.656 10.3879L15.759 10.6411L14.23 12.1201C13.999 12.3431 13.892 12.6649 13.948 12.9829L14.2881 15.01L12.4519 14.052C12.3099 13.978 12.156 13.9419 12.001 13.9419C11.846 13.9419 11.691 13.979 11.55 14.052L9.70508 15.0061L10.0549 12.9829C10.1099 12.6659 10.0029 12.343 9.77295 12.122L8.22803 10.6941L10.3459 10.3879C10.6609 10.3419 10.9349 10.1449 11.0769 9.85886L12.0049 8.01194C12.0039 8.01094 12.0051 8.01189 12.0061 8.01389Z" />
</svg>
