<svg viewBox="0 0 24 24" fill="currentColor" stroke="currentColor" xmlns="http://www.w3.org/2000/svg">
<path d="M13 14C13 14.368 12.794 14.6751 12.5 14.8491V17C12.5 17.276 12.276 17.5 12 17.5C11.724 17.5 11.5 17.276 11.5 17V14.843C11.208 14.668 11 14.364 11 14C11 13.447 11.4351 13 11.9851 13H12.0049C12.5549 13 13 13.447 13 14ZM19.5 12V18C19.5 20.29 18.29 21.5 16 21.5H8C5.71 21.5 4.5 20.29 4.5 18V12C4.5 9.888 5.542 8.70691 7.5 8.53491V7C7.5 5.808 7.96699 4.67809 8.81299 3.81909C9.67799 2.96709 10.808 2.5 12 2.5C14.058 2.5 15.849 3.88898 16.354 5.87598C16.422 6.14398 16.2599 6.41589 15.9929 6.48389C15.7219 6.55489 15.453 6.38905 15.386 6.12305C14.992 4.57805 13.601 3.49902 12 3.49902C11.073 3.49902 10.192 3.8629 9.521 4.5249C8.865 5.1909 8.5 6.07102 8.5 6.99902V8.49902H16C18.29 8.50002 19.5 9.71 19.5 12ZM18.5 12C18.5 10.271 17.729 9.5 16 9.5H8C6.271 9.5 5.5 10.271 5.5 12V18C5.5 19.729 6.271 20.5 8 20.5H16C17.729 20.5 18.5 19.729 18.5 18V12Z" />
</svg>
