<svg viewBox="0 0 24 24" fill="currentColor" stroke="currentColor" xmlns="http://www.w3.org/2000/svg">
<path d="M12 22.5C6.21 22.5 1.5 17.79 1.5 12C1.5 6.21 6.21 1.5 12 1.5C17.79 1.5 22.5 6.21 22.5 12C22.5 17.79 17.79 22.5 12 22.5ZM12 2.5C6.76 2.5 2.5 6.76 2.5 12C2.5 17.24 6.76 21.5 12 21.5C17.24 21.5 21.5 17.24 21.5 12C21.5 6.76 17.24 2.5 12 2.5ZM15.98 10C15.98 9.13 15.56 8.5 14.98 8.5C14.4 8.5 13.98 9.13 13.98 10C13.98 10.87 14.4 11.5 14.98 11.5C15.56 11.5 15.98 10.87 15.98 10ZM9.98 10C9.98 9.13 9.56 8.5 8.98 8.5C8.4 8.5 7.98 9.13 7.98 10C7.98 10.87 8.4 11.5 8.98 11.5C9.56 11.5 9.98 10.87 9.98 10Z" />
</svg>
