<svg viewBox="0 0 24 24" fill="currentColor" stroke="currentColor" xmlns="http://www.w3.org/2000/svg">
<path d="M15.48 18.5C15.35 18.5 15.22 18.48 15.09 18.42C13.01 17.59 10.99 17.59 8.90997 18.42C8.54997 18.57 8.14003 18.5 7.84003 18.25C7.56003 18.01 7.44002 17.65 7.52002 17.29C8.00002 15.2 9.83999 13.73 11.99 13.73C14.14 13.73 15.98 15.19 16.46 17.29C16.54 17.65 16.42 18.01 16.14 18.25C15.95 18.41 15.71 18.5 15.46 18.5H15.48ZM12 14.74C10.31 14.74 8.88 15.88 8.5 17.52C10.84 16.58 13.17 16.58 15.46 17.5H15.51C15.13 15.89 13.69 14.75 12 14.75V14.74ZM16.45 11.23C16.57 10.98 16.47 10.68 16.23 10.56L15.12 10.01L16.23 9.46001C16.48 9.34001 16.58 9.03999 16.45 8.78999C16.33 8.53999 16.03 8.44001 15.78 8.57001L13.78 9.57001C13.61 9.65001 13.5 9.83 13.5 10.02C13.5 10.21 13.61 10.38 13.78 10.47L15.78 11.47C15.85 11.51 15.93 11.52 16 11.52C16.18 11.52 16.36 11.42 16.45 11.24V11.23ZM8.22998 11.45L10.23 10.45C10.4 10.37 10.51 10.19 10.51 10C10.51 9.81 10.4 9.64 10.23 9.55L8.22998 8.55C7.97998 8.43 7.68 8.53 7.56 8.77C7.44 9.02 7.54003 9.32 7.78003 9.44L8.89001 9.99001L7.78003 10.54C7.53003 10.66 7.43 10.96 7.56 11.21C7.65 11.39 7.82001 11.49 8.01001 11.49C8.09001 11.49 8.15998 11.47 8.22998 11.44V11.45ZM12.01 22.5C6.22001 22.5 1.51001 17.79 1.51001 12C1.51001 6.21 6.22001 1.5 12.01 1.5C17.8 1.5 22.51 6.21 22.51 12C22.51 17.79 17.8 22.5 12.01 22.5ZM12.01 2.5C6.77001 2.5 2.51001 6.76 2.51001 12C2.51001 17.24 6.77001 21.5 12.01 21.5C17.25 21.5 21.51 17.24 21.51 12C21.51 6.76 17.25 2.5 12.01 2.5Z" />
</svg>
