<svg viewBox="0 0 24 24" fill="currentColor" stroke="currentColor" xmlns="http://www.w3.org/2000/svg">
<path d="M22.5 12C22.5 6.21 17.79 1.5 12 1.5C6.21 1.5 1.5 6.21 1.5 12C1.5 15.7 3.43001 18.95 6.32001 20.82C6.34001 20.84 6.37001 20.85 6.39001 20.86C8.01001 21.89 9.94 22.5 12 22.5C14.06 22.5 15.92 21.91 17.53 20.91C17.59 20.89 17.65 20.85 17.7 20.81C20.58 18.94 22.5 15.69 22.5 12ZM12 2.5C16.83 2.5 20.82 6.13 21.42 10.8L17.81 13.39C17.74 13.34 17.69 13.29 17.61 13.25L13.12 11.01C12.42 10.66 11.58 10.66 10.88 11.01L6.39001 13.26C6.32001 13.3 6.26001 13.35 6.20001 13.4L2.59003 10.81C3.18003 6.14 7.18001 2.50999 12.01 2.50999L12 2.5ZM2.5 12C2.5 12 2.5 11.98 2.5 11.97L5.62 14.21C5.56999 14.38 5.55001 14.56 5.57001 14.74L6.03003 19.38C3.88003 17.64 2.5 14.98 2.5 12ZM7.10999 20.13L6.57001 14.64C6.55001 14.43 6.65998 14.23 6.84998 14.13L11.34 11.89C11.76 11.68 12.26 11.68 12.68 11.89L17.16 14.13C17.35 14.23 17.46 14.43 17.44 14.64L16.9 20.13C15.47 20.99 13.8 21.5 12.01 21.5C10.22 21.5 8.54999 20.99 7.12 20.13H7.10999ZM17.97 19.38L18.43 14.74C18.45 14.56 18.43 14.38 18.38 14.21L21.5 11.97C21.5 11.97 21.5 11.99 21.5 12C21.5 14.98 20.12 17.64 17.97 19.38ZM13.5 18C13.5 18.28 13.28 18.5 13 18.5H11C10.72 18.5 10.5 18.28 10.5 18C10.5 17.72 10.72 17.5 11 17.5H13C13.28 17.5 13.5 17.72 13.5 18ZM13.53 8.84C13.81 8.04 14.56 7.5 15.41 7.5C16.26 7.5 17.02 8.04 17.29 8.84C17.38 9.1 17.24 9.39 16.98 9.48C16.93 9.5 16.87 9.50999 16.82 9.50999C16.61 9.50999 16.42 9.38 16.35 9.17C16.22 8.78 15.83 8.50999 15.41 8.50999C14.99 8.50999 14.61 8.78 14.47 9.17C14.38 9.43 14.09 9.57 13.83 9.48C13.57 9.39 13.43 9.11 13.52 8.84H13.53ZM6.71002 8.84C6.99002 8.04 7.74003 7.5 8.59003 7.5C9.44003 7.5 10.2 8.04 10.47 8.84C10.56 9.1 10.42 9.39 10.16 9.48C10.11 9.5 10.05 9.50999 10 9.50999C9.79 9.50999 9.60003 9.38 9.53003 9.17C9.39003 8.77 9.02003 8.50999 8.59003 8.50999C8.16003 8.50999 7.79002 8.78 7.65002 9.17C7.56002 9.43 7.28001 9.57 7.01001 9.48C6.75001 9.39 6.61001 9.11 6.70001 8.84H6.71002Z" />
</svg>
