<svg viewBox="0 0 24 24" fill="currentColor" stroke="currentColor" xmlns="http://www.w3.org/2000/svg">
<path d="M12 22.5C6.21 22.5 1.5 17.79 1.5 12C1.5 6.21 6.21 1.5 12 1.5C17.79 1.5 22.5 6.21 22.5 12C22.5 17.79 17.79 22.5 12 22.5ZM12 2.5C6.76 2.5 2.5 6.76 2.5 12C2.5 17.24 6.76 21.5 12 21.5C17.24 21.5 21.5 17.24 21.5 12C21.5 6.76 17.24 2.5 12 2.5ZM10 10C10 9.13 9.58 8.5 9 8.5C8.42 8.5 8 9.13 8 10C8 10.87 8.42 11.5 9 11.5C9.58 11.5 10 10.87 10 10ZM16.4 15.3C16.57 15.08 16.52 14.77 16.3 14.6C16.08 14.43 15.77 14.48 15.6 14.7C14.73 15.85 13.42 16.5 12 16.5C10.58 16.5 9.26 15.83 8.41 14.7C8.24 14.48 7.92999 14.44 7.70999 14.6C7.48999 14.77 7.44999 15.08 7.60999 15.3C8.64999 16.68 10.29 17.5 12 17.5C13.71 17.5 15.34 16.7 16.4 15.3ZM14.47 10.52C14.62 10.08 15.38 10.08 15.53 10.52C15.62 10.78 15.9 10.92 16.16 10.83C16.42 10.74 16.56 10.46 16.47 10.19C16.26 9.56 15.66 9.14 15 9.14C14.34 9.14 13.74 9.56 13.53 10.19C13.44 10.45 13.58 10.74 13.84 10.83C13.89 10.85 13.95 10.86 14 10.86C14.21 10.86 14.4 10.73 14.47 10.52Z" />
</svg>
