<svg viewBox="0 0 24 24" fill="currentColor" stroke="currentColor" xmlns="http://www.w3.org/2000/svg">
<path d="M20 7.50001C18.72 7.50001 17.75 6.5 17.75 5.18C17.75 3.68 19.44 1.85 19.64 1.65C19.83 1.45 20.18 1.45 20.36 1.65C20.55 1.85 22.25 3.68 22.25 5.18C22.25 6.5 21.28 7.50001 20 7.50001ZM20 2.76C19.47 3.4 18.75 4.45001 18.75 5.19001C18.75 5.93001 19.28 6.51 20 6.51C20.72 6.51 21.25 5.96001 21.25 5.19001C21.25 4.42001 20.53 3.41 20 2.76ZM22.5 12C22.5 11.17 22.4 10.37 22.22 9.60001C22.15 9.33001 21.89 9.17 21.62 9.23C21.35 9.3 21.19 9.57001 21.25 9.83001C21.42 10.52 21.5 11.24 21.5 11.99C21.5 17.23 17.24 21.49 12 21.49C6.76 21.49 2.5 17.23 2.5 11.99C2.5 6.75001 6.76 2.49001 12 2.49001C12.94 2.49001 13.87 2.63 14.75 2.9C15.02 2.98 15.29 2.83001 15.37 2.57001C15.45 2.31001 15.3 2.03 15.04 1.95C14.06 1.65 13.03 1.50001 11.99 1.50001C6.19999 1.50001 1.48999 6.21001 1.48999 12C1.48999 17.79 6.19999 22.5 11.99 22.5C17.78 22.5 22.49 17.79 22.49 12H22.5ZM12 18.5C9.85 18.5 8.01003 17.04 7.53003 14.94C7.45003 14.58 7.56998 14.22 7.84998 13.98C8.13998 13.73 8.54998 13.66 8.91998 13.81C11 14.64 13.02 14.64 15.09 13.81C15.45 13.67 15.86 13.73 16.16 13.98C16.44 14.22 16.56 14.58 16.48 14.94C16 17.03 14.16 18.5 12.01 18.5H12ZM8.52002 14.74L8.48999 14.75C8.86999 16.36 10.31 17.5 12 17.5C13.69 17.5 15.12 16.36 15.5 14.72C13.17 15.66 10.84 15.66 8.53998 14.74C8.53998 14.74 8.53002 14.74 8.52002 14.74ZM16.98 9.98C17.24 9.89 17.38 9.61 17.29 9.34C17.01 8.54 16.26 8.00001 15.41 8.00001C14.56 8.00001 13.8 8.54 13.53 9.34C13.44 9.6 13.58 9.89 13.84 9.98C14.1 10.07 14.39 9.93 14.48 9.67C14.62 9.27 14.99 9.01 15.42 9.01C15.85 9.01 16.22 9.28 16.36 9.67C16.43 9.88 16.63 10.01 16.83 10.01C16.88 10.01 16.94 10.01 16.99 9.98H16.98ZM10.16 9.98C10.42 9.89 10.56 9.61 10.47 9.34C10.19 8.54 9.44003 8.00001 8.59003 8.00001C7.74003 8.00001 6.98002 8.54 6.71002 9.34C6.62002 9.6 6.76002 9.89 7.02002 9.98C7.28002 10.07 7.56997 9.93 7.65997 9.67C7.78997 9.28 8.17998 9.01 8.59998 9.01C9.01998 9.01 9.39998 9.28 9.53998 9.67C9.60998 9.88 9.81001 10.01 10.01 10.01C10.06 10.01 10.12 10.01 10.17 9.98H10.16Z" />
</svg>
