<svg viewBox="0 0 24 24" fill="currentColor" stroke="currentColor" xmlns="http://www.w3.org/2000/svg">
<path d="M12 22.5C6.21 22.5 1.5 17.79 1.5 12C1.5 6.21 6.21 1.5 12 1.5C17.79 1.5 22.5 6.21 22.5 12C22.5 17.79 17.79 22.5 12 22.5ZM12 2.5C6.76 2.5 2.5 6.76 2.5 12C2.5 17.24 6.76 21.5 12 21.5C17.24 21.5 21.5 17.24 21.5 12C21.5 6.76 17.24 2.5 12 2.5ZM16 10C16 9.13 15.58 8.5 15 8.5C14.42 8.5 14 9.13 14 10C14 10.87 14.42 11.5 15 11.5C15.58 11.5 16 10.87 16 10ZM10 10C10 9.13 9.58 8.5 9 8.5C8.42 8.5 8 9.13 8 10C8 10.87 8.42 11.5 9 11.5C9.58 11.5 10 10.87 10 10ZM16.3 17.4C16.52 17.23 16.56 16.92 16.4 16.7C15.36 15.32 13.72 14.5 12.01 14.5C10.3 14.5 8.67 15.3 7.61 16.7C7.44 16.92 7.49001 17.23 7.71001 17.4C7.93001 17.57 8.24 17.52 8.41 17.3C9.28 16.15 10.59 15.5 12.01 15.5C13.43 15.5 14.75 16.17 15.6 17.3C15.7 17.43 15.85 17.5 16 17.5C16.11 17.5 16.21 17.47 16.3 17.4Z" />
</svg>
