<svg viewBox="0 0 24 24" fill="currentColor" stroke="currentColor" xmlns="http://www.w3.org/2000/svg">
<path d="M12 22.5C6.21 22.5 1.5 17.79 1.5 12C1.5 6.21 6.21 1.5 12 1.5C17.79 1.5 22.5 6.21 22.5 12C22.5 17.79 17.79 22.5 12 22.5ZM12 2.5C6.76 2.5 2.5 6.76 2.5 12C2.5 17.24 6.76 21.5 12 21.5C17.24 21.5 21.5 17.24 21.5 12C21.5 6.76 17.24 2.5 12 2.5ZM15.5 16C15.5 15.72 15.28 15.5 15 15.5H9C8.72 15.5 8.5 15.72 8.5 16C8.5 16.28 8.72 16.5 9 16.5H15C15.28 16.5 15.5 16.28 15.5 16ZM16.5 10C16.5 9.72 16.28 9.5 16 9.5H14C13.72 9.5 13.5 9.72 13.5 10C13.5 10.28 13.72 10.5 14 10.5H16C16.28 10.5 16.5 10.28 16.5 10ZM10.5 10C10.5 9.72 10.28 9.5 10 9.5H8C7.72 9.5 7.5 9.72 7.5 10C7.5 10.28 7.72 10.5 8 10.5H10C10.28 10.5 10.5 10.28 10.5 10Z" />
</svg>
