<svg viewBox="0 0 24 24" fill="currentColor" stroke="currentColor" xmlns="http://www.w3.org/2000/svg">
<path d="M15 10.5C14.42 10.5 14 9.87 14 9C14 8.13 14.42 7.5 15 7.5C15.58 7.5 16 8.13 16 9C16 9.87 15.58 10.5 15 10.5ZM10 9C10 8.13 9.58 7.5 9 7.5C8.42 7.5 8 8.13 8 9C8 9.87 8.42 10.5 9 10.5C9.58 10.5 10 9.87 10 9ZM22.5 12C22.5 6.21 17.79 1.5 12 1.5C6.21 1.5 1.5 6.21 1.5 12C1.5 17.79 6.21 22.5 12 22.5C17.79 22.5 22.5 17.79 22.5 12ZM21.5 12C21.5 17.24 17.24 21.5 12 21.5C6.76 21.5 2.5 17.24 2.5 12C2.5 6.76 6.76 2.5 12 2.5C17.24 2.5 21.5 6.76 21.5 12ZM16.45 14.66C16.49 14.37 16.41 14.07 16.21 13.85C16.02 13.63 15.75 13.5 15.46 13.5H8.54001C8.25001 13.5 7.97001 13.63 7.79001 13.85C7.60001 14.07 7.50999 14.37 7.54999 14.66C7.86999 16.85 9.79 18.5 12 18.5C14.21 18.5 16.13 16.85 16.45 14.66ZM15.46 14.52C15.21 16.22 13.72 17.5 12 17.5C10.28 17.5 8.79001 16.22 8.54001 14.5L15.46 14.52Z" />
</svg>
