<svg viewBox="0 0 24 24" fill="currentColor" stroke="currentColor" xmlns="http://www.w3.org/2000/svg">
<path d="M12 22.5C6.21 22.5 1.5 17.79 1.5 12C1.5 6.21 6.21 1.5 12 1.5C17.79 1.5 22.5 6.21 22.5 12C22.5 17.79 17.79 22.5 12 22.5ZM12 2.5C6.76 2.5 2.5 6.76 2.5 12C2.5 17.24 6.76 21.5 12 21.5C17.24 21.5 21.5 17.24 21.5 12C21.5 6.76 17.24 2.5 12 2.5ZM16 10C16 9.13 15.58 8.5 15 8.5C14.42 8.5 14 9.13 14 10C14 10.87 14.42 11.5 15 11.5C15.58 11.5 16 10.87 16 10ZM10 10C10 9.13 9.58 8.5 9 8.5C8.42 8.5 8 9.13 8 10C8 10.87 8.42 11.5 9 11.5C9.58 11.5 10 10.87 10 10ZM15.5 16C15.5 15.72 15.28 15.5 15 15.5H9C8.72 15.5 8.5 15.72 8.5 16C8.5 16.28 8.72 16.5 9 16.5H15C15.28 16.5 15.5 16.28 15.5 16Z" />
</svg>
