<svg viewBox="0 0 24 24" fill="currentColor" stroke="currentColor" xmlns="http://www.w3.org/2000/svg">
<path d="M12 1.5C6.21 1.5 1.5 6.21 1.5 12C1.5 17.79 6.21 22.5 12 22.5C17.79 22.5 22.5 17.79 22.5 12C22.5 6.21 17.79 1.5 12 1.5ZM12 21.5C6.76 21.5 2.5 17.24 2.5 12C2.5 6.76 6.76 2.5 12 2.5C17.24 2.5 21.5 6.76 21.5 12C21.5 17.24 17.24 21.5 12 21.5ZM12 13.5C9.78 13.5 7.86999 15.15 7.54999 17.34C7.50999 17.63 7.58998 17.93 7.78998 18.15C7.97998 18.37 8.24998 18.5 8.53998 18.5H15.46C15.75 18.5 16.03 18.37 16.21 18.15C16.4 17.93 16.49 17.63 16.45 17.34C16.13 15.15 14.21 13.5 12 13.5ZM8.53998 17.48C8.78998 15.78 10.28 14.5 12 14.5C13.72 14.5 15.21 15.78 15.46 17.5L8.53998 17.48ZM16.36 9.35001L15.71 10L16.36 10.65C16.56 10.85 16.56 11.16 16.36 11.36C16.26 11.46 16.13 11.51 16.01 11.51C15.89 11.51 15.75 11.46 15.66 11.36L15.01 10.71L14.36 11.36C14.26 11.46 14.13 11.51 14.01 11.51C13.89 11.51 13.75 11.46 13.66 11.36C13.46 11.16 13.46 10.85 13.66 10.65L14.31 10L13.66 9.35001C13.46 9.15001 13.46 8.84 13.66 8.64C13.86 8.44 14.17 8.44 14.37 8.64L15.02 9.28999L15.67 8.64C15.87 8.44 16.18 8.44 16.38 8.64C16.58 8.84 16.58 9.15001 16.38 9.35001H16.36ZM7.65002 10.64L8.29999 9.99001L7.65002 9.34C7.45002 9.14 7.45002 8.83 7.65002 8.63C7.85002 8.43001 8.15999 8.43001 8.35999 8.63L9.01001 9.28L9.65997 8.63C9.85997 8.43001 10.17 8.43001 10.37 8.63C10.57 8.83 10.57 9.14 10.37 9.34L9.71997 9.99001L10.37 10.64C10.57 10.84 10.57 11.15 10.37 11.35C10.27 11.45 10.14 11.5 10.02 11.5C9.90002 11.5 9.75998 11.45 9.66998 11.35L9.02002 10.7L8.37 11.35C8.27 11.45 8.14002 11.5 8.02002 11.5C7.90002 11.5 7.75998 11.45 7.66998 11.35C7.46998 11.15 7.46998 10.84 7.66998 10.64H7.65002Z" />
</svg>
