<svg viewBox="0 0 24 24" fill="currentColor" stroke="currentColor" xmlns="http://www.w3.org/2000/svg">
<path d="M12 22.5C6.21 22.5 1.5 17.79 1.5 12C1.5 6.21 6.21 1.5 12 1.5C17.79 1.5 22.5 6.21 22.5 12C22.5 17.79 17.79 22.5 12 22.5ZM12 2.5C6.76 2.5 2.5 6.76 2.5 12C2.5 17.24 6.76 21.5 12 21.5C17.24 21.5 21.5 17.24 21.5 12C21.5 6.76 17.24 2.5 12 2.5ZM16 10C16 9.13 15.58 8.5 15 8.5C14.42 8.5 14 9.13 14 10C14 10.87 14.42 11.5 15 11.5C15.58 11.5 16 10.87 16 10ZM10 10C10 9.13 9.58 8.5 9 8.5C8.42 8.5 8 9.13 8 10C8 10.87 8.42 11.5 9 11.5C9.58 11.5 10 10.87 10 10ZM16.3 17.4C16.52 17.23 16.57 16.92 16.4 16.7C15.59 15.62 14.42 14.88 13.1 14.62C12.84 14.57 12.57 14.74 12.51 15.01C12.46 15.28 12.63 15.54 12.9 15.6C13.98 15.81 14.93 16.42 15.6 17.3C15.7 17.43 15.85 17.5 16 17.5C16.1 17.5 16.21 17.47 16.3 17.4ZM9 18C7.92 18 7.1 17.16 7.1 16.05C7.1 14.81 8.48 13.32 8.64 13.16C8.83 12.96 9.18 12.96 9.36 13.16C9.52 13.33 10.9 14.82 10.9 16.05C10.9 17.16 10.08 18 9 18ZM9 14.27C8.56 14.82 8.10001 15.56 8.10001 16.05C8.10001 16.6 8.48 17 9 17C9.52 17 9.89999 16.6 9.89999 16.05C9.89999 15.56 9.44 14.82 9 14.27Z" />
</svg>
