<svg viewBox="0 0 24 24" fill="currentColor" stroke="currentColor" xmlns="http://www.w3.org/2000/svg">
<path d="M12 22.5C6.21 22.5 1.5 17.79 1.5 12C1.5 6.21 6.21 1.5 12 1.5C17.79 1.5 22.5 6.21 22.5 12C22.5 17.79 17.79 22.5 12 22.5ZM12 2.5C6.76 2.5 2.5 6.76 2.5 12C2.5 17.24 6.76 21.5 12 21.5C17.24 21.5 21.5 17.24 21.5 12C21.5 6.76 17.24 2.5 12 2.5ZM9.2 11.96C9.2 11.96 9.17 11.96 9.16 11.96C9.06 11.96 6.79 11.76 5.87 10.23C5.49 9.6 5.39001 8.92001 5.60001 8.35001C5.77001 7.87001 6.12 7.52 6.63 7.33C7.03 7.18 7.41 7.24001 7.71 7.38C7.85 7.07 8.1 6.79 8.5 6.64C9.01 6.46 9.51 6.5 9.95 6.75C10.47 7.06 10.83 7.64999 10.95 8.37C11.23 10.13 9.61001 11.74 9.54001 11.81C9.45001 11.9 9.32 11.95 9.19 11.95L9.2 11.96ZM7.10001 8.24001C7.10001 8.24001 7.02 8.23999 6.98 8.25999C6.75 8.33999 6.61 8.48 6.54 8.67C6.44 8.95 6.51 9.35001 6.73 9.71001C7.24 10.56 8.49001 10.84 9.01001 10.93C9.35001 10.53 10.13 9.52 9.97 8.53C9.9 8.12 9.7 7.76 9.45 7.61C9.27 7.51 9.08001 7.5 8.85001 7.58C8.52001 7.7 8.54001 8.24001 8.54001 8.24001C8.55001 8.46001 8.42001 8.67001 8.21001 8.74001C8.00001 8.81001 7.77 8.74 7.64 8.56C7.64 8.56 7.39001 8.23 7.10001 8.23V8.24001ZM14.79 11.96C14.66 11.96 14.53 11.91 14.44 11.82C14.37 11.75 12.75 10.14 13.03 8.38C13.14 7.66 13.51 7.06999 14.03 6.75999C14.47 6.49999 14.97 6.45999 15.48 6.64999C15.88 6.79999 16.14 7.06001 16.29 7.35001C16.59 7.23001 16.96 7.19 17.36 7.34C17.87 7.53 18.23 7.88 18.4 8.36C18.6 8.93 18.5 9.62 18.12 10.25C17.2 11.78 14.92 11.98 14.83 11.98C14.82 11.98 14.8 11.98 14.79 11.98V11.96ZM14.86 7.52C14.75 7.52 14.64 7.55 14.54 7.61C14.28 7.76 14.08 8.11 14.02 8.53C13.86 9.51 14.64 10.53 14.98 10.93C15.5 10.85 16.75 10.56 17.26 9.71001C17.48 9.35001 17.55 8.95 17.45 8.67C17.38 8.48 17.24 8.33999 17.01 8.25999C16.67 8.12999 16.4 8.43 16.37 8.47C16.23 8.63 16 8.69 15.81 8.62C15.61 8.54 15.48 8.35 15.48 8.14C15.48 8.1 15.48 7.7 15.13 7.58C15.03 7.54 14.94 7.53 14.85 7.53L14.86 7.52ZM12 18.49C9.85 18.49 8.01 17.03 7.53 14.93C7.45 14.57 7.57001 14.21 7.85001 13.97C8.15001 13.72 8.56 13.65 8.92 13.8C10.97 14.62 13.05 14.62 15.09 13.8C15.45 13.66 15.86 13.72 16.16 13.97C16.44 14.21 16.56 14.57 16.48 14.93C16 17.02 14.16 18.49 12.01 18.49H12ZM8.52 14.73L8.49001 14.74C8.87001 16.35 10.31 17.49 12 17.49C13.69 17.49 15.12 16.35 15.5 14.71C13.16 15.65 10.84 15.65 8.54001 14.73C8.54001 14.73 8.53 14.73 8.52 14.73Z" />
</svg>
