<svg viewBox="0 0 24 24" fill="currentColor" stroke="currentColor" xmlns="http://www.w3.org/2000/svg">
<path d="M12.02 1.5C6.23002 1.5 1.52002 6.21 1.52002 12C1.52002 17.79 6.23002 22.5 12.02 22.5C17.81 22.5 22.52 17.79 22.52 12C22.52 6.21 17.81 1.5 12.02 1.5ZM12.02 21.5C6.78002 21.5 2.52002 17.24 2.52002 12C2.52002 6.76 6.78002 2.5 12.02 2.5C17.26 2.5 21.52 6.76 21.52 12C21.52 17.24 17.26 21.5 12.02 21.5ZM12 13.5C10.62 13.5 9.5 14.62 9.5 16C9.5 17.38 10.62 18.5 12 18.5C13.38 18.5 14.5 17.38 14.5 16C14.5 14.62 13.38 13.5 12 13.5ZM12 17.5C11.17 17.5 10.5 16.83 10.5 16C10.5 15.17 11.17 14.5 12 14.5C12.83 14.5 13.5 15.17 13.5 16C13.5 16.83 12.83 17.5 12 17.5ZM16.35 9.35001L15.7 10L16.35 10.65C16.55 10.85 16.55 11.16 16.35 11.36C16.25 11.46 16.12 11.51 16 11.51C15.88 11.51 15.74 11.46 15.65 11.36L15 10.71L14.35 11.36C14.25 11.46 14.12 11.51 14 11.51C13.88 11.51 13.74 11.46 13.65 11.36C13.45 11.16 13.45 10.85 13.65 10.65L14.3 10L13.65 9.35001C13.45 9.15001 13.45 8.84 13.65 8.64C13.85 8.44 14.16 8.44 14.36 8.64L15.01 9.28999L15.66 8.64C15.86 8.44 16.17 8.44 16.37 8.64C16.57 8.84 16.57 9.15001 16.37 9.35001H16.35ZM9 10.7L8.34998 11.35C8.24998 11.45 8.12 11.5 8 11.5C7.88 11.5 7.74002 11.45 7.65002 11.35C7.45002 11.15 7.45002 10.84 7.65002 10.64L8.29999 9.99001L7.65002 9.34C7.45002 9.14 7.45002 8.83 7.65002 8.63C7.85002 8.43001 8.15999 8.43001 8.35999 8.63L9.01001 9.28L9.65997 8.63C9.85997 8.43001 10.17 8.43001 10.37 8.63C10.57 8.83 10.57 9.14 10.37 9.34L9.71997 9.99001L10.37 10.64C10.57 10.84 10.57 11.15 10.37 11.35C10.27 11.45 10.14 11.5 10.02 11.5C9.90002 11.5 9.75998 11.45 9.66998 11.35L9.02002 10.7H9Z" />
</svg>
