<svg viewBox="0 0 24 24" fill="currentColor" stroke="currentColor" xmlns="http://www.w3.org/2000/svg">
<path d="M16.82 12C16.61 12 16.42 11.87 16.35 11.66C16.22 11.27 15.83 11 15.41 11C14.99 11 14.61 11.27 14.47 11.66C14.38 11.92 14.1 12.06 13.83 11.97C13.57 11.88 13.43 11.6 13.52 11.33C13.8 10.53 14.55 9.99001 15.4 9.99001C16.25 9.99001 17.01 10.53 17.28 11.33C17.37 11.59 17.23 11.88 16.97 11.97C16.92 11.99 16.86 12 16.81 12H16.82ZM10.16 11.97C10.42 11.88 10.56 11.6 10.47 11.33C10.19 10.53 9.44003 9.99001 8.59003 9.99001C7.74003 9.99001 6.98002 10.53 6.71002 11.33C6.62002 11.59 6.76002 11.88 7.02002 11.97C7.28002 12.06 7.56997 11.92 7.65997 11.66C7.78997 11.27 8.17998 11 8.59998 11C9.01998 11 9.39998 11.27 9.53998 11.66C9.60998 11.87 9.81001 12 10.01 12C10.06 12 10.12 12 10.17 11.97H10.16ZM14 16.5C14 15.4 13.1 14.5 12 14.5C10.9 14.5 10 15.4 10 16.5C10 17.6 10.9 18.5 12 18.5C13.1 18.5 14 17.6 14 16.5ZM13 16.5C13 17.05 12.55 17.5 12 17.5C11.45 17.5 11 17.05 11 16.5C11 15.95 11.45 15.5 12 15.5C12.55 15.5 13 15.95 13 16.5ZM22.5 12C22.5 11.17 22.4 10.37 22.22 9.60001C22.16 9.33001 21.89 9.17 21.62 9.23C21.35 9.3 21.19 9.57 21.25 9.83C21.42 10.52 21.5 11.24 21.5 11.99C21.5 17.23 17.24 21.49 12 21.49C6.76 21.49 2.5 17.23 2.5 11.99C2.5 6.75001 6.76 2.49001 12 2.49001C12.94 2.49001 13.87 2.62999 14.75 2.89999C15.02 2.97999 15.29 2.83001 15.37 2.57001C15.45 2.31001 15.3 2.03 15.04 1.95C14.06 1.65 13.03 1.5 11.99 1.5C6.19999 1.5 1.48999 6.21 1.48999 12C1.48999 17.79 6.19999 22.5 11.99 22.5C17.78 22.5 22.49 17.79 22.49 12H22.5ZM22.5 4.8C22.5 4.52 22.28 4.3 22 4.3H20.41L22.36 2.35001C22.5 2.21001 22.55 1.99 22.47 1.81C22.39 1.63 22.21 1.5 22.01 1.5H19.21C18.93 1.5 18.71 1.72 18.71 2C18.71 2.28 18.93 2.5 19.21 2.5H20.8L18.85 4.45C18.71 4.59 18.66 4.81001 18.74 4.99001C18.82 5.17001 19 5.3 19.2 5.3H22C22.28 5.3 22.5 5.08 22.5 4.8ZM17.83 7.60001C17.83 7.32001 17.61 7.10001 17.33 7.10001H16.2L17.68 5.62C17.82 5.48 17.87 5.26 17.79 5.08C17.71 4.9 17.53 4.77 17.33 4.77H15C14.72 4.77 14.5 4.99 14.5 5.27C14.5 5.55 14.72 5.77 15 5.77H16.13L14.65 7.25C14.51 7.39 14.46 7.60999 14.54 7.78999C14.62 7.96999 14.8 8.10001 15 8.10001H17.33C17.61 8.10001 17.83 7.88001 17.83 7.60001Z" />
</svg>
