<svg viewBox="0 0 24 24" fill="currentColor" stroke="currentColor" xmlns="http://www.w3.org/2000/svg">
<path d="M9.73001 12C9.61001 12 9.48001 11.97 9.37001 11.91L8.45001 11.43L7.53001 11.91C7.26001 12.05 6.95001 12.03 6.70001 11.85C6.45001 11.67 6.34001 11.38 6.39001 11.08L6.57002 10.06L5.80002 9.31001C5.59002 9.10001 5.51002 8.80001 5.60002 8.53001C5.69002 8.25001 5.93002 8.05001 6.22002 8.01001L7.29001 7.86002L7.75002 6.93001C8.02002 6.39001 8.89002 6.39001 9.16002 6.93001L9.62001 7.86002L10.68 8.01001C10.97 8.05001 11.21 8.25001 11.3 8.53001C11.39 8.81001 11.31 9.11001 11.1 9.31001L10.33 10.06L10.51 11.08C10.56 11.37 10.44 11.67 10.2 11.85C10.06 11.95 9.90002 12 9.74002 12H9.73001ZM6.84001 8.94002L7.35002 9.44002C7.53002 9.61002 7.61002 9.87001 7.57002 10.12L7.45001 10.83L8.09001 10.49C8.31001 10.37 8.58002 10.37 8.80002 10.49L9.44002 10.83L9.32002 10.12C9.28002 9.87001 9.36001 9.62002 9.54001 9.44002L10.05 8.94002L9.34001 8.84001C9.09001 8.80001 8.88001 8.65001 8.76001 8.43001L8.44002 7.78001L8.12001 8.43001C8.01001 8.66001 7.79001 8.81002 7.54001 8.85002L6.83002 8.95001L6.84001 8.94002ZM16.97 12.01C16.85 12.01 16.72 11.98 16.61 11.92L15.69 11.44L14.77 11.92C14.5 12.06 14.19 12.04 13.94 11.86C13.69 11.68 13.58 11.39 13.63 11.09L13.81 10.08L13.04 9.33002C12.83 9.12002 12.75 8.82001 12.85 8.54001C12.94 8.26001 13.18 8.06002 13.47 8.02002L14.54 7.87001L15 6.94002C15.27 6.40002 16.14 6.40002 16.41 6.94002L16.87 7.87001L17.93 8.02002C18.22 8.06002 18.46 8.26001 18.55 8.54001C18.64 8.82001 18.56 9.12002 18.35 9.32002L17.58 10.07L17.76 11.09C17.81 11.38 17.69 11.68 17.45 11.86C17.31 11.96 17.15 12.01 16.99 12.01H16.97ZM14.07 8.95001L14.58 9.45001C14.76 9.62001 14.84 9.88002 14.8 10.13L14.68 10.84L15.32 10.5C15.54 10.38 15.81 10.38 16.03 10.5L16.67 10.84L16.55 10.13C16.51 9.88002 16.59 9.62001 16.78 9.45001L17.29 8.95001L16.58 8.85002C16.33 8.81002 16.12 8.66002 16 8.44002L15.68 7.79001L15.36 8.44002C15.25 8.67002 15.03 8.82002 14.78 8.86002L14.07 8.96002V8.95001ZM12.01 22.52C6.22001 22.52 1.51001 17.81 1.51001 12.02C1.51001 6.23002 6.22001 1.52002 12.01 1.52002C17.8 1.52002 22.51 6.23002 22.51 12.02C22.51 17.81 17.8 22.52 12.01 22.52ZM12.01 2.52002C6.77001 2.52002 2.51001 6.78002 2.51001 12.02C2.51001 17.26 6.77001 21.52 12.01 21.52C17.25 21.52 21.51 17.26 21.51 12.02C21.51 6.78002 17.25 2.52002 12.01 2.52002ZM12.07 18.52C9.92002 18.52 8.08002 17.06 7.60002 14.96C7.52002 14.6 7.64001 14.24 7.92001 14C8.22001 13.75 8.63002 13.68 8.99002 13.83C11.04 14.65 13.12 14.65 15.16 13.83C15.52 13.69 15.93 13.75 16.23 14C16.51 14.24 16.63 14.6 16.55 14.96C16.07 17.05 14.23 18.52 12.08 18.52H12.07ZM8.59001 14.76L8.56001 14.77C8.94001 16.38 10.38 17.52 12.07 17.52C13.76 17.52 15.19 16.38 15.57 14.74C13.23 15.68 10.91 15.68 8.61002 14.76C8.61002 14.76 8.60001 14.76 8.59001 14.76Z" />
</svg>
