<svg viewBox="0 0 24 24" fill="currentColor" stroke="currentColor" xmlns="http://www.w3.org/2000/svg">
<path d="M16.3 13.6C16.52 13.77 16.56 14.08 16.4 14.3C16.13 14.65 15.83 14.96 15.5 15.24V18C15.5 18.28 15.28 18.5 15 18.5C14.72 18.5 14.5 18.28 14.5 18V15.9C14.18 16.06 13.85 16.19 13.5 16.29V17.01C13.5 17.29 13.28 17.51 13 17.51C12.72 17.51 12.5 17.29 12.5 17.01V16.48C12.33 16.49 12.17 16.51 12 16.51C10.29 16.51 8.64999 15.69 7.60999 14.31C7.43999 14.09 7.49002 13.78 7.71002 13.61C7.93002 13.44 8.24997 13.49 8.40997 13.71C9.25997 14.84 10.6 15.51 12 15.51C13.4 15.51 14.73 14.85 15.6 13.71C15.77 13.49 16.08 13.45 16.3 13.61V13.6ZM22.5 12C22.5 17.79 17.79 22.5 12 22.5C6.21 22.5 1.5 17.79 1.5 12C1.5 6.21 6.21 1.5 12 1.5C17.79 1.5 22.5 6.21 22.5 12ZM21.5 12C21.5 6.76 17.24 2.5 12 2.5C6.76 2.5 2.5 6.76 2.5 12C2.5 17.24 6.76 21.5 12 21.5C17.24 21.5 21.5 17.24 21.5 12ZM15.41 8.5C14.56 8.5 13.8 9.04 13.53 9.84C13.44 10.1 13.58 10.39 13.84 10.48C14.1 10.57 14.39 10.43 14.48 10.17C14.62 9.77 14.99 9.50999 15.42 9.50999C15.85 9.50999 16.22 9.78 16.36 10.17C16.43 10.38 16.63 10.51 16.83 10.51C16.88 10.51 16.94 10.51 16.99 10.48C17.25 10.39 17.39 10.11 17.3 9.84C17.02 9.04 16.27 8.5 15.42 8.5H15.41ZM7.65002 10.16C7.78002 9.77 8.17003 9.5 8.59003 9.5C9.01003 9.5 9.39003 9.77 9.53003 10.16C9.60003 10.37 9.8 10.5 10 10.5C10.05 10.5 10.11 10.5 10.16 10.47C10.42 10.38 10.56 10.1 10.47 9.83C10.19 9.03 9.44003 8.49001 8.59003 8.49001C7.74003 8.49001 6.98002 9.03 6.71002 9.83C6.62002 10.09 6.76002 10.38 7.02002 10.47C7.28002 10.56 7.56997 10.42 7.65997 10.16H7.65002Z" />
</svg>
