<svg viewBox="0 0 24 24" fill="currentColor" stroke="currentColor" xmlns="http://www.w3.org/2000/svg">
<path d="M12 22.5C6.21 22.5 1.5 17.79 1.5 12C1.5 6.21 6.21 1.5 12 1.5C17.79 1.5 22.5 6.21 22.5 12C22.5 17.79 17.79 22.5 12 22.5ZM12 2.5C6.76 2.5 2.5 6.76 2.5 12C2.5 17.24 6.76 21.5 12 21.5C17.24 21.5 21.5 17.24 21.5 12C21.5 6.76 17.24 2.5 12 2.5ZM9 15.5C8.42 15.5 8 14.87 8 14C8 13.13 8.42 12.5 9 12.5C9.58 12.5 10 13.13 10 14C10 14.87 9.58 15.5 9 15.5ZM9.13 14.54H9.14001H9.13ZM15 15.5C14.42 15.5 14 14.87 14 14C14 13.13 14.42 12.5 15 12.5C15.58 12.5 16 13.13 16 14C16 14.87 15.58 15.5 15 15.5ZM15.13 14.54H15.14H15.13ZM16.29 9.39999C16.51 9.22999 16.55 8.92 16.39 8.7C15.35 7.32 13.71 6.5 12 6.5C10.29 6.5 8.65998 7.3 7.59998 8.7C7.42998 8.92 7.48001 9.22999 7.70001 9.39999C7.92001 9.56999 8.23002 9.52 8.40002 9.3C9.27002 8.15 10.58 7.5 12 7.5C13.42 7.5 14.74 8.17 15.59 9.3C15.69 9.43 15.84 9.5 15.99 9.5C16.1 9.5 16.2 9.46999 16.29 9.39999Z" />
</svg>
