<svg viewBox="0 0 24 24" fill="currentColor" stroke="currentColor" xmlns="http://www.w3.org/2000/svg">
<path d="M16.34 14.64C16.54 14.84 16.54 15.15 16.34 15.35L15.77 15.92C15.39 16.3 14.89 16.51 14.36 16.51H8.97998C8.69998 16.51 8.47998 16.29 8.47998 16.01C8.47998 15.73 8.69998 15.51 8.97998 15.51H14.36C14.63 15.51 14.88 15.41 15.07 15.22L15.64 14.65C15.84 14.46 16.15 14.45 16.35 14.65L16.34 14.64ZM22.5 12C22.5 17.79 17.79 22.5 12 22.5C6.21 22.5 1.5 17.79 1.5 12C1.5 6.21 6.21 1.5 12 1.5C17.79 1.5 22.5 6.21 22.5 12ZM21.5 12C21.5 6.76 17.24 2.5 12 2.5C6.76 2.5 2.5 6.76 2.5 12C2.5 17.24 6.76 21.5 12 21.5C17.24 21.5 21.5 17.24 21.5 12ZM16.5 9.5H14C13.72 9.5 13.5 9.72 13.5 10C13.5 10.28 13.72 10.5 14 10.5H15.56C15.53 10.66 15.5 10.82 15.5 11C15.5 11.87 15.92 12.5 16.5 12.5C17.08 12.5 17.5 11.87 17.5 11C17.5 10.13 17.08 9.5 16.5 9.5ZM8.5 11C8.5 11.87 8.92 12.5 9.5 12.5C10.08 12.5 10.5 11.87 10.5 11C10.5 10.13 10.08 9.5 9.5 9.5H7C6.72 9.5 6.5 9.72 6.5 10C6.5 10.28 6.72 10.5 7 10.5H8.56C8.53 10.66 8.5 10.82 8.5 11Z" />
</svg>
