<svg viewBox="0 0 24 24" fill="currentColor" stroke="currentColor" xmlns="http://www.w3.org/2000/svg">
<path d="M16.4701 10.13C16.5601 10.39 16.4201 10.68 16.1601 10.77C15.9001 10.86 15.6101 10.72 15.5201 10.46C15.4201 10.18 15.1401 9.98001 14.8401 9.98001C14.5401 9.98001 14.2601 10.18 14.1601 10.46C14.0901 10.67 13.9001 10.8 13.6901 10.8C13.6401 10.8 13.5801 10.8 13.5301 10.77C13.2701 10.68 13.1301 10.4 13.2201 10.13C13.4601 9.44 14.1101 8.98001 14.8401 8.98001C15.5701 8.98001 16.2201 9.44 16.4601 10.13H16.4701ZM8.47008 10.46C8.57008 10.18 8.85008 9.98001 9.15008 9.98001C9.45008 9.98001 9.73008 10.18 9.83008 10.46C9.90008 10.67 10.0901 10.8 10.3001 10.8C10.3501 10.8 10.4101 10.8 10.4601 10.77C10.7201 10.68 10.8601 10.4 10.7701 10.13C10.5301 9.44 9.88008 8.98001 9.15008 8.98001C8.42008 8.98001 7.77008 9.44 7.53008 10.13C7.44008 10.39 7.58008 10.68 7.84008 10.77C8.10008 10.86 8.39008 10.72 8.48008 10.46H8.47008ZM21.9001 15.41C21.5401 15.77 21.0801 15.97 20.5901 15.99C19.0401 19.34 15.7101 21.5 11.9901 21.5C8.27009 21.5 4.95008 19.34 3.39008 15.99C2.90008 15.96 2.44008 15.76 2.08008 15.41C1.69008 15.02 1.48009 14.52 1.49009 13.99C1.49009 13.45 1.72008 12.93 2.12008 12.53C2.23008 12.42 2.36008 12.33 2.50008 12.24C2.50008 12.16 2.50008 12.09 2.50008 12.01C2.50008 6.77001 6.76008 2.51001 12.0001 2.51001C17.2401 2.51001 21.5001 6.77001 21.5001 12.01C21.5001 12.09 21.5001 12.16 21.5001 12.24C21.6401 12.33 21.7701 12.42 21.8801 12.53C22.2901 12.94 22.5101 13.46 22.5101 13.99C22.5101 14.52 22.3001 15.02 21.9201 15.41H21.9001ZM2.79008 14.7C2.99008 14.9 3.25008 15 3.50008 15C3.78008 15 4.04008 14.88 4.26008 14.66C4.65008 14.27 4.87008 13.31 4.95008 12.54C4.38008 12.6 3.71009 12.74 3.24009 12.96C3.24009 12.96 3.22009 12.96 3.21009 12.97C3.06009 13.05 2.92008 13.13 2.83008 13.23C2.61008 13.45 2.49009 13.71 2.49009 13.99C2.49009 14.25 2.60008 14.5 2.79008 14.7ZM19.5801 15.77C19.3801 15.67 19.1801 15.54 19.0101 15.36C18.0801 14.43 17.9901 12.25 17.9901 12.01C17.9901 11.87 18.0401 11.74 18.1401 11.64C18.2401 11.54 18.3701 11.49 18.5101 11.49C18.6701 11.49 19.5901 11.53 20.4901 11.79C20.3801 7.20001 16.6201 3.48999 12.0001 3.48999C7.38008 3.48999 3.62008 7.20001 3.51008 11.79C4.41008 11.53 5.33009 11.49 5.49009 11.49C5.62009 11.49 5.76008 11.54 5.86008 11.64C5.96008 11.74 6.01008 11.87 6.01008 12.01C6.01008 12.26 5.92009 14.43 4.99009 15.36C4.82009 15.53 4.63008 15.66 4.42008 15.77C5.85008 18.65 8.76008 20.5 12.0101 20.5C15.2601 20.5 18.1701 18.65 19.6001 15.77H19.5801ZM21.4901 13.99C21.4901 13.71 21.3701 13.45 21.1501 13.23C21.0501 13.13 20.9201 13.05 20.7701 12.97C20.7701 12.97 20.7501 12.97 20.7401 12.96C20.2701 12.74 19.6001 12.6 19.0301 12.54C19.1101 13.31 19.3301 14.27 19.7201 14.66C19.9401 14.88 20.2101 15 20.4801 15C20.7901 15 20.9901 14.9 21.1901 14.7C21.3901 14.5 21.4901 14.25 21.4901 13.99ZM15.3801 13.72C15.6301 13.94 15.7401 14.26 15.6601 14.58C15.2701 16.29 13.7501 17.49 11.9801 17.49C10.2101 17.49 8.70009 16.29 8.30009 14.58C8.22009 14.26 8.33008 13.94 8.58008 13.72C8.84008 13.49 9.21008 13.43 9.54008 13.56C11.1801 14.21 12.7701 14.21 14.4101 13.56C14.7401 13.43 15.1101 13.49 15.3701 13.72H15.3801ZM14.6501 14.51C12.9201 15.21 11.1201 15.22 9.34008 14.55C9.69008 15.7 10.7601 16.49 11.9901 16.49C13.2201 16.49 14.3101 15.68 14.6501 14.51Z" />
</svg>
