<svg viewBox="0 0 24 24" fill="currentColor" stroke="currentColor" xmlns="http://www.w3.org/2000/svg">
<path d="M12 1.5C6.21 1.5 1.5 6.21 1.5 12C1.5 17.79 6.21 22.5 12 22.5C17.79 22.5 22.5 17.79 22.5 12C22.5 6.21 17.79 1.5 12 1.5ZM12 21.5C6.76 21.5 2.5 17.24 2.5 12C2.5 6.76 6.76 2.5 12 2.5C17.24 2.5 21.5 6.76 21.5 12C21.5 17.24 17.24 21.5 12 21.5ZM17.5 11C17.5 11.87 17.08 12.5 16.5 12.5C15.92 12.5 15.5 11.87 15.5 11C15.5 10.82 15.52 10.66 15.56 10.5H14C13.72 10.5 13.5 10.28 13.5 10C13.5 9.72 13.72 9.5 14 9.5H16.5C17.08 9.5 17.5 10.13 17.5 11ZM8.56 10.5H7C6.72 10.5 6.5 10.28 6.5 10C6.5 9.72 6.72 9.5 7 9.5H9.5C10.08 9.5 10.5 10.13 10.5 11C10.5 11.87 10.08 12.5 9.5 12.5C8.92 12.5 8.5 11.87 8.5 11C8.5 10.82 8.52 10.66 8.56 10.5ZM15.29 15.6C15.51 15.77 15.55 16.08 15.39 16.3C15.29 16.43 15.14 16.5 14.99 16.5C14.89 16.5 14.78 16.47 14.69 16.4C13.12 15.22 10.85 15.23 9.29001 16.4C9.07001 16.57 8.76 16.52 8.59 16.3C8.42 16.08 8.47 15.77 8.69 15.6C10.6 14.16 13.37 14.15 15.29 15.6Z" />
</svg>
