<svg viewBox="0 0 24 24" fill="currentColor" stroke="currentColor" xmlns="http://www.w3.org/2000/svg">
<path d="M12 22.5C6.21 22.5 1.5 17.79 1.5 12C1.5 6.21 6.21 1.5 12 1.5C17.79 1.5 22.5 6.21 22.5 12C22.5 17.79 17.79 22.5 12 22.5ZM12 2.5C6.76 2.5 2.5 6.76 2.5 12C2.5 17.24 6.76 21.5 12 21.5C17.24 21.5 21.5 17.24 21.5 12C21.5 6.76 17.24 2.5 12 2.5ZM12 18.5C9.78 18.5 7.87002 16.85 7.55002 14.66C7.51002 14.37 7.59001 14.07 7.79001 13.85C7.98001 13.63 8.25001 13.5 8.54001 13.5H15.46C15.75 13.5 16.03 13.63 16.22 13.85C16.41 14.07 16.5 14.37 16.46 14.66C16.14 16.85 14.22 18.5 12.01 18.5H12ZM8.54001 14.5C8.79001 16.22 10.27 17.5 12 17.5C13.73 17.5 15.21 16.22 15.46 14.52L8.54001 14.5ZM17.03 9.97C17.29 9.88 17.43 9.6 17.34 9.33C17.06 8.53 16.31 7.99001 15.46 7.99001C14.61 7.99001 13.85 8.53 13.58 9.33C13.49 9.59 13.63 9.88 13.89 9.97C14.15 10.06 14.44 9.92 14.53 9.66C14.67 9.26 15.04 9 15.47 9C15.9 9 16.27 9.27 16.41 9.66C16.48 9.87 16.68 10 16.88 10C16.93 10 16.99 10 17.04 9.97H17.03ZM10.21 9.97C10.47 9.88 10.61 9.6 10.52 9.33C10.24 8.53 9.49001 7.99001 8.64001 7.99001C7.79001 7.99001 7.03001 8.53 6.76001 9.33C6.67001 9.59 6.81001 9.88 7.07001 9.97C7.33001 10.06 7.62002 9.92 7.71002 9.66C7.84002 9.27 8.22999 9 8.64999 9C9.06999 9 9.45 9.27 9.59 9.66C9.66 9.87 9.86 10 10.06 10C10.11 10 10.17 10 10.22 9.97H10.21Z" />
</svg>
