<svg viewBox="0 0 24 24" fill="currentColor" stroke="currentColor" xmlns="http://www.w3.org/2000/svg">
<path d="M12 22.5C6.21 22.5 1.5 17.79 1.5 12C1.5 6.21 6.21 1.5 12 1.5C17.79 1.5 22.5 6.21 22.5 12C22.5 17.79 17.79 22.5 12 22.5ZM12 2.5C6.76 2.5 2.5 6.76 2.5 12C2.5 17.24 6.76 21.5 12 21.5C17.24 21.5 21.5 17.24 21.5 12C21.5 6.76 17.24 2.5 12 2.5ZM16 10C16 9.13 15.58 8.5 15 8.5C14.42 8.5 14 9.13 14 10C14 10.87 14.42 11.5 15 11.5C15.58 11.5 16 10.87 16 10ZM10 10C10 9.13 9.58 8.5 9 8.5C8.42 8.5 8 9.13 8 10C8 10.87 8.42 11.5 9 11.5C9.58 11.5 10 10.87 10 10ZM9.07999 16.49L15.08 15.49C15.35 15.44 15.54 15.19 15.49 14.91C15.44 14.63 15.18 14.45 14.91 14.5L8.91 15.5C8.64 15.55 8.45 15.8 8.5 16.08C8.54 16.32 8.74999 16.5 8.98999 16.5C9.01999 16.5 9.05001 16.5 9.07001 16.5L9.07999 16.49Z" />
</svg>
