<svg viewBox="0 0 24 24" fill="currentColor" stroke="currentColor" xmlns="http://www.w3.org/2000/svg">
<path d="M12 22.5C6.21 22.5 1.5 17.79 1.5 12C1.5 6.21 6.21 1.5 12 1.5C17.79 1.5 22.5 6.21 22.5 12C22.5 17.79 17.79 22.5 12 22.5ZM12 2.5C6.76 2.5 2.5 6.76 2.5 12C2.5 17.24 6.76 21.5 12 21.5C17.24 21.5 21.5 17.24 21.5 12C21.5 6.76 17.24 2.5 12 2.5ZM16 10C16 9.13 15.58 8.5 15 8.5C14.42 8.5 14 9.13 14 10C14 10.87 14.42 11.5 15 11.5C15.58 11.5 16 10.87 16 10ZM10 10C10 9.13 9.58 8.5 9 8.5C8.42 8.5 8 9.13 8 10C8 10.87 8.42 11.5 9 11.5C9.58 11.5 10 10.87 10 10ZM16.4 15.3C16.57 15.08 16.52 14.77 16.3 14.6C16.08 14.43 15.77 14.48 15.6 14.7C14.73 15.85 13.42 16.5 12 16.5C10.58 16.5 9.26 15.83 8.41 14.7C8.24 14.48 7.93 14.44 7.71 14.6C7.49 14.77 7.45 15.08 7.61 15.3C8.65 16.68 10.29 17.5 12 17.5C13.71 17.5 15.34 16.7 16.4 15.3Z" />
</svg>
