<svg viewBox="0 0 24 24" fill="currentColor" stroke="currentColor" xmlns="http://www.w3.org/2000/svg">
<path d="M12.02 22.5C6.23002 22.5 1.52002 17.79 1.52002 12C1.52002 6.21 6.23002 1.5 12.02 1.5C17.81 1.5 22.52 6.21 22.52 12C22.52 17.79 17.81 22.5 12.02 22.5ZM12.02 2.5C6.78002 2.5 2.52002 6.76 2.52002 12C2.52002 17.24 6.78002 21.5 12.02 21.5C17.26 21.5 21.52 17.24 21.52 12C21.52 6.76 17.26 2.5 12.02 2.5ZM16 10C16 9.13 15.58 8.5 15 8.5C14.42 8.5 14 9.13 14 10C14 10.87 14.42 11.5 15 11.5C15.58 11.5 16 10.87 16 10ZM10 10C10 9.13 9.58 8.5 9 8.5C8.42 8.5 8 9.13 8 10C8 10.87 8.42 11.5 9 11.5C9.58 11.5 10 10.87 10 10ZM12 18.5C10.62 18.5 9.5 17.38 9.5 16C9.5 14.62 10.62 13.5 12 13.5C13.38 13.5 14.5 14.62 14.5 16C14.5 17.38 13.38 18.5 12 18.5ZM12 14.5C11.17 14.5 10.5 15.17 10.5 16C10.5 16.83 11.17 17.5 12 17.5C12.83 17.5 13.5 16.83 13.5 16C13.5 15.17 12.83 14.5 12 14.5Z" />
</svg>
