<svg viewBox="0 0 24 24" fill="currentColor" stroke="currentColor" xmlns="http://www.w3.org/2000/svg">
<path d="M12 1.5C6.21 1.5 1.5 6.21 1.5 12C1.5 17.79 6.21 22.5 12 22.5C17.79 22.5 22.5 17.79 22.5 12C22.5 6.21 17.79 1.5 12 1.5ZM12 21.5C6.76 21.5 2.5 17.24 2.5 12C2.5 6.76 6.76 2.5 12 2.5C17.24 2.5 21.5 6.76 21.5 12C21.5 17.24 17.24 21.5 12 21.5ZM9 12.5C8.42 12.5 8 11.87 8 11C8 10.52 8.13 10.12 8.34 9.85001L6.78 9.07001C6.53 8.95001 6.43 8.64999 6.56 8.39999C6.68 8.14999 6.98001 8.04999 7.23001 8.17999L10.73 9.92999C10.98 10.05 11.08 10.35 10.95 10.6C10.86 10.78 10.69 10.88 10.5 10.88C10.42 10.88 10.35 10.86 10.28 10.83L9.98001 10.68C9.99001 10.78 10 10.89 10 11.01C10 11.88 9.58 12.51 9 12.51V12.5ZM14.4 15.7C14.57 15.92 14.52 16.23 14.3 16.4C14.21 16.47 14.1 16.5 14 16.5C13.85 16.5 13.7 16.43 13.6 16.3C13.22 15.8 12.63 15.5 12 15.5C11.37 15.5 10.79 15.79 10.4 16.3C10.23 16.52 9.92001 16.56 9.70001 16.4C9.48001 16.23 9.44001 15.92 9.60001 15.7C10.18 14.94 11.05 14.5 12 14.5C12.95 14.5 13.83 14.95 14.39 15.7H14.4ZM17.44 8.39999C17.56 8.64999 17.46 8.95001 17.22 9.07001L15.66 9.85001C15.87 10.12 16 10.52 16 11C16 11.87 15.58 12.5 15 12.5C14.42 12.5 14 11.87 14 11C14 10.89 14 10.78 14.02 10.67L13.72 10.82C13.65 10.86 13.57 10.87 13.5 10.87C13.32 10.87 13.14 10.77 13.05 10.59C12.93 10.34 13.03 10.04 13.27 9.92L16.77 8.17C17.02 8.05 17.32 8.15 17.44 8.39V8.39999Z" />
</svg>
