<svg viewBox="0 0 24 24" fill="currentColor" stroke="currentColor" xmlns="http://www.w3.org/2000/svg">
<path d="M9.02006 10.9999C8.47006 10.9999 8.02006 10.5499 8.02006 9.99987C8.02006 9.44987 8.46006 8.99987 9.02006 8.99987C9.57006 8.99987 10.0201 9.44987 10.0201 9.99987C10.0201 10.5499 9.57006 10.9999 9.02006 10.9999ZM13.7801 14.0899C12.6901 14.6299 11.3601 14.6399 10.2201 14.0899C9.97007 13.9699 9.67006 14.0799 9.55006 14.3299C9.43006 14.5799 9.54008 14.8799 9.79008 14.9999C10.4901 15.3299 11.2301 15.4999 12.0001 15.4999C12.7701 15.4999 13.5401 15.3299 14.2301 14.9799C14.4801 14.8599 14.5801 14.5599 14.4601 14.3099C14.3401 14.0599 14.0401 13.9599 13.7901 14.0799L13.7801 14.0899ZM15.0001 8.99987C14.4601 8.99987 13.9701 9.28987 13.7101 9.74987C13.5701 9.98987 13.6601 10.2999 13.9001 10.4299C14.1401 10.5599 14.4401 10.4799 14.5801 10.2399C14.7601 9.92986 15.2601 9.92986 15.4301 10.2399C15.5201 10.3999 15.6901 10.4899 15.8601 10.4899C15.9401 10.4899 16.0301 10.4699 16.1101 10.4299C16.3501 10.2899 16.4401 9.98987 16.3001 9.74987C16.0401 9.28987 15.5401 8.99987 15.0101 8.99987H15.0001ZM22.5001 11.9999V12.5099C22.5001 14.2499 21.8201 15.8799 20.6001 17.1099L17.1201 20.5999C15.8901 21.8299 14.2601 22.4999 12.5201 22.4999H12.0101C9.15008 22.4999 6.48008 21.3699 4.48008 19.3199C2.49008 17.2699 1.43008 14.5599 1.51008 11.6999C1.66008 6.22988 6.24006 1.64987 11.7101 1.49987C14.5601 1.42987 17.2801 2.47987 19.3301 4.46987C21.3801 6.45987 22.5101 9.13987 22.5101 11.9999H22.5001ZM20.6101 15.4999H19.0001C17.0701 15.4999 15.5001 17.0699 15.5001 18.9999V20.6099C15.8201 20.3999 16.1301 20.1599 16.4001 19.8899L19.8801 16.3999C20.1601 16.1199 20.4001 15.8199 20.6001 15.4999H20.6101ZM21.5001 11.9999C21.5001 9.40987 20.4801 6.98987 18.6201 5.18987C16.8301 3.44987 14.4901 2.49987 12.0001 2.49987C11.9101 2.49987 11.8201 2.49987 11.7301 2.49987C6.78008 2.63987 2.64007 6.77988 2.50007 11.7299C2.43007 14.3199 3.38007 16.7699 5.19007 18.6199C6.99007 20.4699 9.41007 21.4999 12.0001 21.4999H12.5101C13.2001 21.4999 13.8701 21.3599 14.5001 21.1199V18.9999C14.5001 16.5199 16.5201 14.4999 19.0001 14.4999H21.1201C21.3601 13.8699 21.5001 13.2099 21.5001 12.5099V11.9999Z" />
</svg>
