<svg viewBox="0 0 24 24" fill="currentColor" stroke="currentColor" xmlns="http://www.w3.org/2000/svg">
<path d="M14.01 10C14.01 9.45 14.45 9 15.01 9C15.56 9 16.01 9.45 16.01 10C16.01 10.55 15.56 11 15.01 11C14.46 11 14.01 10.55 14.01 10ZM10.01 10C10.01 9.45 9.56001 9 9.01001 9C8.46001 9 8.01001 9.45 8.01001 10C8.01001 10.55 8.46001 11 9.01001 11C9.56001 11 10.01 10.55 10.01 10ZM14.21 14.54C12.79 13.86 11.14 13.88 9.76999 14.55C9.51999 14.67 9.42001 14.97 9.54001 15.22C9.63001 15.4 9.79999 15.5 9.98999 15.5C10.07 15.5 10.14 15.48 10.21 15.45C11.3 14.91 12.63 14.9 13.77 15.45C14.02 15.57 14.32 15.46 14.44 15.21C14.56 14.96 14.45 14.66 14.2 14.54H14.21ZM21.49 6.38V13.76C21.49 14.69 21.13 15.57 20.46 16.24L16.22 20.48C15.57 21.13 14.67 21.51 13.75 21.51H6.37C3.73 21.51 2.48999 20.28 2.48999 17.63V6.38C2.48999 3.74 3.72 2.5 6.37 2.5H17.62C20.26 2.5 21.5 3.73 21.5 6.38H21.49ZM13.75 20.5C14 20.5 14.25 20.45 14.49 20.37V18.5C14.49 16.29 16.28 14.5 18.49 14.5H20.37C20.44 14.26 20.49 14.01 20.49 13.76V6.38C20.49 4.28 19.71 3.5 17.61 3.5H6.35999C4.25999 3.5 3.48001 4.28 3.48001 6.38V17.63C3.48001 19.73 4.25999 20.51 6.35999 20.51H13.74L13.75 20.5ZM19.76 15.53C19.76 15.53 19.77 15.51 19.78 15.5H18.49C16.84 15.5 15.49 16.85 15.49 18.5V19.79C15.49 19.79 15.51 19.78 15.52 19.77L19.76 15.53Z" />
</svg>
