<svg viewBox="0 0 24 24" fill="currentColor" stroke="currentColor" xmlns="http://www.w3.org/2000/svg">
<path d="M9.01001 11C8.46001 11 8.01001 10.55 8.01001 10C8.01001 9.45 8.45001 9 9.01001 9C9.56001 9 10.01 9.45 10.01 10C10.01 10.55 9.56001 11 9.01001 11ZM14.44 14.31C14.32 14.06 14.02 13.96 13.77 14.08C12.68 14.62 11.35 14.63 10.21 14.08C9.96002 13.96 9.65998 14.06 9.53998 14.31C9.41998 14.56 9.53003 14.86 9.78003 14.98C10.48 15.31 11.22 15.48 11.99 15.48C12.76 15.48 13.53 15.31 14.22 14.96C14.47 14.84 14.57 14.54 14.45 14.29L14.44 14.31ZM13.89 10.43C14.13 10.56 14.43 10.48 14.57 10.24C14.75 9.92999 15.24 9.92999 15.42 10.24C15.51 10.4 15.68 10.49 15.85 10.49C15.93 10.49 16.02 10.47 16.1 10.43C16.34 10.29 16.43 9.99 16.29 9.75C16.03 9.29 15.53 9 15 9C14.47 9 13.97 9.29 13.71 9.75C13.57 9.99 13.66 10.3 13.9 10.43H13.89ZM21.51 6.37V13.75C21.51 14.68 21.15 15.56 20.48 16.23L16.24 20.47C15.59 21.12 14.69 21.5 13.77 21.5H6.39001C3.75001 21.5 2.51001 20.27 2.51001 17.62V6.37C2.51001 3.73 3.74001 2.48999 6.39001 2.48999H17.64C20.28 2.48999 21.52 3.72 21.52 6.37H21.51ZM13.77 20.49C14.02 20.49 14.27 20.44 14.51 20.36V18.49C14.51 16.28 16.3 14.49 18.51 14.49H20.39C20.46 14.25 20.51 14 20.51 13.75V6.37C20.51 4.27 19.73 3.48999 17.63 3.48999H6.38C4.28 3.48999 3.5 4.27 3.5 6.37V17.62C3.5 19.72 4.28 20.5 6.38 20.5H13.76L13.77 20.49ZM19.78 15.52C19.78 15.52 19.79 15.5 19.8 15.49H18.51C16.86 15.49 15.51 16.84 15.51 18.49V19.78C15.51 19.78 15.53 19.77 15.54 19.76L19.78 15.52Z" />
</svg>
