<svg viewBox="0 0 24 24" fill="currentColor" stroke="currentColor" xmlns="http://www.w3.org/2000/svg">
<path d="M14.01 10C14.01 9.45 14.45 9 15.01 9C15.56 9 16.01 9.45 16.01 10C16.01 10.55 15.56 11 15.01 11C14.46 11 14.01 10.55 14.01 10ZM10.01 10C10.01 9.45 9.56001 9 9.01001 9C8.46001 9 8.01001 9.45 8.01001 10C8.01001 10.55 8.46001 11 9.01001 11C9.56001 11 10.01 10.55 10.01 10ZM14.44 14.31C14.32 14.06 14.02 13.96 13.77 14.08C12.68 14.62 11.35 14.63 10.21 14.08C9.95999 13.96 9.66001 14.07 9.54001 14.32C9.42001 14.57 9.53 14.87 9.78 14.99C10.48 15.32 11.22 15.49 11.99 15.49C12.76 15.49 13.53 15.32 14.22 14.97C14.47 14.85 14.57 14.55 14.45 14.3L14.44 14.31ZM21.49 6.37V13.75C21.49 14.68 21.13 15.56 20.46 16.23L16.22 20.47C15.57 21.12 14.67 21.5 13.75 21.5H6.37C3.73 21.5 2.48999 20.27 2.48999 17.62V6.37C2.48999 3.73 3.72 2.48999 6.37 2.48999H17.62C20.26 2.48999 21.5 3.72 21.5 6.37H21.49ZM13.75 20.49C14 20.49 14.25 20.44 14.49 20.36V18.49C14.49 16.28 16.28 14.49 18.49 14.49H20.37C20.44 14.25 20.49 14 20.49 13.75V6.37C20.49 4.27 19.71 3.48999 17.61 3.48999H6.35999C4.25999 3.48999 3.48001 4.27 3.48001 6.37V17.62C3.48001 19.72 4.25999 20.5 6.35999 20.5H13.74L13.75 20.49ZM19.76 15.52C19.76 15.52 19.77 15.5 19.78 15.49H18.49C16.84 15.49 15.49 16.84 15.49 18.49V19.78C15.49 19.78 15.51 19.77 15.52 19.76L19.76 15.52Z" />
</svg>
