<svg viewBox="0 0 24 24" fill="currentColor" stroke="currentColor" xmlns="http://www.w3.org/2000/svg">
<path d="M16.0201 9.99987C16.0201 10.5499 15.5701 10.9999 15.0201 10.9999C14.4701 10.9999 14.0201 10.5499 14.0201 9.99987C14.0201 9.44987 14.4601 8.99987 15.0201 8.99987C15.5701 8.99987 16.0201 9.44987 16.0201 9.99987ZM10.0201 9.99987C10.0201 9.44987 9.57006 8.99987 9.02006 8.99987C8.47006 8.99987 8.02006 9.44987 8.02006 9.99987C8.02006 10.5499 8.47006 10.9999 9.02006 10.9999C9.57006 10.9999 10.0201 10.5499 10.0201 9.99987ZM14.2201 14.5399C12.8001 13.8599 11.1501 13.8799 9.78007 14.5499C9.53007 14.6699 9.43006 14.9699 9.55006 15.2199C9.64006 15.3999 9.81007 15.4999 10.0001 15.4999C10.0801 15.4999 10.1501 15.4799 10.2201 15.4499C11.3101 14.9099 12.6401 14.8999 13.7801 15.4499C14.0301 15.5699 14.3301 15.4599 14.4501 15.2099C14.5701 14.9599 14.4601 14.6599 14.2101 14.5399H14.2201ZM22.5001 11.9999V12.5099C22.5001 14.2499 21.8201 15.8799 20.6001 17.1099L17.1201 20.5999C15.8901 21.8299 14.2601 22.4999 12.5201 22.4999H12.0101C9.15008 22.4999 6.48008 21.3699 4.48008 19.3199C2.49008 17.2699 1.43008 14.5599 1.51008 11.6999C1.66008 6.22988 6.24006 1.64987 11.7101 1.49987C14.5701 1.42987 17.2801 2.47987 19.3301 4.46987C21.3801 6.45987 22.5101 9.13987 22.5101 11.9999H22.5001ZM20.6101 15.4999H19.0001C17.0701 15.4999 15.5001 17.0699 15.5001 18.9999V20.6099C15.8201 20.3999 16.1301 20.1599 16.4001 19.8899L19.8801 16.3999C20.1601 16.1199 20.4001 15.8199 20.6001 15.4999H20.6101ZM21.5001 11.9999C21.5001 9.40987 20.4801 6.98987 18.6201 5.18987C16.8301 3.44987 14.4901 2.49987 12.0001 2.49987C11.9101 2.49987 11.8201 2.49987 11.7301 2.49987C6.78008 2.63987 2.64007 6.77988 2.50007 11.7299C2.43007 14.3199 3.38007 16.7699 5.19007 18.6199C6.99007 20.4699 9.41007 21.4999 12.0001 21.4999H12.5101C13.2001 21.4999 13.8701 21.3599 14.5001 21.1199V18.9999C14.5001 16.5199 16.5201 14.4999 19.0001 14.4999H21.1201C21.3601 13.8699 21.5001 13.2099 21.5001 12.5099V11.9999Z" />
</svg>
