<svg viewBox="0 0 24 24" fill="currentColor" stroke="currentColor" xmlns="http://www.w3.org/2000/svg">
<path d="M14.5 6.75C15.74 6.75 16.75 5.74 16.75 4.5C16.75 3.26 15.74 2.25 14.5 2.25C13.26 2.25 12.25 3.26 12.25 4.5C12.25 5.74 13.26 6.75 14.5 6.75ZM14.5 3.75C14.91 3.75 15.25 4.09 15.25 4.5C15.25 4.91 14.91 5.25 14.5 5.25C14.09 5.25 13.75 4.91 13.75 4.5C13.75 4.09 14.09 3.75 14.5 3.75ZM10 11.06C9.83 11.23 9.75001 11.47 9.79001 11.71C9.83001 11.95 9.98 12.15 10.19 12.26L11.5 12.91C12.27 13.29 12.74 14.06 12.74 14.92V17.99C12.74 18.4 12.4 18.74 11.99 18.74C11.58 18.74 11.24 18.4 11.24 17.99V14.92C11.24 14.63 11.08 14.38 10.83 14.25L9.51999 13.6C8.86999 13.27 8.42 12.67 8.31 11.95C8.19 11.23 8.42 10.52 8.94 10L10.41 8.53C11.29 7.65 12.71 7.65 13.59 8.53L15.09 10.03C15.23 10.17 15.42 10.25 15.62 10.25H17C17.41 10.25 17.75 10.59 17.75 11C17.75 11.41 17.41 11.75 17 11.75H15.62C15.03 11.75 14.45 11.51 14.03 11.09L12.53 9.59C12.24 9.3 11.76 9.3 11.47 9.59L10 11.06ZM18 14.25C15.93 14.25 14.25 15.93 14.25 18C14.25 20.07 15.93 21.75 18 21.75C20.07 21.75 21.75 20.07 21.75 18C21.75 15.93 20.07 14.25 18 14.25ZM18 20.25C16.76 20.25 15.75 19.24 15.75 18C15.75 16.76 16.76 15.75 18 15.75C19.24 15.75 20.25 16.76 20.25 18C20.25 19.24 19.24 20.25 18 20.25ZM6 14.25C3.93 14.25 2.25 15.93 2.25 18C2.25 20.07 3.93 21.75 6 21.75C8.07 21.75 9.75 20.07 9.75 18C9.75 15.93 8.07 14.25 6 14.25ZM6 20.25C4.76 20.25 3.75 19.24 3.75 18C3.75 16.76 4.76 15.75 6 15.75C7.24 15.75 8.25 16.76 8.25 18C8.25 19.24 7.24 20.25 6 20.25Z" />
</svg>
