<svg viewBox="0 0 24 24" fill="currentColor" stroke="currentColor" xmlns="http://www.w3.org/2000/svg">
<path d="M21.75 9.3V7.5C21.75 6.09 20.91 5.25 19.5 5.25H17.5C16.09 5.25 15.25 6.09 15.25 7.5V9.25H8.75V7.5C8.75 6.09 7.91 5.25 6.5 5.25H4.5C3.09 5.25 2.25 6.09 2.25 7.5V9.3C1.68 9.42 1.25 9.92001 1.25 10.57V13.43C1.25 14.08 1.68 14.58 2.25 14.7V16.5C2.25 17.91 3.09 18.75 4.5 18.75H6.5C7.91 18.75 8.75 17.91 8.75 16.5V14.75H15.25V16.5C15.25 17.91 16.09 18.75 17.5 18.75H19.5C20.91 18.75 21.75 17.91 21.75 16.5V14.7C22.32 14.58 22.75 14.08 22.75 13.43V10.57C22.75 9.92001 22.32 9.42 21.75 9.3ZM7.25 16.5C7.25 17.09 7.09 17.25 6.5 17.25H4.5C3.91 17.25 3.75 17.09 3.75 16.5V7.5C3.75 6.91 3.91 6.75 4.5 6.75H6.5C7.09 6.75 7.25 6.91 7.25 7.5V16.5ZM8.75 13.25V10.75H15.25V13.25H8.75ZM20.25 16.5C20.25 17.09 20.09 17.25 19.5 17.25H17.5C16.91 17.25 16.75 17.09 16.75 16.5V7.5C16.75 6.91 16.91 6.75 17.5 6.75H19.5C20.09 6.75 20.25 6.91 20.25 7.5V16.5Z" />
</svg>
