<svg viewBox="0 0 24 24" fill="currentColor" stroke="currentColor" xmlns="http://www.w3.org/2000/svg">
<path d="M15.52 10C15.52 10.55 15.07 11 14.52 11C13.97 11 13.52 10.55 13.52 10C13.52 9.45 13.96 9 14.51 9H14.52C15.07 9 15.52 9.45 15.52 10ZM21.53 8.53L19.03 11.03C18.74 11.32 18.2599 11.32 17.9699 11.03L17.75 10.81V20C17.75 20.41 17.41 20.75 17 20.75H6.99997C6.58997 20.75 6.24997 20.41 6.24997 20V10.81L6.03 11.03C5.74 11.32 5.25994 11.32 4.96994 11.03L2.46994 8.53C2.17994 8.24 2.17994 7.76 2.46994 7.47L5.87998 4.06C6.39998 3.54 7.08998 3.25 7.81998 3.25H9.00998C9.62998 3.25 10.17 3.69 10.27 4.28C10.41 5.13 11.13 5.75 12 5.75C12.87 5.75 13.59 5.13 13.73 4.28C13.83 3.69 14.37 3.25 14.99 3.25H16.18C16.91 3.25 17.61 3.54 18.12 4.06L21.53 7.47C21.82 7.76 21.82 8.24 21.53 8.53ZM16.25 13.75H7.74997V15.25H16.25V13.75ZM16.25 19.25V16.75H7.74997V19.25H16.25ZM19.94 8L17.06 5.12C16.82 4.88 16.51 4.75 16.18 4.75H15.17C14.83 6.21 13.53 7.25 12.01 7.25C10.49 7.25 9.18995 6.21 8.84995 4.75H7.84C7.51 4.75 7.18999 4.88 6.95999 5.12L4.07999 8L5.51999 9.44L6.48996 8.47C6.69996 8.26 7.02997 8.19 7.30997 8.31C7.58997 8.43 7.76999 8.7 7.76999 9V12.25H16.27V9C16.27 8.7 16.45 8.42 16.73 8.31C17.01 8.19 17.33 8.26 17.55 8.47L18.52 9.44L19.96 8H19.94Z" />
</svg>
