<svg viewBox="0 0 24 24" fill="currentColor" stroke="currentColor" xmlns="http://www.w3.org/2000/svg">
<path d="M19.5 16.25H16.5C15.09 16.25 14.25 17.09 14.25 18.5V19.5C14.25 20.91 15.09 21.75 16.5 21.75H19.5C20.91 21.75 21.75 20.91 21.75 19.5V18.5C21.75 17.09 20.91 16.25 19.5 16.25ZM20.25 19.5C20.25 20.09 20.09 20.25 19.5 20.25H16.5C15.91 20.25 15.75 20.09 15.75 19.5V18.5C15.75 17.91 15.91 17.75 16.5 17.75H19.5C20.09 17.75 20.25 17.91 20.25 18.5V19.5ZM18.27 2.30003C17.88 2.15003 17.45 2.34002 17.3 2.73002L13.76 11.82C13.42 12.69 12.6 13.25 11.66 13.25H4.48999C3.24999 13.25 2.23999 14.26 2.23999 15.5V19.5C2.23999 20.74 3.24999 21.75 4.48999 21.75H8.94C10.48 21.75 11.88 20.79 12.43 19.36L18.69 3.27003C18.84 2.88003 18.65 2.45003 18.26 2.30003H18.27ZM3.75 19.5V15.5C3.75 15.09 4.09 14.75 4.5 14.75H6.25V20.25H4.5C4.09 20.25 3.75 19.91 3.75 19.5ZM11.04 18.82C10.71 19.67 9.87001 20.25 8.95001 20.25H7.75V14.75H11.67C12.02 14.75 12.36 14.7 12.68 14.61L11.04 18.82Z" />
</svg>
