<svg viewBox="0 0 24 24" fill="currentColor" stroke="currentColor" xmlns="http://www.w3.org/2000/svg">
<path d="M19 2.25C17.48 2.25 16.25 3.48 16.25 5V13C16.25 13.41 16.59 13.75 17 13.75H18.25V16.5C18.25 18.02 17.02 19.25 15.5 19.25C13.98 19.25 12.75 18.02 12.75 16.5V7.5C12.75 5.16 10.84 3.25 8.5 3.25C6.16 3.25 4.25 5.16 4.25 7.5V10.25H3C2.59 10.25 2.25 10.59 2.25 11V19C2.25 20.52 3.48 21.75 5 21.75C6.52 21.75 7.75 20.52 7.75 19V11C7.75 10.59 7.41 10.25 7 10.25H5.75V7.5C5.75 5.98 6.98 4.75 8.5 4.75C10.02 4.75 11.25 5.98 11.25 7.5V16.5C11.25 18.84 13.16 20.75 15.5 20.75C17.84 20.75 19.75 18.84 19.75 16.5V13.75H21C21.41 13.75 21.75 13.41 21.75 13V5C21.75 3.48 20.52 2.25 19 2.25ZM5 20.25C4.31 20.25 3.75 19.69 3.75 19V14.75H6.25V19C6.25 19.69 5.69 20.25 5 20.25ZM6.25 13.25H3.75V11.75H6.25V13.25ZM19 3.75C19.69 3.75 20.25 4.31 20.25 5V9.25H17.75V5C17.75 4.31 18.31 3.75 19 3.75ZM17.75 12.25V10.75H20.25V12.25H17.75Z" />
</svg>
