<svg viewBox="0 0 24 24" fill="currentColor" stroke="currentColor" xmlns="http://www.w3.org/2000/svg">
<path d="M19 16.25C17.48 16.25 16.25 17.48 16.25 19C16.25 20.52 17.48 21.75 19 21.75C20.52 21.75 21.75 20.52 21.75 19C21.75 17.48 20.52 16.25 19 16.25ZM19 20.25C18.31 20.25 17.75 19.69 17.75 19C17.75 18.31 18.31 17.75 19 17.75C19.69 17.75 20.25 18.31 20.25 19C20.25 19.69 19.69 20.25 19 20.25ZM14.18 16.8C15.27 16.71 16.2 16.33 17.67 14.86L18.65 13.89C20.08 12.46 20.8 10.76 20.75 8.95999C20.7 7.28999 19.95 5.64998 18.65 4.33998C17.35 3.03998 15.71 2.28999 14.03 2.23999C12.22 2.18999 10.53 2.90998 9.10001 4.33998L8.14 5.30998C6.67 6.77998 6.29 7.70997 6.2 8.78997C6.2 8.80997 6.2 8.81998 6.2 8.83998C6.18 9.13998 6.17 9.44997 6.17 9.78997V10.07C6.17 10.67 6.25 11.28 6.42 11.88C6.64 12.66 6.44999 13.46 5.92999 13.98L2.60001 17.31C2.12001 17.79 2.12001 18.56 2.60001 19.04L3.94 20.38C4.18 20.62 4.49 20.74 4.8 20.74C5.11 20.74 5.43 20.62 5.66 20.38L8.99001 17.05C9.51 16.53 10.31 16.34 11.09 16.56C11.69 16.72 12.29 16.81 12.9 16.81H13.18C13.52 16.81 13.83 16.81 14.13 16.78C14.13 16.78 14.13 16.78 14.14 16.78C14.14 16.78 14.16 16.78 14.17 16.78L14.18 16.8ZM9.21001 6.38998L10.17 5.41998C11.3 4.28998 12.63 3.71997 13.99 3.75997C15.28 3.79997 16.56 4.38998 17.59 5.41998C18.62 6.44998 19.21 7.72998 19.25 9.01998C19.29 10.39 18.72 11.71 17.59 12.84L16.61 13.81C15.64 14.78 15.04 15.14 14.41 15.27L7.74001 8.59999C7.87001 7.96999 8.23 7.37997 9.2 6.39997L9.21001 6.38998ZM7.94 16.01L4.81 19.14L3.86999 18.2L7 15.07C7.9 14.17 8.23999 12.8 7.86999 11.51C7.78999 11.24 7.75 10.96 7.72 10.68L12.33 15.29C12.05 15.26 11.78 15.21 11.5 15.14C10.2 14.78 8.84 15.11 7.94 16.01Z" />
</svg>
