<svg viewBox="0 0 24 24" fill="currentColor" stroke="currentColor" xmlns="http://www.w3.org/2000/svg">
<path d="M18 4.25H6C3.58 4.25 2.25 5.58 2.25 8V16C2.25 18.42 3.58 19.75 6 19.75H18C20.42 19.75 21.75 18.42 21.75 16V8C21.75 5.58 20.42 4.25 18 4.25ZM20.25 14.25H19C18.86 14.25 18.75 14.14 18.75 14V10C18.75 9.86 18.86 9.75 19 9.75H20.25V14.25ZM12 13.75C11.04 13.75 10.25 12.96 10.25 12C10.25 11.04 11.04 10.25 12 10.25C12.96 10.25 13.75 11.04 13.75 12C13.75 12.96 12.96 13.75 12 13.75ZM3.75 9.75H5C5.14 9.75 5.25 9.86 5.25 10V14C5.25 14.14 5.14 14.25 5 14.25H3.75V9.75ZM3.75 16V15.75H5C5.96 15.75 6.75 14.96 6.75 14V10C6.75 9.04 5.96 8.25 5 8.25H3.75V8C3.75 6.42 4.42 5.75 6 5.75H11.25V8.85001C9.82 9.19001 8.75 10.47 8.75 12C8.75 13.53 9.82 14.81 11.25 15.15V18.25H6C4.42 18.25 3.75 17.58 3.75 16ZM18 18.25H12.75V15.15C14.18 14.81 15.25 13.53 15.25 12C15.25 10.47 14.18 9.19001 12.75 8.85001V5.75H18C19.58 5.75 20.25 6.42 20.25 8V8.25H19C18.04 8.25 17.25 9.04 17.25 10V14C17.25 14.96 18.04 15.75 19 15.75H20.25V16C20.25 17.58 19.58 18.25 18 18.25Z" />
</svg>
