<svg viewBox="0 0 24 24" fill="currentColor" stroke="currentColor" xmlns="http://www.w3.org/2000/svg">
<path d="M19.34 4.56L16.21 3.35999C16.21 3.35999 16.21 3.33999 16.21 3.32999C15.94 2.66999 15.3 2.25 14.59 2.25H9.42C8.71 2.25 8.08 2.66999 7.8 3.32999C7.8 3.32999 7.8 3.34999 7.8 3.35999L4.67 4.56C3.23 5.11 2.26 6.52 2.26 8.06V14.19C2.26 14.94 2.64 15.65 3.26 16.06L5.15 17.32L4.28 20.81C4.22 21.03 4.28 21.27 4.42 21.45C4.56 21.63 4.78 21.74 5.01 21.74H19.01C19.24 21.74 19.46 21.63 19.6 21.45C19.74 21.27 19.79 21.03 19.74 20.81L18.87 17.32L20.76 16.06C21.39 15.64 21.76 14.94 21.76 14.19V8.04999C21.76 6.50999 20.79 5.09999 19.35 4.54999L19.34 4.56ZM9.41 3.75H14.58C14.73 3.75 14.79 3.84999 14.81 3.89999C14.83 3.94999 14.86 4.07001 14.76 4.17001L12 6.92999L9.24001 4.17001C9.14001 4.07001 9.16 3.95999 9.19 3.89999C9.22 3.83999 9.28 3.75 9.42 3.75H9.41ZM3.75 14.2V8.07001C3.75 7.14001 4.33 6.3 5.19 5.97L7.93 4.92001C8 5.03001 8.07 5.15 8.17 5.25L10.93 8.01001L6.74 12.2V9.01001C6.74 8.60001 6.4 8.26001 5.99 8.26001C5.58 8.26001 5.24 8.60001 5.24 9.01001V15.61L4.07 14.83C3.86 14.69 3.74 14.46 3.74 14.21L3.75 14.2ZM5.96 20.25L6.73 17.18C6.75 17.12 6.75 17.06 6.75 17V16.75H10.19L9.47 17.47C9.18 17.76 9.18 18.24 9.47 18.53C9.76 18.82 10.24 18.82 10.53 18.53L12 17.06L13.47 18.53C13.62 18.68 13.81 18.75 14 18.75C14.19 18.75 14.38 18.68 14.53 18.53C14.82 18.24 14.82 17.76 14.53 17.47L13.81 16.75H17.25V17C17.25 17 17.25 17.07 17.26 17.11C17.26 17.13 17.26 17.14 17.26 17.16C17.26 17.16 17.26 17.18 17.26 17.19L18.03 20.26H5.95L5.96 20.25ZM20.25 14.2C20.25 14.45 20.13 14.68 19.92 14.82L18.75 15.6V9C18.75 8.59 18.41 8.25 18 8.25C17.59 8.25 17.25 8.59 17.25 9V15.25H6.75V14.31L15.82 5.23999C15.92 5.13999 15.99 5.03 16.06 4.91L18.8 5.95999C19.66 6.28999 20.24 7.14 20.24 8.06V14.2H20.25Z" />
</svg>
