<svg viewBox="0 0 24 24" fill="currentColor" stroke="currentColor" xmlns="http://www.w3.org/2000/svg">
<path d="M22.75 12C22.75 11.28 22.68 10.58 22.54 9.89999C22.54 9.89999 22.54 9.9 22.54 9.89C22.14 7.87 21.16 6.05 19.79 4.61C19.76 4.57 19.74 4.54999 19.7 4.50999C17.75 2.49999 15.02 1.25 12 1.25C8.98 1.25 6.33 2.46999 4.38 4.42999C4.38 4.42999 4.38 4.43 4.37 4.44C3.37 5.45 2.57 6.66 2.03 8C2.02 8.02 2.01 8.05001 2 8.07001C1.52 9.29001 1.25 10.61 1.25 12C1.25 16.82 4.43999 20.92 8.82999 22.27C8.83999 22.27 8.85999 22.27 8.87 22.27C9.85999 22.57 10.91 22.74 12 22.74C12.28 22.74 12.55 22.72 12.82 22.7C12.82 22.7 12.82 22.7 12.83 22.7C18.36 22.27 22.74 17.64 22.74 11.99L22.75 12ZM12.03 11.15C11.01 10.57 10.06 9.90001 9.19 9.13C11.62 6.96 14.72 5.75999 18 5.75999C18.28 5.75999 18.56 5.78 18.83 5.8C19.73 6.79 20.43 7.96999 20.84 9.28999C20.57 9.27999 20.29 9.27 20 9.27C17.22 9.27 14.48 9.93 12.03 11.17V11.15ZM4.82001 6.17999C6.40001 8.77999 8.58999 10.92 11.24 12.42C11.21 13.68 11.03 14.93 10.72 16.13C7.36 14.66 4.71001 11.82 3.51001 8.36C3.85001 7.57 4.29999 6.83999 4.82999 6.17999H4.82001ZM17.11 4.28999C13.76 4.48999 10.62 5.81001 8.12 8.07001C7.27 7.16001 6.52999 6.15 5.89999 5.06C7.52999 3.63 9.66 2.75 12 2.75C13.89 2.75 15.64 3.31999 17.11 4.28999ZM2.75 12C2.75 11.54 2.78999 11.09 2.85999 10.65C4.42999 13.73 7.05999 16.2 10.27 17.56C9.87999 18.63 9.37 19.67 8.75 20.64C5.25 19.32 2.75 15.95 2.75 11.99V12ZM10.25 21.08C10.93 19.94 11.48 18.73 11.89 17.47C11.89 17.45 11.91 17.44 11.92 17.42C11.92 17.4 11.92 17.39 11.92 17.37C12.42 15.8 12.69 14.15 12.73 12.47C13.84 11.91 15.01 11.48 16.22 11.19C16.24 11.47 16.25 11.74 16.25 11.99C16.25 15.47 14.91 18.73 12.49 21.22C12.33 21.22 12.17 21.24 12 21.24C11.4 21.24 10.82 21.18 10.25 21.07V21.08ZM14.81 20.81C16.71 18.28 17.75 15.23 17.75 12C17.75 11.66 17.73 11.3 17.71 10.92C18.47 10.81 19.23 10.75 20 10.75C20.41 10.75 20.79 10.77 21.16 10.8C21.21 11.19 21.25 11.59 21.25 12C21.25 16.12 18.54 19.62 14.81 20.81Z" />
</svg>
