<svg viewBox="0 0 24 24" fill="currentColor" stroke="currentColor" xmlns="http://www.w3.org/2000/svg">
<path d="M18 19C17.447 19 17 18.552 17 18C17 17.448 17.447 17 18 17C19.439 17 20 16.439 20 15V7C20 5.561 19.439 5 18 5H6C4.561 5 4 5.561 4 7V15C4 16.439 4.561 17 6 17C6.553 17 7 17.448 7 18C7 18.552 6.553 19 6 19C3.458 19 2 17.542 2 15V7C2 4.458 3.458 3 6 3H18C20.542 3 22 4.458 22 7V15C22 17.542 20.542 19 18 19ZM15.796 19.387L12.8 15.3999C12.399 14.8669 11.602 14.8669 11.201 15.3999L8.20496 19.387C7.70696 20.05 8.17703 21 9.00403 21H14.9969C15.8229 21 16.294 20.05 15.796 19.387Z" />
</svg>
