<svg viewBox="0 0 24 24" fill="currentColor" stroke="currentColor" xmlns="http://www.w3.org/2000/svg">
<path d="M18 4H6C4 4 3 5 3 7V17C3 19 4 20 6 20H18C20 20 21 19 21 17V7C21 5 20 4 18 4ZM8.75 13.75C9.302 13.75 9.75 13.301 9.75 12.75H11.25C11.25 14.128 10.129 15.25 8.75 15.25C7.371 15.25 6.25 14.128 6.25 12.75V11.25C6.25 9.872 7.371 8.75 8.75 8.75C10.129 8.75 11.25 9.872 11.25 11.25H9.75C9.75 10.699 9.302 10.25 8.75 10.25C8.198 10.25 7.75 10.699 7.75 11.25V12.75C7.75 13.301 8.198 13.75 8.75 13.75ZM15.25 13.75C15.802 13.75 16.25 13.301 16.25 12.75H17.75C17.75 14.128 16.629 15.25 15.25 15.25C13.871 15.25 12.75 14.128 12.75 12.75V11.25C12.75 9.872 13.871 8.75 15.25 8.75C16.629 8.75 17.75 9.872 17.75 11.25H16.25C16.25 10.699 15.802 10.25 15.25 10.25C14.698 10.25 14.25 10.699 14.25 11.25V12.75C14.25 13.301 14.698 13.75 15.25 13.75Z" />
</svg>
