<svg viewBox="0 0 24 24" fill="currentColor" stroke="currentColor" xmlns="http://www.w3.org/2000/svg">
<path d="M21 9H17.5C15.958 9 15 8.042 15 6.5V3C15 2.448 15.447 2 16 2C16.553 2 17 2.448 17 3V6.5C17 6.949 17.052 7 17.5 7H21C21.553 7 22 7.448 22 8C22 8.552 21.553 9 21 9ZM9 6.5V3C9 2.448 8.553 2 8 2C7.447 2 7 2.448 7 3V6.5C7 6.949 6.948 7 6.5 7H3C2.447 7 2 7.448 2 8C2 8.552 2.447 9 3 9H6.5C8.042 9 9 8.042 9 6.5ZM9 21V17.5C9 15.958 8.042 15 6.5 15H3C2.447 15 2 15.448 2 16C2 16.552 2.447 17 3 17H6.5C6.948 17 7 17.051 7 17.5V21C7 21.552 7.447 22 8 22C8.553 22 9 21.552 9 21ZM17 21V17.5C17 17.051 17.052 17 17.5 17H21C21.553 17 22 16.552 22 16C22 15.448 21.553 15 21 15H17.5C15.958 15 15 15.958 15 17.5V21C15 21.552 15.447 22 16 22C16.553 22 17 21.552 17 21Z" />
</svg>
