<svg viewBox="0 0 24 24" fill="currentColor" stroke="currentColor" xmlns="http://www.w3.org/2000/svg">
<path d="M21 7.96289V16.0371C21 17.6711 19.132 18.5871 17.856 17.5791L12.745 13.542C12.254 13.154 12.005 12.587 12 12.019V16.0371C12 17.6711 10.132 18.5871 8.85596 17.5791L3.75 13.5459V18C3.75 18.414 3.414 18.75 3 18.75C2.586 18.75 2.25 18.414 2.25 18V6C2.25 5.586 2.586 5.25 3 5.25C3.414 5.25 3.75 5.586 3.75 6V10.4529L8.85596 6.41992C10.132 5.41192 12 6.32891 12 7.96191V11.98C12.005 11.411 12.254 10.8441 12.745 10.4561L17.856 6.41992C19.133 5.41292 21 6.32889 21 7.96289Z" />
</svg>
