<svg viewBox="0 0 24 24" fill="currentColor" stroke="currentColor" xmlns="http://www.w3.org/2000/svg">
<path d="M21.75 6V18C21.75 18.414 21.414 18.75 21 18.75C20.586 18.75 20.25 18.414 20.25 18V13.5459L15.144 17.5791C13.868 18.5871 12 17.6711 12 16.0371V12.019C11.995 12.588 11.746 13.154 11.255 13.542L6.14404 17.5791C4.86804 18.5871 3 17.6711 3 16.0371V7.96289C3 6.32889 4.86704 5.4129 6.14404 6.4209L11.255 10.457C11.746 10.845 11.995 11.4129 12 11.9819V7.96289C12 6.32889 13.867 5.4129 15.144 6.4209L20.25 10.4541V6C20.25 5.586 20.586 5.25 21 5.25C21.414 5.25 21.75 5.586 21.75 6Z" />
</svg>
