<svg viewBox="0 0 24 24" fill="currentColor" stroke="currentColor" xmlns="http://www.w3.org/2000/svg">
<path d="M17.63 2.25H6.37C3.71 2.25 2.25 3.71012 2.25 6.37012V17.6201C2.25 20.2801 3.71 21.75 6.37 21.75H17.63C20.29 21.75 21.75 20.2801 21.75 17.6201V6.37012C21.75 3.71012 20.29 2.25 17.63 2.25ZM3.75 6.37012C3.75 4.53012 4.54 3.75 6.37 3.75H7.25V7.25H3.75V6.37012ZM3.75 8.75H7.25V11.25H3.75V8.75ZM3.75 12.75H7.25V15.25H3.75V12.75ZM6.37 20.25C4.54 20.25 3.75 19.4601 3.75 17.6201V16.75H7.25V20.25H6.37ZM20.25 17.6201C20.25 19.4601 19.46 20.25 17.63 20.25H16.75V16.75H20.25V17.6201ZM20.25 15.25H16.75V12.75H20.25V15.25ZM20.25 11.25H16.75V8.75H20.25V11.25ZM20.25 7.25H16.75V3.75H17.63C19.46 3.75 20.25 4.53012 20.25 6.37012V7.25Z" />
</svg>
