<svg viewBox="0 0 24 24" fill="currentColor" stroke="currentColor" xmlns="http://www.w3.org/2000/svg">
<path d="M13 13.5911L6.073 17.7009C4.694 18.5189 2.92102 17.5601 2.92102 15.9961V8.00391C2.92102 6.43991 4.694 5.48107 6.073 6.29907L13 10.4089C14.228 11.1369 14.228 12.8631 13 13.5911ZM17.671 17.5V6.5C17.671 6.086 17.335 5.75 16.921 5.75C16.507 5.75 16.171 6.086 16.171 6.5V17.5C16.171 17.914 16.507 18.25 16.921 18.25C17.335 18.25 17.671 17.914 17.671 17.5ZM21.671 17.5V6.5C21.671 6.086 21.335 5.75 20.921 5.75C20.507 5.75 20.171 6.086 20.171 6.5V17.5C20.171 17.914 20.507 18.25 20.921 18.25C21.335 18.25 21.671 17.914 21.671 17.5Z" />
</svg>
