<svg viewBox="0 0 24 24" fill="currentColor" stroke="currentColor" xmlns="http://www.w3.org/2000/svg">
<path d="M3.5 6.99989H5.26697C5.74097 6.99989 6.19906 6.83177 6.56006 6.52577L10.251 3.39882C11.336 2.47982 13.001 3.25099 13.001 4.67299V19.3268C13.001 20.7488 11.336 21.521 10.251 20.601L6.56006 17.474C6.19906 17.168 5.74097 16.9999 5.26697 16.9999H3.5C2.672 16.9999 2 16.3279 2 15.4999V8.50087C2 7.67187 2.672 6.99989 3.5 6.99989ZM22.75 11.9999C22.75 11.5859 22.414 11.2499 22 11.2499H17C16.586 11.2499 16.25 11.5859 16.25 11.9999C16.25 12.4139 16.586 12.7499 17 12.7499H22C22.414 12.7499 22.75 12.4139 22.75 11.9999Z" />
</svg>
