<svg viewBox="0 0 24 24" fill="currentColor" stroke="currentColor" xmlns="http://www.w3.org/2000/svg">
<path d="M5.5 6.99989H7.26697C7.74097 6.99989 8.19906 6.83177 8.56006 6.52577L12.251 3.39882C13.336 2.47982 15.001 3.25099 15.001 4.67299V19.3268C15.001 20.7488 13.336 21.521 12.251 20.601L8.56006 17.474C8.19906 17.168 7.74097 16.9999 7.26697 16.9999H5.5C4.672 16.9999 4 16.3279 4 15.4999V8.50087C4 7.67187 4.672 6.99989 5.5 6.99989ZM18.767 16.7709C20.046 15.4979 20.75 13.8029 20.75 11.9999C20.75 10.1969 20.046 8.5019 18.767 7.2289C18.473 6.9369 17.9981 6.93685 17.7061 7.23085C17.4131 7.52385 17.415 7.99988 17.708 8.29188C18.702 9.28188 19.25 10.5999 19.25 12.0009C19.25 13.4019 18.702 14.7199 17.708 15.7099C17.415 16.0019 17.4131 16.4769 17.7061 16.7709C17.8521 16.9179 18.0451 16.9918 18.2371 16.9918C18.4291 16.9898 18.62 16.9169 18.767 16.7709Z" />
</svg>
