<svg viewBox="0 0 24 24" fill="currentColor" stroke="currentColor" xmlns="http://www.w3.org/2000/svg">
<path d="M20 7V8.25H2V7C2 5 3 4 5 4H17C19 4 20 5 20 7ZM20 9.75V11.24C20 11.39 19.88 11.51 19.73 11.54C19.24 11.61 18.79 11.84 18.43 12.2L12.94 17.72C12.86 17.8 12.66 18 12.35 18H5C3 18 2 17 2 15V9.75H20ZM9.75 14C9.75 13.586 9.414 13.25 9 13.25H6C5.586 13.25 5.25 13.586 5.25 14C5.25 14.414 5.586 14.75 6 14.75H9C9.414 14.75 9.75 14.414 9.75 14ZM14.003 18.709V20.928H16.222L20.221 16.949L17.982 14.71L14.003 18.709ZM21.74 14.181L20.75 13.191C20.4 12.841 19.84 12.841 19.49 13.191L18.68 14.011L20.919 16.25L21.739 15.44C22.09 15.09 22.09 14.531 21.74 14.181Z" />
</svg>
