<svg viewBox="0 0 24 24" fill="currentColor" stroke="currentColor" xmlns="http://www.w3.org/2000/svg">
<path d="M17 4H5C3 4 2 5 2 7V8.25H20V7C20 5 19 4 17 4ZM2 9.75V15C2 17 3 18 5 18H11.58C11.78 18 11.91 17.82 11.87 17.63C11.81 17.35 11.77 17.06 11.76 16.76C11.63 14.14 13.39 11.68 15.92 10.97C17.21 10.61 18.48 10.71 19.58 11.15C19.78 11.23 20 11.1 20 10.88V9.75H2ZM9 14.75H6C5.59 14.75 5.25 14.41 5.25 14C5.25 13.59 5.59 13.25 6 13.25H9C9.41 13.25 9.75 13.59 9.75 14C9.75 14.41 9.41 14.75 9 14.75ZM17.5 12.25C15.16 12.25 13.25 14.16 13.25 16.5C13.25 18.84 15.16 20.75 17.5 20.75C19.84 20.75 21.75 18.84 21.75 16.5C21.75 14.16 19.84 12.25 17.5 12.25ZM14.75 16.5C14.75 14.98 15.98 13.75 17.5 13.75C17.99 13.75 18.43 13.89 18.83 14.11L15.11 17.83C14.89 17.43 14.75 16.99 14.75 16.5ZM17.5 19.25C17.01 19.25 16.57 19.11 16.17 18.89L19.89 15.17C20.11 15.57 20.25 16.01 20.25 16.5C20.25 18.02 19.02 19.25 17.5 19.25Z" />
</svg>
