<svg viewBox="0 0 24 24" fill="currentColor" stroke="currentColor" xmlns="http://www.w3.org/2000/svg">
<path d="M21.53 5.53003L19.53 7.53003C19.461 7.59903 19.378 7.65402 19.286 7.69202C19.194 7.73002 19.097 7.75 18.999 7.75C18.901 7.75 18.804 7.73002 18.712 7.69202C18.62 7.65402 18.537 7.59903 18.468 7.53003L16.468 5.53003C16.175 5.23703 16.175 4.76199 16.468 4.46899C16.761 4.17599 17.236 4.17599 17.529 4.46899L18.249 5.18896V2C18.249 1.586 18.585 1.25 18.999 1.25C19.413 1.25 19.749 1.586 19.749 2V5.18896L20.469 4.46899C20.762 4.17599 21.237 4.17599 21.53 4.46899C21.823 4.76199 21.823 5.23703 21.53 5.53003ZM21 9.48596V17.62C21 19.87 19.85 21 17.62 21H6.38C4.1 21 3 19.87 3 17.62V6.38C3 4.12 4.1 3 6.38 3H14.514C14.73 3 14.864 3.21597 14.788 3.41797C14.499 4.18497 14.413 5.05596 14.601 5.95996C14.956 7.66496 16.335 9.04502 18.039 9.40002C18.944 9.58902 19.815 9.50301 20.583 9.21301C20.784 9.13701 21 9.27096 21 9.48596ZM14.972 14.017C14.972 12.815 14.157 11.769 12.986 11.473L11.378 11.074C11.13 11.012 10.919 10.873 10.76 10.67C10.61 10.48 10.527 10.236 10.527 9.98499C10.527 9.36598 11.03 8.86304 11.649 8.86304H12.349C12.921 8.86304 13.4 9.29304 13.465 9.86304C13.511 10.275 13.88 10.575 14.294 10.525C14.706 10.479 15.002 10.108 14.956 9.69604C14.821 8.49404 13.891 7.56695 12.727 7.39795V7C12.727 6.586 12.391 6.25 11.977 6.25C11.563 6.25 11.227 6.586 11.227 7V7.40405C9.98201 7.60805 9.02699 8.68203 9.02699 9.98303C9.02699 10.57 9.22399 11.144 9.57899 11.592C9.93499 12.051 10.443 12.383 11.013 12.527L12.621 12.926C13.122 13.053 13.472 13.501 13.472 14.015C13.472 14.313 13.355 14.594 13.142 14.807C12.929 15.02 12.648 15.137 12.35 15.137H11.65C11.078 15.137 10.599 14.707 10.534 14.137C10.488 13.725 10.115 13.423 9.705 13.475C9.293 13.521 8.997 13.892 9.043 14.304C9.176 15.491 10.084 16.412 11.227 16.597V17C11.227 17.414 11.563 17.75 11.977 17.75C12.391 17.75 12.727 17.414 12.727 17V16.6021C13.282 16.5211 13.797 16.275 14.202 15.87C14.699 15.373 14.972 14.715 14.972 14.017Z" />
</svg>
