<svg viewBox="0 0 24 24" fill="currentColor" stroke="currentColor" xmlns="http://www.w3.org/2000/svg">
<path d="M12 2C6.477 2 2 6.477 2 12C2 17.523 6.477 22 12 22C17.523 22 22 17.523 22 12C22 6.477 17.523 2 12 2ZM14.936 14.204L12.45 17.77C12.23 18.08 11.77 18.08 11.55 17.77L9.06403 14.204C8.95403 14.046 9.10902 13.839 9.29102 13.9L11.76 14.72C11.84 14.75 11.92 14.76 12 14.76C12.08 14.76 12.16 14.75 12.24 14.72L14.709 13.9C14.891 13.839 15.046 14.046 14.936 14.204ZM15.29 12.115L12 13.22L8.711 12.115C8.534 12.055 8.45401 11.85 8.54401 11.686L11.521 6.28101C11.731 5.91101 12.271 5.91101 12.481 6.28101L15.458 11.686C15.547 11.849 15.467 12.055 15.29 12.115Z" />
</svg>
