<svg viewBox="0 0 24 24" fill="currentColor" stroke="currentColor" xmlns="http://www.w3.org/2000/svg">
<path d="M17 4H5C3 4 2 5 2 7V15C2 17 3 18 5 18H12.46C12.62 18 12.76 17.86 12.75 17.69C12.75 17.54 12.75 17.39 12.76 17.23C12.91 14.56 14.89 12.25 17.52 11.83C18.26 11.71 18.97 11.72 19.64 11.87C19.82 11.91 20 11.78 20 11.58V7C20 5 19 4 17 4ZM5 12C4.45 12 4 11.55 4 11C4 10.45 4.45 10 5 10C5.55 10 6 10.45 6 11C6 11.55 5.55 12 5 12ZM11 14C9.34 14 8 12.66 8 11C8 9.34 9.34 8 11 8C12.66 8 14 9.34 14 11C14 12.66 12.66 14 11 14ZM18.5 13.25C16.16 13.25 14.25 15.16 14.25 17.5C14.25 19.84 16.16 21.75 18.5 21.75C20.84 21.75 22.75 19.84 22.75 17.5C22.75 15.16 20.84 13.25 18.5 13.25ZM15.75 17.5C15.75 15.98 16.98 14.75 18.5 14.75C18.99 14.75 19.43 14.89 19.83 15.11L16.11 18.83C15.89 18.43 15.75 17.99 15.75 17.5ZM18.5 20.25C18.01 20.25 17.57 20.11 17.17 19.89L20.89 16.17C21.11 16.57 21.25 17.01 21.25 17.5C21.25 19.02 20.02 20.25 18.5 20.25Z" />
</svg>
