<svg viewBox="0 0 24 24" fill="currentColor" stroke="currentColor" xmlns="http://www.w3.org/2000/svg">
<path d="M18 4H6C4 4 3 5 3 7V15C3 17 4 18 6 18H13.74C13.91 18 14.05 17.86 14.05 17.69C14.05 17.65 14.04 17.61 14.03 17.57C14.01 17.38 14 17.19 14 17C14 14.24 16.24 12 19 12C19.56 12 20.1 12.09 20.6 12.26C20.8 12.32 21 12.19 21 11.98V7C21 5 20 4 18 4ZM6 11.999C5.448 11.999 5 11.551 5 10.999C5 10.447 5.448 9.99902 6 9.99902C6.552 9.99902 7 10.447 7 10.999C7 11.552 6.552 11.999 6 11.999ZM12 14C10.343 14 9 12.657 9 11C9 9.343 10.343 8 12 8C13.657 8 15 9.343 15 11C15 12.657 13.657 14 12 14ZM21.53 17.53C21.384 17.676 21.192 17.75 21 17.75C20.808 17.75 20.616 17.677 20.47 17.53L19.75 16.81V20C19.75 20.414 19.414 20.75 19 20.75C18.586 20.75 18.25 20.414 18.25 20V16.811L17.53 17.531C17.237 17.824 16.762 17.824 16.469 17.531C16.176 17.238 16.176 16.763 16.469 16.47L18.469 14.47C18.762 14.177 19.237 14.177 19.53 14.47L21.53 16.47C21.823 16.762 21.823 17.238 21.53 17.53Z" />
</svg>
