<svg viewBox="0 0 24 24" fill="currentColor" stroke="currentColor" xmlns="http://www.w3.org/2000/svg">
<path d="M3.00097 11.8C2.97397 11.8 2.94602 11.799 2.91802 11.796C2.50602 11.751 2.20902 11.38 2.25402 10.969C2.61702 7.65199 4.619 4.79503 7.609 3.32703C7.841 3.21303 8.11699 3.22701 8.33599 3.36401C8.55599 3.50101 8.68999 3.74198 8.68999 4.00098V7.05103C8.68999 7.46503 8.35399 7.80103 7.93999 7.80103C7.52599 7.80103 7.18999 7.46503 7.18999 7.05103V5.31006C5.26699 6.64806 4.00596 8.74896 3.74596 11.132C3.70396 11.515 3.37797 11.8 3.00097 11.8ZM16.391 20.673C19.381 19.206 21.383 16.349 21.746 13.031C21.791 12.619 21.494 12.249 21.082 12.204C20.666 12.161 20.3 12.456 20.255 12.868C19.995 15.251 18.734 17.3519 16.811 18.6899V16.949C16.811 16.535 16.475 16.199 16.061 16.199C15.647 16.199 15.311 16.535 15.311 16.949V19.999C15.311 20.258 15.445 20.499 15.665 20.636C15.786 20.711 15.923 20.749 16.061 20.749C16.173 20.75 16.286 20.725 16.391 20.673ZM20 4.5V8.5C20 9.5 19.5 10 18.5 10H12.5C11.5 10 11 9.5 11 8.5V4.5C11 3.5 11.5 3 12.5 3H18.5C19.5 3 20 3.5 20 4.5ZM16.75 6.5C16.75 5.81 16.19 5.25 15.5 5.25C14.81 5.25 14.25 5.81 14.25 6.5C14.25 7.19 14.81 7.75 15.5 7.75C16.19 7.75 16.75 7.19 16.75 6.5ZM13 15.5V19.5C13 20.5 12.5 21 11.5 21H5.49999C4.49999 21 3.99999 20.5 3.99999 19.5V15.5C3.99999 14.5 4.49999 14 5.49999 14H11.5C12.5 14 13 14.5 13 15.5ZM9.74999 17.5C9.74999 16.81 9.18999 16.25 8.49999 16.25C7.80999 16.25 7.24999 16.81 7.24999 17.5C7.24999 18.19 7.80999 18.75 8.49999 18.75C9.18999 18.75 9.74999 18.19 9.74999 17.5Z" />
</svg>
