<svg viewBox="0 0 24 24" fill="currentColor" stroke="currentColor" xmlns="http://www.w3.org/2000/svg">
<path d="M18 11.5C18.56 11.5 19.1 11.58 19.6 11.74C19.8 11.8 20 11.66 20 11.46V7C20 5 19 4 17 4H5C3 4 2 5 2 7V15C2 17 3 18 5 18H12.23C12.4 18 12.54 17.86 12.54 17.69C12.51 17.46 12.5 17.23 12.5 17C12.5 13.97 14.97 11.5 18 11.5ZM5 12C4.45 12 4 11.55 4 11C4 10.45 4.45 10 5 10C5.55 10 6 10.45 6 11C6 11.55 5.55 12 5 12ZM11 14C9.34 14 8 12.66 8 11C8 9.34 9.34 8 11 8C12.66 8 14 9.34 14 11C14 12.66 12.66 14 11 14ZM18 13C15.79 13 14 14.79 14 17C14 19.21 15.79 21 18 21C20.21 21 22 19.21 22 17C22 14.79 20.21 13 18 13ZM19.35 17.65C19.55 17.84 19.55 18.16 19.35 18.35C19.26 18.45 19.13 18.5 19 18.5C18.87 18.5 18.74 18.45 18.65 18.35L18 17.7L17.35 18.35C17.26 18.45 17.13 18.5 17 18.5C16.87 18.5 16.74 18.45 16.65 18.35C16.45 18.16 16.45 17.84 16.65 17.65L17.3 17L16.65 16.35C16.45 16.16 16.45 15.84 16.65 15.65C16.84 15.45 17.16 15.45 17.35 15.65L18 16.3L18.65 15.65C18.84 15.45 19.16 15.45 19.35 15.65C19.55 15.84 19.55 16.16 19.35 16.35L18.7 17L19.35 17.65Z" />
</svg>
