<svg viewBox="0 0 24 24" fill="currentColor" stroke="currentColor" xmlns="http://www.w3.org/2000/svg">
<path d="M12.001 2.25C6.626 2.25 2.25295 6.62302 2.25295 11.999C2.25295 13.399 2.56405 14.808 3.15505 16.082C3.27005 16.325 3.27893 16.633 3.18093 16.94L2.34011 19.441C2.13011 20.073 2.29311 20.76 2.76711 21.233C3.10311 21.569 3.54692 21.749 4.00392 21.749C4.18992 21.749 4.37705 21.719 4.56105 21.658L7.05007 20.822C7.36707 20.721 7.67707 20.729 7.92507 20.848C9.19207 21.437 10.601 21.748 12 21.748C17.376 21.748 21.749 17.375 21.749 11.999C21.749 6.62302 17.377 2.25 12.001 2.25ZM12.001 20.248C10.818 20.248 9.62796 19.985 8.56496 19.491C7.97596 19.21 7.27803 19.176 6.58303 19.397L4.08498 20.236C3.95998 20.278 3.8699 20.214 3.8279 20.172C3.7859 20.13 3.72193 20.041 3.76393 19.916L4.60793 17.405C4.82493 16.722 4.78996 16.023 4.51296 15.442C4.01596 14.372 3.75295 13.182 3.75295 11.998C3.75295 7.44999 7.453 3.74902 12.001 3.74902C16.55 3.74902 20.25 7.44899 20.25 11.998C20.25 16.547 16.55 20.248 12.001 20.248ZM14.48 13.42C14.858 12.843 15.083 12.157 15.083 11.417C15.083 9.39499 13.438 7.75 11.417 7.75C9.39501 7.75 7.75002 9.39499 7.75002 11.417C7.75002 13.439 9.39501 15.084 11.417 15.084C12.157 15.084 12.8429 14.86 13.4199 14.482L14.97 16.031C15.116 16.177 15.308 16.251 15.5 16.251C15.692 16.251 15.884 16.178 16.03 16.031C16.323 15.738 16.323 15.263 16.03 14.97L14.48 13.42ZM9.25002 11.417C9.25002 10.222 10.222 9.25 11.417 9.25C12.611 9.25 13.583 10.222 13.583 11.417C13.583 12.612 12.611 13.584 11.417 13.584C10.222 13.583 9.25002 12.611 9.25002 11.417Z" />
</svg>
