<svg viewBox="0 0 24 24" fill="currentColor" stroke="currentColor" xmlns="http://www.w3.org/2000/svg">
<path d="M12.001 2.25C6.626 2.25 2.25295 6.62302 2.25295 11.999C2.25295 13.399 2.56405 14.808 3.15505 16.082C3.27005 16.325 3.27893 16.633 3.18093 16.94L2.34011 19.441C2.13011 20.073 2.29311 20.76 2.76711 21.233C3.10311 21.569 3.54692 21.749 4.00392 21.749C4.18992 21.749 4.37705 21.719 4.56105 21.658L7.05007 20.822C7.36707 20.721 7.67707 20.729 7.92507 20.848C9.19207 21.437 10.601 21.748 12 21.748C17.376 21.748 21.749 17.375 21.749 11.999C21.749 6.62302 17.377 2.25 12.001 2.25ZM12.001 20.248C10.818 20.248 9.62796 19.985 8.56496 19.491C7.97596 19.21 7.27703 19.176 6.58303 19.397L4.08498 20.236C3.95998 20.278 3.8699 20.214 3.8279 20.172C3.7859 20.13 3.72193 20.041 3.76393 19.916L4.60793 17.405C4.82493 16.722 4.78996 16.023 4.51296 15.442C4.01596 14.372 3.75295 13.182 3.75295 11.998C3.75295 7.44999 7.453 3.74902 12.001 3.74902C16.55 3.74902 20.25 7.44899 20.25 11.998C20.25 16.547 16.55 20.248 12.001 20.248ZM15.6851 8.54797C13.9251 8.10097 13.1031 7.71797 12.3491 7.33197C12.1361 7.22397 11.884 7.22202 11.669 7.33002C10.907 7.71402 10.076 8.101 8.29299 8.612C7.97199 8.704 7.75002 8.99801 7.75002 9.33301V11.555C7.75002 14.355 9.82103 16.054 11.76 16.71C11.838 16.736 11.919 16.75 12 16.75C12.081 16.75 12.162 16.737 12.24 16.71C14.178 16.054 16.25 14.355 16.25 11.555V9.27502C16.25 8.93202 16.0181 8.63297 15.6851 8.54797ZM14.75 11.556C14.75 13.852 12.792 14.879 12 15.2C11.208 14.879 9.25002 13.852 9.25002 11.556V9.89398C10.459 9.52598 11.2379 9.20901 12.0049 8.83801C12.7599 9.20501 13.554 9.52203 14.75 9.85303V11.556Z" />
</svg>
