<svg viewBox="0 0 24 24" fill="currentColor" stroke="currentColor" xmlns="http://www.w3.org/2000/svg">
<path d="M13.198 15.1001C12.626 14.3381 11.374 14.3381 10.802 15.1001L7.80505 19.0869C7.45905 19.5469 7.40401 20.1529 7.66101 20.6689C7.91701 21.1819 8.43203 21.501 9.00403 21.501H14.996C15.568 21.501 16.083 21.1819 16.339 20.6689C16.597 20.1529 16.5409 19.5469 16.1949 19.0869L13.198 15.1001ZM15.444 20.2219C15.357 20.3959 15.189 20.5 14.996 20.5H9.00403C8.81103 20.5 8.64303 20.3959 8.55603 20.2219C8.46803 20.0449 8.486 19.845 8.604 19.687L11.601 15.7C11.697 15.573 11.842 15.5 12 15.5C12.158 15.5 12.304 15.573 12.399 15.7L15.396 19.687C15.515 19.845 15.532 20.0439 15.444 20.2219ZM14.432 12.614C14.478 12.401 14.5 12.199 14.5 12C14.5 10.622 13.379 9.5 12 9.5C10.621 9.5 9.5 10.622 9.5 12C9.5 12.2 9.52199 12.401 9.56799 12.614C9.62699 12.884 9.45606 13.15 9.18506 13.209C8.91306 13.269 8.64994 13.0949 8.59094 12.8259C8.52894 12.5459 8.49902 12.268 8.49902 12C8.49902 10.07 10.069 8.5 11.999 8.5C13.929 8.5 15.499 10.07 15.499 12C15.499 12.268 15.469 12.5459 15.407 12.8259C15.356 13.0599 15.1489 13.22 14.9189 13.22C14.8849 13.22 14.849 13.217 14.814 13.209C14.544 13.15 14.373 12.884 14.432 12.614ZM18.5 12C18.5 13.336 18.1031 14.6171 17.3521 15.7041C17.2551 15.8451 17.099 15.9199 16.941 15.9199C16.842 15.9199 16.744 15.891 16.657 15.832C16.429 15.675 16.373 15.363 16.53 15.136C17.165 14.217 17.501 13.132 17.501 12C17.501 8.967 15.033 6.5 12.001 6.5C8.96898 6.5 6.50098 8.967 6.50098 12C6.50098 13.132 6.83705 14.216 7.47205 15.136C7.62905 15.363 7.57297 15.675 7.34497 15.832C7.11797 15.987 6.80602 15.9331 6.65002 15.7051C5.89902 14.6181 5.50195 13.337 5.50195 12.001C5.50195 8.41698 8.41795 5.50098 12.002 5.50098C15.586 5.50098 18.5 8.416 18.5 12ZM21.5 12C21.5 14.287 20.675 16.492 19.177 18.208C19.078 18.321 18.94 18.3789 18.8 18.3789C18.683 18.3789 18.5659 18.3379 18.4709 18.2549C18.2629 18.0739 18.242 17.758 18.423 17.55C19.763 16.015 20.5 14.044 20.5 11.999C20.5 7.31202 16.687 3.49902 12 3.49902C7.313 3.49902 3.5 7.31202 3.5 11.999C3.5 14.044 4.23703 16.016 5.57703 17.55C5.75903 17.758 5.73705 18.0739 5.52905 18.2549C5.32105 18.4369 5.004 18.415 4.823 18.207C3.325 16.49 2.5 14.286 2.5 11.999C2.5 6.76102 6.762 2.49902 12 2.49902C17.238 2.49902 21.5 6.762 21.5 12Z" />
</svg>
