<svg viewBox="0 0 24 24" fill="currentColor" stroke="currentColor" xmlns="http://www.w3.org/2000/svg">
<path d="M21.5 7V15C21.5 17.29 20.29 18.5 18 18.5C17.724 18.5 17.5 18.276 17.5 18C17.5 17.724 17.724 17.5 18 17.5C19.729 17.5 20.5 16.729 20.5 15V7C20.5 5.271 19.729 4.5 18 4.5H6C4.271 4.5 3.5 5.271 3.5 7V15C3.5 16.729 4.271 17.5 6 17.5C6.276 17.5 6.5 17.724 6.5 18C6.5 18.276 6.276 18.5 6 18.5C3.71 18.5 2.5 17.29 2.5 15V7C2.5 4.71 3.71 3.5 6 3.5H18C20.29 3.5 21.5 4.71 21.5 7ZM16.1949 19.0859C16.5409 19.5459 16.596 20.152 16.339 20.668C16.083 21.181 15.568 21.5 14.996 21.5H9.00403C8.43203 21.5 7.91701 21.181 7.66101 20.668C7.40301 20.152 7.45905 19.5459 7.80505 19.0859L10.802 15.0991C11.374 14.3371 12.626 14.3371 13.198 15.0991L16.1949 19.0859ZM15.396 19.687L12.399 15.7C12.303 15.573 12.158 15.5 12 15.5C11.842 15.5 11.696 15.573 11.601 15.7L8.604 19.687C8.486 19.845 8.46803 20.0439 8.55603 20.2219C8.64303 20.3959 8.81103 20.5 9.00403 20.5H14.996C15.189 20.5 15.357 20.3959 15.444 20.2219C15.532 20.0439 15.515 19.845 15.396 19.687Z" />
</svg>
