<svg viewBox="0 0 24 24" fill="currentColor" stroke="currentColor" xmlns="http://www.w3.org/2000/svg">
<path d="M20.116 5.7471C19.269 5.3371 18.286 5.4451 17.547 6.0281L12.5 10.013V7.96292C12.5 7.00892 11.97 6.1601 11.116 5.7471C10.269 5.3371 9.285 5.4451 8.547 6.0281L3.43604 10.064C2.84104 10.533 2.5 11.238 2.5 11.999C2.5 12.76 2.84104 13.4641 3.43604 13.9341L8.547 17.971C8.988 18.32 9.51798 18.4981 10.053 18.4981C10.413 18.4981 10.776 18.417 11.116 18.252C11.97 17.838 12.5 16.9889 12.5 16.0359V13.9851L17.547 17.971C17.988 18.32 18.518 18.4981 19.053 18.4981C19.413 18.4981 19.776 18.417 20.116 18.252C20.97 17.838 21.5 16.9889 21.5 16.0359V7.96292C21.5 7.00992 20.97 6.1611 20.116 5.7471ZM11.5 16.0371C11.5 16.6131 11.1931 17.1041 10.6801 17.3531C10.1741 17.5991 9.60902 17.5361 9.16602 17.1861L4.05505 13.149C3.70205 12.87 3.5 12.451 3.5 11.999C3.5 11.547 3.70205 11.1271 4.05505 10.8491L9.16602 6.81301C9.60802 6.46401 10.1741 6.40102 10.6801 6.64602C11.1941 6.89502 11.5 7.38694 11.5 7.96194V16.0371ZM20.5 16.0371C20.5 16.6131 20.1931 17.1041 19.6801 17.3531C19.1751 17.5991 18.609 17.5361 18.166 17.1861L13.0551 13.149C12.7021 12.87 12.5 12.451 12.5 11.999C12.5 11.547 12.7021 11.1271 13.0551 10.8491L18.166 6.81301C18.608 6.46401 19.1751 6.40102 19.6801 6.64602C20.1941 6.89502 20.5 7.38694 20.5 7.96194V16.0371Z" />
</svg>
