<svg viewBox="0 0 24 24" fill="currentColor" stroke="currentColor" xmlns="http://www.w3.org/2000/svg">
<path d="M5.81006 17.1899C6.53106 17.9109 6.98402 18.8161 7.11902 19.8101C7.15702 20.0831 6.96504 20.335 6.69104 20.373C6.66904 20.376 6.64505 20.377 6.62305 20.377C6.37705 20.377 6.16303 20.1951 6.12903 19.9441C6.02303 19.1701 5.668 18.462 5.104 17.897C4.54 17.333 3.83203 16.979 3.05603 16.873C2.78303 16.835 2.59103 16.5831 2.62903 16.3101C2.66603 16.0361 2.92502 15.8451 3.19202 15.8821C4.18502 16.0181 5.09006 16.4699 5.81006 17.1899ZM3.03699 12.501C2.76299 12.477 2.52198 12.6859 2.50098 12.9619C2.47998 13.2369 2.68801 13.478 2.96301 13.498C4.64901 13.625 6.23902 14.3571 7.44202 15.5591C8.64302 16.7611 9.37495 18.3511 9.50195 20.0381C9.52295 20.3011 9.741 20.5 10 20.5C10.013 20.5 10.025 20.5 10.038 20.499C10.313 20.478 10.52 20.2379 10.5 19.9629C10.354 18.0389 9.52005 16.224 8.14905 14.853C6.77705 13.481 4.96199 12.646 3.03699 12.501ZM18 4.5H6C3.71 4.5 2.5 5.71 2.5 8V9C2.5 9.276 2.724 9.5 3 9.5C3.276 9.5 3.5 9.276 3.5 9V8C3.5 6.271 4.271 5.5 6 5.5H18C19.729 5.5 20.5 6.271 20.5 8V17C20.5 18.729 19.729 19.5 18 19.5H14C13.724 19.5 13.5 19.724 13.5 20C13.5 20.276 13.724 20.5 14 20.5H18C20.29 20.5 21.5 19.29 21.5 17V8C21.5 5.71 20.29 4.5 18 4.5ZM3.14001 19.1201C2.72601 19.1201 2.39001 19.4561 2.39001 19.8701C2.39001 20.2841 2.72601 20.6201 3.14001 20.6201C3.55401 20.6201 3.89001 20.2841 3.89001 19.8701C3.89001 19.4561 3.55401 19.1201 3.14001 19.1201Z" />
</svg>
