<svg viewBox="0 0 24 24" fill="currentColor" stroke="currentColor" xmlns="http://www.w3.org/2000/svg">
<path d="M18 3.5H6C3.71 3.5 2.5 4.71 2.5 7V17C2.5 19.29 3.71 20.5 6 20.5H18C20.29 20.5 21.5 19.29 21.5 17V7C21.5 4.71 20.29 3.5 18 3.5ZM20.5 17C20.5 18.729 19.729 19.5 18 19.5H6C4.271 19.5 3.5 18.729 3.5 17V7C3.5 5.271 4.271 4.5 6 4.5H18C19.729 4.5 20.5 5.271 20.5 7V17ZM14 11.25V12.75C14 13.439 14.561 14 15.25 14C15.939 14 16.5 13.439 16.5 12.75H17.5C17.5 13.991 16.49 15 15.25 15C14.01 15 13 13.991 13 12.75V11.25C13 10.009 14.01 9 15.25 9C16.49 9 17.5 10.009 17.5 11.25H16.5C16.5 10.561 15.939 10 15.25 10C14.561 10 14 10.561 14 11.25ZM7.5 11.25V12.75C7.5 13.439 8.061 14 8.75 14C9.439 14 10 13.439 10 12.75H11C11 13.991 9.99 15 8.75 15C7.51 15 6.5 13.991 6.5 12.75V11.25C6.5 10.009 7.51 9 8.75 9C9.99 9 11 10.009 11 11.25H10C10 10.561 9.439 10 8.75 10C8.061 10 7.5 10.561 7.5 11.25Z" />
</svg>
