<svg viewBox="0 0 24 24" fill="currentColor" stroke="currentColor" xmlns="http://www.w3.org/2000/svg">
<path d="M15.5 6.5V3C15.5 2.724 15.724 2.5 16 2.5C16.276 2.5 16.5 2.724 16.5 3V6.5C16.5 7.22 16.78 7.5 17.5 7.5H21C21.276 7.5 21.5 7.724 21.5 8C21.5 8.276 21.276 8.5 21 8.5H17.5C16.229 8.5 15.5 7.771 15.5 6.5ZM8 2.5C7.724 2.5 7.5 2.724 7.5 3V6.5C7.5 7.22 7.22 7.5 6.5 7.5H3C2.724 7.5 2.5 7.724 2.5 8C2.5 8.276 2.724 8.5 3 8.5H6.5C7.771 8.5 8.5 7.771 8.5 6.5V3C8.5 2.724 8.276 2.5 8 2.5ZM6.5 15.5H3C2.724 15.5 2.5 15.724 2.5 16C2.5 16.276 2.724 16.5 3 16.5H6.5C7.22 16.5 7.5 16.78 7.5 17.5V21C7.5 21.276 7.724 21.5 8 21.5C8.276 21.5 8.5 21.276 8.5 21V17.5C8.5 16.229 7.771 15.5 6.5 15.5ZM21 15.5H17.5C16.229 15.5 15.5 16.229 15.5 17.5V21C15.5 21.276 15.724 21.5 16 21.5C16.276 21.5 16.5 21.276 16.5 21V17.5C16.5 16.78 16.78 16.5 17.5 16.5H21C21.276 16.5 21.5 16.276 21.5 16C21.5 15.724 21.276 15.5 21 15.5Z" />
</svg>
