<svg viewBox="0 0 24 24" fill="currentColor" stroke="currentColor" xmlns="http://www.w3.org/2000/svg">
<path d="M6.00305 14.4999H17.9969C18.9829 14.4999 19.852 13.9409 20.266 13.0409C20.683 12.1349 20.5369 11.1028 19.8879 10.3478L13.892 3.37102C12.942 2.26302 11.058 2.26502 10.11 3.37102L4.11304 10.3478C3.46404 11.1028 3.31799 12.1359 3.73499 13.0419C4.14699 13.9409 5.01705 14.4999 6.00305 14.4999ZM4.87 10.999L10.8669 4.0219C11.1519 3.6899 11.565 3.5009 12.001 3.5009C12.436 3.5009 12.849 3.6909 13.134 4.0219L19.13 10.9999C19.527 11.4619 19.612 12.0689 19.358 12.6249C19.106 13.1739 18.597 13.5009 17.998 13.5009H6.00403C5.40403 13.5009 4.89604 13.1729 4.64404 12.6249C4.38804 12.0679 4.473 11.461 4.87 10.999ZM18.8 16.4999H5.19995C4.11995 16.4999 3.5 17.1199 3.5 18.1999V19.8C3.5 20.881 4.11995 21.4999 5.19995 21.4999H18.8C19.88 21.4999 20.5 20.88 20.5 19.8V18.1999C20.5 17.1199 19.88 16.4999 18.8 16.4999ZM19.5 19.8C19.5 20.323 19.323 20.4999 18.8 20.4999H5.19995C4.67695 20.4999 4.5 20.323 4.5 19.8V18.1999C4.5 17.6769 4.67695 17.4999 5.19995 17.4999H18.8C19.323 17.4999 19.5 17.6769 19.5 18.1999V19.8Z" />
</svg>
