<svg viewBox="0 0 24 24" fill="currentColor" stroke="currentColor" xmlns="http://www.w3.org/2000/svg">
<path d="M20.116 5.74707C19.268 5.33707 18.285 5.44508 17.547 6.02808L12.5 10.0129V7.96289C12.5 7.00889 11.97 6.16007 11.116 5.74707C10.268 5.33707 9.285 5.44508 8.547 6.02808L3.5 10.0129V6C3.5 5.724 3.276 5.5 3 5.5C2.724 5.5 2.5 5.724 2.5 6V18C2.5 18.276 2.724 18.5 3 18.5C3.276 18.5 3.5 18.276 3.5 18V13.9851L8.547 17.9709C8.988 18.3199 9.51798 18.498 10.053 18.498C10.413 18.498 10.776 18.417 11.116 18.252C11.97 17.838 12.5 16.9889 12.5 16.0359V13.9851L17.547 17.9709C17.988 18.3199 18.518 18.498 19.053 18.498C19.413 18.498 19.776 18.417 20.116 18.252C20.97 17.838 21.5 16.9889 21.5 16.0359V7.96289C21.5 7.00989 20.97 6.16107 20.116 5.74707ZM11.5 16.0371C11.5 16.6131 11.1931 17.104 10.6801 17.353C10.1751 17.599 9.60902 17.536 9.16602 17.186L4.05505 13.1489C3.70205 12.8699 3.5 12.451 3.5 11.999C3.5 11.547 3.70205 11.1271 4.05505 10.8491L9.16602 6.81299C9.60802 6.46399 10.1751 6.401 10.6801 6.646C11.1941 6.895 11.5 7.38691 11.5 7.96191V16.0371ZM20.5 16.0371C20.5 16.6131 20.1931 17.104 19.6801 17.353C19.1751 17.599 18.609 17.536 18.166 17.186L13.0551 13.1489C12.7021 12.8699 12.5 12.451 12.5 11.999C12.5 11.547 12.7021 11.1271 13.0551 10.8491L18.166 6.81299C18.608 6.46399 19.1751 6.401 19.6801 6.646C20.1941 6.895 20.5 7.38691 20.5 7.96191V16.0371Z" />
</svg>
