<svg viewBox="0 0 24 24" fill="currentColor" stroke="currentColor" xmlns="http://www.w3.org/2000/svg">
<path d="M21 5.5C20.724 5.5 20.5 5.724 20.5 6V10.0139L15.453 6.02905C14.715 5.44605 13.731 5.33805 12.884 5.74805C12.03 6.16205 11.5 7.01111 11.5 7.96411V10.0139L6.453 6.02905C5.715 5.44605 4.73003 5.33805 3.88403 5.74805C3.03003 6.16205 2.5 7.01111 2.5 7.96411V16.0371C2.5 16.9911 3.03003 17.8399 3.88403 18.2529C4.22503 18.4179 4.58702 18.499 4.94702 18.499C5.48202 18.499 6.011 18.3199 6.453 17.9719L11.5 13.9851V16.0371C11.5 16.9911 12.03 17.8399 12.884 18.2529C13.225 18.4179 13.587 18.499 13.947 18.499C14.482 18.499 15.011 18.3199 15.453 17.9719L20.5 13.9851V18C20.5 18.276 20.724 18.5 21 18.5C21.276 18.5 21.5 18.276 21.5 18V6C21.5 5.724 21.276 5.5 21 5.5ZM10.9449 13.1489L5.83398 17.186C5.39098 17.535 4.82595 17.598 4.31995 17.353C3.80595 17.104 3.5 16.6121 3.5 16.0371V7.96411C3.5 7.38811 3.80695 6.89695 4.31995 6.64795C4.52395 6.54895 4.73795 6.5 4.94995 6.5C5.26195 6.5 5.56998 6.60596 5.83398 6.81396L10.9449 10.8501C11.2979 11.1291 11.5 11.548 11.5 12C11.5 12.452 11.2979 12.8709 10.9449 13.1489ZM19.9449 13.1489L14.834 17.186C14.392 17.535 13.8249 17.598 13.3199 17.353C12.8059 17.104 12.5 16.6121 12.5 16.0371V7.96411C12.5 7.38811 12.8069 6.89695 13.3199 6.64795C13.5239 6.54895 13.738 6.5 13.95 6.5C14.262 6.5 14.57 6.60596 14.834 6.81396L19.9449 10.8501C20.2979 11.1291 20.5 11.548 20.5 12C20.5 12.452 20.2979 12.8709 19.9449 13.1489Z" />
</svg>
