<svg viewBox="0 0 24 24" fill="currentColor" stroke="currentColor" xmlns="http://www.w3.org/2000/svg">
<path d="M17.625 2.5H6.375C3.84 2.5 2.5 3.84 2.5 6.375V17.625C2.5 20.16 3.84 21.5 6.375 21.5H17.625C20.16 21.5 21.5 20.16 21.5 17.625V6.375C21.5 3.84 20.16 2.5 17.625 2.5ZM16.5 8.5H20.5V11.5H16.5V8.5ZM15.5 11.5H8.5V3.5H15.5V11.5ZM7.5 11.5H3.5V8.5H7.5V11.5ZM3.5 12.5H7.5V15.5H3.5V12.5ZM8.5 12.5H15.5V20.5H8.5V12.5ZM16.5 12.5H20.5V15.5H16.5V12.5ZM20.5 6.375V7.5H16.5V3.5H17.625C19.587 3.5 20.5 4.414 20.5 6.375ZM6.375 3.5H7.5V7.5H3.5V6.375C3.5 4.414 4.413 3.5 6.375 3.5ZM3.5 17.625V16.5H7.5V20.5H6.375C4.413 20.5 3.5 19.586 3.5 17.625ZM17.625 20.5H16.5V16.5H20.5V17.625C20.5 19.586 19.587 20.5 17.625 20.5Z" />
</svg>
