<svg viewBox="0 0 24 24" fill="currentColor" stroke="currentColor" xmlns="http://www.w3.org/2000/svg">
<path d="M20.564 10.065C20.564 10.064 20.564 10.064 20.564 10.065L15.453 6.0281C14.715 5.4451 13.731 5.3371 12.884 5.7471C12.03 6.1611 11.5 7.00992 11.5 7.96292V10.013L6.453 6.0281C5.715 5.4451 4.73103 5.3371 3.88403 5.7471C3.03003 6.1611 2.5 7.00992 2.5 7.96292V16.0359C2.5 16.9899 3.03003 17.839 3.88403 18.252C4.22503 18.417 4.58702 18.4981 4.94702 18.4981C5.48202 18.4981 6.011 18.319 6.453 17.971L11.5 13.9839V16.0359C11.5 16.9899 12.03 17.839 12.884 18.252C13.225 18.417 13.587 18.4981 13.947 18.4981C14.482 18.4981 15.011 18.319 15.453 17.971L20.564 13.9331C21.159 13.4641 21.5 12.7591 21.5 11.9981C21.5 11.2371 21.159 10.534 20.564 10.065ZM10.9449 13.149L5.83398 17.1861C5.39098 17.5351 4.82595 17.5981 4.31995 17.3531C3.80595 17.1041 3.5 16.6121 3.5 16.0371V7.96414C3.5 7.38814 3.80695 6.89697 4.31995 6.64797C4.52395 6.54897 4.73795 6.50003 4.94995 6.50003C5.26195 6.50003 5.56998 6.60599 5.83398 6.81399L10.9449 10.8501C11.2979 11.1291 11.5 11.548 11.5 12C11.5 12.452 11.2979 12.871 10.9449 13.149ZM19.9449 13.149L14.834 17.1861C14.392 17.5351 13.8249 17.5981 13.3199 17.3531C12.8059 17.1041 12.5 16.6121 12.5 16.0371V7.96414C12.5 7.38814 12.8069 6.89697 13.3199 6.64797C13.5239 6.54897 13.738 6.50003 13.95 6.50003C14.262 6.50003 14.57 6.60599 14.834 6.81399L19.9449 10.8501C20.2979 11.1291 20.5 11.548 20.5 12C20.5 12.452 20.2979 12.871 19.9449 13.149Z" />
</svg>
