<svg viewBox="0 0 24 24" fill="currentColor" stroke="currentColor" xmlns="http://www.w3.org/2000/svg">
<path d="M21 10.5C20.724 10.5 20.5 10.724 20.5 11V13.793L16.063 9.35597C15.499 8.78997 14.501 8.78997 13.936 9.35597L9.00305 14.2959L8.06299 13.356C7.49899 12.79 6.50104 12.79 5.93604 13.356L3.49902 15.792V7.00001C3.49902 5.27101 4.27002 4.50001 5.99902 4.50001H12.999C13.275 4.50001 13.499 4.27601 13.499 4.00001C13.499 3.72401 13.275 3.50001 12.999 3.50001H5.99902C3.70902 3.50001 2.49902 4.71001 2.49902 7.00001V17C2.49902 19.29 3.70902 20.5 5.99902 20.5H17.999C20.289 20.5 21.499 19.29 21.499 17V11C21.5 10.724 21.276 10.5 21 10.5ZM18 19.5H6C4.341 19.5 3.57196 18.7801 3.51196 17.1951L6.64404 14.064C6.83304 13.876 7.16706 13.876 7.35706 14.064L8.29602 15.0029C8.66902 15.3759 9.332 15.3759 9.703 15.0029L14.6429 10.063C14.8319 9.875 15.166 9.875 15.356 10.063L20.5 15.207V17C20.5 18.729 19.729 19.5 18 19.5ZM8 8.00001C8.552 8.00001 9 8.44801 9 9.00001C9 9.55201 8.552 10 8 10C7.448 10 7 9.55201 7 9.00001C7 8.44801 7.448 8.00001 8 8.00001ZM16.646 5.68702C16.451 5.49202 16.451 5.17499 16.646 4.97999C16.841 4.78499 17.158 4.78499 17.353 4.97999L18.332 5.95899L20.645 3.64601C20.84 3.45101 21.1571 3.45101 21.3521 3.64601C21.5471 3.84101 21.5471 4.15804 21.3521 4.35304L18.6851 7.02003C18.5871 7.11803 18.4591 7.16603 18.3311 7.16603C18.2031 7.16603 18.0751 7.11703 17.9771 7.02003L16.646 5.68702Z" />
</svg>
