<svg viewBox="0 0 24 24" fill="currentColor" stroke="currentColor" xmlns="http://www.w3.org/2000/svg">
<path d="M21 10.4999C20.724 10.4999 20.5 10.7239 20.5 10.9999V13.7929L16.063 9.35588C15.499 8.78988 14.501 8.78988 13.936 9.35588L9.00305 14.2958L8.06299 13.3559C7.49899 12.7899 6.50104 12.7899 5.93604 13.3559L3.49902 15.7919V6.99992C3.49902 5.27092 4.27002 4.49992 5.99902 4.49992H13.999C14.275 4.49992 14.499 4.27592 14.499 3.99992C14.499 3.72392 14.275 3.49992 13.999 3.49992H5.99902C3.70902 3.49992 2.49902 4.70992 2.49902 6.99992V16.9999C2.49902 19.2899 3.70902 20.4999 5.99902 20.4999H17.999C20.289 20.4999 21.499 19.2899 21.499 16.9999V10.9999C21.5 10.7239 21.276 10.4999 21 10.4999ZM18 19.4999H6C4.341 19.4999 3.57196 18.78 3.51196 17.195L6.64404 14.0639C6.83304 13.8759 7.16706 13.8759 7.35706 14.0639L8.29602 15.0028C8.66902 15.3758 9.332 15.3758 9.703 15.0028L14.6429 10.0629C14.8319 9.87491 15.166 9.87491 15.356 10.0629L20.5 15.207V16.9999C20.5 18.7289 19.729 19.4999 18 19.4999ZM17.646 4.85392C17.451 4.65892 17.451 4.34189 17.646 4.14689L19.145 2.64689C19.191 2.60089 19.247 2.56398 19.308 2.53898C19.43 2.48798 19.5679 2.48798 19.6899 2.53898C19.7519 2.56398 19.807 2.60089 19.853 2.64689L21.3521 4.14689C21.5471 4.34189 21.5471 4.65892 21.3521 4.85392C21.2541 4.95192 21.126 4.99992 20.998 4.99992C20.87 4.99992 20.742 4.95092 20.644 4.85392L19.998 4.20793V6.99992C19.998 7.27592 19.774 7.49992 19.498 7.49992C19.222 7.49992 18.998 7.27592 18.998 6.99992V4.20695L18.3521 4.85295C18.1581 5.04895 17.842 5.04892 17.646 4.85392ZM8 7.99992C8.552 7.99992 9 8.44792 9 8.99992C9 9.55192 8.552 9.99992 8 9.99992C7.448 9.99992 7 9.55192 7 8.99992C7 8.44792 7.448 7.99992 8 7.99992Z" />
</svg>
