<svg viewBox="0 0 24 24" fill="currentColor" stroke="currentColor" xmlns="http://www.w3.org/2000/svg">
<path d="M21.975 5.16609C21.517 4.55809 20.769 4.17603 19.752 4.03303L9.19104 2.55305C8.17504 2.41005 7.35602 2.56895 6.74902 3.02595C6.14102 3.48395 5.75899 4.23212 5.61499 5.24812L5.43701 6.49812H4.66699C2.62499 6.49812 1.5 7.62311 1.5 9.66511V18.3331C1.5 20.3751 2.62499 21.5001 4.66699 21.5001H15.335C17.168 21.5001 18.254 20.589 18.46 18.928C20.031 18.89 20.994 17.9561 21.248 16.1881L22.448 7.607C22.592 6.595 22.433 5.77309 21.975 5.16609ZM4.66699 7.49812H15.335C16.834 7.49812 17.5031 8.16611 17.5031 9.66511V15.348L13.653 11.4981C13.109 10.9541 12.225 10.9561 11.683 11.4981L7.37598 15.89L6.54004 15.054C6.01804 14.531 5.09495 14.529 4.56995 15.054L2.49902 17.126V9.66511C2.50002 8.16611 3.16799 7.49812 4.66699 7.49812ZM15.335 20.5001H4.66699C3.23799 20.5001 2.57196 19.8841 2.51196 18.5281L5.27905 15.7611C5.42705 15.6141 5.68996 15.6161 5.83496 15.7611L6.67102 16.597C7.02402 16.951 7.65 16.949 8 16.597L12.392 12.2051C12.542 12.0541 12.797 12.0551 12.948 12.2051L17.505 16.762V18.3331C17.503 19.8321 16.834 20.5001 15.335 20.5001ZM21.458 7.46809L20.2581 16.0482C20.0811 17.2872 19.5311 17.8852 18.5031 17.9332V9.66511C18.5031 7.62311 17.378 6.49812 15.335 6.49812H6.44702L6.60498 5.38801C6.70998 4.64401 6.95998 4.11702 7.34998 3.82502C7.73698 3.53202 8.31003 3.43604 9.05103 3.54304L19.6121 5.02302C20.3571 5.12802 20.883 5.37814 21.175 5.76814C21.469 6.15514 21.563 6.72709 21.458 7.46809ZM5.5 11.5001C5.5 10.9471 5.93499 10.5001 6.48499 10.5001H6.505C7.05501 10.5001 7.5 10.9471 7.5 11.5001C7.5 12.0531 7.05501 12.5001 6.505 12.5001C5.95701 12.5001 5.5 12.0531 5.5 11.5001Z" />
</svg>
