<svg viewBox="0 0 24 24" fill="currentColor" stroke="currentColor" xmlns="http://www.w3.org/2000/svg">
<path d="M21 10.5C20.724 10.5 20.5 10.724 20.5 11V13.793L16.063 9.35596C15.499 8.78996 14.501 8.78996 13.936 9.35596L9.00305 14.2959L8.06299 13.356C7.49899 12.79 6.50104 12.79 5.93604 13.356L3.49902 15.792V7C3.49902 5.271 4.27002 4.5 5.99902 4.5H13.999C14.275 4.5 14.499 4.276 14.499 4C14.499 3.724 14.275 3.5 13.999 3.5H5.99902C3.70902 3.5 2.49902 4.71 2.49902 7V17C2.49902 19.29 3.70902 20.5 5.99902 20.5H17.999C20.289 20.5 21.499 19.29 21.499 17V11C21.5 10.724 21.276 10.5 21 10.5ZM18 19.5H6C4.341 19.5 3.57196 18.7801 3.51196 17.1951L6.64404 14.064C6.83304 13.876 7.16706 13.876 7.35706 14.064L8.29602 15.0029C8.66902 15.3759 9.332 15.3759 9.703 15.0029L14.6429 10.063C14.8319 9.87499 15.166 9.87499 15.356 10.063L20.5 15.207V17C20.5 18.729 19.729 19.5 18 19.5ZM8 8C8.552 8 9 8.448 9 9C9 9.552 8.552 10 8 10C7.448 10 7 9.552 7 9C7 8.448 7.448 8 8 8ZM21.354 6.646C21.549 6.841 21.549 7.15803 21.354 7.35303C21.256 7.45103 21.128 7.49902 21 7.49902C20.872 7.49902 20.744 7.45003 20.646 7.35303L19.5 6.20703L18.354 7.35303C18.256 7.45103 18.128 7.49902 18 7.49902C17.872 7.49902 17.744 7.45003 17.646 7.35303C17.451 7.15803 17.451 6.841 17.646 6.646L18.792 5.5L17.646 4.354C17.451 4.159 17.451 3.84197 17.646 3.64697C17.841 3.45197 18.158 3.45197 18.353 3.64697L19.499 4.79297L20.645 3.64697C20.84 3.45197 21.1571 3.45197 21.3521 3.64697C21.5471 3.84197 21.5471 4.159 21.3521 4.354L20.2061 5.5L21.354 6.646Z" />
</svg>
