<svg viewBox="0 0 24 24" fill="currentColor" stroke="currentColor" xmlns="http://www.w3.org/2000/svg">
<path d="M21.975 5.16609C21.517 4.55809 20.769 4.17603 19.752 4.03303L9.19104 2.55305C8.17504 2.41005 7.35602 2.56895 6.74902 3.02595C6.14102 3.48395 5.75899 4.23212 5.61499 5.24812L5.43701 6.49812H4.66699C2.62499 6.49812 1.5 7.62311 1.5 9.66511V18.3331C1.5 20.3751 2.62499 21.5001 4.66699 21.5001H15.335C17.168 21.5001 18.254 20.589 18.46 18.928C20.031 18.89 20.994 17.9561 21.248 16.1881L22.448 7.607C22.592 6.595 22.433 5.77309 21.975 5.16609ZM17.5031 18.3331C17.5031 19.8321 16.834 20.5001 15.335 20.5001H4.66699C3.16799 20.5001 2.5 19.8321 2.5 18.3331V9.66511C2.5 8.16611 3.16799 7.49812 4.66699 7.49812H15.335C16.834 7.49812 17.5031 8.16611 17.5031 9.66511V18.3331ZM21.458 7.46809L20.2581 16.0482C20.0801 17.2882 19.5371 17.8862 18.5031 17.9332V9.66511C18.5031 7.62311 17.378 6.49812 15.335 6.49812H6.44702L6.60498 5.38801C6.70998 4.64401 6.95998 4.11702 7.34998 3.82502C7.73698 3.53202 8.30903 3.43604 9.05103 3.54304L19.6121 5.02302C20.3571 5.12802 20.883 5.37814 21.175 5.76814C21.469 6.15514 21.563 6.72709 21.458 7.46809ZM13 14.0001C13 14.2761 12.776 14.5001 12.5 14.5001H10.5V16.5001C10.5 16.7761 10.276 17.0001 10 17.0001C9.724 17.0001 9.5 16.7761 9.5 16.5001V14.5001H7.5C7.224 14.5001 7 14.2761 7 14.0001C7 13.7241 7.224 13.5001 7.5 13.5001H9.5V11.5001C9.5 11.2241 9.724 11.0001 10 11.0001C10.276 11.0001 10.5 11.2241 10.5 11.5001V13.5001H12.5C12.776 13.5001 13 13.7241 13 14.0001Z" />
</svg>
