<svg viewBox="0 0 24 24" fill="currentColor" stroke="currentColor" xmlns="http://www.w3.org/2000/svg">
<path d="M21 10.5C20.724 10.5 20.5 10.724 20.5 11V13.793L16.063 9.35596C15.499 8.78996 14.501 8.78996 13.936 9.35596L9.00305 14.2959L8.06299 13.356C7.49899 12.79 6.50104 12.79 5.93604 13.356L3.49902 15.792V7C3.49902 5.271 4.27002 4.5 5.99902 4.5H13.999C14.275 4.5 14.499 4.276 14.499 4C14.499 3.724 14.275 3.5 13.999 3.5H5.99902C3.70902 3.5 2.49902 4.71 2.49902 7V17C2.49902 19.29 3.70902 20.5 5.99902 20.5H17.999C20.289 20.5 21.499 19.29 21.499 17V11C21.5 10.724 21.276 10.5 21 10.5ZM18 19.5H6C4.341 19.5 3.57196 18.7801 3.51196 17.1951L6.64404 14.064C6.83304 13.876 7.16706 13.876 7.35706 14.064L8.29602 15.0029C8.66902 15.3759 9.332 15.3759 9.703 15.0029L14.6429 10.063C14.8319 9.87499 15.166 9.87499 15.356 10.063L20.5 15.207V17C20.5 18.729 19.729 19.5 18 19.5ZM8 8C8.552 8 9 8.448 9 9C9 9.552 8.552 10 8 10C7.448 10 7 9.552 7 9C7 8.448 7.448 8 8 8ZM17.646 5.854C17.451 5.659 17.451 5.34197 17.646 5.14697C17.841 4.95197 18.158 4.95197 18.353 5.14697L18.999 5.79297V3C18.999 2.724 19.223 2.5 19.499 2.5C19.775 2.5 19.999 2.724 19.999 3V5.79297L20.645 5.14697C20.84 4.95197 21.1571 4.95197 21.3521 5.14697C21.5471 5.34197 21.5471 5.659 21.3521 5.854L19.853 7.354C19.807 7.4 19.7509 7.43691 19.6899 7.46191C19.6289 7.48691 19.564 7.50098 19.499 7.50098C19.434 7.50098 19.369 7.48791 19.308 7.46191C19.246 7.43691 19.191 7.4 19.145 7.354L17.646 5.854Z" />
</svg>
