<svg viewBox="0 0 24 24" fill="currentColor" stroke="currentColor" xmlns="http://www.w3.org/2000/svg">
<path d="M18.812 2.82779C18.352 2.47879 17.712 2.40683 16.96 2.61783L9.32397 4.75699C8.13097 5.09099 7.5 5.92184 7.5 7.15884V16.2809C6.968 15.8009 6.271 15.5009 5.5 15.5009C3.846 15.5009 2.5 16.8469 2.5 18.5009C2.5 20.1549 3.846 21.5009 5.5 21.5009C7.154 21.5009 8.5 20.1549 8.5 18.5009V11.4599L18.5 8.65982V13.2809C17.968 12.8009 17.271 12.5009 16.5 12.5009C14.846 12.5009 13.5 13.8469 13.5 15.5009C13.5 17.1549 14.846 18.5009 16.5 18.5009C18.149 18.5009 19.489 17.164 19.498 15.518C19.498 15.515 19.5 15.5129 19.5 15.5099V4.54092C19.5 3.74992 19.269 3.17379 18.812 2.82779ZM5.5 20.4999C4.397 20.4999 3.5 19.6029 3.5 18.4999C3.5 17.3969 4.397 16.4999 5.5 16.4999C6.603 16.4999 7.5 17.3969 7.5 18.4999C7.5 19.6029 6.603 20.4999 5.5 20.4999ZM8.5 10.4208V7.15786C8.5 6.37486 8.83699 5.9309 9.59399 5.7189L17.23 3.57998C17.482 3.50898 17.941 3.42193 18.208 3.62393C18.45 3.80793 18.501 4.22297 18.501 4.53897V7.621L8.5 10.4208ZM16.5 17.4999C15.397 17.4999 14.5 16.6029 14.5 15.4999C14.5 14.3969 15.397 13.4999 16.5 13.4999C17.603 13.4999 18.5 14.3969 18.5 15.4999C18.5 16.6029 17.603 17.4999 16.5 17.4999Z" />
</svg>
