<svg viewBox="0 0 24 24" fill="currentColor" stroke="currentColor" xmlns="http://www.w3.org/2000/svg">
<path d="M20.975 5.75102C20.624 5.48602 20.145 5.43 19.592 5.585L16.5 6.45292C15.715 6.68092 15.167 7.40801 15.167 8.22001V13.5249C14.671 13.0999 14.036 12.834 13.333 12.834C11.771 12.834 10.5 14.105 10.5 15.667C10.5 17.229 11.771 18.5 13.333 18.5C14.895 18.5 16.167 17.229 16.167 15.667V12C16.167 11.559 16.425 11.1631 16.774 11.0621L20.4 10.0491C21.078 9.86111 21.5 9.34113 21.5 8.69413V7.02714C21.5 6.44514 21.323 6.01602 20.975 5.75102ZM13.333 17.5C12.322 17.5 11.5 16.678 11.5 15.667C11.5 14.656 12.322 13.834 13.333 13.834C14.345 13.834 15.167 14.656 15.167 15.667C15.167 16.678 14.345 17.5 13.333 17.5ZM20.5 8.69316C20.5 8.76516 20.5 8.983 20.132 9.085L16.5 10.1001C16.384 10.1341 16.272 10.1801 16.167 10.2371V8.22001C16.167 7.84401 16.413 7.52008 16.774 7.41508L19.8621 6.54814C19.9751 6.51614 20.0809 6.50004 20.1689 6.50004C20.2569 6.50004 20.328 6.51711 20.37 6.54911C20.453 6.61111 20.5 6.78514 20.5 7.02714V8.69316ZM2.5 7.00004C2.5 6.72404 2.724 6.50004 3 6.50004H12C12.276 6.50004 12.5 6.72404 12.5 7.00004C12.5 7.27604 12.276 7.50004 12 7.50004H3C2.724 7.50004 2.5 7.27604 2.5 7.00004ZM10.5 12C10.5 12.276 10.276 12.5 10 12.5H3C2.724 12.5 2.5 12.276 2.5 12C2.5 11.724 2.724 11.5 3 11.5H10C10.276 11.5 10.5 11.724 10.5 12ZM7.5 17C7.5 17.276 7.276 17.5 7 17.5H3C2.724 17.5 2.5 17.276 2.5 17C2.5 16.724 2.724 16.5 3 16.5H7C7.276 16.5 7.5 16.724 7.5 17Z" />
</svg>
