<svg viewBox="0 0 24 24" fill="currentColor" stroke="currentColor" xmlns="http://www.w3.org/2000/svg">
<path d="M19.811 2.82687C19.351 2.47887 18.7071 2.40686 17.9561 2.61886L13.321 3.92086C12.25 4.23286 11.501 5.22302 11.501 6.33102V14.883C10.767 14.043 9.70098 13.5009 8.50098 13.5009C6.29498 13.5009 4.50098 15.2949 4.50098 17.5009C4.50098 19.7069 6.29498 21.5009 8.50098 21.5009C10.707 21.5009 12.501 19.7069 12.501 17.5009V12.0009C12.501 11.2179 12.9529 10.54 13.5959 10.353L19.035 8.83297C19.953 8.57797 20.501 7.90798 20.501 7.04098V4.54098C20.5 3.74998 20.269 3.17287 19.811 2.82687ZM8.5 20.5C6.846 20.5 5.5 19.154 5.5 17.5C5.5 15.846 6.846 14.5 8.5 14.5C10.154 14.5 11.5 15.846 11.5 17.5C11.5 19.154 10.154 20.5 8.5 20.5ZM19.5 7.04001C19.5 7.55701 19.102 7.77486 18.766 7.86886L13.321 9.38986C13.018 9.47786 12.742 9.62599 12.501 9.82199V6.33004C12.501 5.65404 12.9419 5.07205 13.5959 4.88205L18.2271 3.582C18.3631 3.543 18.561 3.49997 18.755 3.49997C18.921 3.49997 19.085 3.53197 19.208 3.62497C19.45 3.80897 19.501 4.22498 19.501 4.54098V7.04001H19.5Z" />
</svg>
