<svg viewBox="0 0 24 24" fill="currentColor" stroke="currentColor" xmlns="http://www.w3.org/2000/svg">
<path d="M8.5 2.5H6.5C5.229 2.5 4.5 3.229 4.5 4.5V19.5C4.5 20.771 5.229 21.5 6.5 21.5H8.5C9.771 21.5 10.5 20.771 10.5 19.5V4.5C10.5 3.229 9.771 2.5 8.5 2.5ZM9.5 19.5C9.5 20.22 9.22 20.5 8.5 20.5H6.5C5.78 20.5 5.5 20.22 5.5 19.5V4.5C5.5 3.78 5.78 3.5 6.5 3.5H8.5C9.22 3.5 9.5 3.78 9.5 4.5V19.5ZM17.5 2.5H15.5C14.229 2.5 13.5 3.229 13.5 4.5V19.5C13.5 20.771 14.229 21.5 15.5 21.5H17.5C18.771 21.5 19.5 20.771 19.5 19.5V4.5C19.5 3.229 18.771 2.5 17.5 2.5ZM18.5 19.5C18.5 20.22 18.22 20.5 17.5 20.5H15.5C14.78 20.5 14.5 20.22 14.5 19.5V4.5C14.5 3.78 14.78 3.5 15.5 3.5H17.5C18.22 3.5 18.5 3.78 18.5 4.5V19.5Z" />
</svg>
