<svg viewBox="0 0 24 24" fill="currentColor" stroke="currentColor" xmlns="http://www.w3.org/2000/svg">
<path d="M12 1.5C6.21 1.5 1.5 6.21 1.5 12C1.5 17.79 6.21 22.5 12 22.5C17.79 22.5 22.5 17.79 22.5 12C22.5 6.21 17.79 1.5 12 1.5ZM12 21.5C6.762 21.5 2.5 17.238 2.5 12C2.5 6.762 6.762 2.5 12 2.5C17.238 2.5 21.5 6.762 21.5 12C21.5 17.238 17.238 21.5 12 21.5ZM10.068 7.5H8.93103C8.20203 7.5 7.74902 7.94699 7.74902 8.66699V15.334C7.74902 16.054 8.20203 16.501 8.93103 16.501H10.068C10.797 16.501 11.25 16.054 11.25 15.334V8.66699C11.25 7.94699 10.797 7.5 10.068 7.5ZM10.25 15.333C10.25 15.436 10.23 15.4731 10.231 15.4741C10.226 15.4761 10.185 15.499 10.068 15.499H8.93103C8.81603 15.499 8.77397 15.4771 8.77197 15.4771C8.76897 15.4731 8.75 15.436 8.75 15.332V8.66504C8.75 8.56204 8.77004 8.52493 8.76904 8.52393C8.77404 8.52193 8.81501 8.49902 8.93201 8.49902H10.069C10.184 8.49902 10.226 8.521 10.228 8.521C10.231 8.525 10.25 8.56202 10.25 8.66602V15.333ZM15.068 7.5H13.931C13.202 7.5 12.749 7.94699 12.749 8.66699V15.334C12.749 16.054 13.202 16.501 13.931 16.501H15.068C15.797 16.501 16.25 16.054 16.25 15.334V8.66699C16.25 7.94699 15.797 7.5 15.068 7.5ZM15.25 15.333C15.25 15.436 15.23 15.4731 15.231 15.4741C15.226 15.4761 15.185 15.499 15.068 15.499H13.931C13.816 15.499 13.774 15.4771 13.772 15.4771C13.769 15.4731 13.75 15.436 13.75 15.332V8.66504C13.75 8.56204 13.77 8.52493 13.769 8.52393C13.774 8.52193 13.815 8.49902 13.932 8.49902H15.069C15.184 8.49902 15.226 8.521 15.228 8.521C15.231 8.525 15.25 8.56202 15.25 8.66602V15.333Z" />
</svg>
