<svg viewBox="0 0 24 24" fill="currentColor" stroke="currentColor" xmlns="http://www.w3.org/2000/svg">
<path d="M18.921 9.18787L8.84497 3.02186C7.74597 2.34886 6.41602 2.32299 5.29102 2.95399C4.17002 3.58199 3.5 4.72399 3.5 6.00599V17.9938C3.5 19.2768 4.17002 20.4178 5.29102 21.0458C5.83402 21.3498 6.42296 21.5018 7.01196 21.5018C7.64496 21.5018 8.27597 21.3269 8.84497 20.9779L18.921 14.8119C19.909 14.2079 20.5 13.1559 20.5 11.9999C20.5 10.8439 19.909 9.79187 18.921 9.18787ZM18.399 13.9598L8.323 20.1259C7.534 20.6079 6.58405 20.626 5.77905 20.174C4.97805 19.725 4.5 18.9098 4.5 17.9938V6.00599C4.5 5.08999 4.97905 4.27481 5.77905 3.82581C6.16805 3.60781 6.58999 3.49989 7.01099 3.49989C7.46299 3.49989 7.914 3.62489 8.323 3.87489L18.399 10.0409C19.087 10.4629 19.5 11.1949 19.5 12.0009C19.5 12.8069 19.088 13.5378 18.399 13.9598Z" />
</svg>
