<svg viewBox="0 0 24 24" fill="currentColor" stroke="currentColor" xmlns="http://www.w3.org/2000/svg">
<path d="M13.255 9.97898L6.32703 5.86887C5.50603 5.38287 4.52004 5.37392 3.69104 5.84592C2.89604 6.29892 2.42004 7.10588 2.42004 8.00388V15.9961C2.42004 16.8941 2.89604 17.701 3.69104 18.154C4.09904 18.386 4.54497 18.5019 4.99097 18.5019C5.45097 18.5019 5.91003 18.3781 6.32703 18.1311L13.255 14.021C13.985 13.588 14.421 12.832 14.421 12C14.421 11.168 13.985 10.412 13.255 9.97898ZM12.745 13.1609L5.81702 17.271C5.31002 17.572 4.70204 17.5779 4.18604 17.2849C3.70704 17.0119 3.42004 16.5301 3.42004 15.9961V8.00388C3.42004 7.46988 3.70604 6.98806 4.18604 6.71506C4.43904 6.57106 4.71399 6.499 4.98999 6.499C5.27499 6.499 5.55902 6.57598 5.81702 6.72898L12.745 10.8391C13.168 11.0901 13.421 11.524 13.421 12C13.421 12.476 13.168 12.9099 12.745 13.1609ZM17.421 6.49997V17.5C17.421 17.776 17.197 18 16.921 18C16.645 18 16.421 17.776 16.421 17.5V6.49997C16.421 6.22397 16.645 5.99997 16.921 5.99997C17.197 5.99997 17.421 6.22397 17.421 6.49997ZM21.421 6.49997V17.5C21.421 17.776 21.197 18 20.921 18C20.645 18 20.421 17.776 20.421 17.5V6.49997C20.421 6.22397 20.645 5.99997 20.921 5.99997C21.197 5.99997 21.421 6.22397 21.421 6.49997Z" />
</svg>
