<svg viewBox="0 0 24 24" fill="currentColor" stroke="currentColor" xmlns="http://www.w3.org/2000/svg">
<path d="M17.625 2.5H6.375C3.84 2.5 2.5 3.84 2.5 6.375V17.625C2.5 20.16 3.84 21.5 6.375 21.5H17.625C20.16 21.5 21.5 20.16 21.5 17.625V6.375C21.5 3.84 20.16 2.5 17.625 2.5ZM20.5 17.625C20.5 19.586 19.587 20.5 17.625 20.5H6.375C4.413 20.5 3.5 19.586 3.5 17.625V6.375C3.5 4.414 4.413 3.5 6.375 3.5H17.625C19.587 3.5 20.5 4.414 20.5 6.375V17.625ZM15.7209 10.5129L11.2419 7.77295C10.6659 7.41895 9.97006 7.40706 9.38306 7.73706C8.79506 8.06606 8.44495 8.66394 8.44495 9.33594V14.6641C8.44495 15.3361 8.79606 15.9339 9.38306 16.2629C9.66606 16.4219 9.97496 16.501 10.283 16.501C10.614 16.501 10.9439 16.4091 11.2419 16.2271L15.7209 13.4871C16.2429 13.1671 16.556 12.612 16.556 12C16.556 11.388 16.2429 10.8329 15.7209 10.5129ZM15.199 12.634L10.72 15.374C10.456 15.534 10.14 15.5409 9.87 15.3899C9.60199 15.2399 9.44299 14.9691 9.44299 14.6631V9.33496C9.44299 9.02996 9.60199 8.75791 9.87 8.60791C10 8.53491 10.141 8.49902 10.281 8.49902C10.432 8.49902 10.583 8.54102 10.719 8.62402L15.198 11.364C15.425 11.502 15.554 11.733 15.554 11.998C15.554 12.263 15.426 12.496 15.199 12.634Z" />
</svg>
