<svg viewBox="0 0 24 24" fill="currentColor" stroke="currentColor" xmlns="http://www.w3.org/2000/svg">
<path d="M18 8.5H6C3.71 8.5 2.5 9.71 2.5 12V19C2.5 21.29 3.71 22.5 6 22.5H18C20.29 22.5 21.5 21.29 21.5 19V12C21.5 9.71 20.29 8.5 18 8.5ZM20.5 19C20.5 20.729 19.729 21.5 18 21.5H6C4.271 21.5 3.5 20.729 3.5 19V12C3.5 10.271 4.271 9.5 6 9.5H18C19.729 9.5 20.5 10.271 20.5 12V19ZM5.5 6C5.5 5.724 5.724 5.5 6 5.5H18C18.276 5.5 18.5 5.724 18.5 6C18.5 6.276 18.276 6.5 18 6.5H6C5.724 6.5 5.5 6.276 5.5 6ZM7.5 3C7.5 2.724 7.724 2.5 8 2.5H16C16.276 2.5 16.5 2.724 16.5 3C16.5 3.276 16.276 3.5 16 3.5H8C7.724 3.5 7.5 3.276 7.5 3ZM14.842 14.3279L11.694 12.4021C11.244 12.1251 10.698 12.116 10.236 12.374C9.77496 12.632 9.50098 13.1009 9.50098 13.6279V17.374C9.50098 17.901 9.77496 18.3699 10.236 18.6279C10.459 18.7529 10.7 18.8149 10.942 18.8149C11.202 18.8149 11.461 18.7431 11.694 18.6001L14.842 16.6741C15.254 16.4221 15.5 15.984 15.5 15.502C15.5 15.02 15.254 14.5799 14.842 14.3279ZM14.3199 15.8191L11.172 17.7461C10.971 17.8691 10.793 17.7929 10.725 17.7539C10.658 17.7159 10.5 17.604 10.5 17.373V13.627C10.5 13.396 10.657 13.2831 10.725 13.2461C10.765 13.2231 10.844 13.187 10.944 13.187C11.012 13.187 11.09 13.2039 11.173 13.2539L14.321 15.1809C14.483 15.2799 14.501 15.437 14.501 15.5C14.501 15.563 14.4819 15.7201 14.3199 15.8191Z" />
</svg>
