<svg viewBox="0 0 24 24" fill="currentColor" stroke="currentColor" xmlns="http://www.w3.org/2000/svg">
<path d="M3.5 12.5C3.5 13.294 3.68402 14.0589 4.04602 14.7739C4.17102 15.0209 4.07195 15.3211 3.82495 15.4461C3.75295 15.4831 3.676 15.5 3.599 15.5C3.417 15.5 3.24095 15.4001 3.15295 15.2261C2.72495 14.3821 2.5 13.439 2.5 12.5C2.5 8.96701 4.968 6.50001 8.5 6.50001H15.793L14.647 5.35401C14.452 5.15901 14.452 4.84198 14.647 4.64698C14.842 4.45198 15.159 4.45198 15.354 4.64698L17.353 6.64698C17.399 6.69298 17.436 6.74907 17.462 6.81007C17.513 6.93207 17.513 7.0699 17.462 7.1919C17.436 7.2539 17.4 7.30899 17.353 7.35499L15.354 9.35499C15.256 9.45299 15.128 9.50099 15 9.50099C14.872 9.50099 14.744 9.45199 14.646 9.35499C14.451 9.15999 14.451 8.84296 14.646 8.64796L15.792 7.50196H8.49902C5.04602 7.49996 3.5 10.011 3.5 12.5ZM20.847 9.77394C20.723 9.52694 20.421 9.42996 20.175 9.55396C19.928 9.67896 19.829 9.98008 19.954 10.2261C20.316 10.9411 20.5 11.706 20.5 12.5C20.5 14.989 18.954 17.5 15.5 17.5H8.20703L9.35303 16.354C9.54803 16.159 9.54803 15.842 9.35303 15.647C9.15803 15.452 8.841 15.452 8.646 15.647L6.646 17.647C6.451 17.842 6.451 18.159 6.646 18.354L8.646 20.354C8.744 20.452 8.872 20.5 9 20.5C9.128 20.5 9.256 20.451 9.354 20.354C9.549 20.159 9.549 19.842 9.354 19.647L8.20801 18.501H15.501C19.033 18.501 21.501 16.034 21.501 12.501C21.5 11.561 21.274 10.6179 20.847 9.77394Z" />
</svg>
