<svg viewBox="0 0 24 24" fill="currentColor" stroke="currentColor" xmlns="http://www.w3.org/2000/svg">
<path d="M21.462 17.1909C21.436 17.2529 21.4 17.308 21.353 17.354L19.354 19.354C19.256 19.452 19.128 19.5 19 19.5C18.872 19.5 18.744 19.451 18.646 19.354C18.451 19.159 18.451 18.842 18.646 18.647L19.792 17.501H17.4399C16.3719 17.501 15.376 17.022 14.708 16.188L8.50903 8.43995C8.03203 7.84295 7.32098 7.50196 6.55798 7.50196H3C2.724 7.50196 2.5 7.27796 2.5 7.00196C2.5 6.72596 2.724 6.50196 3 6.50196H6.55896C7.62696 6.50196 8.62302 6.98095 9.29102 7.81495L15.49 15.563C15.967 16.16 16.678 16.501 17.441 16.501H19.793L18.647 15.355C18.452 15.16 18.452 14.843 18.647 14.648C18.842 14.453 19.159 14.453 19.354 14.648L21.353 16.648C21.399 16.694 21.436 16.75 21.462 16.811C21.512 16.931 21.512 17.0689 21.462 17.1909ZM14 10C14.146 10 14.292 9.93602 14.391 9.81202L15.491 8.438C15.968 7.841 16.679 7.50001 17.442 7.50001H19.7939L18.6479 8.64601C18.4529 8.84101 18.4529 9.15804 18.6479 9.35304C18.7459 9.45104 18.874 9.49903 19.002 9.49903C19.13 9.49903 19.258 9.45004 19.356 9.35304L21.355 7.35304C21.401 7.30704 21.438 7.25095 21.464 7.18995C21.515 7.06795 21.515 6.93012 21.464 6.80812C21.438 6.74612 21.402 6.69103 21.355 6.64503L19.356 4.64503C19.161 4.45003 18.844 4.45003 18.649 4.64503C18.454 4.84003 18.454 5.15706 18.649 5.35206L19.795 6.49806H17.443C16.375 6.49806 15.3791 6.97705 14.7111 7.81104L13.611 9.18507C13.439 9.40107 13.473 9.71495 13.689 9.88795C13.78 9.96395 13.89 10 14 10ZM9.60901 14.188L8.50903 15.562C8.03203 16.159 7.32098 16.5 6.55798 16.5H3C2.724 16.5 2.5 16.724 2.5 17C2.5 17.276 2.724 17.5 3 17.5H6.55896C7.62696 17.5 8.62302 17.021 9.29102 16.187L10.391 14.813C10.563 14.597 10.529 14.2831 10.313 14.1101C10.097 13.9371 9.78301 13.971 9.60901 14.188Z" />
</svg>
