<svg viewBox="0 0 24 24" fill="currentColor" stroke="currentColor" xmlns="http://www.w3.org/2000/svg">
<path d="M15.896 8.1079C16.93 9.1539 17.5 10.536 17.5 12C17.5 13.464 16.93 14.8461 15.896 15.8921C15.798 15.9911 15.669 16.04 15.541 16.04C15.414 16.04 15.287 15.992 15.189 15.895C14.993 15.701 14.9911 15.384 15.1851 15.188C16.0341 14.331 16.5 13.198 16.5 12C16.5 10.802 16.0331 9.669 15.1851 8.812C14.9911 8.616 14.993 8.29897 15.189 8.10497C15.385 7.91097 15.701 7.9119 15.896 8.1079ZM8.81201 8.10399C8.61501 7.90999 8.29798 7.9109 8.10498 8.1079C7.07098 9.1539 6.50098 10.536 6.50098 12C6.50098 13.464 7.07098 14.8461 8.10498 15.8921C8.20298 15.9911 8.33196 16.04 8.45996 16.04C8.58696 16.04 8.71401 15.992 8.81201 15.895C9.00801 15.701 9.01004 15.384 8.81604 15.188C7.96704 14.331 7.50098 13.198 7.50098 12C7.50098 10.802 7.96804 9.669 8.81604 8.812C9.01004 8.615 9.00801 8.29899 8.81201 8.10399ZM19.062 5.66503C18.874 5.45903 18.56 5.44487 18.355 5.62987C18.151 5.81487 18.1349 6.13093 18.3199 6.33593C19.7259 7.88893 20.501 9.89997 20.501 12.001C20.501 14.102 19.7269 16.113 18.3199 17.666C18.1349 17.871 18.151 18.1871 18.355 18.3721C18.451 18.4591 18.571 18.501 18.691 18.501C18.827 18.501 18.962 18.4459 19.062 18.3359C20.634 16.5989 21.5 14.349 21.5 12.001C21.5 9.65297 20.634 7.40103 19.062 5.66503ZM5.646 5.6289C5.443 5.4439 5.12696 5.45805 4.93896 5.66405C3.36696 7.40105 2.50098 9.65101 2.50098 11.999C2.50098 14.347 3.36696 16.598 4.93896 18.334C5.03896 18.443 5.17406 18.499 5.31006 18.499C5.43006 18.499 5.55 18.4571 5.646 18.3701C5.85 18.1851 5.86603 17.8691 5.68103 17.6641C4.27503 16.1111 3.5 14.1 3.5 11.999C3.5 9.89801 4.27403 7.88698 5.68103 6.33398C5.86503 6.13098 5.85 5.8139 5.646 5.6289ZM14 12C14 13.103 13.103 14 12 14C10.897 14 10 13.103 10 12C10 10.897 10.897 9.99999 12 9.99999C13.103 9.99999 14 10.897 14 12ZM13 12C13 11.449 12.552 11 12 11C11.448 11 11 11.449 11 12C11 12.551 11.448 13 12 13C12.552 13 13 12.551 13 12Z" />
</svg>
