<svg viewBox="0 0 24 24" fill="currentColor" stroke="currentColor" xmlns="http://www.w3.org/2000/svg">
<path d="M17.748 3.81201C16.677 3.29301 15.432 3.43097 14.499 4.16797L7.68396 9.55005C7.40396 9.77105 7.186 10.043 7 10.335V4C7 3.724 6.776 3.5 6.5 3.5C6.224 3.5 6 3.724 6 4V20C6 20.276 6.224 20.5 6.5 20.5C6.776 20.5 7 20.276 7 20V13.6631C7.185 13.9551 7.40396 14.227 7.68396 14.448L14.499 19.8311C15.057 20.2721 15.727 20.498 16.403 20.498C16.858 20.498 17.317 20.395 17.748 20.187C18.829 19.664 19.5 18.5881 19.5 17.3821V6.61694C19.5 5.41094 18.829 4.33601 17.748 3.81201ZM18.5 17.3821C18.5 18.2151 18.056 18.9271 17.312 19.2871C16.576 19.6421 15.757 19.5519 15.118 19.0459L8.30298 13.6631C7.79298 13.2601 7.5 12.654 7.5 11.999C7.5 11.344 7.79298 10.738 8.30298 10.335L15.118 4.95288C15.759 4.44688 16.577 4.35591 17.312 4.71191C18.055 5.07191 18.5 5.78494 18.5 6.61694V17.3821Z" />
</svg>
