<svg viewBox="0 0 24 24" fill="currentColor" stroke="currentColor" xmlns="http://www.w3.org/2000/svg">
<path d="M17.5 3.5C17.224 3.5 17 3.724 17 4V10.3359C16.815 10.0439 16.596 9.77203 16.316 9.55103L9.50098 4.16895C8.56798 3.43195 7.32195 3.29399 6.25195 3.81299C5.17095 4.33599 4.5 5.41192 4.5 6.61792V17.3831C4.5 18.5901 5.17095 19.665 6.25195 20.188C6.68295 20.396 7.14205 20.499 7.59705 20.499C8.27405 20.499 8.94398 20.273 9.50098 19.832L16.316 14.449C16.596 14.228 16.814 13.9561 17 13.6641V20C17 20.276 17.224 20.5 17.5 20.5C17.776 20.5 18 20.276 18 20V4C18 3.724 17.776 3.5 17.5 3.5ZM15.697 13.6631L8.88196 19.0459C8.24096 19.5519 7.42299 19.6431 6.68799 19.2871C5.94499 18.9271 5.5 18.2141 5.5 17.3821V6.61694C5.5 5.78394 5.94399 5.07191 6.68799 4.71191C6.98499 4.56791 7.29505 4.49805 7.60205 4.49805C8.05505 4.49805 8.49996 4.6521 8.88196 4.9541L15.697 10.3359C16.207 10.7389 16.5 11.345 16.5 12C16.5 12.654 16.207 13.2601 15.697 13.6631Z" />
</svg>
