<svg viewBox="0 0 24 24" fill="currentColor" stroke="currentColor" xmlns="http://www.w3.org/2000/svg">
<path d="M12 1.5C6.21 1.5 1.5 6.21 1.5 12C1.5 17.79 6.21 22.5 12 22.5C17.79 22.5 22.5 17.79 22.5 12C22.5 6.21 17.79 1.5 12 1.5ZM12 21.5C6.762 21.5 2.5 17.238 2.5 12C2.5 6.762 6.762 2.5 12 2.5C17.238 2.5 21.5 6.762 21.5 12C21.5 17.238 17.238 21.5 12 21.5ZM14.188 8H9.81299C8.66099 8 8.00098 8.66101 8.00098 9.81201V14.187C8.00098 15.339 8.66099 15.999 9.81299 15.999H14.188C15.34 15.999 16 15.338 16 14.187V9.81201C16 8.66101 15.34 8 14.188 8ZM15 14.188C15 14.788 14.787 15 14.188 15H9.81299C9.21299 15 9.00098 14.788 9.00098 14.188V9.81299C9.00098 9.21299 9.21399 9.00098 9.81299 9.00098H14.188C14.788 9.00098 15 9.21299 15 9.81299V14.188Z" />
</svg>
