<svg viewBox="0 0 24 24" fill="currentColor" stroke="currentColor" xmlns="http://www.w3.org/2000/svg">
<path d="M17.625 2.5H6.375C3.84 2.5 2.5 3.84 2.5 6.375V17.625C2.5 20.16 3.84 21.5 6.375 21.5H17.625C20.16 21.5 21.5 20.16 21.5 17.625V6.375C21.5 3.84 20.16 2.5 17.625 2.5ZM20.5 6.375V8.5H15.5V3.5H17.625C19.587 3.5 20.5 4.414 20.5 6.375ZM9.5 8.5V3.5H14.5V8.5H9.5ZM6.375 3.5H8.5V8.5H3.5V6.375C3.5 4.414 4.413 3.5 6.375 3.5ZM17.625 20.5H6.375C4.413 20.5 3.5 19.586 3.5 17.625V9.5H20.5V17.625C20.5 19.586 19.587 20.5 17.625 20.5ZM14.842 13.3279L11.694 11.4021C11.244 11.1251 10.698 11.116 10.236 11.374C9.77496 11.632 9.50098 12.1009 9.50098 12.6279V16.374C9.50098 16.901 9.77496 17.3699 10.236 17.6279C10.459 17.7529 10.7 17.8149 10.942 17.8149C11.202 17.8149 11.461 17.7431 11.694 17.6001L14.842 15.6741C15.254 15.4221 15.5 14.984 15.5 14.502C15.5 14.02 15.254 13.5799 14.842 13.3279ZM14.3199 14.8191L11.172 16.7461C10.971 16.8691 10.793 16.7929 10.725 16.7539C10.658 16.7159 10.5 16.604 10.5 16.373V12.627C10.5 12.396 10.657 12.2831 10.725 12.2461C10.765 12.2231 10.844 12.187 10.944 12.187C11.012 12.187 11.09 12.2039 11.173 12.2539L14.321 14.1809C14.483 14.2799 14.501 14.437 14.501 14.5C14.501 14.563 14.4819 14.7201 14.3199 14.8191Z" />
</svg>
