<svg viewBox="0 0 24 24" fill="currentColor" stroke="currentColor" xmlns="http://www.w3.org/2000/svg">
<path d="M17.5 11V19.3301C17.5 20.1831 17.02 20.9349 16.247 21.295C15.95 21.433 15.638 21.5 15.327 21.5C14.826 21.5 14.332 21.324 13.928 20.982L10.272 17.8811C10.132 17.7921 10.041 17.636 10.041 17.46C10.041 17.184 10.265 16.96 10.541 16.96C10.678 16.96 10.828 17.026 10.923 17.126L14.574 20.219C14.932 20.521 15.4011 20.587 15.8261 20.388C16.2491 20.192 16.501 19.7971 16.501 19.3301V11C16.501 10.724 16.725 10.5 17.001 10.5C17.277 10.5 17.5 10.724 17.5 11ZM21.354 3.35403L17.355 7.35403L17.354 7.35501L3.35499 21.355C3.25699 21.453 3.12899 21.501 3.00099 21.501C2.87299 21.501 2.74498 21.452 2.64698 21.355C2.45198 21.16 2.45198 20.843 2.64698 20.648L6.25501 17.0401C5.79701 16.6701 5.50001 16.115 5.50001 15.502V8.50198C5.50001 7.39898 6.39701 6.50198 7.50001 6.50198H9.27003C9.62203 6.50198 9.966 6.37698 10.24 6.14798L13.928 3.02103C14.584 2.46602 15.4731 2.34804 16.2481 2.70804C17.0201 3.06704 17.501 3.82012 17.501 4.67312V5.79593L20.647 2.64993C20.842 2.45493 21.159 2.45493 21.354 2.64993C21.549 2.84493 21.549 3.15803 21.354 3.35403ZM16.5 4.66995C16.5 4.20395 16.248 3.80809 15.825 3.61209C15.4 3.41309 14.932 3.47701 14.572 3.78201L10.8831 6.91092C10.4281 7.29092 9.85603 7.50003 9.27003 7.50003H7.50001C6.94801 7.50003 6.50001 7.94903 6.50001 8.50003V15.5C6.50001 15.85 6.68007 16.1551 6.96107 16.3321L16.5 6.793V4.66995Z" />
</svg>
