<svg viewBox="0 0 24 24" fill="currentColor" stroke="currentColor" xmlns="http://www.w3.org/2000/svg">
<path d="M13.5 15V19.3301C13.5 20.1831 13.0199 20.9349 12.2469 21.295C11.9499 21.433 11.638 21.5 11.327 21.5C10.826 21.5 10.332 21.324 9.92798 20.982L8.38599 19.6709C8.17599 19.4919 8.15098 19.1761 8.32898 18.9661C8.50898 18.7551 8.82306 18.73 9.03406 18.909L10.574 20.219C10.931 20.521 11.399 20.586 11.825 20.387C12.248 20.191 12.5 19.7961 12.5 19.3291V15C12.5 14.724 12.724 14.5 13 14.5C13.276 14.5 13.5 14.724 13.5 15ZM13.353 11.354L3.354 21.354C3.256 21.452 3.128 21.5 3 21.5C2.872 21.5 2.744 21.451 2.646 21.354C2.451 21.159 2.451 20.842 2.646 20.647L5.71399 17.5791C5.56999 17.5341 5.42204 17.501 5.26904 17.501H3.49902C2.39602 17.501 1.49902 16.604 1.49902 15.501V8.50101C1.49902 7.39801 2.39602 6.50101 3.49902 6.50101H5.26904C5.62104 6.50101 5.96501 6.376 6.23901 6.147L9.927 3.02005C10.583 2.46505 11.4719 2.34706 12.2469 2.70706C13.0189 3.06606 13.5 3.81915 13.5 4.67215V9.79495L20.646 2.64895C20.841 2.45395 21.158 2.45395 21.353 2.64895C21.548 2.84395 21.548 3.16099 21.353 3.35599L13.354 11.356C13.354 11.353 13.353 11.354 13.353 11.354ZM6.47705 16.8159L12.5 10.793V4.66995C12.5 4.20395 12.248 3.80809 11.825 3.61209C11.4 3.41309 10.931 3.47701 10.572 3.78201L6.88306 6.91092C6.42806 7.29092 5.85602 7.50003 5.27002 7.50003H3.5C2.948 7.50003 2.5 7.94903 2.5 8.50003V15.5C2.5 16.051 2.948 16.5 3.5 16.5H5.27002C5.69402 16.5 6.10905 16.6119 6.47705 16.8159ZM17.592 9.78201C17.327 9.86301 17.18 10.143 17.261 10.407C17.856 12.344 17.328 14.444 15.885 15.887C15.69 16.082 15.69 16.399 15.885 16.594C15.983 16.692 16.111 16.74 16.239 16.74C16.367 16.74 16.495 16.691 16.593 16.594C18.299 14.888 18.921 12.4051 18.217 10.1131C18.136 9.84907 17.856 9.70101 17.592 9.78201ZM21.217 6.97903C21.083 6.73603 20.778 6.65003 20.538 6.78103C20.296 6.91403 20.207 7.21799 20.34 7.45999C22.35 11.121 21.681 15.7491 18.715 18.7151C18.52 18.9101 18.52 19.2271 18.715 19.4221C18.813 19.5201 18.941 19.5681 19.069 19.5681C19.197 19.5681 19.325 19.5191 19.423 19.4221C22.7 16.1451 23.438 11.028 21.217 6.97903Z" />
</svg>
