<svg viewBox="0 0 24 24" fill="currentColor" stroke="currentColor" xmlns="http://www.w3.org/2000/svg">
<path d="M14.2419 2.7041C13.4669 2.3451 12.58 2.46509 11.928 3.01709L8.23706 6.14404C7.96606 6.37304 7.62197 6.49902 7.26697 6.49902H5.5C4.397 6.49902 3.5 7.39602 3.5 8.49902V15.498C3.5 16.601 4.397 17.498 5.5 17.498H7.26697C7.62097 17.498 7.96606 17.624 8.23706 17.853L11.927 20.981C12.33 21.322 12.823 21.499 13.324 21.499C13.634 21.499 13.946 21.4319 14.243 21.2939C15.018 20.9349 15.5 20.18 15.5 19.325V4.67212C15.5 3.81812 15.0179 3.0631 14.2419 2.7041ZM14.5 19.3269C14.5 19.7949 14.246 20.1919 13.822 20.3889C13.397 20.5859 12.929 20.5219 12.573 20.2209L8.88306 17.094C8.43206 16.712 7.85797 16.501 7.26697 16.501H5.5C4.948 16.501 4.5 16.052 4.5 15.501V8.50195C4.5 7.95095 4.948 7.50195 5.5 7.50195H7.26697C7.85797 7.50195 8.43206 7.29193 8.88306 6.90893L12.574 3.78198C12.931 3.47998 13.398 3.41704 13.822 3.61304C14.246 3.81004 14.5 4.20705 14.5 4.67505V19.3269ZM20.5 12C20.5 13.736 19.822 15.368 18.59 16.595C18.492 16.692 18.3651 16.741 18.2371 16.741C18.1091 16.741 17.9801 16.692 17.8831 16.594C17.6891 16.399 17.689 16.082 17.885 15.887C18.927 14.85 19.5 13.47 19.5 12.001C19.5 10.532 18.927 9.15199 17.885 8.11499C17.689 7.91999 17.6891 7.60296 17.8831 7.40796C18.0781 7.21196 18.395 7.212 18.59 7.406C19.822 8.632 20.5 10.264 20.5 12Z" />
</svg>
