<svg viewBox="0 0 24 24" fill="currentColor" stroke="currentColor" xmlns="http://www.w3.org/2000/svg">
<path d="M12.2419 2.7041C11.4679 2.3451 10.58 2.46509 9.92798 3.01709L6.23706 6.14404C5.96606 6.37304 5.62197 6.49902 5.26697 6.49902H3.5C2.397 6.49902 1.5 7.39602 1.5 8.49902V15.498C1.5 16.601 2.397 17.498 3.5 17.498H5.26697C5.62097 17.498 5.96606 17.624 6.23706 17.853L9.927 20.981C10.33 21.322 10.823 21.499 11.324 21.499C11.634 21.499 11.946 21.4319 12.243 21.2939C13.018 20.9349 13.5 20.18 13.5 19.325V4.67212C13.5 3.81812 13.0179 3.0631 12.2419 2.7041ZM12.5 19.3269C12.5 19.7949 12.246 20.1919 11.822 20.3889C11.397 20.5859 10.928 20.5219 10.573 20.2209L6.88306 17.094C6.43206 16.712 5.85797 16.501 5.26697 16.501H3.5C2.948 16.501 2.5 16.052 2.5 15.501V8.50195C2.5 7.95095 2.948 7.50195 3.5 7.50195H5.26697C5.85797 7.50195 6.43206 7.29193 6.88306 6.90893L10.574 3.78198C10.93 3.47998 11.398 3.41704 11.822 3.61304C12.246 3.81004 12.5 4.20705 12.5 4.67505V19.3269ZM16.59 7.40503C17.822 8.63203 18.5 10.263 18.5 12C18.5 13.737 17.822 15.368 16.59 16.595C16.492 16.692 16.3651 16.741 16.2371 16.741C16.1091 16.741 15.9801 16.692 15.8831 16.594C15.6891 16.399 15.689 16.082 15.885 15.887C16.927 14.85 17.5 13.47 17.5 12.001C17.5 10.532 16.927 9.15199 15.885 8.11499C15.689 7.91999 15.6891 7.60296 15.8831 7.40796C16.0781 7.21096 16.395 7.21103 16.59 7.40503ZM22.5 12C22.5 14.807 21.406 17.4431 19.421 19.4241C19.323 19.5211 19.195 19.5701 19.067 19.5701C18.939 19.5701 18.811 19.5211 18.713 19.4231C18.519 19.2281 18.519 18.9111 18.714 18.7161C20.511 16.9241 21.5 14.539 21.5 12C21.5 9.461 20.511 7.07593 18.714 5.28393C18.519 5.08893 18.519 4.7719 18.713 4.5769C18.908 4.3809 19.226 4.38193 19.421 4.57593C21.406 6.55693 22.5 9.193 22.5 12Z" />
</svg>
