<svg viewBox="0 0 24 24" fill="currentColor" stroke="currentColor" xmlns="http://www.w3.org/2000/svg">
<path d="M15.324 21.5C14.823 21.5 14.33 21.3239 13.927 20.9819L10.2371 17.854C9.96606 17.625 9.62197 17.499 9.26697 17.499H7.5C6.397 17.499 5.5 16.602 5.5 15.499V8.49998C5.5 7.39698 6.397 6.49998 7.5 6.49998H9.26697C9.62097 6.49998 9.96606 6.37399 10.2371 6.14499L13.928 3.01804C14.58 2.46504 15.4669 2.34505 16.2419 2.70505C17.0169 3.06505 17.5 3.81905 17.5 4.67405V19.3269C17.5 20.1819 17.019 20.9359 16.243 21.2959C15.946 21.4329 15.634 21.5 15.324 21.5ZM7.5 7.49998C6.948 7.49998 6.5 7.94898 6.5 8.49998V15.499C6.5 16.05 6.948 16.499 7.5 16.499H9.26697C9.85797 16.499 10.4321 16.709 10.8831 17.092L14.573 20.219C14.929 20.521 15.397 20.5839 15.822 20.3869C16.246 20.1899 16.5 19.7929 16.5 19.3249V4.67209C16.5 4.20409 16.246 3.80708 15.822 3.61008C15.398 3.41408 14.93 3.47703 14.574 3.77903L10.8831 6.90598C10.4321 7.28798 9.85797 7.499 9.26697 7.499H7.5V7.49998Z" />
</svg>
