<svg viewBox="0 0 24 24" fill="currentColor" stroke="currentColor" xmlns="http://www.w3.org/2000/svg">
<path d="M12.2419 2.7041C11.4679 2.3451 10.58 2.46509 9.92798 3.01709L6.23706 6.14404C5.96606 6.37304 5.62197 6.49902 5.26697 6.49902H3.5C2.397 6.49902 1.5 7.39602 1.5 8.49902V15.498C1.5 16.601 2.397 17.498 3.5 17.498H5.26697C5.62097 17.498 5.96606 17.624 6.23706 17.853L9.927 20.981C10.33 21.322 10.823 21.499 11.324 21.499C11.634 21.499 11.946 21.4319 12.243 21.2939C13.018 20.9349 13.5 20.18 13.5 19.325V4.67212C13.5 3.81812 13.0179 3.0631 12.2419 2.7041ZM12.5 19.3269C12.5 19.7949 12.246 20.1919 11.822 20.3889C11.397 20.5859 10.929 20.5219 10.573 20.2209L6.88306 17.094C6.43206 16.712 5.85797 16.501 5.26697 16.501H3.5C2.948 16.501 2.5 16.052 2.5 15.501V8.50195C2.5 7.95095 2.948 7.50195 3.5 7.50195H5.26697C5.85797 7.50195 6.43206 7.29193 6.88306 6.90893L10.574 3.78198C10.93 3.47998 11.397 3.41704 11.822 3.61304C12.246 3.81004 12.5 4.20705 12.5 4.67505V19.3269ZM22.5 12C22.5 12.276 22.276 12.5 22 12.5H20V14.5C20 14.776 19.776 15 19.5 15C19.224 15 19 14.776 19 14.5V12.5H17C16.724 12.5 16.5 12.276 16.5 12C16.5 11.724 16.724 11.5 17 11.5H19V9.5C19 9.224 19.224 9 19.5 9C19.776 9 20 9.224 20 9.5V11.5H22C22.276 11.5 22.5 11.724 22.5 12Z" />
</svg>
