<svg viewBox="0 0 24 24" fill="currentColor" stroke="currentColor" xmlns="http://www.w3.org/2000/svg">
<path d="M12.749 20.947C12.773 21.361 12.457 21.715 12.043 21.739C11.858 21.75 11.685 21.75 11.5 21.75C5.848 21.75 1.25 17.152 1.25 11.5C1.25 5.848 5.848 1.25 11.5 1.25C17.152 1.25 21.75 5.848 21.75 11.5C21.75 11.685 21.75 11.858 21.739 12.043C21.716 12.456 21.378 12.781 20.947 12.749C20.533 12.726 20.218 12.371 20.241 11.957C20.25 11.802 20.249 11.655 20.249 11.5C20.249 6.675 16.324 2.75 11.499 2.75C6.67399 2.75 2.74899 6.675 2.74899 11.5C2.74899 16.325 6.67399 20.25 11.499 20.25C11.657 20.247 11.8 20.2499 11.956 20.2419C12.375 20.2089 12.725 20.534 12.749 20.947ZM16.53 9.17004C16.237 8.87704 15.762 8.87704 15.469 9.17004L12.955 11.684C12.895 11.742 12.801 11.742 12.742 11.684L11.312 10.257C10.669 9.61496 9.623 9.61506 8.979 10.2581L6.468 12.769C6.175 13.062 6.175 13.5371 6.468 13.8301C6.614 13.9761 6.806 14.05 6.998 14.05C7.19 14.05 7.382 13.9771 7.528 13.8301L10.039 11.319C10.098 11.26 10.192 11.259 10.252 11.319L11.682 12.7461C12.326 13.3871 13.371 13.3871 14.015 12.7451L16.529 10.231C16.823 9.93796 16.823 9.46304 16.53 9.17004ZM22.4 18.876L21.282 19.9419L21.536 21.3911C21.612 21.8261 21.438 22.259 21.081 22.521C20.875 22.673 20.633 22.75 20.388 22.75C20.205 22.75 20.02 22.7069 19.849 22.6179L18.499 21.9241L17.15 22.6179C16.751 22.8229 16.279 22.786 15.918 22.52C15.561 22.258 15.387 21.8249 15.463 21.3899L15.716 19.9419L14.599 18.877C14.283 18.575 14.17 18.1301 14.303 17.7161C14.437 17.2991 14.791 17.0019 15.227 16.9399L16.785 16.718L17.455 15.3899C17.654 14.9949 18.054 14.75 18.498 14.75C18.942 14.75 19.343 14.9951 19.542 15.3911L20.211 16.719L21.769 16.9409C22.205 17.0029 22.56 17.3 22.693 17.717C22.829 18.13 22.715 18.575 22.4 18.876ZM18.204 16.0649C18.204 16.0649 18.204 16.0659 18.205 16.0659L18.204 16.0649ZM20.812 18.3181L19.818 18.177C19.447 18.124 19.127 17.894 18.96 17.562L18.501 16.6521L18.041 17.564C17.875 17.895 17.554 18.125 17.184 18.178L16.19 18.3201L16.898 18.9951C17.171 19.2571 17.296 19.6339 17.231 20.0049L17.061 20.981L17.977 20.509C18.306 20.34 18.698 20.34 19.027 20.51L19.942 20.981L19.771 20.0071C19.707 19.6351 19.831 19.2581 20.104 18.9971L20.812 18.3181Z" />
</svg>
