<svg viewBox="0 0 24 24" fill="currentColor" stroke="currentColor" xmlns="http://www.w3.org/2000/svg">
<path d="M21.75 20C21.75 20.414 21.414 20.75 21 20.75H4.5C3.091 20.75 2.25 19.909 2.25 18.5V4C2.25 3.586 2.586 3.25 3 3.25C3.414 3.25 3.75 3.586 3.75 4V18.5C3.75 19.089 3.911 19.25 4.5 19.25H21C21.414 19.25 21.75 19.586 21.75 20ZM7 14.75C7.192 14.75 7.384 14.677 7.53 14.53L10.825 11.235C10.923 11.137 11.08 11.138 11.178 11.235L12.784 12.83C13.467 13.509 14.576 13.505 15.257 12.823L19.25 8.81604V10C19.25 10.414 19.586 10.75 20 10.75C20.414 10.75 20.75 10.414 20.75 10V7C20.75 7 20.75 7.00002 20.75 6.99902C20.75 6.90102 20.73 6.80404 20.692 6.71204C20.654 6.62004 20.599 6.53799 20.53 6.46899C20.523 6.46199 20.513 6.459 20.505 6.453C20.441 6.394 20.369 6.34198 20.286 6.30798C20.205 6.27498 20.119 6.26096 20.033 6.25696C20.021 6.25696 20.011 6.25 20 6.25H17C16.586 6.25 16.25 6.586 16.25 7C16.25 7.414 16.586 7.75 17 7.75H18.194L14.195 11.764C14.097 11.862 13.939 11.862 13.841 11.765L12.236 10.17C11.554 9.49404 10.446 9.49395 9.765 10.174L6.47 13.469C6.177 13.762 6.177 14.237 6.47 14.53C6.616 14.677 6.808 14.75 7 14.75Z" />
</svg>
