<svg viewBox="0 0 24 24" fill="currentColor" stroke="currentColor" xmlns="http://www.w3.org/2000/svg">
<path d="M17.625 21.75H6.375C3.715 21.75 2.25 20.285 2.25 17.625V6.375C2.25 3.715 3.715 2.25 6.375 2.25H17.625C20.285 2.25 21.75 3.715 21.75 6.375V17.625C21.75 20.285 20.285 21.75 17.625 21.75ZM6.375 3.75C4.535 3.75 3.75 4.535 3.75 6.375V17.625C3.75 19.465 4.535 20.25 6.375 20.25H17.625C19.465 20.25 20.25 19.465 20.25 17.625V6.375C20.25 4.535 19.465 3.75 17.625 3.75H6.375ZM15 17.75C13.591 17.75 12.75 16.909 12.75 15.5V8.5C12.75 7.091 13.591 6.25 15 6.25C16.409 6.25 17.25 7.091 17.25 8.5V15.5C17.25 16.909 16.409 17.75 15 17.75ZM15 7.75C14.411 7.75 14.25 7.911 14.25 8.5V15.5C14.25 16.089 14.411 16.25 15 16.25C15.589 16.25 15.75 16.089 15.75 15.5V8.5C15.75 7.911 15.589 7.75 15 7.75ZM9 17.75C7.591 17.75 6.75 16.909 6.75 15.5V12.5C6.75 11.091 7.591 10.25 9 10.25C10.409 10.25 11.25 11.091 11.25 12.5V15.5C11.25 16.909 10.409 17.75 9 17.75ZM9 11.75C8.411 11.75 8.25 11.911 8.25 12.5V15.5C8.25 16.089 8.411 16.25 9 16.25C9.589 16.25 9.75 16.089 9.75 15.5V12.5C9.75 11.911 9.589 11.75 9 11.75Z" />
</svg>
