<svg viewBox="0 0 24 24" fill="currentColor" stroke="currentColor" xmlns="http://www.w3.org/2000/svg">
<path d="M7.25 8C7.25 7.586 7.586 7.25 8 7.25H13C13.414 7.25 13.75 7.586 13.75 8C13.75 8.414 13.414 8.75 13 8.75H8C7.586 8.75 7.25 8.414 7.25 8ZM16 11.25H8C7.586 11.25 7.25 11.586 7.25 12C7.25 12.414 7.586 12.75 8 12.75H16C16.414 12.75 16.75 12.414 16.75 12C16.75 11.586 16.414 11.25 16 11.25ZM11 15.25H8C7.586 15.25 7.25 15.586 7.25 16C7.25 16.414 7.586 16.75 8 16.75H11C11.414 16.75 11.75 16.414 11.75 16C11.75 15.586 11.414 15.25 11 15.25ZM22.75 12C22.75 17.928 17.928 22.75 12 22.75C6.072 22.75 1.25 17.928 1.25 12C1.25 6.072 6.072 1.25 12 1.25C17.928 1.25 22.75 6.072 22.75 12ZM21.25 12C21.25 6.899 17.101 2.75 12 2.75C6.899 2.75 2.75 6.899 2.75 12C2.75 17.101 6.899 21.25 12 21.25C17.101 21.25 21.25 17.101 21.25 12Z" />
</svg>
