<svg viewBox="0 0 24 24" fill="currentColor" stroke="currentColor" xmlns="http://www.w3.org/2000/svg">
<path d="M21.75 17C21.75 17.098 21.73 17.1951 21.692 17.2871C21.616 17.4701 21.47 17.6161 21.287 17.6931C21.195 17.7311 21.098 17.751 21 17.751H16.846C16.432 17.751 16.096 17.415 16.096 17.001C16.096 16.587 16.432 16.251 16.846 16.251H19.189L13.176 10.2381C13.078 10.1401 12.92 10.1401 12.822 10.2381L10.236 12.824C9.55299 13.507 8.44399 13.507 7.76099 12.824L2.468 7.53103C2.175 7.23803 2.175 6.76299 2.468 6.46999C2.761 6.17699 3.236 6.17699 3.529 6.46999L8.822 11.763C8.92 11.861 9.07799 11.861 9.17599 11.763L11.762 9.17703C12.445 8.49403 13.554 8.49403 14.237 9.17703L20.25 15.19V12.8469C20.25 12.4329 20.586 12.0969 21 12.0969C21.414 12.0969 21.75 12.4329 21.75 12.8469V17Z" />
</svg>
