<svg viewBox="0 0 24 24" fill="currentColor" stroke="currentColor" xmlns="http://www.w3.org/2000/svg">
<path d="M12.75 14V17C12.75 17.414 12.414 17.75 12 17.75C11.586 17.75 11.25 17.414 11.25 17V14C11.25 13.586 11.586 13.25 12 13.25C12.414 13.25 12.75 13.586 12.75 14ZM8 11.25C7.586 11.25 7.25 11.586 7.25 12V17C7.25 17.414 7.586 17.75 8 17.75C8.414 17.75 8.75 17.414 8.75 17V12C8.75 11.586 8.414 11.25 8 11.25ZM16 14.75C15.586 14.75 15.25 15.086 15.25 15.5V17C15.25 17.414 15.586 17.75 16 17.75C16.414 17.75 16.75 17.414 16.75 17V15.5C16.75 15.086 16.414 14.75 16 14.75ZM16 7.37C15.586 7.37 15.25 7.706 15.25 8.12V8.51404L13.444 6.71497C12.863 6.13597 11.916 6.13306 11.331 6.71106L10.044 7.98401L8.53003 6.46997C8.23703 6.17697 7.76199 6.17697 7.46899 6.46997C7.17599 6.76297 7.17599 7.23801 7.46899 7.53101L8.98297 9.04504C9.56497 9.62704 10.514 9.62903 11.098 9.05103L12.385 7.77795L14.184 9.57104H13.8C13.386 9.57104 13.05 9.90705 13.05 10.321C13.05 10.735 13.386 11.071 13.8 11.071H16C16.098 11.071 16.195 11.0509 16.287 11.0129C16.379 10.9749 16.462 10.92 16.531 10.851C16.531 10.851 16.531 10.851 16.532 10.851C16.539 10.844 16.542 10.833 16.549 10.826C16.608 10.762 16.659 10.69 16.693 10.608C16.727 10.525 16.742 10.438 16.745 10.35C16.745 10.34 16.751 10.332 16.751 10.322V8.12195C16.75 7.70595 16.414 7.37 16 7.37ZM22.75 12C22.75 17.928 17.928 22.75 12 22.75C6.072 22.75 1.25 17.928 1.25 12C1.25 6.072 6.072 1.25 12 1.25C17.928 1.25 22.75 6.072 22.75 12ZM21.25 12C21.25 6.899 17.101 2.75 12 2.75C6.899 2.75 2.75 6.899 2.75 12C2.75 17.101 6.899 21.25 12 21.25C17.101 21.25 21.25 17.101 21.25 12Z" />
</svg>
