<svg viewBox="0 0 24 24" fill="currentColor" stroke="currentColor" xmlns="http://www.w3.org/2000/svg">
<path d="M17.667 2H6.33398C4.11198 2 3.00098 3.11101 3.00098 5.33301V15.333C3.00098 17.555 4.11198 18.666 6.33398 18.666H7.83398C8.35898 18.666 8.85299 18.913 9.16699 19.333L10.667 21.333C11.334 22.222 12.667 22.222 13.334 21.333L14.834 19.333C15.149 18.913 15.643 18.666 16.167 18.666H17.667C19.889 18.666 21 17.555 21 15.333V5.33301C21 3.11101 19.889 2 17.667 2ZM16.686 10.452C16.065 13.655 12.011 15.5 12.011 15.5C12.011 15.5 7.95706 13.655 7.33606 10.452C6.95506 8.48703 7.78703 6.51 9.90503 6.5C11.482 6.492 12.011 8.08197 12.011 8.08197C12.011 8.08197 12.5399 6.492 14.1169 6.5C16.2389 6.51 17.067 8.48703 16.686 10.452Z" />
</svg>
