<svg viewBox="0 0 24 24" fill="currentColor" stroke="currentColor" xmlns="http://www.w3.org/2000/svg">
<path d="M17.625 3H6.375C4.125 3 3 4.125 3 6.375V17.625C3 19.875 4.125 21 6.375 21H17.625C19.875 21 21 19.875 21 17.625V6.375C21 4.125 19.875 3 17.625 3ZM16.8311 11.393L15.031 13.15C14.899 13.278 14.839 13.464 14.87 13.645L15.282 16.05C15.365 16.538 14.8549 16.91 14.4189 16.68L12.259 15.543C12.097 15.458 11.9039 15.458 11.7419 15.543L9.58398 16.679C9.14598 16.909 8.63599 16.536 8.71899 16.048L9.13098 13.645C9.16198 13.463 9.10197 13.278 8.96997 13.15L7.17004 11.393C6.83904 11.07 7.02103 10.507 7.47803 10.44L9.96802 10.078C10.149 10.052 10.306 9.93701 10.387 9.77301L11.4659 7.58398C11.6849 7.13998 12.316 7.13998 12.535 7.58398L13.614 9.77301C13.695 9.93801 13.852 10.052 14.033 10.078L16.5229 10.44C16.9799 10.506 17.1621 11.07 16.8311 11.393Z" />
</svg>
