<svg viewBox="0 0 24 24" fill="currentColor" stroke="currentColor" xmlns="http://www.w3.org/2000/svg">
<path d="M12 2C6.48 2 2 6.48 2 12C2 17.52 6.48 22 12 22C17.52 22 22 17.52 22 12C22 6.48 17.52 2 12 2ZM15 8.25C15.72 8.25 16.25 8.99 16.25 10C16.25 11.01 15.72 11.75 15 11.75C14.28 11.75 13.75 11.01 13.75 10C13.75 8.99 14.28 8.25 15 8.25ZM9 8.25C9.72 8.25 10.25 8.99 10.25 10C10.25 11.01 9.72 11.75 9 11.75C8.28 11.75 7.75 11.01 7.75 10C7.75 8.99 8.28 8.25 9 8.25ZM16.45 17.6C16.31 17.7 16.16 17.75 16 17.75C15.77 17.75 15.55 17.65 15.4 17.45C14.6 16.39 13.33 15.75 12.01 15.75C10.69 15.75 9.43 16.37 8.61 17.45C8.36 17.78 7.89 17.84 7.56 17.59C7.23 17.34 7.17 16.87 7.42 16.54C8.53 15.08 10.2 14.24 12.02 14.24C13.84 14.24 15.53 15.1 16.61 16.54C16.86 16.87 16.79 17.34 16.46 17.59L16.45 17.6Z" />
</svg>
