<svg viewBox="0 0 24 24" fill="currentColor" stroke="currentColor" xmlns="http://www.w3.org/2000/svg">
<path d="M12 2C6.48 2 2 6.48 2 12C2 17.52 6.48 22 12 22C17.52 22 22 17.52 22 12C22 6.48 17.52 2 12 2ZM6.3 9.98C5.81 9.17 5.86 8.15 6.8 7.81C7.5 7.55 8.04001 8.28999 8.04001 8.28999C8.04001 8.28999 7.97001 7.38 8.68001 7.12C9.63001 6.77999 10.31 7.53001 10.46 8.46001C10.7 9.99001 9.2 11.46 9.2 11.46C9.2 11.46 7.1 11.3 6.3 9.97V9.98ZM12 18C10.05 18 8.43001 16.65 8.01001 14.83C7.92001 14.43 8.34 14.12 8.72 14.28C10.9 15.15 13.08 15.15 15.27 14.28C15.65 14.13 16.08 14.43 15.98 14.83C15.56 16.65 13.94 18 11.99 18H12ZM17.69 9.97C16.89 11.3 14.79 11.46 14.79 11.46C14.79 11.46 13.28 9.98 13.53 8.45C13.68 7.51 14.37 6.77 15.32 7.11C16.02 7.36 16 8.16 16 8.16C16 8.16 16.49 7.54 17.2 7.8C18.14 8.15 18.19 9.16 17.7 9.98L17.69 9.97Z" />
</svg>
