<svg viewBox="0 0 24 24" fill="currentColor" stroke="currentColor" xmlns="http://www.w3.org/2000/svg">
<path d="M12 2C6.48 2 2 6.48 2 12C2 17.52 6.48 22 12 22C17.52 22 22 17.52 22 12C22 6.48 17.52 2 12 2ZM9 8.25C9.72 8.25 10.25 8.99 10.25 10C10.25 11.01 9.72 11.75 9 11.75C8.28 11.75 7.75 11.01 7.75 10C7.75 8.99 8.28 8.25 9 8.25ZM15 15.75C11.58 15.75 9.95 17.11 9.53 17.53C9.38 17.68 9.19 17.75 9 17.75C8.81 17.75 8.62 17.68 8.47 17.53C8.18 17.24 8.18 16.76 8.47 16.47C9.14 15.8 11.11 14.25 15 14.25C15.41 14.25 15.75 14.59 15.75 15C15.75 15.41 15.41 15.75 15 15.75ZM15 11.75C14.28 11.75 13.75 11.01 13.75 10C13.75 8.99 14.28 8.25 15 8.25C15.72 8.25 16.25 8.99 16.25 10C16.25 11.01 15.72 11.75 15 11.75Z" />
</svg>
