<svg viewBox="0 0 24 24" fill="currentColor" stroke="currentColor" xmlns="http://www.w3.org/2000/svg">
<path d="M12 2C6.48 2 2 6.48 2 12C2 17.52 6.48 22 12 22C17.52 22 22 17.52 22 12C22 6.48 17.52 2 12 2ZM9 15.75C8.28 15.75 7.75 15.01 7.75 14C7.75 12.99 8.28 12.25 9 12.25C9.72 12.25 10.25 12.99 10.25 14C10.25 15.01 9.72 15.75 9 15.75ZM15 15.75C14.28 15.75 13.75 15.01 13.75 14C13.75 12.99 14.28 12.25 15 12.25C15.72 12.25 16.25 12.99 16.25 14C16.25 15.01 15.72 15.75 15 15.75ZM16.44 9.60001C16.3 9.70001 16.15 9.75 15.99 9.75C15.76 9.75 15.54 9.65 15.39 9.45C14.59 8.39 13.32 7.75 12 7.75C10.68 7.75 9.41998 8.37 8.59998 9.45C8.34998 9.78 7.87999 9.84 7.54999 9.59C7.21999 9.34 7.15997 8.86999 7.40997 8.53999C8.51997 7.07999 10.19 6.24001 12.01 6.24001C13.83 6.24001 15.52 7.09999 16.6 8.53999C16.85 8.86999 16.78 9.34 16.45 9.59L16.44 9.60001Z" />
</svg>
