<svg viewBox="0 0 24 24" fill="currentColor" stroke="currentColor" xmlns="http://www.w3.org/2000/svg">
<path d="M12 2C6.48 2 2 6.48 2 12C2 17.52 6.48 22 12 22C17.52 22 22 17.52 22 12C22 6.48 17.52 2 12 2ZM9 8.25C9.72 8.25 10.25 8.99 10.25 10C10.25 11.01 9.72 11.75 9 11.75C8.28 11.75 7.75 11.01 7.75 10C7.75 8.99 8.28 8.25 9 8.25ZM15.12 15.74L9.12 16.74C9.12 16.74 9.04 16.75 9 16.75C8.64 16.75 8.32001 16.49 8.26001 16.12C8.19001 15.71 8.47001 15.32 8.88 15.26L14.88 14.26C15.29 14.19 15.67 14.47 15.74 14.88C15.81 15.29 15.53 15.68 15.12 15.74ZM15 11.75C14.28 11.75 13.75 11.01 13.75 10C13.75 8.99 14.28 8.25 15 8.25C15.72 8.25 16.25 8.99 16.25 10C16.25 11.01 15.72 11.75 15 11.75Z" />
</svg>
