<svg viewBox="0 0 24 24" fill="currentColor" stroke="currentColor" xmlns="http://www.w3.org/2000/svg">
<path d="M12 2C6.48 2 2 6.48 2 12C2 17.52 6.48 22 12 22C17.52 22 22 17.52 22 12C22 6.48 17.52 2 12 2ZM7.93002 9.74001C7.80002 10.13 7.37001 10.34 6.98001 10.2C6.59001 10.06 6.38002 9.64 6.52002 9.25C6.83002 8.35 7.68001 7.74001 8.64001 7.74001C9.60001 7.74001 10.45 8.34 10.76 9.25C10.89 9.64 10.69 10.07 10.3 10.2C10.22 10.23 10.14 10.24 10.05 10.24C9.74002 10.24 9.45 10.05 9.34 9.73C9.24 9.44 8.95001 9.24001 8.64001 9.24001C8.33001 9.24001 8.04 9.44 7.94 9.73L7.93002 9.74001ZM12 18C9.99 18 8.33001 16.52 8.04001 14.59C8.00001 14.28 8.23001 14 8.54001 14H15.46C15.77 14 16 14.28 15.96 14.59C15.68 16.52 14.02 18 12 18ZM17.11 10.21C17.03 10.24 16.95 10.25 16.86 10.25C16.55 10.25 16.26 10.06 16.15 9.74001C16.05 9.45001 15.76 9.25 15.45 9.25C15.14 9.25 14.85 9.45001 14.75 9.74001C14.62 10.13 14.19 10.34 13.8 10.2C13.41 10.06 13.2 9.64 13.34 9.25C13.65 8.35 14.5 7.74001 15.46 7.74001C16.42 7.74001 17.27 8.34 17.58 9.25C17.71 9.64 17.51 10.07 17.12 10.2L17.11 10.21Z" />
</svg>
