<svg viewBox="0 0 24 24" fill="currentColor" stroke="currentColor" xmlns="http://www.w3.org/2000/svg">
<path d="M12 2C6.48 2 2 6.48 2 12C2 17.52 6.48 22 12 22C17.52 22 22 17.52 22 12C22 6.48 17.52 2 12 2ZM7.25 10C7.25 9.59 7.59 9.25 8 9.25H10C10.41 9.25 10.75 9.59 10.75 10C10.75 10.41 10.41 10.75 10 10.75H8C7.59 10.75 7.25 10.41 7.25 10ZM15 16.75H9C8.59 16.75 8.25 16.41 8.25 16C8.25 15.59 8.59 15.25 9 15.25H15C15.41 15.25 15.75 15.59 15.75 16C15.75 16.41 15.41 16.75 15 16.75ZM16 10.75H14C13.59 10.75 13.25 10.41 13.25 10C13.25 9.59 13.59 9.25 14 9.25H16C16.41 9.25 16.75 9.59 16.75 10C16.75 10.41 16.41 10.75 16 10.75Z" />
</svg>
