<svg viewBox="0 0 24 24" fill="currentColor" stroke="currentColor" xmlns="http://www.w3.org/2000/svg">
<path d="M12 2C6.48 2 2 6.48 2 12C2 17.52 6.48 22 12 22C17.52 22 22 17.52 22 12C22 6.48 17.52 2 12 2ZM9 8.25C9.72 8.25 10.25 8.99 10.25 10C10.25 11.01 9.72 11.75 9 11.75C8.28 11.75 7.75 11.01 7.75 10C7.75 8.99 8.28 8.25 9 8.25ZM16.6 15.45C15.49 16.91 13.82 17.75 12 17.75C10.18 17.75 8.49 16.89 7.41 15.45C7.16 15.12 7.23 14.65 7.56 14.4C7.89 14.15 8.35999 14.22 8.60999 14.55C9.40999 15.61 10.68 16.25 12 16.25C13.32 16.25 14.58 15.63 15.4 14.55C15.65 14.22 16.12 14.16 16.45 14.41C16.78 14.66 16.84 15.13 16.59 15.46L16.6 15.45ZM16.25 11.06C16.17 11.09 16.09 11.1 16.01 11.1C15.7 11.1 15.41 10.9 15.3 10.59C15.27 10.49 15.16 10.39 15.01 10.39C14.86 10.39 14.75 10.5 14.72 10.6C14.59 10.99 14.16 11.2 13.77 11.06C13.38 10.92 13.17 10.5 13.31 10.11C13.56 9.38 14.25 8.89 15.02 8.89C15.79 8.89 16.48 9.38 16.73 10.11C16.86 10.5 16.66 10.93 16.27 11.06H16.25Z" />
</svg>
