<svg viewBox="0 0 24 24" fill="currentColor" stroke="currentColor" xmlns="http://www.w3.org/2000/svg">
<path d="M12 2C6.48 2 2 6.48 2 12C2 17.52 6.48 22 12 22C17.52 22 22 17.52 22 12C22 6.48 17.52 2 12 2ZM6.25 10C6.25 9.59 6.59 9.25 7 9.25H9.5C10.22 9.25 10.75 9.99 10.75 11C10.75 12.01 10.22 12.75 9.5 12.75C8.78 12.75 8.25 12.01 8.25 11C8.25 10.91 8.25002 10.83 8.27002 10.75H7C6.59 10.75 6.25 10.41 6.25 10ZM16.52 15.52L15.95 16.09C15.53 16.51 14.96 16.75 14.36 16.75H8.97998C8.56998 16.75 8.22998 16.41 8.22998 16C8.22998 15.59 8.56998 15.25 8.97998 15.25H14.36C14.56 15.25 14.75 15.17 14.89 15.03L15.46 14.46C15.75 14.17 16.23 14.17 16.52 14.46C16.81 14.75 16.81 15.23 16.52 15.52ZM16.5 12.75C15.78 12.75 15.25 12.01 15.25 11C15.25 10.91 15.25 10.83 15.27 10.75H14C13.59 10.75 13.25 10.41 13.25 10C13.25 9.59 13.59 9.25 14 9.25H16.5C17.22 9.25 17.75 9.99 17.75 11C17.75 12.01 17.22 12.75 16.5 12.75Z" />
</svg>
