<svg viewBox="0 0 24 24" fill="currentColor" stroke="currentColor" xmlns="http://www.w3.org/2000/svg">
<path d="M12 2C6.48 2 2 6.48 2 12C2 17.52 6.48 22 12 22C17.52 22 22 17.52 22 12C22 6.48 17.52 2 12 2ZM15 8.25C15.72 8.25 16.25 8.99 16.25 10C16.25 11.01 15.72 11.75 15 11.75C14.28 11.75 13.75 11.01 13.75 10C13.75 8.99 14.28 8.25 15 8.25ZM9 8.25C9.72 8.25 10.25 8.99 10.25 10C10.25 11.01 9.72 11.75 9 11.75C8.28 11.75 7.75 11.01 7.75 10C7.75 8.99 8.28 8.25 9 8.25ZM9 17.5C8.23 17.5 7.6 16.91 7.6 16.05C7.6 14.97 9 13.5 9 13.5C9 13.5 10.4 14.97 10.4 16.05C10.4 16.91 9.77 17.5 9 17.5ZM16.44 17.6C16.31 17.7 16.15 17.75 15.99 17.75C15.76 17.75 15.54 17.65 15.39 17.45C14.59 16.39 13.32 15.75 12 15.75C11.96 15.75 11.92 15.75 11.88 15.76C11.83 15.25 11.64 14.75 11.4 14.29C11.6 14.26 11.8 14.25 12 14.25C13.79 14.25 15.51 15.11 16.59 16.55C16.84 16.88 16.77 17.35 16.44 17.6Z" />
</svg>
