<svg viewBox="0 0 24 24" fill="currentColor" stroke="currentColor" xmlns="http://www.w3.org/2000/svg">
<path d="M12 2C6.48 2 2 6.48 2 12C2 17.52 6.48 22 12 22C17.52 22 22 17.52 22 12C22 6.48 17.52 2 12 2ZM7.75 11C7.75 10.73 7.78999 10.49 7.85999 10.27L6.67001 9.67C6.30001 9.48 6.14999 9.03 6.32999 8.66C6.51999 8.29 6.97 8.14001 7.34 8.32001L9.23999 9.27C9.38999 9.3 9.52001 9.38 9.64001 9.47L10.84 10.07C11.21 10.26 11.36 10.71 11.18 11.08C11.05 11.34 10.78 11.49 10.51 11.49C10.41 11.49 10.32 11.46 10.22 11.42C10.09 12.2 9.62001 12.74 9.01001 12.74C8.29001 12.74 7.76001 12 7.76001 10.99L7.75 11ZM14.45 16.6C14.31 16.7 14.16 16.75 14 16.75C13.77 16.75 13.55 16.65 13.4 16.45C12.73 15.57 11.28 15.56 10.6 16.45C10.35 16.78 9.87999 16.84 9.54999 16.59C9.21999 16.34 9.16 15.87 9.41 15.54C10.04 14.72 10.98 14.24 12.01 14.24C13.04 14.24 13.99 14.73 14.6 15.54C14.85 15.87 14.78 16.34 14.45 16.59V16.6ZM17.33 9.67L16.14 10.27C16.21 10.49 16.25 10.74 16.25 11C16.25 12.01 15.72 12.75 15 12.75C14.38 12.75 13.92 12.22 13.79 11.43C13.7 11.47 13.6 11.5 13.5 11.5C13.22 11.5 12.96 11.35 12.83 11.09C12.64 10.72 12.79 10.27 13.17 10.08L14.37 9.48C14.49 9.39 14.62 9.32 14.77 9.28L16.67 8.33C17.04 8.14 17.49 8.3 17.68 8.67C17.87 9.04 17.72 9.48999 17.34 9.67999L17.33 9.67Z" />
</svg>
