<svg viewBox="0 0 24 24" fill="currentColor" stroke="currentColor" xmlns="http://www.w3.org/2000/svg">
<path d="M21.75 5.17999C21.75 6.02999 21.27 6.66999 20.59 6.89999C20.41 6.96999 20.21 7 20 7C19.03 7 18.25 6.25999 18.25 5.17999C18.25 4.90999 18.3199 4.63 18.4299 4.34C18.8799 3.18 20 2 20 2C20 2 21.75 3.83999 21.75 5.17999ZM22 12C22 17.61 17.36 22.15 11.71 22C6.48997 21.85 2.13995 17.51 1.99995 12.29C1.83995 6.63999 6.37995 2 12 2C13.81 2 15.49 2.48001 16.95 3.32001C17.08 3.40001 17.13 3.56 17.07 3.7C16.88 4.19 16.7399 4.69 16.7399 5.19C16.7399 7.05 18.1699 8.50999 19.9899 8.50999C20.3399 8.50999 20.6599 8.46 20.9799 8.36C21.1399 8.31 21.2999 8.38 21.3599 8.53C21.7699 9.61 21.9899 10.78 21.9899 12.01L22 12ZM8.58998 9.25C8.89998 9.25 9.18993 9.45001 9.28993 9.74001C9.39993 10.05 9.68995 10.25 9.99995 10.25C10.08 10.25 10.16 10.24 10.25 10.21C10.64 10.07 10.85 9.64999 10.71 9.25999C10.4 8.35999 9.54998 7.75 8.58998 7.75C7.62998 7.75 6.77992 8.34999 6.46992 9.25999C6.33992 9.64999 6.53995 10.08 6.92995 10.21C7.32995 10.35 7.74996 10.14 7.87996 9.75C7.97996 9.46 8.26997 9.25999 8.57997 9.25999L8.58998 9.25ZM15.9899 14.83C16.0799 14.43 15.66 14.12 15.28 14.28C13.1 15.15 10.9199 15.15 8.72993 14.28C8.34993 14.13 7.91997 14.43 8.01997 14.83C8.43997 16.65 10.06 18 12.01 18C13.96 18 15.58 16.65 16 14.83H15.9899ZM17.53 9.25C17.22 8.35 16.3699 7.74001 15.4099 7.74001C14.4499 7.74001 13.5999 8.34 13.2899 9.25C13.1599 9.64 13.36 10.07 13.75 10.2C14.15 10.34 14.57 10.13 14.7 9.74001C14.8 9.45001 15.09 9.25 15.4 9.25C15.71 9.25 15.9999 9.45001 16.0999 9.74001C16.2099 10.05 16.4999 10.25 16.8099 10.25C16.8899 10.25 16.9699 10.24 17.0599 10.21C17.45 10.07 17.66 9.64999 17.52 9.25999L17.53 9.25Z" />
</svg>
