<svg viewBox="0 0 24 24" fill="currentColor" stroke="currentColor" xmlns="http://www.w3.org/2000/svg">
<path d="M12 2C6.48 2 2 6.48 2 12C2 17.52 6.48 22 12 22C17.52 22 22 17.52 22 12C22 6.48 17.52 2 12 2ZM6.88 11.17L7.08 10.03C7.09 9.94 7.07 9.86 7 9.8L6.14 8.97C5.98 8.82 6.06999 8.55 6.28999 8.52L7.48 8.35001C7.57 8.34001 7.63999 8.28001 7.67999 8.21001L8.19 7.17C8.29 6.96 8.6 6.96 8.7 7.17L9.21001 8.21001C9.25001 8.29001 9.32 8.34001 9.41 8.35001L10.6 8.52C10.82 8.55 10.9 8.82 10.75 8.97L9.89 9.8C9.83 9.86 9.8 9.95 9.81 10.03L10.01 11.17C10.05 11.4 9.81001 11.58 9.60001 11.47L8.57001 10.93C8.49001 10.89 8.40001 10.89 8.32001 10.93L7.28999 11.47C7.07999 11.58 6.84 11.4 6.88 11.17ZM12.06 18C10.11 18 8.49001 16.65 8.07001 14.83C7.98001 14.43 8.4 14.12 8.78 14.28C10.96 15.15 13.14 15.15 15.33 14.28C15.71 14.13 16.14 14.43 16.04 14.83C15.62 16.65 14 18 12.05 18H12.06ZM17.98 8.96001L17.12 9.78999C17.06 9.84999 17.03 9.94 17.04 10.02L17.24 11.16C17.28 11.39 17.04 11.57 16.83 11.46L15.8 10.92C15.72 10.88 15.63 10.88 15.55 10.92L14.52 11.46C14.31 11.57 14.07 11.39 14.11 11.16L14.31 10.02C14.32 9.93 14.3 9.84999 14.23 9.78999L13.37 8.96001C13.21 8.81001 13.3 8.53999 13.52 8.50999L14.71 8.34C14.8 8.33 14.87 8.27 14.91 8.2L15.42 7.16C15.52 6.95 15.83 6.95 15.93 7.16L16.44 8.2C16.48 8.28 16.55 8.33 16.64 8.34L17.83 8.50999C18.05 8.53999 18.13 8.81001 17.98 8.96001Z" />
</svg>
