<svg viewBox="0 0 24 24" fill="currentColor" stroke="currentColor" xmlns="http://www.w3.org/2000/svg">
<path d="M20.21 6.3H19.2C18.7 6.3 18.25 6.06 17.97 5.66C17.94 5.71 17.9 5.76 17.86 5.8L16.81 6.85001H17.33C17.75 6.85001 18.08 7.19001 18.08 7.60001C18.08 8.01001 17.75 8.35001 17.33 8.35001H15C14.7 8.35001 14.42 8.17 14.31 7.89C14.19 7.61 14.25 7.28001 14.47 7.07001L15.52 6.02H15C14.59 6.02 14.25 5.68 14.25 5.27C14.25 4.86 14.59 4.52 15 4.52H17.33C17.47 4.52 17.61 4.56 17.72 4.63C17.74 4.4 17.82 4.17 17.95 3.97C16.29 2.73 14.23 2 12 2C6.48 2 2 6.48 2 12C2 17.52 6.48 22 12 22C17.52 22 22 17.52 22 12C22 9.88 21.34 7.92 20.21 6.3ZM10 12.25C9.69 12.25 9.39998 12.06 9.28998 11.74C9.18998 11.45 8.90003 11.25 8.59003 11.25C8.28003 11.25 7.99001 11.45 7.89001 11.74C7.76001 12.13 7.33 12.34 6.94 12.2C6.55 12.06 6.33998 11.64 6.47998 11.25C6.78998 10.35 7.63998 9.74001 8.59998 9.74001C9.55998 9.74001 10.41 10.34 10.72 11.25C10.85 11.64 10.65 12.07 10.26 12.2C10.18 12.23 10.1 12.24 10.01 12.24L10 12.25ZM12 18C11.17 18 10.5 17.33 10.5 16.5C10.5 15.67 11.17 15 12 15C12.83 15 13.5 15.67 13.5 16.5C13.5 17.33 12.83 18 12 18ZM17.07 12.21C16.99 12.24 16.91 12.25 16.82 12.25C16.51 12.25 16.22 12.06 16.11 11.74C16.01 11.45 15.72 11.25 15.41 11.25C15.1 11.25 14.81 11.45 14.71 11.74C14.58 12.13 14.15 12.34 13.76 12.2C13.37 12.06 13.16 11.64 13.3 11.25C13.61 10.35 14.46 9.74001 15.42 9.74001C16.38 9.74001 17.23 10.34 17.54 11.25C17.67 11.64 17.47 12.07 17.08 12.2L17.07 12.21ZM22.75 4.8C22.75 5.21 22.41 5.55 22 5.55H19.2C18.9 5.55 18.62 5.37 18.51 5.09C18.42 4.88 18.44 4.64 18.55 4.45C18.57 4.38 18.62 4.32 18.67 4.27L20.19 2.75H19.2C18.79 2.75 18.45 2.41 18.45 2C18.45 1.59 18.79 1.25 19.2 1.25H22C22.3 1.25 22.58 1.43001 22.69 1.71001C22.81 1.99001 22.75 2.32 22.53 2.53L21.01 4.05H22C22.41 4.05 22.75 4.39 22.75 4.8Z" />
</svg>
