<svg viewBox="0 0 24 24" fill="currentColor" stroke="currentColor" xmlns="http://www.w3.org/2000/svg">
<path d="M14.25 18.5C14.25 16.16 16.16 14.25 18.5 14.25H20.95C20.98 14.09 21 13.92 21 13.76V6.38C21 4 20 3 17.62 3H6.37C3.99 3 2.98999 4 2.98999 6.38V17.63C2.98999 20.01 3.99 21.01 6.37 21.01H13.75C13.92 21.01 14.08 20.99 14.24 20.96V18.51L14.25 18.5ZM15.01 8.75C15.7 8.75 16.26 9.31 16.26 10C16.26 10.69 15.7 11.25 15.01 11.25C14.32 11.25 13.76 10.69 13.76 10C13.76 9.31 14.31 8.75 15.01 8.75ZM7.76001 10C7.76001 9.31 8.31001 8.75 9.01001 8.75C9.70001 8.75 10.26 9.31 10.26 10C10.26 10.69 9.70001 11.25 9.01001 11.25C8.32001 11.25 7.76001 10.69 7.76001 10ZM13.67 15.67C12.6 15.16 11.35 15.17 10.33 15.67C10.22 15.72 10.11 15.75 10 15.75C9.72 15.75 9.45999 15.6 9.32999 15.33C9.14999 14.96 9.30001 14.51 9.67001 14.32C11.1 13.61 12.84 13.59 14.33 14.3C14.7 14.48 14.86 14.93 14.68 15.3C14.5 15.67 14.05 15.83 13.68 15.65L13.67 15.67ZM20.22 15.75C20.22 15.75 20.15 15.84 20.11 15.88L15.87 20.12C15.87 20.12 15.78 20.19 15.74 20.23V18.5C15.74 16.98 16.97 15.75 18.49 15.75H20.22Z" />
</svg>
