<svg viewBox="0 0 24 24" fill="currentColor" stroke="currentColor" xmlns="http://www.w3.org/2000/svg">
<path d="M14.25 18.5C14.25 16.16 16.16 14.25 18.5 14.25H20.95C20.98 14.09 21 13.92 21 13.76V6.38C21 4 20 3 17.62 3H6.37C3.99 3 2.98999 4 2.98999 6.38V17.63C2.98999 20.01 3.99 21.01 6.37 21.01H13.75C13.92 21.01 14.08 20.99 14.24 20.96V18.51L14.25 18.5ZM13.48 9.63C13.79 9.09 14.37 8.75 14.99 8.75C15.61 8.75 16.19 9.09 16.5 9.63C16.7 9.99001 16.58 10.45 16.22 10.65C16.1 10.72 15.98 10.75 15.85 10.75C15.59 10.75 15.33 10.61 15.2 10.37C15.18 10.33 15.12 10.25 14.99 10.25C14.9 10.25 14.82 10.29 14.78 10.37C14.58 10.73 14.12 10.86 13.76 10.65C13.4 10.45 13.27 9.99001 13.48 9.63ZM7.76001 10C7.76001 9.31 8.31001 8.75 9.01001 8.75C9.70001 8.75 10.26 9.31 10.26 10C10.26 10.69 9.70001 11.25 9.01001 11.25C8.32001 11.25 7.76001 10.69 7.76001 10ZM9.66998 15.22C9.29998 15.04 9.14001 14.59 9.32001 14.22C9.50001 13.85 9.95001 13.69 10.32 13.87C11.39 14.38 12.64 14.37 13.66 13.87C14.03 13.69 14.48 13.84 14.66 14.21C14.84 14.58 14.69 15.03 14.32 15.22C13.59 15.58 12.81 15.76 11.98 15.76C11.15 15.76 10.4 15.58 9.66998 15.23V15.22ZM20.23 15.75C20.23 15.75 20.16 15.84 20.12 15.88L15.88 20.12C15.88 20.12 15.79 20.19 15.75 20.23V18.5C15.75 16.98 16.98 15.75 18.5 15.75H20.23Z" />
</svg>
