<svg viewBox="0 0 24 24" fill="currentColor" stroke="currentColor" xmlns="http://www.w3.org/2000/svg">
<path d="M14.25 18.5C14.25 16.16 16.16 14.25 18.5 14.25H20.95C20.98 14.09 21 13.92 21 13.76V6.38C21 4 20 3 17.62 3H6.37C3.99 3 2.98999 4 2.98999 6.38V17.63C2.98999 20.01 3.99 21.01 6.37 21.01H13.75C13.92 21.01 14.08 20.99 14.24 20.96V18.51L14.25 18.5ZM15.01 8.75C15.7 8.75 16.26 9.31 16.26 10C16.26 10.69 15.7 11.25 15.01 11.25C14.32 11.25 13.76 10.69 13.76 10C13.76 9.31 14.31 8.75 15.01 8.75ZM7.76001 10C7.76001 9.31 8.31001 8.75 9.01001 8.75C9.70001 8.75 10.26 9.31 10.26 10C10.26 10.69 9.70001 11.25 9.01001 11.25C8.32001 11.25 7.76001 10.69 7.76001 10ZM9.67001 15.22C9.30001 15.04 9.14001 14.59 9.32001 14.22C9.50001 13.85 9.95001 13.69 10.32 13.87C11.39 14.38 12.64 14.37 13.66 13.87C14.03 13.69 14.48 13.84 14.66 14.21C14.84 14.58 14.69 15.03 14.32 15.22C13.59 15.58 12.81 15.76 11.98 15.76C11.15 15.76 10.4 15.58 9.67001 15.23V15.22ZM20.22 15.75C20.22 15.75 20.15 15.84 20.11 15.88L15.87 20.12C15.87 20.12 15.78 20.19 15.74 20.23V18.5C15.74 16.98 16.97 15.75 18.49 15.75H20.22Z" />
</svg>
