<svg viewBox="0 0 24 24" fill="currentColor" stroke="currentColor" xmlns="http://www.w3.org/2000/svg">
<path d="M12 7.75C15.06 7.75 16.75 6.06 16.75 3C16.75 2.59 16.41 2.25 16 2.25C12.94 2.25 11.25 3.94 11.25 7C11.25 7.41 11.59 7.75 12 7.75ZM15.2 3.79999C15.01 5.23999 14.24 6.01001 12.8 6.20001C12.99 4.76001 13.76 3.98999 15.2 3.79999ZM15.74 8.26999C14.24 7.95999 13.03 8.18999 12 8.98999C10.97 8.18999 9.77001 7.95999 8.26001 8.26999C5.71001 8.78999 4.25 10.88 4.25 14C4.25 17.49 6.73 21.75 9.63 21.75C10.57 21.75 11.05 21.55 11.4 21.4C11.63 21.3 11.75 21.25 12 21.25C12.25 21.25 12.37 21.3 12.6 21.4C12.95 21.55 13.43 21.75 14.37 21.75C17.27 21.75 19.75 17.49 19.75 14C19.75 10.88 18.29 8.78999 15.74 8.26999ZM14.37 20.25C13.73 20.25 13.48 20.14 13.18 20.02C12.9 19.9 12.55 19.75 12 19.75C11.45 19.75 11.1 19.9 10.82 20.02C10.53 20.14 10.27 20.25 9.63 20.25C7.85 20.25 5.75 16.86 5.75 14C5.75 12.32 6.24 10.22 8.56 9.73999C10.05 9.43999 10.8 9.82999 11.46 10.52C11.74 10.82 12.26 10.82 12.54 10.52C13.2 9.82999 13.94 9.42999 15.44 9.73999C17.76 10.22 18.25 12.32 18.25 14C18.25 16.86 16.15 20.25 14.37 20.25Z" />
</svg>
