<svg viewBox="0 0 24 24" fill="currentColor" stroke="currentColor" xmlns="http://www.w3.org/2000/svg">
<path d="M21.1 2.89999C20.41 2.20999 18.92 1.70998 15.78 3.32998C13.58 4.45998 11.07 6.37999 8.73002 8.71999C6.39002 11.06 4.47002 13.57 3.34002 15.77C1.72002 18.91 2.21003 20.4 2.91003 21.09C3.26003 21.44 3.82003 21.74 4.69003 21.74C5.56003 21.74 6.69003 21.46 8.24003 20.66C10.44 19.53 12.95 17.61 15.29 15.27C17.63 12.93 19.55 10.42 20.68 8.21999C22.3 5.07999 21.81 3.58999 21.11 2.89999H21.1ZM19.33 7.54C18.26 9.61 16.45 11.98 14.21 14.22C9.30003 19.13 4.86003 20.95 3.96003 20.04C3.61003 19.69 3.59003 18.55 4.67003 16.46C5.20003 15.43 5.91003 14.33 6.77003 13.21L9.48002 14.02C9.55002 14.04 9.62002 14.05 9.70002 14.05C10.02 14.05 10.32 13.84 10.42 13.52C10.54 13.12 10.31 12.71 9.92003 12.59L7.80003 11.95C8.10003 11.6 8.41002 11.25 8.73002 10.9L11.71 11.8C11.78 11.82 11.85 11.83 11.93 11.83C12.25 11.83 12.55 11.62 12.65 11.3C12.77 10.9 12.54 10.49 12.15 10.37L9.90002 9.70001C10.29 9.32 10.67 8.95998 11.05 8.60998L14.03 9.49999C14.1 9.51999 14.17 9.52999 14.24 9.52999C14.56 9.52999 14.86 9.31998 14.96 8.98998C15.08 8.58998 14.85 8.17999 14.46 8.05999L12.4 7.45001C15.44 4.96001 18.04 3.74999 19.34 3.74999C19.66 3.74999 19.91 3.81999 20.06 3.96999C20.41 4.31999 20.43 5.45998 19.35 7.54998L19.33 7.54Z" />
</svg>
