<svg viewBox="0 0 24 24" fill="currentColor" stroke="currentColor" xmlns="http://www.w3.org/2000/svg">
<path d="M19.99 10.2502H4.00998C3.50998 10.2502 3.02999 10.4702 2.68999 10.8502C2.35999 11.2302 2.19998 11.7302 2.25998 12.2202C2.38998 13.2802 2.70998 14.3102 3.17998 15.2502C3.17998 15.2802 3.19999 15.3001 3.20999 15.3301C4.04999 17.0201 5.36998 18.4602 7.03998 19.4302C7.12998 19.4802 7.18999 19.5702 7.18999 19.6602V20.0102C7.18999 20.9702 7.97999 21.7602 8.93999 21.7602H15.06C16.02 21.7602 16.81 20.9702 16.81 20.0102V19.6602C16.81 19.5702 16.87 19.4902 16.96 19.4302C18.62 18.4602 19.95 17.0201 20.79 15.3301C20.8 15.3101 20.81 15.2902 20.82 15.2702C21.29 14.3202 21.61 13.2902 21.74 12.2302C21.8 11.7302 21.65 11.2301 21.31 10.8601C20.98 10.4801 20.5 10.2602 19.99 10.2602V10.2502ZM3.80998 11.8402C3.80998 11.8402 3.89998 11.7502 3.99998 11.7502H19.98C20.08 11.7502 20.15 11.8102 20.17 11.8402C20.2 11.8702 20.24 11.9402 20.23 12.0302C20.13 12.8002 19.91 13.5402 19.61 14.2502H4.35999C4.05999 13.5502 3.83999 12.8002 3.73999 12.0302C3.72999 11.9402 3.76999 11.8702 3.79999 11.8402H3.80998ZM16.2 18.1302C15.64 18.4602 15.3 19.0302 15.3 19.6502V20.0002C15.3 20.1402 15.19 20.2502 15.05 20.2502H8.92998C8.78998 20.2502 8.67998 20.1402 8.67998 20.0002V19.6502C8.67998 19.0202 8.34998 18.4502 7.77998 18.1302C6.74998 17.5302 5.87998 16.7102 5.19998 15.7502H18.77C18.09 16.7102 17.22 17.5302 16.19 18.1302H16.2ZM4.96999 8.51017L6.67998 8.72016C6.87998 8.74016 7.07999 8.76017 7.26999 8.76017C8.13999 8.76017 8.87998 8.51015 9.42998 8.02015C9.78998 7.70015 10.18 7.15017 10.34 6.26017H21C21.41 6.26017 21.75 5.92017 21.75 5.51017C21.75 5.10017 21.41 4.76017 21 4.76017H10.34C10.19 3.87017 9.78998 3.32016 9.42998 3.00016C8.75998 2.40016 7.80998 2.16017 6.67998 2.29017L4.96999 2.50016C3.41999 2.69016 2.23999 3.98017 2.23999 5.51017C2.23999 7.04017 3.40999 8.33015 4.96999 8.52015V8.51017ZM5.14998 3.98017L6.85999 3.77015C7.53999 3.69015 8.09999 3.81015 8.43999 4.11015C8.75999 4.39015 8.91998 4.86016 8.91998 5.50016C8.91998 6.14016 8.75999 6.60018 8.43999 6.89018C8.09999 7.19018 7.53999 7.31017 6.85999 7.23017L5.14998 7.02015C4.34998 6.92015 3.73999 6.27016 3.73999 5.50016C3.73999 4.73016 4.34998 4.08017 5.14998 3.98017Z" />
</svg>
