<svg viewBox="0 0 24 24" fill="currentColor" stroke="currentColor" xmlns="http://www.w3.org/2000/svg">
<path d="M20 16.25H4C3.31 16.25 2.75 16.81 2.75 17.5V18C2.75 20.42 4.08 21.75 6.5 21.75H17.5C19.92 21.75 21.25 20.42 21.25 18V17.5C21.25 16.81 20.69 16.25 20 16.25ZM19.75 18C19.75 19.58 19.08 20.25 17.5 20.25H6.5C4.92 20.25 4.25 19.58 4.25 18V17.75H19.75V18ZM4 11.75H20C20.69 11.75 21.25 11.19 21.25 10.5V10C21.25 5.29 17.62 2.25 12 2.25C6.38 2.25 2.75 5.29 2.75 10V10.5C2.75 11.19 3.31 11.75 4 11.75ZM4.25 10C4.25 6.15 7.22 3.75 12 3.75C16.78 3.75 19.75 6.15 19.75 10V10.25H4.25V10ZM21.75 14C21.75 14.41 21.41 14.75 21 14.75H3C2.59 14.75 2.25 14.41 2.25 14C2.25 13.59 2.59 13.25 3 13.25H21C21.41 13.25 21.75 13.59 21.75 14ZM8.69 6.71001C8.73 6.81001 8.75 6.9 8.75 7C8.75 7.2 8.67 7.39 8.53 7.53C8.46 7.6 8.38001 7.65 8.29001 7.69C8.19001 7.73 8.1 7.75 8 7.75C7.9 7.75 7.79999 7.73 7.70999 7.69C7.61999 7.65 7.54 7.6 7.47 7.53C7.4 7.46 7.35 7.37999 7.31 7.28999C7.27 7.19999 7.25 7.1 7.25 7C7.25 6.9 7.27 6.80001 7.31 6.71001C7.35 6.62001 7.4 6.54 7.47 6.47C7.68 6.26 8.01001 6.19 8.29001 6.31C8.38001 6.35 8.46 6.4 8.53 6.47C8.6 6.54 8.65 6.62001 8.69 6.71001ZM12.69 5.71001C12.73 5.80001 12.75 5.9 12.75 6C12.75 6.1 12.73 6.19999 12.69 6.28999C12.65 6.37999 12.6 6.46 12.53 6.53C12.39 6.67 12.2 6.75 12 6.75C11.9 6.75 11.8 6.73 11.71 6.69C11.62 6.65 11.54 6.6 11.47 6.53C11.4 6.46 11.35 6.37999 11.31 6.28999C11.27 6.19999 11.25 6.1 11.25 6C11.25 5.9 11.27 5.80001 11.31 5.71001C11.34 5.62001 11.4 5.54 11.47 5.47C11.54 5.4 11.62 5.35 11.71 5.31C11.99 5.19 12.32 5.26 12.53 5.47C12.6 5.54 12.65 5.62001 12.69 5.71001ZM16.69 6.71001C16.73 6.80001 16.75 6.9 16.75 7C16.75 7.2 16.67 7.39 16.53 7.53C16.46 7.6 16.38 7.65 16.29 7.69C16.19 7.73 16.1 7.75 16 7.75C15.9 7.75 15.8 7.73 15.71 7.69C15.62 7.65 15.54 7.6 15.47 7.53C15.33 7.39 15.25 7.2 15.25 7C15.25 6.9 15.27 6.80001 15.31 6.71001C15.34 6.62001 15.4 6.54 15.47 6.47C15.54 6.4 15.62 6.35 15.71 6.31C15.9 6.23 16.1 6.23 16.29 6.31C16.38 6.35 16.46 6.4 16.53 6.47C16.6 6.54 16.65 6.62001 16.69 6.71001Z" />
</svg>
