<svg viewBox="0 0 24 24" fill="currentColor" stroke="currentColor" xmlns="http://www.w3.org/2000/svg">
<path d="M21 17.25H20.75V10C20.75 7.58 19.42 6.25 17 6.25H16.75V4C16.75 3.59 16.41 3.25 16 3.25C15.59 3.25 15.25 3.59 15.25 4V6.25H12.75V4C12.75 3.59 12.41 3.25 12 3.25C11.59 3.25 11.25 3.59 11.25 4V6.25H8.75V4C8.75 3.59 8.41 3.25 8 3.25C7.59 3.25 7.25 3.59 7.25 4V6.25H7C4.58 6.25 3.25 7.58 3.25 10V17.25H3C2.59 17.25 2.25 17.59 2.25 18V19.5C2.25 20.74 3.26 21.75 4.5 21.75H19.5C20.74 21.75 21.75 20.74 21.75 19.5V18C21.75 17.59 21.41 17.25 21 17.25ZM7 7.75H17C18.58 7.75 19.25 8.42 19.25 10V11.15C18.51 11.45 17.87 12.13 17.41 12.75C16.87 11.93 15.97 11 14.67 11C13.37 11 12.55 11.85 12.01 12.64C11.46 11.85 10.59 11 9.35001 11C8.11001 11 7.14999 11.93 6.60999 12.75C6.14999 12.13 5.49999 11.45 4.76999 11.15V10C4.76999 8.42 5.43999 7.75 7.01999 7.75H7ZM4.75 12.92C5.21 13.35 5.7 14.04 6 14.6C6.14 14.86 6.42 15.02 6.72 14.99C7.02 14.97 7.27 14.77 7.37 14.5C7.37 14.48 8.13 12.5 9.34 12.5C10.55 12.5 11.29 14.48 11.3 14.5C11.41 14.8 11.69 15 12.01 15C12.33 15 12.61 14.8 12.72 14.5C12.9 13.98 13.65 12.5 14.68 12.5C15.89 12.5 16.64 14.48 16.65 14.5C16.75 14.78 17.01 14.97 17.3 14.99C17.61 15.02 17.88 14.86 18.02 14.6C18.32 14.04 18.81 13.36 19.27 12.92V17.25H4.76999V12.92H4.75ZM20.25 19.5C20.25 19.91 19.91 20.25 19.5 20.25H4.5C4.09 20.25 3.75 19.91 3.75 19.5V18.75H20.25V19.5Z" />
</svg>
