<svg viewBox="0 0 24 24" fill="currentColor" stroke="currentColor" xmlns="http://www.w3.org/2000/svg">
<path d="M21.75 11.96C21.54 8.10003 19.06 4.73002 15.42 3.37002C14.81 3.14002 14.12 3.24003 13.56 3.63003L3.20001 10.94C2.60001 11.36 2.25 12.05 2.25 12.78V18C2.25 19.52 3.48 20.75 5 20.75H19C20.52 20.75 21.75 19.52 21.75 18V12C21.75 12 21.75 11.97 21.75 11.96ZM3.75 12.78C3.75 12.78 3.75 12.76 3.75 12.75H20.24V15.25H3.73999V12.78H3.75ZM14.42 4.86003C14.52 4.79003 14.63 4.75003 14.74 4.75003C14.79 4.75003 14.84 4.75002 14.89 4.78002C17.72 5.84002 19.7 8.33002 20.15 11.25H5.35999L14.42 4.86003ZM19 19.25H5C4.31 19.25 3.75 18.69 3.75 18V16.75H20.25V18C20.25 18.69 19.69 19.25 19 19.25Z" />
</svg>
