<svg viewBox="0 0 24 24" fill="currentColor" stroke="currentColor" xmlns="http://www.w3.org/2000/svg">
<path d="M18.32 11.49C19.25 10.37 19.75 8.98001 19.75 7.51001C19.75 7.04001 19.69 6.58 19.59 6.13C19.59 6.13 19.59 6.11999 19.59 6.10999C19.59 6.10999 19.59 6.11001 19.59 6.10001C19.33 4.97001 18.76 3.91999 17.91 3.07999C16.85 2.01999 15.47 1.38999 13.98 1.26999C13.81 1.25999 13.64 1.25 13.47 1.25C11.79 1.25 10.22 1.89999 9.03999 3.07999L8.53 3.59C8.02 4.1 7.75 4.77001 7.75 5.48001C7.75 6.19001 8.03 6.87 8.53 7.37C9.54 8.38 11.29 8.39 12.32 7.37C12.48 7.21 12.69 7.12 12.94 7.12C13.09 7.12 13.32 7.15999 13.53 7.35999C13.73 7.54999 13.77 7.81 13.77 7.94C13.77 8.23 13.66 8.52 13.46 8.72L4.05 18.12C3.54 18.63 3.25 19.31 3.25 20.04C3.25 20.77 3.53 21.45 4.04 21.96C4.55 22.47 5.26 22.75 5.96 22.75C6.66 22.75 7.35 22.49 7.88 21.96L14.8 15.05C14.8 15.05 14.82 15.03 14.84 15.01L17.91 11.94C18.04 11.81 18.15 11.68 18.27 11.55C18.29 11.53 18.31 11.51 18.33 11.49H18.32ZM13.97 13.75H10.54L12.54 11.75H15.97L13.97 13.75ZM10.47 17.25H7.04L9.03999 15.25H12.47L10.47 17.25ZM14.04 10.25L14.51 9.78C14.94 9.35 15.2 8.76001 15.24 8.14001L18.23 7.29001C18.23 7.37001 18.25 7.43999 18.25 7.51999C18.25 8.51999 17.93 9.46001 17.37 10.26H14.05L14.04 10.25ZM17.92 5.81L14.89 6.67999C14.79 6.52999 14.68 6.38001 14.55 6.26001C14.45 6.17001 14.35 6.09999 14.24 6.01999L14.56 2.89001C15.42 3.09001 16.21 3.51001 16.84 4.14001C17.32 4.62001 17.68 5.19 17.92 5.81ZM11.24 6.31C10.8 6.75 10.02 6.75 9.58 6.31C9.36 6.09 9.24001 5.79001 9.24001 5.48001C9.24001 5.17001 9.36 4.86999 9.58 4.64999L10.09 4.14001C10.89 3.34001 11.94 2.88001 13.06 2.79001L12.77 5.63C12.18 5.67 11.64 5.9 11.24 6.31ZM6.81 20.89C6.34 21.36 5.57 21.36 5.1 20.89C4.87 20.66 4.74 20.36 4.74 20.03C4.74 19.7 4.87 19.4 5.1 19.17L5.53 18.74H8.96001L6.81 20.89Z" />
</svg>
