<svg viewBox="0 0 24 24" fill="currentColor" stroke="currentColor" xmlns="http://www.w3.org/2000/svg">
<path d="M11.02 19.5C11.02 19.91 10.69 20.25 10.27 20.25C9.84999 20.25 9.51999 19.91 9.51999 19.5C9.51999 19.09 9.84999 18.75 10.27 18.75C10.69 18.75 11.02 19.09 11.02 19.5ZM16.75 2.49998V13.5C16.75 14.19 16.19 14.75 15.5 14.75H14.36C13.78 14.75 13.24 15.01 12.88 15.47C12.52 15.93 12.4 16.51 12.54 17.08L13.04 19.09C13.26 19.98 13.07 20.9 12.5 21.61C11.94 22.33 11.09 22.74 10.18 22.74C8.55999 22.74 7.23999 21.42 7.23999 19.8V5.11998C7.23999 2.57998 8.58 1.23999 11.12 1.23999H15.49C16.18 1.23999 16.74 1.79999 16.74 2.48999L16.75 2.49998ZM11.59 19.46L11.16 17.75H8.75V19.81C8.75 20.61 9.4 21.25 10.19 21.25C10.64 21.25 11.05 21.05 11.33 20.7C11.61 20.35 11.7 19.9 11.59 19.46ZM15.25 2.74998H11.13C9.42 2.74998 8.75 3.41999 8.75 5.12999V16.25H11.03C11.1 15.64 11.31 15.05 11.71 14.55C12.35 13.73 13.32 13.25 14.37 13.25H15.26V2.74998H15.25Z" />
</svg>
