<svg viewBox="0 0 24 24" fill="currentColor" stroke="currentColor" xmlns="http://www.w3.org/2000/svg">
<path d="M19 6.75H12.84L13.45 4.32001C13.53 3.99001 13.83 3.75 14.18 3.75H17.01C17.42 3.75 17.76 3.41 17.76 3C17.76 2.59 17.42 2.25 17.01 2.25H14.18C13.15 2.25 12.25 2.95 12 3.95L11.3 6.75H5.01001C4.60001 6.75 4.26001 7.09 4.26001 7.5C4.26001 7.91 4.60001 8.25 5.01001 8.25H5.39001L6.63 19.74C6.75 20.89 7.71 21.75 8.87 21.75H15.17C16.32 21.75 17.28 20.89 17.41 19.74L18.65 8.25H19.03C19.44 8.25 19.78 7.91 19.78 7.5C19.78 7.09 19.44 6.75 19.03 6.75H19ZM15.89 19.58C15.85 19.96 15.53 20.25 15.15 20.25H8.84998C8.46998 20.25 8.14999 19.96 8.10999 19.58L7.32001 12.25H16.69L15.9 19.58H15.89ZM16.84 10.75H7.15002L6.88 8.25H17.11L16.84 10.75Z" />
</svg>
