<svg viewBox="0 0 24 24" fill="currentColor" stroke="currentColor" xmlns="http://www.w3.org/2000/svg">
<path d="M12 1.25C6.07 1.25 1.25 6.07 1.25 12C1.25 17.93 6.07 22.75 12 22.75C17.93 22.75 22.75 17.93 22.75 12C22.75 6.07 17.93 1.25 12 1.25ZM12 21.25C7.6 21.25 3.91999 18.16 2.98999 14.05L3.46997 14.53C3.61997 14.68 3.81 14.75 4 14.75C4.19 14.75 4.38003 14.68 4.53003 14.53C4.82003 14.24 4.82003 13.76 4.53003 13.47L3.53003 12.47C3.32003 12.26 3.03001 12.21 2.76001 12.3C2.76001 12.2 2.73999 12.1 2.73999 12C2.73999 6.9 6.88999 2.75 11.99 2.75C15.03 2.75 17.73 4.22999 19.42 6.50999L18.46 7.47C18.17 7.76 18.17 8.24 18.46 8.53C18.61 8.68 18.8 8.75 18.99 8.75C19.18 8.75 19.37 8.68 19.52 8.53L20.23 7.82001C20.87 9.08001 21.24 10.5 21.24 12C21.24 17.1 17.09 21.25 11.99 21.25H12ZM12 7.75C9.66 7.75 7.75 9.66 7.75 12C7.75 14.34 9.66 16.25 12 16.25C14.34 16.25 16.25 14.34 16.25 12C16.25 9.66 14.34 7.75 12 7.75ZM12 14.75C10.48 14.75 9.25 13.52 9.25 12C9.25 10.48 10.48 9.25 12 9.25C13.52 9.25 14.75 10.48 14.75 12C14.75 13.52 13.52 14.75 12 14.75ZM7.53003 8.53L6.53003 9.53C6.38003 9.68 6.19 9.75 6 9.75C5.81 9.75 5.61997 9.68 5.46997 9.53C5.17997 9.24 5.17997 8.76 5.46997 8.47L6.46997 7.47C6.75997 7.18 7.24003 7.18 7.53003 7.47C7.82003 7.76 7.82003 8.24 7.53003 8.53ZM11.53 17.47C11.82 17.76 11.82 18.24 11.53 18.53L10.53 19.53C10.38 19.68 10.19 19.75 10 19.75C9.81 19.75 9.61997 19.68 9.46997 19.53C9.17997 19.24 9.17997 18.76 9.46997 18.47L10.47 17.47C10.76 17.18 11.24 17.18 11.53 17.47ZM18.53 15.47C18.82 15.76 18.82 16.24 18.53 16.53C18.38 16.68 18.19 16.75 18 16.75C17.81 16.75 17.62 16.68 17.47 16.53L16.47 15.53C16.18 15.24 16.18 14.76 16.47 14.47C16.76 14.18 17.24 14.18 17.53 14.47L18.53 15.47ZM12.47 5.53C12.18 5.24 12.18 4.76 12.47 4.47C12.76 4.18 13.24 4.18 13.53 4.47L14.53 5.47C14.82 5.76 14.82 6.24 14.53 6.53C14.38 6.68 14.19 6.75 14 6.75C13.81 6.75 13.62 6.68 13.47 6.53L12.47 5.53Z" />
</svg>
