<svg viewBox="0 0 24 24" fill="currentColor" stroke="currentColor" xmlns="http://www.w3.org/2000/svg">
<path d="M12 2.25C7.5 2.25 4.25 9.27 4.25 14C4.25 17.12 6.31 21.75 12 21.75C17.69 21.75 19.75 17.12 19.75 14C19.75 9.27 16.5 2.25 12 2.25ZM12 20.25C7.41 20.25 5.75 16.51 5.75 14C5.75 9.95 8.55 3.75 12 3.75C15.45 3.75 18.25 9.95 18.25 14C18.25 16.51 16.59 20.25 12 20.25ZM9.92999 8.41C9.92999 8.41 8.75 10.26 8.75 12C8.75 12.41 8.41 12.75 8 12.75C7.59 12.75 7.25 12.41 7.25 12C7.25 9.8 8.60998 7.68 8.66998 7.59C8.89998 7.24 9.36002 7.14 9.71002 7.37C10.06 7.6 10.16 8.06 9.92999 8.41Z" />
</svg>
