<svg viewBox="0 0 24 24" fill="currentColor" stroke="currentColor" xmlns="http://www.w3.org/2000/svg">
<path d="M11.75 3V7C11.75 9.09 10.24 10.82 8.25 11.17V21C8.25 21.41 7.91 21.75 7.5 21.75C7.09 21.75 6.75 21.41 6.75 21V11.17C4.76 10.81 3.25 9.08 3.25 7V3C3.25 2.59 3.59 2.25 4 2.25C4.41 2.25 4.75 2.59 4.75 3V7C4.75 8.52 5.98 9.75 7.5 9.75C9.02 9.75 10.25 8.52 10.25 7V3C10.25 2.59 10.59 2.25 11 2.25C11.41 2.25 11.75 2.59 11.75 3ZM8.5 8.25C8.91 8.25 9.25 7.91 9.25 7.5V3C9.25 2.59 8.91 2.25 8.5 2.25C8.09 2.25 7.75 2.59 7.75 3V7.5C7.75 7.91 8.09 8.25 8.5 8.25ZM6.5 8.25C6.91 8.25 7.25 7.91 7.25 7.5V3C7.25 2.59 6.91 2.25 6.5 2.25C6.09 2.25 5.75 2.59 5.75 3V7.5C5.75 7.91 6.09 8.25 6.5 8.25ZM19.9 10.62C19.53 11.03 18.9 11.5 17.86 11.68V21C17.86 21.41 17.52 21.75 17.11 21.75C16.7 21.75 16.36 21.41 16.36 21V11.71C15.19 11.57 14.5 11.06 14.11 10.62C13.42 9.84 13.14 8.74 13.3 7.44L13.55 5.39C13.77 3.6 15.25 2.25 17.01 2.25C18.77 2.25 20.25 3.6 20.47 5.39L20.72 7.44C20.88 8.75 20.6 9.85 19.91 10.62H19.9ZM19.22 7.62L18.97 5.57001C18.84 4.53001 18 3.75 17 3.75C16 3.75 15.15 4.53001 15.03 5.57001L14.78 7.62C14.68 8.48 14.83 9.19 15.22 9.63C15.59 10.05 16.18 10.26 17 10.26C17.82 10.26 18.41 10.05 18.78 9.63C19.17 9.19 19.33 8.48 19.22 7.62Z" />
</svg>
