<svg viewBox="0 0 24 24" fill="currentColor" stroke="currentColor" xmlns="http://www.w3.org/2000/svg">
<path d="M16.74 7.25999C16.74 7.17999 16.74 7.09 16.74 7C16.74 4.38 14.61 2.25 11.99 2.25C9.36998 2.25 7.23997 4.38 7.23997 7C7.23997 7.09 7.23997 7.16999 7.23997 7.25999C5.55998 7.37999 4.22998 8.79 4.22998 10.5C4.22998 12.21 5.68998 13.75 7.47998 13.75H7.48997L10.66 20.89C10.89 21.42 11.4 21.75 11.98 21.75C12.56 21.75 13.06 21.42 13.3 20.89L16.47 13.75H16.48C18.27 13.75 19.73 12.29 19.73 10.5C19.73 8.71 18.4 7.37999 16.72 7.25999H16.74ZM12 20.16L9.14997 13.75H14.84L11.99 20.16H12ZM16.5 12.25H7.49998C6.53998 12.25 5.74998 11.46 5.74998 10.5C5.74998 9.54 6.53998 8.75 7.49998 8.75C7.64998 8.75 7.79998 8.77 7.93998 8.81C8.19998 8.89 8.47997 8.81 8.67997 8.62C8.86997 8.43 8.94997 8.14001 8.86997 7.88C8.78997 7.6 8.74998 7.31 8.74998 7C8.74998 5.21 10.21 3.75 12 3.75C13.79 3.75 15.25 5.21 15.25 7C15.25 7.31 15.21 7.6 15.13 7.88C15.05 8.14001 15.13 8.42 15.32 8.62C15.51 8.81 15.8 8.89 16.06 8.81C16.2 8.77 16.35 8.75 16.5 8.75C17.46 8.75 18.25 9.54 18.25 10.5C18.25 11.46 17.46 12.25 16.5 12.25Z" />
</svg>
