<svg viewBox="0 0 24 24" fill="currentColor" stroke="currentColor" xmlns="http://www.w3.org/2000/svg">
<path d="M12 2.25C8.83 2.25 6.25 4.83 6.25 8V14.5C6.25 15.74 7.26 16.75 8.5 16.75H11.25V21C11.25 21.41 11.59 21.75 12 21.75C12.41 21.75 12.75 21.41 12.75 21V16.75H15.5C16.74 16.75 17.75 15.74 17.75 14.5V8C17.75 4.83 15.17 2.25 12 2.25ZM16.25 14.5C16.25 14.91 15.91 15.25 15.5 15.25H8.5C8.09 15.25 7.75 14.91 7.75 14.5V8C7.75 5.66 9.66 3.75 12 3.75C14.34 3.75 16.25 5.66 16.25 8V14.5ZM14.25 7V13C14.25 13.41 13.91 13.75 13.5 13.75C13.09 13.75 12.75 13.41 12.75 13V7C12.75 6.59 13.09 6.25 13.5 6.25C13.91 6.25 14.25 6.59 14.25 7ZM11.25 7V13C11.25 13.41 10.91 13.75 10.5 13.75C10.09 13.75 9.75 13.41 9.75 13V7C9.75 6.59 10.09 6.25 10.5 6.25C10.91 6.25 11.25 6.59 11.25 7Z" />
</svg>
