<svg viewBox="0 0 24 24" fill="currentColor" stroke="currentColor" xmlns="http://www.w3.org/2000/svg">
<path d="M21 14.75C20.586 14.75 20.25 14.414 20.25 14V11C20.25 10.586 20.586 10.25 21 10.25C21.414 10.25 21.75 10.586 21.75 11V14C21.75 14.414 21.414 14.75 21 14.75ZM19 9.5V15.5C19 16.5 18.5 17 17.5 17H4.5C3.5 17 3 16.5 3 15.5V9.5C3 8.5 3.5 8 4.5 8H17.5C18.5 8 19 8.5 19 9.5ZM6.75 10.5C6.75 10.086 6.414 9.75 6 9.75C5.586 9.75 5.25 10.086 5.25 10.5V14.5C5.25 14.914 5.586 15.25 6 15.25C6.414 15.25 6.75 14.914 6.75 14.5V10.5ZM9.25 10.5C9.25 10.086 8.914 9.75 8.5 9.75C8.086 9.75 7.75 10.086 7.75 10.5V14.5C7.75 14.914 8.086 15.25 8.5 15.25C8.914 15.25 9.25 14.914 9.25 14.5V10.5ZM11.75 10.5C11.75 10.086 11.414 9.75 11 9.75C10.586 9.75 10.25 10.086 10.25 10.5V14.5C10.25 14.914 10.586 15.25 11 15.25C11.414 15.25 11.75 14.914 11.75 14.5V10.5ZM14.25 10.5C14.25 10.086 13.914 9.75 13.5 9.75C13.086 9.75 12.75 10.086 12.75 10.5V14.5C12.75 14.914 13.086 15.25 13.5 15.25C13.914 15.25 14.25 14.914 14.25 14.5V10.5ZM16.75 10.5C16.75 10.086 16.414 9.75 16 9.75C15.586 9.75 15.25 10.086 15.25 10.5V14.5C15.25 14.914 15.586 15.25 16 15.25C16.414 15.25 16.75 14.914 16.75 14.5V10.5Z" />
</svg>
