<svg viewBox="0 0 24 24" fill="currentColor" stroke="currentColor" xmlns="http://www.w3.org/2000/svg">
<path d="M17.5 8H4.5C3.5 8 3 8.5 3 9.5V15.5C3 16.5 3.5 17 4.5 17H17.5C18.5 17 19 16.5 19 15.5V9.5C19 8.5 18.5 8 17.5 8ZM6.75 14.5C6.75 14.914 6.414 15.25 6 15.25C5.586 15.25 5.25 14.914 5.25 14.5V10.5C5.25 10.086 5.586 9.75 6 9.75C6.414 9.75 6.75 10.086 6.75 10.5V14.5ZM9.25 14.5C9.25 14.914 8.914 15.25 8.5 15.25C8.086 15.25 7.75 14.914 7.75 14.5V10.5C7.75 10.086 8.086 9.75 8.5 9.75C8.914 9.75 9.25 10.086 9.25 10.5V14.5ZM11.75 14.5C11.75 14.914 11.414 15.25 11 15.25C10.586 15.25 10.25 14.914 10.25 14.5V10.5C10.25 10.086 10.586 9.75 11 9.75C11.414 9.75 11.75 10.086 11.75 10.5V14.5ZM21 14.75C20.586 14.75 20.25 14.414 20.25 14V11C20.25 10.586 20.586 10.25 21 10.25C21.414 10.25 21.75 10.586 21.75 11V14C21.75 14.414 21.414 14.75 21 14.75Z" />
</svg>
