<svg viewBox="0 0 24 24" fill="currentColor" stroke="currentColor" xmlns="http://www.w3.org/2000/svg">
<path d="M21.5301 2.46999C21.2371 2.17699 20.762 2.17699 20.469 2.46999L16.939 6.00002H16L15.3401 4.03005C15.1401 3.41005 14.5599 3.00002 13.9199 3.00002H10.0801C9.4401 3.00002 8.85994 3.41005 8.65994 4.03005L8.00002 6.00002H6.00002C4.00002 6.00002 3.00002 7.00002 3.00002 9.00002V17C3.00002 17.979 3.24292 18.7141 3.72292 19.2171L2.46999 20.47C2.17699 20.763 2.17699 21.238 2.46999 21.531C2.61599 21.677 2.80802 21.751 3.00002 21.751C3.19202 21.751 3.38405 21.678 3.53005 21.531L21.5301 3.53103C21.8231 3.23703 21.8231 2.76299 21.5301 2.46999ZM9.00002 13C9.00002 11.34 10.34 10 12 10C12.285 10 12.562 10.04 12.825 10.115L9.11501 13.825C9.04001 13.562 9.00002 13.285 9.00002 13ZM20.867 7.85891C20.956 8.19291 21 8.57502 21 9.00002V17C21 19 20 20 18 20H8.72195C8.53995 20 8.26404 19.736 8.56204 19.438L11.9209 16.0791C11.9719 16.0281 12.042 16.0001 12.114 15.9971C13.718 15.9371 15 14.618 15 12.999C17.708 10.291 20.195 7.80406 20.313 7.68606C20.573 7.42706 20.816 7.66691 20.867 7.85891Z" />
</svg>
