<svg viewBox="0 0 24 24" fill="currentColor" stroke="currentColor" xmlns="http://www.w3.org/2000/svg">
<path d="M14.75 10V14C14.75 14.589 14.589 14.75 14 14.75H10C9.411 14.75 9.25 14.589 9.25 14V10C9.25 9.411 9.411 9.25 10 9.25H14C14.589 9.25 14.75 9.411 14.75 10ZM21.75 15C21.75 15.41 21.42 15.75 21 15.75H19V16C19 18 18 19 16 19H15.75V21C15.75 21.41 15.42 21.75 15 21.75C14.59 21.75 14.25 21.41 14.25 21V19H9.75V21C9.75 21.41 9.42 21.75 9 21.75C8.59 21.75 8.25 21.41 8.25 21V19H8C6 19 5 18 5 16V15.75H3C2.59 15.75 2.25 15.41 2.25 15C2.25 14.59 2.59 14.25 3 14.25H5V9.75H3C2.59 9.75 2.25 9.41 2.25 9C2.25 8.59 2.59 8.25 3 8.25H5V8C5 6 6 5 8 5H8.25V3C8.25 2.59 8.59 2.25 9 2.25C9.42 2.25 9.75 2.59 9.75 3V5H14.25V3C14.25 2.59 14.59 2.25 15 2.25C15.42 2.25 15.75 2.59 15.75 3V5H16C18 5 19 6 19 8V8.25H21C21.42 8.25 21.75 8.59 21.75 9C21.75 9.41 21.42 9.75 21 9.75H19V14.25H21C21.42 14.25 21.75 14.59 21.75 15ZM16.25 10C16.25 8.591 15.409 7.75 14 7.75H10C8.591 7.75 7.75 8.591 7.75 10V14C7.75 15.409 8.591 16.25 10 16.25H14C15.409 16.25 16.25 15.409 16.25 14V10Z" />
</svg>
