<svg viewBox="0 0 24 24" fill="currentColor" stroke="currentColor" xmlns="http://www.w3.org/2000/svg">
<path d="M12.75 18.7119V21C12.75 21.414 12.414 21.75 12 21.75C11.586 21.75 11.25 21.414 11.25 21V18.7119C7.327 18.3339 4.25 15.02 4.25 11C4.25 10.586 4.586 10.25 5 10.25C5.414 10.25 5.75 10.586 5.75 11C5.75 14.446 8.554 17.25 12 17.25C15.446 17.25 18.25 14.446 18.25 11C18.25 10.586 18.586 10.25 19 10.25C19.414 10.25 19.75 10.586 19.75 11C19.75 15.02 16.673 18.3329 12.75 18.7119ZM12 2.5C9.519 2.5 7.5 4.519 7.5 7V11C7.5 13.481 9.519 15.5 12 15.5C14.481 15.5 16.5 13.481 16.5 11V7C16.5 4.519 14.481 2.5 12 2.5Z" />
</svg>
