<svg viewBox="0 0 24 24" fill="currentColor" stroke="currentColor" xmlns="http://www.w3.org/2000/svg">
<path d="M12.7229 15.011C12.6459 14.824 12.6839 14.6091 12.8269 14.4661L15.468 11.826C15.611 11.683 15.826 11.639 16.013 11.718C16.2 11.796 16.322 11.978 16.322 12.18C16.322 12.231 16.3141 12.2911 16.3001 12.3391C15.8591 13.7521 14.7521 14.8581 13.3411 15.2971C13.2931 15.3121 13.2431 15.3191 13.1931 15.3191C12.9881 15.3201 12.8009 15.198 12.7229 15.011ZM19 10.25C18.586 10.25 18.25 10.586 18.25 11C18.25 14.446 15.446 17.25 12 17.25C11.461 17.25 10.9311 17.1809 10.4251 17.0449C10.0221 16.9399 9.61313 17.176 9.50613 17.576C9.39913 17.976 9.63691 18.3869 10.0359 18.4939C10.4309 18.5999 10.838 18.6609 11.25 18.701V21C11.25 21.414 11.586 21.75 12 21.75C12.414 21.75 12.75 21.414 12.75 21V18.7119C16.673 18.3339 19.75 15.02 19.75 11C19.75 10.586 19.414 10.25 19 10.25ZM21.5301 2.46999C21.2371 2.17699 20.762 2.17699 20.469 2.46999L16.448 6.49099C16.191 4.25199 14.305 2.50002 12 2.50002C10.81 2.50002 9.68008 2.97009 8.81008 3.82009C7.97008 4.68009 7.50002 5.81002 7.50002 7.00002V11C7.50002 12.187 7.97505 13.309 8.80105 14.138L7.55105 15.388C6.39105 14.211 5.75002 12.655 5.75002 11C5.75002 10.586 5.41402 10.25 5.00002 10.25C4.58602 10.25 4.25002 10.586 4.25002 11C4.25002 13.056 5.04599 14.988 6.49099 16.449L2.46999 20.47C2.17699 20.763 2.17699 21.238 2.46999 21.531C2.61599 21.677 2.80802 21.751 3.00002 21.751C3.19202 21.751 3.38405 21.678 3.53005 21.531L21.5301 3.53103C21.8231 3.23703 21.8231 2.76299 21.5301 2.46999Z" />
</svg>
