<svg viewBox="0 0 24 24" fill="currentColor" stroke="currentColor" xmlns="http://www.w3.org/2000/svg">
<path d="M18 7H17.75V5C17.75 4.801 17.671 4.60997 17.53 4.46997L15.53 2.46997C15.389 2.32897 15.199 2.25 15 2.25H8C7.035 2.25 6.25 3.035 6.25 4V7H6C4 7 3 8 3 10V15.5C3 16.33 3.67 17 4.5 17H6.25V20C6.25 20.96 7.04 21.75 8 21.75H16C16.96 21.75 17.75 20.96 17.75 20V17H19.5C20.33 17 21 16.33 21 15.5V10C21 8 20 7 18 7ZM7.75 4C7.75 3.862 7.862 3.75 8 3.75H14.689L16.25 5.31104V7H7.75V4ZM16.25 20C16.25 20.14 16.14 20.25 16 20.25H8C7.86 20.25 7.75 20.14 7.75 20V17V15.75H16.25V17V20ZM17 12C16.448 12 16 11.552 16 11C16 10.448 16.448 10 17 10C17.552 10 18 10.448 18 11C18 11.552 17.552 12 17 12Z" />
</svg>
