<svg viewBox="0 0 24 24" fill="currentColor" stroke="currentColor" xmlns="http://www.w3.org/2000/svg">
<path d="M21 9V6C21 4 20 3 18 3H6C4 3 3 4 3 6V9C3 11 4 12 6 12C4 12 3 13 3 15V18C3 20 4 21 6 21H18C20 21 21 20 21 18V15C21 13 20 12 18 12C20 12 21 11 21 9ZM14.5 17.5C13.948 17.5 13.5 17.052 13.5 16.5C13.5 15.948 13.948 15.5 14.5 15.5C15.052 15.5 15.5 15.948 15.5 16.5C15.5 17.052 15.052 17.5 14.5 17.5ZM14.5 8.5C13.948 8.5 13.5 8.052 13.5 7.5C13.5 6.948 13.948 6.5 14.5 6.5C15.052 6.5 15.5 6.948 15.5 7.5C15.5 8.052 15.052 8.5 14.5 8.5ZM18.5 16.5C18.5 17.052 18.052 17.5 17.5 17.5C16.948 17.5 16.5 17.052 16.5 16.5C16.5 15.948 16.948 15.5 17.5 15.5C18.052 15.5 18.5 15.948 18.5 16.5ZM17.5 8.5C16.948 8.5 16.5 8.052 16.5 7.5C16.5 6.948 16.948 6.5 17.5 6.5C18.052 6.5 18.5 6.948 18.5 7.5C18.5 8.052 18.052 8.5 17.5 8.5Z" />
</svg>
