<svg viewBox="0 0 24 24" fill="currentColor" stroke="currentColor" xmlns="http://www.w3.org/2000/svg">
<path d="M18.561 7.56104L14.4399 3.43994C14.1589 3.15894 13.7769 3.00098 13.3789 3.00098H8C6 3.00098 5 4.00098 5 6.00098V18.001C5 20.001 6 21.001 8 21.001H16C18 21.001 19 20.001 19 18.001V8.62207C19 8.22307 18.842 7.84204 18.561 7.56104ZM12.75 16C12.75 16.414 12.414 16.75 12 16.75C11.586 16.75 11.25 16.414 11.25 16V11.7791L11.0229 12C10.7269 12.291 10.2519 12.2831 9.96191 11.9871C9.67291 11.6901 9.67907 11.216 9.97607 10.926L11.4761 9.46289C11.6921 9.25089 12.014 9.19008 12.29 9.30908C12.568 9.42608 12.749 9.698 12.749 10V16H12.75Z" />
</svg>
