<svg viewBox="0 0 24 24" fill="currentColor" stroke="currentColor" xmlns="http://www.w3.org/2000/svg">
<path d="M17 21.75H7C6.586 21.75 6.25 21.414 6.25 21C6.25 20.586 6.586 20.25 7 20.25H17C17.414 20.25 17.75 20.586 17.75 21C17.75 21.414 17.414 21.75 17 21.75ZM21 7.23096V14.77C21 16.924 20 18.001 18 18.001H6C4 18.001 3 16.924 3 14.77V7.23096C3 5.07696 4 4 6 4H18C20 4 21 5.07696 21 7.23096ZM14.582 10.2539L11.4331 8.3269C10.8061 7.9439 10 8.39298 10 9.12598V12.8721C10 13.6051 10.8061 14.0549 11.4331 13.6709L14.582 11.7439C15.14 11.4039 15.14 10.5959 14.582 10.2539Z" />
</svg>
