<svg viewBox="0 0 24 24" fill="currentColor" stroke="currentColor" xmlns="http://www.w3.org/2000/svg">
<path d="M18 3H6C4 3 3 4 3 6V18C3 20 4 21 6 21H18C20 21 21 20 21 18V6C21 4 20 3 18 3ZM6.92 18.38C6.87 18.51 6.8 18.62 6.71 18.71C6.52 18.89 6.26 19 6 19C5.74 19 5.48 18.89 5.29 18.71C5.11 18.52 5 18.26 5 18C5 17.94 5 17.87 5.02 17.8C5.02 17.74 5.05 17.68 5.08 17.62C5.1 17.56 5.13 17.5 5.17 17.44C5.2 17.39 5.25 17.34 5.29 17.29C5.66 16.92 6.33 16.92 6.71 17.29C6.89 17.48 7 17.73 7 18C7 18.13 6.97 18.26 6.92 18.38ZM16.92 8.32L15.81 10.71C15.73 10.89 15.55 11 15.36 11H12.76V8.5C12.76 8.09 12.42 7.75 12.01 7.75C11.6 7.75 11.26 8.09 11.26 8.5V11H8.66C8.47 11 8.29 10.89 8.21 10.71L7.1 8.32C6.89 7.88 7.08 7.36 7.51 7.13C8.85 6.4 10.39 5.99 12.02 5.99C13.65 5.99 15.18 6.4 16.53 7.13C16.96 7.36 17.15 7.88 16.94 8.32H16.92ZM18.71 18.71C18.61 18.8 18.51 18.87 18.38 18.92C18.26 18.97 18.13 19 18 19C17.74 19 17.48 18.89 17.29 18.71C17.11 18.52 17 18.26 17 18C17 17.74 17.11 17.48 17.29 17.29C17.57 17.01 18.02 16.93 18.38 17.08C18.51 17.13 18.61 17.2 18.71 17.29C18.89 17.48 19 17.74 19 18C19 18.26 18.89 18.52 18.71 18.71Z" />
</svg>
