<svg viewBox="0 0 24 24" fill="currentColor" stroke="currentColor" xmlns="http://www.w3.org/2000/svg">
<path d="M21.5 11C21.5 13.609 19.6491 15.876 17.0991 16.39C17.0661 16.397 17.033 16.4 16.999 16.4C16.767 16.4 16.558 16.236 16.51 15.999C16.455 15.728 16.6311 15.465 16.9021 15.41C18.9871 14.99 20.501 13.135 20.501 11C20.501 8.519 18.482 6.5 16.001 6.5C15.702 6.5 15.415 6.52697 15.124 6.58197C14.917 6.62197 14.715 6.52903 14.605 6.35303C14.301 5.86103 13.916 5.40398 13.457 4.99298C12.372 4.03098 10.966 3.50098 9.50098 3.50098C6.19198 3.50098 3.50098 6.19298 3.50098 9.50098C3.50098 11.93 4.95012 14.104 7.19312 15.04C7.44812 15.146 7.56789 15.439 7.46289 15.694C7.35689 15.949 7.06208 16.069 6.80908 15.963C4.19208 14.872 2.50098 12.335 2.50098 9.50201C2.50098 5.64201 5.64198 2.50201 9.50098 2.50201C11.211 2.50201 12.853 3.12199 14.123 4.24799C14.566 4.64599 14.952 5.08197 15.272 5.54797C15.513 5.51697 15.753 5.50201 16.001 5.50201C19.032 5.50001 21.5 7.967 21.5 11ZM12.354 10.647C12.308 10.601 12.2519 10.564 12.1909 10.539C12.0689 10.488 11.9311 10.488 11.8091 10.539C11.7471 10.564 11.692 10.601 11.646 10.647L9.646 12.647C9.451 12.842 9.451 13.159 9.646 13.354C9.841 13.549 10.158 13.549 10.353 13.354L11.499 12.208V21C11.499 21.276 11.723 21.5 11.999 21.5C12.275 21.5 12.499 21.276 12.499 21V12.207L13.645 13.353C13.743 13.451 13.871 13.499 13.999 13.499C14.127 13.499 14.255 13.45 14.353 13.353C14.548 13.158 14.548 12.841 14.353 12.646L12.354 10.647Z" />
</svg>
