<svg viewBox="0 0 24 24" fill="currentColor" stroke="currentColor" xmlns="http://www.w3.org/2000/svg">
<path d="M21.5 11C21.5 13.609 19.6491 15.876 17.0991 16.39C17.0661 16.397 17.033 16.4 16.999 16.4C16.767 16.4 16.558 16.236 16.51 15.999C16.455 15.728 16.6311 15.465 16.9021 15.41C18.9871 14.99 20.501 13.135 20.501 11C20.501 8.519 18.482 6.5 16.001 6.5C15.702 6.5 15.415 6.52697 15.124 6.58197C14.92 6.62197 14.716 6.52903 14.605 6.35303C14.301 5.86103 13.916 5.40398 13.457 4.99298C12.372 4.03098 10.966 3.50098 9.50098 3.50098C6.19198 3.50098 3.50098 6.19298 3.50098 9.50098C3.50098 11.93 4.95012 14.104 7.19312 15.04C7.44812 15.146 7.56789 15.439 7.46289 15.694C7.35589 15.949 7.06108 16.069 6.80908 15.963C4.19208 14.872 2.50098 12.335 2.50098 9.50201C2.50098 5.64201 5.64198 2.50201 9.50098 2.50201C11.211 2.50201 12.853 3.12199 14.123 4.24799C14.566 4.64599 14.952 5.08197 15.272 5.54797C15.513 5.51697 15.753 5.50201 16.001 5.50201C19.032 5.50001 21.5 7.967 21.5 11ZM13.646 18.646L12.5 19.792V11C12.5 10.724 12.276 10.5 12 10.5C11.724 10.5 11.5 10.724 11.5 11V19.793L10.354 18.647C10.159 18.452 9.84197 18.452 9.64697 18.647C9.45197 18.842 9.45197 19.159 9.64697 19.354L11.647 21.354C11.693 21.4 11.7491 21.437 11.8101 21.462C11.8711 21.487 11.936 21.501 12.001 21.501C12.066 21.501 12.1309 21.488 12.1919 21.462C12.2539 21.437 12.309 21.4 12.355 21.354L14.355 19.354C14.55 19.159 14.55 18.842 14.355 18.647C14.16 18.452 13.842 18.451 13.646 18.646Z" />
</svg>
