<svg viewBox="0 0 24 24" fill="currentColor" stroke="currentColor" xmlns="http://www.w3.org/2000/svg">
<path d="M22.5 13C22.5 16.033 20.033 18.5 17 18.5H11C10.724 18.5 10.5 18.276 10.5 18C10.5 17.724 10.724 17.5 11 17.5H17C19.481 17.5 21.5 15.481 21.5 13C21.5 10.519 19.481 8.5 17 8.5C16.701 8.5 16.414 8.52697 16.123 8.58197C15.917 8.61897 15.714 8.52903 15.604 8.35303C15.3 7.86103 14.9151 7.40398 14.4561 6.99298C13.3711 6.03098 11.965 5.50098 10.5 5.50098C8.446 5.50098 6.5589 6.53602 5.4519 8.27002C5.3029 8.50402 4.99399 8.57 4.76099 8.422C4.52899 8.273 4.45989 7.96399 4.60889 7.73199C5.90089 5.70899 8.10298 4.50098 10.501 4.50098C12.211 4.50098 13.853 5.12101 15.123 6.24701C15.566 6.64501 15.952 7.081 16.272 7.547C16.513 7.516 16.753 7.50098 17.001 7.50098C20.033 7.49998 22.5 9.967 22.5 13ZM8.5 15.786V17.715C8.5 18.85 7.84911 19.501 6.71411 19.501H3.28589C2.15089 19.501 1.5 18.85 1.5 17.715V15.786C1.5 14.847 1.952 14.245 2.75 14.064V12.75C2.75 11.509 3.76 10.5 5 10.5C6.24 10.5 7.25 11.509 7.25 12.75V14.064C8.048 14.245 8.5 14.846 8.5 15.786ZM3.75 12.75V14H6.25V12.75C6.25 12.061 5.689 11.5 5 11.5C4.311 11.5 3.75 12.061 3.75 12.75ZM7.5 15.786C7.5 15.206 7.29411 15 6.71411 15H3.28589C2.70589 15 2.5 15.206 2.5 15.786V17.715C2.5 18.295 2.70589 18.501 3.28589 18.501H6.71411C7.29411 18.501 7.5 18.295 7.5 17.715V15.786Z" />
</svg>
