<svg viewBox="0 0 24 24" fill="currentColor" stroke="currentColor" xmlns="http://www.w3.org/2000/svg">
<path d="M22.5 13C22.5 16.033 20.033 18.5 17 18.5H13C12.724 18.5 12.5 18.276 12.5 18C12.5 17.724 12.724 17.5 13 17.5H17C19.481 17.5 21.5 15.481 21.5 13C21.5 10.519 19.481 8.5 17 8.5C16.701 8.5 16.414 8.52697 16.123 8.58197C15.919 8.61897 15.713 8.52903 15.604 8.35303C15.3 7.86103 14.9151 7.40398 14.4561 6.99298C13.3711 6.03098 11.965 5.50098 10.5 5.50098C8.446 5.50098 6.5589 6.53602 5.4519 8.27002C5.3019 8.50402 4.99299 8.57 4.76099 8.422C4.52899 8.273 4.45989 7.96399 4.60889 7.73199C5.90089 5.70899 8.10298 4.50098 10.501 4.50098C12.211 4.50098 13.853 5.12101 15.123 6.24701C15.566 6.64501 15.952 7.081 16.272 7.547C16.513 7.516 16.753 7.50098 17.001 7.50098C20.033 7.49998 22.5 9.967 22.5 13ZM7.18799 13.407L5.0769 14.462C5.1299 14.633 5.16699 14.811 5.16699 14.999C5.16699 15.187 5.1299 15.365 5.0769 15.536L7.18799 16.591C7.52199 16.133 8.05799 15.832 8.66699 15.832C9.67799 15.832 10.5 16.655 10.5 17.665C10.5 18.676 9.67799 19.498 8.66699 19.498C7.65499 19.498 6.83301 18.675 6.83301 17.665C6.83301 17.622 6.84295 17.581 6.84595 17.538L4.5271 16.379C4.2051 16.657 3.79101 16.832 3.33301 16.832C2.32201 16.832 1.5 16.009 1.5 14.999C1.5 13.989 2.32201 13.166 3.33301 13.166C3.79101 13.166 4.2051 13.341 4.5271 13.619L6.84595 12.46C6.84295 12.417 6.83301 12.376 6.83301 12.333C6.83301 11.322 7.65499 10.5 8.66699 10.5C9.67799 10.5 10.5 11.323 10.5 12.333C10.5 13.344 9.67799 14.166 8.66699 14.166C8.05799 14.167 7.52099 13.865 7.18799 13.407ZM7.83301 17.667C7.83301 18.126 8.20699 18.5 8.66699 18.5C9.12599 18.5 9.5 18.126 9.5 17.667C9.5 17.208 9.12599 16.834 8.66699 16.834C8.20699 16.833 7.83301 17.207 7.83301 17.667ZM4.16699 15C4.16699 14.541 3.79301 14.167 3.33301 14.167C2.87401 14.167 2.5 14.541 2.5 15C2.5 15.459 2.87401 15.833 3.33301 15.833C3.79301 15.833 4.16699 15.459 4.16699 15ZM7.83301 12.333C7.83301 12.792 8.20699 13.166 8.66699 13.166C9.12599 13.166 9.5 12.792 9.5 12.333C9.5 11.874 9.12599 11.5 8.66699 11.5C8.20699 11.5 7.83301 11.874 7.83301 12.333Z" />
</svg>
