<svg viewBox="0 0 24 24" fill="currentColor" stroke="currentColor" xmlns="http://www.w3.org/2000/svg">
<path d="M16 8.5C15.753 8.5 15.513 8.51502 15.272 8.54602C14.944 8.06702 14.558 7.63097 14.123 7.24597C14.123 7.24597 14.1231 7.24597 14.1221 7.24597C12.8451 6.11997 11.203 5.5 9.5 5.5C5.641 5.5 2.5 8.64 2.5 12.5C2.5 16.36 5.641 19.5 9.5 19.5H16C19.032 19.5 21.5 17.033 21.5 14C21.5 10.967 19.032 8.5 16 8.5ZM16 18.5H9.5C6.191 18.5 3.5 15.808 3.5 12.5C3.5 9.192 6.191 6.5 9.5 6.5C10.959 6.5 12.3659 7.03097 13.4609 7.99597C13.9069 8.38997 14.292 8.84703 14.605 9.35303C14.714 9.52903 14.915 9.61997 15.124 9.58197C15.415 9.52697 15.702 9.5 16.001 9.5C18.482 9.5 20.501 11.519 20.501 14C20.501 16.481 18.481 18.5 16 18.5Z" />
</svg>
