<svg viewBox="0 0 24 24" fill="currentColor" stroke="currentColor" xmlns="http://www.w3.org/2000/svg">
<path d="M16 8.5C15.753 8.5 15.513 8.51502 15.272 8.54602C14.944 8.06702 14.558 7.63097 14.123 7.24597C14.123 7.24597 14.1231 7.24597 14.1221 7.24597C12.8451 6.11997 11.203 5.5 9.5 5.5C5.641 5.5 2.5 8.64 2.5 12.5C2.5 16.36 5.641 19.5 9.5 19.5H16C19.032 19.5 21.5 17.033 21.5 14C21.5 10.967 19.032 8.5 16 8.5ZM16 18.5H9.5C6.191 18.5 3.5 15.808 3.5 12.5C3.5 9.192 6.191 6.5 9.5 6.5C10.959 6.5 12.3659 7.03097 13.4609 7.99597C13.9069 8.38997 14.292 8.84703 14.605 9.35303C14.714 9.52903 14.916 9.61997 15.124 9.58197C15.415 9.52697 15.702 9.5 16.001 9.5C18.482 9.5 20.501 11.519 20.501 14C20.501 16.481 18.481 18.5 16 18.5ZM13.854 12.354L12.708 13.5L13.854 14.646C14.049 14.841 14.049 15.158 13.854 15.353C13.756 15.451 13.628 15.499 13.5 15.499C13.372 15.499 13.244 15.45 13.146 15.353L12 14.207L10.854 15.353C10.756 15.451 10.628 15.499 10.5 15.499C10.372 15.499 10.244 15.45 10.146 15.353C9.951 15.158 9.951 14.841 10.146 14.646L11.292 13.5L10.146 12.354C9.951 12.159 9.951 11.842 10.146 11.647C10.341 11.452 10.658 11.452 10.853 11.647L11.999 12.793L13.145 11.647C13.34 11.452 13.6571 11.452 13.8521 11.647C14.0471 11.842 14.049 12.158 13.854 12.354Z" />
</svg>
