<svg viewBox="0 0 24 24" fill="currentColor" stroke="currentColor" xmlns="http://www.w3.org/2000/svg">
<path d="M16 15.5C19.032 15.5 21.5 13.033 21.5 10C21.5 6.967 19.032 4.5 16 4.5C15.753 4.5 15.513 4.51502 15.272 4.54602C14.944 4.06702 14.558 3.63097 14.123 3.24597C14.123 3.24597 14.1231 3.24597 14.1221 3.24597C12.8451 2.11997 11.203 1.5 9.5 1.5C5.641 1.5 2.5 4.64 2.5 8.5C2.5 12.36 5.641 15.5 9.5 15.5H11.5V17.551C10.522 17.75 9.75003 18.522 9.55103 19.5H5C4.724 19.5 4.5 19.724 4.5 20C4.5 20.276 4.724 20.5 5 20.5H9.55103C9.78303 21.64 10.793 22.5 12 22.5C13.207 22.5 14.217 21.64 14.449 20.5H19C19.276 20.5 19.5 20.276 19.5 20C19.5 19.724 19.276 19.5 19 19.5H14.449C14.25 18.522 13.478 17.75 12.5 17.551V15.5H16ZM13.5 20C13.5 20.827 12.827 21.5 12 21.5C11.173 21.5 10.5 20.827 10.5 20C10.5 19.173 11.173 18.5 12 18.5C12.827 18.5 13.5 19.173 13.5 20ZM3.5 8.5C3.5 5.192 6.191 2.5 9.5 2.5C10.959 2.5 12.3659 3.03097 13.4609 3.99597C13.9069 4.38997 14.292 4.84703 14.605 5.35303C14.714 5.52903 14.916 5.61897 15.124 5.58197C15.415 5.52697 15.702 5.5 16.001 5.5C18.482 5.5 20.501 7.519 20.501 10C20.501 12.481 18.482 14.5 16.001 14.5H9.50098C6.19098 14.5 3.5 11.808 3.5 8.5Z" />
</svg>
