<svg viewBox="0 0 24 24" fill="currentColor" stroke="currentColor" xmlns="http://www.w3.org/2000/svg">
<path d="M16.354 8.35304L21.354 3.35304C21.549 3.15804 21.549 2.84101 21.354 2.64601C21.159 2.45101 20.842 2.45101 20.647 2.64601L15.78 7.51301C15.61 7.51901 15.44 7.52299 15.272 7.54499C14.952 7.07899 14.566 6.643 14.123 6.245C12.852 5.119 11.211 4.49903 9.50098 4.49903C5.64198 4.49903 2.50098 7.63903 2.50098 11.499C2.50098 13.939 3.79895 16.196 5.84595 17.447L2.64795 20.645C2.45295 20.84 2.45295 21.157 2.64795 21.352C2.74595 21.45 2.87395 21.498 3.00195 21.498C3.12995 21.498 3.25796 21.449 3.35596 21.352L16.354 8.35304C16.354 8.35404 16.354 8.35404 16.354 8.35304ZM3.5 11.5C3.5 8.19201 6.191 5.50001 9.5 5.50001C10.965 5.50001 12.3711 6.03101 13.4561 6.99201C13.9151 7.40301 14.301 7.861 14.604 8.352C14.648 8.423 14.715 8.46801 14.783 8.50801L6.57495 16.716C4.70195 15.677 3.5 13.674 3.5 11.5ZM21.5 13C21.5 16.033 19.032 18.5 16 18.5H10C9.724 18.5 9.5 18.276 9.5 18C9.5 17.724 9.724 17.5 10 17.5H16C18.481 17.5 20.5 15.481 20.5 13C20.5 11.594 19.827 10.248 18.699 9.40003C18.478 9.23403 18.4341 8.92102 18.6001 8.70002C18.7661 8.47802 19.081 8.43602 19.3 8.60102C20.678 9.63602 21.5 11.281 21.5 13Z" />
</svg>
