<svg viewBox="0 0 24 24" fill="currentColor" stroke="currentColor" xmlns="http://www.w3.org/2000/svg">
<path d="M15.97 8.5C15.724 8.5 15.4839 8.51502 15.2419 8.54602C14.9159 8.06902 14.53 7.63297 14.093 7.24597C14.093 7.24597 14.093 7.24597 14.092 7.24597C12.815 6.11997 11.173 5.5 9.46997 5.5C5.61097 5.5 2.46997 8.64 2.46997 12.5C2.46997 16.36 5.61097 19.5 9.46997 19.5H15.97C19.002 19.5 21.47 17.033 21.47 14C21.47 10.967 19.002 8.5 15.97 8.5ZM15.97 18.5H9.46997C6.16097 18.5 3.46997 15.808 3.46997 12.5C3.46997 9.192 6.16097 6.5 9.46997 6.5C10.929 6.5 12.3359 7.03097 13.4309 7.99597C13.8789 8.39197 14.264 8.84799 14.575 9.35199C14.682 9.52799 14.89 9.62099 15.093 9.58099C15.386 9.52599 15.6729 9.49902 15.9709 9.49902C18.4519 9.49902 20.4709 11.518 20.4709 13.999C20.4709 16.48 18.451 18.5 15.97 18.5ZM14.5 13.5C14.5 13.776 14.276 14 14 14H12.5V15.5C12.5 15.776 12.276 16 12 16C11.724 16 11.5 15.776 11.5 15.5V14H10C9.724 14 9.5 13.776 9.5 13.5C9.5 13.224 9.724 13 10 13H11.5V11.5C11.5 11.224 11.724 11 12 11C12.276 11 12.5 11.224 12.5 11.5V13H14C14.276 13 14.5 13.224 14.5 13.5Z" />
</svg>
