<svg viewBox="0 0 24 24" fill="currentColor" stroke="currentColor" xmlns="http://www.w3.org/2000/svg">
<path d="M22.5 13C22.5 16.033 20.033 18.5 17 18.5H12C11.724 18.5 11.5 18.276 11.5 18C11.5 17.724 11.724 17.5 12 17.5H17C19.481 17.5 21.5 15.481 21.5 13C21.5 10.519 19.481 8.5 17 8.5C16.701 8.5 16.414 8.52697 16.123 8.58197C15.914 8.61897 15.714 8.52903 15.604 8.35303C15.3 7.86103 14.9151 7.40398 14.4561 6.99298C13.3711 6.03098 11.965 5.50098 10.5 5.50098C8.446 5.50098 6.5589 6.53602 5.4519 8.27002C5.3029 8.50402 4.99299 8.57 4.76099 8.422C4.52899 8.273 4.45989 7.96399 4.60889 7.73199C5.90089 5.70899 8.10298 4.50098 10.501 4.50098C12.211 4.50098 13.853 5.12101 15.123 6.24701C15.566 6.64501 15.952 7.081 16.272 7.547C16.513 7.516 16.753 7.50098 17.001 7.50098C20.033 7.49998 22.5 9.967 22.5 13ZM9.5 12.275V14.555C9.5 17.222 7.51691 18.845 5.65991 19.473C5.60791 19.491 5.554 19.499 5.5 19.499C5.446 19.499 5.39209 19.49 5.34009 19.473C3.48409 18.845 1.5 17.223 1.5 14.555V12.333C1.5 12.11 1.64706 11.914 1.86206 11.852C3.66606 11.335 4.50798 10.942 5.28198 10.553C5.42398 10.481 5.59289 10.481 5.73389 10.554C6.50189 10.947 7.33805 11.337 9.12305 11.79C9.34505 11.847 9.5 12.047 9.5 12.275ZM8.5 12.662C7.153 12.301 6.33388 11.971 5.50488 11.559C4.67688 11.966 3.857 12.304 2.5 12.708V14.556C2.5 17.101 4.736 18.176 5.5 18.469C6.264 18.177 8.5 17.101 8.5 14.556V12.662Z" />
</svg>
