<svg viewBox="0 0 24 24" fill="currentColor" stroke="currentColor" xmlns="http://www.w3.org/2000/svg">
<path d="M18.375 6.5H9.625C7.609 6.5 6.5 7.61 6.5 9.625V18.375C6.5 20.39 7.609 21.5 9.625 21.5H18.375C20.391 21.5 21.5 20.39 21.5 18.375V9.625C21.5 7.61 20.391 6.5 18.375 6.5ZM20.5 18.375C20.5 19.845 19.845 20.5 18.375 20.5H9.625C8.155 20.5 7.5 19.845 7.5 18.375V9.625C7.5 8.155 8.155 7.5 9.625 7.5H18.375C19.845 7.5 20.5 8.155 20.5 9.625V18.375ZM15 3.5H5.625C4.155 3.5 3.5 4.155 3.5 5.625V15C3.5 15.276 3.276 15.5 3 15.5C2.724 15.5 2.5 15.276 2.5 15V5.625C2.5 3.61 3.609 2.5 5.625 2.5H15C15.276 2.5 15.5 2.724 15.5 3C15.5 3.276 15.276 3.5 15 3.5Z" />
</svg>
