<svg viewBox="0 0 24 24" fill="currentColor" stroke="currentColor" xmlns="http://www.w3.org/2000/svg">
<path d="M18.375 6.5H9.625C7.609 6.5 6.5 7.61 6.5 9.625V18.375C6.5 20.39 7.609 21.5 9.625 21.5H18.375C20.391 21.5 21.5 20.39 21.5 18.375V9.625C21.5 7.61 20.391 6.5 18.375 6.5ZM20.5 18.375C20.5 19.845 19.845 20.5 18.375 20.5H9.625C8.155 20.5 7.5 19.845 7.5 18.375V9.625C7.5 8.155 8.155 7.5 9.625 7.5H18.375C19.845 7.5 20.5 8.155 20.5 9.625V18.375ZM3.5 5.62V14.38C3.5 15.28 3.74899 15.87 4.26099 16.184C4.49699 16.328 4.571 16.636 4.427 16.872C4.332 17.026 4.168 17.111 4 17.111C3.91 17.111 3.82001 17.087 3.73901 17.038C2.91701 16.535 2.5 15.641 2.5 14.381V5.62097C2.5 3.60897 3.60812 2.50098 5.62012 2.50098H14.3799C15.6399 2.50098 16.5331 2.91799 17.0371 3.73999C17.1811 3.97499 17.1071 4.28298 16.8711 4.42798C16.6401 4.57198 16.3301 4.49902 16.1831 4.26202C15.8701 3.75002 15.2799 3.50098 14.3789 3.50098H5.6189C4.1539 3.49998 3.5 4.154 3.5 5.62ZM17 14C17 14.276 16.776 14.5 16.5 14.5H14.5V16.5C14.5 16.776 14.276 17 14 17C13.724 17 13.5 16.776 13.5 16.5V14.5H11.5C11.224 14.5 11 14.276 11 14C11 13.724 11.224 13.5 11.5 13.5H13.5V11.5C13.5 11.224 13.724 11 14 11C14.276 11 14.5 11.224 14.5 11.5V13.5H16.5C16.776 13.5 17 13.724 17 14Z" />
</svg>
