<svg viewBox="0 0 24 24" fill="currentColor" stroke="currentColor" xmlns="http://www.w3.org/2000/svg">
<path d="M20.3931 9.43903C20.1661 8.86803 19.6221 8.49902 19.0081 8.49902H16.915V4C16.915 3.173 16.242 2.5 15.415 2.5H9.41504C8.58804 2.5 7.91504 3.173 7.91504 4V8.5H5.99194C5.37794 8.5 4.83393 8.869 4.60693 9.44C4.37993 10.011 4.52201 10.652 4.96801 11.073L11.2419 17.001C11.5949 17.334 12.047 17.5 12.499 17.5C12.951 17.5 13.4031 17.333 13.7561 17.001L20.029 11.073C20.4781 10.651 20.6191 10.01 20.3931 9.43903ZM19.344 10.345L13.0701 16.273C12.7521 16.575 12.2499 16.575 11.9309 16.273L5.656 10.345C5.432 10.133 5.50908 9.87998 5.53808 9.80798C5.56608 9.73498 5.68392 9.49902 5.99292 9.49902H8.41601C8.54901 9.49902 8.67602 9.44603 8.77002 9.35303C8.86402 9.26003 8.91601 9.13202 8.91601 8.99902V3.99902C8.91601 3.72302 9.14101 3.49902 9.41601 3.49902H15.416C15.691 3.49902 15.916 3.72302 15.916 3.99902V8.99902C15.916 9.13202 15.969 9.25903 16.062 9.35303C16.155 9.44703 16.283 9.49902 16.416 9.49902H19.009C19.318 9.49902 19.4361 9.73598 19.4641 9.80798C19.4921 9.88098 19.568 10.134 19.344 10.345ZM20 21C20 21.276 19.776 21.5 19.5 21.5H5.5C5.224 21.5 5 21.276 5 21C5 20.724 5.224 20.5 5.5 20.5H19.5C19.776 20.5 20 20.724 20 21Z" />
</svg>
