<svg viewBox="0 0 24 24" fill="currentColor" stroke="currentColor" xmlns="http://www.w3.org/2000/svg">
<path d="M8.646 13.354C8.451 13.159 8.451 12.842 8.646 12.647C8.841 12.452 9.15803 12.452 9.35303 12.647L11.499 14.793V3C11.499 2.724 11.723 2.5 11.999 2.5C12.275 2.5 12.499 2.724 12.499 3V14.793L14.645 12.647C14.84 12.452 15.1571 12.452 15.3521 12.647C15.5471 12.842 15.5471 13.159 15.3521 13.354L12.3521 16.354C12.3061 16.4 12.25 16.437 12.189 16.462C12.128 16.487 12.063 16.501 11.998 16.501C11.933 16.501 11.8679 16.488 11.8069 16.462C11.7449 16.437 11.69 16.4 11.644 16.354L8.646 13.354ZM18 9.5C17.724 9.5 17.5 9.724 17.5 10C17.5 10.276 17.724 10.5 18 10.5C19.729 10.5 20.5 11.271 20.5 13V18C20.5 19.729 19.729 20.5 18 20.5H6C4.271 20.5 3.5 19.729 3.5 18V13C3.5 11.271 4.271 10.5 6 10.5C6.276 10.5 6.5 10.276 6.5 10C6.5 9.724 6.276 9.5 6 9.5C3.71 9.5 2.5 10.71 2.5 13V18C2.5 20.29 3.71 21.5 6 21.5H18C20.29 21.5 21.5 20.29 21.5 18V13C21.5 10.71 20.29 9.5 18 9.5Z" />
</svg>
