<svg viewBox="0 0 24 24" fill="currentColor" stroke="currentColor" xmlns="http://www.w3.org/2000/svg">
<path d="M20.354 8.646L14.354 2.646C14.26 2.552 14.133 2.5 14 2.5H8C5.71 2.5 4.5 3.71 4.5 6V18C4.5 20.29 5.71 21.5 8 21.5H17C19.29 21.5 20.5 20.29 20.5 18V9C20.5 8.867 20.447 8.74 20.354 8.646ZM14.5 4.207L18.793 8.5H17C15.271 8.5 14.5 7.729 14.5 6V4.207ZM17 20.5H8C6.271 20.5 5.5 19.729 5.5 18V6C5.5 4.271 6.271 3.5 8 3.5H13.5V6C13.5 8.29 14.71 9.5 17 9.5H19.5V18C19.5 19.729 18.729 20.5 17 20.5ZM12.5 14.3C13.686 14.3 14.6499 13.336 14.6499 12.15C14.6499 10.964 13.685 10 12.5 10C11.315 10 10.3501 10.964 10.3501 12.15C10.3501 13.336 11.314 14.3 12.5 14.3ZM12.5 11C13.135 11 13.6499 11.516 13.6499 12.15C13.6499 12.784 13.134 13.3 12.5 13.3C11.866 13.3 11.3501 12.784 11.3501 12.15C11.3501 11.516 11.865 11 12.5 11ZM16 18.197V18.5C16 18.776 15.776 19 15.5 19C15.224 19 15 18.776 15 18.5V18.197C15 17.38 14.4181 16.5 13.1421 16.5H11.8589C10.5829 16.5 10.001 17.38 10.001 18.197V18.5C10.001 18.776 9.77698 19 9.50098 19C9.22498 19 9.00098 18.776 9.00098 18.5V18.197C9.00098 16.856 9.98189 15.5 11.8589 15.5H13.1421C15.0191 15.5 16 16.856 16 18.197Z" />
</svg>
