<svg viewBox="0 0 24 24" fill="currentColor" stroke="currentColor" xmlns="http://www.w3.org/2000/svg">
<path d="M20.354 8.646L14.354 2.646C14.26 2.552 14.133 2.5 14 2.5H8C5.71 2.5 4.5 3.71 4.5 6V18C4.5 20.29 5.71 21.5 8 21.5H17C19.29 21.5 20.5 20.29 20.5 18V9C20.5 8.867 20.447 8.74 20.354 8.646ZM14.5 4.207L18.793 8.5H17C15.271 8.5 14.5 7.729 14.5 6V4.207ZM17 20.5H8C6.271 20.5 5.5 19.729 5.5 18V6C5.5 4.271 6.271 3.5 8 3.5H13.5V6C13.5 8.29 14.71 9.5 17 9.5H19.5V18C19.5 19.729 18.729 20.5 17 20.5ZM14.6509 15.944C15.0739 15.375 15.333 14.678 15.333 13.917C15.333 12.033 13.801 10.5 11.917 10.5C10.033 10.5 8.5 12.033 8.5 13.917C8.5 15.801 10.033 17.333 11.917 17.333C12.678 17.333 13.3751 17.074 13.9441 16.651L15.646 18.353C15.744 18.451 15.872 18.499 16 18.499C16.128 18.499 16.256 18.45 16.354 18.353C16.549 18.158 16.549 17.841 16.354 17.646L14.6509 15.944ZM9.5 13.917C9.5 12.584 10.584 11.5 11.917 11.5C13.249 11.5 14.333 12.584 14.333 13.917C14.333 15.249 13.249 16.333 11.917 16.333C10.584 16.333 9.5 15.249 9.5 13.917Z" />
</svg>
