<svg viewBox="0 0 24 24" fill="currentColor" stroke="currentColor" xmlns="http://www.w3.org/2000/svg">
<path d="M20.354 8.646L14.354 2.646C14.26 2.552 14.133 2.5 14 2.5H8C5.71 2.5 4.5 3.71 4.5 6V18C4.5 20.29 5.71 21.5 8 21.5H17C19.29 21.5 20.5 20.29 20.5 18V9C20.5 8.867 20.447 8.74 20.354 8.646ZM14.5 4.207L18.793 8.5H17C15.271 8.5 14.5 7.729 14.5 6V4.207ZM17 20.5H8C6.271 20.5 5.5 19.729 5.5 18V6C5.5 4.271 6.271 3.5 8 3.5H13.5V6C13.5 8.29 14.71 9.5 17 9.5H19.5V18C19.5 19.729 18.729 20.5 17 20.5ZM15.626 11.632C14.103 11.237 13.3911 10.899 12.7371 10.557C12.5931 10.482 12.4211 10.482 12.2771 10.556C11.4871 10.962 10.7559 11.278 9.35889 11.687C9.14589 11.749 9 11.945 9 12.167V14.111C9 16.476 10.7239 17.915 12.3369 18.472C12.3899 18.491 12.444 18.499 12.5 18.499C12.556 18.499 12.6101 18.49 12.6631 18.472C14.2761 17.914 16 16.476 16 14.111V12.116C16 11.888 15.846 11.689 15.626 11.632ZM15 14.111C15 16.269 13.169 17.199 12.5 17.466C11.831 17.199 10 16.269 10 14.111V12.539C11.121 12.195 11.8129 11.906 12.5039 11.561C13.1959 11.91 13.888 12.192 15 12.499V14.111Z" />
</svg>
