<svg viewBox="0 0 24 24" fill="currentColor" stroke="currentColor" xmlns="http://www.w3.org/2000/svg">
<path d="M20.354 8.646L14.354 2.646C14.26 2.552 14.133 2.5 14 2.5H8C5.71 2.5 4.5 3.71 4.5 6V18C4.5 20.29 5.71 21.5 8 21.5H17C19.29 21.5 20.5 20.29 20.5 18V9C20.5 8.867 20.447 8.74 20.354 8.646ZM14.5 4.207L18.793 8.5H17C15.271 8.5 14.5 7.729 14.5 6V4.207ZM17 20.5H8C6.271 20.5 5.5 19.729 5.5 18V6C5.5 4.271 6.271 3.5 8 3.5H13.5V6C13.5 8.29 14.71 9.5 17 9.5H19.5V18C19.5 19.729 18.729 20.5 17 20.5ZM14.854 12.354L13.208 14L14.854 15.646C15.049 15.841 15.049 16.158 14.854 16.353C14.756 16.451 14.628 16.499 14.5 16.499C14.372 16.499 14.244 16.45 14.146 16.353L12.5 14.707L10.854 16.353C10.756 16.451 10.628 16.499 10.5 16.499C10.372 16.499 10.244 16.45 10.146 16.353C9.951 16.158 9.951 15.841 10.146 15.646L11.792 14L10.146 12.354C9.951 12.159 9.951 11.842 10.146 11.647C10.341 11.452 10.658 11.452 10.853 11.647L12.499 13.293L14.145 11.647C14.34 11.452 14.6571 11.452 14.8521 11.647C15.0471 11.842 15.049 12.158 14.854 12.354Z" />
</svg>
