<svg viewBox="0 0 24 24" fill="currentColor" stroke="currentColor" xmlns="http://www.w3.org/2000/svg">
<path d="M20.354 8.646L14.354 2.646C14.26 2.552 14.133 2.5 14 2.5H8C5.71 2.5 4.5 3.71 4.5 6V18C4.5 20.29 5.71 21.5 8 21.5H17C19.29 21.5 20.5 20.29 20.5 18V9C20.5 8.867 20.447 8.74 20.354 8.646ZM14.5 4.207L18.793 8.5H17C15.271 8.5 14.5 7.729 14.5 6V4.207ZM17 20.5H8C6.271 20.5 5.5 19.729 5.5 18V6C5.5 4.271 6.271 3.5 8 3.5H13.5V6C13.5 8.29 14.71 9.5 17 9.5H19.5V18C19.5 19.729 18.729 20.5 17 20.5ZM9.75 12C9.75 12.414 9.414 12.75 9 12.75C8.586 12.75 8.25 12.414 8.25 12C8.25 11.586 8.586 11.25 9 11.25C9.414 11.25 9.75 11.586 9.75 12ZM9.75 16C9.75 16.414 9.414 16.75 9 16.75C8.586 16.75 8.25 16.414 8.25 16C8.25 15.586 8.586 15.25 9 15.25C9.414 15.25 9.75 15.586 9.75 16ZM16.5 12C16.5 12.276 16.276 12.5 16 12.5H11.5C11.224 12.5 11 12.276 11 12C11 11.724 11.224 11.5 11.5 11.5H16C16.276 11.5 16.5 11.724 16.5 12ZM16.5 16C16.5 16.276 16.276 16.5 16 16.5H11.5C11.224 16.5 11 16.276 11 16C11 15.724 11.224 15.5 11.5 15.5H16C16.276 15.5 16.5 15.724 16.5 16Z" />
</svg>
