<svg viewBox="0 0 24 24" fill="currentColor" stroke="currentColor" xmlns="http://www.w3.org/2000/svg">
<path d="M12 20.5H6C4.271 20.5 3.5 19.729 3.5 18V6C3.5 4.271 4.271 3.5 6 3.5H11.5V6C11.5 8.29 12.71 9.5 15 9.5H17.5V12C17.5 12.276 17.724 12.5 18 12.5C18.276 12.5 18.5 12.276 18.5 12V9C18.5 8.867 18.447 8.74 18.354 8.646L12.354 2.646C12.26 2.552 12.133 2.5 12 2.5H6C3.71 2.5 2.5 3.71 2.5 6V18C2.5 20.29 3.71 21.5 6 21.5H12C12.276 21.5 12.5 21.276 12.5 21C12.5 20.724 12.276 20.5 12 20.5ZM12.5 6V4.207L16.793 8.5H15C13.271 8.5 12.5 7.729 12.5 6ZM7.75 12C7.75 12.414 7.414 12.75 7 12.75C6.586 12.75 6.25 12.414 6.25 12C6.25 11.586 6.586 11.25 7 11.25C7.414 11.25 7.75 11.586 7.75 12ZM7.75 16C7.75 16.414 7.414 16.75 7 16.75C6.586 16.75 6.25 16.414 6.25 16C6.25 15.586 6.586 15.25 7 15.25C7.414 15.25 7.75 15.586 7.75 16ZM14.5 12C14.5 12.276 14.276 12.5 14 12.5H9.5C9.224 12.5 9 12.276 9 12C9 11.724 9.224 11.5 9.5 11.5H14C14.276 11.5 14.5 11.724 14.5 12ZM9.5 16.5C9.224 16.5 9 16.276 9 16C9 15.724 9.224 15.5 9.5 15.5H11C11.276 15.5 11.5 15.724 11.5 16C11.5 16.276 11.276 16.5 11 16.5H9.5ZM18.5 14.5C16.294 14.5 14.5 16.294 14.5 18.5C14.5 20.706 16.294 22.5 18.5 22.5C20.706 22.5 22.5 20.706 22.5 18.5C22.5 16.294 20.706 14.5 18.5 14.5ZM18.5 15.5C19.147 15.5 19.7419 15.71 20.2329 16.06L16.0601 20.233C15.7101 19.743 15.5 19.147 15.5 18.5C15.5 16.846 16.846 15.5 18.5 15.5ZM18.5 21.5C17.853 21.5 17.2581 21.29 16.7671 20.94L20.9399 16.767C21.2899 17.257 21.5 17.853 21.5 18.5C21.5 20.154 20.154 21.5 18.5 21.5Z" />
</svg>
