<svg viewBox="0 0 24 24" fill="currentColor" stroke="currentColor" xmlns="http://www.w3.org/2000/svg">
<path d="M20.354 8.646L14.354 2.646C14.26 2.552 14.133 2.5 14 2.5H8C5.71 2.5 4.5 3.71 4.5 6V18C4.5 20.29 5.71 21.5 8 21.5H17C19.29 21.5 20.5 20.29 20.5 18V9C20.5 8.867 20.447 8.74 20.354 8.646ZM14.5 4.207L18.793 8.5H17C15.271 8.5 14.5 7.729 14.5 6V4.207ZM17 20.5H8C6.271 20.5 5.5 19.729 5.5 18V6C5.5 4.271 6.271 3.5 8 3.5H13.5V6C13.5 8.29 14.71 9.5 17 9.5H19.5V18C19.5 19.729 18.729 20.5 17 20.5ZM12.5 10.5C10.294 10.5 8.5 12.294 8.5 14.5C8.5 16.706 10.294 18.5 12.5 18.5C14.706 18.5 16.5 16.706 16.5 14.5C16.5 12.294 14.706 10.5 12.5 10.5ZM12.5 11.5C13.147 11.5 13.7429 11.71 14.2329 12.06L10.0601 16.233C9.71106 15.742 9.5 15.147 9.5 14.5C9.5 12.846 10.846 11.5 12.5 11.5ZM12.5 17.5C11.853 17.5 11.2571 17.29 10.7671 16.94L14.9399 12.767C15.2889 13.258 15.5 13.853 15.5 14.5C15.5 16.154 14.154 17.5 12.5 17.5Z" />
</svg>
