<svg viewBox="0 0 24 24" fill="currentColor" stroke="currentColor" xmlns="http://www.w3.org/2000/svg">
<path d="M20.354 8.646L14.354 2.646C14.26 2.552 14.133 2.5 14 2.5H8C5.71 2.5 4.5 3.71 4.5 6V18C4.5 20.29 5.71 21.5 8 21.5H17C19.29 21.5 20.5 20.29 20.5 18V9C20.5 8.867 20.447 8.74 20.354 8.646ZM14.5 4.207L18.793 8.5H17C15.271 8.5 14.5 7.729 14.5 6V4.207ZM17 20.5H8C6.271 20.5 5.5 19.729 5.5 18V6C5.5 4.271 6.271 3.5 8 3.5H13.5V6C13.5 8.29 14.71 9.5 17 9.5H19.5V18C19.5 19.729 18.729 20.5 17 20.5ZM15.6279 11.821C15.4879 11.588 15.1891 11.509 14.9541 11.64L14.8391 11.705C14.6171 11.829 14.3441 11.829 14.1221 11.704C13.9091 11.584 13.7771 11.364 13.7771 11.13C13.7771 10.782 13.4921 10.499 13.1421 10.499H11.8081C11.4581 10.499 11.1731 10.782 11.1731 11.13C11.1731 11.364 11.0411 11.584 10.8291 11.704C10.6061 11.829 10.3331 11.829 10.1121 11.705C9.81306 11.538 9.42708 11.64 9.25708 11.932L8.58594 13.057C8.51794 13.173 8.485 13.408 8.521 13.537C8.565 13.699 8.67402 13.84 8.82202 13.923C9.03502 14.043 9.16697 14.263 9.16797 14.498C9.16897 14.733 9.03707 14.954 8.82007 15.076C8.67307 15.159 8.56302 15.301 8.52002 15.464C8.48702 15.594 8.51989 15.828 8.58789 15.943L9.25708 17.067C9.43408 17.361 9.80906 17.462 10.1121 17.293C10.3351 17.169 10.6079 17.17 10.8269 17.294H10.8279C11.0409 17.414 11.1731 17.634 11.1721 17.868C11.1721 18.216 11.4569 18.499 11.8069 18.499H13.1431C13.4931 18.499 13.7771 18.216 13.7771 17.868C13.7771 17.634 13.909 17.414 14.123 17.294C14.342 17.17 14.6149 17.169 14.8379 17.294C15.1389 17.463 15.5151 17.364 15.6941 17.067L16.3611 15.947C16.4311 15.831 16.4649 15.595 16.4309 15.465C16.3879 15.301 16.2779 15.16 16.1279 15.076C15.9149 14.956 15.783 14.735 15.782 14.502C15.782 14.266 15.915 14.044 16.127 13.924L16.2429 13.859C16.3609 13.793 16.4469 13.682 16.4819 13.552C16.5159 13.422 16.498 13.283 16.428 13.167L15.6279 11.821ZM15.3301 15.725L14.999 16.282C14.545 16.141 14.0491 16.189 13.6321 16.425C13.2161 16.659 12.9251 17.053 12.8201 17.501H12.1311C12.0271 17.053 11.7351 16.659 11.3191 16.425C10.9021 16.19 10.4009 16.142 9.95288 16.281L9.62207 15.725C9.96707 15.412 10.17 14.966 10.168 14.496C10.167 14.03 9.96509 13.588 9.62109 13.276L9.95288 12.719C10.4029 12.859 10.9031 12.811 11.3201 12.576C11.7351 12.342 12.0271 11.949 12.1311 11.5H12.8201C12.9241 11.948 13.2161 12.342 13.6311 12.575C14.0491 12.812 14.55 12.859 14.999 12.719L15.3301 13.275C14.9861 13.587 14.783 14.032 14.783 14.503C14.784 14.97 14.9871 15.412 15.3301 15.725ZM13.25 14.5C13.25 14.914 12.9159 15.25 12.5039 15.25C12.0929 15.25 11.75 14.914 11.75 14.5C11.75 14.086 12.077 13.75 12.489 13.75H12.5039C12.9159 13.75 13.25 14.086 13.25 14.5Z" />
</svg>
