<svg viewBox="0 0 24 24" fill="currentColor" stroke="currentColor" xmlns="http://www.w3.org/2000/svg">
<path d="M20.354 8.646L14.354 2.646C14.26 2.552 14.133 2.5 14 2.5H8C5.71 2.5 4.5 3.71 4.5 6V18C4.5 20.29 5.71 21.5 8 21.5H17C19.29 21.5 20.5 20.29 20.5 18V9C20.5 8.867 20.447 8.74 20.354 8.646ZM14.5 4.207L18.793 8.5H17C15.271 8.5 14.5 7.729 14.5 6V4.207ZM17 20.5H8C6.271 20.5 5.5 19.729 5.5 18V6C5.5 4.271 6.271 3.5 8 3.5H13.5V6C13.5 8.29 14.71 9.5 17 9.5H19.5V18C19.5 19.729 18.729 20.5 17 20.5ZM14.4609 15.191C14.4359 15.253 14.399 15.308 14.353 15.354L12.353 17.354C12.255 17.452 12.127 17.5 11.999 17.5C11.871 17.5 11.743 17.451 11.645 17.354C11.45 17.159 11.45 16.842 11.645 16.647L12.791 15.501H9C8.724 15.501 8.5 15.277 8.5 15.001C8.5 14.725 8.724 14.501 9 14.501H12.793L11.647 13.355C11.452 13.16 11.452 12.843 11.647 12.648C11.842 12.453 12.159 12.453 12.354 12.648L14.354 14.648C14.4 14.694 14.4369 14.75 14.4619 14.811C14.5119 14.931 14.5119 15.069 14.4609 15.191Z" />
</svg>
