<svg viewBox="0 0 24 24" fill="currentColor" stroke="currentColor" xmlns="http://www.w3.org/2000/svg">
<path d="M20.354 8.646L14.354 2.646C14.26 2.552 14.133 2.5 14 2.5H8C5.71 2.5 4.5 3.71 4.5 6V18C4.5 20.29 5.71 21.5 8 21.5H17C19.29 21.5 20.5 20.29 20.5 18V9C20.5 8.867 20.447 8.74 20.354 8.646ZM14.5 4.207L18.793 8.5H17C15.271 8.5 14.5 7.729 14.5 6V4.207ZM17 20.5H8C6.271 20.5 5.5 19.729 5.5 18V6C5.5 4.271 6.271 3.5 8 3.5H13.5V6C13.5 8.29 14.71 9.5 17 9.5H19.5V18C19.5 19.729 18.729 20.5 17 20.5ZM14.0491 10.75C14.0461 10.75 14.0421 10.75 14.0381 10.75C13.3081 10.75 12.814 11.091 12.5 11.446C12.186 11.091 11.6919 10.75 10.9619 10.75C10.9579 10.75 10.9539 10.75 10.9509 10.75C10.1869 10.754 9.54898 11.042 9.10498 11.584C8.56898 12.238 8.37595 13.192 8.57495 14.201C9.07595 16.739 12.1649 18.147 12.2959 18.206C12.3599 18.235 12.431 18.25 12.5 18.25C12.569 18.25 12.6401 18.235 12.7041 18.206C12.8351 18.147 15.9241 16.739 16.4241 14.201C16.6231 13.192 16.431 12.238 15.897 11.584C15.452 11.042 14.8131 10.754 14.0491 10.75ZM15.4431 14.008C15.1081 15.706 13.144 16.857 12.5 17.193C11.855 16.857 9.89191 15.707 9.55591 14.008C9.41691 13.304 9.53791 12.634 9.87891 12.218C10.1309 11.91 10.4931 11.752 10.9551 11.75C10.9571 11.75 10.9589 11.75 10.9609 11.75C11.7319 11.75 12.0159 12.523 12.0259 12.553C12.0939 12.755 12.2841 12.889 12.4971 12.891C12.6861 12.897 12.8999 12.758 12.9729 12.557C12.9849 12.524 13.2691 11.75 14.0391 11.75C14.0411 11.75 14.0429 11.75 14.0449 11.75C14.5079 11.752 14.8701 11.909 15.1221 12.218C15.4621 12.634 15.5821 13.303 15.4431 14.008Z" />
</svg>
