<svg viewBox="0 0 24 24" fill="currentColor" stroke="currentColor" xmlns="http://www.w3.org/2000/svg">
<path d="M20.354 8.646L14.354 2.646C14.26 2.552 14.133 2.5 14 2.5H8C5.71 2.5 4.5 3.71 4.5 6V18C4.5 20.29 5.71 21.5 8 21.5H17C19.29 21.5 20.5 20.29 20.5 18V9C20.5 8.867 20.447 8.74 20.354 8.646ZM14.5 4.207L18.793 8.5H17C15.271 8.5 14.5 7.729 14.5 6V4.207ZM17 20.5H8C6.271 20.5 5.5 19.729 5.5 18V6C5.5 4.271 6.271 3.5 8 3.5H13.5V6C13.5 8.29 14.71 9.5 17 9.5H19.5V18C19.5 19.729 18.729 20.5 17 20.5ZM15.7361 12.438L14.0481 12.198L13.3191 10.754C13.0071 10.133 11.991 10.133 11.678 10.754L10.949 12.198L9.26099 12.438C8.91999 12.486 8.64406 12.718 8.53906 13.043C8.43506 13.366 8.52402 13.712 8.77002 13.946L9.98389 15.104L9.70801 16.683C9.64801 17.023 9.78497 17.363 10.064 17.569C10.347 17.777 10.72 17.808 11.033 17.646L12.449 16.869L13.9619 17.647C14.0959 17.716 14.241 17.75 14.385 17.75C14.577 17.75 14.7679 17.689 14.9309 17.57C15.2099 17.364 15.3459 17.025 15.2859 16.685L15.01 15.104L16.2251 13.946C16.4701 13.712 16.5591 13.365 16.4551 13.043C16.3541 12.718 16.0771 12.486 15.7361 12.438ZM14.2749 14.426C14.0629 14.629 13.9651 14.923 14.0161 15.212L14.2729 16.682L12.9089 15.98C12.7809 15.915 12.64 15.881 12.5 15.881C12.36 15.881 12.2191 15.914 12.0911 15.98L10.7271 16.682L10.9851 15.212C11.0351 14.923 10.9371 14.63 10.7241 14.426L9.64307 13.395L11.1479 13.181C11.4349 13.14 11.6851 12.962 11.8181 12.702L12.4771 11.301L13.1841 12.704C13.3161 12.961 13.566 13.14 13.853 13.181L15.3579 13.395L14.2749 14.426Z" />
</svg>
