<svg viewBox="0 0 24 24" fill="currentColor" stroke="currentColor" xmlns="http://www.w3.org/2000/svg">
<path d="M7.75 12C7.75 12.414 7.414 12.75 7 12.75C6.586 12.75 6.25 12.414 6.25 12C6.25 11.586 6.586 11.25 7 11.25C7.414 11.25 7.75 11.586 7.75 12ZM7 15.25C6.586 15.25 6.25 15.586 6.25 16C6.25 16.414 6.586 16.75 7 16.75C7.414 16.75 7.75 16.414 7.75 16C7.75 15.586 7.414 15.25 7 15.25ZM9.5 11.5C9.224 11.5 9 11.724 9 12C9 12.276 9.224 12.5 9.5 12.5H14C14.276 12.5 14.5 12.276 14.5 12C14.5 11.724 14.276 11.5 14 11.5H9.5ZM11 15.5H9.5C9.224 15.5 9 15.724 9 16C9 16.276 9.224 16.5 9.5 16.5H11C11.276 16.5 11.5 16.276 11.5 16C11.5 15.724 11.276 15.5 11 15.5ZM21.4241 18.451C20.9241 20.989 17.8351 22.397 17.7041 22.456C17.6401 22.485 17.569 22.5 17.5 22.5C17.431 22.5 17.3599 22.485 17.2959 22.456C17.1649 22.397 14.076 20.989 13.575 18.451C13.376 17.442 13.569 16.488 14.105 15.834C14.548 15.292 15.1869 15.003 15.9509 15C15.9539 15 15.9579 15 15.9619 15C16.6919 15 17.186 15.341 17.5 15.696C17.814 15.341 18.3081 15 19.0381 15C19.0421 15 19.0461 15 19.0491 15C19.8141 15.004 20.452 15.292 20.897 15.834C21.431 16.489 21.6231 17.442 21.4241 18.451ZM20.1221 16.468C19.8701 16.16 19.5079 16.002 19.0449 16C19.0429 16 19.0411 16 19.0391 16C18.2681 16 17.9839 16.773 17.9729 16.807C17.9019 17.006 17.712 17.141 17.501 17.141C17.499 17.141 17.4981 17.141 17.4971 17.141C17.2841 17.139 17.0949 17.005 17.0259 16.803C17.0149 16.773 16.7309 16 15.9609 16C15.9589 16 15.9571 16 15.9551 16C15.4931 16.002 15.1309 16.16 14.8789 16.468C14.5379 16.885 14.4169 17.554 14.5559 18.258C14.8919 19.956 16.856 21.106 17.5 21.442C18.145 21.106 20.1081 19.956 20.4431 18.257C20.5821 17.553 20.4621 16.884 20.1221 16.468ZM11.5 21C11.5 21.276 11.276 21.5 11 21.5H6C3.71 21.5 2.5 20.29 2.5 18V6C2.5 3.71 3.71 2.5 6 2.5H12C12.133 2.5 12.26 2.553 12.354 2.646L18.354 8.646C18.448 8.74 18.5 8.867 18.5 9V12C18.5 12.276 18.276 12.5 18 12.5C17.724 12.5 17.5 12.276 17.5 12V9.5H15C12.71 9.5 11.5 8.29 11.5 6V3.5H6C4.271 3.5 3.5 4.271 3.5 6V18C3.5 19.729 4.271 20.5 6 20.5H11C11.276 20.5 11.5 20.724 11.5 21ZM15 8.5H16.793L12.5 4.207V6C12.5 7.729 13.271 8.5 15 8.5Z" />
</svg>
