<svg viewBox="0 0 24 24" fill="currentColor" stroke="currentColor" xmlns="http://www.w3.org/2000/svg">
<path d="M11 19.5H6C4.271 19.5 3.5 18.729 3.5 17V5C3.5 3.271 4.271 2.5 6 2.5H11.5V5C11.5 7.29 12.71 8.5 15 8.5H17.5V11C17.5 11.276 17.724 11.5 18 11.5C18.276 11.5 18.5 11.276 18.5 11V8C18.5 7.867 18.447 7.74 18.354 7.646L12.354 1.646C12.26 1.552 12.133 1.5 12 1.5H6C3.71 1.5 2.5 2.71 2.5 5V17C2.5 19.29 3.71 20.5 6 20.5H11C11.276 20.5 11.5 20.276 11.5 20C11.5 19.724 11.276 19.5 11 19.5ZM12.5 5V3.207L16.793 7.5H15C13.271 7.5 12.5 6.729 12.5 5ZM14 10.5C14.276 10.5 14.5 10.724 14.5 11C14.5 11.276 14.276 11.5 14 11.5H7C6.724 11.5 6.5 11.276 6.5 11C6.5 10.724 6.724 10.5 7 10.5H14ZM11.5 15C11.5 15.276 11.276 15.5 11 15.5H7C6.724 15.5 6.5 15.276 6.5 15C6.5 14.724 6.724 14.5 7 14.5H11C11.276 14.5 11.5 14.724 11.5 15ZM19.75 18C19.75 18.276 19.526 18.5 19.25 18.5H16.75C16.474 18.5 16.25 18.276 16.25 18C16.25 17.724 16.474 17.5 16.75 17.5H19.25C19.526 17.5 19.75 17.724 19.75 18ZM18 13.5C15.519 13.5 13.5 15.519 13.5 18C13.5 20.481 15.519 22.5 18 22.5C20.481 22.5 22.5 20.481 22.5 18C22.5 15.519 20.481 13.5 18 13.5ZM18 21.5C16.07 21.5 14.5 19.93 14.5 18C14.5 16.07 16.07 14.5 18 14.5C19.93 14.5 21.5 16.07 21.5 18C21.5 19.93 19.93 21.5 18 21.5Z" />
</svg>
