<svg viewBox="0 0 24 24" fill="currentColor" stroke="currentColor" xmlns="http://www.w3.org/2000/svg">
<path d="M7.75 12C7.75 12.414 7.414 12.75 7 12.75C6.586 12.75 6.25 12.414 6.25 12C6.25 11.586 6.586 11.25 7 11.25C7.414 11.25 7.75 11.586 7.75 12ZM7 15.25C6.586 15.25 6.25 15.586 6.25 16C6.25 16.414 6.586 16.75 7 16.75C7.414 16.75 7.75 16.414 7.75 16C7.75 15.586 7.414 15.25 7 15.25ZM14 11.5H9.5C9.224 11.5 9 11.724 9 12C9 12.276 9.224 12.5 9.5 12.5H14C14.276 12.5 14.5 12.276 14.5 12C14.5 11.724 14.276 11.5 14 11.5ZM11 16.5C11.276 16.5 11.5 16.276 11.5 16C11.5 15.724 11.276 15.5 11 15.5H9.5C9.224 15.5 9 15.724 9 16C9 16.276 9.224 16.5 9.5 16.5H11ZM21.5 16.116V18.111C21.5 20.476 19.7761 21.915 18.1631 22.473C18.1101 22.491 18.056 22.5 18 22.5C17.944 22.5 17.8899 22.491 17.8369 22.473C16.2239 21.915 14.5 20.477 14.5 18.111V16.167C14.5 15.945 14.6459 15.75 14.8589 15.687C16.2549 15.278 16.9871 14.962 17.7771 14.555C17.9211 14.481 18.0931 14.481 18.2371 14.556C18.8901 14.897 19.602 15.236 21.126 15.631C21.346 15.689 21.5 15.888 21.5 16.116ZM20.5 16.5C19.388 16.193 18.6959 15.91 18.0039 15.562C17.3139 15.906 16.621 16.196 15.5 16.54V18.112C15.5 20.27 17.331 21.2 18 21.467C18.669 21.2 20.5 20.27 20.5 18.112V16.5ZM13.5 21C13.5 21.276 13.276 21.5 13 21.5H6C3.71 21.5 2.5 20.29 2.5 18V6C2.5 3.71 3.71 2.5 6 2.5H12C12.133 2.5 12.26 2.553 12.354 2.646L18.354 8.646C18.448 8.74 18.5 8.867 18.5 9V12C18.5 12.276 18.276 12.5 18 12.5C17.724 12.5 17.5 12.276 17.5 12V9.5H15C12.71 9.5 11.5 8.29 11.5 6V3.5H6C4.271 3.5 3.5 4.271 3.5 6V18C3.5 19.729 4.271 20.5 6 20.5H13C13.276 20.5 13.5 20.724 13.5 21ZM15 8.5H16.793L12.5 4.207V6C12.5 7.729 13.271 8.5 15 8.5Z" />
</svg>
