<svg viewBox="0 0 24 24" fill="currentColor" stroke="currentColor" xmlns="http://www.w3.org/2000/svg">
<path d="M7.75 12C7.75 12.414 7.414 12.75 7 12.75C6.586 12.75 6.25 12.414 6.25 12C6.25 11.586 6.586 11.25 7 11.25C7.414 11.25 7.75 11.586 7.75 12ZM7 15.25C6.586 15.25 6.25 15.586 6.25 16C6.25 16.414 6.586 16.75 7 16.75C7.414 16.75 7.75 16.414 7.75 16C7.75 15.586 7.414 15.25 7 15.25ZM9.5 11.5C9.224 11.5 9 11.724 9 12C9 12.276 9.224 12.5 9.5 12.5H14C14.276 12.5 14.5 12.276 14.5 12C14.5 11.724 14.276 11.5 14 11.5H9.5ZM11 15.5H9.5C9.224 15.5 9 15.724 9 16C9 16.276 9.224 16.5 9.5 16.5H11C11.276 16.5 11.5 16.276 11.5 16C11.5 15.724 11.276 15.5 11 15.5ZM21.228 18.696L20.0129 19.854L20.2891 21.435C20.3491 21.775 20.2131 22.114 19.9341 22.32C19.7711 22.44 19.5799 22.5 19.3879 22.5C19.2439 22.5 19.0991 22.466 18.9651 22.397L17.4519 21.619L16.0359 22.396C15.7239 22.558 15.3509 22.528 15.0669 22.319C14.7879 22.113 14.6509 21.774 14.7109 21.433L14.9871 19.854L13.7729 18.696C13.5269 18.461 13.438 18.115 13.542 17.793C13.646 17.468 13.9229 17.236 14.2639 17.187L15.9519 16.947L16.6809 15.502C16.9929 14.881 18.009 14.881 18.322 15.502L19.051 16.947L20.739 17.187C21.08 17.236 21.3559 17.468 21.4609 17.793C21.5619 18.116 21.473 18.462 21.228 18.696ZM20.3569 18.144L18.8521 17.93C18.5651 17.889 18.3151 17.711 18.1831 17.453L17.4761 16.05L16.8169 17.451C16.6839 17.711 16.434 17.889 16.147 17.93L14.6421 18.144L15.7229 19.175C15.9359 19.379 16.0339 19.672 15.9839 19.961L15.7261 21.431L17.0901 20.73C17.2181 20.664 17.359 20.631 17.499 20.631C17.639 20.631 17.78 20.664 17.908 20.73L19.272 21.432L19.0149 19.963C18.9639 19.673 19.0619 19.38 19.2739 19.177L20.3569 18.144ZM11.5 21C11.5 21.276 11.276 21.5 11 21.5H6C3.71 21.5 2.5 20.29 2.5 18V6C2.5 3.71 3.71 2.5 6 2.5H12C12.133 2.5 12.26 2.553 12.354 2.646L18.354 8.646C18.448 8.74 18.5 8.867 18.5 9V12C18.5 12.276 18.276 12.5 18 12.5C17.724 12.5 17.5 12.276 17.5 12V9.5H15C12.71 9.5 11.5 8.29 11.5 6V3.5H6C4.271 3.5 3.5 4.271 3.5 6V18C3.5 19.729 4.271 20.5 6 20.5H11C11.276 20.5 11.5 20.724 11.5 21ZM15 8.5H16.793L12.5 4.207V6C12.5 7.729 13.271 8.5 15 8.5Z" />
</svg>
