<svg viewBox="0 0 24 24" fill="currentColor" stroke="currentColor" xmlns="http://www.w3.org/2000/svg">
<path d="M21.126 15.632C19.603 15.237 18.8911 14.898 18.2371 14.557C18.0931 14.482 17.9211 14.481 17.7771 14.556C16.9871 14.962 16.2559 15.278 14.8589 15.688C14.6459 15.75 14.5 15.946 14.5 16.168V18.112C14.5 20.477 16.2239 21.916 17.8369 22.474C17.8899 22.492 17.944 22.501 18 22.501C18.056 22.501 18.1101 22.492 18.1631 22.474C19.7761 21.916 21.5 20.478 21.5 18.112V16.117C21.5 15.888 21.346 15.689 21.126 15.632ZM20.5 18.111C20.5 20.269 18.669 21.199 18 21.466C17.331 21.199 15.5 20.269 15.5 18.111V16.539C16.621 16.195 17.3129 15.906 18.0039 15.561C18.6959 15.91 19.388 16.193 20.5 16.499V18.111ZM13 20.5H6C4.271 20.5 3.5 19.729 3.5 18V6C3.5 4.271 4.271 3.5 6 3.5H11.5V6C11.5 8.29 12.71 9.5 15 9.5H17.5V12C17.5 12.276 17.724 12.5 18 12.5C18.276 12.5 18.5 12.276 18.5 12V9C18.5 8.867 18.447 8.74 18.354 8.646L12.354 2.646C12.26 2.552 12.133 2.5 12 2.5H6C3.71 2.5 2.5 3.71 2.5 6V18C2.5 20.29 3.71 21.5 6 21.5H13C13.276 21.5 13.5 21.276 13.5 21C13.5 20.724 13.276 20.5 13 20.5ZM12.5 6V4.207L16.793 8.5H15C13.271 8.5 12.5 7.729 12.5 6ZM14.5 12C14.5 12.276 14.276 12.5 14 12.5H7C6.724 12.5 6.5 12.276 6.5 12C6.5 11.724 6.724 11.5 7 11.5H14C14.276 11.5 14.5 11.724 14.5 12ZM7 16.5C6.724 16.5 6.5 16.276 6.5 16C6.5 15.724 6.724 15.5 7 15.5H11C11.276 15.5 11.5 15.724 11.5 16C11.5 16.276 11.276 16.5 11 16.5H7Z" />
</svg>
