<svg viewBox="0 0 24 24" fill="currentColor" stroke="currentColor" xmlns="http://www.w3.org/2000/svg">
<path d="M20.354 8.646L14.354 2.646C14.26 2.552 14.133 2.5 14 2.5H8C5.71 2.5 4.5 3.71 4.5 6V18C4.5 20.29 5.71 21.5 8 21.5H17C19.29 21.5 20.5 20.29 20.5 18V9C20.5 8.867 20.447 8.74 20.354 8.646ZM14.5 4.207L18.793 8.5H17C15.271 8.5 14.5 7.729 14.5 6V4.207ZM17 20.5H8C6.271 20.5 5.5 19.729 5.5 18V6C5.5 4.271 6.271 3.5 8 3.5H13.5V6C13.5 8.29 14.71 9.5 17 9.5H19.5V18C19.5 19.729 18.729 20.5 17 20.5ZM13.354 13.646C13.549 13.841 13.549 14.158 13.354 14.353C13.256 14.451 13.128 14.499 13 14.499C12.872 14.499 12.744 14.45 12.646 14.353L11.5 13.207V17C11.5 17.276 11.276 17.5 11 17.5C10.724 17.5 10.5 17.276 10.5 17V13.207L9.354 14.353C9.159 14.548 8.84197 14.548 8.64697 14.353C8.45197 14.158 8.45197 13.841 8.64697 13.646L10.647 11.646C10.693 11.6 10.7491 11.563 10.8101 11.538C10.9321 11.488 11.0699 11.488 11.1919 11.538C11.2539 11.563 11.309 11.6 11.355 11.646L13.354 13.646Z" />
</svg>
