<svg viewBox="0 0 24 24" fill="currentColor" stroke="currentColor" xmlns="http://www.w3.org/2000/svg">
<path d="M20.354 8.646L14.354 2.646C14.26 2.552 14.133 2.5 14 2.5H8C5.71 2.5 4.5 3.71 4.5 6V18C4.5 20.29 5.71 21.5 8 21.5H17C19.29 21.5 20.5 20.29 20.5 18V9C20.5 8.867 20.447 8.74 20.354 8.646ZM14.5 4.207L18.793 8.5H17C15.271 8.5 14.5 7.729 14.5 6V4.207ZM17 20.5H8C6.271 20.5 5.5 19.729 5.5 18V6C5.5 4.271 6.271 3.5 8 3.5H13.5V6C13.5 8.29 14.71 9.5 17 9.5H19.5V18C19.5 19.729 18.729 20.5 17 20.5ZM12.5 10.5C10.294 10.5 8.5 12.294 8.5 14.5C8.5 16.706 10.294 18.5 12.5 18.5C14.706 18.5 16.5 16.706 16.5 14.5C16.5 12.294 14.706 10.5 12.5 10.5ZM12.5 17.5C10.846 17.5 9.5 16.154 9.5 14.5C9.5 12.846 10.846 11.5 12.5 11.5C14.154 11.5 15.5 12.846 15.5 14.5C15.5 16.154 14.154 17.5 12.5 17.5ZM13.791 15.084C13.986 15.279 13.986 15.596 13.791 15.791C13.693 15.889 13.565 15.937 13.437 15.937C13.309 15.937 13.181 15.888 13.083 15.791L12.145 14.853C12.051 14.759 11.999 14.632 11.999 14.499V13.187C11.999 12.911 12.223 12.687 12.499 12.687C12.775 12.687 12.999 12.911 12.999 13.187V14.292L13.791 15.084Z" />
</svg>
