<svg viewBox="0 0 24 24" fill="currentColor" stroke="currentColor" xmlns="http://www.w3.org/2000/svg">
<path d="M20.354 8.646L14.354 2.646C14.26 2.552 14.133 2.5 14 2.5H8C5.71 2.5 4.5 3.71 4.5 6V18C4.5 20.29 5.71 21.5 8 21.5H17C19.29 21.5 20.5 20.29 20.5 18V9C20.5 8.867 20.447 8.74 20.354 8.646ZM14.5 4.207L18.793 8.5H17C15.271 8.5 14.5 7.729 14.5 6V4.207ZM17 20.5H8C6.271 20.5 5.5 19.729 5.5 18V6C5.5 4.271 6.271 3.5 8 3.5H13.5V6C13.5 8.29 14.71 9.5 17 9.5H19.5V18C19.5 19.729 18.729 20.5 17 20.5ZM15.354 11.979C15.549 12.174 15.549 12.491 15.354 12.686L12.021 16.02C11.927 16.114 11.8 16.166 11.667 16.166C11.534 16.166 11.407 16.113 11.313 16.02L9.646 14.353C9.451 14.158 9.451 13.841 9.646 13.646C9.841 13.451 10.158 13.451 10.353 13.646L11.666 14.959L14.645 11.979C14.842 11.784 15.158 11.784 15.354 11.979Z" />
</svg>
