<svg viewBox="0 0 24 24" fill="currentColor" stroke="currentColor" xmlns="http://www.w3.org/2000/svg">
<path d="M20.354 8.646L14.354 2.646C14.26 2.552 14.133 2.5 14 2.5H8C5.71 2.5 4.5 3.71 4.5 6V18C4.5 20.29 5.71 21.5 8 21.5H17C19.29 21.5 20.5 20.29 20.5 18V9C20.5 8.867 20.447 8.74 20.354 8.646ZM14.5 4.207L18.793 8.5H17C15.271 8.5 14.5 7.729 14.5 6V4.207ZM17 20.5H8C6.271 20.5 5.5 19.729 5.5 18V6C5.5 4.271 6.271 3.5 8 3.5H13.5V6C13.5 8.29 14.71 9.5 17 9.5H19.5V18C19.5 19.729 18.729 20.5 17 20.5ZM10.354 14.354L8.70801 16L10.354 17.646C10.549 17.841 10.549 18.158 10.354 18.353C10.256 18.451 10.128 18.499 10 18.499C9.872 18.499 9.744 18.45 9.646 18.353L7.646 16.353C7.451 16.158 7.451 15.841 7.646 15.646L9.646 13.646C9.841 13.451 10.158 13.451 10.353 13.646C10.548 13.841 10.549 14.158 10.354 14.354ZM15.354 15.646C15.549 15.841 15.549 16.158 15.354 16.353L13.354 18.353C13.256 18.451 13.128 18.499 13 18.499C12.872 18.499 12.744 18.45 12.646 18.353C12.451 18.158 12.451 17.841 12.646 17.646L14.292 16L12.646 14.354C12.451 14.159 12.451 13.842 12.646 13.647C12.841 13.452 13.158 13.452 13.353 13.647L15.354 15.646Z" />
</svg>
