<svg viewBox="0 0 24 24" fill="currentColor" stroke="currentColor" xmlns="http://www.w3.org/2000/svg">
<path d="M17.0569 19.705C16.6649 20.24 15.993 20.5 15 20.5H6C4.271 20.5 3.5 19.729 3.5 18V6C3.5 4.271 4.271 3.5 6 3.5H11.5V6C11.5 8.29 12.71 9.5 15 9.5H17.5V12C17.5 12.276 17.724 12.5 18 12.5C18.276 12.5 18.5 12.276 18.5 12V9C18.5 8.867 18.447 8.74 18.354 8.646L12.354 2.646C12.26 2.552 12.133 2.5 12 2.5H6C3.71 2.5 2.5 3.71 2.5 6V18C2.5 20.29 3.71 21.5 6 21.5H15C16.315 21.5 17.278 21.095 17.863 20.295C18.026 20.072 17.9779 19.76 17.7549 19.597C17.5339 19.434 17.2209 19.481 17.0569 19.705ZM12.5 6V4.207L16.793 8.5H15C13.271 8.5 12.5 7.729 12.5 6ZM22.353 16.354L20.353 18.354C20.255 18.452 20.127 18.5 19.999 18.5C19.871 18.5 19.743 18.451 19.645 18.354C19.45 18.159 19.45 17.842 19.645 17.647L20.791 16.501H13C12.724 16.501 12.5 16.277 12.5 16.001C12.5 15.725 12.724 15.501 13 15.501H20.793L19.647 14.355C19.452 14.16 19.452 13.843 19.647 13.648C19.842 13.453 20.159 13.453 20.354 13.648L22.354 15.648C22.4 15.694 22.4369 15.75 22.4619 15.811C22.5129 15.933 22.5129 16.071 22.4619 16.193C22.4359 16.252 22.399 16.308 22.353 16.354Z" />
</svg>
