<svg viewBox="0 0 24 24" fill="currentColor" stroke="currentColor" xmlns="http://www.w3.org/2000/svg">
<path d="M21.458 17.793C21.354 17.468 21.0771 17.236 20.7361 17.187L19.0481 16.947L18.3191 15.502C18.0071 14.881 16.991 14.881 16.678 15.502L15.949 16.947L14.261 17.187C13.92 17.236 13.6441 17.468 13.5391 17.793C13.4351 18.116 13.524 18.461 13.77 18.696L14.9839 19.854L14.708 21.433C14.648 21.774 14.785 22.113 15.064 22.319C15.348 22.527 15.72 22.558 16.033 22.396L17.449 21.619L18.9619 22.397C19.0959 22.466 19.241 22.5 19.385 22.5C19.577 22.5 19.7679 22.439 19.9309 22.32C20.2099 22.114 20.3459 21.775 20.2859 21.435L20.01 19.854L21.2251 18.696C21.4731 18.462 21.562 18.116 21.458 17.793ZM19.2749 19.176C19.0629 19.379 18.9651 19.673 19.0161 19.962L19.2729 21.431L17.9089 20.729C17.7809 20.663 17.64 20.63 17.5 20.63C17.36 20.63 17.2191 20.663 17.0911 20.729L15.7271 21.43L15.9851 19.96C16.0351 19.671 15.9371 19.378 15.7241 19.174L14.6431 18.143L16.1479 17.929C16.4349 17.888 16.6851 17.71 16.8181 17.45L17.4771 16.049L18.1841 17.452C18.3161 17.709 18.566 17.888 18.853 17.929L20.3579 18.143L19.2749 19.176ZM11 20.5H6C4.271 20.5 3.5 19.729 3.5 18V6C3.5 4.271 4.271 3.5 6 3.5H11.5V6C11.5 8.29 12.71 9.5 15 9.5H17.5V12C17.5 12.276 17.724 12.5 18 12.5C18.276 12.5 18.5 12.276 18.5 12V9C18.5 8.867 18.447 8.74 18.354 8.646L12.354 2.646C12.26 2.552 12.133 2.5 12 2.5H6C3.71 2.5 2.5 3.71 2.5 6V18C2.5 20.29 3.71 21.5 6 21.5H11C11.276 21.5 11.5 21.276 11.5 21C11.5 20.724 11.276 20.5 11 20.5ZM12.5 6V4.207L16.793 8.5H15C13.271 8.5 12.5 7.729 12.5 6ZM14 11.5C14.276 11.5 14.5 11.724 14.5 12C14.5 12.276 14.276 12.5 14 12.5H7C6.724 12.5 6.5 12.276 6.5 12C6.5 11.724 6.724 11.5 7 11.5H14ZM11.5 16C11.5 16.276 11.276 16.5 11 16.5H7C6.724 16.5 6.5 16.276 6.5 16C6.5 15.724 6.724 15.5 7 15.5H11C11.276 15.5 11.5 15.724 11.5 16Z" />
</svg>
