<svg viewBox="0 0 24 24" fill="currentColor" stroke="currentColor" xmlns="http://www.w3.org/2000/svg">
<path d="M10 19.5H6C4.271 19.5 3.5 18.729 3.5 17V5C3.5 3.271 4.271 2.5 6 2.5H11.5V5C11.5 7.29 12.71 8.5 15 8.5H17.5V10C17.5 10.276 17.724 10.5 18 10.5C18.276 10.5 18.5 10.276 18.5 10V8C18.5 7.867 18.447 7.74 18.354 7.646L12.354 1.646C12.26 1.552 12.133 1.5 12 1.5H6C3.71 1.5 2.5 2.71 2.5 5V17C2.5 19.29 3.71 20.5 6 20.5H10C10.276 20.5 10.5 20.276 10.5 20C10.5 19.724 10.276 19.5 10 19.5ZM12.5 5V3.207L16.793 7.5H15C13.271 7.5 12.5 6.729 12.5 5ZM7.75 11C7.75 11.414 7.414 11.75 7 11.75C6.586 11.75 6.25 11.414 6.25 11C6.25 10.586 6.586 10.25 7 10.25C7.414 10.25 7.75 10.586 7.75 11ZM7.75 15C7.75 15.414 7.414 15.75 7 15.75C6.586 15.75 6.25 15.414 6.25 15C6.25 14.586 6.586 14.25 7 14.25C7.414 14.25 7.75 14.586 7.75 15ZM14 10.5C14.276 10.5 14.5 10.724 14.5 11C14.5 11.276 14.276 11.5 14 11.5H9.5C9.224 11.5 9 11.276 9 11C9 10.724 9.224 10.5 9.5 10.5H14ZM11.5 15C11.5 15.276 11.276 15.5 11 15.5H9.5C9.224 15.5 9 15.276 9 15C9 14.724 9.224 14.5 9.5 14.5H11C11.276 14.5 11.5 14.724 11.5 15ZM21.093 13.897L20.103 12.907C19.84 12.645 19.4921 12.5 19.1221 12.5C19.1211 12.5 19.1211 12.5 19.1201 12.5C18.7491 12.5 18.3989 12.646 18.1379 12.909L12.647 18.425C12.554 18.519 12.501 18.645 12.501 18.778V21C12.501 21.276 12.725 21.5 13.001 21.5H15.2241C15.3561 21.5 15.4829 21.448 15.5769 21.354L21.093 15.863C21.357 15.601 21.501 15.252 21.502 14.881C21.5 14.51 21.355 14.16 21.093 13.897ZM15.0171 20.5H13.5V18.984L17.3311 15.136L18.864 16.67L15.0171 20.5ZM20.386 15.155L19.573 15.965L18.0371 14.428L18.8459 13.615C18.9189 13.541 19.0171 13.5 19.1201 13.5H19.1211C19.2251 13.5 19.322 13.54 19.395 13.614L20.385 14.604C20.458 14.678 20.499 14.776 20.499 14.88C20.5 14.984 20.459 15.081 20.386 15.155Z" />
</svg>
