<svg viewBox="0 0 24 24" fill="currentColor" stroke="currentColor" xmlns="http://www.w3.org/2000/svg">
<path d="M20.354 8.646L14.354 2.646C14.26 2.552 14.133 2.5 14 2.5H8C5.71 2.5 4.5 3.71 4.5 6V18C4.5 20.29 5.71 21.5 8 21.5H17C19.29 21.5 20.5 20.29 20.5 18V9C20.5 8.867 20.447 8.74 20.354 8.646ZM14.5 4.207L18.793 8.5H17C15.271 8.5 14.5 7.729 14.5 6V4.207ZM17 20.5H8C6.271 20.5 5.5 19.729 5.5 18V6C5.5 4.271 6.271 3.5 8 3.5H13.5V6C13.5 8.29 14.71 9.5 17 9.5H19.5V18C19.5 19.729 18.729 20.5 17 20.5ZM14.5 13.599V12.5C14.5 11.397 13.603 10.5 12.5 10.5C11.397 10.5 10.5 11.397 10.5 12.5V13.599C9.862 13.801 9.5 14.327 9.5 15.125V16.875C9.5 17.908 10.093 18.5 11.125 18.5H13.875C14.907 18.5 15.5 17.908 15.5 16.875V15.125C15.5 14.326 15.138 13.8 14.5 13.599ZM12.5 11.5C13.052 11.5 13.5 11.948 13.5 12.5V13.5H11.5V12.5C11.5 11.948 11.948 11.5 12.5 11.5ZM14.5 16.875C14.5 17.348 14.348 17.5 13.875 17.5H11.125C10.652 17.5 10.5 17.348 10.5 16.875V15.125C10.5 14.652 10.652 14.5 11.125 14.5H13.875C14.348 14.5 14.5 14.652 14.5 15.125V16.875Z" />
</svg>
