<svg viewBox="0 0 24 24" fill="currentColor" stroke="currentColor" xmlns="http://www.w3.org/2000/svg">
<path d="M17.0569 19.705C16.6649 20.24 15.993 20.5 15 20.5H6C4.271 20.5 3.5 19.729 3.5 18V6C3.5 4.271 4.271 3.5 6 3.5H11.5V6C11.5 8.29 12.71 9.5 15 9.5H17.5V12C17.5 12.276 17.724 12.5 18 12.5C18.276 12.5 18.5 12.276 18.5 12V9C18.5 8.867 18.447 8.74 18.354 8.646L12.354 2.646C12.26 2.552 12.133 2.5 12 2.5H6C3.71 2.5 2.5 3.71 2.5 6V18C2.5 20.29 3.71 21.5 6 21.5H15C16.315 21.5 17.278 21.095 17.863 20.295C18.026 20.072 17.9779 19.76 17.7549 19.597C17.5329 19.434 17.2199 19.481 17.0569 19.705ZM12.5 6V4.207L16.793 8.5H15C13.271 8.5 12.5 7.729 12.5 6ZM22.5 16C22.5 16.276 22.276 16.5 22 16.5H14.207L15.353 17.646C15.548 17.841 15.548 18.158 15.353 18.353C15.255 18.451 15.127 18.499 14.999 18.499C14.871 18.499 14.743 18.45 14.645 18.353L12.645 16.353C12.599 16.307 12.5621 16.252 12.5371 16.19C12.4861 16.068 12.4861 15.93 12.5371 15.808C12.5621 15.746 12.599 15.691 12.645 15.645L14.645 13.645C14.84 13.45 15.1571 13.45 15.3521 13.645C15.5471 13.84 15.5471 14.157 15.3521 14.352L14.2061 15.498H22C22.276 15.5 22.5 15.724 22.5 16Z" />
</svg>
