<svg viewBox="0 0 24 24" fill="currentColor" stroke="currentColor" xmlns="http://www.w3.org/2000/svg">
<path d="M20.354 8.646L14.354 2.646C14.26 2.552 14.133 2.5 14 2.5H8C5.71 2.5 4.5 3.71 4.5 6V18C4.5 20.29 5.71 21.5 8 21.5H17C19.29 21.5 20.5 20.29 20.5 18V9C20.5 8.867 20.447 8.74 20.354 8.646ZM14.5 4.207L18.793 8.5H17C15.271 8.5 14.5 7.729 14.5 6V4.207ZM17 20.5H8C6.271 20.5 5.5 19.729 5.5 18V6C5.5 4.271 6.271 3.5 8 3.5H13.5V6C13.5 8.29 14.71 9.5 17 9.5H19.5V18C19.5 19.729 18.729 20.5 17 20.5ZM15.917 10.201C15.724 10.055 15.3801 9.913 14.8501 10.063L12.7881 10.642C12.1931 10.815 11.7781 11.365 11.7781 11.979V15.188C11.4691 15.001 11.1099 14.887 10.7229 14.887C9.5889 14.887 8.66699 15.809 8.66699 16.943C8.66699 18.077 9.5889 18.999 10.7229 18.999C11.8559 18.999 12.7781 18.077 12.7781 16.943V14.5C12.7781 14.278 12.899 14.082 13.062 14.035L15.479 13.36C16.006 13.214 16.333 12.806 16.333 12.296V11.185C16.333 10.633 16.106 10.346 15.917 10.201ZM10.7229 18C10.1409 18 9.66699 17.526 9.66699 16.944C9.66699 16.362 10.1409 15.888 10.7229 15.888C11.3049 15.888 11.7781 16.362 11.7781 16.944C11.7781 17.526 11.3049 18 10.7229 18ZM15.333 12.296C15.333 12.322 15.333 12.362 15.21 12.397L12.7871 13.074C12.7841 13.075 12.7801 13.076 12.7771 13.077V11.981C12.7771 11.806 12.893 11.654 13.061 11.605L15.1201 11.027C15.2381 10.993 15.2989 11.001 15.3059 10.995C15.3159 11.016 15.333 11.075 15.333 11.185V12.296Z" />
</svg>
