<svg viewBox="0 0 24 24" fill="currentColor" stroke="currentColor" xmlns="http://www.w3.org/2000/svg">
<path d="M20.354 8.646L14.354 2.646C14.26 2.552 14.133 2.5 14 2.5H8C5.71 2.5 4.5 3.71 4.5 6V18C4.5 20.29 5.71 21.5 8 21.5H17C19.29 21.5 20.5 20.29 20.5 18V9C20.5 8.867 20.447 8.74 20.354 8.646ZM14.5 4.207L18.793 8.5H17C15.271 8.5 14.5 7.729 14.5 6V4.207ZM17 20.5H8C6.271 20.5 5.5 19.729 5.5 18V6C5.5 4.271 6.271 3.5 8 3.5H13.5V6C13.5 8.29 14.71 9.5 17 9.5H19.5V18C19.5 19.729 18.729 20.5 17 20.5ZM15.603 10.407C15.34 10.145 14.9921 10 14.6221 10C14.6211 10 14.6211 10 14.6201 10C14.2491 10 13.8989 10.146 13.6379 10.409L8.14697 15.925C8.05397 16.019 8.00098 16.146 8.00098 16.278V18.5C8.00098 18.776 8.22498 19 8.50098 19H10.7241C10.8561 19 10.9829 18.947 11.0769 18.854L16.593 13.363C16.857 13.101 17.001 12.753 17.002 12.381C17.002 12.009 16.857 11.66 16.595 11.397L15.603 10.407ZM10.5171 18H9V16.484L12.8311 12.636L14.364 14.17L10.5171 18ZM15.886 12.655L15.073 13.465L13.5371 11.928L14.3459 11.115C14.4189 11.042 14.5171 11.001 14.6201 11.001H14.6211C14.7251 11.001 14.822 11.041 14.895 11.115L15.885 12.106C15.958 12.179 15.999 12.278 15.999 12.381C16 12.484 15.959 12.581 15.886 12.655Z" />
</svg>
