<svg viewBox="0 0 24 24" fill="currentColor" stroke="currentColor" xmlns="http://www.w3.org/2000/svg">
<path d="M20.5 17.589V16.49C20.5 15.387 19.603 14.49 18.5 14.49C17.397 14.49 16.5 15.387 16.5 16.49V17.589C15.862 17.79 15.5 18.317 15.5 19.115V20.865C15.5 21.898 16.093 22.49 17.125 22.49H19.875C20.907 22.49 21.5 21.898 21.5 20.865V19.115C21.5 18.316 21.138 17.79 20.5 17.589ZM18.5 15.49C19.052 15.49 19.5 15.938 19.5 16.49V17.49H17.5V16.49C17.5 15.938 17.948 15.49 18.5 15.49ZM20.5 20.865C20.5 21.338 20.348 21.49 19.875 21.49H17.125C16.652 21.49 16.5 21.338 16.5 20.865V19.115C16.5 18.642 16.652 18.49 17.125 18.49H19.875C20.348 18.49 20.5 18.642 20.5 19.115V20.865ZM17.5 12C17.5 12.276 17.724 12.5 18 12.5C18.276 12.5 18.5 12.276 18.5 12V9C18.5 8.867 18.447 8.74 18.354 8.646L12.354 2.646C12.26 2.552 12.133 2.5 12 2.5H6C3.71 2.5 2.5 3.71 2.5 6V18C2.5 20.29 3.71 21.5 6 21.5H13C13.276 21.5 13.5 21.276 13.5 21C13.5 20.724 13.276 20.5 13 20.5H6C4.271 20.5 3.5 19.729 3.5 18V6C3.5 4.271 4.271 3.5 6 3.5H11.5V6C11.5 8.29 12.71 9.5 15 9.5H17.5V12ZM12.5 6V4.207L16.793 8.5H15C13.271 8.5 12.5 7.729 12.5 6ZM14.5 12C14.5 12.276 14.276 12.5 14 12.5H7C6.724 12.5 6.5 12.276 6.5 12C6.5 11.724 6.724 11.5 7 11.5H14C14.276 11.5 14.5 11.724 14.5 12ZM11 15.5C11.276 15.5 11.5 15.724 11.5 16C11.5 16.276 11.276 16.5 11 16.5H7C6.724 16.5 6.5 16.276 6.5 16C6.5 15.724 6.724 15.5 7 15.5H11Z" />
</svg>
