<svg viewBox="0 0 24 24" fill="currentColor" stroke="currentColor" xmlns="http://www.w3.org/2000/svg">
<path d="M11 19.5H6C4.271 19.5 3.5 18.729 3.5 17V5C3.5 3.271 4.271 2.5 6 2.5H11.5V5C11.5 7.29 12.71 8.5 15 8.5H17.5V11C17.5 11.276 17.724 11.5 18 11.5C18.276 11.5 18.5 11.276 18.5 11V8C18.5 7.867 18.447 7.74 18.354 7.646L12.354 1.646C12.26 1.552 12.133 1.5 12 1.5H6C3.71 1.5 2.5 2.71 2.5 5V17C2.5 19.29 3.71 20.5 6 20.5H11C11.276 20.5 11.5 20.276 11.5 20C11.5 19.724 11.276 19.5 11 19.5ZM12.5 5V3.207L16.793 7.5H15C13.271 7.5 12.5 6.729 12.5 5ZM7.75 11C7.75 11.414 7.414 11.75 7 11.75C6.586 11.75 6.25 11.414 6.25 11C6.25 10.586 6.586 10.25 7 10.25C7.414 10.25 7.75 10.586 7.75 11ZM7.75 15C7.75 15.414 7.414 15.75 7 15.75C6.586 15.75 6.25 15.414 6.25 15C6.25 14.586 6.586 14.25 7 14.25C7.414 14.25 7.75 14.586 7.75 15ZM14 10.5C14.276 10.5 14.5 10.724 14.5 11C14.5 11.276 14.276 11.5 14 11.5H9.5C9.224 11.5 9 11.276 9 11C9 10.724 9.224 10.5 9.5 10.5H14ZM11.5 15C11.5 15.276 11.276 15.5 11 15.5H9.5C9.224 15.5 9 15.276 9 15C9 14.724 9.224 14.5 9.5 14.5H11C11.276 14.5 11.5 14.724 11.5 15ZM18 13.5C15.519 13.5 13.5 15.519 13.5 18C13.5 20.481 15.519 22.5 18 22.5C20.481 22.5 22.5 20.481 22.5 18C22.5 15.519 20.481 13.5 18 13.5ZM18 21.5C16.07 21.5 14.5 19.93 14.5 18C14.5 16.07 16.07 14.5 18 14.5C19.93 14.5 21.5 16.07 21.5 18C21.5 19.93 19.93 21.5 18 21.5ZM19.354 17.354L18.708 18L19.354 18.646C19.549 18.841 19.549 19.158 19.354 19.353C19.256 19.451 19.128 19.499 19 19.499C18.872 19.499 18.744 19.45 18.646 19.353L18 18.707L17.354 19.353C17.256 19.451 17.128 19.499 17 19.499C16.872 19.499 16.744 19.45 16.646 19.353C16.451 19.158 16.451 18.841 16.646 18.646L17.292 18L16.646 17.354C16.451 17.159 16.451 16.842 16.646 16.647C16.841 16.452 17.158 16.452 17.353 16.647L17.999 17.293L18.645 16.647C18.84 16.452 19.1571 16.452 19.3521 16.647C19.5471 16.842 19.549 17.158 19.354 17.354Z" />
</svg>
