<svg viewBox="0 0 24 24" fill="currentColor" stroke="currentColor" xmlns="http://www.w3.org/2000/svg">
<path d="M20.354 7.646L15.354 2.646C15.26 2.552 15.133 2.5 15 2.5H10.3999C8.5299 2.5 7.5 3.52999 7.5 5.39999V6.5H6.3999C4.5299 6.5 3.5 7.52999 3.5 9.39999V19.6C3.5 21.47 4.5299 22.5 6.3999 22.5H13.5991C15.4691 22.5 16.499 21.47 16.499 19.6V18.5H17.5991C19.4691 18.5 20.499 17.47 20.499 15.6V8C20.5 7.867 20.447 7.74 20.354 7.646ZM15.5 4.207L18.793 7.5H17.5C16.117 7.5 15.5 6.883 15.5 5.5V4.207ZM15.5 19.6C15.5 20.932 14.9321 21.5 13.6001 21.5H6.40088C5.06888 21.5 4.50098 20.932 4.50098 19.6V9.39999C4.50098 8.06799 5.06888 7.5 6.40088 7.5H7.50098V15.6C7.50098 17.47 8.53088 18.5 10.4009 18.5H15.501V19.6H15.5ZM17.6001 17.5H10.4009C9.06888 17.5 8.50098 16.932 8.50098 15.6V5.39999C8.50098 4.06799 9.06888 3.5 10.4009 3.5H14.501V5.5C14.501 7.435 15.566 8.5 17.501 8.5H19.501V15.6C19.5 16.932 18.9321 17.5 17.6001 17.5Z" />
</svg>
