<svg viewBox="0 0 24 24" fill="currentColor" stroke="currentColor" xmlns="http://www.w3.org/2000/svg">
<path d="M20.354 8.646L14.354 2.646C14.26 2.552 14.133 2.5 14 2.5H8C5.71 2.5 4.5 3.71 4.5 6V18C4.5 20.29 5.71 21.5 8 21.5H17C19.29 21.5 20.5 20.29 20.5 18V9C20.5 8.867 20.447 8.74 20.354 8.646ZM14.5 4.207L18.793 8.5H17C15.271 8.5 14.5 7.729 14.5 6V4.207ZM17 20.5H8C6.271 20.5 5.5 19.729 5.5 18V6C5.5 4.271 6.271 3.5 8 3.5H13.5V6C13.5 8.29 14.71 9.5 17 9.5H19.5V18C19.5 19.729 18.729 20.5 17 20.5ZM14.5 15C14.5 15.276 14.276 15.5 14 15.5H10.207L11.353 16.646C11.548 16.841 11.548 17.158 11.353 17.353C11.255 17.451 11.127 17.499 10.999 17.499C10.871 17.499 10.743 17.45 10.645 17.353L8.64502 15.353C8.59902 15.307 8.56211 15.252 8.53711 15.19C8.48611 15.068 8.48611 14.93 8.53711 14.808C8.56211 14.746 8.59902 14.691 8.64502 14.645L10.645 12.645C10.84 12.45 11.1571 12.45 11.3521 12.645C11.5471 12.84 11.5471 13.157 11.3521 13.352L10.2061 14.498H14C14.276 14.5 14.5 14.724 14.5 15Z" />
</svg>
