<svg viewBox="0 0 24 24" fill="currentColor" stroke="currentColor" xmlns="http://www.w3.org/2000/svg">
<path d="M20.354 8.646L14.354 2.646C14.26 2.552 14.133 2.5 14 2.5H8C5.71 2.5 4.5 3.71 4.5 6V18C4.5 20.29 5.71 21.5 8 21.5H17C19.29 21.5 20.5 20.29 20.5 18V9C20.5 8.867 20.447 8.74 20.354 8.646ZM14.5 4.207L18.793 8.5H17C15.271 8.5 14.5 7.729 14.5 6V4.207ZM17 20.5H8C6.271 20.5 5.5 19.729 5.5 18V6C5.5 4.271 6.271 3.5 8 3.5H13.5V6C13.5 8.29 14.71 9.5 17 9.5H19.5V18C19.5 19.729 18.729 20.5 17 20.5ZM13.354 14.646C13.549 14.841 13.549 15.158 13.354 15.353L11.354 17.353C11.308 17.399 11.2519 17.436 11.1909 17.461C11.1299 17.486 11.065 17.5 11 17.5C10.935 17.5 10.8701 17.487 10.8091 17.461C10.7471 17.436 10.692 17.399 10.646 17.353L8.646 15.353C8.451 15.158 8.451 14.841 8.646 14.646C8.841 14.451 9.15803 14.451 9.35303 14.646L10.499 15.792V12C10.499 11.724 10.723 11.5 10.999 11.5C11.275 11.5 11.499 11.724 11.499 12V15.793L12.645 14.647C12.842 14.451 13.158 14.451 13.354 14.646Z" />
</svg>
