<svg viewBox="0 0 24 24" fill="currentColor" stroke="currentColor" xmlns="http://www.w3.org/2000/svg">
<path d="M20.896 15.834C20.452 15.292 19.8131 15.003 19.0481 15C19.0451 15 19.0411 15 19.0371 15C18.3071 15 17.813 15.341 17.499 15.696C17.185 15.341 16.6909 15 15.9609 15C15.9569 15 15.953 15 15.95 15C15.186 15.004 14.548 15.292 14.104 15.834C13.568 16.488 13.375 17.442 13.574 18.451C14.075 20.989 17.1639 22.397 17.2949 22.456C17.3589 22.485 17.43 22.5 17.499 22.5C17.568 22.5 17.6389 22.485 17.7029 22.456C17.8339 22.397 20.9231 20.989 21.4231 18.451C21.6231 17.442 21.431 16.489 20.896 15.834ZM20.4431 18.258C20.1081 19.957 18.144 21.107 17.5 21.443C16.855 21.107 14.8919 19.957 14.5559 18.259C14.4169 17.554 14.5379 16.885 14.8789 16.469C15.1309 16.161 15.4931 16.003 15.9551 16.001C15.9571 16.001 15.9589 16.001 15.9609 16.001C16.7319 16.001 17.0159 16.774 17.0259 16.804C17.0939 17.006 17.2841 17.14 17.4971 17.142C17.4981 17.142 17.499 17.142 17.501 17.142C17.712 17.142 17.9009 17.007 17.9729 16.808C17.9849 16.775 18.2691 16.001 19.0391 16.001C19.0411 16.001 19.0429 16.001 19.0449 16.001C19.5079 16.003 19.8701 16.16 20.1221 16.469C20.4621 16.884 20.5821 17.553 20.4431 18.258ZM11 20.5H6C4.271 20.5 3.5 19.729 3.5 18V6C3.5 4.271 4.271 3.5 6 3.5H11.5V6C11.5 8.29 12.71 9.5 15 9.5H17.5V12C17.5 12.276 17.724 12.5 18 12.5C18.276 12.5 18.5 12.276 18.5 12V9C18.5 8.867 18.447 8.74 18.354 8.646L12.354 2.646C12.26 2.552 12.133 2.5 12 2.5H6C3.71 2.5 2.5 3.71 2.5 6V18C2.5 20.29 3.71 21.5 6 21.5H11C11.276 21.5 11.5 21.276 11.5 21C11.5 20.724 11.276 20.5 11 20.5ZM12.5 6V4.207L16.793 8.5H15C13.271 8.5 12.5 7.729 12.5 6ZM14 11.5C14.276 11.5 14.5 11.724 14.5 12C14.5 12.276 14.276 12.5 14 12.5H7C6.724 12.5 6.5 12.276 6.5 12C6.5 11.724 6.724 11.5 7 11.5H14ZM11.5 16C11.5 16.276 11.276 16.5 11 16.5H7C6.724 16.5 6.5 16.276 6.5 16C6.5 15.724 6.724 15.5 7 15.5H11C11.276 15.5 11.5 15.724 11.5 16Z" />
</svg>
