<svg viewBox="0 0 24 24" fill="currentColor" stroke="currentColor" xmlns="http://www.w3.org/2000/svg">
<path d="M18 6.5H13.207L10.353 3.646C10.259 3.552 10.132 3.5 9.99902 3.5H5.99902C3.70902 3.5 2.49902 4.71 2.49902 7V17C2.49902 19.29 3.70902 20.5 5.99902 20.5H17.999C20.289 20.5 21.499 19.29 21.499 17V10C21.5 7.71 20.29 6.5 18 6.5ZM20.5 17C20.5 18.729 19.729 19.5 18 19.5H6C4.271 19.5 3.5 18.729 3.5 17V7C3.5 5.271 4.271 4.5 6 4.5H9.79297L12.647 7.354C12.741 7.448 12.868 7.5 13.001 7.5H18.001C19.73 7.5 20.501 8.271 20.501 10V17H20.5ZM11.854 13.646C12.049 13.841 12.049 14.158 11.854 14.353L9.854 16.353C9.808 16.399 9.75192 16.436 9.69092 16.461C9.62992 16.486 9.565 16.5 9.5 16.5C9.435 16.5 9.37008 16.487 9.30908 16.461C9.24708 16.436 9.192 16.399 9.146 16.353L7.146 14.353C6.951 14.158 6.951 13.841 7.146 13.646C7.341 13.451 7.65803 13.451 7.85303 13.646L8.99902 14.792V11C8.99902 10.724 9.22302 10.5 9.49902 10.5C9.77502 10.5 9.99902 10.724 9.99902 11V14.793L11.145 13.647C11.342 13.451 11.658 13.451 11.854 13.646Z" />
</svg>
