<svg viewBox="0 0 24 24" fill="currentColor" stroke="currentColor" xmlns="http://www.w3.org/2000/svg">
<path d="M18 6.5H13.207L10.353 3.646C10.259 3.552 10.132 3.5 9.99902 3.5H5.99902C3.70902 3.5 2.49902 4.71 2.49902 7V17C2.49902 19.29 3.70902 20.5 5.99902 20.5H17.999C20.289 20.5 21.499 19.29 21.499 17V10C21.5 7.71 20.29 6.5 18 6.5ZM20.5 17C20.5 18.729 19.729 19.5 18 19.5H6C4.271 19.5 3.5 18.729 3.5 17V7C3.5 5.271 4.271 4.5 6 4.5H9.79297L12.647 7.354C12.741 7.448 12.868 7.5 13.001 7.5H18.001C19.73 7.5 20.501 8.271 20.501 10V17H20.5ZM12 9.5C9.794 9.5 8 11.294 8 13.5C8 15.706 9.794 17.5 12 17.5C14.206 17.5 16 15.706 16 13.5C16 11.294 14.206 9.5 12 9.5ZM12 10.5C12.647 10.5 13.2419 10.71 13.7329 11.06L9.56006 15.233C9.21006 14.743 9 14.147 9 13.5C9 11.846 10.346 10.5 12 10.5ZM12 16.5C11.353 16.5 10.7581 16.29 10.2671 15.94L14.4399 11.767C14.7899 12.257 15 12.853 15 13.5C15 15.154 13.654 16.5 12 16.5Z" />
</svg>
