<svg viewBox="0 0 24 24" fill="currentColor" stroke="currentColor" xmlns="http://www.w3.org/2000/svg">
<path d="M18 6.5H13.207L10.353 3.646C10.259 3.552 10.132 3.5 9.99902 3.5H5.99902C3.70902 3.5 2.49902 4.71 2.49902 7V17C2.49902 19.29 3.70902 20.5 5.99902 20.5H17.999C20.289 20.5 21.499 19.29 21.499 17V10C21.5 7.71 20.29 6.5 18 6.5ZM20.5 17C20.5 18.729 19.729 19.5 18 19.5H6C4.271 19.5 3.5 18.729 3.5 17V7C3.5 5.271 4.271 4.5 6 4.5H9.79297L12.647 7.354C12.741 7.448 12.868 7.5 13.001 7.5H18.001C19.73 7.5 20.501 8.271 20.501 10V17H20.5ZM14.354 11.854L12.708 13.5L14.354 15.146C14.549 15.341 14.549 15.658 14.354 15.853C14.256 15.951 14.128 15.999 14 15.999C13.872 15.999 13.744 15.95 13.646 15.853L12 14.207L10.354 15.853C10.256 15.951 10.128 15.999 10 15.999C9.872 15.999 9.744 15.95 9.646 15.853C9.451 15.658 9.451 15.341 9.646 15.146L11.292 13.5L9.646 11.854C9.451 11.659 9.451 11.342 9.646 11.147C9.841 10.952 10.158 10.952 10.353 11.147L11.999 12.793L13.645 11.147C13.84 10.952 14.1571 10.952 14.3521 11.147C14.5471 11.342 14.549 11.658 14.354 11.854Z" />
</svg>
