<svg viewBox="0 0 24 24" fill="currentColor" stroke="currentColor" xmlns="http://www.w3.org/2000/svg">
<path d="M18 6.5H13.207L10.353 3.646C10.259 3.552 10.132 3.5 9.99902 3.5H5.99902C3.70902 3.5 2.49902 4.71 2.49902 7V17C2.49902 19.29 3.70902 20.5 5.99902 20.5H17.999C20.289 20.5 21.499 19.29 21.499 17V10C21.5 7.71 20.29 6.5 18 6.5ZM20.5 17C20.5 18.729 19.729 19.5 18 19.5H6C4.271 19.5 3.5 18.729 3.5 17V7C3.5 5.271 4.271 4.5 6 4.5H9.79297L12.647 7.354C12.741 7.448 12.868 7.5 13.001 7.5H18.001C19.73 7.5 20.501 8.271 20.501 10V17H20.5ZM15.126 10.632C13.603 10.237 12.8911 9.89801 12.2371 9.55701C12.0931 9.48201 11.9211 9.481 11.7771 9.556C10.9871 9.962 10.2559 10.278 8.85889 10.688C8.64589 10.75 8.5 10.946 8.5 11.168V13.112C8.5 15.477 10.2239 16.916 11.8369 17.474C11.8899 17.492 11.944 17.501 12 17.501C12.056 17.501 12.1101 17.492 12.1631 17.474C13.7761 16.916 15.5 15.478 15.5 13.112V11.117C15.5 10.888 15.346 10.689 15.126 10.632ZM14.5 13.111C14.5 15.269 12.669 16.199 12 16.466C11.331 16.199 9.5 15.269 9.5 13.111V11.539C10.621 11.195 11.3129 10.906 12.0039 10.561C12.6959 10.91 13.388 11.193 14.5 11.499V13.111Z" />
</svg>
