<svg viewBox="0 0 24 24" fill="currentColor" stroke="currentColor" xmlns="http://www.w3.org/2000/svg">
<path d="M18 6.5H13.207L10.353 3.646C10.259 3.552 10.132 3.5 9.99902 3.5H5.99902C3.70902 3.5 2.49902 4.71 2.49902 7V17C2.49902 19.29 3.70902 20.5 5.99902 20.5H17.999C20.289 20.5 21.499 19.29 21.499 17V10C21.5 7.71 20.29 6.5 18 6.5ZM20.5 17C20.5 18.729 19.729 19.5 18 19.5H6C4.271 19.5 3.5 18.729 3.5 17V7C3.5 5.271 4.271 4.5 6 4.5H9.79297L12.647 7.354C12.741 7.448 12.868 7.5 13.001 7.5H18.001C19.73 7.5 20.501 8.271 20.501 10V17H20.5ZM12.5 14C12.5 14.276 12.276 14.5 12 14.5H8.20703L9.35303 15.646C9.54803 15.841 9.54803 16.158 9.35303 16.353C9.25503 16.451 9.12702 16.499 8.99902 16.499C8.87102 16.499 8.74302 16.45 8.64502 16.353L6.64502 14.353C6.59902 14.307 6.56211 14.251 6.53711 14.19C6.48611 14.068 6.48611 13.93 6.53711 13.808C6.56211 13.746 6.59902 13.691 6.64502 13.645L8.64502 11.645C8.84002 11.45 9.15705 11.45 9.35205 11.645C9.54705 11.84 9.54705 12.157 9.35205 12.352L8.20605 13.498H12C12.276 13.5 12.5 13.724 12.5 14Z" />
</svg>
