<svg viewBox="0 0 24 24" fill="currentColor" stroke="currentColor" xmlns="http://www.w3.org/2000/svg">
<path d="M18 6.5H13.207L10.353 3.646C10.259 3.552 10.132 3.5 9.99902 3.5H5.99902C3.70902 3.5 2.49902 4.71 2.49902 7V17C2.49902 19.29 3.70902 20.5 5.99902 20.5H17.999C20.289 20.5 21.499 19.29 21.499 17V10C21.5 7.71 20.29 6.5 18 6.5ZM20.5 17C20.5 18.729 19.729 19.5 18 19.5H6C4.271 19.5 3.5 18.729 3.5 17V7C3.5 5.271 4.271 4.5 6 4.5H9.79297L12.647 7.354C12.741 7.448 12.868 7.5 13.001 7.5H18.001C19.73 7.5 20.501 8.271 20.501 10V17H20.5ZM15.2361 11.65L13.5481 11.41L12.8191 9.965C12.5071 9.344 11.491 9.344 11.178 9.965L10.449 11.41L8.76099 11.65C8.41999 11.699 8.14406 11.931 8.03906 12.256C7.93506 12.578 8.02402 12.924 8.27002 13.159L9.48389 14.317L9.20801 15.896C9.14801 16.237 9.28497 16.576 9.56396 16.782C9.84896 16.991 10.221 17.021 10.533 16.859L11.949 16.082L13.4619 16.86C13.5959 16.929 13.741 16.963 13.885 16.963C14.077 16.963 14.2679 16.902 14.4309 16.783C14.7099 16.577 14.8459 16.238 14.7859 15.898L14.51 14.317L15.7251 13.159C15.9701 12.925 16.0591 12.579 15.9551 12.257C15.8541 11.932 15.5771 11.699 15.2361 11.65ZM13.7749 13.639C13.5629 13.842 13.4651 14.136 13.5161 14.425L13.7729 15.894L12.4089 15.192C12.2809 15.126 12.14 15.093 12 15.093C11.86 15.093 11.7191 15.126 11.5911 15.192L10.2271 15.893L10.4851 14.423C10.5351 14.134 10.4371 13.841 10.2241 13.637L9.14307 12.606L10.6479 12.392C10.9349 12.351 11.1851 12.173 11.3181 11.913L11.9771 10.512L12.6841 11.915C12.8161 12.172 13.066 12.351 13.353 12.392L14.8579 12.606L13.7749 13.639Z" />
</svg>
