<svg viewBox="0 0 24 24" fill="currentColor" stroke="currentColor" xmlns="http://www.w3.org/2000/svg">
<path d="M18 6.5H13.207L10.353 3.646C10.259 3.552 10.132 3.5 9.99902 3.5H5.99902C3.70902 3.5 2.49902 4.71 2.49902 7V17C2.49902 19.29 3.70902 20.5 5.99902 20.5H17.999C20.289 20.5 21.499 19.29 21.499 17V10C21.5 7.71 20.29 6.5 18 6.5ZM20.5 17C20.5 18.729 19.729 19.5 18 19.5H6C4.271 19.5 3.5 18.729 3.5 17V7C3.5 5.271 4.271 4.5 6 4.5H9.79297L12.647 7.354C12.741 7.448 12.868 7.5 13.001 7.5H18.001C19.73 7.5 20.501 8.271 20.501 10V17H20.5ZM15.103 9.40701C14.84 9.14501 14.4921 9 14.1221 9C14.1211 9 14.1211 9 14.1201 9C13.7491 9 13.3989 9.146 13.1379 9.409L7.64697 14.925C7.55397 15.019 7.50098 15.145 7.50098 15.278V17.5C7.50098 17.776 7.72498 18 8.00098 18H10.2241C10.3561 18 10.4829 17.948 10.5769 17.854L16.093 12.363C16.357 12.101 16.501 11.752 16.502 11.381C16.502 11.009 16.357 10.66 16.095 10.397L15.103 9.40701ZM10.0171 17H8.5V15.484L12.3311 11.636L13.864 13.17L10.0171 17ZM15.386 11.655L14.573 12.465L13.0371 10.928L13.8459 10.115C13.9189 10.041 14.0171 10 14.1201 10H14.1211C14.2251 10 14.322 10.04 14.395 10.114L15.385 11.104C15.458 11.178 15.499 11.276 15.499 11.38C15.5 11.484 15.459 11.581 15.386 11.655Z" />
</svg>
