<svg viewBox="0 0 24 24" fill="currentColor" stroke="currentColor" xmlns="http://www.w3.org/2000/svg">
<path d="M18 6.5H13.207L10.353 3.646C10.259 3.552 10.132 3.5 9.99902 3.5H5.99902C3.70902 3.5 2.49902 4.71 2.49902 7V17C2.49902 19.29 3.70902 20.5 5.99902 20.5H17.999C20.289 20.5 21.499 19.29 21.499 17V10C21.5 7.71 20.29 6.5 18 6.5ZM20.5 17C20.5 18.729 19.729 19.5 18 19.5H6C4.271 19.5 3.5 18.729 3.5 17V7C3.5 5.271 4.271 4.5 6 4.5H9.79297L12.647 7.354C12.741 7.448 12.868 7.5 13.001 7.5H18.001C19.73 7.5 20.501 8.271 20.501 10V17H20.5ZM11.854 12.646C12.049 12.841 12.049 13.158 11.854 13.353C11.756 13.451 11.628 13.499 11.5 13.499C11.372 13.499 11.244 13.45 11.146 13.353L10 12.207V16C10 16.276 9.776 16.5 9.5 16.5C9.224 16.5 9 16.276 9 16V12.207L7.854 13.353C7.659 13.548 7.34197 13.548 7.14697 13.353C6.95197 13.158 6.95197 12.841 7.14697 12.646L9.14697 10.646C9.19297 10.6 9.24906 10.563 9.31006 10.538C9.43206 10.487 9.56989 10.487 9.69189 10.538C9.75389 10.563 9.80898 10.6 9.85498 10.646L11.854 12.646Z" />
</svg>
