<svg viewBox="0 0 24 24" fill="currentColor" stroke="currentColor" xmlns="http://www.w3.org/2000/svg">
<path d="M18 6.5H13.207L10.353 3.646C10.259 3.552 10.132 3.5 9.99902 3.5H5.99902C3.70902 3.5 2.49902 4.71 2.49902 7V17C2.49902 19.29 3.70902 20.5 5.99902 20.5H17.999C20.289 20.5 21.499 19.29 21.499 17V10C21.5 7.71 20.29 6.5 18 6.5ZM20.5 17C20.5 18.729 19.729 19.5 18 19.5H6C4.271 19.5 3.5 18.729 3.5 17V7C3.5 5.271 4.271 4.5 6 4.5H9.79297L12.647 7.354C12.741 7.448 12.868 7.5 13.001 7.5H18.001C19.73 7.5 20.501 8.271 20.501 10V17H20.5ZM13.5491 10C13.5461 10 13.5421 10 13.5381 10C12.8081 10 12.314 10.341 12 10.696C11.684 10.339 11.1519 9.997 10.4509 10C9.68693 10.004 9.04898 10.292 8.60498 10.834C8.06898 11.488 7.87595 12.442 8.07495 13.451C8.57595 15.989 11.6649 17.397 11.7959 17.456C11.8599 17.485 11.931 17.5 12 17.5C12.069 17.5 12.1401 17.485 12.2041 17.456C12.3351 17.397 15.4241 15.989 15.9241 13.451C16.1231 12.442 15.931 11.488 15.397 10.834C14.952 10.292 14.3131 10.004 13.5491 10ZM14.9431 13.258C14.6081 14.957 12.644 16.107 12 16.443C11.355 16.107 9.39191 14.957 9.05591 13.259C8.91691 12.554 9.03791 11.885 9.37891 11.469C9.63091 11.161 9.99308 11.003 10.4551 11.001C10.4571 11.001 10.4589 11.001 10.4609 11.001C11.2319 11.001 11.5159 11.774 11.5259 11.804C11.5939 12.006 11.7841 12.14 11.9971 12.142C11.9981 12.142 11.999 12.142 12.001 12.142C12.212 12.142 12.4009 12.007 12.4729 11.808C12.4849 11.775 12.7691 11.001 13.5391 11.001C13.5411 11.001 13.5429 11.001 13.5449 11.001C14.0079 11.003 14.3701 11.16 14.6221 11.469C14.9621 11.884 15.0821 12.553 14.9431 13.258Z" />
</svg>
