<svg viewBox="0 0 24 24" fill="currentColor" stroke="currentColor" xmlns="http://www.w3.org/2000/svg">
<path d="M18 6.5H13.207L10.353 3.646C10.259 3.552 10.132 3.5 9.99902 3.5H5.99902C3.70902 3.5 2.49902 4.71 2.49902 7V17C2.49902 19.29 3.70902 20.5 5.99902 20.5H17.999C20.289 20.5 21.499 19.29 21.499 17V10C21.5 7.71 20.29 6.5 18 6.5ZM20.5 17C20.5 18.729 19.729 19.5 18 19.5H6C4.271 19.5 3.5 18.729 3.5 17V7C3.5 5.271 4.271 4.5 6 4.5H9.79297L12.647 7.354C12.741 7.448 12.868 7.5 13.001 7.5H18.001C19.73 7.5 20.501 8.271 20.501 10V17H20.5ZM12 13.15C13.186 13.15 14.1499 12.186 14.1499 11C14.1499 9.814 13.185 8.85001 12 8.85001C10.815 8.85001 9.8501 9.814 9.8501 11C9.8501 12.186 10.814 13.15 12 13.15ZM12 9.85001C12.635 9.85001 13.1499 10.366 13.1499 11C13.1499 11.634 12.634 12.15 12 12.15C11.366 12.15 10.8501 11.634 10.8501 11C10.8501 10.366 11.365 9.85001 12 9.85001ZM15.5 17.047V17.35C15.5 17.626 15.276 17.85 15 17.85C14.724 17.85 14.5 17.626 14.5 17.35V17.047C14.5 16.23 13.9181 15.35 12.6421 15.35H11.3589C10.0829 15.35 9.50098 16.23 9.50098 17.047V17.35C9.50098 17.626 9.27698 17.85 9.00098 17.85C8.72498 17.85 8.50098 17.626 8.50098 17.35V17.047C8.50098 15.707 9.48189 14.35 11.3589 14.35H12.6421C14.5191 14.35 15.5 15.707 15.5 17.047Z" />
</svg>
