<svg viewBox="0 0 24 24" fill="currentColor" stroke="currentColor" xmlns="http://www.w3.org/2000/svg">
<path d="M18 6.5H13.207L10.353 3.646C10.259 3.552 10.132 3.5 9.99902 3.5H5.99902C3.70902 3.5 2.49902 4.71 2.49902 7V17C2.49902 19.29 3.70902 20.5 5.99902 20.5H17.999C20.289 20.5 21.499 19.29 21.499 17V10C21.5 7.71 20.29 6.5 18 6.5ZM20.5 17C20.5 18.729 19.729 19.5 18 19.5H6C4.271 19.5 3.5 18.729 3.5 17V7C3.5 5.271 4.271 4.5 6 4.5H9.79297L12.647 7.354C12.741 7.448 12.868 7.5 13.001 7.5H18.001C19.73 7.5 20.501 8.271 20.501 10V17H20.5ZM13.6689 14.962C14.0919 14.393 14.3511 13.696 14.3511 12.935C14.3511 11.051 12.8181 9.51801 10.9341 9.51801C9.05008 9.51801 7.51807 11.051 7.51807 12.935C7.51807 14.819 9.05008 16.352 10.9341 16.352C11.6961 16.352 12.3929 16.093 12.9619 15.67L14.665 17.372C14.763 17.47 14.891 17.518 15.019 17.518C15.147 17.518 15.275 17.469 15.373 17.372C15.568 17.177 15.568 16.86 15.373 16.665L13.6689 14.962ZM8.51904 12.935C8.51904 11.602 9.60306 10.518 10.9351 10.518C12.2681 10.518 13.3521 11.602 13.3521 12.935C13.3521 14.268 12.2681 15.352 10.9351 15.352C9.60306 15.352 8.51904 14.268 8.51904 12.935Z" />
</svg>
