<svg viewBox="0 0 24 24" fill="currentColor" stroke="currentColor" xmlns="http://www.w3.org/2000/svg">
<path d="M22.2241 11.53C21.8621 10.912 21.217 10.543 20.499 10.543H19.5V10C19.5 7.71 18.29 6.5 16 6.5H10.207L8.35303 4.646C8.25903 4.552 8.13202 4.5 7.99902 4.5H4.99902C2.70902 4.5 1.49902 5.71 1.49902 8V18.496C1.49902 18.5 1.50098 18.503 1.50098 18.507C1.50098 18.853 1.5909 19.2 1.7749 19.513C2.1379 20.131 2.78298 20.499 3.50098 20.499H16.282C17.552 20.499 18.7231 19.812 19.3411 18.707L22.2439 13.506C22.5929 12.884 22.5851 12.145 22.2241 11.53ZM5 5.5H7.79297L9.64697 7.354C9.74097 7.448 9.86798 7.5 10.001 7.5H16.001C17.73 7.5 18.501 8.271 18.501 10V10.542L7.72095 10.536C7.71995 10.536 7.71999 10.536 7.71899 10.536C6.44799 10.536 5.27594 11.223 4.65894 12.33L2.50098 16.201V8C2.49998 6.271 3.271 5.5 5 5.5ZM21.3721 13.02L18.469 18.221C18.029 19.01 17.191 19.501 16.283 19.501H3.50195C3.14295 19.501 2.81992 19.317 2.63892 19.008C2.45892 18.702 2.45493 18.334 2.62793 18.024L5.53101 12.817C5.97101 12.027 6.80902 11.536 7.71802 11.536C7.71902 11.536 7.71897 11.536 7.71997 11.536L20.499 11.543C20.858 11.543 21.1811 11.728 21.3611 12.036C21.5411 12.342 21.5451 12.71 21.3721 13.02Z" />
</svg>
