<svg viewBox="0 0 24 24" fill="currentColor" stroke="currentColor" xmlns="http://www.w3.org/2000/svg">
<path d="M18 6.5H13.207L10.353 3.646C10.259 3.552 10.132 3.5 9.99902 3.5H5.99902C3.70902 3.5 2.49902 4.71 2.49902 7V17C2.49902 19.29 3.70902 20.5 5.99902 20.5H17.999C20.289 20.5 21.499 19.29 21.499 17V10C21.5 7.71 20.29 6.5 18 6.5ZM20.5 17C20.5 18.729 19.729 19.5 18 19.5H6C4.271 19.5 3.5 18.729 3.5 17V7C3.5 5.271 4.271 4.5 6 4.5H9.79297L12.647 7.354C12.741 7.448 12.868 7.5 13.001 7.5H18.001C19.73 7.5 20.501 8.271 20.501 10V17H20.5ZM14 12.599V11.5C14 10.397 13.103 9.5 12 9.5C10.897 9.5 10 10.397 10 11.5V12.599C9.362 12.801 9 13.327 9 14.125V15.875C9 16.908 9.593 17.5 10.625 17.5H13.375C14.407 17.5 15 16.908 15 15.875V14.125C15 13.326 14.638 12.8 14 12.599ZM12 10.5C12.552 10.5 13 10.948 13 11.5V12.5H11V11.5C11 10.948 11.448 10.5 12 10.5ZM14 15.875C14 16.348 13.848 16.5 13.375 16.5H10.625C10.152 16.5 10 16.348 10 15.875V14.125C10 13.652 10.152 13.5 10.625 13.5H13.375C13.848 13.5 14 13.652 14 14.125V15.875Z" />
</svg>
