<svg viewBox="0 0 24 24" fill="currentColor" stroke="currentColor" xmlns="http://www.w3.org/2000/svg">
<path d="M17 3.5H12.207L10.353 1.646C10.259 1.552 10.132 1.5 9.99902 1.5H6.99902C4.70902 1.5 3.49902 2.71 3.49902 5V12C3.49902 14.29 4.70902 15.5 6.99902 15.5H11.499V17.551C10.521 17.75 9.74905 18.522 9.55005 19.5H5C4.724 19.5 4.5 19.724 4.5 20C4.5 20.276 4.724 20.5 5 20.5H9.55103C9.78303 21.64 10.793 22.5 12 22.5C13.207 22.5 14.217 21.64 14.449 20.5H19C19.276 20.5 19.5 20.276 19.5 20C19.5 19.724 19.276 19.5 19 19.5H14.449C14.25 18.522 13.478 17.75 12.5 17.551V15.5H17C19.29 15.5 20.5 14.29 20.5 12V7C20.5 4.71 19.29 3.5 17 3.5ZM13.5 20C13.5 20.827 12.827 21.5 12 21.5C11.173 21.5 10.5 20.827 10.5 20C10.5 19.173 11.173 18.5 12 18.5C12.827 18.5 13.5 19.173 13.5 20ZM19.5 12C19.5 13.729 18.729 14.5 17 14.5H7C5.271 14.5 4.5 13.729 4.5 12V5C4.5 3.271 5.271 2.5 7 2.5H9.79297L11.647 4.354C11.741 4.448 11.868 4.5 12.001 4.5H17.001C18.73 4.5 19.501 5.271 19.501 7V12H19.5Z" />
</svg>
