<svg viewBox="0 0 24 24" fill="currentColor" stroke="currentColor" xmlns="http://www.w3.org/2000/svg">
<path d="M15.1279 10.821C14.9879 10.588 14.6891 10.509 14.4541 10.641L14.3391 10.706C14.1171 10.83 13.8441 10.829 13.6221 10.705C13.4091 10.585 13.2771 10.365 13.2771 10.131C13.2771 9.78301 12.9921 9.5 12.6421 9.5H11.3081C10.9581 9.5 10.6731 9.78301 10.6731 10.131C10.6731 10.365 10.5411 10.585 10.3291 10.705C10.1061 10.83 9.83306 10.83 9.61206 10.706C9.31206 10.538 8.92708 10.641 8.75708 10.933L8.08594 12.058C8.01794 12.174 7.985 12.409 8.021 12.538C8.065 12.7 8.17402 12.84 8.32202 12.924C8.53502 13.044 8.66795 13.264 8.66895 13.498C8.66995 13.734 8.53707 13.955 8.32007 14.077C8.17307 14.16 8.06302 14.302 8.02002 14.465C7.98702 14.595 8.01989 14.829 8.08789 14.944L8.75708 16.068C8.93408 16.361 9.30906 16.463 9.61206 16.294C9.83506 16.17 10.1079 16.171 10.3269 16.295C10.5399 16.415 10.6731 16.634 10.6721 16.869C10.6721 17.217 10.9569 17.5 11.3069 17.5H12.6431C12.9931 17.5 13.2771 17.217 13.2771 16.869C13.2771 16.635 13.4091 16.415 13.6221 16.295C13.8431 16.171 14.1169 16.17 14.3379 16.294C14.6389 16.463 15.0151 16.364 15.1941 16.067L15.8611 14.947C15.9311 14.831 15.9649 14.595 15.9309 14.464C15.8879 14.301 15.7779 14.159 15.6279 14.076C15.4149 13.956 15.283 13.735 15.282 13.501C15.282 13.265 15.415 13.043 15.627 12.923L15.7429 12.858C15.8609 12.792 15.9469 12.681 15.9819 12.551C16.0159 12.421 15.998 12.282 15.928 12.166L15.1279 10.821ZM14.8301 14.724L14.499 15.281C14.048 15.141 13.5491 15.188 13.1321 15.424C12.7161 15.658 12.4251 16.052 12.3201 16.5H11.6311C11.5271 16.052 11.2351 15.658 10.8191 15.424C10.4021 15.188 9.90088 15.141 9.45288 15.28L9.12207 14.724C9.46707 14.411 9.66995 13.965 9.66895 13.494C9.66695 13.028 9.46409 12.587 9.12109 12.275L9.45288 11.719C9.90288 11.859 10.4031 11.811 10.8201 11.576C11.2351 11.342 11.5271 10.948 11.6311 10.5H12.3201C12.4241 10.948 12.7161 11.342 13.1321 11.576C13.5501 11.812 14.05 11.86 14.499 11.719L14.8301 12.275C14.4861 12.588 14.283 13.032 14.283 13.503C14.284 13.97 14.4871 14.412 14.8301 14.724ZM12.75 13.5C12.75 13.914 12.4159 14.25 12.0039 14.25C11.5929 14.25 11.25 13.914 11.25 13.5C11.25 13.086 11.577 12.75 11.989 12.75H12.0039C12.4159 12.75 12.75 13.086 12.75 13.5ZM18 6.5H13.207L10.353 3.646C10.259 3.552 10.132 3.5 9.99902 3.5H5.99902C3.70902 3.5 2.49902 4.71 2.49902 7V17C2.49902 19.29 3.70902 20.5 5.99902 20.5H17.999C20.289 20.5 21.499 19.29 21.499 17V10C21.5 7.71 20.29 6.5 18 6.5ZM20.5 17C20.5 18.729 19.729 19.5 18 19.5H6C4.271 19.5 3.5 18.729 3.5 17V7C3.5 5.271 4.271 4.5 6 4.5H9.79297L12.647 7.354C12.741 7.448 12.868 7.5 13.001 7.5H18.001C19.73 7.5 20.501 8.271 20.501 10L20.5 17Z" />
</svg>
