<svg viewBox="0 0 24 24" fill="currentColor" stroke="currentColor" xmlns="http://www.w3.org/2000/svg">
<path d="M18 6.5H13.207L10.353 3.646C10.259 3.552 10.132 3.5 9.99902 3.5H5.99902C3.70902 3.5 2.49902 4.71 2.49902 7V17C2.49902 19.29 3.70902 20.5 5.99902 20.5H17.999C20.289 20.5 21.499 19.29 21.499 17V10C21.5 7.71 20.29 6.5 18 6.5ZM20.5 17C20.5 18.729 19.729 19.5 18 19.5H6C4.271 19.5 3.5 18.729 3.5 17V7C3.5 5.271 4.271 4.5 6 4.5H9.79297L12.647 7.354C12.741 7.448 12.868 7.5 13.001 7.5H18.001C19.73 7.5 20.501 8.271 20.501 10V17H20.5ZM9.354 12.354L7.70801 14L9.354 15.646C9.549 15.841 9.549 16.158 9.354 16.353C9.256 16.451 9.128 16.499 9 16.499C8.872 16.499 8.744 16.45 8.646 16.353L6.646 14.353C6.451 14.158 6.451 13.841 6.646 13.646L8.646 11.646C8.841 11.451 9.15803 11.451 9.35303 11.646C9.54803 11.841 9.549 12.158 9.354 12.354ZM14.354 13.646C14.549 13.841 14.549 14.158 14.354 14.353L12.354 16.353C12.256 16.451 12.128 16.499 12 16.499C11.872 16.499 11.744 16.45 11.646 16.353C11.451 16.158 11.451 15.841 11.646 15.646L13.292 14L11.646 12.354C11.451 12.159 11.451 11.842 11.646 11.647C11.841 11.452 12.158 11.452 12.353 11.647L14.354 13.646Z" />
</svg>
