<svg viewBox="0 0 24 24" fill="currentColor" stroke="currentColor" xmlns="http://www.w3.org/2000/svg">
<path d="M12 9.5C9.794 9.5 8 11.294 8 13.5C8 15.706 9.794 17.5 12 17.5C14.206 17.5 16 15.706 16 13.5C16 11.294 14.206 9.5 12 9.5ZM12 16.5C10.346 16.5 9 15.154 9 13.5C9 11.846 10.346 10.5 12 10.5C13.654 10.5 15 11.846 15 13.5C15 15.154 13.654 16.5 12 16.5ZM13.291 14.084C13.486 14.279 13.486 14.596 13.291 14.791C13.193 14.889 13.065 14.937 12.937 14.937C12.809 14.937 12.681 14.888 12.583 14.791L11.645 13.854C11.551 13.76 11.499 13.633 11.499 13.5V12.188C11.499 11.912 11.723 11.688 11.999 11.688C12.275 11.688 12.499 11.912 12.499 12.188V13.293L13.291 14.084ZM18 6.5H13.207L10.353 3.646C10.259 3.552 10.132 3.5 9.99902 3.5H5.99902C3.70902 3.5 2.49902 4.71 2.49902 7V17C2.49902 19.29 3.70902 20.5 5.99902 20.5H17.999C20.289 20.5 21.499 19.29 21.499 17V10C21.5 7.71 20.29 6.5 18 6.5ZM20.5 17C20.5 18.729 19.729 19.5 18 19.5H6C4.271 19.5 3.5 18.729 3.5 17V7C3.5 5.271 4.271 4.5 6 4.5H9.79297L12.647 7.354C12.741 7.448 12.868 7.5 13.001 7.5H18.001C19.73 7.5 20.501 8.271 20.501 10V17H20.5Z" />
</svg>
