<svg viewBox="0 0 24 24" fill="currentColor" stroke="currentColor" xmlns="http://www.w3.org/2000/svg">
<path d="M18 6.5H13.207L10.353 3.646C10.259 3.552 10.132 3.5 9.99902 3.5H5.99902C3.70902 3.5 2.49902 4.71 2.49902 7V17C2.49902 19.29 3.70902 20.5 5.99902 20.5H17.999C20.289 20.5 21.499 19.29 21.499 17V10C21.5 7.71 20.29 6.5 18 6.5ZM20.5 17C20.5 18.729 19.729 19.5 18 19.5H6C4.271 19.5 3.5 18.729 3.5 17V7C3.5 5.271 4.271 4.5 6 4.5H9.79297L12.647 7.354C12.741 7.448 12.868 7.5 13.001 7.5H18.001C19.73 7.5 20.501 8.271 20.501 10V17H20.5ZM12.4609 14.191C12.4359 14.252 12.399 14.308 12.353 14.354L10.353 16.354C10.255 16.452 10.127 16.5 9.99902 16.5C9.87102 16.5 9.74302 16.451 9.64502 16.354C9.45002 16.159 9.45002 15.842 9.64502 15.647L10.791 14.501H7C6.724 14.501 6.5 14.277 6.5 14.001C6.5 13.725 6.724 13.501 7 13.501H10.793L9.64697 12.355C9.45197 12.16 9.45197 11.843 9.64697 11.648C9.84197 11.453 10.159 11.453 10.354 11.648L12.354 13.648C12.4 13.694 12.4369 13.75 12.4619 13.811C12.5119 13.931 12.5119 14.069 12.4609 14.191Z" />
</svg>
