<svg viewBox="0 0 24 24" fill="currentColor" stroke="currentColor" xmlns="http://www.w3.org/2000/svg">
<path d="M18 6.5H13.207L10.353 3.646C10.259 3.552 10.132 3.5 9.99902 3.5H5.99902C3.70902 3.5 2.49902 4.71 2.49902 7V17C2.49902 19.29 3.70902 20.5 5.99902 20.5H17.999C20.289 20.5 21.499 19.29 21.499 17V10C21.5 7.71 20.29 6.5 18 6.5ZM20.5 17C20.5 18.729 19.729 19.5 18 19.5H6C4.271 19.5 3.5 18.729 3.5 17V7C3.5 5.271 4.271 4.5 6 4.5H9.79297L12.647 7.354C12.741 7.448 12.868 7.5 13.001 7.5H18.001C19.73 7.5 20.501 8.271 20.501 10V17H20.5ZM15.417 9.20099C15.225 9.05499 14.8801 8.91199 14.3501 9.06299L12.2881 9.642C11.6931 9.815 11.2781 10.365 11.2781 10.98V14.19C10.9691 14.003 10.6099 13.889 10.2229 13.889C9.0889 13.889 8.16699 14.811 8.16699 15.944C8.16699 17.078 9.0889 18 10.2229 18C11.3559 18 12.2781 17.078 12.2781 15.944V13.5C12.2781 13.279 12.399 13.082 12.562 13.035L14.979 12.36C15.506 12.214 15.833 11.806 15.833 11.296V10.185C15.833 9.633 15.606 9.34499 15.417 9.20099ZM10.2229 17C9.6409 17 9.16699 16.526 9.16699 15.944C9.16699 15.362 9.6409 14.889 10.2229 14.889C10.8049 14.889 11.2781 15.362 11.2781 15.944C11.2781 16.526 10.8049 17 10.2229 17ZM14.833 11.296C14.833 11.323 14.833 11.363 14.71 11.397L12.2871 12.074C12.2841 12.075 12.2801 12.076 12.2771 12.077V10.981C12.2771 10.805 12.393 10.654 12.561 10.605L14.6201 10.027C14.7381 9.99401 14.7989 10.001 14.8059 9.996C14.8159 10.016 14.833 10.076 14.833 10.186V11.296Z" />
</svg>
