<svg viewBox="0 0 24 24" fill="currentColor" stroke="currentColor" xmlns="http://www.w3.org/2000/svg">
<path d="M19.914 21C19.914 21.276 19.69 21.5 19.414 21.5H5.41501C5.13901 21.5 4.91501 21.276 4.91501 21C4.91501 20.724 5.13901 20.5 5.41501 20.5H19.414C19.69 20.5 19.914 20.724 19.914 21ZM20.393 10.5609C20.166 11.1319 19.622 11.5009 19.008 11.5009H17.0849V16.0009C17.0849 16.8279 16.4119 17.5009 15.5849 17.5009H9.58493C8.75793 17.5009 8.08493 16.8279 8.08493 16.0009V11.5009H5.99191C5.37791 11.5009 4.8339 11.1319 4.6069 10.5609C4.3799 9.98994 4.52197 9.34895 4.96897 8.92795L11.2419 2.99997C11.9469 2.33497 13.0511 2.33497 13.7561 2.99997L20.03 8.92795C20.478 9.34895 20.619 9.98994 20.393 10.5609ZM19.3449 9.655L13.07 3.72696C12.752 3.42496 12.2499 3.42496 11.9309 3.72696L5.65695 9.655C5.43195 9.867 5.50906 10.12 5.53806 10.192C5.56606 10.265 5.68389 10.5009 5.99289 10.5009H8.58591C8.71891 10.5009 8.84591 10.5539 8.93991 10.6469C9.03391 10.7399 9.08591 10.8679 9.08591 11.0009V16.0009C9.08591 16.2769 9.31091 16.5009 9.58591 16.5009H15.5859C15.8609 16.5009 16.0859 16.2769 16.0859 16.0009V11.0009C16.0859 10.8679 16.1389 10.7409 16.2319 10.6469C16.3249 10.5529 16.4529 10.5009 16.5859 10.5009H19.009C19.318 10.5009 19.4361 10.264 19.4641 10.192C19.4921 10.119 19.5679 9.866 19.3449 9.655Z" />
</svg>
