<svg viewBox="0 0 24 24" fill="currentColor" stroke="currentColor" xmlns="http://www.w3.org/2000/svg">
<path d="M8.646 6.35398C8.451 6.15898 8.451 5.84195 8.646 5.64695L11.646 2.64695C11.692 2.60095 11.7481 2.56398 11.8091 2.53898C11.9311 2.48798 12.0689 2.48798 12.1909 2.53898C12.2529 2.56398 12.308 2.60095 12.354 2.64695L15.354 5.64695C15.549 5.84195 15.549 6.15898 15.354 6.35398C15.256 6.45198 15.128 6.49998 15 6.49998C14.872 6.49998 14.744 6.45098 14.646 6.35398L12.5 4.20799V16C12.5 16.276 12.276 16.5 12 16.5C11.724 16.5 11.5 16.276 11.5 16V4.20695L9.354 6.35301C9.158 6.54901 8.842 6.54899 8.646 6.35398ZM18 9.49998C17.724 9.49998 17.5 9.72398 17.5 9.99998C17.5 10.276 17.724 10.5 18 10.5C19.729 10.5 20.5 11.271 20.5 13V18C20.5 19.729 19.729 20.5 18 20.5H6C4.271 20.5 3.5 19.729 3.5 18V13C3.5 11.271 4.271 10.5 6 10.5C6.276 10.5 6.5 10.276 6.5 9.99998C6.5 9.72398 6.276 9.49998 6 9.49998C3.71 9.49998 2.5 10.71 2.5 13V18C2.5 20.29 3.71 21.5 6 21.5H18C20.29 21.5 21.5 20.29 21.5 18V13C21.5 10.71 20.29 9.49998 18 9.49998Z" />
</svg>
