<svg viewBox="0 0 24 24" fill="currentColor" stroke="currentColor" xmlns="http://www.w3.org/2000/svg">
<path d="M21.75 12.0049C21.75 10.5699 20.9631 9.29594 19.7371 8.65894C19.7461 8.54994 19.75 8.437 19.75 8.323C19.75 6.102 18.196 5.04691 17.488 4.68091C17.072 3.68991 15.971 2.25 14 2.25C13.227 2.25 12.51 2.61299 12 3.16699C11.49 2.61399 10.773 2.25 10 2.25C8.028 2.25 6.92796 3.68991 6.51196 4.68091C5.80396 5.04691 4.25 6.102 4.25 8.323C4.25 8.438 4.25394 8.54994 4.26294 8.65894C3.03694 9.29594 2.25 10.5699 2.25 12.0049C2.25 12.5199 2.47394 13.166 2.63794 13.571C2.46394 13.947 2.25 14.574 2.25 15.387C2.25 17.435 3.67105 19.1891 5.62305 19.6431C6.23105 21.0061 7.415 21.75 9 21.75C10.289 21.75 11.339 21.2139 12 20.3369C12.661 21.2139 13.711 21.75 15 21.75C16.585 21.75 17.769 21.0061 18.377 19.6431C20.329 19.1891 21.75 17.435 21.75 15.387C21.75 14.575 21.5361 13.947 21.3621 13.571C21.5261 13.167 21.75 12.5199 21.75 12.0049ZM9 20.25C7.909 20.25 7.21696 19.7569 6.88196 18.7439C6.79096 18.4689 6.54996 18.2701 6.26196 18.2351C4.82996 18.0591 3.75 16.835 3.75 15.387C3.75 14.56 4.08801 14.031 4.08801 14.031C4.23801 13.812 4.26202 13.5291 4.15002 13.2881C3.98902 12.9441 3.75098 12.2979 3.75098 12.0049C3.75098 11.0189 4.39697 10.1281 5.32397 9.83911C5.70997 9.71811 5.931 9.31312 5.823 8.92212C5.775 8.74912 5.75098 8.54702 5.75098 8.32202C5.75098 6.57102 7.30704 5.95806 7.36804 5.93506C7.58904 5.85506 7.76096 5.67104 7.82996 5.44604C7.85096 5.37704 8.36998 3.74902 10.001 3.74902C10.579 3.74902 11.251 4.29502 11.251 4.99902V8.96191C10.783 8.55991 10.3761 8.34788 10.3361 8.32788C9.96706 8.14188 9.52101 8.29289 9.33301 8.66089C9.14701 9.02989 9.29499 9.47997 9.66199 9.66797C9.67899 9.67597 11.251 10.499 11.251 11.999V13.9619C10.783 13.5599 10.3761 13.3479 10.3361 13.3279C9.96706 13.1429 9.52101 13.2929 9.33301 13.6609C9.14701 14.0299 9.29499 14.48 9.66199 14.668C9.67899 14.676 11.251 15.499 11.251 16.999V17.999C11.25 19.088 10.659 20.25 9 20.25ZM19.907 14.0239C19.911 14.0289 20.25 14.559 20.25 15.387C20.25 16.834 19.17 18.0591 17.738 18.2351C17.45 18.2711 17.209 18.4689 17.118 18.7439C16.783 19.7569 16.091 20.25 15 20.25C13.341 20.25 12.75 19.088 12.75 18V17C12.75 15.509 14.305 14.6869 14.338 14.6689C14.707 14.4829 14.856 14.0341 14.671 13.6641C14.485 13.2941 14.036 13.1431 13.665 13.3291C13.625 13.3491 13.218 13.5599 12.75 13.9629V12C12.75 10.509 14.305 9.68695 14.338 9.66895C14.707 9.48295 14.856 9.03406 14.671 8.66406C14.485 8.29406 14.036 8.1431 13.665 8.3291C13.625 8.3491 13.218 8.55989 12.75 8.96289V5C12.75 4.296 13.422 3.75 14 3.75C15.631 3.75 16.15 5.37812 16.17 5.44312C16.236 5.66812 16.4091 5.85106 16.6281 5.93506C16.6941 5.96006 18.25 6.57197 18.25 8.32397C18.25 8.54897 18.226 8.75107 18.178 8.92407C18.07 9.31507 18.291 9.72006 18.677 9.84106C19.604 10.1301 20.25 11.0211 20.25 12.0071C20.25 12.3001 20.012 12.946 19.851 13.29C19.741 13.523 19.766 13.8069 19.907 14.0239Z" />
</svg>
