<svg viewBox="0 0 24 24" fill="currentColor" stroke="currentColor" xmlns="http://www.w3.org/2000/svg">
<path d="M12 21.75C11.894 21.75 11.7879 21.7281 11.6889 21.6831C11.3619 21.5341 3.66599 17.9649 2.43199 11.6089C1.95499 9.14989 2.43402 6.75112 3.71202 5.19312C4.74802 3.93112 6.23595 3.25898 8.01695 3.25098C8.02595 3.25098 8.03497 3.25098 8.04197 3.25098C10.074 3.25098 11.313 4.40807 11.999 5.39307C12.685 4.40907 13.924 3.25098 15.956 3.25098C15.964 3.25098 15.9729 3.25098 15.9809 3.25098C17.7629 3.25998 19.2519 3.93112 20.2879 5.19312C21.5649 6.75012 22.0429 9.14911 21.5649 11.6101C20.3329 17.9661 12.6359 21.5351 12.3089 21.6841C12.2119 21.7281 12.106 21.75 12 21.75ZM8.04197 4.75C8.03597 4.75 8.03001 4.75 8.02501 4.75C6.68701 4.756 5.62703 5.22604 4.87303 6.14404C3.87403 7.36104 3.51301 9.297 3.90501 11.323C4.86201 16.258 10.593 19.449 11.999 20.165C13.405 19.448 19.139 16.248 20.094 11.323C20.488 9.296 20.127 7.36004 19.13 6.14404C18.376 5.22604 17.316 4.75698 15.975 4.75098C15.97 4.75098 15.964 4.75098 15.958 4.75098C13.563 4.75098 12.72 7.20207 12.712 7.22607C12.609 7.53307 12.323 7.73901 12 7.73901C11.677 7.73901 11.3909 7.53207 11.2879 7.22607C11.2549 7.12707 10.413 4.75 8.04197 4.75ZM13.624 15.916L15.401 13.25H17C17.414 13.25 17.75 12.914 17.75 12.5C17.75 12.086 17.414 11.75 17 11.75H15C14.749 11.75 14.515 11.875 14.376 12.084L13.227 13.8081L11.712 9.26294C11.621 8.99194 11.384 8.79508 11.1 8.75708C10.818 8.71608 10.536 8.84498 10.376 9.08398L8.59898 11.75H6.99998C6.58598 11.75 6.24998 12.086 6.24998 12.5C6.24998 12.914 6.58598 13.25 6.99998 13.25H8.99998C9.25098 13.25 9.48501 13.125 9.62401 12.916L10.7729 11.1919L12.2879 15.7371C12.3789 16.0081 12.616 16.2049 12.9 16.2429C12.933 16.2479 12.966 16.25 13 16.25C13.249 16.25 13.483 16.126 13.624 15.916Z" />
</svg>
