<svg viewBox="0 0 24 24" fill="currentColor" stroke="currentColor" xmlns="http://www.w3.org/2000/svg">
<path d="M20.5 7.25H19.441C19.108 6.607 18.528 6.10188 17.809 5.87988C17.36 5.68188 14.031 4.25 11.999 4.25C9.96702 4.25 6.63896 5.68288 6.18896 5.87988C5.46996 6.10188 4.89001 6.607 4.55701 7.25H3.49805C2.25805 7.25 1.24805 8.259 1.24805 9.5V13C1.24805 15.582 3.32104 17.679 5.88904 17.739C6.67804 18.757 7.70895 19.594 8.94495 20.124C9.91495 20.54 10.956 20.748 11.998 20.748C13.039 20.748 14.081 20.54 15.052 20.124C16.288 19.594 17.318 18.757 18.108 17.739C20.676 17.679 22.749 15.582 22.749 13V9.5C22.75 8.259 21.74 7.25 20.5 7.25ZM2.75 13V9.5C2.75 9.086 3.087 8.75 3.5 8.75H4.25V13C4.25 14.07 4.48199 15.096 4.88599 16.041C3.64399 15.584 2.75 14.399 2.75 13ZM14.463 18.7451C12.897 19.4161 11.103 19.4161 9.53796 18.7451C7.23596 17.7591 5.75 15.504 5.75 13V8.50903C5.75 7.95403 6.12301 7.45888 6.65601 7.30688C6.69001 7.29688 6.72298 7.285 6.75598 7.271C7.70398 6.848 10.493 5.75 12 5.75C13.507 5.75 16.296 6.848 17.244 7.271C17.276 7.285 17.309 7.29688 17.344 7.30688C17.877 7.45888 18.25 7.95403 18.25 8.50903V13C18.25 15.503 16.764 17.7581 14.463 18.7451ZM21.25 13C21.25 14.399 20.357 15.584 19.114 16.041C19.518 15.096 19.75 14.07 19.75 13V8.75H20.5C20.913 8.75 21.25 9.086 21.25 9.5V13ZM16.75 11.5C16.75 11.914 16.414 12.25 16 12.25H8C7.586 12.25 7.25 11.914 7.25 11.5C7.25 11.086 7.586 10.75 8 10.75H16C16.414 10.75 16.75 11.086 16.75 11.5ZM15.75 14.5C15.75 14.914 15.414 15.25 15 15.25H9C8.586 15.25 8.25 14.914 8.25 14.5C8.25 14.086 8.586 13.75 9 13.75H15C15.414 13.75 15.75 14.086 15.75 14.5Z" />
</svg>
