<svg viewBox="0 0 24 24" fill="currentColor" stroke="currentColor" xmlns="http://www.w3.org/2000/svg">
<path d="M18 3.25H6C3.582 3.25 2.25 4.582 2.25 7V17C2.25 19.418 3.582 20.75 6 20.75H18C20.418 20.75 21.75 19.418 21.75 17V7C21.75 4.582 20.418 3.25 18 3.25ZM20.25 17C20.25 18.577 19.577 19.25 18 19.25H6C4.423 19.25 3.75 18.577 3.75 17V12.75H8C8.251 12.75 8.48502 12.625 8.62402 12.416L9.77295 10.6919L11.288 15.2371C11.379 15.5081 11.616 15.7049 11.9 15.7429C11.933 15.7479 11.966 15.75 12 15.75C12.249 15.75 12.483 15.626 12.624 15.416L14.401 12.75H16C16.414 12.75 16.75 12.414 16.75 12C16.75 11.586 16.414 11.25 16 11.25H14C13.749 11.25 13.515 11.375 13.376 11.584L12.2271 13.3081L10.712 8.76294C10.621 8.49194 10.384 8.29508 10.1 8.25708C9.81398 8.21508 9.53598 8.34498 9.37598 8.58398L7.599 11.25H3.75V7C3.75 5.423 4.423 4.75 6 4.75H18C19.577 4.75 20.25 5.423 20.25 7V17Z" />
</svg>
