<svg viewBox="0 0 24 24" fill="currentColor" stroke="currentColor" xmlns="http://www.w3.org/2000/svg">
<path d="M12 1.25C6.072 1.25 1.25 6.072 1.25 12C1.25 17.928 6.072 22.75 12 22.75C17.928 22.75 22.75 17.928 22.75 12C22.75 6.072 17.928 1.25 12 1.25ZM12 21.25C6.899 21.25 2.75 17.101 2.75 12C2.75 6.899 6.899 2.75 12 2.75C17.101 2.75 21.25 6.899 21.25 12C21.25 17.101 17.101 21.25 12 21.25ZM13.96 13.929C13.859 13.751 13.6899 13.622 13.4919 13.571C13.2929 13.522 13.0821 13.5531 12.9091 13.6621C12.3761 13.9951 11.6239 13.9951 11.0909 13.6621C10.9169 13.5541 10.7071 13.522 10.5081 13.571C10.3101 13.622 10.141 13.751 10.04 13.929L8.27502 17.054C8.12702 17.321 8.09098 17.6409 8.17798 17.9309C8.26498 18.2189 8.45802 18.4521 8.72302 18.5901C9.74902 19.1201 10.852 19.3889 11.999 19.3889C13.146 19.3889 14.249 19.1201 15.275 18.5901C15.275 18.5901 15.275 18.5901 15.276 18.5891C15.54 18.4521 15.7329 18.2179 15.8199 17.9309C15.9069 17.6399 15.8719 17.3211 15.7209 17.0491L13.96 13.929ZM9.78406 17.4331L11.01 15.2639C11.643 15.4659 12.358 15.4659 12.99 15.2639L14.2159 17.4331C12.8089 18.0401 11.1891 18.0391 9.78406 17.4331ZM15.991 5.7959C15.738 5.6259 15.421 5.57009 15.127 5.64209C14.825 5.71509 14.565 5.91293 14.417 6.17993L12.5179 9.53101C12.4169 9.70701 12.394 9.91608 12.451 10.1111C12.508 10.3051 12.6409 10.469 12.8199 10.564C13.3819 10.861 13.738 11.4059 13.772 12.0229C13.794 12.4199 14.138 12.731 14.536 12.731H18.132C18.443 12.731 18.742 12.601 18.954 12.374C19.161 12.152 19.267 11.853 19.249 11.552C19.114 9.227 17.897 7.0749 15.991 5.7959ZM15.15 11.23C14.979 10.627 14.636 10.0891 14.16 9.67407L15.507 7.29712C16.718 8.25112 17.517 9.67498 17.713 11.23H15.15ZM10.229 12.022C10.263 11.405 10.62 10.86 11.181 10.563C11.36 10.468 11.493 10.3051 11.55 10.1101C11.607 9.91511 11.583 9.70603 11.483 9.53003L9.58704 6.18408C9.43604 5.91208 9.17602 5.71409 8.87402 5.64209C8.58002 5.57009 8.26303 5.62612 8.00903 5.79712C6.10303 7.07712 4.88603 9.2289 4.75403 11.5459C4.73303 11.8489 4.83997 12.15 5.04797 12.374C5.25997 12.601 5.56 12.731 5.87 12.731H9.47998C9.87698 12.73 10.206 12.419 10.229 12.022ZM6.28699 11.23C6.48299 9.67498 7.28204 8.25112 8.49304 7.29712L9.83997 9.67407C9.36297 10.0891 9.02098 10.627 8.84998 11.23H6.28699ZM12 11.1111C12.552 11.1111 13 11.5591 13 12.1111C13 12.6631 12.552 13.1111 12 13.1111C11.448 13.1111 11 12.6631 11 12.1111C11 11.5591 11.448 11.1111 12 11.1111Z" />
</svg>
