<svg viewBox="0 0 24 24" fill="currentColor" stroke="currentColor" xmlns="http://www.w3.org/2000/svg">
<path d="M15.4449 21.75C13.1829 21.75 12.825 19.401 12.562 17.686C12.466 17.058 12.2669 15.75 11.9999 15.75C11.7329 15.75 11.5329 17.057 11.4379 17.686C11.1749 19.401 10.817 21.75 8.555 21.75C6.846 21.75 6.391 19.756 5.909 17.644C5.583 16.214 5.21399 14.594 4.47199 13.394C2.95299 10.938 2.83598 7.53206 4.18598 5.11206C5.21398 3.26606 6.94096 2.25 9.04596 2.25C10.275 2.25 11.3899 2.60401 12.3149 3.28101C12.9559 2.61101 13.8649 2.25 14.9529 2.25C17.0579 2.25 18.7849 3.26606 19.8129 5.11206C21.1629 7.53206 21.0449 10.938 19.5269 13.395C18.7859 14.595 18.4169 16.215 18.0899 17.645C17.6089 19.756 17.1539 21.75 15.4449 21.75ZM11.9999 14.25C13.5559 14.25 13.815 15.955 14.046 17.459C14.341 19.389 14.6119 20.25 15.4449 20.25C15.9579 20.25 16.33 18.62 16.628 17.311C16.981 15.768 17.3789 14.018 18.2519 12.606C19.4779 10.623 19.583 7.77804 18.504 5.84204C17.972 4.88704 16.9239 3.75 14.9529 3.75C14.2679 3.75 13.755 3.93707 13.395 4.32007C13.812 4.83007 14.089 5.32007 14.26 5.67407C14.44 6.04707 14.283 6.49505 13.91 6.67505C13.533 6.85405 13.0889 6.69695 12.9079 6.32495C12.7349 5.96595 12.421 5.42796 11.91 4.90796C11.909 4.90696 11.9089 4.90601 11.9079 4.90601C11.1519 4.13901 10.189 3.75 9.04596 3.75C7.07496 3.75 6.02694 4.88804 5.49494 5.84204C4.41594 7.77804 4.52089 10.622 5.74689 12.605C6.61989 14.017 7.01791 15.7671 7.37091 17.3101C7.66891 18.6201 8.0409 20.249 8.5539 20.249C9.3869 20.249 9.65794 19.388 9.95294 17.458C10.1849 15.955 10.4439 14.25 11.9999 14.25Z" />
</svg>
