<svg viewBox="0 0 24 24" fill="currentColor" stroke="currentColor" xmlns="http://www.w3.org/2000/svg">
<path d="M21 9.75C20.586 9.75 20.25 10.086 20.25 10.5V11.25H19.2111C19.0631 9.813 18.491 8.50006 17.626 7.43506L18.365 6.69604L18.895 7.22607C19.041 7.37207 19.233 7.44604 19.425 7.44604C19.617 7.44604 19.809 7.37307 19.955 7.22607C20.248 6.93307 20.248 6.45804 19.955 6.16504L17.834 4.04297C17.541 3.74997 17.0659 3.74997 16.7729 4.04297C16.4799 4.33597 16.4799 4.811 16.7729 5.104L17.304 5.63501L16.5649 6.37402C15.4999 5.50802 14.187 4.93709 12.75 4.78809V3.74902H13.5C13.914 3.74902 14.25 3.41302 14.25 2.99902C14.25 2.58502 13.914 2.24902 13.5 2.24902H10.5C10.086 2.24902 9.75 2.58502 9.75 2.99902C9.75 3.41302 10.086 3.74902 10.5 3.74902H11.25V4.78809C9.812 4.93609 8.50006 5.50802 7.43506 6.37402L6.69604 5.63501L7.22705 5.104C7.52005 4.811 7.52005 4.33597 7.22705 4.04297C6.93405 3.74997 6.45902 3.74997 6.16602 4.04297L4.04504 6.16504C3.75204 6.45804 3.75204 6.93307 4.04504 7.22607C4.19104 7.37207 4.38295 7.44604 4.57495 7.44604C4.76695 7.44604 4.95898 7.37307 5.10498 7.22607L5.63501 6.69604L6.37402 7.43506C5.50902 8.50006 4.93694 9.812 4.78894 11.25H3.75V10.5C3.75 10.086 3.414 9.75 3 9.75C2.586 9.75 2.25 10.086 2.25 10.5V13.5C2.25 13.914 2.586 14.25 3 14.25C3.414 14.25 3.75 13.914 3.75 13.5V12.75H4.78894C4.93694 14.187 5.50902 15.4999 6.37402 16.5649L5.63501 17.304L5.10498 16.7739C4.81198 16.4809 4.33695 16.4809 4.04395 16.7739C3.75095 17.0669 3.75095 17.542 4.04395 17.835L6.16504 19.957C6.31104 20.103 6.50295 20.177 6.69495 20.177C6.88695 20.177 7.07898 20.104 7.22498 19.957C7.51798 19.664 7.51798 19.189 7.22498 18.896L6.69397 18.365L7.43298 17.626C8.49798 18.492 9.81105 19.0629 11.248 19.2119V20.251H10.498C10.084 20.251 9.74805 20.587 9.74805 21.001C9.74805 21.415 10.084 21.751 10.498 21.751H13.498C13.912 21.751 14.248 21.415 14.248 21.001C14.248 20.587 13.912 20.251 13.498 20.251H12.748V19.2119C14.186 19.0639 15.498 18.492 16.563 17.626L17.302 18.365L16.771 18.896C16.478 19.189 16.478 19.664 16.771 19.957C16.917 20.103 17.109 20.177 17.301 20.177C17.493 20.177 17.6851 20.104 17.8311 19.957L19.952 17.835C20.245 17.542 20.245 17.0669 19.952 16.7739C19.659 16.4809 19.184 16.4809 18.891 16.7739L18.361 17.304L17.6219 16.5649C18.4869 15.4999 19.059 14.188 19.207 12.75H20.246V13.5C20.246 13.914 20.582 14.25 20.996 14.25C21.41 14.25 21.746 13.914 21.746 13.5V10.5C21.75 10.086 21.414 9.75 21 9.75ZM12 17.75C8.829 17.75 6.25 15.17 6.25 12C6.25 8.83 8.829 6.25 12 6.25C15.171 6.25 17.75 8.83 17.75 12C17.75 15.17 15.171 17.75 12 17.75ZM10.25 12C10.25 12.69 9.69 13.25 9 13.25C8.31 13.25 7.75 12.69 7.75 12C7.75 11.31 8.31 10.75 9 10.75C9.69 10.75 10.25 11.31 10.25 12ZM15 10C15 10.552 14.552 11 14 11C13.448 11 13 10.552 13 10C13 9.448 13.448 9 14 9C14.552 9 15 9.448 15 10ZM13.75 14C13.75 14.414 13.414 14.75 13 14.75C12.586 14.75 12.25 14.414 12.25 14C12.25 13.586 12.586 13.25 13 13.25C13.414 13.25 13.75 13.586 13.75 14Z" />
</svg>
