<svg viewBox="0 0 24 24" fill="currentColor" stroke="currentColor" xmlns="http://www.w3.org/2000/svg">
<path d="M2.03999 11.25C2.19999 9.05003 3.06999 7.06003 4.42999 5.48003L10.95 12L9.05 13.9C7.17 12.26 4.72 11.26 2.05 11.25H2.03999ZM2.03999 12.75C2.19999 14.95 3.06999 16.94 4.42999 18.51L7.99001 14.95C6.38001 13.58 4.31 12.75 2.05 12.74L2.03999 12.75ZM14.96 10.1L13.06 12L19.58 18.52C20.93 16.95 21.8 14.95 21.97 12.75C19.29 12.75 16.85 11.74 14.97 10.1H14.96ZM21.96 11.25C21.8 9.05003 20.93 7.06004 19.57 5.49004L16.01 9.05003C17.62 10.42 19.69 11.25 21.95 11.26L21.96 11.25ZM9.03999 16.02L5.48 19.58C7.05 20.93 9.05001 21.8 11.24 21.97C11.24 19.7 10.4 17.63 9.03 16.03L9.03999 16.02ZM12 13.06L10.1 14.96C11.74 16.84 12.74 19.29 12.75 21.96C14.95 21.8 16.94 20.93 18.52 19.57L12 13.05V13.06ZM12 10.94L13.9 9.04002C12.26 7.16002 11.26 4.71002 11.25 2.04002C9.05 2.20002 7.06 3.07002 5.48 4.43002L12 10.95V10.94ZM14.96 7.98003L18.52 4.42003C16.95 3.07003 14.95 2.20003 12.76 2.03003C12.76 4.30003 13.6 6.37003 14.97 7.97003L14.96 7.98003Z" />
</svg>
