<svg viewBox="0 0 24 24" fill="currentColor" stroke="currentColor" xmlns="http://www.w3.org/2000/svg">
<path d="M12 2C6.48 2 2 6.48 2 12C2 17.52 6.48 22 12 22C17.52 22 22 17.52 22 12C22 6.48 17.52 2 12 2ZM12 17.5C8.96 17.5 6.5 15.04 6.5 12C6.5 8.96 8.96 6.5 12 6.5C15.04 6.5 17.5 8.96 17.5 12C17.5 15.04 15.04 17.5 12 17.5ZM14.25 10.5C14.25 9.26 13.24 8.25 12 8.25C10.76 8.25 9.75 9.26 9.75 10.5C9.75 11.08 9.98 11.6 10.34 12C9.98 12.4 9.75 12.92 9.75 13.5C9.75 14.74 10.76 15.75 12 15.75C13.24 15.75 14.25 14.74 14.25 13.5C14.25 12.92 14.02 12.4 13.66 12C14.02 11.6 14.25 11.08 14.25 10.5ZM12 9.75C12.41 9.75 12.75 10.09 12.75 10.5C12.75 10.91 12.41 11.25 12 11.25C11.59 11.25 11.25 10.91 11.25 10.5C11.25 10.09 11.59 9.75 12 9.75ZM12 14.25C11.59 14.25 11.25 13.91 11.25 13.5C11.25 13.09 11.59 12.75 12 12.75C12.41 12.75 12.75 13.09 12.75 13.5C12.75 13.91 12.41 14.25 12 14.25Z" />
</svg>
