<svg viewBox="0 0 24 24" fill="currentColor" stroke="currentColor" xmlns="http://www.w3.org/2000/svg">
<path d="M12 2C6.48 2 2 6.48 2 12C2 17.52 6.48 22 12 22C17.52 22 22 17.52 22 12C22 6.48 17.52 2 12 2ZM12.02 12.25C11.33 12.25 10.77 11.69 10.77 11C10.77 10.31 11.32 9.75 12.01 9.75H12.02C12.71 9.75 13.27 10.31 13.27 11C13.27 11.69 12.71 12.25 12.02 12.25ZM13.02 8.25C12.33 8.25 11.77 7.69 11.77 7C11.77 6.31 12.32 5.75 13.01 5.75H13.02C13.71 5.75 14.27 6.31 14.27 7C14.27 7.69 13.71 8.25 13.02 8.25ZM16.02 11.25C15.33 11.25 14.77 10.69 14.77 10C14.77 9.31 15.32 8.75 16.01 8.75H16.02C16.71 8.75 17.27 9.31 17.27 10C17.27 10.69 16.71 11.25 16.02 11.25Z" />
</svg>
