<svg viewBox="0 0 24 24" fill="currentColor" stroke="currentColor" xmlns="http://www.w3.org/2000/svg">
<path d="M7.29999 17.75H18.7C18.87 17.75 19 17.88 19 18.05V19.5C19 20.33 18.33 21 17.5 21H8.5C7.67 21 7 20.33 7 19.5V18.05C7 17.88 7.12999 17.75 7.29999 17.75ZM6.91 16.03C6.95 16.16 7.06 16.25 7.19 16.25H18.7C19 16.25 19 16.06 19 16.06C19 15.83 19.05 15.6 19.16 15.39L19.68 14.34C19.89 13.92 20 13.46 20 13V7C20 4.8 18.2 3 16 3H10C8.34 3 7 4.34 7 6V12C7 12.28 6.78 12.5 6.5 12.5C6.22 12.5 6 12.28 6 12V7.09C5.84 7.03 5.68 7 5.5 7C4.67 7 4 7.67 4 8.5V12.1C4 13.1 4.5 14.04 5.34 14.6L6.34 15.26C6.62 15.45 6.82001 15.72 6.92001 16.03H6.91Z" />
</svg>
