<svg viewBox="0 0 24 24" fill="currentColor" stroke="currentColor" xmlns="http://www.w3.org/2000/svg">
<path d="M8 7.5V16.5C8 17.5 7.5 18 6.5 18H4.5C3.5 18 3 17.5 3 16.5V14.5H2.5C1.94 14.5 1.5 14.03 1.5 13.43V10.57C1.5 9.97001 1.94 9.5 2.5 9.5H3V7.5C3 6.5 3.5 6 4.5 6H6.5C7.5 6 8 6.5 8 7.5ZM21.5 9.5H21V7.5C21 6.5 20.5 6 19.5 6H17.5C16.5 6 16 6.5 16 7.5V16.5C16 17.5 16.5 18 17.5 18H19.5C20.5 18 21 17.5 21 16.5V14.5H21.5C22.06 14.5 22.5 14.03 22.5 13.43V10.57C22.5 9.97001 22.06 9.5 21.5 9.5ZM9 14H15V10H9V14Z" />
</svg>
