<svg viewBox="0 0 24 24" fill="currentColor" stroke="currentColor" xmlns="http://www.w3.org/2000/svg">
<path d="M20.53 18.52C21.92 16.71 22.75 14.45 22.75 12C22.75 6.07 17.93 1.25 12 1.25C8.49 1.25 5.37 2.95001 3.41 5.57001C3.39 5.59001 3.38 5.60999 3.37 5.62C2.05 7.41 1.25 9.61 1.25 12C1.25 14.39 2.08 16.71 3.47 18.52C3.47 18.52 3.47 18.52 3.48 18.53C4.77 20.21 6.55 21.51 8.61 22.19C8.64 22.2 8.67 22.21 8.7 22.22C9.74 22.56 10.85 22.74 12 22.74C13.15 22.74 14.26 22.55 15.3 22.22C15.33 22.22 15.36 22.2 15.39 22.19C17.45 21.5 19.22 20.21 20.52 18.53C20.52 18.53 20.52 18.53 20.53 18.52ZM5.46 10.62L7.38 11.26L8.53 15.86L7.6 17.25H4.4C3.48 15.92 2.91 14.35 2.79 12.65L5.47 10.62H5.46ZM16.4 17.25L15.47 15.86L16.62 11.25L18.52 10.62L21.21 12.66C21.09 14.36 20.52 15.93 19.6 17.25H16.4ZM19.21 6.23L18.08 9.17999L16.1 9.84L12.74 7.60001V5.71001L15.67 3.52C17.06 4.13 18.27 5.06 19.21 6.23ZM8.31 3.52L11.24 5.71001V7.60001L7.88 9.84L5.89 9.17999L4.77 6.24001C5.71 5.07001 6.92001 4.13 8.32001 3.52H8.31ZM9.50999 20.9L8.8 18.14L9.72 16.75H14.26L15.18 18.14L14.47 20.9C13.68 21.12 12.85 21.25 11.99 21.25C11.13 21.25 10.3 21.12 9.50999 20.9Z" />
</svg>
