<svg viewBox="0 0 24 24" fill="currentColor" stroke="currentColor" xmlns="http://www.w3.org/2000/svg">
<path d="M7 16.75H17V19.7C17 19.87 16.87 20 16.7 20H7.29999C7.12999 20 7 19.87 7 19.7V16.75ZM21 8L18.5 10.5L17 9V12.25H7V9L5.5 10.5L3 8L6.40997 4.59C6.78997 4.21 7.29001 4 7.82001 4H9.01001C9.26001 4 9.49003 4.16 9.53003 4.41C9.72003 5.6 10.76 6.5 12 6.5C13.24 6.5 14.27 5.59 14.47 4.41C14.51 4.17 14.74 4 14.99 4H16.18C16.71 4 17.22 4.21 17.59 4.59L21 8ZM15.52 10C15.52 9.45 15.07 9 14.52 9H14.51C13.96 9 13.52 9.45 13.52 10C13.52 10.55 13.97 11 14.52 11C15.07 11 15.52 10.55 15.52 10ZM7 15.25H17V13.75H7V15.25Z" />
</svg>
