<svg viewBox="0 0 24 24" fill="currentColor" stroke="currentColor" xmlns="http://www.w3.org/2000/svg">
<path d="M7.17001 14H4C3.45 14 3 13.55 3 13V9C3 7 4 6 6 6H15C17 6 18 7 18 9V13C18 13.55 17.55 14 17 14H13.83C13.31 14 12.83 13.73 12.56 13.29L11.35 11.35C10.96 10.72 10.05 10.72 9.64999 11.35L8.44 13.29C8.17 13.73 7.69001 14 7.17001 14ZM21 2.25C20.59 2.25 20.25 2.59 20.25 3V18C20.25 19.58 19.58 20.25 18 20.25H13.5C11.92 20.25 11.25 19.58 11.25 18V17.75H12.5C12.91 17.75 13.25 17.41 13.25 17C13.25 16.59 12.91 16.25 12.5 16.25H8.5C8.09 16.25 7.75 16.59 7.75 17C7.75 17.41 8.09 17.75 8.5 17.75H9.75V18C9.75 20.42 11.08 21.75 13.5 21.75H18C20.42 21.75 21.75 20.42 21.75 18V3C21.75 2.59 21.41 2.25 21 2.25Z" />
</svg>
