<svg viewBox="0 0 24 24" fill="currentColor" stroke="currentColor" xmlns="http://www.w3.org/2000/svg">
<path d="M10.94 8L8.17999 5.23999C7.88999 4.95999 7.72 4.58001 7.69 4.20001L4.93 5.26001C3.77 5.71001 3 6.82 3 8.06V14.2C3 14.71 3.25 15.17 3.67 15.45L5.03 16.35C5.23 16.48 5.5 16.35 5.5 16.1V9C5.5 8.72 5.72 8.5 6 8.5C6.28 8.5 6.5 8.72 6.5 9V12.44L10.94 8ZM14.82 3.89999C14.79 3.84999 14.73 3.75 14.59 3.75H9.41C9.27 3.75 9.20999 3.84999 9.17999 3.89999C9.15999 3.95999 9.13001 4.06999 9.24001 4.17999L12 6.94L14.76 4.17999C14.87 4.06999 14.84 3.95999 14.82 3.89999ZM19.07 5.26001L16.31 4.20001C16.28 4.58001 16.11 4.95999 15.82 5.23999L6.5 14.56V14.95C6.5 14.95 6.51 15.25 6.8 15.25H17.2C17.37 15.25 17.5 15.12 17.5 14.95V9C17.5 8.72 17.72 8.5 18 8.5C18.28 8.5 18.5 8.72 18.5 9V16.11C18.5 16.35 18.77 16.49 18.97 16.36L20.33 15.45C20.75 15.17 21 14.7 21 14.2V8.06C21 6.82 20.23 5.71001 19.07 5.26001ZM17.5 16.96C17.5 16.96 17.46 16.75 17.2 16.75H13.81L14.53 17.47C14.82 17.76 14.82 18.24 14.53 18.53C14.38 18.68 14.19 18.75 14 18.75C13.81 18.75 13.62 18.68 13.47 18.53L12 17.06L10.53 18.53C10.24 18.82 9.76 18.82 9.47 18.53C9.18 18.24 9.18 17.76 9.47 17.47L10.19 16.75H6.8C6.5 16.75 6.5 16.96 6.5 16.96C6.49 17 6.49 17.07 6.48 17.12L5.6 20.63C5.56 20.82 5.7 21 5.89 21H18.11C18.3 21 18.44 20.82 18.4 20.63L17.52 17.12C17.52 17.12 17.51 17 17.5 16.96Z" />
</svg>
