<svg viewBox="0 0 24 24" fill="currentColor" stroke="currentColor" xmlns="http://www.w3.org/2000/svg">
<path d="M21.5 6V11C21.5 11.276 21.276 11.5 21 11.5C20.724 11.5 20.5 11.276 20.5 11V6C20.5 4.271 19.729 3.5 18 3.5H6C4.271 3.5 3.5 4.271 3.5 6V19.793L5.646 17.647C5.74 17.553 5.867 17.501 6 17.501H12C12.276 17.501 12.5 17.725 12.5 18.001C12.5 18.277 12.276 18.501 12 18.501H6.20703L3.35303 21.355C3.25703 21.451 3.12902 21.501 2.99902 21.501C2.93502 21.501 2.86911 21.489 2.80811 21.463C2.62111 21.386 2.49902 21.203 2.49902 21.001V6.00098C2.49902 3.71098 3.70902 2.50098 5.99902 2.50098H17.999C20.29 2.49998 21.5 3.71 21.5 6ZM20.646 14.313L17.667 17.293L16.354 15.98C16.159 15.785 15.842 15.785 15.647 15.98C15.452 16.175 15.452 16.492 15.647 16.687L17.314 18.354C17.412 18.452 17.54 18.5 17.668 18.5C17.796 18.5 17.924 18.451 18.022 18.354L21.355 15.021C21.55 14.826 21.55 14.509 21.355 14.314C21.16 14.119 20.842 14.118 20.646 14.313ZM12.0039 9.75H11.989C11.577 9.75 11.25 10.085 11.25 10.5C11.25 10.915 11.5929 11.25 12.0039 11.25C12.4169 11.25 12.75 10.915 12.75 10.5C12.75 10.085 12.4159 9.75 12.0039 9.75ZM16.75 10.5C16.75 10.085 16.4159 9.75 16.0039 9.75H15.989C15.577 9.75 15.25 10.085 15.25 10.5C15.25 10.915 15.5929 11.25 16.0039 11.25C16.4159 11.25 16.75 10.915 16.75 10.5ZM7.98901 9.75C7.57701 9.75 7.25 10.085 7.25 10.5C7.25 10.915 7.59291 11.25 8.00391 11.25C8.41691 11.25 8.75 10.915 8.75 10.5C8.75 10.085 8.41591 9.75 8.00391 9.75H7.98901Z" />
</svg>
