<svg viewBox="0 0 24 24" fill="currentColor" stroke="currentColor" xmlns="http://www.w3.org/2000/svg">
<path d="M18 2.5H6C3.71 2.5 2.5 3.71 2.5 6V21C2.5 21.202 2.62208 21.385 2.80908 21.462C2.87108 21.488 2.936 21.5 3 21.5C3.13 21.5 3.258 21.449 3.354 21.354L6.20801 18.5H18C20.29 18.5 21.5 17.29 21.5 15V6C21.5 3.71 20.29 2.5 18 2.5ZM20.5 15C20.5 16.729 19.729 17.5 18 17.5H6C5.867 17.5 5.74 17.553 5.646 17.646L3.5 19.792V6C3.5 4.271 4.271 3.5 6 3.5H18C19.729 3.5 20.5 4.271 20.5 6V15ZM14.1509 11.944C14.5739 11.375 14.833 10.678 14.833 9.91602C14.833 8.03202 13.301 6.49902 11.417 6.49902C9.53299 6.49902 8 8.03202 8 9.91602C8 11.8 9.53299 13.333 11.417 13.333C12.179 13.333 12.8751 13.074 13.4441 12.651L15.146 14.353C15.244 14.451 15.372 14.499 15.5 14.499C15.628 14.499 15.756 14.45 15.854 14.353C16.049 14.158 16.049 13.841 15.854 13.646L14.1509 11.944ZM9 9.91699C9 8.58399 10.084 7.5 11.417 7.5C12.749 7.5 13.833 8.58399 13.833 9.91699C13.833 11.25 12.749 12.334 11.417 12.334C10.084 12.333 9 11.249 9 9.91699Z" />
</svg>
