<svg viewBox="0 0 24 24" fill="currentColor" stroke="currentColor" xmlns="http://www.w3.org/2000/svg">
<path d="M18 2.5H6C3.71 2.5 2.5 3.71 2.5 6V21C2.5 21.202 2.62208 21.385 2.80908 21.462C2.87108 21.488 2.936 21.5 3 21.5C3.13 21.5 3.258 21.449 3.354 21.354L6.20801 18.5H18C20.29 18.5 21.5 17.29 21.5 15V6C21.5 3.71 20.29 2.5 18 2.5ZM20.5 15C20.5 16.729 19.729 17.5 18 17.5H6C5.867 17.5 5.74 17.553 5.646 17.646L3.5 19.792V6C3.5 4.271 4.271 3.5 6 3.5H18C19.729 3.5 20.5 4.271 20.5 6V15ZM12.75 7.5C12.75 7.915 12.4159 8.25 12.0039 8.25C11.5929 8.25 11.25 7.915 11.25 7.5C11.25 7.085 11.577 6.75 11.989 6.75H12.0039C12.4159 6.75 12.75 7.085 12.75 7.5ZM12.5 10.5V13.5C12.5 13.776 12.276 14 12 14C11.724 14 11.5 13.776 11.5 13.5V10.5C11.5 10.224 11.724 10 12 10C12.276 10 12.5 10.224 12.5 10.5Z" />
</svg>
