<svg viewBox="0 0 24 24" fill="currentColor" stroke="currentColor" xmlns="http://www.w3.org/2000/svg">
<path d="M21.5 6V9C21.5 9.276 21.276 9.5 21 9.5C20.724 9.5 20.5 9.276 20.5 9V6C20.5 4.271 19.729 3.5 18 3.5H6C4.271 3.5 3.5 4.271 3.5 6V19.793L5.646 17.647C5.74 17.553 5.867 17.501 6 17.501H12C12.276 17.501 12.5 17.725 12.5 18.001C12.5 18.277 12.276 18.501 12 18.501H6.20703L3.35303 21.355C3.25703 21.451 3.12902 21.501 2.99902 21.501C2.93502 21.501 2.86911 21.489 2.80811 21.463C2.62111 21.386 2.49902 21.203 2.49902 21.001V6.00098C2.49902 3.71098 3.70902 2.50098 5.99902 2.50098H17.999C20.29 2.49998 21.5 3.71 21.5 6ZM21 15H19V13C19 12.724 18.776 12.5 18.5 12.5C18.224 12.5 18 12.724 18 13V15H16C15.724 15 15.5 15.224 15.5 15.5C15.5 15.776 15.724 16 16 16H18V18C18 18.276 18.224 18.5 18.5 18.5C18.776 18.5 19 18.276 19 18V16H21C21.276 16 21.5 15.776 21.5 15.5C21.5 15.224 21.276 15 21 15Z" />
</svg>
