<svg viewBox="0 0 24 24" fill="currentColor" stroke="currentColor" xmlns="http://www.w3.org/2000/svg">
<path d="M19 8.5H17.5V5.33301C17.5 3.50601 16.494 2.5 14.667 2.5H5.33301C3.50601 2.5 2.5 3.50601 2.5 5.33301V17C2.5 17.202 2.62208 17.385 2.80908 17.462C2.87108 17.488 2.936 17.5 3 17.5C3.13 17.5 3.258 17.449 3.354 17.354L5.54102 15.167H8.50098V17C8.50098 18.612 9.38898 19.5 11.001 19.5H18.7939L20.6479 21.354C20.7439 21.45 20.872 21.5 21.002 21.5C21.066 21.5 21.1321 21.488 21.1931 21.462C21.3801 21.385 21.502 21.202 21.502 21V11C21.5 9.388 20.612 8.5 19 8.5ZM5.33301 14.167C5.20001 14.167 5.073 14.22 4.979 14.313L3.5 15.792V5.33301C3.5 4.04801 4.04801 3.5 5.33301 3.5H14.667C15.952 3.5 16.5 4.04801 16.5 5.33301V12.333C16.5 13.618 15.952 14.166 14.667 14.166H5.33301V14.167ZM20.5 19.793L19.354 18.647C19.26 18.553 19.133 18.501 19 18.501H11C9.948 18.501 9.5 18.052 9.5 17.001V15.168H14.667C16.494 15.168 17.5 14.162 17.5 12.335V9.50195H19C20.052 9.50195 20.5 9.95095 20.5 11.002V19.793ZM13.6111 7.27795C13.6111 7.55395 13.3871 7.77795 13.1111 7.77795H6.88794C6.61194 7.77795 6.38794 7.55395 6.38794 7.27795C6.38794 7.00195 6.61194 6.77795 6.88794 6.77795H13.1111C13.3881 6.77795 13.6111 7.00095 13.6111 7.27795ZM11.2771 10.389C11.2771 10.665 11.0531 10.889 10.7771 10.889H6.88794C6.61194 10.889 6.38794 10.665 6.38794 10.389C6.38794 10.113 6.61194 9.88904 6.88794 9.88904H10.7771C11.0541 9.88904 11.2771 10.112 11.2771 10.389Z" />
</svg>
