<svg viewBox="0 0 24 24" fill="currentColor" stroke="currentColor" xmlns="http://www.w3.org/2000/svg">
<path d="M18 2.5H6C3.71 2.5 2.5 3.71 2.5 6V21C2.5 21.202 2.62208 21.385 2.80908 21.462C2.87108 21.488 2.936 21.5 3 21.5C3.13 21.5 3.258 21.449 3.354 21.354L6.20801 18.5H18C20.29 18.5 21.5 17.29 21.5 15V6C21.5 3.71 20.29 2.5 18 2.5ZM20.5 15C20.5 16.729 19.729 17.5 18 17.5H6C5.867 17.5 5.74 17.553 5.646 17.646L3.5 19.792V6C3.5 4.271 4.271 3.5 6 3.5H18C19.729 3.5 20.5 4.271 20.5 6V15ZM14.25 9.56396V8.25C14.25 7.009 13.24 6 12 6C10.76 6 9.75 7.009 9.75 8.25V9.56396C8.952 9.74496 8.5 10.346 8.5 11.286V13.215C8.5 14.35 9.15089 15.001 10.2859 15.001H13.7141C14.8491 15.001 15.5 14.35 15.5 13.215V11.286C15.5 10.346 15.048 9.74496 14.25 9.56396ZM12 7C12.689 7 13.25 7.561 13.25 8.25V9.5H10.75V8.25C10.75 7.561 11.311 7 12 7ZM14.5 13.214C14.5 13.794 14.2941 14 13.7141 14H10.2859C9.70589 14 9.5 13.794 9.5 13.214V11.285C9.5 10.705 9.70589 10.499 10.2859 10.499H13.7141C14.2941 10.499 14.5 10.705 14.5 11.285V13.214Z" />
</svg>
