<svg viewBox="0 0 24 24" fill="currentColor" stroke="currentColor" xmlns="http://www.w3.org/2000/svg">
<path d="M18 2.5H6C3.71 2.5 2.5 3.71 2.5 6V21C2.5 21.202 2.62208 21.385 2.80908 21.462C2.87108 21.488 2.936 21.5 3 21.5C3.13 21.5 3.258 21.449 3.354 21.354L6.20801 18.5H18C20.29 18.5 21.5 17.29 21.5 15V6C21.5 3.71 20.29 2.5 18 2.5ZM20.5 15C20.5 16.729 19.729 17.5 18 17.5H6C5.867 17.5 5.74 17.553 5.646 17.646L3.5 19.792V6C3.5 4.271 4.271 3.5 6 3.5H18C19.729 3.5 20.5 4.271 20.5 6V15ZM15.623 7.29102C13.839 6.83802 13.0019 6.44805 12.2339 6.05505C12.0909 5.98205 11.922 5.98096 11.782 6.05396C11.009 6.44296 10.1661 6.83603 8.36206 7.35303C8.14706 7.41503 8 7.61001 8 7.83301V10.0551C8 12.7221 9.98309 14.345 11.8401 14.973C11.8921 14.991 11.946 14.999 12 14.999C12.054 14.999 12.1079 14.99 12.1599 14.973C14.0159 14.345 16 12.7231 16 10.0551V7.77502C16 7.54702 15.845 7.34702 15.623 7.29102ZM15 10.056C15 12.601 12.764 13.676 12 13.969C11.236 13.677 9 12.601 9 10.056V8.20801C10.356 7.80401 11.1769 7.46596 12.0049 7.05896C12.8339 7.47096 13.653 7.80099 15 8.16199V10.056Z" />
</svg>
