<svg viewBox="0 0 24 24" fill="currentColor" stroke="currentColor" xmlns="http://www.w3.org/2000/svg">
<path d="M18 2.5H6C3.71 2.5 2.5 3.71 2.5 6V21C2.5 21.202 2.62208 21.385 2.80908 21.462C2.87108 21.488 2.936 21.5 3 21.5C3.13 21.5 3.258 21.449 3.354 21.354L6.20801 18.5H18C20.29 18.5 21.5 17.29 21.5 15V6C21.5 3.71 20.29 2.5 18 2.5ZM20.5 15C20.5 16.729 19.729 17.5 18 17.5H6C5.867 17.5 5.74 17.553 5.646 17.646L3.5 19.792V6C3.5 4.271 4.271 3.5 6 3.5H18C19.729 3.5 20.5 4.271 20.5 6V15ZM15.5139 7.47498C15.3739 7.24198 15.0751 7.16295 14.8401 7.29395L14.708 7.36804C14.433 7.52104 14.0931 7.52094 13.8191 7.36694C13.5531 7.21694 13.3879 6.94205 13.3879 6.64905C13.3879 6.29105 13.0939 6 12.7339 6H11.21C10.85 6 10.5559 6.29205 10.5559 6.64905C10.5559 6.94205 10.391 7.21694 10.126 7.36694C9.85098 7.52094 9.51008 7.52104 9.23608 7.36804C8.93108 7.19604 8.53598 7.30105 8.35498 7.60205L7.59009 8.88501C7.50209 9.03301 7.477 9.21398 7.521 9.38098C7.566 9.54798 7.67803 9.69305 7.83203 9.77905C8.09803 9.92905 8.26292 10.204 8.26392 10.498C8.26492 10.793 8.10003 11.0699 7.83203 11.2209C7.68003 11.3059 7.56597 11.451 7.52197 11.619C7.47697 11.786 7.50209 11.967 7.59009 12.114L8.35498 13.397C8.53498 13.698 8.93306 13.803 9.23706 13.63C9.51006 13.477 9.851 13.476 10.125 13.631H10.126C10.391 13.78 10.5559 14.055 10.5549 14.349C10.5549 14.707 10.848 14.998 11.208 14.998H12.7351C13.0951 14.998 13.3879 14.706 13.3879 14.349C13.3879 14.056 13.5531 13.78 13.8191 13.631C14.0911 13.476 14.431 13.476 14.708 13.63C15.015 13.802 15.4091 13.698 15.5891 13.397L16.3569 12.109C16.4449 11.959 16.4681 11.784 16.4231 11.616C16.3771 11.448 16.2691 11.308 16.1121 11.22C15.8461 11.07 15.6809 10.795 15.6809 10.5C15.6799 10.205 15.8461 9.92805 16.1111 9.77905L16.2439 9.70496C16.3609 9.63896 16.4479 9.52795 16.4829 9.39795C16.5169 9.26795 16.499 9.12894 16.429 9.01294L15.5139 7.47498ZM15.3259 11.885L14.8879 12.621C14.3769 12.445 13.8039 12.493 13.3279 12.761C12.8529 13.028 12.5261 13.484 12.4241 14H11.521C11.418 13.485 11.0909 13.029 10.6179 12.761C10.1399 12.491 9.56588 12.446 9.05688 12.62L8.6189 11.885C9.0249 11.539 9.26492 11.031 9.26392 10.495C9.26292 9.963 9.02292 9.45999 8.61792 9.11499L9.05591 8.37903C9.56691 8.55503 10.1399 8.50701 10.6169 8.23901C11.0909 7.97101 11.418 7.515 11.52 7H12.4231C12.5261 7.515 12.8529 7.97101 13.3269 8.23901C13.8029 8.50801 14.376 8.55503 14.887 8.37903L15.325 9.11401C14.92 9.46001 14.6789 9.96695 14.6799 10.502C14.6819 11.036 14.9219 11.541 15.3259 11.885ZM12.75 10.5C12.75 10.915 12.4159 11.25 12.0039 11.25C11.5929 11.25 11.25 10.915 11.25 10.5C11.25 10.085 11.577 9.75 11.989 9.75H12.0039C12.4159 9.75 12.75 10.085 12.75 10.5Z" />
</svg>
