<svg viewBox="0 0 24 24" fill="currentColor" stroke="currentColor" xmlns="http://www.w3.org/2000/svg">
<path d="M19 8.5H17.5V5.33301C17.5 3.50601 16.494 2.5 14.667 2.5H5.33301C3.50601 2.5 2.5 3.50601 2.5 5.33301V17C2.5 17.202 2.62208 17.385 2.80908 17.462C2.87108 17.488 2.936 17.5 3 17.5C3.13 17.5 3.258 17.449 3.354 17.354L5.54102 15.167H8.50098V17C8.50098 18.612 9.38898 19.5 11.001 19.5H18.7939L20.6479 21.354C20.7439 21.45 20.872 21.5 21.002 21.5C21.066 21.5 21.1321 21.488 21.1931 21.462C21.3801 21.385 21.502 21.202 21.502 21V11C21.5 9.388 20.612 8.5 19 8.5ZM5.33301 14.167C5.20001 14.167 5.073 14.22 4.979 14.313L3.5 15.792V5.33301C3.5 4.04801 4.04801 3.5 5.33301 3.5H14.667C15.952 3.5 16.5 4.04801 16.5 5.33301V12.333C16.5 13.618 15.952 14.166 14.667 14.166H5.33301V14.167ZM20.5 19.793L19.354 18.647C19.26 18.553 19.133 18.501 19 18.501H11C9.948 18.501 9.5 18.052 9.5 17.001V15.168H14.667C16.494 15.168 17.5 14.162 17.5 12.335V9.50195H19C20.052 9.50195 20.5 9.95095 20.5 11.002V19.793ZM10.75 9C10.75 9.415 10.4159 9.75 10.0039 9.75C9.59291 9.75 9.25 9.415 9.25 9C9.25 8.585 9.57701 8.25 9.98901 8.25H10.0039C10.4159 8.25 10.75 8.585 10.75 9ZM13.75 9C13.75 9.415 13.4159 9.75 13.0039 9.75C12.5929 9.75 12.25 9.415 12.25 9C12.25 8.585 12.577 8.25 12.989 8.25H13.0039C13.4159 8.25 13.75 8.585 13.75 9ZM7.75 9C7.75 9.415 7.41591 9.75 7.00391 9.75C6.59291 9.75 6.25 9.415 6.25 9C6.25 8.585 6.57701 8.25 6.98901 8.25H7.00391C7.41591 8.25 7.75 8.585 7.75 9Z" />
</svg>
