<svg viewBox="0 0 24 24" fill="currentColor" stroke="currentColor" xmlns="http://www.w3.org/2000/svg">
<path d="M18 2.5H6C3.71 2.5 2.5 3.71 2.5 6V21C2.5 21.202 2.62208 21.385 2.80908 21.462C2.87108 21.488 2.936 21.5 3 21.5C3.13 21.5 3.258 21.449 3.354 21.354L6.20801 18.5H18C20.29 18.5 21.5 17.29 21.5 15V6C21.5 3.71 20.29 2.5 18 2.5ZM20.5 15C20.5 16.729 19.729 17.5 18 17.5H6C5.867 17.5 5.74 17.553 5.646 17.646L3.5 19.792V6C3.5 4.271 4.271 3.5 6 3.5H18C19.729 3.5 20.5 4.271 20.5 6V15ZM16.354 8.54602C16.549 8.74102 16.549 9.05805 16.354 9.25305L14.1189 11.488C13.8749 11.733 13.5489 11.869 13.2009 11.869C13.2009 11.869 13.201 11.869 13.2 11.869C12.854 11.869 12.528 11.734 12.283 11.49L11.011 10.2209C10.897 10.1049 10.7049 10.1029 10.5869 10.2209L8.35498 12.453C8.25698 12.551 8.12898 12.599 8.00098 12.599C7.87298 12.599 7.74497 12.55 7.64697 12.453C7.45197 12.258 7.45197 11.941 7.64697 11.746L9.87891 9.51404C10.3859 9.00804 11.21 9.00794 11.717 9.51294L12.988 10.782C13.103 10.899 13.2949 10.897 13.4099 10.782L15.646 8.547C15.842 8.351 16.158 8.35102 16.354 8.54602Z" />
</svg>
