<svg viewBox="0 0 24 24" fill="currentColor" stroke="currentColor" xmlns="http://www.w3.org/2000/svg">
<path d="M21.5 10V15C21.5 17.29 20.29 18.5 18 18.5H6.20703L3.35303 21.354C3.25703 21.45 3.12902 21.5 2.99902 21.5C2.93502 21.5 2.86911 21.488 2.80811 21.462C2.62111 21.385 2.49902 21.202 2.49902 21V6C2.49902 3.71 3.70902 2.5 5.99902 2.5H13.999C14.275 2.5 14.499 2.724 14.499 3C14.499 3.276 14.275 3.5 13.999 3.5H5.99902C4.27002 3.5 3.49902 4.271 3.49902 6V19.793L5.64502 17.647C5.73902 17.553 5.86602 17.501 5.99902 17.501H17.999C19.728 17.501 20.499 16.73 20.499 15.001V10.001C20.499 9.72498 20.723 9.50098 20.999 9.50098C21.275 9.50098 21.5 9.724 21.5 10ZM22.5 4C22.5 5.378 21.379 6.5 20 6.5C18.621 6.5 17.5 5.378 17.5 4C17.5 2.622 18.621 1.5 20 1.5C21.379 1.5 22.5 2.622 22.5 4ZM21.5 4C21.5 3.173 20.827 2.5 20 2.5C19.173 2.5 18.5 3.173 18.5 4C18.5 4.827 19.173 5.5 20 5.5C20.827 5.5 21.5 4.827 21.5 4ZM11.989 9.75C11.577 9.75 11.25 10.085 11.25 10.5C11.25 10.915 11.5929 11.25 12.0039 11.25C12.4169 11.25 12.75 10.915 12.75 10.5C12.75 10.085 12.4159 9.75 12.0039 9.75H11.989ZM16.0039 11.25C16.4169 11.25 16.75 10.915 16.75 10.5C16.75 10.085 16.4159 9.75 16.0039 9.75H15.989C15.577 9.75 15.25 10.085 15.25 10.5C15.25 10.915 15.5929 11.25 16.0039 11.25ZM7.98901 9.75C7.57701 9.75 7.25 10.085 7.25 10.5C7.25 10.915 7.59291 11.25 8.00391 11.25C8.41691 11.25 8.75 10.915 8.75 10.5C8.75 10.085 8.41591 9.75 8.00391 9.75H7.98901Z" />
</svg>
