<svg viewBox="0 0 24 24" fill="currentColor" stroke="currentColor" xmlns="http://www.w3.org/2000/svg">
<path d="M18 2.5H6C3.71 2.5 2.5 3.71 2.5 6V21C2.5 21.202 2.62208 21.385 2.80908 21.462C2.87108 21.488 2.936 21.5 3 21.5C3.13 21.5 3.258 21.449 3.354 21.354L6.20801 18.5H18C20.29 18.5 21.5 17.29 21.5 15V6C21.5 3.71 20.29 2.5 18 2.5ZM20.5 15C20.5 16.729 19.729 17.5 18 17.5H6C5.867 17.5 5.74 17.553 5.646 17.646L3.5 19.792V6C3.5 4.271 4.271 3.5 6 3.5H18C19.729 3.5 20.5 4.271 20.5 6V15ZM14.854 8.354L12.708 10.5L14.854 12.646C15.049 12.841 15.049 13.158 14.854 13.353C14.756 13.451 14.628 13.499 14.5 13.499C14.372 13.499 14.244 13.45 14.146 13.353L12 11.207L9.854 13.353C9.756 13.451 9.628 13.499 9.5 13.499C9.372 13.499 9.244 13.45 9.146 13.353C8.951 13.158 8.951 12.841 9.146 12.646L11.292 10.5L9.146 8.354C8.951 8.159 8.951 7.84197 9.146 7.64697C9.341 7.45197 9.65803 7.45197 9.85303 7.64697L11.999 9.79297L14.145 7.64697C14.34 7.45197 14.6571 7.45197 14.8521 7.64697C15.0471 7.84197 15.049 8.158 14.854 8.354Z" />
</svg>
