<svg viewBox="0 0 24 24" fill="currentColor" stroke="currentColor" xmlns="http://www.w3.org/2000/svg">
<path d="M21.5 6V9C21.5 9.276 21.276 9.5 21 9.5C20.724 9.5 20.5 9.276 20.5 9V6C20.5 4.271 19.729 3.5 18 3.5H6C4.271 3.5 3.5 4.271 3.5 6V19.793L5.646 17.647C5.74 17.553 5.867 17.501 6 17.501H12C12.276 17.501 12.5 17.725 12.5 18.001C12.5 18.277 12.276 18.501 12 18.501H6.20703L3.35303 21.355C3.25703 21.451 3.12902 21.501 2.99902 21.501C2.93502 21.501 2.86911 21.489 2.80811 21.463C2.62111 21.386 2.49902 21.203 2.49902 21.001V6.00098C2.49902 3.71098 3.70902 2.50098 5.99902 2.50098H17.999C20.29 2.49998 21.5 3.71 21.5 6ZM21 14.5H16C15.724 14.5 15.5 14.724 15.5 15C15.5 15.276 15.724 15.5 16 15.5H21C21.276 15.5 21.5 15.276 21.5 15C21.5 14.724 21.276 14.5 21 14.5ZM12 9.75H11.9851C11.5721 9.75 11.2461 10.085 11.2461 10.5C11.2461 10.915 11.589 11.25 12 11.25C12.413 11.25 12.7461 10.915 12.7461 10.5C12.7461 10.085 12.413 9.75 12 9.75ZM16.7461 10.5C16.7461 10.085 16.412 9.75 16 9.75H15.9851C15.5721 9.75 15.2461 10.085 15.2461 10.5C15.2461 10.915 15.589 11.25 16 11.25C16.413 11.25 16.7461 10.915 16.7461 10.5ZM7.98511 9.75C7.57211 9.75 7.24609 10.085 7.24609 10.5C7.24609 10.915 7.589 11.25 8 11.25C8.413 11.25 8.74609 10.915 8.74609 10.5C8.74609 10.085 8.412 9.75 8 9.75H7.98511Z" />
</svg>
