<svg viewBox="0 0 24 24" fill="currentColor" stroke="currentColor" xmlns="http://www.w3.org/2000/svg">
<path d="M18 2.5H6C3.71 2.5 2.5 3.71 2.5 6V21C2.5 21.202 2.62208 21.385 2.80908 21.462C2.87108 21.488 2.936 21.5 3 21.5C3.13 21.5 3.258 21.449 3.354 21.354L6.20801 18.5H18C20.29 18.5 21.5 17.29 21.5 15V6C21.5 3.71 20.29 2.5 18 2.5ZM20.5 15C20.5 16.729 19.729 17.5 18 17.5H6C5.867 17.5 5.74 17.553 5.646 17.646L3.5 19.792V6C3.5 4.271 4.271 3.5 6 3.5H18C19.729 3.5 20.5 4.271 20.5 6V15ZM14.3379 8.448C14.5039 9.397 14.1031 10.247 13.2061 10.843C12.6261 11.229 12.5011 11.456 12.4741 11.535C12.4041 11.743 12.209 11.875 12 11.875C11.947 11.875 11.8941 11.867 11.8401 11.849C11.5781 11.761 11.4381 11.477 11.5271 11.215C11.7051 10.688 12.2551 10.275 12.6531 10.01C13.2221 9.63201 13.452 9.17795 13.354 8.62195C13.256 8.07095 12.8039 7.61895 12.2539 7.52295C11.8379 7.44995 11.434 7.55602 11.116 7.82202C10.804 8.08402 10.625 8.46798 10.625 8.87598C10.625 9.15198 10.401 9.37598 10.125 9.37598C9.849 9.37598 9.625 9.15198 9.625 8.87598C9.625 8.17198 9.93512 7.50901 10.4741 7.05701C11.0131 6.60501 11.726 6.41696 12.426 6.53796C13.383 6.70496 14.1699 7.491 14.3379 8.448ZM12.75 14C12.75 14.415 12.4159 14.75 12.0039 14.75C11.5929 14.75 11.25 14.415 11.25 14C11.25 13.585 11.577 13.25 11.989 13.25H12.0039C12.4159 13.25 12.75 13.585 12.75 14Z" />
</svg>
