<svg viewBox="0 0 24 24" fill="currentColor" stroke="currentColor" xmlns="http://www.w3.org/2000/svg">
<path d="M18 2.5H6C3.71 2.5 2.5 3.71 2.5 6V21C2.5 21.202 2.62208 21.385 2.80908 21.462C2.87108 21.488 2.936 21.5 3 21.5C3.13 21.5 3.258 21.449 3.354 21.354L6.20801 18.5H18C20.29 18.5 21.5 17.29 21.5 15V6C21.5 3.71 20.29 2.5 18 2.5ZM20.5 15C20.5 16.729 19.729 17.5 18 17.5H6C5.867 17.5 5.74 17.553 5.646 17.646L3.5 19.792V6C3.5 4.271 4.271 3.5 6 3.5H18C19.729 3.5 20.5 4.271 20.5 6V15ZM15.376 8.146C15.571 8.341 15.571 8.65803 15.376 8.85303L11.376 12.853C11.278 12.951 11.15 12.999 11.022 12.999C10.894 12.999 10.766 12.95 10.668 12.853L8.66797 10.853C8.47297 10.658 8.47297 10.341 8.66797 10.146C8.86297 9.951 9.18 9.951 9.375 10.146L11.021 11.792L14.667 8.146C14.864 7.951 15.181 7.951 15.376 8.146Z" />
</svg>
