<svg viewBox="0 0 24 24" fill="currentColor" stroke="currentColor" xmlns="http://www.w3.org/2000/svg">
<path d="M18 2.5H6C3.71 2.5 2.5 3.71 2.5 6V21C2.5 21.202 2.62208 21.385 2.80908 21.462C2.87108 21.488 2.936 21.5 3 21.5C3.13 21.5 3.258 21.449 3.354 21.354L6.20801 18.5H18C20.29 18.5 21.5 17.29 21.5 15V6C21.5 3.71 20.29 2.5 18 2.5ZM20.5 15C20.5 16.729 19.729 17.5 18 17.5H6C5.867 17.5 5.74 17.553 5.646 17.646L3.5 19.792V6C3.5 4.271 4.271 3.5 6 3.5H18C19.729 3.5 20.5 4.271 20.5 6V15ZM15.916 8.69104L13.8181 8.401L12.9021 6.55798C12.5601 5.86998 11.4379 5.86998 11.0979 6.55798L10.2009 8.38599L8.08398 8.69104C7.71398 8.74404 7.4121 8.998 7.2981 9.354C7.1831 9.708 7.2779 10.089 7.5459 10.348L9.06689 11.801L8.71802 13.824C8.65202 14.202 8.80401 14.577 9.11401 14.804C9.42601 15.033 9.83303 15.063 10.176 14.884L11.988 13.927L13.824 14.885C13.972 14.962 14.133 15 14.291 15C14.5 15 14.708 14.9341 14.885 14.8051C15.196 14.5791 15.348 14.204 15.282 13.825L14.9241 11.827L16.4541 10.347C16.7221 10.088 16.8169 9.70703 16.7019 9.35303C16.5879 8.99803 16.286 8.74404 15.916 8.69104ZM14.229 11.108C13.999 11.331 13.893 11.653 13.948 11.97L14.2881 13.9969L12.4519 13.0389C12.3099 12.9649 12.156 12.929 12.001 12.929C11.846 12.929 11.691 12.9659 11.55 13.0389L9.70508 13.993L10.0549 11.969C10.1089 11.653 10.0029 11.33 9.77295 11.108L8.22803 9.68005L10.3459 9.37402C10.6619 9.32802 10.9359 9.12997 11.0769 8.84497L12.0049 6.99805C12.0049 6.99805 12.0061 6.99898 12.0071 7.00098H12.0081L12.925 8.84497C13.067 9.12997 13.34 9.32802 13.657 9.37402L15.76 9.62695L14.229 11.108Z" />
</svg>
