<svg viewBox="0 0 24 24" fill="currentColor" stroke="currentColor" xmlns="http://www.w3.org/2000/svg">
<path d="M21.5 6V10C21.5 10.276 21.276 10.5 21 10.5C20.724 10.5 20.5 10.276 20.5 10V6C20.5 4.271 19.729 3.5 18 3.5H6C4.271 3.5 3.5 4.271 3.5 6V19.793L5.646 17.647C5.74 17.553 5.867 17.501 6 17.501H13C13.276 17.501 13.5 17.725 13.5 18.001C13.5 18.277 13.276 18.501 13 18.501H6.20703L3.35303 21.355C3.25703 21.451 3.12902 21.501 2.99902 21.501C2.93502 21.501 2.86911 21.489 2.80811 21.463C2.62111 21.386 2.49902 21.203 2.49902 21.001V6.00098C2.49902 3.71098 3.70902 2.50098 5.99902 2.50098H17.999C20.29 2.49998 21.5 3.71 21.5 6ZM21.354 13.646C21.159 13.451 20.842 13.451 20.647 13.646L19.001 15.292L17.355 13.646C17.16 13.451 16.8429 13.451 16.6479 13.646C16.4529 13.841 16.4529 14.158 16.6479 14.353L18.2939 15.999L16.6479 17.645C16.4529 17.84 16.4529 18.1571 16.6479 18.3521C16.7459 18.4501 16.874 18.498 17.002 18.498C17.13 18.498 17.258 18.4491 17.356 18.3521L19.002 16.7061L20.6479 18.3521C20.7459 18.4501 20.874 18.498 21.002 18.498C21.13 18.498 21.258 18.4491 21.356 18.3521C21.551 18.1571 21.551 17.84 21.356 17.645L19.71 15.999L21.356 14.353C21.549 14.158 21.549 13.842 21.354 13.646Z" />
</svg>
