<svg viewBox="0 0 24 24" fill="currentColor" stroke="currentColor" xmlns="http://www.w3.org/2000/svg">
<path d="M18 2.5H6C3.71 2.5 2.5 3.71 2.5 6V21C2.5 21.202 2.62208 21.385 2.80908 21.462C2.87108 21.488 2.936 21.5 3 21.5C3.13 21.5 3.258 21.449 3.354 21.354L6.20801 18.5H18C20.29 18.5 21.5 17.29 21.5 15V6C21.5 3.71 20.29 2.5 18 2.5ZM20.5 15C20.5 16.729 19.729 17.5 18 17.5H6C5.867 17.5 5.74 17.553 5.646 17.646L3.5 19.792V6C3.5 4.271 4.271 3.5 6 3.5H18C19.729 3.5 20.5 4.271 20.5 6V15ZM13.77 6.5C12.917 6.521 12.347 6.91799 12 7.33899C11.652 6.91899 11.113 6.474 10.229 6.5C9.382 6.504 8.67391 6.82403 8.18091 7.42603C7.58591 8.15203 7.36301 9.26004 7.58301 10.389C8.14801 13.278 11.645 14.889 11.793 14.955C11.858 14.985 11.929 14.999 11.999 14.999C12.069 14.999 12.1401 14.984 12.2051 14.955C12.3531 14.888 15.85 13.278 16.415 10.389C16.635 9.25804 16.4119 8.15005 15.8159 7.42505C15.3249 6.82405 14.617 6.504 13.77 6.5ZM15.4341 10.198C15.0391 12.219 12.712 13.572 12 13.942C11.288 13.571 8.96094 12.219 8.56494 10.197C8.40094 9.35702 8.54605 8.55796 8.95605 8.05896C9.25805 7.68996 9.68691 7.50202 10.2329 7.49902C10.2359 7.49902 10.238 7.49902 10.24 7.49902C11.173 7.49902 11.5119 8.43905 11.5259 8.47705C11.5929 8.67905 11.7831 8.81504 11.9971 8.81604C12.1811 8.82404 12.4009 8.68198 12.4729 8.47998C12.4879 8.43998 12.827 7.5 13.759 7.5C13.761 7.5 13.7631 7.5 13.7661 7.5C14.3131 7.502 14.7429 7.68996 15.0449 8.05896C15.4519 8.55596 15.5991 9.356 15.4341 10.198Z" />
</svg>
