<svg viewBox="0 0 24 24" fill="currentColor" stroke="currentColor" xmlns="http://www.w3.org/2000/svg">
<path d="M18 2.5H6C3.71 2.5 2.5 3.71 2.5 6V21C2.5 21.202 2.62208 21.385 2.80908 21.462C2.87108 21.488 2.936 21.5 3 21.5C3.13 21.5 3.258 21.449 3.354 21.354L6.20801 18.5H18C20.29 18.5 21.5 17.29 21.5 15V6C21.5 3.71 20.29 2.5 18 2.5ZM20.5 15C20.5 16.729 19.729 17.5 18 17.5H6C5.867 17.5 5.74 17.553 5.646 17.646L3.5 19.792V6C3.5 4.271 4.271 3.5 6 3.5H18C19.729 3.5 20.5 4.271 20.5 6V15ZM12.75 10.5C12.75 10.915 12.4159 11.25 12.0039 11.25C11.5929 11.25 11.25 10.915 11.25 10.5C11.25 10.085 11.577 9.75 11.989 9.75H12.0039C12.4159 9.75 12.75 10.085 12.75 10.5ZM16.75 10.5C16.75 10.915 16.4159 11.25 16.0039 11.25C15.5929 11.25 15.25 10.915 15.25 10.5C15.25 10.085 15.577 9.75 15.989 9.75H16.0039C16.4159 9.75 16.75 10.085 16.75 10.5ZM8.75 10.5C8.75 10.915 8.41591 11.25 8.00391 11.25C7.59291 11.25 7.25 10.915 7.25 10.5C7.25 10.085 7.57701 9.75 7.98901 9.75H8.00391C8.41591 9.75 8.75 10.085 8.75 10.5Z" />
</svg>
