<svg viewBox="0 0 24 24" fill="currentColor" stroke="currentColor" xmlns="http://www.w3.org/2000/svg">
<path d="M18 2.5H6C3.71 2.5 2.5 3.71 2.5 6V21C2.5 21.202 2.62208 21.385 2.80908 21.462C2.87108 21.488 2.936 21.5 3 21.5C3.13 21.5 3.258 21.449 3.354 21.354L6.20801 18.5H18C20.29 18.5 21.5 17.29 21.5 15V6C21.5 3.71 20.29 2.5 18 2.5ZM20.5 15C20.5 16.729 19.729 17.5 18 17.5H6C5.867 17.5 5.74 17.553 5.646 17.646L3.5 19.792V6C3.5 4.271 4.271 3.5 6 3.5H18C19.729 3.5 20.5 4.271 20.5 6V15ZM15.103 6.40698C14.84 6.14498 14.4921 6 14.1221 6C14.1211 6 14.1201 6 14.1201 6C13.7481 6 13.3989 6.14606 13.1379 6.40906L7.64697 11.925C7.55397 12.018 7.50098 12.145 7.50098 12.278V14.5C7.50098 14.776 7.72498 15 8.00098 15H10.2241C10.3561 15 10.4829 14.948 10.5769 14.854L16.093 9.36304C16.357 9.10104 16.501 8.75298 16.502 8.38098C16.502 8.00898 16.357 7.65997 16.095 7.39697L15.103 6.40698ZM10.0171 14H8.5V12.484L12.3311 8.63599L13.864 10.1689L10.0171 14ZM15.386 8.65405L14.573 9.46399L13.0371 7.92798L13.8469 7.11499C13.9199 7.04099 14.0181 7.00098 14.1211 7.00098C14.1211 7.00098 14.1211 7.00098 14.1221 7.00098C14.2261 7.00098 14.323 7.04199 14.396 7.11499L15.386 8.10498C15.46 8.17898 15.5 8.27698 15.5 8.38098C15.5 8.48498 15.459 8.58105 15.386 8.65405Z" />
</svg>
