<svg viewBox="0 0 24 24" fill="currentColor" stroke="currentColor" xmlns="http://www.w3.org/2000/svg">
<path d="M18 2.5H6C3.71 2.5 2.5 3.71 2.5 6V21C2.5 21.202 2.62208 21.385 2.80908 21.462C2.87108 21.488 2.936 21.5 3 21.5C3.13 21.5 3.258 21.449 3.354 21.354L6.20801 18.5H18C20.29 18.5 21.5 17.29 21.5 15V6C21.5 3.71 20.29 2.5 18 2.5ZM20.5 15C20.5 16.729 19.729 17.5 18 17.5H6C5.867 17.5 5.74 17.553 5.646 17.646L3.5 19.792V6C3.5 4.271 4.271 3.5 6 3.5H18C19.729 3.5 20.5 4.271 20.5 6V15ZM10.854 8.854L9.20801 10.5L10.854 12.146C11.049 12.341 11.049 12.658 10.854 12.853C10.756 12.951 10.628 12.999 10.5 12.999C10.372 12.999 10.244 12.95 10.146 12.853L8.146 10.853C7.951 10.658 7.951 10.341 8.146 10.146L10.146 8.146C10.341 7.951 10.658 7.951 10.853 8.146C11.048 8.341 11.049 8.658 10.854 8.854ZM15.854 10.146C16.049 10.341 16.049 10.658 15.854 10.853L13.854 12.853C13.756 12.951 13.628 12.999 13.5 12.999C13.372 12.999 13.244 12.95 13.146 12.853C12.951 12.658 12.951 12.341 13.146 12.146L14.792 10.5L13.146 8.854C12.951 8.659 12.951 8.34197 13.146 8.14697C13.341 7.95197 13.658 7.95197 13.853 8.14697L15.854 10.146Z" />
</svg>
