<svg viewBox="0 0 24 24" fill="currentColor" stroke="currentColor" xmlns="http://www.w3.org/2000/svg">
<path d="M18 2.5H6C3.71 2.5 2.5 3.71 2.5 6V21C2.5 21.202 2.62208 21.385 2.80908 21.462C2.87108 21.488 2.936 21.5 3 21.5C3.13 21.5 3.258 21.449 3.354 21.354L6.20801 18.5H18C20.29 18.5 21.5 17.29 21.5 15V6C21.5 3.71 20.29 2.5 18 2.5ZM20.5 15C20.5 16.729 19.729 17.5 18 17.5H6C5.867 17.5 5.74 17.553 5.646 17.646L3.5 19.792V6C3.5 4.271 4.271 3.5 6 3.5H18C19.729 3.5 20.5 4.271 20.5 6V15ZM12 6C9.519 6 7.5 8.019 7.5 10.5C7.5 12.981 9.519 15 12 15C14.481 15 16.5 12.981 16.5 10.5C16.5 8.019 14.481 6 12 6ZM12 14C10.07 14 8.5 12.43 8.5 10.5C8.5 8.57 10.07 7 12 7C13.93 7 15.5 8.57 15.5 10.5C15.5 12.43 13.93 14 12 14ZM13.354 11.146C13.549 11.341 13.549 11.658 13.354 11.853C13.256 11.951 13.128 11.999 13 11.999C12.872 11.999 12.744 11.95 12.646 11.853L11.646 10.853C11.552 10.759 11.5 10.632 11.5 10.499V8.99902C11.5 8.72302 11.724 8.49902 12 8.49902C12.276 8.49902 12.5 8.72302 12.5 8.99902V10.292L13.354 11.146Z" />
</svg>
