<svg viewBox="0 0 24 24" fill="currentColor" stroke="currentColor" xmlns="http://www.w3.org/2000/svg">
<path d="M18 2.5H6C3.71 2.5 2.5 3.71 2.5 6V21C2.5 21.202 2.62208 21.385 2.80908 21.462C2.87108 21.488 2.936 21.5 3 21.5C3.13 21.5 3.258 21.449 3.354 21.354L6.20801 18.5H18C20.29 18.5 21.5 17.29 21.5 15V6C21.5 3.71 20.29 2.5 18 2.5ZM20.5 15C20.5 16.729 19.729 17.5 18 17.5H6C5.867 17.5 5.74 17.553 5.646 17.646L3.5 19.792V6C3.5 4.271 4.271 3.5 6 3.5H18C19.729 3.5 20.5 4.271 20.5 6V15ZM16.5 8.5C16.5 8.776 16.276 9 16 9H8C7.724 9 7.5 8.776 7.5 8.5C7.5 8.224 7.724 8 8 8H16C16.276 8 16.5 8.224 16.5 8.5ZM13.5 12.5C13.5 12.776 13.276 13 13 13H8C7.724 13 7.5 12.776 7.5 12.5C7.5 12.224 7.724 12 8 12H13C13.276 12 13.5 12.224 13.5 12.5Z" />
</svg>
